<?xml version="1.0" encoding="utf-8" standalone="no"?>
<!DOCTYPE svg PUBLIC "-//W3C//DTD SVG 1.1//EN"
  "http://www.w3.org/Graphics/SVG/1.1/DTD/svg11.dtd">
<svg xmlns:xlink="http://www.w3.org/1999/xlink" width="856.836875pt" height="359.739875pt" viewBox="0 0 856.836875 359.739875" xmlns="http://www.w3.org/2000/svg" version="1.1">
 <metadata>
  <rdf:RDF xmlns:dc="http://purl.org/dc/elements/1.1/" xmlns:cc="http://creativecommons.org/ns#" xmlns:rdf="http://www.w3.org/1999/02/22-rdf-syntax-ns#">
   <cc:Work>
    <dc:type rdf:resource="http://purl.org/dc/dcmitype/StillImage"/>
    <dc:date>2026-01-02T18:59:16.181298</dc:date>
    <dc:format>image/svg+xml</dc:format>
    <dc:creator>
     <cc:Agent>
      <dc:title>Matplotlib v3.10.8, https://matplotlib.org/</dc:title>
     </cc:Agent>
    </dc:creator>
   </cc:Work>
  </rdf:RDF>
 </metadata>
 <defs>
  <style type="text/css">*{stroke-linejoin: round; stroke-linecap: butt}</style>
 </defs>
 <g id="figure_1">
  <g id="patch_1">
   <path d="M 0 359.739875 
L 856.836875 359.739875 
L 856.836875 0 
L 0 0 
z
" style="fill: #ffffff"/>
  </g>
  <g id="axes_1">
   <g id="patch_2">
    <path d="M 45.716875 320.248 
L 423.066875 320.248 
L 423.066875 71.728 
L 45.716875 71.728 
z
" style="fill: #ffffff"/>
   </g>
   <g id="matplotlib.axis_1">
    <g id="xtick_1">
     <g id="line2d_1">
      <path d="M 62.869148 320.248 
L 62.869148 71.728 
" clip-path="url(#pbab095d82a)" style="fill: none; stroke: #ecf0f1; stroke-opacity: 0.9; stroke-width: 0.8; stroke-linecap: square"/>
     </g>
     <g id="line2d_2">
      <defs>
       <path id="mc72b8cc69d" d="M 0 0 
L 0 3.5 
" style="stroke: #000000; stroke-width: 0.8"/>
      </defs>
      <g>
       <use xlink:href="#mc72b8cc69d" x="62.869148" y="320.248" style="stroke: #000000; stroke-width: 0.8"/>
      </g>
     </g>
     <g id="text_1">
      <!-- 0.0 -->
      <g transform="translate(54.917585 334.846437) scale(0.1 -0.1)">
       <defs>
        <path id="DejaVuSans-30" d="M 2034 4250 
Q 1547 4250 1301 3770 
Q 1056 3291 1056 2328 
Q 1056 1369 1301 889 
Q 1547 409 2034 409 
Q 2525 409 2770 889 
Q 3016 1369 3016 2328 
Q 3016 3291 2770 3770 
Q 2525 4250 2034 4250 
z
M 2034 4750 
Q 2819 4750 3233 4129 
Q 3647 3509 3647 2328 
Q 3647 1150 3233 529 
Q 2819 -91 2034 -91 
Q 1250 -91 836 529 
Q 422 1150 422 2328 
Q 422 3509 836 4129 
Q 1250 4750 2034 4750 
z
" transform="scale(0.015625)"/>
        <path id="DejaVuSans-2e" d="M 684 794 
L 1344 794 
L 1344 0 
L 684 0 
L 684 794 
z
" transform="scale(0.015625)"/>
       </defs>
       <use xlink:href="#DejaVuSans-30"/>
       <use xlink:href="#DejaVuSans-2e" transform="translate(63.623047 0)"/>
       <use xlink:href="#DejaVuSans-30" transform="translate(95.410156 0)"/>
      </g>
     </g>
    </g>
    <g id="xtick_2">
     <g id="line2d_3">
      <path d="M 131.478239 320.248 
L 131.478239 71.728 
" clip-path="url(#pbab095d82a)" style="fill: none; stroke: #ecf0f1; stroke-opacity: 0.9; stroke-width: 0.8; stroke-linecap: square"/>
     </g>
     <g id="line2d_4">
      <g>
       <use xlink:href="#mc72b8cc69d" x="131.478239" y="320.248" style="stroke: #000000; stroke-width: 0.8"/>
      </g>
     </g>
     <g id="text_2">
      <!-- 0.2 -->
      <g transform="translate(123.526676 334.846437) scale(0.1 -0.1)">
       <defs>
        <path id="DejaVuSans-32" d="M 1228 531 
L 3431 531 
L 3431 0 
L 469 0 
L 469 531 
Q 828 903 1448 1529 
Q 2069 2156 2228 2338 
Q 2531 2678 2651 2914 
Q 2772 3150 2772 3378 
Q 2772 3750 2511 3984 
Q 2250 4219 1831 4219 
Q 1534 4219 1204 4116 
Q 875 4013 500 3803 
L 500 4441 
Q 881 4594 1212 4672 
Q 1544 4750 1819 4750 
Q 2544 4750 2975 4387 
Q 3406 4025 3406 3419 
Q 3406 3131 3298 2873 
Q 3191 2616 2906 2266 
Q 2828 2175 2409 1742 
Q 1991 1309 1228 531 
z
" transform="scale(0.015625)"/>
       </defs>
       <use xlink:href="#DejaVuSans-30"/>
       <use xlink:href="#DejaVuSans-2e" transform="translate(63.623047 0)"/>
       <use xlink:href="#DejaVuSans-32" transform="translate(95.410156 0)"/>
      </g>
     </g>
    </g>
    <g id="xtick_3">
     <g id="line2d_5">
      <path d="M 200.08733 320.248 
L 200.08733 71.728 
" clip-path="url(#pbab095d82a)" style="fill: none; stroke: #ecf0f1; stroke-opacity: 0.9; stroke-width: 0.8; stroke-linecap: square"/>
     </g>
     <g id="line2d_6">
      <g>
       <use xlink:href="#mc72b8cc69d" x="200.08733" y="320.248" style="stroke: #000000; stroke-width: 0.8"/>
      </g>
     </g>
     <g id="text_3">
      <!-- 0.4 -->
      <g transform="translate(192.135767 334.846437) scale(0.1 -0.1)">
       <defs>
        <path id="DejaVuSans-34" d="M 2419 4116 
L 825 1625 
L 2419 1625 
L 2419 4116 
z
M 2253 4666 
L 3047 4666 
L 3047 1625 
L 3713 1625 
L 3713 1100 
L 3047 1100 
L 3047 0 
L 2419 0 
L 2419 1100 
L 313 1100 
L 313 1709 
L 2253 4666 
z
" transform="scale(0.015625)"/>
       </defs>
       <use xlink:href="#DejaVuSans-30"/>
       <use xlink:href="#DejaVuSans-2e" transform="translate(63.623047 0)"/>
       <use xlink:href="#DejaVuSans-34" transform="translate(95.410156 0)"/>
      </g>
     </g>
    </g>
    <g id="xtick_4">
     <g id="line2d_7">
      <path d="M 268.69642 320.248 
L 268.69642 71.728 
" clip-path="url(#pbab095d82a)" style="fill: none; stroke: #ecf0f1; stroke-opacity: 0.9; stroke-width: 0.8; stroke-linecap: square"/>
     </g>
     <g id="line2d_8">
      <g>
       <use xlink:href="#mc72b8cc69d" x="268.69642" y="320.248" style="stroke: #000000; stroke-width: 0.8"/>
      </g>
     </g>
     <g id="text_4">
      <!-- 0.6 -->
      <g transform="translate(260.744858 334.846437) scale(0.1 -0.1)">
       <defs>
        <path id="DejaVuSans-36" d="M 2113 2584 
Q 1688 2584 1439 2293 
Q 1191 2003 1191 1497 
Q 1191 994 1439 701 
Q 1688 409 2113 409 
Q 2538 409 2786 701 
Q 3034 994 3034 1497 
Q 3034 2003 2786 2293 
Q 2538 2584 2113 2584 
z
M 3366 4563 
L 3366 3988 
Q 3128 4100 2886 4159 
Q 2644 4219 2406 4219 
Q 1781 4219 1451 3797 
Q 1122 3375 1075 2522 
Q 1259 2794 1537 2939 
Q 1816 3084 2150 3084 
Q 2853 3084 3261 2657 
Q 3669 2231 3669 1497 
Q 3669 778 3244 343 
Q 2819 -91 2113 -91 
Q 1303 -91 875 529 
Q 447 1150 447 2328 
Q 447 3434 972 4092 
Q 1497 4750 2381 4750 
Q 2619 4750 2861 4703 
Q 3103 4656 3366 4563 
z
" transform="scale(0.015625)"/>
       </defs>
       <use xlink:href="#DejaVuSans-30"/>
       <use xlink:href="#DejaVuSans-2e" transform="translate(63.623047 0)"/>
       <use xlink:href="#DejaVuSans-36" transform="translate(95.410156 0)"/>
      </g>
     </g>
    </g>
    <g id="xtick_5">
     <g id="line2d_9">
      <path d="M 337.305511 320.248 
L 337.305511 71.728 
" clip-path="url(#pbab095d82a)" style="fill: none; stroke: #ecf0f1; stroke-opacity: 0.9; stroke-width: 0.8; stroke-linecap: square"/>
     </g>
     <g id="line2d_10">
      <g>
       <use xlink:href="#mc72b8cc69d" x="337.305511" y="320.248" style="stroke: #000000; stroke-width: 0.8"/>
      </g>
     </g>
     <g id="text_5">
      <!-- 0.8 -->
      <g transform="translate(329.353949 334.846437) scale(0.1 -0.1)">
       <defs>
        <path id="DejaVuSans-38" d="M 2034 2216 
Q 1584 2216 1326 1975 
Q 1069 1734 1069 1313 
Q 1069 891 1326 650 
Q 1584 409 2034 409 
Q 2484 409 2743 651 
Q 3003 894 3003 1313 
Q 3003 1734 2745 1975 
Q 2488 2216 2034 2216 
z
M 1403 2484 
Q 997 2584 770 2862 
Q 544 3141 544 3541 
Q 544 4100 942 4425 
Q 1341 4750 2034 4750 
Q 2731 4750 3128 4425 
Q 3525 4100 3525 3541 
Q 3525 3141 3298 2862 
Q 3072 2584 2669 2484 
Q 3125 2378 3379 2068 
Q 3634 1759 3634 1313 
Q 3634 634 3220 271 
Q 2806 -91 2034 -91 
Q 1263 -91 848 271 
Q 434 634 434 1313 
Q 434 1759 690 2068 
Q 947 2378 1403 2484 
z
M 1172 3481 
Q 1172 3119 1398 2916 
Q 1625 2713 2034 2713 
Q 2441 2713 2670 2916 
Q 2900 3119 2900 3481 
Q 2900 3844 2670 4047 
Q 2441 4250 2034 4250 
Q 1625 4250 1398 4047 
Q 1172 3844 1172 3481 
z
" transform="scale(0.015625)"/>
       </defs>
       <use xlink:href="#DejaVuSans-30"/>
       <use xlink:href="#DejaVuSans-2e" transform="translate(63.623047 0)"/>
       <use xlink:href="#DejaVuSans-38" transform="translate(95.410156 0)"/>
      </g>
     </g>
    </g>
    <g id="xtick_6">
     <g id="line2d_11">
      <path d="M 405.914602 320.248 
L 405.914602 71.728 
" clip-path="url(#pbab095d82a)" style="fill: none; stroke: #ecf0f1; stroke-opacity: 0.9; stroke-width: 0.8; stroke-linecap: square"/>
     </g>
     <g id="line2d_12">
      <g>
       <use xlink:href="#mc72b8cc69d" x="405.914602" y="320.248" style="stroke: #000000; stroke-width: 0.8"/>
      </g>
     </g>
     <g id="text_6">
      <!-- 1.0 -->
      <g transform="translate(397.96304 334.846437) scale(0.1 -0.1)">
       <defs>
        <path id="DejaVuSans-31" d="M 794 531 
L 1825 531 
L 1825 4091 
L 703 3866 
L 703 4441 
L 1819 4666 
L 2450 4666 
L 2450 531 
L 3481 531 
L 3481 0 
L 794 0 
L 794 531 
z
" transform="scale(0.015625)"/>
       </defs>
       <use xlink:href="#DejaVuSans-31"/>
       <use xlink:href="#DejaVuSans-2e" transform="translate(63.623047 0)"/>
       <use xlink:href="#DejaVuSans-30" transform="translate(95.410156 0)"/>
      </g>
     </g>
    </g>
    <g id="text_7">
     <!-- Langton's λ -->
     <g transform="translate(199.701563 350.04425) scale(0.12 -0.12)">
      <defs>
       <path id="DejaVuSans-4c" d="M 628 4666 
L 1259 4666 
L 1259 531 
L 3531 531 
L 3531 0 
L 628 0 
L 628 4666 
z
" transform="scale(0.015625)"/>
       <path id="DejaVuSans-61" d="M 2194 1759 
Q 1497 1759 1228 1600 
Q 959 1441 959 1056 
Q 959 750 1161 570 
Q 1363 391 1709 391 
Q 2188 391 2477 730 
Q 2766 1069 2766 1631 
L 2766 1759 
L 2194 1759 
z
M 3341 1997 
L 3341 0 
L 2766 0 
L 2766 531 
Q 2569 213 2275 61 
Q 1981 -91 1556 -91 
Q 1019 -91 701 211 
Q 384 513 384 1019 
Q 384 1609 779 1909 
Q 1175 2209 1959 2209 
L 2766 2209 
L 2766 2266 
Q 2766 2663 2505 2880 
Q 2244 3097 1772 3097 
Q 1472 3097 1187 3025 
Q 903 2953 641 2809 
L 641 3341 
Q 956 3463 1253 3523 
Q 1550 3584 1831 3584 
Q 2591 3584 2966 3190 
Q 3341 2797 3341 1997 
z
" transform="scale(0.015625)"/>
       <path id="DejaVuSans-6e" d="M 3513 2113 
L 3513 0 
L 2938 0 
L 2938 2094 
Q 2938 2591 2744 2837 
Q 2550 3084 2163 3084 
Q 1697 3084 1428 2787 
Q 1159 2491 1159 1978 
L 1159 0 
L 581 0 
L 581 3500 
L 1159 3500 
L 1159 2956 
Q 1366 3272 1645 3428 
Q 1925 3584 2291 3584 
Q 2894 3584 3203 3211 
Q 3513 2838 3513 2113 
z
" transform="scale(0.015625)"/>
       <path id="DejaVuSans-67" d="M 2906 1791 
Q 2906 2416 2648 2759 
Q 2391 3103 1925 3103 
Q 1463 3103 1205 2759 
Q 947 2416 947 1791 
Q 947 1169 1205 825 
Q 1463 481 1925 481 
Q 2391 481 2648 825 
Q 2906 1169 2906 1791 
z
M 3481 434 
Q 3481 -459 3084 -895 
Q 2688 -1331 1869 -1331 
Q 1566 -1331 1297 -1286 
Q 1028 -1241 775 -1147 
L 775 -588 
Q 1028 -725 1275 -790 
Q 1522 -856 1778 -856 
Q 2344 -856 2625 -561 
Q 2906 -266 2906 331 
L 2906 616 
Q 2728 306 2450 153 
Q 2172 0 1784 0 
Q 1141 0 747 490 
Q 353 981 353 1791 
Q 353 2603 747 3093 
Q 1141 3584 1784 3584 
Q 2172 3584 2450 3431 
Q 2728 3278 2906 2969 
L 2906 3500 
L 3481 3500 
L 3481 434 
z
" transform="scale(0.015625)"/>
       <path id="DejaVuSans-74" d="M 1172 4494 
L 1172 3500 
L 2356 3500 
L 2356 3053 
L 1172 3053 
L 1172 1153 
Q 1172 725 1289 603 
Q 1406 481 1766 481 
L 2356 481 
L 2356 0 
L 1766 0 
Q 1100 0 847 248 
Q 594 497 594 1153 
L 594 3053 
L 172 3053 
L 172 3500 
L 594 3500 
L 594 4494 
L 1172 4494 
z
" transform="scale(0.015625)"/>
       <path id="DejaVuSans-6f" d="M 1959 3097 
Q 1497 3097 1228 2736 
Q 959 2375 959 1747 
Q 959 1119 1226 758 
Q 1494 397 1959 397 
Q 2419 397 2687 759 
Q 2956 1122 2956 1747 
Q 2956 2369 2687 2733 
Q 2419 3097 1959 3097 
z
M 1959 3584 
Q 2709 3584 3137 3096 
Q 3566 2609 3566 1747 
Q 3566 888 3137 398 
Q 2709 -91 1959 -91 
Q 1206 -91 779 398 
Q 353 888 353 1747 
Q 353 2609 779 3096 
Q 1206 3584 1959 3584 
z
" transform="scale(0.015625)"/>
       <path id="DejaVuSans-27" d="M 1147 4666 
L 1147 2931 
L 616 2931 
L 616 4666 
L 1147 4666 
z
" transform="scale(0.015625)"/>
       <path id="DejaVuSans-73" d="M 2834 3397 
L 2834 2853 
Q 2591 2978 2328 3040 
Q 2066 3103 1784 3103 
Q 1356 3103 1142 2972 
Q 928 2841 928 2578 
Q 928 2378 1081 2264 
Q 1234 2150 1697 2047 
L 1894 2003 
Q 2506 1872 2764 1633 
Q 3022 1394 3022 966 
Q 3022 478 2636 193 
Q 2250 -91 1575 -91 
Q 1294 -91 989 -36 
Q 684 19 347 128 
L 347 722 
Q 666 556 975 473 
Q 1284 391 1588 391 
Q 1994 391 2212 530 
Q 2431 669 2431 922 
Q 2431 1156 2273 1281 
Q 2116 1406 1581 1522 
L 1381 1569 
Q 847 1681 609 1914 
Q 372 2147 372 2553 
Q 372 3047 722 3315 
Q 1072 3584 1716 3584 
Q 2034 3584 2315 3537 
Q 2597 3491 2834 3397 
z
" transform="scale(0.015625)"/>
       <path id="DejaVuSans-20" transform="scale(0.015625)"/>
       <path id="DejaVuSans-3bb" d="M 1981 4316 
L 3597 0 
L 2988 0 
L 2006 2588 
L 800 0 
L 191 0 
L 1725 3356 
L 1494 3975 
Q 1347 4369 1013 4369 
L 713 4369 
L 713 4863 
L 1078 4856 
Q 1784 4847 1981 4316 
z
" transform="scale(0.015625)"/>
      </defs>
      <use xlink:href="#DejaVuSans-4c"/>
      <use xlink:href="#DejaVuSans-61" transform="translate(55.712891 0)"/>
      <use xlink:href="#DejaVuSans-6e" transform="translate(116.992188 0)"/>
      <use xlink:href="#DejaVuSans-67" transform="translate(180.371094 0)"/>
      <use xlink:href="#DejaVuSans-74" transform="translate(243.847656 0)"/>
      <use xlink:href="#DejaVuSans-6f" transform="translate(283.056641 0)"/>
      <use xlink:href="#DejaVuSans-6e" transform="translate(344.238281 0)"/>
      <use xlink:href="#DejaVuSans-27" transform="translate(407.617188 0)"/>
      <use xlink:href="#DejaVuSans-73" transform="translate(435.107422 0)"/>
      <use xlink:href="#DejaVuSans-20" transform="translate(487.207031 0)"/>
      <use xlink:href="#DejaVuSans-3bb" transform="translate(518.994141 0)"/>
     </g>
    </g>
   </g>
   <g id="matplotlib.axis_2">
    <g id="ytick_1">
     <g id="line2d_13">
      <path d="M 45.716875 308.951636 
L 423.066875 308.951636 
" clip-path="url(#pbab095d82a)" style="fill: none; stroke: #ecf0f1; stroke-opacity: 0.9; stroke-width: 0.8; stroke-linecap: square"/>
     </g>
     <g id="line2d_14">
      <defs>
       <path id="mafe295c7ce" d="M 0 0 
L -3.5 0 
" style="stroke: #000000; stroke-width: 0.8"/>
      </defs>
      <g>
       <use xlink:href="#mafe295c7ce" x="45.716875" y="308.951636" style="stroke: #000000; stroke-width: 0.8"/>
      </g>
     </g>
     <g id="text_8">
      <!-- 0.0 -->
      <g transform="translate(22.81375 312.750855) scale(0.1 -0.1)">
       <use xlink:href="#DejaVuSans-30"/>
       <use xlink:href="#DejaVuSans-2e" transform="translate(63.623047 0)"/>
       <use xlink:href="#DejaVuSans-30" transform="translate(95.410156 0)"/>
      </g>
     </g>
    </g>
    <g id="ytick_2">
     <g id="line2d_15">
      <path d="M 45.716875 263.764647 
L 423.066875 263.764647 
" clip-path="url(#pbab095d82a)" style="fill: none; stroke: #ecf0f1; stroke-opacity: 0.9; stroke-width: 0.8; stroke-linecap: square"/>
     </g>
     <g id="line2d_16">
      <g>
       <use xlink:href="#mafe295c7ce" x="45.716875" y="263.764647" style="stroke: #000000; stroke-width: 0.8"/>
      </g>
     </g>
     <g id="text_9">
      <!-- 0.2 -->
      <g transform="translate(22.81375 267.563865) scale(0.1 -0.1)">
       <use xlink:href="#DejaVuSans-30"/>
       <use xlink:href="#DejaVuSans-2e" transform="translate(63.623047 0)"/>
       <use xlink:href="#DejaVuSans-32" transform="translate(95.410156 0)"/>
      </g>
     </g>
    </g>
    <g id="ytick_3">
     <g id="line2d_17">
      <path d="M 45.716875 218.577657 
L 423.066875 218.577657 
" clip-path="url(#pbab095d82a)" style="fill: none; stroke: #ecf0f1; stroke-opacity: 0.9; stroke-width: 0.8; stroke-linecap: square"/>
     </g>
     <g id="line2d_18">
      <g>
       <use xlink:href="#mafe295c7ce" x="45.716875" y="218.577657" style="stroke: #000000; stroke-width: 0.8"/>
      </g>
     </g>
     <g id="text_10">
      <!-- 0.4 -->
      <g transform="translate(22.81375 222.376876) scale(0.1 -0.1)">
       <use xlink:href="#DejaVuSans-30"/>
       <use xlink:href="#DejaVuSans-2e" transform="translate(63.623047 0)"/>
       <use xlink:href="#DejaVuSans-34" transform="translate(95.410156 0)"/>
      </g>
     </g>
    </g>
    <g id="ytick_4">
     <g id="line2d_19">
      <path d="M 45.716875 173.390667 
L 423.066875 173.390667 
" clip-path="url(#pbab095d82a)" style="fill: none; stroke: #ecf0f1; stroke-opacity: 0.9; stroke-width: 0.8; stroke-linecap: square"/>
     </g>
     <g id="line2d_20">
      <g>
       <use xlink:href="#mafe295c7ce" x="45.716875" y="173.390667" style="stroke: #000000; stroke-width: 0.8"/>
      </g>
     </g>
     <g id="text_11">
      <!-- 0.6 -->
      <g transform="translate(22.81375 177.189886) scale(0.1 -0.1)">
       <use xlink:href="#DejaVuSans-30"/>
       <use xlink:href="#DejaVuSans-2e" transform="translate(63.623047 0)"/>
       <use xlink:href="#DejaVuSans-36" transform="translate(95.410156 0)"/>
      </g>
     </g>
    </g>
    <g id="ytick_5">
     <g id="line2d_21">
      <path d="M 45.716875 128.203677 
L 423.066875 128.203677 
" clip-path="url(#pbab095d82a)" style="fill: none; stroke: #ecf0f1; stroke-opacity: 0.9; stroke-width: 0.8; stroke-linecap: square"/>
     </g>
     <g id="line2d_22">
      <g>
       <use xlink:href="#mafe295c7ce" x="45.716875" y="128.203677" style="stroke: #000000; stroke-width: 0.8"/>
      </g>
     </g>
     <g id="text_12">
      <!-- 0.8 -->
      <g transform="translate(22.81375 132.002896) scale(0.1 -0.1)">
       <use xlink:href="#DejaVuSans-30"/>
       <use xlink:href="#DejaVuSans-2e" transform="translate(63.623047 0)"/>
       <use xlink:href="#DejaVuSans-38" transform="translate(95.410156 0)"/>
      </g>
     </g>
    </g>
    <g id="ytick_6">
     <g id="line2d_23">
      <path d="M 45.716875 83.016687 
L 423.066875 83.016687 
" clip-path="url(#pbab095d82a)" style="fill: none; stroke: #ecf0f1; stroke-opacity: 0.9; stroke-width: 0.8; stroke-linecap: square"/>
     </g>
     <g id="line2d_24">
      <g>
       <use xlink:href="#mafe295c7ce" x="45.716875" y="83.016687" style="stroke: #000000; stroke-width: 0.8"/>
      </g>
     </g>
     <g id="text_13">
      <!-- 1.0 -->
      <g transform="translate(22.81375 86.815906) scale(0.1 -0.1)">
       <use xlink:href="#DejaVuSans-31"/>
       <use xlink:href="#DejaVuSans-2e" transform="translate(63.623047 0)"/>
       <use xlink:href="#DejaVuSans-30" transform="translate(95.410156 0)"/>
      </g>
     </g>
    </g>
    <g id="text_14">
     <!-- Computational capability (arb) -->
     <g transform="translate(16.318125 287.793625) rotate(-90) scale(0.12 -0.12)">
      <defs>
       <path id="DejaVuSans-43" d="M 4122 4306 
L 4122 3641 
Q 3803 3938 3442 4084 
Q 3081 4231 2675 4231 
Q 1875 4231 1450 3742 
Q 1025 3253 1025 2328 
Q 1025 1406 1450 917 
Q 1875 428 2675 428 
Q 3081 428 3442 575 
Q 3803 722 4122 1019 
L 4122 359 
Q 3791 134 3420 21 
Q 3050 -91 2638 -91 
Q 1578 -91 968 557 
Q 359 1206 359 2328 
Q 359 3453 968 4101 
Q 1578 4750 2638 4750 
Q 3056 4750 3426 4639 
Q 3797 4528 4122 4306 
z
" transform="scale(0.015625)"/>
       <path id="DejaVuSans-6d" d="M 3328 2828 
Q 3544 3216 3844 3400 
Q 4144 3584 4550 3584 
Q 5097 3584 5394 3201 
Q 5691 2819 5691 2113 
L 5691 0 
L 5113 0 
L 5113 2094 
Q 5113 2597 4934 2840 
Q 4756 3084 4391 3084 
Q 3944 3084 3684 2787 
Q 3425 2491 3425 1978 
L 3425 0 
L 2847 0 
L 2847 2094 
Q 2847 2600 2669 2842 
Q 2491 3084 2119 3084 
Q 1678 3084 1418 2786 
Q 1159 2488 1159 1978 
L 1159 0 
L 581 0 
L 581 3500 
L 1159 3500 
L 1159 2956 
Q 1356 3278 1631 3431 
Q 1906 3584 2284 3584 
Q 2666 3584 2933 3390 
Q 3200 3197 3328 2828 
z
" transform="scale(0.015625)"/>
       <path id="DejaVuSans-70" d="M 1159 525 
L 1159 -1331 
L 581 -1331 
L 581 3500 
L 1159 3500 
L 1159 2969 
Q 1341 3281 1617 3432 
Q 1894 3584 2278 3584 
Q 2916 3584 3314 3078 
Q 3713 2572 3713 1747 
Q 3713 922 3314 415 
Q 2916 -91 2278 -91 
Q 1894 -91 1617 61 
Q 1341 213 1159 525 
z
M 3116 1747 
Q 3116 2381 2855 2742 
Q 2594 3103 2138 3103 
Q 1681 3103 1420 2742 
Q 1159 2381 1159 1747 
Q 1159 1113 1420 752 
Q 1681 391 2138 391 
Q 2594 391 2855 752 
Q 3116 1113 3116 1747 
z
" transform="scale(0.015625)"/>
       <path id="DejaVuSans-75" d="M 544 1381 
L 544 3500 
L 1119 3500 
L 1119 1403 
Q 1119 906 1312 657 
Q 1506 409 1894 409 
Q 2359 409 2629 706 
Q 2900 1003 2900 1516 
L 2900 3500 
L 3475 3500 
L 3475 0 
L 2900 0 
L 2900 538 
Q 2691 219 2414 64 
Q 2138 -91 1772 -91 
Q 1169 -91 856 284 
Q 544 659 544 1381 
z
M 1991 3584 
L 1991 3584 
z
" transform="scale(0.015625)"/>
       <path id="DejaVuSans-69" d="M 603 3500 
L 1178 3500 
L 1178 0 
L 603 0 
L 603 3500 
z
M 603 4863 
L 1178 4863 
L 1178 4134 
L 603 4134 
L 603 4863 
z
" transform="scale(0.015625)"/>
       <path id="DejaVuSans-6c" d="M 603 4863 
L 1178 4863 
L 1178 0 
L 603 0 
L 603 4863 
z
" transform="scale(0.015625)"/>
       <path id="DejaVuSans-63" d="M 3122 3366 
L 3122 2828 
Q 2878 2963 2633 3030 
Q 2388 3097 2138 3097 
Q 1578 3097 1268 2742 
Q 959 2388 959 1747 
Q 959 1106 1268 751 
Q 1578 397 2138 397 
Q 2388 397 2633 464 
Q 2878 531 3122 666 
L 3122 134 
Q 2881 22 2623 -34 
Q 2366 -91 2075 -91 
Q 1284 -91 818 406 
Q 353 903 353 1747 
Q 353 2603 823 3093 
Q 1294 3584 2113 3584 
Q 2378 3584 2631 3529 
Q 2884 3475 3122 3366 
z
" transform="scale(0.015625)"/>
       <path id="DejaVuSans-62" d="M 3116 1747 
Q 3116 2381 2855 2742 
Q 2594 3103 2138 3103 
Q 1681 3103 1420 2742 
Q 1159 2381 1159 1747 
Q 1159 1113 1420 752 
Q 1681 391 2138 391 
Q 2594 391 2855 752 
Q 3116 1113 3116 1747 
z
M 1159 2969 
Q 1341 3281 1617 3432 
Q 1894 3584 2278 3584 
Q 2916 3584 3314 3078 
Q 3713 2572 3713 1747 
Q 3713 922 3314 415 
Q 2916 -91 2278 -91 
Q 1894 -91 1617 61 
Q 1341 213 1159 525 
L 1159 0 
L 581 0 
L 581 4863 
L 1159 4863 
L 1159 2969 
z
" transform="scale(0.015625)"/>
       <path id="DejaVuSans-79" d="M 2059 -325 
Q 1816 -950 1584 -1140 
Q 1353 -1331 966 -1331 
L 506 -1331 
L 506 -850 
L 844 -850 
Q 1081 -850 1212 -737 
Q 1344 -625 1503 -206 
L 1606 56 
L 191 3500 
L 800 3500 
L 1894 763 
L 2988 3500 
L 3597 3500 
L 2059 -325 
z
" transform="scale(0.015625)"/>
       <path id="DejaVuSans-28" d="M 1984 4856 
Q 1566 4138 1362 3434 
Q 1159 2731 1159 2009 
Q 1159 1288 1364 580 
Q 1569 -128 1984 -844 
L 1484 -844 
Q 1016 -109 783 600 
Q 550 1309 550 2009 
Q 550 2706 781 3412 
Q 1013 4119 1484 4856 
L 1984 4856 
z
" transform="scale(0.015625)"/>
       <path id="DejaVuSans-72" d="M 2631 2963 
Q 2534 3019 2420 3045 
Q 2306 3072 2169 3072 
Q 1681 3072 1420 2755 
Q 1159 2438 1159 1844 
L 1159 0 
L 581 0 
L 581 3500 
L 1159 3500 
L 1159 2956 
Q 1341 3275 1631 3429 
Q 1922 3584 2338 3584 
Q 2397 3584 2469 3576 
Q 2541 3569 2628 3553 
L 2631 2963 
z
" transform="scale(0.015625)"/>
       <path id="DejaVuSans-29" d="M 513 4856 
L 1013 4856 
Q 1481 4119 1714 3412 
Q 1947 2706 1947 2009 
Q 1947 1309 1714 600 
Q 1481 -109 1013 -844 
L 513 -844 
Q 928 -128 1133 580 
Q 1338 1288 1338 2009 
Q 1338 2731 1133 3434 
Q 928 4138 513 4856 
z
" transform="scale(0.015625)"/>
      </defs>
      <use xlink:href="#DejaVuSans-43"/>
      <use xlink:href="#DejaVuSans-6f" transform="translate(69.824219 0)"/>
      <use xlink:href="#DejaVuSans-6d" transform="translate(131.005859 0)"/>
      <use xlink:href="#DejaVuSans-70" transform="translate(228.417969 0)"/>
      <use xlink:href="#DejaVuSans-75" transform="translate(291.894531 0)"/>
      <use xlink:href="#DejaVuSans-74" transform="translate(355.273438 0)"/>
      <use xlink:href="#DejaVuSans-61" transform="translate(394.482422 0)"/>
      <use xlink:href="#DejaVuSans-74" transform="translate(455.761719 0)"/>
      <use xlink:href="#DejaVuSans-69" transform="translate(494.970703 0)"/>
      <use xlink:href="#DejaVuSans-6f" transform="translate(522.753906 0)"/>
      <use xlink:href="#DejaVuSans-6e" transform="translate(583.935547 0)"/>
      <use xlink:href="#DejaVuSans-61" transform="translate(647.314453 0)"/>
      <use xlink:href="#DejaVuSans-6c" transform="translate(708.59375 0)"/>
      <use xlink:href="#DejaVuSans-20" transform="translate(736.376953 0)"/>
      <use xlink:href="#DejaVuSans-63" transform="translate(768.164062 0)"/>
      <use xlink:href="#DejaVuSans-61" transform="translate(823.144531 0)"/>
      <use xlink:href="#DejaVuSans-70" transform="translate(884.423828 0)"/>
      <use xlink:href="#DejaVuSans-61" transform="translate(947.900391 0)"/>
      <use xlink:href="#DejaVuSans-62" transform="translate(1009.179688 0)"/>
      <use xlink:href="#DejaVuSans-69" transform="translate(1072.65625 0)"/>
      <use xlink:href="#DejaVuSans-6c" transform="translate(1100.439453 0)"/>
      <use xlink:href="#DejaVuSans-69" transform="translate(1128.222656 0)"/>
      <use xlink:href="#DejaVuSans-74" transform="translate(1156.005859 0)"/>
      <use xlink:href="#DejaVuSans-79" transform="translate(1195.214844 0)"/>
      <use xlink:href="#DejaVuSans-20" transform="translate(1254.394531 0)"/>
      <use xlink:href="#DejaVuSans-28" transform="translate(1286.181641 0)"/>
      <use xlink:href="#DejaVuSans-61" transform="translate(1325.195312 0)"/>
      <use xlink:href="#DejaVuSans-72" transform="translate(1386.474609 0)"/>
      <use xlink:href="#DejaVuSans-62" transform="translate(1427.587891 0)"/>
      <use xlink:href="#DejaVuSans-29" transform="translate(1491.064453 0)"/>
     </g>
    </g>
   </g>
   <g id="line2d_25">
    <path d="M 62.869148 298.11701 
L 65.163766 296.380737 
L 67.458385 294.420504 
L 69.753003 292.217114 
L 72.047621 289.751341 
L 74.34224 287.00423 
L 76.636858 283.957436 
L 78.931477 280.59361 
L 81.226095 276.896806 
L 83.520714 272.852926 
L 85.815332 268.450182 
L 88.10995 263.679574 
L 90.404569 258.535373 
L 93.846496 250.115373 
L 97.288424 240.862763 
L 100.730352 230.813358 
L 104.172279 220.029854 
L 107.614207 208.603546 
L 112.203444 192.581132 
L 121.381918 159.300773 
L 125.971154 142.999928 
L 129.413082 131.36593 
L 132.85501 120.503903 
L 135.149628 113.807534 
L 137.444247 107.625264 
L 139.738865 102.020124 
L 142.033483 97.050484 
L 144.328102 92.769039 
L 146.62272 89.221884 
L 147.770029 87.736059 
L 148.917339 86.447685 
L 150.064648 85.360321 
L 151.211957 84.476981 
L 152.359266 83.800119 
L 153.506576 83.331621 
L 154.653885 83.072795 
L 155.801194 83.024364 
L 156.948503 83.186462 
L 158.095812 83.558638 
L 159.243122 84.139852 
L 160.390431 84.928484 
L 161.53774 85.922337 
L 162.685049 87.118656 
L 163.832358 88.514129 
L 164.979668 90.104913 
L 167.274286 93.854461 
L 169.568904 98.326552 
L 171.863523 103.473224 
L 174.158141 109.240154 
L 176.45276 115.567613 
L 179.894687 125.968617 
L 183.336615 137.256649 
L 187.925852 153.2765 
L 203.988181 210.702708 
L 207.430109 222.02136 
L 210.872036 232.678618 
L 214.313964 242.588418 
L 217.755891 251.693057 
L 221.197819 259.96131 
L 223.492437 265.004281 
L 225.787056 269.674855 
L 228.081674 273.979694 
L 230.376293 277.928597 
L 232.670911 281.534022 
L 234.96553 284.810612 
L 237.260148 287.774733 
L 239.554766 290.444043 
L 241.849385 292.837087 
L 244.144003 294.972926 
L 246.438622 296.870807 
L 248.73324 298.549869 
L 251.027859 300.028896 
L 254.469786 301.912023 
L 257.911714 303.444118 
L 261.353641 304.678766 
L 264.795569 305.66433 
L 268.237497 306.443696 
L 272.826734 307.225987 
L 277.41597 307.781839 
L 283.152517 308.247025 
L 290.036372 308.57976 
L 300.362155 308.817747 
L 317.571793 308.931008 
L 376.084563 308.951629 
L 405.914602 308.951636 
L 405.914602 308.951636 
" clip-path="url(#pbab095d82a)" style="fill: none; stroke: #9b59b6; stroke-width: 2.5; stroke-linecap: square"/>
   </g>
   <g id="line2d_26">
    <path d="M 155.49142 320.248 
L 155.49142 71.728 
" clip-path="url(#pbab095d82a)" style="fill: none; stroke-dasharray: 3.7,1.6; stroke-dashoffset: 0; stroke: #95a5a6"/>
   </g>
   <g id="patch_3">
    <path d="M 45.716875 320.248 
L 45.716875 71.728 
" style="fill: none; stroke: #000000; stroke-width: 0.8; stroke-linejoin: miter; stroke-linecap: square"/>
   </g>
   <g id="patch_4">
    <path d="M 423.066875 320.248 
L 423.066875 71.728 
" style="fill: none; stroke: #000000; stroke-width: 0.8; stroke-linejoin: miter; stroke-linecap: square"/>
   </g>
   <g id="patch_5">
    <path d="M 45.716875 320.248 
L 423.066875 320.248 
" style="fill: none; stroke: #000000; stroke-width: 0.8; stroke-linejoin: miter; stroke-linecap: square"/>
   </g>
   <g id="patch_6">
    <path d="M 45.716875 71.728 
L 423.066875 71.728 
" style="fill: none; stroke: #000000; stroke-width: 0.8; stroke-linejoin: miter; stroke-linecap: square"/>
   </g>
   <g id="text_15">
    <!-- edge -->
    <g style="fill: #95a5a6" transform="translate(145.49017 94.313435) scale(0.08 -0.08)">
     <defs>
      <path id="DejaVuSans-65" d="M 3597 1894 
L 3597 1613 
L 953 1613 
Q 991 1019 1311 708 
Q 1631 397 2203 397 
Q 2534 397 2845 478 
Q 3156 559 3463 722 
L 3463 178 
Q 3153 47 2828 -22 
Q 2503 -91 2169 -91 
Q 1331 -91 842 396 
Q 353 884 353 1716 
Q 353 2575 817 3079 
Q 1281 3584 2069 3584 
Q 2775 3584 3186 3129 
Q 3597 2675 3597 1894 
z
M 3022 2063 
Q 3016 2534 2758 2815 
Q 2500 3097 2075 3097 
Q 1594 3097 1305 2825 
Q 1016 2553 972 2059 
L 3022 2063 
z
" transform="scale(0.015625)"/>
      <path id="DejaVuSans-64" d="M 2906 2969 
L 2906 4863 
L 3481 4863 
L 3481 0 
L 2906 0 
L 2906 525 
Q 2725 213 2448 61 
Q 2172 -91 1784 -91 
Q 1150 -91 751 415 
Q 353 922 353 1747 
Q 353 2572 751 3078 
Q 1150 3584 1784 3584 
Q 2172 3584 2448 3432 
Q 2725 3281 2906 2969 
z
M 947 1747 
Q 947 1113 1208 752 
Q 1469 391 1925 391 
Q 2381 391 2643 752 
Q 2906 1113 2906 1747 
Q 2906 2381 2643 2742 
Q 2381 3103 1925 3103 
Q 1469 3103 1208 2742 
Q 947 2381 947 1747 
z
" transform="scale(0.015625)"/>
     </defs>
     <use xlink:href="#DejaVuSans-65"/>
     <use xlink:href="#DejaVuSans-64" transform="translate(61.523438 0)"/>
     <use xlink:href="#DejaVuSans-67" transform="translate(125 0)"/>
     <use xlink:href="#DejaVuSans-65" transform="translate(188.476562 0)"/>
    </g>
   </g>
   <g id="text_16">
    <!-- Computation at criticality -->
    <g transform="translate(158.045625 61.728) scale(0.12 -0.12)">
     <use xlink:href="#DejaVuSans-43"/>
     <use xlink:href="#DejaVuSans-6f" transform="translate(69.824219 0)"/>
     <use xlink:href="#DejaVuSans-6d" transform="translate(131.005859 0)"/>
     <use xlink:href="#DejaVuSans-70" transform="translate(228.417969 0)"/>
     <use xlink:href="#DejaVuSans-75" transform="translate(291.894531 0)"/>
     <use xlink:href="#DejaVuSans-74" transform="translate(355.273438 0)"/>
     <use xlink:href="#DejaVuSans-61" transform="translate(394.482422 0)"/>
     <use xlink:href="#DejaVuSans-74" transform="translate(455.761719 0)"/>
     <use xlink:href="#DejaVuSans-69" transform="translate(494.970703 0)"/>
     <use xlink:href="#DejaVuSans-6f" transform="translate(522.753906 0)"/>
     <use xlink:href="#DejaVuSans-6e" transform="translate(583.935547 0)"/>
     <use xlink:href="#DejaVuSans-20" transform="translate(647.314453 0)"/>
     <use xlink:href="#DejaVuSans-61" transform="translate(679.101562 0)"/>
     <use xlink:href="#DejaVuSans-74" transform="translate(740.380859 0)"/>
     <use xlink:href="#DejaVuSans-20" transform="translate(779.589844 0)"/>
     <use xlink:href="#DejaVuSans-63" transform="translate(811.376953 0)"/>
     <use xlink:href="#DejaVuSans-72" transform="translate(866.357422 0)"/>
     <use xlink:href="#DejaVuSans-69" transform="translate(907.470703 0)"/>
     <use xlink:href="#DejaVuSans-74" transform="translate(935.253906 0)"/>
     <use xlink:href="#DejaVuSans-69" transform="translate(974.462891 0)"/>
     <use xlink:href="#DejaVuSans-63" transform="translate(1002.246094 0)"/>
     <use xlink:href="#DejaVuSans-61" transform="translate(1057.226562 0)"/>
     <use xlink:href="#DejaVuSans-6c" transform="translate(1118.505859 0)"/>
     <use xlink:href="#DejaVuSans-69" transform="translate(1146.289062 0)"/>
     <use xlink:href="#DejaVuSans-74" transform="translate(1174.072266 0)"/>
     <use xlink:href="#DejaVuSans-79" transform="translate(1213.28125 0)"/>
    </g>
   </g>
  </g>
  <g id="axes_2">
   <g id="patch_7">
    <path d="M 472.286875 320.248 
L 849.636875 320.248 
L 849.636875 71.728 
L 472.286875 71.728 
z
" style="fill: #ffffff"/>
   </g>
   <g id="matplotlib.axis_3">
    <g id="xtick_7">
     <g id="line2d_27">
      <path d="M 489.439148 320.248 
L 489.439148 71.728 
" clip-path="url(#p16f4689344)" style="fill: none; stroke: #ecf0f1; stroke-opacity: 0.9; stroke-width: 0.8; stroke-linecap: square"/>
     </g>
     <g id="line2d_28">
      <g>
       <use xlink:href="#mc72b8cc69d" x="489.439148" y="320.248" style="stroke: #000000; stroke-width: 0.8"/>
      </g>
     </g>
     <g id="text_17">
      <!-- 0 -->
      <g transform="translate(486.257898 334.846437) scale(0.1 -0.1)">
       <use xlink:href="#DejaVuSans-30"/>
      </g>
     </g>
    </g>
    <g id="xtick_8">
     <g id="line2d_29">
      <path d="M 558.048239 320.248 
L 558.048239 71.728 
" clip-path="url(#p16f4689344)" style="fill: none; stroke: #ecf0f1; stroke-opacity: 0.9; stroke-width: 0.8; stroke-linecap: square"/>
     </g>
     <g id="line2d_30">
      <g>
       <use xlink:href="#mc72b8cc69d" x="558.048239" y="320.248" style="stroke: #000000; stroke-width: 0.8"/>
      </g>
     </g>
     <g id="text_18">
      <!-- 2 -->
      <g transform="translate(554.866989 334.846437) scale(0.1 -0.1)">
       <use xlink:href="#DejaVuSans-32"/>
      </g>
     </g>
    </g>
    <g id="xtick_9">
     <g id="line2d_31">
      <path d="M 626.65733 320.248 
L 626.65733 71.728 
" clip-path="url(#p16f4689344)" style="fill: none; stroke: #ecf0f1; stroke-opacity: 0.9; stroke-width: 0.8; stroke-linecap: square"/>
     </g>
     <g id="line2d_32">
      <g>
       <use xlink:href="#mc72b8cc69d" x="626.65733" y="320.248" style="stroke: #000000; stroke-width: 0.8"/>
      </g>
     </g>
     <g id="text_19">
      <!-- 4 -->
      <g transform="translate(623.47608 334.846437) scale(0.1 -0.1)">
       <use xlink:href="#DejaVuSans-34"/>
      </g>
     </g>
    </g>
    <g id="xtick_10">
     <g id="line2d_33">
      <path d="M 695.26642 320.248 
L 695.26642 71.728 
" clip-path="url(#p16f4689344)" style="fill: none; stroke: #ecf0f1; stroke-opacity: 0.9; stroke-width: 0.8; stroke-linecap: square"/>
     </g>
     <g id="line2d_34">
      <g>
       <use xlink:href="#mc72b8cc69d" x="695.26642" y="320.248" style="stroke: #000000; stroke-width: 0.8"/>
      </g>
     </g>
     <g id="text_20">
      <!-- 6 -->
      <g transform="translate(692.08517 334.846437) scale(0.1 -0.1)">
       <use xlink:href="#DejaVuSans-36"/>
      </g>
     </g>
    </g>
    <g id="xtick_11">
     <g id="line2d_35">
      <path d="M 763.875511 320.248 
L 763.875511 71.728 
" clip-path="url(#p16f4689344)" style="fill: none; stroke: #ecf0f1; stroke-opacity: 0.9; stroke-width: 0.8; stroke-linecap: square"/>
     </g>
     <g id="line2d_36">
      <g>
       <use xlink:href="#mc72b8cc69d" x="763.875511" y="320.248" style="stroke: #000000; stroke-width: 0.8"/>
      </g>
     </g>
     <g id="text_21">
      <!-- 8 -->
      <g transform="translate(760.694261 334.846437) scale(0.1 -0.1)">
       <use xlink:href="#DejaVuSans-38"/>
      </g>
     </g>
    </g>
    <g id="xtick_12">
     <g id="line2d_37">
      <path d="M 832.484602 320.248 
L 832.484602 71.728 
" clip-path="url(#p16f4689344)" style="fill: none; stroke: #ecf0f1; stroke-opacity: 0.9; stroke-width: 0.8; stroke-linecap: square"/>
     </g>
     <g id="line2d_38">
      <g>
       <use xlink:href="#mc72b8cc69d" x="832.484602" y="320.248" style="stroke: #000000; stroke-width: 0.8"/>
      </g>
     </g>
     <g id="text_22">
      <!-- 10 -->
      <g transform="translate(826.122102 334.846437) scale(0.1 -0.1)">
       <use xlink:href="#DejaVuSans-31"/>
       <use xlink:href="#DejaVuSans-30" transform="translate(63.623047 0)"/>
      </g>
     </g>
    </g>
    <g id="text_23">
     <!-- time (arb) -->
     <g transform="translate(630.865313 350.04425) scale(0.12 -0.12)">
      <use xlink:href="#DejaVuSans-74"/>
      <use xlink:href="#DejaVuSans-69" transform="translate(39.208984 0)"/>
      <use xlink:href="#DejaVuSans-6d" transform="translate(66.992188 0)"/>
      <use xlink:href="#DejaVuSans-65" transform="translate(164.404297 0)"/>
      <use xlink:href="#DejaVuSans-20" transform="translate(225.927734 0)"/>
      <use xlink:href="#DejaVuSans-28" transform="translate(257.714844 0)"/>
      <use xlink:href="#DejaVuSans-61" transform="translate(296.728516 0)"/>
      <use xlink:href="#DejaVuSans-72" transform="translate(358.007812 0)"/>
      <use xlink:href="#DejaVuSans-62" transform="translate(399.121094 0)"/>
      <use xlink:href="#DejaVuSans-29" transform="translate(462.597656 0)"/>
     </g>
    </g>
   </g>
   <g id="matplotlib.axis_4">
    <g id="ytick_7">
     <g id="line2d_39">
      <path d="M 472.286875 308.951636 
L 849.636875 308.951636 
" clip-path="url(#p16f4689344)" style="fill: none; stroke: #ecf0f1; stroke-opacity: 0.9; stroke-width: 0.8; stroke-linecap: square"/>
     </g>
     <g id="line2d_40">
      <g>
       <use xlink:href="#mafe295c7ce" x="472.286875" y="308.951636" style="stroke: #000000; stroke-width: 0.8"/>
      </g>
     </g>
     <g id="text_24">
      <!-- 0.0 -->
      <g transform="translate(449.38375 312.750855) scale(0.1 -0.1)">
       <use xlink:href="#DejaVuSans-30"/>
       <use xlink:href="#DejaVuSans-2e" transform="translate(63.623047 0)"/>
       <use xlink:href="#DejaVuSans-30" transform="translate(95.410156 0)"/>
      </g>
     </g>
    </g>
    <g id="ytick_8">
     <g id="line2d_41">
      <path d="M 472.286875 280.338927 
L 849.636875 280.338927 
" clip-path="url(#p16f4689344)" style="fill: none; stroke: #ecf0f1; stroke-opacity: 0.9; stroke-width: 0.8; stroke-linecap: square"/>
     </g>
     <g id="line2d_42">
      <g>
       <use xlink:href="#mafe295c7ce" x="472.286875" y="280.338927" style="stroke: #000000; stroke-width: 0.8"/>
      </g>
     </g>
     <g id="text_25">
      <!-- 0.5 -->
      <g transform="translate(449.38375 284.138146) scale(0.1 -0.1)">
       <defs>
        <path id="DejaVuSans-35" d="M 691 4666 
L 3169 4666 
L 3169 4134 
L 1269 4134 
L 1269 2991 
Q 1406 3038 1543 3061 
Q 1681 3084 1819 3084 
Q 2600 3084 3056 2656 
Q 3513 2228 3513 1497 
Q 3513 744 3044 326 
Q 2575 -91 1722 -91 
Q 1428 -91 1123 -41 
Q 819 9 494 109 
L 494 744 
Q 775 591 1075 516 
Q 1375 441 1709 441 
Q 2250 441 2565 725 
Q 2881 1009 2881 1497 
Q 2881 1984 2565 2268 
Q 2250 2553 1709 2553 
Q 1456 2553 1204 2497 
Q 953 2441 691 2322 
L 691 4666 
z
" transform="scale(0.015625)"/>
       </defs>
       <use xlink:href="#DejaVuSans-30"/>
       <use xlink:href="#DejaVuSans-2e" transform="translate(63.623047 0)"/>
       <use xlink:href="#DejaVuSans-35" transform="translate(95.410156 0)"/>
      </g>
     </g>
    </g>
    <g id="ytick_9">
     <g id="line2d_43">
      <path d="M 472.286875 251.726218 
L 849.636875 251.726218 
" clip-path="url(#p16f4689344)" style="fill: none; stroke: #ecf0f1; stroke-opacity: 0.9; stroke-width: 0.8; stroke-linecap: square"/>
     </g>
     <g id="line2d_44">
      <g>
       <use xlink:href="#mafe295c7ce" x="472.286875" y="251.726218" style="stroke: #000000; stroke-width: 0.8"/>
      </g>
     </g>
     <g id="text_26">
      <!-- 1.0 -->
      <g transform="translate(449.38375 255.525437) scale(0.1 -0.1)">
       <use xlink:href="#DejaVuSans-31"/>
       <use xlink:href="#DejaVuSans-2e" transform="translate(63.623047 0)"/>
       <use xlink:href="#DejaVuSans-30" transform="translate(95.410156 0)"/>
      </g>
     </g>
    </g>
    <g id="ytick_10">
     <g id="line2d_45">
      <path d="M 472.286875 223.113509 
L 849.636875 223.113509 
" clip-path="url(#p16f4689344)" style="fill: none; stroke: #ecf0f1; stroke-opacity: 0.9; stroke-width: 0.8; stroke-linecap: square"/>
     </g>
     <g id="line2d_46">
      <g>
       <use xlink:href="#mafe295c7ce" x="472.286875" y="223.113509" style="stroke: #000000; stroke-width: 0.8"/>
      </g>
     </g>
     <g id="text_27">
      <!-- 1.5 -->
      <g transform="translate(449.38375 226.912728) scale(0.1 -0.1)">
       <use xlink:href="#DejaVuSans-31"/>
       <use xlink:href="#DejaVuSans-2e" transform="translate(63.623047 0)"/>
       <use xlink:href="#DejaVuSans-35" transform="translate(95.410156 0)"/>
      </g>
     </g>
    </g>
    <g id="ytick_11">
     <g id="line2d_47">
      <path d="M 472.286875 194.500801 
L 849.636875 194.500801 
" clip-path="url(#p16f4689344)" style="fill: none; stroke: #ecf0f1; stroke-opacity: 0.9; stroke-width: 0.8; stroke-linecap: square"/>
     </g>
     <g id="line2d_48">
      <g>
       <use xlink:href="#mafe295c7ce" x="472.286875" y="194.500801" style="stroke: #000000; stroke-width: 0.8"/>
      </g>
     </g>
     <g id="text_28">
      <!-- 2.0 -->
      <g transform="translate(449.38375 198.300019) scale(0.1 -0.1)">
       <use xlink:href="#DejaVuSans-32"/>
       <use xlink:href="#DejaVuSans-2e" transform="translate(63.623047 0)"/>
       <use xlink:href="#DejaVuSans-30" transform="translate(95.410156 0)"/>
      </g>
     </g>
    </g>
    <g id="ytick_12">
     <g id="line2d_49">
      <path d="M 472.286875 165.888092 
L 849.636875 165.888092 
" clip-path="url(#p16f4689344)" style="fill: none; stroke: #ecf0f1; stroke-opacity: 0.9; stroke-width: 0.8; stroke-linecap: square"/>
     </g>
     <g id="line2d_50">
      <g>
       <use xlink:href="#mafe295c7ce" x="472.286875" y="165.888092" style="stroke: #000000; stroke-width: 0.8"/>
      </g>
     </g>
     <g id="text_29">
      <!-- 2.5 -->
      <g transform="translate(449.38375 169.68731) scale(0.1 -0.1)">
       <use xlink:href="#DejaVuSans-32"/>
       <use xlink:href="#DejaVuSans-2e" transform="translate(63.623047 0)"/>
       <use xlink:href="#DejaVuSans-35" transform="translate(95.410156 0)"/>
      </g>
     </g>
    </g>
    <g id="ytick_13">
     <g id="line2d_51">
      <path d="M 472.286875 137.275383 
L 849.636875 137.275383 
" clip-path="url(#p16f4689344)" style="fill: none; stroke: #ecf0f1; stroke-opacity: 0.9; stroke-width: 0.8; stroke-linecap: square"/>
     </g>
     <g id="line2d_52">
      <g>
       <use xlink:href="#mafe295c7ce" x="472.286875" y="137.275383" style="stroke: #000000; stroke-width: 0.8"/>
      </g>
     </g>
     <g id="text_30">
      <!-- 3.0 -->
      <g transform="translate(449.38375 141.074601) scale(0.1 -0.1)">
       <defs>
        <path id="DejaVuSans-33" d="M 2597 2516 
Q 3050 2419 3304 2112 
Q 3559 1806 3559 1356 
Q 3559 666 3084 287 
Q 2609 -91 1734 -91 
Q 1441 -91 1130 -33 
Q 819 25 488 141 
L 488 750 
Q 750 597 1062 519 
Q 1375 441 1716 441 
Q 2309 441 2620 675 
Q 2931 909 2931 1356 
Q 2931 1769 2642 2001 
Q 2353 2234 1838 2234 
L 1294 2234 
L 1294 2753 
L 1863 2753 
Q 2328 2753 2575 2939 
Q 2822 3125 2822 3475 
Q 2822 3834 2567 4026 
Q 2313 4219 1838 4219 
Q 1578 4219 1281 4162 
Q 984 4106 628 3988 
L 628 4550 
Q 988 4650 1302 4700 
Q 1616 4750 1894 4750 
Q 2613 4750 3031 4423 
Q 3450 4097 3450 3541 
Q 3450 3153 3228 2886 
Q 3006 2619 2597 2516 
z
" transform="scale(0.015625)"/>
       </defs>
       <use xlink:href="#DejaVuSans-33"/>
       <use xlink:href="#DejaVuSans-2e" transform="translate(63.623047 0)"/>
       <use xlink:href="#DejaVuSans-30" transform="translate(95.410156 0)"/>
      </g>
     </g>
    </g>
    <g id="ytick_14">
     <g id="line2d_53">
      <path d="M 472.286875 108.662674 
L 849.636875 108.662674 
" clip-path="url(#p16f4689344)" style="fill: none; stroke: #ecf0f1; stroke-opacity: 0.9; stroke-width: 0.8; stroke-linecap: square"/>
     </g>
     <g id="line2d_54">
      <g>
       <use xlink:href="#mafe295c7ce" x="472.286875" y="108.662674" style="stroke: #000000; stroke-width: 0.8"/>
      </g>
     </g>
     <g id="text_31">
      <!-- 3.5 -->
      <g transform="translate(449.38375 112.461892) scale(0.1 -0.1)">
       <use xlink:href="#DejaVuSans-33"/>
       <use xlink:href="#DejaVuSans-2e" transform="translate(63.623047 0)"/>
       <use xlink:href="#DejaVuSans-35" transform="translate(95.410156 0)"/>
      </g>
     </g>
    </g>
    <g id="ytick_15">
     <g id="line2d_55">
      <path d="M 472.286875 80.049965 
L 849.636875 80.049965 
" clip-path="url(#p16f4689344)" style="fill: none; stroke: #ecf0f1; stroke-opacity: 0.9; stroke-width: 0.8; stroke-linecap: square"/>
     </g>
     <g id="line2d_56">
      <g>
       <use xlink:href="#mafe295c7ce" x="472.286875" y="80.049965" style="stroke: #000000; stroke-width: 0.8"/>
      </g>
     </g>
     <g id="text_32">
      <!-- 4.0 -->
      <g transform="translate(449.38375 83.849183) scale(0.1 -0.1)">
       <use xlink:href="#DejaVuSans-34"/>
       <use xlink:href="#DejaVuSans-2e" transform="translate(63.623047 0)"/>
       <use xlink:href="#DejaVuSans-30" transform="translate(95.410156 0)"/>
      </g>
     </g>
    </g>
    <g id="text_33">
     <!-- complexity (arb) -->
     <g transform="translate(442.888125 245.528312) rotate(-90) scale(0.12 -0.12)">
      <defs>
       <path id="DejaVuSans-78" d="M 3513 3500 
L 2247 1797 
L 3578 0 
L 2900 0 
L 1881 1375 
L 863 0 
L 184 0 
L 1544 1831 
L 300 3500 
L 978 3500 
L 1906 2253 
L 2834 3500 
L 3513 3500 
z
" transform="scale(0.015625)"/>
      </defs>
      <use xlink:href="#DejaVuSans-63"/>
      <use xlink:href="#DejaVuSans-6f" transform="translate(54.980469 0)"/>
      <use xlink:href="#DejaVuSans-6d" transform="translate(116.162109 0)"/>
      <use xlink:href="#DejaVuSans-70" transform="translate(213.574219 0)"/>
      <use xlink:href="#DejaVuSans-6c" transform="translate(277.050781 0)"/>
      <use xlink:href="#DejaVuSans-65" transform="translate(304.833984 0)"/>
      <use xlink:href="#DejaVuSans-78" transform="translate(364.607422 0)"/>
      <use xlink:href="#DejaVuSans-69" transform="translate(423.787109 0)"/>
      <use xlink:href="#DejaVuSans-74" transform="translate(451.570312 0)"/>
      <use xlink:href="#DejaVuSans-79" transform="translate(490.779297 0)"/>
      <use xlink:href="#DejaVuSans-20" transform="translate(549.958984 0)"/>
      <use xlink:href="#DejaVuSans-28" transform="translate(581.746094 0)"/>
      <use xlink:href="#DejaVuSans-61" transform="translate(620.759766 0)"/>
      <use xlink:href="#DejaVuSans-72" transform="translate(682.039062 0)"/>
      <use xlink:href="#DejaVuSans-62" transform="translate(723.152344 0)"/>
      <use xlink:href="#DejaVuSans-29" transform="translate(786.628906 0)"/>
     </g>
    </g>
   </g>
   <g id="line2d_57">
    <path d="M 489.439148 308.951636 
L 499.782227 308.733895 
L 508.401459 308.327702 
L 515.296845 307.757206 
L 520.468385 307.122464 
L 525.639924 306.252762 
L 530.811464 305.086015 
L 534.259157 304.108192 
L 537.70685 302.943255 
L 541.154543 301.566092 
L 544.602236 299.950152 
L 548.049929 298.067735 
L 551.497622 295.890355 
L 554.945315 293.389187 
L 558.393008 290.535602 
L 561.840701 287.301776 
L 565.288394 283.661385 
L 568.736087 279.590358 
L 572.18378 275.067693 
L 575.631473 270.076305 
L 579.079166 264.603898 
L 582.526859 258.643836 
L 585.974552 252.195975 
L 589.422245 245.267452 
L 592.869938 237.873374 
L 596.317631 230.037398 
L 599.765324 221.792165 
L 604.936864 208.751123 
L 610.108403 195.06611 
L 618.727636 171.458314 
L 627.346868 147.987701 
L 632.518408 134.586752 
L 635.966101 126.144674 
L 639.413794 118.21216 
L 642.861487 110.885436 
L 646.30918 104.255722 
L 649.756873 98.407346 
L 651.480719 95.800188 
L 653.204566 93.415966 
L 654.928412 91.262516 
L 656.652259 89.346938 
L 658.376105 87.675558 
L 660.099952 86.253894 
L 661.823798 85.086624 
L 663.547645 84.177561 
L 665.271491 83.529632 
L 666.995338 83.144862 
L 668.719184 83.024364 
L 670.443031 83.168331 
L 672.166877 83.57604 
L 673.890724 84.245853 
L 675.61457 85.175228 
L 677.338417 86.360738 
L 679.062263 87.798085 
L 680.78611 89.482133 
L 682.509956 91.406932 
L 684.233803 93.565752 
L 685.957649 95.951128 
L 687.681496 98.554896 
L 691.129189 104.38174 
L 694.576882 110.96885 
L 698.024575 118.230858 
L 701.472268 126.076281 
L 704.919961 134.409403 
L 710.0915 147.608865 
L 716.986886 166.001028 
L 729.053812 198.316037 
L 734.225351 211.523324 
L 739.396891 224.039254 
L 742.844584 231.921585 
L 746.292277 239.393346 
L 749.73997 246.428942 
L 753.187663 253.011048 
L 756.635356 259.130071 
L 760.083049 264.783495 
L 763.530742 269.975154 
L 766.978435 274.714432 
L 770.426128 279.015456 
L 773.873821 282.896269 
L 777.321514 286.378027 
L 780.769207 289.484231 
L 784.2169 292.240015 
L 787.664593 294.671486 
L 791.112286 296.805145 
L 794.559979 298.667379 
L 798.007672 300.284029 
L 801.455365 301.680038 
L 804.903058 302.879171 
L 808.350751 303.903806 
L 813.522291 305.15872 
L 818.69383 306.130963 
L 823.86537 306.875559 
L 830.760756 307.594002 
L 832.484602 307.734272 
L 832.484602 307.734272 
" clip-path="url(#p16f4689344)" style="fill: none; stroke: #f39c12; stroke-width: 2.5; stroke-linecap: square"/>
   </g>
   <g id="patch_8">
    <path d="M 472.286875 320.248 
L 472.286875 71.728 
" style="fill: none; stroke: #000000; stroke-width: 0.8; stroke-linejoin: miter; stroke-linecap: square"/>
   </g>
   <g id="patch_9">
    <path d="M 849.636875 320.248 
L 849.636875 71.728 
" style="fill: none; stroke: #000000; stroke-width: 0.8; stroke-linejoin: miter; stroke-linecap: square"/>
   </g>
   <g id="patch_10">
    <path d="M 472.286875 320.248 
L 849.636875 320.248 
" style="fill: none; stroke: #000000; stroke-width: 0.8; stroke-linejoin: miter; stroke-linecap: square"/>
   </g>
   <g id="patch_11">
    <path d="M 472.286875 71.728 
L 849.636875 71.728 
" style="fill: none; stroke: #000000; stroke-width: 0.8; stroke-linejoin: miter; stroke-linecap: square"/>
   </g>
   <g id="text_34">
    <!-- peak -->
    <g style="fill: #95a5a6" transform="translate(658.054659 78.505818) scale(0.08 -0.08)">
     <defs>
      <path id="DejaVuSans-6b" d="M 581 4863 
L 1159 4863 
L 1159 1991 
L 2875 3500 
L 3609 3500 
L 1753 1863 
L 3688 0 
L 2938 0 
L 1159 1709 
L 1159 0 
L 581 0 
L 581 4863 
z
" transform="scale(0.015625)"/>
     </defs>
     <use xlink:href="#DejaVuSans-70"/>
     <use xlink:href="#DejaVuSans-65" transform="translate(63.476562 0)"/>
     <use xlink:href="#DejaVuSans-61" transform="translate(125 0)"/>
     <use xlink:href="#DejaVuSans-6b" transform="translate(186.279297 0)"/>
    </g>
   </g>
   <g id="text_35">
    <!-- Complexity rises, peaks, declines -->
    <g transform="translate(560.929688 61.728) scale(0.12 -0.12)">
     <defs>
      <path id="DejaVuSans-2c" d="M 750 794 
L 1409 794 
L 1409 256 
L 897 -744 
L 494 -744 
L 750 256 
L 750 794 
z
" transform="scale(0.015625)"/>
     </defs>
     <use xlink:href="#DejaVuSans-43"/>
     <use xlink:href="#DejaVuSans-6f" transform="translate(69.824219 0)"/>
     <use xlink:href="#DejaVuSans-6d" transform="translate(131.005859 0)"/>
     <use xlink:href="#DejaVuSans-70" transform="translate(228.417969 0)"/>
     <use xlink:href="#DejaVuSans-6c" transform="translate(291.894531 0)"/>
     <use xlink:href="#DejaVuSans-65" transform="translate(319.677734 0)"/>
     <use xlink:href="#DejaVuSans-78" transform="translate(379.451172 0)"/>
     <use xlink:href="#DejaVuSans-69" transform="translate(438.630859 0)"/>
     <use xlink:href="#DejaVuSans-74" transform="translate(466.414062 0)"/>
     <use xlink:href="#DejaVuSans-79" transform="translate(505.623047 0)"/>
     <use xlink:href="#DejaVuSans-20" transform="translate(564.802734 0)"/>
     <use xlink:href="#DejaVuSans-72" transform="translate(596.589844 0)"/>
     <use xlink:href="#DejaVuSans-69" transform="translate(637.703125 0)"/>
     <use xlink:href="#DejaVuSans-73" transform="translate(665.486328 0)"/>
     <use xlink:href="#DejaVuSans-65" transform="translate(717.585938 0)"/>
     <use xlink:href="#DejaVuSans-73" transform="translate(779.109375 0)"/>
     <use xlink:href="#DejaVuSans-2c" transform="translate(831.208984 0)"/>
     <use xlink:href="#DejaVuSans-20" transform="translate(862.996094 0)"/>
     <use xlink:href="#DejaVuSans-70" transform="translate(894.783203 0)"/>
     <use xlink:href="#DejaVuSans-65" transform="translate(958.259766 0)"/>
     <use xlink:href="#DejaVuSans-61" transform="translate(1019.783203 0)"/>
     <use xlink:href="#DejaVuSans-6b" transform="translate(1081.0625 0)"/>
     <use xlink:href="#DejaVuSans-73" transform="translate(1138.972656 0)"/>
     <use xlink:href="#DejaVuSans-2c" transform="translate(1191.072266 0)"/>
     <use xlink:href="#DejaVuSans-20" transform="translate(1222.859375 0)"/>
     <use xlink:href="#DejaVuSans-64" transform="translate(1254.646484 0)"/>
     <use xlink:href="#DejaVuSans-65" transform="translate(1318.123047 0)"/>
     <use xlink:href="#DejaVuSans-63" transform="translate(1379.646484 0)"/>
     <use xlink:href="#DejaVuSans-6c" transform="translate(1434.626953 0)"/>
     <use xlink:href="#DejaVuSans-69" transform="translate(1462.410156 0)"/>
     <use xlink:href="#DejaVuSans-6e" transform="translate(1490.193359 0)"/>
     <use xlink:href="#DejaVuSans-65" transform="translate(1553.572266 0)"/>
     <use xlink:href="#DejaVuSans-73" transform="translate(1615.095703 0)"/>
    </g>
   </g>
  </g>
  <g id="text_36">
   <!-- Complexity: Measures and Trajectories -->
   <g transform="translate(293.496562 17.837812) scale(0.14 -0.14)">
    <defs>
     <path id="DejaVuSans-3a" d="M 750 794 
L 1409 794 
L 1409 0 
L 750 0 
L 750 794 
z
M 750 3309 
L 1409 3309 
L 1409 2516 
L 750 2516 
L 750 3309 
z
" transform="scale(0.015625)"/>
     <path id="DejaVuSans-4d" d="M 628 4666 
L 1569 4666 
L 2759 1491 
L 3956 4666 
L 4897 4666 
L 4897 0 
L 4281 0 
L 4281 4097 
L 3078 897 
L 2444 897 
L 1241 4097 
L 1241 0 
L 628 0 
L 628 4666 
z
" transform="scale(0.015625)"/>
     <path id="DejaVuSans-54" d="M -19 4666 
L 3928 4666 
L 3928 4134 
L 2272 4134 
L 2272 0 
L 1638 0 
L 1638 4134 
L -19 4134 
L -19 4666 
z
" transform="scale(0.015625)"/>
     <path id="DejaVuSans-6a" d="M 603 3500 
L 1178 3500 
L 1178 -63 
Q 1178 -731 923 -1031 
Q 669 -1331 103 -1331 
L -116 -1331 
L -116 -844 
L 38 -844 
Q 366 -844 484 -692 
Q 603 -541 603 -63 
L 603 3500 
z
M 603 4863 
L 1178 4863 
L 1178 4134 
L 603 4134 
L 603 4863 
z
" transform="scale(0.015625)"/>
    </defs>
    <use xlink:href="#DejaVuSans-43"/>
    <use xlink:href="#DejaVuSans-6f" transform="translate(69.824219 0)"/>
    <use xlink:href="#DejaVuSans-6d" transform="translate(131.005859 0)"/>
    <use xlink:href="#DejaVuSans-70" transform="translate(228.417969 0)"/>
    <use xlink:href="#DejaVuSans-6c" transform="translate(291.894531 0)"/>
    <use xlink:href="#DejaVuSans-65" transform="translate(319.677734 0)"/>
    <use xlink:href="#DejaVuSans-78" transform="translate(379.451172 0)"/>
    <use xlink:href="#DejaVuSans-69" transform="translate(438.630859 0)"/>
    <use xlink:href="#DejaVuSans-74" transform="translate(466.414062 0)"/>
    <use xlink:href="#DejaVuSans-79" transform="translate(505.623047 0)"/>
    <use xlink:href="#DejaVuSans-3a" transform="translate(557.552734 0)"/>
    <use xlink:href="#DejaVuSans-20" transform="translate(591.244141 0)"/>
    <use xlink:href="#DejaVuSans-4d" transform="translate(623.03125 0)"/>
    <use xlink:href="#DejaVuSans-65" transform="translate(709.310547 0)"/>
    <use xlink:href="#DejaVuSans-61" transform="translate(770.833984 0)"/>
    <use xlink:href="#DejaVuSans-73" transform="translate(832.113281 0)"/>
    <use xlink:href="#DejaVuSans-75" transform="translate(884.212891 0)"/>
    <use xlink:href="#DejaVuSans-72" transform="translate(947.591797 0)"/>
    <use xlink:href="#DejaVuSans-65" transform="translate(986.455078 0)"/>
    <use xlink:href="#DejaVuSans-73" transform="translate(1047.978516 0)"/>
    <use xlink:href="#DejaVuSans-20" transform="translate(1100.078125 0)"/>
    <use xlink:href="#DejaVuSans-61" transform="translate(1131.865234 0)"/>
    <use xlink:href="#DejaVuSans-6e" transform="translate(1193.144531 0)"/>
    <use xlink:href="#DejaVuSans-64" transform="translate(1256.523438 0)"/>
    <use xlink:href="#DejaVuSans-20" transform="translate(1320 0)"/>
    <use xlink:href="#DejaVuSans-54" transform="translate(1351.787109 0)"/>
    <use xlink:href="#DejaVuSans-72" transform="translate(1398.121094 0)"/>
    <use xlink:href="#DejaVuSans-61" transform="translate(1439.234375 0)"/>
    <use xlink:href="#DejaVuSans-6a" transform="translate(1500.513672 0)"/>
    <use xlink:href="#DejaVuSans-65" transform="translate(1528.296875 0)"/>
    <use xlink:href="#DejaVuSans-63" transform="translate(1589.820312 0)"/>
    <use xlink:href="#DejaVuSans-74" transform="translate(1644.800781 0)"/>
    <use xlink:href="#DejaVuSans-6f" transform="translate(1684.009766 0)"/>
    <use xlink:href="#DejaVuSans-72" transform="translate(1745.191406 0)"/>
    <use xlink:href="#DejaVuSans-69" transform="translate(1786.304688 0)"/>
    <use xlink:href="#DejaVuSans-65" transform="translate(1814.087891 0)"/>
    <use xlink:href="#DejaVuSans-73" transform="translate(1875.611328 0)"/>
   </g>
  </g>
 </g>
 <defs>
  <clipPath id="pbab095d82a">
   <rect x="45.716875" y="71.728" width="377.35" height="248.52"/>
  </clipPath>
  <clipPath id="p16f4689344">
   <rect x="472.286875" y="71.728" width="377.35" height="248.52"/>
  </clipPath>
 </defs>
</svg>
