<?xml version="1.0" encoding="utf-8" standalone="no"?>
<!DOCTYPE svg PUBLIC "-//W3C//DTD SVG 1.1//EN"
  "http://www.w3.org/Graphics/SVG/1.1/DTD/svg11.dtd">
<svg xmlns:xlink="http://www.w3.org/1999/xlink" width="712.89875pt" height="353.049687pt" viewBox="0 0 712.89875 353.049687" xmlns="http://www.w3.org/2000/svg" version="1.1">
 <metadata>
  <rdf:RDF xmlns:dc="http://purl.org/dc/elements/1.1/" xmlns:cc="http://creativecommons.org/ns#" xmlns:rdf="http://www.w3.org/1999/02/22-rdf-syntax-ns#">
   <cc:Work>
    <dc:type rdf:resource="http://purl.org/dc/dcmitype/StillImage"/>
    <dc:date>2026-01-02T18:59:16.072409</dc:date>
    <dc:format>image/svg+xml</dc:format>
    <dc:creator>
     <cc:Agent>
      <dc:title>Matplotlib v3.10.8, https://matplotlib.org/</dc:title>
     </cc:Agent>
    </dc:creator>
   </cc:Work>
  </rdf:RDF>
 </metadata>
 <defs>
  <style type="text/css">*{stroke-linejoin: round; stroke-linecap: butt}</style>
 </defs>
 <g id="figure_1">
  <g id="patch_1">
   <path d="M 0 353.049687 
L 712.89875 353.049687 
L 712.89875 0 
L 0 0 
z
" style="fill: #ffffff"/>
  </g>
  <g id="axes_1">
   <g id="patch_2">
    <path d="M 36.17625 313.557812 
L 699.33625 313.557812 
L 699.33625 32.837812 
L 36.17625 32.837812 
z
" style="fill: #ffffff"/>
   </g>
   <g id="matplotlib.axis_1">
    <g id="xtick_1">
     <g id="line2d_1">
      <defs>
       <path id="m9a3d06d996" d="M 0 0 
L 0 3.5 
" style="stroke: #000000; stroke-width: 0.8"/>
      </defs>
      <g>
       <use xlink:href="#m9a3d06d996" x="36.17625" y="313.557812" style="stroke: #000000; stroke-width: 0.8"/>
      </g>
     </g>
     <g id="text_1">
      <!-- 0 -->
      <g transform="translate(32.995 328.15625) scale(0.1 -0.1)">
       <defs>
        <path id="DejaVuSans-30" d="M 2034 4250 
Q 1547 4250 1301 3770 
Q 1056 3291 1056 2328 
Q 1056 1369 1301 889 
Q 1547 409 2034 409 
Q 2525 409 2770 889 
Q 3016 1369 3016 2328 
Q 3016 3291 2770 3770 
Q 2525 4250 2034 4250 
z
M 2034 4750 
Q 2819 4750 3233 4129 
Q 3647 3509 3647 2328 
Q 3647 1150 3233 529 
Q 2819 -91 2034 -91 
Q 1250 -91 836 529 
Q 422 1150 422 2328 
Q 422 3509 836 4129 
Q 1250 4750 2034 4750 
z
" transform="scale(0.015625)"/>
       </defs>
       <use xlink:href="#DejaVuSans-30"/>
      </g>
     </g>
    </g>
    <g id="xtick_2">
     <g id="line2d_2">
      <g>
       <use xlink:href="#m9a3d06d996" x="168.80825" y="313.557812" style="stroke: #000000; stroke-width: 0.8"/>
      </g>
     </g>
     <g id="text_2">
      <!-- 2 -->
      <g transform="translate(165.627 328.15625) scale(0.1 -0.1)">
       <defs>
        <path id="DejaVuSans-32" d="M 1228 531 
L 3431 531 
L 3431 0 
L 469 0 
L 469 531 
Q 828 903 1448 1529 
Q 2069 2156 2228 2338 
Q 2531 2678 2651 2914 
Q 2772 3150 2772 3378 
Q 2772 3750 2511 3984 
Q 2250 4219 1831 4219 
Q 1534 4219 1204 4116 
Q 875 4013 500 3803 
L 500 4441 
Q 881 4594 1212 4672 
Q 1544 4750 1819 4750 
Q 2544 4750 2975 4387 
Q 3406 4025 3406 3419 
Q 3406 3131 3298 2873 
Q 3191 2616 2906 2266 
Q 2828 2175 2409 1742 
Q 1991 1309 1228 531 
z
" transform="scale(0.015625)"/>
       </defs>
       <use xlink:href="#DejaVuSans-32"/>
      </g>
     </g>
    </g>
    <g id="xtick_3">
     <g id="line2d_3">
      <g>
       <use xlink:href="#m9a3d06d996" x="301.44025" y="313.557812" style="stroke: #000000; stroke-width: 0.8"/>
      </g>
     </g>
     <g id="text_3">
      <!-- 4 -->
      <g transform="translate(298.259 328.15625) scale(0.1 -0.1)">
       <defs>
        <path id="DejaVuSans-34" d="M 2419 4116 
L 825 1625 
L 2419 1625 
L 2419 4116 
z
M 2253 4666 
L 3047 4666 
L 3047 1625 
L 3713 1625 
L 3713 1100 
L 3047 1100 
L 3047 0 
L 2419 0 
L 2419 1100 
L 313 1100 
L 313 1709 
L 2253 4666 
z
" transform="scale(0.015625)"/>
       </defs>
       <use xlink:href="#DejaVuSans-34"/>
      </g>
     </g>
    </g>
    <g id="xtick_4">
     <g id="line2d_4">
      <g>
       <use xlink:href="#m9a3d06d996" x="434.07225" y="313.557812" style="stroke: #000000; stroke-width: 0.8"/>
      </g>
     </g>
     <g id="text_4">
      <!-- 6 -->
      <g transform="translate(430.891 328.15625) scale(0.1 -0.1)">
       <defs>
        <path id="DejaVuSans-36" d="M 2113 2584 
Q 1688 2584 1439 2293 
Q 1191 2003 1191 1497 
Q 1191 994 1439 701 
Q 1688 409 2113 409 
Q 2538 409 2786 701 
Q 3034 994 3034 1497 
Q 3034 2003 2786 2293 
Q 2538 2584 2113 2584 
z
M 3366 4563 
L 3366 3988 
Q 3128 4100 2886 4159 
Q 2644 4219 2406 4219 
Q 1781 4219 1451 3797 
Q 1122 3375 1075 2522 
Q 1259 2794 1537 2939 
Q 1816 3084 2150 3084 
Q 2853 3084 3261 2657 
Q 3669 2231 3669 1497 
Q 3669 778 3244 343 
Q 2819 -91 2113 -91 
Q 1303 -91 875 529 
Q 447 1150 447 2328 
Q 447 3434 972 4092 
Q 1497 4750 2381 4750 
Q 2619 4750 2861 4703 
Q 3103 4656 3366 4563 
z
" transform="scale(0.015625)"/>
       </defs>
       <use xlink:href="#DejaVuSans-36"/>
      </g>
     </g>
    </g>
    <g id="xtick_5">
     <g id="line2d_5">
      <g>
       <use xlink:href="#m9a3d06d996" x="566.70425" y="313.557812" style="stroke: #000000; stroke-width: 0.8"/>
      </g>
     </g>
     <g id="text_5">
      <!-- 8 -->
      <g transform="translate(563.523 328.15625) scale(0.1 -0.1)">
       <defs>
        <path id="DejaVuSans-38" d="M 2034 2216 
Q 1584 2216 1326 1975 
Q 1069 1734 1069 1313 
Q 1069 891 1326 650 
Q 1584 409 2034 409 
Q 2484 409 2743 651 
Q 3003 894 3003 1313 
Q 3003 1734 2745 1975 
Q 2488 2216 2034 2216 
z
M 1403 2484 
Q 997 2584 770 2862 
Q 544 3141 544 3541 
Q 544 4100 942 4425 
Q 1341 4750 2034 4750 
Q 2731 4750 3128 4425 
Q 3525 4100 3525 3541 
Q 3525 3141 3298 2862 
Q 3072 2584 2669 2484 
Q 3125 2378 3379 2068 
Q 3634 1759 3634 1313 
Q 3634 634 3220 271 
Q 2806 -91 2034 -91 
Q 1263 -91 848 271 
Q 434 634 434 1313 
Q 434 1759 690 2068 
Q 947 2378 1403 2484 
z
M 1172 3481 
Q 1172 3119 1398 2916 
Q 1625 2713 2034 2713 
Q 2441 2713 2670 2916 
Q 2900 3119 2900 3481 
Q 2900 3844 2670 4047 
Q 2441 4250 2034 4250 
Q 1625 4250 1398 4047 
Q 1172 3844 1172 3481 
z
" transform="scale(0.015625)"/>
       </defs>
       <use xlink:href="#DejaVuSans-38"/>
      </g>
     </g>
    </g>
    <g id="xtick_6">
     <g id="line2d_6">
      <g>
       <use xlink:href="#m9a3d06d996" x="699.33625" y="313.557812" style="stroke: #000000; stroke-width: 0.8"/>
      </g>
     </g>
     <g id="text_6">
      <!-- 10 -->
      <g transform="translate(692.97375 328.15625) scale(0.1 -0.1)">
       <defs>
        <path id="DejaVuSans-31" d="M 794 531 
L 1825 531 
L 1825 4091 
L 703 3866 
L 703 4441 
L 1819 4666 
L 2450 4666 
L 2450 531 
L 3481 531 
L 3481 0 
L 794 0 
L 794 531 
z
" transform="scale(0.015625)"/>
       </defs>
       <use xlink:href="#DejaVuSans-31"/>
       <use xlink:href="#DejaVuSans-30" transform="translate(63.623047 0)"/>
      </g>
     </g>
    </g>
    <g id="text_7">
     <!-- Time -->
     <g transform="translate(353.075938 343.354062) scale(0.12 -0.12)">
      <defs>
       <path id="DejaVuSans-54" d="M -19 4666 
L 3928 4666 
L 3928 4134 
L 2272 4134 
L 2272 0 
L 1638 0 
L 1638 4134 
L -19 4134 
L -19 4666 
z
" transform="scale(0.015625)"/>
       <path id="DejaVuSans-69" d="M 603 3500 
L 1178 3500 
L 1178 0 
L 603 0 
L 603 3500 
z
M 603 4863 
L 1178 4863 
L 1178 4134 
L 603 4134 
L 603 4863 
z
" transform="scale(0.015625)"/>
       <path id="DejaVuSans-6d" d="M 3328 2828 
Q 3544 3216 3844 3400 
Q 4144 3584 4550 3584 
Q 5097 3584 5394 3201 
Q 5691 2819 5691 2113 
L 5691 0 
L 5113 0 
L 5113 2094 
Q 5113 2597 4934 2840 
Q 4756 3084 4391 3084 
Q 3944 3084 3684 2787 
Q 3425 2491 3425 1978 
L 3425 0 
L 2847 0 
L 2847 2094 
Q 2847 2600 2669 2842 
Q 2491 3084 2119 3084 
Q 1678 3084 1418 2786 
Q 1159 2488 1159 1978 
L 1159 0 
L 581 0 
L 581 3500 
L 1159 3500 
L 1159 2956 
Q 1356 3278 1631 3431 
Q 1906 3584 2284 3584 
Q 2666 3584 2933 3390 
Q 3200 3197 3328 2828 
z
" transform="scale(0.015625)"/>
       <path id="DejaVuSans-65" d="M 3597 1894 
L 3597 1613 
L 953 1613 
Q 991 1019 1311 708 
Q 1631 397 2203 397 
Q 2534 397 2845 478 
Q 3156 559 3463 722 
L 3463 178 
Q 3153 47 2828 -22 
Q 2503 -91 2169 -91 
Q 1331 -91 842 396 
Q 353 884 353 1716 
Q 353 2575 817 3079 
Q 1281 3584 2069 3584 
Q 2775 3584 3186 3129 
Q 3597 2675 3597 1894 
z
M 3022 2063 
Q 3016 2534 2758 2815 
Q 2500 3097 2075 3097 
Q 1594 3097 1305 2825 
Q 1016 2553 972 2059 
L 3022 2063 
z
" transform="scale(0.015625)"/>
      </defs>
      <use xlink:href="#DejaVuSans-54"/>
      <use xlink:href="#DejaVuSans-69" transform="translate(57.958984 0)"/>
      <use xlink:href="#DejaVuSans-6d" transform="translate(85.742188 0)"/>
      <use xlink:href="#DejaVuSans-65" transform="translate(183.154297 0)"/>
     </g>
    </g>
   </g>
   <g id="matplotlib.axis_2">
    <g id="ytick_1">
     <g id="line2d_7">
      <defs>
       <path id="mf375a9f357" d="M 0 0 
L -3.5 0 
" style="stroke: #000000; stroke-width: 0.8"/>
      </defs>
      <g>
       <use xlink:href="#mf375a9f357" x="36.17625" y="313.557812" style="stroke: #000000; stroke-width: 0.8"/>
      </g>
     </g>
     <g id="text_8">
      <!-- 0 -->
      <g transform="translate(22.81375 317.357031) scale(0.1 -0.1)">
       <use xlink:href="#DejaVuSans-30"/>
      </g>
     </g>
    </g>
    <g id="ytick_2">
     <g id="line2d_8">
      <g>
       <use xlink:href="#mf375a9f357" x="36.17625" y="257.413812" style="stroke: #000000; stroke-width: 0.8"/>
      </g>
     </g>
     <g id="text_9">
      <!-- 1 -->
      <g transform="translate(22.81375 261.213031) scale(0.1 -0.1)">
       <use xlink:href="#DejaVuSans-31"/>
      </g>
     </g>
    </g>
    <g id="ytick_3">
     <g id="line2d_9">
      <g>
       <use xlink:href="#mf375a9f357" x="36.17625" y="201.269812" style="stroke: #000000; stroke-width: 0.8"/>
      </g>
     </g>
     <g id="text_10">
      <!-- 2 -->
      <g transform="translate(22.81375 205.069031) scale(0.1 -0.1)">
       <use xlink:href="#DejaVuSans-32"/>
      </g>
     </g>
    </g>
    <g id="ytick_4">
     <g id="line2d_10">
      <g>
       <use xlink:href="#mf375a9f357" x="36.17625" y="145.125812" style="stroke: #000000; stroke-width: 0.8"/>
      </g>
     </g>
     <g id="text_11">
      <!-- 3 -->
      <g transform="translate(22.81375 148.925031) scale(0.1 -0.1)">
       <defs>
        <path id="DejaVuSans-33" d="M 2597 2516 
Q 3050 2419 3304 2112 
Q 3559 1806 3559 1356 
Q 3559 666 3084 287 
Q 2609 -91 1734 -91 
Q 1441 -91 1130 -33 
Q 819 25 488 141 
L 488 750 
Q 750 597 1062 519 
Q 1375 441 1716 441 
Q 2309 441 2620 675 
Q 2931 909 2931 1356 
Q 2931 1769 2642 2001 
Q 2353 2234 1838 2234 
L 1294 2234 
L 1294 2753 
L 1863 2753 
Q 2328 2753 2575 2939 
Q 2822 3125 2822 3475 
Q 2822 3834 2567 4026 
Q 2313 4219 1838 4219 
Q 1578 4219 1281 4162 
Q 984 4106 628 3988 
L 628 4550 
Q 988 4650 1302 4700 
Q 1616 4750 1894 4750 
Q 2613 4750 3031 4423 
Q 3450 4097 3450 3541 
Q 3450 3153 3228 2886 
Q 3006 2619 2597 2516 
z
" transform="scale(0.015625)"/>
       </defs>
       <use xlink:href="#DejaVuSans-33"/>
      </g>
     </g>
    </g>
    <g id="ytick_5">
     <g id="line2d_11">
      <g>
       <use xlink:href="#mf375a9f357" x="36.17625" y="88.981812" style="stroke: #000000; stroke-width: 0.8"/>
      </g>
     </g>
     <g id="text_12">
      <!-- 4 -->
      <g transform="translate(22.81375 92.781031) scale(0.1 -0.1)">
       <use xlink:href="#DejaVuSans-34"/>
      </g>
     </g>
    </g>
    <g id="ytick_6">
     <g id="line2d_12">
      <g>
       <use xlink:href="#mf375a9f357" x="36.17625" y="32.837812" style="stroke: #000000; stroke-width: 0.8"/>
      </g>
     </g>
     <g id="text_13">
      <!-- 5 -->
      <g transform="translate(22.81375 36.637031) scale(0.1 -0.1)">
       <defs>
        <path id="DejaVuSans-35" d="M 691 4666 
L 3169 4666 
L 3169 4134 
L 1269 4134 
L 1269 2991 
Q 1406 3038 1543 3061 
Q 1681 3084 1819 3084 
Q 2600 3084 3056 2656 
Q 3513 2228 3513 1497 
Q 3513 744 3044 326 
Q 2575 -91 1722 -91 
Q 1428 -91 1123 -41 
Q 819 9 494 109 
L 494 744 
Q 775 591 1075 516 
Q 1375 441 1709 441 
Q 2250 441 2565 725 
Q 2881 1009 2881 1497 
Q 2881 1984 2565 2268 
Q 2250 2553 1709 2553 
Q 1456 2553 1204 2497 
Q 953 2441 691 2322 
L 691 4666 
z
" transform="scale(0.015625)"/>
       </defs>
       <use xlink:href="#DejaVuSans-35"/>
      </g>
     </g>
    </g>
    <g id="text_14">
     <!-- Complexity / Entropy -->
     <g transform="translate(16.318125 236.231562) rotate(-90) scale(0.12 -0.12)">
      <defs>
       <path id="DejaVuSans-43" d="M 4122 4306 
L 4122 3641 
Q 3803 3938 3442 4084 
Q 3081 4231 2675 4231 
Q 1875 4231 1450 3742 
Q 1025 3253 1025 2328 
Q 1025 1406 1450 917 
Q 1875 428 2675 428 
Q 3081 428 3442 575 
Q 3803 722 4122 1019 
L 4122 359 
Q 3791 134 3420 21 
Q 3050 -91 2638 -91 
Q 1578 -91 968 557 
Q 359 1206 359 2328 
Q 359 3453 968 4101 
Q 1578 4750 2638 4750 
Q 3056 4750 3426 4639 
Q 3797 4528 4122 4306 
z
" transform="scale(0.015625)"/>
       <path id="DejaVuSans-6f" d="M 1959 3097 
Q 1497 3097 1228 2736 
Q 959 2375 959 1747 
Q 959 1119 1226 758 
Q 1494 397 1959 397 
Q 2419 397 2687 759 
Q 2956 1122 2956 1747 
Q 2956 2369 2687 2733 
Q 2419 3097 1959 3097 
z
M 1959 3584 
Q 2709 3584 3137 3096 
Q 3566 2609 3566 1747 
Q 3566 888 3137 398 
Q 2709 -91 1959 -91 
Q 1206 -91 779 398 
Q 353 888 353 1747 
Q 353 2609 779 3096 
Q 1206 3584 1959 3584 
z
" transform="scale(0.015625)"/>
       <path id="DejaVuSans-70" d="M 1159 525 
L 1159 -1331 
L 581 -1331 
L 581 3500 
L 1159 3500 
L 1159 2969 
Q 1341 3281 1617 3432 
Q 1894 3584 2278 3584 
Q 2916 3584 3314 3078 
Q 3713 2572 3713 1747 
Q 3713 922 3314 415 
Q 2916 -91 2278 -91 
Q 1894 -91 1617 61 
Q 1341 213 1159 525 
z
M 3116 1747 
Q 3116 2381 2855 2742 
Q 2594 3103 2138 3103 
Q 1681 3103 1420 2742 
Q 1159 2381 1159 1747 
Q 1159 1113 1420 752 
Q 1681 391 2138 391 
Q 2594 391 2855 752 
Q 3116 1113 3116 1747 
z
" transform="scale(0.015625)"/>
       <path id="DejaVuSans-6c" d="M 603 4863 
L 1178 4863 
L 1178 0 
L 603 0 
L 603 4863 
z
" transform="scale(0.015625)"/>
       <path id="DejaVuSans-78" d="M 3513 3500 
L 2247 1797 
L 3578 0 
L 2900 0 
L 1881 1375 
L 863 0 
L 184 0 
L 1544 1831 
L 300 3500 
L 978 3500 
L 1906 2253 
L 2834 3500 
L 3513 3500 
z
" transform="scale(0.015625)"/>
       <path id="DejaVuSans-74" d="M 1172 4494 
L 1172 3500 
L 2356 3500 
L 2356 3053 
L 1172 3053 
L 1172 1153 
Q 1172 725 1289 603 
Q 1406 481 1766 481 
L 2356 481 
L 2356 0 
L 1766 0 
Q 1100 0 847 248 
Q 594 497 594 1153 
L 594 3053 
L 172 3053 
L 172 3500 
L 594 3500 
L 594 4494 
L 1172 4494 
z
" transform="scale(0.015625)"/>
       <path id="DejaVuSans-79" d="M 2059 -325 
Q 1816 -950 1584 -1140 
Q 1353 -1331 966 -1331 
L 506 -1331 
L 506 -850 
L 844 -850 
Q 1081 -850 1212 -737 
Q 1344 -625 1503 -206 
L 1606 56 
L 191 3500 
L 800 3500 
L 1894 763 
L 2988 3500 
L 3597 3500 
L 2059 -325 
z
" transform="scale(0.015625)"/>
       <path id="DejaVuSans-20" transform="scale(0.015625)"/>
       <path id="DejaVuSans-2f" d="M 1625 4666 
L 2156 4666 
L 531 -594 
L 0 -594 
L 1625 4666 
z
" transform="scale(0.015625)"/>
       <path id="DejaVuSans-45" d="M 628 4666 
L 3578 4666 
L 3578 4134 
L 1259 4134 
L 1259 2753 
L 3481 2753 
L 3481 2222 
L 1259 2222 
L 1259 531 
L 3634 531 
L 3634 0 
L 628 0 
L 628 4666 
z
" transform="scale(0.015625)"/>
       <path id="DejaVuSans-6e" d="M 3513 2113 
L 3513 0 
L 2938 0 
L 2938 2094 
Q 2938 2591 2744 2837 
Q 2550 3084 2163 3084 
Q 1697 3084 1428 2787 
Q 1159 2491 1159 1978 
L 1159 0 
L 581 0 
L 581 3500 
L 1159 3500 
L 1159 2956 
Q 1366 3272 1645 3428 
Q 1925 3584 2291 3584 
Q 2894 3584 3203 3211 
Q 3513 2838 3513 2113 
z
" transform="scale(0.015625)"/>
       <path id="DejaVuSans-72" d="M 2631 2963 
Q 2534 3019 2420 3045 
Q 2306 3072 2169 3072 
Q 1681 3072 1420 2755 
Q 1159 2438 1159 1844 
L 1159 0 
L 581 0 
L 581 3500 
L 1159 3500 
L 1159 2956 
Q 1341 3275 1631 3429 
Q 1922 3584 2338 3584 
Q 2397 3584 2469 3576 
Q 2541 3569 2628 3553 
L 2631 2963 
z
" transform="scale(0.015625)"/>
      </defs>
      <use xlink:href="#DejaVuSans-43"/>
      <use xlink:href="#DejaVuSans-6f" transform="translate(69.824219 0)"/>
      <use xlink:href="#DejaVuSans-6d" transform="translate(131.005859 0)"/>
      <use xlink:href="#DejaVuSans-70" transform="translate(228.417969 0)"/>
      <use xlink:href="#DejaVuSans-6c" transform="translate(291.894531 0)"/>
      <use xlink:href="#DejaVuSans-65" transform="translate(319.677734 0)"/>
      <use xlink:href="#DejaVuSans-78" transform="translate(379.451172 0)"/>
      <use xlink:href="#DejaVuSans-69" transform="translate(438.630859 0)"/>
      <use xlink:href="#DejaVuSans-74" transform="translate(466.414062 0)"/>
      <use xlink:href="#DejaVuSans-79" transform="translate(505.623047 0)"/>
      <use xlink:href="#DejaVuSans-20" transform="translate(564.802734 0)"/>
      <use xlink:href="#DejaVuSans-2f" transform="translate(596.589844 0)"/>
      <use xlink:href="#DejaVuSans-20" transform="translate(630.28125 0)"/>
      <use xlink:href="#DejaVuSans-45" transform="translate(662.068359 0)"/>
      <use xlink:href="#DejaVuSans-6e" transform="translate(725.251953 0)"/>
      <use xlink:href="#DejaVuSans-74" transform="translate(788.630859 0)"/>
      <use xlink:href="#DejaVuSans-72" transform="translate(827.839844 0)"/>
      <use xlink:href="#DejaVuSans-6f" transform="translate(866.703125 0)"/>
      <use xlink:href="#DejaVuSans-70" transform="translate(927.884766 0)"/>
      <use xlink:href="#DejaVuSans-79" transform="translate(991.361328 0)"/>
     </g>
    </g>
   </g>
   <g id="line2d_13">
    <path d="M 36.17625 285.485812 
L 42.874836 281.518926 
L 49.573422 277.569355 
L 56.272008 273.654236 
L 62.970593 269.790356 
L 69.669179 265.99398 
L 76.367765 262.280685 
L 83.066351 258.665198 
L 89.764937 255.161254 
L 96.463523 251.781446 
L 103.162109 248.537105 
L 109.860694 245.438179 
L 116.55928 242.493135 
L 123.257866 239.708869 
L 129.956452 237.09064 
L 136.655038 234.642015 
L 143.353624 232.36483 
L 150.05221 230.259174 
L 156.750795 228.323388 
L 163.449381 226.55408 
L 170.147967 224.946162 
L 176.846553 223.4929 
L 183.545139 222.185984 
L 190.243725 221.015612 
L 196.942311 219.97059 
L 203.640896 219.038446 
L 210.339482 218.205557 
L 217.038068 217.457288 
L 223.736654 216.778142 
L 230.43524 216.151917 
L 237.133826 215.561873 
L 243.832412 214.990898 
L 250.530997 214.421688 
L 257.229583 213.83692 
L 263.928169 213.219431 
L 270.626755 212.55239 
L 277.325341 211.819471 
L 284.023927 211.005021 
L 290.722513 210.094218 
L 297.421098 209.073221 
L 304.119684 207.929313 
L 310.81827 206.65103 
L 317.516856 205.228278 
L 324.215442 203.652436 
L 330.914028 201.916443 
L 337.612614 200.014871 
L 344.311199 197.943981 
L 351.009785 195.701758 
L 357.708371 193.287934 
L 364.406957 190.703993 
L 371.105543 187.953149 
L 377.804129 185.040322 
L 384.502715 181.97208 
L 391.201301 178.756576 
L 397.899886 175.403466 
L 404.598472 171.923806 
L 411.297058 168.329944 
L 417.995644 164.635393 
L 424.69423 160.854689 
L 431.392816 157.003251 
L 438.091402 153.097214 
L 444.789987 149.153275 
L 451.488573 145.188513 
L 458.187159 141.220221 
L 464.885745 137.265727 
L 471.584331 133.342222 
L 478.282917 129.466575 
L 484.981503 125.655173 
L 491.680088 121.923744 
L 498.378674 118.287202 
L 505.07726 114.759495 
L 511.775846 111.35346 
L 518.474432 108.080694 
L 525.173018 104.951435 
L 531.871604 101.974459 
L 538.570189 99.156989 
L 545.268775 96.504622 
L 551.967361 94.021271 
L 558.665947 91.709128 
L 565.364533 89.568637 
L 572.063119 87.598496 
L 578.761705 85.795661 
L 585.46029 84.155388 
L 592.158876 82.671272 
L 598.857462 81.335317 
L 605.556048 80.138018 
L 612.254634 79.068454 
L 618.95322 78.114404 
L 625.651806 77.262468 
L 632.350391 76.498206 
L 639.048977 75.806284 
L 645.747563 75.17063 
L 652.446149 74.574599 
L 659.144735 74.001141 
L 665.843321 73.432978 
L 672.541907 72.852776 
L 679.240492 72.243324 
L 685.939078 71.587711 
L 692.637664 70.869493 
L 699.33625 70.072869 
" clip-path="url(#paf9dfba11e)" style="fill: none; stroke-dasharray: 9.25,4; stroke-dashoffset: 0; stroke: #95a5a6; stroke-width: 2.5"/>
   </g>
   <g id="line2d_14">
    <path d="M 36.17625 313.556976 
L 42.874836 313.556433 
L 49.573422 313.555561 
L 56.272008 313.554175 
L 62.970593 313.551997 
L 69.669179 313.548608 
L 76.367765 313.543392 
L 83.066351 313.535451 
L 89.764937 313.523487 
L 96.463523 313.505659 
L 103.162109 313.479373 
L 109.860694 313.441038 
L 116.55928 313.385733 
L 123.257866 313.306808 
L 129.956452 313.195402 
L 136.655038 313.039859 
L 143.353624 312.825074 
L 150.05221 312.531745 
L 156.750795 312.135576 
L 163.449381 311.606456 
L 170.147967 310.907663 
L 176.846553 309.995164 
L 183.545139 308.81709 
L 190.243725 307.313497 
L 196.942311 305.416506 
L 203.640896 303.050971 
L 210.339482 300.135753 
L 217.038068 296.585734 
L 223.736654 292.314621 
L 230.43524 287.238571 
L 237.133826 281.280612 
L 243.832412 274.375757 
L 250.530997 266.47662 
L 257.229583 257.559291 
L 263.928169 247.629107 
L 270.626755 236.725941 
L 277.325341 224.928547 
L 284.023927 212.357521 
L 290.722513 199.176453 
L 297.421098 185.590921 
L 304.119684 171.845083 
L 310.81827 158.215781 
L 317.516856 145.004235 
L 324.215442 132.525606 
L 330.914028 121.096879 
L 337.612614 111.023687 
L 344.311199 102.586839 
L 351.009785 96.029356 
L 357.708371 91.544852 
L 364.406957 89.26805 
L 371.105543 89.26805 
L 377.804129 91.544852 
L 384.502715 96.029356 
L 391.201301 102.586839 
L 397.899886 111.023687 
L 404.598472 121.096879 
L 411.297058 132.525606 
L 417.995644 145.004235 
L 424.69423 158.215781 
L 431.392816 171.845083 
L 438.091402 185.590921 
L 444.789987 199.176453 
L 451.488573 212.357521 
L 458.187159 224.928547 
L 464.885745 236.725941 
L 471.584331 247.629107 
L 478.282917 257.559291 
L 484.981503 266.47662 
L 491.680088 274.375757 
L 498.378674 281.280612 
L 505.07726 287.238571 
L 511.775846 292.314621 
L 518.474432 296.585734 
L 525.173018 300.135753 
L 531.871604 303.050971 
L 538.570189 305.416506 
L 545.268775 307.313497 
L 551.967361 308.81709 
L 558.665947 309.995164 
L 565.364533 310.907663 
L 572.063119 311.606456 
L 578.761705 312.135576 
L 585.46029 312.531745 
L 592.158876 312.825074 
L 598.857462 313.039859 
L 605.556048 313.195402 
L 612.254634 313.306808 
L 618.95322 313.385733 
L 625.651806 313.441038 
L 632.350391 313.479373 
L 639.048977 313.505659 
L 645.747563 313.523487 
L 652.446149 313.535451 
L 659.144735 313.543392 
L 665.843321 313.548608 
L 672.541907 313.551997 
L 679.240492 313.554175 
L 685.939078 313.555561 
L 692.637664 313.556433 
L 699.33625 313.556976 
" clip-path="url(#paf9dfba11e)" style="fill: none; stroke: #9b59b6; stroke-width: 2.5; stroke-linecap: square"/>
   </g>
   <g id="line2d_15">
    <path d="M 168.80825 313.557812 
L 168.80825 32.837812 
" clip-path="url(#paf9dfba11e)" style="fill: none; stroke-dasharray: 1.5,2.475; stroke-dashoffset: 0; stroke: #ecf0f1; stroke-opacity: 0.5; stroke-width: 1.5"/>
   </g>
   <g id="line2d_16">
    <path d="M 566.70425 313.557812 
L 566.70425 32.837812 
" clip-path="url(#paf9dfba11e)" style="fill: none; stroke-dasharray: 1.5,2.475; stroke-dashoffset: 0; stroke: #ecf0f1; stroke-opacity: 0.5; stroke-width: 1.5"/>
   </g>
   <g id="patch_3">
    <path d="M 36.17625 313.557812 
L 36.17625 32.837812 
" style="fill: none; stroke: #000000; stroke-width: 0.8; stroke-linejoin: miter; stroke-linecap: square"/>
   </g>
   <g id="patch_4">
    <path d="M 36.17625 313.557812 
L 699.33625 313.557812 
" style="fill: none; stroke: #000000; stroke-width: 0.8; stroke-linejoin: miter; stroke-linecap: square"/>
   </g>
   <g id="text_15">
    <!-- Genesis -->
    <g style="fill: #2c3e50" transform="translate(86.656625 51.951562) scale(0.08 -0.08)">
     <defs>
      <path id="DejaVuSans-47" d="M 3809 666 
L 3809 1919 
L 2778 1919 
L 2778 2438 
L 4434 2438 
L 4434 434 
Q 4069 175 3628 42 
Q 3188 -91 2688 -91 
Q 1594 -91 976 548 
Q 359 1188 359 2328 
Q 359 3472 976 4111 
Q 1594 4750 2688 4750 
Q 3144 4750 3555 4637 
Q 3966 4525 4313 4306 
L 4313 3634 
Q 3963 3931 3569 4081 
Q 3175 4231 2741 4231 
Q 1884 4231 1454 3753 
Q 1025 3275 1025 2328 
Q 1025 1384 1454 906 
Q 1884 428 2741 428 
Q 3075 428 3337 486 
Q 3600 544 3809 666 
z
" transform="scale(0.015625)"/>
      <path id="DejaVuSans-73" d="M 2834 3397 
L 2834 2853 
Q 2591 2978 2328 3040 
Q 2066 3103 1784 3103 
Q 1356 3103 1142 2972 
Q 928 2841 928 2578 
Q 928 2378 1081 2264 
Q 1234 2150 1697 2047 
L 1894 2003 
Q 2506 1872 2764 1633 
Q 3022 1394 3022 966 
Q 3022 478 2636 193 
Q 2250 -91 1575 -91 
Q 1294 -91 989 -36 
Q 684 19 347 128 
L 347 722 
Q 666 556 975 473 
Q 1284 391 1588 391 
Q 1994 391 2212 530 
Q 2431 669 2431 922 
Q 2431 1156 2273 1281 
Q 2116 1406 1581 1522 
L 1381 1569 
Q 847 1681 609 1914 
Q 372 2147 372 2553 
Q 372 3047 722 3315 
Q 1072 3584 1716 3584 
Q 2034 3584 2315 3537 
Q 2597 3491 2834 3397 
z
" transform="scale(0.015625)"/>
     </defs>
     <use xlink:href="#DejaVuSans-47"/>
     <use xlink:href="#DejaVuSans-65" transform="translate(77.490234 0)"/>
     <use xlink:href="#DejaVuSans-6e" transform="translate(139.013672 0)"/>
     <use xlink:href="#DejaVuSans-65" transform="translate(202.392578 0)"/>
     <use xlink:href="#DejaVuSans-73" transform="translate(263.916016 0)"/>
     <use xlink:href="#DejaVuSans-69" transform="translate(316.015625 0)"/>
     <use xlink:href="#DejaVuSans-73" transform="translate(343.798828 0)"/>
    </g>
    <!-- (Low Entropy) -->
    <g style="fill: #2c3e50" transform="translate(74.682875 60.909812) scale(0.08 -0.08)">
     <defs>
      <path id="DejaVuSans-28" d="M 1984 4856 
Q 1566 4138 1362 3434 
Q 1159 2731 1159 2009 
Q 1159 1288 1364 580 
Q 1569 -128 1984 -844 
L 1484 -844 
Q 1016 -109 783 600 
Q 550 1309 550 2009 
Q 550 2706 781 3412 
Q 1013 4119 1484 4856 
L 1984 4856 
z
" transform="scale(0.015625)"/>
      <path id="DejaVuSans-4c" d="M 628 4666 
L 1259 4666 
L 1259 531 
L 3531 531 
L 3531 0 
L 628 0 
L 628 4666 
z
" transform="scale(0.015625)"/>
      <path id="DejaVuSans-77" d="M 269 3500 
L 844 3500 
L 1563 769 
L 2278 3500 
L 2956 3500 
L 3675 769 
L 4391 3500 
L 4966 3500 
L 4050 0 
L 3372 0 
L 2619 2869 
L 1863 0 
L 1184 0 
L 269 3500 
z
" transform="scale(0.015625)"/>
      <path id="DejaVuSans-29" d="M 513 4856 
L 1013 4856 
Q 1481 4119 1714 3412 
Q 1947 2706 1947 2009 
Q 1947 1309 1714 600 
Q 1481 -109 1013 -844 
L 513 -844 
Q 928 -128 1133 580 
Q 1338 1288 1338 2009 
Q 1338 2731 1133 3434 
Q 928 4138 513 4856 
z
" transform="scale(0.015625)"/>
     </defs>
     <use xlink:href="#DejaVuSans-28"/>
     <use xlink:href="#DejaVuSans-4c" transform="translate(39.013672 0)"/>
     <use xlink:href="#DejaVuSans-6f" transform="translate(92.976562 0)"/>
     <use xlink:href="#DejaVuSans-77" transform="translate(154.158203 0)"/>
     <use xlink:href="#DejaVuSans-20" transform="translate(235.945312 0)"/>
     <use xlink:href="#DejaVuSans-45" transform="translate(267.732422 0)"/>
     <use xlink:href="#DejaVuSans-6e" transform="translate(330.916016 0)"/>
     <use xlink:href="#DejaVuSans-74" transform="translate(394.294922 0)"/>
     <use xlink:href="#DejaVuSans-72" transform="translate(433.503906 0)"/>
     <use xlink:href="#DejaVuSans-6f" transform="translate(472.367188 0)"/>
     <use xlink:href="#DejaVuSans-70" transform="translate(533.548828 0)"/>
     <use xlink:href="#DejaVuSans-79" transform="translate(597.025391 0)"/>
     <use xlink:href="#DejaVuSans-29" transform="translate(656.205078 0)"/>
    </g>
   </g>
   <g id="text_16">
    <!-- Peak -->
    <g style="fill: #9b59b6" transform="translate(358.260625 51.951562) scale(0.08 -0.08)">
     <defs>
      <path id="DejaVuSans-50" d="M 1259 4147 
L 1259 2394 
L 2053 2394 
Q 2494 2394 2734 2622 
Q 2975 2850 2975 3272 
Q 2975 3691 2734 3919 
Q 2494 4147 2053 4147 
L 1259 4147 
z
M 628 4666 
L 2053 4666 
Q 2838 4666 3239 4311 
Q 3641 3956 3641 3272 
Q 3641 2581 3239 2228 
Q 2838 1875 2053 1875 
L 1259 1875 
L 1259 0 
L 628 0 
L 628 4666 
z
" transform="scale(0.015625)"/>
      <path id="DejaVuSans-61" d="M 2194 1759 
Q 1497 1759 1228 1600 
Q 959 1441 959 1056 
Q 959 750 1161 570 
Q 1363 391 1709 391 
Q 2188 391 2477 730 
Q 2766 1069 2766 1631 
L 2766 1759 
L 2194 1759 
z
M 3341 1997 
L 3341 0 
L 2766 0 
L 2766 531 
Q 2569 213 2275 61 
Q 1981 -91 1556 -91 
Q 1019 -91 701 211 
Q 384 513 384 1019 
Q 384 1609 779 1909 
Q 1175 2209 1959 2209 
L 2766 2209 
L 2766 2266 
Q 2766 2663 2505 2880 
Q 2244 3097 1772 3097 
Q 1472 3097 1187 3025 
Q 903 2953 641 2809 
L 641 3341 
Q 956 3463 1253 3523 
Q 1550 3584 1831 3584 
Q 2591 3584 2966 3190 
Q 3341 2797 3341 1997 
z
" transform="scale(0.015625)"/>
      <path id="DejaVuSans-6b" d="M 581 4863 
L 1159 4863 
L 1159 1991 
L 2875 3500 
L 3609 3500 
L 1753 1863 
L 3688 0 
L 2938 0 
L 1159 1709 
L 1159 0 
L 581 0 
L 581 4863 
z
" transform="scale(0.015625)"/>
     </defs>
     <use xlink:href="#DejaVuSans-50"/>
     <use xlink:href="#DejaVuSans-65" transform="translate(56.677734 0)"/>
     <use xlink:href="#DejaVuSans-61" transform="translate(118.201172 0)"/>
     <use xlink:href="#DejaVuSans-6b" transform="translate(179.480469 0)"/>
    </g>
    <!-- Complexity -->
    <g style="fill: #9b59b6" transform="translate(345.163125 60.909812) scale(0.08 -0.08)">
     <use xlink:href="#DejaVuSans-43"/>
     <use xlink:href="#DejaVuSans-6f" transform="translate(69.824219 0)"/>
     <use xlink:href="#DejaVuSans-6d" transform="translate(131.005859 0)"/>
     <use xlink:href="#DejaVuSans-70" transform="translate(228.417969 0)"/>
     <use xlink:href="#DejaVuSans-6c" transform="translate(291.894531 0)"/>
     <use xlink:href="#DejaVuSans-65" transform="translate(319.677734 0)"/>
     <use xlink:href="#DejaVuSans-78" transform="translate(379.451172 0)"/>
     <use xlink:href="#DejaVuSans-69" transform="translate(438.630859 0)"/>
     <use xlink:href="#DejaVuSans-74" transform="translate(466.414062 0)"/>
     <use xlink:href="#DejaVuSans-79" transform="translate(505.623047 0)"/>
    </g>
   </g>
   <g id="text_17">
    <!-- Heat Death -->
    <g style="fill: #95a5a6" transform="translate(610.164625 51.951562) scale(0.08 -0.08)">
     <defs>
      <path id="DejaVuSans-48" d="M 628 4666 
L 1259 4666 
L 1259 2753 
L 3553 2753 
L 3553 4666 
L 4184 4666 
L 4184 0 
L 3553 0 
L 3553 2222 
L 1259 2222 
L 1259 0 
L 628 0 
L 628 4666 
z
" transform="scale(0.015625)"/>
      <path id="DejaVuSans-44" d="M 1259 4147 
L 1259 519 
L 2022 519 
Q 2988 519 3436 956 
Q 3884 1394 3884 2338 
Q 3884 3275 3436 3711 
Q 2988 4147 2022 4147 
L 1259 4147 
z
M 628 4666 
L 1925 4666 
Q 3281 4666 3915 4102 
Q 4550 3538 4550 2338 
Q 4550 1131 3912 565 
Q 3275 0 1925 0 
L 628 0 
L 628 4666 
z
" transform="scale(0.015625)"/>
      <path id="DejaVuSans-68" d="M 3513 2113 
L 3513 0 
L 2938 0 
L 2938 2094 
Q 2938 2591 2744 2837 
Q 2550 3084 2163 3084 
Q 1697 3084 1428 2787 
Q 1159 2491 1159 1978 
L 1159 0 
L 581 0 
L 581 4863 
L 1159 4863 
L 1159 2956 
Q 1366 3272 1645 3428 
Q 1925 3584 2291 3584 
Q 2894 3584 3203 3211 
Q 3513 2838 3513 2113 
z
" transform="scale(0.015625)"/>
     </defs>
     <use xlink:href="#DejaVuSans-48"/>
     <use xlink:href="#DejaVuSans-65" transform="translate(75.195312 0)"/>
     <use xlink:href="#DejaVuSans-61" transform="translate(136.71875 0)"/>
     <use xlink:href="#DejaVuSans-74" transform="translate(197.998047 0)"/>
     <use xlink:href="#DejaVuSans-20" transform="translate(237.207031 0)"/>
     <use xlink:href="#DejaVuSans-44" transform="translate(268.994141 0)"/>
     <use xlink:href="#DejaVuSans-65" transform="translate(345.996094 0)"/>
     <use xlink:href="#DejaVuSans-61" transform="translate(407.519531 0)"/>
     <use xlink:href="#DejaVuSans-74" transform="translate(468.798828 0)"/>
     <use xlink:href="#DejaVuSans-68" transform="translate(508.007812 0)"/>
    </g>
    <!-- (Max Entropy) -->
    <g style="fill: #95a5a6" transform="translate(604.818375 60.909812) scale(0.08 -0.08)">
     <defs>
      <path id="DejaVuSans-4d" d="M 628 4666 
L 1569 4666 
L 2759 1491 
L 3956 4666 
L 4897 4666 
L 4897 0 
L 4281 0 
L 4281 4097 
L 3078 897 
L 2444 897 
L 1241 4097 
L 1241 0 
L 628 0 
L 628 4666 
z
" transform="scale(0.015625)"/>
     </defs>
     <use xlink:href="#DejaVuSans-28"/>
     <use xlink:href="#DejaVuSans-4d" transform="translate(39.013672 0)"/>
     <use xlink:href="#DejaVuSans-61" transform="translate(125.292969 0)"/>
     <use xlink:href="#DejaVuSans-78" transform="translate(186.572266 0)"/>
     <use xlink:href="#DejaVuSans-20" transform="translate(245.751953 0)"/>
     <use xlink:href="#DejaVuSans-45" transform="translate(277.539062 0)"/>
     <use xlink:href="#DejaVuSans-6e" transform="translate(340.722656 0)"/>
     <use xlink:href="#DejaVuSans-74" transform="translate(404.101562 0)"/>
     <use xlink:href="#DejaVuSans-72" transform="translate(443.310547 0)"/>
     <use xlink:href="#DejaVuSans-6f" transform="translate(482.173828 0)"/>
     <use xlink:href="#DejaVuSans-70" transform="translate(543.355469 0)"/>
     <use xlink:href="#DejaVuSans-79" transform="translate(606.832031 0)"/>
     <use xlink:href="#DejaVuSans-29" transform="translate(666.011719 0)"/>
    </g>
   </g>
   <g id="text_18">
    <!-- Entropy and Complexity Evolution in TRD -->
    <g transform="translate(223.182187 17.837812) scale(0.14 -0.14)">
     <defs>
      <path id="DejaVuSans-64" d="M 2906 2969 
L 2906 4863 
L 3481 4863 
L 3481 0 
L 2906 0 
L 2906 525 
Q 2725 213 2448 61 
Q 2172 -91 1784 -91 
Q 1150 -91 751 415 
Q 353 922 353 1747 
Q 353 2572 751 3078 
Q 1150 3584 1784 3584 
Q 2172 3584 2448 3432 
Q 2725 3281 2906 2969 
z
M 947 1747 
Q 947 1113 1208 752 
Q 1469 391 1925 391 
Q 2381 391 2643 752 
Q 2906 1113 2906 1747 
Q 2906 2381 2643 2742 
Q 2381 3103 1925 3103 
Q 1469 3103 1208 2742 
Q 947 2381 947 1747 
z
" transform="scale(0.015625)"/>
      <path id="DejaVuSans-76" d="M 191 3500 
L 800 3500 
L 1894 563 
L 2988 3500 
L 3597 3500 
L 2284 0 
L 1503 0 
L 191 3500 
z
" transform="scale(0.015625)"/>
      <path id="DejaVuSans-75" d="M 544 1381 
L 544 3500 
L 1119 3500 
L 1119 1403 
Q 1119 906 1312 657 
Q 1506 409 1894 409 
Q 2359 409 2629 706 
Q 2900 1003 2900 1516 
L 2900 3500 
L 3475 3500 
L 3475 0 
L 2900 0 
L 2900 538 
Q 2691 219 2414 64 
Q 2138 -91 1772 -91 
Q 1169 -91 856 284 
Q 544 659 544 1381 
z
M 1991 3584 
L 1991 3584 
z
" transform="scale(0.015625)"/>
      <path id="DejaVuSans-52" d="M 2841 2188 
Q 3044 2119 3236 1894 
Q 3428 1669 3622 1275 
L 4263 0 
L 3584 0 
L 2988 1197 
Q 2756 1666 2539 1819 
Q 2322 1972 1947 1972 
L 1259 1972 
L 1259 0 
L 628 0 
L 628 4666 
L 2053 4666 
Q 2853 4666 3247 4331 
Q 3641 3997 3641 3322 
Q 3641 2881 3436 2590 
Q 3231 2300 2841 2188 
z
M 1259 4147 
L 1259 2491 
L 2053 2491 
Q 2509 2491 2742 2702 
Q 2975 2913 2975 3322 
Q 2975 3731 2742 3939 
Q 2509 4147 2053 4147 
L 1259 4147 
z
" transform="scale(0.015625)"/>
     </defs>
     <use xlink:href="#DejaVuSans-45"/>
     <use xlink:href="#DejaVuSans-6e" transform="translate(63.183594 0)"/>
     <use xlink:href="#DejaVuSans-74" transform="translate(126.5625 0)"/>
     <use xlink:href="#DejaVuSans-72" transform="translate(165.771484 0)"/>
     <use xlink:href="#DejaVuSans-6f" transform="translate(204.634766 0)"/>
     <use xlink:href="#DejaVuSans-70" transform="translate(265.816406 0)"/>
     <use xlink:href="#DejaVuSans-79" transform="translate(329.292969 0)"/>
     <use xlink:href="#DejaVuSans-20" transform="translate(388.472656 0)"/>
     <use xlink:href="#DejaVuSans-61" transform="translate(420.259766 0)"/>
     <use xlink:href="#DejaVuSans-6e" transform="translate(481.539062 0)"/>
     <use xlink:href="#DejaVuSans-64" transform="translate(544.917969 0)"/>
     <use xlink:href="#DejaVuSans-20" transform="translate(608.394531 0)"/>
     <use xlink:href="#DejaVuSans-43" transform="translate(640.181641 0)"/>
     <use xlink:href="#DejaVuSans-6f" transform="translate(710.005859 0)"/>
     <use xlink:href="#DejaVuSans-6d" transform="translate(771.1875 0)"/>
     <use xlink:href="#DejaVuSans-70" transform="translate(868.599609 0)"/>
     <use xlink:href="#DejaVuSans-6c" transform="translate(932.076172 0)"/>
     <use xlink:href="#DejaVuSans-65" transform="translate(959.859375 0)"/>
     <use xlink:href="#DejaVuSans-78" transform="translate(1019.632812 0)"/>
     <use xlink:href="#DejaVuSans-69" transform="translate(1078.8125 0)"/>
     <use xlink:href="#DejaVuSans-74" transform="translate(1106.595703 0)"/>
     <use xlink:href="#DejaVuSans-79" transform="translate(1145.804688 0)"/>
     <use xlink:href="#DejaVuSans-20" transform="translate(1204.984375 0)"/>
     <use xlink:href="#DejaVuSans-45" transform="translate(1236.771484 0)"/>
     <use xlink:href="#DejaVuSans-76" transform="translate(1299.955078 0)"/>
     <use xlink:href="#DejaVuSans-6f" transform="translate(1359.134766 0)"/>
     <use xlink:href="#DejaVuSans-6c" transform="translate(1420.316406 0)"/>
     <use xlink:href="#DejaVuSans-75" transform="translate(1448.099609 0)"/>
     <use xlink:href="#DejaVuSans-74" transform="translate(1511.478516 0)"/>
     <use xlink:href="#DejaVuSans-69" transform="translate(1550.6875 0)"/>
     <use xlink:href="#DejaVuSans-6f" transform="translate(1578.470703 0)"/>
     <use xlink:href="#DejaVuSans-6e" transform="translate(1639.652344 0)"/>
     <use xlink:href="#DejaVuSans-20" transform="translate(1703.03125 0)"/>
     <use xlink:href="#DejaVuSans-69" transform="translate(1734.818359 0)"/>
     <use xlink:href="#DejaVuSans-6e" transform="translate(1762.601562 0)"/>
     <use xlink:href="#DejaVuSans-20" transform="translate(1825.980469 0)"/>
     <use xlink:href="#DejaVuSans-54" transform="translate(1857.767578 0)"/>
     <use xlink:href="#DejaVuSans-52" transform="translate(1918.851562 0)"/>
     <use xlink:href="#DejaVuSans-44" transform="translate(1988.333984 0)"/>
    </g>
   </g>
   <g id="legend_1">
    <g id="patch_5">
     <path d="M 622.95 309.557812 
L 693.73625 309.557812 
Q 695.33625 309.557812 695.33625 307.957812 
L 695.33625 285.272812 
Q 695.33625 283.672812 693.73625 283.672812 
L 622.95 283.672812 
Q 621.35 283.672812 621.35 285.272812 
L 621.35 307.957812 
Q 621.35 309.557812 622.95 309.557812 
z
" style="fill: #ffffff; opacity: 0.8; stroke: #cccccc; stroke-linejoin: miter"/>
    </g>
    <g id="line2d_17">
     <path d="M 624.55 290.151562 
L 632.55 290.151562 
L 640.55 290.151562 
" style="fill: none; stroke-dasharray: 9.25,4; stroke-dashoffset: 0; stroke: #95a5a6; stroke-width: 2.5"/>
    </g>
    <g id="text_19">
     <!-- Entropy -->
     <g transform="translate(646.95 292.951562) scale(0.08 -0.08)">
      <use xlink:href="#DejaVuSans-45"/>
      <use xlink:href="#DejaVuSans-6e" transform="translate(63.183594 0)"/>
      <use xlink:href="#DejaVuSans-74" transform="translate(126.5625 0)"/>
      <use xlink:href="#DejaVuSans-72" transform="translate(165.771484 0)"/>
      <use xlink:href="#DejaVuSans-6f" transform="translate(204.634766 0)"/>
      <use xlink:href="#DejaVuSans-70" transform="translate(265.816406 0)"/>
      <use xlink:href="#DejaVuSans-79" transform="translate(329.292969 0)"/>
     </g>
    </g>
    <g id="line2d_18">
     <path d="M 624.55 301.894062 
L 632.55 301.894062 
L 640.55 301.894062 
" style="fill: none; stroke: #9b59b6; stroke-width: 2.5; stroke-linecap: square"/>
    </g>
    <g id="text_20">
     <!-- Complexity -->
     <g transform="translate(646.95 304.694062) scale(0.08 -0.08)">
      <use xlink:href="#DejaVuSans-43"/>
      <use xlink:href="#DejaVuSans-6f" transform="translate(69.824219 0)"/>
      <use xlink:href="#DejaVuSans-6d" transform="translate(131.005859 0)"/>
      <use xlink:href="#DejaVuSans-70" transform="translate(228.417969 0)"/>
      <use xlink:href="#DejaVuSans-6c" transform="translate(291.894531 0)"/>
      <use xlink:href="#DejaVuSans-65" transform="translate(319.677734 0)"/>
      <use xlink:href="#DejaVuSans-78" transform="translate(379.451172 0)"/>
      <use xlink:href="#DejaVuSans-69" transform="translate(438.630859 0)"/>
      <use xlink:href="#DejaVuSans-74" transform="translate(466.414062 0)"/>
      <use xlink:href="#DejaVuSans-79" transform="translate(505.623047 0)"/>
     </g>
    </g>
   </g>
  </g>
 </g>
 <defs>
  <clipPath id="paf9dfba11e">
   <rect x="36.17625" y="32.837812" width="663.16" height="280.72"/>
  </clipPath>
 </defs>
</svg>
