<?xml version="1.0" encoding="utf-8" standalone="no"?>
<!DOCTYPE svg PUBLIC "-//W3C//DTD SVG 1.1//EN"
  "http://www.w3.org/Graphics/SVG/1.1/DTD/svg11.dtd">
<svg xmlns:xlink="http://www.w3.org/1999/xlink" width="712.89875pt" height="425.049687pt" viewBox="0 0 712.89875 425.049687" xmlns="http://www.w3.org/2000/svg" version="1.1">
 <metadata>
  <rdf:RDF xmlns:dc="http://purl.org/dc/elements/1.1/" xmlns:cc="http://creativecommons.org/ns#" xmlns:rdf="http://www.w3.org/1999/02/22-rdf-syntax-ns#">
   <cc:Work>
    <dc:type rdf:resource="http://purl.org/dc/dcmitype/StillImage"/>
    <dc:date>2026-01-02T18:44:38.874423</dc:date>
    <dc:format>image/svg+xml</dc:format>
    <dc:creator>
     <cc:Agent>
      <dc:title>Matplotlib v3.10.8, https://matplotlib.org/</dc:title>
     </cc:Agent>
    </dc:creator>
   </cc:Work>
  </rdf:RDF>
 </metadata>
 <defs>
  <style type="text/css">*{stroke-linejoin: round; stroke-linecap: butt}</style>
 </defs>
 <g id="figure_1">
  <g id="patch_1">
   <path d="M 0 425.049687 
L 712.89875 425.049687 
L 712.89875 0 
L 0 0 
z
" style="fill: #ffffff"/>
  </g>
  <g id="axes_1">
   <g id="patch_2">
    <path d="M 36.17625 385.557812 
L 699.33625 385.557812 
L 699.33625 32.837812 
L 36.17625 32.837812 
z
" style="fill: #ffffff"/>
   </g>
   <g id="FillBetweenPolyCollection_1">
    <defs>
     <path id="mc8ca67ca42" d="M 36.17625 -39.491875 
L 36.17625 -39.491875 
L 42.874836 -39.491875 
L 49.573422 -39.491875 
L 56.272008 -39.491875 
L 62.970593 -39.491875 
L 69.669179 -39.491875 
L 76.367765 -39.491875 
L 83.066351 -39.491875 
L 89.764937 -39.491875 
L 96.463523 -39.491875 
L 103.162109 -39.491875 
L 109.860694 -39.491875 
L 116.55928 -39.491875 
L 123.257866 -39.491875 
L 129.956452 -39.491875 
L 136.655038 -39.491875 
L 143.353624 -39.491875 
L 150.05221 -39.491875 
L 156.750795 -39.491875 
L 163.449381 -39.491875 
L 170.147967 -39.491875 
L 176.846553 -39.491875 
L 183.545139 -39.491875 
L 190.243725 -39.491875 
L 196.942311 -39.491875 
L 203.640896 -39.491875 
L 210.339482 -39.491875 
L 217.038068 -39.491875 
L 223.736654 -39.491875 
L 230.43524 -39.491875 
L 237.133826 -39.491875 
L 243.832412 -39.491875 
L 250.530997 -39.491875 
L 257.229583 -39.491875 
L 263.928169 -39.491875 
L 270.626755 -39.491875 
L 277.325341 -39.491875 
L 284.023927 -39.491875 
L 290.722513 -39.491875 
L 297.421098 -39.491875 
L 304.119684 -39.491875 
L 310.81827 -39.491875 
L 317.516856 -39.491875 
L 324.215442 -39.491875 
L 330.914028 -39.491875 
L 337.612614 -39.491875 
L 344.311199 -39.491875 
L 351.009785 -39.491875 
L 357.708371 -39.491875 
L 364.406957 -39.491875 
L 371.105543 -39.491875 
L 377.804129 -39.491875 
L 384.502715 -39.491875 
L 391.201301 -39.491875 
L 397.899886 -39.491875 
L 404.598472 -39.491875 
L 411.297058 -39.491875 
L 417.995644 -39.491875 
L 424.69423 -39.491875 
L 431.392816 -39.491875 
L 438.091402 -39.491875 
L 444.789987 -39.491875 
L 451.488573 -39.491875 
L 458.187159 -39.491875 
L 464.885745 -39.491875 
L 471.584331 -39.491875 
L 478.282917 -39.491875 
L 484.981503 -39.491875 
L 491.680088 -39.491875 
L 498.378674 -39.491875 
L 505.07726 -39.491875 
L 511.775846 -39.491875 
L 518.474432 -39.491875 
L 525.173018 -39.491875 
L 531.871604 -39.491875 
L 538.570189 -39.491875 
L 545.268775 -39.491875 
L 551.967361 -39.491875 
L 558.665947 -39.491875 
L 565.364533 -39.491875 
L 572.063119 -39.491875 
L 578.761705 -39.491875 
L 585.46029 -39.491875 
L 592.158876 -39.491875 
L 598.857462 -39.491875 
L 605.556048 -39.491875 
L 612.254634 -39.491875 
L 618.95322 -39.491875 
L 625.651806 -39.491875 
L 632.350391 -39.491875 
L 639.048977 -39.491875 
L 645.747563 -39.491875 
L 652.446149 -39.491875 
L 659.144735 -39.491875 
L 665.843321 -39.491875 
L 672.541907 -39.491875 
L 679.240492 -39.491875 
L 685.939078 -39.491875 
L 692.637664 -39.491875 
L 699.33625 -39.491875 
L 699.33625 -39.491875 
L 699.33625 -39.491875 
L 692.637664 -45.1924 
L 685.939078 -50.892926 
L 679.240492 -56.593451 
L 672.541907 -62.293976 
L 665.843321 -67.994501 
L 659.144735 -73.695027 
L 652.446149 -79.395552 
L 645.747563 -85.096077 
L 639.048977 -90.796602 
L 632.350391 -96.497128 
L 625.651806 -102.197653 
L 618.95322 -107.898178 
L 612.254634 -113.598703 
L 605.556048 -119.299229 
L 598.857462 -124.999754 
L 592.158876 -130.700279 
L 585.46029 -136.400804 
L 578.761705 -142.10133 
L 572.063119 -147.801855 
L 565.364533 -153.50238 
L 558.665947 -159.202905 
L 551.967361 -164.903431 
L 545.268775 -170.603956 
L 538.570189 -176.304481 
L 531.871604 -182.005006 
L 525.173018 -187.705532 
L 518.474432 -193.406057 
L 511.775846 -199.106582 
L 505.07726 -204.807107 
L 498.378674 -210.507633 
L 491.680088 -216.208158 
L 484.981503 -221.908683 
L 478.282917 -227.609208 
L 471.584331 -233.309734 
L 464.885745 -239.010259 
L 458.187159 -244.710784 
L 451.488573 -250.411309 
L 444.789987 -256.111835 
L 438.091402 -261.81236 
L 431.392816 -267.512885 
L 424.69423 -273.21341 
L 417.995644 -278.913936 
L 411.297058 -284.614461 
L 404.598472 -290.314986 
L 397.899886 -296.015511 
L 391.201301 -301.716037 
L 384.502715 -307.416562 
L 377.804129 -313.117087 
L 371.105543 -318.817612 
L 364.406957 -318.817612 
L 357.708371 -313.117087 
L 351.009785 -307.416562 
L 344.311199 -301.716037 
L 337.612614 -296.015511 
L 330.914028 -290.314986 
L 324.215442 -284.614461 
L 317.516856 -278.913936 
L 310.81827 -273.21341 
L 304.119684 -267.512885 
L 297.421098 -261.81236 
L 290.722513 -256.111835 
L 284.023927 -250.411309 
L 277.325341 -244.710784 
L 270.626755 -239.010259 
L 263.928169 -233.309734 
L 257.229583 -227.609208 
L 250.530997 -221.908683 
L 243.832412 -216.208158 
L 237.133826 -210.507633 
L 230.43524 -204.807107 
L 223.736654 -199.106582 
L 217.038068 -193.406057 
L 210.339482 -187.705532 
L 203.640896 -182.005006 
L 196.942311 -176.304481 
L 190.243725 -170.603956 
L 183.545139 -164.903431 
L 176.846553 -159.202905 
L 170.147967 -153.50238 
L 163.449381 -147.801855 
L 156.750795 -142.10133 
L 150.05221 -136.400804 
L 143.353624 -130.700279 
L 136.655038 -124.999754 
L 129.956452 -119.299229 
L 123.257866 -113.598703 
L 116.55928 -107.898178 
L 109.860694 -102.197653 
L 103.162109 -96.497128 
L 96.463523 -90.796602 
L 89.764937 -85.096077 
L 83.066351 -79.395552 
L 76.367765 -73.695027 
L 69.669179 -67.994501 
L 62.970593 -62.293976 
L 56.272008 -56.593451 
L 49.573422 -50.892926 
L 42.874836 -45.1924 
L 36.17625 -39.491875 
z
" style="stroke: #2ecc71; stroke-opacity: 0.2"/>
    </defs>
    <g clip-path="url(#p31f1fa2a00)">
     <use xlink:href="#mc8ca67ca42" x="0" y="425.049687" style="fill: #2ecc71; fill-opacity: 0.2; stroke: #2ecc71; stroke-opacity: 0.2"/>
    </g>
   </g>
   <g id="matplotlib.axis_1">
    <g id="xtick_1">
     <g id="line2d_1">
      <defs>
       <path id="m382dbe5048" d="M 0 0 
L 0 3.5 
" style="stroke: #000000; stroke-width: 0.8"/>
      </defs>
      <g>
       <use xlink:href="#m382dbe5048" x="36.17625" y="385.557812" style="stroke: #000000; stroke-width: 0.8"/>
      </g>
     </g>
     <g id="text_1">
      <!-- 0 -->
      <g transform="translate(32.995 400.15625) scale(0.1 -0.1)">
       <defs>
        <path id="DejaVuSans-30" d="M 2034 4250 
Q 1547 4250 1301 3770 
Q 1056 3291 1056 2328 
Q 1056 1369 1301 889 
Q 1547 409 2034 409 
Q 2525 409 2770 889 
Q 3016 1369 3016 2328 
Q 3016 3291 2770 3770 
Q 2525 4250 2034 4250 
z
M 2034 4750 
Q 2819 4750 3233 4129 
Q 3647 3509 3647 2328 
Q 3647 1150 3233 529 
Q 2819 -91 2034 -91 
Q 1250 -91 836 529 
Q 422 1150 422 2328 
Q 422 3509 836 4129 
Q 1250 4750 2034 4750 
z
" transform="scale(0.015625)"/>
       </defs>
       <use xlink:href="#DejaVuSans-30"/>
      </g>
     </g>
    </g>
    <g id="xtick_2">
     <g id="line2d_2">
      <g>
       <use xlink:href="#m382dbe5048" x="168.80825" y="385.557812" style="stroke: #000000; stroke-width: 0.8"/>
      </g>
     </g>
     <g id="text_2">
      <!-- 2 -->
      <g transform="translate(165.627 400.15625) scale(0.1 -0.1)">
       <defs>
        <path id="DejaVuSans-32" d="M 1228 531 
L 3431 531 
L 3431 0 
L 469 0 
L 469 531 
Q 828 903 1448 1529 
Q 2069 2156 2228 2338 
Q 2531 2678 2651 2914 
Q 2772 3150 2772 3378 
Q 2772 3750 2511 3984 
Q 2250 4219 1831 4219 
Q 1534 4219 1204 4116 
Q 875 4013 500 3803 
L 500 4441 
Q 881 4594 1212 4672 
Q 1544 4750 1819 4750 
Q 2544 4750 2975 4387 
Q 3406 4025 3406 3419 
Q 3406 3131 3298 2873 
Q 3191 2616 2906 2266 
Q 2828 2175 2409 1742 
Q 1991 1309 1228 531 
z
" transform="scale(0.015625)"/>
       </defs>
       <use xlink:href="#DejaVuSans-32"/>
      </g>
     </g>
    </g>
    <g id="xtick_3">
     <g id="line2d_3">
      <g>
       <use xlink:href="#m382dbe5048" x="301.44025" y="385.557812" style="stroke: #000000; stroke-width: 0.8"/>
      </g>
     </g>
     <g id="text_3">
      <!-- 4 -->
      <g transform="translate(298.259 400.15625) scale(0.1 -0.1)">
       <defs>
        <path id="DejaVuSans-34" d="M 2419 4116 
L 825 1625 
L 2419 1625 
L 2419 4116 
z
M 2253 4666 
L 3047 4666 
L 3047 1625 
L 3713 1625 
L 3713 1100 
L 3047 1100 
L 3047 0 
L 2419 0 
L 2419 1100 
L 313 1100 
L 313 1709 
L 2253 4666 
z
" transform="scale(0.015625)"/>
       </defs>
       <use xlink:href="#DejaVuSans-34"/>
      </g>
     </g>
    </g>
    <g id="xtick_4">
     <g id="line2d_4">
      <g>
       <use xlink:href="#m382dbe5048" x="434.07225" y="385.557812" style="stroke: #000000; stroke-width: 0.8"/>
      </g>
     </g>
     <g id="text_4">
      <!-- 6 -->
      <g transform="translate(430.891 400.15625) scale(0.1 -0.1)">
       <defs>
        <path id="DejaVuSans-36" d="M 2113 2584 
Q 1688 2584 1439 2293 
Q 1191 2003 1191 1497 
Q 1191 994 1439 701 
Q 1688 409 2113 409 
Q 2538 409 2786 701 
Q 3034 994 3034 1497 
Q 3034 2003 2786 2293 
Q 2538 2584 2113 2584 
z
M 3366 4563 
L 3366 3988 
Q 3128 4100 2886 4159 
Q 2644 4219 2406 4219 
Q 1781 4219 1451 3797 
Q 1122 3375 1075 2522 
Q 1259 2794 1537 2939 
Q 1816 3084 2150 3084 
Q 2853 3084 3261 2657 
Q 3669 2231 3669 1497 
Q 3669 778 3244 343 
Q 2819 -91 2113 -91 
Q 1303 -91 875 529 
Q 447 1150 447 2328 
Q 447 3434 972 4092 
Q 1497 4750 2381 4750 
Q 2619 4750 2861 4703 
Q 3103 4656 3366 4563 
z
" transform="scale(0.015625)"/>
       </defs>
       <use xlink:href="#DejaVuSans-36"/>
      </g>
     </g>
    </g>
    <g id="xtick_5">
     <g id="line2d_5">
      <g>
       <use xlink:href="#m382dbe5048" x="566.70425" y="385.557812" style="stroke: #000000; stroke-width: 0.8"/>
      </g>
     </g>
     <g id="text_5">
      <!-- 8 -->
      <g transform="translate(563.523 400.15625) scale(0.1 -0.1)">
       <defs>
        <path id="DejaVuSans-38" d="M 2034 2216 
Q 1584 2216 1326 1975 
Q 1069 1734 1069 1313 
Q 1069 891 1326 650 
Q 1584 409 2034 409 
Q 2484 409 2743 651 
Q 3003 894 3003 1313 
Q 3003 1734 2745 1975 
Q 2488 2216 2034 2216 
z
M 1403 2484 
Q 997 2584 770 2862 
Q 544 3141 544 3541 
Q 544 4100 942 4425 
Q 1341 4750 2034 4750 
Q 2731 4750 3128 4425 
Q 3525 4100 3525 3541 
Q 3525 3141 3298 2862 
Q 3072 2584 2669 2484 
Q 3125 2378 3379 2068 
Q 3634 1759 3634 1313 
Q 3634 634 3220 271 
Q 2806 -91 2034 -91 
Q 1263 -91 848 271 
Q 434 634 434 1313 
Q 434 1759 690 2068 
Q 947 2378 1403 2484 
z
M 1172 3481 
Q 1172 3119 1398 2916 
Q 1625 2713 2034 2713 
Q 2441 2713 2670 2916 
Q 2900 3119 2900 3481 
Q 2900 3844 2670 4047 
Q 2441 4250 2034 4250 
Q 1625 4250 1398 4047 
Q 1172 3844 1172 3481 
z
" transform="scale(0.015625)"/>
       </defs>
       <use xlink:href="#DejaVuSans-38"/>
      </g>
     </g>
    </g>
    <g id="xtick_6">
     <g id="line2d_6">
      <g>
       <use xlink:href="#m382dbe5048" x="699.33625" y="385.557812" style="stroke: #000000; stroke-width: 0.8"/>
      </g>
     </g>
     <g id="text_6">
      <!-- 10 -->
      <g transform="translate(692.97375 400.15625) scale(0.1 -0.1)">
       <defs>
        <path id="DejaVuSans-31" d="M 794 531 
L 1825 531 
L 1825 4091 
L 703 3866 
L 703 4441 
L 1819 4666 
L 2450 4666 
L 2450 531 
L 3481 531 
L 3481 0 
L 794 0 
L 794 531 
z
" transform="scale(0.015625)"/>
       </defs>
       <use xlink:href="#DejaVuSans-31"/>
       <use xlink:href="#DejaVuSans-30" transform="translate(63.623047 0)"/>
      </g>
     </g>
    </g>
    <g id="text_7">
     <!-- Time -->
     <g transform="translate(353.075938 415.354062) scale(0.12 -0.12)">
      <defs>
       <path id="DejaVuSans-54" d="M -19 4666 
L 3928 4666 
L 3928 4134 
L 2272 4134 
L 2272 0 
L 1638 0 
L 1638 4134 
L -19 4134 
L -19 4666 
z
" transform="scale(0.015625)"/>
       <path id="DejaVuSans-69" d="M 603 3500 
L 1178 3500 
L 1178 0 
L 603 0 
L 603 3500 
z
M 603 4863 
L 1178 4863 
L 1178 4134 
L 603 4134 
L 603 4863 
z
" transform="scale(0.015625)"/>
       <path id="DejaVuSans-6d" d="M 3328 2828 
Q 3544 3216 3844 3400 
Q 4144 3584 4550 3584 
Q 5097 3584 5394 3201 
Q 5691 2819 5691 2113 
L 5691 0 
L 5113 0 
L 5113 2094 
Q 5113 2597 4934 2840 
Q 4756 3084 4391 3084 
Q 3944 3084 3684 2787 
Q 3425 2491 3425 1978 
L 3425 0 
L 2847 0 
L 2847 2094 
Q 2847 2600 2669 2842 
Q 2491 3084 2119 3084 
Q 1678 3084 1418 2786 
Q 1159 2488 1159 1978 
L 1159 0 
L 581 0 
L 581 3500 
L 1159 3500 
L 1159 2956 
Q 1356 3278 1631 3431 
Q 1906 3584 2284 3584 
Q 2666 3584 2933 3390 
Q 3200 3197 3328 2828 
z
" transform="scale(0.015625)"/>
       <path id="DejaVuSans-65" d="M 3597 1894 
L 3597 1613 
L 953 1613 
Q 991 1019 1311 708 
Q 1631 397 2203 397 
Q 2534 397 2845 478 
Q 3156 559 3463 722 
L 3463 178 
Q 3153 47 2828 -22 
Q 2503 -91 2169 -91 
Q 1331 -91 842 396 
Q 353 884 353 1716 
Q 353 2575 817 3079 
Q 1281 3584 2069 3584 
Q 2775 3584 3186 3129 
Q 3597 2675 3597 1894 
z
M 3022 2063 
Q 3016 2534 2758 2815 
Q 2500 3097 2075 3097 
Q 1594 3097 1305 2825 
Q 1016 2553 972 2059 
L 3022 2063 
z
" transform="scale(0.015625)"/>
      </defs>
      <use xlink:href="#DejaVuSans-54"/>
      <use xlink:href="#DejaVuSans-69" transform="translate(57.958984 0)"/>
      <use xlink:href="#DejaVuSans-6d" transform="translate(85.742188 0)"/>
      <use xlink:href="#DejaVuSans-65" transform="translate(183.154297 0)"/>
     </g>
    </g>
   </g>
   <g id="matplotlib.axis_2">
    <g id="ytick_1">
     <g id="line2d_7">
      <defs>
       <path id="m7b991adb5e" d="M 0 0 
L -3.5 0 
" style="stroke: #000000; stroke-width: 0.8"/>
      </defs>
      <g>
       <use xlink:href="#m7b991adb5e" x="36.17625" y="385.557812" style="stroke: #000000; stroke-width: 0.8"/>
      </g>
     </g>
     <g id="text_8">
      <!-- 0 -->
      <g transform="translate(22.81375 389.357031) scale(0.1 -0.1)">
       <use xlink:href="#DejaVuSans-30"/>
      </g>
     </g>
    </g>
    <g id="ytick_2">
     <g id="line2d_8">
      <g>
       <use xlink:href="#m7b991adb5e" x="36.17625" y="315.013812" style="stroke: #000000; stroke-width: 0.8"/>
      </g>
     </g>
     <g id="text_9">
      <!-- 1 -->
      <g transform="translate(22.81375 318.813031) scale(0.1 -0.1)">
       <use xlink:href="#DejaVuSans-31"/>
      </g>
     </g>
    </g>
    <g id="ytick_3">
     <g id="line2d_9">
      <g>
       <use xlink:href="#m7b991adb5e" x="36.17625" y="244.469812" style="stroke: #000000; stroke-width: 0.8"/>
      </g>
     </g>
     <g id="text_10">
      <!-- 2 -->
      <g transform="translate(22.81375 248.269031) scale(0.1 -0.1)">
       <use xlink:href="#DejaVuSans-32"/>
      </g>
     </g>
    </g>
    <g id="ytick_4">
     <g id="line2d_10">
      <g>
       <use xlink:href="#m7b991adb5e" x="36.17625" y="173.925812" style="stroke: #000000; stroke-width: 0.8"/>
      </g>
     </g>
     <g id="text_11">
      <!-- 3 -->
      <g transform="translate(22.81375 177.725031) scale(0.1 -0.1)">
       <defs>
        <path id="DejaVuSans-33" d="M 2597 2516 
Q 3050 2419 3304 2112 
Q 3559 1806 3559 1356 
Q 3559 666 3084 287 
Q 2609 -91 1734 -91 
Q 1441 -91 1130 -33 
Q 819 25 488 141 
L 488 750 
Q 750 597 1062 519 
Q 1375 441 1716 441 
Q 2309 441 2620 675 
Q 2931 909 2931 1356 
Q 2931 1769 2642 2001 
Q 2353 2234 1838 2234 
L 1294 2234 
L 1294 2753 
L 1863 2753 
Q 2328 2753 2575 2939 
Q 2822 3125 2822 3475 
Q 2822 3834 2567 4026 
Q 2313 4219 1838 4219 
Q 1578 4219 1281 4162 
Q 984 4106 628 3988 
L 628 4550 
Q 988 4650 1302 4700 
Q 1616 4750 1894 4750 
Q 2613 4750 3031 4423 
Q 3450 4097 3450 3541 
Q 3450 3153 3228 2886 
Q 3006 2619 2597 2516 
z
" transform="scale(0.015625)"/>
       </defs>
       <use xlink:href="#DejaVuSans-33"/>
      </g>
     </g>
    </g>
    <g id="ytick_5">
     <g id="line2d_11">
      <g>
       <use xlink:href="#m7b991adb5e" x="36.17625" y="103.381812" style="stroke: #000000; stroke-width: 0.8"/>
      </g>
     </g>
     <g id="text_12">
      <!-- 4 -->
      <g transform="translate(22.81375 107.181031) scale(0.1 -0.1)">
       <use xlink:href="#DejaVuSans-34"/>
      </g>
     </g>
    </g>
    <g id="ytick_6">
     <g id="line2d_12">
      <g>
       <use xlink:href="#m7b991adb5e" x="36.17625" y="32.837812" style="stroke: #000000; stroke-width: 0.8"/>
      </g>
     </g>
     <g id="text_13">
      <!-- 5 -->
      <g transform="translate(22.81375 36.637031) scale(0.1 -0.1)">
       <defs>
        <path id="DejaVuSans-35" d="M 691 4666 
L 3169 4666 
L 3169 4134 
L 1269 4134 
L 1269 2991 
Q 1406 3038 1543 3061 
Q 1681 3084 1819 3084 
Q 2600 3084 3056 2656 
Q 3513 2228 3513 1497 
Q 3513 744 3044 326 
Q 2575 -91 1722 -91 
Q 1428 -91 1123 -41 
Q 819 9 494 109 
L 494 744 
Q 775 591 1075 516 
Q 1375 441 1709 441 
Q 2250 441 2565 725 
Q 2881 1009 2881 1497 
Q 2881 1984 2565 2268 
Q 2250 2553 1709 2553 
Q 1456 2553 1204 2497 
Q 953 2441 691 2322 
L 691 4666 
z
" transform="scale(0.015625)"/>
       </defs>
       <use xlink:href="#DejaVuSans-35"/>
      </g>
     </g>
    </g>
    <g id="text_14">
     <!-- Entropy -->
     <g transform="translate(16.318125 232.506875) rotate(-90) scale(0.12 -0.12)">
      <defs>
       <path id="DejaVuSans-45" d="M 628 4666 
L 3578 4666 
L 3578 4134 
L 1259 4134 
L 1259 2753 
L 3481 2753 
L 3481 2222 
L 1259 2222 
L 1259 531 
L 3634 531 
L 3634 0 
L 628 0 
L 628 4666 
z
" transform="scale(0.015625)"/>
       <path id="DejaVuSans-6e" d="M 3513 2113 
L 3513 0 
L 2938 0 
L 2938 2094 
Q 2938 2591 2744 2837 
Q 2550 3084 2163 3084 
Q 1697 3084 1428 2787 
Q 1159 2491 1159 1978 
L 1159 0 
L 581 0 
L 581 3500 
L 1159 3500 
L 1159 2956 
Q 1366 3272 1645 3428 
Q 1925 3584 2291 3584 
Q 2894 3584 3203 3211 
Q 3513 2838 3513 2113 
z
" transform="scale(0.015625)"/>
       <path id="DejaVuSans-74" d="M 1172 4494 
L 1172 3500 
L 2356 3500 
L 2356 3053 
L 1172 3053 
L 1172 1153 
Q 1172 725 1289 603 
Q 1406 481 1766 481 
L 2356 481 
L 2356 0 
L 1766 0 
Q 1100 0 847 248 
Q 594 497 594 1153 
L 594 3053 
L 172 3053 
L 172 3500 
L 594 3500 
L 594 4494 
L 1172 4494 
z
" transform="scale(0.015625)"/>
       <path id="DejaVuSans-72" d="M 2631 2963 
Q 2534 3019 2420 3045 
Q 2306 3072 2169 3072 
Q 1681 3072 1420 2755 
Q 1159 2438 1159 1844 
L 1159 0 
L 581 0 
L 581 3500 
L 1159 3500 
L 1159 2956 
Q 1341 3275 1631 3429 
Q 1922 3584 2338 3584 
Q 2397 3584 2469 3576 
Q 2541 3569 2628 3553 
L 2631 2963 
z
" transform="scale(0.015625)"/>
       <path id="DejaVuSans-6f" d="M 1959 3097 
Q 1497 3097 1228 2736 
Q 959 2375 959 1747 
Q 959 1119 1226 758 
Q 1494 397 1959 397 
Q 2419 397 2687 759 
Q 2956 1122 2956 1747 
Q 2956 2369 2687 2733 
Q 2419 3097 1959 3097 
z
M 1959 3584 
Q 2709 3584 3137 3096 
Q 3566 2609 3566 1747 
Q 3566 888 3137 398 
Q 2709 -91 1959 -91 
Q 1206 -91 779 398 
Q 353 888 353 1747 
Q 353 2609 779 3096 
Q 1206 3584 1959 3584 
z
" transform="scale(0.015625)"/>
       <path id="DejaVuSans-70" d="M 1159 525 
L 1159 -1331 
L 581 -1331 
L 581 3500 
L 1159 3500 
L 1159 2969 
Q 1341 3281 1617 3432 
Q 1894 3584 2278 3584 
Q 2916 3584 3314 3078 
Q 3713 2572 3713 1747 
Q 3713 922 3314 415 
Q 2916 -91 2278 -91 
Q 1894 -91 1617 61 
Q 1341 213 1159 525 
z
M 3116 1747 
Q 3116 2381 2855 2742 
Q 2594 3103 2138 3103 
Q 1681 3103 1420 2742 
Q 1159 2381 1159 1747 
Q 1159 1113 1420 752 
Q 1681 391 2138 391 
Q 2594 391 2855 752 
Q 3116 1113 3116 1747 
z
" transform="scale(0.015625)"/>
       <path id="DejaVuSans-79" d="M 2059 -325 
Q 1816 -950 1584 -1140 
Q 1353 -1331 966 -1331 
L 506 -1331 
L 506 -850 
L 844 -850 
Q 1081 -850 1212 -737 
Q 1344 -625 1503 -206 
L 1606 56 
L 191 3500 
L 800 3500 
L 1894 763 
L 2988 3500 
L 3597 3500 
L 2059 -325 
z
" transform="scale(0.015625)"/>
      </defs>
      <use xlink:href="#DejaVuSans-45"/>
      <use xlink:href="#DejaVuSans-6e" transform="translate(63.183594 0)"/>
      <use xlink:href="#DejaVuSans-74" transform="translate(126.5625 0)"/>
      <use xlink:href="#DejaVuSans-72" transform="translate(165.771484 0)"/>
      <use xlink:href="#DejaVuSans-6f" transform="translate(204.634766 0)"/>
      <use xlink:href="#DejaVuSans-70" transform="translate(265.816406 0)"/>
      <use xlink:href="#DejaVuSans-79" transform="translate(329.292969 0)"/>
     </g>
    </g>
   </g>
   <g id="line2d_13">
    <path d="M 36.17625 385.557812 
L 42.874836 379.857287 
L 49.573422 374.156762 
L 56.272008 368.456237 
L 62.970593 362.755711 
L 69.669179 357.055186 
L 76.367765 351.354661 
L 83.066351 345.654136 
L 89.764937 339.95361 
L 96.463523 334.253085 
L 103.162109 328.55256 
L 109.860694 322.852035 
L 116.55928 317.151509 
L 123.257866 311.450984 
L 129.956452 305.750459 
L 136.655038 300.049934 
L 143.353624 294.349408 
L 150.05221 288.648883 
L 156.750795 282.948358 
L 163.449381 277.247833 
L 170.147967 271.547307 
L 176.846553 265.846782 
L 183.545139 260.146257 
L 190.243725 254.445732 
L 196.942311 248.745206 
L 203.640896 243.044681 
L 210.339482 237.344156 
L 217.038068 231.643631 
L 223.736654 225.943105 
L 230.43524 220.24258 
L 237.133826 214.542055 
L 243.832412 208.84153 
L 250.530997 203.141004 
L 257.229583 197.440479 
L 263.928169 191.739954 
L 270.626755 186.039429 
L 277.325341 180.338903 
L 284.023927 174.638378 
L 290.722513 168.937853 
L 297.421098 163.237328 
L 304.119684 157.536802 
L 310.81827 151.836277 
L 317.516856 146.135752 
L 324.215442 140.435227 
L 330.914028 134.734701 
L 337.612614 129.034176 
L 344.311199 123.333651 
L 351.009785 117.633126 
L 357.708371 111.9326 
L 364.406957 106.232075 
L 371.105543 106.232075 
L 377.804129 111.9326 
L 384.502715 117.633126 
L 391.201301 123.333651 
L 397.899886 129.034176 
L 404.598472 134.734701 
L 411.297058 140.435227 
L 417.995644 146.135752 
L 424.69423 151.836277 
L 431.392816 157.536802 
L 438.091402 163.237328 
L 444.789987 168.937853 
L 451.488573 174.638378 
L 458.187159 180.338903 
L 464.885745 186.039429 
L 471.584331 191.739954 
L 478.282917 197.440479 
L 484.981503 203.141004 
L 491.680088 208.84153 
L 498.378674 214.542055 
L 505.07726 220.24258 
L 511.775846 225.943105 
L 518.474432 231.643631 
L 525.173018 237.344156 
L 531.871604 243.044681 
L 538.570189 248.745206 
L 545.268775 254.445732 
L 551.967361 260.146257 
L 558.665947 265.846782 
L 565.364533 271.547307 
L 572.063119 277.247833 
L 578.761705 282.948358 
L 585.46029 288.648883 
L 592.158876 294.349408 
L 598.857462 300.049934 
L 605.556048 305.750459 
L 612.254634 311.450984 
L 618.95322 317.151509 
L 625.651806 322.852035 
L 632.350391 328.55256 
L 639.048977 334.253085 
L 645.747563 339.95361 
L 652.446149 345.654136 
L 659.144735 351.354661 
L 665.843321 357.055186 
L 672.541907 362.755711 
L 679.240492 368.456237 
L 685.939078 374.156762 
L 692.637664 379.857287 
L 699.33625 385.557812 
" clip-path="url(#p31f1fa2a00)" style="fill: none; stroke: #2ecc71; stroke-width: 3; stroke-linecap: square"/>
   </g>
   <g id="line2d_14">
    <path d="M 367.75625 385.557812 
L 367.75625 32.837812 
" clip-path="url(#p31f1fa2a00)" style="fill: none; stroke-dasharray: 7.4,3.2; stroke-dashoffset: 0; stroke: #9b59b6; stroke-width: 2"/>
   </g>
   <g id="line2d_15">
    <defs>
     <path id="m972b0a8c60" d="M 0 6 
C 1.591219 6 3.117479 5.367802 4.242641 4.242641 
C 5.367802 3.117479 6 1.591219 6 0 
C 6 -1.591219 5.367802 -3.117479 4.242641 -4.242641 
C 3.117479 -5.367802 1.591219 -6 0 -6 
C -1.591219 -6 -3.117479 -5.367802 -4.242641 -4.242641 
C -5.367802 -3.117479 -6 -1.591219 -6 0 
C -6 1.591219 -5.367802 3.117479 -4.242641 4.242641 
C -3.117479 5.367802 -1.591219 6 0 6 
z
" style="stroke: #e74c3c"/>
    </defs>
    <g clip-path="url(#p31f1fa2a00)">
     <use xlink:href="#m972b0a8c60" x="36.17625" y="385.557812" style="fill: #e74c3c; stroke: #e74c3c"/>
    </g>
   </g>
   <g id="line2d_16">
    <g clip-path="url(#p31f1fa2a00)">
     <use xlink:href="#m972b0a8c60" x="699.33625" y="385.557812" style="fill: #e74c3c; stroke: #e74c3c"/>
    </g>
   </g>
   <g id="patch_3">
    <path d="M 36.17625 385.557812 
L 36.17625 32.837812 
" style="fill: none; stroke: #000000; stroke-width: 0.8; stroke-linejoin: miter; stroke-linecap: square"/>
   </g>
   <g id="patch_4">
    <path d="M 699.33625 385.557812 
L 699.33625 32.837812 
" style="fill: none; stroke: #000000; stroke-width: 0.8; stroke-linejoin: miter; stroke-linecap: square"/>
   </g>
   <g id="patch_5">
    <path d="M 36.17625 385.557812 
L 699.33625 385.557812 
" style="fill: none; stroke: #000000; stroke-width: 0.8; stroke-linejoin: miter; stroke-linecap: square"/>
   </g>
   <g id="patch_6">
    <path d="M 36.17625 32.837812 
L 699.33625 32.837812 
" style="fill: none; stroke: #000000; stroke-width: 0.8; stroke-linejoin: miter; stroke-linecap: square"/>
   </g>
   <g id="text_15">
    <!-- Page Time -->
    <g style="fill: #9b59b6" transform="translate(336.643438 82.218612) scale(0.12 -0.12)">
     <defs>
      <path id="DejaVuSans-50" d="M 1259 4147 
L 1259 2394 
L 2053 2394 
Q 2494 2394 2734 2622 
Q 2975 2850 2975 3272 
Q 2975 3691 2734 3919 
Q 2494 4147 2053 4147 
L 1259 4147 
z
M 628 4666 
L 2053 4666 
Q 2838 4666 3239 4311 
Q 3641 3956 3641 3272 
Q 3641 2581 3239 2228 
Q 2838 1875 2053 1875 
L 1259 1875 
L 1259 0 
L 628 0 
L 628 4666 
z
" transform="scale(0.015625)"/>
      <path id="DejaVuSans-61" d="M 2194 1759 
Q 1497 1759 1228 1600 
Q 959 1441 959 1056 
Q 959 750 1161 570 
Q 1363 391 1709 391 
Q 2188 391 2477 730 
Q 2766 1069 2766 1631 
L 2766 1759 
L 2194 1759 
z
M 3341 1997 
L 3341 0 
L 2766 0 
L 2766 531 
Q 2569 213 2275 61 
Q 1981 -91 1556 -91 
Q 1019 -91 701 211 
Q 384 513 384 1019 
Q 384 1609 779 1909 
Q 1175 2209 1959 2209 
L 2766 2209 
L 2766 2266 
Q 2766 2663 2505 2880 
Q 2244 3097 1772 3097 
Q 1472 3097 1187 3025 
Q 903 2953 641 2809 
L 641 3341 
Q 956 3463 1253 3523 
Q 1550 3584 1831 3584 
Q 2591 3584 2966 3190 
Q 3341 2797 3341 1997 
z
" transform="scale(0.015625)"/>
      <path id="DejaVuSans-67" d="M 2906 1791 
Q 2906 2416 2648 2759 
Q 2391 3103 1925 3103 
Q 1463 3103 1205 2759 
Q 947 2416 947 1791 
Q 947 1169 1205 825 
Q 1463 481 1925 481 
Q 2391 481 2648 825 
Q 2906 1169 2906 1791 
z
M 3481 434 
Q 3481 -459 3084 -895 
Q 2688 -1331 1869 -1331 
Q 1566 -1331 1297 -1286 
Q 1028 -1241 775 -1147 
L 775 -588 
Q 1028 -725 1275 -790 
Q 1522 -856 1778 -856 
Q 2344 -856 2625 -561 
Q 2906 -266 2906 331 
L 2906 616 
Q 2728 306 2450 153 
Q 2172 0 1784 0 
Q 1141 0 747 490 
Q 353 981 353 1791 
Q 353 2603 747 3093 
Q 1141 3584 1784 3584 
Q 2172 3584 2450 3431 
Q 2728 3278 2906 2969 
L 2906 3500 
L 3481 3500 
L 3481 434 
z
" transform="scale(0.015625)"/>
      <path id="DejaVuSans-20" transform="scale(0.015625)"/>
     </defs>
     <use xlink:href="#DejaVuSans-50"/>
     <use xlink:href="#DejaVuSans-61" transform="translate(55.802734 0)"/>
     <use xlink:href="#DejaVuSans-67" transform="translate(117.082031 0)"/>
     <use xlink:href="#DejaVuSans-65" transform="translate(180.558594 0)"/>
     <use xlink:href="#DejaVuSans-20" transform="translate(242.082031 0)"/>
     <use xlink:href="#DejaVuSans-54" transform="translate(273.869141 0)"/>
     <use xlink:href="#DejaVuSans-69" transform="translate(331.828125 0)"/>
     <use xlink:href="#DejaVuSans-6d" transform="translate(359.611328 0)"/>
     <use xlink:href="#DejaVuSans-65" transform="translate(457.023438 0)"/>
    </g>
   </g>
   <g id="text_16">
    <!-- Information -->
    <g transform="translate(178.811875 200.239562) scale(0.08 -0.08)">
     <defs>
      <path id="DejaVuSans-49" d="M 628 4666 
L 1259 4666 
L 1259 0 
L 628 0 
L 628 4666 
z
" transform="scale(0.015625)"/>
      <path id="DejaVuSans-66" d="M 2375 4863 
L 2375 4384 
L 1825 4384 
Q 1516 4384 1395 4259 
Q 1275 4134 1275 3809 
L 1275 3500 
L 2222 3500 
L 2222 3053 
L 1275 3053 
L 1275 0 
L 697 0 
L 697 3053 
L 147 3053 
L 147 3500 
L 697 3500 
L 697 3744 
Q 697 4328 969 4595 
Q 1241 4863 1831 4863 
L 2375 4863 
z
" transform="scale(0.015625)"/>
     </defs>
     <use xlink:href="#DejaVuSans-49"/>
     <use xlink:href="#DejaVuSans-6e" transform="translate(29.492188 0)"/>
     <use xlink:href="#DejaVuSans-66" transform="translate(92.871094 0)"/>
     <use xlink:href="#DejaVuSans-6f" transform="translate(128.076172 0)"/>
     <use xlink:href="#DejaVuSans-72" transform="translate(189.257812 0)"/>
     <use xlink:href="#DejaVuSans-6d" transform="translate(228.621094 0)"/>
     <use xlink:href="#DejaVuSans-61" transform="translate(326.033203 0)"/>
     <use xlink:href="#DejaVuSans-74" transform="translate(387.3125 0)"/>
     <use xlink:href="#DejaVuSans-69" transform="translate(426.521484 0)"/>
     <use xlink:href="#DejaVuSans-6f" transform="translate(454.304688 0)"/>
     <use xlink:href="#DejaVuSans-6e" transform="translate(515.486328 0)"/>
    </g>
    <!-- going in -->
    <g transform="translate(185.87625 209.197812) scale(0.08 -0.08)">
     <use xlink:href="#DejaVuSans-67"/>
     <use xlink:href="#DejaVuSans-6f" transform="translate(63.476562 0)"/>
     <use xlink:href="#DejaVuSans-69" transform="translate(124.658203 0)"/>
     <use xlink:href="#DejaVuSans-6e" transform="translate(152.441406 0)"/>
     <use xlink:href="#DejaVuSans-67" transform="translate(215.820312 0)"/>
     <use xlink:href="#DejaVuSans-20" transform="translate(279.296875 0)"/>
     <use xlink:href="#DejaVuSans-69" transform="translate(311.083984 0)"/>
     <use xlink:href="#DejaVuSans-6e" transform="translate(338.867188 0)"/>
    </g>
   </g>
   <g id="text_17">
    <!-- Information -->
    <g transform="translate(510.391875 200.239562) scale(0.08 -0.08)">
     <use xlink:href="#DejaVuSans-49"/>
     <use xlink:href="#DejaVuSans-6e" transform="translate(29.492188 0)"/>
     <use xlink:href="#DejaVuSans-66" transform="translate(92.871094 0)"/>
     <use xlink:href="#DejaVuSans-6f" transform="translate(128.076172 0)"/>
     <use xlink:href="#DejaVuSans-72" transform="translate(189.257812 0)"/>
     <use xlink:href="#DejaVuSans-6d" transform="translate(228.621094 0)"/>
     <use xlink:href="#DejaVuSans-61" transform="translate(326.033203 0)"/>
     <use xlink:href="#DejaVuSans-74" transform="translate(387.3125 0)"/>
     <use xlink:href="#DejaVuSans-69" transform="translate(426.521484 0)"/>
     <use xlink:href="#DejaVuSans-6f" transform="translate(454.304688 0)"/>
     <use xlink:href="#DejaVuSans-6e" transform="translate(515.486328 0)"/>
    </g>
    <!-- coming out -->
    <g transform="translate(510.995625 209.197812) scale(0.08 -0.08)">
     <defs>
      <path id="DejaVuSans-63" d="M 3122 3366 
L 3122 2828 
Q 2878 2963 2633 3030 
Q 2388 3097 2138 3097 
Q 1578 3097 1268 2742 
Q 959 2388 959 1747 
Q 959 1106 1268 751 
Q 1578 397 2138 397 
Q 2388 397 2633 464 
Q 2878 531 3122 666 
L 3122 134 
Q 2881 22 2623 -34 
Q 2366 -91 2075 -91 
Q 1284 -91 818 406 
Q 353 903 353 1747 
Q 353 2603 823 3093 
Q 1294 3584 2113 3584 
Q 2378 3584 2631 3529 
Q 2884 3475 3122 3366 
z
" transform="scale(0.015625)"/>
      <path id="DejaVuSans-75" d="M 544 1381 
L 544 3500 
L 1119 3500 
L 1119 1403 
Q 1119 906 1312 657 
Q 1506 409 1894 409 
Q 2359 409 2629 706 
Q 2900 1003 2900 1516 
L 2900 3500 
L 3475 3500 
L 3475 0 
L 2900 0 
L 2900 538 
Q 2691 219 2414 64 
Q 2138 -91 1772 -91 
Q 1169 -91 856 284 
Q 544 659 544 1381 
z
M 1991 3584 
L 1991 3584 
z
" transform="scale(0.015625)"/>
     </defs>
     <use xlink:href="#DejaVuSans-63"/>
     <use xlink:href="#DejaVuSans-6f" transform="translate(54.980469 0)"/>
     <use xlink:href="#DejaVuSans-6d" transform="translate(116.162109 0)"/>
     <use xlink:href="#DejaVuSans-69" transform="translate(213.574219 0)"/>
     <use xlink:href="#DejaVuSans-6e" transform="translate(241.357422 0)"/>
     <use xlink:href="#DejaVuSans-67" transform="translate(304.736328 0)"/>
     <use xlink:href="#DejaVuSans-20" transform="translate(368.212891 0)"/>
     <use xlink:href="#DejaVuSans-6f" transform="translate(400 0)"/>
     <use xlink:href="#DejaVuSans-75" transform="translate(461.181641 0)"/>
     <use xlink:href="#DejaVuSans-74" transform="translate(524.560547 0)"/>
    </g>
   </g>
   <g id="text_18">
    <!-- Pure state -->
    <g transform="translate(56.07105 364.394612) scale(0.08 -0.08)">
     <defs>
      <path id="DejaVuSans-73" d="M 2834 3397 
L 2834 2853 
Q 2591 2978 2328 3040 
Q 2066 3103 1784 3103 
Q 1356 3103 1142 2972 
Q 928 2841 928 2578 
Q 928 2378 1081 2264 
Q 1234 2150 1697 2047 
L 1894 2003 
Q 2506 1872 2764 1633 
Q 3022 1394 3022 966 
Q 3022 478 2636 193 
Q 2250 -91 1575 -91 
Q 1294 -91 989 -36 
Q 684 19 347 128 
L 347 722 
Q 666 556 975 473 
Q 1284 391 1588 391 
Q 1994 391 2212 530 
Q 2431 669 2431 922 
Q 2431 1156 2273 1281 
Q 2116 1406 1581 1522 
L 1381 1569 
Q 847 1681 609 1914 
Q 372 2147 372 2553 
Q 372 3047 722 3315 
Q 1072 3584 1716 3584 
Q 2034 3584 2315 3537 
Q 2597 3491 2834 3397 
z
" transform="scale(0.015625)"/>
     </defs>
     <use xlink:href="#DejaVuSans-50"/>
     <use xlink:href="#DejaVuSans-75" transform="translate(58.552734 0)"/>
     <use xlink:href="#DejaVuSans-72" transform="translate(121.931641 0)"/>
     <use xlink:href="#DejaVuSans-65" transform="translate(160.794922 0)"/>
     <use xlink:href="#DejaVuSans-20" transform="translate(222.318359 0)"/>
     <use xlink:href="#DejaVuSans-73" transform="translate(254.105469 0)"/>
     <use xlink:href="#DejaVuSans-74" transform="translate(306.205078 0)"/>
     <use xlink:href="#DejaVuSans-61" transform="translate(345.414062 0)"/>
     <use xlink:href="#DejaVuSans-74" transform="translate(406.693359 0)"/>
     <use xlink:href="#DejaVuSans-65" transform="translate(445.902344 0)"/>
    </g>
   </g>
   <g id="text_19">
    <!-- Pure state -->
    <g transform="translate(638.84895 364.394612) scale(0.08 -0.08)">
     <use xlink:href="#DejaVuSans-50"/>
     <use xlink:href="#DejaVuSans-75" transform="translate(58.552734 0)"/>
     <use xlink:href="#DejaVuSans-72" transform="translate(121.931641 0)"/>
     <use xlink:href="#DejaVuSans-65" transform="translate(160.794922 0)"/>
     <use xlink:href="#DejaVuSans-20" transform="translate(222.318359 0)"/>
     <use xlink:href="#DejaVuSans-73" transform="translate(254.105469 0)"/>
     <use xlink:href="#DejaVuSans-74" transform="translate(306.205078 0)"/>
     <use xlink:href="#DejaVuSans-61" transform="translate(345.414062 0)"/>
     <use xlink:href="#DejaVuSans-74" transform="translate(406.693359 0)"/>
     <use xlink:href="#DejaVuSans-65" transform="translate(445.902344 0)"/>
    </g>
   </g>
   <g id="text_20">
    <!-- Page Curve: Unitarity Preserved -->
    <g transform="translate(256.026406 17.837812) scale(0.14 -0.14)">
     <defs>
      <path id="DejaVuSans-43" d="M 4122 4306 
L 4122 3641 
Q 3803 3938 3442 4084 
Q 3081 4231 2675 4231 
Q 1875 4231 1450 3742 
Q 1025 3253 1025 2328 
Q 1025 1406 1450 917 
Q 1875 428 2675 428 
Q 3081 428 3442 575 
Q 3803 722 4122 1019 
L 4122 359 
Q 3791 134 3420 21 
Q 3050 -91 2638 -91 
Q 1578 -91 968 557 
Q 359 1206 359 2328 
Q 359 3453 968 4101 
Q 1578 4750 2638 4750 
Q 3056 4750 3426 4639 
Q 3797 4528 4122 4306 
z
" transform="scale(0.015625)"/>
      <path id="DejaVuSans-76" d="M 191 3500 
L 800 3500 
L 1894 563 
L 2988 3500 
L 3597 3500 
L 2284 0 
L 1503 0 
L 191 3500 
z
" transform="scale(0.015625)"/>
      <path id="DejaVuSans-3a" d="M 750 794 
L 1409 794 
L 1409 0 
L 750 0 
L 750 794 
z
M 750 3309 
L 1409 3309 
L 1409 2516 
L 750 2516 
L 750 3309 
z
" transform="scale(0.015625)"/>
      <path id="DejaVuSans-55" d="M 556 4666 
L 1191 4666 
L 1191 1831 
Q 1191 1081 1462 751 
Q 1734 422 2344 422 
Q 2950 422 3222 751 
Q 3494 1081 3494 1831 
L 3494 4666 
L 4128 4666 
L 4128 1753 
Q 4128 841 3676 375 
Q 3225 -91 2344 -91 
Q 1459 -91 1007 375 
Q 556 841 556 1753 
L 556 4666 
z
" transform="scale(0.015625)"/>
      <path id="DejaVuSans-64" d="M 2906 2969 
L 2906 4863 
L 3481 4863 
L 3481 0 
L 2906 0 
L 2906 525 
Q 2725 213 2448 61 
Q 2172 -91 1784 -91 
Q 1150 -91 751 415 
Q 353 922 353 1747 
Q 353 2572 751 3078 
Q 1150 3584 1784 3584 
Q 2172 3584 2448 3432 
Q 2725 3281 2906 2969 
z
M 947 1747 
Q 947 1113 1208 752 
Q 1469 391 1925 391 
Q 2381 391 2643 752 
Q 2906 1113 2906 1747 
Q 2906 2381 2643 2742 
Q 2381 3103 1925 3103 
Q 1469 3103 1208 2742 
Q 947 2381 947 1747 
z
" transform="scale(0.015625)"/>
     </defs>
     <use xlink:href="#DejaVuSans-50"/>
     <use xlink:href="#DejaVuSans-61" transform="translate(55.802734 0)"/>
     <use xlink:href="#DejaVuSans-67" transform="translate(117.082031 0)"/>
     <use xlink:href="#DejaVuSans-65" transform="translate(180.558594 0)"/>
     <use xlink:href="#DejaVuSans-20" transform="translate(242.082031 0)"/>
     <use xlink:href="#DejaVuSans-43" transform="translate(273.869141 0)"/>
     <use xlink:href="#DejaVuSans-75" transform="translate(343.693359 0)"/>
     <use xlink:href="#DejaVuSans-72" transform="translate(407.072266 0)"/>
     <use xlink:href="#DejaVuSans-76" transform="translate(448.185547 0)"/>
     <use xlink:href="#DejaVuSans-65" transform="translate(507.365234 0)"/>
     <use xlink:href="#DejaVuSans-3a" transform="translate(568.888672 0)"/>
     <use xlink:href="#DejaVuSans-20" transform="translate(602.580078 0)"/>
     <use xlink:href="#DejaVuSans-55" transform="translate(634.367188 0)"/>
     <use xlink:href="#DejaVuSans-6e" transform="translate(707.560547 0)"/>
     <use xlink:href="#DejaVuSans-69" transform="translate(770.939453 0)"/>
     <use xlink:href="#DejaVuSans-74" transform="translate(798.722656 0)"/>
     <use xlink:href="#DejaVuSans-61" transform="translate(837.931641 0)"/>
     <use xlink:href="#DejaVuSans-72" transform="translate(899.210938 0)"/>
     <use xlink:href="#DejaVuSans-69" transform="translate(940.324219 0)"/>
     <use xlink:href="#DejaVuSans-74" transform="translate(968.107422 0)"/>
     <use xlink:href="#DejaVuSans-79" transform="translate(1007.316406 0)"/>
     <use xlink:href="#DejaVuSans-20" transform="translate(1066.496094 0)"/>
     <use xlink:href="#DejaVuSans-50" transform="translate(1098.283203 0)"/>
     <use xlink:href="#DejaVuSans-72" transform="translate(1156.835938 0)"/>
     <use xlink:href="#DejaVuSans-65" transform="translate(1195.699219 0)"/>
     <use xlink:href="#DejaVuSans-73" transform="translate(1257.222656 0)"/>
     <use xlink:href="#DejaVuSans-65" transform="translate(1309.322266 0)"/>
     <use xlink:href="#DejaVuSans-72" transform="translate(1370.845703 0)"/>
     <use xlink:href="#DejaVuSans-76" transform="translate(1411.958984 0)"/>
     <use xlink:href="#DejaVuSans-65" transform="translate(1471.138672 0)"/>
     <use xlink:href="#DejaVuSans-64" transform="translate(1532.662109 0)"/>
    </g>
   </g>
  </g>
 </g>
 <defs>
  <clipPath id="p31f1fa2a00">
   <rect x="36.17625" y="32.837812" width="663.16" height="352.72"/>
  </clipPath>
 </defs>
</svg>
