<?xml version="1.0" encoding="utf-8" standalone="no"?>
<!DOCTYPE svg PUBLIC "-//W3C//DTD SVG 1.1//EN"
  "http://www.w3.org/Graphics/SVG/1.1/DTD/svg11.dtd">
<svg xmlns:xlink="http://www.w3.org/1999/xlink" width="856.623406pt" height="357.243875pt" viewBox="0 0 856.623406 357.243875" xmlns="http://www.w3.org/2000/svg" version="1.1">
 <metadata>
  <rdf:RDF xmlns:dc="http://purl.org/dc/elements/1.1/" xmlns:cc="http://creativecommons.org/ns#" xmlns:rdf="http://www.w3.org/1999/02/22-rdf-syntax-ns#">
   <cc:Work>
    <dc:type rdf:resource="http://purl.org/dc/dcmitype/StillImage"/>
    <dc:date>2026-01-02T18:44:39.366221</dc:date>
    <dc:format>image/svg+xml</dc:format>
    <dc:creator>
     <cc:Agent>
      <dc:title>Matplotlib v3.10.8, https://matplotlib.org/</dc:title>
     </cc:Agent>
    </dc:creator>
   </cc:Work>
  </rdf:RDF>
 </metadata>
 <defs>
  <style type="text/css">*{stroke-linejoin: round; stroke-linecap: butt}</style>
 </defs>
 <g id="figure_1">
  <g id="patch_1">
   <path d="M 0 357.243875 
L 856.623406 357.243875 
L 856.623406 0 
L 0 0 
z
" style="fill: #ffffff"/>
  </g>
  <g id="axes_1">
   <g id="patch_2">
    <path d="M 57.71375 317.752 
L 448.168578 317.752 
L 448.168578 71.728 
L 57.71375 71.728 
z
" style="fill: #ffffff"/>
   </g>
   <g id="matplotlib.axis_1">
    <g id="xtick_1">
     <g id="line2d_1">
      <path d="M 105.041608 317.752 
L 105.041608 71.728 
" clip-path="url(#pac9996d359)" style="fill: none; stroke: #ecf0f1; stroke-opacity: 0.9; stroke-width: 0.8; stroke-linecap: square"/>
     </g>
     <g id="line2d_2">
      <defs>
       <path id="mf563df96f2" d="M 0 0 
L 0 3.5 
" style="stroke: #000000; stroke-width: 0.8"/>
      </defs>
      <g>
       <use xlink:href="#mf563df96f2" x="105.041608" y="317.752" style="stroke: #000000; stroke-width: 0.8"/>
      </g>
     </g>
     <g id="text_1">
      <!-- $\mathdefault{10^{10}}$ -->
      <g transform="translate(93.991608 332.350437) scale(0.1 -0.1)">
       <defs>
        <path id="DejaVuSans-31" d="M 794 531 
L 1825 531 
L 1825 4091 
L 703 3866 
L 703 4441 
L 1819 4666 
L 2450 4666 
L 2450 531 
L 3481 531 
L 3481 0 
L 794 0 
L 794 531 
z
" transform="scale(0.015625)"/>
        <path id="DejaVuSans-30" d="M 2034 4250 
Q 1547 4250 1301 3770 
Q 1056 3291 1056 2328 
Q 1056 1369 1301 889 
Q 1547 409 2034 409 
Q 2525 409 2770 889 
Q 3016 1369 3016 2328 
Q 3016 3291 2770 3770 
Q 2525 4250 2034 4250 
z
M 2034 4750 
Q 2819 4750 3233 4129 
Q 3647 3509 3647 2328 
Q 3647 1150 3233 529 
Q 2819 -91 2034 -91 
Q 1250 -91 836 529 
Q 422 1150 422 2328 
Q 422 3509 836 4129 
Q 1250 4750 2034 4750 
z
" transform="scale(0.015625)"/>
       </defs>
       <use xlink:href="#DejaVuSans-31" transform="translate(0 0.765625)"/>
       <use xlink:href="#DejaVuSans-30" transform="translate(63.623047 0.765625)"/>
       <use xlink:href="#DejaVuSans-31" transform="translate(128.203125 39.046875) scale(0.7)"/>
       <use xlink:href="#DejaVuSans-30" transform="translate(172.739258 39.046875) scale(0.7)"/>
      </g>
     </g>
    </g>
    <g id="xtick_2">
     <g id="line2d_3">
      <path d="M 164.20143 317.752 
L 164.20143 71.728 
" clip-path="url(#pac9996d359)" style="fill: none; stroke: #ecf0f1; stroke-opacity: 0.9; stroke-width: 0.8; stroke-linecap: square"/>
     </g>
     <g id="line2d_4">
      <g>
       <use xlink:href="#mf563df96f2" x="164.20143" y="317.752" style="stroke: #000000; stroke-width: 0.8"/>
      </g>
     </g>
     <g id="text_2">
      <!-- $\mathdefault{10^{12}}$ -->
      <g transform="translate(153.15143 332.350437) scale(0.1 -0.1)">
       <defs>
        <path id="DejaVuSans-32" d="M 1228 531 
L 3431 531 
L 3431 0 
L 469 0 
L 469 531 
Q 828 903 1448 1529 
Q 2069 2156 2228 2338 
Q 2531 2678 2651 2914 
Q 2772 3150 2772 3378 
Q 2772 3750 2511 3984 
Q 2250 4219 1831 4219 
Q 1534 4219 1204 4116 
Q 875 4013 500 3803 
L 500 4441 
Q 881 4594 1212 4672 
Q 1544 4750 1819 4750 
Q 2544 4750 2975 4387 
Q 3406 4025 3406 3419 
Q 3406 3131 3298 2873 
Q 3191 2616 2906 2266 
Q 2828 2175 2409 1742 
Q 1991 1309 1228 531 
z
" transform="scale(0.015625)"/>
       </defs>
       <use xlink:href="#DejaVuSans-31" transform="translate(0 0.765625)"/>
       <use xlink:href="#DejaVuSans-30" transform="translate(63.623047 0.765625)"/>
       <use xlink:href="#DejaVuSans-31" transform="translate(128.203125 39.046875) scale(0.7)"/>
       <use xlink:href="#DejaVuSans-32" transform="translate(172.739258 39.046875) scale(0.7)"/>
      </g>
     </g>
    </g>
    <g id="xtick_3">
     <g id="line2d_5">
      <path d="M 223.361253 317.752 
L 223.361253 71.728 
" clip-path="url(#pac9996d359)" style="fill: none; stroke: #ecf0f1; stroke-opacity: 0.9; stroke-width: 0.8; stroke-linecap: square"/>
     </g>
     <g id="line2d_6">
      <g>
       <use xlink:href="#mf563df96f2" x="223.361253" y="317.752" style="stroke: #000000; stroke-width: 0.8"/>
      </g>
     </g>
     <g id="text_3">
      <!-- $\mathdefault{10^{14}}$ -->
      <g transform="translate(212.311253 332.350437) scale(0.1 -0.1)">
       <defs>
        <path id="DejaVuSans-34" d="M 2419 4116 
L 825 1625 
L 2419 1625 
L 2419 4116 
z
M 2253 4666 
L 3047 4666 
L 3047 1625 
L 3713 1625 
L 3713 1100 
L 3047 1100 
L 3047 0 
L 2419 0 
L 2419 1100 
L 313 1100 
L 313 1709 
L 2253 4666 
z
" transform="scale(0.015625)"/>
       </defs>
       <use xlink:href="#DejaVuSans-31" transform="translate(0 0.684375)"/>
       <use xlink:href="#DejaVuSans-30" transform="translate(63.623047 0.684375)"/>
       <use xlink:href="#DejaVuSans-31" transform="translate(128.203125 38.965625) scale(0.7)"/>
       <use xlink:href="#DejaVuSans-34" transform="translate(172.739258 38.965625) scale(0.7)"/>
      </g>
     </g>
    </g>
    <g id="xtick_4">
     <g id="line2d_7">
      <path d="M 282.521075 317.752 
L 282.521075 71.728 
" clip-path="url(#pac9996d359)" style="fill: none; stroke: #ecf0f1; stroke-opacity: 0.9; stroke-width: 0.8; stroke-linecap: square"/>
     </g>
     <g id="line2d_8">
      <g>
       <use xlink:href="#mf563df96f2" x="282.521075" y="317.752" style="stroke: #000000; stroke-width: 0.8"/>
      </g>
     </g>
     <g id="text_4">
      <!-- $\mathdefault{10^{16}}$ -->
      <g transform="translate(271.471075 332.350437) scale(0.1 -0.1)">
       <defs>
        <path id="DejaVuSans-36" d="M 2113 2584 
Q 1688 2584 1439 2293 
Q 1191 2003 1191 1497 
Q 1191 994 1439 701 
Q 1688 409 2113 409 
Q 2538 409 2786 701 
Q 3034 994 3034 1497 
Q 3034 2003 2786 2293 
Q 2538 2584 2113 2584 
z
M 3366 4563 
L 3366 3988 
Q 3128 4100 2886 4159 
Q 2644 4219 2406 4219 
Q 1781 4219 1451 3797 
Q 1122 3375 1075 2522 
Q 1259 2794 1537 2939 
Q 1816 3084 2150 3084 
Q 2853 3084 3261 2657 
Q 3669 2231 3669 1497 
Q 3669 778 3244 343 
Q 2819 -91 2113 -91 
Q 1303 -91 875 529 
Q 447 1150 447 2328 
Q 447 3434 972 4092 
Q 1497 4750 2381 4750 
Q 2619 4750 2861 4703 
Q 3103 4656 3366 4563 
z
" transform="scale(0.015625)"/>
       </defs>
       <use xlink:href="#DejaVuSans-31" transform="translate(0 0.765625)"/>
       <use xlink:href="#DejaVuSans-30" transform="translate(63.623047 0.765625)"/>
       <use xlink:href="#DejaVuSans-31" transform="translate(128.203125 39.046875) scale(0.7)"/>
       <use xlink:href="#DejaVuSans-36" transform="translate(172.739258 39.046875) scale(0.7)"/>
      </g>
     </g>
    </g>
    <g id="xtick_5">
     <g id="line2d_9">
      <path d="M 341.680898 317.752 
L 341.680898 71.728 
" clip-path="url(#pac9996d359)" style="fill: none; stroke: #ecf0f1; stroke-opacity: 0.9; stroke-width: 0.8; stroke-linecap: square"/>
     </g>
     <g id="line2d_10">
      <g>
       <use xlink:href="#mf563df96f2" x="341.680898" y="317.752" style="stroke: #000000; stroke-width: 0.8"/>
      </g>
     </g>
     <g id="text_5">
      <!-- $\mathdefault{10^{18}}$ -->
      <g transform="translate(330.630898 332.350437) scale(0.1 -0.1)">
       <defs>
        <path id="DejaVuSans-38" d="M 2034 2216 
Q 1584 2216 1326 1975 
Q 1069 1734 1069 1313 
Q 1069 891 1326 650 
Q 1584 409 2034 409 
Q 2484 409 2743 651 
Q 3003 894 3003 1313 
Q 3003 1734 2745 1975 
Q 2488 2216 2034 2216 
z
M 1403 2484 
Q 997 2584 770 2862 
Q 544 3141 544 3541 
Q 544 4100 942 4425 
Q 1341 4750 2034 4750 
Q 2731 4750 3128 4425 
Q 3525 4100 3525 3541 
Q 3525 3141 3298 2862 
Q 3072 2584 2669 2484 
Q 3125 2378 3379 2068 
Q 3634 1759 3634 1313 
Q 3634 634 3220 271 
Q 2806 -91 2034 -91 
Q 1263 -91 848 271 
Q 434 634 434 1313 
Q 434 1759 690 2068 
Q 947 2378 1403 2484 
z
M 1172 3481 
Q 1172 3119 1398 2916 
Q 1625 2713 2034 2713 
Q 2441 2713 2670 2916 
Q 2900 3119 2900 3481 
Q 2900 3844 2670 4047 
Q 2441 4250 2034 4250 
Q 1625 4250 1398 4047 
Q 1172 3844 1172 3481 
z
" transform="scale(0.015625)"/>
       </defs>
       <use xlink:href="#DejaVuSans-31" transform="translate(0 0.765625)"/>
       <use xlink:href="#DejaVuSans-30" transform="translate(63.623047 0.765625)"/>
       <use xlink:href="#DejaVuSans-31" transform="translate(128.203125 39.046875) scale(0.7)"/>
       <use xlink:href="#DejaVuSans-38" transform="translate(172.739258 39.046875) scale(0.7)"/>
      </g>
     </g>
    </g>
    <g id="xtick_6">
     <g id="line2d_11">
      <path d="M 400.84072 317.752 
L 400.84072 71.728 
" clip-path="url(#pac9996d359)" style="fill: none; stroke: #ecf0f1; stroke-opacity: 0.9; stroke-width: 0.8; stroke-linecap: square"/>
     </g>
     <g id="line2d_12">
      <g>
       <use xlink:href="#mf563df96f2" x="400.84072" y="317.752" style="stroke: #000000; stroke-width: 0.8"/>
      </g>
     </g>
     <g id="text_6">
      <!-- $\mathdefault{10^{20}}$ -->
      <g transform="translate(389.79072 332.350437) scale(0.1 -0.1)">
       <use xlink:href="#DejaVuSans-31" transform="translate(0 0.765625)"/>
       <use xlink:href="#DejaVuSans-30" transform="translate(63.623047 0.765625)"/>
       <use xlink:href="#DejaVuSans-32" transform="translate(128.203125 39.046875) scale(0.7)"/>
       <use xlink:href="#DejaVuSans-30" transform="translate(172.739258 39.046875) scale(0.7)"/>
      </g>
     </g>
    </g>
    <g id="text_7">
     <!-- Energy (eV, log) -->
     <g transform="translate(204.587727 347.54825) scale(0.12 -0.12)">
      <defs>
       <path id="DejaVuSans-45" d="M 628 4666 
L 3578 4666 
L 3578 4134 
L 1259 4134 
L 1259 2753 
L 3481 2753 
L 3481 2222 
L 1259 2222 
L 1259 531 
L 3634 531 
L 3634 0 
L 628 0 
L 628 4666 
z
" transform="scale(0.015625)"/>
       <path id="DejaVuSans-6e" d="M 3513 2113 
L 3513 0 
L 2938 0 
L 2938 2094 
Q 2938 2591 2744 2837 
Q 2550 3084 2163 3084 
Q 1697 3084 1428 2787 
Q 1159 2491 1159 1978 
L 1159 0 
L 581 0 
L 581 3500 
L 1159 3500 
L 1159 2956 
Q 1366 3272 1645 3428 
Q 1925 3584 2291 3584 
Q 2894 3584 3203 3211 
Q 3513 2838 3513 2113 
z
" transform="scale(0.015625)"/>
       <path id="DejaVuSans-65" d="M 3597 1894 
L 3597 1613 
L 953 1613 
Q 991 1019 1311 708 
Q 1631 397 2203 397 
Q 2534 397 2845 478 
Q 3156 559 3463 722 
L 3463 178 
Q 3153 47 2828 -22 
Q 2503 -91 2169 -91 
Q 1331 -91 842 396 
Q 353 884 353 1716 
Q 353 2575 817 3079 
Q 1281 3584 2069 3584 
Q 2775 3584 3186 3129 
Q 3597 2675 3597 1894 
z
M 3022 2063 
Q 3016 2534 2758 2815 
Q 2500 3097 2075 3097 
Q 1594 3097 1305 2825 
Q 1016 2553 972 2059 
L 3022 2063 
z
" transform="scale(0.015625)"/>
       <path id="DejaVuSans-72" d="M 2631 2963 
Q 2534 3019 2420 3045 
Q 2306 3072 2169 3072 
Q 1681 3072 1420 2755 
Q 1159 2438 1159 1844 
L 1159 0 
L 581 0 
L 581 3500 
L 1159 3500 
L 1159 2956 
Q 1341 3275 1631 3429 
Q 1922 3584 2338 3584 
Q 2397 3584 2469 3576 
Q 2541 3569 2628 3553 
L 2631 2963 
z
" transform="scale(0.015625)"/>
       <path id="DejaVuSans-67" d="M 2906 1791 
Q 2906 2416 2648 2759 
Q 2391 3103 1925 3103 
Q 1463 3103 1205 2759 
Q 947 2416 947 1791 
Q 947 1169 1205 825 
Q 1463 481 1925 481 
Q 2391 481 2648 825 
Q 2906 1169 2906 1791 
z
M 3481 434 
Q 3481 -459 3084 -895 
Q 2688 -1331 1869 -1331 
Q 1566 -1331 1297 -1286 
Q 1028 -1241 775 -1147 
L 775 -588 
Q 1028 -725 1275 -790 
Q 1522 -856 1778 -856 
Q 2344 -856 2625 -561 
Q 2906 -266 2906 331 
L 2906 616 
Q 2728 306 2450 153 
Q 2172 0 1784 0 
Q 1141 0 747 490 
Q 353 981 353 1791 
Q 353 2603 747 3093 
Q 1141 3584 1784 3584 
Q 2172 3584 2450 3431 
Q 2728 3278 2906 2969 
L 2906 3500 
L 3481 3500 
L 3481 434 
z
" transform="scale(0.015625)"/>
       <path id="DejaVuSans-79" d="M 2059 -325 
Q 1816 -950 1584 -1140 
Q 1353 -1331 966 -1331 
L 506 -1331 
L 506 -850 
L 844 -850 
Q 1081 -850 1212 -737 
Q 1344 -625 1503 -206 
L 1606 56 
L 191 3500 
L 800 3500 
L 1894 763 
L 2988 3500 
L 3597 3500 
L 2059 -325 
z
" transform="scale(0.015625)"/>
       <path id="DejaVuSans-20" transform="scale(0.015625)"/>
       <path id="DejaVuSans-28" d="M 1984 4856 
Q 1566 4138 1362 3434 
Q 1159 2731 1159 2009 
Q 1159 1288 1364 580 
Q 1569 -128 1984 -844 
L 1484 -844 
Q 1016 -109 783 600 
Q 550 1309 550 2009 
Q 550 2706 781 3412 
Q 1013 4119 1484 4856 
L 1984 4856 
z
" transform="scale(0.015625)"/>
       <path id="DejaVuSans-56" d="M 1831 0 
L 50 4666 
L 709 4666 
L 2188 738 
L 3669 4666 
L 4325 4666 
L 2547 0 
L 1831 0 
z
" transform="scale(0.015625)"/>
       <path id="DejaVuSans-2c" d="M 750 794 
L 1409 794 
L 1409 256 
L 897 -744 
L 494 -744 
L 750 256 
L 750 794 
z
" transform="scale(0.015625)"/>
       <path id="DejaVuSans-6c" d="M 603 4863 
L 1178 4863 
L 1178 0 
L 603 0 
L 603 4863 
z
" transform="scale(0.015625)"/>
       <path id="DejaVuSans-6f" d="M 1959 3097 
Q 1497 3097 1228 2736 
Q 959 2375 959 1747 
Q 959 1119 1226 758 
Q 1494 397 1959 397 
Q 2419 397 2687 759 
Q 2956 1122 2956 1747 
Q 2956 2369 2687 2733 
Q 2419 3097 1959 3097 
z
M 1959 3584 
Q 2709 3584 3137 3096 
Q 3566 2609 3566 1747 
Q 3566 888 3137 398 
Q 2709 -91 1959 -91 
Q 1206 -91 779 398 
Q 353 888 353 1747 
Q 353 2609 779 3096 
Q 1206 3584 1959 3584 
z
" transform="scale(0.015625)"/>
       <path id="DejaVuSans-29" d="M 513 4856 
L 1013 4856 
Q 1481 4119 1714 3412 
Q 1947 2706 1947 2009 
Q 1947 1309 1714 600 
Q 1481 -109 1013 -844 
L 513 -844 
Q 928 -128 1133 580 
Q 1338 1288 1338 2009 
Q 1338 2731 1133 3434 
Q 928 4138 513 4856 
z
" transform="scale(0.015625)"/>
      </defs>
      <use xlink:href="#DejaVuSans-45"/>
      <use xlink:href="#DejaVuSans-6e" transform="translate(63.183594 0)"/>
      <use xlink:href="#DejaVuSans-65" transform="translate(126.5625 0)"/>
      <use xlink:href="#DejaVuSans-72" transform="translate(188.085938 0)"/>
      <use xlink:href="#DejaVuSans-67" transform="translate(227.449219 0)"/>
      <use xlink:href="#DejaVuSans-79" transform="translate(290.925781 0)"/>
      <use xlink:href="#DejaVuSans-20" transform="translate(350.105469 0)"/>
      <use xlink:href="#DejaVuSans-28" transform="translate(381.892578 0)"/>
      <use xlink:href="#DejaVuSans-65" transform="translate(420.90625 0)"/>
      <use xlink:href="#DejaVuSans-56" transform="translate(482.429688 0)"/>
      <use xlink:href="#DejaVuSans-2c" transform="translate(550.837891 0)"/>
      <use xlink:href="#DejaVuSans-20" transform="translate(582.625 0)"/>
      <use xlink:href="#DejaVuSans-6c" transform="translate(614.412109 0)"/>
      <use xlink:href="#DejaVuSans-6f" transform="translate(642.195312 0)"/>
      <use xlink:href="#DejaVuSans-67" transform="translate(703.376953 0)"/>
      <use xlink:href="#DejaVuSans-29" transform="translate(766.853516 0)"/>
     </g>
    </g>
   </g>
   <g id="matplotlib.axis_2">
    <g id="ytick_1">
     <g id="line2d_13">
      <path d="M 57.71375 286.273811 
L 448.168578 286.273811 
" clip-path="url(#pac9996d359)" style="fill: none; stroke: #ecf0f1; stroke-opacity: 0.9; stroke-width: 0.8; stroke-linecap: square"/>
     </g>
     <g id="line2d_14">
      <defs>
       <path id="m03783b7127" d="M 0 0 
L -3.5 0 
" style="stroke: #000000; stroke-width: 0.8"/>
      </defs>
      <g>
       <use xlink:href="#m03783b7127" x="57.71375" y="286.273811" style="stroke: #000000; stroke-width: 0.8"/>
      </g>
     </g>
     <g id="text_8">
      <!-- $\mathdefault{10^{-31}}$ -->
      <g transform="translate(22.81375 290.07303) scale(0.1 -0.1)">
       <defs>
        <path id="DejaVuSans-2212" d="M 678 2272 
L 4684 2272 
L 4684 1741 
L 678 1741 
L 678 2272 
z
" transform="scale(0.015625)"/>
        <path id="DejaVuSans-33" d="M 2597 2516 
Q 3050 2419 3304 2112 
Q 3559 1806 3559 1356 
Q 3559 666 3084 287 
Q 2609 -91 1734 -91 
Q 1441 -91 1130 -33 
Q 819 25 488 141 
L 488 750 
Q 750 597 1062 519 
Q 1375 441 1716 441 
Q 2309 441 2620 675 
Q 2931 909 2931 1356 
Q 2931 1769 2642 2001 
Q 2353 2234 1838 2234 
L 1294 2234 
L 1294 2753 
L 1863 2753 
Q 2328 2753 2575 2939 
Q 2822 3125 2822 3475 
Q 2822 3834 2567 4026 
Q 2313 4219 1838 4219 
Q 1578 4219 1281 4162 
Q 984 4106 628 3988 
L 628 4550 
Q 988 4650 1302 4700 
Q 1616 4750 1894 4750 
Q 2613 4750 3031 4423 
Q 3450 4097 3450 3541 
Q 3450 3153 3228 2886 
Q 3006 2619 2597 2516 
z
" transform="scale(0.015625)"/>
       </defs>
       <use xlink:href="#DejaVuSans-31" transform="translate(0 0.765625)"/>
       <use xlink:href="#DejaVuSans-30" transform="translate(63.623047 0.765625)"/>
       <use xlink:href="#DejaVuSans-2212" transform="translate(128.203125 39.046875) scale(0.7)"/>
       <use xlink:href="#DejaVuSans-33" transform="translate(186.855469 39.046875) scale(0.7)"/>
       <use xlink:href="#DejaVuSans-31" transform="translate(231.391602 39.046875) scale(0.7)"/>
      </g>
     </g>
    </g>
    <g id="ytick_2">
     <g id="line2d_15">
      <path d="M 57.71375 253.473343 
L 448.168578 253.473343 
" clip-path="url(#pac9996d359)" style="fill: none; stroke: #ecf0f1; stroke-opacity: 0.9; stroke-width: 0.8; stroke-linecap: square"/>
     </g>
     <g id="line2d_16">
      <g>
       <use xlink:href="#m03783b7127" x="57.71375" y="253.473343" style="stroke: #000000; stroke-width: 0.8"/>
      </g>
     </g>
     <g id="text_9">
      <!-- $\mathdefault{10^{-26}}$ -->
      <g transform="translate(22.81375 257.272562) scale(0.1 -0.1)">
       <use xlink:href="#DejaVuSans-31" transform="translate(0 0.765625)"/>
       <use xlink:href="#DejaVuSans-30" transform="translate(63.623047 0.765625)"/>
       <use xlink:href="#DejaVuSans-2212" transform="translate(128.203125 39.046875) scale(0.7)"/>
       <use xlink:href="#DejaVuSans-32" transform="translate(186.855469 39.046875) scale(0.7)"/>
       <use xlink:href="#DejaVuSans-36" transform="translate(231.391602 39.046875) scale(0.7)"/>
      </g>
     </g>
    </g>
    <g id="ytick_3">
     <g id="line2d_17">
      <path d="M 57.71375 220.672875 
L 448.168578 220.672875 
" clip-path="url(#pac9996d359)" style="fill: none; stroke: #ecf0f1; stroke-opacity: 0.9; stroke-width: 0.8; stroke-linecap: square"/>
     </g>
     <g id="line2d_18">
      <g>
       <use xlink:href="#m03783b7127" x="57.71375" y="220.672875" style="stroke: #000000; stroke-width: 0.8"/>
      </g>
     </g>
     <g id="text_10">
      <!-- $\mathdefault{10^{-21}}$ -->
      <g transform="translate(22.81375 224.472094) scale(0.1 -0.1)">
       <use xlink:href="#DejaVuSans-31" transform="translate(0 0.765625)"/>
       <use xlink:href="#DejaVuSans-30" transform="translate(63.623047 0.765625)"/>
       <use xlink:href="#DejaVuSans-2212" transform="translate(128.203125 39.046875) scale(0.7)"/>
       <use xlink:href="#DejaVuSans-32" transform="translate(186.855469 39.046875) scale(0.7)"/>
       <use xlink:href="#DejaVuSans-31" transform="translate(231.391602 39.046875) scale(0.7)"/>
      </g>
     </g>
    </g>
    <g id="ytick_4">
     <g id="line2d_19">
      <path d="M 57.71375 187.872407 
L 448.168578 187.872407 
" clip-path="url(#pac9996d359)" style="fill: none; stroke: #ecf0f1; stroke-opacity: 0.9; stroke-width: 0.8; stroke-linecap: square"/>
     </g>
     <g id="line2d_20">
      <g>
       <use xlink:href="#m03783b7127" x="57.71375" y="187.872407" style="stroke: #000000; stroke-width: 0.8"/>
      </g>
     </g>
     <g id="text_11">
      <!-- $\mathdefault{10^{-16}}$ -->
      <g transform="translate(22.81375 191.671626) scale(0.1 -0.1)">
       <use xlink:href="#DejaVuSans-31" transform="translate(0 0.765625)"/>
       <use xlink:href="#DejaVuSans-30" transform="translate(63.623047 0.765625)"/>
       <use xlink:href="#DejaVuSans-2212" transform="translate(128.203125 39.046875) scale(0.7)"/>
       <use xlink:href="#DejaVuSans-31" transform="translate(186.855469 39.046875) scale(0.7)"/>
       <use xlink:href="#DejaVuSans-36" transform="translate(231.391602 39.046875) scale(0.7)"/>
      </g>
     </g>
    </g>
    <g id="ytick_5">
     <g id="line2d_21">
      <path d="M 57.71375 155.071939 
L 448.168578 155.071939 
" clip-path="url(#pac9996d359)" style="fill: none; stroke: #ecf0f1; stroke-opacity: 0.9; stroke-width: 0.8; stroke-linecap: square"/>
     </g>
     <g id="line2d_22">
      <g>
       <use xlink:href="#m03783b7127" x="57.71375" y="155.071939" style="stroke: #000000; stroke-width: 0.8"/>
      </g>
     </g>
     <g id="text_12">
      <!-- $\mathdefault{10^{-11}}$ -->
      <g transform="translate(22.81375 158.871158) scale(0.1 -0.1)">
       <use xlink:href="#DejaVuSans-31" transform="translate(0 0.684375)"/>
       <use xlink:href="#DejaVuSans-30" transform="translate(63.623047 0.684375)"/>
       <use xlink:href="#DejaVuSans-2212" transform="translate(128.203125 38.965625) scale(0.7)"/>
       <use xlink:href="#DejaVuSans-31" transform="translate(186.855469 38.965625) scale(0.7)"/>
       <use xlink:href="#DejaVuSans-31" transform="translate(231.391602 38.965625) scale(0.7)"/>
      </g>
     </g>
    </g>
    <g id="ytick_6">
     <g id="line2d_23">
      <path d="M 57.71375 122.271471 
L 448.168578 122.271471 
" clip-path="url(#pac9996d359)" style="fill: none; stroke: #ecf0f1; stroke-opacity: 0.9; stroke-width: 0.8; stroke-linecap: square"/>
     </g>
     <g id="line2d_24">
      <g>
       <use xlink:href="#m03783b7127" x="57.71375" y="122.271471" style="stroke: #000000; stroke-width: 0.8"/>
      </g>
     </g>
     <g id="text_13">
      <!-- $\mathdefault{10^{-6}}$ -->
      <g transform="translate(27.21375 126.07069) scale(0.1 -0.1)">
       <use xlink:href="#DejaVuSans-31" transform="translate(0 0.765625)"/>
       <use xlink:href="#DejaVuSans-30" transform="translate(63.623047 0.765625)"/>
       <use xlink:href="#DejaVuSans-2212" transform="translate(128.203125 39.046875) scale(0.7)"/>
       <use xlink:href="#DejaVuSans-36" transform="translate(186.855469 39.046875) scale(0.7)"/>
      </g>
     </g>
    </g>
    <g id="ytick_7">
     <g id="line2d_25">
      <path d="M 57.71375 89.471003 
L 448.168578 89.471003 
" clip-path="url(#pac9996d359)" style="fill: none; stroke: #ecf0f1; stroke-opacity: 0.9; stroke-width: 0.8; stroke-linecap: square"/>
     </g>
     <g id="line2d_26">
      <g>
       <use xlink:href="#m03783b7127" x="57.71375" y="89.471003" style="stroke: #000000; stroke-width: 0.8"/>
      </g>
     </g>
     <g id="text_14">
      <!-- $\mathdefault{10^{-1}}$ -->
      <g transform="translate(27.21375 93.270221) scale(0.1 -0.1)">
       <use xlink:href="#DejaVuSans-31" transform="translate(0 0.684375)"/>
       <use xlink:href="#DejaVuSans-30" transform="translate(63.623047 0.684375)"/>
       <use xlink:href="#DejaVuSans-2212" transform="translate(128.203125 38.965625) scale(0.7)"/>
       <use xlink:href="#DejaVuSans-31" transform="translate(186.855469 38.965625) scale(0.7)"/>
      </g>
     </g>
    </g>
    <g id="text_15">
     <!-- Relative flux (log) -->
     <g transform="translate(16.318125 247.7125) rotate(-90) scale(0.12 -0.12)">
      <defs>
       <path id="DejaVuSans-52" d="M 2841 2188 
Q 3044 2119 3236 1894 
Q 3428 1669 3622 1275 
L 4263 0 
L 3584 0 
L 2988 1197 
Q 2756 1666 2539 1819 
Q 2322 1972 1947 1972 
L 1259 1972 
L 1259 0 
L 628 0 
L 628 4666 
L 2053 4666 
Q 2853 4666 3247 4331 
Q 3641 3997 3641 3322 
Q 3641 2881 3436 2590 
Q 3231 2300 2841 2188 
z
M 1259 4147 
L 1259 2491 
L 2053 2491 
Q 2509 2491 2742 2702 
Q 2975 2913 2975 3322 
Q 2975 3731 2742 3939 
Q 2509 4147 2053 4147 
L 1259 4147 
z
" transform="scale(0.015625)"/>
       <path id="DejaVuSans-61" d="M 2194 1759 
Q 1497 1759 1228 1600 
Q 959 1441 959 1056 
Q 959 750 1161 570 
Q 1363 391 1709 391 
Q 2188 391 2477 730 
Q 2766 1069 2766 1631 
L 2766 1759 
L 2194 1759 
z
M 3341 1997 
L 3341 0 
L 2766 0 
L 2766 531 
Q 2569 213 2275 61 
Q 1981 -91 1556 -91 
Q 1019 -91 701 211 
Q 384 513 384 1019 
Q 384 1609 779 1909 
Q 1175 2209 1959 2209 
L 2766 2209 
L 2766 2266 
Q 2766 2663 2505 2880 
Q 2244 3097 1772 3097 
Q 1472 3097 1187 3025 
Q 903 2953 641 2809 
L 641 3341 
Q 956 3463 1253 3523 
Q 1550 3584 1831 3584 
Q 2591 3584 2966 3190 
Q 3341 2797 3341 1997 
z
" transform="scale(0.015625)"/>
       <path id="DejaVuSans-74" d="M 1172 4494 
L 1172 3500 
L 2356 3500 
L 2356 3053 
L 1172 3053 
L 1172 1153 
Q 1172 725 1289 603 
Q 1406 481 1766 481 
L 2356 481 
L 2356 0 
L 1766 0 
Q 1100 0 847 248 
Q 594 497 594 1153 
L 594 3053 
L 172 3053 
L 172 3500 
L 594 3500 
L 594 4494 
L 1172 4494 
z
" transform="scale(0.015625)"/>
       <path id="DejaVuSans-69" d="M 603 3500 
L 1178 3500 
L 1178 0 
L 603 0 
L 603 3500 
z
M 603 4863 
L 1178 4863 
L 1178 4134 
L 603 4134 
L 603 4863 
z
" transform="scale(0.015625)"/>
       <path id="DejaVuSans-76" d="M 191 3500 
L 800 3500 
L 1894 563 
L 2988 3500 
L 3597 3500 
L 2284 0 
L 1503 0 
L 191 3500 
z
" transform="scale(0.015625)"/>
       <path id="DejaVuSans-66" d="M 2375 4863 
L 2375 4384 
L 1825 4384 
Q 1516 4384 1395 4259 
Q 1275 4134 1275 3809 
L 1275 3500 
L 2222 3500 
L 2222 3053 
L 1275 3053 
L 1275 0 
L 697 0 
L 697 3053 
L 147 3053 
L 147 3500 
L 697 3500 
L 697 3744 
Q 697 4328 969 4595 
Q 1241 4863 1831 4863 
L 2375 4863 
z
" transform="scale(0.015625)"/>
       <path id="DejaVuSans-75" d="M 544 1381 
L 544 3500 
L 1119 3500 
L 1119 1403 
Q 1119 906 1312 657 
Q 1506 409 1894 409 
Q 2359 409 2629 706 
Q 2900 1003 2900 1516 
L 2900 3500 
L 3475 3500 
L 3475 0 
L 2900 0 
L 2900 538 
Q 2691 219 2414 64 
Q 2138 -91 1772 -91 
Q 1169 -91 856 284 
Q 544 659 544 1381 
z
M 1991 3584 
L 1991 3584 
z
" transform="scale(0.015625)"/>
       <path id="DejaVuSans-78" d="M 3513 3500 
L 2247 1797 
L 3578 0 
L 2900 0 
L 1881 1375 
L 863 0 
L 184 0 
L 1544 1831 
L 300 3500 
L 978 3500 
L 1906 2253 
L 2834 3500 
L 3513 3500 
z
" transform="scale(0.015625)"/>
      </defs>
      <use xlink:href="#DejaVuSans-52"/>
      <use xlink:href="#DejaVuSans-65" transform="translate(64.982422 0)"/>
      <use xlink:href="#DejaVuSans-6c" transform="translate(126.505859 0)"/>
      <use xlink:href="#DejaVuSans-61" transform="translate(154.289062 0)"/>
      <use xlink:href="#DejaVuSans-74" transform="translate(215.568359 0)"/>
      <use xlink:href="#DejaVuSans-69" transform="translate(254.777344 0)"/>
      <use xlink:href="#DejaVuSans-76" transform="translate(282.560547 0)"/>
      <use xlink:href="#DejaVuSans-65" transform="translate(341.740234 0)"/>
      <use xlink:href="#DejaVuSans-20" transform="translate(403.263672 0)"/>
      <use xlink:href="#DejaVuSans-66" transform="translate(435.050781 0)"/>
      <use xlink:href="#DejaVuSans-6c" transform="translate(470.255859 0)"/>
      <use xlink:href="#DejaVuSans-75" transform="translate(498.039062 0)"/>
      <use xlink:href="#DejaVuSans-78" transform="translate(561.417969 0)"/>
      <use xlink:href="#DejaVuSans-20" transform="translate(620.597656 0)"/>
      <use xlink:href="#DejaVuSans-28" transform="translate(652.384766 0)"/>
      <use xlink:href="#DejaVuSans-6c" transform="translate(691.398438 0)"/>
      <use xlink:href="#DejaVuSans-6f" transform="translate(719.181641 0)"/>
      <use xlink:href="#DejaVuSans-67" transform="translate(780.363281 0)"/>
      <use xlink:href="#DejaVuSans-29" transform="translate(843.839844 0)"/>
     </g>
    </g>
   </g>
   <g id="line2d_27">
    <path d="M 75.461697 82.910909 
L 267.523645 197.916318 
L 268.234986 239.059542 
L 356.441214 299.701626 
L 357.152555 251.585509 
L 392.008242 272.46885 
L 430.420631 306.569091 
L 430.420631 306.569091 
" clip-path="url(#pac9996d359)" style="fill: none; stroke: #9b59b6; stroke-width: 2.5; stroke-linecap: square"/>
   </g>
   <g id="line2d_28">
    <path d="M 267.054368 317.752 
L 267.054368 71.728 
" clip-path="url(#pac9996d359)" style="fill: none; stroke-dasharray: 3.7,1.6; stroke-dashoffset: 0; stroke: #95a5a6"/>
   </g>
   <g id="line2d_29">
    <path d="M 355.794102 317.752 
L 355.794102 71.728 
" clip-path="url(#pac9996d359)" style="fill: none; stroke-dasharray: 3.7,1.6; stroke-dashoffset: 0; stroke: #95a5a6"/>
   </g>
   <g id="line2d_30">
    <path d="M 391.93628 317.752 
L 391.93628 71.728 
" clip-path="url(#pac9996d359)" style="fill: none; stroke-dasharray: 3.7,1.6; stroke-dashoffset: 0; stroke: #95a5a6"/>
   </g>
   <g id="patch_3">
    <path d="M 57.71375 317.752 
L 57.71375 71.728 
" style="fill: none; stroke: #000000; stroke-width: 0.8; stroke-linejoin: miter; stroke-linecap: square"/>
   </g>
   <g id="patch_4">
    <path d="M 448.168578 317.752 
L 448.168578 71.728 
" style="fill: none; stroke: #000000; stroke-width: 0.8; stroke-linejoin: miter; stroke-linecap: square"/>
   </g>
   <g id="patch_5">
    <path d="M 57.71375 317.752 
L 448.168578 317.752 
" style="fill: none; stroke: #000000; stroke-width: 0.8; stroke-linejoin: miter; stroke-linecap: square"/>
   </g>
   <g id="patch_6">
    <path d="M 57.71375 71.728 
L 448.168578 71.728 
" style="fill: none; stroke: #000000; stroke-width: 0.8; stroke-linejoin: miter; stroke-linecap: square"/>
   </g>
   <g id="text_16">
    <!-- knee -->
    <g style="fill: #95a5a6" transform="translate(268.27876 106.021323) scale(0.08 -0.08)">
     <defs>
      <path id="DejaVuSans-6b" d="M 581 4863 
L 1159 4863 
L 1159 1991 
L 2875 3500 
L 3609 3500 
L 1753 1863 
L 3688 0 
L 2938 0 
L 1159 1709 
L 1159 0 
L 581 0 
L 581 4863 
z
" transform="scale(0.015625)"/>
     </defs>
     <use xlink:href="#DejaVuSans-6b"/>
     <use xlink:href="#DejaVuSans-6e" transform="translate(57.910156 0)"/>
     <use xlink:href="#DejaVuSans-65" transform="translate(121.289062 0)"/>
     <use xlink:href="#DejaVuSans-65" transform="translate(182.8125 0)"/>
    </g>
   </g>
   <g id="text_17">
    <!-- ankle -->
    <g style="fill: #95a5a6" transform="translate(357.018494 106.021323) scale(0.08 -0.08)">
     <use xlink:href="#DejaVuSans-61"/>
     <use xlink:href="#DejaVuSans-6e" transform="translate(61.279297 0)"/>
     <use xlink:href="#DejaVuSans-6b" transform="translate(124.658203 0)"/>
     <use xlink:href="#DejaVuSans-6c" transform="translate(182.568359 0)"/>
     <use xlink:href="#DejaVuSans-65" transform="translate(210.351562 0)"/>
    </g>
   </g>
   <g id="text_18">
    <!-- GZK -->
    <g style="fill: #95a5a6" transform="translate(393.160671 106.021323) scale(0.08 -0.08)">
     <defs>
      <path id="DejaVuSans-47" d="M 3809 666 
L 3809 1919 
L 2778 1919 
L 2778 2438 
L 4434 2438 
L 4434 434 
Q 4069 175 3628 42 
Q 3188 -91 2688 -91 
Q 1594 -91 976 548 
Q 359 1188 359 2328 
Q 359 3472 976 4111 
Q 1594 4750 2688 4750 
Q 3144 4750 3555 4637 
Q 3966 4525 4313 4306 
L 4313 3634 
Q 3963 3931 3569 4081 
Q 3175 4231 2741 4231 
Q 1884 4231 1454 3753 
Q 1025 3275 1025 2328 
Q 1025 1384 1454 906 
Q 1884 428 2741 428 
Q 3075 428 3337 486 
Q 3600 544 3809 666 
z
" transform="scale(0.015625)"/>
      <path id="DejaVuSans-5a" d="M 359 4666 
L 4025 4666 
L 4025 4184 
L 1075 531 
L 4097 531 
L 4097 0 
L 288 0 
L 288 481 
L 3238 4134 
L 359 4134 
L 359 4666 
z
" transform="scale(0.015625)"/>
      <path id="DejaVuSans-4b" d="M 628 4666 
L 1259 4666 
L 1259 2694 
L 3353 4666 
L 4166 4666 
L 1850 2491 
L 4331 0 
L 3500 0 
L 1259 2247 
L 1259 0 
L 628 0 
L 628 4666 
z
" transform="scale(0.015625)"/>
     </defs>
     <use xlink:href="#DejaVuSans-47"/>
     <use xlink:href="#DejaVuSans-5a" transform="translate(77.490234 0)"/>
     <use xlink:href="#DejaVuSans-4b" transform="translate(145.996094 0)"/>
    </g>
   </g>
   <g id="text_19">
    <!-- Energy Spectrum (schematic) -->
    <g transform="translate(163.604914 61.728) scale(0.12 -0.12)">
     <defs>
      <path id="DejaVuSans-53" d="M 3425 4513 
L 3425 3897 
Q 3066 4069 2747 4153 
Q 2428 4238 2131 4238 
Q 1616 4238 1336 4038 
Q 1056 3838 1056 3469 
Q 1056 3159 1242 3001 
Q 1428 2844 1947 2747 
L 2328 2669 
Q 3034 2534 3370 2195 
Q 3706 1856 3706 1288 
Q 3706 609 3251 259 
Q 2797 -91 1919 -91 
Q 1588 -91 1214 -16 
Q 841 59 441 206 
L 441 856 
Q 825 641 1194 531 
Q 1563 422 1919 422 
Q 2459 422 2753 634 
Q 3047 847 3047 1241 
Q 3047 1584 2836 1778 
Q 2625 1972 2144 2069 
L 1759 2144 
Q 1053 2284 737 2584 
Q 422 2884 422 3419 
Q 422 4038 858 4394 
Q 1294 4750 2059 4750 
Q 2388 4750 2728 4690 
Q 3069 4631 3425 4513 
z
" transform="scale(0.015625)"/>
      <path id="DejaVuSans-70" d="M 1159 525 
L 1159 -1331 
L 581 -1331 
L 581 3500 
L 1159 3500 
L 1159 2969 
Q 1341 3281 1617 3432 
Q 1894 3584 2278 3584 
Q 2916 3584 3314 3078 
Q 3713 2572 3713 1747 
Q 3713 922 3314 415 
Q 2916 -91 2278 -91 
Q 1894 -91 1617 61 
Q 1341 213 1159 525 
z
M 3116 1747 
Q 3116 2381 2855 2742 
Q 2594 3103 2138 3103 
Q 1681 3103 1420 2742 
Q 1159 2381 1159 1747 
Q 1159 1113 1420 752 
Q 1681 391 2138 391 
Q 2594 391 2855 752 
Q 3116 1113 3116 1747 
z
" transform="scale(0.015625)"/>
      <path id="DejaVuSans-63" d="M 3122 3366 
L 3122 2828 
Q 2878 2963 2633 3030 
Q 2388 3097 2138 3097 
Q 1578 3097 1268 2742 
Q 959 2388 959 1747 
Q 959 1106 1268 751 
Q 1578 397 2138 397 
Q 2388 397 2633 464 
Q 2878 531 3122 666 
L 3122 134 
Q 2881 22 2623 -34 
Q 2366 -91 2075 -91 
Q 1284 -91 818 406 
Q 353 903 353 1747 
Q 353 2603 823 3093 
Q 1294 3584 2113 3584 
Q 2378 3584 2631 3529 
Q 2884 3475 3122 3366 
z
" transform="scale(0.015625)"/>
      <path id="DejaVuSans-6d" d="M 3328 2828 
Q 3544 3216 3844 3400 
Q 4144 3584 4550 3584 
Q 5097 3584 5394 3201 
Q 5691 2819 5691 2113 
L 5691 0 
L 5113 0 
L 5113 2094 
Q 5113 2597 4934 2840 
Q 4756 3084 4391 3084 
Q 3944 3084 3684 2787 
Q 3425 2491 3425 1978 
L 3425 0 
L 2847 0 
L 2847 2094 
Q 2847 2600 2669 2842 
Q 2491 3084 2119 3084 
Q 1678 3084 1418 2786 
Q 1159 2488 1159 1978 
L 1159 0 
L 581 0 
L 581 3500 
L 1159 3500 
L 1159 2956 
Q 1356 3278 1631 3431 
Q 1906 3584 2284 3584 
Q 2666 3584 2933 3390 
Q 3200 3197 3328 2828 
z
" transform="scale(0.015625)"/>
      <path id="DejaVuSans-73" d="M 2834 3397 
L 2834 2853 
Q 2591 2978 2328 3040 
Q 2066 3103 1784 3103 
Q 1356 3103 1142 2972 
Q 928 2841 928 2578 
Q 928 2378 1081 2264 
Q 1234 2150 1697 2047 
L 1894 2003 
Q 2506 1872 2764 1633 
Q 3022 1394 3022 966 
Q 3022 478 2636 193 
Q 2250 -91 1575 -91 
Q 1294 -91 989 -36 
Q 684 19 347 128 
L 347 722 
Q 666 556 975 473 
Q 1284 391 1588 391 
Q 1994 391 2212 530 
Q 2431 669 2431 922 
Q 2431 1156 2273 1281 
Q 2116 1406 1581 1522 
L 1381 1569 
Q 847 1681 609 1914 
Q 372 2147 372 2553 
Q 372 3047 722 3315 
Q 1072 3584 1716 3584 
Q 2034 3584 2315 3537 
Q 2597 3491 2834 3397 
z
" transform="scale(0.015625)"/>
      <path id="DejaVuSans-68" d="M 3513 2113 
L 3513 0 
L 2938 0 
L 2938 2094 
Q 2938 2591 2744 2837 
Q 2550 3084 2163 3084 
Q 1697 3084 1428 2787 
Q 1159 2491 1159 1978 
L 1159 0 
L 581 0 
L 581 4863 
L 1159 4863 
L 1159 2956 
Q 1366 3272 1645 3428 
Q 1925 3584 2291 3584 
Q 2894 3584 3203 3211 
Q 3513 2838 3513 2113 
z
" transform="scale(0.015625)"/>
     </defs>
     <use xlink:href="#DejaVuSans-45"/>
     <use xlink:href="#DejaVuSans-6e" transform="translate(63.183594 0)"/>
     <use xlink:href="#DejaVuSans-65" transform="translate(126.5625 0)"/>
     <use xlink:href="#DejaVuSans-72" transform="translate(188.085938 0)"/>
     <use xlink:href="#DejaVuSans-67" transform="translate(227.449219 0)"/>
     <use xlink:href="#DejaVuSans-79" transform="translate(290.925781 0)"/>
     <use xlink:href="#DejaVuSans-20" transform="translate(350.105469 0)"/>
     <use xlink:href="#DejaVuSans-53" transform="translate(381.892578 0)"/>
     <use xlink:href="#DejaVuSans-70" transform="translate(445.369141 0)"/>
     <use xlink:href="#DejaVuSans-65" transform="translate(508.845703 0)"/>
     <use xlink:href="#DejaVuSans-63" transform="translate(570.369141 0)"/>
     <use xlink:href="#DejaVuSans-74" transform="translate(625.349609 0)"/>
     <use xlink:href="#DejaVuSans-72" transform="translate(664.558594 0)"/>
     <use xlink:href="#DejaVuSans-75" transform="translate(705.671875 0)"/>
     <use xlink:href="#DejaVuSans-6d" transform="translate(769.050781 0)"/>
     <use xlink:href="#DejaVuSans-20" transform="translate(866.462891 0)"/>
     <use xlink:href="#DejaVuSans-28" transform="translate(898.25 0)"/>
     <use xlink:href="#DejaVuSans-73" transform="translate(937.263672 0)"/>
     <use xlink:href="#DejaVuSans-63" transform="translate(989.363281 0)"/>
     <use xlink:href="#DejaVuSans-68" transform="translate(1044.34375 0)"/>
     <use xlink:href="#DejaVuSans-65" transform="translate(1107.722656 0)"/>
     <use xlink:href="#DejaVuSans-6d" transform="translate(1169.246094 0)"/>
     <use xlink:href="#DejaVuSans-61" transform="translate(1266.658203 0)"/>
     <use xlink:href="#DejaVuSans-74" transform="translate(1327.9375 0)"/>
     <use xlink:href="#DejaVuSans-69" transform="translate(1367.146484 0)"/>
     <use xlink:href="#DejaVuSans-63" transform="translate(1394.929688 0)"/>
     <use xlink:href="#DejaVuSans-29" transform="translate(1449.910156 0)"/>
    </g>
   </g>
  </g>
  <g id="axes_2">
   <g id="patch_7">
    <path d="M 498.014061 170.1376 
L 810.377923 170.1376 
L 810.377923 145.5352 
L 498.014061 145.5352 
z
" clip-path="url(#p5365cc1e53)" style="fill: #ecf0f1; opacity: 0.04"/>
   </g>
   <g id="patch_8">
    <path d="M 498.014061 145.5352 
L 810.377923 145.5352 
L 810.377923 120.9328 
L 498.014061 120.9328 
z
" clip-path="url(#p5365cc1e53)" style="fill: #ecf0f1; opacity: 0.06"/>
   </g>
   <g id="patch_9">
    <path d="M 498.014061 120.9328 
L 810.377923 120.9328 
L 810.377923 96.3304 
L 498.014061 96.3304 
z
" clip-path="url(#p5365cc1e53)" style="fill: #ecf0f1; opacity: 0.08"/>
   </g>
   <g id="patch_10">
    <path d="M 498.014061 96.3304 
L 810.377923 96.3304 
L 810.377923 71.728 
L 498.014061 71.728 
z
" clip-path="url(#p5365cc1e53)" style="fill: #ecf0f1; opacity: 0.1"/>
   </g>
   <g id="patch_11">
    <path d="M 498.014061 288.22912 
L 810.377923 288.22912 
L 810.377923 273.46768 
L 498.014061 273.46768 
z
" clip-path="url(#p5365cc1e53)" style="fill: #95a5a6; opacity: 0.15; stroke: #95a5a6; stroke-linejoin: miter"/>
   </g>
   <g id="PathCollection_1">
    <defs>
     <path id="m2469e5aadf" d="M 0 1.581139 
C 0.419323 1.581139 0.821528 1.41454 1.118034 1.118034 
C 1.41454 0.821528 1.581139 0.419323 1.581139 0 
C 1.581139 -0.419323 1.41454 -0.821528 1.118034 -1.118034 
C 0.821528 -1.41454 0.419323 -1.581139 0 -1.581139 
C -0.419323 -1.581139 -0.821528 -1.41454 -1.118034 -1.118034 
C -1.41454 -0.821528 -1.581139 -0.419323 -1.581139 0 
C -1.581139 0.419323 -1.41454 0.821528 -1.118034 1.118034 
C -0.821528 1.41454 -0.419323 1.581139 0 1.581139 
z
" style="stroke: #f39c12; stroke-opacity: 0.6"/>
    </defs>
    <g clip-path="url(#p5365cc1e53)">
     <use xlink:href="#m2469e5aadf" x="666.744849" y="231.829207" style="fill: #f39c12; fill-opacity: 0.6; stroke: #f39c12; stroke-opacity: 0.6"/>
    </g>
   </g>
   <g id="PathCollection_2">
    <g clip-path="url(#p5365cc1e53)">
     <use xlink:href="#m2469e5aadf" x="626.777941" y="257.240436" style="fill: #f39c12; fill-opacity: 0.6; stroke: #f39c12; stroke-opacity: 0.6"/>
    </g>
   </g>
   <g id="PathCollection_3">
    <g clip-path="url(#p5365cc1e53)">
     <use xlink:href="#m2469e5aadf" x="773.655746" y="178.925512" style="fill: #f39c12; fill-opacity: 0.6; stroke: #f39c12; stroke-opacity: 0.6"/>
    </g>
   </g>
   <g id="PathCollection_4">
    <g clip-path="url(#p5365cc1e53)">
     <use xlink:href="#m2469e5aadf" x="632.595296" y="261.763503" style="fill: #f39c12; fill-opacity: 0.6; stroke: #f39c12; stroke-opacity: 0.6"/>
    </g>
   </g>
   <g id="PathCollection_5">
    <g clip-path="url(#p5365cc1e53)">
     <use xlink:href="#m2469e5aadf" x="672.862003" y="187.67505" style="fill: #f39c12; fill-opacity: 0.6; stroke: #f39c12; stroke-opacity: 0.6"/>
    </g>
   </g>
   <g id="PathCollection_6">
    <g clip-path="url(#p5365cc1e53)">
     <use xlink:href="#m2469e5aadf" x="719.0843" y="250.087741" style="fill: #f39c12; fill-opacity: 0.6; stroke: #f39c12; stroke-opacity: 0.6"/>
    </g>
   </g>
   <g id="PathCollection_7">
    <g clip-path="url(#p5365cc1e53)">
     <use xlink:href="#m2469e5aadf" x="632.369542" y="186.215601" style="fill: #f39c12; fill-opacity: 0.6; stroke: #f39c12; stroke-opacity: 0.6"/>
    </g>
   </g>
   <g id="PathCollection_8">
    <g clip-path="url(#p5365cc1e53)">
     <use xlink:href="#m2469e5aadf" x="684.39489" y="190.657921" style="fill: #f39c12; fill-opacity: 0.6; stroke: #f39c12; stroke-opacity: 0.6"/>
    </g>
   </g>
   <g id="PathCollection_9">
    <g clip-path="url(#p5365cc1e53)">
     <use xlink:href="#m2469e5aadf" x="690.390796" y="184.52203" style="fill: #f39c12; fill-opacity: 0.6; stroke: #f39c12; stroke-opacity: 0.6"/>
    </g>
   </g>
   <g id="PathCollection_10">
    <g clip-path="url(#p5365cc1e53)">
     <use xlink:href="#m2469e5aadf" x="662.614485" y="245.512887" style="fill: #f39c12; fill-opacity: 0.6; stroke: #f39c12; stroke-opacity: 0.6"/>
    </g>
   </g>
   <g id="PathCollection_11">
    <g clip-path="url(#p5365cc1e53)">
     <use xlink:href="#m2469e5aadf" x="710.050182" y="205.679952" style="fill: #f39c12; fill-opacity: 0.6; stroke: #f39c12; stroke-opacity: 0.6"/>
    </g>
   </g>
   <g id="PathCollection_12">
    <g clip-path="url(#p5365cc1e53)">
     <use xlink:href="#m2469e5aadf" x="676.13841" y="173.143528" style="fill: #f39c12; fill-opacity: 0.6; stroke: #f39c12; stroke-opacity: 0.6"/>
    </g>
   </g>
   <g id="PathCollection_13">
    <g clip-path="url(#p5365cc1e53)">
     <use xlink:href="#m2469e5aadf" x="587.104617" y="154.857431" style="fill: #f39c12; fill-opacity: 0.6; stroke: #f39c12; stroke-opacity: 0.6"/>
    </g>
   </g>
   <g id="PathCollection_14">
    <g clip-path="url(#p5365cc1e53)">
     <use xlink:href="#m2469e5aadf" x="790.714415" y="183.206537" style="fill: #f39c12; fill-opacity: 0.6; stroke: #f39c12; stroke-opacity: 0.6"/>
    </g>
   </g>
   <g id="patch_12">
    <path d="M 539.011818 273.46768 
L 550.725463 273.46768 
L 550.725463 266.08696 
L 539.011818 266.08696 
z
" clip-path="url(#p5365cc1e53)" style="fill: #9b59b6; opacity: 0.5"/>
   </g>
   <g id="patch_13">
    <path d="M 582.742759 273.46768 
L 594.456403 273.46768 
L 594.456403 266.08696 
L 582.742759 266.08696 
z
" clip-path="url(#p5365cc1e53)" style="fill: #9b59b6; opacity: 0.5"/>
   </g>
   <g id="patch_14">
    <path d="M 626.473699 273.46768 
L 638.187344 273.46768 
L 638.187344 266.08696 
L 626.473699 266.08696 
z
" clip-path="url(#p5365cc1e53)" style="fill: #9b59b6; opacity: 0.5"/>
   </g>
   <g id="patch_15">
    <path d="M 670.20464 273.46768 
L 681.918285 273.46768 
L 681.918285 266.08696 
L 670.20464 266.08696 
z
" clip-path="url(#p5365cc1e53)" style="fill: #9b59b6; opacity: 0.5"/>
   </g>
   <g id="patch_16">
    <path d="M 713.935581 273.46768 
L 725.649226 273.46768 
L 725.649226 266.08696 
L 713.935581 266.08696 
z
" clip-path="url(#p5365cc1e53)" style="fill: #9b59b6; opacity: 0.5"/>
   </g>
   <g id="patch_17">
    <path d="M 757.666521 273.46768 
L 769.380166 273.46768 
L 769.380166 266.08696 
L 757.666521 266.08696 
z
" clip-path="url(#p5365cc1e53)" style="fill: #9b59b6; opacity: 0.5"/>
   </g>
   <g id="line2d_31">
    <path d="M 654.195992 125.85328 
L 666.744849 231.829207 
" clip-path="url(#p5365cc1e53)" style="fill: none; stroke: #f39c12; stroke-opacity: 0.7; stroke-width: 1.2; stroke-linecap: square"/>
   </g>
   <g id="line2d_32">
    <path d="M 654.195992 125.85328 
L 626.777941 257.240436 
" clip-path="url(#p5365cc1e53)" style="fill: none; stroke: #f39c12; stroke-opacity: 0.7; stroke-width: 1.2; stroke-linecap: square"/>
   </g>
   <g id="line2d_33">
    <path d="M 654.195992 125.85328 
L 773.655746 178.925512 
" clip-path="url(#p5365cc1e53)" style="fill: none; stroke: #f39c12; stroke-opacity: 0.7; stroke-width: 1.2; stroke-linecap: square"/>
   </g>
   <g id="line2d_34">
    <path d="M 654.195992 125.85328 
L 632.595296 261.763503 
" clip-path="url(#p5365cc1e53)" style="fill: none; stroke: #f39c12; stroke-opacity: 0.7; stroke-width: 1.2; stroke-linecap: square"/>
   </g>
   <g id="line2d_35">
    <path d="M 654.195992 125.85328 
L 672.862003 187.67505 
" clip-path="url(#p5365cc1e53)" style="fill: none; stroke: #f39c12; stroke-opacity: 0.7; stroke-width: 1.2; stroke-linecap: square"/>
   </g>
   <g id="line2d_36">
    <path d="M 654.195992 125.85328 
L 719.0843 250.087741 
" clip-path="url(#p5365cc1e53)" style="fill: none; stroke: #f39c12; stroke-opacity: 0.7; stroke-width: 1.2; stroke-linecap: square"/>
   </g>
   <g id="line2d_37">
    <path d="M 654.195992 125.85328 
L 632.369542 186.215601 
" clip-path="url(#p5365cc1e53)" style="fill: none; stroke: #f39c12; stroke-opacity: 0.7; stroke-width: 1.2; stroke-linecap: square"/>
   </g>
   <g id="line2d_38">
    <path d="M 654.195992 125.85328 
L 684.39489 190.657921 
" clip-path="url(#p5365cc1e53)" style="fill: none; stroke: #f39c12; stroke-opacity: 0.7; stroke-width: 1.2; stroke-linecap: square"/>
   </g>
   <g id="line2d_39">
    <path d="M 654.195992 125.85328 
L 690.390796 184.52203 
" clip-path="url(#p5365cc1e53)" style="fill: none; stroke: #f39c12; stroke-opacity: 0.7; stroke-width: 1.2; stroke-linecap: square"/>
   </g>
   <g id="line2d_40">
    <path d="M 654.195992 125.85328 
L 662.614485 245.512887 
" clip-path="url(#p5365cc1e53)" style="fill: none; stroke: #f39c12; stroke-opacity: 0.7; stroke-width: 1.2; stroke-linecap: square"/>
   </g>
   <g id="line2d_41">
    <path d="M 654.195992 125.85328 
L 710.050182 205.679952 
" clip-path="url(#p5365cc1e53)" style="fill: none; stroke: #f39c12; stroke-opacity: 0.7; stroke-width: 1.2; stroke-linecap: square"/>
   </g>
   <g id="line2d_42">
    <path d="M 654.195992 125.85328 
L 676.13841 173.143528 
" clip-path="url(#p5365cc1e53)" style="fill: none; stroke: #f39c12; stroke-opacity: 0.7; stroke-width: 1.2; stroke-linecap: square"/>
   </g>
   <g id="line2d_43">
    <path d="M 654.195992 125.85328 
L 587.104617 154.857431 
" clip-path="url(#p5365cc1e53)" style="fill: none; stroke: #f39c12; stroke-opacity: 0.7; stroke-width: 1.2; stroke-linecap: square"/>
   </g>
   <g id="line2d_44">
    <path d="M 654.195992 125.85328 
L 790.714415 183.206537 
" clip-path="url(#p5365cc1e53)" style="fill: none; stroke: #f39c12; stroke-opacity: 0.7; stroke-width: 1.2; stroke-linecap: square"/>
   </g>
   <g id="text_20">
    <!-- atmosphere -->
    <g style="fill: #95a5a6" transform="translate(766.286222 88.94968) scale(0.08 -0.08)">
     <use xlink:href="#DejaVuSans-61"/>
     <use xlink:href="#DejaVuSans-74" transform="translate(61.279297 0)"/>
     <use xlink:href="#DejaVuSans-6d" transform="translate(100.488281 0)"/>
     <use xlink:href="#DejaVuSans-6f" transform="translate(197.900391 0)"/>
     <use xlink:href="#DejaVuSans-73" transform="translate(259.082031 0)"/>
     <use xlink:href="#DejaVuSans-70" transform="translate(311.181641 0)"/>
     <use xlink:href="#DejaVuSans-68" transform="translate(374.658203 0)"/>
     <use xlink:href="#DejaVuSans-65" transform="translate(438.037109 0)"/>
     <use xlink:href="#DejaVuSans-72" transform="translate(499.560547 0)"/>
     <use xlink:href="#DejaVuSans-65" transform="translate(538.423828 0)"/>
    </g>
   </g>
   <g id="text_21">
    <!-- ground -->
    <g style="fill: #95a5a6" transform="translate(785.981222 291.91948) scale(0.08 -0.08)">
     <defs>
      <path id="DejaVuSans-64" d="M 2906 2969 
L 2906 4863 
L 3481 4863 
L 3481 0 
L 2906 0 
L 2906 525 
Q 2725 213 2448 61 
Q 2172 -91 1784 -91 
Q 1150 -91 751 415 
Q 353 922 353 1747 
Q 353 2572 751 3078 
Q 1150 3584 1784 3584 
Q 2172 3584 2448 3432 
Q 2725 3281 2906 2969 
z
M 947 1747 
Q 947 1113 1208 752 
Q 1469 391 1925 391 
Q 2381 391 2643 752 
Q 2906 1113 2906 1747 
Q 2906 2381 2643 2742 
Q 2381 3103 1925 3103 
Q 1469 3103 1208 2742 
Q 947 2381 947 1747 
z
" transform="scale(0.015625)"/>
     </defs>
     <use xlink:href="#DejaVuSans-67"/>
     <use xlink:href="#DejaVuSans-72" transform="translate(63.476562 0)"/>
     <use xlink:href="#DejaVuSans-6f" transform="translate(102.339844 0)"/>
     <use xlink:href="#DejaVuSans-75" transform="translate(163.521484 0)"/>
     <use xlink:href="#DejaVuSans-6e" transform="translate(226.900391 0)"/>
     <use xlink:href="#DejaVuSans-64" transform="translate(290.279297 0)"/>
    </g>
   </g>
   <g id="patch_18">
    <path d="M 654.195992 83.566403 
Q 654.195992 103.70971 654.195992 121.057931 
" style="fill: none; stroke: #e74c3c; stroke-width: 2.5; stroke-linecap: round"/>
    <path d="M 656.195992 117.057931 
L 654.195992 121.057931 
L 652.195992 117.057931 
" style="fill: none; stroke: #e74c3c; stroke-width: 2.5; stroke-linecap: round"/>
   </g>
   <g id="text_22">
    <!-- primary -->
    <g style="fill: #e74c3c" transform="translate(662.005089 87.71956) scale(0.08 -0.08)">
     <use xlink:href="#DejaVuSans-70"/>
     <use xlink:href="#DejaVuSans-72" transform="translate(63.476562 0)"/>
     <use xlink:href="#DejaVuSans-69" transform="translate(104.589844 0)"/>
     <use xlink:href="#DejaVuSans-6d" transform="translate(132.373047 0)"/>
     <use xlink:href="#DejaVuSans-61" transform="translate(229.785156 0)"/>
     <use xlink:href="#DejaVuSans-72" transform="translate(291.064453 0)"/>
     <use xlink:href="#DejaVuSans-79" transform="translate(332.177734 0)"/>
    </g>
   </g>
   <g id="text_23">
    <!-- Air Shower (schematic) -->
    <g transform="translate(584.355992 61.728) scale(0.12 -0.12)">
     <defs>
      <path id="DejaVuSans-41" d="M 2188 4044 
L 1331 1722 
L 3047 1722 
L 2188 4044 
z
M 1831 4666 
L 2547 4666 
L 4325 0 
L 3669 0 
L 3244 1197 
L 1141 1197 
L 716 0 
L 50 0 
L 1831 4666 
z
" transform="scale(0.015625)"/>
      <path id="DejaVuSans-77" d="M 269 3500 
L 844 3500 
L 1563 769 
L 2278 3500 
L 2956 3500 
L 3675 769 
L 4391 3500 
L 4966 3500 
L 4050 0 
L 3372 0 
L 2619 2869 
L 1863 0 
L 1184 0 
L 269 3500 
z
" transform="scale(0.015625)"/>
     </defs>
     <use xlink:href="#DejaVuSans-41"/>
     <use xlink:href="#DejaVuSans-69" transform="translate(68.408203 0)"/>
     <use xlink:href="#DejaVuSans-72" transform="translate(96.191406 0)"/>
     <use xlink:href="#DejaVuSans-20" transform="translate(137.304688 0)"/>
     <use xlink:href="#DejaVuSans-53" transform="translate(169.091797 0)"/>
     <use xlink:href="#DejaVuSans-68" transform="translate(232.568359 0)"/>
     <use xlink:href="#DejaVuSans-6f" transform="translate(295.947266 0)"/>
     <use xlink:href="#DejaVuSans-77" transform="translate(357.128906 0)"/>
     <use xlink:href="#DejaVuSans-65" transform="translate(438.916016 0)"/>
     <use xlink:href="#DejaVuSans-72" transform="translate(500.439453 0)"/>
     <use xlink:href="#DejaVuSans-20" transform="translate(541.552734 0)"/>
     <use xlink:href="#DejaVuSans-28" transform="translate(573.339844 0)"/>
     <use xlink:href="#DejaVuSans-73" transform="translate(612.353516 0)"/>
     <use xlink:href="#DejaVuSans-63" transform="translate(664.453125 0)"/>
     <use xlink:href="#DejaVuSans-68" transform="translate(719.433594 0)"/>
     <use xlink:href="#DejaVuSans-65" transform="translate(782.8125 0)"/>
     <use xlink:href="#DejaVuSans-6d" transform="translate(844.335938 0)"/>
     <use xlink:href="#DejaVuSans-61" transform="translate(941.748047 0)"/>
     <use xlink:href="#DejaVuSans-74" transform="translate(1003.027344 0)"/>
     <use xlink:href="#DejaVuSans-69" transform="translate(1042.236328 0)"/>
     <use xlink:href="#DejaVuSans-63" transform="translate(1070.019531 0)"/>
     <use xlink:href="#DejaVuSans-29" transform="translate(1125 0)"/>
    </g>
   </g>
  </g>
  <g id="text_24">
   <!-- Cosmic Rays: Spectrum and Detection -->
   <g transform="translate(293.654969 17.837812) scale(0.14 -0.14)">
    <defs>
     <path id="DejaVuSans-43" d="M 4122 4306 
L 4122 3641 
Q 3803 3938 3442 4084 
Q 3081 4231 2675 4231 
Q 1875 4231 1450 3742 
Q 1025 3253 1025 2328 
Q 1025 1406 1450 917 
Q 1875 428 2675 428 
Q 3081 428 3442 575 
Q 3803 722 4122 1019 
L 4122 359 
Q 3791 134 3420 21 
Q 3050 -91 2638 -91 
Q 1578 -91 968 557 
Q 359 1206 359 2328 
Q 359 3453 968 4101 
Q 1578 4750 2638 4750 
Q 3056 4750 3426 4639 
Q 3797 4528 4122 4306 
z
" transform="scale(0.015625)"/>
     <path id="DejaVuSans-3a" d="M 750 794 
L 1409 794 
L 1409 0 
L 750 0 
L 750 794 
z
M 750 3309 
L 1409 3309 
L 1409 2516 
L 750 2516 
L 750 3309 
z
" transform="scale(0.015625)"/>
     <path id="DejaVuSans-44" d="M 1259 4147 
L 1259 519 
L 2022 519 
Q 2988 519 3436 956 
Q 3884 1394 3884 2338 
Q 3884 3275 3436 3711 
Q 2988 4147 2022 4147 
L 1259 4147 
z
M 628 4666 
L 1925 4666 
Q 3281 4666 3915 4102 
Q 4550 3538 4550 2338 
Q 4550 1131 3912 565 
Q 3275 0 1925 0 
L 628 0 
L 628 4666 
z
" transform="scale(0.015625)"/>
    </defs>
    <use xlink:href="#DejaVuSans-43"/>
    <use xlink:href="#DejaVuSans-6f" transform="translate(69.824219 0)"/>
    <use xlink:href="#DejaVuSans-73" transform="translate(131.005859 0)"/>
    <use xlink:href="#DejaVuSans-6d" transform="translate(183.105469 0)"/>
    <use xlink:href="#DejaVuSans-69" transform="translate(280.517578 0)"/>
    <use xlink:href="#DejaVuSans-63" transform="translate(308.300781 0)"/>
    <use xlink:href="#DejaVuSans-20" transform="translate(363.28125 0)"/>
    <use xlink:href="#DejaVuSans-52" transform="translate(395.068359 0)"/>
    <use xlink:href="#DejaVuSans-61" transform="translate(462.300781 0)"/>
    <use xlink:href="#DejaVuSans-79" transform="translate(523.580078 0)"/>
    <use xlink:href="#DejaVuSans-73" transform="translate(582.759766 0)"/>
    <use xlink:href="#DejaVuSans-3a" transform="translate(634.859375 0)"/>
    <use xlink:href="#DejaVuSans-20" transform="translate(668.550781 0)"/>
    <use xlink:href="#DejaVuSans-53" transform="translate(700.337891 0)"/>
    <use xlink:href="#DejaVuSans-70" transform="translate(763.814453 0)"/>
    <use xlink:href="#DejaVuSans-65" transform="translate(827.291016 0)"/>
    <use xlink:href="#DejaVuSans-63" transform="translate(888.814453 0)"/>
    <use xlink:href="#DejaVuSans-74" transform="translate(943.794922 0)"/>
    <use xlink:href="#DejaVuSans-72" transform="translate(983.003906 0)"/>
    <use xlink:href="#DejaVuSans-75" transform="translate(1024.117188 0)"/>
    <use xlink:href="#DejaVuSans-6d" transform="translate(1087.496094 0)"/>
    <use xlink:href="#DejaVuSans-20" transform="translate(1184.908203 0)"/>
    <use xlink:href="#DejaVuSans-61" transform="translate(1216.695312 0)"/>
    <use xlink:href="#DejaVuSans-6e" transform="translate(1277.974609 0)"/>
    <use xlink:href="#DejaVuSans-64" transform="translate(1341.353516 0)"/>
    <use xlink:href="#DejaVuSans-20" transform="translate(1404.830078 0)"/>
    <use xlink:href="#DejaVuSans-44" transform="translate(1436.617188 0)"/>
    <use xlink:href="#DejaVuSans-65" transform="translate(1513.619141 0)"/>
    <use xlink:href="#DejaVuSans-74" transform="translate(1575.142578 0)"/>
    <use xlink:href="#DejaVuSans-65" transform="translate(1614.351562 0)"/>
    <use xlink:href="#DejaVuSans-63" transform="translate(1675.875 0)"/>
    <use xlink:href="#DejaVuSans-74" transform="translate(1730.855469 0)"/>
    <use xlink:href="#DejaVuSans-69" transform="translate(1770.064453 0)"/>
    <use xlink:href="#DejaVuSans-6f" transform="translate(1797.847656 0)"/>
    <use xlink:href="#DejaVuSans-6e" transform="translate(1859.029297 0)"/>
   </g>
  </g>
 </g>
 <defs>
  <clipPath id="pac9996d359">
   <rect x="57.71375" y="71.728" width="390.454828" height="246.024"/>
  </clipPath>
  <clipPath id="p5365cc1e53">
   <rect x="458.968578" y="71.728" width="390.454828" height="246.024"/>
  </clipPath>
 </defs>
</svg>
