<?xml version="1.0" encoding="utf-8" standalone="no"?>
<!DOCTYPE svg PUBLIC "-//W3C//DTD SVG 1.1//EN"
  "http://www.w3.org/Graphics/SVG/1.1/DTD/svg11.dtd">
<svg xmlns:xlink="http://www.w3.org/1999/xlink" width="928.8pt" height="312.048pt" viewBox="0 0 928.8 312.048" xmlns="http://www.w3.org/2000/svg" version="1.1">
 <metadata>
  <rdf:RDF xmlns:dc="http://purl.org/dc/elements/1.1/" xmlns:cc="http://creativecommons.org/ns#" xmlns:rdf="http://www.w3.org/1999/02/22-rdf-syntax-ns#">
   <cc:Work>
    <dc:type rdf:resource="http://purl.org/dc/dcmitype/StillImage"/>
    <dc:date>2026-01-02T18:44:39.565292</dc:date>
    <dc:format>image/svg+xml</dc:format>
    <dc:creator>
     <cc:Agent>
      <dc:title>Matplotlib v3.10.8, https://matplotlib.org/</dc:title>
     </cc:Agent>
    </dc:creator>
   </cc:Work>
  </rdf:RDF>
 </metadata>
 <defs>
  <style type="text/css">*{stroke-linejoin: round; stroke-linecap: butt}</style>
 </defs>
 <g id="figure_1">
  <g id="patch_1">
   <path d="M 0 312.048 
L 928.8 312.048 
L 928.8 0 
L 0 0 
z
" style="fill: #ffffff"/>
  </g>
  <g id="axes_1">
   <g id="patch_2">
    <path d="M 132.192 207.893333 
C 136.532844 207.893333 140.696483 205.600001 143.765924 201.518415 
C 146.835364 197.436829 148.56 191.900234 148.56 186.128 
C 148.56 180.355766 146.835364 174.819171 143.765924 170.737585 
C 140.696483 166.655999 136.532844 164.362667 132.192 164.362667 
C 127.851156 164.362667 123.687517 166.655999 120.618076 170.737585 
C 117.548636 174.819171 115.824 180.355766 115.824 186.128 
C 115.824 191.900234 117.548636 197.436829 120.618076 201.518415 
C 123.687517 205.600001 127.851156 207.893333 132.192 207.893333 
z
" clip-path="url(#p950e2f28e8)" style="fill: #e74c3c; opacity: 0.35; stroke: #e74c3c; stroke-width: 1.5; stroke-linejoin: miter"/>
   </g>
   <g id="patch_3">
    <path d="M 179.808 207.893333 
C 184.148844 207.893333 188.312483 205.600001 191.381924 201.518415 
C 194.451364 197.436829 196.176 191.900234 196.176 186.128 
C 196.176 180.355766 194.451364 174.819171 191.381924 170.737585 
C 188.312483 166.655999 184.148844 164.362667 179.808 164.362667 
C 175.467156 164.362667 171.303517 166.655999 168.234076 170.737585 
C 165.164636 174.819171 163.44 180.355766 163.44 186.128 
C 163.44 191.900234 165.164636 197.436829 168.234076 201.518415 
C 171.303517 205.600001 175.467156 207.893333 179.808 207.893333 
z
" clip-path="url(#p950e2f28e8)" style="fill: #3498db; opacity: 0.35; stroke: #3498db; stroke-width: 1.5; stroke-linejoin: miter"/>
   </g>
   <g id="text_1">
    <!-- e⁻ -->
    <g style="fill: #2c3e50" transform="translate(125.33325 186.128) scale(0.12 -0.12)">
     <defs>
      <path id="DejaVuSans-65" d="M 3597 1894 
L 3597 1613 
L 953 1613 
Q 991 1019 1311 708 
Q 1631 397 2203 397 
Q 2534 397 2845 478 
Q 3156 559 3463 722 
L 3463 178 
Q 3153 47 2828 -22 
Q 2503 -91 2169 -91 
Q 1331 -91 842 396 
Q 353 884 353 1716 
Q 353 2575 817 3079 
Q 1281 3584 2069 3584 
Q 2775 3584 3186 3129 
Q 3597 2675 3597 1894 
z
M 3022 2063 
Q 3016 2534 2758 2815 
Q 2500 3097 2075 3097 
Q 1594 3097 1305 2825 
Q 1016 2553 972 2059 
L 3022 2063 
z
" transform="scale(0.015625)"/>
      <path id="DejaVuSans-207b" d="M 428 3359 
L 2950 3359 
L 2950 3063 
L 428 3063 
L 428 3359 
z
" transform="scale(0.015625)"/>
     </defs>
     <use xlink:href="#DejaVuSans-65"/>
     <use xlink:href="#DejaVuSans-207b" transform="translate(61.523438 0)"/>
    </g>
   </g>
   <g id="text_2">
    <!-- e⁺ -->
    <g style="fill: #2c3e50" transform="translate(172.94925 186.128) scale(0.12 -0.12)">
     <defs>
      <path id="DejaVuSans-207a" d="M 1853 4334 
L 1853 3359 
L 2950 3359 
L 2950 3063 
L 1853 3063 
L 1853 2088 
L 1525 2088 
L 1525 3063 
L 428 3063 
L 428 3359 
L 1525 3359 
L 1525 4334 
L 1853 4334 
z
" transform="scale(0.015625)"/>
     </defs>
     <use xlink:href="#DejaVuSans-65"/>
     <use xlink:href="#DejaVuSans-207a" transform="translate(61.523438 0)"/>
    </g>
   </g>
   <g id="text_3">
    <!-- ΔE·Δt ≥ ħ/2 -->
    <g style="fill: #95a5a6" transform="translate(132.594375 257.36) scale(0.08 -0.08)">
     <defs>
      <path id="DejaVuSans-394" d="M 2188 4044 
L 906 525 
L 3472 525 
L 2188 4044 
z
M 50 0 
L 1831 4666 
L 2547 4666 
L 4325 0 
L 50 0 
z
" transform="scale(0.015625)"/>
      <path id="DejaVuSans-45" d="M 628 4666 
L 3578 4666 
L 3578 4134 
L 1259 4134 
L 1259 2753 
L 3481 2753 
L 3481 2222 
L 1259 2222 
L 1259 531 
L 3634 531 
L 3634 0 
L 628 0 
L 628 4666 
z
" transform="scale(0.015625)"/>
      <path id="DejaVuSans-b7" d="M 684 2619 
L 1344 2619 
L 1344 1825 
L 684 1825 
L 684 2619 
z
" transform="scale(0.015625)"/>
      <path id="DejaVuSans-74" d="M 1172 4494 
L 1172 3500 
L 2356 3500 
L 2356 3053 
L 1172 3053 
L 1172 1153 
Q 1172 725 1289 603 
Q 1406 481 1766 481 
L 2356 481 
L 2356 0 
L 1766 0 
Q 1100 0 847 248 
Q 594 497 594 1153 
L 594 3053 
L 172 3053 
L 172 3500 
L 594 3500 
L 594 4494 
L 1172 4494 
z
" transform="scale(0.015625)"/>
      <path id="DejaVuSans-20" transform="scale(0.015625)"/>
      <path id="DejaVuSans-2265" d="M 678 3175 
L 678 3725 
L 4684 2578 
L 4684 2047 
L 678 897 
L 678 1453 
L 3681 2309 
L 678 3175 
z
M 4684 531 
L 4684 0 
L 678 0 
L 678 531 
L 4684 531 
z
" transform="scale(0.015625)"/>
      <path id="DejaVuSans-127" d="M 3697 2113 
L 3697 0 
L 3122 0 
L 3122 2094 
Q 3122 2591 2928 2837 
Q 2734 3084 2347 3084 
Q 1881 3084 1612 2787 
Q 1344 2491 1344 1978 
L 1344 0 
L 766 0 
L 766 3969 
L 375 3969 
L 375 4481 
L 766 4481 
L 766 4863 
L 1344 4863 
L 1344 4481 
L 2444 4481 
L 2444 3969 
L 1344 3969 
L 1344 2956 
Q 1550 3272 1829 3428 
Q 2109 3584 2475 3584 
Q 3078 3584 3387 3211 
Q 3697 2838 3697 2113 
z
" transform="scale(0.015625)"/>
      <path id="DejaVuSans-2f" d="M 1625 4666 
L 2156 4666 
L 531 -594 
L 0 -594 
L 1625 4666 
z
" transform="scale(0.015625)"/>
      <path id="DejaVuSans-32" d="M 1228 531 
L 3431 531 
L 3431 0 
L 469 0 
L 469 531 
Q 828 903 1448 1529 
Q 2069 2156 2228 2338 
Q 2531 2678 2651 2914 
Q 2772 3150 2772 3378 
Q 2772 3750 2511 3984 
Q 2250 4219 1831 4219 
Q 1534 4219 1204 4116 
Q 875 4013 500 3803 
L 500 4441 
Q 881 4594 1212 4672 
Q 1544 4750 1819 4750 
Q 2544 4750 2975 4387 
Q 3406 4025 3406 3419 
Q 3406 3131 3298 2873 
Q 3191 2616 2906 2266 
Q 2828 2175 2409 1742 
Q 1991 1309 1228 531 
z
" transform="scale(0.015625)"/>
     </defs>
     <use xlink:href="#DejaVuSans-394"/>
     <use xlink:href="#DejaVuSans-45" transform="translate(68.408203 0)"/>
     <use xlink:href="#DejaVuSans-b7" transform="translate(131.591797 0)"/>
     <use xlink:href="#DejaVuSans-394" transform="translate(163.378906 0)"/>
     <use xlink:href="#DejaVuSans-74" transform="translate(231.787109 0)"/>
     <use xlink:href="#DejaVuSans-20" transform="translate(270.996094 0)"/>
     <use xlink:href="#DejaVuSans-2265" transform="translate(302.783203 0)"/>
     <use xlink:href="#DejaVuSans-20" transform="translate(386.572266 0)"/>
     <use xlink:href="#DejaVuSans-127" transform="translate(418.359375 0)"/>
     <use xlink:href="#DejaVuSans-2f" transform="translate(487.841797 0)"/>
     <use xlink:href="#DejaVuSans-32" transform="translate(521.533203 0)"/>
    </g>
   </g>
   <g id="text_4">
    <!-- Virtual pairs -->
    <g transform="translate(119.746875 57.408) scale(0.12 -0.12)">
     <defs>
      <path id="DejaVuSans-56" d="M 1831 0 
L 50 4666 
L 709 4666 
L 2188 738 
L 3669 4666 
L 4325 4666 
L 2547 0 
L 1831 0 
z
" transform="scale(0.015625)"/>
      <path id="DejaVuSans-69" d="M 603 3500 
L 1178 3500 
L 1178 0 
L 603 0 
L 603 3500 
z
M 603 4863 
L 1178 4863 
L 1178 4134 
L 603 4134 
L 603 4863 
z
" transform="scale(0.015625)"/>
      <path id="DejaVuSans-72" d="M 2631 2963 
Q 2534 3019 2420 3045 
Q 2306 3072 2169 3072 
Q 1681 3072 1420 2755 
Q 1159 2438 1159 1844 
L 1159 0 
L 581 0 
L 581 3500 
L 1159 3500 
L 1159 2956 
Q 1341 3275 1631 3429 
Q 1922 3584 2338 3584 
Q 2397 3584 2469 3576 
Q 2541 3569 2628 3553 
L 2631 2963 
z
" transform="scale(0.015625)"/>
      <path id="DejaVuSans-75" d="M 544 1381 
L 544 3500 
L 1119 3500 
L 1119 1403 
Q 1119 906 1312 657 
Q 1506 409 1894 409 
Q 2359 409 2629 706 
Q 2900 1003 2900 1516 
L 2900 3500 
L 3475 3500 
L 3475 0 
L 2900 0 
L 2900 538 
Q 2691 219 2414 64 
Q 2138 -91 1772 -91 
Q 1169 -91 856 284 
Q 544 659 544 1381 
z
M 1991 3584 
L 1991 3584 
z
" transform="scale(0.015625)"/>
      <path id="DejaVuSans-61" d="M 2194 1759 
Q 1497 1759 1228 1600 
Q 959 1441 959 1056 
Q 959 750 1161 570 
Q 1363 391 1709 391 
Q 2188 391 2477 730 
Q 2766 1069 2766 1631 
L 2766 1759 
L 2194 1759 
z
M 3341 1997 
L 3341 0 
L 2766 0 
L 2766 531 
Q 2569 213 2275 61 
Q 1981 -91 1556 -91 
Q 1019 -91 701 211 
Q 384 513 384 1019 
Q 384 1609 779 1909 
Q 1175 2209 1959 2209 
L 2766 2209 
L 2766 2266 
Q 2766 2663 2505 2880 
Q 2244 3097 1772 3097 
Q 1472 3097 1187 3025 
Q 903 2953 641 2809 
L 641 3341 
Q 956 3463 1253 3523 
Q 1550 3584 1831 3584 
Q 2591 3584 2966 3190 
Q 3341 2797 3341 1997 
z
" transform="scale(0.015625)"/>
      <path id="DejaVuSans-6c" d="M 603 4863 
L 1178 4863 
L 1178 0 
L 603 0 
L 603 4863 
z
" transform="scale(0.015625)"/>
      <path id="DejaVuSans-70" d="M 1159 525 
L 1159 -1331 
L 581 -1331 
L 581 3500 
L 1159 3500 
L 1159 2969 
Q 1341 3281 1617 3432 
Q 1894 3584 2278 3584 
Q 2916 3584 3314 3078 
Q 3713 2572 3713 1747 
Q 3713 922 3314 415 
Q 2916 -91 2278 -91 
Q 1894 -91 1617 61 
Q 1341 213 1159 525 
z
M 3116 1747 
Q 3116 2381 2855 2742 
Q 2594 3103 2138 3103 
Q 1681 3103 1420 2742 
Q 1159 2381 1159 1747 
Q 1159 1113 1420 752 
Q 1681 391 2138 391 
Q 2594 391 2855 752 
Q 3116 1113 3116 1747 
z
" transform="scale(0.015625)"/>
      <path id="DejaVuSans-73" d="M 2834 3397 
L 2834 2853 
Q 2591 2978 2328 3040 
Q 2066 3103 1784 3103 
Q 1356 3103 1142 2972 
Q 928 2841 928 2578 
Q 928 2378 1081 2264 
Q 1234 2150 1697 2047 
L 1894 2003 
Q 2506 1872 2764 1633 
Q 3022 1394 3022 966 
Q 3022 478 2636 193 
Q 2250 -91 1575 -91 
Q 1294 -91 989 -36 
Q 684 19 347 128 
L 347 722 
Q 666 556 975 473 
Q 1284 391 1588 391 
Q 1994 391 2212 530 
Q 2431 669 2431 922 
Q 2431 1156 2273 1281 
Q 2116 1406 1581 1522 
L 1381 1569 
Q 847 1681 609 1914 
Q 372 2147 372 2553 
Q 372 3047 722 3315 
Q 1072 3584 1716 3584 
Q 2034 3584 2315 3537 
Q 2597 3491 2834 3397 
z
" transform="scale(0.015625)"/>
     </defs>
     <use xlink:href="#DejaVuSans-56"/>
     <use xlink:href="#DejaVuSans-69" transform="translate(66.158203 0)"/>
     <use xlink:href="#DejaVuSans-72" transform="translate(93.941406 0)"/>
     <use xlink:href="#DejaVuSans-74" transform="translate(135.054688 0)"/>
     <use xlink:href="#DejaVuSans-75" transform="translate(174.263672 0)"/>
     <use xlink:href="#DejaVuSans-61" transform="translate(237.642578 0)"/>
     <use xlink:href="#DejaVuSans-6c" transform="translate(298.921875 0)"/>
     <use xlink:href="#DejaVuSans-20" transform="translate(326.705078 0)"/>
     <use xlink:href="#DejaVuSans-70" transform="translate(358.492188 0)"/>
     <use xlink:href="#DejaVuSans-61" transform="translate(421.96875 0)"/>
     <use xlink:href="#DejaVuSans-69" transform="translate(483.248047 0)"/>
     <use xlink:href="#DejaVuSans-72" transform="translate(511.03125 0)"/>
     <use xlink:href="#DejaVuSans-73" transform="translate(552.144531 0)"/>
    </g>
   </g>
  </g>
  <g id="axes_2">
   <g id="patch_4">
    <path d="M 419.76 265.274667 
L 431.664 265.274667 
L 431.664 106.981333 
L 419.76 106.981333 
z
" clip-path="url(#pf1e6d5dcb5)" style="fill: #95a5a6; opacity: 0.25; stroke: #2c3e50; stroke-linejoin: miter"/>
   </g>
   <g id="patch_5">
    <path d="M 497.136 265.274667 
L 509.04 265.274667 
L 509.04 106.981333 
L 497.136 106.981333 
z
" clip-path="url(#pf1e6d5dcb5)" style="fill: #95a5a6; opacity: 0.25; stroke: #2c3e50; stroke-linejoin: miter"/>
   </g>
   <g id="line2d_1">
    <path d="M 345.36 249.445333 
L 583.44 249.445333 
" clip-path="url(#pf1e6d5dcb5)" style="fill: none; stroke: #ecf0f1; stroke-opacity: 0.7; stroke-linecap: square"/>
   </g>
   <g id="line2d_2">
    <path d="M 345.36 231.354667 
L 583.44 231.354667 
" clip-path="url(#pf1e6d5dcb5)" style="fill: none; stroke: #ecf0f1; stroke-opacity: 0.7; stroke-linecap: square"/>
   </g>
   <g id="line2d_3">
    <path d="M 345.36 213.264 
L 583.44 213.264 
" clip-path="url(#pf1e6d5dcb5)" style="fill: none; stroke: #ecf0f1; stroke-opacity: 0.7; stroke-linecap: square"/>
   </g>
   <g id="line2d_4">
    <path d="M 345.36 195.173333 
L 583.44 195.173333 
" clip-path="url(#pf1e6d5dcb5)" style="fill: none; stroke: #ecf0f1; stroke-opacity: 0.7; stroke-linecap: square"/>
   </g>
   <g id="line2d_5">
    <path d="M 345.36 177.082667 
L 583.44 177.082667 
" clip-path="url(#pf1e6d5dcb5)" style="fill: none; stroke: #ecf0f1; stroke-opacity: 0.7; stroke-linecap: square"/>
   </g>
   <g id="line2d_6">
    <path d="M 345.36 158.992 
L 583.44 158.992 
" clip-path="url(#pf1e6d5dcb5)" style="fill: none; stroke: #ecf0f1; stroke-opacity: 0.7; stroke-linecap: square"/>
   </g>
   <g id="line2d_7">
    <path d="M 345.36 140.901333 
L 583.44 140.901333 
" clip-path="url(#pf1e6d5dcb5)" style="fill: none; stroke: #ecf0f1; stroke-opacity: 0.7; stroke-linecap: square"/>
   </g>
   <g id="line2d_8">
    <path d="M 345.36 122.810667 
L 583.44 122.810667 
" clip-path="url(#pf1e6d5dcb5)" style="fill: none; stroke: #ecf0f1; stroke-opacity: 0.7; stroke-linecap: square"/>
   </g>
   <g id="patch_6">
    <path d="M 492.338327 186.128 
Q 465.885453 186.128 439.432579 186.128 
" style="fill: none; stroke: #f39c12; stroke-width: 2.5; stroke-linecap: round"/>
    <path d="M 488.338327 184.128 
L 492.338327 186.128 
L 488.338327 188.128 
" style="fill: none; stroke: #f39c12; stroke-width: 2.5; stroke-linecap: round"/>
    <path d="M 443.432579 188.128 
L 439.432579 186.128 
L 443.432579 184.128 
" style="fill: none; stroke: #f39c12; stroke-width: 2.5; stroke-linecap: round"/>
   </g>
   <g id="text_5">
    <!-- d -->
    <g style="fill: #f39c12" transform="translate(463.348625 172.277333) scale(0.08 -0.08)">
     <defs>
      <path id="DejaVuSans-64" d="M 2906 2969 
L 2906 4863 
L 3481 4863 
L 3481 0 
L 2906 0 
L 2906 525 
Q 2725 213 2448 61 
Q 2172 -91 1784 -91 
Q 1150 -91 751 415 
Q 353 922 353 1747 
Q 353 2572 751 3078 
Q 1150 3584 1784 3584 
Q 2172 3584 2448 3432 
Q 2725 3281 2906 2969 
z
M 947 1747 
Q 947 1113 1208 752 
Q 1469 391 1925 391 
Q 2381 391 2643 752 
Q 2906 1113 2906 1747 
Q 2906 2381 2643 2742 
Q 2381 3103 1925 3103 
Q 1469 3103 1208 2742 
Q 947 2381 947 1747 
z
" transform="scale(0.015625)"/>
     </defs>
     <use xlink:href="#DejaVuSans-64"/>
    </g>
   </g>
   <g id="text_6">
    <!-- Casimir attraction -->
    <g style="fill: #95a5a6" transform="translate(429.981125 275.168) scale(0.08 -0.08)">
     <defs>
      <path id="DejaVuSans-43" d="M 4122 4306 
L 4122 3641 
Q 3803 3938 3442 4084 
Q 3081 4231 2675 4231 
Q 1875 4231 1450 3742 
Q 1025 3253 1025 2328 
Q 1025 1406 1450 917 
Q 1875 428 2675 428 
Q 3081 428 3442 575 
Q 3803 722 4122 1019 
L 4122 359 
Q 3791 134 3420 21 
Q 3050 -91 2638 -91 
Q 1578 -91 968 557 
Q 359 1206 359 2328 
Q 359 3453 968 4101 
Q 1578 4750 2638 4750 
Q 3056 4750 3426 4639 
Q 3797 4528 4122 4306 
z
" transform="scale(0.015625)"/>
      <path id="DejaVuSans-6d" d="M 3328 2828 
Q 3544 3216 3844 3400 
Q 4144 3584 4550 3584 
Q 5097 3584 5394 3201 
Q 5691 2819 5691 2113 
L 5691 0 
L 5113 0 
L 5113 2094 
Q 5113 2597 4934 2840 
Q 4756 3084 4391 3084 
Q 3944 3084 3684 2787 
Q 3425 2491 3425 1978 
L 3425 0 
L 2847 0 
L 2847 2094 
Q 2847 2600 2669 2842 
Q 2491 3084 2119 3084 
Q 1678 3084 1418 2786 
Q 1159 2488 1159 1978 
L 1159 0 
L 581 0 
L 581 3500 
L 1159 3500 
L 1159 2956 
Q 1356 3278 1631 3431 
Q 1906 3584 2284 3584 
Q 2666 3584 2933 3390 
Q 3200 3197 3328 2828 
z
" transform="scale(0.015625)"/>
      <path id="DejaVuSans-63" d="M 3122 3366 
L 3122 2828 
Q 2878 2963 2633 3030 
Q 2388 3097 2138 3097 
Q 1578 3097 1268 2742 
Q 959 2388 959 1747 
Q 959 1106 1268 751 
Q 1578 397 2138 397 
Q 2388 397 2633 464 
Q 2878 531 3122 666 
L 3122 134 
Q 2881 22 2623 -34 
Q 2366 -91 2075 -91 
Q 1284 -91 818 406 
Q 353 903 353 1747 
Q 353 2603 823 3093 
Q 1294 3584 2113 3584 
Q 2378 3584 2631 3529 
Q 2884 3475 3122 3366 
z
" transform="scale(0.015625)"/>
      <path id="DejaVuSans-6f" d="M 1959 3097 
Q 1497 3097 1228 2736 
Q 959 2375 959 1747 
Q 959 1119 1226 758 
Q 1494 397 1959 397 
Q 2419 397 2687 759 
Q 2956 1122 2956 1747 
Q 2956 2369 2687 2733 
Q 2419 3097 1959 3097 
z
M 1959 3584 
Q 2709 3584 3137 3096 
Q 3566 2609 3566 1747 
Q 3566 888 3137 398 
Q 2709 -91 1959 -91 
Q 1206 -91 779 398 
Q 353 888 353 1747 
Q 353 2609 779 3096 
Q 1206 3584 1959 3584 
z
" transform="scale(0.015625)"/>
      <path id="DejaVuSans-6e" d="M 3513 2113 
L 3513 0 
L 2938 0 
L 2938 2094 
Q 2938 2591 2744 2837 
Q 2550 3084 2163 3084 
Q 1697 3084 1428 2787 
Q 1159 2491 1159 1978 
L 1159 0 
L 581 0 
L 581 3500 
L 1159 3500 
L 1159 2956 
Q 1366 3272 1645 3428 
Q 1925 3584 2291 3584 
Q 2894 3584 3203 3211 
Q 3513 2838 3513 2113 
z
" transform="scale(0.015625)"/>
     </defs>
     <use xlink:href="#DejaVuSans-43"/>
     <use xlink:href="#DejaVuSans-61" transform="translate(69.824219 0)"/>
     <use xlink:href="#DejaVuSans-73" transform="translate(131.103516 0)"/>
     <use xlink:href="#DejaVuSans-69" transform="translate(183.203125 0)"/>
     <use xlink:href="#DejaVuSans-6d" transform="translate(210.986328 0)"/>
     <use xlink:href="#DejaVuSans-69" transform="translate(308.398438 0)"/>
     <use xlink:href="#DejaVuSans-72" transform="translate(336.181641 0)"/>
     <use xlink:href="#DejaVuSans-20" transform="translate(377.294922 0)"/>
     <use xlink:href="#DejaVuSans-61" transform="translate(409.082031 0)"/>
     <use xlink:href="#DejaVuSans-74" transform="translate(470.361328 0)"/>
     <use xlink:href="#DejaVuSans-74" transform="translate(509.570312 0)"/>
     <use xlink:href="#DejaVuSans-72" transform="translate(548.779297 0)"/>
     <use xlink:href="#DejaVuSans-61" transform="translate(589.892578 0)"/>
     <use xlink:href="#DejaVuSans-63" transform="translate(651.171875 0)"/>
     <use xlink:href="#DejaVuSans-74" transform="translate(706.152344 0)"/>
     <use xlink:href="#DejaVuSans-69" transform="translate(745.361328 0)"/>
     <use xlink:href="#DejaVuSans-6f" transform="translate(773.144531 0)"/>
     <use xlink:href="#DejaVuSans-6e" transform="translate(834.326172 0)"/>
    </g>
   </g>
   <g id="text_7">
    <!-- Casimir effect -->
    <g transform="translate(422.596875 57.408) scale(0.12 -0.12)">
     <defs>
      <path id="DejaVuSans-66" d="M 2375 4863 
L 2375 4384 
L 1825 4384 
Q 1516 4384 1395 4259 
Q 1275 4134 1275 3809 
L 1275 3500 
L 2222 3500 
L 2222 3053 
L 1275 3053 
L 1275 0 
L 697 0 
L 697 3053 
L 147 3053 
L 147 3500 
L 697 3500 
L 697 3744 
Q 697 4328 969 4595 
Q 1241 4863 1831 4863 
L 2375 4863 
z
" transform="scale(0.015625)"/>
     </defs>
     <use xlink:href="#DejaVuSans-43"/>
     <use xlink:href="#DejaVuSans-61" transform="translate(69.824219 0)"/>
     <use xlink:href="#DejaVuSans-73" transform="translate(131.103516 0)"/>
     <use xlink:href="#DejaVuSans-69" transform="translate(183.203125 0)"/>
     <use xlink:href="#DejaVuSans-6d" transform="translate(210.986328 0)"/>
     <use xlink:href="#DejaVuSans-69" transform="translate(308.398438 0)"/>
     <use xlink:href="#DejaVuSans-72" transform="translate(336.181641 0)"/>
     <use xlink:href="#DejaVuSans-20" transform="translate(377.294922 0)"/>
     <use xlink:href="#DejaVuSans-65" transform="translate(409.082031 0)"/>
     <use xlink:href="#DejaVuSans-66" transform="translate(470.605469 0)"/>
     <use xlink:href="#DejaVuSans-66" transform="translate(505.810547 0)"/>
     <use xlink:href="#DejaVuSans-65" transform="translate(541.015625 0)"/>
     <use xlink:href="#DejaVuSans-63" transform="translate(602.539062 0)"/>
     <use xlink:href="#DejaVuSans-74" transform="translate(657.519531 0)"/>
    </g>
   </g>
  </g>
  <g id="axes_3">
   <g id="patch_7">
    <path d="M 772.8 233.616 
C 782.270933 233.616 791.355236 228.612365 798.052197 219.707087 
C 804.749158 210.801809 808.512 198.721965 808.512 186.128 
C 808.512 173.534035 804.749158 161.454191 798.052197 152.548913 
C 791.355236 143.643635 782.270933 138.64 772.8 138.64 
C 763.329067 138.64 754.244764 143.643635 747.547803 152.548913 
C 740.850842 161.454191 737.088 173.534035 737.088 186.128 
C 737.088 198.721965 740.850842 210.801809 747.547803 219.707087 
C 754.244764 228.612365 763.329067 233.616 772.8 233.616 
z
" clip-path="url(#p7e6417e3db)" style="opacity: 0.25; stroke: #000000; stroke-linejoin: miter"/>
   </g>
   <g id="patch_8">
    <path d="M 748.992 180.192 
C 751.754355 180.192 754.403944 178.732606 756.357224 176.135234 
C 758.310505 173.537861 759.408 170.014573 759.408 166.341333 
C 759.408 162.668094 758.310505 159.144806 756.357224 156.547433 
C 754.403944 153.95006 751.754355 152.490667 748.992 152.490667 
C 746.229645 152.490667 743.580056 153.95006 741.626776 156.547433 
C 739.673495 159.144806 738.576 162.668094 738.576 166.341333 
C 738.576 170.014573 739.673495 173.537861 741.626776 176.135234 
C 743.580056 178.732606 746.229645 180.192 748.992 180.192 
z
" clip-path="url(#p7e6417e3db)" style="fill: #3498db; opacity: 0.35; stroke: #3498db; stroke-width: 1.5; stroke-linejoin: miter"/>
   </g>
   <g id="patch_9">
    <path d="M 796.608 219.765333 
C 799.370355 219.765333 802.019944 218.30594 803.973224 215.708567 
C 805.926505 213.111194 807.024 209.587906 807.024 205.914667 
C 807.024 202.241427 805.926505 198.718139 803.973224 196.120766 
C 802.019944 193.523394 799.370355 192.064 796.608 192.064 
C 793.845645 192.064 791.196056 193.523394 789.242776 196.120766 
C 787.289495 198.718139 786.192 202.241427 786.192 205.914667 
C 786.192 209.587906 787.289495 213.111194 789.242776 215.708567 
C 791.196056 218.30594 793.845645 219.765333 796.608 219.765333 
z
" clip-path="url(#p7e6417e3db)" style="fill: #e74c3c; opacity: 0.35; stroke: #e74c3c; stroke-width: 1.5; stroke-linejoin: miter"/>
   </g>
   <g id="line2d_9">
    <path d="M 772.8 253.402667 
L 772.8 118.853333 
" clip-path="url(#p7e6417e3db)" style="fill: none; stroke: #2c3e50; stroke-width: 2.5; stroke-linecap: square"/>
   </g>
   <g id="patch_10">
    <path d="M 810.514406 205.914667 
Q 832.320343 205.914667 851.331195 205.914667 
" style="fill: none; stroke: #e74c3c; stroke-width: 2.5; stroke-linecap: round"/>
    <path d="M 847.331195 203.914667 
L 851.331195 205.914667 
L 847.331195 207.914667 
" style="fill: none; stroke: #e74c3c; stroke-width: 2.5; stroke-linecap: round"/>
   </g>
   <g id="text_8">
    <!-- out -->
    <g style="fill: #e74c3c" transform="translate(862.08 208.122167) scale(0.08 -0.08)">
     <use xlink:href="#DejaVuSans-6f"/>
     <use xlink:href="#DejaVuSans-75" transform="translate(61.181641 0)"/>
     <use xlink:href="#DejaVuSans-74" transform="translate(124.560547 0)"/>
    </g>
   </g>
   <g id="text_9">
    <!-- one falls in -->
    <g style="fill: #95a5a6" transform="translate(722.208 257.36) scale(0.08 -0.08)">
     <use xlink:href="#DejaVuSans-6f"/>
     <use xlink:href="#DejaVuSans-6e" transform="translate(61.181641 0)"/>
     <use xlink:href="#DejaVuSans-65" transform="translate(124.560547 0)"/>
     <use xlink:href="#DejaVuSans-20" transform="translate(186.083984 0)"/>
     <use xlink:href="#DejaVuSans-66" transform="translate(217.871094 0)"/>
     <use xlink:href="#DejaVuSans-61" transform="translate(253.076172 0)"/>
     <use xlink:href="#DejaVuSans-6c" transform="translate(314.355469 0)"/>
     <use xlink:href="#DejaVuSans-6c" transform="translate(342.138672 0)"/>
     <use xlink:href="#DejaVuSans-73" transform="translate(369.921875 0)"/>
     <use xlink:href="#DejaVuSans-20" transform="translate(422.021484 0)"/>
     <use xlink:href="#DejaVuSans-69" transform="translate(453.808594 0)"/>
     <use xlink:href="#DejaVuSans-6e" transform="translate(481.591797 0)"/>
    </g>
   </g>
   <g id="text_10">
    <!-- Hawking radiation -->
    <g transform="translate(718.255312 57.408) scale(0.12 -0.12)">
     <defs>
      <path id="DejaVuSans-48" d="M 628 4666 
L 1259 4666 
L 1259 2753 
L 3553 2753 
L 3553 4666 
L 4184 4666 
L 4184 0 
L 3553 0 
L 3553 2222 
L 1259 2222 
L 1259 0 
L 628 0 
L 628 4666 
z
" transform="scale(0.015625)"/>
      <path id="DejaVuSans-77" d="M 269 3500 
L 844 3500 
L 1563 769 
L 2278 3500 
L 2956 3500 
L 3675 769 
L 4391 3500 
L 4966 3500 
L 4050 0 
L 3372 0 
L 2619 2869 
L 1863 0 
L 1184 0 
L 269 3500 
z
" transform="scale(0.015625)"/>
      <path id="DejaVuSans-6b" d="M 581 4863 
L 1159 4863 
L 1159 1991 
L 2875 3500 
L 3609 3500 
L 1753 1863 
L 3688 0 
L 2938 0 
L 1159 1709 
L 1159 0 
L 581 0 
L 581 4863 
z
" transform="scale(0.015625)"/>
      <path id="DejaVuSans-67" d="M 2906 1791 
Q 2906 2416 2648 2759 
Q 2391 3103 1925 3103 
Q 1463 3103 1205 2759 
Q 947 2416 947 1791 
Q 947 1169 1205 825 
Q 1463 481 1925 481 
Q 2391 481 2648 825 
Q 2906 1169 2906 1791 
z
M 3481 434 
Q 3481 -459 3084 -895 
Q 2688 -1331 1869 -1331 
Q 1566 -1331 1297 -1286 
Q 1028 -1241 775 -1147 
L 775 -588 
Q 1028 -725 1275 -790 
Q 1522 -856 1778 -856 
Q 2344 -856 2625 -561 
Q 2906 -266 2906 331 
L 2906 616 
Q 2728 306 2450 153 
Q 2172 0 1784 0 
Q 1141 0 747 490 
Q 353 981 353 1791 
Q 353 2603 747 3093 
Q 1141 3584 1784 3584 
Q 2172 3584 2450 3431 
Q 2728 3278 2906 2969 
L 2906 3500 
L 3481 3500 
L 3481 434 
z
" transform="scale(0.015625)"/>
     </defs>
     <use xlink:href="#DejaVuSans-48"/>
     <use xlink:href="#DejaVuSans-61" transform="translate(75.195312 0)"/>
     <use xlink:href="#DejaVuSans-77" transform="translate(136.474609 0)"/>
     <use xlink:href="#DejaVuSans-6b" transform="translate(218.261719 0)"/>
     <use xlink:href="#DejaVuSans-69" transform="translate(276.171875 0)"/>
     <use xlink:href="#DejaVuSans-6e" transform="translate(303.955078 0)"/>
     <use xlink:href="#DejaVuSans-67" transform="translate(367.333984 0)"/>
     <use xlink:href="#DejaVuSans-20" transform="translate(430.810547 0)"/>
     <use xlink:href="#DejaVuSans-72" transform="translate(462.597656 0)"/>
     <use xlink:href="#DejaVuSans-61" transform="translate(503.710938 0)"/>
     <use xlink:href="#DejaVuSans-64" transform="translate(564.990234 0)"/>
     <use xlink:href="#DejaVuSans-69" transform="translate(628.466797 0)"/>
     <use xlink:href="#DejaVuSans-61" transform="translate(656.25 0)"/>
     <use xlink:href="#DejaVuSans-74" transform="translate(717.529297 0)"/>
     <use xlink:href="#DejaVuSans-69" transform="translate(756.738281 0)"/>
     <use xlink:href="#DejaVuSans-6f" transform="translate(784.521484 0)"/>
     <use xlink:href="#DejaVuSans-6e" transform="translate(845.703125 0)"/>
    </g>
   </g>
  </g>
  <g id="text_11">
   <!-- Vacuum Fluctuations: Observable Consequences -->
   <g transform="translate(293.609844 17.837813) scale(0.14 -0.14)">
    <defs>
     <path id="DejaVuSans-46" d="M 628 4666 
L 3309 4666 
L 3309 4134 
L 1259 4134 
L 1259 2759 
L 3109 2759 
L 3109 2228 
L 1259 2228 
L 1259 0 
L 628 0 
L 628 4666 
z
" transform="scale(0.015625)"/>
     <path id="DejaVuSans-3a" d="M 750 794 
L 1409 794 
L 1409 0 
L 750 0 
L 750 794 
z
M 750 3309 
L 1409 3309 
L 1409 2516 
L 750 2516 
L 750 3309 
z
" transform="scale(0.015625)"/>
     <path id="DejaVuSans-4f" d="M 2522 4238 
Q 1834 4238 1429 3725 
Q 1025 3213 1025 2328 
Q 1025 1447 1429 934 
Q 1834 422 2522 422 
Q 3209 422 3611 934 
Q 4013 1447 4013 2328 
Q 4013 3213 3611 3725 
Q 3209 4238 2522 4238 
z
M 2522 4750 
Q 3503 4750 4090 4092 
Q 4678 3434 4678 2328 
Q 4678 1225 4090 567 
Q 3503 -91 2522 -91 
Q 1538 -91 948 565 
Q 359 1222 359 2328 
Q 359 3434 948 4092 
Q 1538 4750 2522 4750 
z
" transform="scale(0.015625)"/>
     <path id="DejaVuSans-62" d="M 3116 1747 
Q 3116 2381 2855 2742 
Q 2594 3103 2138 3103 
Q 1681 3103 1420 2742 
Q 1159 2381 1159 1747 
Q 1159 1113 1420 752 
Q 1681 391 2138 391 
Q 2594 391 2855 752 
Q 3116 1113 3116 1747 
z
M 1159 2969 
Q 1341 3281 1617 3432 
Q 1894 3584 2278 3584 
Q 2916 3584 3314 3078 
Q 3713 2572 3713 1747 
Q 3713 922 3314 415 
Q 2916 -91 2278 -91 
Q 1894 -91 1617 61 
Q 1341 213 1159 525 
L 1159 0 
L 581 0 
L 581 4863 
L 1159 4863 
L 1159 2969 
z
" transform="scale(0.015625)"/>
     <path id="DejaVuSans-76" d="M 191 3500 
L 800 3500 
L 1894 563 
L 2988 3500 
L 3597 3500 
L 2284 0 
L 1503 0 
L 191 3500 
z
" transform="scale(0.015625)"/>
     <path id="DejaVuSans-71" d="M 947 1747 
Q 947 1113 1208 752 
Q 1469 391 1925 391 
Q 2381 391 2643 752 
Q 2906 1113 2906 1747 
Q 2906 2381 2643 2742 
Q 2381 3103 1925 3103 
Q 1469 3103 1208 2742 
Q 947 2381 947 1747 
z
M 2906 525 
Q 2725 213 2448 61 
Q 2172 -91 1784 -91 
Q 1150 -91 751 415 
Q 353 922 353 1747 
Q 353 2572 751 3078 
Q 1150 3584 1784 3584 
Q 2172 3584 2448 3432 
Q 2725 3281 2906 2969 
L 2906 3500 
L 3481 3500 
L 3481 -1331 
L 2906 -1331 
L 2906 525 
z
" transform="scale(0.015625)"/>
    </defs>
    <use xlink:href="#DejaVuSans-56"/>
    <use xlink:href="#DejaVuSans-61" transform="translate(60.658203 0)"/>
    <use xlink:href="#DejaVuSans-63" transform="translate(121.9375 0)"/>
    <use xlink:href="#DejaVuSans-75" transform="translate(176.917969 0)"/>
    <use xlink:href="#DejaVuSans-75" transform="translate(240.296875 0)"/>
    <use xlink:href="#DejaVuSans-6d" transform="translate(303.675781 0)"/>
    <use xlink:href="#DejaVuSans-20" transform="translate(401.087891 0)"/>
    <use xlink:href="#DejaVuSans-46" transform="translate(432.875 0)"/>
    <use xlink:href="#DejaVuSans-6c" transform="translate(490.394531 0)"/>
    <use xlink:href="#DejaVuSans-75" transform="translate(518.177734 0)"/>
    <use xlink:href="#DejaVuSans-63" transform="translate(581.556641 0)"/>
    <use xlink:href="#DejaVuSans-74" transform="translate(636.537109 0)"/>
    <use xlink:href="#DejaVuSans-75" transform="translate(675.746094 0)"/>
    <use xlink:href="#DejaVuSans-61" transform="translate(739.125 0)"/>
    <use xlink:href="#DejaVuSans-74" transform="translate(800.404297 0)"/>
    <use xlink:href="#DejaVuSans-69" transform="translate(839.613281 0)"/>
    <use xlink:href="#DejaVuSans-6f" transform="translate(867.396484 0)"/>
    <use xlink:href="#DejaVuSans-6e" transform="translate(928.578125 0)"/>
    <use xlink:href="#DejaVuSans-73" transform="translate(991.957031 0)"/>
    <use xlink:href="#DejaVuSans-3a" transform="translate(1044.056641 0)"/>
    <use xlink:href="#DejaVuSans-20" transform="translate(1077.748047 0)"/>
    <use xlink:href="#DejaVuSans-4f" transform="translate(1109.535156 0)"/>
    <use xlink:href="#DejaVuSans-62" transform="translate(1188.246094 0)"/>
    <use xlink:href="#DejaVuSans-73" transform="translate(1251.722656 0)"/>
    <use xlink:href="#DejaVuSans-65" transform="translate(1303.822266 0)"/>
    <use xlink:href="#DejaVuSans-72" transform="translate(1365.345703 0)"/>
    <use xlink:href="#DejaVuSans-76" transform="translate(1406.458984 0)"/>
    <use xlink:href="#DejaVuSans-61" transform="translate(1465.638672 0)"/>
    <use xlink:href="#DejaVuSans-62" transform="translate(1526.917969 0)"/>
    <use xlink:href="#DejaVuSans-6c" transform="translate(1590.394531 0)"/>
    <use xlink:href="#DejaVuSans-65" transform="translate(1618.177734 0)"/>
    <use xlink:href="#DejaVuSans-20" transform="translate(1679.701172 0)"/>
    <use xlink:href="#DejaVuSans-43" transform="translate(1711.488281 0)"/>
    <use xlink:href="#DejaVuSans-6f" transform="translate(1781.3125 0)"/>
    <use xlink:href="#DejaVuSans-6e" transform="translate(1842.494141 0)"/>
    <use xlink:href="#DejaVuSans-73" transform="translate(1905.873047 0)"/>
    <use xlink:href="#DejaVuSans-65" transform="translate(1957.972656 0)"/>
    <use xlink:href="#DejaVuSans-71" transform="translate(2019.496094 0)"/>
    <use xlink:href="#DejaVuSans-75" transform="translate(2082.972656 0)"/>
    <use xlink:href="#DejaVuSans-65" transform="translate(2146.351562 0)"/>
    <use xlink:href="#DejaVuSans-6e" transform="translate(2207.875 0)"/>
    <use xlink:href="#DejaVuSans-63" transform="translate(2271.253906 0)"/>
    <use xlink:href="#DejaVuSans-65" transform="translate(2326.234375 0)"/>
    <use xlink:href="#DejaVuSans-73" transform="translate(2387.757812 0)"/>
   </g>
  </g>
 </g>
 <defs>
  <clipPath id="p950e2f28e8">
   <rect x="7.2" y="67.408" width="297.6" height="237.44"/>
  </clipPath>
  <clipPath id="pf1e6d5dcb5">
   <rect x="315.6" y="67.408" width="297.6" height="237.44"/>
  </clipPath>
  <clipPath id="p7e6417e3db">
   <rect x="624" y="67.408" width="297.6" height="237.44"/>
  </clipPath>
 </defs>
</svg>
