<?xml version="1.0" encoding="utf-8" standalone="no"?>
<!DOCTYPE svg PUBLIC "-//W3C//DTD SVG 1.1//EN"
  "http://www.w3.org/Graphics/SVG/1.1/DTD/svg11.dtd">
<svg xmlns:xlink="http://www.w3.org/1999/xlink" width="396.84pt" height="422.477813pt" viewBox="0 0 396.84 422.477813" xmlns="http://www.w3.org/2000/svg" version="1.1">
 <metadata>
  <rdf:RDF xmlns:dc="http://purl.org/dc/elements/1.1/" xmlns:cc="http://creativecommons.org/ns#" xmlns:rdf="http://www.w3.org/1999/02/22-rdf-syntax-ns#">
   <cc:Work>
    <dc:type rdf:resource="http://purl.org/dc/dcmitype/StillImage"/>
    <dc:date>2026-01-10T12:06:52.547173</dc:date>
    <dc:format>image/svg+xml</dc:format>
    <dc:creator>
     <cc:Agent>
      <dc:title>Matplotlib v3.10.8, https://matplotlib.org/</dc:title>
     </cc:Agent>
    </dc:creator>
   </cc:Work>
  </rdf:RDF>
 </metadata>
 <defs>
  <style type="text/css">*{stroke-linejoin: round; stroke-linecap: butt}</style>
 </defs>
 <g id="figure_1">
  <g id="patch_1">
   <path d="M 0 422.477813 
L 396.84 422.477813 
L 396.84 0 
L 0 0 
z
" style="fill: #ffffff"/>
  </g>
  <g id="axes_1">
   <g id="patch_2">
    <path d="M 198.42 290.984813 
C 223.776068 290.984813 248.097031 280.91074 266.026479 262.981292 
C 283.955927 245.051844 294.03 220.730881 294.03 195.374813 
C 294.03 170.018744 283.955927 145.697781 266.026479 127.768333 
C 248.097031 109.838885 223.776068 99.764813 198.42 99.764813 
C 173.063932 99.764813 148.742969 109.838885 130.813521 127.768333 
C 112.884073 145.697781 102.81 170.018744 102.81 195.374813 
C 102.81 220.730881 112.884073 245.051844 130.813521 262.981292 
C 148.742969 280.91074 173.063932 290.984813 198.42 290.984813 
L 198.42 290.984813 
z
" clip-path="url(#p31351951da)" style="fill: none; stroke: #27ae60; stroke-width: 2; stroke-linejoin: miter"/>
   </g>
   <g id="text_1">
    <!-- Two protons, two neutrons, two electrons -->
    <g transform="translate(85.268672 322.703125) scale(0.11 -0.11)">
     <defs>
      <path id="DejaVuSans-54" d="M -19 4666 
L 3928 4666 
L 3928 4134 
L 2272 4134 
L 2272 0 
L 1638 0 
L 1638 4134 
L -19 4134 
L -19 4666 
z
" transform="scale(0.015625)"/>
      <path id="DejaVuSans-77" d="M 269 3500 
L 844 3500 
L 1563 769 
L 2278 3500 
L 2956 3500 
L 3675 769 
L 4391 3500 
L 4966 3500 
L 4050 0 
L 3372 0 
L 2619 2869 
L 1863 0 
L 1184 0 
L 269 3500 
z
" transform="scale(0.015625)"/>
      <path id="DejaVuSans-6f" d="M 1959 3097 
Q 1497 3097 1228 2736 
Q 959 2375 959 1747 
Q 959 1119 1226 758 
Q 1494 397 1959 397 
Q 2419 397 2687 759 
Q 2956 1122 2956 1747 
Q 2956 2369 2687 2733 
Q 2419 3097 1959 3097 
z
M 1959 3584 
Q 2709 3584 3137 3096 
Q 3566 2609 3566 1747 
Q 3566 888 3137 398 
Q 2709 -91 1959 -91 
Q 1206 -91 779 398 
Q 353 888 353 1747 
Q 353 2609 779 3096 
Q 1206 3584 1959 3584 
z
" transform="scale(0.015625)"/>
      <path id="DejaVuSans-20" transform="scale(0.015625)"/>
      <path id="DejaVuSans-70" d="M 1159 525 
L 1159 -1331 
L 581 -1331 
L 581 3500 
L 1159 3500 
L 1159 2969 
Q 1341 3281 1617 3432 
Q 1894 3584 2278 3584 
Q 2916 3584 3314 3078 
Q 3713 2572 3713 1747 
Q 3713 922 3314 415 
Q 2916 -91 2278 -91 
Q 1894 -91 1617 61 
Q 1341 213 1159 525 
z
M 3116 1747 
Q 3116 2381 2855 2742 
Q 2594 3103 2138 3103 
Q 1681 3103 1420 2742 
Q 1159 2381 1159 1747 
Q 1159 1113 1420 752 
Q 1681 391 2138 391 
Q 2594 391 2855 752 
Q 3116 1113 3116 1747 
z
" transform="scale(0.015625)"/>
      <path id="DejaVuSans-72" d="M 2631 2963 
Q 2534 3019 2420 3045 
Q 2306 3072 2169 3072 
Q 1681 3072 1420 2755 
Q 1159 2438 1159 1844 
L 1159 0 
L 581 0 
L 581 3500 
L 1159 3500 
L 1159 2956 
Q 1341 3275 1631 3429 
Q 1922 3584 2338 3584 
Q 2397 3584 2469 3576 
Q 2541 3569 2628 3553 
L 2631 2963 
z
" transform="scale(0.015625)"/>
      <path id="DejaVuSans-74" d="M 1172 4494 
L 1172 3500 
L 2356 3500 
L 2356 3053 
L 1172 3053 
L 1172 1153 
Q 1172 725 1289 603 
Q 1406 481 1766 481 
L 2356 481 
L 2356 0 
L 1766 0 
Q 1100 0 847 248 
Q 594 497 594 1153 
L 594 3053 
L 172 3053 
L 172 3500 
L 594 3500 
L 594 4494 
L 1172 4494 
z
" transform="scale(0.015625)"/>
      <path id="DejaVuSans-6e" d="M 3513 2113 
L 3513 0 
L 2938 0 
L 2938 2094 
Q 2938 2591 2744 2837 
Q 2550 3084 2163 3084 
Q 1697 3084 1428 2787 
Q 1159 2491 1159 1978 
L 1159 0 
L 581 0 
L 581 3500 
L 1159 3500 
L 1159 2956 
Q 1366 3272 1645 3428 
Q 1925 3584 2291 3584 
Q 2894 3584 3203 3211 
Q 3513 2838 3513 2113 
z
" transform="scale(0.015625)"/>
      <path id="DejaVuSans-73" d="M 2834 3397 
L 2834 2853 
Q 2591 2978 2328 3040 
Q 2066 3103 1784 3103 
Q 1356 3103 1142 2972 
Q 928 2841 928 2578 
Q 928 2378 1081 2264 
Q 1234 2150 1697 2047 
L 1894 2003 
Q 2506 1872 2764 1633 
Q 3022 1394 3022 966 
Q 3022 478 2636 193 
Q 2250 -91 1575 -91 
Q 1294 -91 989 -36 
Q 684 19 347 128 
L 347 722 
Q 666 556 975 473 
Q 1284 391 1588 391 
Q 1994 391 2212 530 
Q 2431 669 2431 922 
Q 2431 1156 2273 1281 
Q 2116 1406 1581 1522 
L 1381 1569 
Q 847 1681 609 1914 
Q 372 2147 372 2553 
Q 372 3047 722 3315 
Q 1072 3584 1716 3584 
Q 2034 3584 2315 3537 
Q 2597 3491 2834 3397 
z
" transform="scale(0.015625)"/>
      <path id="DejaVuSans-2c" d="M 750 794 
L 1409 794 
L 1409 256 
L 897 -744 
L 494 -744 
L 750 256 
L 750 794 
z
" transform="scale(0.015625)"/>
      <path id="DejaVuSans-65" d="M 3597 1894 
L 3597 1613 
L 953 1613 
Q 991 1019 1311 708 
Q 1631 397 2203 397 
Q 2534 397 2845 478 
Q 3156 559 3463 722 
L 3463 178 
Q 3153 47 2828 -22 
Q 2503 -91 2169 -91 
Q 1331 -91 842 396 
Q 353 884 353 1716 
Q 353 2575 817 3079 
Q 1281 3584 2069 3584 
Q 2775 3584 3186 3129 
Q 3597 2675 3597 1894 
z
M 3022 2063 
Q 3016 2534 2758 2815 
Q 2500 3097 2075 3097 
Q 1594 3097 1305 2825 
Q 1016 2553 972 2059 
L 3022 2063 
z
" transform="scale(0.015625)"/>
      <path id="DejaVuSans-75" d="M 544 1381 
L 544 3500 
L 1119 3500 
L 1119 1403 
Q 1119 906 1312 657 
Q 1506 409 1894 409 
Q 2359 409 2629 706 
Q 2900 1003 2900 1516 
L 2900 3500 
L 3475 3500 
L 3475 0 
L 2900 0 
L 2900 538 
Q 2691 219 2414 64 
Q 2138 -91 1772 -91 
Q 1169 -91 856 284 
Q 544 659 544 1381 
z
M 1991 3584 
L 1991 3584 
z
" transform="scale(0.015625)"/>
      <path id="DejaVuSans-6c" d="M 603 4863 
L 1178 4863 
L 1178 0 
L 603 0 
L 603 4863 
z
" transform="scale(0.015625)"/>
      <path id="DejaVuSans-63" d="M 3122 3366 
L 3122 2828 
Q 2878 2963 2633 3030 
Q 2388 3097 2138 3097 
Q 1578 3097 1268 2742 
Q 959 2388 959 1747 
Q 959 1106 1268 751 
Q 1578 397 2138 397 
Q 2388 397 2633 464 
Q 2878 531 3122 666 
L 3122 134 
Q 2881 22 2623 -34 
Q 2366 -91 2075 -91 
Q 1284 -91 818 406 
Q 353 903 353 1747 
Q 353 2603 823 3093 
Q 1294 3584 2113 3584 
Q 2378 3584 2631 3529 
Q 2884 3475 3122 3366 
z
" transform="scale(0.015625)"/>
     </defs>
     <use xlink:href="#DejaVuSans-54"/>
     <use xlink:href="#DejaVuSans-77" transform="translate(44.583984 0)"/>
     <use xlink:href="#DejaVuSans-6f" transform="translate(126.371094 0)"/>
     <use xlink:href="#DejaVuSans-20" transform="translate(187.552734 0)"/>
     <use xlink:href="#DejaVuSans-70" transform="translate(219.339844 0)"/>
     <use xlink:href="#DejaVuSans-72" transform="translate(282.816406 0)"/>
     <use xlink:href="#DejaVuSans-6f" transform="translate(321.679688 0)"/>
     <use xlink:href="#DejaVuSans-74" transform="translate(382.861328 0)"/>
     <use xlink:href="#DejaVuSans-6f" transform="translate(422.070312 0)"/>
     <use xlink:href="#DejaVuSans-6e" transform="translate(483.251953 0)"/>
     <use xlink:href="#DejaVuSans-73" transform="translate(546.630859 0)"/>
     <use xlink:href="#DejaVuSans-2c" transform="translate(598.730469 0)"/>
     <use xlink:href="#DejaVuSans-20" transform="translate(630.517578 0)"/>
     <use xlink:href="#DejaVuSans-74" transform="translate(662.304688 0)"/>
     <use xlink:href="#DejaVuSans-77" transform="translate(701.513672 0)"/>
     <use xlink:href="#DejaVuSans-6f" transform="translate(783.300781 0)"/>
     <use xlink:href="#DejaVuSans-20" transform="translate(844.482422 0)"/>
     <use xlink:href="#DejaVuSans-6e" transform="translate(876.269531 0)"/>
     <use xlink:href="#DejaVuSans-65" transform="translate(939.648438 0)"/>
     <use xlink:href="#DejaVuSans-75" transform="translate(1001.171875 0)"/>
     <use xlink:href="#DejaVuSans-74" transform="translate(1064.550781 0)"/>
     <use xlink:href="#DejaVuSans-72" transform="translate(1103.759766 0)"/>
     <use xlink:href="#DejaVuSans-6f" transform="translate(1142.623047 0)"/>
     <use xlink:href="#DejaVuSans-6e" transform="translate(1203.804688 0)"/>
     <use xlink:href="#DejaVuSans-73" transform="translate(1267.183594 0)"/>
     <use xlink:href="#DejaVuSans-2c" transform="translate(1319.283203 0)"/>
     <use xlink:href="#DejaVuSans-20" transform="translate(1351.070312 0)"/>
     <use xlink:href="#DejaVuSans-74" transform="translate(1382.857422 0)"/>
     <use xlink:href="#DejaVuSans-77" transform="translate(1422.066406 0)"/>
     <use xlink:href="#DejaVuSans-6f" transform="translate(1503.853516 0)"/>
     <use xlink:href="#DejaVuSans-20" transform="translate(1565.035156 0)"/>
     <use xlink:href="#DejaVuSans-65" transform="translate(1596.822266 0)"/>
     <use xlink:href="#DejaVuSans-6c" transform="translate(1658.345703 0)"/>
     <use xlink:href="#DejaVuSans-65" transform="translate(1686.128906 0)"/>
     <use xlink:href="#DejaVuSans-63" transform="translate(1747.652344 0)"/>
     <use xlink:href="#DejaVuSans-74" transform="translate(1802.632812 0)"/>
     <use xlink:href="#DejaVuSans-72" transform="translate(1841.841797 0)"/>
     <use xlink:href="#DejaVuSans-6f" transform="translate(1880.705078 0)"/>
     <use xlink:href="#DejaVuSans-6e" transform="translate(1941.886719 0)"/>
     <use xlink:href="#DejaVuSans-73" transform="translate(2005.265625 0)"/>
    </g>
   </g>
   <g id="text_2">
    <!-- Full 1s shell → chemically inert -->
    <g style="fill: #27ae60" transform="translate(121.868438 354.297188) scale(0.1 -0.1)">
     <defs>
      <path id="DejaVuSans-46" d="M 628 4666 
L 3309 4666 
L 3309 4134 
L 1259 4134 
L 1259 2759 
L 3109 2759 
L 3109 2228 
L 1259 2228 
L 1259 0 
L 628 0 
L 628 4666 
z
" transform="scale(0.015625)"/>
      <path id="DejaVuSans-31" d="M 794 531 
L 1825 531 
L 1825 4091 
L 703 3866 
L 703 4441 
L 1819 4666 
L 2450 4666 
L 2450 531 
L 3481 531 
L 3481 0 
L 794 0 
L 794 531 
z
" transform="scale(0.015625)"/>
      <path id="DejaVuSans-68" d="M 3513 2113 
L 3513 0 
L 2938 0 
L 2938 2094 
Q 2938 2591 2744 2837 
Q 2550 3084 2163 3084 
Q 1697 3084 1428 2787 
Q 1159 2491 1159 1978 
L 1159 0 
L 581 0 
L 581 4863 
L 1159 4863 
L 1159 2956 
Q 1366 3272 1645 3428 
Q 1925 3584 2291 3584 
Q 2894 3584 3203 3211 
Q 3513 2838 3513 2113 
z
" transform="scale(0.015625)"/>
      <path id="DejaVuSans-2192" d="M 5050 2147 
L 5050 1866 
L 3822 638 
L 3447 1013 
L 4175 1741 
L 366 1741 
L 366 2272 
L 4175 2272 
L 3447 3000 
L 3822 3375 
L 5050 2147 
z
" transform="scale(0.015625)"/>
      <path id="DejaVuSans-6d" d="M 3328 2828 
Q 3544 3216 3844 3400 
Q 4144 3584 4550 3584 
Q 5097 3584 5394 3201 
Q 5691 2819 5691 2113 
L 5691 0 
L 5113 0 
L 5113 2094 
Q 5113 2597 4934 2840 
Q 4756 3084 4391 3084 
Q 3944 3084 3684 2787 
Q 3425 2491 3425 1978 
L 3425 0 
L 2847 0 
L 2847 2094 
Q 2847 2600 2669 2842 
Q 2491 3084 2119 3084 
Q 1678 3084 1418 2786 
Q 1159 2488 1159 1978 
L 1159 0 
L 581 0 
L 581 3500 
L 1159 3500 
L 1159 2956 
Q 1356 3278 1631 3431 
Q 1906 3584 2284 3584 
Q 2666 3584 2933 3390 
Q 3200 3197 3328 2828 
z
" transform="scale(0.015625)"/>
      <path id="DejaVuSans-69" d="M 603 3500 
L 1178 3500 
L 1178 0 
L 603 0 
L 603 3500 
z
M 603 4863 
L 1178 4863 
L 1178 4134 
L 603 4134 
L 603 4863 
z
" transform="scale(0.015625)"/>
      <path id="DejaVuSans-61" d="M 2194 1759 
Q 1497 1759 1228 1600 
Q 959 1441 959 1056 
Q 959 750 1161 570 
Q 1363 391 1709 391 
Q 2188 391 2477 730 
Q 2766 1069 2766 1631 
L 2766 1759 
L 2194 1759 
z
M 3341 1997 
L 3341 0 
L 2766 0 
L 2766 531 
Q 2569 213 2275 61 
Q 1981 -91 1556 -91 
Q 1019 -91 701 211 
Q 384 513 384 1019 
Q 384 1609 779 1909 
Q 1175 2209 1959 2209 
L 2766 2209 
L 2766 2266 
Q 2766 2663 2505 2880 
Q 2244 3097 1772 3097 
Q 1472 3097 1187 3025 
Q 903 2953 641 2809 
L 641 3341 
Q 956 3463 1253 3523 
Q 1550 3584 1831 3584 
Q 2591 3584 2966 3190 
Q 3341 2797 3341 1997 
z
" transform="scale(0.015625)"/>
      <path id="DejaVuSans-79" d="M 2059 -325 
Q 1816 -950 1584 -1140 
Q 1353 -1331 966 -1331 
L 506 -1331 
L 506 -850 
L 844 -850 
Q 1081 -850 1212 -737 
Q 1344 -625 1503 -206 
L 1606 56 
L 191 3500 
L 800 3500 
L 1894 763 
L 2988 3500 
L 3597 3500 
L 2059 -325 
z
" transform="scale(0.015625)"/>
     </defs>
     <use xlink:href="#DejaVuSans-46"/>
     <use xlink:href="#DejaVuSans-75" transform="translate(52.019531 0)"/>
     <use xlink:href="#DejaVuSans-6c" transform="translate(115.398438 0)"/>
     <use xlink:href="#DejaVuSans-6c" transform="translate(143.181641 0)"/>
     <use xlink:href="#DejaVuSans-20" transform="translate(170.964844 0)"/>
     <use xlink:href="#DejaVuSans-31" transform="translate(202.751953 0)"/>
     <use xlink:href="#DejaVuSans-73" transform="translate(266.375 0)"/>
     <use xlink:href="#DejaVuSans-20" transform="translate(318.474609 0)"/>
     <use xlink:href="#DejaVuSans-73" transform="translate(350.261719 0)"/>
     <use xlink:href="#DejaVuSans-68" transform="translate(402.361328 0)"/>
     <use xlink:href="#DejaVuSans-65" transform="translate(465.740234 0)"/>
     <use xlink:href="#DejaVuSans-6c" transform="translate(527.263672 0)"/>
     <use xlink:href="#DejaVuSans-6c" transform="translate(555.046875 0)"/>
     <use xlink:href="#DejaVuSans-20" transform="translate(582.830078 0)"/>
     <use xlink:href="#DejaVuSans-2192" transform="translate(614.617188 0)"/>
     <use xlink:href="#DejaVuSans-20" transform="translate(698.40625 0)"/>
     <use xlink:href="#DejaVuSans-63" transform="translate(730.193359 0)"/>
     <use xlink:href="#DejaVuSans-68" transform="translate(785.173828 0)"/>
     <use xlink:href="#DejaVuSans-65" transform="translate(848.552734 0)"/>
     <use xlink:href="#DejaVuSans-6d" transform="translate(910.076172 0)"/>
     <use xlink:href="#DejaVuSans-69" transform="translate(1007.488281 0)"/>
     <use xlink:href="#DejaVuSans-63" transform="translate(1035.271484 0)"/>
     <use xlink:href="#DejaVuSans-61" transform="translate(1090.251953 0)"/>
     <use xlink:href="#DejaVuSans-6c" transform="translate(1151.53125 0)"/>
     <use xlink:href="#DejaVuSans-6c" transform="translate(1179.314453 0)"/>
     <use xlink:href="#DejaVuSans-79" transform="translate(1207.097656 0)"/>
     <use xlink:href="#DejaVuSans-20" transform="translate(1266.277344 0)"/>
     <use xlink:href="#DejaVuSans-69" transform="translate(1298.064453 0)"/>
     <use xlink:href="#DejaVuSans-6e" transform="translate(1325.847656 0)"/>
     <use xlink:href="#DejaVuSans-65" transform="translate(1389.226562 0)"/>
     <use xlink:href="#DejaVuSans-72" transform="translate(1450.75 0)"/>
     <use xlink:href="#DejaVuSans-74" transform="translate(1491.863281 0)"/>
    </g>
   </g>
   <g id="text_3">
    <!-- 1s² -->
    <g style="fill: #27ae60" transform="translate(317.255469 131.207187) scale(0.1 -0.1)">
     <defs>
      <path id="DejaVuSans-Bold-31" d="M 750 831 
L 1813 831 
L 1813 3847 
L 722 3622 
L 722 4441 
L 1806 4666 
L 2950 4666 
L 2950 831 
L 4013 831 
L 4013 0 
L 750 0 
L 750 831 
z
" transform="scale(0.015625)"/>
      <path id="DejaVuSans-Bold-73" d="M 3272 3391 
L 3272 2541 
Q 2913 2691 2578 2766 
Q 2244 2841 1947 2841 
Q 1628 2841 1473 2761 
Q 1319 2681 1319 2516 
Q 1319 2381 1436 2309 
Q 1553 2238 1856 2203 
L 2053 2175 
Q 2913 2066 3209 1816 
Q 3506 1566 3506 1031 
Q 3506 472 3093 190 
Q 2681 -91 1863 -91 
Q 1516 -91 1145 -36 
Q 775 19 384 128 
L 384 978 
Q 719 816 1070 734 
Q 1422 653 1784 653 
Q 2113 653 2278 743 
Q 2444 834 2444 1013 
Q 2444 1163 2330 1236 
Q 2216 1309 1875 1350 
L 1678 1375 
Q 931 1469 631 1722 
Q 331 1975 331 2491 
Q 331 3047 712 3315 
Q 1094 3584 1881 3584 
Q 2191 3584 2531 3537 
Q 2872 3491 3272 3391 
z
" transform="scale(0.015625)"/>
      <path id="DejaVuSans-Bold-b2" d="M 1288 2613 
L 2444 2613 
L 2444 2088 
L 341 2088 
L 341 2566 
L 1319 3397 
Q 1509 3563 1590 3688 
Q 1672 3813 1672 3938 
Q 1672 4094 1558 4191 
Q 1444 4288 1259 4288 
Q 1066 4288 844 4217 
Q 622 4147 359 4000 
L 359 4581 
Q 631 4666 886 4708 
Q 1141 4750 1375 4750 
Q 1869 4750 2150 4548 
Q 2431 4347 2431 4000 
Q 2431 3775 2320 3586 
Q 2209 3397 1894 3128 
L 1288 2613 
z
" transform="scale(0.015625)"/>
     </defs>
     <use xlink:href="#DejaVuSans-Bold-31"/>
     <use xlink:href="#DejaVuSans-Bold-73" transform="translate(69.580078 0)"/>
     <use xlink:href="#DejaVuSans-Bold-b2" transform="translate(129.101562 0)"/>
    </g>
   </g>
   <g id="text_4">
    <!-- (complete) -->
    <g style="fill: #7f8c8d" transform="translate(301.368672 156.42725) scale(0.09 -0.09)">
     <defs>
      <path id="DejaVuSans-28" d="M 1984 4856 
Q 1566 4138 1362 3434 
Q 1159 2731 1159 2009 
Q 1159 1288 1364 580 
Q 1569 -128 1984 -844 
L 1484 -844 
Q 1016 -109 783 600 
Q 550 1309 550 2009 
Q 550 2706 781 3412 
Q 1013 4119 1484 4856 
L 1984 4856 
z
" transform="scale(0.015625)"/>
      <path id="DejaVuSans-29" d="M 513 4856 
L 1013 4856 
Q 1481 4119 1714 3412 
Q 1947 2706 1947 2009 
Q 1947 1309 1714 600 
Q 1481 -109 1013 -844 
L 513 -844 
Q 928 -128 1133 580 
Q 1338 1288 1338 2009 
Q 1338 2731 1133 3434 
Q 928 4138 513 4856 
z
" transform="scale(0.015625)"/>
     </defs>
     <use xlink:href="#DejaVuSans-28"/>
     <use xlink:href="#DejaVuSans-63" transform="translate(39.013672 0)"/>
     <use xlink:href="#DejaVuSans-6f" transform="translate(93.994141 0)"/>
     <use xlink:href="#DejaVuSans-6d" transform="translate(155.175781 0)"/>
     <use xlink:href="#DejaVuSans-70" transform="translate(252.587891 0)"/>
     <use xlink:href="#DejaVuSans-6c" transform="translate(316.064453 0)"/>
     <use xlink:href="#DejaVuSans-65" transform="translate(343.847656 0)"/>
     <use xlink:href="#DejaVuSans-74" transform="translate(405.371094 0)"/>
     <use xlink:href="#DejaVuSans-65" transform="translate(444.580078 0)"/>
     <use xlink:href="#DejaVuSans-29" transform="translate(506.103516 0)"/>
    </g>
   </g>
   <g id="text_5">
    <!-- Helium: The Inert Witness -->
    <g transform="translate(95.45875 17.837812) scale(0.14 -0.14)">
     <defs>
      <path id="DejaVuSans-Bold-48" d="M 588 4666 
L 1791 4666 
L 1791 2888 
L 3566 2888 
L 3566 4666 
L 4769 4666 
L 4769 0 
L 3566 0 
L 3566 1978 
L 1791 1978 
L 1791 0 
L 588 0 
L 588 4666 
z
" transform="scale(0.015625)"/>
      <path id="DejaVuSans-Bold-65" d="M 4031 1759 
L 4031 1441 
L 1416 1441 
Q 1456 1047 1700 850 
Q 1944 653 2381 653 
Q 2734 653 3104 758 
Q 3475 863 3866 1075 
L 3866 213 
Q 3469 63 3072 -14 
Q 2675 -91 2278 -91 
Q 1328 -91 801 392 
Q 275 875 275 1747 
Q 275 2603 792 3093 
Q 1309 3584 2216 3584 
Q 3041 3584 3536 3087 
Q 4031 2591 4031 1759 
z
M 2881 2131 
Q 2881 2450 2695 2645 
Q 2509 2841 2209 2841 
Q 1884 2841 1681 2658 
Q 1478 2475 1428 2131 
L 2881 2131 
z
" transform="scale(0.015625)"/>
      <path id="DejaVuSans-Bold-6c" d="M 538 4863 
L 1656 4863 
L 1656 0 
L 538 0 
L 538 4863 
z
" transform="scale(0.015625)"/>
      <path id="DejaVuSans-Bold-69" d="M 538 3500 
L 1656 3500 
L 1656 0 
L 538 0 
L 538 3500 
z
M 538 4863 
L 1656 4863 
L 1656 3950 
L 538 3950 
L 538 4863 
z
" transform="scale(0.015625)"/>
      <path id="DejaVuSans-Bold-75" d="M 500 1363 
L 500 3500 
L 1625 3500 
L 1625 3150 
Q 1625 2866 1622 2436 
Q 1619 2006 1619 1863 
Q 1619 1441 1641 1255 
Q 1663 1069 1716 984 
Q 1784 875 1895 815 
Q 2006 756 2150 756 
Q 2500 756 2700 1025 
Q 2900 1294 2900 1772 
L 2900 3500 
L 4019 3500 
L 4019 0 
L 2900 0 
L 2900 506 
Q 2647 200 2364 54 
Q 2081 -91 1741 -91 
Q 1134 -91 817 281 
Q 500 653 500 1363 
z
" transform="scale(0.015625)"/>
      <path id="DejaVuSans-Bold-6d" d="M 3781 2919 
Q 3994 3244 4286 3414 
Q 4578 3584 4928 3584 
Q 5531 3584 5847 3212 
Q 6163 2841 6163 2131 
L 6163 0 
L 5038 0 
L 5038 1825 
Q 5041 1866 5042 1909 
Q 5044 1953 5044 2034 
Q 5044 2406 4934 2573 
Q 4825 2741 4581 2741 
Q 4263 2741 4089 2478 
Q 3916 2216 3909 1719 
L 3909 0 
L 2784 0 
L 2784 1825 
Q 2784 2406 2684 2573 
Q 2584 2741 2328 2741 
Q 2006 2741 1831 2477 
Q 1656 2213 1656 1722 
L 1656 0 
L 531 0 
L 531 3500 
L 1656 3500 
L 1656 2988 
Q 1863 3284 2130 3434 
Q 2397 3584 2719 3584 
Q 3081 3584 3359 3409 
Q 3638 3234 3781 2919 
z
" transform="scale(0.015625)"/>
      <path id="DejaVuSans-Bold-3a" d="M 716 3500 
L 1844 3500 
L 1844 2291 
L 716 2291 
L 716 3500 
z
M 716 1209 
L 1844 1209 
L 1844 0 
L 716 0 
L 716 1209 
z
" transform="scale(0.015625)"/>
      <path id="DejaVuSans-Bold-20" transform="scale(0.015625)"/>
      <path id="DejaVuSans-Bold-54" d="M 31 4666 
L 4331 4666 
L 4331 3756 
L 2784 3756 
L 2784 0 
L 1581 0 
L 1581 3756 
L 31 3756 
L 31 4666 
z
" transform="scale(0.015625)"/>
      <path id="DejaVuSans-Bold-68" d="M 4056 2131 
L 4056 0 
L 2931 0 
L 2931 347 
L 2931 1625 
Q 2931 2084 2911 2256 
Q 2891 2428 2841 2509 
Q 2775 2619 2662 2680 
Q 2550 2741 2406 2741 
Q 2056 2741 1856 2470 
Q 1656 2200 1656 1722 
L 1656 0 
L 538 0 
L 538 4863 
L 1656 4863 
L 1656 2988 
Q 1909 3294 2193 3439 
Q 2478 3584 2822 3584 
Q 3428 3584 3742 3212 
Q 4056 2841 4056 2131 
z
" transform="scale(0.015625)"/>
      <path id="DejaVuSans-Bold-49" d="M 588 4666 
L 1791 4666 
L 1791 0 
L 588 0 
L 588 4666 
z
" transform="scale(0.015625)"/>
      <path id="DejaVuSans-Bold-6e" d="M 4056 2131 
L 4056 0 
L 2931 0 
L 2931 347 
L 2931 1631 
Q 2931 2084 2911 2256 
Q 2891 2428 2841 2509 
Q 2775 2619 2662 2680 
Q 2550 2741 2406 2741 
Q 2056 2741 1856 2470 
Q 1656 2200 1656 1722 
L 1656 0 
L 538 0 
L 538 3500 
L 1656 3500 
L 1656 2988 
Q 1909 3294 2193 3439 
Q 2478 3584 2822 3584 
Q 3428 3584 3742 3212 
Q 4056 2841 4056 2131 
z
" transform="scale(0.015625)"/>
      <path id="DejaVuSans-Bold-72" d="M 3138 2547 
Q 2991 2616 2845 2648 
Q 2700 2681 2553 2681 
Q 2122 2681 1889 2404 
Q 1656 2128 1656 1613 
L 1656 0 
L 538 0 
L 538 3500 
L 1656 3500 
L 1656 2925 
Q 1872 3269 2151 3426 
Q 2431 3584 2822 3584 
Q 2878 3584 2943 3579 
Q 3009 3575 3134 3559 
L 3138 2547 
z
" transform="scale(0.015625)"/>
      <path id="DejaVuSans-Bold-74" d="M 1759 4494 
L 1759 3500 
L 2913 3500 
L 2913 2700 
L 1759 2700 
L 1759 1216 
Q 1759 972 1856 886 
Q 1953 800 2241 800 
L 2816 800 
L 2816 0 
L 1856 0 
Q 1194 0 917 276 
Q 641 553 641 1216 
L 641 2700 
L 84 2700 
L 84 3500 
L 641 3500 
L 641 4494 
L 1759 4494 
z
" transform="scale(0.015625)"/>
      <path id="DejaVuSans-Bold-57" d="M 191 4666 
L 1344 4666 
L 2150 1275 
L 2950 4666 
L 4109 4666 
L 4909 1275 
L 5716 4666 
L 6859 4666 
L 5759 0 
L 4372 0 
L 3525 3547 
L 2688 0 
L 1300 0 
L 191 4666 
z
" transform="scale(0.015625)"/>
     </defs>
     <use xlink:href="#DejaVuSans-Bold-48"/>
     <use xlink:href="#DejaVuSans-Bold-65" transform="translate(83.691406 0)"/>
     <use xlink:href="#DejaVuSans-Bold-6c" transform="translate(151.513672 0)"/>
     <use xlink:href="#DejaVuSans-Bold-69" transform="translate(185.791016 0)"/>
     <use xlink:href="#DejaVuSans-Bold-75" transform="translate(220.068359 0)"/>
     <use xlink:href="#DejaVuSans-Bold-6d" transform="translate(291.259766 0)"/>
     <use xlink:href="#DejaVuSans-Bold-3a" transform="translate(395.458984 0)"/>
     <use xlink:href="#DejaVuSans-Bold-20" transform="translate(435.449219 0)"/>
     <use xlink:href="#DejaVuSans-Bold-54" transform="translate(470.263672 0)"/>
     <use xlink:href="#DejaVuSans-Bold-68" transform="translate(538.476562 0)"/>
     <use xlink:href="#DejaVuSans-Bold-65" transform="translate(609.667969 0)"/>
     <use xlink:href="#DejaVuSans-Bold-20" transform="translate(677.490234 0)"/>
     <use xlink:href="#DejaVuSans-Bold-49" transform="translate(712.304688 0)"/>
     <use xlink:href="#DejaVuSans-Bold-6e" transform="translate(749.511719 0)"/>
     <use xlink:href="#DejaVuSans-Bold-65" transform="translate(820.703125 0)"/>
     <use xlink:href="#DejaVuSans-Bold-72" transform="translate(888.525391 0)"/>
     <use xlink:href="#DejaVuSans-Bold-74" transform="translate(937.841797 0)"/>
     <use xlink:href="#DejaVuSans-Bold-20" transform="translate(985.644531 0)"/>
     <use xlink:href="#DejaVuSans-Bold-57" transform="translate(1020.458984 0)"/>
     <use xlink:href="#DejaVuSans-Bold-69" transform="translate(1130.761719 0)"/>
     <use xlink:href="#DejaVuSans-Bold-74" transform="translate(1165.039062 0)"/>
     <use xlink:href="#DejaVuSans-Bold-6e" transform="translate(1212.841797 0)"/>
     <use xlink:href="#DejaVuSans-Bold-65" transform="translate(1284.033203 0)"/>
     <use xlink:href="#DejaVuSans-Bold-73" transform="translate(1351.855469 0)"/>
     <use xlink:href="#DejaVuSans-Bold-73" transform="translate(1411.376953 0)"/>
    </g>
   </g>
   <g id="patch_3">
    <path d="M 214.355 195.374813 
C 218.581011 195.374813 222.634505 193.6958 225.622747 190.707559 
C 228.610988 187.719318 230.29 183.665824 230.29 179.439813 
C 230.29 175.213801 228.610988 171.160307 225.622747 168.172066 
C 222.634505 165.183825 218.581011 163.504813 214.355 163.504813 
C 210.128989 163.504813 206.075495 165.183825 203.087253 168.172066 
C 200.099012 171.160307 198.42 175.213801 198.42 179.439813 
C 198.42 183.665824 200.099012 187.719318 203.087253 190.707559 
C 206.075495 193.6958 210.128989 195.374813 214.355 195.374813 
z
" clip-path="url(#p31351951da)" style="fill: #95a5a6; stroke: #000000; stroke-width: 2; stroke-linejoin: miter"/>
   </g>
   <g id="patch_4">
    <path d="M 188.859 224.057813 
C 193.085011 224.057813 197.138505 222.3788 200.126747 219.390559 
C 203.114988 216.402318 204.794 212.348824 204.794 208.122813 
C 204.794 203.896801 203.114988 199.843307 200.126747 196.855066 
C 197.138505 193.866825 193.085011 192.187813 188.859 192.187813 
C 184.632989 192.187813 180.579495 193.866825 177.591253 196.855066 
C 174.603012 199.843307 172.924 203.896801 172.924 208.122813 
C 172.924 212.348824 174.603012 216.402318 177.591253 219.390559 
C 180.579495 222.3788 184.632989 224.057813 188.859 224.057813 
z
" clip-path="url(#p31351951da)" style="fill: #95a5a6; stroke: #000000; stroke-width: 2; stroke-linejoin: miter"/>
   </g>
   <g id="patch_5">
    <path d="M 185.672 204.935813 
C 190.743214 204.935813 195.607406 202.920998 199.193296 199.335108 
C 202.779185 195.749219 204.794 190.885026 204.794 185.813813 
C 204.794 180.742599 202.779185 175.878406 199.193296 172.292517 
C 195.607406 168.706627 190.743214 166.691812 185.672 166.691812 
C 180.600786 166.691812 175.736594 168.706627 172.150704 172.292517 
C 168.564815 175.878406 166.55 180.742599 166.55 185.813813 
C 166.55 190.885026 168.564815 195.749219 172.150704 199.335108 
C 175.736594 202.920998 180.600786 204.935813 185.672 204.935813 
z
" clip-path="url(#p31351951da)" style="fill: #e74c3c; stroke: #000000; stroke-width: 2; stroke-linejoin: miter"/>
   </g>
   <g id="patch_6">
    <path d="M 211.168 224.057813 
C 216.239214 224.057813 221.103406 222.042998 224.689296 218.457108 
C 228.275185 214.871219 230.29 210.007026 230.29 204.935812 
C 230.29 199.864599 228.275185 195.000406 224.689296 191.414517 
C 221.103406 187.828627 216.239214 185.813812 211.168 185.813812 
C 206.096786 185.813812 201.232594 187.828627 197.646704 191.414517 
C 194.060815 195.000406 192.046 199.864599 192.046 204.935812 
C 192.046 210.007026 194.060815 214.871219 197.646704 218.457108 
C 201.232594 222.042998 206.096786 224.057813 211.168 224.057813 
z
" clip-path="url(#p31351951da)" style="fill: #e74c3c; stroke: #000000; stroke-width: 2; stroke-linejoin: miter"/>
   </g>
   <g id="patch_7">
    <path d="M 102.81 211.309813 
C 107.036011 211.309813 111.089505 209.6308 114.077747 206.642559 
C 117.065988 203.654318 118.745 199.600824 118.745 195.374813 
C 118.745 191.148801 117.065988 187.095307 114.077747 184.107066 
C 111.089505 181.118825 107.036011 179.439813 102.81 179.439813 
C 98.583989 179.439813 94.530495 181.118825 91.542253 184.107066 
C 88.554012 187.095307 86.875 191.148801 86.875 195.374813 
C 86.875 199.600824 88.554012 203.654318 91.542253 206.642559 
C 94.530495 209.6308 98.583989 211.309813 102.81 211.309813 
z
" clip-path="url(#p31351951da)" style="fill: #3498db; stroke: #000000; stroke-width: 2; stroke-linejoin: miter"/>
   </g>
   <g id="patch_8">
    <path d="M 294.03 211.309813 
C 298.256011 211.309813 302.309505 209.6308 305.297747 206.642559 
C 308.285988 203.654318 309.965 199.600824 309.965 195.374813 
C 309.965 191.148801 308.285988 187.095307 305.297747 184.107066 
C 302.309505 181.118825 298.256011 179.439813 294.03 179.439813 
C 289.803989 179.439813 285.750495 181.118825 282.762253 184.107066 
C 279.774012 187.095307 278.095 191.148801 278.095 195.374813 
C 278.095 199.600824 279.774012 203.654318 282.762253 206.642559 
C 285.750495 209.6308 289.803989 211.309813 294.03 211.309813 
z
" clip-path="url(#p31351951da)" style="fill: #3498db; stroke: #000000; stroke-width: 2; stroke-linejoin: miter"/>
   </g>
   <g id="text_6">
    <!-- p⁺ -->
    <g style="fill: #ffffff" transform="translate(179.454031 188.573188) scale(0.1 -0.1)">
     <defs>
      <path id="DejaVuSans-Bold-70" d="M 1656 506 
L 1656 -1331 
L 538 -1331 
L 538 3500 
L 1656 3500 
L 1656 2988 
Q 1888 3294 2169 3439 
Q 2450 3584 2816 3584 
Q 3463 3584 3878 3070 
Q 4294 2556 4294 1747 
Q 4294 938 3878 423 
Q 3463 -91 2816 -91 
Q 2450 -91 2169 54 
Q 1888 200 1656 506 
z
M 2400 2772 
Q 2041 2772 1848 2508 
Q 1656 2244 1656 1747 
Q 1656 1250 1848 986 
Q 2041 722 2400 722 
Q 2759 722 2948 984 
Q 3138 1247 3138 1747 
Q 3138 2247 2948 2509 
Q 2759 2772 2400 2772 
z
" transform="scale(0.015625)"/>
      <path id="DejaVuSans-Bold-207a" d="M 1925 4334 
L 1925 3419 
L 2950 3419 
L 2950 3003 
L 1925 3003 
L 1925 2088 
L 1456 2088 
L 1456 3003 
L 428 3003 
L 428 3419 
L 1456 3419 
L 1456 4334 
L 1925 4334 
z
" transform="scale(0.015625)"/>
     </defs>
     <use xlink:href="#DejaVuSans-Bold-70"/>
     <use xlink:href="#DejaVuSans-Bold-207a" transform="translate(71.582031 0)"/>
    </g>
   </g>
   <g id="text_7">
    <!-- p⁺ -->
    <g style="fill: #ffffff" transform="translate(204.950031 207.695188) scale(0.1 -0.1)">
     <use xlink:href="#DejaVuSans-Bold-70"/>
     <use xlink:href="#DejaVuSans-Bold-207a" transform="translate(71.582031 0)"/>
    </g>
   </g>
   <g id="text_8">
    <!-- n -->
    <g style="fill: #ffffff" transform="translate(211.151563 181.92325) scale(0.09 -0.09)">
     <use xlink:href="#DejaVuSans-Bold-6e"/>
    </g>
   </g>
   <g id="text_9">
    <!-- n -->
    <g style="fill: #ffffff" transform="translate(185.655563 210.60625) scale(0.09 -0.09)">
     <use xlink:href="#DejaVuSans-Bold-6e"/>
    </g>
   </g>
   <g id="text_10">
    <!-- e⁻ -->
    <g style="fill: #ffffff" transform="translate(97.382578 197.85825) scale(0.09 -0.09)">
     <defs>
      <path id="DejaVuSans-Bold-207b" d="M 428 3419 
L 2950 3419 
L 2950 3003 
L 428 3003 
L 428 3419 
z
" transform="scale(0.015625)"/>
     </defs>
     <use xlink:href="#DejaVuSans-Bold-65"/>
     <use xlink:href="#DejaVuSans-Bold-207b" transform="translate(67.822266 0)"/>
    </g>
   </g>
   <g id="text_11">
    <!-- e⁻ -->
    <g style="fill: #ffffff" transform="translate(288.602578 197.85825) scale(0.09 -0.09)">
     <use xlink:href="#DejaVuSans-Bold-65"/>
     <use xlink:href="#DejaVuSans-Bold-207b" transform="translate(67.822266 0)"/>
    </g>
   </g>
  </g>
 </g>
 <defs>
  <clipPath id="p31351951da">
   <rect x="7.2" y="32.837812" width="382.44" height="382.44"/>
  </clipPath>
 </defs>
</svg>
