<?xml version="1.0" encoding="utf-8" standalone="no"?>
<!DOCTYPE svg PUBLIC "-//W3C//DTD SVG 1.1//EN"
  "http://www.w3.org/Graphics/SVG/1.1/DTD/svg11.dtd">
<svg xmlns:xlink="http://www.w3.org/1999/xlink" width="399.24pt" height="424.877812pt" viewBox="0 0 399.24 424.877812" xmlns="http://www.w3.org/2000/svg" version="1.1">
 <metadata>
  <rdf:RDF xmlns:dc="http://purl.org/dc/elements/1.1/" xmlns:cc="http://creativecommons.org/ns#" xmlns:rdf="http://www.w3.org/1999/02/22-rdf-syntax-ns#">
   <cc:Work>
    <dc:type rdf:resource="http://purl.org/dc/dcmitype/StillImage"/>
    <dc:date>2026-01-02T19:17:49.336168</dc:date>
    <dc:format>image/svg+xml</dc:format>
    <dc:creator>
     <cc:Agent>
      <dc:title>Matplotlib v3.10.8, https://matplotlib.org/</dc:title>
     </cc:Agent>
    </dc:creator>
   </cc:Work>
  </rdf:RDF>
 </metadata>
 <defs>
  <style type="text/css">*{stroke-linejoin: round; stroke-linecap: butt}</style>
 </defs>
 <g id="figure_1">
  <g id="patch_1">
   <path d="M 0 424.877812 
L 399.24 424.877812 
L 399.24 0 
L 0 0 
z
" style="fill: #ffffff"/>
  </g>
  <g id="axes_1">
   <g id="patch_2">
    <path d="M 199.62 162.721312 
C 208.550317 162.721312 217.116073 159.17326 223.43076 152.858573 
C 229.745448 146.543885 233.2935 137.978129 233.2935 129.047812 
C 233.2935 120.117496 229.745448 111.55174 223.43076 105.237052 
C 217.116073 98.922365 208.550317 95.374312 199.62 95.374312 
C 190.689683 95.374312 182.123927 98.922365 175.80924 105.237052 
C 169.494552 111.55174 165.9465 120.117496 165.9465 129.047812 
C 165.9465 137.978129 169.494552 146.543885 175.80924 152.858573 
C 182.123927 159.17326 190.689683 162.721312 199.62 162.721312 
z
" clip-path="url(#pe5fdd46695)" style="fill: #e74c3c; opacity: 0.9; stroke: #e74c3c; stroke-width: 1.5; stroke-linejoin: miter"/>
   </g>
   <g id="patch_3">
    <path d="M 116.30214 307.036312 
C 125.232457 307.036312 133.798213 303.48826 140.1129 297.173573 
C 146.427588 290.858885 149.97564 282.293129 149.97564 273.362812 
C 149.97564 264.432496 146.427588 255.86674 140.1129 249.552052 
C 133.798213 243.237365 125.232457 239.689312 116.30214 239.689312 
C 107.371823 239.689312 98.806067 243.237365 92.49138 249.552052 
C 86.176692 255.86674 82.62864 264.432496 82.62864 273.362812 
C 82.62864 282.293129 86.176692 290.858885 92.49138 297.173573 
C 98.806067 303.48826 107.371823 307.036312 116.30214 307.036312 
z
" clip-path="url(#pe5fdd46695)" style="fill: #e74c3c; opacity: 0.9; stroke: #e74c3c; stroke-width: 1.5; stroke-linejoin: miter"/>
   </g>
   <g id="patch_4">
    <path d="M 282.93786 307.036312 
C 291.868177 307.036312 300.433933 303.48826 306.74862 297.173573 
C 313.063308 290.858885 316.61136 282.293129 316.61136 273.362812 
C 316.61136 264.432496 313.063308 255.86674 306.74862 249.552052 
C 300.433933 243.237365 291.868177 239.689312 282.93786 239.689312 
C 274.007543 239.689312 265.441787 243.237365 259.1271 249.552052 
C 252.812412 255.86674 249.26436 264.432496 249.26436 273.362812 
C 249.26436 282.293129 252.812412 290.858885 259.1271 297.173573 
C 265.441787 303.48826 274.007543 307.036312 282.93786 307.036312 
z
" clip-path="url(#pe5fdd46695)" style="fill: #3498db; opacity: 0.9; stroke: #3498db; stroke-width: 1.5; stroke-linejoin: miter"/>
   </g>
   <g id="line2d_1">
    <path d="M 199.62 129.047812 
L 116.30214 273.362812 
" clip-path="url(#pe5fdd46695)" style="fill: none; stroke: #2ecc71; stroke-opacity: 0.5; stroke-width: 2.5; stroke-linecap: square"/>
   </g>
   <g id="line2d_2">
    <path d="M 116.30214 273.362812 
L 282.93786 273.362812 
" clip-path="url(#pe5fdd46695)" style="fill: none; stroke: #2ecc71; stroke-opacity: 0.5; stroke-width: 2.5; stroke-linecap: square"/>
   </g>
   <g id="line2d_3">
    <path d="M 282.93786 273.362812 
L 199.62 129.047812 
" clip-path="url(#pe5fdd46695)" style="fill: none; stroke: #2ecc71; stroke-opacity: 0.5; stroke-width: 2.5; stroke-linecap: square"/>
   </g>
   <g id="text_1">
    <!-- u -->
    <g style="fill: #ffffff" transform="translate(194.636875 128.100437) scale(0.14 -0.14)">
     <defs>
      <path id="DejaVuSans-Bold-75" d="M 500 1363 
L 500 3500 
L 1625 3500 
L 1625 3150 
Q 1625 2866 1622 2436 
Q 1619 2006 1619 1863 
Q 1619 1441 1641 1255 
Q 1663 1069 1716 984 
Q 1784 875 1895 815 
Q 2006 756 2150 756 
Q 2500 756 2700 1025 
Q 2900 1294 2900 1772 
L 2900 3500 
L 4019 3500 
L 4019 0 
L 2900 0 
L 2900 506 
Q 2647 200 2364 54 
Q 2081 -91 1741 -91 
Q 1134 -91 817 281 
Q 500 653 500 1363 
z
" transform="scale(0.015625)"/>
     </defs>
     <use xlink:href="#DejaVuSans-Bold-75"/>
    </g>
   </g>
   <g id="text_2">
    <!-- +⅔ -->
    <g style="fill: #ffffff" transform="translate(192.39125 145.686812) scale(0.08 -0.08)">
     <defs>
      <path id="DejaVuSans-2b" d="M 2944 4013 
L 2944 2272 
L 4684 2272 
L 4684 1741 
L 2944 1741 
L 2944 0 
L 2419 0 
L 2419 1741 
L 678 1741 
L 678 2272 
L 2419 2272 
L 2419 4013 
L 2944 4013 
z
" transform="scale(0.015625)"/>
      <path id="DejaVuSans-2154" d="M 838 2444 
L 2163 2444 
L 2163 2088 
L 294 2088 
L 294 2431 
Q 400 2528 597 2703 
Q 1672 3656 1672 3950 
Q 1672 4156 1509 4282 
Q 1347 4409 1081 4409 
Q 919 4409 728 4354 
Q 538 4300 313 4191 
L 313 4575 
Q 553 4663 761 4706 
Q 969 4750 1147 4750 
Q 1600 4750 1872 4544 
Q 2144 4338 2144 4000 
Q 2144 3566 1109 2678 
Q 934 2528 838 2444 
z
M 4309 4750 
L 4809 4750 
L 1896 -91 
L 1396 -91 
L 4309 4750 
z
M 5270 1388 
Q 5557 1332 5715 1161 
Q 5873 991 5873 735 
Q 5873 347 5576 138 
Q 5279 -71 4726 -71 
Q 4548 -71 4352 -38 
Q 4157 -6 3938 57 
L 3938 435 
Q 4101 351 4287 310 
Q 4473 269 4682 269 
Q 5023 269 5210 392 
Q 5398 516 5398 735 
Q 5398 966 5224 1085 
Q 5051 1204 4713 1204 
L 4445 1204 
L 4445 1541 
L 4738 1541 
Q 5032 1541 5183 1639 
Q 5335 1738 5335 1926 
Q 5335 2107 5179 2202 
Q 5023 2297 4726 2297 
Q 4601 2297 4441 2269 
Q 4282 2241 4029 2169 
L 4029 2529 
Q 4257 2582 4457 2610 
Q 4657 2638 4829 2638 
Q 5279 2638 5543 2453 
Q 5807 2269 5807 1960 
Q 5807 1744 5666 1594 
Q 5526 1444 5270 1388 
z
" transform="scale(0.015625)"/>
     </defs>
     <use xlink:href="#DejaVuSans-2b"/>
     <use xlink:href="#DejaVuSans-2154" transform="translate(83.789062 0)"/>
    </g>
   </g>
   <g id="text_3">
    <!-- u -->
    <g style="fill: #ffffff" transform="translate(111.319015 272.415437) scale(0.14 -0.14)">
     <use xlink:href="#DejaVuSans-Bold-75"/>
    </g>
   </g>
   <g id="text_4">
    <!-- +⅔ -->
    <g style="fill: #ffffff" transform="translate(109.07339 290.001812) scale(0.08 -0.08)">
     <use xlink:href="#DejaVuSans-2b"/>
     <use xlink:href="#DejaVuSans-2154" transform="translate(83.789062 0)"/>
    </g>
   </g>
   <g id="text_5">
    <!-- d -->
    <g style="fill: #ffffff" transform="translate(277.927391 272.415437) scale(0.14 -0.14)">
     <defs>
      <path id="DejaVuSans-Bold-64" d="M 2919 2988 
L 2919 4863 
L 4044 4863 
L 4044 0 
L 2919 0 
L 2919 506 
Q 2688 197 2409 53 
Q 2131 -91 1766 -91 
Q 1119 -91 703 423 
Q 288 938 288 1747 
Q 288 2556 703 3070 
Q 1119 3584 1766 3584 
Q 2128 3584 2408 3439 
Q 2688 3294 2919 2988 
z
M 2181 722 
Q 2541 722 2730 984 
Q 2919 1247 2919 1747 
Q 2919 2247 2730 2509 
Q 2541 2772 2181 2772 
Q 1825 2772 1636 2509 
Q 1447 2247 1447 1747 
Q 1447 1247 1636 984 
Q 1825 722 2181 722 
z
" transform="scale(0.015625)"/>
     </defs>
     <use xlink:href="#DejaVuSans-Bold-64"/>
    </g>
   </g>
   <g id="text_6">
    <!-- -⅓ -->
    <g style="fill: #ffffff" transform="translate(277.61786 290.001812) scale(0.08 -0.08)">
     <defs>
      <path id="DejaVuSans-2d" d="M 313 2009 
L 1997 2009 
L 1997 1497 
L 313 1497 
L 313 2009 
z
" transform="scale(0.015625)"/>
      <path id="DejaVuSans-2153" d="M 488 2431 
L 1125 2431 
L 1125 4341 
L 428 4213 
L 428 4575 
L 1147 4697 
L 1575 4697 
L 1575 2431 
L 2216 2431 
L 2216 2088 
L 488 2088 
L 488 2431 
z
M 4309 4750 
L 4809 4750 
L 1896 -91 
L 1396 -91 
L 4309 4750 
z
M 5270 1388 
Q 5557 1332 5715 1161 
Q 5873 991 5873 735 
Q 5873 347 5576 138 
Q 5279 -71 4726 -71 
Q 4548 -71 4352 -38 
Q 4157 -6 3938 57 
L 3938 435 
Q 4101 351 4287 310 
Q 4473 269 4682 269 
Q 5023 269 5210 392 
Q 5398 516 5398 735 
Q 5398 966 5224 1085 
Q 5051 1204 4713 1204 
L 4445 1204 
L 4445 1541 
L 4738 1541 
Q 5032 1541 5183 1639 
Q 5335 1738 5335 1926 
Q 5335 2107 5179 2202 
Q 5023 2297 4726 2297 
Q 4601 2297 4441 2269 
Q 4282 2241 4029 2169 
L 4029 2529 
Q 4257 2582 4457 2610 
Q 4657 2638 4829 2638 
Q 5279 2638 5543 2453 
Q 5807 2269 5807 1960 
Q 5807 1744 5666 1594 
Q 5526 1444 5270 1388 
z
" transform="scale(0.015625)"/>
     </defs>
     <use xlink:href="#DejaVuSans-2d"/>
     <use xlink:href="#DejaVuSans-2153" transform="translate(36.083984 0)"/>
    </g>
   </g>
   <g id="text_7">
    <!-- Total charge: +⅔ + ⅔ - ⅓ = +1 -->
    <g style="fill: #2c3e50" transform="translate(120.062969 388.814812) scale(0.1 -0.1)">
     <defs>
      <path id="DejaVuSans-54" d="M -19 4666 
L 3928 4666 
L 3928 4134 
L 2272 4134 
L 2272 0 
L 1638 0 
L 1638 4134 
L -19 4134 
L -19 4666 
z
" transform="scale(0.015625)"/>
      <path id="DejaVuSans-6f" d="M 1959 3097 
Q 1497 3097 1228 2736 
Q 959 2375 959 1747 
Q 959 1119 1226 758 
Q 1494 397 1959 397 
Q 2419 397 2687 759 
Q 2956 1122 2956 1747 
Q 2956 2369 2687 2733 
Q 2419 3097 1959 3097 
z
M 1959 3584 
Q 2709 3584 3137 3096 
Q 3566 2609 3566 1747 
Q 3566 888 3137 398 
Q 2709 -91 1959 -91 
Q 1206 -91 779 398 
Q 353 888 353 1747 
Q 353 2609 779 3096 
Q 1206 3584 1959 3584 
z
" transform="scale(0.015625)"/>
      <path id="DejaVuSans-74" d="M 1172 4494 
L 1172 3500 
L 2356 3500 
L 2356 3053 
L 1172 3053 
L 1172 1153 
Q 1172 725 1289 603 
Q 1406 481 1766 481 
L 2356 481 
L 2356 0 
L 1766 0 
Q 1100 0 847 248 
Q 594 497 594 1153 
L 594 3053 
L 172 3053 
L 172 3500 
L 594 3500 
L 594 4494 
L 1172 4494 
z
" transform="scale(0.015625)"/>
      <path id="DejaVuSans-61" d="M 2194 1759 
Q 1497 1759 1228 1600 
Q 959 1441 959 1056 
Q 959 750 1161 570 
Q 1363 391 1709 391 
Q 2188 391 2477 730 
Q 2766 1069 2766 1631 
L 2766 1759 
L 2194 1759 
z
M 3341 1997 
L 3341 0 
L 2766 0 
L 2766 531 
Q 2569 213 2275 61 
Q 1981 -91 1556 -91 
Q 1019 -91 701 211 
Q 384 513 384 1019 
Q 384 1609 779 1909 
Q 1175 2209 1959 2209 
L 2766 2209 
L 2766 2266 
Q 2766 2663 2505 2880 
Q 2244 3097 1772 3097 
Q 1472 3097 1187 3025 
Q 903 2953 641 2809 
L 641 3341 
Q 956 3463 1253 3523 
Q 1550 3584 1831 3584 
Q 2591 3584 2966 3190 
Q 3341 2797 3341 1997 
z
" transform="scale(0.015625)"/>
      <path id="DejaVuSans-6c" d="M 603 4863 
L 1178 4863 
L 1178 0 
L 603 0 
L 603 4863 
z
" transform="scale(0.015625)"/>
      <path id="DejaVuSans-20" transform="scale(0.015625)"/>
      <path id="DejaVuSans-63" d="M 3122 3366 
L 3122 2828 
Q 2878 2963 2633 3030 
Q 2388 3097 2138 3097 
Q 1578 3097 1268 2742 
Q 959 2388 959 1747 
Q 959 1106 1268 751 
Q 1578 397 2138 397 
Q 2388 397 2633 464 
Q 2878 531 3122 666 
L 3122 134 
Q 2881 22 2623 -34 
Q 2366 -91 2075 -91 
Q 1284 -91 818 406 
Q 353 903 353 1747 
Q 353 2603 823 3093 
Q 1294 3584 2113 3584 
Q 2378 3584 2631 3529 
Q 2884 3475 3122 3366 
z
" transform="scale(0.015625)"/>
      <path id="DejaVuSans-68" d="M 3513 2113 
L 3513 0 
L 2938 0 
L 2938 2094 
Q 2938 2591 2744 2837 
Q 2550 3084 2163 3084 
Q 1697 3084 1428 2787 
Q 1159 2491 1159 1978 
L 1159 0 
L 581 0 
L 581 4863 
L 1159 4863 
L 1159 2956 
Q 1366 3272 1645 3428 
Q 1925 3584 2291 3584 
Q 2894 3584 3203 3211 
Q 3513 2838 3513 2113 
z
" transform="scale(0.015625)"/>
      <path id="DejaVuSans-72" d="M 2631 2963 
Q 2534 3019 2420 3045 
Q 2306 3072 2169 3072 
Q 1681 3072 1420 2755 
Q 1159 2438 1159 1844 
L 1159 0 
L 581 0 
L 581 3500 
L 1159 3500 
L 1159 2956 
Q 1341 3275 1631 3429 
Q 1922 3584 2338 3584 
Q 2397 3584 2469 3576 
Q 2541 3569 2628 3553 
L 2631 2963 
z
" transform="scale(0.015625)"/>
      <path id="DejaVuSans-67" d="M 2906 1791 
Q 2906 2416 2648 2759 
Q 2391 3103 1925 3103 
Q 1463 3103 1205 2759 
Q 947 2416 947 1791 
Q 947 1169 1205 825 
Q 1463 481 1925 481 
Q 2391 481 2648 825 
Q 2906 1169 2906 1791 
z
M 3481 434 
Q 3481 -459 3084 -895 
Q 2688 -1331 1869 -1331 
Q 1566 -1331 1297 -1286 
Q 1028 -1241 775 -1147 
L 775 -588 
Q 1028 -725 1275 -790 
Q 1522 -856 1778 -856 
Q 2344 -856 2625 -561 
Q 2906 -266 2906 331 
L 2906 616 
Q 2728 306 2450 153 
Q 2172 0 1784 0 
Q 1141 0 747 490 
Q 353 981 353 1791 
Q 353 2603 747 3093 
Q 1141 3584 1784 3584 
Q 2172 3584 2450 3431 
Q 2728 3278 2906 2969 
L 2906 3500 
L 3481 3500 
L 3481 434 
z
" transform="scale(0.015625)"/>
      <path id="DejaVuSans-65" d="M 3597 1894 
L 3597 1613 
L 953 1613 
Q 991 1019 1311 708 
Q 1631 397 2203 397 
Q 2534 397 2845 478 
Q 3156 559 3463 722 
L 3463 178 
Q 3153 47 2828 -22 
Q 2503 -91 2169 -91 
Q 1331 -91 842 396 
Q 353 884 353 1716 
Q 353 2575 817 3079 
Q 1281 3584 2069 3584 
Q 2775 3584 3186 3129 
Q 3597 2675 3597 1894 
z
M 3022 2063 
Q 3016 2534 2758 2815 
Q 2500 3097 2075 3097 
Q 1594 3097 1305 2825 
Q 1016 2553 972 2059 
L 3022 2063 
z
" transform="scale(0.015625)"/>
      <path id="DejaVuSans-3a" d="M 750 794 
L 1409 794 
L 1409 0 
L 750 0 
L 750 794 
z
M 750 3309 
L 1409 3309 
L 1409 2516 
L 750 2516 
L 750 3309 
z
" transform="scale(0.015625)"/>
      <path id="DejaVuSans-3d" d="M 678 2906 
L 4684 2906 
L 4684 2381 
L 678 2381 
L 678 2906 
z
M 678 1631 
L 4684 1631 
L 4684 1100 
L 678 1100 
L 678 1631 
z
" transform="scale(0.015625)"/>
      <path id="DejaVuSans-31" d="M 794 531 
L 1825 531 
L 1825 4091 
L 703 3866 
L 703 4441 
L 1819 4666 
L 2450 4666 
L 2450 531 
L 3481 531 
L 3481 0 
L 794 0 
L 794 531 
z
" transform="scale(0.015625)"/>
     </defs>
     <use xlink:href="#DejaVuSans-54"/>
     <use xlink:href="#DejaVuSans-6f" transform="translate(44.083984 0)"/>
     <use xlink:href="#DejaVuSans-74" transform="translate(105.265625 0)"/>
     <use xlink:href="#DejaVuSans-61" transform="translate(144.474609 0)"/>
     <use xlink:href="#DejaVuSans-6c" transform="translate(205.753906 0)"/>
     <use xlink:href="#DejaVuSans-20" transform="translate(233.537109 0)"/>
     <use xlink:href="#DejaVuSans-63" transform="translate(265.324219 0)"/>
     <use xlink:href="#DejaVuSans-68" transform="translate(320.304688 0)"/>
     <use xlink:href="#DejaVuSans-61" transform="translate(383.683594 0)"/>
     <use xlink:href="#DejaVuSans-72" transform="translate(444.962891 0)"/>
     <use xlink:href="#DejaVuSans-67" transform="translate(484.326172 0)"/>
     <use xlink:href="#DejaVuSans-65" transform="translate(547.802734 0)"/>
     <use xlink:href="#DejaVuSans-3a" transform="translate(609.326172 0)"/>
     <use xlink:href="#DejaVuSans-20" transform="translate(643.017578 0)"/>
     <use xlink:href="#DejaVuSans-2b" transform="translate(674.804688 0)"/>
     <use xlink:href="#DejaVuSans-2154" transform="translate(758.59375 0)"/>
     <use xlink:href="#DejaVuSans-20" transform="translate(855.517578 0)"/>
     <use xlink:href="#DejaVuSans-2b" transform="translate(887.304688 0)"/>
     <use xlink:href="#DejaVuSans-20" transform="translate(971.09375 0)"/>
     <use xlink:href="#DejaVuSans-2154" transform="translate(1002.880859 0)"/>
     <use xlink:href="#DejaVuSans-20" transform="translate(1099.804688 0)"/>
     <use xlink:href="#DejaVuSans-2d" transform="translate(1131.591797 0)"/>
     <use xlink:href="#DejaVuSans-20" transform="translate(1167.675781 0)"/>
     <use xlink:href="#DejaVuSans-2153" transform="translate(1199.462891 0)"/>
     <use xlink:href="#DejaVuSans-20" transform="translate(1296.386719 0)"/>
     <use xlink:href="#DejaVuSans-3d" transform="translate(1328.173828 0)"/>
     <use xlink:href="#DejaVuSans-20" transform="translate(1411.962891 0)"/>
     <use xlink:href="#DejaVuSans-2b" transform="translate(1443.75 0)"/>
     <use xlink:href="#DejaVuSans-31" transform="translate(1527.539062 0)"/>
    </g>
   </g>
   <g id="text_8">
    <!-- Proton: uud Configuration -->
    <g transform="translate(109.458906 17.837812) scale(0.14 -0.14)">
     <defs>
      <path id="DejaVuSans-50" d="M 1259 4147 
L 1259 2394 
L 2053 2394 
Q 2494 2394 2734 2622 
Q 2975 2850 2975 3272 
Q 2975 3691 2734 3919 
Q 2494 4147 2053 4147 
L 1259 4147 
z
M 628 4666 
L 2053 4666 
Q 2838 4666 3239 4311 
Q 3641 3956 3641 3272 
Q 3641 2581 3239 2228 
Q 2838 1875 2053 1875 
L 1259 1875 
L 1259 0 
L 628 0 
L 628 4666 
z
" transform="scale(0.015625)"/>
      <path id="DejaVuSans-6e" d="M 3513 2113 
L 3513 0 
L 2938 0 
L 2938 2094 
Q 2938 2591 2744 2837 
Q 2550 3084 2163 3084 
Q 1697 3084 1428 2787 
Q 1159 2491 1159 1978 
L 1159 0 
L 581 0 
L 581 3500 
L 1159 3500 
L 1159 2956 
Q 1366 3272 1645 3428 
Q 1925 3584 2291 3584 
Q 2894 3584 3203 3211 
Q 3513 2838 3513 2113 
z
" transform="scale(0.015625)"/>
      <path id="DejaVuSans-75" d="M 544 1381 
L 544 3500 
L 1119 3500 
L 1119 1403 
Q 1119 906 1312 657 
Q 1506 409 1894 409 
Q 2359 409 2629 706 
Q 2900 1003 2900 1516 
L 2900 3500 
L 3475 3500 
L 3475 0 
L 2900 0 
L 2900 538 
Q 2691 219 2414 64 
Q 2138 -91 1772 -91 
Q 1169 -91 856 284 
Q 544 659 544 1381 
z
M 1991 3584 
L 1991 3584 
z
" transform="scale(0.015625)"/>
      <path id="DejaVuSans-64" d="M 2906 2969 
L 2906 4863 
L 3481 4863 
L 3481 0 
L 2906 0 
L 2906 525 
Q 2725 213 2448 61 
Q 2172 -91 1784 -91 
Q 1150 -91 751 415 
Q 353 922 353 1747 
Q 353 2572 751 3078 
Q 1150 3584 1784 3584 
Q 2172 3584 2448 3432 
Q 2725 3281 2906 2969 
z
M 947 1747 
Q 947 1113 1208 752 
Q 1469 391 1925 391 
Q 2381 391 2643 752 
Q 2906 1113 2906 1747 
Q 2906 2381 2643 2742 
Q 2381 3103 1925 3103 
Q 1469 3103 1208 2742 
Q 947 2381 947 1747 
z
" transform="scale(0.015625)"/>
      <path id="DejaVuSans-43" d="M 4122 4306 
L 4122 3641 
Q 3803 3938 3442 4084 
Q 3081 4231 2675 4231 
Q 1875 4231 1450 3742 
Q 1025 3253 1025 2328 
Q 1025 1406 1450 917 
Q 1875 428 2675 428 
Q 3081 428 3442 575 
Q 3803 722 4122 1019 
L 4122 359 
Q 3791 134 3420 21 
Q 3050 -91 2638 -91 
Q 1578 -91 968 557 
Q 359 1206 359 2328 
Q 359 3453 968 4101 
Q 1578 4750 2638 4750 
Q 3056 4750 3426 4639 
Q 3797 4528 4122 4306 
z
" transform="scale(0.015625)"/>
      <path id="DejaVuSans-66" d="M 2375 4863 
L 2375 4384 
L 1825 4384 
Q 1516 4384 1395 4259 
Q 1275 4134 1275 3809 
L 1275 3500 
L 2222 3500 
L 2222 3053 
L 1275 3053 
L 1275 0 
L 697 0 
L 697 3053 
L 147 3053 
L 147 3500 
L 697 3500 
L 697 3744 
Q 697 4328 969 4595 
Q 1241 4863 1831 4863 
L 2375 4863 
z
" transform="scale(0.015625)"/>
      <path id="DejaVuSans-69" d="M 603 3500 
L 1178 3500 
L 1178 0 
L 603 0 
L 603 3500 
z
M 603 4863 
L 1178 4863 
L 1178 4134 
L 603 4134 
L 603 4863 
z
" transform="scale(0.015625)"/>
     </defs>
     <use xlink:href="#DejaVuSans-50"/>
     <use xlink:href="#DejaVuSans-72" transform="translate(58.552734 0)"/>
     <use xlink:href="#DejaVuSans-6f" transform="translate(97.416016 0)"/>
     <use xlink:href="#DejaVuSans-74" transform="translate(158.597656 0)"/>
     <use xlink:href="#DejaVuSans-6f" transform="translate(197.806641 0)"/>
     <use xlink:href="#DejaVuSans-6e" transform="translate(258.988281 0)"/>
     <use xlink:href="#DejaVuSans-3a" transform="translate(322.367188 0)"/>
     <use xlink:href="#DejaVuSans-20" transform="translate(356.058594 0)"/>
     <use xlink:href="#DejaVuSans-75" transform="translate(387.845703 0)"/>
     <use xlink:href="#DejaVuSans-75" transform="translate(451.224609 0)"/>
     <use xlink:href="#DejaVuSans-64" transform="translate(514.603516 0)"/>
     <use xlink:href="#DejaVuSans-20" transform="translate(578.080078 0)"/>
     <use xlink:href="#DejaVuSans-43" transform="translate(609.867188 0)"/>
     <use xlink:href="#DejaVuSans-6f" transform="translate(679.691406 0)"/>
     <use xlink:href="#DejaVuSans-6e" transform="translate(740.873047 0)"/>
     <use xlink:href="#DejaVuSans-66" transform="translate(804.251953 0)"/>
     <use xlink:href="#DejaVuSans-69" transform="translate(839.457031 0)"/>
     <use xlink:href="#DejaVuSans-67" transform="translate(867.240234 0)"/>
     <use xlink:href="#DejaVuSans-75" transform="translate(930.716797 0)"/>
     <use xlink:href="#DejaVuSans-72" transform="translate(994.095703 0)"/>
     <use xlink:href="#DejaVuSans-61" transform="translate(1035.208984 0)"/>
     <use xlink:href="#DejaVuSans-74" transform="translate(1096.488281 0)"/>
     <use xlink:href="#DejaVuSans-69" transform="translate(1135.697266 0)"/>
     <use xlink:href="#DejaVuSans-6f" transform="translate(1163.480469 0)"/>
     <use xlink:href="#DejaVuSans-6e" transform="translate(1224.662109 0)"/>
    </g>
   </g>
  </g>
 </g>
 <defs>
  <clipPath id="pe5fdd46695">
   <rect x="7.2" y="32.837812" width="384.84" height="384.84"/>
  </clipPath>
 </defs>
</svg>
