<?xml version="1.0" encoding="utf-8" standalone="no"?>
<!DOCTYPE svg PUBLIC "-//W3C//DTD SVG 1.1//EN"
  "http://www.w3.org/Graphics/SVG/1.1/DTD/svg11.dtd">
<svg xmlns:xlink="http://www.w3.org/1999/xlink" width="784.8pt" height="359.72425pt" viewBox="0 0 784.8 359.72425" xmlns="http://www.w3.org/2000/svg" version="1.1">
 <metadata>
  <rdf:RDF xmlns:dc="http://purl.org/dc/elements/1.1/" xmlns:cc="http://creativecommons.org/ns#" xmlns:rdf="http://www.w3.org/1999/02/22-rdf-syntax-ns#">
   <cc:Work>
    <dc:type rdf:resource="http://purl.org/dc/dcmitype/StillImage"/>
    <dc:date>2026-01-02T19:17:49.692253</dc:date>
    <dc:format>image/svg+xml</dc:format>
    <dc:creator>
     <cc:Agent>
      <dc:title>Matplotlib v3.10.8, https://matplotlib.org/</dc:title>
     </cc:Agent>
    </dc:creator>
   </cc:Work>
  </rdf:RDF>
 </metadata>
 <defs>
  <style type="text/css">*{stroke-linejoin: round; stroke-linecap: butt}</style>
 </defs>
 <g id="figure_1">
  <g id="patch_1">
   <path d="M 0 359.72425 
L 784.8 359.72425 
L 784.8 0 
L 0 0 
z
" style="fill: #ffffff"/>
  </g>
  <g id="axes_1">
   <g id="line2d_1">
    <path d="M 83.16 294.341333 
L 330.03 294.341333 
" clip-path="url(#p97de62cdaa)" style="fill: none; stroke: #ecf0f1; stroke-width: 2.5; stroke-linecap: square"/>
   </g>
   <g id="line2d_2">
    <path d="M 83.16 263.732 
L 330.03 263.732 
" clip-path="url(#p97de62cdaa)" style="fill: none; stroke: #ecf0f1; stroke-width: 2.5; stroke-linecap: square"/>
   </g>
   <g id="line2d_3">
    <path d="M 83.16 244.253333 
L 330.03 244.253333 
" clip-path="url(#p97de62cdaa)" style="fill: none; stroke: #ecf0f1; stroke-width: 2.5; stroke-linecap: square"/>
   </g>
   <g id="line2d_4">
    <path d="M 83.16 219.209333 
L 330.03 219.209333 
" clip-path="url(#p97de62cdaa)" style="fill: none; stroke: #ecf0f1; stroke-width: 2.5; stroke-linecap: square"/>
   </g>
   <g id="line2d_5">
    <path d="M 83.16 199.730667 
L 330.03 199.730667 
" clip-path="url(#p97de62cdaa)" style="fill: none; stroke: #ecf0f1; stroke-width: 2.5; stroke-linecap: square"/>
   </g>
   <g id="line2d_6">
    <path d="M 83.16 180.252 
L 330.03 180.252 
" clip-path="url(#p97de62cdaa)" style="fill: none; stroke: #ecf0f1; stroke-width: 2.5; stroke-linecap: square"/>
   </g>
   <g id="line2d_7">
    <path d="M 83.16 163.556 
L 330.03 163.556 
" clip-path="url(#p97de62cdaa)" style="fill: none; stroke: #ecf0f1; stroke-width: 2.5; stroke-linecap: square"/>
   </g>
   <g id="line2d_8">
    <path d="M 83.16 138.512 
L 330.03 138.512 
" clip-path="url(#p97de62cdaa)" style="fill: none; stroke: #ecf0f1; stroke-width: 2.5; stroke-linecap: square"/>
   </g>
   <g id="line2d_9">
    <path d="M 83.16 119.033333 
L 330.03 119.033333 
" clip-path="url(#p97de62cdaa)" style="fill: none; stroke: #ecf0f1; stroke-width: 2.5; stroke-linecap: square"/>
   </g>
   <g id="line2d_10">
    <path d="M 83.16 102.337333 
L 330.03 102.337333 
" clip-path="url(#p97de62cdaa)" style="fill: none; stroke: #ecf0f1; stroke-width: 2.5; stroke-linecap: square"/>
   </g>
   <g id="text_1">
    <!-- 1s -->
    <g style="fill: #2c3e50" transform="translate(37.28475 297.652583) scale(0.12 -0.12)">
     <defs>
      <path id="DejaVuSans-Bold-31" d="M 750 831 
L 1813 831 
L 1813 3847 
L 722 3622 
L 722 4441 
L 1806 4666 
L 2950 4666 
L 2950 831 
L 4013 831 
L 4013 0 
L 750 0 
L 750 831 
z
" transform="scale(0.015625)"/>
      <path id="DejaVuSans-Bold-73" d="M 3272 3391 
L 3272 2541 
Q 2913 2691 2578 2766 
Q 2244 2841 1947 2841 
Q 1628 2841 1473 2761 
Q 1319 2681 1319 2516 
Q 1319 2381 1436 2309 
Q 1553 2238 1856 2203 
L 2053 2175 
Q 2913 2066 3209 1816 
Q 3506 1566 3506 1031 
Q 3506 472 3093 190 
Q 2681 -91 1863 -91 
Q 1516 -91 1145 -36 
Q 775 19 384 128 
L 384 978 
Q 719 816 1070 734 
Q 1422 653 1784 653 
Q 2113 653 2278 743 
Q 2444 834 2444 1013 
Q 2444 1163 2330 1236 
Q 2216 1309 1875 1350 
L 1678 1375 
Q 931 1469 631 1722 
Q 331 1975 331 2491 
Q 331 3047 712 3315 
Q 1094 3584 1881 3584 
Q 2191 3584 2531 3537 
Q 2872 3491 3272 3391 
z
" transform="scale(0.015625)"/>
     </defs>
     <use xlink:href="#DejaVuSans-Bold-31"/>
     <use xlink:href="#DejaVuSans-Bold-73" transform="translate(69.580078 0)"/>
    </g>
   </g>
   <g id="text_2">
    <!-- 2s -->
    <g style="fill: #2c3e50" transform="translate(37.28475 267.04325) scale(0.12 -0.12)">
     <defs>
      <path id="DejaVuSans-Bold-32" d="M 1844 884 
L 3897 884 
L 3897 0 
L 506 0 
L 506 884 
L 2209 2388 
Q 2438 2594 2547 2791 
Q 2656 2988 2656 3200 
Q 2656 3528 2436 3728 
Q 2216 3928 1850 3928 
Q 1569 3928 1234 3808 
Q 900 3688 519 3450 
L 519 4475 
Q 925 4609 1322 4679 
Q 1719 4750 2100 4750 
Q 2938 4750 3402 4381 
Q 3866 4013 3866 3353 
Q 3866 2972 3669 2642 
Q 3472 2313 2841 1759 
L 1844 884 
z
" transform="scale(0.015625)"/>
     </defs>
     <use xlink:href="#DejaVuSans-Bold-32"/>
     <use xlink:href="#DejaVuSans-Bold-73" transform="translate(69.580078 0)"/>
    </g>
   </g>
   <g id="text_3">
    <!-- 2p -->
    <g style="fill: #2c3e50" transform="translate(35.83725 247.564583) scale(0.12 -0.12)">
     <defs>
      <path id="DejaVuSans-Bold-70" d="M 1656 506 
L 1656 -1331 
L 538 -1331 
L 538 3500 
L 1656 3500 
L 1656 2988 
Q 1888 3294 2169 3439 
Q 2450 3584 2816 3584 
Q 3463 3584 3878 3070 
Q 4294 2556 4294 1747 
Q 4294 938 3878 423 
Q 3463 -91 2816 -91 
Q 2450 -91 2169 54 
Q 1888 200 1656 506 
z
M 2400 2772 
Q 2041 2772 1848 2508 
Q 1656 2244 1656 1747 
Q 1656 1250 1848 986 
Q 2041 722 2400 722 
Q 2759 722 2948 984 
Q 3138 1247 3138 1747 
Q 3138 2247 2948 2509 
Q 2759 2772 2400 2772 
z
" transform="scale(0.015625)"/>
     </defs>
     <use xlink:href="#DejaVuSans-Bold-32"/>
     <use xlink:href="#DejaVuSans-Bold-70" transform="translate(69.580078 0)"/>
    </g>
   </g>
   <g id="text_4">
    <!-- 3s -->
    <g style="fill: #2c3e50" transform="translate(37.28475 222.520583) scale(0.12 -0.12)">
     <defs>
      <path id="DejaVuSans-Bold-33" d="M 2981 2516 
Q 3453 2394 3698 2092 
Q 3944 1791 3944 1325 
Q 3944 631 3412 270 
Q 2881 -91 1863 -91 
Q 1503 -91 1142 -33 
Q 781 25 428 141 
L 428 1069 
Q 766 900 1098 814 
Q 1431 728 1753 728 
Q 2231 728 2486 893 
Q 2741 1059 2741 1369 
Q 2741 1688 2480 1852 
Q 2219 2016 1709 2016 
L 1228 2016 
L 1228 2791 
L 1734 2791 
Q 2188 2791 2409 2933 
Q 2631 3075 2631 3366 
Q 2631 3634 2415 3781 
Q 2200 3928 1806 3928 
Q 1516 3928 1219 3862 
Q 922 3797 628 3669 
L 628 4550 
Q 984 4650 1334 4700 
Q 1684 4750 2022 4750 
Q 2931 4750 3382 4451 
Q 3834 4153 3834 3553 
Q 3834 3144 3618 2883 
Q 3403 2622 2981 2516 
z
" transform="scale(0.015625)"/>
     </defs>
     <use xlink:href="#DejaVuSans-Bold-33"/>
     <use xlink:href="#DejaVuSans-Bold-73" transform="translate(69.580078 0)"/>
    </g>
   </g>
   <g id="text_5">
    <!-- 3p -->
    <g style="fill: #2c3e50" transform="translate(35.83725 203.041917) scale(0.12 -0.12)">
     <use xlink:href="#DejaVuSans-Bold-33"/>
     <use xlink:href="#DejaVuSans-Bold-70" transform="translate(69.580078 0)"/>
    </g>
   </g>
   <g id="text_6">
    <!-- 4s -->
    <g style="fill: #2c3e50" transform="translate(37.28475 183.56325) scale(0.12 -0.12)">
     <defs>
      <path id="DejaVuSans-Bold-34" d="M 2356 3675 
L 1038 1722 
L 2356 1722 
L 2356 3675 
z
M 2156 4666 
L 3494 4666 
L 3494 1722 
L 4159 1722 
L 4159 850 
L 3494 850 
L 3494 0 
L 2356 0 
L 2356 850 
L 288 850 
L 288 1881 
L 2156 4666 
z
" transform="scale(0.015625)"/>
     </defs>
     <use xlink:href="#DejaVuSans-Bold-34"/>
     <use xlink:href="#DejaVuSans-Bold-73" transform="translate(69.580078 0)"/>
    </g>
   </g>
   <g id="text_7">
    <!-- 3d -->
    <g style="fill: #2c3e50" transform="translate(35.83725 166.86725) scale(0.12 -0.12)">
     <defs>
      <path id="DejaVuSans-Bold-64" d="M 2919 2988 
L 2919 4863 
L 4044 4863 
L 4044 0 
L 2919 0 
L 2919 506 
Q 2688 197 2409 53 
Q 2131 -91 1766 -91 
Q 1119 -91 703 423 
Q 288 938 288 1747 
Q 288 2556 703 3070 
Q 1119 3584 1766 3584 
Q 2128 3584 2408 3439 
Q 2688 3294 2919 2988 
z
M 2181 722 
Q 2541 722 2730 984 
Q 2919 1247 2919 1747 
Q 2919 2247 2730 2509 
Q 2541 2772 2181 2772 
Q 1825 2772 1636 2509 
Q 1447 2247 1447 1747 
Q 1447 1247 1636 984 
Q 1825 722 2181 722 
z
" transform="scale(0.015625)"/>
     </defs>
     <use xlink:href="#DejaVuSans-Bold-33"/>
     <use xlink:href="#DejaVuSans-Bold-64" transform="translate(69.580078 0)"/>
    </g>
   </g>
   <g id="text_8">
    <!-- 4p -->
    <g style="fill: #2c3e50" transform="translate(35.83725 141.82325) scale(0.12 -0.12)">
     <use xlink:href="#DejaVuSans-Bold-34"/>
     <use xlink:href="#DejaVuSans-Bold-70" transform="translate(69.580078 0)"/>
    </g>
   </g>
   <g id="text_9">
    <!-- 5s -->
    <g style="fill: #2c3e50" transform="translate(37.28475 122.344583) scale(0.12 -0.12)">
     <defs>
      <path id="DejaVuSans-Bold-35" d="M 678 4666 
L 3669 4666 
L 3669 3781 
L 1638 3781 
L 1638 3059 
Q 1775 3097 1914 3117 
Q 2053 3138 2203 3138 
Q 3056 3138 3531 2711 
Q 4006 2284 4006 1522 
Q 4006 766 3489 337 
Q 2972 -91 2053 -91 
Q 1656 -91 1267 -14 
Q 878 63 494 219 
L 494 1166 
Q 875 947 1217 837 
Q 1559 728 1863 728 
Q 2300 728 2551 942 
Q 2803 1156 2803 1522 
Q 2803 1891 2551 2103 
Q 2300 2316 1863 2316 
Q 1603 2316 1309 2248 
Q 1016 2181 678 2041 
L 678 4666 
z
" transform="scale(0.015625)"/>
     </defs>
     <use xlink:href="#DejaVuSans-Bold-35"/>
     <use xlink:href="#DejaVuSans-Bold-73" transform="translate(69.580078 0)"/>
    </g>
   </g>
   <g id="text_10">
    <!-- 4d -->
    <g style="fill: #2c3e50" transform="translate(35.83725 105.648583) scale(0.12 -0.12)">
     <use xlink:href="#DejaVuSans-Bold-34"/>
     <use xlink:href="#DejaVuSans-Bold-64" transform="translate(69.580078 0)"/>
    </g>
   </g>
   <g id="patch_2">
    <path d="M 341.424 292.342311 
Q 341.424 279.037748 341.424 266.851219 
" style="fill: none; stroke: #9b59b6; stroke-linecap: round"/>
    <path d="M 339.424 270.851219 
L 341.424 266.851219 
L 343.424 270.851219 
" style="fill: none; stroke: #9b59b6; stroke-linecap: round"/>
   </g>
   <g id="patch_3">
    <path d="M 341.424 261.72992 
Q 341.424 253.992178 341.424 247.372471 
" style="fill: none; stroke: #9b59b6; stroke-linecap: round"/>
    <path d="M 339.424 251.372471 
L 341.424 247.372471 
L 343.424 251.372471 
" style="fill: none; stroke: #9b59b6; stroke-linecap: round"/>
   </g>
   <g id="patch_4">
    <path d="M 341.424 242.250914 
Q 341.424 231.730036 341.424 222.327192 
" style="fill: none; stroke: #9b59b6; stroke-linecap: round"/>
    <path d="M 339.424 226.327192 
L 341.424 222.327192 
L 343.424 226.327192 
" style="fill: none; stroke: #9b59b6; stroke-linecap: round"/>
   </g>
   <g id="patch_5">
    <path d="M 341.424 217.207254 
Q 341.424 209.469512 341.424 202.849804 
" style="fill: none; stroke: #9b59b6; stroke-linecap: round"/>
    <path d="M 339.424 206.849804 
L 341.424 202.849804 
L 343.424 206.849804 
" style="fill: none; stroke: #9b59b6; stroke-linecap: round"/>
   </g>
   <g id="patch_6">
    <path d="M 341.424 197.728587 
Q 341.424 189.990845 341.424 183.371137 
" style="fill: none; stroke: #9b59b6; stroke-linecap: round"/>
    <path d="M 339.424 187.371137 
L 341.424 183.371137 
L 343.424 187.371137 
" style="fill: none; stroke: #9b59b6; stroke-linecap: round"/>
   </g>
   <g id="patch_7">
    <path d="M 341.424 178.2506 
Q 341.424 171.902432 341.424 166.672299 
" style="fill: none; stroke: #9b59b6; stroke-linecap: round"/>
    <path d="M 339.424 170.672299 
L 341.424 166.672299 
L 343.424 170.672299 
" style="fill: none; stroke: #9b59b6; stroke-linecap: round"/>
   </g>
   <g id="patch_8">
    <path d="M 341.424 161.553581 
Q 341.424 151.032703 341.424 141.629859 
" style="fill: none; stroke: #9b59b6; stroke-linecap: round"/>
    <path d="M 339.424 145.629859 
L 341.424 141.629859 
L 343.424 145.629859 
" style="fill: none; stroke: #9b59b6; stroke-linecap: round"/>
   </g>
   <g id="patch_9">
    <path d="M 341.424 136.50992 
Q 341.424 128.772178 341.424 122.152471 
" style="fill: none; stroke: #9b59b6; stroke-linecap: round"/>
    <path d="M 339.424 126.152471 
L 341.424 122.152471 
L 343.424 126.152471 
" style="fill: none; stroke: #9b59b6; stroke-linecap: round"/>
   </g>
   <g id="text_11">
    <!-- Aufbau ordering -->
    <g style="fill: #9b59b6" transform="translate(187.55925 87.546083) scale(0.08 -0.08)">
     <defs>
      <path id="DejaVuSans-41" d="M 2188 4044 
L 1331 1722 
L 3047 1722 
L 2188 4044 
z
M 1831 4666 
L 2547 4666 
L 4325 0 
L 3669 0 
L 3244 1197 
L 1141 1197 
L 716 0 
L 50 0 
L 1831 4666 
z
" transform="scale(0.015625)"/>
      <path id="DejaVuSans-75" d="M 544 1381 
L 544 3500 
L 1119 3500 
L 1119 1403 
Q 1119 906 1312 657 
Q 1506 409 1894 409 
Q 2359 409 2629 706 
Q 2900 1003 2900 1516 
L 2900 3500 
L 3475 3500 
L 3475 0 
L 2900 0 
L 2900 538 
Q 2691 219 2414 64 
Q 2138 -91 1772 -91 
Q 1169 -91 856 284 
Q 544 659 544 1381 
z
M 1991 3584 
L 1991 3584 
z
" transform="scale(0.015625)"/>
      <path id="DejaVuSans-66" d="M 2375 4863 
L 2375 4384 
L 1825 4384 
Q 1516 4384 1395 4259 
Q 1275 4134 1275 3809 
L 1275 3500 
L 2222 3500 
L 2222 3053 
L 1275 3053 
L 1275 0 
L 697 0 
L 697 3053 
L 147 3053 
L 147 3500 
L 697 3500 
L 697 3744 
Q 697 4328 969 4595 
Q 1241 4863 1831 4863 
L 2375 4863 
z
" transform="scale(0.015625)"/>
      <path id="DejaVuSans-62" d="M 3116 1747 
Q 3116 2381 2855 2742 
Q 2594 3103 2138 3103 
Q 1681 3103 1420 2742 
Q 1159 2381 1159 1747 
Q 1159 1113 1420 752 
Q 1681 391 2138 391 
Q 2594 391 2855 752 
Q 3116 1113 3116 1747 
z
M 1159 2969 
Q 1341 3281 1617 3432 
Q 1894 3584 2278 3584 
Q 2916 3584 3314 3078 
Q 3713 2572 3713 1747 
Q 3713 922 3314 415 
Q 2916 -91 2278 -91 
Q 1894 -91 1617 61 
Q 1341 213 1159 525 
L 1159 0 
L 581 0 
L 581 4863 
L 1159 4863 
L 1159 2969 
z
" transform="scale(0.015625)"/>
      <path id="DejaVuSans-61" d="M 2194 1759 
Q 1497 1759 1228 1600 
Q 959 1441 959 1056 
Q 959 750 1161 570 
Q 1363 391 1709 391 
Q 2188 391 2477 730 
Q 2766 1069 2766 1631 
L 2766 1759 
L 2194 1759 
z
M 3341 1997 
L 3341 0 
L 2766 0 
L 2766 531 
Q 2569 213 2275 61 
Q 1981 -91 1556 -91 
Q 1019 -91 701 211 
Q 384 513 384 1019 
Q 384 1609 779 1909 
Q 1175 2209 1959 2209 
L 2766 2209 
L 2766 2266 
Q 2766 2663 2505 2880 
Q 2244 3097 1772 3097 
Q 1472 3097 1187 3025 
Q 903 2953 641 2809 
L 641 3341 
Q 956 3463 1253 3523 
Q 1550 3584 1831 3584 
Q 2591 3584 2966 3190 
Q 3341 2797 3341 1997 
z
" transform="scale(0.015625)"/>
      <path id="DejaVuSans-20" transform="scale(0.015625)"/>
      <path id="DejaVuSans-6f" d="M 1959 3097 
Q 1497 3097 1228 2736 
Q 959 2375 959 1747 
Q 959 1119 1226 758 
Q 1494 397 1959 397 
Q 2419 397 2687 759 
Q 2956 1122 2956 1747 
Q 2956 2369 2687 2733 
Q 2419 3097 1959 3097 
z
M 1959 3584 
Q 2709 3584 3137 3096 
Q 3566 2609 3566 1747 
Q 3566 888 3137 398 
Q 2709 -91 1959 -91 
Q 1206 -91 779 398 
Q 353 888 353 1747 
Q 353 2609 779 3096 
Q 1206 3584 1959 3584 
z
" transform="scale(0.015625)"/>
      <path id="DejaVuSans-72" d="M 2631 2963 
Q 2534 3019 2420 3045 
Q 2306 3072 2169 3072 
Q 1681 3072 1420 2755 
Q 1159 2438 1159 1844 
L 1159 0 
L 581 0 
L 581 3500 
L 1159 3500 
L 1159 2956 
Q 1341 3275 1631 3429 
Q 1922 3584 2338 3584 
Q 2397 3584 2469 3576 
Q 2541 3569 2628 3553 
L 2631 2963 
z
" transform="scale(0.015625)"/>
      <path id="DejaVuSans-64" d="M 2906 2969 
L 2906 4863 
L 3481 4863 
L 3481 0 
L 2906 0 
L 2906 525 
Q 2725 213 2448 61 
Q 2172 -91 1784 -91 
Q 1150 -91 751 415 
Q 353 922 353 1747 
Q 353 2572 751 3078 
Q 1150 3584 1784 3584 
Q 2172 3584 2448 3432 
Q 2725 3281 2906 2969 
z
M 947 1747 
Q 947 1113 1208 752 
Q 1469 391 1925 391 
Q 2381 391 2643 752 
Q 2906 1113 2906 1747 
Q 2906 2381 2643 2742 
Q 2381 3103 1925 3103 
Q 1469 3103 1208 2742 
Q 947 2381 947 1747 
z
" transform="scale(0.015625)"/>
      <path id="DejaVuSans-65" d="M 3597 1894 
L 3597 1613 
L 953 1613 
Q 991 1019 1311 708 
Q 1631 397 2203 397 
Q 2534 397 2845 478 
Q 3156 559 3463 722 
L 3463 178 
Q 3153 47 2828 -22 
Q 2503 -91 2169 -91 
Q 1331 -91 842 396 
Q 353 884 353 1716 
Q 353 2575 817 3079 
Q 1281 3584 2069 3584 
Q 2775 3584 3186 3129 
Q 3597 2675 3597 1894 
z
M 3022 2063 
Q 3016 2534 2758 2815 
Q 2500 3097 2075 3097 
Q 1594 3097 1305 2825 
Q 1016 2553 972 2059 
L 3022 2063 
z
" transform="scale(0.015625)"/>
      <path id="DejaVuSans-69" d="M 603 3500 
L 1178 3500 
L 1178 0 
L 603 0 
L 603 3500 
z
M 603 4863 
L 1178 4863 
L 1178 4134 
L 603 4134 
L 603 4863 
z
" transform="scale(0.015625)"/>
      <path id="DejaVuSans-6e" d="M 3513 2113 
L 3513 0 
L 2938 0 
L 2938 2094 
Q 2938 2591 2744 2837 
Q 2550 3084 2163 3084 
Q 1697 3084 1428 2787 
Q 1159 2491 1159 1978 
L 1159 0 
L 581 0 
L 581 3500 
L 1159 3500 
L 1159 2956 
Q 1366 3272 1645 3428 
Q 1925 3584 2291 3584 
Q 2894 3584 3203 3211 
Q 3513 2838 3513 2113 
z
" transform="scale(0.015625)"/>
      <path id="DejaVuSans-67" d="M 2906 1791 
Q 2906 2416 2648 2759 
Q 2391 3103 1925 3103 
Q 1463 3103 1205 2759 
Q 947 2416 947 1791 
Q 947 1169 1205 825 
Q 1463 481 1925 481 
Q 2391 481 2648 825 
Q 2906 1169 2906 1791 
z
M 3481 434 
Q 3481 -459 3084 -895 
Q 2688 -1331 1869 -1331 
Q 1566 -1331 1297 -1286 
Q 1028 -1241 775 -1147 
L 775 -588 
Q 1028 -725 1275 -790 
Q 1522 -856 1778 -856 
Q 2344 -856 2625 -561 
Q 2906 -266 2906 331 
L 2906 616 
Q 2728 306 2450 153 
Q 2172 0 1784 0 
Q 1141 0 747 490 
Q 353 981 353 1791 
Q 353 2603 747 3093 
Q 1141 3584 1784 3584 
Q 2172 3584 2450 3431 
Q 2728 3278 2906 2969 
L 2906 3500 
L 3481 3500 
L 3481 434 
z
" transform="scale(0.015625)"/>
     </defs>
     <use xlink:href="#DejaVuSans-41"/>
     <use xlink:href="#DejaVuSans-75" transform="translate(68.408203 0)"/>
     <use xlink:href="#DejaVuSans-66" transform="translate(131.787109 0)"/>
     <use xlink:href="#DejaVuSans-62" transform="translate(166.992188 0)"/>
     <use xlink:href="#DejaVuSans-61" transform="translate(230.46875 0)"/>
     <use xlink:href="#DejaVuSans-75" transform="translate(291.748047 0)"/>
     <use xlink:href="#DejaVuSans-20" transform="translate(355.126953 0)"/>
     <use xlink:href="#DejaVuSans-6f" transform="translate(386.914062 0)"/>
     <use xlink:href="#DejaVuSans-72" transform="translate(448.095703 0)"/>
     <use xlink:href="#DejaVuSans-64" transform="translate(487.458984 0)"/>
     <use xlink:href="#DejaVuSans-65" transform="translate(550.935547 0)"/>
     <use xlink:href="#DejaVuSans-72" transform="translate(612.458984 0)"/>
     <use xlink:href="#DejaVuSans-69" transform="translate(653.572266 0)"/>
     <use xlink:href="#DejaVuSans-6e" transform="translate(681.355469 0)"/>
     <use xlink:href="#DejaVuSans-67" transform="translate(744.734375 0)"/>
    </g>
    <!-- (schematic) -->
    <g style="fill: #9b59b6" transform="translate(196.261125 96.504333) scale(0.08 -0.08)">
     <defs>
      <path id="DejaVuSans-28" d="M 1984 4856 
Q 1566 4138 1362 3434 
Q 1159 2731 1159 2009 
Q 1159 1288 1364 580 
Q 1569 -128 1984 -844 
L 1484 -844 
Q 1016 -109 783 600 
Q 550 1309 550 2009 
Q 550 2706 781 3412 
Q 1013 4119 1484 4856 
L 1984 4856 
z
" transform="scale(0.015625)"/>
      <path id="DejaVuSans-73" d="M 2834 3397 
L 2834 2853 
Q 2591 2978 2328 3040 
Q 2066 3103 1784 3103 
Q 1356 3103 1142 2972 
Q 928 2841 928 2578 
Q 928 2378 1081 2264 
Q 1234 2150 1697 2047 
L 1894 2003 
Q 2506 1872 2764 1633 
Q 3022 1394 3022 966 
Q 3022 478 2636 193 
Q 2250 -91 1575 -91 
Q 1294 -91 989 -36 
Q 684 19 347 128 
L 347 722 
Q 666 556 975 473 
Q 1284 391 1588 391 
Q 1994 391 2212 530 
Q 2431 669 2431 922 
Q 2431 1156 2273 1281 
Q 2116 1406 1581 1522 
L 1381 1569 
Q 847 1681 609 1914 
Q 372 2147 372 2553 
Q 372 3047 722 3315 
Q 1072 3584 1716 3584 
Q 2034 3584 2315 3537 
Q 2597 3491 2834 3397 
z
" transform="scale(0.015625)"/>
      <path id="DejaVuSans-63" d="M 3122 3366 
L 3122 2828 
Q 2878 2963 2633 3030 
Q 2388 3097 2138 3097 
Q 1578 3097 1268 2742 
Q 959 2388 959 1747 
Q 959 1106 1268 751 
Q 1578 397 2138 397 
Q 2388 397 2633 464 
Q 2878 531 3122 666 
L 3122 134 
Q 2881 22 2623 -34 
Q 2366 -91 2075 -91 
Q 1284 -91 818 406 
Q 353 903 353 1747 
Q 353 2603 823 3093 
Q 1294 3584 2113 3584 
Q 2378 3584 2631 3529 
Q 2884 3475 3122 3366 
z
" transform="scale(0.015625)"/>
      <path id="DejaVuSans-68" d="M 3513 2113 
L 3513 0 
L 2938 0 
L 2938 2094 
Q 2938 2591 2744 2837 
Q 2550 3084 2163 3084 
Q 1697 3084 1428 2787 
Q 1159 2491 1159 1978 
L 1159 0 
L 581 0 
L 581 4863 
L 1159 4863 
L 1159 2956 
Q 1366 3272 1645 3428 
Q 1925 3584 2291 3584 
Q 2894 3584 3203 3211 
Q 3513 2838 3513 2113 
z
" transform="scale(0.015625)"/>
      <path id="DejaVuSans-6d" d="M 3328 2828 
Q 3544 3216 3844 3400 
Q 4144 3584 4550 3584 
Q 5097 3584 5394 3201 
Q 5691 2819 5691 2113 
L 5691 0 
L 5113 0 
L 5113 2094 
Q 5113 2597 4934 2840 
Q 4756 3084 4391 3084 
Q 3944 3084 3684 2787 
Q 3425 2491 3425 1978 
L 3425 0 
L 2847 0 
L 2847 2094 
Q 2847 2600 2669 2842 
Q 2491 3084 2119 3084 
Q 1678 3084 1418 2786 
Q 1159 2488 1159 1978 
L 1159 0 
L 581 0 
L 581 3500 
L 1159 3500 
L 1159 2956 
Q 1356 3278 1631 3431 
Q 1906 3584 2284 3584 
Q 2666 3584 2933 3390 
Q 3200 3197 3328 2828 
z
" transform="scale(0.015625)"/>
      <path id="DejaVuSans-74" d="M 1172 4494 
L 1172 3500 
L 2356 3500 
L 2356 3053 
L 1172 3053 
L 1172 1153 
Q 1172 725 1289 603 
Q 1406 481 1766 481 
L 2356 481 
L 2356 0 
L 1766 0 
Q 1100 0 847 248 
Q 594 497 594 1153 
L 594 3053 
L 172 3053 
L 172 3500 
L 594 3500 
L 594 4494 
L 1172 4494 
z
" transform="scale(0.015625)"/>
      <path id="DejaVuSans-29" d="M 513 4856 
L 1013 4856 
Q 1481 4119 1714 3412 
Q 1947 2706 1947 2009 
Q 1947 1309 1714 600 
Q 1481 -109 1013 -844 
L 513 -844 
Q 928 -128 1133 580 
Q 1338 1288 1338 2009 
Q 1338 2731 1133 3434 
Q 928 4138 513 4856 
z
" transform="scale(0.015625)"/>
     </defs>
     <use xlink:href="#DejaVuSans-28"/>
     <use xlink:href="#DejaVuSans-73" transform="translate(39.013672 0)"/>
     <use xlink:href="#DejaVuSans-63" transform="translate(91.113281 0)"/>
     <use xlink:href="#DejaVuSans-68" transform="translate(146.09375 0)"/>
     <use xlink:href="#DejaVuSans-65" transform="translate(209.472656 0)"/>
     <use xlink:href="#DejaVuSans-6d" transform="translate(270.996094 0)"/>
     <use xlink:href="#DejaVuSans-61" transform="translate(368.408203 0)"/>
     <use xlink:href="#DejaVuSans-74" transform="translate(429.6875 0)"/>
     <use xlink:href="#DejaVuSans-69" transform="translate(468.896484 0)"/>
     <use xlink:href="#DejaVuSans-63" transform="translate(496.679688 0)"/>
     <use xlink:href="#DejaVuSans-29" transform="translate(551.660156 0)"/>
    </g>
   </g>
   <g id="text_12">
    <!-- Energy ↑ -->
    <g style="fill: #95a5a6" transform="translate(201.259875 313.82) scale(0.08 -0.08)">
     <defs>
      <path id="DejaVuSans-45" d="M 628 4666 
L 3578 4666 
L 3578 4134 
L 1259 4134 
L 1259 2753 
L 3481 2753 
L 3481 2222 
L 1259 2222 
L 1259 531 
L 3634 531 
L 3634 0 
L 628 0 
L 628 4666 
z
" transform="scale(0.015625)"/>
      <path id="DejaVuSans-79" d="M 2059 -325 
Q 1816 -950 1584 -1140 
Q 1353 -1331 966 -1331 
L 506 -1331 
L 506 -850 
L 844 -850 
Q 1081 -850 1212 -737 
Q 1344 -625 1503 -206 
L 1606 56 
L 191 3500 
L 800 3500 
L 1894 763 
L 2988 3500 
L 3597 3500 
L 2059 -325 
z
" transform="scale(0.015625)"/>
      <path id="DejaVuSans-2191" d="M 2541 4688 
L 2822 4688 
L 4047 3456 
L 3672 3081 
L 2947 3813 
L 2947 0 
L 2416 0 
L 2416 3813 
L 1684 3081 
L 1309 3456 
L 2541 4688 
z
" transform="scale(0.015625)"/>
     </defs>
     <use xlink:href="#DejaVuSans-45"/>
     <use xlink:href="#DejaVuSans-6e" transform="translate(63.183594 0)"/>
     <use xlink:href="#DejaVuSans-65" transform="translate(126.5625 0)"/>
     <use xlink:href="#DejaVuSans-72" transform="translate(188.085938 0)"/>
     <use xlink:href="#DejaVuSans-67" transform="translate(227.449219 0)"/>
     <use xlink:href="#DejaVuSans-79" transform="translate(290.925781 0)"/>
     <use xlink:href="#DejaVuSans-20" transform="translate(350.105469 0)"/>
     <use xlink:href="#DejaVuSans-2191" transform="translate(381.892578 0)"/>
    </g>
   </g>
   <g id="text_13">
    <!-- Shells and Orbitals -->
    <g transform="translate(140.747812 61.728) scale(0.12 -0.12)">
     <defs>
      <path id="DejaVuSans-53" d="M 3425 4513 
L 3425 3897 
Q 3066 4069 2747 4153 
Q 2428 4238 2131 4238 
Q 1616 4238 1336 4038 
Q 1056 3838 1056 3469 
Q 1056 3159 1242 3001 
Q 1428 2844 1947 2747 
L 2328 2669 
Q 3034 2534 3370 2195 
Q 3706 1856 3706 1288 
Q 3706 609 3251 259 
Q 2797 -91 1919 -91 
Q 1588 -91 1214 -16 
Q 841 59 441 206 
L 441 856 
Q 825 641 1194 531 
Q 1563 422 1919 422 
Q 2459 422 2753 634 
Q 3047 847 3047 1241 
Q 3047 1584 2836 1778 
Q 2625 1972 2144 2069 
L 1759 2144 
Q 1053 2284 737 2584 
Q 422 2884 422 3419 
Q 422 4038 858 4394 
Q 1294 4750 2059 4750 
Q 2388 4750 2728 4690 
Q 3069 4631 3425 4513 
z
" transform="scale(0.015625)"/>
      <path id="DejaVuSans-6c" d="M 603 4863 
L 1178 4863 
L 1178 0 
L 603 0 
L 603 4863 
z
" transform="scale(0.015625)"/>
      <path id="DejaVuSans-4f" d="M 2522 4238 
Q 1834 4238 1429 3725 
Q 1025 3213 1025 2328 
Q 1025 1447 1429 934 
Q 1834 422 2522 422 
Q 3209 422 3611 934 
Q 4013 1447 4013 2328 
Q 4013 3213 3611 3725 
Q 3209 4238 2522 4238 
z
M 2522 4750 
Q 3503 4750 4090 4092 
Q 4678 3434 4678 2328 
Q 4678 1225 4090 567 
Q 3503 -91 2522 -91 
Q 1538 -91 948 565 
Q 359 1222 359 2328 
Q 359 3434 948 4092 
Q 1538 4750 2522 4750 
z
" transform="scale(0.015625)"/>
     </defs>
     <use xlink:href="#DejaVuSans-53"/>
     <use xlink:href="#DejaVuSans-68" transform="translate(63.476562 0)"/>
     <use xlink:href="#DejaVuSans-65" transform="translate(126.855469 0)"/>
     <use xlink:href="#DejaVuSans-6c" transform="translate(188.378906 0)"/>
     <use xlink:href="#DejaVuSans-6c" transform="translate(216.162109 0)"/>
     <use xlink:href="#DejaVuSans-73" transform="translate(243.945312 0)"/>
     <use xlink:href="#DejaVuSans-20" transform="translate(296.044922 0)"/>
     <use xlink:href="#DejaVuSans-61" transform="translate(327.832031 0)"/>
     <use xlink:href="#DejaVuSans-6e" transform="translate(389.111328 0)"/>
     <use xlink:href="#DejaVuSans-64" transform="translate(452.490234 0)"/>
     <use xlink:href="#DejaVuSans-20" transform="translate(515.966797 0)"/>
     <use xlink:href="#DejaVuSans-4f" transform="translate(547.753906 0)"/>
     <use xlink:href="#DejaVuSans-72" transform="translate(626.464844 0)"/>
     <use xlink:href="#DejaVuSans-62" transform="translate(667.578125 0)"/>
     <use xlink:href="#DejaVuSans-69" transform="translate(731.054688 0)"/>
     <use xlink:href="#DejaVuSans-74" transform="translate(758.837891 0)"/>
     <use xlink:href="#DejaVuSans-61" transform="translate(798.046875 0)"/>
     <use xlink:href="#DejaVuSans-6c" transform="translate(859.326172 0)"/>
     <use xlink:href="#DejaVuSans-73" transform="translate(887.109375 0)"/>
    </g>
   </g>
  </g>
  <g id="axes_2">
   <g id="patch_10">
    <path d="M 397.8 322.168 
L 777.6 322.168 
L 777.6 71.728 
L 397.8 71.728 
z
" style="fill: #ffffff"/>
   </g>
   <g id="matplotlib.axis_1">
    <g id="xtick_1">
     <g id="line2d_11">
      <path d="M 420.141176 322.168 
L 420.141176 71.728 
" clip-path="url(#p4e539d677c)" style="fill: none; stroke: #ecf0f1; stroke-opacity: 0.8; stroke-width: 0.8; stroke-linecap: square"/>
     </g>
     <g id="line2d_12">
      <defs>
       <path id="mb2dbe77450" d="M 0 0 
L 0 3.5 
" style="stroke: #000000; stroke-width: 0.8"/>
      </defs>
      <g>
       <use xlink:href="#mb2dbe77450" x="420.141176" y="322.168" style="stroke: #000000; stroke-width: 0.8"/>
      </g>
     </g>
     <g id="text_14">
      <!-- 400 -->
      <g transform="translate(410.597426 336.766437) scale(0.1 -0.1)">
       <defs>
        <path id="DejaVuSans-34" d="M 2419 4116 
L 825 1625 
L 2419 1625 
L 2419 4116 
z
M 2253 4666 
L 3047 4666 
L 3047 1625 
L 3713 1625 
L 3713 1100 
L 3047 1100 
L 3047 0 
L 2419 0 
L 2419 1100 
L 313 1100 
L 313 1709 
L 2253 4666 
z
" transform="scale(0.015625)"/>
        <path id="DejaVuSans-30" d="M 2034 4250 
Q 1547 4250 1301 3770 
Q 1056 3291 1056 2328 
Q 1056 1369 1301 889 
Q 1547 409 2034 409 
Q 2525 409 2770 889 
Q 3016 1369 3016 2328 
Q 3016 3291 2770 3770 
Q 2525 4250 2034 4250 
z
M 2034 4750 
Q 2819 4750 3233 4129 
Q 3647 3509 3647 2328 
Q 3647 1150 3233 529 
Q 2819 -91 2034 -91 
Q 1250 -91 836 529 
Q 422 1150 422 2328 
Q 422 3509 836 4129 
Q 1250 4750 2034 4750 
z
" transform="scale(0.015625)"/>
       </defs>
       <use xlink:href="#DejaVuSans-34"/>
       <use xlink:href="#DejaVuSans-30" transform="translate(63.623047 0)"/>
       <use xlink:href="#DejaVuSans-30" transform="translate(127.246094 0)"/>
      </g>
     </g>
    </g>
    <g id="xtick_2">
     <g id="line2d_13">
      <path d="M 475.994118 322.168 
L 475.994118 71.728 
" clip-path="url(#p4e539d677c)" style="fill: none; stroke: #ecf0f1; stroke-opacity: 0.8; stroke-width: 0.8; stroke-linecap: square"/>
     </g>
     <g id="line2d_14">
      <g>
       <use xlink:href="#mb2dbe77450" x="475.994118" y="322.168" style="stroke: #000000; stroke-width: 0.8"/>
      </g>
     </g>
     <g id="text_15">
      <!-- 450 -->
      <g transform="translate(466.450368 336.766437) scale(0.1 -0.1)">
       <defs>
        <path id="DejaVuSans-35" d="M 691 4666 
L 3169 4666 
L 3169 4134 
L 1269 4134 
L 1269 2991 
Q 1406 3038 1543 3061 
Q 1681 3084 1819 3084 
Q 2600 3084 3056 2656 
Q 3513 2228 3513 1497 
Q 3513 744 3044 326 
Q 2575 -91 1722 -91 
Q 1428 -91 1123 -41 
Q 819 9 494 109 
L 494 744 
Q 775 591 1075 516 
Q 1375 441 1709 441 
Q 2250 441 2565 725 
Q 2881 1009 2881 1497 
Q 2881 1984 2565 2268 
Q 2250 2553 1709 2553 
Q 1456 2553 1204 2497 
Q 953 2441 691 2322 
L 691 4666 
z
" transform="scale(0.015625)"/>
       </defs>
       <use xlink:href="#DejaVuSans-34"/>
       <use xlink:href="#DejaVuSans-35" transform="translate(63.623047 0)"/>
       <use xlink:href="#DejaVuSans-30" transform="translate(127.246094 0)"/>
      </g>
     </g>
    </g>
    <g id="xtick_3">
     <g id="line2d_15">
      <path d="M 531.847059 322.168 
L 531.847059 71.728 
" clip-path="url(#p4e539d677c)" style="fill: none; stroke: #ecf0f1; stroke-opacity: 0.8; stroke-width: 0.8; stroke-linecap: square"/>
     </g>
     <g id="line2d_16">
      <g>
       <use xlink:href="#mb2dbe77450" x="531.847059" y="322.168" style="stroke: #000000; stroke-width: 0.8"/>
      </g>
     </g>
     <g id="text_16">
      <!-- 500 -->
      <g transform="translate(522.303309 336.766437) scale(0.1 -0.1)">
       <use xlink:href="#DejaVuSans-35"/>
       <use xlink:href="#DejaVuSans-30" transform="translate(63.623047 0)"/>
       <use xlink:href="#DejaVuSans-30" transform="translate(127.246094 0)"/>
      </g>
     </g>
    </g>
    <g id="xtick_4">
     <g id="line2d_17">
      <path d="M 587.7 322.168 
L 587.7 71.728 
" clip-path="url(#p4e539d677c)" style="fill: none; stroke: #ecf0f1; stroke-opacity: 0.8; stroke-width: 0.8; stroke-linecap: square"/>
     </g>
     <g id="line2d_18">
      <g>
       <use xlink:href="#mb2dbe77450" x="587.7" y="322.168" style="stroke: #000000; stroke-width: 0.8"/>
      </g>
     </g>
     <g id="text_17">
      <!-- 550 -->
      <g transform="translate(578.15625 336.766437) scale(0.1 -0.1)">
       <use xlink:href="#DejaVuSans-35"/>
       <use xlink:href="#DejaVuSans-35" transform="translate(63.623047 0)"/>
       <use xlink:href="#DejaVuSans-30" transform="translate(127.246094 0)"/>
      </g>
     </g>
    </g>
    <g id="xtick_5">
     <g id="line2d_19">
      <path d="M 643.552941 322.168 
L 643.552941 71.728 
" clip-path="url(#p4e539d677c)" style="fill: none; stroke: #ecf0f1; stroke-opacity: 0.8; stroke-width: 0.8; stroke-linecap: square"/>
     </g>
     <g id="line2d_20">
      <g>
       <use xlink:href="#mb2dbe77450" x="643.552941" y="322.168" style="stroke: #000000; stroke-width: 0.8"/>
      </g>
     </g>
     <g id="text_18">
      <!-- 600 -->
      <g transform="translate(634.009191 336.766437) scale(0.1 -0.1)">
       <defs>
        <path id="DejaVuSans-36" d="M 2113 2584 
Q 1688 2584 1439 2293 
Q 1191 2003 1191 1497 
Q 1191 994 1439 701 
Q 1688 409 2113 409 
Q 2538 409 2786 701 
Q 3034 994 3034 1497 
Q 3034 2003 2786 2293 
Q 2538 2584 2113 2584 
z
M 3366 4563 
L 3366 3988 
Q 3128 4100 2886 4159 
Q 2644 4219 2406 4219 
Q 1781 4219 1451 3797 
Q 1122 3375 1075 2522 
Q 1259 2794 1537 2939 
Q 1816 3084 2150 3084 
Q 2853 3084 3261 2657 
Q 3669 2231 3669 1497 
Q 3669 778 3244 343 
Q 2819 -91 2113 -91 
Q 1303 -91 875 529 
Q 447 1150 447 2328 
Q 447 3434 972 4092 
Q 1497 4750 2381 4750 
Q 2619 4750 2861 4703 
Q 3103 4656 3366 4563 
z
" transform="scale(0.015625)"/>
       </defs>
       <use xlink:href="#DejaVuSans-36"/>
       <use xlink:href="#DejaVuSans-30" transform="translate(63.623047 0)"/>
       <use xlink:href="#DejaVuSans-30" transform="translate(127.246094 0)"/>
      </g>
     </g>
    </g>
    <g id="xtick_6">
     <g id="line2d_21">
      <path d="M 699.405882 322.168 
L 699.405882 71.728 
" clip-path="url(#p4e539d677c)" style="fill: none; stroke: #ecf0f1; stroke-opacity: 0.8; stroke-width: 0.8; stroke-linecap: square"/>
     </g>
     <g id="line2d_22">
      <g>
       <use xlink:href="#mb2dbe77450" x="699.405882" y="322.168" style="stroke: #000000; stroke-width: 0.8"/>
      </g>
     </g>
     <g id="text_19">
      <!-- 650 -->
      <g transform="translate(689.862132 336.766437) scale(0.1 -0.1)">
       <use xlink:href="#DejaVuSans-36"/>
       <use xlink:href="#DejaVuSans-35" transform="translate(63.623047 0)"/>
       <use xlink:href="#DejaVuSans-30" transform="translate(127.246094 0)"/>
      </g>
     </g>
    </g>
    <g id="xtick_7">
     <g id="line2d_23">
      <path d="M 755.258824 322.168 
L 755.258824 71.728 
" clip-path="url(#p4e539d677c)" style="fill: none; stroke: #ecf0f1; stroke-opacity: 0.8; stroke-width: 0.8; stroke-linecap: square"/>
     </g>
     <g id="line2d_24">
      <g>
       <use xlink:href="#mb2dbe77450" x="755.258824" y="322.168" style="stroke: #000000; stroke-width: 0.8"/>
      </g>
     </g>
     <g id="text_20">
      <!-- 700 -->
      <g transform="translate(745.715074 336.766437) scale(0.1 -0.1)">
       <defs>
        <path id="DejaVuSans-37" d="M 525 4666 
L 3525 4666 
L 3525 4397 
L 1831 0 
L 1172 0 
L 2766 4134 
L 525 4134 
L 525 4666 
z
" transform="scale(0.015625)"/>
       </defs>
       <use xlink:href="#DejaVuSans-37"/>
       <use xlink:href="#DejaVuSans-30" transform="translate(63.623047 0)"/>
       <use xlink:href="#DejaVuSans-30" transform="translate(127.246094 0)"/>
      </g>
     </g>
    </g>
    <g id="text_21">
     <!-- Wavelength (nm) -->
     <g transform="translate(544.507812 350.444562) scale(0.1 -0.1)">
      <defs>
       <path id="DejaVuSans-57" d="M 213 4666 
L 850 4666 
L 1831 722 
L 2809 4666 
L 3519 4666 
L 4500 722 
L 5478 4666 
L 6119 4666 
L 4947 0 
L 4153 0 
L 3169 4050 
L 2175 0 
L 1381 0 
L 213 4666 
z
" transform="scale(0.015625)"/>
       <path id="DejaVuSans-76" d="M 191 3500 
L 800 3500 
L 1894 563 
L 2988 3500 
L 3597 3500 
L 2284 0 
L 1503 0 
L 191 3500 
z
" transform="scale(0.015625)"/>
      </defs>
      <use xlink:href="#DejaVuSans-57"/>
      <use xlink:href="#DejaVuSans-61" transform="translate(92.501953 0)"/>
      <use xlink:href="#DejaVuSans-76" transform="translate(153.78125 0)"/>
      <use xlink:href="#DejaVuSans-65" transform="translate(212.960938 0)"/>
      <use xlink:href="#DejaVuSans-6c" transform="translate(274.484375 0)"/>
      <use xlink:href="#DejaVuSans-65" transform="translate(302.267578 0)"/>
      <use xlink:href="#DejaVuSans-6e" transform="translate(363.791016 0)"/>
      <use xlink:href="#DejaVuSans-67" transform="translate(427.169922 0)"/>
      <use xlink:href="#DejaVuSans-74" transform="translate(490.646484 0)"/>
      <use xlink:href="#DejaVuSans-68" transform="translate(529.855469 0)"/>
      <use xlink:href="#DejaVuSans-20" transform="translate(593.234375 0)"/>
      <use xlink:href="#DejaVuSans-28" transform="translate(625.021484 0)"/>
      <use xlink:href="#DejaVuSans-6e" transform="translate(664.035156 0)"/>
      <use xlink:href="#DejaVuSans-6d" transform="translate(727.414062 0)"/>
      <use xlink:href="#DejaVuSans-29" transform="translate(824.826172 0)"/>
     </g>
    </g>
   </g>
   <g id="matplotlib.axis_2"/>
   <g id="LineCollection_1">
    <path d="M 706.108235 284.602 
L 706.108235 84.25 
" clip-path="url(#p4e539d677c)" style="fill: none; stroke: #e74c3c; stroke-width: 3"/>
   </g>
   <g id="LineCollection_2">
    <path d="M 516.208235 284.602 
L 516.208235 84.25 
" clip-path="url(#p4e539d677c)" style="fill: none; stroke: #3498db; stroke-width: 3"/>
   </g>
   <g id="LineCollection_3">
    <path d="M 458.121176 284.602 
L 458.121176 84.25 
" clip-path="url(#p4e539d677c)" style="fill: none; stroke: #9b59b6; stroke-width: 3"/>
   </g>
   <g id="LineCollection_4">
    <path d="M 431.311765 284.602 
L 431.311765 84.25 
" clip-path="url(#p4e539d677c)" style="fill: none; stroke: #8e44ad; stroke-width: 3"/>
   </g>
   <g id="patch_11">
    <path d="M 397.8 322.168 
L 397.8 71.728 
" style="fill: none; stroke: #000000; stroke-width: 0.8; stroke-linejoin: miter; stroke-linecap: square"/>
   </g>
   <g id="patch_12">
    <path d="M 777.6 322.168 
L 777.6 71.728 
" style="fill: none; stroke: #000000; stroke-width: 0.8; stroke-linejoin: miter; stroke-linecap: square"/>
   </g>
   <g id="patch_13">
    <path d="M 397.8 322.168 
L 777.6 322.168 
" style="fill: none; stroke: #000000; stroke-width: 0.8; stroke-linejoin: miter; stroke-linecap: square"/>
   </g>
   <g id="patch_14">
    <path d="M 397.8 71.728 
L 777.6 71.728 
" style="fill: none; stroke: #000000; stroke-width: 0.8; stroke-linejoin: miter; stroke-linecap: square"/>
   </g>
   <g id="text_22">
    <!-- Hα -->
    <g style="fill: #2c3e50" transform="translate(700.463235 309.646) scale(0.08 -0.08)">
     <defs>
      <path id="DejaVuSans-48" d="M 628 4666 
L 1259 4666 
L 1259 2753 
L 3553 2753 
L 3553 4666 
L 4184 4666 
L 4184 0 
L 3553 0 
L 3553 2222 
L 1259 2222 
L 1259 0 
L 628 0 
L 628 4666 
z
" transform="scale(0.015625)"/>
      <path id="DejaVuSans-3b1" d="M 2644 1628 
L 2506 2350 
Q 2366 3091 1809 3091 
Q 1391 3091 1200 2747 
Q 959 2316 959 1747 
Q 959 1059 1194 731 
Q 1431 397 1809 397 
Q 2228 397 2453 1063 
L 2644 1628 
z
M 2966 2584 
L 3275 3500 
L 3788 3500 
L 3147 1603 
L 3272 919 
Q 3300 766 3409 638 
Q 3538 488 3638 488 
L 3913 488 
L 3913 0 
L 3569 0 
Q 3275 0 3013 263 
Q 2884 394 2831 669 
Q 2688 322 2394 50 
Q 2256 -78 1809 -78 
Q 1075 -78 719 397 
Q 353 888 353 1747 
Q 353 2666 750 3097 
Q 1191 3578 1809 3578 
Q 2781 3578 2966 2584 
z
" transform="scale(0.015625)"/>
     </defs>
     <use xlink:href="#DejaVuSans-48"/>
     <use xlink:href="#DejaVuSans-3b1" transform="translate(75.195312 0)"/>
    </g>
   </g>
   <g id="text_23">
    <!-- Hβ -->
    <g style="fill: #2c3e50" transform="translate(510.64761 309.646) scale(0.08 -0.08)">
     <defs>
      <path id="DejaVuSans-3b2" d="M 1178 216 
L 1178 -1331 
L 600 -1331 
L 600 3478 
Q 600 4903 1931 4903 
Q 3288 4903 3288 3700 
Q 3288 2844 2750 2531 
Q 3625 2250 3625 1416 
Q 3625 -66 2119 -66 
Q 1456 -66 1178 216 
z
M 1178 966 
Q 1525 425 2141 425 
Q 3041 425 3041 1406 
Q 3041 2288 1591 2219 
L 1591 2750 
Q 2725 2750 2725 3750 
Q 2725 4434 1994 4434 
Q 1178 4434 1178 3459 
L 1178 966 
z
" transform="scale(0.015625)"/>
     </defs>
     <use xlink:href="#DejaVuSans-48"/>
     <use xlink:href="#DejaVuSans-3b2" transform="translate(75.195312 0)"/>
    </g>
   </g>
   <g id="text_24">
    <!-- Hγ -->
    <g style="fill: #2c3e50" transform="translate(452.745551 309.646) scale(0.08 -0.08)">
     <defs>
      <path id="DejaVuSans-3b3" d="M 1128 2950 
L 1894 788 
L 2988 3500 
L 3597 3500 
L 2181 0 
L 2181 -1331 
L 1606 -1331 
L 1606 0 
L 688 2613 
Q 550 3006 253 3006 
L 100 3006 
L 100 3500 
L 319 3500 
Q 934 3500 1128 2950 
z
" transform="scale(0.015625)"/>
     </defs>
     <use xlink:href="#DejaVuSans-48"/>
     <use xlink:href="#DejaVuSans-3b3" transform="translate(75.195312 0)"/>
    </g>
   </g>
   <g id="text_25">
    <!-- Hδ -->
    <g style="fill: #2c3e50" transform="translate(425.85614 309.646) scale(0.08 -0.08)">
     <defs>
      <path id="DejaVuSans-3b4" d="M 3138 4053 
Q 2819 4272 2072 4272 
Q 1281 4272 1281 3906 
Q 1281 3619 2106 3469 
Q 2756 3353 3122 3003 
Q 3566 2581 3566 1716 
Q 3566 888 3138 400 
Q 2709 -91 1959 -91 
Q 1213 -91 781 400 
Q 353 888 353 1747 
Q 353 2384 781 2900 
Q 947 3100 1181 3213 
Q 694 3459 694 3900 
Q 694 4750 2072 4750 
Q 2763 4750 3138 4531 
L 3138 4053 
z
M 1613 3056 
Q 1400 2966 1228 2738 
Q 959 2384 959 1747 
Q 959 1113 1225 756 
Q 1494 397 1959 397 
Q 2419 397 2687 759 
Q 2956 1122 2956 1716 
Q 2956 2338 2672 2638 
Q 2369 2959 1975 2994 
Q 1775 3013 1613 3056 
z
" transform="scale(0.015625)"/>
     </defs>
     <use xlink:href="#DejaVuSans-48"/>
     <use xlink:href="#DejaVuSans-3b4" transform="translate(75.195312 0)"/>
    </g>
   </g>
   <g id="text_26">
    <!-- Emission Spectrum (schematic) -->
    <g transform="translate(492.676875 61.728) scale(0.12 -0.12)">
     <defs>
      <path id="DejaVuSans-70" d="M 1159 525 
L 1159 -1331 
L 581 -1331 
L 581 3500 
L 1159 3500 
L 1159 2969 
Q 1341 3281 1617 3432 
Q 1894 3584 2278 3584 
Q 2916 3584 3314 3078 
Q 3713 2572 3713 1747 
Q 3713 922 3314 415 
Q 2916 -91 2278 -91 
Q 1894 -91 1617 61 
Q 1341 213 1159 525 
z
M 3116 1747 
Q 3116 2381 2855 2742 
Q 2594 3103 2138 3103 
Q 1681 3103 1420 2742 
Q 1159 2381 1159 1747 
Q 1159 1113 1420 752 
Q 1681 391 2138 391 
Q 2594 391 2855 752 
Q 3116 1113 3116 1747 
z
" transform="scale(0.015625)"/>
     </defs>
     <use xlink:href="#DejaVuSans-45"/>
     <use xlink:href="#DejaVuSans-6d" transform="translate(63.183594 0)"/>
     <use xlink:href="#DejaVuSans-69" transform="translate(160.595703 0)"/>
     <use xlink:href="#DejaVuSans-73" transform="translate(188.378906 0)"/>
     <use xlink:href="#DejaVuSans-73" transform="translate(240.478516 0)"/>
     <use xlink:href="#DejaVuSans-69" transform="translate(292.578125 0)"/>
     <use xlink:href="#DejaVuSans-6f" transform="translate(320.361328 0)"/>
     <use xlink:href="#DejaVuSans-6e" transform="translate(381.542969 0)"/>
     <use xlink:href="#DejaVuSans-20" transform="translate(444.921875 0)"/>
     <use xlink:href="#DejaVuSans-53" transform="translate(476.708984 0)"/>
     <use xlink:href="#DejaVuSans-70" transform="translate(540.185547 0)"/>
     <use xlink:href="#DejaVuSans-65" transform="translate(603.662109 0)"/>
     <use xlink:href="#DejaVuSans-63" transform="translate(665.185547 0)"/>
     <use xlink:href="#DejaVuSans-74" transform="translate(720.166016 0)"/>
     <use xlink:href="#DejaVuSans-72" transform="translate(759.375 0)"/>
     <use xlink:href="#DejaVuSans-75" transform="translate(800.488281 0)"/>
     <use xlink:href="#DejaVuSans-6d" transform="translate(863.867188 0)"/>
     <use xlink:href="#DejaVuSans-20" transform="translate(961.279297 0)"/>
     <use xlink:href="#DejaVuSans-28" transform="translate(993.066406 0)"/>
     <use xlink:href="#DejaVuSans-73" transform="translate(1032.080078 0)"/>
     <use xlink:href="#DejaVuSans-63" transform="translate(1084.179688 0)"/>
     <use xlink:href="#DejaVuSans-68" transform="translate(1139.160156 0)"/>
     <use xlink:href="#DejaVuSans-65" transform="translate(1202.539062 0)"/>
     <use xlink:href="#DejaVuSans-6d" transform="translate(1264.0625 0)"/>
     <use xlink:href="#DejaVuSans-61" transform="translate(1361.474609 0)"/>
     <use xlink:href="#DejaVuSans-74" transform="translate(1422.753906 0)"/>
     <use xlink:href="#DejaVuSans-69" transform="translate(1461.962891 0)"/>
     <use xlink:href="#DejaVuSans-63" transform="translate(1489.746094 0)"/>
     <use xlink:href="#DejaVuSans-29" transform="translate(1544.726562 0)"/>
    </g>
   </g>
  </g>
  <g id="text_27">
   <!-- Electron Shells and Spectral Lines -->
   <g transform="translate(273.765312 17.837812) scale(0.14 -0.14)">
    <defs>
     <path id="DejaVuSans-4c" d="M 628 4666 
L 1259 4666 
L 1259 531 
L 3531 531 
L 3531 0 
L 628 0 
L 628 4666 
z
" transform="scale(0.015625)"/>
    </defs>
    <use xlink:href="#DejaVuSans-45"/>
    <use xlink:href="#DejaVuSans-6c" transform="translate(63.183594 0)"/>
    <use xlink:href="#DejaVuSans-65" transform="translate(90.966797 0)"/>
    <use xlink:href="#DejaVuSans-63" transform="translate(152.490234 0)"/>
    <use xlink:href="#DejaVuSans-74" transform="translate(207.470703 0)"/>
    <use xlink:href="#DejaVuSans-72" transform="translate(246.679688 0)"/>
    <use xlink:href="#DejaVuSans-6f" transform="translate(285.542969 0)"/>
    <use xlink:href="#DejaVuSans-6e" transform="translate(346.724609 0)"/>
    <use xlink:href="#DejaVuSans-20" transform="translate(410.103516 0)"/>
    <use xlink:href="#DejaVuSans-53" transform="translate(441.890625 0)"/>
    <use xlink:href="#DejaVuSans-68" transform="translate(505.367188 0)"/>
    <use xlink:href="#DejaVuSans-65" transform="translate(568.746094 0)"/>
    <use xlink:href="#DejaVuSans-6c" transform="translate(630.269531 0)"/>
    <use xlink:href="#DejaVuSans-6c" transform="translate(658.052734 0)"/>
    <use xlink:href="#DejaVuSans-73" transform="translate(685.835938 0)"/>
    <use xlink:href="#DejaVuSans-20" transform="translate(737.935547 0)"/>
    <use xlink:href="#DejaVuSans-61" transform="translate(769.722656 0)"/>
    <use xlink:href="#DejaVuSans-6e" transform="translate(831.001953 0)"/>
    <use xlink:href="#DejaVuSans-64" transform="translate(894.380859 0)"/>
    <use xlink:href="#DejaVuSans-20" transform="translate(957.857422 0)"/>
    <use xlink:href="#DejaVuSans-53" transform="translate(989.644531 0)"/>
    <use xlink:href="#DejaVuSans-70" transform="translate(1053.121094 0)"/>
    <use xlink:href="#DejaVuSans-65" transform="translate(1116.597656 0)"/>
    <use xlink:href="#DejaVuSans-63" transform="translate(1178.121094 0)"/>
    <use xlink:href="#DejaVuSans-74" transform="translate(1233.101562 0)"/>
    <use xlink:href="#DejaVuSans-72" transform="translate(1272.310547 0)"/>
    <use xlink:href="#DejaVuSans-61" transform="translate(1313.423828 0)"/>
    <use xlink:href="#DejaVuSans-6c" transform="translate(1374.703125 0)"/>
    <use xlink:href="#DejaVuSans-20" transform="translate(1402.486328 0)"/>
    <use xlink:href="#DejaVuSans-4c" transform="translate(1434.273438 0)"/>
    <use xlink:href="#DejaVuSans-69" transform="translate(1489.986328 0)"/>
    <use xlink:href="#DejaVuSans-6e" transform="translate(1517.769531 0)"/>
    <use xlink:href="#DejaVuSans-65" transform="translate(1581.148438 0)"/>
    <use xlink:href="#DejaVuSans-73" transform="translate(1642.671875 0)"/>
   </g>
  </g>
 </g>
 <defs>
  <clipPath id="p97de62cdaa">
   <rect x="7.2" y="71.728" width="379.8" height="250.44"/>
  </clipPath>
  <clipPath id="p4e539d677c">
   <rect x="397.8" y="71.728" width="379.8" height="250.44"/>
  </clipPath>
 </defs>
</svg>
