<?xml version="1.0" encoding="utf-8" standalone="no"?>
<!DOCTYPE svg PUBLIC "-//W3C//DTD SVG 1.1//EN"
  "http://www.w3.org/Graphics/SVG/1.1/DTD/svg11.dtd">
<svg xmlns:xlink="http://www.w3.org/1999/xlink" width="892.615pt" height="337.7925pt" viewBox="0 0 892.615 337.7925" xmlns="http://www.w3.org/2000/svg" version="1.1">
 <metadata>
  <rdf:RDF xmlns:dc="http://purl.org/dc/elements/1.1/" xmlns:cc="http://creativecommons.org/ns#" xmlns:rdf="http://www.w3.org/1999/02/22-rdf-syntax-ns#">
   <cc:Work>
    <dc:type rdf:resource="http://purl.org/dc/dcmitype/StillImage"/>
    <dc:date>2026-01-04T13:51:13.784254</dc:date>
    <dc:format>image/svg+xml</dc:format>
    <dc:creator>
     <cc:Agent>
      <dc:title>Matplotlib v3.10.8, https://matplotlib.org/</dc:title>
     </cc:Agent>
    </dc:creator>
   </cc:Work>
  </rdf:RDF>
 </metadata>
 <defs>
  <style type="text/css">*{stroke-linejoin: round; stroke-linecap: butt}</style>
 </defs>
 <g id="figure_1">
  <g id="patch_1">
   <path d="M 0 337.7925 
L 892.615 337.7925 
L 892.615 0 
L 0 0 
z
" style="fill: #ffffff"/>
  </g>
  <g id="axes_1">
   <g id="patch_2">
    <path d="M 48.885 300.23625 
L 437.528219 300.23625 
L 437.528219 28.91625 
L 48.885 28.91625 
z
" style="fill: #ffffff"/>
   </g>
   <g id="matplotlib.axis_1">
    <g id="xtick_1">
     <g id="line2d_1">
      <path d="M 66.550601 300.23625 
L 66.550601 28.91625 
" clip-path="url(#pf060b2646a)" style="fill: none; stroke: #cccccc; stroke-opacity: 0.3; stroke-width: 0.5; stroke-linecap: square"/>
     </g>
     <g id="line2d_2">
      <defs>
       <path id="mc8ff8feca6" d="M 0 0 
L 0 3.5 
" style="stroke: #000000; stroke-width: 0.8"/>
      </defs>
      <g>
       <use xlink:href="#mc8ff8feca6" x="66.550601" y="300.23625" style="stroke: #000000; stroke-width: 0.8"/>
      </g>
     </g>
     <g id="text_1">
      <!-- 0 -->
      <g transform="translate(63.687476 314.074844) scale(0.09 -0.09)">
       <defs>
        <path id="DejaVuSans-30" d="M 2034 4250 
Q 1547 4250 1301 3770 
Q 1056 3291 1056 2328 
Q 1056 1369 1301 889 
Q 1547 409 2034 409 
Q 2525 409 2770 889 
Q 3016 1369 3016 2328 
Q 3016 3291 2770 3770 
Q 2525 4250 2034 4250 
z
M 2034 4750 
Q 2819 4750 3233 4129 
Q 3647 3509 3647 2328 
Q 3647 1150 3233 529 
Q 2819 -91 2034 -91 
Q 1250 -91 836 529 
Q 422 1150 422 2328 
Q 422 3509 836 4129 
Q 1250 4750 2034 4750 
z
" transform="scale(0.015625)"/>
       </defs>
       <use xlink:href="#DejaVuSans-30"/>
      </g>
     </g>
    </g>
    <g id="xtick_2">
     <g id="line2d_3">
      <path d="M 125.435937 300.23625 
L 125.435937 28.91625 
" clip-path="url(#pf060b2646a)" style="fill: none; stroke: #cccccc; stroke-opacity: 0.3; stroke-width: 0.5; stroke-linecap: square"/>
     </g>
     <g id="line2d_4">
      <g>
       <use xlink:href="#mc8ff8feca6" x="125.435937" y="300.23625" style="stroke: #000000; stroke-width: 0.8"/>
      </g>
     </g>
     <g id="text_2">
      <!-- 2 -->
      <g transform="translate(122.572812 314.074844) scale(0.09 -0.09)">
       <defs>
        <path id="DejaVuSans-32" d="M 1228 531 
L 3431 531 
L 3431 0 
L 469 0 
L 469 531 
Q 828 903 1448 1529 
Q 2069 2156 2228 2338 
Q 2531 2678 2651 2914 
Q 2772 3150 2772 3378 
Q 2772 3750 2511 3984 
Q 2250 4219 1831 4219 
Q 1534 4219 1204 4116 
Q 875 4013 500 3803 
L 500 4441 
Q 881 4594 1212 4672 
Q 1544 4750 1819 4750 
Q 2544 4750 2975 4387 
Q 3406 4025 3406 3419 
Q 3406 3131 3298 2873 
Q 3191 2616 2906 2266 
Q 2828 2175 2409 1742 
Q 1991 1309 1228 531 
z
" transform="scale(0.015625)"/>
       </defs>
       <use xlink:href="#DejaVuSans-32"/>
      </g>
     </g>
    </g>
    <g id="xtick_3">
     <g id="line2d_5">
      <path d="M 184.321273 300.23625 
L 184.321273 28.91625 
" clip-path="url(#pf060b2646a)" style="fill: none; stroke: #cccccc; stroke-opacity: 0.3; stroke-width: 0.5; stroke-linecap: square"/>
     </g>
     <g id="line2d_6">
      <g>
       <use xlink:href="#mc8ff8feca6" x="184.321273" y="300.23625" style="stroke: #000000; stroke-width: 0.8"/>
      </g>
     </g>
     <g id="text_3">
      <!-- 4 -->
      <g transform="translate(181.458148 314.074844) scale(0.09 -0.09)">
       <defs>
        <path id="DejaVuSans-34" d="M 2419 4116 
L 825 1625 
L 2419 1625 
L 2419 4116 
z
M 2253 4666 
L 3047 4666 
L 3047 1625 
L 3713 1625 
L 3713 1100 
L 3047 1100 
L 3047 0 
L 2419 0 
L 2419 1100 
L 313 1100 
L 313 1709 
L 2253 4666 
z
" transform="scale(0.015625)"/>
       </defs>
       <use xlink:href="#DejaVuSans-34"/>
      </g>
     </g>
    </g>
    <g id="xtick_4">
     <g id="line2d_7">
      <path d="M 243.20661 300.23625 
L 243.20661 28.91625 
" clip-path="url(#pf060b2646a)" style="fill: none; stroke: #cccccc; stroke-opacity: 0.3; stroke-width: 0.5; stroke-linecap: square"/>
     </g>
     <g id="line2d_8">
      <g>
       <use xlink:href="#mc8ff8feca6" x="243.20661" y="300.23625" style="stroke: #000000; stroke-width: 0.8"/>
      </g>
     </g>
     <g id="text_4">
      <!-- 6 -->
      <g transform="translate(240.343485 314.074844) scale(0.09 -0.09)">
       <defs>
        <path id="DejaVuSans-36" d="M 2113 2584 
Q 1688 2584 1439 2293 
Q 1191 2003 1191 1497 
Q 1191 994 1439 701 
Q 1688 409 2113 409 
Q 2538 409 2786 701 
Q 3034 994 3034 1497 
Q 3034 2003 2786 2293 
Q 2538 2584 2113 2584 
z
M 3366 4563 
L 3366 3988 
Q 3128 4100 2886 4159 
Q 2644 4219 2406 4219 
Q 1781 4219 1451 3797 
Q 1122 3375 1075 2522 
Q 1259 2794 1537 2939 
Q 1816 3084 2150 3084 
Q 2853 3084 3261 2657 
Q 3669 2231 3669 1497 
Q 3669 778 3244 343 
Q 2819 -91 2113 -91 
Q 1303 -91 875 529 
Q 447 1150 447 2328 
Q 447 3434 972 4092 
Q 1497 4750 2381 4750 
Q 2619 4750 2861 4703 
Q 3103 4656 3366 4563 
z
" transform="scale(0.015625)"/>
       </defs>
       <use xlink:href="#DejaVuSans-36"/>
      </g>
     </g>
    </g>
    <g id="xtick_5">
     <g id="line2d_9">
      <path d="M 302.091946 300.23625 
L 302.091946 28.91625 
" clip-path="url(#pf060b2646a)" style="fill: none; stroke: #cccccc; stroke-opacity: 0.3; stroke-width: 0.5; stroke-linecap: square"/>
     </g>
     <g id="line2d_10">
      <g>
       <use xlink:href="#mc8ff8feca6" x="302.091946" y="300.23625" style="stroke: #000000; stroke-width: 0.8"/>
      </g>
     </g>
     <g id="text_5">
      <!-- 8 -->
      <g transform="translate(299.228821 314.074844) scale(0.09 -0.09)">
       <defs>
        <path id="DejaVuSans-38" d="M 2034 2216 
Q 1584 2216 1326 1975 
Q 1069 1734 1069 1313 
Q 1069 891 1326 650 
Q 1584 409 2034 409 
Q 2484 409 2743 651 
Q 3003 894 3003 1313 
Q 3003 1734 2745 1975 
Q 2488 2216 2034 2216 
z
M 1403 2484 
Q 997 2584 770 2862 
Q 544 3141 544 3541 
Q 544 4100 942 4425 
Q 1341 4750 2034 4750 
Q 2731 4750 3128 4425 
Q 3525 4100 3525 3541 
Q 3525 3141 3298 2862 
Q 3072 2584 2669 2484 
Q 3125 2378 3379 2068 
Q 3634 1759 3634 1313 
Q 3634 634 3220 271 
Q 2806 -91 2034 -91 
Q 1263 -91 848 271 
Q 434 634 434 1313 
Q 434 1759 690 2068 
Q 947 2378 1403 2484 
z
M 1172 3481 
Q 1172 3119 1398 2916 
Q 1625 2713 2034 2713 
Q 2441 2713 2670 2916 
Q 2900 3119 2900 3481 
Q 2900 3844 2670 4047 
Q 2441 4250 2034 4250 
Q 1625 4250 1398 4047 
Q 1172 3844 1172 3481 
z
" transform="scale(0.015625)"/>
       </defs>
       <use xlink:href="#DejaVuSans-38"/>
      </g>
     </g>
    </g>
    <g id="xtick_6">
     <g id="line2d_11">
      <path d="M 360.977282 300.23625 
L 360.977282 28.91625 
" clip-path="url(#pf060b2646a)" style="fill: none; stroke: #cccccc; stroke-opacity: 0.3; stroke-width: 0.5; stroke-linecap: square"/>
     </g>
     <g id="line2d_12">
      <g>
       <use xlink:href="#mc8ff8feca6" x="360.977282" y="300.23625" style="stroke: #000000; stroke-width: 0.8"/>
      </g>
     </g>
     <g id="text_6">
      <!-- 10 -->
      <g transform="translate(355.251032 314.074844) scale(0.09 -0.09)">
       <defs>
        <path id="DejaVuSans-31" d="M 794 531 
L 1825 531 
L 1825 4091 
L 703 3866 
L 703 4441 
L 1819 4666 
L 2450 4666 
L 2450 531 
L 3481 531 
L 3481 0 
L 794 0 
L 794 531 
z
" transform="scale(0.015625)"/>
       </defs>
       <use xlink:href="#DejaVuSans-31"/>
       <use xlink:href="#DejaVuSans-30" transform="translate(63.623047 0)"/>
      </g>
     </g>
    </g>
    <g id="xtick_7">
     <g id="line2d_13">
      <path d="M 419.862618 300.23625 
L 419.862618 28.91625 
" clip-path="url(#pf060b2646a)" style="fill: none; stroke: #cccccc; stroke-opacity: 0.3; stroke-width: 0.5; stroke-linecap: square"/>
     </g>
     <g id="line2d_14">
      <g>
       <use xlink:href="#mc8ff8feca6" x="419.862618" y="300.23625" style="stroke: #000000; stroke-width: 0.8"/>
      </g>
     </g>
     <g id="text_7">
      <!-- 12 -->
      <g transform="translate(414.136368 314.074844) scale(0.09 -0.09)">
       <use xlink:href="#DejaVuSans-31"/>
       <use xlink:href="#DejaVuSans-32" transform="translate(63.623047 0)"/>
      </g>
     </g>
    </g>
    <g id="text_8">
     <!-- Iteration -->
     <g transform="translate(219.877157 328.304844) scale(0.11 -0.11)">
      <defs>
       <path id="DejaVuSans-49" d="M 628 4666 
L 1259 4666 
L 1259 0 
L 628 0 
L 628 4666 
z
" transform="scale(0.015625)"/>
       <path id="DejaVuSans-74" d="M 1172 4494 
L 1172 3500 
L 2356 3500 
L 2356 3053 
L 1172 3053 
L 1172 1153 
Q 1172 725 1289 603 
Q 1406 481 1766 481 
L 2356 481 
L 2356 0 
L 1766 0 
Q 1100 0 847 248 
Q 594 497 594 1153 
L 594 3053 
L 172 3053 
L 172 3500 
L 594 3500 
L 594 4494 
L 1172 4494 
z
" transform="scale(0.015625)"/>
       <path id="DejaVuSans-65" d="M 3597 1894 
L 3597 1613 
L 953 1613 
Q 991 1019 1311 708 
Q 1631 397 2203 397 
Q 2534 397 2845 478 
Q 3156 559 3463 722 
L 3463 178 
Q 3153 47 2828 -22 
Q 2503 -91 2169 -91 
Q 1331 -91 842 396 
Q 353 884 353 1716 
Q 353 2575 817 3079 
Q 1281 3584 2069 3584 
Q 2775 3584 3186 3129 
Q 3597 2675 3597 1894 
z
M 3022 2063 
Q 3016 2534 2758 2815 
Q 2500 3097 2075 3097 
Q 1594 3097 1305 2825 
Q 1016 2553 972 2059 
L 3022 2063 
z
" transform="scale(0.015625)"/>
       <path id="DejaVuSans-72" d="M 2631 2963 
Q 2534 3019 2420 3045 
Q 2306 3072 2169 3072 
Q 1681 3072 1420 2755 
Q 1159 2438 1159 1844 
L 1159 0 
L 581 0 
L 581 3500 
L 1159 3500 
L 1159 2956 
Q 1341 3275 1631 3429 
Q 1922 3584 2338 3584 
Q 2397 3584 2469 3576 
Q 2541 3569 2628 3553 
L 2631 2963 
z
" transform="scale(0.015625)"/>
       <path id="DejaVuSans-61" d="M 2194 1759 
Q 1497 1759 1228 1600 
Q 959 1441 959 1056 
Q 959 750 1161 570 
Q 1363 391 1709 391 
Q 2188 391 2477 730 
Q 2766 1069 2766 1631 
L 2766 1759 
L 2194 1759 
z
M 3341 1997 
L 3341 0 
L 2766 0 
L 2766 531 
Q 2569 213 2275 61 
Q 1981 -91 1556 -91 
Q 1019 -91 701 211 
Q 384 513 384 1019 
Q 384 1609 779 1909 
Q 1175 2209 1959 2209 
L 2766 2209 
L 2766 2266 
Q 2766 2663 2505 2880 
Q 2244 3097 1772 3097 
Q 1472 3097 1187 3025 
Q 903 2953 641 2809 
L 641 3341 
Q 956 3463 1253 3523 
Q 1550 3584 1831 3584 
Q 2591 3584 2966 3190 
Q 3341 2797 3341 1997 
z
" transform="scale(0.015625)"/>
       <path id="DejaVuSans-69" d="M 603 3500 
L 1178 3500 
L 1178 0 
L 603 0 
L 603 3500 
z
M 603 4863 
L 1178 4863 
L 1178 4134 
L 603 4134 
L 603 4863 
z
" transform="scale(0.015625)"/>
       <path id="DejaVuSans-6f" d="M 1959 3097 
Q 1497 3097 1228 2736 
Q 959 2375 959 1747 
Q 959 1119 1226 758 
Q 1494 397 1959 397 
Q 2419 397 2687 759 
Q 2956 1122 2956 1747 
Q 2956 2369 2687 2733 
Q 2419 3097 1959 3097 
z
M 1959 3584 
Q 2709 3584 3137 3096 
Q 3566 2609 3566 1747 
Q 3566 888 3137 398 
Q 2709 -91 1959 -91 
Q 1206 -91 779 398 
Q 353 888 353 1747 
Q 353 2609 779 3096 
Q 1206 3584 1959 3584 
z
" transform="scale(0.015625)"/>
       <path id="DejaVuSans-6e" d="M 3513 2113 
L 3513 0 
L 2938 0 
L 2938 2094 
Q 2938 2591 2744 2837 
Q 2550 3084 2163 3084 
Q 1697 3084 1428 2787 
Q 1159 2491 1159 1978 
L 1159 0 
L 581 0 
L 581 3500 
L 1159 3500 
L 1159 2956 
Q 1366 3272 1645 3428 
Q 1925 3584 2291 3584 
Q 2894 3584 3203 3211 
Q 3513 2838 3513 2113 
z
" transform="scale(0.015625)"/>
      </defs>
      <use xlink:href="#DejaVuSans-49"/>
      <use xlink:href="#DejaVuSans-74" transform="translate(29.492188 0)"/>
      <use xlink:href="#DejaVuSans-65" transform="translate(68.701172 0)"/>
      <use xlink:href="#DejaVuSans-72" transform="translate(130.224609 0)"/>
      <use xlink:href="#DejaVuSans-61" transform="translate(171.337891 0)"/>
      <use xlink:href="#DejaVuSans-74" transform="translate(232.617188 0)"/>
      <use xlink:href="#DejaVuSans-69" transform="translate(271.826172 0)"/>
      <use xlink:href="#DejaVuSans-6f" transform="translate(299.609375 0)"/>
      <use xlink:href="#DejaVuSans-6e" transform="translate(360.791016 0)"/>
     </g>
    </g>
   </g>
   <g id="matplotlib.axis_2">
    <g id="ytick_1">
     <g id="line2d_15">
      <path d="M 48.885 262.475463 
L 437.528219 262.475463 
" clip-path="url(#pf060b2646a)" style="fill: none; stroke: #cccccc; stroke-opacity: 0.3; stroke-width: 0.5; stroke-linecap: square"/>
     </g>
     <g id="line2d_16">
      <defs>
       <path id="m659016358a" d="M 0 0 
L -3.5 0 
" style="stroke: #000000; stroke-width: 0.8"/>
      </defs>
      <g>
       <use xlink:href="#m659016358a" x="48.885" y="262.475463" style="stroke: #000000; stroke-width: 0.8"/>
      </g>
     </g>
     <g id="text_9">
      <!-- 1.60 -->
      <g transform="translate(21.845937 265.89476) scale(0.09 -0.09)">
       <defs>
        <path id="DejaVuSans-2e" d="M 684 794 
L 1344 794 
L 1344 0 
L 684 0 
L 684 794 
z
" transform="scale(0.015625)"/>
       </defs>
       <use xlink:href="#DejaVuSans-31"/>
       <use xlink:href="#DejaVuSans-2e" transform="translate(63.623047 0)"/>
       <use xlink:href="#DejaVuSans-36" transform="translate(95.410156 0)"/>
       <use xlink:href="#DejaVuSans-30" transform="translate(159.033203 0)"/>
      </g>
     </g>
    </g>
    <g id="ytick_2">
     <g id="line2d_17">
      <path d="M 48.885 218.939742 
L 437.528219 218.939742 
" clip-path="url(#pf060b2646a)" style="fill: none; stroke: #cccccc; stroke-opacity: 0.3; stroke-width: 0.5; stroke-linecap: square"/>
     </g>
     <g id="line2d_18">
      <g>
       <use xlink:href="#m659016358a" x="48.885" y="218.939742" style="stroke: #000000; stroke-width: 0.8"/>
      </g>
     </g>
     <g id="text_10">
      <!-- 1.65 -->
      <g transform="translate(21.845937 222.359039) scale(0.09 -0.09)">
       <defs>
        <path id="DejaVuSans-35" d="M 691 4666 
L 3169 4666 
L 3169 4134 
L 1269 4134 
L 1269 2991 
Q 1406 3038 1543 3061 
Q 1681 3084 1819 3084 
Q 2600 3084 3056 2656 
Q 3513 2228 3513 1497 
Q 3513 744 3044 326 
Q 2575 -91 1722 -91 
Q 1428 -91 1123 -41 
Q 819 9 494 109 
L 494 744 
Q 775 591 1075 516 
Q 1375 441 1709 441 
Q 2250 441 2565 725 
Q 2881 1009 2881 1497 
Q 2881 1984 2565 2268 
Q 2250 2553 1709 2553 
Q 1456 2553 1204 2497 
Q 953 2441 691 2322 
L 691 4666 
z
" transform="scale(0.015625)"/>
       </defs>
       <use xlink:href="#DejaVuSans-31"/>
       <use xlink:href="#DejaVuSans-2e" transform="translate(63.623047 0)"/>
       <use xlink:href="#DejaVuSans-36" transform="translate(95.410156 0)"/>
       <use xlink:href="#DejaVuSans-35" transform="translate(159.033203 0)"/>
      </g>
     </g>
    </g>
    <g id="ytick_3">
     <g id="line2d_19">
      <path d="M 48.885 175.404021 
L 437.528219 175.404021 
" clip-path="url(#pf060b2646a)" style="fill: none; stroke: #cccccc; stroke-opacity: 0.3; stroke-width: 0.5; stroke-linecap: square"/>
     </g>
     <g id="line2d_20">
      <g>
       <use xlink:href="#m659016358a" x="48.885" y="175.404021" style="stroke: #000000; stroke-width: 0.8"/>
      </g>
     </g>
     <g id="text_11">
      <!-- 1.70 -->
      <g transform="translate(21.845937 178.823318) scale(0.09 -0.09)">
       <defs>
        <path id="DejaVuSans-37" d="M 525 4666 
L 3525 4666 
L 3525 4397 
L 1831 0 
L 1172 0 
L 2766 4134 
L 525 4134 
L 525 4666 
z
" transform="scale(0.015625)"/>
       </defs>
       <use xlink:href="#DejaVuSans-31"/>
       <use xlink:href="#DejaVuSans-2e" transform="translate(63.623047 0)"/>
       <use xlink:href="#DejaVuSans-37" transform="translate(95.410156 0)"/>
       <use xlink:href="#DejaVuSans-30" transform="translate(159.033203 0)"/>
      </g>
     </g>
    </g>
    <g id="ytick_4">
     <g id="line2d_21">
      <path d="M 48.885 131.8683 
L 437.528219 131.8683 
" clip-path="url(#pf060b2646a)" style="fill: none; stroke: #cccccc; stroke-opacity: 0.3; stroke-width: 0.5; stroke-linecap: square"/>
     </g>
     <g id="line2d_22">
      <g>
       <use xlink:href="#m659016358a" x="48.885" y="131.8683" style="stroke: #000000; stroke-width: 0.8"/>
      </g>
     </g>
     <g id="text_12">
      <!-- 1.75 -->
      <g transform="translate(21.845937 135.287597) scale(0.09 -0.09)">
       <use xlink:href="#DejaVuSans-31"/>
       <use xlink:href="#DejaVuSans-2e" transform="translate(63.623047 0)"/>
       <use xlink:href="#DejaVuSans-37" transform="translate(95.410156 0)"/>
       <use xlink:href="#DejaVuSans-35" transform="translate(159.033203 0)"/>
      </g>
     </g>
    </g>
    <g id="ytick_5">
     <g id="line2d_23">
      <path d="M 48.885 88.332579 
L 437.528219 88.332579 
" clip-path="url(#pf060b2646a)" style="fill: none; stroke: #cccccc; stroke-opacity: 0.3; stroke-width: 0.5; stroke-linecap: square"/>
     </g>
     <g id="line2d_24">
      <g>
       <use xlink:href="#m659016358a" x="48.885" y="88.332579" style="stroke: #000000; stroke-width: 0.8"/>
      </g>
     </g>
     <g id="text_13">
      <!-- 1.80 -->
      <g transform="translate(21.845937 91.751876) scale(0.09 -0.09)">
       <use xlink:href="#DejaVuSans-31"/>
       <use xlink:href="#DejaVuSans-2e" transform="translate(63.623047 0)"/>
       <use xlink:href="#DejaVuSans-38" transform="translate(95.410156 0)"/>
       <use xlink:href="#DejaVuSans-30" transform="translate(159.033203 0)"/>
      </g>
     </g>
    </g>
    <g id="ytick_6">
     <g id="line2d_25">
      <path d="M 48.885 44.796858 
L 437.528219 44.796858 
" clip-path="url(#pf060b2646a)" style="fill: none; stroke: #cccccc; stroke-opacity: 0.3; stroke-width: 0.5; stroke-linecap: square"/>
     </g>
     <g id="line2d_26">
      <g>
       <use xlink:href="#m659016358a" x="48.885" y="44.796858" style="stroke: #000000; stroke-width: 0.8"/>
      </g>
     </g>
     <g id="text_14">
      <!-- 1.85 -->
      <g transform="translate(21.845937 48.216154) scale(0.09 -0.09)">
       <use xlink:href="#DejaVuSans-31"/>
       <use xlink:href="#DejaVuSans-2e" transform="translate(63.623047 0)"/>
       <use xlink:href="#DejaVuSans-38" transform="translate(95.410156 0)"/>
       <use xlink:href="#DejaVuSans-35" transform="translate(159.033203 0)"/>
      </g>
     </g>
    </g>
    <g id="text_15">
     <!-- K(k) -->
     <g transform="translate(15.558281 175.659609) rotate(-90) scale(0.11 -0.11)">
      <defs>
       <path id="DejaVuSans-4b" d="M 628 4666 
L 1259 4666 
L 1259 2694 
L 3353 4666 
L 4166 4666 
L 1850 2491 
L 4331 0 
L 3500 0 
L 1259 2247 
L 1259 0 
L 628 0 
L 628 4666 
z
" transform="scale(0.015625)"/>
       <path id="DejaVuSans-28" d="M 1984 4856 
Q 1566 4138 1362 3434 
Q 1159 2731 1159 2009 
Q 1159 1288 1364 580 
Q 1569 -128 1984 -844 
L 1484 -844 
Q 1016 -109 783 600 
Q 550 1309 550 2009 
Q 550 2706 781 3412 
Q 1013 4119 1484 4856 
L 1984 4856 
z
" transform="scale(0.015625)"/>
       <path id="DejaVuSans-6b" d="M 581 4863 
L 1159 4863 
L 1159 1991 
L 2875 3500 
L 3609 3500 
L 1753 1863 
L 3688 0 
L 2938 0 
L 1159 1709 
L 1159 0 
L 581 0 
L 581 4863 
z
" transform="scale(0.015625)"/>
       <path id="DejaVuSans-29" d="M 513 4856 
L 1013 4856 
Q 1481 4119 1714 3412 
Q 1947 2706 1947 2009 
Q 1947 1309 1714 600 
Q 1481 -109 1013 -844 
L 513 -844 
Q 928 -128 1133 580 
Q 1338 1288 1338 2009 
Q 1338 2731 1133 3434 
Q 928 4138 513 4856 
z
" transform="scale(0.015625)"/>
      </defs>
      <use xlink:href="#DejaVuSans-4b"/>
      <use xlink:href="#DejaVuSans-28" transform="translate(65.576172 0)"/>
      <use xlink:href="#DejaVuSans-6b" transform="translate(104.589844 0)"/>
      <use xlink:href="#DejaVuSans-29" transform="translate(162.5 0)"/>
     </g>
    </g>
   </g>
   <g id="line2d_27">
    <path d="M 66.550601 287.903523 
L 95.993269 53.240725 
L 125.435937 41.271496 
L 154.878605 41.248977 
L 184.321273 41.248977 
L 213.763942 41.248977 
L 243.20661 41.248977 
L 272.649278 41.248977 
L 302.091946 41.248977 
L 331.534614 41.248977 
L 360.977282 41.248977 
L 390.41995 41.248977 
L 419.862618 41.248977 
" clip-path="url(#pf060b2646a)" style="fill: none; stroke: #222222; stroke-width: 2; stroke-linecap: square"/>
    <defs>
     <path id="m543fd3255c" d="M 0 3 
C 0.795609 3 1.55874 2.683901 2.12132 2.12132 
C 2.683901 1.55874 3 0.795609 3 0 
C 3 -0.795609 2.683901 -1.55874 2.12132 -2.12132 
C 1.55874 -2.683901 0.795609 -3 0 -3 
C -0.795609 -3 -1.55874 -2.683901 -2.12132 -2.12132 
C -2.683901 -1.55874 -3 -0.795609 -3 0 
C -3 0.795609 -2.683901 1.55874 -2.12132 2.12132 
C -1.55874 2.683901 -0.795609 3 0 3 
z
" style="stroke: #222222"/>
    </defs>
    <g clip-path="url(#pf060b2646a)">
     <use xlink:href="#m543fd3255c" x="66.550601" y="287.903523" style="fill: #222222; stroke: #222222"/>
     <use xlink:href="#m543fd3255c" x="95.993269" y="53.240725" style="fill: #222222; stroke: #222222"/>
     <use xlink:href="#m543fd3255c" x="125.435937" y="41.271496" style="fill: #222222; stroke: #222222"/>
     <use xlink:href="#m543fd3255c" x="154.878605" y="41.248977" style="fill: #222222; stroke: #222222"/>
     <use xlink:href="#m543fd3255c" x="184.321273" y="41.248977" style="fill: #222222; stroke: #222222"/>
     <use xlink:href="#m543fd3255c" x="213.763942" y="41.248977" style="fill: #222222; stroke: #222222"/>
     <use xlink:href="#m543fd3255c" x="243.20661" y="41.248977" style="fill: #222222; stroke: #222222"/>
     <use xlink:href="#m543fd3255c" x="272.649278" y="41.248977" style="fill: #222222; stroke: #222222"/>
     <use xlink:href="#m543fd3255c" x="302.091946" y="41.248977" style="fill: #222222; stroke: #222222"/>
     <use xlink:href="#m543fd3255c" x="331.534614" y="41.248977" style="fill: #222222; stroke: #222222"/>
     <use xlink:href="#m543fd3255c" x="360.977282" y="41.248977" style="fill: #222222; stroke: #222222"/>
     <use xlink:href="#m543fd3255c" x="390.41995" y="41.248977" style="fill: #222222; stroke: #222222"/>
     <use xlink:href="#m543fd3255c" x="419.862618" y="41.248977" style="fill: #222222; stroke: #222222"/>
    </g>
   </g>
   <g id="line2d_28">
    <path d="M 48.885 41.248977 
L 437.528219 41.248977 
" clip-path="url(#pf060b2646a)" style="fill: none; stroke-dasharray: 7.4,3.2; stroke-dashoffset: 0; stroke: #44bb44; stroke-opacity: 0.9; stroke-width: 2"/>
   </g>
   <g id="patch_3">
    <path d="M 48.885 300.23625 
L 48.885 28.91625 
" style="fill: none; stroke: #222222; stroke-width: 0.5; stroke-linejoin: miter; stroke-linecap: square"/>
   </g>
   <g id="patch_4">
    <path d="M 437.528219 300.23625 
L 437.528219 28.91625 
" style="fill: none; stroke: #222222; stroke-width: 0.5; stroke-linejoin: miter; stroke-linecap: square"/>
   </g>
   <g id="patch_5">
    <path d="M 48.885 300.23625 
L 437.528219 300.23625 
" style="fill: none; stroke: #222222; stroke-width: 0.5; stroke-linejoin: miter; stroke-linecap: square"/>
   </g>
   <g id="patch_6">
    <path d="M 48.885 28.91625 
L 437.528219 28.91625 
" style="fill: none; stroke: #222222; stroke-width: 0.5; stroke-linejoin: miter; stroke-linecap: square"/>
   </g>
   <g id="text_16">
    <!-- AGM Convergence for K(k), k=1/√2 -->
    <g transform="translate(106.06786 18.91625) scale(0.14 -0.14)">
     <defs>
      <path id="DejaVuSans-Bold-41" d="M 3419 850 
L 1538 850 
L 1241 0 
L 31 0 
L 1759 4666 
L 3194 4666 
L 4922 0 
L 3713 0 
L 3419 850 
z
M 1838 1716 
L 3116 1716 
L 2478 3572 
L 1838 1716 
z
" transform="scale(0.015625)"/>
      <path id="DejaVuSans-Bold-47" d="M 4781 347 
Q 4331 128 3847 18 
Q 3363 -91 2847 -91 
Q 1681 -91 1000 561 
Q 319 1213 319 2328 
Q 319 3456 1012 4103 
Q 1706 4750 2913 4750 
Q 3378 4750 3804 4662 
Q 4231 4575 4609 4403 
L 4609 3438 
Q 4219 3659 3833 3768 
Q 3447 3878 3059 3878 
Q 2341 3878 1952 3476 
Q 1563 3075 1563 2328 
Q 1563 1588 1938 1184 
Q 2313 781 3003 781 
Q 3191 781 3352 804 
Q 3513 828 3641 878 
L 3641 1784 
L 2906 1784 
L 2906 2591 
L 4781 2591 
L 4781 347 
z
" transform="scale(0.015625)"/>
      <path id="DejaVuSans-Bold-4d" d="M 588 4666 
L 2119 4666 
L 3181 2169 
L 4250 4666 
L 5778 4666 
L 5778 0 
L 4641 0 
L 4641 3413 
L 3566 897 
L 2803 897 
L 1728 3413 
L 1728 0 
L 588 0 
L 588 4666 
z
" transform="scale(0.015625)"/>
      <path id="DejaVuSans-Bold-20" transform="scale(0.015625)"/>
      <path id="DejaVuSans-Bold-43" d="M 4288 256 
Q 3956 84 3597 -3 
Q 3238 -91 2847 -91 
Q 1681 -91 1000 561 
Q 319 1213 319 2328 
Q 319 3447 1000 4098 
Q 1681 4750 2847 4750 
Q 3238 4750 3597 4662 
Q 3956 4575 4288 4403 
L 4288 3438 
Q 3953 3666 3628 3772 
Q 3303 3878 2944 3878 
Q 2300 3878 1931 3465 
Q 1563 3053 1563 2328 
Q 1563 1606 1931 1193 
Q 2300 781 2944 781 
Q 3303 781 3628 887 
Q 3953 994 4288 1222 
L 4288 256 
z
" transform="scale(0.015625)"/>
      <path id="DejaVuSans-Bold-6f" d="M 2203 2784 
Q 1831 2784 1636 2517 
Q 1441 2250 1441 1747 
Q 1441 1244 1636 976 
Q 1831 709 2203 709 
Q 2569 709 2762 976 
Q 2956 1244 2956 1747 
Q 2956 2250 2762 2517 
Q 2569 2784 2203 2784 
z
M 2203 3584 
Q 3106 3584 3614 3096 
Q 4122 2609 4122 1747 
Q 4122 884 3614 396 
Q 3106 -91 2203 -91 
Q 1297 -91 786 396 
Q 275 884 275 1747 
Q 275 2609 786 3096 
Q 1297 3584 2203 3584 
z
" transform="scale(0.015625)"/>
      <path id="DejaVuSans-Bold-6e" d="M 4056 2131 
L 4056 0 
L 2931 0 
L 2931 347 
L 2931 1631 
Q 2931 2084 2911 2256 
Q 2891 2428 2841 2509 
Q 2775 2619 2662 2680 
Q 2550 2741 2406 2741 
Q 2056 2741 1856 2470 
Q 1656 2200 1656 1722 
L 1656 0 
L 538 0 
L 538 3500 
L 1656 3500 
L 1656 2988 
Q 1909 3294 2193 3439 
Q 2478 3584 2822 3584 
Q 3428 3584 3742 3212 
Q 4056 2841 4056 2131 
z
" transform="scale(0.015625)"/>
      <path id="DejaVuSans-Bold-76" d="M 97 3500 
L 1216 3500 
L 2088 1081 
L 2956 3500 
L 4078 3500 
L 2700 0 
L 1472 0 
L 97 3500 
z
" transform="scale(0.015625)"/>
      <path id="DejaVuSans-Bold-65" d="M 4031 1759 
L 4031 1441 
L 1416 1441 
Q 1456 1047 1700 850 
Q 1944 653 2381 653 
Q 2734 653 3104 758 
Q 3475 863 3866 1075 
L 3866 213 
Q 3469 63 3072 -14 
Q 2675 -91 2278 -91 
Q 1328 -91 801 392 
Q 275 875 275 1747 
Q 275 2603 792 3093 
Q 1309 3584 2216 3584 
Q 3041 3584 3536 3087 
Q 4031 2591 4031 1759 
z
M 2881 2131 
Q 2881 2450 2695 2645 
Q 2509 2841 2209 2841 
Q 1884 2841 1681 2658 
Q 1478 2475 1428 2131 
L 2881 2131 
z
" transform="scale(0.015625)"/>
      <path id="DejaVuSans-Bold-72" d="M 3138 2547 
Q 2991 2616 2845 2648 
Q 2700 2681 2553 2681 
Q 2122 2681 1889 2404 
Q 1656 2128 1656 1613 
L 1656 0 
L 538 0 
L 538 3500 
L 1656 3500 
L 1656 2925 
Q 1872 3269 2151 3426 
Q 2431 3584 2822 3584 
Q 2878 3584 2943 3579 
Q 3009 3575 3134 3559 
L 3138 2547 
z
" transform="scale(0.015625)"/>
      <path id="DejaVuSans-Bold-67" d="M 2919 594 
Q 2688 288 2409 144 
Q 2131 0 1766 0 
Q 1125 0 706 504 
Q 288 1009 288 1791 
Q 288 2575 706 3076 
Q 1125 3578 1766 3578 
Q 2131 3578 2409 3434 
Q 2688 3291 2919 2981 
L 2919 3500 
L 4044 3500 
L 4044 353 
Q 4044 -491 3511 -936 
Q 2978 -1381 1966 -1381 
Q 1638 -1381 1331 -1331 
Q 1025 -1281 716 -1178 
L 716 -306 
Q 1009 -475 1290 -558 
Q 1572 -641 1856 -641 
Q 2406 -641 2662 -400 
Q 2919 -159 2919 353 
L 2919 594 
z
M 2181 2772 
Q 1834 2772 1640 2515 
Q 1447 2259 1447 1791 
Q 1447 1309 1634 1061 
Q 1822 813 2181 813 
Q 2531 813 2725 1069 
Q 2919 1325 2919 1791 
Q 2919 2259 2725 2515 
Q 2531 2772 2181 2772 
z
" transform="scale(0.015625)"/>
      <path id="DejaVuSans-Bold-63" d="M 3366 3391 
L 3366 2478 
Q 3138 2634 2908 2709 
Q 2678 2784 2431 2784 
Q 1963 2784 1702 2511 
Q 1441 2238 1441 1747 
Q 1441 1256 1702 982 
Q 1963 709 2431 709 
Q 2694 709 2930 787 
Q 3166 866 3366 1019 
L 3366 103 
Q 3103 6 2833 -42 
Q 2563 -91 2291 -91 
Q 1344 -91 809 395 
Q 275 881 275 1747 
Q 275 2613 809 3098 
Q 1344 3584 2291 3584 
Q 2566 3584 2833 3536 
Q 3100 3488 3366 3391 
z
" transform="scale(0.015625)"/>
      <path id="DejaVuSans-Bold-66" d="M 2841 4863 
L 2841 4128 
L 2222 4128 
Q 1984 4128 1890 4042 
Q 1797 3956 1797 3744 
L 1797 3500 
L 2753 3500 
L 2753 2700 
L 1797 2700 
L 1797 0 
L 678 0 
L 678 2700 
L 122 2700 
L 122 3500 
L 678 3500 
L 678 3744 
Q 678 4316 997 4589 
Q 1316 4863 1984 4863 
L 2841 4863 
z
" transform="scale(0.015625)"/>
      <path id="DejaVuSans-Bold-4b" d="M 588 4666 
L 1791 4666 
L 1791 2963 
L 3525 4666 
L 4922 4666 
L 2675 2456 
L 5153 0 
L 3647 0 
L 1791 1838 
L 1791 0 
L 588 0 
L 588 4666 
z
" transform="scale(0.015625)"/>
      <path id="DejaVuSans-Bold-28" d="M 2413 -844 
L 1484 -844 
Q 1006 -72 778 623 
Q 550 1319 550 2003 
Q 550 2688 779 3389 
Q 1009 4091 1484 4856 
L 2413 4856 
Q 2013 4116 1813 3408 
Q 1613 2700 1613 2009 
Q 1613 1319 1811 609 
Q 2009 -100 2413 -844 
z
" transform="scale(0.015625)"/>
      <path id="DejaVuSans-Bold-6b" d="M 538 4863 
L 1656 4863 
L 1656 2216 
L 2944 3500 
L 4244 3500 
L 2534 1894 
L 4378 0 
L 3022 0 
L 1656 1459 
L 1656 0 
L 538 0 
L 538 4863 
z
" transform="scale(0.015625)"/>
      <path id="DejaVuSans-Bold-29" d="M 513 -844 
Q 913 -100 1113 609 
Q 1313 1319 1313 2009 
Q 1313 2700 1113 3408 
Q 913 4116 513 4856 
L 1441 4856 
Q 1916 4091 2145 3389 
Q 2375 2688 2375 2003 
Q 2375 1319 2147 623 
Q 1919 -72 1441 -844 
L 513 -844 
z
" transform="scale(0.015625)"/>
      <path id="DejaVuSans-Bold-2c" d="M 653 1209 
L 1778 1209 
L 1778 256 
L 1006 -909 
L 341 -909 
L 653 256 
L 653 1209 
z
" transform="scale(0.015625)"/>
      <path id="DejaVuSans-Bold-3d" d="M 678 3084 
L 4684 3084 
L 4684 2350 
L 678 2350 
L 678 3084 
z
M 678 1663 
L 4684 1663 
L 4684 922 
L 678 922 
L 678 1663 
z
" transform="scale(0.015625)"/>
      <path id="DejaVuSans-Bold-31" d="M 750 831 
L 1813 831 
L 1813 3847 
L 722 3622 
L 722 4441 
L 1806 4666 
L 2950 4666 
L 2950 831 
L 4013 831 
L 4013 0 
L 750 0 
L 750 831 
z
" transform="scale(0.015625)"/>
      <path id="DejaVuSans-Bold-2f" d="M 1644 4666 
L 2338 4666 
L 691 -594 
L 0 -594 
L 1644 4666 
z
" transform="scale(0.015625)"/>
      <path id="DejaVuSans-Bold-221a" d="M 3609 5356 
L 4281 5356 
L 4281 4891 
L 3981 4891 
L 2138 -128 
L 1766 -128 
L 806 2516 
L 353 2344 
L 238 2747 
L 1363 3144 
L 2059 1159 
L 3609 5356 
z
" transform="scale(0.015625)"/>
      <path id="DejaVuSans-Bold-32" d="M 1844 884 
L 3897 884 
L 3897 0 
L 506 0 
L 506 884 
L 2209 2388 
Q 2438 2594 2547 2791 
Q 2656 2988 2656 3200 
Q 2656 3528 2436 3728 
Q 2216 3928 1850 3928 
Q 1569 3928 1234 3808 
Q 900 3688 519 3450 
L 519 4475 
Q 925 4609 1322 4679 
Q 1719 4750 2100 4750 
Q 2938 4750 3402 4381 
Q 3866 4013 3866 3353 
Q 3866 2972 3669 2642 
Q 3472 2313 2841 1759 
L 1844 884 
z
" transform="scale(0.015625)"/>
     </defs>
     <use xlink:href="#DejaVuSans-Bold-41"/>
     <use xlink:href="#DejaVuSans-Bold-47" transform="translate(77.392578 0)"/>
     <use xlink:href="#DejaVuSans-Bold-4d" transform="translate(159.472656 0)"/>
     <use xlink:href="#DejaVuSans-Bold-20" transform="translate(258.984375 0)"/>
     <use xlink:href="#DejaVuSans-Bold-43" transform="translate(293.798828 0)"/>
     <use xlink:href="#DejaVuSans-Bold-6f" transform="translate(367.1875 0)"/>
     <use xlink:href="#DejaVuSans-Bold-6e" transform="translate(435.888672 0)"/>
     <use xlink:href="#DejaVuSans-Bold-76" transform="translate(507.080078 0)"/>
     <use xlink:href="#DejaVuSans-Bold-65" transform="translate(572.265625 0)"/>
     <use xlink:href="#DejaVuSans-Bold-72" transform="translate(640.087891 0)"/>
     <use xlink:href="#DejaVuSans-Bold-67" transform="translate(689.404297 0)"/>
     <use xlink:href="#DejaVuSans-Bold-65" transform="translate(760.986328 0)"/>
     <use xlink:href="#DejaVuSans-Bold-6e" transform="translate(828.808594 0)"/>
     <use xlink:href="#DejaVuSans-Bold-63" transform="translate(900 0)"/>
     <use xlink:href="#DejaVuSans-Bold-65" transform="translate(959.277344 0)"/>
     <use xlink:href="#DejaVuSans-Bold-20" transform="translate(1027.099609 0)"/>
     <use xlink:href="#DejaVuSans-Bold-66" transform="translate(1061.914062 0)"/>
     <use xlink:href="#DejaVuSans-Bold-6f" transform="translate(1105.419922 0)"/>
     <use xlink:href="#DejaVuSans-Bold-72" transform="translate(1174.121094 0)"/>
     <use xlink:href="#DejaVuSans-Bold-20" transform="translate(1223.4375 0)"/>
     <use xlink:href="#DejaVuSans-Bold-4b" transform="translate(1258.251953 0)"/>
     <use xlink:href="#DejaVuSans-Bold-28" transform="translate(1335.742188 0)"/>
     <use xlink:href="#DejaVuSans-Bold-6b" transform="translate(1381.445312 0)"/>
     <use xlink:href="#DejaVuSans-Bold-29" transform="translate(1447.949219 0)"/>
     <use xlink:href="#DejaVuSans-Bold-2c" transform="translate(1493.652344 0)"/>
     <use xlink:href="#DejaVuSans-Bold-20" transform="translate(1531.640625 0)"/>
     <use xlink:href="#DejaVuSans-Bold-6b" transform="translate(1566.455078 0)"/>
     <use xlink:href="#DejaVuSans-Bold-3d" transform="translate(1632.958984 0)"/>
     <use xlink:href="#DejaVuSans-Bold-31" transform="translate(1716.748047 0)"/>
     <use xlink:href="#DejaVuSans-Bold-2f" transform="translate(1786.328125 0)"/>
     <use xlink:href="#DejaVuSans-Bold-221a" transform="translate(1822.851562 0)"/>
     <use xlink:href="#DejaVuSans-Bold-32" transform="translate(1889.550781 0)"/>
    </g>
   </g>
   <g id="legend_1">
    <g id="patch_7">
     <path d="M 321.820563 295.73625 
L 431.228219 295.73625 
Q 433.028219 295.73625 433.028219 293.93625 
L 433.028219 281.625938 
Q 433.028219 279.825938 431.228219 279.825938 
L 321.820563 279.825938 
Q 320.020563 279.825938 320.020563 281.625938 
L 320.020563 293.93625 
Q 320.020563 295.73625 321.820563 295.73625 
z
" style="fill: #ffffff; opacity: 0.95; stroke: #cccccc; stroke-linejoin: miter"/>
    </g>
    <g id="line2d_29">
     <path d="M 323.620563 287.114531 
L 332.620563 287.114531 
L 341.620563 287.114531 
" style="fill: none; stroke-dasharray: 7.4,3.2; stroke-dashoffset: 0; stroke: #44bb44; stroke-opacity: 0.9; stroke-width: 2"/>
    </g>
    <g id="text_17">
     <!-- mpmath ellipk(m) -->
     <g transform="translate(348.820563 290.264531) scale(0.09 -0.09)">
      <defs>
       <path id="DejaVuSans-6d" d="M 3328 2828 
Q 3544 3216 3844 3400 
Q 4144 3584 4550 3584 
Q 5097 3584 5394 3201 
Q 5691 2819 5691 2113 
L 5691 0 
L 5113 0 
L 5113 2094 
Q 5113 2597 4934 2840 
Q 4756 3084 4391 3084 
Q 3944 3084 3684 2787 
Q 3425 2491 3425 1978 
L 3425 0 
L 2847 0 
L 2847 2094 
Q 2847 2600 2669 2842 
Q 2491 3084 2119 3084 
Q 1678 3084 1418 2786 
Q 1159 2488 1159 1978 
L 1159 0 
L 581 0 
L 581 3500 
L 1159 3500 
L 1159 2956 
Q 1356 3278 1631 3431 
Q 1906 3584 2284 3584 
Q 2666 3584 2933 3390 
Q 3200 3197 3328 2828 
z
" transform="scale(0.015625)"/>
       <path id="DejaVuSans-70" d="M 1159 525 
L 1159 -1331 
L 581 -1331 
L 581 3500 
L 1159 3500 
L 1159 2969 
Q 1341 3281 1617 3432 
Q 1894 3584 2278 3584 
Q 2916 3584 3314 3078 
Q 3713 2572 3713 1747 
Q 3713 922 3314 415 
Q 2916 -91 2278 -91 
Q 1894 -91 1617 61 
Q 1341 213 1159 525 
z
M 3116 1747 
Q 3116 2381 2855 2742 
Q 2594 3103 2138 3103 
Q 1681 3103 1420 2742 
Q 1159 2381 1159 1747 
Q 1159 1113 1420 752 
Q 1681 391 2138 391 
Q 2594 391 2855 752 
Q 3116 1113 3116 1747 
z
" transform="scale(0.015625)"/>
       <path id="DejaVuSans-68" d="M 3513 2113 
L 3513 0 
L 2938 0 
L 2938 2094 
Q 2938 2591 2744 2837 
Q 2550 3084 2163 3084 
Q 1697 3084 1428 2787 
Q 1159 2491 1159 1978 
L 1159 0 
L 581 0 
L 581 4863 
L 1159 4863 
L 1159 2956 
Q 1366 3272 1645 3428 
Q 1925 3584 2291 3584 
Q 2894 3584 3203 3211 
Q 3513 2838 3513 2113 
z
" transform="scale(0.015625)"/>
       <path id="DejaVuSans-20" transform="scale(0.015625)"/>
       <path id="DejaVuSans-6c" d="M 603 4863 
L 1178 4863 
L 1178 0 
L 603 0 
L 603 4863 
z
" transform="scale(0.015625)"/>
      </defs>
      <use xlink:href="#DejaVuSans-6d"/>
      <use xlink:href="#DejaVuSans-70" transform="translate(97.412109 0)"/>
      <use xlink:href="#DejaVuSans-6d" transform="translate(160.888672 0)"/>
      <use xlink:href="#DejaVuSans-61" transform="translate(258.300781 0)"/>
      <use xlink:href="#DejaVuSans-74" transform="translate(319.580078 0)"/>
      <use xlink:href="#DejaVuSans-68" transform="translate(358.789062 0)"/>
      <use xlink:href="#DejaVuSans-20" transform="translate(422.167969 0)"/>
      <use xlink:href="#DejaVuSans-65" transform="translate(453.955078 0)"/>
      <use xlink:href="#DejaVuSans-6c" transform="translate(515.478516 0)"/>
      <use xlink:href="#DejaVuSans-6c" transform="translate(543.261719 0)"/>
      <use xlink:href="#DejaVuSans-69" transform="translate(571.044922 0)"/>
      <use xlink:href="#DejaVuSans-70" transform="translate(598.828125 0)"/>
      <use xlink:href="#DejaVuSans-6b" transform="translate(662.304688 0)"/>
      <use xlink:href="#DejaVuSans-28" transform="translate(720.214844 0)"/>
      <use xlink:href="#DejaVuSans-6d" transform="translate(759.228516 0)"/>
      <use xlink:href="#DejaVuSans-29" transform="translate(856.640625 0)"/>
     </g>
    </g>
   </g>
  </g>
  <g id="axes_2">
   <g id="patch_8">
    <path d="M 496.771781 300.23625 
L 885.415 300.23625 
L 885.415 28.91625 
L 496.771781 28.91625 
z
" style="fill: #ffffff"/>
   </g>
   <g id="matplotlib.axis_3">
    <g id="xtick_8">
     <g id="line2d_30">
      <path d="M 514.437382 300.23625 
L 514.437382 28.91625 
" clip-path="url(#p72c7c03bf0)" style="fill: none; stroke: #cccccc; stroke-opacity: 0.3; stroke-width: 0.5; stroke-linecap: square"/>
     </g>
     <g id="line2d_31">
      <g>
       <use xlink:href="#mc8ff8feca6" x="514.437382" y="300.23625" style="stroke: #000000; stroke-width: 0.8"/>
      </g>
     </g>
     <g id="text_18">
      <!-- 0 -->
      <g transform="translate(511.574257 314.074844) scale(0.09 -0.09)">
       <use xlink:href="#DejaVuSans-30"/>
      </g>
     </g>
    </g>
    <g id="xtick_9">
     <g id="line2d_32">
      <path d="M 573.322718 300.23625 
L 573.322718 28.91625 
" clip-path="url(#p72c7c03bf0)" style="fill: none; stroke: #cccccc; stroke-opacity: 0.3; stroke-width: 0.5; stroke-linecap: square"/>
     </g>
     <g id="line2d_33">
      <g>
       <use xlink:href="#mc8ff8feca6" x="573.322718" y="300.23625" style="stroke: #000000; stroke-width: 0.8"/>
      </g>
     </g>
     <g id="text_19">
      <!-- 2 -->
      <g transform="translate(570.459593 314.074844) scale(0.09 -0.09)">
       <use xlink:href="#DejaVuSans-32"/>
      </g>
     </g>
    </g>
    <g id="xtick_10">
     <g id="line2d_34">
      <path d="M 632.208054 300.23625 
L 632.208054 28.91625 
" clip-path="url(#p72c7c03bf0)" style="fill: none; stroke: #cccccc; stroke-opacity: 0.3; stroke-width: 0.5; stroke-linecap: square"/>
     </g>
     <g id="line2d_35">
      <g>
       <use xlink:href="#mc8ff8feca6" x="632.208054" y="300.23625" style="stroke: #000000; stroke-width: 0.8"/>
      </g>
     </g>
     <g id="text_20">
      <!-- 4 -->
      <g transform="translate(629.344929 314.074844) scale(0.09 -0.09)">
       <use xlink:href="#DejaVuSans-34"/>
      </g>
     </g>
    </g>
    <g id="xtick_11">
     <g id="line2d_36">
      <path d="M 691.09339 300.23625 
L 691.09339 28.91625 
" clip-path="url(#p72c7c03bf0)" style="fill: none; stroke: #cccccc; stroke-opacity: 0.3; stroke-width: 0.5; stroke-linecap: square"/>
     </g>
     <g id="line2d_37">
      <g>
       <use xlink:href="#mc8ff8feca6" x="691.09339" y="300.23625" style="stroke: #000000; stroke-width: 0.8"/>
      </g>
     </g>
     <g id="text_21">
      <!-- 6 -->
      <g transform="translate(688.230265 314.074844) scale(0.09 -0.09)">
       <use xlink:href="#DejaVuSans-36"/>
      </g>
     </g>
    </g>
    <g id="xtick_12">
     <g id="line2d_38">
      <path d="M 749.978727 300.23625 
L 749.978727 28.91625 
" clip-path="url(#p72c7c03bf0)" style="fill: none; stroke: #cccccc; stroke-opacity: 0.3; stroke-width: 0.5; stroke-linecap: square"/>
     </g>
     <g id="line2d_39">
      <g>
       <use xlink:href="#mc8ff8feca6" x="749.978727" y="300.23625" style="stroke: #000000; stroke-width: 0.8"/>
      </g>
     </g>
     <g id="text_22">
      <!-- 8 -->
      <g transform="translate(747.115602 314.074844) scale(0.09 -0.09)">
       <use xlink:href="#DejaVuSans-38"/>
      </g>
     </g>
    </g>
    <g id="xtick_13">
     <g id="line2d_40">
      <path d="M 808.864063 300.23625 
L 808.864063 28.91625 
" clip-path="url(#p72c7c03bf0)" style="fill: none; stroke: #cccccc; stroke-opacity: 0.3; stroke-width: 0.5; stroke-linecap: square"/>
     </g>
     <g id="line2d_41">
      <g>
       <use xlink:href="#mc8ff8feca6" x="808.864063" y="300.23625" style="stroke: #000000; stroke-width: 0.8"/>
      </g>
     </g>
     <g id="text_23">
      <!-- 10 -->
      <g transform="translate(803.137813 314.074844) scale(0.09 -0.09)">
       <use xlink:href="#DejaVuSans-31"/>
       <use xlink:href="#DejaVuSans-30" transform="translate(63.623047 0)"/>
      </g>
     </g>
    </g>
    <g id="xtick_14">
     <g id="line2d_42">
      <path d="M 867.749399 300.23625 
L 867.749399 28.91625 
" clip-path="url(#p72c7c03bf0)" style="fill: none; stroke: #cccccc; stroke-opacity: 0.3; stroke-width: 0.5; stroke-linecap: square"/>
     </g>
     <g id="line2d_43">
      <g>
       <use xlink:href="#mc8ff8feca6" x="867.749399" y="300.23625" style="stroke: #000000; stroke-width: 0.8"/>
      </g>
     </g>
     <g id="text_24">
      <!-- 12 -->
      <g transform="translate(862.023149 314.074844) scale(0.09 -0.09)">
       <use xlink:href="#DejaVuSans-31"/>
       <use xlink:href="#DejaVuSans-32" transform="translate(63.623047 0)"/>
      </g>
     </g>
    </g>
    <g id="text_25">
     <!-- Iteration -->
     <g transform="translate(667.763937 328.304844) scale(0.11 -0.11)">
      <use xlink:href="#DejaVuSans-49"/>
      <use xlink:href="#DejaVuSans-74" transform="translate(29.492188 0)"/>
      <use xlink:href="#DejaVuSans-65" transform="translate(68.701172 0)"/>
      <use xlink:href="#DejaVuSans-72" transform="translate(130.224609 0)"/>
      <use xlink:href="#DejaVuSans-61" transform="translate(171.337891 0)"/>
      <use xlink:href="#DejaVuSans-74" transform="translate(232.617188 0)"/>
      <use xlink:href="#DejaVuSans-69" transform="translate(271.826172 0)"/>
      <use xlink:href="#DejaVuSans-6f" transform="translate(299.609375 0)"/>
      <use xlink:href="#DejaVuSans-6e" transform="translate(360.791016 0)"/>
     </g>
    </g>
   </g>
   <g id="matplotlib.axis_4">
    <g id="ytick_7">
     <g id="line2d_44">
      <path d="M 496.771781 277.231875 
L 885.415 277.231875 
" clip-path="url(#p72c7c03bf0)" style="fill: none; stroke: #cccccc; stroke-opacity: 0.3; stroke-width: 0.5; stroke-linecap: square"/>
     </g>
     <g id="line2d_45">
      <g>
       <use xlink:href="#m659016358a" x="496.771781" y="277.231875" style="stroke: #000000; stroke-width: 0.8"/>
      </g>
     </g>
     <g id="text_26">
      <!-- $\mathdefault{10^{-15}}$ -->
      <g transform="translate(464.661781 280.651172) scale(0.09 -0.09)">
       <defs>
        <path id="DejaVuSans-2212" d="M 678 2272 
L 4684 2272 
L 4684 1741 
L 678 1741 
L 678 2272 
z
" transform="scale(0.015625)"/>
       </defs>
       <use xlink:href="#DejaVuSans-31" transform="translate(0 0.684375)"/>
       <use xlink:href="#DejaVuSans-30" transform="translate(63.623047 0.684375)"/>
       <use xlink:href="#DejaVuSans-2212" transform="translate(128.203125 38.965625) scale(0.7)"/>
       <use xlink:href="#DejaVuSans-31" transform="translate(186.855469 38.965625) scale(0.7)"/>
       <use xlink:href="#DejaVuSans-35" transform="translate(231.391602 38.965625) scale(0.7)"/>
      </g>
     </g>
    </g>
    <g id="ytick_8">
     <g id="line2d_46">
      <path d="M 496.771781 244.574885 
L 885.415 244.574885 
" clip-path="url(#p72c7c03bf0)" style="fill: none; stroke: #cccccc; stroke-opacity: 0.3; stroke-width: 0.5; stroke-linecap: square"/>
     </g>
     <g id="line2d_47">
      <g>
       <use xlink:href="#m659016358a" x="496.771781" y="244.574885" style="stroke: #000000; stroke-width: 0.8"/>
      </g>
     </g>
     <g id="text_27">
      <!-- $\mathdefault{10^{-13}}$ -->
      <g transform="translate(464.661781 247.994181) scale(0.09 -0.09)">
       <defs>
        <path id="DejaVuSans-33" d="M 2597 2516 
Q 3050 2419 3304 2112 
Q 3559 1806 3559 1356 
Q 3559 666 3084 287 
Q 2609 -91 1734 -91 
Q 1441 -91 1130 -33 
Q 819 25 488 141 
L 488 750 
Q 750 597 1062 519 
Q 1375 441 1716 441 
Q 2309 441 2620 675 
Q 2931 909 2931 1356 
Q 2931 1769 2642 2001 
Q 2353 2234 1838 2234 
L 1294 2234 
L 1294 2753 
L 1863 2753 
Q 2328 2753 2575 2939 
Q 2822 3125 2822 3475 
Q 2822 3834 2567 4026 
Q 2313 4219 1838 4219 
Q 1578 4219 1281 4162 
Q 984 4106 628 3988 
L 628 4550 
Q 988 4650 1302 4700 
Q 1616 4750 1894 4750 
Q 2613 4750 3031 4423 
Q 3450 4097 3450 3541 
Q 3450 3153 3228 2886 
Q 3006 2619 2597 2516 
z
" transform="scale(0.015625)"/>
       </defs>
       <use xlink:href="#DejaVuSans-31" transform="translate(0 0.765625)"/>
       <use xlink:href="#DejaVuSans-30" transform="translate(63.623047 0.765625)"/>
       <use xlink:href="#DejaVuSans-2212" transform="translate(128.203125 39.046875) scale(0.7)"/>
       <use xlink:href="#DejaVuSans-31" transform="translate(186.855469 39.046875) scale(0.7)"/>
       <use xlink:href="#DejaVuSans-33" transform="translate(231.391602 39.046875) scale(0.7)"/>
      </g>
     </g>
    </g>
    <g id="ytick_9">
     <g id="line2d_48">
      <path d="M 496.771781 211.917894 
L 885.415 211.917894 
" clip-path="url(#p72c7c03bf0)" style="fill: none; stroke: #cccccc; stroke-opacity: 0.3; stroke-width: 0.5; stroke-linecap: square"/>
     </g>
     <g id="line2d_49">
      <g>
       <use xlink:href="#m659016358a" x="496.771781" y="211.917894" style="stroke: #000000; stroke-width: 0.8"/>
      </g>
     </g>
     <g id="text_28">
      <!-- $\mathdefault{10^{-11}}$ -->
      <g transform="translate(464.661781 215.337191) scale(0.09 -0.09)">
       <use xlink:href="#DejaVuSans-31" transform="translate(0 0.684375)"/>
       <use xlink:href="#DejaVuSans-30" transform="translate(63.623047 0.684375)"/>
       <use xlink:href="#DejaVuSans-2212" transform="translate(128.203125 38.965625) scale(0.7)"/>
       <use xlink:href="#DejaVuSans-31" transform="translate(186.855469 38.965625) scale(0.7)"/>
       <use xlink:href="#DejaVuSans-31" transform="translate(231.391602 38.965625) scale(0.7)"/>
      </g>
     </g>
    </g>
    <g id="ytick_10">
     <g id="line2d_50">
      <path d="M 496.771781 179.260903 
L 885.415 179.260903 
" clip-path="url(#p72c7c03bf0)" style="fill: none; stroke: #cccccc; stroke-opacity: 0.3; stroke-width: 0.5; stroke-linecap: square"/>
     </g>
     <g id="line2d_51">
      <g>
       <use xlink:href="#m659016358a" x="496.771781" y="179.260903" style="stroke: #000000; stroke-width: 0.8"/>
      </g>
     </g>
     <g id="text_29">
      <!-- $\mathdefault{10^{-9}}$ -->
      <g transform="translate(468.621781 182.6802) scale(0.09 -0.09)">
       <defs>
        <path id="DejaVuSans-39" d="M 703 97 
L 703 672 
Q 941 559 1184 500 
Q 1428 441 1663 441 
Q 2288 441 2617 861 
Q 2947 1281 2994 2138 
Q 2813 1869 2534 1725 
Q 2256 1581 1919 1581 
Q 1219 1581 811 2004 
Q 403 2428 403 3163 
Q 403 3881 828 4315 
Q 1253 4750 1959 4750 
Q 2769 4750 3195 4129 
Q 3622 3509 3622 2328 
Q 3622 1225 3098 567 
Q 2575 -91 1691 -91 
Q 1453 -91 1209 -44 
Q 966 3 703 97 
z
M 1959 2075 
Q 2384 2075 2632 2365 
Q 2881 2656 2881 3163 
Q 2881 3666 2632 3958 
Q 2384 4250 1959 4250 
Q 1534 4250 1286 3958 
Q 1038 3666 1038 3163 
Q 1038 2656 1286 2365 
Q 1534 2075 1959 2075 
z
" transform="scale(0.015625)"/>
       </defs>
       <use xlink:href="#DejaVuSans-31" transform="translate(0 0.765625)"/>
       <use xlink:href="#DejaVuSans-30" transform="translate(63.623047 0.765625)"/>
       <use xlink:href="#DejaVuSans-2212" transform="translate(128.203125 39.046875) scale(0.7)"/>
       <use xlink:href="#DejaVuSans-39" transform="translate(186.855469 39.046875) scale(0.7)"/>
      </g>
     </g>
    </g>
    <g id="ytick_11">
     <g id="line2d_52">
      <path d="M 496.771781 146.603913 
L 885.415 146.603913 
" clip-path="url(#p72c7c03bf0)" style="fill: none; stroke: #cccccc; stroke-opacity: 0.3; stroke-width: 0.5; stroke-linecap: square"/>
     </g>
     <g id="line2d_53">
      <g>
       <use xlink:href="#m659016358a" x="496.771781" y="146.603913" style="stroke: #000000; stroke-width: 0.8"/>
      </g>
     </g>
     <g id="text_30">
      <!-- $\mathdefault{10^{-7}}$ -->
      <g transform="translate(468.621781 150.02321) scale(0.09 -0.09)">
       <use xlink:href="#DejaVuSans-31" transform="translate(0 0.684375)"/>
       <use xlink:href="#DejaVuSans-30" transform="translate(63.623047 0.684375)"/>
       <use xlink:href="#DejaVuSans-2212" transform="translate(128.203125 38.965625) scale(0.7)"/>
       <use xlink:href="#DejaVuSans-37" transform="translate(186.855469 38.965625) scale(0.7)"/>
      </g>
     </g>
    </g>
    <g id="ytick_12">
     <g id="line2d_54">
      <path d="M 496.771781 113.946922 
L 885.415 113.946922 
" clip-path="url(#p72c7c03bf0)" style="fill: none; stroke: #cccccc; stroke-opacity: 0.3; stroke-width: 0.5; stroke-linecap: square"/>
     </g>
     <g id="line2d_55">
      <g>
       <use xlink:href="#m659016358a" x="496.771781" y="113.946922" style="stroke: #000000; stroke-width: 0.8"/>
      </g>
     </g>
     <g id="text_31">
      <!-- $\mathdefault{10^{-5}}$ -->
      <g transform="translate(468.621781 117.366219) scale(0.09 -0.09)">
       <use xlink:href="#DejaVuSans-31" transform="translate(0 0.684375)"/>
       <use xlink:href="#DejaVuSans-30" transform="translate(63.623047 0.684375)"/>
       <use xlink:href="#DejaVuSans-2212" transform="translate(128.203125 38.965625) scale(0.7)"/>
       <use xlink:href="#DejaVuSans-35" transform="translate(186.855469 38.965625) scale(0.7)"/>
      </g>
     </g>
    </g>
    <g id="ytick_13">
     <g id="line2d_56">
      <path d="M 496.771781 81.289932 
L 885.415 81.289932 
" clip-path="url(#p72c7c03bf0)" style="fill: none; stroke: #cccccc; stroke-opacity: 0.3; stroke-width: 0.5; stroke-linecap: square"/>
     </g>
     <g id="line2d_57">
      <g>
       <use xlink:href="#m659016358a" x="496.771781" y="81.289932" style="stroke: #000000; stroke-width: 0.8"/>
      </g>
     </g>
     <g id="text_32">
      <!-- $\mathdefault{10^{-3}}$ -->
      <g transform="translate(468.621781 84.709229) scale(0.09 -0.09)">
       <use xlink:href="#DejaVuSans-31" transform="translate(0 0.765625)"/>
       <use xlink:href="#DejaVuSans-30" transform="translate(63.623047 0.765625)"/>
       <use xlink:href="#DejaVuSans-2212" transform="translate(128.203125 39.046875) scale(0.7)"/>
       <use xlink:href="#DejaVuSans-33" transform="translate(186.855469 39.046875) scale(0.7)"/>
      </g>
     </g>
    </g>
    <g id="ytick_14">
     <g id="line2d_58">
      <path d="M 496.771781 48.632941 
L 885.415 48.632941 
" clip-path="url(#p72c7c03bf0)" style="fill: none; stroke: #cccccc; stroke-opacity: 0.3; stroke-width: 0.5; stroke-linecap: square"/>
     </g>
     <g id="line2d_59">
      <g>
       <use xlink:href="#m659016358a" x="496.771781" y="48.632941" style="stroke: #000000; stroke-width: 0.8"/>
      </g>
     </g>
     <g id="text_33">
      <!-- $\mathdefault{10^{-1}}$ -->
      <g transform="translate(468.621781 52.052238) scale(0.09 -0.09)">
       <use xlink:href="#DejaVuSans-31" transform="translate(0 0.684375)"/>
       <use xlink:href="#DejaVuSans-30" transform="translate(63.623047 0.684375)"/>
       <use xlink:href="#DejaVuSans-2212" transform="translate(128.203125 38.965625) scale(0.7)"/>
       <use xlink:href="#DejaVuSans-31" transform="translate(186.855469 38.965625) scale(0.7)"/>
      </g>
     </g>
    </g>
    <g id="text_34">
     <!-- |K_AGM - K_ref| -->
     <g transform="translate(458.068187 206.606563) rotate(-90) scale(0.11 -0.11)">
      <defs>
       <path id="DejaVuSans-7c" d="M 1344 4891 
L 1344 -1509 
L 813 -1509 
L 813 4891 
L 1344 4891 
z
" transform="scale(0.015625)"/>
       <path id="DejaVuSans-5f" d="M 3263 -1063 
L 3263 -1509 
L -63 -1509 
L -63 -1063 
L 3263 -1063 
z
" transform="scale(0.015625)"/>
       <path id="DejaVuSans-41" d="M 2188 4044 
L 1331 1722 
L 3047 1722 
L 2188 4044 
z
M 1831 4666 
L 2547 4666 
L 4325 0 
L 3669 0 
L 3244 1197 
L 1141 1197 
L 716 0 
L 50 0 
L 1831 4666 
z
" transform="scale(0.015625)"/>
       <path id="DejaVuSans-47" d="M 3809 666 
L 3809 1919 
L 2778 1919 
L 2778 2438 
L 4434 2438 
L 4434 434 
Q 4069 175 3628 42 
Q 3188 -91 2688 -91 
Q 1594 -91 976 548 
Q 359 1188 359 2328 
Q 359 3472 976 4111 
Q 1594 4750 2688 4750 
Q 3144 4750 3555 4637 
Q 3966 4525 4313 4306 
L 4313 3634 
Q 3963 3931 3569 4081 
Q 3175 4231 2741 4231 
Q 1884 4231 1454 3753 
Q 1025 3275 1025 2328 
Q 1025 1384 1454 906 
Q 1884 428 2741 428 
Q 3075 428 3337 486 
Q 3600 544 3809 666 
z
" transform="scale(0.015625)"/>
       <path id="DejaVuSans-4d" d="M 628 4666 
L 1569 4666 
L 2759 1491 
L 3956 4666 
L 4897 4666 
L 4897 0 
L 4281 0 
L 4281 4097 
L 3078 897 
L 2444 897 
L 1241 4097 
L 1241 0 
L 628 0 
L 628 4666 
z
" transform="scale(0.015625)"/>
       <path id="DejaVuSans-2d" d="M 313 2009 
L 1997 2009 
L 1997 1497 
L 313 1497 
L 313 2009 
z
" transform="scale(0.015625)"/>
       <path id="DejaVuSans-66" d="M 2375 4863 
L 2375 4384 
L 1825 4384 
Q 1516 4384 1395 4259 
Q 1275 4134 1275 3809 
L 1275 3500 
L 2222 3500 
L 2222 3053 
L 1275 3053 
L 1275 0 
L 697 0 
L 697 3053 
L 147 3053 
L 147 3500 
L 697 3500 
L 697 3744 
Q 697 4328 969 4595 
Q 1241 4863 1831 4863 
L 2375 4863 
z
" transform="scale(0.015625)"/>
      </defs>
      <use xlink:href="#DejaVuSans-7c"/>
      <use xlink:href="#DejaVuSans-4b" transform="translate(33.691406 0)"/>
      <use xlink:href="#DejaVuSans-5f" transform="translate(99.267578 0)"/>
      <use xlink:href="#DejaVuSans-41" transform="translate(149.267578 0)"/>
      <use xlink:href="#DejaVuSans-47" transform="translate(215.925781 0)"/>
      <use xlink:href="#DejaVuSans-4d" transform="translate(293.416016 0)"/>
      <use xlink:href="#DejaVuSans-20" transform="translate(379.695312 0)"/>
      <use xlink:href="#DejaVuSans-2d" transform="translate(411.482422 0)"/>
      <use xlink:href="#DejaVuSans-20" transform="translate(447.566406 0)"/>
      <use xlink:href="#DejaVuSans-4b" transform="translate(479.353516 0)"/>
      <use xlink:href="#DejaVuSans-5f" transform="translate(544.929688 0)"/>
      <use xlink:href="#DejaVuSans-72" transform="translate(594.929688 0)"/>
      <use xlink:href="#DejaVuSans-65" transform="translate(633.792969 0)"/>
      <use xlink:href="#DejaVuSans-66" transform="translate(695.316406 0)"/>
      <use xlink:href="#DejaVuSans-7c" transform="translate(730.521484 0)"/>
     </g>
    </g>
   </g>
   <g id="line2d_60">
    <path d="M 514.437382 41.248977 
L 543.88005 62.691666 
L 573.322718 107.208524 
L 602.765386 196.321292 
L 632.208054 287.903523 
L 661.650722 287.903523 
L 691.09339 287.903523 
L 720.536058 287.903523 
L 749.978727 287.903523 
L 779.421395 287.903523 
L 808.864063 287.903523 
L 838.306731 287.903523 
L 867.749399 287.903523 
" clip-path="url(#p72c7c03bf0)" style="fill: none; stroke: #ffaa00; stroke-width: 2; stroke-linecap: square"/>
    <defs>
     <path id="ma8fcf44a28" d="M 0 3 
C 0.795609 3 1.55874 2.683901 2.12132 2.12132 
C 2.683901 1.55874 3 0.795609 3 0 
C 3 -0.795609 2.683901 -1.55874 2.12132 -2.12132 
C 1.55874 -2.683901 0.795609 -3 0 -3 
C -0.795609 -3 -1.55874 -2.683901 -2.12132 -2.12132 
C -2.683901 -1.55874 -3 -0.795609 -3 0 
C -3 0.795609 -2.683901 1.55874 -2.12132 2.12132 
C -1.55874 2.683901 -0.795609 3 0 3 
z
" style="stroke: #ffaa00"/>
    </defs>
    <g clip-path="url(#p72c7c03bf0)">
     <use xlink:href="#ma8fcf44a28" x="514.437382" y="41.248977" style="fill: #ffaa00; stroke: #ffaa00"/>
     <use xlink:href="#ma8fcf44a28" x="543.88005" y="62.691666" style="fill: #ffaa00; stroke: #ffaa00"/>
     <use xlink:href="#ma8fcf44a28" x="573.322718" y="107.208524" style="fill: #ffaa00; stroke: #ffaa00"/>
     <use xlink:href="#ma8fcf44a28" x="602.765386" y="196.321292" style="fill: #ffaa00; stroke: #ffaa00"/>
     <use xlink:href="#ma8fcf44a28" x="632.208054" y="287.903523" style="fill: #ffaa00; stroke: #ffaa00"/>
     <use xlink:href="#ma8fcf44a28" x="661.650722" y="287.903523" style="fill: #ffaa00; stroke: #ffaa00"/>
     <use xlink:href="#ma8fcf44a28" x="691.09339" y="287.903523" style="fill: #ffaa00; stroke: #ffaa00"/>
     <use xlink:href="#ma8fcf44a28" x="720.536058" y="287.903523" style="fill: #ffaa00; stroke: #ffaa00"/>
     <use xlink:href="#ma8fcf44a28" x="749.978727" y="287.903523" style="fill: #ffaa00; stroke: #ffaa00"/>
     <use xlink:href="#ma8fcf44a28" x="779.421395" y="287.903523" style="fill: #ffaa00; stroke: #ffaa00"/>
     <use xlink:href="#ma8fcf44a28" x="808.864063" y="287.903523" style="fill: #ffaa00; stroke: #ffaa00"/>
     <use xlink:href="#ma8fcf44a28" x="838.306731" y="287.903523" style="fill: #ffaa00; stroke: #ffaa00"/>
     <use xlink:href="#ma8fcf44a28" x="867.749399" y="287.903523" style="fill: #ffaa00; stroke: #ffaa00"/>
    </g>
   </g>
   <g id="patch_9">
    <path d="M 496.771781 300.23625 
L 496.771781 28.91625 
" style="fill: none; stroke: #222222; stroke-width: 0.5; stroke-linejoin: miter; stroke-linecap: square"/>
   </g>
   <g id="patch_10">
    <path d="M 885.415 300.23625 
L 885.415 28.91625 
" style="fill: none; stroke: #222222; stroke-width: 0.5; stroke-linejoin: miter; stroke-linecap: square"/>
   </g>
   <g id="patch_11">
    <path d="M 496.771781 300.23625 
L 885.415 300.23625 
" style="fill: none; stroke: #222222; stroke-width: 0.5; stroke-linejoin: miter; stroke-linecap: square"/>
   </g>
   <g id="patch_12">
    <path d="M 496.771781 28.91625 
L 885.415 28.91625 
" style="fill: none; stroke: #222222; stroke-width: 0.5; stroke-linejoin: miter; stroke-linecap: square"/>
   </g>
   <g id="text_35">
    <!-- Absolute Error vs Iteration -->
    <g transform="translate(585.815578 18.91625) scale(0.14 -0.14)">
     <defs>
      <path id="DejaVuSans-Bold-62" d="M 2400 722 
Q 2759 722 2948 984 
Q 3138 1247 3138 1747 
Q 3138 2247 2948 2509 
Q 2759 2772 2400 2772 
Q 2041 2772 1848 2508 
Q 1656 2244 1656 1747 
Q 1656 1250 1848 986 
Q 2041 722 2400 722 
z
M 1656 2988 
Q 1888 3294 2169 3439 
Q 2450 3584 2816 3584 
Q 3463 3584 3878 3070 
Q 4294 2556 4294 1747 
Q 4294 938 3878 423 
Q 3463 -91 2816 -91 
Q 2450 -91 2169 54 
Q 1888 200 1656 506 
L 1656 0 
L 538 0 
L 538 4863 
L 1656 4863 
L 1656 2988 
z
" transform="scale(0.015625)"/>
      <path id="DejaVuSans-Bold-73" d="M 3272 3391 
L 3272 2541 
Q 2913 2691 2578 2766 
Q 2244 2841 1947 2841 
Q 1628 2841 1473 2761 
Q 1319 2681 1319 2516 
Q 1319 2381 1436 2309 
Q 1553 2238 1856 2203 
L 2053 2175 
Q 2913 2066 3209 1816 
Q 3506 1566 3506 1031 
Q 3506 472 3093 190 
Q 2681 -91 1863 -91 
Q 1516 -91 1145 -36 
Q 775 19 384 128 
L 384 978 
Q 719 816 1070 734 
Q 1422 653 1784 653 
Q 2113 653 2278 743 
Q 2444 834 2444 1013 
Q 2444 1163 2330 1236 
Q 2216 1309 1875 1350 
L 1678 1375 
Q 931 1469 631 1722 
Q 331 1975 331 2491 
Q 331 3047 712 3315 
Q 1094 3584 1881 3584 
Q 2191 3584 2531 3537 
Q 2872 3491 3272 3391 
z
" transform="scale(0.015625)"/>
      <path id="DejaVuSans-Bold-6c" d="M 538 4863 
L 1656 4863 
L 1656 0 
L 538 0 
L 538 4863 
z
" transform="scale(0.015625)"/>
      <path id="DejaVuSans-Bold-75" d="M 500 1363 
L 500 3500 
L 1625 3500 
L 1625 3150 
Q 1625 2866 1622 2436 
Q 1619 2006 1619 1863 
Q 1619 1441 1641 1255 
Q 1663 1069 1716 984 
Q 1784 875 1895 815 
Q 2006 756 2150 756 
Q 2500 756 2700 1025 
Q 2900 1294 2900 1772 
L 2900 3500 
L 4019 3500 
L 4019 0 
L 2900 0 
L 2900 506 
Q 2647 200 2364 54 
Q 2081 -91 1741 -91 
Q 1134 -91 817 281 
Q 500 653 500 1363 
z
" transform="scale(0.015625)"/>
      <path id="DejaVuSans-Bold-74" d="M 1759 4494 
L 1759 3500 
L 2913 3500 
L 2913 2700 
L 1759 2700 
L 1759 1216 
Q 1759 972 1856 886 
Q 1953 800 2241 800 
L 2816 800 
L 2816 0 
L 1856 0 
Q 1194 0 917 276 
Q 641 553 641 1216 
L 641 2700 
L 84 2700 
L 84 3500 
L 641 3500 
L 641 4494 
L 1759 4494 
z
" transform="scale(0.015625)"/>
      <path id="DejaVuSans-Bold-45" d="M 588 4666 
L 3834 4666 
L 3834 3756 
L 1791 3756 
L 1791 2888 
L 3713 2888 
L 3713 1978 
L 1791 1978 
L 1791 909 
L 3903 909 
L 3903 0 
L 588 0 
L 588 4666 
z
" transform="scale(0.015625)"/>
      <path id="DejaVuSans-Bold-49" d="M 588 4666 
L 1791 4666 
L 1791 0 
L 588 0 
L 588 4666 
z
" transform="scale(0.015625)"/>
      <path id="DejaVuSans-Bold-61" d="M 2106 1575 
Q 1756 1575 1579 1456 
Q 1403 1338 1403 1106 
Q 1403 894 1545 773 
Q 1688 653 1941 653 
Q 2256 653 2472 879 
Q 2688 1106 2688 1447 
L 2688 1575 
L 2106 1575 
z
M 3816 1997 
L 3816 0 
L 2688 0 
L 2688 519 
Q 2463 200 2181 54 
Q 1900 -91 1497 -91 
Q 953 -91 614 226 
Q 275 544 275 1050 
Q 275 1666 698 1953 
Q 1122 2241 2028 2241 
L 2688 2241 
L 2688 2328 
Q 2688 2594 2478 2717 
Q 2269 2841 1825 2841 
Q 1466 2841 1156 2769 
Q 847 2697 581 2553 
L 581 3406 
Q 941 3494 1303 3539 
Q 1666 3584 2028 3584 
Q 2975 3584 3395 3211 
Q 3816 2838 3816 1997 
z
" transform="scale(0.015625)"/>
      <path id="DejaVuSans-Bold-69" d="M 538 3500 
L 1656 3500 
L 1656 0 
L 538 0 
L 538 3500 
z
M 538 4863 
L 1656 4863 
L 1656 3950 
L 538 3950 
L 538 4863 
z
" transform="scale(0.015625)"/>
     </defs>
     <use xlink:href="#DejaVuSans-Bold-41"/>
     <use xlink:href="#DejaVuSans-Bold-62" transform="translate(77.392578 0)"/>
     <use xlink:href="#DejaVuSans-Bold-73" transform="translate(148.974609 0)"/>
     <use xlink:href="#DejaVuSans-Bold-6f" transform="translate(208.496094 0)"/>
     <use xlink:href="#DejaVuSans-Bold-6c" transform="translate(277.197266 0)"/>
     <use xlink:href="#DejaVuSans-Bold-75" transform="translate(311.474609 0)"/>
     <use xlink:href="#DejaVuSans-Bold-74" transform="translate(382.666016 0)"/>
     <use xlink:href="#DejaVuSans-Bold-65" transform="translate(430.46875 0)"/>
     <use xlink:href="#DejaVuSans-Bold-20" transform="translate(498.291016 0)"/>
     <use xlink:href="#DejaVuSans-Bold-45" transform="translate(533.105469 0)"/>
     <use xlink:href="#DejaVuSans-Bold-72" transform="translate(601.416016 0)"/>
     <use xlink:href="#DejaVuSans-Bold-72" transform="translate(650.732422 0)"/>
     <use xlink:href="#DejaVuSans-Bold-6f" transform="translate(700.048828 0)"/>
     <use xlink:href="#DejaVuSans-Bold-72" transform="translate(768.75 0)"/>
     <use xlink:href="#DejaVuSans-Bold-20" transform="translate(818.066406 0)"/>
     <use xlink:href="#DejaVuSans-Bold-76" transform="translate(852.880859 0)"/>
     <use xlink:href="#DejaVuSans-Bold-73" transform="translate(918.066406 0)"/>
     <use xlink:href="#DejaVuSans-Bold-20" transform="translate(977.587891 0)"/>
     <use xlink:href="#DejaVuSans-Bold-49" transform="translate(1012.402344 0)"/>
     <use xlink:href="#DejaVuSans-Bold-74" transform="translate(1049.609375 0)"/>
     <use xlink:href="#DejaVuSans-Bold-65" transform="translate(1097.412109 0)"/>
     <use xlink:href="#DejaVuSans-Bold-72" transform="translate(1165.234375 0)"/>
     <use xlink:href="#DejaVuSans-Bold-61" transform="translate(1214.550781 0)"/>
     <use xlink:href="#DejaVuSans-Bold-74" transform="translate(1282.03125 0)"/>
     <use xlink:href="#DejaVuSans-Bold-69" transform="translate(1329.833984 0)"/>
     <use xlink:href="#DejaVuSans-Bold-6f" transform="translate(1364.111328 0)"/>
     <use xlink:href="#DejaVuSans-Bold-6e" transform="translate(1432.8125 0)"/>
    </g>
   </g>
  </g>
 </g>
 <defs>
  <clipPath id="pf060b2646a">
   <rect x="48.885" y="28.91625" width="388.643219" height="271.32"/>
  </clipPath>
  <clipPath id="p72c7c03bf0">
   <rect x="496.771781" y="28.91625" width="388.643219" height="271.32"/>
  </clipPath>
 </defs>
</svg>
