<?xml version="1.0" encoding="utf-8" standalone="no"?>
<!DOCTYPE svg PUBLIC "-//W3C//DTD SVG 1.1//EN"
  "http://www.w3.org/Graphics/SVG/1.1/DTD/svg11.dtd">
<svg xmlns:xlink="http://www.w3.org/1999/xlink" width="784.600937pt" height="337.434063pt" viewBox="0 0 784.600937 337.434063" xmlns="http://www.w3.org/2000/svg" version="1.1">
 <metadata>
  <rdf:RDF xmlns:dc="http://purl.org/dc/elements/1.1/" xmlns:cc="http://creativecommons.org/ns#" xmlns:rdf="http://www.w3.org/1999/02/22-rdf-syntax-ns#">
   <cc:Work>
    <dc:type rdf:resource="http://purl.org/dc/dcmitype/StillImage"/>
    <dc:date>2026-01-04T13:51:16.180966</dc:date>
    <dc:format>image/svg+xml</dc:format>
    <dc:creator>
     <cc:Agent>
      <dc:title>Matplotlib v3.10.8, https://matplotlib.org/</dc:title>
     </cc:Agent>
    </dc:creator>
   </cc:Work>
  </rdf:RDF>
 </metadata>
 <defs>
  <style type="text/css">*{stroke-linejoin: round; stroke-linecap: butt}</style>
 </defs>
 <g id="figure_1">
  <g id="patch_1">
   <path d="M 0 337.434063 
L 784.600937 337.434063 
L 784.600937 0 
L 0 0 
z
" style="fill: #ffffff"/>
  </g>
  <g id="axes_1">
   <g id="patch_2">
    <path d="M 51.750937 299.877813 
L 777.400937 299.877813 
L 777.400937 27.837813 
L 51.750937 27.837813 
z
" style="fill: #ffffff"/>
   </g>
   <g id="matplotlib.axis_1">
    <g id="xtick_1">
     <g id="line2d_1">
      <path d="M 84.729468 299.877813 
L 84.729468 27.837813 
" clip-path="url(#p3bd56f6b5c)" style="fill: none; stroke: #cccccc; stroke-opacity: 0.3; stroke-width: 0.5; stroke-linecap: square"/>
     </g>
     <g id="line2d_2">
      <defs>
       <path id="mae6d21d04e" d="M 0 0 
L 0 3.5 
" style="stroke: #000000; stroke-width: 0.8"/>
      </defs>
      <g>
       <use xlink:href="#mae6d21d04e" x="84.729468" y="299.877813" style="stroke: #000000; stroke-width: 0.8"/>
      </g>
     </g>
     <g id="text_1">
      <!-- 0 -->
      <g transform="translate(81.866343 313.716406) scale(0.09 -0.09)">
       <defs>
        <path id="DejaVuSans-30" d="M 2034 4250 
Q 1547 4250 1301 3770 
Q 1056 3291 1056 2328 
Q 1056 1369 1301 889 
Q 1547 409 2034 409 
Q 2525 409 2770 889 
Q 3016 1369 3016 2328 
Q 3016 3291 2770 3770 
Q 2525 4250 2034 4250 
z
M 2034 4750 
Q 2819 4750 3233 4129 
Q 3647 3509 3647 2328 
Q 3647 1150 3233 529 
Q 2819 -91 2034 -91 
Q 1250 -91 836 529 
Q 422 1150 422 2328 
Q 422 3509 836 4129 
Q 1250 4750 2034 4750 
z
" transform="scale(0.015625)"/>
       </defs>
       <use xlink:href="#DejaVuSans-30"/>
      </g>
     </g>
    </g>
    <g id="xtick_2">
     <g id="line2d_3">
      <path d="M 172.428162 299.877813 
L 172.428162 27.837813 
" clip-path="url(#p3bd56f6b5c)" style="fill: none; stroke: #cccccc; stroke-opacity: 0.3; stroke-width: 0.5; stroke-linecap: square"/>
     </g>
     <g id="line2d_4">
      <g>
       <use xlink:href="#mae6d21d04e" x="172.428162" y="299.877813" style="stroke: #000000; stroke-width: 0.8"/>
      </g>
     </g>
     <g id="text_2">
      <!-- 20000 -->
      <g transform="translate(158.112537 313.716406) scale(0.09 -0.09)">
       <defs>
        <path id="DejaVuSans-32" d="M 1228 531 
L 3431 531 
L 3431 0 
L 469 0 
L 469 531 
Q 828 903 1448 1529 
Q 2069 2156 2228 2338 
Q 2531 2678 2651 2914 
Q 2772 3150 2772 3378 
Q 2772 3750 2511 3984 
Q 2250 4219 1831 4219 
Q 1534 4219 1204 4116 
Q 875 4013 500 3803 
L 500 4441 
Q 881 4594 1212 4672 
Q 1544 4750 1819 4750 
Q 2544 4750 2975 4387 
Q 3406 4025 3406 3419 
Q 3406 3131 3298 2873 
Q 3191 2616 2906 2266 
Q 2828 2175 2409 1742 
Q 1991 1309 1228 531 
z
" transform="scale(0.015625)"/>
       </defs>
       <use xlink:href="#DejaVuSans-32"/>
       <use xlink:href="#DejaVuSans-30" transform="translate(63.623047 0)"/>
       <use xlink:href="#DejaVuSans-30" transform="translate(127.246094 0)"/>
       <use xlink:href="#DejaVuSans-30" transform="translate(190.869141 0)"/>
       <use xlink:href="#DejaVuSans-30" transform="translate(254.492188 0)"/>
      </g>
     </g>
    </g>
    <g id="xtick_3">
     <g id="line2d_5">
      <path d="M 260.126857 299.877813 
L 260.126857 27.837813 
" clip-path="url(#p3bd56f6b5c)" style="fill: none; stroke: #cccccc; stroke-opacity: 0.3; stroke-width: 0.5; stroke-linecap: square"/>
     </g>
     <g id="line2d_6">
      <g>
       <use xlink:href="#mae6d21d04e" x="260.126857" y="299.877813" style="stroke: #000000; stroke-width: 0.8"/>
      </g>
     </g>
     <g id="text_3">
      <!-- 40000 -->
      <g transform="translate(245.811232 313.716406) scale(0.09 -0.09)">
       <defs>
        <path id="DejaVuSans-34" d="M 2419 4116 
L 825 1625 
L 2419 1625 
L 2419 4116 
z
M 2253 4666 
L 3047 4666 
L 3047 1625 
L 3713 1625 
L 3713 1100 
L 3047 1100 
L 3047 0 
L 2419 0 
L 2419 1100 
L 313 1100 
L 313 1709 
L 2253 4666 
z
" transform="scale(0.015625)"/>
       </defs>
       <use xlink:href="#DejaVuSans-34"/>
       <use xlink:href="#DejaVuSans-30" transform="translate(63.623047 0)"/>
       <use xlink:href="#DejaVuSans-30" transform="translate(127.246094 0)"/>
       <use xlink:href="#DejaVuSans-30" transform="translate(190.869141 0)"/>
       <use xlink:href="#DejaVuSans-30" transform="translate(254.492188 0)"/>
      </g>
     </g>
    </g>
    <g id="xtick_4">
     <g id="line2d_7">
      <path d="M 347.825551 299.877813 
L 347.825551 27.837813 
" clip-path="url(#p3bd56f6b5c)" style="fill: none; stroke: #cccccc; stroke-opacity: 0.3; stroke-width: 0.5; stroke-linecap: square"/>
     </g>
     <g id="line2d_8">
      <g>
       <use xlink:href="#mae6d21d04e" x="347.825551" y="299.877813" style="stroke: #000000; stroke-width: 0.8"/>
      </g>
     </g>
     <g id="text_4">
      <!-- 60000 -->
      <g transform="translate(333.509926 313.716406) scale(0.09 -0.09)">
       <defs>
        <path id="DejaVuSans-36" d="M 2113 2584 
Q 1688 2584 1439 2293 
Q 1191 2003 1191 1497 
Q 1191 994 1439 701 
Q 1688 409 2113 409 
Q 2538 409 2786 701 
Q 3034 994 3034 1497 
Q 3034 2003 2786 2293 
Q 2538 2584 2113 2584 
z
M 3366 4563 
L 3366 3988 
Q 3128 4100 2886 4159 
Q 2644 4219 2406 4219 
Q 1781 4219 1451 3797 
Q 1122 3375 1075 2522 
Q 1259 2794 1537 2939 
Q 1816 3084 2150 3084 
Q 2853 3084 3261 2657 
Q 3669 2231 3669 1497 
Q 3669 778 3244 343 
Q 2819 -91 2113 -91 
Q 1303 -91 875 529 
Q 447 1150 447 2328 
Q 447 3434 972 4092 
Q 1497 4750 2381 4750 
Q 2619 4750 2861 4703 
Q 3103 4656 3366 4563 
z
" transform="scale(0.015625)"/>
       </defs>
       <use xlink:href="#DejaVuSans-36"/>
       <use xlink:href="#DejaVuSans-30" transform="translate(63.623047 0)"/>
       <use xlink:href="#DejaVuSans-30" transform="translate(127.246094 0)"/>
       <use xlink:href="#DejaVuSans-30" transform="translate(190.869141 0)"/>
       <use xlink:href="#DejaVuSans-30" transform="translate(254.492188 0)"/>
      </g>
     </g>
    </g>
    <g id="xtick_5">
     <g id="line2d_9">
      <path d="M 435.524246 299.877813 
L 435.524246 27.837813 
" clip-path="url(#p3bd56f6b5c)" style="fill: none; stroke: #cccccc; stroke-opacity: 0.3; stroke-width: 0.5; stroke-linecap: square"/>
     </g>
     <g id="line2d_10">
      <g>
       <use xlink:href="#mae6d21d04e" x="435.524246" y="299.877813" style="stroke: #000000; stroke-width: 0.8"/>
      </g>
     </g>
     <g id="text_5">
      <!-- 80000 -->
      <g transform="translate(421.208621 313.716406) scale(0.09 -0.09)">
       <defs>
        <path id="DejaVuSans-38" d="M 2034 2216 
Q 1584 2216 1326 1975 
Q 1069 1734 1069 1313 
Q 1069 891 1326 650 
Q 1584 409 2034 409 
Q 2484 409 2743 651 
Q 3003 894 3003 1313 
Q 3003 1734 2745 1975 
Q 2488 2216 2034 2216 
z
M 1403 2484 
Q 997 2584 770 2862 
Q 544 3141 544 3541 
Q 544 4100 942 4425 
Q 1341 4750 2034 4750 
Q 2731 4750 3128 4425 
Q 3525 4100 3525 3541 
Q 3525 3141 3298 2862 
Q 3072 2584 2669 2484 
Q 3125 2378 3379 2068 
Q 3634 1759 3634 1313 
Q 3634 634 3220 271 
Q 2806 -91 2034 -91 
Q 1263 -91 848 271 
Q 434 634 434 1313 
Q 434 1759 690 2068 
Q 947 2378 1403 2484 
z
M 1172 3481 
Q 1172 3119 1398 2916 
Q 1625 2713 2034 2713 
Q 2441 2713 2670 2916 
Q 2900 3119 2900 3481 
Q 2900 3844 2670 4047 
Q 2441 4250 2034 4250 
Q 1625 4250 1398 4047 
Q 1172 3844 1172 3481 
z
" transform="scale(0.015625)"/>
       </defs>
       <use xlink:href="#DejaVuSans-38"/>
       <use xlink:href="#DejaVuSans-30" transform="translate(63.623047 0)"/>
       <use xlink:href="#DejaVuSans-30" transform="translate(127.246094 0)"/>
       <use xlink:href="#DejaVuSans-30" transform="translate(190.869141 0)"/>
       <use xlink:href="#DejaVuSans-30" transform="translate(254.492188 0)"/>
      </g>
     </g>
    </g>
    <g id="xtick_6">
     <g id="line2d_11">
      <path d="M 523.22294 299.877813 
L 523.22294 27.837813 
" clip-path="url(#p3bd56f6b5c)" style="fill: none; stroke: #cccccc; stroke-opacity: 0.3; stroke-width: 0.5; stroke-linecap: square"/>
     </g>
     <g id="line2d_12">
      <g>
       <use xlink:href="#mae6d21d04e" x="523.22294" y="299.877813" style="stroke: #000000; stroke-width: 0.8"/>
      </g>
     </g>
     <g id="text_6">
      <!-- 100000 -->
      <g transform="translate(506.04419 313.716406) scale(0.09 -0.09)">
       <defs>
        <path id="DejaVuSans-31" d="M 794 531 
L 1825 531 
L 1825 4091 
L 703 3866 
L 703 4441 
L 1819 4666 
L 2450 4666 
L 2450 531 
L 3481 531 
L 3481 0 
L 794 0 
L 794 531 
z
" transform="scale(0.015625)"/>
       </defs>
       <use xlink:href="#DejaVuSans-31"/>
       <use xlink:href="#DejaVuSans-30" transform="translate(63.623047 0)"/>
       <use xlink:href="#DejaVuSans-30" transform="translate(127.246094 0)"/>
       <use xlink:href="#DejaVuSans-30" transform="translate(190.869141 0)"/>
       <use xlink:href="#DejaVuSans-30" transform="translate(254.492188 0)"/>
       <use xlink:href="#DejaVuSans-30" transform="translate(318.115234 0)"/>
      </g>
     </g>
    </g>
    <g id="xtick_7">
     <g id="line2d_13">
      <path d="M 610.921635 299.877813 
L 610.921635 27.837813 
" clip-path="url(#p3bd56f6b5c)" style="fill: none; stroke: #cccccc; stroke-opacity: 0.3; stroke-width: 0.5; stroke-linecap: square"/>
     </g>
     <g id="line2d_14">
      <g>
       <use xlink:href="#mae6d21d04e" x="610.921635" y="299.877813" style="stroke: #000000; stroke-width: 0.8"/>
      </g>
     </g>
     <g id="text_7">
      <!-- 120000 -->
      <g transform="translate(593.742885 313.716406) scale(0.09 -0.09)">
       <use xlink:href="#DejaVuSans-31"/>
       <use xlink:href="#DejaVuSans-32" transform="translate(63.623047 0)"/>
       <use xlink:href="#DejaVuSans-30" transform="translate(127.246094 0)"/>
       <use xlink:href="#DejaVuSans-30" transform="translate(190.869141 0)"/>
       <use xlink:href="#DejaVuSans-30" transform="translate(254.492188 0)"/>
       <use xlink:href="#DejaVuSans-30" transform="translate(318.115234 0)"/>
      </g>
     </g>
    </g>
    <g id="xtick_8">
     <g id="line2d_15">
      <path d="M 698.62033 299.877813 
L 698.62033 27.837813 
" clip-path="url(#p3bd56f6b5c)" style="fill: none; stroke: #cccccc; stroke-opacity: 0.3; stroke-width: 0.5; stroke-linecap: square"/>
     </g>
     <g id="line2d_16">
      <g>
       <use xlink:href="#mae6d21d04e" x="698.62033" y="299.877813" style="stroke: #000000; stroke-width: 0.8"/>
      </g>
     </g>
     <g id="text_8">
      <!-- 140000 -->
      <g transform="translate(681.44158 313.716406) scale(0.09 -0.09)">
       <use xlink:href="#DejaVuSans-31"/>
       <use xlink:href="#DejaVuSans-34" transform="translate(63.623047 0)"/>
       <use xlink:href="#DejaVuSans-30" transform="translate(127.246094 0)"/>
       <use xlink:href="#DejaVuSans-30" transform="translate(190.869141 0)"/>
       <use xlink:href="#DejaVuSans-30" transform="translate(254.492188 0)"/>
       <use xlink:href="#DejaVuSans-30" transform="translate(318.115234 0)"/>
      </g>
     </g>
    </g>
    <g id="text_9">
     <!-- ppm discrepancy to CODATA 1/α -->
     <g transform="translate(325.346172 327.946406) scale(0.11 -0.11)">
      <defs>
       <path id="DejaVuSans-70" d="M 1159 525 
L 1159 -1331 
L 581 -1331 
L 581 3500 
L 1159 3500 
L 1159 2969 
Q 1341 3281 1617 3432 
Q 1894 3584 2278 3584 
Q 2916 3584 3314 3078 
Q 3713 2572 3713 1747 
Q 3713 922 3314 415 
Q 2916 -91 2278 -91 
Q 1894 -91 1617 61 
Q 1341 213 1159 525 
z
M 3116 1747 
Q 3116 2381 2855 2742 
Q 2594 3103 2138 3103 
Q 1681 3103 1420 2742 
Q 1159 2381 1159 1747 
Q 1159 1113 1420 752 
Q 1681 391 2138 391 
Q 2594 391 2855 752 
Q 3116 1113 3116 1747 
z
" transform="scale(0.015625)"/>
       <path id="DejaVuSans-6d" d="M 3328 2828 
Q 3544 3216 3844 3400 
Q 4144 3584 4550 3584 
Q 5097 3584 5394 3201 
Q 5691 2819 5691 2113 
L 5691 0 
L 5113 0 
L 5113 2094 
Q 5113 2597 4934 2840 
Q 4756 3084 4391 3084 
Q 3944 3084 3684 2787 
Q 3425 2491 3425 1978 
L 3425 0 
L 2847 0 
L 2847 2094 
Q 2847 2600 2669 2842 
Q 2491 3084 2119 3084 
Q 1678 3084 1418 2786 
Q 1159 2488 1159 1978 
L 1159 0 
L 581 0 
L 581 3500 
L 1159 3500 
L 1159 2956 
Q 1356 3278 1631 3431 
Q 1906 3584 2284 3584 
Q 2666 3584 2933 3390 
Q 3200 3197 3328 2828 
z
" transform="scale(0.015625)"/>
       <path id="DejaVuSans-20" transform="scale(0.015625)"/>
       <path id="DejaVuSans-64" d="M 2906 2969 
L 2906 4863 
L 3481 4863 
L 3481 0 
L 2906 0 
L 2906 525 
Q 2725 213 2448 61 
Q 2172 -91 1784 -91 
Q 1150 -91 751 415 
Q 353 922 353 1747 
Q 353 2572 751 3078 
Q 1150 3584 1784 3584 
Q 2172 3584 2448 3432 
Q 2725 3281 2906 2969 
z
M 947 1747 
Q 947 1113 1208 752 
Q 1469 391 1925 391 
Q 2381 391 2643 752 
Q 2906 1113 2906 1747 
Q 2906 2381 2643 2742 
Q 2381 3103 1925 3103 
Q 1469 3103 1208 2742 
Q 947 2381 947 1747 
z
" transform="scale(0.015625)"/>
       <path id="DejaVuSans-69" d="M 603 3500 
L 1178 3500 
L 1178 0 
L 603 0 
L 603 3500 
z
M 603 4863 
L 1178 4863 
L 1178 4134 
L 603 4134 
L 603 4863 
z
" transform="scale(0.015625)"/>
       <path id="DejaVuSans-73" d="M 2834 3397 
L 2834 2853 
Q 2591 2978 2328 3040 
Q 2066 3103 1784 3103 
Q 1356 3103 1142 2972 
Q 928 2841 928 2578 
Q 928 2378 1081 2264 
Q 1234 2150 1697 2047 
L 1894 2003 
Q 2506 1872 2764 1633 
Q 3022 1394 3022 966 
Q 3022 478 2636 193 
Q 2250 -91 1575 -91 
Q 1294 -91 989 -36 
Q 684 19 347 128 
L 347 722 
Q 666 556 975 473 
Q 1284 391 1588 391 
Q 1994 391 2212 530 
Q 2431 669 2431 922 
Q 2431 1156 2273 1281 
Q 2116 1406 1581 1522 
L 1381 1569 
Q 847 1681 609 1914 
Q 372 2147 372 2553 
Q 372 3047 722 3315 
Q 1072 3584 1716 3584 
Q 2034 3584 2315 3537 
Q 2597 3491 2834 3397 
z
" transform="scale(0.015625)"/>
       <path id="DejaVuSans-63" d="M 3122 3366 
L 3122 2828 
Q 2878 2963 2633 3030 
Q 2388 3097 2138 3097 
Q 1578 3097 1268 2742 
Q 959 2388 959 1747 
Q 959 1106 1268 751 
Q 1578 397 2138 397 
Q 2388 397 2633 464 
Q 2878 531 3122 666 
L 3122 134 
Q 2881 22 2623 -34 
Q 2366 -91 2075 -91 
Q 1284 -91 818 406 
Q 353 903 353 1747 
Q 353 2603 823 3093 
Q 1294 3584 2113 3584 
Q 2378 3584 2631 3529 
Q 2884 3475 3122 3366 
z
" transform="scale(0.015625)"/>
       <path id="DejaVuSans-72" d="M 2631 2963 
Q 2534 3019 2420 3045 
Q 2306 3072 2169 3072 
Q 1681 3072 1420 2755 
Q 1159 2438 1159 1844 
L 1159 0 
L 581 0 
L 581 3500 
L 1159 3500 
L 1159 2956 
Q 1341 3275 1631 3429 
Q 1922 3584 2338 3584 
Q 2397 3584 2469 3576 
Q 2541 3569 2628 3553 
L 2631 2963 
z
" transform="scale(0.015625)"/>
       <path id="DejaVuSans-65" d="M 3597 1894 
L 3597 1613 
L 953 1613 
Q 991 1019 1311 708 
Q 1631 397 2203 397 
Q 2534 397 2845 478 
Q 3156 559 3463 722 
L 3463 178 
Q 3153 47 2828 -22 
Q 2503 -91 2169 -91 
Q 1331 -91 842 396 
Q 353 884 353 1716 
Q 353 2575 817 3079 
Q 1281 3584 2069 3584 
Q 2775 3584 3186 3129 
Q 3597 2675 3597 1894 
z
M 3022 2063 
Q 3016 2534 2758 2815 
Q 2500 3097 2075 3097 
Q 1594 3097 1305 2825 
Q 1016 2553 972 2059 
L 3022 2063 
z
" transform="scale(0.015625)"/>
       <path id="DejaVuSans-61" d="M 2194 1759 
Q 1497 1759 1228 1600 
Q 959 1441 959 1056 
Q 959 750 1161 570 
Q 1363 391 1709 391 
Q 2188 391 2477 730 
Q 2766 1069 2766 1631 
L 2766 1759 
L 2194 1759 
z
M 3341 1997 
L 3341 0 
L 2766 0 
L 2766 531 
Q 2569 213 2275 61 
Q 1981 -91 1556 -91 
Q 1019 -91 701 211 
Q 384 513 384 1019 
Q 384 1609 779 1909 
Q 1175 2209 1959 2209 
L 2766 2209 
L 2766 2266 
Q 2766 2663 2505 2880 
Q 2244 3097 1772 3097 
Q 1472 3097 1187 3025 
Q 903 2953 641 2809 
L 641 3341 
Q 956 3463 1253 3523 
Q 1550 3584 1831 3584 
Q 2591 3584 2966 3190 
Q 3341 2797 3341 1997 
z
" transform="scale(0.015625)"/>
       <path id="DejaVuSans-6e" d="M 3513 2113 
L 3513 0 
L 2938 0 
L 2938 2094 
Q 2938 2591 2744 2837 
Q 2550 3084 2163 3084 
Q 1697 3084 1428 2787 
Q 1159 2491 1159 1978 
L 1159 0 
L 581 0 
L 581 3500 
L 1159 3500 
L 1159 2956 
Q 1366 3272 1645 3428 
Q 1925 3584 2291 3584 
Q 2894 3584 3203 3211 
Q 3513 2838 3513 2113 
z
" transform="scale(0.015625)"/>
       <path id="DejaVuSans-79" d="M 2059 -325 
Q 1816 -950 1584 -1140 
Q 1353 -1331 966 -1331 
L 506 -1331 
L 506 -850 
L 844 -850 
Q 1081 -850 1212 -737 
Q 1344 -625 1503 -206 
L 1606 56 
L 191 3500 
L 800 3500 
L 1894 763 
L 2988 3500 
L 3597 3500 
L 2059 -325 
z
" transform="scale(0.015625)"/>
       <path id="DejaVuSans-74" d="M 1172 4494 
L 1172 3500 
L 2356 3500 
L 2356 3053 
L 1172 3053 
L 1172 1153 
Q 1172 725 1289 603 
Q 1406 481 1766 481 
L 2356 481 
L 2356 0 
L 1766 0 
Q 1100 0 847 248 
Q 594 497 594 1153 
L 594 3053 
L 172 3053 
L 172 3500 
L 594 3500 
L 594 4494 
L 1172 4494 
z
" transform="scale(0.015625)"/>
       <path id="DejaVuSans-6f" d="M 1959 3097 
Q 1497 3097 1228 2736 
Q 959 2375 959 1747 
Q 959 1119 1226 758 
Q 1494 397 1959 397 
Q 2419 397 2687 759 
Q 2956 1122 2956 1747 
Q 2956 2369 2687 2733 
Q 2419 3097 1959 3097 
z
M 1959 3584 
Q 2709 3584 3137 3096 
Q 3566 2609 3566 1747 
Q 3566 888 3137 398 
Q 2709 -91 1959 -91 
Q 1206 -91 779 398 
Q 353 888 353 1747 
Q 353 2609 779 3096 
Q 1206 3584 1959 3584 
z
" transform="scale(0.015625)"/>
       <path id="DejaVuSans-43" d="M 4122 4306 
L 4122 3641 
Q 3803 3938 3442 4084 
Q 3081 4231 2675 4231 
Q 1875 4231 1450 3742 
Q 1025 3253 1025 2328 
Q 1025 1406 1450 917 
Q 1875 428 2675 428 
Q 3081 428 3442 575 
Q 3803 722 4122 1019 
L 4122 359 
Q 3791 134 3420 21 
Q 3050 -91 2638 -91 
Q 1578 -91 968 557 
Q 359 1206 359 2328 
Q 359 3453 968 4101 
Q 1578 4750 2638 4750 
Q 3056 4750 3426 4639 
Q 3797 4528 4122 4306 
z
" transform="scale(0.015625)"/>
       <path id="DejaVuSans-4f" d="M 2522 4238 
Q 1834 4238 1429 3725 
Q 1025 3213 1025 2328 
Q 1025 1447 1429 934 
Q 1834 422 2522 422 
Q 3209 422 3611 934 
Q 4013 1447 4013 2328 
Q 4013 3213 3611 3725 
Q 3209 4238 2522 4238 
z
M 2522 4750 
Q 3503 4750 4090 4092 
Q 4678 3434 4678 2328 
Q 4678 1225 4090 567 
Q 3503 -91 2522 -91 
Q 1538 -91 948 565 
Q 359 1222 359 2328 
Q 359 3434 948 4092 
Q 1538 4750 2522 4750 
z
" transform="scale(0.015625)"/>
       <path id="DejaVuSans-44" d="M 1259 4147 
L 1259 519 
L 2022 519 
Q 2988 519 3436 956 
Q 3884 1394 3884 2338 
Q 3884 3275 3436 3711 
Q 2988 4147 2022 4147 
L 1259 4147 
z
M 628 4666 
L 1925 4666 
Q 3281 4666 3915 4102 
Q 4550 3538 4550 2338 
Q 4550 1131 3912 565 
Q 3275 0 1925 0 
L 628 0 
L 628 4666 
z
" transform="scale(0.015625)"/>
       <path id="DejaVuSans-41" d="M 2188 4044 
L 1331 1722 
L 3047 1722 
L 2188 4044 
z
M 1831 4666 
L 2547 4666 
L 4325 0 
L 3669 0 
L 3244 1197 
L 1141 1197 
L 716 0 
L 50 0 
L 1831 4666 
z
" transform="scale(0.015625)"/>
       <path id="DejaVuSans-54" d="M -19 4666 
L 3928 4666 
L 3928 4134 
L 2272 4134 
L 2272 0 
L 1638 0 
L 1638 4134 
L -19 4134 
L -19 4666 
z
" transform="scale(0.015625)"/>
       <path id="DejaVuSans-2f" d="M 1625 4666 
L 2156 4666 
L 531 -594 
L 0 -594 
L 1625 4666 
z
" transform="scale(0.015625)"/>
       <path id="DejaVuSans-3b1" d="M 2644 1628 
L 2506 2350 
Q 2366 3091 1809 3091 
Q 1391 3091 1200 2747 
Q 959 2316 959 1747 
Q 959 1059 1194 731 
Q 1431 397 1809 397 
Q 2228 397 2453 1063 
L 2644 1628 
z
M 2966 2584 
L 3275 3500 
L 3788 3500 
L 3147 1603 
L 3272 919 
Q 3300 766 3409 638 
Q 3538 488 3638 488 
L 3913 488 
L 3913 0 
L 3569 0 
Q 3275 0 3013 263 
Q 2884 394 2831 669 
Q 2688 322 2394 50 
Q 2256 -78 1809 -78 
Q 1075 -78 719 397 
Q 353 888 353 1747 
Q 353 2666 750 3097 
Q 1191 3578 1809 3578 
Q 2781 3578 2966 2584 
z
" transform="scale(0.015625)"/>
      </defs>
      <use xlink:href="#DejaVuSans-70"/>
      <use xlink:href="#DejaVuSans-70" transform="translate(63.476562 0)"/>
      <use xlink:href="#DejaVuSans-6d" transform="translate(126.953125 0)"/>
      <use xlink:href="#DejaVuSans-20" transform="translate(224.365234 0)"/>
      <use xlink:href="#DejaVuSans-64" transform="translate(256.152344 0)"/>
      <use xlink:href="#DejaVuSans-69" transform="translate(319.628906 0)"/>
      <use xlink:href="#DejaVuSans-73" transform="translate(347.412109 0)"/>
      <use xlink:href="#DejaVuSans-63" transform="translate(399.511719 0)"/>
      <use xlink:href="#DejaVuSans-72" transform="translate(454.492188 0)"/>
      <use xlink:href="#DejaVuSans-65" transform="translate(493.355469 0)"/>
      <use xlink:href="#DejaVuSans-70" transform="translate(554.878906 0)"/>
      <use xlink:href="#DejaVuSans-61" transform="translate(618.355469 0)"/>
      <use xlink:href="#DejaVuSans-6e" transform="translate(679.634766 0)"/>
      <use xlink:href="#DejaVuSans-63" transform="translate(743.013672 0)"/>
      <use xlink:href="#DejaVuSans-79" transform="translate(797.994141 0)"/>
      <use xlink:href="#DejaVuSans-20" transform="translate(857.173828 0)"/>
      <use xlink:href="#DejaVuSans-74" transform="translate(888.960938 0)"/>
      <use xlink:href="#DejaVuSans-6f" transform="translate(928.169922 0)"/>
      <use xlink:href="#DejaVuSans-20" transform="translate(989.351562 0)"/>
      <use xlink:href="#DejaVuSans-43" transform="translate(1021.138672 0)"/>
      <use xlink:href="#DejaVuSans-4f" transform="translate(1090.962891 0)"/>
      <use xlink:href="#DejaVuSans-44" transform="translate(1169.673828 0)"/>
      <use xlink:href="#DejaVuSans-41" transform="translate(1244.925781 0)"/>
      <use xlink:href="#DejaVuSans-54" transform="translate(1305.583984 0)"/>
      <use xlink:href="#DejaVuSans-41" transform="translate(1358.917969 0)"/>
      <use xlink:href="#DejaVuSans-20" transform="translate(1427.326172 0)"/>
      <use xlink:href="#DejaVuSans-31" transform="translate(1459.113281 0)"/>
      <use xlink:href="#DejaVuSans-2f" transform="translate(1522.736328 0)"/>
      <use xlink:href="#DejaVuSans-3b1" transform="translate(1556.427734 0)"/>
     </g>
    </g>
   </g>
   <g id="matplotlib.axis_2">
    <g id="ytick_1">
     <g id="line2d_17">
      <path d="M 51.750937 299.877813 
L 777.400937 299.877813 
" clip-path="url(#p3bd56f6b5c)" style="fill: none; stroke: #cccccc; stroke-opacity: 0.3; stroke-width: 0.5; stroke-linecap: square"/>
     </g>
     <g id="line2d_18">
      <defs>
       <path id="md33ba66e4b" d="M 0 0 
L -3.5 0 
" style="stroke: #000000; stroke-width: 0.8"/>
      </defs>
      <g>
       <use xlink:href="#md33ba66e4b" x="51.750937" y="299.877813" style="stroke: #000000; stroke-width: 0.8"/>
      </g>
     </g>
     <g id="text_10">
      <!-- 0 -->
      <g transform="translate(39.024687 303.297109) scale(0.09 -0.09)">
       <use xlink:href="#DejaVuSans-30"/>
      </g>
     </g>
    </g>
    <g id="ytick_2">
     <g id="line2d_19">
      <path d="M 51.750937 257.152596 
L 777.400937 257.152596 
" clip-path="url(#p3bd56f6b5c)" style="fill: none; stroke: #cccccc; stroke-opacity: 0.3; stroke-width: 0.5; stroke-linecap: square"/>
     </g>
     <g id="line2d_20">
      <g>
       <use xlink:href="#md33ba66e4b" x="51.750937" y="257.152596" style="stroke: #000000; stroke-width: 0.8"/>
      </g>
     </g>
     <g id="text_11">
      <!-- 500 -->
      <g transform="translate(27.572187 260.571893) scale(0.09 -0.09)">
       <defs>
        <path id="DejaVuSans-35" d="M 691 4666 
L 3169 4666 
L 3169 4134 
L 1269 4134 
L 1269 2991 
Q 1406 3038 1543 3061 
Q 1681 3084 1819 3084 
Q 2600 3084 3056 2656 
Q 3513 2228 3513 1497 
Q 3513 744 3044 326 
Q 2575 -91 1722 -91 
Q 1428 -91 1123 -41 
Q 819 9 494 109 
L 494 744 
Q 775 591 1075 516 
Q 1375 441 1709 441 
Q 2250 441 2565 725 
Q 2881 1009 2881 1497 
Q 2881 1984 2565 2268 
Q 2250 2553 1709 2553 
Q 1456 2553 1204 2497 
Q 953 2441 691 2322 
L 691 4666 
z
" transform="scale(0.015625)"/>
       </defs>
       <use xlink:href="#DejaVuSans-35"/>
       <use xlink:href="#DejaVuSans-30" transform="translate(63.623047 0)"/>
       <use xlink:href="#DejaVuSans-30" transform="translate(127.246094 0)"/>
      </g>
     </g>
    </g>
    <g id="ytick_3">
     <g id="line2d_21">
      <path d="M 51.750937 214.427379 
L 777.400937 214.427379 
" clip-path="url(#p3bd56f6b5c)" style="fill: none; stroke: #cccccc; stroke-opacity: 0.3; stroke-width: 0.5; stroke-linecap: square"/>
     </g>
     <g id="line2d_22">
      <g>
       <use xlink:href="#md33ba66e4b" x="51.750937" y="214.427379" style="stroke: #000000; stroke-width: 0.8"/>
      </g>
     </g>
     <g id="text_12">
      <!-- 1000 -->
      <g transform="translate(21.845938 217.846676) scale(0.09 -0.09)">
       <use xlink:href="#DejaVuSans-31"/>
       <use xlink:href="#DejaVuSans-30" transform="translate(63.623047 0)"/>
       <use xlink:href="#DejaVuSans-30" transform="translate(127.246094 0)"/>
       <use xlink:href="#DejaVuSans-30" transform="translate(190.869141 0)"/>
      </g>
     </g>
    </g>
    <g id="ytick_4">
     <g id="line2d_23">
      <path d="M 51.750937 171.702162 
L 777.400937 171.702162 
" clip-path="url(#p3bd56f6b5c)" style="fill: none; stroke: #cccccc; stroke-opacity: 0.3; stroke-width: 0.5; stroke-linecap: square"/>
     </g>
     <g id="line2d_24">
      <g>
       <use xlink:href="#md33ba66e4b" x="51.750937" y="171.702162" style="stroke: #000000; stroke-width: 0.8"/>
      </g>
     </g>
     <g id="text_13">
      <!-- 1500 -->
      <g transform="translate(21.845938 175.121459) scale(0.09 -0.09)">
       <use xlink:href="#DejaVuSans-31"/>
       <use xlink:href="#DejaVuSans-35" transform="translate(63.623047 0)"/>
       <use xlink:href="#DejaVuSans-30" transform="translate(127.246094 0)"/>
       <use xlink:href="#DejaVuSans-30" transform="translate(190.869141 0)"/>
      </g>
     </g>
    </g>
    <g id="ytick_5">
     <g id="line2d_25">
      <path d="M 51.750937 128.976946 
L 777.400937 128.976946 
" clip-path="url(#p3bd56f6b5c)" style="fill: none; stroke: #cccccc; stroke-opacity: 0.3; stroke-width: 0.5; stroke-linecap: square"/>
     </g>
     <g id="line2d_26">
      <g>
       <use xlink:href="#md33ba66e4b" x="51.750937" y="128.976946" style="stroke: #000000; stroke-width: 0.8"/>
      </g>
     </g>
     <g id="text_14">
      <!-- 2000 -->
      <g transform="translate(21.845938 132.396242) scale(0.09 -0.09)">
       <use xlink:href="#DejaVuSans-32"/>
       <use xlink:href="#DejaVuSans-30" transform="translate(63.623047 0)"/>
       <use xlink:href="#DejaVuSans-30" transform="translate(127.246094 0)"/>
       <use xlink:href="#DejaVuSans-30" transform="translate(190.869141 0)"/>
      </g>
     </g>
    </g>
    <g id="ytick_6">
     <g id="line2d_27">
      <path d="M 51.750937 86.251729 
L 777.400937 86.251729 
" clip-path="url(#p3bd56f6b5c)" style="fill: none; stroke: #cccccc; stroke-opacity: 0.3; stroke-width: 0.5; stroke-linecap: square"/>
     </g>
     <g id="line2d_28">
      <g>
       <use xlink:href="#md33ba66e4b" x="51.750937" y="86.251729" style="stroke: #000000; stroke-width: 0.8"/>
      </g>
     </g>
     <g id="text_15">
      <!-- 2500 -->
      <g transform="translate(21.845938 89.671026) scale(0.09 -0.09)">
       <use xlink:href="#DejaVuSans-32"/>
       <use xlink:href="#DejaVuSans-35" transform="translate(63.623047 0)"/>
       <use xlink:href="#DejaVuSans-30" transform="translate(127.246094 0)"/>
       <use xlink:href="#DejaVuSans-30" transform="translate(190.869141 0)"/>
      </g>
     </g>
    </g>
    <g id="ytick_7">
     <g id="line2d_29">
      <path d="M 51.750937 43.526512 
L 777.400937 43.526512 
" clip-path="url(#p3bd56f6b5c)" style="fill: none; stroke: #cccccc; stroke-opacity: 0.3; stroke-width: 0.5; stroke-linecap: square"/>
     </g>
     <g id="line2d_30">
      <g>
       <use xlink:href="#md33ba66e4b" x="51.750937" y="43.526512" style="stroke: #000000; stroke-width: 0.8"/>
      </g>
     </g>
     <g id="text_16">
      <!-- 3000 -->
      <g transform="translate(21.845938 46.945809) scale(0.09 -0.09)">
       <defs>
        <path id="DejaVuSans-33" d="M 2597 2516 
Q 3050 2419 3304 2112 
Q 3559 1806 3559 1356 
Q 3559 666 3084 287 
Q 2609 -91 1734 -91 
Q 1441 -91 1130 -33 
Q 819 25 488 141 
L 488 750 
Q 750 597 1062 519 
Q 1375 441 1716 441 
Q 2309 441 2620 675 
Q 2931 909 2931 1356 
Q 2931 1769 2642 2001 
Q 2353 2234 1838 2234 
L 1294 2234 
L 1294 2753 
L 1863 2753 
Q 2328 2753 2575 2939 
Q 2822 3125 2822 3475 
Q 2822 3834 2567 4026 
Q 2313 4219 1838 4219 
Q 1578 4219 1281 4162 
Q 984 4106 628 3988 
L 628 4550 
Q 988 4650 1302 4700 
Q 1616 4750 1894 4750 
Q 2613 4750 3031 4423 
Q 3450 4097 3450 3541 
Q 3450 3153 3228 2886 
Q 3006 2619 2597 2516 
z
" transform="scale(0.015625)"/>
       </defs>
       <use xlink:href="#DejaVuSans-33"/>
       <use xlink:href="#DejaVuSans-30" transform="translate(63.623047 0)"/>
       <use xlink:href="#DejaVuSans-30" transform="translate(127.246094 0)"/>
       <use xlink:href="#DejaVuSans-30" transform="translate(190.869141 0)"/>
      </g>
     </g>
    </g>
    <g id="text_17">
     <!-- count -->
     <g transform="translate(15.558281 179.374688) rotate(-90) scale(0.11 -0.11)">
      <defs>
       <path id="DejaVuSans-75" d="M 544 1381 
L 544 3500 
L 1119 3500 
L 1119 1403 
Q 1119 906 1312 657 
Q 1506 409 1894 409 
Q 2359 409 2629 706 
Q 2900 1003 2900 1516 
L 2900 3500 
L 3475 3500 
L 3475 0 
L 2900 0 
L 2900 538 
Q 2691 219 2414 64 
Q 2138 -91 1772 -91 
Q 1169 -91 856 284 
Q 544 659 544 1381 
z
M 1991 3584 
L 1991 3584 
z
" transform="scale(0.015625)"/>
      </defs>
      <use xlink:href="#DejaVuSans-63"/>
      <use xlink:href="#DejaVuSans-6f" transform="translate(54.980469 0)"/>
      <use xlink:href="#DejaVuSans-75" transform="translate(116.162109 0)"/>
      <use xlink:href="#DejaVuSans-6e" transform="translate(179.541016 0)"/>
      <use xlink:href="#DejaVuSans-74" transform="translate(242.919922 0)"/>
     </g>
    </g>
   </g>
   <g id="patch_3">
    <path d="M 84.735028 299.877813 
L 92.981051 299.877813 
L 92.981051 42.586557 
L 84.735028 42.586557 
z
" clip-path="url(#p3bd56f6b5c)" style="fill: #222222; opacity: 0.85"/>
   </g>
   <g id="patch_4">
    <path d="M 92.981051 299.877813 
L 101.227074 299.877813 
L 101.227074 55.489573 
L 92.981051 55.489573 
z
" clip-path="url(#p3bd56f6b5c)" style="fill: #222222; opacity: 0.85"/>
   </g>
   <g id="patch_5">
    <path d="M 101.227074 299.877813 
L 109.473097 299.877813 
L 109.473097 53.866015 
L 101.227074 53.866015 
z
" clip-path="url(#p3bd56f6b5c)" style="fill: #222222; opacity: 0.85"/>
   </g>
   <g id="patch_6">
    <path d="M 109.473097 299.877813 
L 117.719119 299.877813 
L 117.719119 49.593493 
L 109.473097 49.593493 
z
" clip-path="url(#p3bd56f6b5c)" style="fill: #222222; opacity: 0.85"/>
   </g>
   <g id="patch_7">
    <path d="M 117.719119 299.877813 
L 125.965142 299.877813 
L 125.965142 51.729754 
L 117.719119 51.729754 
z
" clip-path="url(#p3bd56f6b5c)" style="fill: #222222; opacity: 0.85"/>
   </g>
   <g id="patch_8">
    <path d="M 125.965142 299.877813 
L 134.211165 299.877813 
L 134.211165 50.447997 
L 125.965142 50.447997 
z
" clip-path="url(#p3bd56f6b5c)" style="fill: #222222; opacity: 0.85"/>
   </g>
   <g id="patch_9">
    <path d="M 134.211165 299.877813 
L 142.457188 299.877813 
L 142.457188 40.792098 
L 134.211165 40.792098 
z
" clip-path="url(#p3bd56f6b5c)" style="fill: #222222; opacity: 0.85"/>
   </g>
   <g id="patch_10">
    <path d="M 142.457188 299.877813 
L 150.70321 299.877813 
L 150.70321 41.561152 
L 142.457188 41.561152 
z
" clip-path="url(#p3bd56f6b5c)" style="fill: #222222; opacity: 0.85"/>
   </g>
   <g id="patch_11">
    <path d="M 150.70321 299.877813 
L 158.949233 299.877813 
L 158.949233 46.431827 
L 150.70321 46.431827 
z
" clip-path="url(#p3bd56f6b5c)" style="fill: #222222; opacity: 0.85"/>
   </g>
   <g id="patch_12">
    <path d="M 158.949233 299.877813 
L 167.195256 299.877813 
L 167.195256 45.491872 
L 158.949233 45.491872 
z
" clip-path="url(#p3bd56f6b5c)" style="fill: #222222; opacity: 0.85"/>
   </g>
   <g id="patch_13">
    <path d="M 167.195256 299.877813 
L 175.441278 299.877813 
L 175.441278 50.277096 
L 167.195256 50.277096 
z
" clip-path="url(#p3bd56f6b5c)" style="fill: #222222; opacity: 0.85"/>
   </g>
   <g id="patch_14">
    <path d="M 175.441278 299.877813 
L 183.687301 299.877813 
L 183.687301 43.868314 
L 175.441278 43.868314 
z
" clip-path="url(#p3bd56f6b5c)" style="fill: #222222; opacity: 0.85"/>
   </g>
   <g id="patch_15">
    <path d="M 183.687301 299.877813 
L 191.933324 299.877813 
L 191.933324 42.159305 
L 183.687301 42.159305 
z
" clip-path="url(#p3bd56f6b5c)" style="fill: #222222; opacity: 0.85"/>
   </g>
   <g id="patch_16">
    <path d="M 191.933324 299.877813 
L 200.179347 299.877813 
L 200.179347 44.551917 
L 191.933324 44.551917 
z
" clip-path="url(#p3bd56f6b5c)" style="fill: #222222; opacity: 0.85"/>
   </g>
   <g id="patch_17">
    <path d="M 200.179347 299.877813 
L 208.425369 299.877813 
L 208.425369 42.586557 
L 200.179347 42.586557 
z
" clip-path="url(#p3bd56f6b5c)" style="fill: #222222; opacity: 0.85"/>
   </g>
   <g id="patch_18">
    <path d="M 208.425369 299.877813 
L 216.671392 299.877813 
L 216.671392 44.637368 
L 208.425369 44.637368 
z
" clip-path="url(#p3bd56f6b5c)" style="fill: #222222; opacity: 0.85"/>
   </g>
   <g id="patch_19">
    <path d="M 216.671392 299.877813 
L 224.917415 299.877813 
L 224.917415 46.346376 
L 216.671392 46.346376 
z
" clip-path="url(#p3bd56f6b5c)" style="fill: #222222; opacity: 0.85"/>
   </g>
   <g id="patch_20">
    <path d="M 224.917415 299.877813 
L 233.163437 299.877813 
L 233.163437 52.669708 
L 224.917415 52.669708 
z
" clip-path="url(#p3bd56f6b5c)" style="fill: #222222; opacity: 0.85"/>
   </g>
   <g id="patch_21">
    <path d="M 233.163437 299.877813 
L 241.40946 299.877813 
L 241.40946 47.457232 
L 233.163437 47.457232 
z
" clip-path="url(#p3bd56f6b5c)" style="fill: #222222; opacity: 0.85"/>
   </g>
   <g id="patch_22">
    <path d="M 241.40946 299.877813 
L 249.655483 299.877813 
L 249.655483 50.191646 
L 241.40946 50.191646 
z
" clip-path="url(#p3bd56f6b5c)" style="fill: #222222; opacity: 0.85"/>
   </g>
   <g id="patch_23">
    <path d="M 249.655483 299.877813 
L 257.901506 299.877813 
L 257.901506 42.159305 
L 249.655483 42.159305 
z
" clip-path="url(#p3bd56f6b5c)" style="fill: #222222; opacity: 0.85"/>
   </g>
   <g id="patch_24">
    <path d="M 257.901506 299.877813 
L 266.147528 299.877813 
L 266.147528 42.672008 
L 257.901506 42.672008 
z
" clip-path="url(#p3bd56f6b5c)" style="fill: #222222; opacity: 0.85"/>
   </g>
   <g id="patch_25">
    <path d="M 266.147528 299.877813 
L 274.393551 299.877813 
L 274.393551 50.277096 
L 266.147528 50.277096 
z
" clip-path="url(#p3bd56f6b5c)" style="fill: #222222; opacity: 0.85"/>
   </g>
   <g id="patch_26">
    <path d="M 274.393551 299.877813 
L 282.639574 299.877813 
L 282.639574 46.688178 
L 274.393551 46.688178 
z
" clip-path="url(#p3bd56f6b5c)" style="fill: #222222; opacity: 0.85"/>
   </g>
   <g id="patch_27">
    <path d="M 282.639574 299.877813 
L 290.885597 299.877813 
L 290.885597 53.267862 
L 282.639574 53.267862 
z
" clip-path="url(#p3bd56f6b5c)" style="fill: #222222; opacity: 0.85"/>
   </g>
   <g id="patch_28">
    <path d="M 290.885597 299.877813 
L 299.131619 299.877813 
L 299.131619 45.491872 
L 290.885597 45.491872 
z
" clip-path="url(#p3bd56f6b5c)" style="fill: #222222; opacity: 0.85"/>
   </g>
   <g id="patch_29">
    <path d="M 299.131619 299.877813 
L 307.377642 299.877813 
L 307.377642 47.969935 
L 299.131619 47.969935 
z
" clip-path="url(#p3bd56f6b5c)" style="fill: #222222; opacity: 0.85"/>
   </g>
   <g id="patch_30">
    <path d="M 307.377642 299.877813 
L 315.623665 299.877813 
L 315.623665 46.260926 
L 307.377642 46.260926 
z
" clip-path="url(#p3bd56f6b5c)" style="fill: #222222; opacity: 0.85"/>
   </g>
   <g id="patch_31">
    <path d="M 315.623665 299.877813 
L 323.869687 299.877813 
L 323.869687 44.381016 
L 315.623665 44.381016 
z
" clip-path="url(#p3bd56f6b5c)" style="fill: #222222; opacity: 0.85"/>
   </g>
   <g id="patch_32">
    <path d="M 323.869688 299.877813 
L 332.11571 299.877813 
L 332.11571 53.01151 
L 323.869688 53.01151 
z
" clip-path="url(#p3bd56f6b5c)" style="fill: #222222; opacity: 0.85"/>
   </g>
   <g id="patch_33">
    <path d="M 332.11571 299.877813 
L 340.361733 299.877813 
L 340.361733 54.293267 
L 332.11571 54.293267 
z
" clip-path="url(#p3bd56f6b5c)" style="fill: #222222; opacity: 0.85"/>
   </g>
   <g id="patch_34">
    <path d="M 340.361733 299.877813 
L 348.607756 299.877813 
L 348.607756 57.284032 
L 340.361733 57.284032 
z
" clip-path="url(#p3bd56f6b5c)" style="fill: #222222; opacity: 0.85"/>
   </g>
   <g id="patch_35">
    <path d="M 348.607756 299.877813 
L 356.853778 299.877813 
L 356.853778 54.549618 
L 348.607756 54.549618 
z
" clip-path="url(#p3bd56f6b5c)" style="fill: #222222; opacity: 0.85"/>
   </g>
   <g id="patch_36">
    <path d="M 356.853778 299.877813 
L 365.099801 299.877813 
L 365.099801 52.498808 
L 356.853778 52.498808 
z
" clip-path="url(#p3bd56f6b5c)" style="fill: #222222; opacity: 0.85"/>
   </g>
   <g id="patch_37">
    <path d="M 365.099801 299.877813 
L 373.345824 299.877813 
L 373.345824 53.695114 
L 365.099801 53.695114 
z
" clip-path="url(#p3bd56f6b5c)" style="fill: #222222; opacity: 0.85"/>
   </g>
   <g id="patch_38">
    <path d="M 373.345824 299.877813 
L 381.591847 299.877813 
L 381.591847 42.244756 
L 373.345824 42.244756 
z
" clip-path="url(#p3bd56f6b5c)" style="fill: #222222; opacity: 0.85"/>
   </g>
   <g id="patch_39">
    <path d="M 381.591847 299.877813 
L 389.837869 299.877813 
L 389.837869 42.501107 
L 381.591847 42.501107 
z
" clip-path="url(#p3bd56f6b5c)" style="fill: #222222; opacity: 0.85"/>
   </g>
   <g id="patch_40">
    <path d="M 389.837869 299.877813 
L 398.083892 299.877813 
L 398.083892 51.815204 
L 389.837869 51.815204 
z
" clip-path="url(#p3bd56f6b5c)" style="fill: #222222; opacity: 0.85"/>
   </g>
   <g id="patch_41">
    <path d="M 398.083892 299.877813 
L 406.329915 299.877813 
L 406.329915 54.122366 
L 398.083892 54.122366 
z
" clip-path="url(#p3bd56f6b5c)" style="fill: #222222; opacity: 0.85"/>
   </g>
   <g id="patch_42">
    <path d="M 406.329915 299.877813 
L 414.575938 299.877813 
L 414.575938 46.602728 
L 406.329915 46.602728 
z
" clip-path="url(#p3bd56f6b5c)" style="fill: #222222; opacity: 0.85"/>
   </g>
   <g id="patch_43">
    <path d="M 414.575938 299.877813 
L 422.82196 299.877813 
L 422.82196 49.422592 
L 414.575938 49.422592 
z
" clip-path="url(#p3bd56f6b5c)" style="fill: #222222; opacity: 0.85"/>
   </g>
   <g id="patch_44">
    <path d="M 422.82196 299.877813 
L 431.067983 299.877813 
L 431.067983 44.295566 
L 422.82196 44.295566 
z
" clip-path="url(#p3bd56f6b5c)" style="fill: #222222; opacity: 0.85"/>
   </g>
   <g id="patch_45">
    <path d="M 431.067983 299.877813 
L 439.314006 299.877813 
L 439.314006 52.071555 
L 431.067983 52.071555 
z
" clip-path="url(#p3bd56f6b5c)" style="fill: #222222; opacity: 0.85"/>
   </g>
   <g id="patch_46">
    <path d="M 439.314006 299.877813 
L 447.560028 299.877813 
L 447.560028 43.697413 
L 439.314006 43.697413 
z
" clip-path="url(#p3bd56f6b5c)" style="fill: #222222; opacity: 0.85"/>
   </g>
   <g id="patch_47">
    <path d="M 447.560028 299.877813 
L 455.806051 299.877813 
L 455.806051 43.953764 
L 447.560028 43.953764 
z
" clip-path="url(#p3bd56f6b5c)" style="fill: #222222; opacity: 0.85"/>
   </g>
   <g id="patch_48">
    <path d="M 455.806051 299.877813 
L 464.052074 299.877813 
L 464.052074 46.260926 
L 455.806051 46.260926 
z
" clip-path="url(#p3bd56f6b5c)" style="fill: #222222; opacity: 0.85"/>
   </g>
   <g id="patch_49">
    <path d="M 464.052074 299.877813 
L 472.298097 299.877813 
L 472.298097 53.267862 
L 464.052074 53.267862 
z
" clip-path="url(#p3bd56f6b5c)" style="fill: #222222; opacity: 0.85"/>
   </g>
   <g id="patch_50">
    <path d="M 472.298097 299.877813 
L 480.544119 299.877813 
L 480.544119 57.113131 
L 472.298097 57.113131 
z
" clip-path="url(#p3bd56f6b5c)" style="fill: #222222; opacity: 0.85"/>
   </g>
   <g id="patch_51">
    <path d="M 480.544119 299.877813 
L 488.790142 299.877813 
L 488.790142 41.561152 
L 480.544119 41.561152 
z
" clip-path="url(#p3bd56f6b5c)" style="fill: #222222; opacity: 0.85"/>
   </g>
   <g id="patch_52">
    <path d="M 488.790142 299.877813 
L 497.036165 299.877813 
L 497.036165 43.09926 
L 488.790142 43.09926 
z
" clip-path="url(#p3bd56f6b5c)" style="fill: #222222; opacity: 0.85"/>
   </g>
   <g id="patch_53">
    <path d="M 497.036165 299.877813 
L 505.282188 299.877813 
L 505.282188 47.713583 
L 497.036165 47.713583 
z
" clip-path="url(#p3bd56f6b5c)" style="fill: #222222; opacity: 0.85"/>
   </g>
   <g id="patch_54">
    <path d="M 505.282187 299.877813 
L 513.52821 299.877813 
L 513.52821 47.11543 
L 505.282187 47.11543 
z
" clip-path="url(#p3bd56f6b5c)" style="fill: #222222; opacity: 0.85"/>
   </g>
   <g id="patch_55">
    <path d="M 513.52821 299.877813 
L 521.774233 299.877813 
L 521.774233 45.577322 
L 513.52821 45.577322 
z
" clip-path="url(#p3bd56f6b5c)" style="fill: #222222; opacity: 0.85"/>
   </g>
   <g id="patch_56">
    <path d="M 521.774233 299.877813 
L 530.020256 299.877813 
L 530.020256 53.695114 
L 521.774233 53.695114 
z
" clip-path="url(#p3bd56f6b5c)" style="fill: #222222; opacity: 0.85"/>
   </g>
   <g id="patch_57">
    <path d="M 530.020256 299.877813 
L 538.266278 299.877813 
L 538.266278 56.685879 
L 530.020256 56.685879 
z
" clip-path="url(#p3bd56f6b5c)" style="fill: #222222; opacity: 0.85"/>
   </g>
   <g id="patch_58">
    <path d="M 538.266278 299.877813 
L 546.512301 299.877813 
L 546.512301 52.413357 
L 538.266278 52.413357 
z
" clip-path="url(#p3bd56f6b5c)" style="fill: #222222; opacity: 0.85"/>
   </g>
   <g id="patch_59">
    <path d="M 546.512301 299.877813 
L 554.758324 299.877813 
L 554.758324 45.06462 
L 546.512301 45.06462 
z
" clip-path="url(#p3bd56f6b5c)" style="fill: #222222; opacity: 0.85"/>
   </g>
   <g id="patch_60">
    <path d="M 554.758324 299.877813 
L 563.004347 299.877813 
L 563.004347 61.642004 
L 554.758324 61.642004 
z
" clip-path="url(#p3bd56f6b5c)" style="fill: #222222; opacity: 0.85"/>
   </g>
   <g id="patch_61">
    <path d="M 563.004347 299.877813 
L 571.250369 299.877813 
L 571.250369 73.006912 
L 563.004347 73.006912 
z
" clip-path="url(#p3bd56f6b5c)" style="fill: #222222; opacity: 0.85"/>
   </g>
   <g id="patch_62">
    <path d="M 571.250369 299.877813 
L 579.496392 299.877813 
L 579.496392 72.066957 
L 571.250369 72.066957 
z
" clip-path="url(#p3bd56f6b5c)" style="fill: #222222; opacity: 0.85"/>
   </g>
   <g id="patch_63">
    <path d="M 579.496392 299.877813 
L 587.742415 299.877813 
L 587.742415 84.371819 
L 579.496392 84.371819 
z
" clip-path="url(#p3bd56f6b5c)" style="fill: #222222; opacity: 0.85"/>
   </g>
   <g id="patch_64">
    <path d="M 587.742415 299.877813 
L 595.988437 299.877813 
L 595.988437 97.958438 
L 587.742415 97.958438 
z
" clip-path="url(#p3bd56f6b5c)" style="fill: #222222; opacity: 0.85"/>
   </g>
   <g id="patch_65">
    <path d="M 595.988438 299.877813 
L 604.23446 299.877813 
L 604.23446 107.016184 
L 595.988438 107.016184 
z
" clip-path="url(#p3bd56f6b5c)" style="fill: #222222; opacity: 0.85"/>
   </g>
   <g id="patch_66">
    <path d="M 604.23446 299.877813 
L 612.480483 299.877813 
L 612.480483 127.524288 
L 604.23446 127.524288 
z
" clip-path="url(#p3bd56f6b5c)" style="fill: #222222; opacity: 0.85"/>
   </g>
   <g id="patch_67">
    <path d="M 612.480483 299.877813 
L 620.726506 299.877813 
L 620.726506 132.053161 
L 612.480483 132.053161 
z
" clip-path="url(#p3bd56f6b5c)" style="fill: #222222; opacity: 0.85"/>
   </g>
   <g id="patch_68">
    <path d="M 620.726506 299.877813 
L 628.972528 299.877813 
L 628.972528 146.408834 
L 620.726506 146.408834 
z
" clip-path="url(#p3bd56f6b5c)" style="fill: #222222; opacity: 0.85"/>
   </g>
   <g id="patch_69">
    <path d="M 628.972528 299.877813 
L 637.218551 299.877813 
L 637.218551 158.799147 
L 628.972528 158.799147 
z
" clip-path="url(#p3bd56f6b5c)" style="fill: #222222; opacity: 0.85"/>
   </g>
   <g id="patch_70">
    <path d="M 637.218551 299.877813 
L 645.464574 299.877813 
L 645.464574 166.147884 
L 637.218551 166.147884 
z
" clip-path="url(#p3bd56f6b5c)" style="fill: #222222; opacity: 0.85"/>
   </g>
   <g id="patch_71">
    <path d="M 645.464574 299.877813 
L 653.710597 299.877813 
L 653.710597 180.418107 
L 645.464574 180.418107 
z
" clip-path="url(#p3bd56f6b5c)" style="fill: #222222; opacity: 0.85"/>
   </g>
   <g id="patch_72">
    <path d="M 653.710597 299.877813 
L 661.956619 299.877813 
L 661.956619 188.621348 
L 653.710597 188.621348 
z
" clip-path="url(#p3bd56f6b5c)" style="fill: #222222; opacity: 0.85"/>
   </g>
   <g id="patch_73">
    <path d="M 661.956619 299.877813 
L 670.202642 299.877813 
L 670.202642 205.625984 
L 661.956619 205.625984 
z
" clip-path="url(#p3bd56f6b5c)" style="fill: #222222; opacity: 0.85"/>
   </g>
   <g id="patch_74">
    <path d="M 670.202642 299.877813 
L 678.448665 299.877813 
L 678.448665 218.187198 
L 670.202642 218.187198 
z
" clip-path="url(#p3bd56f6b5c)" style="fill: #222222; opacity: 0.85"/>
   </g>
   <g id="patch_75">
    <path d="M 678.448665 299.877813 
L 686.694687 299.877813 
L 686.694687 228.099448 
L 678.448665 228.099448 
z
" clip-path="url(#p3bd56f6b5c)" style="fill: #222222; opacity: 0.85"/>
   </g>
   <g id="patch_76">
    <path d="M 686.694687 299.877813 
L 694.94071 299.877813 
L 694.94071 239.720707 
L 686.694687 239.720707 
z
" clip-path="url(#p3bd56f6b5c)" style="fill: #222222; opacity: 0.85"/>
   </g>
   <g id="patch_77">
    <path d="M 694.94071 299.877813 
L 703.186733 299.877813 
L 703.186733 253.221876 
L 694.94071 253.221876 
z
" clip-path="url(#p3bd56f6b5c)" style="fill: #222222; opacity: 0.85"/>
   </g>
   <g id="patch_78">
    <path d="M 703.186733 299.877813 
L 711.432756 299.877813 
L 711.432756 263.732279 
L 703.186733 263.732279 
z
" clip-path="url(#p3bd56f6b5c)" style="fill: #222222; opacity: 0.85"/>
   </g>
   <g id="patch_79">
    <path d="M 711.432756 299.877813 
L 719.678778 299.877813 
L 719.678778 274.669935 
L 711.432756 274.669935 
z
" clip-path="url(#p3bd56f6b5c)" style="fill: #222222; opacity: 0.85"/>
   </g>
   <g id="patch_80">
    <path d="M 719.678778 299.877813 
L 727.924801 299.877813 
L 727.924801 286.376644 
L 719.678778 286.376644 
z
" clip-path="url(#p3bd56f6b5c)" style="fill: #222222; opacity: 0.85"/>
   </g>
   <g id="patch_81">
    <path d="M 727.924801 299.877813 
L 736.170824 299.877813 
L 736.170824 290.307364 
L 727.924801 290.307364 
z
" clip-path="url(#p3bd56f6b5c)" style="fill: #222222; opacity: 0.85"/>
   </g>
   <g id="patch_82">
    <path d="M 736.170824 299.877813 
L 744.416847 299.877813 
L 744.416847 296.630696 
L 736.170824 296.630696 
z
" clip-path="url(#p3bd56f6b5c)" style="fill: #222222; opacity: 0.85"/>
   </g>
   <g id="line2d_31">
    <path d="M 84.734993 299.877813 
L 84.734993 27.837813 
" clip-path="url(#p3bd56f6b5c)" style="fill: none; stroke-dasharray: 7.4,3.2; stroke-dashoffset: 0; stroke: #ffaa00; stroke-opacity: 0.9; stroke-width: 2"/>
   </g>
   <g id="patch_83">
    <path d="M 51.750937 299.877813 
L 51.750937 27.837813 
" style="fill: none; stroke: #222222; stroke-width: 0.5; stroke-linejoin: miter; stroke-linecap: square"/>
   </g>
   <g id="patch_84">
    <path d="M 777.400937 299.877813 
L 777.400937 27.837813 
" style="fill: none; stroke: #222222; stroke-width: 0.5; stroke-linejoin: miter; stroke-linecap: square"/>
   </g>
   <g id="patch_85">
    <path d="M 51.750938 299.877813 
L 777.400937 299.877813 
" style="fill: none; stroke: #222222; stroke-width: 0.5; stroke-linejoin: miter; stroke-linecap: square"/>
   </g>
   <g id="patch_86">
    <path d="M 51.750938 27.837813 
L 777.400937 27.837813 
" style="fill: none; stroke: #222222; stroke-width: 0.5; stroke-linejoin: miter; stroke-linecap: square"/>
   </g>
   <g id="text_18">
    <g id="patch_87">
     <path d="M 631.769187 57.65455 
L 762.887937 57.65455 
Q 766.387937 57.65455 766.387937 54.15455 
L 766.387937 33.278613 
Q 766.387937 29.778613 762.887937 29.778613 
L 631.769187 29.778613 
Q 628.269187 29.778613 628.269187 33.278613 
L 628.269187 54.15455 
Q 628.269187 57.65455 631.769187 57.65455 
z
" style="fill: #ffffff; opacity: 0.95; stroke: #cccccc; stroke-linejoin: miter"/>
    </g>
    <!-- samples=200,000 -->
    <g transform="translate(671.587937 40.87705) scale(0.1 -0.1)">
     <defs>
      <path id="DejaVuSans-6c" d="M 603 4863 
L 1178 4863 
L 1178 0 
L 603 0 
L 603 4863 
z
" transform="scale(0.015625)"/>
      <path id="DejaVuSans-3d" d="M 678 2906 
L 4684 2906 
L 4684 2381 
L 678 2381 
L 678 2906 
z
M 678 1631 
L 4684 1631 
L 4684 1100 
L 678 1100 
L 678 1631 
z
" transform="scale(0.015625)"/>
      <path id="DejaVuSans-2c" d="M 750 794 
L 1409 794 
L 1409 256 
L 897 -744 
L 494 -744 
L 750 256 
L 750 794 
z
" transform="scale(0.015625)"/>
     </defs>
     <use xlink:href="#DejaVuSans-73"/>
     <use xlink:href="#DejaVuSans-61" transform="translate(52.099609 0)"/>
     <use xlink:href="#DejaVuSans-6d" transform="translate(113.378906 0)"/>
     <use xlink:href="#DejaVuSans-70" transform="translate(210.791016 0)"/>
     <use xlink:href="#DejaVuSans-6c" transform="translate(274.267578 0)"/>
     <use xlink:href="#DejaVuSans-65" transform="translate(302.050781 0)"/>
     <use xlink:href="#DejaVuSans-73" transform="translate(363.574219 0)"/>
     <use xlink:href="#DejaVuSans-3d" transform="translate(415.673828 0)"/>
     <use xlink:href="#DejaVuSans-32" transform="translate(499.462891 0)"/>
     <use xlink:href="#DejaVuSans-30" transform="translate(563.085938 0)"/>
     <use xlink:href="#DejaVuSans-30" transform="translate(626.708984 0)"/>
     <use xlink:href="#DejaVuSans-2c" transform="translate(690.332031 0)"/>
     <use xlink:href="#DejaVuSans-30" transform="translate(722.119141 0)"/>
     <use xlink:href="#DejaVuSans-30" transform="translate(785.742188 0)"/>
     <use xlink:href="#DejaVuSans-30" transform="translate(849.365234 0)"/>
    </g>
    <!-- match fraction=0.00e+00 -->
    <g transform="translate(631.769187 52.074862) scale(0.1 -0.1)">
     <defs>
      <path id="DejaVuSans-68" d="M 3513 2113 
L 3513 0 
L 2938 0 
L 2938 2094 
Q 2938 2591 2744 2837 
Q 2550 3084 2163 3084 
Q 1697 3084 1428 2787 
Q 1159 2491 1159 1978 
L 1159 0 
L 581 0 
L 581 4863 
L 1159 4863 
L 1159 2956 
Q 1366 3272 1645 3428 
Q 1925 3584 2291 3584 
Q 2894 3584 3203 3211 
Q 3513 2838 3513 2113 
z
" transform="scale(0.015625)"/>
      <path id="DejaVuSans-66" d="M 2375 4863 
L 2375 4384 
L 1825 4384 
Q 1516 4384 1395 4259 
Q 1275 4134 1275 3809 
L 1275 3500 
L 2222 3500 
L 2222 3053 
L 1275 3053 
L 1275 0 
L 697 0 
L 697 3053 
L 147 3053 
L 147 3500 
L 697 3500 
L 697 3744 
Q 697 4328 969 4595 
Q 1241 4863 1831 4863 
L 2375 4863 
z
" transform="scale(0.015625)"/>
      <path id="DejaVuSans-2e" d="M 684 794 
L 1344 794 
L 1344 0 
L 684 0 
L 684 794 
z
" transform="scale(0.015625)"/>
      <path id="DejaVuSans-2b" d="M 2944 4013 
L 2944 2272 
L 4684 2272 
L 4684 1741 
L 2944 1741 
L 2944 0 
L 2419 0 
L 2419 1741 
L 678 1741 
L 678 2272 
L 2419 2272 
L 2419 4013 
L 2944 4013 
z
" transform="scale(0.015625)"/>
     </defs>
     <use xlink:href="#DejaVuSans-6d"/>
     <use xlink:href="#DejaVuSans-61" transform="translate(97.412109 0)"/>
     <use xlink:href="#DejaVuSans-74" transform="translate(158.691406 0)"/>
     <use xlink:href="#DejaVuSans-63" transform="translate(197.900391 0)"/>
     <use xlink:href="#DejaVuSans-68" transform="translate(252.880859 0)"/>
     <use xlink:href="#DejaVuSans-20" transform="translate(316.259766 0)"/>
     <use xlink:href="#DejaVuSans-66" transform="translate(348.046875 0)"/>
     <use xlink:href="#DejaVuSans-72" transform="translate(383.251953 0)"/>
     <use xlink:href="#DejaVuSans-61" transform="translate(424.365234 0)"/>
     <use xlink:href="#DejaVuSans-63" transform="translate(485.644531 0)"/>
     <use xlink:href="#DejaVuSans-74" transform="translate(540.625 0)"/>
     <use xlink:href="#DejaVuSans-69" transform="translate(579.833984 0)"/>
     <use xlink:href="#DejaVuSans-6f" transform="translate(607.617188 0)"/>
     <use xlink:href="#DejaVuSans-6e" transform="translate(668.798828 0)"/>
     <use xlink:href="#DejaVuSans-3d" transform="translate(732.177734 0)"/>
     <use xlink:href="#DejaVuSans-30" transform="translate(815.966797 0)"/>
     <use xlink:href="#DejaVuSans-2e" transform="translate(879.589844 0)"/>
     <use xlink:href="#DejaVuSans-30" transform="translate(911.376953 0)"/>
     <use xlink:href="#DejaVuSans-30" transform="translate(975 0)"/>
     <use xlink:href="#DejaVuSans-65" transform="translate(1038.623047 0)"/>
     <use xlink:href="#DejaVuSans-2b" transform="translate(1100.146484 0)"/>
     <use xlink:href="#DejaVuSans-30" transform="translate(1183.935547 0)"/>
     <use xlink:href="#DejaVuSans-30" transform="translate(1247.558594 0)"/>
    </g>
   </g>
   <g id="text_19">
    <!-- Look-Elsewhere Monte Carlo: PPM Discrepancy Distribution -->
    <g transform="translate(179.595781 17.837813) scale(0.14 -0.14)">
     <defs>
      <path id="DejaVuSans-Bold-4c" d="M 588 4666 
L 1791 4666 
L 1791 909 
L 3903 909 
L 3903 0 
L 588 0 
L 588 4666 
z
" transform="scale(0.015625)"/>
      <path id="DejaVuSans-Bold-6f" d="M 2203 2784 
Q 1831 2784 1636 2517 
Q 1441 2250 1441 1747 
Q 1441 1244 1636 976 
Q 1831 709 2203 709 
Q 2569 709 2762 976 
Q 2956 1244 2956 1747 
Q 2956 2250 2762 2517 
Q 2569 2784 2203 2784 
z
M 2203 3584 
Q 3106 3584 3614 3096 
Q 4122 2609 4122 1747 
Q 4122 884 3614 396 
Q 3106 -91 2203 -91 
Q 1297 -91 786 396 
Q 275 884 275 1747 
Q 275 2609 786 3096 
Q 1297 3584 2203 3584 
z
" transform="scale(0.015625)"/>
      <path id="DejaVuSans-Bold-6b" d="M 538 4863 
L 1656 4863 
L 1656 2216 
L 2944 3500 
L 4244 3500 
L 2534 1894 
L 4378 0 
L 3022 0 
L 1656 1459 
L 1656 0 
L 538 0 
L 538 4863 
z
" transform="scale(0.015625)"/>
      <path id="DejaVuSans-Bold-2d" d="M 347 2297 
L 2309 2297 
L 2309 1388 
L 347 1388 
L 347 2297 
z
" transform="scale(0.015625)"/>
      <path id="DejaVuSans-Bold-45" d="M 588 4666 
L 3834 4666 
L 3834 3756 
L 1791 3756 
L 1791 2888 
L 3713 2888 
L 3713 1978 
L 1791 1978 
L 1791 909 
L 3903 909 
L 3903 0 
L 588 0 
L 588 4666 
z
" transform="scale(0.015625)"/>
      <path id="DejaVuSans-Bold-6c" d="M 538 4863 
L 1656 4863 
L 1656 0 
L 538 0 
L 538 4863 
z
" transform="scale(0.015625)"/>
      <path id="DejaVuSans-Bold-73" d="M 3272 3391 
L 3272 2541 
Q 2913 2691 2578 2766 
Q 2244 2841 1947 2841 
Q 1628 2841 1473 2761 
Q 1319 2681 1319 2516 
Q 1319 2381 1436 2309 
Q 1553 2238 1856 2203 
L 2053 2175 
Q 2913 2066 3209 1816 
Q 3506 1566 3506 1031 
Q 3506 472 3093 190 
Q 2681 -91 1863 -91 
Q 1516 -91 1145 -36 
Q 775 19 384 128 
L 384 978 
Q 719 816 1070 734 
Q 1422 653 1784 653 
Q 2113 653 2278 743 
Q 2444 834 2444 1013 
Q 2444 1163 2330 1236 
Q 2216 1309 1875 1350 
L 1678 1375 
Q 931 1469 631 1722 
Q 331 1975 331 2491 
Q 331 3047 712 3315 
Q 1094 3584 1881 3584 
Q 2191 3584 2531 3537 
Q 2872 3491 3272 3391 
z
" transform="scale(0.015625)"/>
      <path id="DejaVuSans-Bold-65" d="M 4031 1759 
L 4031 1441 
L 1416 1441 
Q 1456 1047 1700 850 
Q 1944 653 2381 653 
Q 2734 653 3104 758 
Q 3475 863 3866 1075 
L 3866 213 
Q 3469 63 3072 -14 
Q 2675 -91 2278 -91 
Q 1328 -91 801 392 
Q 275 875 275 1747 
Q 275 2603 792 3093 
Q 1309 3584 2216 3584 
Q 3041 3584 3536 3087 
Q 4031 2591 4031 1759 
z
M 2881 2131 
Q 2881 2450 2695 2645 
Q 2509 2841 2209 2841 
Q 1884 2841 1681 2658 
Q 1478 2475 1428 2131 
L 2881 2131 
z
" transform="scale(0.015625)"/>
      <path id="DejaVuSans-Bold-77" d="M 225 3500 
L 1313 3500 
L 1900 1088 
L 2491 3500 
L 3425 3500 
L 4013 1113 
L 4603 3500 
L 5691 3500 
L 4769 0 
L 3547 0 
L 2956 2406 
L 2369 0 
L 1147 0 
L 225 3500 
z
" transform="scale(0.015625)"/>
      <path id="DejaVuSans-Bold-68" d="M 4056 2131 
L 4056 0 
L 2931 0 
L 2931 347 
L 2931 1625 
Q 2931 2084 2911 2256 
Q 2891 2428 2841 2509 
Q 2775 2619 2662 2680 
Q 2550 2741 2406 2741 
Q 2056 2741 1856 2470 
Q 1656 2200 1656 1722 
L 1656 0 
L 538 0 
L 538 4863 
L 1656 4863 
L 1656 2988 
Q 1909 3294 2193 3439 
Q 2478 3584 2822 3584 
Q 3428 3584 3742 3212 
Q 4056 2841 4056 2131 
z
" transform="scale(0.015625)"/>
      <path id="DejaVuSans-Bold-72" d="M 3138 2547 
Q 2991 2616 2845 2648 
Q 2700 2681 2553 2681 
Q 2122 2681 1889 2404 
Q 1656 2128 1656 1613 
L 1656 0 
L 538 0 
L 538 3500 
L 1656 3500 
L 1656 2925 
Q 1872 3269 2151 3426 
Q 2431 3584 2822 3584 
Q 2878 3584 2943 3579 
Q 3009 3575 3134 3559 
L 3138 2547 
z
" transform="scale(0.015625)"/>
      <path id="DejaVuSans-Bold-20" transform="scale(0.015625)"/>
      <path id="DejaVuSans-Bold-4d" d="M 588 4666 
L 2119 4666 
L 3181 2169 
L 4250 4666 
L 5778 4666 
L 5778 0 
L 4641 0 
L 4641 3413 
L 3566 897 
L 2803 897 
L 1728 3413 
L 1728 0 
L 588 0 
L 588 4666 
z
" transform="scale(0.015625)"/>
      <path id="DejaVuSans-Bold-6e" d="M 4056 2131 
L 4056 0 
L 2931 0 
L 2931 347 
L 2931 1631 
Q 2931 2084 2911 2256 
Q 2891 2428 2841 2509 
Q 2775 2619 2662 2680 
Q 2550 2741 2406 2741 
Q 2056 2741 1856 2470 
Q 1656 2200 1656 1722 
L 1656 0 
L 538 0 
L 538 3500 
L 1656 3500 
L 1656 2988 
Q 1909 3294 2193 3439 
Q 2478 3584 2822 3584 
Q 3428 3584 3742 3212 
Q 4056 2841 4056 2131 
z
" transform="scale(0.015625)"/>
      <path id="DejaVuSans-Bold-74" d="M 1759 4494 
L 1759 3500 
L 2913 3500 
L 2913 2700 
L 1759 2700 
L 1759 1216 
Q 1759 972 1856 886 
Q 1953 800 2241 800 
L 2816 800 
L 2816 0 
L 1856 0 
Q 1194 0 917 276 
Q 641 553 641 1216 
L 641 2700 
L 84 2700 
L 84 3500 
L 641 3500 
L 641 4494 
L 1759 4494 
z
" transform="scale(0.015625)"/>
      <path id="DejaVuSans-Bold-43" d="M 4288 256 
Q 3956 84 3597 -3 
Q 3238 -91 2847 -91 
Q 1681 -91 1000 561 
Q 319 1213 319 2328 
Q 319 3447 1000 4098 
Q 1681 4750 2847 4750 
Q 3238 4750 3597 4662 
Q 3956 4575 4288 4403 
L 4288 3438 
Q 3953 3666 3628 3772 
Q 3303 3878 2944 3878 
Q 2300 3878 1931 3465 
Q 1563 3053 1563 2328 
Q 1563 1606 1931 1193 
Q 2300 781 2944 781 
Q 3303 781 3628 887 
Q 3953 994 4288 1222 
L 4288 256 
z
" transform="scale(0.015625)"/>
      <path id="DejaVuSans-Bold-61" d="M 2106 1575 
Q 1756 1575 1579 1456 
Q 1403 1338 1403 1106 
Q 1403 894 1545 773 
Q 1688 653 1941 653 
Q 2256 653 2472 879 
Q 2688 1106 2688 1447 
L 2688 1575 
L 2106 1575 
z
M 3816 1997 
L 3816 0 
L 2688 0 
L 2688 519 
Q 2463 200 2181 54 
Q 1900 -91 1497 -91 
Q 953 -91 614 226 
Q 275 544 275 1050 
Q 275 1666 698 1953 
Q 1122 2241 2028 2241 
L 2688 2241 
L 2688 2328 
Q 2688 2594 2478 2717 
Q 2269 2841 1825 2841 
Q 1466 2841 1156 2769 
Q 847 2697 581 2553 
L 581 3406 
Q 941 3494 1303 3539 
Q 1666 3584 2028 3584 
Q 2975 3584 3395 3211 
Q 3816 2838 3816 1997 
z
" transform="scale(0.015625)"/>
      <path id="DejaVuSans-Bold-3a" d="M 716 3500 
L 1844 3500 
L 1844 2291 
L 716 2291 
L 716 3500 
z
M 716 1209 
L 1844 1209 
L 1844 0 
L 716 0 
L 716 1209 
z
" transform="scale(0.015625)"/>
      <path id="DejaVuSans-Bold-50" d="M 588 4666 
L 2584 4666 
Q 3475 4666 3951 4270 
Q 4428 3875 4428 3144 
Q 4428 2409 3951 2014 
Q 3475 1619 2584 1619 
L 1791 1619 
L 1791 0 
L 588 0 
L 588 4666 
z
M 1791 3794 
L 1791 2491 
L 2456 2491 
Q 2806 2491 2997 2661 
Q 3188 2831 3188 3144 
Q 3188 3456 2997 3625 
Q 2806 3794 2456 3794 
L 1791 3794 
z
" transform="scale(0.015625)"/>
      <path id="DejaVuSans-Bold-44" d="M 1791 3756 
L 1791 909 
L 2222 909 
Q 2959 909 3348 1275 
Q 3738 1641 3738 2338 
Q 3738 3031 3350 3393 
Q 2963 3756 2222 3756 
L 1791 3756 
z
M 588 4666 
L 1856 4666 
Q 2919 4666 3439 4514 
Q 3959 4363 4331 4000 
Q 4659 3684 4818 3271 
Q 4978 2859 4978 2338 
Q 4978 1809 4818 1395 
Q 4659 981 4331 666 
Q 3956 303 3431 151 
Q 2906 0 1856 0 
L 588 0 
L 588 4666 
z
" transform="scale(0.015625)"/>
      <path id="DejaVuSans-Bold-69" d="M 538 3500 
L 1656 3500 
L 1656 0 
L 538 0 
L 538 3500 
z
M 538 4863 
L 1656 4863 
L 1656 3950 
L 538 3950 
L 538 4863 
z
" transform="scale(0.015625)"/>
      <path id="DejaVuSans-Bold-63" d="M 3366 3391 
L 3366 2478 
Q 3138 2634 2908 2709 
Q 2678 2784 2431 2784 
Q 1963 2784 1702 2511 
Q 1441 2238 1441 1747 
Q 1441 1256 1702 982 
Q 1963 709 2431 709 
Q 2694 709 2930 787 
Q 3166 866 3366 1019 
L 3366 103 
Q 3103 6 2833 -42 
Q 2563 -91 2291 -91 
Q 1344 -91 809 395 
Q 275 881 275 1747 
Q 275 2613 809 3098 
Q 1344 3584 2291 3584 
Q 2566 3584 2833 3536 
Q 3100 3488 3366 3391 
z
" transform="scale(0.015625)"/>
      <path id="DejaVuSans-Bold-70" d="M 1656 506 
L 1656 -1331 
L 538 -1331 
L 538 3500 
L 1656 3500 
L 1656 2988 
Q 1888 3294 2169 3439 
Q 2450 3584 2816 3584 
Q 3463 3584 3878 3070 
Q 4294 2556 4294 1747 
Q 4294 938 3878 423 
Q 3463 -91 2816 -91 
Q 2450 -91 2169 54 
Q 1888 200 1656 506 
z
M 2400 2772 
Q 2041 2772 1848 2508 
Q 1656 2244 1656 1747 
Q 1656 1250 1848 986 
Q 2041 722 2400 722 
Q 2759 722 2948 984 
Q 3138 1247 3138 1747 
Q 3138 2247 2948 2509 
Q 2759 2772 2400 2772 
z
" transform="scale(0.015625)"/>
      <path id="DejaVuSans-Bold-79" d="M 78 3500 
L 1197 3500 
L 2138 1125 
L 2938 3500 
L 4056 3500 
L 2584 -331 
Q 2363 -916 2067 -1148 
Q 1772 -1381 1288 -1381 
L 641 -1381 
L 641 -647 
L 991 -647 
Q 1275 -647 1404 -556 
Q 1534 -466 1606 -231 
L 1638 -134 
L 78 3500 
z
" transform="scale(0.015625)"/>
      <path id="DejaVuSans-Bold-62" d="M 2400 722 
Q 2759 722 2948 984 
Q 3138 1247 3138 1747 
Q 3138 2247 2948 2509 
Q 2759 2772 2400 2772 
Q 2041 2772 1848 2508 
Q 1656 2244 1656 1747 
Q 1656 1250 1848 986 
Q 2041 722 2400 722 
z
M 1656 2988 
Q 1888 3294 2169 3439 
Q 2450 3584 2816 3584 
Q 3463 3584 3878 3070 
Q 4294 2556 4294 1747 
Q 4294 938 3878 423 
Q 3463 -91 2816 -91 
Q 2450 -91 2169 54 
Q 1888 200 1656 506 
L 1656 0 
L 538 0 
L 538 4863 
L 1656 4863 
L 1656 2988 
z
" transform="scale(0.015625)"/>
      <path id="DejaVuSans-Bold-75" d="M 500 1363 
L 500 3500 
L 1625 3500 
L 1625 3150 
Q 1625 2866 1622 2436 
Q 1619 2006 1619 1863 
Q 1619 1441 1641 1255 
Q 1663 1069 1716 984 
Q 1784 875 1895 815 
Q 2006 756 2150 756 
Q 2500 756 2700 1025 
Q 2900 1294 2900 1772 
L 2900 3500 
L 4019 3500 
L 4019 0 
L 2900 0 
L 2900 506 
Q 2647 200 2364 54 
Q 2081 -91 1741 -91 
Q 1134 -91 817 281 
Q 500 653 500 1363 
z
" transform="scale(0.015625)"/>
     </defs>
     <use xlink:href="#DejaVuSans-Bold-4c"/>
     <use xlink:href="#DejaVuSans-Bold-6f" transform="translate(63.720703 0)"/>
     <use xlink:href="#DejaVuSans-Bold-6f" transform="translate(132.421875 0)"/>
     <use xlink:href="#DejaVuSans-Bold-6b" transform="translate(201.123047 0)"/>
     <use xlink:href="#DejaVuSans-Bold-2d" transform="translate(267.626953 0)"/>
     <use xlink:href="#DejaVuSans-Bold-45" transform="translate(309.130859 0)"/>
     <use xlink:href="#DejaVuSans-Bold-6c" transform="translate(377.441406 0)"/>
     <use xlink:href="#DejaVuSans-Bold-73" transform="translate(411.71875 0)"/>
     <use xlink:href="#DejaVuSans-Bold-65" transform="translate(471.240234 0)"/>
     <use xlink:href="#DejaVuSans-Bold-77" transform="translate(539.0625 0)"/>
     <use xlink:href="#DejaVuSans-Bold-68" transform="translate(631.445312 0)"/>
     <use xlink:href="#DejaVuSans-Bold-65" transform="translate(702.636719 0)"/>
     <use xlink:href="#DejaVuSans-Bold-72" transform="translate(770.458984 0)"/>
     <use xlink:href="#DejaVuSans-Bold-65" transform="translate(819.775391 0)"/>
     <use xlink:href="#DejaVuSans-Bold-20" transform="translate(887.597656 0)"/>
     <use xlink:href="#DejaVuSans-Bold-4d" transform="translate(922.412109 0)"/>
     <use xlink:href="#DejaVuSans-Bold-6f" transform="translate(1021.923828 0)"/>
     <use xlink:href="#DejaVuSans-Bold-6e" transform="translate(1090.625 0)"/>
     <use xlink:href="#DejaVuSans-Bold-74" transform="translate(1161.816406 0)"/>
     <use xlink:href="#DejaVuSans-Bold-65" transform="translate(1209.619141 0)"/>
     <use xlink:href="#DejaVuSans-Bold-20" transform="translate(1277.441406 0)"/>
     <use xlink:href="#DejaVuSans-Bold-43" transform="translate(1312.255859 0)"/>
     <use xlink:href="#DejaVuSans-Bold-61" transform="translate(1385.644531 0)"/>
     <use xlink:href="#DejaVuSans-Bold-72" transform="translate(1453.125 0)"/>
     <use xlink:href="#DejaVuSans-Bold-6c" transform="translate(1502.441406 0)"/>
     <use xlink:href="#DejaVuSans-Bold-6f" transform="translate(1536.71875 0)"/>
     <use xlink:href="#DejaVuSans-Bold-3a" transform="translate(1605.419922 0)"/>
     <use xlink:href="#DejaVuSans-Bold-20" transform="translate(1645.410156 0)"/>
     <use xlink:href="#DejaVuSans-Bold-50" transform="translate(1680.224609 0)"/>
     <use xlink:href="#DejaVuSans-Bold-50" transform="translate(1753.515625 0)"/>
     <use xlink:href="#DejaVuSans-Bold-4d" transform="translate(1826.806641 0)"/>
     <use xlink:href="#DejaVuSans-Bold-20" transform="translate(1926.318359 0)"/>
     <use xlink:href="#DejaVuSans-Bold-44" transform="translate(1961.132812 0)"/>
     <use xlink:href="#DejaVuSans-Bold-69" transform="translate(2044.140625 0)"/>
     <use xlink:href="#DejaVuSans-Bold-73" transform="translate(2078.417969 0)"/>
     <use xlink:href="#DejaVuSans-Bold-63" transform="translate(2137.939453 0)"/>
     <use xlink:href="#DejaVuSans-Bold-72" transform="translate(2197.216797 0)"/>
     <use xlink:href="#DejaVuSans-Bold-65" transform="translate(2246.533203 0)"/>
     <use xlink:href="#DejaVuSans-Bold-70" transform="translate(2314.355469 0)"/>
     <use xlink:href="#DejaVuSans-Bold-61" transform="translate(2385.9375 0)"/>
     <use xlink:href="#DejaVuSans-Bold-6e" transform="translate(2453.417969 0)"/>
     <use xlink:href="#DejaVuSans-Bold-63" transform="translate(2524.609375 0)"/>
     <use xlink:href="#DejaVuSans-Bold-79" transform="translate(2583.886719 0)"/>
     <use xlink:href="#DejaVuSans-Bold-20" transform="translate(2649.072266 0)"/>
     <use xlink:href="#DejaVuSans-Bold-44" transform="translate(2683.886719 0)"/>
     <use xlink:href="#DejaVuSans-Bold-69" transform="translate(2766.894531 0)"/>
     <use xlink:href="#DejaVuSans-Bold-73" transform="translate(2801.171875 0)"/>
     <use xlink:href="#DejaVuSans-Bold-74" transform="translate(2860.693359 0)"/>
     <use xlink:href="#DejaVuSans-Bold-72" transform="translate(2908.496094 0)"/>
     <use xlink:href="#DejaVuSans-Bold-69" transform="translate(2957.8125 0)"/>
     <use xlink:href="#DejaVuSans-Bold-62" transform="translate(2992.089844 0)"/>
     <use xlink:href="#DejaVuSans-Bold-75" transform="translate(3063.671875 0)"/>
     <use xlink:href="#DejaVuSans-Bold-74" transform="translate(3134.863281 0)"/>
     <use xlink:href="#DejaVuSans-Bold-69" transform="translate(3182.666016 0)"/>
     <use xlink:href="#DejaVuSans-Bold-6f" transform="translate(3216.943359 0)"/>
     <use xlink:href="#DejaVuSans-Bold-6e" transform="translate(3285.644531 0)"/>
    </g>
   </g>
   <g id="legend_1">
    <g id="patch_88">
     <path d="M 653.967344 171.812969 
L 771.100938 171.812969 
Q 772.900938 171.812969 772.900938 170.012969 
L 772.900938 157.702656 
Q 772.900938 155.902656 771.100938 155.902656 
L 653.967344 155.902656 
Q 652.167344 155.902656 652.167344 157.702656 
L 652.167344 170.012969 
Q 652.167344 171.812969 653.967344 171.812969 
z
" style="fill: #ffffff; opacity: 0.95; stroke: #cccccc; stroke-linejoin: miter"/>
    </g>
    <g id="line2d_32">
     <path d="M 655.767344 163.19125 
L 664.767344 163.19125 
L 673.767344 163.19125 
" style="fill: none; stroke-dasharray: 7.4,3.2; stroke-dashoffset: 0; stroke: #ffaa00; stroke-opacity: 0.9; stroke-width: 2"/>
    </g>
    <g id="text_20">
     <!-- 1.26 ppm threshold -->
     <g transform="translate(680.967344 166.34125) scale(0.09 -0.09)">
      <use xlink:href="#DejaVuSans-31"/>
      <use xlink:href="#DejaVuSans-2e" transform="translate(63.623047 0)"/>
      <use xlink:href="#DejaVuSans-32" transform="translate(95.410156 0)"/>
      <use xlink:href="#DejaVuSans-36" transform="translate(159.033203 0)"/>
      <use xlink:href="#DejaVuSans-20" transform="translate(222.65625 0)"/>
      <use xlink:href="#DejaVuSans-70" transform="translate(254.443359 0)"/>
      <use xlink:href="#DejaVuSans-70" transform="translate(317.919922 0)"/>
      <use xlink:href="#DejaVuSans-6d" transform="translate(381.396484 0)"/>
      <use xlink:href="#DejaVuSans-20" transform="translate(478.808594 0)"/>
      <use xlink:href="#DejaVuSans-74" transform="translate(510.595703 0)"/>
      <use xlink:href="#DejaVuSans-68" transform="translate(549.804688 0)"/>
      <use xlink:href="#DejaVuSans-72" transform="translate(613.183594 0)"/>
      <use xlink:href="#DejaVuSans-65" transform="translate(652.046875 0)"/>
      <use xlink:href="#DejaVuSans-73" transform="translate(713.570312 0)"/>
      <use xlink:href="#DejaVuSans-68" transform="translate(765.669922 0)"/>
      <use xlink:href="#DejaVuSans-6f" transform="translate(829.048828 0)"/>
      <use xlink:href="#DejaVuSans-6c" transform="translate(890.230469 0)"/>
      <use xlink:href="#DejaVuSans-64" transform="translate(918.013672 0)"/>
     </g>
    </g>
   </g>
  </g>
 </g>
 <defs>
  <clipPath id="p3bd56f6b5c">
   <rect x="51.750937" y="27.837813" width="725.65" height="272.04"/>
  </clipPath>
 </defs>
</svg>
