<?xml version="1.0" encoding="utf-8" standalone="no"?>
<!DOCTYPE svg PUBLIC "-//W3C//DTD SVG 1.1//EN"
  "http://www.w3.org/Graphics/SVG/1.1/DTD/svg11.dtd">
<svg xmlns:xlink="http://www.w3.org/1999/xlink" width="784.8pt" height="460.877812pt" viewBox="0 0 784.8 460.877812" xmlns="http://www.w3.org/2000/svg" version="1.1">
 <metadata>
  <rdf:RDF xmlns:dc="http://purl.org/dc/elements/1.1/" xmlns:cc="http://creativecommons.org/ns#" xmlns:rdf="http://www.w3.org/1999/02/22-rdf-syntax-ns#">
   <cc:Work>
    <dc:type rdf:resource="http://purl.org/dc/dcmitype/StillImage"/>
    <dc:date>2026-01-02T18:44:42.865278</dc:date>
    <dc:format>image/svg+xml</dc:format>
    <dc:creator>
     <cc:Agent>
      <dc:title>Matplotlib v3.10.8, https://matplotlib.org/</dc:title>
     </cc:Agent>
    </dc:creator>
   </cc:Work>
  </rdf:RDF>
 </metadata>
 <defs>
  <style type="text/css">*{stroke-linejoin: round; stroke-linecap: butt}</style>
 </defs>
 <g id="figure_1">
  <g id="patch_1">
   <path d="M 0 460.877812 
L 784.8 460.877812 
L 784.8 0 
L 0 0 
z
" style="fill: #ffffff"/>
  </g>
  <g id="axes_1">
   <g id="patch_2">
    <path d="M 56.225455 89.827474 
L 238.32 89.827474 
Q 239.720727 89.827474 239.720727 88.523351 
L 239.720727 36.358428 
Q 239.720727 35.054305 238.32 35.054305 
L 56.225455 35.054305 
Q 54.824727 35.054305 54.824727 36.358428 
L 54.824727 88.523351 
Q 54.824727 89.827474 56.225455 89.827474 
z
" clip-path="url(#p23c3248997)" style="fill: #95a5a6; opacity: 0.14; stroke: #95a5a6; stroke-width: 2.5; stroke-linejoin: miter"/>
   </g>
   <g id="patch_3">
    <path d="M 301.352727 89.827474 
L 483.447273 89.827474 
Q 484.848 89.827474 484.848 88.523351 
L 484.848 36.358428 
Q 484.848 35.054305 483.447273 35.054305 
L 301.352727 35.054305 
Q 299.952 35.054305 299.952 36.358428 
L 299.952 88.523351 
Q 299.952 89.827474 301.352727 89.827474 
z
" clip-path="url(#p23c3248997)" style="fill: #2ecc71; opacity: 0.14; stroke: #2ecc71; stroke-width: 2.5; stroke-linejoin: miter"/>
   </g>
   <g id="patch_4">
    <path d="M 525.469091 89.827474 
L 707.563636 89.827474 
Q 708.964364 89.827474 708.964364 88.523351 
L 708.964364 36.358428 
Q 708.964364 35.054305 707.563636 35.054305 
L 525.469091 35.054305 
Q 524.068364 35.054305 524.068364 36.358428 
L 524.068364 88.523351 
Q 524.068364 89.827474 525.469091 89.827474 
z
" clip-path="url(#p23c3248997)" style="fill: #f39c12; opacity: 0.14; stroke: #f39c12; stroke-width: 2.5; stroke-linejoin: miter"/>
   </g>
   <g id="patch_5">
    <path d="M 616.516364 89.827474 
L 798.610909 89.827474 
Q 800.011636 89.827474 800.011636 88.523351 
L 800.011636 36.358428 
Q 800.011636 35.054305 798.610909 35.054305 
L 616.516364 35.054305 
Q 615.115636 35.054305 615.115636 36.358428 
L 615.115636 88.523351 
Q 615.115636 89.827474 616.516364 89.827474 
z
" clip-path="url(#p23c3248997)" style="fill: #9b59b6; opacity: 0.14; stroke: #9b59b6; stroke-width: 2.5; stroke-linejoin: miter"/>
   </g>
   <g id="text_1">
    <!-- Assumed -->
    <g style="fill: #2c3e50" transform="translate(126.823977 62.440889) scale(0.08 -0.08)">
     <defs>
      <path id="DejaVuSans-Bold-41" d="M 3419 850 
L 1538 850 
L 1241 0 
L 31 0 
L 1759 4666 
L 3194 4666 
L 4922 0 
L 3713 0 
L 3419 850 
z
M 1838 1716 
L 3116 1716 
L 2478 3572 
L 1838 1716 
z
" transform="scale(0.015625)"/>
      <path id="DejaVuSans-Bold-73" d="M 3272 3391 
L 3272 2541 
Q 2913 2691 2578 2766 
Q 2244 2841 1947 2841 
Q 1628 2841 1473 2761 
Q 1319 2681 1319 2516 
Q 1319 2381 1436 2309 
Q 1553 2238 1856 2203 
L 2053 2175 
Q 2913 2066 3209 1816 
Q 3506 1566 3506 1031 
Q 3506 472 3093 190 
Q 2681 -91 1863 -91 
Q 1516 -91 1145 -36 
Q 775 19 384 128 
L 384 978 
Q 719 816 1070 734 
Q 1422 653 1784 653 
Q 2113 653 2278 743 
Q 2444 834 2444 1013 
Q 2444 1163 2330 1236 
Q 2216 1309 1875 1350 
L 1678 1375 
Q 931 1469 631 1722 
Q 331 1975 331 2491 
Q 331 3047 712 3315 
Q 1094 3584 1881 3584 
Q 2191 3584 2531 3537 
Q 2872 3491 3272 3391 
z
" transform="scale(0.015625)"/>
      <path id="DejaVuSans-Bold-75" d="M 500 1363 
L 500 3500 
L 1625 3500 
L 1625 3150 
Q 1625 2866 1622 2436 
Q 1619 2006 1619 1863 
Q 1619 1441 1641 1255 
Q 1663 1069 1716 984 
Q 1784 875 1895 815 
Q 2006 756 2150 756 
Q 2500 756 2700 1025 
Q 2900 1294 2900 1772 
L 2900 3500 
L 4019 3500 
L 4019 0 
L 2900 0 
L 2900 506 
Q 2647 200 2364 54 
Q 2081 -91 1741 -91 
Q 1134 -91 817 281 
Q 500 653 500 1363 
z
" transform="scale(0.015625)"/>
      <path id="DejaVuSans-Bold-6d" d="M 3781 2919 
Q 3994 3244 4286 3414 
Q 4578 3584 4928 3584 
Q 5531 3584 5847 3212 
Q 6163 2841 6163 2131 
L 6163 0 
L 5038 0 
L 5038 1825 
Q 5041 1866 5042 1909 
Q 5044 1953 5044 2034 
Q 5044 2406 4934 2573 
Q 4825 2741 4581 2741 
Q 4263 2741 4089 2478 
Q 3916 2216 3909 1719 
L 3909 0 
L 2784 0 
L 2784 1825 
Q 2784 2406 2684 2573 
Q 2584 2741 2328 2741 
Q 2006 2741 1831 2477 
Q 1656 2213 1656 1722 
L 1656 0 
L 531 0 
L 531 3500 
L 1656 3500 
L 1656 2988 
Q 1863 3284 2130 3434 
Q 2397 3584 2719 3584 
Q 3081 3584 3359 3409 
Q 3638 3234 3781 2919 
z
" transform="scale(0.015625)"/>
      <path id="DejaVuSans-Bold-65" d="M 4031 1759 
L 4031 1441 
L 1416 1441 
Q 1456 1047 1700 850 
Q 1944 653 2381 653 
Q 2734 653 3104 758 
Q 3475 863 3866 1075 
L 3866 213 
Q 3469 63 3072 -14 
Q 2675 -91 2278 -91 
Q 1328 -91 801 392 
Q 275 875 275 1747 
Q 275 2603 792 3093 
Q 1309 3584 2216 3584 
Q 3041 3584 3536 3087 
Q 4031 2591 4031 1759 
z
M 2881 2131 
Q 2881 2450 2695 2645 
Q 2509 2841 2209 2841 
Q 1884 2841 1681 2658 
Q 1478 2475 1428 2131 
L 2881 2131 
z
" transform="scale(0.015625)"/>
      <path id="DejaVuSans-Bold-64" d="M 2919 2988 
L 2919 4863 
L 4044 4863 
L 4044 0 
L 2919 0 
L 2919 506 
Q 2688 197 2409 53 
Q 2131 -91 1766 -91 
Q 1119 -91 703 423 
Q 288 938 288 1747 
Q 288 2556 703 3070 
Q 1119 3584 1766 3584 
Q 2128 3584 2408 3439 
Q 2688 3294 2919 2988 
z
M 2181 722 
Q 2541 722 2730 984 
Q 2919 1247 2919 1747 
Q 2919 2247 2730 2509 
Q 2541 2772 2181 2772 
Q 1825 2772 1636 2509 
Q 1447 2247 1447 1747 
Q 1447 1247 1636 984 
Q 1825 722 2181 722 
z
" transform="scale(0.015625)"/>
     </defs>
     <use xlink:href="#DejaVuSans-Bold-41"/>
     <use xlink:href="#DejaVuSans-Bold-73" transform="translate(77.392578 0)"/>
     <use xlink:href="#DejaVuSans-Bold-73" transform="translate(136.914062 0)"/>
     <use xlink:href="#DejaVuSans-Bold-75" transform="translate(196.435547 0)"/>
     <use xlink:href="#DejaVuSans-Bold-6d" transform="translate(267.626953 0)"/>
     <use xlink:href="#DejaVuSans-Bold-65" transform="translate(371.826172 0)"/>
     <use xlink:href="#DejaVuSans-Bold-64" transform="translate(439.648438 0)"/>
    </g>
   </g>
   <g id="text_2">
    <!-- [A] AXIOM -->
    <g style="fill: #2c3e50" transform="translate(126.887727 134.167659) scale(0.08 -0.08)">
     <defs>
      <path id="DejaVuSans-5b" d="M 550 4863 
L 1875 4863 
L 1875 4416 
L 1125 4416 
L 1125 -397 
L 1875 -397 
L 1875 -844 
L 550 -844 
L 550 4863 
z
" transform="scale(0.015625)"/>
      <path id="DejaVuSans-41" d="M 2188 4044 
L 1331 1722 
L 3047 1722 
L 2188 4044 
z
M 1831 4666 
L 2547 4666 
L 4325 0 
L 3669 0 
L 3244 1197 
L 1141 1197 
L 716 0 
L 50 0 
L 1831 4666 
z
" transform="scale(0.015625)"/>
      <path id="DejaVuSans-5d" d="M 1947 4863 
L 1947 -844 
L 622 -844 
L 622 -397 
L 1369 -397 
L 1369 4416 
L 622 4416 
L 622 4863 
L 1947 4863 
z
" transform="scale(0.015625)"/>
      <path id="DejaVuSans-20" transform="scale(0.015625)"/>
      <path id="DejaVuSans-58" d="M 403 4666 
L 1081 4666 
L 2241 2931 
L 3406 4666 
L 4084 4666 
L 2584 2425 
L 4184 0 
L 3506 0 
L 2194 1984 
L 872 0 
L 191 0 
L 1856 2491 
L 403 4666 
z
" transform="scale(0.015625)"/>
      <path id="DejaVuSans-49" d="M 628 4666 
L 1259 4666 
L 1259 0 
L 628 0 
L 628 4666 
z
" transform="scale(0.015625)"/>
      <path id="DejaVuSans-4f" d="M 2522 4238 
Q 1834 4238 1429 3725 
Q 1025 3213 1025 2328 
Q 1025 1447 1429 934 
Q 1834 422 2522 422 
Q 3209 422 3611 934 
Q 4013 1447 4013 2328 
Q 4013 3213 3611 3725 
Q 3209 4238 2522 4238 
z
M 2522 4750 
Q 3503 4750 4090 4092 
Q 4678 3434 4678 2328 
Q 4678 1225 4090 567 
Q 3503 -91 2522 -91 
Q 1538 -91 948 565 
Q 359 1222 359 2328 
Q 359 3434 948 4092 
Q 1538 4750 2522 4750 
z
" transform="scale(0.015625)"/>
      <path id="DejaVuSans-4d" d="M 628 4666 
L 1569 4666 
L 2759 1491 
L 3956 4666 
L 4897 4666 
L 4897 0 
L 4281 0 
L 4281 4097 
L 3078 897 
L 2444 897 
L 1241 4097 
L 1241 0 
L 628 0 
L 628 4666 
z
" transform="scale(0.015625)"/>
     </defs>
     <use xlink:href="#DejaVuSans-5b"/>
     <use xlink:href="#DejaVuSans-41" transform="translate(39.013672 0)"/>
     <use xlink:href="#DejaVuSans-5d" transform="translate(107.421875 0)"/>
     <use xlink:href="#DejaVuSans-20" transform="translate(146.435547 0)"/>
     <use xlink:href="#DejaVuSans-41" transform="translate(178.222656 0)"/>
     <use xlink:href="#DejaVuSans-58" transform="translate(246.630859 0)"/>
     <use xlink:href="#DejaVuSans-49" transform="translate(315.136719 0)"/>
     <use xlink:href="#DejaVuSans-4f" transform="translate(344.628906 0)"/>
     <use xlink:href="#DejaVuSans-4d" transform="translate(423.339844 0)"/>
    </g>
   </g>
   <g id="text_3">
    <!-- [D] DEFINITION -->
    <g style="fill: #2c3e50" transform="translate(116.775227 183.072274) scale(0.08 -0.08)">
     <defs>
      <path id="DejaVuSans-44" d="M 1259 4147 
L 1259 519 
L 2022 519 
Q 2988 519 3436 956 
Q 3884 1394 3884 2338 
Q 3884 3275 3436 3711 
Q 2988 4147 2022 4147 
L 1259 4147 
z
M 628 4666 
L 1925 4666 
Q 3281 4666 3915 4102 
Q 4550 3538 4550 2338 
Q 4550 1131 3912 565 
Q 3275 0 1925 0 
L 628 0 
L 628 4666 
z
" transform="scale(0.015625)"/>
      <path id="DejaVuSans-45" d="M 628 4666 
L 3578 4666 
L 3578 4134 
L 1259 4134 
L 1259 2753 
L 3481 2753 
L 3481 2222 
L 1259 2222 
L 1259 531 
L 3634 531 
L 3634 0 
L 628 0 
L 628 4666 
z
" transform="scale(0.015625)"/>
      <path id="DejaVuSans-46" d="M 628 4666 
L 3309 4666 
L 3309 4134 
L 1259 4134 
L 1259 2759 
L 3109 2759 
L 3109 2228 
L 1259 2228 
L 1259 0 
L 628 0 
L 628 4666 
z
" transform="scale(0.015625)"/>
      <path id="DejaVuSans-4e" d="M 628 4666 
L 1478 4666 
L 3547 763 
L 3547 4666 
L 4159 4666 
L 4159 0 
L 3309 0 
L 1241 3903 
L 1241 0 
L 628 0 
L 628 4666 
z
" transform="scale(0.015625)"/>
      <path id="DejaVuSans-54" d="M -19 4666 
L 3928 4666 
L 3928 4134 
L 2272 4134 
L 2272 0 
L 1638 0 
L 1638 4134 
L -19 4134 
L -19 4666 
z
" transform="scale(0.015625)"/>
     </defs>
     <use xlink:href="#DejaVuSans-5b"/>
     <use xlink:href="#DejaVuSans-44" transform="translate(39.013672 0)"/>
     <use xlink:href="#DejaVuSans-5d" transform="translate(116.015625 0)"/>
     <use xlink:href="#DejaVuSans-20" transform="translate(155.029297 0)"/>
     <use xlink:href="#DejaVuSans-44" transform="translate(186.816406 0)"/>
     <use xlink:href="#DejaVuSans-45" transform="translate(263.818359 0)"/>
     <use xlink:href="#DejaVuSans-46" transform="translate(327.001953 0)"/>
     <use xlink:href="#DejaVuSans-49" transform="translate(384.521484 0)"/>
     <use xlink:href="#DejaVuSans-4e" transform="translate(414.013672 0)"/>
     <use xlink:href="#DejaVuSans-49" transform="translate(488.818359 0)"/>
     <use xlink:href="#DejaVuSans-54" transform="translate(518.310547 0)"/>
     <use xlink:href="#DejaVuSans-49" transform="translate(579.394531 0)"/>
     <use xlink:href="#DejaVuSans-4f" transform="translate(608.886719 0)"/>
     <use xlink:href="#DejaVuSans-4e" transform="translate(687.597656 0)"/>
    </g>
   </g>
   <g id="text_4">
    <!-- [I] IMPOSED -->
    <g style="fill: #2c3e50" transform="translate(123.361477 231.976889) scale(0.08 -0.08)">
     <defs>
      <path id="DejaVuSans-50" d="M 1259 4147 
L 1259 2394 
L 2053 2394 
Q 2494 2394 2734 2622 
Q 2975 2850 2975 3272 
Q 2975 3691 2734 3919 
Q 2494 4147 2053 4147 
L 1259 4147 
z
M 628 4666 
L 2053 4666 
Q 2838 4666 3239 4311 
Q 3641 3956 3641 3272 
Q 3641 2581 3239 2228 
Q 2838 1875 2053 1875 
L 1259 1875 
L 1259 0 
L 628 0 
L 628 4666 
z
" transform="scale(0.015625)"/>
      <path id="DejaVuSans-53" d="M 3425 4513 
L 3425 3897 
Q 3066 4069 2747 4153 
Q 2428 4238 2131 4238 
Q 1616 4238 1336 4038 
Q 1056 3838 1056 3469 
Q 1056 3159 1242 3001 
Q 1428 2844 1947 2747 
L 2328 2669 
Q 3034 2534 3370 2195 
Q 3706 1856 3706 1288 
Q 3706 609 3251 259 
Q 2797 -91 1919 -91 
Q 1588 -91 1214 -16 
Q 841 59 441 206 
L 441 856 
Q 825 641 1194 531 
Q 1563 422 1919 422 
Q 2459 422 2753 634 
Q 3047 847 3047 1241 
Q 3047 1584 2836 1778 
Q 2625 1972 2144 2069 
L 1759 2144 
Q 1053 2284 737 2584 
Q 422 2884 422 3419 
Q 422 4038 858 4394 
Q 1294 4750 2059 4750 
Q 2388 4750 2728 4690 
Q 3069 4631 3425 4513 
z
" transform="scale(0.015625)"/>
     </defs>
     <use xlink:href="#DejaVuSans-5b"/>
     <use xlink:href="#DejaVuSans-49" transform="translate(39.013672 0)"/>
     <use xlink:href="#DejaVuSans-5d" transform="translate(68.505859 0)"/>
     <use xlink:href="#DejaVuSans-20" transform="translate(107.519531 0)"/>
     <use xlink:href="#DejaVuSans-49" transform="translate(139.306641 0)"/>
     <use xlink:href="#DejaVuSans-4d" transform="translate(168.798828 0)"/>
     <use xlink:href="#DejaVuSans-50" transform="translate(255.078125 0)"/>
     <use xlink:href="#DejaVuSans-4f" transform="translate(315.380859 0)"/>
     <use xlink:href="#DejaVuSans-53" transform="translate(394.091797 0)"/>
     <use xlink:href="#DejaVuSans-45" transform="translate(457.568359 0)"/>
     <use xlink:href="#DejaVuSans-44" transform="translate(520.751953 0)"/>
    </g>
   </g>
   <g id="text_5">
    <!-- Derived -->
    <g style="fill: #2c3e50" transform="translate(374.83875 62.440889) scale(0.08 -0.08)">
     <defs>
      <path id="DejaVuSans-Bold-44" d="M 1791 3756 
L 1791 909 
L 2222 909 
Q 2959 909 3348 1275 
Q 3738 1641 3738 2338 
Q 3738 3031 3350 3393 
Q 2963 3756 2222 3756 
L 1791 3756 
z
M 588 4666 
L 1856 4666 
Q 2919 4666 3439 4514 
Q 3959 4363 4331 4000 
Q 4659 3684 4818 3271 
Q 4978 2859 4978 2338 
Q 4978 1809 4818 1395 
Q 4659 981 4331 666 
Q 3956 303 3431 151 
Q 2906 0 1856 0 
L 588 0 
L 588 4666 
z
" transform="scale(0.015625)"/>
      <path id="DejaVuSans-Bold-72" d="M 3138 2547 
Q 2991 2616 2845 2648 
Q 2700 2681 2553 2681 
Q 2122 2681 1889 2404 
Q 1656 2128 1656 1613 
L 1656 0 
L 538 0 
L 538 3500 
L 1656 3500 
L 1656 2925 
Q 1872 3269 2151 3426 
Q 2431 3584 2822 3584 
Q 2878 3584 2943 3579 
Q 3009 3575 3134 3559 
L 3138 2547 
z
" transform="scale(0.015625)"/>
      <path id="DejaVuSans-Bold-69" d="M 538 3500 
L 1656 3500 
L 1656 0 
L 538 0 
L 538 3500 
z
M 538 4863 
L 1656 4863 
L 1656 3950 
L 538 3950 
L 538 4863 
z
" transform="scale(0.015625)"/>
      <path id="DejaVuSans-Bold-76" d="M 97 3500 
L 1216 3500 
L 2088 1081 
L 2956 3500 
L 4078 3500 
L 2700 0 
L 1472 0 
L 97 3500 
z
" transform="scale(0.015625)"/>
     </defs>
     <use xlink:href="#DejaVuSans-Bold-44"/>
     <use xlink:href="#DejaVuSans-Bold-65" transform="translate(83.007812 0)"/>
     <use xlink:href="#DejaVuSans-Bold-72" transform="translate(150.830078 0)"/>
     <use xlink:href="#DejaVuSans-Bold-69" transform="translate(200.146484 0)"/>
     <use xlink:href="#DejaVuSans-Bold-76" transform="translate(234.423828 0)"/>
     <use xlink:href="#DejaVuSans-Bold-65" transform="translate(299.609375 0)"/>
     <use xlink:href="#DejaVuSans-Bold-64" transform="translate(367.431641 0)"/>
    </g>
   </g>
   <g id="text_6">
    <!-- [T] THEOREM -->
    <g style="fill: #2c3e50" transform="translate(365.67875 134.167659) scale(0.08 -0.08)">
     <defs>
      <path id="DejaVuSans-48" d="M 628 4666 
L 1259 4666 
L 1259 2753 
L 3553 2753 
L 3553 4666 
L 4184 4666 
L 4184 0 
L 3553 0 
L 3553 2222 
L 1259 2222 
L 1259 0 
L 628 0 
L 628 4666 
z
" transform="scale(0.015625)"/>
      <path id="DejaVuSans-52" d="M 2841 2188 
Q 3044 2119 3236 1894 
Q 3428 1669 3622 1275 
L 4263 0 
L 3584 0 
L 2988 1197 
Q 2756 1666 2539 1819 
Q 2322 1972 1947 1972 
L 1259 1972 
L 1259 0 
L 628 0 
L 628 4666 
L 2053 4666 
Q 2853 4666 3247 4331 
Q 3641 3997 3641 3322 
Q 3641 2881 3436 2590 
Q 3231 2300 2841 2188 
z
M 1259 4147 
L 1259 2491 
L 2053 2491 
Q 2509 2491 2742 2702 
Q 2975 2913 2975 3322 
Q 2975 3731 2742 3939 
Q 2509 4147 2053 4147 
L 1259 4147 
z
" transform="scale(0.015625)"/>
     </defs>
     <use xlink:href="#DejaVuSans-5b"/>
     <use xlink:href="#DejaVuSans-54" transform="translate(39.013672 0)"/>
     <use xlink:href="#DejaVuSans-5d" transform="translate(100.097656 0)"/>
     <use xlink:href="#DejaVuSans-20" transform="translate(139.111328 0)"/>
     <use xlink:href="#DejaVuSans-54" transform="translate(170.898438 0)"/>
     <use xlink:href="#DejaVuSans-48" transform="translate(231.982422 0)"/>
     <use xlink:href="#DejaVuSans-45" transform="translate(307.177734 0)"/>
     <use xlink:href="#DejaVuSans-4f" transform="translate(370.361328 0)"/>
     <use xlink:href="#DejaVuSans-52" transform="translate(449.072266 0)"/>
     <use xlink:href="#DejaVuSans-45" transform="translate(518.554688 0)"/>
     <use xlink:href="#DejaVuSans-4d" transform="translate(581.738281 0)"/>
    </g>
   </g>
   <g id="text_7">
    <!-- [T+] DERIVED -->
    <g style="fill: #2c3e50" transform="translate(364.301875 183.072274) scale(0.08 -0.08)">
     <defs>
      <path id="DejaVuSans-2b" d="M 2944 4013 
L 2944 2272 
L 4684 2272 
L 4684 1741 
L 2944 1741 
L 2944 0 
L 2419 0 
L 2419 1741 
L 678 1741 
L 678 2272 
L 2419 2272 
L 2419 4013 
L 2944 4013 
z
" transform="scale(0.015625)"/>
      <path id="DejaVuSans-56" d="M 1831 0 
L 50 4666 
L 709 4666 
L 2188 738 
L 3669 4666 
L 4325 4666 
L 2547 0 
L 1831 0 
z
" transform="scale(0.015625)"/>
     </defs>
     <use xlink:href="#DejaVuSans-5b"/>
     <use xlink:href="#DejaVuSans-54" transform="translate(39.013672 0)"/>
     <use xlink:href="#DejaVuSans-2b" transform="translate(100.097656 0)"/>
     <use xlink:href="#DejaVuSans-5d" transform="translate(183.886719 0)"/>
     <use xlink:href="#DejaVuSans-20" transform="translate(222.900391 0)"/>
     <use xlink:href="#DejaVuSans-44" transform="translate(254.6875 0)"/>
     <use xlink:href="#DejaVuSans-45" transform="translate(331.689453 0)"/>
     <use xlink:href="#DejaVuSans-52" transform="translate(394.873047 0)"/>
     <use xlink:href="#DejaVuSans-49" transform="translate(464.355469 0)"/>
     <use xlink:href="#DejaVuSans-56" transform="translate(493.847656 0)"/>
     <use xlink:href="#DejaVuSans-45" transform="translate(562.255859 0)"/>
     <use xlink:href="#DejaVuSans-44" transform="translate(625.439453 0)"/>
    </g>
   </g>
   <g id="text_8">
    <!-- [S] SELECTION -->
    <g style="fill: #2c3e50" transform="translate(363.0875 231.976889) scale(0.08 -0.08)">
     <defs>
      <path id="DejaVuSans-4c" d="M 628 4666 
L 1259 4666 
L 1259 531 
L 3531 531 
L 3531 0 
L 628 0 
L 628 4666 
z
" transform="scale(0.015625)"/>
      <path id="DejaVuSans-43" d="M 4122 4306 
L 4122 3641 
Q 3803 3938 3442 4084 
Q 3081 4231 2675 4231 
Q 1875 4231 1450 3742 
Q 1025 3253 1025 2328 
Q 1025 1406 1450 917 
Q 1875 428 2675 428 
Q 3081 428 3442 575 
Q 3803 722 4122 1019 
L 4122 359 
Q 3791 134 3420 21 
Q 3050 -91 2638 -91 
Q 1578 -91 968 557 
Q 359 1206 359 2328 
Q 359 3453 968 4101 
Q 1578 4750 2638 4750 
Q 3056 4750 3426 4639 
Q 3797 4528 4122 4306 
z
" transform="scale(0.015625)"/>
     </defs>
     <use xlink:href="#DejaVuSans-5b"/>
     <use xlink:href="#DejaVuSans-53" transform="translate(39.013672 0)"/>
     <use xlink:href="#DejaVuSans-5d" transform="translate(102.490234 0)"/>
     <use xlink:href="#DejaVuSans-20" transform="translate(141.503906 0)"/>
     <use xlink:href="#DejaVuSans-53" transform="translate(173.291016 0)"/>
     <use xlink:href="#DejaVuSans-45" transform="translate(236.767578 0)"/>
     <use xlink:href="#DejaVuSans-4c" transform="translate(299.951172 0)"/>
     <use xlink:href="#DejaVuSans-45" transform="translate(355.664062 0)"/>
     <use xlink:href="#DejaVuSans-43" transform="translate(418.847656 0)"/>
     <use xlink:href="#DejaVuSans-54" transform="translate(488.671875 0)"/>
     <use xlink:href="#DejaVuSans-49" transform="translate(549.755859 0)"/>
     <use xlink:href="#DejaVuSans-4f" transform="translate(579.248047 0)"/>
     <use xlink:href="#DejaVuSans-4e" transform="translate(657.958984 0)"/>
    </g>
   </g>
   <g id="text_9">
    <!-- Tested -->
    <g style="fill: #2c3e50" transform="translate(601.735739 62.440889) scale(0.08 -0.08)">
     <defs>
      <path id="DejaVuSans-Bold-54" d="M 31 4666 
L 4331 4666 
L 4331 3756 
L 2784 3756 
L 2784 0 
L 1581 0 
L 1581 3756 
L 31 3756 
L 31 4666 
z
" transform="scale(0.015625)"/>
      <path id="DejaVuSans-Bold-74" d="M 1759 4494 
L 1759 3500 
L 2913 3500 
L 2913 2700 
L 1759 2700 
L 1759 1216 
Q 1759 972 1856 886 
Q 1953 800 2241 800 
L 2816 800 
L 2816 0 
L 1856 0 
Q 1194 0 917 276 
Q 641 553 641 1216 
L 641 2700 
L 84 2700 
L 84 3500 
L 641 3500 
L 641 4494 
L 1759 4494 
z
" transform="scale(0.015625)"/>
     </defs>
     <use xlink:href="#DejaVuSans-Bold-54"/>
     <use xlink:href="#DejaVuSans-Bold-65" transform="translate(54.962891 0)"/>
     <use xlink:href="#DejaVuSans-Bold-73" transform="translate(122.785156 0)"/>
     <use xlink:href="#DejaVuSans-Bold-74" transform="translate(182.306641 0)"/>
     <use xlink:href="#DejaVuSans-Bold-65" transform="translate(230.109375 0)"/>
     <use xlink:href="#DejaVuSans-Bold-64" transform="translate(297.931641 0)"/>
    </g>
   </g>
   <g id="text_10">
    <!-- [E] EMERGENT -->
    <g style="fill: #2c3e50" transform="translate(587.248239 134.167659) scale(0.08 -0.08)">
     <defs>
      <path id="DejaVuSans-47" d="M 3809 666 
L 3809 1919 
L 2778 1919 
L 2778 2438 
L 4434 2438 
L 4434 434 
Q 4069 175 3628 42 
Q 3188 -91 2688 -91 
Q 1594 -91 976 548 
Q 359 1188 359 2328 
Q 359 3472 976 4111 
Q 1594 4750 2688 4750 
Q 3144 4750 3555 4637 
Q 3966 4525 4313 4306 
L 4313 3634 
Q 3963 3931 3569 4081 
Q 3175 4231 2741 4231 
Q 1884 4231 1454 3753 
Q 1025 3275 1025 2328 
Q 1025 1384 1454 906 
Q 1884 428 2741 428 
Q 3075 428 3337 486 
Q 3600 544 3809 666 
z
" transform="scale(0.015625)"/>
     </defs>
     <use xlink:href="#DejaVuSans-5b"/>
     <use xlink:href="#DejaVuSans-45" transform="translate(39.013672 0)"/>
     <use xlink:href="#DejaVuSans-5d" transform="translate(102.197266 0)"/>
     <use xlink:href="#DejaVuSans-20" transform="translate(141.210938 0)"/>
     <use xlink:href="#DejaVuSans-45" transform="translate(172.998047 0)"/>
     <use xlink:href="#DejaVuSans-4d" transform="translate(236.181641 0)"/>
     <use xlink:href="#DejaVuSans-45" transform="translate(322.460938 0)"/>
     <use xlink:href="#DejaVuSans-52" transform="translate(385.644531 0)"/>
     <use xlink:href="#DejaVuSans-47" transform="translate(455.126953 0)"/>
     <use xlink:href="#DejaVuSans-45" transform="translate(532.617188 0)"/>
     <use xlink:href="#DejaVuSans-4e" transform="translate(595.800781 0)"/>
     <use xlink:href="#DejaVuSans-54" transform="translate(670.605469 0)"/>
    </g>
   </g>
   <g id="text_11">
    <!-- [V] VERIFIED -->
    <g style="fill: #2c3e50" transform="translate(591.076364 183.072274) scale(0.08 -0.08)">
     <use xlink:href="#DejaVuSans-5b"/>
     <use xlink:href="#DejaVuSans-56" transform="translate(39.013672 0)"/>
     <use xlink:href="#DejaVuSans-5d" transform="translate(107.421875 0)"/>
     <use xlink:href="#DejaVuSans-20" transform="translate(146.435547 0)"/>
     <use xlink:href="#DejaVuSans-56" transform="translate(178.222656 0)"/>
     <use xlink:href="#DejaVuSans-45" transform="translate(246.630859 0)"/>
     <use xlink:href="#DejaVuSans-52" transform="translate(309.814453 0)"/>
     <use xlink:href="#DejaVuSans-49" transform="translate(379.296875 0)"/>
     <use xlink:href="#DejaVuSans-46" transform="translate(408.789062 0)"/>
     <use xlink:href="#DejaVuSans-49" transform="translate(466.308594 0)"/>
     <use xlink:href="#DejaVuSans-45" transform="translate(495.800781 0)"/>
     <use xlink:href="#DejaVuSans-44" transform="translate(558.984375 0)"/>
    </g>
   </g>
   <g id="text_12">
    <!-- Open -->
    <g style="fill: #2c3e50" transform="translate(695.739261 62.440889) scale(0.08 -0.08)">
     <defs>
      <path id="DejaVuSans-Bold-4f" d="M 2719 3878 
Q 2169 3878 1866 3472 
Q 1563 3066 1563 2328 
Q 1563 1594 1866 1187 
Q 2169 781 2719 781 
Q 3272 781 3575 1187 
Q 3878 1594 3878 2328 
Q 3878 3066 3575 3472 
Q 3272 3878 2719 3878 
z
M 2719 4750 
Q 3844 4750 4481 4106 
Q 5119 3463 5119 2328 
Q 5119 1197 4481 553 
Q 3844 -91 2719 -91 
Q 1597 -91 958 553 
Q 319 1197 319 2328 
Q 319 3463 958 4106 
Q 1597 4750 2719 4750 
z
" transform="scale(0.015625)"/>
      <path id="DejaVuSans-Bold-70" d="M 1656 506 
L 1656 -1331 
L 538 -1331 
L 538 3500 
L 1656 3500 
L 1656 2988 
Q 1888 3294 2169 3439 
Q 2450 3584 2816 3584 
Q 3463 3584 3878 3070 
Q 4294 2556 4294 1747 
Q 4294 938 3878 423 
Q 3463 -91 2816 -91 
Q 2450 -91 2169 54 
Q 1888 200 1656 506 
z
M 2400 2772 
Q 2041 2772 1848 2508 
Q 1656 2244 1656 1747 
Q 1656 1250 1848 986 
Q 2041 722 2400 722 
Q 2759 722 2948 984 
Q 3138 1247 3138 1747 
Q 3138 2247 2948 2509 
Q 2759 2772 2400 2772 
z
" transform="scale(0.015625)"/>
      <path id="DejaVuSans-Bold-6e" d="M 4056 2131 
L 4056 0 
L 2931 0 
L 2931 347 
L 2931 1631 
Q 2931 2084 2911 2256 
Q 2891 2428 2841 2509 
Q 2775 2619 2662 2680 
Q 2550 2741 2406 2741 
Q 2056 2741 1856 2470 
Q 1656 2200 1656 1722 
L 1656 0 
L 538 0 
L 538 3500 
L 1656 3500 
L 1656 2988 
Q 1909 3294 2193 3439 
Q 2478 3584 2822 3584 
Q 3428 3584 3742 3212 
Q 4056 2841 4056 2131 
z
" transform="scale(0.015625)"/>
     </defs>
     <use xlink:href="#DejaVuSans-Bold-4f"/>
     <use xlink:href="#DejaVuSans-Bold-70" transform="translate(85.009766 0)"/>
     <use xlink:href="#DejaVuSans-Bold-65" transform="translate(156.591797 0)"/>
     <use xlink:href="#DejaVuSans-Bold-6e" transform="translate(224.414062 0)"/>
    </g>
   </g>
   <g id="text_13">
    <!-- [?] CONJECTURE -->
    <g style="fill: #2c3e50" transform="translate(674.935511 134.167659) scale(0.08 -0.08)">
     <defs>
      <path id="DejaVuSans-3f" d="M 1222 794 
L 1856 794 
L 1856 0 
L 1222 0 
L 1222 794 
z
M 1838 1253 
L 1241 1253 
L 1241 1734 
Q 1241 2050 1328 2253 
Q 1416 2456 1697 2725 
L 1978 3003 
Q 2156 3169 2236 3316 
Q 2316 3463 2316 3616 
Q 2316 3894 2111 4066 
Q 1906 4238 1569 4238 
Q 1322 4238 1042 4128 
Q 763 4019 459 3809 
L 459 4397 
Q 753 4575 1054 4662 
Q 1356 4750 1678 4750 
Q 2253 4750 2601 4447 
Q 2950 4144 2950 3647 
Q 2950 3409 2837 3195 
Q 2725 2981 2444 2713 
L 2169 2444 
Q 2022 2297 1961 2214 
Q 1900 2131 1875 2053 
Q 1856 1988 1847 1894 
Q 1838 1800 1838 1638 
L 1838 1253 
z
" transform="scale(0.015625)"/>
      <path id="DejaVuSans-4a" d="M 628 4666 
L 1259 4666 
L 1259 325 
Q 1259 -519 939 -900 
Q 619 -1281 -91 -1281 
L -331 -1281 
L -331 -750 
L -134 -750 
Q 284 -750 456 -515 
Q 628 -281 628 325 
L 628 4666 
z
" transform="scale(0.015625)"/>
      <path id="DejaVuSans-55" d="M 556 4666 
L 1191 4666 
L 1191 1831 
Q 1191 1081 1462 751 
Q 1734 422 2344 422 
Q 2950 422 3222 751 
Q 3494 1081 3494 1831 
L 3494 4666 
L 4128 4666 
L 4128 1753 
Q 4128 841 3676 375 
Q 3225 -91 2344 -91 
Q 1459 -91 1007 375 
Q 556 841 556 1753 
L 556 4666 
z
" transform="scale(0.015625)"/>
     </defs>
     <use xlink:href="#DejaVuSans-5b"/>
     <use xlink:href="#DejaVuSans-3f" transform="translate(39.013672 0)"/>
     <use xlink:href="#DejaVuSans-5d" transform="translate(92.089844 0)"/>
     <use xlink:href="#DejaVuSans-20" transform="translate(131.103516 0)"/>
     <use xlink:href="#DejaVuSans-43" transform="translate(162.890625 0)"/>
     <use xlink:href="#DejaVuSans-4f" transform="translate(232.714844 0)"/>
     <use xlink:href="#DejaVuSans-4e" transform="translate(311.425781 0)"/>
     <use xlink:href="#DejaVuSans-4a" transform="translate(386.230469 0)"/>
     <use xlink:href="#DejaVuSans-45" transform="translate(415.722656 0)"/>
     <use xlink:href="#DejaVuSans-43" transform="translate(478.90625 0)"/>
     <use xlink:href="#DejaVuSans-54" transform="translate(548.730469 0)"/>
     <use xlink:href="#DejaVuSans-55" transform="translate(609.814453 0)"/>
     <use xlink:href="#DejaVuSans-52" transform="translate(683.007812 0)"/>
     <use xlink:href="#DejaVuSans-45" transform="translate(752.490234 0)"/>
    </g>
   </g>
   <g id="text_14">
    <!-- [O] OPEN -->
    <g style="fill: #2c3e50" transform="translate(688.941761 183.072274) scale(0.08 -0.08)">
     <use xlink:href="#DejaVuSans-5b"/>
     <use xlink:href="#DejaVuSans-4f" transform="translate(39.013672 0)"/>
     <use xlink:href="#DejaVuSans-5d" transform="translate(117.724609 0)"/>
     <use xlink:href="#DejaVuSans-20" transform="translate(156.738281 0)"/>
     <use xlink:href="#DejaVuSans-4f" transform="translate(188.525391 0)"/>
     <use xlink:href="#DejaVuSans-50" transform="translate(267.236328 0)"/>
     <use xlink:href="#DejaVuSans-45" transform="translate(327.539062 0)"/>
     <use xlink:href="#DejaVuSans-4e" transform="translate(390.722656 0)"/>
    </g>
   </g>
   <g id="text_15">
    <!-- [+] COMPANION -->
    <g style="fill: #2c3e50" transform="translate(675.219261 231.976889) scale(0.08 -0.08)">
     <use xlink:href="#DejaVuSans-5b"/>
     <use xlink:href="#DejaVuSans-2b" transform="translate(39.013672 0)"/>
     <use xlink:href="#DejaVuSans-5d" transform="translate(122.802734 0)"/>
     <use xlink:href="#DejaVuSans-20" transform="translate(161.816406 0)"/>
     <use xlink:href="#DejaVuSans-43" transform="translate(193.603516 0)"/>
     <use xlink:href="#DejaVuSans-4f" transform="translate(263.427734 0)"/>
     <use xlink:href="#DejaVuSans-4d" transform="translate(342.138672 0)"/>
     <use xlink:href="#DejaVuSans-50" transform="translate(428.417969 0)"/>
     <use xlink:href="#DejaVuSans-41" transform="translate(482.345703 0)"/>
     <use xlink:href="#DejaVuSans-4e" transform="translate(550.753906 0)"/>
     <use xlink:href="#DejaVuSans-49" transform="translate(625.558594 0)"/>
     <use xlink:href="#DejaVuSans-4f" transform="translate(655.050781 0)"/>
     <use xlink:href="#DejaVuSans-4e" transform="translate(733.761719 0)"/>
    </g>
   </g>
   <g id="text_16">
    <!-- Assumption Ledger: Epistemic Categories (schematic) -->
    <g transform="translate(202.718594 17.837812) scale(0.14 -0.14)">
     <defs>
      <path id="DejaVuSans-73" d="M 2834 3397 
L 2834 2853 
Q 2591 2978 2328 3040 
Q 2066 3103 1784 3103 
Q 1356 3103 1142 2972 
Q 928 2841 928 2578 
Q 928 2378 1081 2264 
Q 1234 2150 1697 2047 
L 1894 2003 
Q 2506 1872 2764 1633 
Q 3022 1394 3022 966 
Q 3022 478 2636 193 
Q 2250 -91 1575 -91 
Q 1294 -91 989 -36 
Q 684 19 347 128 
L 347 722 
Q 666 556 975 473 
Q 1284 391 1588 391 
Q 1994 391 2212 530 
Q 2431 669 2431 922 
Q 2431 1156 2273 1281 
Q 2116 1406 1581 1522 
L 1381 1569 
Q 847 1681 609 1914 
Q 372 2147 372 2553 
Q 372 3047 722 3315 
Q 1072 3584 1716 3584 
Q 2034 3584 2315 3537 
Q 2597 3491 2834 3397 
z
" transform="scale(0.015625)"/>
      <path id="DejaVuSans-75" d="M 544 1381 
L 544 3500 
L 1119 3500 
L 1119 1403 
Q 1119 906 1312 657 
Q 1506 409 1894 409 
Q 2359 409 2629 706 
Q 2900 1003 2900 1516 
L 2900 3500 
L 3475 3500 
L 3475 0 
L 2900 0 
L 2900 538 
Q 2691 219 2414 64 
Q 2138 -91 1772 -91 
Q 1169 -91 856 284 
Q 544 659 544 1381 
z
M 1991 3584 
L 1991 3584 
z
" transform="scale(0.015625)"/>
      <path id="DejaVuSans-6d" d="M 3328 2828 
Q 3544 3216 3844 3400 
Q 4144 3584 4550 3584 
Q 5097 3584 5394 3201 
Q 5691 2819 5691 2113 
L 5691 0 
L 5113 0 
L 5113 2094 
Q 5113 2597 4934 2840 
Q 4756 3084 4391 3084 
Q 3944 3084 3684 2787 
Q 3425 2491 3425 1978 
L 3425 0 
L 2847 0 
L 2847 2094 
Q 2847 2600 2669 2842 
Q 2491 3084 2119 3084 
Q 1678 3084 1418 2786 
Q 1159 2488 1159 1978 
L 1159 0 
L 581 0 
L 581 3500 
L 1159 3500 
L 1159 2956 
Q 1356 3278 1631 3431 
Q 1906 3584 2284 3584 
Q 2666 3584 2933 3390 
Q 3200 3197 3328 2828 
z
" transform="scale(0.015625)"/>
      <path id="DejaVuSans-70" d="M 1159 525 
L 1159 -1331 
L 581 -1331 
L 581 3500 
L 1159 3500 
L 1159 2969 
Q 1341 3281 1617 3432 
Q 1894 3584 2278 3584 
Q 2916 3584 3314 3078 
Q 3713 2572 3713 1747 
Q 3713 922 3314 415 
Q 2916 -91 2278 -91 
Q 1894 -91 1617 61 
Q 1341 213 1159 525 
z
M 3116 1747 
Q 3116 2381 2855 2742 
Q 2594 3103 2138 3103 
Q 1681 3103 1420 2742 
Q 1159 2381 1159 1747 
Q 1159 1113 1420 752 
Q 1681 391 2138 391 
Q 2594 391 2855 752 
Q 3116 1113 3116 1747 
z
" transform="scale(0.015625)"/>
      <path id="DejaVuSans-74" d="M 1172 4494 
L 1172 3500 
L 2356 3500 
L 2356 3053 
L 1172 3053 
L 1172 1153 
Q 1172 725 1289 603 
Q 1406 481 1766 481 
L 2356 481 
L 2356 0 
L 1766 0 
Q 1100 0 847 248 
Q 594 497 594 1153 
L 594 3053 
L 172 3053 
L 172 3500 
L 594 3500 
L 594 4494 
L 1172 4494 
z
" transform="scale(0.015625)"/>
      <path id="DejaVuSans-69" d="M 603 3500 
L 1178 3500 
L 1178 0 
L 603 0 
L 603 3500 
z
M 603 4863 
L 1178 4863 
L 1178 4134 
L 603 4134 
L 603 4863 
z
" transform="scale(0.015625)"/>
      <path id="DejaVuSans-6f" d="M 1959 3097 
Q 1497 3097 1228 2736 
Q 959 2375 959 1747 
Q 959 1119 1226 758 
Q 1494 397 1959 397 
Q 2419 397 2687 759 
Q 2956 1122 2956 1747 
Q 2956 2369 2687 2733 
Q 2419 3097 1959 3097 
z
M 1959 3584 
Q 2709 3584 3137 3096 
Q 3566 2609 3566 1747 
Q 3566 888 3137 398 
Q 2709 -91 1959 -91 
Q 1206 -91 779 398 
Q 353 888 353 1747 
Q 353 2609 779 3096 
Q 1206 3584 1959 3584 
z
" transform="scale(0.015625)"/>
      <path id="DejaVuSans-6e" d="M 3513 2113 
L 3513 0 
L 2938 0 
L 2938 2094 
Q 2938 2591 2744 2837 
Q 2550 3084 2163 3084 
Q 1697 3084 1428 2787 
Q 1159 2491 1159 1978 
L 1159 0 
L 581 0 
L 581 3500 
L 1159 3500 
L 1159 2956 
Q 1366 3272 1645 3428 
Q 1925 3584 2291 3584 
Q 2894 3584 3203 3211 
Q 3513 2838 3513 2113 
z
" transform="scale(0.015625)"/>
      <path id="DejaVuSans-65" d="M 3597 1894 
L 3597 1613 
L 953 1613 
Q 991 1019 1311 708 
Q 1631 397 2203 397 
Q 2534 397 2845 478 
Q 3156 559 3463 722 
L 3463 178 
Q 3153 47 2828 -22 
Q 2503 -91 2169 -91 
Q 1331 -91 842 396 
Q 353 884 353 1716 
Q 353 2575 817 3079 
Q 1281 3584 2069 3584 
Q 2775 3584 3186 3129 
Q 3597 2675 3597 1894 
z
M 3022 2063 
Q 3016 2534 2758 2815 
Q 2500 3097 2075 3097 
Q 1594 3097 1305 2825 
Q 1016 2553 972 2059 
L 3022 2063 
z
" transform="scale(0.015625)"/>
      <path id="DejaVuSans-64" d="M 2906 2969 
L 2906 4863 
L 3481 4863 
L 3481 0 
L 2906 0 
L 2906 525 
Q 2725 213 2448 61 
Q 2172 -91 1784 -91 
Q 1150 -91 751 415 
Q 353 922 353 1747 
Q 353 2572 751 3078 
Q 1150 3584 1784 3584 
Q 2172 3584 2448 3432 
Q 2725 3281 2906 2969 
z
M 947 1747 
Q 947 1113 1208 752 
Q 1469 391 1925 391 
Q 2381 391 2643 752 
Q 2906 1113 2906 1747 
Q 2906 2381 2643 2742 
Q 2381 3103 1925 3103 
Q 1469 3103 1208 2742 
Q 947 2381 947 1747 
z
" transform="scale(0.015625)"/>
      <path id="DejaVuSans-67" d="M 2906 1791 
Q 2906 2416 2648 2759 
Q 2391 3103 1925 3103 
Q 1463 3103 1205 2759 
Q 947 2416 947 1791 
Q 947 1169 1205 825 
Q 1463 481 1925 481 
Q 2391 481 2648 825 
Q 2906 1169 2906 1791 
z
M 3481 434 
Q 3481 -459 3084 -895 
Q 2688 -1331 1869 -1331 
Q 1566 -1331 1297 -1286 
Q 1028 -1241 775 -1147 
L 775 -588 
Q 1028 -725 1275 -790 
Q 1522 -856 1778 -856 
Q 2344 -856 2625 -561 
Q 2906 -266 2906 331 
L 2906 616 
Q 2728 306 2450 153 
Q 2172 0 1784 0 
Q 1141 0 747 490 
Q 353 981 353 1791 
Q 353 2603 747 3093 
Q 1141 3584 1784 3584 
Q 2172 3584 2450 3431 
Q 2728 3278 2906 2969 
L 2906 3500 
L 3481 3500 
L 3481 434 
z
" transform="scale(0.015625)"/>
      <path id="DejaVuSans-72" d="M 2631 2963 
Q 2534 3019 2420 3045 
Q 2306 3072 2169 3072 
Q 1681 3072 1420 2755 
Q 1159 2438 1159 1844 
L 1159 0 
L 581 0 
L 581 3500 
L 1159 3500 
L 1159 2956 
Q 1341 3275 1631 3429 
Q 1922 3584 2338 3584 
Q 2397 3584 2469 3576 
Q 2541 3569 2628 3553 
L 2631 2963 
z
" transform="scale(0.015625)"/>
      <path id="DejaVuSans-3a" d="M 750 794 
L 1409 794 
L 1409 0 
L 750 0 
L 750 794 
z
M 750 3309 
L 1409 3309 
L 1409 2516 
L 750 2516 
L 750 3309 
z
" transform="scale(0.015625)"/>
      <path id="DejaVuSans-63" d="M 3122 3366 
L 3122 2828 
Q 2878 2963 2633 3030 
Q 2388 3097 2138 3097 
Q 1578 3097 1268 2742 
Q 959 2388 959 1747 
Q 959 1106 1268 751 
Q 1578 397 2138 397 
Q 2388 397 2633 464 
Q 2878 531 3122 666 
L 3122 134 
Q 2881 22 2623 -34 
Q 2366 -91 2075 -91 
Q 1284 -91 818 406 
Q 353 903 353 1747 
Q 353 2603 823 3093 
Q 1294 3584 2113 3584 
Q 2378 3584 2631 3529 
Q 2884 3475 3122 3366 
z
" transform="scale(0.015625)"/>
      <path id="DejaVuSans-61" d="M 2194 1759 
Q 1497 1759 1228 1600 
Q 959 1441 959 1056 
Q 959 750 1161 570 
Q 1363 391 1709 391 
Q 2188 391 2477 730 
Q 2766 1069 2766 1631 
L 2766 1759 
L 2194 1759 
z
M 3341 1997 
L 3341 0 
L 2766 0 
L 2766 531 
Q 2569 213 2275 61 
Q 1981 -91 1556 -91 
Q 1019 -91 701 211 
Q 384 513 384 1019 
Q 384 1609 779 1909 
Q 1175 2209 1959 2209 
L 2766 2209 
L 2766 2266 
Q 2766 2663 2505 2880 
Q 2244 3097 1772 3097 
Q 1472 3097 1187 3025 
Q 903 2953 641 2809 
L 641 3341 
Q 956 3463 1253 3523 
Q 1550 3584 1831 3584 
Q 2591 3584 2966 3190 
Q 3341 2797 3341 1997 
z
" transform="scale(0.015625)"/>
      <path id="DejaVuSans-28" d="M 1984 4856 
Q 1566 4138 1362 3434 
Q 1159 2731 1159 2009 
Q 1159 1288 1364 580 
Q 1569 -128 1984 -844 
L 1484 -844 
Q 1016 -109 783 600 
Q 550 1309 550 2009 
Q 550 2706 781 3412 
Q 1013 4119 1484 4856 
L 1984 4856 
z
" transform="scale(0.015625)"/>
      <path id="DejaVuSans-68" d="M 3513 2113 
L 3513 0 
L 2938 0 
L 2938 2094 
Q 2938 2591 2744 2837 
Q 2550 3084 2163 3084 
Q 1697 3084 1428 2787 
Q 1159 2491 1159 1978 
L 1159 0 
L 581 0 
L 581 4863 
L 1159 4863 
L 1159 2956 
Q 1366 3272 1645 3428 
Q 1925 3584 2291 3584 
Q 2894 3584 3203 3211 
Q 3513 2838 3513 2113 
z
" transform="scale(0.015625)"/>
      <path id="DejaVuSans-29" d="M 513 4856 
L 1013 4856 
Q 1481 4119 1714 3412 
Q 1947 2706 1947 2009 
Q 1947 1309 1714 600 
Q 1481 -109 1013 -844 
L 513 -844 
Q 928 -128 1133 580 
Q 1338 1288 1338 2009 
Q 1338 2731 1133 3434 
Q 928 4138 513 4856 
z
" transform="scale(0.015625)"/>
     </defs>
     <use xlink:href="#DejaVuSans-41"/>
     <use xlink:href="#DejaVuSans-73" transform="translate(68.408203 0)"/>
     <use xlink:href="#DejaVuSans-73" transform="translate(120.507812 0)"/>
     <use xlink:href="#DejaVuSans-75" transform="translate(172.607422 0)"/>
     <use xlink:href="#DejaVuSans-6d" transform="translate(235.986328 0)"/>
     <use xlink:href="#DejaVuSans-70" transform="translate(333.398438 0)"/>
     <use xlink:href="#DejaVuSans-74" transform="translate(396.875 0)"/>
     <use xlink:href="#DejaVuSans-69" transform="translate(436.083984 0)"/>
     <use xlink:href="#DejaVuSans-6f" transform="translate(463.867188 0)"/>
     <use xlink:href="#DejaVuSans-6e" transform="translate(525.048828 0)"/>
     <use xlink:href="#DejaVuSans-20" transform="translate(588.427734 0)"/>
     <use xlink:href="#DejaVuSans-4c" transform="translate(620.214844 0)"/>
     <use xlink:href="#DejaVuSans-65" transform="translate(674.177734 0)"/>
     <use xlink:href="#DejaVuSans-64" transform="translate(735.701172 0)"/>
     <use xlink:href="#DejaVuSans-67" transform="translate(799.177734 0)"/>
     <use xlink:href="#DejaVuSans-65" transform="translate(862.654297 0)"/>
     <use xlink:href="#DejaVuSans-72" transform="translate(924.177734 0)"/>
     <use xlink:href="#DejaVuSans-3a" transform="translate(963.541016 0)"/>
     <use xlink:href="#DejaVuSans-20" transform="translate(997.232422 0)"/>
     <use xlink:href="#DejaVuSans-45" transform="translate(1029.019531 0)"/>
     <use xlink:href="#DejaVuSans-70" transform="translate(1092.203125 0)"/>
     <use xlink:href="#DejaVuSans-69" transform="translate(1155.679688 0)"/>
     <use xlink:href="#DejaVuSans-73" transform="translate(1183.462891 0)"/>
     <use xlink:href="#DejaVuSans-74" transform="translate(1235.5625 0)"/>
     <use xlink:href="#DejaVuSans-65" transform="translate(1274.771484 0)"/>
     <use xlink:href="#DejaVuSans-6d" transform="translate(1336.294922 0)"/>
     <use xlink:href="#DejaVuSans-69" transform="translate(1433.707031 0)"/>
     <use xlink:href="#DejaVuSans-63" transform="translate(1461.490234 0)"/>
     <use xlink:href="#DejaVuSans-20" transform="translate(1516.470703 0)"/>
     <use xlink:href="#DejaVuSans-43" transform="translate(1548.257812 0)"/>
     <use xlink:href="#DejaVuSans-61" transform="translate(1618.082031 0)"/>
     <use xlink:href="#DejaVuSans-74" transform="translate(1679.361328 0)"/>
     <use xlink:href="#DejaVuSans-65" transform="translate(1718.570312 0)"/>
     <use xlink:href="#DejaVuSans-67" transform="translate(1780.09375 0)"/>
     <use xlink:href="#DejaVuSans-6f" transform="translate(1843.570312 0)"/>
     <use xlink:href="#DejaVuSans-72" transform="translate(1904.751953 0)"/>
     <use xlink:href="#DejaVuSans-69" transform="translate(1945.865234 0)"/>
     <use xlink:href="#DejaVuSans-65" transform="translate(1973.648438 0)"/>
     <use xlink:href="#DejaVuSans-73" transform="translate(2035.171875 0)"/>
     <use xlink:href="#DejaVuSans-20" transform="translate(2087.271484 0)"/>
     <use xlink:href="#DejaVuSans-28" transform="translate(2119.058594 0)"/>
     <use xlink:href="#DejaVuSans-73" transform="translate(2158.072266 0)"/>
     <use xlink:href="#DejaVuSans-63" transform="translate(2210.171875 0)"/>
     <use xlink:href="#DejaVuSans-68" transform="translate(2265.152344 0)"/>
     <use xlink:href="#DejaVuSans-65" transform="translate(2328.53125 0)"/>
     <use xlink:href="#DejaVuSans-6d" transform="translate(2390.054688 0)"/>
     <use xlink:href="#DejaVuSans-61" transform="translate(2487.466797 0)"/>
     <use xlink:href="#DejaVuSans-74" transform="translate(2548.746094 0)"/>
     <use xlink:href="#DejaVuSans-69" transform="translate(2587.955078 0)"/>
     <use xlink:href="#DejaVuSans-63" transform="translate(2615.738281 0)"/>
     <use xlink:href="#DejaVuSans-29" transform="translate(2670.71875 0)"/>
    </g>
   </g>
  </g>
 </g>
 <defs>
  <clipPath id="p23c3248997">
   <rect x="7.2" y="29.837812" width="770.4" height="423.84"/>
  </clipPath>
 </defs>
</svg>
