<?xml version="1.0" encoding="utf-8" standalone="no"?>
<!DOCTYPE svg PUBLIC "-//W3C//DTD SVG 1.1//EN"
  "http://www.w3.org/Graphics/SVG/1.1/DTD/svg11.dtd">
<svg xmlns:xlink="http://www.w3.org/1999/xlink" width="784.8pt" height="496.877812pt" viewBox="0 0 784.8 496.877812" xmlns="http://www.w3.org/2000/svg" version="1.1">
 <metadata>
  <rdf:RDF xmlns:dc="http://purl.org/dc/elements/1.1/" xmlns:cc="http://creativecommons.org/ns#" xmlns:rdf="http://www.w3.org/1999/02/22-rdf-syntax-ns#">
   <cc:Work>
    <dc:type rdf:resource="http://purl.org/dc/dcmitype/StillImage"/>
    <dc:date>2026-01-02T18:44:42.479556</dc:date>
    <dc:format>image/svg+xml</dc:format>
    <dc:creator>
     <cc:Agent>
      <dc:title>Matplotlib v3.10.8, https://matplotlib.org/</dc:title>
     </cc:Agent>
    </dc:creator>
   </cc:Work>
  </rdf:RDF>
 </metadata>
 <defs>
  <style type="text/css">*{stroke-linejoin: round; stroke-linecap: butt}</style>
 </defs>
 <g id="figure_1">
  <g id="patch_1">
   <path d="M 0 496.877812 
L 784.8 496.877812 
L 784.8 0 
L 0 0 
z
" style="fill: #ffffff"/>
  </g>
  <g id="axes_1">
   <g id="patch_2">
    <path d="M 35.214545 119.83507 
L 203.301818 119.83507 
Q 204.702545 119.83507 204.702545 118.521241 
L 204.702545 59.398955 
Q 204.702545 58.085127 203.301818 58.085127 
L 35.214545 58.085127 
Q 33.813818 58.085127 33.813818 59.398955 
L 33.813818 118.521241 
Q 33.813818 119.83507 35.214545 119.83507 
z
" clip-path="url(#pd3bc7202d8)" style="fill: #9b59b6; opacity: 0.14; stroke: #9b59b6; stroke-width: 2.5; stroke-linejoin: miter"/>
   </g>
   <g id="patch_3">
    <path d="M 189.294545 119.83507 
L 357.381818 119.83507 
Q 358.782545 119.83507 358.782545 118.521241 
L 358.782545 59.398955 
Q 358.782545 58.085127 357.381818 58.085127 
L 189.294545 58.085127 
Q 187.893818 58.085127 187.893818 59.398955 
L 187.893818 118.521241 
Q 187.893818 119.83507 189.294545 119.83507 
z
" clip-path="url(#pd3bc7202d8)" style="fill: #9b59b6; opacity: 0.14; stroke: #9b59b6; stroke-width: 2.5; stroke-linejoin: miter"/>
   </g>
   <g id="patch_4">
    <path d="M 343.374545 119.83507 
L 511.461818 119.83507 
Q 512.862545 119.83507 512.862545 118.521241 
L 512.862545 59.398955 
Q 512.862545 58.085127 511.461818 58.085127 
L 343.374545 58.085127 
Q 341.973818 58.085127 341.973818 59.398955 
L 341.973818 118.521241 
Q 341.973818 119.83507 343.374545 119.83507 
z
" clip-path="url(#pd3bc7202d8)" style="fill: #9b59b6; opacity: 0.14; stroke: #9b59b6; stroke-width: 2.5; stroke-linejoin: miter"/>
   </g>
   <g id="patch_5">
    <path d="M 497.454545 119.83507 
L 665.541818 119.83507 
Q 666.942545 119.83507 666.942545 118.521241 
L 666.942545 59.398955 
Q 666.942545 58.085127 665.541818 58.085127 
L 497.454545 58.085127 
Q 496.053818 58.085127 496.053818 59.398955 
L 496.053818 118.521241 
Q 496.053818 119.83507 497.454545 119.83507 
z
" clip-path="url(#pd3bc7202d8)" style="fill: #9b59b6; opacity: 0.14; stroke: #9b59b6; stroke-width: 2.5; stroke-linejoin: miter"/>
   </g>
   <g id="patch_6">
    <path d="M 77.236364 251.217927 
L 245.323636 251.217927 
Q 246.724364 251.217927 246.724364 249.904098 
L 246.724364 190.781813 
Q 246.724364 189.467984 245.323636 189.467984 
L 77.236364 189.467984 
Q 75.835636 189.467984 75.835636 190.781813 
L 75.835636 249.904098 
Q 75.835636 251.217927 77.236364 251.217927 
z
" clip-path="url(#pd3bc7202d8)" style="fill: #f39c12; opacity: 0.14; stroke: #f39c12; stroke-width: 2.5; stroke-linejoin: miter"/>
   </g>
   <g id="patch_7">
    <path d="M 217.309091 251.217927 
L 385.396364 251.217927 
Q 386.797091 251.217927 386.797091 249.904098 
L 386.797091 190.781813 
Q 386.797091 189.467984 385.396364 189.467984 
L 217.309091 189.467984 
Q 215.908364 189.467984 215.908364 190.781813 
L 215.908364 249.904098 
Q 215.908364 251.217927 217.309091 251.217927 
z
" clip-path="url(#pd3bc7202d8)" style="fill: #2ecc71; opacity: 0.14; stroke: #2ecc71; stroke-width: 2.5; stroke-linejoin: miter"/>
   </g>
   <g id="patch_8">
    <path d="M 357.381818 251.217927 
L 525.469091 251.217927 
Q 526.869818 251.217927 526.869818 249.904098 
L 526.869818 190.781813 
Q 526.869818 189.467984 525.469091 189.467984 
L 357.381818 189.467984 
Q 355.981091 189.467984 355.981091 190.781813 
L 355.981091 249.904098 
Q 355.981091 251.217927 357.381818 251.217927 
z
" clip-path="url(#pd3bc7202d8)" style="fill: #2ecc71; opacity: 0.14; stroke: #2ecc71; stroke-width: 2.5; stroke-linejoin: miter"/>
   </g>
   <g id="patch_9">
    <path d="M 497.454545 251.217927 
L 665.541818 251.217927 
Q 666.942545 251.217927 666.942545 249.904098 
L 666.942545 190.781813 
Q 666.942545 189.467984 665.541818 189.467984 
L 497.454545 189.467984 
Q 496.053818 189.467984 496.053818 190.781813 
L 496.053818 249.904098 
Q 496.053818 251.217927 497.454545 251.217927 
z
" clip-path="url(#pd3bc7202d8)" style="fill: #f39c12; opacity: 0.14; stroke: #f39c12; stroke-width: 2.5; stroke-linejoin: miter"/>
   </g>
   <g id="patch_10">
    <path d="M 147.272727 382.600784 
L 315.36 382.600784 
Q 316.760727 382.600784 316.760727 381.286955 
L 316.760727 322.16467 
Q 316.760727 320.850841 315.36 320.850841 
L 147.272727 320.850841 
Q 145.872 320.850841 145.872 322.16467 
L 145.872 381.286955 
Q 145.872 382.600784 147.272727 382.600784 
z
" clip-path="url(#pd3bc7202d8)" style="fill: #95a5a6; opacity: 0.14; stroke: #95a5a6; stroke-width: 2.5; stroke-linejoin: miter"/>
   </g>
   <g id="patch_11">
    <path d="M 343.374545 382.600784 
L 511.461818 382.600784 
Q 512.862545 382.600784 512.862545 381.286955 
L 512.862545 322.16467 
Q 512.862545 320.850841 511.461818 320.850841 
L 343.374545 320.850841 
Q 341.973818 320.850841 341.973818 322.16467 
L 341.973818 381.286955 
Q 341.973818 382.600784 343.374545 382.600784 
z
" clip-path="url(#pd3bc7202d8)" style="fill: #95a5a6; opacity: 0.14; stroke: #95a5a6; stroke-width: 2.5; stroke-linejoin: miter"/>
   </g>
   <g id="patch_12">
    <path d="M 525.469091 382.600784 
L 693.556364 382.600784 
Q 694.957091 382.600784 694.957091 381.286955 
L 694.957091 322.16467 
Q 694.957091 320.850841 693.556364 320.850841 
L 525.469091 320.850841 
Q 524.068364 320.850841 524.068364 322.16467 
L 524.068364 381.286955 
Q 524.068364 382.600784 525.469091 382.600784 
z
" clip-path="url(#pd3bc7202d8)" style="fill: #95a5a6; opacity: 0.14; stroke: #95a5a6; stroke-width: 2.5; stroke-linejoin: miter"/>
   </g>
   <g id="text_1">
    <!-- b₃=7 -->
    <g style="fill: #2c3e50" transform="translate(108.508182 91.167598) scale(0.08 -0.08)">
     <defs>
      <path id="DejaVuSans-Bold-62" d="M 2400 722 
Q 2759 722 2948 984 
Q 3138 1247 3138 1747 
Q 3138 2247 2948 2509 
Q 2759 2772 2400 2772 
Q 2041 2772 1848 2508 
Q 1656 2244 1656 1747 
Q 1656 1250 1848 986 
Q 2041 722 2400 722 
z
M 1656 2988 
Q 1888 3294 2169 3439 
Q 2450 3584 2816 3584 
Q 3463 3584 3878 3070 
Q 4294 2556 4294 1747 
Q 4294 938 3878 423 
Q 3463 -91 2816 -91 
Q 2450 -91 2169 54 
Q 1888 200 1656 506 
L 1656 0 
L 538 0 
L 538 4863 
L 1656 4863 
L 1656 2988 
z
" transform="scale(0.015625)"/>
      <path id="DejaVuSans-Bold-2083" d="M 1850 1388 
Q 2138 1332 2297 1160 
Q 2456 988 2456 735 
Q 2456 332 2147 130 
Q 1838 -71 1209 -71 
Q 956 -71 725 -35 
Q 494 1 281 69 
L 281 613 
Q 488 501 688 443 
Q 888 385 1075 385 
Q 1372 385 1534 485 
Q 1697 585 1697 769 
Q 1697 969 1530 1064 
Q 1363 1160 1006 1160 
L 775 1160 
L 775 1588 
L 1038 1588 
Q 1344 1588 1484 1661 
Q 1625 1735 1625 1894 
Q 1625 2035 1503 2105 
Q 1381 2176 1131 2176 
Q 969 2176 776 2135 
Q 584 2094 366 2010 
L 366 2529 
Q 569 2582 805 2610 
Q 1041 2638 1313 2638 
Q 1834 2638 2111 2463 
Q 2388 2288 2388 1960 
Q 2388 1744 2247 1594 
Q 2106 1444 1850 1388 
z
" transform="scale(0.015625)"/>
      <path id="DejaVuSans-Bold-3d" d="M 678 3084 
L 4684 3084 
L 4684 2350 
L 678 2350 
L 678 3084 
z
M 678 1663 
L 4684 1663 
L 4684 922 
L 678 922 
L 678 1663 
z
" transform="scale(0.015625)"/>
      <path id="DejaVuSans-Bold-37" d="M 428 4666 
L 3944 4666 
L 3944 3988 
L 2125 0 
L 953 0 
L 2675 3781 
L 428 3781 
L 428 4666 
z
" transform="scale(0.015625)"/>
     </defs>
     <use xlink:href="#DejaVuSans-Bold-62"/>
     <use xlink:href="#DejaVuSans-Bold-2083" transform="translate(71.582031 0)"/>
     <use xlink:href="#DejaVuSans-Bold-3d" transform="translate(115.380859 0)"/>
     <use xlink:href="#DejaVuSans-Bold-37" transform="translate(199.169922 0)"/>
    </g>
   </g>
   <g id="text_2">
    <!-- N_c=3 -->
    <g style="fill: #2c3e50" transform="translate(259.484432 90.985723) scale(0.08 -0.08)">
     <defs>
      <path id="DejaVuSans-Bold-4e" d="M 588 4666 
L 1931 4666 
L 3628 1466 
L 3628 4666 
L 4769 4666 
L 4769 0 
L 3425 0 
L 1728 3200 
L 1728 0 
L 588 0 
L 588 4666 
z
" transform="scale(0.015625)"/>
      <path id="DejaVuSans-Bold-5f" d="M 3200 -916 
L 3200 -1509 
L 0 -1509 
L 0 -916 
L 3200 -916 
z
" transform="scale(0.015625)"/>
      <path id="DejaVuSans-Bold-63" d="M 3366 3391 
L 3366 2478 
Q 3138 2634 2908 2709 
Q 2678 2784 2431 2784 
Q 1963 2784 1702 2511 
Q 1441 2238 1441 1747 
Q 1441 1256 1702 982 
Q 1963 709 2431 709 
Q 2694 709 2930 787 
Q 3166 866 3366 1019 
L 3366 103 
Q 3103 6 2833 -42 
Q 2563 -91 2291 -91 
Q 1344 -91 809 395 
Q 275 881 275 1747 
Q 275 2613 809 3098 
Q 1344 3584 2291 3584 
Q 2566 3584 2833 3536 
Q 3100 3488 3366 3391 
z
" transform="scale(0.015625)"/>
      <path id="DejaVuSans-Bold-33" d="M 2981 2516 
Q 3453 2394 3698 2092 
Q 3944 1791 3944 1325 
Q 3944 631 3412 270 
Q 2881 -91 1863 -91 
Q 1503 -91 1142 -33 
Q 781 25 428 141 
L 428 1069 
Q 766 900 1098 814 
Q 1431 728 1753 728 
Q 2231 728 2486 893 
Q 2741 1059 2741 1369 
Q 2741 1688 2480 1852 
Q 2219 2016 1709 2016 
L 1228 2016 
L 1228 2791 
L 1734 2791 
Q 2188 2791 2409 2933 
Q 2631 3075 2631 3366 
Q 2631 3634 2415 3781 
Q 2200 3928 1806 3928 
Q 1516 3928 1219 3862 
Q 922 3797 628 3669 
L 628 4550 
Q 984 4650 1334 4700 
Q 1684 4750 2022 4750 
Q 2931 4750 3382 4451 
Q 3834 4153 3834 3553 
Q 3834 3144 3618 2883 
Q 3403 2622 2981 2516 
z
" transform="scale(0.015625)"/>
     </defs>
     <use xlink:href="#DejaVuSans-Bold-4e"/>
     <use xlink:href="#DejaVuSans-Bold-5f" transform="translate(83.691406 0)"/>
     <use xlink:href="#DejaVuSans-Bold-63" transform="translate(133.691406 0)"/>
     <use xlink:href="#DejaVuSans-Bold-3d" transform="translate(192.96875 0)"/>
     <use xlink:href="#DejaVuSans-Bold-33" transform="translate(276.757812 0)"/>
    </g>
   </g>
   <g id="text_3">
    <!-- n_eff=13 -->
    <g style="fill: #2c3e50" transform="translate(407.459432 91.056348) scale(0.08 -0.08)">
     <defs>
      <path id="DejaVuSans-Bold-6e" d="M 4056 2131 
L 4056 0 
L 2931 0 
L 2931 347 
L 2931 1631 
Q 2931 2084 2911 2256 
Q 2891 2428 2841 2509 
Q 2775 2619 2662 2680 
Q 2550 2741 2406 2741 
Q 2056 2741 1856 2470 
Q 1656 2200 1656 1722 
L 1656 0 
L 538 0 
L 538 3500 
L 1656 3500 
L 1656 2988 
Q 1909 3294 2193 3439 
Q 2478 3584 2822 3584 
Q 3428 3584 3742 3212 
Q 4056 2841 4056 2131 
z
" transform="scale(0.015625)"/>
      <path id="DejaVuSans-Bold-65" d="M 4031 1759 
L 4031 1441 
L 1416 1441 
Q 1456 1047 1700 850 
Q 1944 653 2381 653 
Q 2734 653 3104 758 
Q 3475 863 3866 1075 
L 3866 213 
Q 3469 63 3072 -14 
Q 2675 -91 2278 -91 
Q 1328 -91 801 392 
Q 275 875 275 1747 
Q 275 2603 792 3093 
Q 1309 3584 2216 3584 
Q 3041 3584 3536 3087 
Q 4031 2591 4031 1759 
z
M 2881 2131 
Q 2881 2450 2695 2645 
Q 2509 2841 2209 2841 
Q 1884 2841 1681 2658 
Q 1478 2475 1428 2131 
L 2881 2131 
z
" transform="scale(0.015625)"/>
      <path id="DejaVuSans-Bold-66" d="M 2841 4863 
L 2841 4128 
L 2222 4128 
Q 1984 4128 1890 4042 
Q 1797 3956 1797 3744 
L 1797 3500 
L 2753 3500 
L 2753 2700 
L 1797 2700 
L 1797 0 
L 678 0 
L 678 2700 
L 122 2700 
L 122 3500 
L 678 3500 
L 678 3744 
Q 678 4316 997 4589 
Q 1316 4863 1984 4863 
L 2841 4863 
z
" transform="scale(0.015625)"/>
      <path id="DejaVuSans-Bold-31" d="M 750 831 
L 1813 831 
L 1813 3847 
L 722 3622 
L 722 4441 
L 1806 4666 
L 2950 4666 
L 2950 831 
L 4013 831 
L 4013 0 
L 750 0 
L 750 831 
z
" transform="scale(0.015625)"/>
     </defs>
     <use xlink:href="#DejaVuSans-Bold-6e"/>
     <use xlink:href="#DejaVuSans-Bold-5f" transform="translate(71.191406 0)"/>
     <use xlink:href="#DejaVuSans-Bold-65" transform="translate(121.191406 0)"/>
     <use xlink:href="#DejaVuSans-Bold-66" transform="translate(189.013672 0)"/>
     <use xlink:href="#DejaVuSans-Bold-66" transform="translate(232.519531 0)"/>
     <use xlink:href="#DejaVuSans-Bold-3d" transform="translate(276.025391 0)"/>
     <use xlink:href="#DejaVuSans-Bold-31" transform="translate(359.814453 0)"/>
     <use xlink:href="#DejaVuSans-Bold-33" transform="translate(429.394531 0)"/>
    </g>
   </g>
   <g id="text_4">
    <!-- N_base=4 -->
    <g style="fill: #2c3e50" transform="translate(559.359432 91.056348) scale(0.08 -0.08)">
     <defs>
      <path id="DejaVuSans-Bold-61" d="M 2106 1575 
Q 1756 1575 1579 1456 
Q 1403 1338 1403 1106 
Q 1403 894 1545 773 
Q 1688 653 1941 653 
Q 2256 653 2472 879 
Q 2688 1106 2688 1447 
L 2688 1575 
L 2106 1575 
z
M 3816 1997 
L 3816 0 
L 2688 0 
L 2688 519 
Q 2463 200 2181 54 
Q 1900 -91 1497 -91 
Q 953 -91 614 226 
Q 275 544 275 1050 
Q 275 1666 698 1953 
Q 1122 2241 2028 2241 
L 2688 2241 
L 2688 2328 
Q 2688 2594 2478 2717 
Q 2269 2841 1825 2841 
Q 1466 2841 1156 2769 
Q 847 2697 581 2553 
L 581 3406 
Q 941 3494 1303 3539 
Q 1666 3584 2028 3584 
Q 2975 3584 3395 3211 
Q 3816 2838 3816 1997 
z
" transform="scale(0.015625)"/>
      <path id="DejaVuSans-Bold-73" d="M 3272 3391 
L 3272 2541 
Q 2913 2691 2578 2766 
Q 2244 2841 1947 2841 
Q 1628 2841 1473 2761 
Q 1319 2681 1319 2516 
Q 1319 2381 1436 2309 
Q 1553 2238 1856 2203 
L 2053 2175 
Q 2913 2066 3209 1816 
Q 3506 1566 3506 1031 
Q 3506 472 3093 190 
Q 2681 -91 1863 -91 
Q 1516 -91 1145 -36 
Q 775 19 384 128 
L 384 978 
Q 719 816 1070 734 
Q 1422 653 1784 653 
Q 2113 653 2278 743 
Q 2444 834 2444 1013 
Q 2444 1163 2330 1236 
Q 2216 1309 1875 1350 
L 1678 1375 
Q 931 1469 631 1722 
Q 331 1975 331 2491 
Q 331 3047 712 3315 
Q 1094 3584 1881 3584 
Q 2191 3584 2531 3537 
Q 2872 3491 3272 3391 
z
" transform="scale(0.015625)"/>
      <path id="DejaVuSans-Bold-34" d="M 2356 3675 
L 1038 1722 
L 2356 1722 
L 2356 3675 
z
M 2156 4666 
L 3494 4666 
L 3494 1722 
L 4159 1722 
L 4159 850 
L 3494 850 
L 3494 0 
L 2356 0 
L 2356 850 
L 288 850 
L 288 1881 
L 2156 4666 
z
" transform="scale(0.015625)"/>
     </defs>
     <use xlink:href="#DejaVuSans-Bold-4e"/>
     <use xlink:href="#DejaVuSans-Bold-5f" transform="translate(83.691406 0)"/>
     <use xlink:href="#DejaVuSans-Bold-62" transform="translate(133.691406 0)"/>
     <use xlink:href="#DejaVuSans-Bold-61" transform="translate(205.273438 0)"/>
     <use xlink:href="#DejaVuSans-Bold-73" transform="translate(272.753906 0)"/>
     <use xlink:href="#DejaVuSans-Bold-65" transform="translate(332.275391 0)"/>
     <use xlink:href="#DejaVuSans-Bold-3d" transform="translate(400.097656 0)"/>
     <use xlink:href="#DejaVuSans-Bold-34" transform="translate(483.886719 0)"/>
    </g>
   </g>
   <g id="text_5">
    <!-- α -->
    <g style="fill: #2c3e50" transform="translate(158.531875 222.550455) scale(0.08 -0.08)">
     <defs>
      <path id="DejaVuSans-Bold-3b1" d="M 3006 3163 
L 3119 3500 
L 4088 3500 
L 3484 1697 
L 3569 1219 
Q 3659 703 3872 703 
L 4128 703 
L 4128 0 
L 3809 0 
Q 3313 0 3059 263 
Q 3003 322 2988 353 
Q 2838 163 2689 39 
Q 2541 -84 1763 -78 
Q 988 -72 648 400 
Q 309 872 309 1794 
Q 309 2713 663 3088 
Q 1109 3569 1966 3578 
Q 2688 3588 3006 3163 
z
M 2575 1841 
L 2481 2350 
Q 2394 2825 1981 2828 
Q 1772 2828 1598 2558 
Q 1425 2288 1425 1741 
Q 1425 1191 1581 944 
Q 1738 697 1969 691 
Q 2213 684 2363 1163 
L 2575 1841 
z
" transform="scale(0.015625)"/>
     </defs>
     <use xlink:href="#DejaVuSans-Bold-3b1"/>
    </g>
   </g>
   <g id="text_6">
    <!-- K_B -->
    <g style="fill: #2c3e50" transform="translate(293.204602 222.327955) scale(0.08 -0.08)">
     <defs>
      <path id="DejaVuSans-Bold-4b" d="M 588 4666 
L 1791 4666 
L 1791 2963 
L 3525 4666 
L 4922 4666 
L 2675 2456 
L 5153 0 
L 3647 0 
L 1791 1838 
L 1791 0 
L 588 0 
L 588 4666 
z
" transform="scale(0.015625)"/>
      <path id="DejaVuSans-Bold-42" d="M 2456 2859 
Q 2741 2859 2887 2984 
Q 3034 3109 3034 3353 
Q 3034 3594 2887 3720 
Q 2741 3847 2456 3847 
L 1791 3847 
L 1791 2859 
L 2456 2859 
z
M 2497 819 
Q 2859 819 3042 972 
Q 3225 1125 3225 1434 
Q 3225 1738 3044 1889 
Q 2863 2041 2497 2041 
L 1791 2041 
L 1791 819 
L 2497 819 
z
M 3616 2497 
Q 4003 2384 4215 2081 
Q 4428 1778 4428 1338 
Q 4428 663 3972 331 
Q 3516 0 2584 0 
L 588 0 
L 588 4666 
L 2394 4666 
Q 3366 4666 3802 4372 
Q 4238 4078 4238 3431 
Q 4238 3091 4078 2852 
Q 3919 2613 3616 2497 
z
" transform="scale(0.015625)"/>
     </defs>
     <use xlink:href="#DejaVuSans-Bold-4b"/>
     <use xlink:href="#DejaVuSans-Bold-5f" transform="translate(77.490234 0)"/>
     <use xlink:href="#DejaVuSans-Bold-42" transform="translate(127.490234 0)"/>
    </g>
   </g>
   <g id="text_7">
    <!-- φ -->
    <g style="fill: #2c3e50" transform="translate(438.296705 222.550455) scale(0.08 -0.08)">
     <defs>
      <path id="DejaVuSans-Bold-3c6" d="M 3216 3531 
Q 3688 3531 4125 3131 
Q 4638 2666 4638 1747 
Q 4638 200 3081 0 
L 3081 -1331 
L 1969 -1331 
L 1969 0 
Q 413 200 413 1747 
Q 413 2609 925 3097 
Q 1347 3500 1872 3500 
L 1872 2784 
Q 1800 2778 1667 2514 
Q 1534 2250 1534 1859 
Q 1534 1113 1969 800 
L 1969 2025 
Q 1969 3531 3216 3531 
z
M 3250 2700 
Q 3081 2681 3081 2025 
L 3081 800 
Q 3500 1103 3516 1859 
Q 3525 2278 3447 2495 
Q 3369 2713 3250 2700 
z
" transform="scale(0.015625)"/>
     </defs>
     <use xlink:href="#DejaVuSans-Bold-3c6"/>
    </g>
   </g>
   <g id="text_8">
    <!-- G_bias -->
    <g style="fill: #2c3e50" transform="translate(566.900682 222.439205) scale(0.08 -0.08)">
     <defs>
      <path id="DejaVuSans-Bold-47" d="M 4781 347 
Q 4331 128 3847 18 
Q 3363 -91 2847 -91 
Q 1681 -91 1000 561 
Q 319 1213 319 2328 
Q 319 3456 1012 4103 
Q 1706 4750 2913 4750 
Q 3378 4750 3804 4662 
Q 4231 4575 4609 4403 
L 4609 3438 
Q 4219 3659 3833 3768 
Q 3447 3878 3059 3878 
Q 2341 3878 1952 3476 
Q 1563 3075 1563 2328 
Q 1563 1588 1938 1184 
Q 2313 781 3003 781 
Q 3191 781 3352 804 
Q 3513 828 3641 878 
L 3641 1784 
L 2906 1784 
L 2906 2591 
L 4781 2591 
L 4781 347 
z
" transform="scale(0.015625)"/>
      <path id="DejaVuSans-Bold-69" d="M 538 3500 
L 1656 3500 
L 1656 0 
L 538 0 
L 538 3500 
z
M 538 4863 
L 1656 4863 
L 1656 3950 
L 538 3950 
L 538 4863 
z
" transform="scale(0.015625)"/>
     </defs>
     <use xlink:href="#DejaVuSans-Bold-47"/>
     <use xlink:href="#DejaVuSans-Bold-5f" transform="translate(82.080078 0)"/>
     <use xlink:href="#DejaVuSans-Bold-62" transform="translate(132.080078 0)"/>
     <use xlink:href="#DejaVuSans-Bold-69" transform="translate(203.662109 0)"/>
     <use xlink:href="#DejaVuSans-Bold-61" transform="translate(237.939453 0)"/>
     <use xlink:href="#DejaVuSans-Bold-73" transform="translate(305.419922 0)"/>
    </g>
   </g>
   <g id="text_9">
    <!-- masses -->
    <g style="fill: #2c3e50" transform="translate(214.593864 349.342937) scale(0.08 -0.08)">
     <defs>
      <path id="DejaVuSans-Bold-6d" d="M 3781 2919 
Q 3994 3244 4286 3414 
Q 4578 3584 4928 3584 
Q 5531 3584 5847 3212 
Q 6163 2841 6163 2131 
L 6163 0 
L 5038 0 
L 5038 1825 
Q 5041 1866 5042 1909 
Q 5044 1953 5044 2034 
Q 5044 2406 4934 2573 
Q 4825 2741 4581 2741 
Q 4263 2741 4089 2478 
Q 3916 2216 3909 1719 
L 3909 0 
L 2784 0 
L 2784 1825 
Q 2784 2406 2684 2573 
Q 2584 2741 2328 2741 
Q 2006 2741 1831 2477 
Q 1656 2213 1656 1722 
L 1656 0 
L 531 0 
L 531 3500 
L 1656 3500 
L 1656 2988 
Q 1863 3284 2130 3434 
Q 2397 3584 2719 3584 
Q 3081 3584 3359 3409 
Q 3638 3234 3781 2919 
z
" transform="scale(0.015625)"/>
     </defs>
     <use xlink:href="#DejaVuSans-Bold-6d"/>
     <use xlink:href="#DejaVuSans-Bold-61" transform="translate(104.199219 0)"/>
     <use xlink:href="#DejaVuSans-Bold-73" transform="translate(171.679688 0)"/>
     <use xlink:href="#DejaVuSans-Bold-73" transform="translate(231.201172 0)"/>
     <use xlink:href="#DejaVuSans-Bold-65" transform="translate(290.722656 0)"/>
     <use xlink:href="#DejaVuSans-Bold-73" transform="translate(358.544922 0)"/>
    </g>
    <!-- (m_e, m_p, m_W, …) -->
    <g style="fill: #2c3e50" transform="translate(186.756989 358.301187) scale(0.08 -0.08)">
     <defs>
      <path id="DejaVuSans-Bold-28" d="M 2413 -844 
L 1484 -844 
Q 1006 -72 778 623 
Q 550 1319 550 2003 
Q 550 2688 779 3389 
Q 1009 4091 1484 4856 
L 2413 4856 
Q 2013 4116 1813 3408 
Q 1613 2700 1613 2009 
Q 1613 1319 1811 609 
Q 2009 -100 2413 -844 
z
" transform="scale(0.015625)"/>
      <path id="DejaVuSans-Bold-2c" d="M 653 1209 
L 1778 1209 
L 1778 256 
L 1006 -909 
L 341 -909 
L 653 256 
L 653 1209 
z
" transform="scale(0.015625)"/>
      <path id="DejaVuSans-Bold-20" transform="scale(0.015625)"/>
      <path id="DejaVuSans-Bold-70" d="M 1656 506 
L 1656 -1331 
L 538 -1331 
L 538 3500 
L 1656 3500 
L 1656 2988 
Q 1888 3294 2169 3439 
Q 2450 3584 2816 3584 
Q 3463 3584 3878 3070 
Q 4294 2556 4294 1747 
Q 4294 938 3878 423 
Q 3463 -91 2816 -91 
Q 2450 -91 2169 54 
Q 1888 200 1656 506 
z
M 2400 2772 
Q 2041 2772 1848 2508 
Q 1656 2244 1656 1747 
Q 1656 1250 1848 986 
Q 2041 722 2400 722 
Q 2759 722 2948 984 
Q 3138 1247 3138 1747 
Q 3138 2247 2948 2509 
Q 2759 2772 2400 2772 
z
" transform="scale(0.015625)"/>
      <path id="DejaVuSans-Bold-57" d="M 191 4666 
L 1344 4666 
L 2150 1275 
L 2950 4666 
L 4109 4666 
L 4909 1275 
L 5716 4666 
L 6859 4666 
L 5759 0 
L 4372 0 
L 3525 3547 
L 2688 0 
L 1300 0 
L 191 4666 
z
" transform="scale(0.015625)"/>
      <path id="DejaVuSans-Bold-2026" d="M 4769 1209 
L 5894 1209 
L 5894 0 
L 4769 0 
L 4769 1209 
z
M 506 1209 
L 1631 1209 
L 1631 0 
L 506 0 
L 506 1209 
z
M 2638 1209 
L 3763 1209 
L 3763 0 
L 2638 0 
L 2638 1209 
z
" transform="scale(0.015625)"/>
      <path id="DejaVuSans-Bold-29" d="M 513 -844 
Q 913 -100 1113 609 
Q 1313 1319 1313 2009 
Q 1313 2700 1113 3408 
Q 913 4116 513 4856 
L 1441 4856 
Q 1916 4091 2145 3389 
Q 2375 2688 2375 2003 
Q 2375 1319 2147 623 
Q 1919 -72 1441 -844 
L 513 -844 
z
" transform="scale(0.015625)"/>
     </defs>
     <use xlink:href="#DejaVuSans-Bold-28"/>
     <use xlink:href="#DejaVuSans-Bold-6d" transform="translate(45.703125 0)"/>
     <use xlink:href="#DejaVuSans-Bold-5f" transform="translate(149.902344 0)"/>
     <use xlink:href="#DejaVuSans-Bold-65" transform="translate(199.902344 0)"/>
     <use xlink:href="#DejaVuSans-Bold-2c" transform="translate(267.724609 0)"/>
     <use xlink:href="#DejaVuSans-Bold-20" transform="translate(305.712891 0)"/>
     <use xlink:href="#DejaVuSans-Bold-6d" transform="translate(340.527344 0)"/>
     <use xlink:href="#DejaVuSans-Bold-5f" transform="translate(444.726562 0)"/>
     <use xlink:href="#DejaVuSans-Bold-70" transform="translate(494.726562 0)"/>
     <use xlink:href="#DejaVuSans-Bold-2c" transform="translate(566.308594 0)"/>
     <use xlink:href="#DejaVuSans-Bold-20" transform="translate(604.296875 0)"/>
     <use xlink:href="#DejaVuSans-Bold-6d" transform="translate(639.111328 0)"/>
     <use xlink:href="#DejaVuSans-Bold-5f" transform="translate(743.310547 0)"/>
     <use xlink:href="#DejaVuSans-Bold-57" transform="translate(793.310547 0)"/>
     <use xlink:href="#DejaVuSans-Bold-2c" transform="translate(895.488281 0)"/>
     <use xlink:href="#DejaVuSans-Bold-20" transform="translate(933.476562 0)"/>
     <use xlink:href="#DejaVuSans-Bold-2026" transform="translate(968.291016 0)"/>
     <use xlink:href="#DejaVuSans-Bold-29" transform="translate(1068.291016 0)"/>
    </g>
   </g>
   <g id="text_10">
    <!-- angles/couplings -->
    <g style="fill: #2c3e50" transform="translate(389.418182 349.274187) scale(0.08 -0.08)">
     <defs>
      <path id="DejaVuSans-Bold-67" d="M 2919 594 
Q 2688 288 2409 144 
Q 2131 0 1766 0 
Q 1125 0 706 504 
Q 288 1009 288 1791 
Q 288 2575 706 3076 
Q 1125 3578 1766 3578 
Q 2131 3578 2409 3434 
Q 2688 3291 2919 2981 
L 2919 3500 
L 4044 3500 
L 4044 353 
Q 4044 -491 3511 -936 
Q 2978 -1381 1966 -1381 
Q 1638 -1381 1331 -1331 
Q 1025 -1281 716 -1178 
L 716 -306 
Q 1009 -475 1290 -558 
Q 1572 -641 1856 -641 
Q 2406 -641 2662 -400 
Q 2919 -159 2919 353 
L 2919 594 
z
M 2181 2772 
Q 1834 2772 1640 2515 
Q 1447 2259 1447 1791 
Q 1447 1309 1634 1061 
Q 1822 813 2181 813 
Q 2531 813 2725 1069 
Q 2919 1325 2919 1791 
Q 2919 2259 2725 2515 
Q 2531 2772 2181 2772 
z
" transform="scale(0.015625)"/>
      <path id="DejaVuSans-Bold-6c" d="M 538 4863 
L 1656 4863 
L 1656 0 
L 538 0 
L 538 4863 
z
" transform="scale(0.015625)"/>
      <path id="DejaVuSans-Bold-2f" d="M 1644 4666 
L 2338 4666 
L 691 -594 
L 0 -594 
L 1644 4666 
z
" transform="scale(0.015625)"/>
      <path id="DejaVuSans-Bold-6f" d="M 2203 2784 
Q 1831 2784 1636 2517 
Q 1441 2250 1441 1747 
Q 1441 1244 1636 976 
Q 1831 709 2203 709 
Q 2569 709 2762 976 
Q 2956 1244 2956 1747 
Q 2956 2250 2762 2517 
Q 2569 2784 2203 2784 
z
M 2203 3584 
Q 3106 3584 3614 3096 
Q 4122 2609 4122 1747 
Q 4122 884 3614 396 
Q 3106 -91 2203 -91 
Q 1297 -91 786 396 
Q 275 884 275 1747 
Q 275 2609 786 3096 
Q 1297 3584 2203 3584 
z
" transform="scale(0.015625)"/>
      <path id="DejaVuSans-Bold-75" d="M 500 1363 
L 500 3500 
L 1625 3500 
L 1625 3150 
Q 1625 2866 1622 2436 
Q 1619 2006 1619 1863 
Q 1619 1441 1641 1255 
Q 1663 1069 1716 984 
Q 1784 875 1895 815 
Q 2006 756 2150 756 
Q 2500 756 2700 1025 
Q 2900 1294 2900 1772 
L 2900 3500 
L 4019 3500 
L 4019 0 
L 2900 0 
L 2900 506 
Q 2647 200 2364 54 
Q 2081 -91 1741 -91 
Q 1134 -91 817 281 
Q 500 653 500 1363 
z
" transform="scale(0.015625)"/>
     </defs>
     <use xlink:href="#DejaVuSans-Bold-61"/>
     <use xlink:href="#DejaVuSans-Bold-6e" transform="translate(67.480469 0)"/>
     <use xlink:href="#DejaVuSans-Bold-67" transform="translate(138.671875 0)"/>
     <use xlink:href="#DejaVuSans-Bold-6c" transform="translate(210.253906 0)"/>
     <use xlink:href="#DejaVuSans-Bold-65" transform="translate(244.53125 0)"/>
     <use xlink:href="#DejaVuSans-Bold-73" transform="translate(312.353516 0)"/>
     <use xlink:href="#DejaVuSans-Bold-2f" transform="translate(371.875 0)"/>
     <use xlink:href="#DejaVuSans-Bold-63" transform="translate(408.398438 0)"/>
     <use xlink:href="#DejaVuSans-Bold-6f" transform="translate(467.675781 0)"/>
     <use xlink:href="#DejaVuSans-Bold-75" transform="translate(536.376953 0)"/>
     <use xlink:href="#DejaVuSans-Bold-70" transform="translate(607.568359 0)"/>
     <use xlink:href="#DejaVuSans-Bold-6c" transform="translate(679.150391 0)"/>
     <use xlink:href="#DejaVuSans-Bold-69" transform="translate(713.427734 0)"/>
     <use xlink:href="#DejaVuSans-Bold-6e" transform="translate(747.705078 0)"/>
     <use xlink:href="#DejaVuSans-Bold-67" transform="translate(818.896484 0)"/>
     <use xlink:href="#DejaVuSans-Bold-73" transform="translate(890.478516 0)"/>
    </g>
    <!-- (sin²θ_W, α_s, …) -->
    <g style="fill: #2c3e50" transform="translate(389.623182 358.369937) scale(0.08 -0.08)">
     <defs>
      <path id="DejaVuSans-Bold-b2" d="M 1288 2613 
L 2444 2613 
L 2444 2088 
L 341 2088 
L 341 2566 
L 1319 3397 
Q 1509 3563 1590 3688 
Q 1672 3813 1672 3938 
Q 1672 4094 1558 4191 
Q 1444 4288 1259 4288 
Q 1066 4288 844 4217 
Q 622 4147 359 4000 
L 359 4581 
Q 631 4666 886 4708 
Q 1141 4750 1375 4750 
Q 1869 4750 2150 4548 
Q 2431 4347 2431 4000 
Q 2431 3775 2320 3586 
Q 2209 3397 1894 3128 
L 1288 2613 
z
" transform="scale(0.015625)"/>
      <path id="DejaVuSans-Bold-3b8" d="M 1447 2081 
Q 1469 1444 1638 1181 
Q 1922 728 2197 725 
Q 2475 722 2763 1181 
Q 2931 1453 2953 2081 
L 1447 2081 
z
M 2950 2881 
Q 2913 3394 2759 3688 
Q 2522 4144 2200 4144 
Q 1875 4144 1641 3688 
Q 1484 3384 1450 2881 
L 2950 2881 
z
M 2200 4913 
Q 3247 4913 3686 4231 
Q 4125 3550 4125 2403 
Q 4125 1256 3673 592 
Q 3222 -72 2200 -72 
Q 1178 -72 726 592 
Q 275 1256 275 2403 
Q 275 3550 714 4231 
Q 1153 4913 2200 4913 
z
" transform="scale(0.015625)"/>
     </defs>
     <use xlink:href="#DejaVuSans-Bold-28"/>
     <use xlink:href="#DejaVuSans-Bold-73" transform="translate(45.703125 0)"/>
     <use xlink:href="#DejaVuSans-Bold-69" transform="translate(105.224609 0)"/>
     <use xlink:href="#DejaVuSans-Bold-6e" transform="translate(139.501953 0)"/>
     <use xlink:href="#DejaVuSans-Bold-b2" transform="translate(210.693359 0)"/>
     <use xlink:href="#DejaVuSans-Bold-3b8" transform="translate(254.492188 0)"/>
     <use xlink:href="#DejaVuSans-Bold-5f" transform="translate(323.193359 0)"/>
     <use xlink:href="#DejaVuSans-Bold-57" transform="translate(373.193359 0)"/>
     <use xlink:href="#DejaVuSans-Bold-2c" transform="translate(475.371094 0)"/>
     <use xlink:href="#DejaVuSans-Bold-20" transform="translate(513.359375 0)"/>
     <use xlink:href="#DejaVuSans-Bold-3b1" transform="translate(548.173828 0)"/>
     <use xlink:href="#DejaVuSans-Bold-5f" transform="translate(616.875 0)"/>
     <use xlink:href="#DejaVuSans-Bold-73" transform="translate(666.875 0)"/>
     <use xlink:href="#DejaVuSans-Bold-2c" transform="translate(726.396484 0)"/>
     <use xlink:href="#DejaVuSans-Bold-20" transform="translate(764.384766 0)"/>
     <use xlink:href="#DejaVuSans-Bold-2026" transform="translate(799.199219 0)"/>
     <use xlink:href="#DejaVuSans-Bold-29" transform="translate(899.199219 0)"/>
    </g>
   </g>
   <g id="text_11">
    <!-- cosmo -->
    <g style="fill: #2c3e50" transform="translate(595.096477 349.454187) scale(0.08 -0.08)">
     <use xlink:href="#DejaVuSans-Bold-63"/>
     <use xlink:href="#DejaVuSans-Bold-6f" transform="translate(59.277344 0)"/>
     <use xlink:href="#DejaVuSans-Bold-73" transform="translate(127.978516 0)"/>
     <use xlink:href="#DejaVuSans-Bold-6d" transform="translate(187.5 0)"/>
     <use xlink:href="#DejaVuSans-Bold-6f" transform="translate(291.699219 0)"/>
    </g>
    <!-- (Λ ~ α⁵⁷) -->
    <g style="fill: #2c3e50" transform="translate(590.372102 358.412438) scale(0.08 -0.08)">
     <defs>
      <path id="DejaVuSans-Bold-39b" d="M 3713 0 
L 2478 3572 
L 1241 0 
L 31 0 
L 1759 4666 
L 3194 4666 
L 4922 0 
L 3713 0 
z
" transform="scale(0.015625)"/>
      <path id="DejaVuSans-Bold-7e" d="M 4684 2656 
L 4684 1894 
Q 4353 1644 4073 1536 
Q 3794 1428 3494 1428 
Q 3159 1428 2713 1609 
Q 2669 1628 2644 1638 
Q 2622 1647 2575 1666 
Q 2091 1856 1797 1856 
Q 1522 1856 1253 1736 
Q 984 1616 678 1356 
L 678 2119 
Q 1013 2369 1291 2476 
Q 1569 2584 1869 2584 
Q 2203 2584 2650 2403 
Q 2697 2384 2719 2375 
Q 2741 2366 2788 2347 
Q 3272 2156 3566 2156 
Q 3834 2156 4098 2273 
Q 4363 2391 4684 2656 
z
" transform="scale(0.015625)"/>
      <path id="DejaVuSans-Bold-2075" d="M 416 4697 
L 2253 4697 
L 2253 4203 
L 1006 4203 
L 1006 3803 
Q 1091 3822 1175 3834 
Q 1259 3847 1353 3847 
Q 1875 3847 2169 3606 
Q 2459 3369 2459 2941 
Q 2459 2513 2144 2278 
Q 1825 2041 1259 2041 
Q 1016 2041 778 2081 
Q 541 2125 303 2213 
L 303 2744 
Q 538 2619 747 2559 
Q 956 2497 1144 2497 
Q 1406 2497 1566 2619 
Q 1722 2738 1722 2941 
Q 1722 3147 1566 3266 
Q 1413 3384 1144 3384 
Q 984 3384 803 3347 
Q 625 3309 416 3231 
L 416 4697 
z
" transform="scale(0.015625)"/>
      <path id="DejaVuSans-Bold-2077" d="M 263 4697 
L 2422 4697 
L 2422 4319 
L 1306 2088 
L 584 2088 
L 1644 4203 
L 263 4203 
L 263 4697 
z
" transform="scale(0.015625)"/>
     </defs>
     <use xlink:href="#DejaVuSans-Bold-28"/>
     <use xlink:href="#DejaVuSans-Bold-39b" transform="translate(45.703125 0)"/>
     <use xlink:href="#DejaVuSans-Bold-20" transform="translate(123.095703 0)"/>
     <use xlink:href="#DejaVuSans-Bold-7e" transform="translate(157.910156 0)"/>
     <use xlink:href="#DejaVuSans-Bold-20" transform="translate(241.699219 0)"/>
     <use xlink:href="#DejaVuSans-Bold-3b1" transform="translate(276.513672 0)"/>
     <use xlink:href="#DejaVuSans-Bold-2075" transform="translate(345.214844 0)"/>
     <use xlink:href="#DejaVuSans-Bold-2077" transform="translate(389.013672 0)"/>
     <use xlink:href="#DejaVuSans-Bold-29" transform="translate(432.8125 0)"/>
    </g>
   </g>
   <g id="patch_13">
    <path d="M 120.264869 120.252337 
Q 140.27051 154.653967 159.714105 188.089106 
" style="fill: none; opacity: 0.8; stroke: #2c3e50; stroke-linecap: round"/>
    <path d="M 159.432183 183.625865 
L 159.714105 188.089106 
L 155.974359 185.636699 
" style="fill: none; opacity: 0.8; stroke: #2c3e50; stroke-linecap: round"/>
   </g>
   <g id="patch_14">
    <path d="M 271.659087 119.604003 
Q 217.309985 154.65095 163.900497 189.091989 
" style="fill: none; opacity: 0.8; stroke: #2c3e50; stroke-linecap: round"/>
    <path d="M 168.346045 188.605056 
L 163.900497 189.091989 
L 166.178279 185.243391 
" style="fill: none; opacity: 0.8; stroke: #2c3e50; stroke-linecap: round"/>
   </g>
   <g id="patch_15">
    <path d="M 425.489232 119.04498 
Q 294.350163 154.651236 164.290065 189.964534 
" style="fill: none; opacity: 0.8; stroke: #2c3e50; stroke-linecap: round"/>
    <path d="M 168.674362 190.84654 
L 164.290065 189.964534 
L 167.626248 186.9863 
" style="fill: none; opacity: 0.8; stroke: #2c3e50; stroke-linecap: round"/>
   </g>
   <g id="patch_16">
    <path d="M 121.117027 119.258886 
Q 210.306692 154.652018 298.457156 189.632763 
" style="fill: none; opacity: 0.8; stroke: #2c3e50; stroke-linecap: round"/>
    <path d="M 295.476898 186.298388 
L 298.457156 189.632763 
L 294.001501 190.016345 
" style="fill: none; opacity: 0.8; stroke: #2c3e50; stroke-linecap: round"/>
   </g>
   <g id="patch_17">
    <path d="M 274.061458 120.386855 
Q 287.344797 154.64983 300.223997 187.87037 
" style="fill: none; opacity: 0.8; stroke: #2c3e50; stroke-linecap: round"/>
    <path d="M 300.642868 183.417894 
L 300.223997 187.87037 
L 296.913338 184.863787 
" style="fill: none; opacity: 0.8; stroke: #2c3e50; stroke-linecap: round"/>
   </g>
   <g id="patch_18">
    <path d="M 429.23086 119.371352 
Q 504.459551 154.652169 578.675998 189.458262 
" style="fill: none; opacity: 0.8; stroke: #2c3e50; stroke-linecap: round"/>
    <path d="M 575.903694 185.949084 
L 578.675998 189.458262 
L 574.205273 189.570598 
" style="fill: none; opacity: 0.8; stroke: #2c3e50; stroke-linecap: round"/>
   </g>
   <g id="patch_19">
    <path d="M 579.724189 119.436406 
Q 511.463246 154.65079 444.195912 189.352592 
" style="fill: none; opacity: 0.8; stroke: #2c3e50; stroke-linecap: round"/>
    <path d="M 448.667692 189.296144 
L 444.195912 189.352592 
L 446.833822 185.7413 
" style="fill: none; opacity: 0.8; stroke: #2c3e50; stroke-linecap: round"/>
   </g>
   <g id="patch_20">
    <path d="M 581.498182 120.519168 
Q 581.498182 154.649128 581.498182 187.661053 
" style="fill: none; opacity: 0.8; stroke: #2c3e50; stroke-linecap: round"/>
    <path d="M 583.498182 183.661053 
L 581.498182 187.661053 
L 579.498182 183.661053 
" style="fill: none; opacity: 0.8; stroke: #2c3e50; stroke-linecap: round"/>
   </g>
   <g id="patch_21">
    <path d="M 162.739803 257.842481 
Q 196.298746 289.319485 229.042229 320.031619 
" style="fill: none; opacity: 0.8; stroke: #2c3e50; stroke-linecap: round"/>
    <path d="M 227.492993 315.836399 
L 229.042229 320.031619 
L 224.756512 318.753875 
" style="fill: none; opacity: 0.8; stroke: #2c3e50; stroke-linecap: round"/>
   </g>
   <g id="patch_22">
    <path d="M 299.892924 257.842481 
Q 266.333981 289.319485 233.590498 320.031619 
" style="fill: none; opacity: 0.8; stroke: #2c3e50; stroke-linecap: round"/>
    <path d="M 237.876215 318.753875 
L 233.590498 320.031619 
L 235.139734 315.836399 
" style="fill: none; opacity: 0.8; stroke: #2c3e50; stroke-linecap: round"/>
   </g>
   <g id="patch_23">
    <path d="M 441.009101 258.425861 
Q 434.422266 289.316853 428.068587 319.114392 
" style="fill: none; opacity: 0.8; stroke: #2c3e50; stroke-linecap: round"/>
    <path d="M 430.858776 315.619417 
L 428.068587 319.114392 
L 426.946721 314.785256 
" style="fill: none; opacity: 0.8; stroke: #2c3e50; stroke-linecap: round"/>
   </g>
   <g id="patch_24">
    <path d="M 582.283013 258.313595 
Q 595.504814 289.317454 608.288038 319.292892 
" style="fill: none; opacity: 0.8; stroke: #2c3e50; stroke-linecap: round"/>
    <path d="M 608.558633 314.82895 
L 608.288038 319.292892 
L 604.879242 316.398051 
" style="fill: none; opacity: 0.8; stroke: #2c3e50; stroke-linecap: round"/>
   </g>
   <g id="text_12">
    <!-- Constants Dependency Graph (schematic) -->
    <g transform="translate(243.72875 17.837812) scale(0.14 -0.14)">
     <defs>
      <path id="DejaVuSans-43" d="M 4122 4306 
L 4122 3641 
Q 3803 3938 3442 4084 
Q 3081 4231 2675 4231 
Q 1875 4231 1450 3742 
Q 1025 3253 1025 2328 
Q 1025 1406 1450 917 
Q 1875 428 2675 428 
Q 3081 428 3442 575 
Q 3803 722 4122 1019 
L 4122 359 
Q 3791 134 3420 21 
Q 3050 -91 2638 -91 
Q 1578 -91 968 557 
Q 359 1206 359 2328 
Q 359 3453 968 4101 
Q 1578 4750 2638 4750 
Q 3056 4750 3426 4639 
Q 3797 4528 4122 4306 
z
" transform="scale(0.015625)"/>
      <path id="DejaVuSans-6f" d="M 1959 3097 
Q 1497 3097 1228 2736 
Q 959 2375 959 1747 
Q 959 1119 1226 758 
Q 1494 397 1959 397 
Q 2419 397 2687 759 
Q 2956 1122 2956 1747 
Q 2956 2369 2687 2733 
Q 2419 3097 1959 3097 
z
M 1959 3584 
Q 2709 3584 3137 3096 
Q 3566 2609 3566 1747 
Q 3566 888 3137 398 
Q 2709 -91 1959 -91 
Q 1206 -91 779 398 
Q 353 888 353 1747 
Q 353 2609 779 3096 
Q 1206 3584 1959 3584 
z
" transform="scale(0.015625)"/>
      <path id="DejaVuSans-6e" d="M 3513 2113 
L 3513 0 
L 2938 0 
L 2938 2094 
Q 2938 2591 2744 2837 
Q 2550 3084 2163 3084 
Q 1697 3084 1428 2787 
Q 1159 2491 1159 1978 
L 1159 0 
L 581 0 
L 581 3500 
L 1159 3500 
L 1159 2956 
Q 1366 3272 1645 3428 
Q 1925 3584 2291 3584 
Q 2894 3584 3203 3211 
Q 3513 2838 3513 2113 
z
" transform="scale(0.015625)"/>
      <path id="DejaVuSans-73" d="M 2834 3397 
L 2834 2853 
Q 2591 2978 2328 3040 
Q 2066 3103 1784 3103 
Q 1356 3103 1142 2972 
Q 928 2841 928 2578 
Q 928 2378 1081 2264 
Q 1234 2150 1697 2047 
L 1894 2003 
Q 2506 1872 2764 1633 
Q 3022 1394 3022 966 
Q 3022 478 2636 193 
Q 2250 -91 1575 -91 
Q 1294 -91 989 -36 
Q 684 19 347 128 
L 347 722 
Q 666 556 975 473 
Q 1284 391 1588 391 
Q 1994 391 2212 530 
Q 2431 669 2431 922 
Q 2431 1156 2273 1281 
Q 2116 1406 1581 1522 
L 1381 1569 
Q 847 1681 609 1914 
Q 372 2147 372 2553 
Q 372 3047 722 3315 
Q 1072 3584 1716 3584 
Q 2034 3584 2315 3537 
Q 2597 3491 2834 3397 
z
" transform="scale(0.015625)"/>
      <path id="DejaVuSans-74" d="M 1172 4494 
L 1172 3500 
L 2356 3500 
L 2356 3053 
L 1172 3053 
L 1172 1153 
Q 1172 725 1289 603 
Q 1406 481 1766 481 
L 2356 481 
L 2356 0 
L 1766 0 
Q 1100 0 847 248 
Q 594 497 594 1153 
L 594 3053 
L 172 3053 
L 172 3500 
L 594 3500 
L 594 4494 
L 1172 4494 
z
" transform="scale(0.015625)"/>
      <path id="DejaVuSans-61" d="M 2194 1759 
Q 1497 1759 1228 1600 
Q 959 1441 959 1056 
Q 959 750 1161 570 
Q 1363 391 1709 391 
Q 2188 391 2477 730 
Q 2766 1069 2766 1631 
L 2766 1759 
L 2194 1759 
z
M 3341 1997 
L 3341 0 
L 2766 0 
L 2766 531 
Q 2569 213 2275 61 
Q 1981 -91 1556 -91 
Q 1019 -91 701 211 
Q 384 513 384 1019 
Q 384 1609 779 1909 
Q 1175 2209 1959 2209 
L 2766 2209 
L 2766 2266 
Q 2766 2663 2505 2880 
Q 2244 3097 1772 3097 
Q 1472 3097 1187 3025 
Q 903 2953 641 2809 
L 641 3341 
Q 956 3463 1253 3523 
Q 1550 3584 1831 3584 
Q 2591 3584 2966 3190 
Q 3341 2797 3341 1997 
z
" transform="scale(0.015625)"/>
      <path id="DejaVuSans-20" transform="scale(0.015625)"/>
      <path id="DejaVuSans-44" d="M 1259 4147 
L 1259 519 
L 2022 519 
Q 2988 519 3436 956 
Q 3884 1394 3884 2338 
Q 3884 3275 3436 3711 
Q 2988 4147 2022 4147 
L 1259 4147 
z
M 628 4666 
L 1925 4666 
Q 3281 4666 3915 4102 
Q 4550 3538 4550 2338 
Q 4550 1131 3912 565 
Q 3275 0 1925 0 
L 628 0 
L 628 4666 
z
" transform="scale(0.015625)"/>
      <path id="DejaVuSans-65" d="M 3597 1894 
L 3597 1613 
L 953 1613 
Q 991 1019 1311 708 
Q 1631 397 2203 397 
Q 2534 397 2845 478 
Q 3156 559 3463 722 
L 3463 178 
Q 3153 47 2828 -22 
Q 2503 -91 2169 -91 
Q 1331 -91 842 396 
Q 353 884 353 1716 
Q 353 2575 817 3079 
Q 1281 3584 2069 3584 
Q 2775 3584 3186 3129 
Q 3597 2675 3597 1894 
z
M 3022 2063 
Q 3016 2534 2758 2815 
Q 2500 3097 2075 3097 
Q 1594 3097 1305 2825 
Q 1016 2553 972 2059 
L 3022 2063 
z
" transform="scale(0.015625)"/>
      <path id="DejaVuSans-70" d="M 1159 525 
L 1159 -1331 
L 581 -1331 
L 581 3500 
L 1159 3500 
L 1159 2969 
Q 1341 3281 1617 3432 
Q 1894 3584 2278 3584 
Q 2916 3584 3314 3078 
Q 3713 2572 3713 1747 
Q 3713 922 3314 415 
Q 2916 -91 2278 -91 
Q 1894 -91 1617 61 
Q 1341 213 1159 525 
z
M 3116 1747 
Q 3116 2381 2855 2742 
Q 2594 3103 2138 3103 
Q 1681 3103 1420 2742 
Q 1159 2381 1159 1747 
Q 1159 1113 1420 752 
Q 1681 391 2138 391 
Q 2594 391 2855 752 
Q 3116 1113 3116 1747 
z
" transform="scale(0.015625)"/>
      <path id="DejaVuSans-64" d="M 2906 2969 
L 2906 4863 
L 3481 4863 
L 3481 0 
L 2906 0 
L 2906 525 
Q 2725 213 2448 61 
Q 2172 -91 1784 -91 
Q 1150 -91 751 415 
Q 353 922 353 1747 
Q 353 2572 751 3078 
Q 1150 3584 1784 3584 
Q 2172 3584 2448 3432 
Q 2725 3281 2906 2969 
z
M 947 1747 
Q 947 1113 1208 752 
Q 1469 391 1925 391 
Q 2381 391 2643 752 
Q 2906 1113 2906 1747 
Q 2906 2381 2643 2742 
Q 2381 3103 1925 3103 
Q 1469 3103 1208 2742 
Q 947 2381 947 1747 
z
" transform="scale(0.015625)"/>
      <path id="DejaVuSans-63" d="M 3122 3366 
L 3122 2828 
Q 2878 2963 2633 3030 
Q 2388 3097 2138 3097 
Q 1578 3097 1268 2742 
Q 959 2388 959 1747 
Q 959 1106 1268 751 
Q 1578 397 2138 397 
Q 2388 397 2633 464 
Q 2878 531 3122 666 
L 3122 134 
Q 2881 22 2623 -34 
Q 2366 -91 2075 -91 
Q 1284 -91 818 406 
Q 353 903 353 1747 
Q 353 2603 823 3093 
Q 1294 3584 2113 3584 
Q 2378 3584 2631 3529 
Q 2884 3475 3122 3366 
z
" transform="scale(0.015625)"/>
      <path id="DejaVuSans-79" d="M 2059 -325 
Q 1816 -950 1584 -1140 
Q 1353 -1331 966 -1331 
L 506 -1331 
L 506 -850 
L 844 -850 
Q 1081 -850 1212 -737 
Q 1344 -625 1503 -206 
L 1606 56 
L 191 3500 
L 800 3500 
L 1894 763 
L 2988 3500 
L 3597 3500 
L 2059 -325 
z
" transform="scale(0.015625)"/>
      <path id="DejaVuSans-47" d="M 3809 666 
L 3809 1919 
L 2778 1919 
L 2778 2438 
L 4434 2438 
L 4434 434 
Q 4069 175 3628 42 
Q 3188 -91 2688 -91 
Q 1594 -91 976 548 
Q 359 1188 359 2328 
Q 359 3472 976 4111 
Q 1594 4750 2688 4750 
Q 3144 4750 3555 4637 
Q 3966 4525 4313 4306 
L 4313 3634 
Q 3963 3931 3569 4081 
Q 3175 4231 2741 4231 
Q 1884 4231 1454 3753 
Q 1025 3275 1025 2328 
Q 1025 1384 1454 906 
Q 1884 428 2741 428 
Q 3075 428 3337 486 
Q 3600 544 3809 666 
z
" transform="scale(0.015625)"/>
      <path id="DejaVuSans-72" d="M 2631 2963 
Q 2534 3019 2420 3045 
Q 2306 3072 2169 3072 
Q 1681 3072 1420 2755 
Q 1159 2438 1159 1844 
L 1159 0 
L 581 0 
L 581 3500 
L 1159 3500 
L 1159 2956 
Q 1341 3275 1631 3429 
Q 1922 3584 2338 3584 
Q 2397 3584 2469 3576 
Q 2541 3569 2628 3553 
L 2631 2963 
z
" transform="scale(0.015625)"/>
      <path id="DejaVuSans-68" d="M 3513 2113 
L 3513 0 
L 2938 0 
L 2938 2094 
Q 2938 2591 2744 2837 
Q 2550 3084 2163 3084 
Q 1697 3084 1428 2787 
Q 1159 2491 1159 1978 
L 1159 0 
L 581 0 
L 581 4863 
L 1159 4863 
L 1159 2956 
Q 1366 3272 1645 3428 
Q 1925 3584 2291 3584 
Q 2894 3584 3203 3211 
Q 3513 2838 3513 2113 
z
" transform="scale(0.015625)"/>
      <path id="DejaVuSans-28" d="M 1984 4856 
Q 1566 4138 1362 3434 
Q 1159 2731 1159 2009 
Q 1159 1288 1364 580 
Q 1569 -128 1984 -844 
L 1484 -844 
Q 1016 -109 783 600 
Q 550 1309 550 2009 
Q 550 2706 781 3412 
Q 1013 4119 1484 4856 
L 1984 4856 
z
" transform="scale(0.015625)"/>
      <path id="DejaVuSans-6d" d="M 3328 2828 
Q 3544 3216 3844 3400 
Q 4144 3584 4550 3584 
Q 5097 3584 5394 3201 
Q 5691 2819 5691 2113 
L 5691 0 
L 5113 0 
L 5113 2094 
Q 5113 2597 4934 2840 
Q 4756 3084 4391 3084 
Q 3944 3084 3684 2787 
Q 3425 2491 3425 1978 
L 3425 0 
L 2847 0 
L 2847 2094 
Q 2847 2600 2669 2842 
Q 2491 3084 2119 3084 
Q 1678 3084 1418 2786 
Q 1159 2488 1159 1978 
L 1159 0 
L 581 0 
L 581 3500 
L 1159 3500 
L 1159 2956 
Q 1356 3278 1631 3431 
Q 1906 3584 2284 3584 
Q 2666 3584 2933 3390 
Q 3200 3197 3328 2828 
z
" transform="scale(0.015625)"/>
      <path id="DejaVuSans-69" d="M 603 3500 
L 1178 3500 
L 1178 0 
L 603 0 
L 603 3500 
z
M 603 4863 
L 1178 4863 
L 1178 4134 
L 603 4134 
L 603 4863 
z
" transform="scale(0.015625)"/>
      <path id="DejaVuSans-29" d="M 513 4856 
L 1013 4856 
Q 1481 4119 1714 3412 
Q 1947 2706 1947 2009 
Q 1947 1309 1714 600 
Q 1481 -109 1013 -844 
L 513 -844 
Q 928 -128 1133 580 
Q 1338 1288 1338 2009 
Q 1338 2731 1133 3434 
Q 928 4138 513 4856 
z
" transform="scale(0.015625)"/>
     </defs>
     <use xlink:href="#DejaVuSans-43"/>
     <use xlink:href="#DejaVuSans-6f" transform="translate(69.824219 0)"/>
     <use xlink:href="#DejaVuSans-6e" transform="translate(131.005859 0)"/>
     <use xlink:href="#DejaVuSans-73" transform="translate(194.384766 0)"/>
     <use xlink:href="#DejaVuSans-74" transform="translate(246.484375 0)"/>
     <use xlink:href="#DejaVuSans-61" transform="translate(285.693359 0)"/>
     <use xlink:href="#DejaVuSans-6e" transform="translate(346.972656 0)"/>
     <use xlink:href="#DejaVuSans-74" transform="translate(410.351562 0)"/>
     <use xlink:href="#DejaVuSans-73" transform="translate(449.560547 0)"/>
     <use xlink:href="#DejaVuSans-20" transform="translate(501.660156 0)"/>
     <use xlink:href="#DejaVuSans-44" transform="translate(533.447266 0)"/>
     <use xlink:href="#DejaVuSans-65" transform="translate(610.449219 0)"/>
     <use xlink:href="#DejaVuSans-70" transform="translate(671.972656 0)"/>
     <use xlink:href="#DejaVuSans-65" transform="translate(735.449219 0)"/>
     <use xlink:href="#DejaVuSans-6e" transform="translate(796.972656 0)"/>
     <use xlink:href="#DejaVuSans-64" transform="translate(860.351562 0)"/>
     <use xlink:href="#DejaVuSans-65" transform="translate(923.828125 0)"/>
     <use xlink:href="#DejaVuSans-6e" transform="translate(985.351562 0)"/>
     <use xlink:href="#DejaVuSans-63" transform="translate(1048.730469 0)"/>
     <use xlink:href="#DejaVuSans-79" transform="translate(1103.710938 0)"/>
     <use xlink:href="#DejaVuSans-20" transform="translate(1162.890625 0)"/>
     <use xlink:href="#DejaVuSans-47" transform="translate(1194.677734 0)"/>
     <use xlink:href="#DejaVuSans-72" transform="translate(1272.167969 0)"/>
     <use xlink:href="#DejaVuSans-61" transform="translate(1313.28125 0)"/>
     <use xlink:href="#DejaVuSans-70" transform="translate(1374.560547 0)"/>
     <use xlink:href="#DejaVuSans-68" transform="translate(1438.037109 0)"/>
     <use xlink:href="#DejaVuSans-20" transform="translate(1501.416016 0)"/>
     <use xlink:href="#DejaVuSans-28" transform="translate(1533.203125 0)"/>
     <use xlink:href="#DejaVuSans-73" transform="translate(1572.216797 0)"/>
     <use xlink:href="#DejaVuSans-63" transform="translate(1624.316406 0)"/>
     <use xlink:href="#DejaVuSans-68" transform="translate(1679.296875 0)"/>
     <use xlink:href="#DejaVuSans-65" transform="translate(1742.675781 0)"/>
     <use xlink:href="#DejaVuSans-6d" transform="translate(1804.199219 0)"/>
     <use xlink:href="#DejaVuSans-61" transform="translate(1901.611328 0)"/>
     <use xlink:href="#DejaVuSans-74" transform="translate(1962.890625 0)"/>
     <use xlink:href="#DejaVuSans-69" transform="translate(2002.099609 0)"/>
     <use xlink:href="#DejaVuSans-63" transform="translate(2029.882812 0)"/>
     <use xlink:href="#DejaVuSans-29" transform="translate(2084.863281 0)"/>
    </g>
   </g>
  </g>
 </g>
 <defs>
  <clipPath id="pd3bc7202d8">
   <rect x="7.2" y="29.837812" width="770.4" height="459.84"/>
  </clipPath>
 </defs>
</svg>
