<?xml version="1.0" encoding="utf-8" standalone="no"?>
<!DOCTYPE svg PUBLIC "-//W3C//DTD SVG 1.1//EN"
  "http://www.w3.org/Graphics/SVG/1.1/DTD/svg11.dtd">
<svg xmlns:xlink="http://www.w3.org/1999/xlink" width="856.8pt" height="424.877812pt" viewBox="0 0 856.8 424.877812" xmlns="http://www.w3.org/2000/svg" version="1.1">
 <metadata>
  <rdf:RDF xmlns:dc="http://purl.org/dc/elements/1.1/" xmlns:cc="http://creativecommons.org/ns#" xmlns:rdf="http://www.w3.org/1999/02/22-rdf-syntax-ns#">
   <cc:Work>
    <dc:type rdf:resource="http://purl.org/dc/dcmitype/StillImage"/>
    <dc:date>2026-01-02T18:44:36.771936</dc:date>
    <dc:format>image/svg+xml</dc:format>
    <dc:creator>
     <cc:Agent>
      <dc:title>Matplotlib v3.10.8, https://matplotlib.org/</dc:title>
     </cc:Agent>
    </dc:creator>
   </cc:Work>
  </rdf:RDF>
 </metadata>
 <defs>
  <style type="text/css">*{stroke-linejoin: round; stroke-linecap: butt}</style>
 </defs>
 <g id="figure_1">
  <g id="patch_1">
   <path d="M 0 424.877812 
L 856.8 424.877812 
L 856.8 0 
L 0 0 
z
" style="fill: #ffffff"/>
  </g>
  <g id="axes_1">
   <g id="patch_2">
    <path d="M 112.5 244.499812 
C 118.085177 244.499812 123.442352 242.472354 127.391669 238.863961 
C 131.340986 235.255568 133.56 230.360851 133.56 225.257812 
C 133.56 220.154774 131.340986 215.260057 127.391669 211.651664 
C 123.442352 208.043271 118.085177 206.015813 112.5 206.015813 
C 106.914823 206.015813 101.557648 208.043271 97.608331 211.651664 
C 93.659014 215.260057 91.44 220.154774 91.44 225.257812 
C 91.44 230.360851 93.659014 235.255568 97.608331 238.863961 
C 101.557648 242.472354 106.914823 244.499812 112.5 244.499812 
z
" clip-path="url(#p03d3a45dbe)" style="fill: #e74c3c; opacity: 0.5; stroke: #000000; stroke-width: 2; stroke-linejoin: miter"/>
   </g>
   <g id="patch_3">
    <path d="M 182.7 241.613512 
C 188.285177 241.613512 193.642352 239.890173 197.591669 236.823039 
C 201.540986 233.755905 203.76 229.595395 203.76 225.257812 
C 203.76 220.92023 201.540986 216.75972 197.591669 213.692586 
C 193.642352 210.625452 188.285177 208.902113 182.7 208.902113 
C 177.114823 208.902113 171.757648 210.625452 167.808331 213.692586 
C 163.859014 216.75972 161.64 220.92023 161.64 225.257812 
C 161.64 229.595395 163.859014 233.755905 167.808331 236.823039 
C 171.757648 239.890173 177.114823 241.613512 182.7 241.613512 
z
" clip-path="url(#p03d3a45dbe)" style="fill: #e74c3c; opacity: 0.5; stroke: #000000; stroke-width: 2; stroke-linejoin: miter"/>
   </g>
   <g id="patch_4">
    <path d="M 252.9 238.727213 
C 258.485177 238.727213 263.842352 237.307992 267.791669 234.782117 
C 271.740986 232.256242 273.96 228.829939 273.96 225.257812 
C 273.96 221.685686 271.740986 218.259383 267.791669 215.733508 
C 263.842352 213.207633 258.485177 211.788412 252.9 211.788412 
C 247.314823 211.788412 241.957648 213.207633 238.008331 215.733508 
C 234.059014 218.259383 231.84 221.685686 231.84 225.257812 
C 231.84 228.829939 234.059014 232.256242 238.008331 234.782117 
C 241.957648 237.307992 247.314823 238.727213 252.9 238.727213 
z
" clip-path="url(#p03d3a45dbe)" style="fill: #e74c3c; opacity: 0.5; stroke: #000000; stroke-width: 2; stroke-linejoin: miter"/>
   </g>
   <g id="patch_5">
    <path d="M 323.1 235.840913 
C 328.685177 235.840913 334.042352 234.72581 337.991669 232.741194 
C 341.940986 230.756578 344.16 228.064483 344.16 225.257812 
C 344.16 222.451142 341.940986 219.759047 337.991669 217.774431 
C 334.042352 215.789815 328.685177 214.674712 323.1 214.674712 
C 317.514823 214.674712 312.157648 215.789815 308.208331 217.774431 
C 304.259014 219.759047 302.04 222.451142 302.04 225.257812 
C 302.04 228.064483 304.259014 230.756578 308.208331 232.741194 
C 312.157648 234.72581 317.514823 235.840913 323.1 235.840913 
z
" clip-path="url(#p03d3a45dbe)" style="fill: #e74c3c; opacity: 0.5; stroke: #000000; stroke-width: 2; stroke-linejoin: miter"/>
   </g>
   <g id="patch_6">
    <path d="M 393.3 233.275312 
C 399.81604 233.275312 406.066077 232.430538 410.673614 230.927041 
C 415.28115 229.423544 417.87 227.384078 417.87 225.257812 
C 417.87 223.131547 415.28115 221.092081 410.673614 219.588584 
C 406.066077 218.085087 399.81604 217.240313 393.3 217.240313 
C 386.78396 217.240313 380.533923 218.085087 375.926386 219.588584 
C 371.31885 221.092081 368.73 223.131547 368.73 225.257812 
C 368.73 227.384078 371.31885 229.423544 375.926386 230.927041 
C 380.533923 232.430538 386.78396 233.275312 393.3 233.275312 
z
" clip-path="url(#p03d3a45dbe)" style="fill: #95a5a6; opacity: 0.5; stroke: #000000; stroke-width: 2; stroke-linejoin: miter"/>
   </g>
   <g id="patch_7">
    <path d="M 533.7 154.703813 
C 541.146903 154.703813 548.289803 152.000534 553.555558 147.189344 
C 558.821314 142.378154 561.78 135.851863 561.78 129.047813 
C 561.78 122.243762 558.821314 115.717471 553.555558 110.906281 
C 548.289803 106.095091 541.146903 103.391813 533.7 103.391813 
C 526.253097 103.391813 519.110197 106.095091 513.844442 110.906281 
C 508.578686 115.717471 505.62 122.243762 505.62 129.047813 
C 505.62 135.851863 508.578686 142.378154 513.844442 147.189344 
C 519.110197 152.000534 526.253097 154.703813 533.7 154.703813 
z
" clip-path="url(#p03d3a45dbe)" style="fill: #2ecc71; opacity: 0.3; stroke: #000000; stroke-width: 2; stroke-linejoin: miter"/>
   </g>
   <g id="patch_8">
    <path d="M 624.96 154.703813 
C 632.406903 154.703813 639.549803 152.000534 644.815558 147.189344 
C 650.081314 142.378154 653.04 135.851863 653.04 129.047813 
C 653.04 122.243762 650.081314 115.717471 644.815558 110.906281 
C 639.549803 106.095091 632.406903 103.391813 624.96 103.391813 
C 617.513097 103.391813 610.370197 106.095091 605.104442 110.906281 
C 599.838686 115.717471 596.88 122.243762 596.88 129.047813 
C 596.88 135.851863 599.838686 142.378154 605.104442 147.189344 
C 610.370197 152.000534 617.513097 154.703813 624.96 154.703813 
z
" clip-path="url(#p03d3a45dbe)" style="fill: #2ecc71; opacity: 0.3; stroke: #000000; stroke-width: 2; stroke-linejoin: miter"/>
   </g>
   <g id="patch_9">
    <path d="M 716.22 154.703813 
C 723.666903 154.703813 730.809803 152.000534 736.075558 147.189344 
C 741.341314 142.378154 744.3 135.851863 744.3 129.047813 
C 744.3 122.243762 741.341314 115.717471 736.075558 110.906281 
C 730.809803 106.095091 723.666903 103.391813 716.22 103.391813 
C 708.773097 103.391813 701.630197 106.095091 696.364442 110.906281 
C 691.098686 115.717471 688.14 122.243762 688.14 129.047813 
C 688.14 135.851863 691.098686 142.378154 696.364442 147.189344 
C 701.630197 152.000534 708.773097 154.703813 716.22 154.703813 
z
" clip-path="url(#p03d3a45dbe)" style="fill: #2ecc71; opacity: 0.3; stroke: #000000; stroke-width: 2; stroke-linejoin: miter"/>
   </g>
   <g id="patch_10">
    <path d="M 533.7 347.123812 
C 541.146903 347.123812 548.289803 344.420534 553.555558 339.609344 
C 558.821314 334.798154 561.78 328.271863 561.78 321.467812 
C 561.78 314.663762 558.821314 308.137471 553.555558 303.326281 
C 548.289803 298.515091 541.146903 295.811812 533.7 295.811812 
C 526.253097 295.811812 519.110197 298.515091 513.844442 303.326281 
C 508.578686 308.137471 505.62 314.663762 505.62 321.467812 
C 505.62 328.271863 508.578686 334.798154 513.844442 339.609344 
C 519.110197 344.420534 526.253097 347.123812 533.7 347.123812 
z
" clip-path="url(#p03d3a45dbe)" style="fill: #2ecc71; opacity: 0.3; stroke: #000000; stroke-width: 2; stroke-linejoin: miter"/>
   </g>
   <g id="patch_11">
    <path d="M 624.96 347.123812 
C 632.406903 347.123812 639.549803 344.420534 644.815558 339.609344 
C 650.081314 334.798154 653.04 328.271863 653.04 321.467812 
C 653.04 314.663762 650.081314 308.137471 644.815558 303.326281 
C 639.549803 298.515091 632.406903 295.811812 624.96 295.811812 
C 617.513097 295.811812 610.370197 298.515091 605.104442 303.326281 
C 599.838686 308.137471 596.88 314.663762 596.88 321.467812 
C 596.88 328.271863 599.838686 334.798154 605.104442 339.609344 
C 610.370197 344.420534 617.513097 347.123812 624.96 347.123812 
z
" clip-path="url(#p03d3a45dbe)" style="fill: #2ecc71; opacity: 0.3; stroke: #000000; stroke-width: 2; stroke-linejoin: miter"/>
   </g>
   <g id="patch_12">
    <path d="M 716.22 347.123812 
C 723.666903 347.123812 730.809803 344.420534 736.075558 339.609344 
C 741.341314 334.798154 744.3 328.271863 744.3 321.467812 
C 744.3 314.663762 741.341314 308.137471 736.075558 303.326281 
C 730.809803 298.515091 723.666903 295.811812 716.22 295.811812 
C 708.773097 295.811812 701.630197 298.515091 696.364442 303.326281 
C 691.098686 308.137471 688.14 314.663762 688.14 321.467812 
C 688.14 328.271863 691.098686 334.798154 696.364442 339.609344 
C 701.630197 344.420534 708.773097 347.123812 716.22 347.123812 
z
" clip-path="url(#p03d3a45dbe)" style="fill: #2ecc71; opacity: 0.3; stroke: #000000; stroke-width: 2; stroke-linejoin: miter"/>
   </g>
   <g id="line2d_1">
    <path d="M 414.36 225.257812 
L 498.6 148.289812 
" clip-path="url(#p03d3a45dbe)" style="fill: none; stroke: #2c3e50; stroke-width: 2; stroke-linecap: square"/>
   </g>
   <g id="line2d_2">
    <path d="M 414.36 225.257812 
L 498.6 302.225812 
" clip-path="url(#p03d3a45dbe)" style="fill: none; stroke: #2c3e50; stroke-width: 2; stroke-linecap: square"/>
   </g>
   <g id="line2d_3">
    <path d="M 544.23 129.047813 
L 544.297727 128.432447 
L 544.322064 127.809253 
L 544.302199 127.180803 
L 544.237504 126.549729 
L 544.127539 125.918718 
L 543.972059 125.290495 
L 543.771016 124.667814 
L 543.524563 124.053445 
L 543.233054 123.450161 
L 542.897048 122.86073 
L 542.517307 122.287896 
L 542.094797 121.73437 
L 541.630683 121.202819 
L 541.126333 120.695849 
L 540.583306 120.215999 
L 540.003356 119.76572 
L 539.38842 119.347372 
L 538.740615 118.963207 
L 538.062232 118.615359 
L 537.355725 118.305834 
L 536.623705 118.036496 
L 535.868927 117.809062 
L 535.094285 117.625089 
L 534.302795 117.485967 
L 533.497587 117.392908 
L 532.681893 117.346944 
L 531.859031 117.348914 
L 531.032394 117.399461 
L 530.205435 117.499026 
L 529.381653 117.647847 
L 528.564578 117.845948 
L 527.757756 118.093146 
L 526.964735 118.38904 
L 526.189045 118.733017 
L 525.434188 119.124249 
L 524.70362 119.561693 
L 524.000736 120.044098 
L 523.328851 120.570002 
L 522.691191 121.137739 
L 522.090872 121.745446 
L 521.53089 122.391063 
L 521.014102 123.072345 
L 520.543216 123.786867 
L 520.120777 124.532034 
L 519.74915 125.305089 
L 519.430514 126.103124 
L 519.166846 126.923089 
L 518.959912 127.761808 
L 518.811257 128.615985 
L 518.722195 129.482223 
L 518.693802 130.357034 
L 518.726908 131.236854 
L 518.822091 132.118057 
L 518.979672 132.996971 
L 519.199712 133.869892 
L 519.482004 134.7331 
L 519.82608 135.582877 
L 520.2312 136.415519 
L 520.69636 137.227354 
L 521.220291 138.014759 
L 521.801461 138.774176 
L 522.438078 139.502124 
L 523.128098 140.195221 
L 523.86923 140.850194 
L 524.658942 141.463898 
L 525.494469 142.033327 
L 526.372826 142.555631 
L 527.290814 143.02813 
L 528.245035 143.448325 
L 529.231903 143.813912 
L 530.247657 144.122794 
L 531.288375 144.373088 
L 532.349992 144.563143 
L 533.428313 144.691542 
L 534.519029 144.757113 
L 535.617737 144.758936 
L 536.719957 144.696352 
L 537.821148 144.568963 
L 538.916728 144.376642 
L 540.002097 144.11953 
L 541.072647 143.798044 
L 542.123792 143.412874 
L 543.150981 142.964983 
L 544.149718 142.455608 
L 545.115585 141.886255 
L 546.044258 141.258693 
L 546.931529 140.574956 
L 547.773321 139.837328 
L 548.56571 139.048344 
L 549.304941 138.210775 
L 549.987448 137.327622 
L 550.609867 136.402105 
L 551.169053 135.437649 
L 551.662099 134.437877 
L 552.086345 133.406589 
L 552.439394 132.347753 
L 552.719125 131.26549 
L 552.923704 130.164052 
L 553.051592 129.047813 
" clip-path="url(#p03d3a45dbe)" style="fill: none; stroke: #e74c3c; stroke-opacity: 0.7; stroke-width: 1.5; stroke-linecap: square"/>
   </g>
   <g id="line2d_4">
    <path d="M 635.49 129.047813 
L 635.557727 128.432447 
L 635.582064 127.809253 
L 635.562199 127.180803 
L 635.497504 126.549729 
L 635.387539 125.918718 
L 635.232059 125.290495 
L 635.031016 124.667814 
L 634.784563 124.053445 
L 634.493054 123.450161 
L 634.157048 122.86073 
L 633.777307 122.287896 
L 633.354797 121.73437 
L 632.890683 121.202819 
L 632.386333 120.695849 
L 631.843306 120.215999 
L 631.263356 119.76572 
L 630.64842 119.347372 
L 630.000615 118.963207 
L 629.322232 118.615359 
L 628.615725 118.305834 
L 627.883705 118.036496 
L 627.128927 117.809062 
L 626.354285 117.625089 
L 625.562795 117.485967 
L 624.757587 117.392908 
L 623.941893 117.346944 
L 623.119031 117.348914 
L 622.292394 117.399461 
L 621.465435 117.499026 
L 620.641653 117.647847 
L 619.824578 117.845948 
L 619.017756 118.093146 
L 618.224735 118.38904 
L 617.449045 118.733017 
L 616.694188 119.124249 
L 615.96362 119.561693 
L 615.260736 120.044098 
L 614.588851 120.570002 
L 613.951191 121.137739 
L 613.350872 121.745446 
L 612.79089 122.391063 
L 612.274102 123.072345 
L 611.803216 123.786867 
L 611.380777 124.532034 
L 611.00915 125.305089 
L 610.690514 126.103124 
L 610.426846 126.923089 
L 610.219912 127.761808 
L 610.071257 128.615985 
L 609.982195 129.482223 
L 609.953802 130.357034 
L 609.986908 131.236854 
L 610.082091 132.118057 
L 610.239672 132.996971 
L 610.459712 133.869892 
L 610.742004 134.7331 
L 611.08608 135.582877 
L 611.4912 136.415519 
L 611.95636 137.227354 
L 612.480291 138.014759 
L 613.061461 138.774176 
L 613.698078 139.502124 
L 614.388098 140.195221 
L 615.12923 140.850194 
L 615.918942 141.463898 
L 616.754469 142.033327 
L 617.632826 142.555631 
L 618.550814 143.02813 
L 619.505035 143.448325 
L 620.491903 143.813912 
L 621.507657 144.122794 
L 622.548375 144.373088 
L 623.609992 144.563143 
L 624.688313 144.691542 
L 625.779029 144.757113 
L 626.877737 144.758936 
L 627.979957 144.696352 
L 629.081148 144.568963 
L 630.176728 144.376642 
L 631.262097 144.11953 
L 632.332647 143.798044 
L 633.383792 143.412874 
L 634.410981 142.964983 
L 635.409718 142.455608 
L 636.375585 141.886255 
L 637.304258 141.258693 
L 638.191529 140.574956 
L 639.033321 139.837328 
L 639.82571 139.048344 
L 640.564941 138.210775 
L 641.247448 137.327622 
L 641.869867 136.402105 
L 642.429053 135.437649 
L 642.922099 134.437877 
L 643.346345 133.406589 
L 643.699394 132.347753 
L 643.979125 131.26549 
L 644.183704 130.164052 
L 644.311592 129.047813 
" clip-path="url(#p03d3a45dbe)" style="fill: none; stroke: #e74c3c; stroke-opacity: 0.7; stroke-width: 1.5; stroke-linecap: square"/>
   </g>
   <g id="line2d_5">
    <path d="M 726.75 129.047813 
L 726.817727 128.432447 
L 726.842064 127.809253 
L 726.822199 127.180803 
L 726.757504 126.549729 
L 726.647539 125.918718 
L 726.492059 125.290495 
L 726.291016 124.667814 
L 726.044563 124.053445 
L 725.753054 123.450161 
L 725.417048 122.86073 
L 725.037307 122.287896 
L 724.614797 121.73437 
L 724.150683 121.202819 
L 723.646333 120.695849 
L 723.103306 120.215999 
L 722.523356 119.76572 
L 721.90842 119.347372 
L 721.260615 118.963207 
L 720.582232 118.615359 
L 719.875725 118.305834 
L 719.143705 118.036496 
L 718.388927 117.809062 
L 717.614285 117.625089 
L 716.822795 117.485967 
L 716.017587 117.392908 
L 715.201893 117.346944 
L 714.379031 117.348914 
L 713.552394 117.399461 
L 712.725435 117.499026 
L 711.901653 117.647847 
L 711.084578 117.845948 
L 710.277756 118.093146 
L 709.484735 118.38904 
L 708.709045 118.733017 
L 707.954188 119.124249 
L 707.22362 119.561693 
L 706.520736 120.044098 
L 705.848851 120.570002 
L 705.211191 121.137739 
L 704.610872 121.745446 
L 704.05089 122.391063 
L 703.534102 123.072345 
L 703.063216 123.786867 
L 702.640777 124.532034 
L 702.26915 125.305089 
L 701.950514 126.103124 
L 701.686846 126.923089 
L 701.479912 127.761808 
L 701.331257 128.615985 
L 701.242195 129.482223 
L 701.213802 130.357034 
L 701.246908 131.236854 
L 701.342091 132.118057 
L 701.499672 132.996971 
L 701.719712 133.869892 
L 702.002004 134.7331 
L 702.34608 135.582877 
L 702.7512 136.415519 
L 703.21636 137.227354 
L 703.740291 138.014759 
L 704.321461 138.774176 
L 704.958078 139.502124 
L 705.648098 140.195221 
L 706.38923 140.850194 
L 707.178942 141.463898 
L 708.014469 142.033327 
L 708.892826 142.555631 
L 709.810814 143.02813 
L 710.765035 143.448325 
L 711.751903 143.813912 
L 712.767657 144.122794 
L 713.808375 144.373088 
L 714.869992 144.563143 
L 715.948313 144.691542 
L 717.039029 144.757113 
L 718.137737 144.758936 
L 719.239957 144.696352 
L 720.341148 144.568963 
L 721.436728 144.376642 
L 722.522097 144.11953 
L 723.592647 143.798044 
L 724.643792 143.412874 
L 725.670981 142.964983 
L 726.669718 142.455608 
L 727.635585 141.886255 
L 728.564258 141.258693 
L 729.451529 140.574956 
L 730.293321 139.837328 
L 731.08571 139.048344 
L 731.824941 138.210775 
L 732.507448 137.327622 
L 733.129867 136.402105 
L 733.689053 135.437649 
L 734.182099 134.437877 
L 734.606345 133.406589 
L 734.959394 132.347753 
L 735.239125 131.26549 
L 735.443704 130.164052 
L 735.571592 129.047813 
" clip-path="url(#p03d3a45dbe)" style="fill: none; stroke: #e74c3c; stroke-opacity: 0.7; stroke-width: 1.5; stroke-linecap: square"/>
   </g>
   <g id="line2d_6">
    <path d="M 516.15 321.467812 
L 551.25 321.467812 
" clip-path="url(#p03d3a45dbe)" style="fill: none; stroke: #9b59b6; stroke-opacity: 0.8; stroke-width: 4; stroke-linecap: square"/>
   </g>
   <g id="line2d_7">
    <path d="M 607.41 321.467812 
L 642.51 321.467812 
" clip-path="url(#p03d3a45dbe)" style="fill: none; stroke: #9b59b6; stroke-opacity: 0.8; stroke-width: 4; stroke-linecap: square"/>
   </g>
   <g id="line2d_8">
    <path d="M 698.67 321.467812 
L 733.77 321.467812 
" clip-path="url(#p03d3a45dbe)" style="fill: none; stroke: #9b59b6; stroke-opacity: 0.8; stroke-width: 4; stroke-linecap: square"/>
   </g>
   <g id="text_1">
    <!-- E0 -->
    <g transform="translate(107.4275 263.741813) scale(0.08 -0.08)">
     <defs>
      <path id="DejaVuSans-45" d="M 628 4666 
L 3578 4666 
L 3578 4134 
L 1259 4134 
L 1259 2753 
L 3481 2753 
L 3481 2222 
L 1259 2222 
L 1259 531 
L 3634 531 
L 3634 0 
L 628 0 
L 628 4666 
z
" transform="scale(0.015625)"/>
      <path id="DejaVuSans-30" d="M 2034 4250 
Q 1547 4250 1301 3770 
Q 1056 3291 1056 2328 
Q 1056 1369 1301 889 
Q 1547 409 2034 409 
Q 2525 409 2770 889 
Q 3016 1369 3016 2328 
Q 3016 3291 2770 3770 
Q 2525 4250 2034 4250 
z
M 2034 4750 
Q 2819 4750 3233 4129 
Q 3647 3509 3647 2328 
Q 3647 1150 3233 529 
Q 2819 -91 2034 -91 
Q 1250 -91 836 529 
Q 422 1150 422 2328 
Q 422 3509 836 4129 
Q 1250 4750 2034 4750 
z
" transform="scale(0.015625)"/>
     </defs>
     <use xlink:href="#DejaVuSans-45"/>
     <use xlink:href="#DejaVuSans-30" transform="translate(63.183594 0)"/>
    </g>
   </g>
   <g id="text_2">
    <!-- E3 -->
    <g transform="translate(177.6275 263.741813) scale(0.08 -0.08)">
     <defs>
      <path id="DejaVuSans-33" d="M 2597 2516 
Q 3050 2419 3304 2112 
Q 3559 1806 3559 1356 
Q 3559 666 3084 287 
Q 2609 -91 1734 -91 
Q 1441 -91 1130 -33 
Q 819 25 488 141 
L 488 750 
Q 750 597 1062 519 
Q 1375 441 1716 441 
Q 2309 441 2620 675 
Q 2931 909 2931 1356 
Q 2931 1769 2642 2001 
Q 2353 2234 1838 2234 
L 1294 2234 
L 1294 2753 
L 1863 2753 
Q 2328 2753 2575 2939 
Q 2822 3125 2822 3475 
Q 2822 3834 2567 4026 
Q 2313 4219 1838 4219 
Q 1578 4219 1281 4162 
Q 984 4106 628 3988 
L 628 4550 
Q 988 4650 1302 4700 
Q 1616 4750 1894 4750 
Q 2613 4750 3031 4423 
Q 3450 4097 3450 3541 
Q 3450 3153 3228 2886 
Q 3006 2619 2597 2516 
z
" transform="scale(0.015625)"/>
     </defs>
     <use xlink:href="#DejaVuSans-45"/>
     <use xlink:href="#DejaVuSans-33" transform="translate(63.183594 0)"/>
    </g>
   </g>
   <g id="text_3">
    <!-- E5 -->
    <g transform="translate(247.8275 263.741813) scale(0.08 -0.08)">
     <defs>
      <path id="DejaVuSans-35" d="M 691 4666 
L 3169 4666 
L 3169 4134 
L 1269 4134 
L 1269 2991 
Q 1406 3038 1543 3061 
Q 1681 3084 1819 3084 
Q 2600 3084 3056 2656 
Q 3513 2228 3513 1497 
Q 3513 744 3044 326 
Q 2575 -91 1722 -91 
Q 1428 -91 1123 -41 
Q 819 9 494 109 
L 494 744 
Q 775 591 1075 516 
Q 1375 441 1709 441 
Q 2250 441 2565 725 
Q 2881 1009 2881 1497 
Q 2881 1984 2565 2268 
Q 2250 2553 1709 2553 
Q 1456 2553 1204 2497 
Q 953 2441 691 2322 
L 691 4666 
z
" transform="scale(0.015625)"/>
     </defs>
     <use xlink:href="#DejaVuSans-45"/>
     <use xlink:href="#DejaVuSans-35" transform="translate(63.183594 0)"/>
    </g>
   </g>
   <g id="text_4">
    <!-- E7 -->
    <g transform="translate(318.0275 263.741813) scale(0.08 -0.08)">
     <defs>
      <path id="DejaVuSans-37" d="M 525 4666 
L 3525 4666 
L 3525 4397 
L 1831 0 
L 1172 0 
L 2766 4134 
L 525 4134 
L 525 4666 
z
" transform="scale(0.015625)"/>
     </defs>
     <use xlink:href="#DejaVuSans-45"/>
     <use xlink:href="#DejaVuSans-37" transform="translate(63.183594 0)"/>
    </g>
   </g>
   <g id="text_5">
    <!-- S0 -->
    <g transform="translate(388.215625 263.741813) scale(0.08 -0.08)">
     <defs>
      <path id="DejaVuSans-53" d="M 3425 4513 
L 3425 3897 
Q 3066 4069 2747 4153 
Q 2428 4238 2131 4238 
Q 1616 4238 1336 4038 
Q 1056 3838 1056 3469 
Q 1056 3159 1242 3001 
Q 1428 2844 1947 2747 
L 2328 2669 
Q 3034 2534 3370 2195 
Q 3706 1856 3706 1288 
Q 3706 609 3251 259 
Q 2797 -91 1919 -91 
Q 1588 -91 1214 -16 
Q 841 59 441 206 
L 441 856 
Q 825 641 1194 531 
Q 1563 422 1919 422 
Q 2459 422 2753 634 
Q 3047 847 3047 1241 
Q 3047 1584 2836 1778 
Q 2625 1972 2144 2069 
L 1759 2144 
Q 1053 2284 737 2584 
Q 422 2884 422 3419 
Q 422 4038 858 4394 
Q 1294 4750 2059 4750 
Q 2388 4750 2728 4690 
Q 3069 4631 3425 4513 
z
" transform="scale(0.015625)"/>
     </defs>
     <use xlink:href="#DejaVuSans-53"/>
     <use xlink:href="#DejaVuSans-30" transform="translate(63.476562 0)"/>
    </g>
   </g>
   <g id="text_6">
    <!-- Sa -->
    <g transform="translate(528.709375 173.945813) scale(0.08 -0.08)">
     <defs>
      <path id="DejaVuSans-61" d="M 2194 1759 
Q 1497 1759 1228 1600 
Q 959 1441 959 1056 
Q 959 750 1161 570 
Q 1363 391 1709 391 
Q 2188 391 2477 730 
Q 2766 1069 2766 1631 
L 2766 1759 
L 2194 1759 
z
M 3341 1997 
L 3341 0 
L 2766 0 
L 2766 531 
Q 2569 213 2275 61 
Q 1981 -91 1556 -91 
Q 1019 -91 701 211 
Q 384 513 384 1019 
Q 384 1609 779 1909 
Q 1175 2209 1959 2209 
L 2766 2209 
L 2766 2266 
Q 2766 2663 2505 2880 
Q 2244 3097 1772 3097 
Q 1472 3097 1187 3025 
Q 903 2953 641 2809 
L 641 3341 
Q 956 3463 1253 3523 
Q 1550 3584 1831 3584 
Q 2591 3584 2966 3190 
Q 3341 2797 3341 1997 
z
" transform="scale(0.015625)"/>
     </defs>
     <use xlink:href="#DejaVuSans-53"/>
     <use xlink:href="#DejaVuSans-61" transform="translate(63.476562 0)"/>
    </g>
   </g>
   <g id="text_7">
    <!-- Sb -->
    <g transform="translate(619.88125 173.945813) scale(0.08 -0.08)">
     <defs>
      <path id="DejaVuSans-62" d="M 3116 1747 
Q 3116 2381 2855 2742 
Q 2594 3103 2138 3103 
Q 1681 3103 1420 2742 
Q 1159 2381 1159 1747 
Q 1159 1113 1420 752 
Q 1681 391 2138 391 
Q 2594 391 2855 752 
Q 3116 1113 3116 1747 
z
M 1159 2969 
Q 1341 3281 1617 3432 
Q 1894 3584 2278 3584 
Q 2916 3584 3314 3078 
Q 3713 2572 3713 1747 
Q 3713 922 3314 415 
Q 2916 -91 2278 -91 
Q 1894 -91 1617 61 
Q 1341 213 1159 525 
L 1159 0 
L 581 0 
L 581 4863 
L 1159 4863 
L 1159 2969 
z
" transform="scale(0.015625)"/>
     </defs>
     <use xlink:href="#DejaVuSans-53"/>
     <use xlink:href="#DejaVuSans-62" transform="translate(63.476562 0)"/>
    </g>
   </g>
   <g id="text_8">
    <!-- Sc -->
    <g transform="translate(711.48125 173.945813) scale(0.08 -0.08)">
     <defs>
      <path id="DejaVuSans-63" d="M 3122 3366 
L 3122 2828 
Q 2878 2963 2633 3030 
Q 2388 3097 2138 3097 
Q 1578 3097 1268 2742 
Q 959 2388 959 1747 
Q 959 1106 1268 751 
Q 1578 397 2138 397 
Q 2388 397 2633 464 
Q 2878 531 3122 666 
L 3122 134 
Q 2881 22 2623 -34 
Q 2366 -91 2075 -91 
Q 1284 -91 818 406 
Q 353 903 353 1747 
Q 353 2603 823 3093 
Q 1294 3584 2113 3584 
Q 2378 3584 2631 3529 
Q 2884 3475 3122 3366 
z
" transform="scale(0.015625)"/>
     </defs>
     <use xlink:href="#DejaVuSans-53"/>
     <use xlink:href="#DejaVuSans-63" transform="translate(63.476562 0)"/>
    </g>
   </g>
   <g id="text_9">
    <!-- Normal Spirals -->
    <g transform="translate(595.1625 84.149812) scale(0.12 -0.12)">
     <defs>
      <path id="DejaVuSans-4e" d="M 628 4666 
L 1478 4666 
L 3547 763 
L 3547 4666 
L 4159 4666 
L 4159 0 
L 3309 0 
L 1241 3903 
L 1241 0 
L 628 0 
L 628 4666 
z
" transform="scale(0.015625)"/>
      <path id="DejaVuSans-6f" d="M 1959 3097 
Q 1497 3097 1228 2736 
Q 959 2375 959 1747 
Q 959 1119 1226 758 
Q 1494 397 1959 397 
Q 2419 397 2687 759 
Q 2956 1122 2956 1747 
Q 2956 2369 2687 2733 
Q 2419 3097 1959 3097 
z
M 1959 3584 
Q 2709 3584 3137 3096 
Q 3566 2609 3566 1747 
Q 3566 888 3137 398 
Q 2709 -91 1959 -91 
Q 1206 -91 779 398 
Q 353 888 353 1747 
Q 353 2609 779 3096 
Q 1206 3584 1959 3584 
z
" transform="scale(0.015625)"/>
      <path id="DejaVuSans-72" d="M 2631 2963 
Q 2534 3019 2420 3045 
Q 2306 3072 2169 3072 
Q 1681 3072 1420 2755 
Q 1159 2438 1159 1844 
L 1159 0 
L 581 0 
L 581 3500 
L 1159 3500 
L 1159 2956 
Q 1341 3275 1631 3429 
Q 1922 3584 2338 3584 
Q 2397 3584 2469 3576 
Q 2541 3569 2628 3553 
L 2631 2963 
z
" transform="scale(0.015625)"/>
      <path id="DejaVuSans-6d" d="M 3328 2828 
Q 3544 3216 3844 3400 
Q 4144 3584 4550 3584 
Q 5097 3584 5394 3201 
Q 5691 2819 5691 2113 
L 5691 0 
L 5113 0 
L 5113 2094 
Q 5113 2597 4934 2840 
Q 4756 3084 4391 3084 
Q 3944 3084 3684 2787 
Q 3425 2491 3425 1978 
L 3425 0 
L 2847 0 
L 2847 2094 
Q 2847 2600 2669 2842 
Q 2491 3084 2119 3084 
Q 1678 3084 1418 2786 
Q 1159 2488 1159 1978 
L 1159 0 
L 581 0 
L 581 3500 
L 1159 3500 
L 1159 2956 
Q 1356 3278 1631 3431 
Q 1906 3584 2284 3584 
Q 2666 3584 2933 3390 
Q 3200 3197 3328 2828 
z
" transform="scale(0.015625)"/>
      <path id="DejaVuSans-6c" d="M 603 4863 
L 1178 4863 
L 1178 0 
L 603 0 
L 603 4863 
z
" transform="scale(0.015625)"/>
      <path id="DejaVuSans-20" transform="scale(0.015625)"/>
      <path id="DejaVuSans-70" d="M 1159 525 
L 1159 -1331 
L 581 -1331 
L 581 3500 
L 1159 3500 
L 1159 2969 
Q 1341 3281 1617 3432 
Q 1894 3584 2278 3584 
Q 2916 3584 3314 3078 
Q 3713 2572 3713 1747 
Q 3713 922 3314 415 
Q 2916 -91 2278 -91 
Q 1894 -91 1617 61 
Q 1341 213 1159 525 
z
M 3116 1747 
Q 3116 2381 2855 2742 
Q 2594 3103 2138 3103 
Q 1681 3103 1420 2742 
Q 1159 2381 1159 1747 
Q 1159 1113 1420 752 
Q 1681 391 2138 391 
Q 2594 391 2855 752 
Q 3116 1113 3116 1747 
z
" transform="scale(0.015625)"/>
      <path id="DejaVuSans-69" d="M 603 3500 
L 1178 3500 
L 1178 0 
L 603 0 
L 603 3500 
z
M 603 4863 
L 1178 4863 
L 1178 4134 
L 603 4134 
L 603 4863 
z
" transform="scale(0.015625)"/>
      <path id="DejaVuSans-73" d="M 2834 3397 
L 2834 2853 
Q 2591 2978 2328 3040 
Q 2066 3103 1784 3103 
Q 1356 3103 1142 2972 
Q 928 2841 928 2578 
Q 928 2378 1081 2264 
Q 1234 2150 1697 2047 
L 1894 2003 
Q 2506 1872 2764 1633 
Q 3022 1394 3022 966 
Q 3022 478 2636 193 
Q 2250 -91 1575 -91 
Q 1294 -91 989 -36 
Q 684 19 347 128 
L 347 722 
Q 666 556 975 473 
Q 1284 391 1588 391 
Q 1994 391 2212 530 
Q 2431 669 2431 922 
Q 2431 1156 2273 1281 
Q 2116 1406 1581 1522 
L 1381 1569 
Q 847 1681 609 1914 
Q 372 2147 372 2553 
Q 372 3047 722 3315 
Q 1072 3584 1716 3584 
Q 2034 3584 2315 3537 
Q 2597 3491 2834 3397 
z
" transform="scale(0.015625)"/>
     </defs>
     <use xlink:href="#DejaVuSans-4e"/>
     <use xlink:href="#DejaVuSans-6f" transform="translate(74.804688 0)"/>
     <use xlink:href="#DejaVuSans-72" transform="translate(135.986328 0)"/>
     <use xlink:href="#DejaVuSans-6d" transform="translate(175.349609 0)"/>
     <use xlink:href="#DejaVuSans-61" transform="translate(272.761719 0)"/>
     <use xlink:href="#DejaVuSans-6c" transform="translate(334.041016 0)"/>
     <use xlink:href="#DejaVuSans-20" transform="translate(361.824219 0)"/>
     <use xlink:href="#DejaVuSans-53" transform="translate(393.611328 0)"/>
     <use xlink:href="#DejaVuSans-70" transform="translate(457.087891 0)"/>
     <use xlink:href="#DejaVuSans-69" transform="translate(520.564453 0)"/>
     <use xlink:href="#DejaVuSans-72" transform="translate(548.347656 0)"/>
     <use xlink:href="#DejaVuSans-61" transform="translate(589.460938 0)"/>
     <use xlink:href="#DejaVuSans-6c" transform="translate(650.740234 0)"/>
     <use xlink:href="#DejaVuSans-73" transform="translate(678.523438 0)"/>
    </g>
   </g>
   <g id="text_10">
    <!-- SBa -->
    <g transform="translate(525.965 366.365812) scale(0.08 -0.08)">
     <defs>
      <path id="DejaVuSans-42" d="M 1259 2228 
L 1259 519 
L 2272 519 
Q 2781 519 3026 730 
Q 3272 941 3272 1375 
Q 3272 1813 3026 2020 
Q 2781 2228 2272 2228 
L 1259 2228 
z
M 1259 4147 
L 1259 2741 
L 2194 2741 
Q 2656 2741 2882 2914 
Q 3109 3088 3109 3444 
Q 3109 3797 2882 3972 
Q 2656 4147 2194 4147 
L 1259 4147 
z
M 628 4666 
L 2241 4666 
Q 2963 4666 3353 4366 
Q 3744 4066 3744 3513 
Q 3744 3084 3544 2831 
Q 3344 2578 2956 2516 
Q 3422 2416 3680 2098 
Q 3938 1781 3938 1306 
Q 3938 681 3513 340 
Q 3088 0 2303 0 
L 628 0 
L 628 4666 
z
" transform="scale(0.015625)"/>
     </defs>
     <use xlink:href="#DejaVuSans-53"/>
     <use xlink:href="#DejaVuSans-42" transform="translate(63.476562 0)"/>
     <use xlink:href="#DejaVuSans-61" transform="translate(132.080078 0)"/>
    </g>
   </g>
   <g id="text_11">
    <!-- SBb -->
    <g transform="translate(617.136875 366.365812) scale(0.08 -0.08)">
     <use xlink:href="#DejaVuSans-53"/>
     <use xlink:href="#DejaVuSans-42" transform="translate(63.476562 0)"/>
     <use xlink:href="#DejaVuSans-62" transform="translate(132.080078 0)"/>
    </g>
   </g>
   <g id="text_12">
    <!-- SBc -->
    <g transform="translate(708.736875 366.365812) scale(0.08 -0.08)">
     <use xlink:href="#DejaVuSans-53"/>
     <use xlink:href="#DejaVuSans-42" transform="translate(63.476562 0)"/>
     <use xlink:href="#DejaVuSans-63" transform="translate(132.080078 0)"/>
    </g>
   </g>
   <g id="text_13">
    <!-- Barred Spirals -->
    <g transform="translate(596.884688 385.607812) scale(0.12 -0.12)">
     <defs>
      <path id="DejaVuSans-65" d="M 3597 1894 
L 3597 1613 
L 953 1613 
Q 991 1019 1311 708 
Q 1631 397 2203 397 
Q 2534 397 2845 478 
Q 3156 559 3463 722 
L 3463 178 
Q 3153 47 2828 -22 
Q 2503 -91 2169 -91 
Q 1331 -91 842 396 
Q 353 884 353 1716 
Q 353 2575 817 3079 
Q 1281 3584 2069 3584 
Q 2775 3584 3186 3129 
Q 3597 2675 3597 1894 
z
M 3022 2063 
Q 3016 2534 2758 2815 
Q 2500 3097 2075 3097 
Q 1594 3097 1305 2825 
Q 1016 2553 972 2059 
L 3022 2063 
z
" transform="scale(0.015625)"/>
      <path id="DejaVuSans-64" d="M 2906 2969 
L 2906 4863 
L 3481 4863 
L 3481 0 
L 2906 0 
L 2906 525 
Q 2725 213 2448 61 
Q 2172 -91 1784 -91 
Q 1150 -91 751 415 
Q 353 922 353 1747 
Q 353 2572 751 3078 
Q 1150 3584 1784 3584 
Q 2172 3584 2448 3432 
Q 2725 3281 2906 2969 
z
M 947 1747 
Q 947 1113 1208 752 
Q 1469 391 1925 391 
Q 2381 391 2643 752 
Q 2906 1113 2906 1747 
Q 2906 2381 2643 2742 
Q 2381 3103 1925 3103 
Q 1469 3103 1208 2742 
Q 947 2381 947 1747 
z
" transform="scale(0.015625)"/>
     </defs>
     <use xlink:href="#DejaVuSans-42"/>
     <use xlink:href="#DejaVuSans-61" transform="translate(68.603516 0)"/>
     <use xlink:href="#DejaVuSans-72" transform="translate(129.882812 0)"/>
     <use xlink:href="#DejaVuSans-72" transform="translate(169.246094 0)"/>
     <use xlink:href="#DejaVuSans-65" transform="translate(208.109375 0)"/>
     <use xlink:href="#DejaVuSans-64" transform="translate(269.632812 0)"/>
     <use xlink:href="#DejaVuSans-20" transform="translate(333.109375 0)"/>
     <use xlink:href="#DejaVuSans-53" transform="translate(364.896484 0)"/>
     <use xlink:href="#DejaVuSans-70" transform="translate(428.373047 0)"/>
     <use xlink:href="#DejaVuSans-69" transform="translate(491.849609 0)"/>
     <use xlink:href="#DejaVuSans-72" transform="translate(519.632812 0)"/>
     <use xlink:href="#DejaVuSans-61" transform="translate(560.746094 0)"/>
     <use xlink:href="#DejaVuSans-6c" transform="translate(622.025391 0)"/>
     <use xlink:href="#DejaVuSans-73" transform="translate(649.808594 0)"/>
    </g>
   </g>
   <g id="text_14">
    <!-- Ellipticals -->
    <g transform="translate(154.311562 96.977813) scale(0.12 -0.12)">
     <defs>
      <path id="DejaVuSans-74" d="M 1172 4494 
L 1172 3500 
L 2356 3500 
L 2356 3053 
L 1172 3053 
L 1172 1153 
Q 1172 725 1289 603 
Q 1406 481 1766 481 
L 2356 481 
L 2356 0 
L 1766 0 
Q 1100 0 847 248 
Q 594 497 594 1153 
L 594 3053 
L 172 3053 
L 172 3500 
L 594 3500 
L 594 4494 
L 1172 4494 
z
" transform="scale(0.015625)"/>
     </defs>
     <use xlink:href="#DejaVuSans-45"/>
     <use xlink:href="#DejaVuSans-6c" transform="translate(63.183594 0)"/>
     <use xlink:href="#DejaVuSans-6c" transform="translate(90.966797 0)"/>
     <use xlink:href="#DejaVuSans-69" transform="translate(118.75 0)"/>
     <use xlink:href="#DejaVuSans-70" transform="translate(146.533203 0)"/>
     <use xlink:href="#DejaVuSans-74" transform="translate(210.009766 0)"/>
     <use xlink:href="#DejaVuSans-69" transform="translate(249.21875 0)"/>
     <use xlink:href="#DejaVuSans-63" transform="translate(277.001953 0)"/>
     <use xlink:href="#DejaVuSans-61" transform="translate(331.982422 0)"/>
     <use xlink:href="#DejaVuSans-6c" transform="translate(393.261719 0)"/>
     <use xlink:href="#DejaVuSans-73" transform="translate(421.044922 0)"/>
    </g>
   </g>
   <g id="text_15">
    <!-- Hubble's Tuning Fork -->
    <g transform="translate(355.639375 17.837812) scale(0.14 -0.14)">
     <defs>
      <path id="DejaVuSans-48" d="M 628 4666 
L 1259 4666 
L 1259 2753 
L 3553 2753 
L 3553 4666 
L 4184 4666 
L 4184 0 
L 3553 0 
L 3553 2222 
L 1259 2222 
L 1259 0 
L 628 0 
L 628 4666 
z
" transform="scale(0.015625)"/>
      <path id="DejaVuSans-75" d="M 544 1381 
L 544 3500 
L 1119 3500 
L 1119 1403 
Q 1119 906 1312 657 
Q 1506 409 1894 409 
Q 2359 409 2629 706 
Q 2900 1003 2900 1516 
L 2900 3500 
L 3475 3500 
L 3475 0 
L 2900 0 
L 2900 538 
Q 2691 219 2414 64 
Q 2138 -91 1772 -91 
Q 1169 -91 856 284 
Q 544 659 544 1381 
z
M 1991 3584 
L 1991 3584 
z
" transform="scale(0.015625)"/>
      <path id="DejaVuSans-27" d="M 1147 4666 
L 1147 2931 
L 616 2931 
L 616 4666 
L 1147 4666 
z
" transform="scale(0.015625)"/>
      <path id="DejaVuSans-54" d="M -19 4666 
L 3928 4666 
L 3928 4134 
L 2272 4134 
L 2272 0 
L 1638 0 
L 1638 4134 
L -19 4134 
L -19 4666 
z
" transform="scale(0.015625)"/>
      <path id="DejaVuSans-6e" d="M 3513 2113 
L 3513 0 
L 2938 0 
L 2938 2094 
Q 2938 2591 2744 2837 
Q 2550 3084 2163 3084 
Q 1697 3084 1428 2787 
Q 1159 2491 1159 1978 
L 1159 0 
L 581 0 
L 581 3500 
L 1159 3500 
L 1159 2956 
Q 1366 3272 1645 3428 
Q 1925 3584 2291 3584 
Q 2894 3584 3203 3211 
Q 3513 2838 3513 2113 
z
" transform="scale(0.015625)"/>
      <path id="DejaVuSans-67" d="M 2906 1791 
Q 2906 2416 2648 2759 
Q 2391 3103 1925 3103 
Q 1463 3103 1205 2759 
Q 947 2416 947 1791 
Q 947 1169 1205 825 
Q 1463 481 1925 481 
Q 2391 481 2648 825 
Q 2906 1169 2906 1791 
z
M 3481 434 
Q 3481 -459 3084 -895 
Q 2688 -1331 1869 -1331 
Q 1566 -1331 1297 -1286 
Q 1028 -1241 775 -1147 
L 775 -588 
Q 1028 -725 1275 -790 
Q 1522 -856 1778 -856 
Q 2344 -856 2625 -561 
Q 2906 -266 2906 331 
L 2906 616 
Q 2728 306 2450 153 
Q 2172 0 1784 0 
Q 1141 0 747 490 
Q 353 981 353 1791 
Q 353 2603 747 3093 
Q 1141 3584 1784 3584 
Q 2172 3584 2450 3431 
Q 2728 3278 2906 2969 
L 2906 3500 
L 3481 3500 
L 3481 434 
z
" transform="scale(0.015625)"/>
      <path id="DejaVuSans-46" d="M 628 4666 
L 3309 4666 
L 3309 4134 
L 1259 4134 
L 1259 2759 
L 3109 2759 
L 3109 2228 
L 1259 2228 
L 1259 0 
L 628 0 
L 628 4666 
z
" transform="scale(0.015625)"/>
      <path id="DejaVuSans-6b" d="M 581 4863 
L 1159 4863 
L 1159 1991 
L 2875 3500 
L 3609 3500 
L 1753 1863 
L 3688 0 
L 2938 0 
L 1159 1709 
L 1159 0 
L 581 0 
L 581 4863 
z
" transform="scale(0.015625)"/>
     </defs>
     <use xlink:href="#DejaVuSans-48"/>
     <use xlink:href="#DejaVuSans-75" transform="translate(75.195312 0)"/>
     <use xlink:href="#DejaVuSans-62" transform="translate(138.574219 0)"/>
     <use xlink:href="#DejaVuSans-62" transform="translate(202.050781 0)"/>
     <use xlink:href="#DejaVuSans-6c" transform="translate(265.527344 0)"/>
     <use xlink:href="#DejaVuSans-65" transform="translate(293.310547 0)"/>
     <use xlink:href="#DejaVuSans-27" transform="translate(354.833984 0)"/>
     <use xlink:href="#DejaVuSans-73" transform="translate(382.324219 0)"/>
     <use xlink:href="#DejaVuSans-20" transform="translate(434.423828 0)"/>
     <use xlink:href="#DejaVuSans-54" transform="translate(466.210938 0)"/>
     <use xlink:href="#DejaVuSans-75" transform="translate(512.169922 0)"/>
     <use xlink:href="#DejaVuSans-6e" transform="translate(575.548828 0)"/>
     <use xlink:href="#DejaVuSans-69" transform="translate(638.927734 0)"/>
     <use xlink:href="#DejaVuSans-6e" transform="translate(666.710938 0)"/>
     <use xlink:href="#DejaVuSans-67" transform="translate(730.089844 0)"/>
     <use xlink:href="#DejaVuSans-20" transform="translate(793.566406 0)"/>
     <use xlink:href="#DejaVuSans-46" transform="translate(825.353516 0)"/>
     <use xlink:href="#DejaVuSans-6f" transform="translate(879.248047 0)"/>
     <use xlink:href="#DejaVuSans-72" transform="translate(940.429688 0)"/>
     <use xlink:href="#DejaVuSans-6b" transform="translate(981.542969 0)"/>
    </g>
   </g>
  </g>
 </g>
 <defs>
  <clipPath id="p03d3a45dbe">
   <rect x="7.2" y="32.837812" width="842.4" height="384.84"/>
  </clipPath>
 </defs>
</svg>
