<?xml version="1.0" encoding="utf-8" standalone="no"?>
<!DOCTYPE svg PUBLIC "-//W3C//DTD SVG 1.1//EN"
  "http://www.w3.org/Graphics/SVG/1.1/DTD/svg11.dtd">
<svg xmlns:xlink="http://www.w3.org/1999/xlink" width="782.237091pt" height="359.568pt" viewBox="0 0 782.237091 359.568" xmlns="http://www.w3.org/2000/svg" version="1.1">
 <metadata>
  <rdf:RDF xmlns:dc="http://purl.org/dc/elements/1.1/" xmlns:cc="http://creativecommons.org/ns#" xmlns:rdf="http://www.w3.org/1999/02/22-rdf-syntax-ns#">
   <cc:Work>
    <dc:type rdf:resource="http://purl.org/dc/dcmitype/StillImage"/>
    <dc:date>2026-01-02T18:44:37.015654</dc:date>
    <dc:format>image/svg+xml</dc:format>
    <dc:creator>
     <cc:Agent>
      <dc:title>Matplotlib v3.10.8, https://matplotlib.org/</dc:title>
     </cc:Agent>
    </dc:creator>
   </cc:Work>
  </rdf:RDF>
 </metadata>
 <defs>
  <style type="text/css">*{stroke-linejoin: round; stroke-linecap: butt}</style>
 </defs>
 <g id="figure_1">
  <g id="patch_1">
   <path d="M 0 359.568 
L 782.237091 359.568 
L 782.237091 0 
L 0 0 
z
" style="fill: #ffffff"/>
  </g>
  <g id="axes_1">
   <g id="patch_2">
    <path d="M 147.52 341.1424 
C 181.756235 341.1424 214.594852 327.5402 238.803526 303.331526 
C 263.0122 279.122852 276.6144 246.284235 276.6144 212.048 
C 276.6144 177.811765 263.0122 144.973148 238.803526 120.764474 
C 214.594852 96.5558 181.756235 82.9536 147.52 82.9536 
C 113.283765 82.9536 80.445148 96.5558 56.236474 120.764474 
C 32.0278 144.973148 18.4256 177.811765 18.4256 212.048 
C 18.4256 246.284235 32.0278 279.122852 56.236474 303.331526 
C 80.445148 327.5402 113.283765 341.1424 147.52 341.1424 
L 147.52 341.1424 
z
" clip-path="url(#p1ae2ccfcc2)" style="fill: none; opacity: 0.7; stroke-dasharray: 3.7,1.6; stroke-dashoffset: 0; stroke: #95a5a6; stroke-linejoin: miter"/>
   </g>
   <g id="patch_3">
    <path d="M 147.52 318.6912 
C 175.802107 318.6912 202.92966 307.4546 222.92813 287.45613 
C 242.9266 267.45766 254.1632 240.330107 254.1632 212.048 
C 254.1632 183.765893 242.9266 156.63834 222.92813 136.63987 
C 202.92966 116.6414 175.802107 105.4048 147.52 105.4048 
C 119.237893 105.4048 92.11034 116.6414 72.11187 136.63987 
C 52.1134 156.63834 40.8768 183.765893 40.8768 212.048 
C 40.8768 240.330107 52.1134 267.45766 72.11187 287.45613 
C 92.11034 307.4546 119.237893 318.6912 147.52 318.6912 
z
" clip-path="url(#p1ae2ccfcc2)" style="fill: #2ecc71; opacity: 0.08; stroke: #2ecc71; stroke-linejoin: miter"/>
   </g>
   <g id="patch_4">
    <path d="M 122.2624 219.064 
L 168.044719 197.715354 
L 162.11454 184.998043 
L 116.332221 206.346689 
z
" clip-path="url(#p1ae2ccfcc2)" style="fill: #9b59b6; opacity: 0.2; stroke: #9b59b6; stroke-linejoin: miter"/>
   </g>
   <g id="patch_5">
    <path d="M 147.52 231.6928 
C 152.729862 231.6928 157.727043 229.6229 161.410971 225.938971 
C 165.0949 222.255043 167.1648 217.257862 167.1648 212.048 
C 167.1648 206.838138 165.0949 201.840957 161.410971 198.157029 
C 157.727043 194.4731 152.729862 192.4032 147.52 192.4032 
C 142.310138 192.4032 137.312957 194.4731 133.629029 198.157029 
C 129.9451 201.840957 127.8752 206.838138 127.8752 212.048 
C 127.8752 217.257862 129.9451 222.255043 133.629029 225.938971 
C 137.312957 229.6229 142.310138 231.6928 147.52 231.6928 
z
" clip-path="url(#p1ae2ccfcc2)" style="fill: #e74c3c; opacity: 0.22; stroke: #e74c3c; stroke-linejoin: miter"/>
   </g>
   <g id="line2d_1">
    <path d="M 158.428133 207.436115 
L 158.327797 205.893225 
L 158.008912 204.314176 
L 157.462127 202.729755 
L 156.682388 201.172377 
L 155.669184 199.675492 
L 154.426709 198.272956 
L 152.963941 196.998383 
L 151.29463 195.884482 
L 149.437197 194.962396 
L 147.414545 194.261055 
L 145.253782 193.806549 
L 142.985856 193.621546 
L 140.645111 193.724745 
L 138.864067 194.000032 
L 137.079538 194.449785 
L 135.308687 195.076617 
L 133.569093 195.881451 
L 131.878593 196.863465 
L 130.255101 198.02006 
L 128.716437 199.346839 
L 127.280146 200.837606 
L 125.963321 202.48438 
L 124.782417 204.277431 
L 123.753084 206.205332 
L 122.889985 208.255029 
L 122.20664 210.411922 
L 121.71526 212.659975 
L 121.426602 214.981832 
L 121.349829 217.358948 
L 121.49239 219.771745 
L 121.859901 222.199763 
L 122.456057 224.621839 
L 123.282544 227.016288 
L 124.338985 229.361093 
L 125.622888 231.634103 
L 127.129627 233.813234 
L 128.852433 235.876679 
L 130.782409 237.803112 
L 132.908562 239.571897 
L 135.217861 241.163292 
L 137.69531 242.558648 
L 140.324038 243.740604 
L 143.085416 244.693272 
L 145.959185 245.402415 
L 148.923606 245.855609 
L 151.955623 246.042391 
L 155.031042 245.9544 
L 158.124726 245.585492 
L 161.210797 244.931842 
L 164.262853 243.992025 
L 167.254194 242.767079 
L 170.15805 241.260547 
L 172.947815 239.478491 
L 175.59729 237.429495 
L 178.080919 235.124637 
L 180.374027 232.577437 
L 182.453052 229.803795 
L 184.295774 226.821886 
L 185.881538 223.652057 
L 187.191459 220.316681 
L 188.208621 216.840009 
L 188.918264 213.247987 
L 189.307949 209.568069 
L 189.384957 207.080109 
L 189.312964 204.574632 
L 189.090185 202.060609 
L 188.715379 199.547164 
L 188.187857 197.043534 
L 187.507498 194.559036 
L 186.674747 192.103038 
L 185.690627 189.684918 
L 184.556742 187.314032 
L 183.275271 184.999674 
L 181.848973 182.751047 
L 180.281183 180.577221 
L 178.575802 178.487099 
L 176.737291 176.489381 
L 174.770661 174.59253 
L 172.68146 172.804739 
L 170.475758 171.13389 
L 168.160129 169.58753 
L 165.741635 168.172832 
L 163.227801 166.896567 
L 160.626593 165.765072 
L 157.946397 164.784226 
L 155.195985 163.959416 
L 152.384492 163.295516 
L 149.521384 162.796865 
L 146.616424 162.467237 
L 143.679644 162.309831 
L 140.721305 162.327245 
L 137.751862 162.521464 
L 134.781931 162.893842 
L 131.822247 163.445098 
L 128.883627 164.175296 
L 125.976929 165.083848 
L 123.113015 166.169503 
L 120.302707 167.430346 
L 117.556751 168.8638 
L 114.885771 170.466628 
L 112.300232 172.234937 
L 109.810399 174.164186 
L 107.426294 176.2492 
L 105.157662 178.484175 
L 103.013927 180.862701 
L 101.004157 183.377777 
L 99.137024 186.021827 
L 97.420772 188.786729 
L 95.863179 191.663834 
L 94.471525 194.643996 
L 93.25256 197.717601 
L 92.212474 200.874593 
L 91.35687 204.104515 
L 90.690735 207.396537 
L 90.218418 210.739492 
L 89.943606 214.121921 
L 89.869308 217.532103 
L 89.997833 220.958103 
L 90.330774 224.387809 
L 90.869004 227.808978 
L 91.612654 231.209277 
L 92.561116 234.57633 
L 93.713032 237.897762 
L 95.066294 241.161241 
L 96.618046 244.354529 
L 98.364684 247.465526 
L 100.301868 250.482312 
L 102.424526 253.393196 
L 104.726867 256.186761 
L 107.202398 258.851905 
L 109.843939 261.377887 
L 112.643644 263.754369 
L 115.593024 265.971456 
L 118.682971 268.019738 
L 121.903786 269.890326 
L 125.245212 271.574893 
L 128.69646 273.065705 
L 132.246252 274.355657 
L 135.88285 275.438302 
L 139.594099 276.307883 
L 143.367469 276.959358 
L 147.190092 277.388425 
L 151.048809 277.591545 
L 154.930217 277.565959 
L 158.820713 277.309707 
L 162.706542 276.821639 
L 166.573845 276.101429 
L 170.408711 275.149584 
L 174.197224 273.967444 
L 177.925517 272.557188 
L 181.579817 270.921834 
L 185.146501 269.065232 
L 188.612145 266.992057 
L 191.963573 264.707803 
L 195.187905 262.218765 
L 198.272614 259.532025 
L 201.205562 256.655433 
L 203.975059 253.597583 
L 206.5699 250.367791 
L 208.979414 246.976064 
L 211.193506 243.433073 
L 213.202695 239.750116 
L 214.99816 235.939083 
L 216.571768 232.012421 
L 217.916117 227.98309 
L 219.024562 223.864521 
L 219.89125 219.670572 
L 220.511144 215.415483 
L 220.880048 211.113824 
L 220.994629 206.780447 
L 220.852437 202.430435 
L 220.451917 198.07905 
L 219.792426 193.741678 
L 218.874239 189.433775 
L 217.698556 185.170813 
L 216.267504 180.968224 
L 214.584139 176.841342 
L 212.652437 172.805352 
L 210.477292 168.875231 
L 208.064503 165.06569 
L 205.420759 161.391128 
L 202.553621 157.865567 
L 199.471506 154.502607 
L 196.183657 151.315373 
L 192.700121 148.31646 
L 189.031714 145.517889 
L 185.189993 142.931055 
L 181.187215 140.566688 
L 177.036304 138.434802 
L 172.750803 136.544662 
L 168.344834 134.904739 
L 163.83305 133.522676 
L 159.230589 132.405257 
L 154.55302 131.558373 
L 149.81629 130.986997 
L 145.036674 130.69516 
L 140.230715 130.685928 
L 135.415168 130.961385 
L 130.606941 131.522619 
L 125.823038 132.369713 
L 121.080497 133.501734 
L 116.396328 134.916731 
L 111.787455 136.611736 
L 107.270652 138.582767 
L 102.862486 140.824835 
L 98.579253 143.331953 
L 94.436919 146.097154 
L 90.451061 149.112508 
L 86.636808 152.369143 
L 83.008786 155.85727 
L 79.581061 159.566215 
L 77.946539 161.499922 
L 77.946539 161.499922 
" clip-path="url(#p1ae2ccfcc2)" style="fill: none; stroke: #e74c3c; stroke-opacity: 0.75; stroke-width: 2.5; stroke-linecap: square"/>
   </g>
   <g id="line2d_2">
    <path d="M 121.994797 222.839883 
L 122.651607 225.256797 
L 123.538852 227.640302 
L 124.6556 229.968327 
L 125.998798 232.218718 
L 127.563256 234.369445 
L 129.341639 236.398808 
L 131.324495 238.285643 
L 133.500288 240.009528 
L 135.85546 241.550991 
L 138.374511 242.891705 
L 141.040094 244.014679 
L 143.833138 244.904445 
L 146.732978 245.547226 
L 149.717511 245.931103 
L 152.763363 246.046155 
L 155.846073 245.884594 
L 158.940287 245.440878 
L 162.019968 244.711809 
L 165.058614 243.696605 
L 168.029482 242.396962 
L 170.905824 240.817086 
L 173.661118 238.963707 
L 176.269311 236.846068 
L 178.705057 234.475896 
L 180.943951 231.867349 
L 182.962763 229.036934 
L 184.739666 226.003414 
L 186.254451 222.78768 
L 187.488732 219.41262 
L 188.426147 215.902948 
L 189.052531 212.285027 
L 189.356083 208.586674 
L 189.374405 206.090724 
L 189.242956 203.580785 
L 188.960163 201.065894 
L 188.525005 198.555221 
L 187.937015 196.05804 
L 187.196295 193.583694 
L 186.30352 191.141557 
L 185.25994 188.741003 
L 184.067387 186.391369 
L 182.728272 184.101916 
L 181.24558 181.881799 
L 179.622871 179.740026 
L 177.86427 177.685425 
L 175.974455 175.726605 
L 173.958652 173.871928 
L 171.822618 172.129466 
L 169.572623 170.506974 
L 167.215438 169.011854 
L 164.758309 167.651124 
L 162.208941 166.431387 
L 159.575467 165.358802 
L 156.866428 164.439055 
L 154.090746 163.677336 
L 151.257689 163.078309 
L 148.376845 162.646091 
L 145.458087 162.384233 
L 142.511541 162.295696 
L 139.54755 162.382839 
L 136.576638 162.647397 
L 133.609471 163.090477 
L 130.656822 163.712538 
L 127.729529 164.513387 
L 124.838456 165.492174 
L 121.994454 166.647386 
L 119.208321 167.976847 
L 116.490758 169.477716 
L 113.852331 171.146498 
L 111.303432 172.979042 
L 108.854233 174.970554 
L 106.514654 177.115609 
L 104.294314 179.408162 
L 102.202503 181.841567 
L 100.248136 184.408592 
L 98.43972 187.101443 
L 96.785319 189.911786 
L 95.292518 192.830773 
L 93.968391 195.849069 
L 92.819469 198.956881 
L 91.851715 202.143991 
L 91.070489 205.399789 
L 90.480531 208.713308 
L 90.085929 212.073262 
L 89.890105 215.468081 
L 89.895792 218.885957 
L 90.105019 222.314879 
L 90.519094 225.742678 
L 91.138598 229.15707 
L 91.963372 232.545701 
L 92.992509 235.896187 
L 94.224356 239.196167 
L 95.656509 242.43334 
L 97.285816 245.595517 
L 99.10838 248.670664 
L 101.119571 251.646946 
L 103.31403 254.512776 
L 105.685687 257.256855 
L 108.227775 259.868219 
L 110.932849 262.336282 
L 113.792804 264.650876 
L 116.798904 266.802292 
L 119.941804 268.781324 
L 123.211581 270.579299 
L 126.597762 272.188121 
L 130.089361 273.600301 
L 133.674914 274.80899 
L 137.342514 275.808011 
L 141.079852 276.591888 
L 144.874257 277.155867 
L 148.712744 277.495946 
L 152.582051 277.608893 
L 156.468689 277.492261 
L 160.35899 277.144411 
L 164.239152 276.564518 
L 168.09529 275.752583 
L 171.913484 274.709443 
L 175.679832 273.43677 
L 179.380498 271.937075 
L 183.001762 270.213705 
L 186.530075 268.270838 
L 189.952102 266.113474 
L 193.254782 263.747426 
L 196.425366 261.179301 
L 199.451476 258.416489 
L 202.321147 255.467136 
L 205.022873 252.340126 
L 207.545657 249.04505 
L 209.87905 245.592183 
L 212.013195 241.992447 
L 213.938867 238.25738 
L 215.647514 234.399095 
L 217.131287 230.430248 
L 218.383081 226.363991 
L 219.39656 222.213928 
L 220.16619 217.994075 
L 220.687264 213.718808 
L 220.955926 209.402814 
L 220.96919 205.061043 
L 220.724958 200.708655 
L 220.222034 196.360968 
L 219.460138 192.033402 
L 218.439909 187.741426 
L 217.162915 183.500503 
L 215.631649 179.326032 
L 213.849533 175.233296 
L 211.820908 171.237403 
L 209.551026 167.353232 
L 207.046039 163.595377 
L 204.312984 159.978095 
L 201.359765 156.515247 
L 198.195126 153.220251 
L 194.828633 150.106028 
L 191.27064 147.184952 
L 187.532261 144.468802 
L 183.625335 141.968716 
L 179.562387 139.695146 
L 175.356589 137.657813 
L 171.021721 135.865673 
L 166.572119 134.326874 
L 162.022636 133.048723 
L 157.388584 132.037654 
L 152.685689 131.299198 
L 147.930035 130.837959 
L 143.138009 130.657587 
L 138.326245 130.760763 
L 133.511565 131.149178 
L 128.710923 131.823524 
L 123.941344 132.783483 
L 119.21986 134.027718 
L 114.563456 135.553877 
L 109.989004 137.358591 
L 105.513204 139.437476 
L 101.152521 141.785148 
L 96.923129 144.395232 
L 92.840847 147.260377 
L 88.921081 150.372276 
L 85.17877 153.721693 
L 81.628322 157.298483 
L 78.283568 161.091631 
L 75.157703 165.089274 
L 72.263234 169.278749 
L 69.611937 173.646624 
L 67.214803 178.178747 
L 65.081999 182.860288 
L 63.222823 187.675788 
L 61.645665 192.609211 
L 60.357977 197.643998 
L 59.366232 202.763118 
L 58.6759 207.949132 
L 58.29142 213.184248 
L 58.21618 218.450382 
L 58.452493 223.729223 
L 59.001588 229.002296 
L 59.863594 234.251024 
L 61.037536 239.456798 
L 62.521328 244.601038 
L 64.311777 249.665263 
L 66.404584 254.631156 
L 68.794355 259.48063 
L 71.47461 264.195892 
L 74.437804 268.759512 
L 77.675343 273.154486 
L 81.177609 277.364294 
L 84.933989 281.372969 
L 88.932906 285.165154 
L 93.161852 288.726159 
L 97.607431 292.042017 
L 102.255398 295.099543 
L 107.090703 297.88638 
L 112.097544 300.391048 
L 117.259414 302.602996 
L 122.559159 304.512637 
L 127.979031 306.111395 
L 133.500752 307.391737 
L 139.105571 308.347208 
L 144.774331 308.972457 
L 150.487532 309.263269 
L 156.225401 309.216582 
L 161.967958 308.830503 
L 167.695084 308.104328 
L 173.386598 307.038545 
L 179.022321 305.634845 
L 184.58215 303.896117 
L 190.046132 301.82645 
L 195.394533 299.431123 
L 200.607909 296.716594 
L 205.667177 293.690484 
L 210.553685 290.361556 
L 215.249281 286.739692 
L 219.736379 282.835862 
L 223.998026 278.662094 
L 228.017962 274.231438 
L 229.932413 271.924123 
L 229.932413 271.924123 
" clip-path="url(#p1ae2ccfcc2)" style="fill: none; stroke: #e74c3c; stroke-opacity: 0.75; stroke-width: 2.5; stroke-linecap: square"/>
   </g>
   <g id="text_1">
    <!-- Sun -->
    <g style="fill: #f39c12" transform="translate(223.472417 174.195067) scale(0.08 -0.08)">
     <defs>
      <path id="DejaVuSans-53" d="M 3425 4513 
L 3425 3897 
Q 3066 4069 2747 4153 
Q 2428 4238 2131 4238 
Q 1616 4238 1336 4038 
Q 1056 3838 1056 3469 
Q 1056 3159 1242 3001 
Q 1428 2844 1947 2747 
L 2328 2669 
Q 3034 2534 3370 2195 
Q 3706 1856 3706 1288 
Q 3706 609 3251 259 
Q 2797 -91 1919 -91 
Q 1588 -91 1214 -16 
Q 841 59 441 206 
L 441 856 
Q 825 641 1194 531 
Q 1563 422 1919 422 
Q 2459 422 2753 634 
Q 3047 847 3047 1241 
Q 3047 1584 2836 1778 
Q 2625 1972 2144 2069 
L 1759 2144 
Q 1053 2284 737 2584 
Q 422 2884 422 3419 
Q 422 4038 858 4394 
Q 1294 4750 2059 4750 
Q 2388 4750 2728 4690 
Q 3069 4631 3425 4513 
z
" transform="scale(0.015625)"/>
      <path id="DejaVuSans-75" d="M 544 1381 
L 544 3500 
L 1119 3500 
L 1119 1403 
Q 1119 906 1312 657 
Q 1506 409 1894 409 
Q 2359 409 2629 706 
Q 2900 1003 2900 1516 
L 2900 3500 
L 3475 3500 
L 3475 0 
L 2900 0 
L 2900 538 
Q 2691 219 2414 64 
Q 2138 -91 1772 -91 
Q 1169 -91 856 284 
Q 544 659 544 1381 
z
M 1991 3584 
L 1991 3584 
z
" transform="scale(0.015625)"/>
      <path id="DejaVuSans-6e" d="M 3513 2113 
L 3513 0 
L 2938 0 
L 2938 2094 
Q 2938 2591 2744 2837 
Q 2550 3084 2163 3084 
Q 1697 3084 1428 2787 
Q 1159 2491 1159 1978 
L 1159 0 
L 581 0 
L 581 3500 
L 1159 3500 
L 1159 2956 
Q 1366 3272 1645 3428 
Q 1925 3584 2291 3584 
Q 2894 3584 3203 3211 
Q 3513 2838 3513 2113 
z
" transform="scale(0.015625)"/>
     </defs>
     <use xlink:href="#DejaVuSans-53"/>
     <use xlink:href="#DejaVuSans-75" transform="translate(63.476562 0)"/>
     <use xlink:href="#DejaVuSans-6e" transform="translate(126.855469 0)"/>
    </g>
   </g>
   <g id="text_2">
    <!-- face-on -->
    <g style="fill: #95a5a6" transform="translate(132.499375 80.1472) scale(0.08 -0.08)">
     <defs>
      <path id="DejaVuSans-66" d="M 2375 4863 
L 2375 4384 
L 1825 4384 
Q 1516 4384 1395 4259 
Q 1275 4134 1275 3809 
L 1275 3500 
L 2222 3500 
L 2222 3053 
L 1275 3053 
L 1275 0 
L 697 0 
L 697 3053 
L 147 3053 
L 147 3500 
L 697 3500 
L 697 3744 
Q 697 4328 969 4595 
Q 1241 4863 1831 4863 
L 2375 4863 
z
" transform="scale(0.015625)"/>
      <path id="DejaVuSans-61" d="M 2194 1759 
Q 1497 1759 1228 1600 
Q 959 1441 959 1056 
Q 959 750 1161 570 
Q 1363 391 1709 391 
Q 2188 391 2477 730 
Q 2766 1069 2766 1631 
L 2766 1759 
L 2194 1759 
z
M 3341 1997 
L 3341 0 
L 2766 0 
L 2766 531 
Q 2569 213 2275 61 
Q 1981 -91 1556 -91 
Q 1019 -91 701 211 
Q 384 513 384 1019 
Q 384 1609 779 1909 
Q 1175 2209 1959 2209 
L 2766 2209 
L 2766 2266 
Q 2766 2663 2505 2880 
Q 2244 3097 1772 3097 
Q 1472 3097 1187 3025 
Q 903 2953 641 2809 
L 641 3341 
Q 956 3463 1253 3523 
Q 1550 3584 1831 3584 
Q 2591 3584 2966 3190 
Q 3341 2797 3341 1997 
z
" transform="scale(0.015625)"/>
      <path id="DejaVuSans-63" d="M 3122 3366 
L 3122 2828 
Q 2878 2963 2633 3030 
Q 2388 3097 2138 3097 
Q 1578 3097 1268 2742 
Q 959 2388 959 1747 
Q 959 1106 1268 751 
Q 1578 397 2138 397 
Q 2388 397 2633 464 
Q 2878 531 3122 666 
L 3122 134 
Q 2881 22 2623 -34 
Q 2366 -91 2075 -91 
Q 1284 -91 818 406 
Q 353 903 353 1747 
Q 353 2603 823 3093 
Q 1294 3584 2113 3584 
Q 2378 3584 2631 3529 
Q 2884 3475 3122 3366 
z
" transform="scale(0.015625)"/>
      <path id="DejaVuSans-65" d="M 3597 1894 
L 3597 1613 
L 953 1613 
Q 991 1019 1311 708 
Q 1631 397 2203 397 
Q 2534 397 2845 478 
Q 3156 559 3463 722 
L 3463 178 
Q 3153 47 2828 -22 
Q 2503 -91 2169 -91 
Q 1331 -91 842 396 
Q 353 884 353 1716 
Q 353 2575 817 3079 
Q 1281 3584 2069 3584 
Q 2775 3584 3186 3129 
Q 3597 2675 3597 1894 
z
M 3022 2063 
Q 3016 2534 2758 2815 
Q 2500 3097 2075 3097 
Q 1594 3097 1305 2825 
Q 1016 2553 972 2059 
L 3022 2063 
z
" transform="scale(0.015625)"/>
      <path id="DejaVuSans-2d" d="M 313 2009 
L 1997 2009 
L 1997 1497 
L 313 1497 
L 313 2009 
z
" transform="scale(0.015625)"/>
      <path id="DejaVuSans-6f" d="M 1959 3097 
Q 1497 3097 1228 2736 
Q 959 2375 959 1747 
Q 959 1119 1226 758 
Q 1494 397 1959 397 
Q 2419 397 2687 759 
Q 2956 1122 2956 1747 
Q 2956 2369 2687 2733 
Q 2419 3097 1959 3097 
z
M 1959 3584 
Q 2709 3584 3137 3096 
Q 3566 2609 3566 1747 
Q 3566 888 3137 398 
Q 2709 -91 1959 -91 
Q 1206 -91 779 398 
Q 353 888 353 1747 
Q 353 2609 779 3096 
Q 1206 3584 1959 3584 
z
" transform="scale(0.015625)"/>
     </defs>
     <use xlink:href="#DejaVuSans-66"/>
     <use xlink:href="#DejaVuSans-61" transform="translate(35.205078 0)"/>
     <use xlink:href="#DejaVuSans-63" transform="translate(96.484375 0)"/>
     <use xlink:href="#DejaVuSans-65" transform="translate(151.464844 0)"/>
     <use xlink:href="#DejaVuSans-2d" transform="translate(212.988281 0)"/>
     <use xlink:href="#DejaVuSans-6f" transform="translate(250.947266 0)"/>
     <use xlink:href="#DejaVuSans-6e" transform="translate(312.128906 0)"/>
    </g>
   </g>
   <g id="text_3">
    <!-- Milky Way (schematic) -->
    <g transform="translate(80.169063 61.728) scale(0.12 -0.12)">
     <defs>
      <path id="DejaVuSans-4d" d="M 628 4666 
L 1569 4666 
L 2759 1491 
L 3956 4666 
L 4897 4666 
L 4897 0 
L 4281 0 
L 4281 4097 
L 3078 897 
L 2444 897 
L 1241 4097 
L 1241 0 
L 628 0 
L 628 4666 
z
" transform="scale(0.015625)"/>
      <path id="DejaVuSans-69" d="M 603 3500 
L 1178 3500 
L 1178 0 
L 603 0 
L 603 3500 
z
M 603 4863 
L 1178 4863 
L 1178 4134 
L 603 4134 
L 603 4863 
z
" transform="scale(0.015625)"/>
      <path id="DejaVuSans-6c" d="M 603 4863 
L 1178 4863 
L 1178 0 
L 603 0 
L 603 4863 
z
" transform="scale(0.015625)"/>
      <path id="DejaVuSans-6b" d="M 581 4863 
L 1159 4863 
L 1159 1991 
L 2875 3500 
L 3609 3500 
L 1753 1863 
L 3688 0 
L 2938 0 
L 1159 1709 
L 1159 0 
L 581 0 
L 581 4863 
z
" transform="scale(0.015625)"/>
      <path id="DejaVuSans-79" d="M 2059 -325 
Q 1816 -950 1584 -1140 
Q 1353 -1331 966 -1331 
L 506 -1331 
L 506 -850 
L 844 -850 
Q 1081 -850 1212 -737 
Q 1344 -625 1503 -206 
L 1606 56 
L 191 3500 
L 800 3500 
L 1894 763 
L 2988 3500 
L 3597 3500 
L 2059 -325 
z
" transform="scale(0.015625)"/>
      <path id="DejaVuSans-20" transform="scale(0.015625)"/>
      <path id="DejaVuSans-57" d="M 213 4666 
L 850 4666 
L 1831 722 
L 2809 4666 
L 3519 4666 
L 4500 722 
L 5478 4666 
L 6119 4666 
L 4947 0 
L 4153 0 
L 3169 4050 
L 2175 0 
L 1381 0 
L 213 4666 
z
" transform="scale(0.015625)"/>
      <path id="DejaVuSans-28" d="M 1984 4856 
Q 1566 4138 1362 3434 
Q 1159 2731 1159 2009 
Q 1159 1288 1364 580 
Q 1569 -128 1984 -844 
L 1484 -844 
Q 1016 -109 783 600 
Q 550 1309 550 2009 
Q 550 2706 781 3412 
Q 1013 4119 1484 4856 
L 1984 4856 
z
" transform="scale(0.015625)"/>
      <path id="DejaVuSans-73" d="M 2834 3397 
L 2834 2853 
Q 2591 2978 2328 3040 
Q 2066 3103 1784 3103 
Q 1356 3103 1142 2972 
Q 928 2841 928 2578 
Q 928 2378 1081 2264 
Q 1234 2150 1697 2047 
L 1894 2003 
Q 2506 1872 2764 1633 
Q 3022 1394 3022 966 
Q 3022 478 2636 193 
Q 2250 -91 1575 -91 
Q 1294 -91 989 -36 
Q 684 19 347 128 
L 347 722 
Q 666 556 975 473 
Q 1284 391 1588 391 
Q 1994 391 2212 530 
Q 2431 669 2431 922 
Q 2431 1156 2273 1281 
Q 2116 1406 1581 1522 
L 1381 1569 
Q 847 1681 609 1914 
Q 372 2147 372 2553 
Q 372 3047 722 3315 
Q 1072 3584 1716 3584 
Q 2034 3584 2315 3537 
Q 2597 3491 2834 3397 
z
" transform="scale(0.015625)"/>
      <path id="DejaVuSans-68" d="M 3513 2113 
L 3513 0 
L 2938 0 
L 2938 2094 
Q 2938 2591 2744 2837 
Q 2550 3084 2163 3084 
Q 1697 3084 1428 2787 
Q 1159 2491 1159 1978 
L 1159 0 
L 581 0 
L 581 4863 
L 1159 4863 
L 1159 2956 
Q 1366 3272 1645 3428 
Q 1925 3584 2291 3584 
Q 2894 3584 3203 3211 
Q 3513 2838 3513 2113 
z
" transform="scale(0.015625)"/>
      <path id="DejaVuSans-6d" d="M 3328 2828 
Q 3544 3216 3844 3400 
Q 4144 3584 4550 3584 
Q 5097 3584 5394 3201 
Q 5691 2819 5691 2113 
L 5691 0 
L 5113 0 
L 5113 2094 
Q 5113 2597 4934 2840 
Q 4756 3084 4391 3084 
Q 3944 3084 3684 2787 
Q 3425 2491 3425 1978 
L 3425 0 
L 2847 0 
L 2847 2094 
Q 2847 2600 2669 2842 
Q 2491 3084 2119 3084 
Q 1678 3084 1418 2786 
Q 1159 2488 1159 1978 
L 1159 0 
L 581 0 
L 581 3500 
L 1159 3500 
L 1159 2956 
Q 1356 3278 1631 3431 
Q 1906 3584 2284 3584 
Q 2666 3584 2933 3390 
Q 3200 3197 3328 2828 
z
" transform="scale(0.015625)"/>
      <path id="DejaVuSans-74" d="M 1172 4494 
L 1172 3500 
L 2356 3500 
L 2356 3053 
L 1172 3053 
L 1172 1153 
Q 1172 725 1289 603 
Q 1406 481 1766 481 
L 2356 481 
L 2356 0 
L 1766 0 
Q 1100 0 847 248 
Q 594 497 594 1153 
L 594 3053 
L 172 3053 
L 172 3500 
L 594 3500 
L 594 4494 
L 1172 4494 
z
" transform="scale(0.015625)"/>
      <path id="DejaVuSans-29" d="M 513 4856 
L 1013 4856 
Q 1481 4119 1714 3412 
Q 1947 2706 1947 2009 
Q 1947 1309 1714 600 
Q 1481 -109 1013 -844 
L 513 -844 
Q 928 -128 1133 580 
Q 1338 1288 1338 2009 
Q 1338 2731 1133 3434 
Q 928 4138 513 4856 
z
" transform="scale(0.015625)"/>
     </defs>
     <use xlink:href="#DejaVuSans-4d"/>
     <use xlink:href="#DejaVuSans-69" transform="translate(86.279297 0)"/>
     <use xlink:href="#DejaVuSans-6c" transform="translate(114.0625 0)"/>
     <use xlink:href="#DejaVuSans-6b" transform="translate(141.845703 0)"/>
     <use xlink:href="#DejaVuSans-79" transform="translate(196.130859 0)"/>
     <use xlink:href="#DejaVuSans-20" transform="translate(255.310547 0)"/>
     <use xlink:href="#DejaVuSans-57" transform="translate(287.097656 0)"/>
     <use xlink:href="#DejaVuSans-61" transform="translate(379.599609 0)"/>
     <use xlink:href="#DejaVuSans-79" transform="translate(440.878906 0)"/>
     <use xlink:href="#DejaVuSans-20" transform="translate(500.058594 0)"/>
     <use xlink:href="#DejaVuSans-28" transform="translate(531.845703 0)"/>
     <use xlink:href="#DejaVuSans-73" transform="translate(570.859375 0)"/>
     <use xlink:href="#DejaVuSans-63" transform="translate(622.958984 0)"/>
     <use xlink:href="#DejaVuSans-68" transform="translate(677.939453 0)"/>
     <use xlink:href="#DejaVuSans-65" transform="translate(741.318359 0)"/>
     <use xlink:href="#DejaVuSans-6d" transform="translate(802.841797 0)"/>
     <use xlink:href="#DejaVuSans-61" transform="translate(900.253906 0)"/>
     <use xlink:href="#DejaVuSans-74" transform="translate(961.533203 0)"/>
     <use xlink:href="#DejaVuSans-69" transform="translate(1000.742188 0)"/>
     <use xlink:href="#DejaVuSans-63" transform="translate(1028.525391 0)"/>
     <use xlink:href="#DejaVuSans-29" transform="translate(1083.505859 0)"/>
    </g>
   </g>
   <g id="PathCollection_1">
    <defs>
     <path id="m2563dede75" d="M 0 3.162278 
C 0.838646 3.162278 1.643056 2.82908 2.236068 2.236068 
C 2.82908 1.643056 3.162278 0.838646 3.162278 0 
C 3.162278 -0.838646 2.82908 -1.643056 2.236068 -2.236068 
C 1.643056 -2.82908 0.838646 -3.162278 0 -3.162278 
C -0.838646 -3.162278 -1.643056 -2.82908 -2.236068 -2.236068 
C -2.82908 -1.643056 -3.162278 -0.838646 -3.162278 0 
C -3.162278 0.838646 -2.82908 1.643056 -2.236068 2.236068 
C -1.643056 2.82908 -0.838646 3.162278 0 3.162278 
z
" style="stroke: #f39c12"/>
    </defs>
    <g clip-path="url(#p1ae2ccfcc2)">
     <use xlink:href="#m2563dede75" x="213.650017" y="181.211067" style="fill: #f39c12; stroke: #f39c12"/>
    </g>
   </g>
  </g>
  <g id="axes_2">
   <g id="patch_6">
    <path d="M 564.557091 334.828 
C 615.725377 334.828 664.804831 321.891125 700.986273 298.866571 
C 737.167715 275.842017 757.497091 244.609637 757.497091 212.048 
C 757.497091 179.486363 737.167715 148.253983 700.986273 125.229429 
C 664.804831 102.204875 615.725377 89.268 564.557091 89.268 
C 513.388805 89.268 464.309351 102.204875 428.127909 125.229429 
C 391.946466 148.253983 371.617091 179.486363 371.617091 212.048 
C 371.617091 244.609637 391.946466 275.842017 428.127909 298.866571 
C 464.309351 321.891125 513.388805 334.828 564.557091 334.828 
L 564.557091 334.828 
z
" clip-path="url(#p31097972cd)" style="fill: none; opacity: 0.7; stroke-dasharray: 3.7,1.6; stroke-dashoffset: 0; stroke: #95a5a6; stroke-linejoin: miter"/>
   </g>
   <g id="patch_7">
    <path d="M 564.557091 250.636 
C 606.422052 250.636 646.577969 246.570125 676.180967 239.333836 
C 705.783965 232.097548 722.417091 222.281657 722.417091 212.048 
C 722.417091 201.814343 705.783965 191.998452 676.180967 184.762164 
C 646.577969 177.525875 606.422052 173.46 564.557091 173.46 
C 522.69213 173.46 482.536213 177.525875 452.933214 184.762164 
C 423.330216 191.998452 406.697091 201.814343 406.697091 212.048 
C 406.697091 222.281657 423.330216 232.097548 452.933214 239.333836 
C 482.536213 246.570125 522.69213 250.636 564.557091 250.636 
z
" clip-path="url(#p31097972cd)" style="fill: #2ecc71; opacity: 0.08; stroke: #2ecc71; stroke-linejoin: miter"/>
   </g>
   <g id="patch_8">
    <path d="M 564.557091 231.342 
C 606.422052 231.342 646.577969 229.309062 676.180967 225.690918 
C 705.783965 222.072774 722.417091 217.164829 722.417091 212.048 
C 722.417091 206.931171 705.783965 202.023226 676.180967 198.405082 
C 646.577969 194.786938 606.422052 192.754 564.557091 192.754 
C 522.69213 192.754 482.536213 194.786938 452.933214 198.405082 
C 423.330216 202.023226 406.697091 206.931171 406.697091 212.048 
C 406.697091 217.164829 423.330216 222.072774 452.933214 225.690918 
C 482.536213 229.309062 522.69213 231.342 564.557091 231.342 
z
" clip-path="url(#p31097972cd)" style="fill: #2ecc71; opacity: 0.12; stroke: #2ecc71; stroke-linejoin: miter"/>
   </g>
   <g id="patch_9">
    <path d="M 564.557091 243.62 
C 574.790748 243.62 584.606639 240.293375 591.842927 234.372775 
C 599.079216 228.452176 603.145091 220.420992 603.145091 212.048 
C 603.145091 203.675008 599.079216 195.643824 591.842927 189.723225 
C 584.606639 183.802625 574.790748 180.476 564.557091 180.476 
C 554.323434 180.476 544.507543 183.802625 537.271254 189.723225 
C 530.034966 195.643824 525.969091 203.675008 525.969091 212.048 
C 525.969091 220.420992 530.034966 228.452176 537.271254 234.372775 
C 544.507543 240.293375 554.323434 243.62 564.557091 243.62 
z
" clip-path="url(#p31097972cd)" style="fill: #e74c3c; opacity: 0.18; stroke: #e74c3c; stroke-linejoin: miter"/>
   </g>
   <g id="text_4">
    <!-- halo -->
    <g style="fill: #95a5a6" transform="translate(711.893091 110.316) scale(0.08 -0.08)">
     <use xlink:href="#DejaVuSans-68"/>
     <use xlink:href="#DejaVuSans-61" transform="translate(63.378906 0)"/>
     <use xlink:href="#DejaVuSans-6c" transform="translate(124.658203 0)"/>
     <use xlink:href="#DejaVuSans-6f" transform="translate(152.441406 0)"/>
    </g>
   </g>
   <g id="text_5">
    <!-- disk -->
    <g style="fill: #2ecc71" transform="translate(392.665091 261.16) scale(0.08 -0.08)">
     <defs>
      <path id="DejaVuSans-64" d="M 2906 2969 
L 2906 4863 
L 3481 4863 
L 3481 0 
L 2906 0 
L 2906 525 
Q 2725 213 2448 61 
Q 2172 -91 1784 -91 
Q 1150 -91 751 415 
Q 353 922 353 1747 
Q 353 2572 751 3078 
Q 1150 3584 1784 3584 
Q 2172 3584 2448 3432 
Q 2725 3281 2906 2969 
z
M 947 1747 
Q 947 1113 1208 752 
Q 1469 391 1925 391 
Q 2381 391 2643 752 
Q 2906 1113 2906 1747 
Q 2906 2381 2643 2742 
Q 2381 3103 1925 3103 
Q 1469 3103 1208 2742 
Q 947 2381 947 1747 
z
" transform="scale(0.015625)"/>
     </defs>
     <use xlink:href="#DejaVuSans-64"/>
     <use xlink:href="#DejaVuSans-69" transform="translate(63.476562 0)"/>
     <use xlink:href="#DejaVuSans-73" transform="translate(91.259766 0)"/>
     <use xlink:href="#DejaVuSans-6b" transform="translate(143.359375 0)"/>
    </g>
   </g>
   <g id="text_6">
    <!-- bulge/bar -->
    <g style="fill: #e74c3c" transform="translate(545.388341 162.936) scale(0.08 -0.08)">
     <defs>
      <path id="DejaVuSans-62" d="M 3116 1747 
Q 3116 2381 2855 2742 
Q 2594 3103 2138 3103 
Q 1681 3103 1420 2742 
Q 1159 2381 1159 1747 
Q 1159 1113 1420 752 
Q 1681 391 2138 391 
Q 2594 391 2855 752 
Q 3116 1113 3116 1747 
z
M 1159 2969 
Q 1341 3281 1617 3432 
Q 1894 3584 2278 3584 
Q 2916 3584 3314 3078 
Q 3713 2572 3713 1747 
Q 3713 922 3314 415 
Q 2916 -91 2278 -91 
Q 1894 -91 1617 61 
Q 1341 213 1159 525 
L 1159 0 
L 581 0 
L 581 4863 
L 1159 4863 
L 1159 2969 
z
" transform="scale(0.015625)"/>
      <path id="DejaVuSans-67" d="M 2906 1791 
Q 2906 2416 2648 2759 
Q 2391 3103 1925 3103 
Q 1463 3103 1205 2759 
Q 947 2416 947 1791 
Q 947 1169 1205 825 
Q 1463 481 1925 481 
Q 2391 481 2648 825 
Q 2906 1169 2906 1791 
z
M 3481 434 
Q 3481 -459 3084 -895 
Q 2688 -1331 1869 -1331 
Q 1566 -1331 1297 -1286 
Q 1028 -1241 775 -1147 
L 775 -588 
Q 1028 -725 1275 -790 
Q 1522 -856 1778 -856 
Q 2344 -856 2625 -561 
Q 2906 -266 2906 331 
L 2906 616 
Q 2728 306 2450 153 
Q 2172 0 1784 0 
Q 1141 0 747 490 
Q 353 981 353 1791 
Q 353 2603 747 3093 
Q 1141 3584 1784 3584 
Q 2172 3584 2450 3431 
Q 2728 3278 2906 2969 
L 2906 3500 
L 3481 3500 
L 3481 434 
z
" transform="scale(0.015625)"/>
      <path id="DejaVuSans-2f" d="M 1625 4666 
L 2156 4666 
L 531 -594 
L 0 -594 
L 1625 4666 
z
" transform="scale(0.015625)"/>
      <path id="DejaVuSans-72" d="M 2631 2963 
Q 2534 3019 2420 3045 
Q 2306 3072 2169 3072 
Q 1681 3072 1420 2755 
Q 1159 2438 1159 1844 
L 1159 0 
L 581 0 
L 581 3500 
L 1159 3500 
L 1159 2956 
Q 1341 3275 1631 3429 
Q 1922 3584 2338 3584 
Q 2397 3584 2469 3576 
Q 2541 3569 2628 3553 
L 2631 2963 
z
" transform="scale(0.015625)"/>
     </defs>
     <use xlink:href="#DejaVuSans-62"/>
     <use xlink:href="#DejaVuSans-75" transform="translate(63.476562 0)"/>
     <use xlink:href="#DejaVuSans-6c" transform="translate(126.855469 0)"/>
     <use xlink:href="#DejaVuSans-67" transform="translate(154.638672 0)"/>
     <use xlink:href="#DejaVuSans-65" transform="translate(218.115234 0)"/>
     <use xlink:href="#DejaVuSans-2f" transform="translate(279.638672 0)"/>
     <use xlink:href="#DejaVuSans-62" transform="translate(313.330078 0)"/>
     <use xlink:href="#DejaVuSans-61" transform="translate(376.806641 0)"/>
     <use xlink:href="#DejaVuSans-72" transform="translate(438.085938 0)"/>
    </g>
   </g>
   <g id="text_7">
    <!-- edge-on -->
    <g style="fill: #95a5a6" transform="translate(548.055216 89.268) scale(0.08 -0.08)">
     <use xlink:href="#DejaVuSans-65"/>
     <use xlink:href="#DejaVuSans-64" transform="translate(61.523438 0)"/>
     <use xlink:href="#DejaVuSans-67" transform="translate(125 0)"/>
     <use xlink:href="#DejaVuSans-65" transform="translate(188.476562 0)"/>
     <use xlink:href="#DejaVuSans-2d" transform="translate(250 0)"/>
     <use xlink:href="#DejaVuSans-6f" transform="translate(287.958984 0)"/>
     <use xlink:href="#DejaVuSans-6e" transform="translate(349.140625 0)"/>
    </g>
   </g>
   <g id="text_8">
    <!-- Components (schematic) -->
    <g transform="translate(489.249591 61.728) scale(0.12 -0.12)">
     <defs>
      <path id="DejaVuSans-43" d="M 4122 4306 
L 4122 3641 
Q 3803 3938 3442 4084 
Q 3081 4231 2675 4231 
Q 1875 4231 1450 3742 
Q 1025 3253 1025 2328 
Q 1025 1406 1450 917 
Q 1875 428 2675 428 
Q 3081 428 3442 575 
Q 3803 722 4122 1019 
L 4122 359 
Q 3791 134 3420 21 
Q 3050 -91 2638 -91 
Q 1578 -91 968 557 
Q 359 1206 359 2328 
Q 359 3453 968 4101 
Q 1578 4750 2638 4750 
Q 3056 4750 3426 4639 
Q 3797 4528 4122 4306 
z
" transform="scale(0.015625)"/>
      <path id="DejaVuSans-70" d="M 1159 525 
L 1159 -1331 
L 581 -1331 
L 581 3500 
L 1159 3500 
L 1159 2969 
Q 1341 3281 1617 3432 
Q 1894 3584 2278 3584 
Q 2916 3584 3314 3078 
Q 3713 2572 3713 1747 
Q 3713 922 3314 415 
Q 2916 -91 2278 -91 
Q 1894 -91 1617 61 
Q 1341 213 1159 525 
z
M 3116 1747 
Q 3116 2381 2855 2742 
Q 2594 3103 2138 3103 
Q 1681 3103 1420 2742 
Q 1159 2381 1159 1747 
Q 1159 1113 1420 752 
Q 1681 391 2138 391 
Q 2594 391 2855 752 
Q 3116 1113 3116 1747 
z
" transform="scale(0.015625)"/>
     </defs>
     <use xlink:href="#DejaVuSans-43"/>
     <use xlink:href="#DejaVuSans-6f" transform="translate(69.824219 0)"/>
     <use xlink:href="#DejaVuSans-6d" transform="translate(131.005859 0)"/>
     <use xlink:href="#DejaVuSans-70" transform="translate(228.417969 0)"/>
     <use xlink:href="#DejaVuSans-6f" transform="translate(291.894531 0)"/>
     <use xlink:href="#DejaVuSans-6e" transform="translate(353.076172 0)"/>
     <use xlink:href="#DejaVuSans-65" transform="translate(416.455078 0)"/>
     <use xlink:href="#DejaVuSans-6e" transform="translate(477.978516 0)"/>
     <use xlink:href="#DejaVuSans-74" transform="translate(541.357422 0)"/>
     <use xlink:href="#DejaVuSans-73" transform="translate(580.566406 0)"/>
     <use xlink:href="#DejaVuSans-20" transform="translate(632.666016 0)"/>
     <use xlink:href="#DejaVuSans-28" transform="translate(664.453125 0)"/>
     <use xlink:href="#DejaVuSans-73" transform="translate(703.466797 0)"/>
     <use xlink:href="#DejaVuSans-63" transform="translate(755.566406 0)"/>
     <use xlink:href="#DejaVuSans-68" transform="translate(810.546875 0)"/>
     <use xlink:href="#DejaVuSans-65" transform="translate(873.925781 0)"/>
     <use xlink:href="#DejaVuSans-6d" transform="translate(935.449219 0)"/>
     <use xlink:href="#DejaVuSans-61" transform="translate(1032.861328 0)"/>
     <use xlink:href="#DejaVuSans-74" transform="translate(1094.140625 0)"/>
     <use xlink:href="#DejaVuSans-69" transform="translate(1133.349609 0)"/>
     <use xlink:href="#DejaVuSans-63" transform="translate(1161.132812 0)"/>
     <use xlink:href="#DejaVuSans-29" transform="translate(1216.113281 0)"/>
    </g>
   </g>
  </g>
  <g id="text_9">
   <!-- The Milky Way: Structure and Components -->
   <g transform="translate(207.250264 17.837812) scale(0.14 -0.14)">
    <defs>
     <path id="DejaVuSans-54" d="M -19 4666 
L 3928 4666 
L 3928 4134 
L 2272 4134 
L 2272 0 
L 1638 0 
L 1638 4134 
L -19 4134 
L -19 4666 
z
" transform="scale(0.015625)"/>
     <path id="DejaVuSans-3a" d="M 750 794 
L 1409 794 
L 1409 0 
L 750 0 
L 750 794 
z
M 750 3309 
L 1409 3309 
L 1409 2516 
L 750 2516 
L 750 3309 
z
" transform="scale(0.015625)"/>
    </defs>
    <use xlink:href="#DejaVuSans-54"/>
    <use xlink:href="#DejaVuSans-68" transform="translate(61.083984 0)"/>
    <use xlink:href="#DejaVuSans-65" transform="translate(124.462891 0)"/>
    <use xlink:href="#DejaVuSans-20" transform="translate(185.986328 0)"/>
    <use xlink:href="#DejaVuSans-4d" transform="translate(217.773438 0)"/>
    <use xlink:href="#DejaVuSans-69" transform="translate(304.052734 0)"/>
    <use xlink:href="#DejaVuSans-6c" transform="translate(331.835938 0)"/>
    <use xlink:href="#DejaVuSans-6b" transform="translate(359.619141 0)"/>
    <use xlink:href="#DejaVuSans-79" transform="translate(413.904297 0)"/>
    <use xlink:href="#DejaVuSans-20" transform="translate(473.083984 0)"/>
    <use xlink:href="#DejaVuSans-57" transform="translate(504.871094 0)"/>
    <use xlink:href="#DejaVuSans-61" transform="translate(597.373047 0)"/>
    <use xlink:href="#DejaVuSans-79" transform="translate(658.652344 0)"/>
    <use xlink:href="#DejaVuSans-3a" transform="translate(710.582031 0)"/>
    <use xlink:href="#DejaVuSans-20" transform="translate(744.273438 0)"/>
    <use xlink:href="#DejaVuSans-53" transform="translate(776.060547 0)"/>
    <use xlink:href="#DejaVuSans-74" transform="translate(839.537109 0)"/>
    <use xlink:href="#DejaVuSans-72" transform="translate(878.746094 0)"/>
    <use xlink:href="#DejaVuSans-75" transform="translate(919.859375 0)"/>
    <use xlink:href="#DejaVuSans-63" transform="translate(983.238281 0)"/>
    <use xlink:href="#DejaVuSans-74" transform="translate(1038.21875 0)"/>
    <use xlink:href="#DejaVuSans-75" transform="translate(1077.427734 0)"/>
    <use xlink:href="#DejaVuSans-72" transform="translate(1140.806641 0)"/>
    <use xlink:href="#DejaVuSans-65" transform="translate(1179.669922 0)"/>
    <use xlink:href="#DejaVuSans-20" transform="translate(1241.193359 0)"/>
    <use xlink:href="#DejaVuSans-61" transform="translate(1272.980469 0)"/>
    <use xlink:href="#DejaVuSans-6e" transform="translate(1334.259766 0)"/>
    <use xlink:href="#DejaVuSans-64" transform="translate(1397.638672 0)"/>
    <use xlink:href="#DejaVuSans-20" transform="translate(1461.115234 0)"/>
    <use xlink:href="#DejaVuSans-43" transform="translate(1492.902344 0)"/>
    <use xlink:href="#DejaVuSans-6f" transform="translate(1562.726562 0)"/>
    <use xlink:href="#DejaVuSans-6d" transform="translate(1623.908203 0)"/>
    <use xlink:href="#DejaVuSans-70" transform="translate(1721.320312 0)"/>
    <use xlink:href="#DejaVuSans-6f" transform="translate(1784.796875 0)"/>
    <use xlink:href="#DejaVuSans-6e" transform="translate(1845.978516 0)"/>
    <use xlink:href="#DejaVuSans-65" transform="translate(1909.357422 0)"/>
    <use xlink:href="#DejaVuSans-6e" transform="translate(1970.880859 0)"/>
    <use xlink:href="#DejaVuSans-74" transform="translate(2034.259766 0)"/>
    <use xlink:href="#DejaVuSans-73" transform="translate(2073.46875 0)"/>
   </g>
  </g>
 </g>
 <defs>
  <clipPath id="p1ae2ccfcc2">
   <rect x="7.2" y="71.728" width="280.64" height="280.64"/>
  </clipPath>
  <clipPath id="p31097972cd">
   <rect x="354.077091" y="71.728" width="420.96" height="280.64"/>
  </clipPath>
 </defs>
</svg>
