<?xml version="1.0" encoding="utf-8" standalone="no"?>
<!DOCTYPE svg PUBLIC "-//W3C//DTD SVG 1.1//EN"
  "http://www.w3.org/Graphics/SVG/1.1/DTD/svg11.dtd">
<svg xmlns:xlink="http://www.w3.org/1999/xlink" width="784.8pt" height="568.08pt" viewBox="0 0 784.8 568.08" xmlns="http://www.w3.org/2000/svg" version="1.1">
 <metadata>
  <rdf:RDF xmlns:dc="http://purl.org/dc/elements/1.1/" xmlns:cc="http://creativecommons.org/ns#" xmlns:rdf="http://www.w3.org/1999/02/22-rdf-syntax-ns#">
   <cc:Work>
    <dc:type rdf:resource="http://purl.org/dc/dcmitype/StillImage"/>
    <dc:date>2026-01-02T18:44:37.115523</dc:date>
    <dc:format>image/svg+xml</dc:format>
    <dc:creator>
     <cc:Agent>
      <dc:title>Matplotlib v3.10.8, https://matplotlib.org/</dc:title>
     </cc:Agent>
    </dc:creator>
   </cc:Work>
  </rdf:RDF>
 </metadata>
 <defs>
  <style type="text/css">*{stroke-linejoin: round; stroke-linecap: butt}</style>
 </defs>
 <g id="figure_1">
  <g id="patch_1">
   <path d="M 0 568.08 
L 784.8 568.08 
L 784.8 0 
L 0 0 
z
" style="fill: #ffffff"/>
  </g>
  <g id="axes_1">
   <g id="patch_2">
    <path d="M 121.14 199.512 
C 132.471465 199.512 143.340349 195.407772 151.352905 188.103223 
C 159.365461 180.798675 163.8675 170.890191 163.8675 160.56 
C 163.8675 150.229809 159.365461 140.321325 151.352905 133.016777 
C 143.340349 125.712228 132.471465 121.608 121.14 121.608 
C 109.808535 121.608 98.939651 125.712228 90.927095 133.016777 
C 82.914539 140.321325 78.4125 150.229809 78.4125 160.56 
C 78.4125 170.890191 82.914539 180.798675 90.927095 188.103223 
C 98.939651 195.407772 109.808535 199.512 121.14 199.512 
z
" clip-path="url(#p691077e5fc)" style="fill: #2ecc71; opacity: 0.1; stroke: #2ecc71; stroke-linejoin: miter"/>
   </g>
   <g id="patch_3">
    <path d="M 121.14 175.708 
C 125.546681 175.708 129.773469 174.111911 132.889463 171.271254 
C 136.005457 168.430596 137.75625 164.577297 137.75625 160.56 
C 137.75625 156.542703 136.005457 152.689404 132.889463 149.848746 
C 129.773469 147.008089 125.546681 145.412 121.14 145.412 
C 116.733319 145.412 112.506531 147.008089 109.390537 149.848746 
C 106.274543 152.689404 104.52375 156.542703 104.52375 160.56 
C 104.52375 164.577297 106.274543 168.430596 109.390537 171.271254 
C 112.506531 174.111911 116.733319 175.708 121.14 175.708 
z
" clip-path="url(#p691077e5fc)" style="fill: #e74c3c; opacity: 0.25; stroke: #e74c3c; stroke-linejoin: miter"/>
   </g>
   <g id="patch_4">
    <path d="M 273.06 199.512 
C 284.391465 199.512 295.260349 195.407772 303.272905 188.103223 
C 311.285461 180.798675 315.7875 170.890191 315.7875 160.56 
C 315.7875 150.229809 311.285461 140.321325 303.272905 133.016777 
C 295.260349 125.712228 284.391465 121.608 273.06 121.608 
C 261.728535 121.608 250.859651 125.712228 242.847095 133.016777 
C 234.834539 140.321325 230.3325 150.229809 230.3325 160.56 
C 230.3325 170.890191 234.834539 180.798675 242.847095 188.103223 
C 250.859651 195.407772 261.728535 199.512 273.06 199.512 
z
" clip-path="url(#p691077e5fc)" style="fill: #2ecc71; opacity: 0.1; stroke: #2ecc71; stroke-linejoin: miter"/>
   </g>
   <g id="patch_5">
    <path d="M 273.06 175.708 
C 277.466681 175.708 281.693469 174.111911 284.809463 171.271254 
C 287.925457 168.430596 289.67625 164.577297 289.67625 160.56 
C 289.67625 156.542703 287.925457 152.689404 284.809463 149.848746 
C 281.693469 147.008089 277.466681 145.412 273.06 145.412 
C 268.653319 145.412 264.426531 147.008089 261.310537 149.848746 
C 258.194543 152.689404 256.44375 156.542703 256.44375 160.56 
C 256.44375 164.577297 258.194543 168.430596 261.310537 171.271254 
C 264.426531 174.111911 268.653319 175.708 273.06 175.708 
z
" clip-path="url(#p691077e5fc)" style="fill: #e74c3c; opacity: 0.25; stroke: #e74c3c; stroke-linejoin: miter"/>
   </g>
   <g id="line2d_1">
    <path d="M 131.109841 156.717282 
L 130.996862 155.989161 
L 130.819842 155.256921 
L 130.57762 154.525237 
L 130.269447 153.798909 
L 129.894996 153.082832 
L 129.454371 152.381969 
L 128.948123 151.701315 
L 128.377244 151.045867 
L 127.743182 150.420589 
L 127.04783 149.830382 
L 126.293529 149.280049 
L 125.483062 148.774261 
L 124.61964 148.317526 
L 123.706897 147.914155 
L 122.74887 147.56823 
L 121.749983 147.283577 
L 120.715028 147.063732 
L 119.649139 146.911915 
L 118.557769 146.831003 
L 117.446663 146.823507 
L 116.321825 146.891545 
L 115.189488 147.036824 
L 114.056078 147.260622 
L 112.928179 147.56377 
L 111.812497 147.946637 
L 110.715818 148.409121 
L 109.644972 148.950642 
L 108.606787 149.570132 
L 107.608053 150.266036 
L 106.655478 151.036309 
L 105.755643 151.878421 
L 104.914966 152.789365 
L 104.139656 153.765662 
L 103.435672 154.803375 
L 102.808686 155.898124 
L 102.26404 157.045105 
L 101.806712 158.239109 
L 101.441279 159.474545 
L 101.171881 160.745469 
L 101.002189 162.045608 
L 100.935379 163.368398 
L 100.974099 164.707007 
L 101.120449 166.054382 
L 101.375955 167.403275 
L 101.741555 168.74629 
L 102.217579 170.075918 
L 102.803739 171.384583 
L 103.499119 172.664679 
L 104.30217 173.908619 
L 105.210709 175.108874 
L 106.221919 176.25802 
L 107.332357 177.348782 
L 108.537961 178.374077 
L 109.834062 179.327056 
L 111.215407 180.201152 
L 112.676169 180.990115 
L 114.209982 181.688059 
L 115.809957 182.289494 
L 117.468722 182.789372 
L 119.178451 183.183115 
L 120.9309 183.46665 
L 122.717452 183.636442 
L 124.529151 183.689521 
L 126.356755 183.623507 
L 128.19078 183.436632 
L 130.021546 183.12776 
L 131.839234 182.696402 
L 133.633933 182.14273 
L 135.395697 181.467587 
L 137.114598 180.672486 
L 138.780781 179.759619 
L 140.384522 178.731853 
L 141.91628 177.592722 
L 143.366753 176.346416 
L 144.726936 174.997774 
L 145.988171 173.55226 
L 147.142199 172.015945 
L 148.181215 170.395483 
L 149.097914 168.69808 
L 149.885539 166.931467 
L 150.537925 165.103858 
L 151.04954 163.223921 
L 151.415527 161.300729 
L 151.631738 159.343721 
L 151.694763 157.362653 
L 151.601963 155.367553 
L 151.351496 153.368666 
L 150.94233 151.376403 
L 150.374267 149.401288 
L 149.647953 147.453901 
L 148.764884 145.544824 
L 147.727411 143.68458 
L 146.538735 141.88358 
L 145.202907 140.152062 
L 143.724812 138.500034 
L 142.110155 136.937221 
L 140.36544 135.473005 
L 138.497949 134.11637 
L 136.515706 132.875853 
L 134.42745 131.75949 
L 132.242594 130.774765 
L 129.971183 129.928566 
L 127.623848 129.227141 
L 125.211757 128.676055 
L 122.746563 128.280151 
L 120.240346 128.04352 
L 117.705554 127.969465 
L 115.154943 128.060477 
L 112.60151 128.318211 
L 110.05843 128.743468 
L 107.538985 129.336179 
L 105.056496 130.095397 
L 102.624255 131.019292 
L 100.255449 132.105148 
L 97.963096 133.349368 
L 95.759967 134.747487 
L 93.658521 136.294177 
L 91.670832 137.983275 
L 89.808524 139.807799 
" clip-path="url(#p691077e5fc)" style="fill: none; stroke: #e74c3c; stroke-opacity: 0.8; stroke-width: 1.8; stroke-linecap: square"/>
   </g>
   <g id="line2d_2">
    <path d="M 283.029841 156.717282 
L 282.916862 155.989161 
L 282.739842 155.256921 
L 282.49762 154.525237 
L 282.189447 153.798909 
L 281.814996 153.082832 
L 281.374371 152.381969 
L 280.868123 151.701315 
L 280.297244 151.045867 
L 279.663182 150.420589 
L 278.96783 149.830382 
L 278.213529 149.280049 
L 277.403062 148.774261 
L 276.53964 148.317526 
L 275.626897 147.914155 
L 274.66887 147.56823 
L 273.669983 147.283577 
L 272.635028 147.063732 
L 271.569139 146.911915 
L 270.477769 146.831003 
L 269.366663 146.823507 
L 268.241825 146.891545 
L 267.109488 147.036824 
L 265.976078 147.260622 
L 264.848179 147.56377 
L 263.732497 147.946637 
L 262.635818 148.409121 
L 261.564972 148.950642 
L 260.526787 149.570132 
L 259.528053 150.266036 
L 258.575478 151.036309 
L 257.675643 151.878421 
L 256.834966 152.789365 
L 256.059656 153.765662 
L 255.355672 154.803375 
L 254.728686 155.898124 
L 254.18404 157.045105 
L 253.726712 158.239109 
L 253.361279 159.474545 
L 253.091881 160.745469 
L 252.922189 162.045608 
L 252.855379 163.368398 
L 252.894099 164.707007 
L 253.040449 166.054382 
L 253.295955 167.403275 
L 253.661555 168.74629 
L 254.137579 170.075918 
L 254.723739 171.384583 
L 255.419119 172.664679 
L 256.22217 173.908619 
L 257.130709 175.108874 
L 258.141919 176.25802 
L 259.252357 177.348782 
L 260.457961 178.374077 
L 261.754062 179.327056 
L 263.135407 180.201152 
L 264.596169 180.990115 
L 266.129982 181.688059 
L 267.729957 182.289494 
L 269.388722 182.789372 
L 271.098451 183.183115 
L 272.8509 183.46665 
L 274.637452 183.636442 
L 276.449151 183.689521 
L 278.276755 183.623507 
L 280.11078 183.436632 
L 281.941546 183.12776 
L 283.759234 182.696402 
L 285.553933 182.14273 
L 287.315697 181.467587 
L 289.034598 180.672486 
L 290.700781 179.759619 
L 292.304522 178.731853 
L 293.83628 177.592722 
L 295.286753 176.346416 
L 296.646936 174.997774 
L 297.908171 173.55226 
L 299.062199 172.015945 
L 300.101215 170.395483 
L 301.017914 168.69808 
L 301.805539 166.931467 
L 302.457925 165.103858 
L 302.96954 163.223921 
L 303.335527 161.300729 
L 303.551738 159.343721 
L 303.614763 157.362653 
L 303.521963 155.367553 
L 303.271496 153.368666 
L 302.86233 151.376403 
L 302.294267 149.401288 
L 301.567953 147.453901 
L 300.684884 145.544824 
L 299.647411 143.68458 
L 298.458735 141.88358 
L 297.122907 140.152062 
L 295.644812 138.500034 
L 294.030155 136.937221 
L 292.28544 135.473005 
L 290.417949 134.11637 
L 288.435706 132.875853 
L 286.34745 131.75949 
L 284.162594 130.774765 
L 281.891183 129.928566 
L 279.543848 129.227141 
L 277.131757 128.676055 
L 274.666563 128.280151 
L 272.160346 128.04352 
L 269.625554 127.969465 
L 267.074943 128.060477 
L 264.52151 128.318211 
L 261.97843 128.743468 
L 259.458985 129.336179 
L 256.976496 130.095397 
L 254.544255 131.019292 
L 252.175449 132.105148 
L 249.883096 133.349368 
L 247.679967 134.747487 
L 245.578521 136.294177 
L 243.590832 137.983275 
L 241.728524 139.807799 
" clip-path="url(#p691077e5fc)" style="fill: none; stroke: #e74c3c; stroke-opacity: 0.8; stroke-width: 1.8; stroke-linecap: square"/>
   </g>
   <g id="text_1">
    <!-- Approach -->
    <g style="fill: #2c3e50" transform="translate(16.695 48.032) scale(0.08 -0.08)">
     <defs>
      <path id="DejaVuSans-Bold-41" d="M 3419 850 
L 1538 850 
L 1241 0 
L 31 0 
L 1759 4666 
L 3194 4666 
L 4922 0 
L 3713 0 
L 3419 850 
z
M 1838 1716 
L 3116 1716 
L 2478 3572 
L 1838 1716 
z
" transform="scale(0.015625)"/>
      <path id="DejaVuSans-Bold-70" d="M 1656 506 
L 1656 -1331 
L 538 -1331 
L 538 3500 
L 1656 3500 
L 1656 2988 
Q 1888 3294 2169 3439 
Q 2450 3584 2816 3584 
Q 3463 3584 3878 3070 
Q 4294 2556 4294 1747 
Q 4294 938 3878 423 
Q 3463 -91 2816 -91 
Q 2450 -91 2169 54 
Q 1888 200 1656 506 
z
M 2400 2772 
Q 2041 2772 1848 2508 
Q 1656 2244 1656 1747 
Q 1656 1250 1848 986 
Q 2041 722 2400 722 
Q 2759 722 2948 984 
Q 3138 1247 3138 1747 
Q 3138 2247 2948 2509 
Q 2759 2772 2400 2772 
z
" transform="scale(0.015625)"/>
      <path id="DejaVuSans-Bold-72" d="M 3138 2547 
Q 2991 2616 2845 2648 
Q 2700 2681 2553 2681 
Q 2122 2681 1889 2404 
Q 1656 2128 1656 1613 
L 1656 0 
L 538 0 
L 538 3500 
L 1656 3500 
L 1656 2925 
Q 1872 3269 2151 3426 
Q 2431 3584 2822 3584 
Q 2878 3584 2943 3579 
Q 3009 3575 3134 3559 
L 3138 2547 
z
" transform="scale(0.015625)"/>
      <path id="DejaVuSans-Bold-6f" d="M 2203 2784 
Q 1831 2784 1636 2517 
Q 1441 2250 1441 1747 
Q 1441 1244 1636 976 
Q 1831 709 2203 709 
Q 2569 709 2762 976 
Q 2956 1244 2956 1747 
Q 2956 2250 2762 2517 
Q 2569 2784 2203 2784 
z
M 2203 3584 
Q 3106 3584 3614 3096 
Q 4122 2609 4122 1747 
Q 4122 884 3614 396 
Q 3106 -91 2203 -91 
Q 1297 -91 786 396 
Q 275 884 275 1747 
Q 275 2609 786 3096 
Q 1297 3584 2203 3584 
z
" transform="scale(0.015625)"/>
      <path id="DejaVuSans-Bold-61" d="M 2106 1575 
Q 1756 1575 1579 1456 
Q 1403 1338 1403 1106 
Q 1403 894 1545 773 
Q 1688 653 1941 653 
Q 2256 653 2472 879 
Q 2688 1106 2688 1447 
L 2688 1575 
L 2106 1575 
z
M 3816 1997 
L 3816 0 
L 2688 0 
L 2688 519 
Q 2463 200 2181 54 
Q 1900 -91 1497 -91 
Q 953 -91 614 226 
Q 275 544 275 1050 
Q 275 1666 698 1953 
Q 1122 2241 2028 2241 
L 2688 2241 
L 2688 2328 
Q 2688 2594 2478 2717 
Q 2269 2841 1825 2841 
Q 1466 2841 1156 2769 
Q 847 2697 581 2553 
L 581 3406 
Q 941 3494 1303 3539 
Q 1666 3584 2028 3584 
Q 2975 3584 3395 3211 
Q 3816 2838 3816 1997 
z
" transform="scale(0.015625)"/>
      <path id="DejaVuSans-Bold-63" d="M 3366 3391 
L 3366 2478 
Q 3138 2634 2908 2709 
Q 2678 2784 2431 2784 
Q 1963 2784 1702 2511 
Q 1441 2238 1441 1747 
Q 1441 1256 1702 982 
Q 1963 709 2431 709 
Q 2694 709 2930 787 
Q 3166 866 3366 1019 
L 3366 103 
Q 3103 6 2833 -42 
Q 2563 -91 2291 -91 
Q 1344 -91 809 395 
Q 275 881 275 1747 
Q 275 2613 809 3098 
Q 1344 3584 2291 3584 
Q 2566 3584 2833 3536 
Q 3100 3488 3366 3391 
z
" transform="scale(0.015625)"/>
      <path id="DejaVuSans-Bold-68" d="M 4056 2131 
L 4056 0 
L 2931 0 
L 2931 347 
L 2931 1625 
Q 2931 2084 2911 2256 
Q 2891 2428 2841 2509 
Q 2775 2619 2662 2680 
Q 2550 2741 2406 2741 
Q 2056 2741 1856 2470 
Q 1656 2200 1656 1722 
L 1656 0 
L 538 0 
L 538 4863 
L 1656 4863 
L 1656 2988 
Q 1909 3294 2193 3439 
Q 2478 3584 2822 3584 
Q 3428 3584 3742 3212 
Q 4056 2841 4056 2131 
z
" transform="scale(0.015625)"/>
     </defs>
     <use xlink:href="#DejaVuSans-Bold-41"/>
     <use xlink:href="#DejaVuSans-Bold-70" transform="translate(77.392578 0)"/>
     <use xlink:href="#DejaVuSans-Bold-70" transform="translate(148.974609 0)"/>
     <use xlink:href="#DejaVuSans-Bold-72" transform="translate(220.556641 0)"/>
     <use xlink:href="#DejaVuSans-Bold-6f" transform="translate(269.873047 0)"/>
     <use xlink:href="#DejaVuSans-Bold-61" transform="translate(338.574219 0)"/>
     <use xlink:href="#DejaVuSans-Bold-63" transform="translate(406.054688 0)"/>
     <use xlink:href="#DejaVuSans-Bold-68" transform="translate(465.332031 0)"/>
    </g>
   </g>
   <g id="patch_6">
    <path d="M 252.071785 160.56 
Q 244.577727 160.56 239.878755 160.56 
" style="fill: none; stroke: #95a5a6; stroke-width: 2.5; stroke-linecap: round"/>
    <path d="M 243.878755 162.56 
L 239.878755 160.56 
L 243.878755 158.56 
" style="fill: none; stroke: #95a5a6; stroke-width: 2.5; stroke-linecap: round"/>
   </g>
   <g id="patch_7">
    <path d="M 142.128215 160.56 
Q 149.622273 160.56 154.321245 160.56 
" style="fill: none; stroke: #95a5a6; stroke-width: 2.5; stroke-linecap: round"/>
    <path d="M 150.321245 158.56 
L 154.321245 160.56 
L 150.321245 162.56 
" style="fill: none; stroke: #95a5a6; stroke-width: 2.5; stroke-linecap: round"/>
   </g>
  </g>
  <g id="axes_2">
   <g id="patch_8">
    <path d="M 544.9725 199.512 
C 556.303965 199.512 567.172849 195.407772 575.185405 188.103223 
C 583.197961 180.798675 587.7 170.890191 587.7 160.56 
C 587.7 150.229809 583.197961 140.321325 575.185405 133.016777 
C 567.172849 125.712228 556.303965 121.608 544.9725 121.608 
C 533.641035 121.608 522.772151 125.712228 514.759595 133.016777 
C 506.747039 140.321325 502.245 150.229809 502.245 160.56 
C 502.245 170.890191 506.747039 180.798675 514.759595 188.103223 
C 522.772151 195.407772 533.641035 199.512 544.9725 199.512 
z
" clip-path="url(#p118b6945fa)" style="fill: #2ecc71; opacity: 0.1; stroke: #2ecc71; stroke-linejoin: miter"/>
   </g>
   <g id="patch_9">
    <path d="M 544.9725 175.708 
C 549.379181 175.708 553.605969 174.111911 556.721963 171.271254 
C 559.837957 168.430596 561.58875 164.577297 561.58875 160.56 
C 561.58875 156.542703 559.837957 152.689404 556.721963 149.848746 
C 553.605969 147.008089 549.379181 145.412 544.9725 145.412 
C 540.565819 145.412 536.339031 147.008089 533.223037 149.848746 
C 530.107043 152.689404 528.35625 156.542703 528.35625 160.56 
C 528.35625 164.577297 530.107043 168.430596 533.223037 171.271254 
C 536.339031 174.111911 540.565819 175.708 544.9725 175.708 
z
" clip-path="url(#p118b6945fa)" style="fill: #e74c3c; opacity: 0.25; stroke: #e74c3c; stroke-linejoin: miter"/>
   </g>
   <g id="patch_10">
    <path d="M 630.4275 199.512 
C 641.758965 199.512 652.627849 195.407772 660.640405 188.103223 
C 668.652961 180.798675 673.155 170.890191 673.155 160.56 
C 673.155 150.229809 668.652961 140.321325 660.640405 133.016777 
C 652.627849 125.712228 641.758965 121.608 630.4275 121.608 
C 619.096035 121.608 608.227151 125.712228 600.214595 133.016777 
C 592.202039 140.321325 587.7 150.229809 587.7 160.56 
C 587.7 170.890191 592.202039 180.798675 600.214595 188.103223 
C 608.227151 195.407772 619.096035 199.512 630.4275 199.512 
z
" clip-path="url(#p118b6945fa)" style="fill: #2ecc71; opacity: 0.1; stroke: #2ecc71; stroke-linejoin: miter"/>
   </g>
   <g id="patch_11">
    <path d="M 630.4275 175.708 
C 634.834181 175.708 639.060969 174.111911 642.176963 171.271254 
C 645.292957 168.430596 647.04375 164.577297 647.04375 160.56 
C 647.04375 156.542703 645.292957 152.689404 642.176963 149.848746 
C 639.060969 147.008089 634.834181 145.412 630.4275 145.412 
C 626.020819 145.412 621.794031 147.008089 618.678037 149.848746 
C 615.562043 152.689404 613.81125 156.542703 613.81125 160.56 
C 613.81125 164.577297 615.562043 168.430596 618.678037 171.271254 
C 621.794031 174.111911 626.020819 175.708 630.4275 175.708 
z
" clip-path="url(#p118b6945fa)" style="fill: #e74c3c; opacity: 0.25; stroke: #e74c3c; stroke-linejoin: miter"/>
   </g>
   <g id="line2d_3">
    <path d="M 554.942341 156.717282 
L 554.829362 155.989161 
L 554.652342 155.256921 
L 554.41012 154.525237 
L 554.101947 153.798909 
L 553.727496 153.082832 
L 553.286871 152.381969 
L 552.780623 151.701315 
L 552.209744 151.045867 
L 551.575682 150.420589 
L 550.88033 149.830382 
L 550.126029 149.280049 
L 549.315562 148.774261 
L 548.45214 148.317526 
L 547.539397 147.914155 
L 546.58137 147.56823 
L 545.582483 147.283577 
L 544.547528 147.063732 
L 543.481639 146.911915 
L 542.390269 146.831003 
L 541.279163 146.823507 
L 540.154325 146.891545 
L 539.021988 147.036824 
L 537.888578 147.260622 
L 536.760679 147.56377 
L 535.644997 147.946637 
L 534.548318 148.409121 
L 533.477472 148.950642 
L 532.439287 149.570132 
L 531.440553 150.266036 
L 530.487978 151.036309 
L 529.588143 151.878421 
L 528.747466 152.789365 
L 527.972156 153.765662 
L 527.268172 154.803375 
L 526.641186 155.898124 
L 526.09654 157.045105 
L 525.639212 158.239109 
L 525.273779 159.474545 
L 525.004381 160.745469 
L 524.834689 162.045608 
L 524.767879 163.368398 
L 524.806599 164.707007 
L 524.952949 166.054382 
L 525.208455 167.403275 
L 525.574055 168.74629 
L 526.050079 170.075918 
L 526.636239 171.384583 
L 527.331619 172.664679 
L 528.13467 173.908619 
L 529.043209 175.108874 
L 530.054419 176.25802 
L 531.164857 177.348782 
L 532.370461 178.374077 
L 533.666562 179.327056 
L 535.047907 180.201152 
L 536.508669 180.990115 
L 538.042482 181.688059 
L 539.642457 182.289494 
L 541.301222 182.789372 
L 543.010951 183.183115 
L 544.7634 183.46665 
L 546.549952 183.636442 
L 548.361651 183.689521 
L 550.189255 183.623507 
L 552.02328 183.436632 
L 553.854046 183.12776 
L 555.671734 182.696402 
L 557.466433 182.14273 
L 559.228197 181.467587 
L 560.947098 180.672486 
L 562.613281 179.759619 
L 564.217022 178.731853 
L 565.74878 177.592722 
L 567.199253 176.346416 
L 568.559436 174.997774 
L 569.820671 173.55226 
L 570.974699 172.015945 
L 572.013715 170.395483 
L 572.930414 168.69808 
L 573.718039 166.931467 
L 574.370425 165.103858 
L 574.88204 163.223921 
L 575.248027 161.300729 
L 575.464238 159.343721 
L 575.527263 157.362653 
L 575.434463 155.367553 
L 575.183996 153.368666 
L 574.77483 151.376403 
L 574.206767 149.401288 
L 573.480453 147.453901 
L 572.597384 145.544824 
L 571.559911 143.68458 
L 570.371235 141.88358 
L 569.035407 140.152062 
L 567.557312 138.500034 
L 565.942655 136.937221 
L 564.19794 135.473005 
L 562.330449 134.11637 
L 560.348206 132.875853 
L 558.25995 131.75949 
L 556.075094 130.774765 
L 553.803683 129.928566 
L 551.456348 129.227141 
L 549.044257 128.676055 
L 546.579063 128.280151 
L 544.072846 128.04352 
L 541.538054 127.969465 
L 538.987443 128.060477 
L 536.43401 128.318211 
L 533.89093 128.743468 
L 531.371485 129.336179 
L 528.888996 130.095397 
L 526.456755 131.019292 
L 524.087949 132.105148 
L 521.795596 133.349368 
L 519.592467 134.747487 
L 517.491021 136.294177 
L 515.503332 137.983275 
L 513.641024 139.807799 
" clip-path="url(#p118b6945fa)" style="fill: none; stroke: #e74c3c; stroke-opacity: 0.8; stroke-width: 1.8; stroke-linecap: square"/>
   </g>
   <g id="line2d_4">
    <path d="M 640.397341 156.717282 
L 640.284362 155.989161 
L 640.107342 155.256921 
L 639.86512 154.525237 
L 639.556947 153.798909 
L 639.182496 153.082832 
L 638.741871 152.381969 
L 638.235623 151.701315 
L 637.664744 151.045867 
L 637.030682 150.420589 
L 636.33533 149.830382 
L 635.581029 149.280049 
L 634.770562 148.774261 
L 633.90714 148.317526 
L 632.994397 147.914155 
L 632.03637 147.56823 
L 631.037483 147.283577 
L 630.002528 147.063732 
L 628.936639 146.911915 
L 627.845269 146.831003 
L 626.734163 146.823507 
L 625.609325 146.891545 
L 624.476988 147.036824 
L 623.343578 147.260622 
L 622.215679 147.56377 
L 621.099997 147.946637 
L 620.003318 148.409121 
L 618.932472 148.950642 
L 617.894287 149.570132 
L 616.895553 150.266036 
L 615.942978 151.036309 
L 615.043143 151.878421 
L 614.202466 152.789365 
L 613.427156 153.765662 
L 612.723172 154.803375 
L 612.096186 155.898124 
L 611.55154 157.045105 
L 611.094212 158.239109 
L 610.728779 159.474545 
L 610.459381 160.745469 
L 610.289689 162.045608 
L 610.222879 163.368398 
L 610.261599 164.707007 
L 610.407949 166.054382 
L 610.663455 167.403275 
L 611.029055 168.74629 
L 611.505079 170.075918 
L 612.091239 171.384583 
L 612.786619 172.664679 
L 613.58967 173.908619 
L 614.498209 175.108874 
L 615.509419 176.25802 
L 616.619857 177.348782 
L 617.825461 178.374077 
L 619.121562 179.327056 
L 620.502907 180.201152 
L 621.963669 180.990115 
L 623.497482 181.688059 
L 625.097457 182.289494 
L 626.756222 182.789372 
L 628.465951 183.183115 
L 630.2184 183.46665 
L 632.004952 183.636442 
L 633.816651 183.689521 
L 635.644255 183.623507 
L 637.47828 183.436632 
L 639.309046 183.12776 
L 641.126734 182.696402 
L 642.921433 182.14273 
L 644.683197 181.467587 
L 646.402098 180.672486 
L 648.068281 179.759619 
L 649.672022 178.731853 
L 651.20378 177.592722 
L 652.654253 176.346416 
L 654.014436 174.997774 
L 655.275671 173.55226 
L 656.429699 172.015945 
L 657.468715 170.395483 
L 658.385414 168.69808 
L 659.173039 166.931467 
L 659.825425 165.103858 
L 660.33704 163.223921 
L 660.703027 161.300729 
L 660.919238 159.343721 
L 660.982263 157.362653 
L 660.889463 155.367553 
L 660.638996 153.368666 
L 660.22983 151.376403 
L 659.661767 149.401288 
L 658.935453 147.453901 
L 658.052384 145.544824 
L 657.014911 143.68458 
L 655.826235 141.88358 
L 654.490407 140.152062 
L 653.012312 138.500034 
L 651.397655 136.937221 
L 649.65294 135.473005 
L 647.785449 134.11637 
L 645.803206 132.875853 
L 643.71495 131.75949 
L 641.530094 130.774765 
L 639.258683 129.928566 
L 636.911348 129.227141 
L 634.499257 128.676055 
L 632.034063 128.280151 
L 629.527846 128.04352 
L 626.993054 127.969465 
L 624.442443 128.060477 
L 621.88901 128.318211 
L 619.34593 128.743468 
L 616.826485 129.336179 
L 614.343996 130.095397 
L 611.911755 131.019292 
L 609.542949 132.105148 
L 607.250596 133.349368 
L 605.047467 134.747487 
L 602.946021 136.294177 
L 600.958332 137.983275 
L 599.096024 139.807799 
" clip-path="url(#p118b6945fa)" style="fill: none; stroke: #e74c3c; stroke-opacity: 0.8; stroke-width: 1.8; stroke-linecap: square"/>
   </g>
   <g id="line2d_5">
    <path d="M 516.4875 134.592 
L 416.79 74 
" clip-path="url(#p118b6945fa)" style="fill: none; stroke: #f39c12; stroke-opacity: 0.8; stroke-width: 2; stroke-linecap: square"/>
   </g>
   <g id="line2d_6">
    <path d="M 658.9125 186.528 
L 758.61 247.12 
" clip-path="url(#p118b6945fa)" style="fill: none; stroke: #f39c12; stroke-opacity: 0.8; stroke-width: 2; stroke-linecap: square"/>
   </g>
   <g id="text_2">
    <!-- First passage -->
    <g style="fill: #2c3e50" transform="translate(407.295 48.032) scale(0.08 -0.08)">
     <defs>
      <path id="DejaVuSans-Bold-46" d="M 588 4666 
L 3834 4666 
L 3834 3756 
L 1791 3756 
L 1791 2888 
L 3713 2888 
L 3713 1978 
L 1791 1978 
L 1791 0 
L 588 0 
L 588 4666 
z
" transform="scale(0.015625)"/>
      <path id="DejaVuSans-Bold-69" d="M 538 3500 
L 1656 3500 
L 1656 0 
L 538 0 
L 538 3500 
z
M 538 4863 
L 1656 4863 
L 1656 3950 
L 538 3950 
L 538 4863 
z
" transform="scale(0.015625)"/>
      <path id="DejaVuSans-Bold-73" d="M 3272 3391 
L 3272 2541 
Q 2913 2691 2578 2766 
Q 2244 2841 1947 2841 
Q 1628 2841 1473 2761 
Q 1319 2681 1319 2516 
Q 1319 2381 1436 2309 
Q 1553 2238 1856 2203 
L 2053 2175 
Q 2913 2066 3209 1816 
Q 3506 1566 3506 1031 
Q 3506 472 3093 190 
Q 2681 -91 1863 -91 
Q 1516 -91 1145 -36 
Q 775 19 384 128 
L 384 978 
Q 719 816 1070 734 
Q 1422 653 1784 653 
Q 2113 653 2278 743 
Q 2444 834 2444 1013 
Q 2444 1163 2330 1236 
Q 2216 1309 1875 1350 
L 1678 1375 
Q 931 1469 631 1722 
Q 331 1975 331 2491 
Q 331 3047 712 3315 
Q 1094 3584 1881 3584 
Q 2191 3584 2531 3537 
Q 2872 3491 3272 3391 
z
" transform="scale(0.015625)"/>
      <path id="DejaVuSans-Bold-74" d="M 1759 4494 
L 1759 3500 
L 2913 3500 
L 2913 2700 
L 1759 2700 
L 1759 1216 
Q 1759 972 1856 886 
Q 1953 800 2241 800 
L 2816 800 
L 2816 0 
L 1856 0 
Q 1194 0 917 276 
Q 641 553 641 1216 
L 641 2700 
L 84 2700 
L 84 3500 
L 641 3500 
L 641 4494 
L 1759 4494 
z
" transform="scale(0.015625)"/>
      <path id="DejaVuSans-Bold-20" transform="scale(0.015625)"/>
      <path id="DejaVuSans-Bold-67" d="M 2919 594 
Q 2688 288 2409 144 
Q 2131 0 1766 0 
Q 1125 0 706 504 
Q 288 1009 288 1791 
Q 288 2575 706 3076 
Q 1125 3578 1766 3578 
Q 2131 3578 2409 3434 
Q 2688 3291 2919 2981 
L 2919 3500 
L 4044 3500 
L 4044 353 
Q 4044 -491 3511 -936 
Q 2978 -1381 1966 -1381 
Q 1638 -1381 1331 -1331 
Q 1025 -1281 716 -1178 
L 716 -306 
Q 1009 -475 1290 -558 
Q 1572 -641 1856 -641 
Q 2406 -641 2662 -400 
Q 2919 -159 2919 353 
L 2919 594 
z
M 2181 2772 
Q 1834 2772 1640 2515 
Q 1447 2259 1447 1791 
Q 1447 1309 1634 1061 
Q 1822 813 2181 813 
Q 2531 813 2725 1069 
Q 2919 1325 2919 1791 
Q 2919 2259 2725 2515 
Q 2531 2772 2181 2772 
z
" transform="scale(0.015625)"/>
      <path id="DejaVuSans-Bold-65" d="M 4031 1759 
L 4031 1441 
L 1416 1441 
Q 1456 1047 1700 850 
Q 1944 653 2381 653 
Q 2734 653 3104 758 
Q 3475 863 3866 1075 
L 3866 213 
Q 3469 63 3072 -14 
Q 2675 -91 2278 -91 
Q 1328 -91 801 392 
Q 275 875 275 1747 
Q 275 2603 792 3093 
Q 1309 3584 2216 3584 
Q 3041 3584 3536 3087 
Q 4031 2591 4031 1759 
z
M 2881 2131 
Q 2881 2450 2695 2645 
Q 2509 2841 2209 2841 
Q 1884 2841 1681 2658 
Q 1478 2475 1428 2131 
L 2881 2131 
z
" transform="scale(0.015625)"/>
     </defs>
     <use xlink:href="#DejaVuSans-Bold-46"/>
     <use xlink:href="#DejaVuSans-Bold-69" transform="translate(68.310547 0)"/>
     <use xlink:href="#DejaVuSans-Bold-72" transform="translate(102.587891 0)"/>
     <use xlink:href="#DejaVuSans-Bold-73" transform="translate(151.904297 0)"/>
     <use xlink:href="#DejaVuSans-Bold-74" transform="translate(211.425781 0)"/>
     <use xlink:href="#DejaVuSans-Bold-20" transform="translate(259.228516 0)"/>
     <use xlink:href="#DejaVuSans-Bold-70" transform="translate(294.042969 0)"/>
     <use xlink:href="#DejaVuSans-Bold-61" transform="translate(365.625 0)"/>
     <use xlink:href="#DejaVuSans-Bold-73" transform="translate(433.105469 0)"/>
     <use xlink:href="#DejaVuSans-Bold-73" transform="translate(492.626953 0)"/>
     <use xlink:href="#DejaVuSans-Bold-61" transform="translate(552.148438 0)"/>
     <use xlink:href="#DejaVuSans-Bold-67" transform="translate(619.628906 0)"/>
     <use xlink:href="#DejaVuSans-Bold-65" transform="translate(691.210938 0)"/>
    </g>
   </g>
   <g id="text_3">
    <!-- tidal tails -->
    <g style="fill: #f39c12" transform="translate(706.3875 234.136) scale(0.08 -0.08)">
     <defs>
      <path id="DejaVuSans-74" d="M 1172 4494 
L 1172 3500 
L 2356 3500 
L 2356 3053 
L 1172 3053 
L 1172 1153 
Q 1172 725 1289 603 
Q 1406 481 1766 481 
L 2356 481 
L 2356 0 
L 1766 0 
Q 1100 0 847 248 
Q 594 497 594 1153 
L 594 3053 
L 172 3053 
L 172 3500 
L 594 3500 
L 594 4494 
L 1172 4494 
z
" transform="scale(0.015625)"/>
      <path id="DejaVuSans-69" d="M 603 3500 
L 1178 3500 
L 1178 0 
L 603 0 
L 603 3500 
z
M 603 4863 
L 1178 4863 
L 1178 4134 
L 603 4134 
L 603 4863 
z
" transform="scale(0.015625)"/>
      <path id="DejaVuSans-64" d="M 2906 2969 
L 2906 4863 
L 3481 4863 
L 3481 0 
L 2906 0 
L 2906 525 
Q 2725 213 2448 61 
Q 2172 -91 1784 -91 
Q 1150 -91 751 415 
Q 353 922 353 1747 
Q 353 2572 751 3078 
Q 1150 3584 1784 3584 
Q 2172 3584 2448 3432 
Q 2725 3281 2906 2969 
z
M 947 1747 
Q 947 1113 1208 752 
Q 1469 391 1925 391 
Q 2381 391 2643 752 
Q 2906 1113 2906 1747 
Q 2906 2381 2643 2742 
Q 2381 3103 1925 3103 
Q 1469 3103 1208 2742 
Q 947 2381 947 1747 
z
" transform="scale(0.015625)"/>
      <path id="DejaVuSans-61" d="M 2194 1759 
Q 1497 1759 1228 1600 
Q 959 1441 959 1056 
Q 959 750 1161 570 
Q 1363 391 1709 391 
Q 2188 391 2477 730 
Q 2766 1069 2766 1631 
L 2766 1759 
L 2194 1759 
z
M 3341 1997 
L 3341 0 
L 2766 0 
L 2766 531 
Q 2569 213 2275 61 
Q 1981 -91 1556 -91 
Q 1019 -91 701 211 
Q 384 513 384 1019 
Q 384 1609 779 1909 
Q 1175 2209 1959 2209 
L 2766 2209 
L 2766 2266 
Q 2766 2663 2505 2880 
Q 2244 3097 1772 3097 
Q 1472 3097 1187 3025 
Q 903 2953 641 2809 
L 641 3341 
Q 956 3463 1253 3523 
Q 1550 3584 1831 3584 
Q 2591 3584 2966 3190 
Q 3341 2797 3341 1997 
z
" transform="scale(0.015625)"/>
      <path id="DejaVuSans-6c" d="M 603 4863 
L 1178 4863 
L 1178 0 
L 603 0 
L 603 4863 
z
" transform="scale(0.015625)"/>
      <path id="DejaVuSans-20" transform="scale(0.015625)"/>
      <path id="DejaVuSans-73" d="M 2834 3397 
L 2834 2853 
Q 2591 2978 2328 3040 
Q 2066 3103 1784 3103 
Q 1356 3103 1142 2972 
Q 928 2841 928 2578 
Q 928 2378 1081 2264 
Q 1234 2150 1697 2047 
L 1894 2003 
Q 2506 1872 2764 1633 
Q 3022 1394 3022 966 
Q 3022 478 2636 193 
Q 2250 -91 1575 -91 
Q 1294 -91 989 -36 
Q 684 19 347 128 
L 347 722 
Q 666 556 975 473 
Q 1284 391 1588 391 
Q 1994 391 2212 530 
Q 2431 669 2431 922 
Q 2431 1156 2273 1281 
Q 2116 1406 1581 1522 
L 1381 1569 
Q 847 1681 609 1914 
Q 372 2147 372 2553 
Q 372 3047 722 3315 
Q 1072 3584 1716 3584 
Q 2034 3584 2315 3537 
Q 2597 3491 2834 3397 
z
" transform="scale(0.015625)"/>
     </defs>
     <use xlink:href="#DejaVuSans-74"/>
     <use xlink:href="#DejaVuSans-69" transform="translate(39.208984 0)"/>
     <use xlink:href="#DejaVuSans-64" transform="translate(66.992188 0)"/>
     <use xlink:href="#DejaVuSans-61" transform="translate(130.46875 0)"/>
     <use xlink:href="#DejaVuSans-6c" transform="translate(191.748047 0)"/>
     <use xlink:href="#DejaVuSans-20" transform="translate(219.53125 0)"/>
     <use xlink:href="#DejaVuSans-74" transform="translate(251.318359 0)"/>
     <use xlink:href="#DejaVuSans-61" transform="translate(290.527344 0)"/>
     <use xlink:href="#DejaVuSans-69" transform="translate(351.806641 0)"/>
     <use xlink:href="#DejaVuSans-6c" transform="translate(379.589844 0)"/>
     <use xlink:href="#DejaVuSans-73" transform="translate(407.373047 0)"/>
    </g>
   </g>
  </g>
  <g id="axes_3">
   <g id="patch_12">
    <path d="M 197.1 474.32 
C 217.244827 474.32 236.567287 469.759746 250.811831 461.643581 
C 265.056375 453.527417 273.06 442.51799 273.06 431.04 
C 273.06 419.56201 265.056375 408.552583 250.811831 400.436419 
C 236.567287 392.320254 217.244827 387.76 197.1 387.76 
C 176.955173 387.76 157.632713 392.320254 143.388169 400.436419 
C 129.143625 408.552583 121.14 419.56201 121.14 431.04 
C 121.14 442.51799 129.143625 453.527417 143.388169 461.643581 
C 157.632713 469.759746 176.955173 474.32 197.1 474.32 
z
" clip-path="url(#p132c2ca8a2)" style="fill: #e74c3c; opacity: 0.18; stroke: #e74c3c; stroke-linejoin: miter"/>
   </g>
   <g id="PathCollection_1">
    <defs>
     <path id="m4cbb47d7f7" d="M 0 1.224745 
C 0.324806 1.224745 0.636353 1.095698 0.866025 0.866025 
C 1.095698 0.636353 1.224745 0.324806 1.224745 0 
C 1.224745 -0.324806 1.095698 -0.636353 0.866025 -0.866025 
C 0.636353 -1.095698 0.324806 -1.224745 0 -1.224745 
C -0.324806 -1.224745 -0.636353 -1.095698 -0.866025 -0.866025 
C -1.095698 -0.636353 -1.224745 -0.324806 -1.224745 0 
C -1.224745 0.324806 -1.095698 0.636353 -0.866025 0.866025 
C -0.636353 1.095698 -0.324806 1.224745 0 1.224745 
z
" style="stroke: #9b59b6; stroke-opacity: 0.35"/>
    </defs>
    <g clip-path="url(#p132c2ca8a2)">
     <use xlink:href="#m4cbb47d7f7" x="197.158402" y="443.450297" style="fill: #9b59b6; fill-opacity: 0.35; stroke: #9b59b6; stroke-opacity: 0.35"/>
     <use xlink:href="#m4cbb47d7f7" x="211.282944" y="445.329958" style="fill: #9b59b6; fill-opacity: 0.35; stroke: #9b59b6; stroke-opacity: 0.35"/>
     <use xlink:href="#m4cbb47d7f7" x="184.085305" y="413.314517" style="fill: #9b59b6; fill-opacity: 0.35; stroke: #9b59b6; stroke-opacity: 0.35"/>
     <use xlink:href="#m4cbb47d7f7" x="154.819152" y="439.532139" style="fill: #9b59b6; fill-opacity: 0.35; stroke: #9b59b6; stroke-opacity: 0.35"/>
     <use xlink:href="#m4cbb47d7f7" x="175.514504" y="435.300413" style="fill: #9b59b6; fill-opacity: 0.35; stroke: #9b59b6; stroke-opacity: 0.35"/>
     <use xlink:href="#m4cbb47d7f7" x="150.02158" y="430.414863" style="fill: #9b59b6; fill-opacity: 0.35; stroke: #9b59b6; stroke-opacity: 0.35"/>
     <use xlink:href="#m4cbb47d7f7" x="199.955318" y="397.942468" style="fill: #9b59b6; fill-opacity: 0.35; stroke: #9b59b6; stroke-opacity: 0.35"/>
     <use xlink:href="#m4cbb47d7f7" x="260.726719" y="411.895865" style="fill: #9b59b6; fill-opacity: 0.35; stroke: #9b59b6; stroke-opacity: 0.35"/>
     <use xlink:href="#m4cbb47d7f7" x="173.732496" y="420.276689" style="fill: #9b59b6; fill-opacity: 0.35; stroke: #9b59b6; stroke-opacity: 0.35"/>
     <use xlink:href="#m4cbb47d7f7" x="167.642954" y="446.89439" style="fill: #9b59b6; fill-opacity: 0.35; stroke: #9b59b6; stroke-opacity: 0.35"/>
     <use xlink:href="#m4cbb47d7f7" x="220.355251" y="469.917544" style="fill: #9b59b6; fill-opacity: 0.35; stroke: #9b59b6; stroke-opacity: 0.35"/>
     <use xlink:href="#m4cbb47d7f7" x="214.043211" y="404.327824" style="fill: #9b59b6; fill-opacity: 0.35; stroke: #9b59b6; stroke-opacity: 0.35"/>
     <use xlink:href="#m4cbb47d7f7" x="202.104541" y="403.851909" style="fill: #9b59b6; fill-opacity: 0.35; stroke: #9b59b6; stroke-opacity: 0.35"/>
     <use xlink:href="#m4cbb47d7f7" x="152.92603" y="434.998409" style="fill: #9b59b6; fill-opacity: 0.35; stroke: #9b59b6; stroke-opacity: 0.35"/>
     <use xlink:href="#m4cbb47d7f7" x="195.71127" y="415.795724" style="fill: #9b59b6; fill-opacity: 0.35; stroke: #9b59b6; stroke-opacity: 0.35"/>
     <use xlink:href="#m4cbb47d7f7" x="230.109519" y="409.056444" style="fill: #9b59b6; fill-opacity: 0.35; stroke: #9b59b6; stroke-opacity: 0.35"/>
     <use xlink:href="#m4cbb47d7f7" x="133.283414" y="407.657119" style="fill: #9b59b6; fill-opacity: 0.35; stroke: #9b59b6; stroke-opacity: 0.35"/>
     <use xlink:href="#m4cbb47d7f7" x="175.374692" y="405.11964" style="fill: #9b59b6; fill-opacity: 0.35; stroke: #9b59b6; stroke-opacity: 0.35"/>
     <use xlink:href="#m4cbb47d7f7" x="106.83945" y="443.857436" style="fill: #9b59b6; fill-opacity: 0.35; stroke: #9b59b6; stroke-opacity: 0.35"/>
     <use xlink:href="#m4cbb47d7f7" x="135.879196" y="388.42078" style="fill: #9b59b6; fill-opacity: 0.35; stroke: #9b59b6; stroke-opacity: 0.35"/>
     <use xlink:href="#m4cbb47d7f7" x="109.663629" y="466.109156" style="fill: #9b59b6; fill-opacity: 0.35; stroke: #9b59b6; stroke-opacity: 0.35"/>
     <use xlink:href="#m4cbb47d7f7" x="185.939049" y="406.798006" style="fill: #9b59b6; fill-opacity: 0.35; stroke: #9b59b6; stroke-opacity: 0.35"/>
     <use xlink:href="#m4cbb47d7f7" x="136.927978" y="417.144703" style="fill: #9b59b6; fill-opacity: 0.35; stroke: #9b59b6; stroke-opacity: 0.35"/>
     <use xlink:href="#m4cbb47d7f7" x="209.978275" y="406.463347" style="fill: #9b59b6; fill-opacity: 0.35; stroke: #9b59b6; stroke-opacity: 0.35"/>
     <use xlink:href="#m4cbb47d7f7" x="204.541758" y="378.179738" style="fill: #9b59b6; fill-opacity: 0.35; stroke: #9b59b6; stroke-opacity: 0.35"/>
     <use xlink:href="#m4cbb47d7f7" x="188.225453" y="389.27958" style="fill: #9b59b6; fill-opacity: 0.35; stroke: #9b59b6; stroke-opacity: 0.35"/>
     <use xlink:href="#m4cbb47d7f7" x="77.616833" y="463.256117" style="fill: #9b59b6; fill-opacity: 0.35; stroke: #9b59b6; stroke-opacity: 0.35"/>
     <use xlink:href="#m4cbb47d7f7" x="171.525555" y="478.545709" style="fill: #9b59b6; fill-opacity: 0.35; stroke: #9b59b6; stroke-opacity: 0.35"/>
     <use xlink:href="#m4cbb47d7f7" x="194.797418" y="408.059277" style="fill: #9b59b6; fill-opacity: 0.35; stroke: #9b59b6; stroke-opacity: 0.35"/>
     <use xlink:href="#m4cbb47d7f7" x="202.479344" y="459.594329" style="fill: #9b59b6; fill-opacity: 0.35; stroke: #9b59b6; stroke-opacity: 0.35"/>
     <use xlink:href="#m4cbb47d7f7" x="124.456805" y="431.388988" style="fill: #9b59b6; fill-opacity: 0.35; stroke: #9b59b6; stroke-opacity: 0.35"/>
     <use xlink:href="#m4cbb47d7f7" x="174.418663" y="407.416787" style="fill: #9b59b6; fill-opacity: 0.35; stroke: #9b59b6; stroke-opacity: 0.35"/>
     <use xlink:href="#m4cbb47d7f7" x="150.644807" y="477.283307" style="fill: #9b59b6; fill-opacity: 0.35; stroke: #9b59b6; stroke-opacity: 0.35"/>
     <use xlink:href="#m4cbb47d7f7" x="158.700452" y="490.39797" style="fill: #9b59b6; fill-opacity: 0.35; stroke: #9b59b6; stroke-opacity: 0.35"/>
     <use xlink:href="#m4cbb47d7f7" x="247.466162" y="423.7454" style="fill: #9b59b6; fill-opacity: 0.35; stroke: #9b59b6; stroke-opacity: 0.35"/>
     <use xlink:href="#m4cbb47d7f7" x="158.762291" y="429.791336" style="fill: #9b59b6; fill-opacity: 0.35; stroke: #9b59b6; stroke-opacity: 0.35"/>
     <use xlink:href="#m4cbb47d7f7" x="195.556032" y="437.954932" style="fill: #9b59b6; fill-opacity: 0.35; stroke: #9b59b6; stroke-opacity: 0.35"/>
     <use xlink:href="#m4cbb47d7f7" x="239.086409" y="429.95594" style="fill: #9b59b6; fill-opacity: 0.35; stroke: #9b59b6; stroke-opacity: 0.35"/>
     <use xlink:href="#m4cbb47d7f7" x="169.393569" y="455.248025" style="fill: #9b59b6; fill-opacity: 0.35; stroke: #9b59b6; stroke-opacity: 0.35"/>
     <use xlink:href="#m4cbb47d7f7" x="191.79695" y="473.617625" style="fill: #9b59b6; fill-opacity: 0.35; stroke: #9b59b6; stroke-opacity: 0.35"/>
     <use xlink:href="#m4cbb47d7f7" x="202.344285" y="435.728334" style="fill: #9b59b6; fill-opacity: 0.35; stroke: #9b59b6; stroke-opacity: 0.35"/>
     <use xlink:href="#m4cbb47d7f7" x="200.12804" y="458.376109" style="fill: #9b59b6; fill-opacity: 0.35; stroke: #9b59b6; stroke-opacity: 0.35"/>
     <use xlink:href="#m4cbb47d7f7" x="138.940475" y="477.274417" style="fill: #9b59b6; fill-opacity: 0.35; stroke: #9b59b6; stroke-opacity: 0.35"/>
     <use xlink:href="#m4cbb47d7f7" x="200.714757" y="416.81418" style="fill: #9b59b6; fill-opacity: 0.35; stroke: #9b59b6; stroke-opacity: 0.35"/>
     <use xlink:href="#m4cbb47d7f7" x="261.610142" y="432.767266" style="fill: #9b59b6; fill-opacity: 0.35; stroke: #9b59b6; stroke-opacity: 0.35"/>
     <use xlink:href="#m4cbb47d7f7" x="123.649306" y="419.603539" style="fill: #9b59b6; fill-opacity: 0.35; stroke: #9b59b6; stroke-opacity: 0.35"/>
     <use xlink:href="#m4cbb47d7f7" x="237.899193" y="458.870845" style="fill: #9b59b6; fill-opacity: 0.35; stroke: #9b59b6; stroke-opacity: 0.35"/>
     <use xlink:href="#m4cbb47d7f7" x="202.766332" y="449.55251" style="fill: #9b59b6; fill-opacity: 0.35; stroke: #9b59b6; stroke-opacity: 0.35"/>
     <use xlink:href="#m4cbb47d7f7" x="166.646193" y="459.145078" style="fill: #9b59b6; fill-opacity: 0.35; stroke: #9b59b6; stroke-opacity: 0.35"/>
     <use xlink:href="#m4cbb47d7f7" x="292.069776" y="455.983009" style="fill: #9b59b6; fill-opacity: 0.35; stroke: #9b59b6; stroke-opacity: 0.35"/>
     <use xlink:href="#m4cbb47d7f7" x="233.28828" y="425.542784" style="fill: #9b59b6; fill-opacity: 0.35; stroke: #9b59b6; stroke-opacity: 0.35"/>
     <use xlink:href="#m4cbb47d7f7" x="140.163759" y="453.066642" style="fill: #9b59b6; fill-opacity: 0.35; stroke: #9b59b6; stroke-opacity: 0.35"/>
     <use xlink:href="#m4cbb47d7f7" x="200.637658" y="421.023143" style="fill: #9b59b6; fill-opacity: 0.35; stroke: #9b59b6; stroke-opacity: 0.35"/>
     <use xlink:href="#m4cbb47d7f7" x="224.478338" y="421.481986" style="fill: #9b59b6; fill-opacity: 0.35; stroke: #9b59b6; stroke-opacity: 0.35"/>
     <use xlink:href="#m4cbb47d7f7" x="188.137569" y="374.068171" style="fill: #9b59b6; fill-opacity: 0.35; stroke: #9b59b6; stroke-opacity: 0.35"/>
     <use xlink:href="#m4cbb47d7f7" x="229.521165" y="470.221941" style="fill: #9b59b6; fill-opacity: 0.35; stroke: #9b59b6; stroke-opacity: 0.35"/>
     <use xlink:href="#m4cbb47d7f7" x="193.94209" y="406.06153" style="fill: #9b59b6; fill-opacity: 0.35; stroke: #9b59b6; stroke-opacity: 0.35"/>
     <use xlink:href="#m4cbb47d7f7" x="228.777578" y="433.557475" style="fill: #9b59b6; fill-opacity: 0.35; stroke: #9b59b6; stroke-opacity: 0.35"/>
     <use xlink:href="#m4cbb47d7f7" x="265.39386" y="431.434684" style="fill: #9b59b6; fill-opacity: 0.35; stroke: #9b59b6; stroke-opacity: 0.35"/>
     <use xlink:href="#m4cbb47d7f7" x="165.022935" y="471.827569" style="fill: #9b59b6; fill-opacity: 0.35; stroke: #9b59b6; stroke-opacity: 0.35"/>
     <use xlink:href="#m4cbb47d7f7" x="206.744006" y="443.986172" style="fill: #9b59b6; fill-opacity: 0.35; stroke: #9b59b6; stroke-opacity: 0.35"/>
     <use xlink:href="#m4cbb47d7f7" x="175.104473" y="410.132375" style="fill: #9b59b6; fill-opacity: 0.35; stroke: #9b59b6; stroke-opacity: 0.35"/>
     <use xlink:href="#m4cbb47d7f7" x="203.142068" y="433.360282" style="fill: #9b59b6; fill-opacity: 0.35; stroke: #9b59b6; stroke-opacity: 0.35"/>
     <use xlink:href="#m4cbb47d7f7" x="140.73794" y="428.759778" style="fill: #9b59b6; fill-opacity: 0.35; stroke: #9b59b6; stroke-opacity: 0.35"/>
     <use xlink:href="#m4cbb47d7f7" x="169.597657" y="439.218442" style="fill: #9b59b6; fill-opacity: 0.35; stroke: #9b59b6; stroke-opacity: 0.35"/>
     <use xlink:href="#m4cbb47d7f7" x="187.785596" y="398.559644" style="fill: #9b59b6; fill-opacity: 0.35; stroke: #9b59b6; stroke-opacity: 0.35"/>
     <use xlink:href="#m4cbb47d7f7" x="239.768815" y="431.644066" style="fill: #9b59b6; fill-opacity: 0.35; stroke: #9b59b6; stroke-opacity: 0.35"/>
     <use xlink:href="#m4cbb47d7f7" x="251.469415" y="492.942094" style="fill: #9b59b6; fill-opacity: 0.35; stroke: #9b59b6; stroke-opacity: 0.35"/>
     <use xlink:href="#m4cbb47d7f7" x="134.265518" y="450.509385" style="fill: #9b59b6; fill-opacity: 0.35; stroke: #9b59b6; stroke-opacity: 0.35"/>
     <use xlink:href="#m4cbb47d7f7" x="159.374354" y="486.426186" style="fill: #9b59b6; fill-opacity: 0.35; stroke: #9b59b6; stroke-opacity: 0.35"/>
     <use xlink:href="#m4cbb47d7f7" x="227.81174" y="522.509466" style="fill: #9b59b6; fill-opacity: 0.35; stroke: #9b59b6; stroke-opacity: 0.35"/>
     <use xlink:href="#m4cbb47d7f7" x="102.509871" y="445.953205" style="fill: #9b59b6; fill-opacity: 0.35; stroke: #9b59b6; stroke-opacity: 0.35"/>
     <use xlink:href="#m4cbb47d7f7" x="175.111011" y="393.524294" style="fill: #9b59b6; fill-opacity: 0.35; stroke: #9b59b6; stroke-opacity: 0.35"/>
     <use xlink:href="#m4cbb47d7f7" x="192.481303" y="429.714423" style="fill: #9b59b6; fill-opacity: 0.35; stroke: #9b59b6; stroke-opacity: 0.35"/>
     <use xlink:href="#m4cbb47d7f7" x="256.776786" y="464.026056" style="fill: #9b59b6; fill-opacity: 0.35; stroke: #9b59b6; stroke-opacity: 0.35"/>
     <use xlink:href="#m4cbb47d7f7" x="229.82945" y="457.503769" style="fill: #9b59b6; fill-opacity: 0.35; stroke: #9b59b6; stroke-opacity: 0.35"/>
     <use xlink:href="#m4cbb47d7f7" x="181.565543" y="399.233589" style="fill: #9b59b6; fill-opacity: 0.35; stroke: #9b59b6; stroke-opacity: 0.35"/>
     <use xlink:href="#m4cbb47d7f7" x="179.601859" y="426.605648" style="fill: #9b59b6; fill-opacity: 0.35; stroke: #9b59b6; stroke-opacity: 0.35"/>
     <use xlink:href="#m4cbb47d7f7" x="185.221973" y="429.689685" style="fill: #9b59b6; fill-opacity: 0.35; stroke: #9b59b6; stroke-opacity: 0.35"/>
     <use xlink:href="#m4cbb47d7f7" x="269.429558" y="432.543987" style="fill: #9b59b6; fill-opacity: 0.35; stroke: #9b59b6; stroke-opacity: 0.35"/>
     <use xlink:href="#m4cbb47d7f7" x="176.779516" y="429.959724" style="fill: #9b59b6; fill-opacity: 0.35; stroke: #9b59b6; stroke-opacity: 0.35"/>
     <use xlink:href="#m4cbb47d7f7" x="182.682774" y="408.382328" style="fill: #9b59b6; fill-opacity: 0.35; stroke: #9b59b6; stroke-opacity: 0.35"/>
     <use xlink:href="#m4cbb47d7f7" x="213.839166" y="415.495177" style="fill: #9b59b6; fill-opacity: 0.35; stroke: #9b59b6; stroke-opacity: 0.35"/>
     <use xlink:href="#m4cbb47d7f7" x="191.366423" y="424.971795" style="fill: #9b59b6; fill-opacity: 0.35; stroke: #9b59b6; stroke-opacity: 0.35"/>
     <use xlink:href="#m4cbb47d7f7" x="187.733931" y="460.377973" style="fill: #9b59b6; fill-opacity: 0.35; stroke: #9b59b6; stroke-opacity: 0.35"/>
     <use xlink:href="#m4cbb47d7f7" x="144.209662" y="416.661488" style="fill: #9b59b6; fill-opacity: 0.35; stroke: #9b59b6; stroke-opacity: 0.35"/>
     <use xlink:href="#m4cbb47d7f7" x="196.553018" y="450.289239" style="fill: #9b59b6; fill-opacity: 0.35; stroke: #9b59b6; stroke-opacity: 0.35"/>
     <use xlink:href="#m4cbb47d7f7" x="176.040981" y="400.267933" style="fill: #9b59b6; fill-opacity: 0.35; stroke: #9b59b6; stroke-opacity: 0.35"/>
     <use xlink:href="#m4cbb47d7f7" x="252.461916" y="466.797202" style="fill: #9b59b6; fill-opacity: 0.35; stroke: #9b59b6; stroke-opacity: 0.35"/>
     <use xlink:href="#m4cbb47d7f7" x="228.105377" y="434.911553" style="fill: #9b59b6; fill-opacity: 0.35; stroke: #9b59b6; stroke-opacity: 0.35"/>
     <use xlink:href="#m4cbb47d7f7" x="195.953782" y="431.247003" style="fill: #9b59b6; fill-opacity: 0.35; stroke: #9b59b6; stroke-opacity: 0.35"/>
     <use xlink:href="#m4cbb47d7f7" x="228.831389" y="468.304929" style="fill: #9b59b6; fill-opacity: 0.35; stroke: #9b59b6; stroke-opacity: 0.35"/>
     <use xlink:href="#m4cbb47d7f7" x="180.964693" y="382.597494" style="fill: #9b59b6; fill-opacity: 0.35; stroke: #9b59b6; stroke-opacity: 0.35"/>
     <use xlink:href="#m4cbb47d7f7" x="247.049699" y="389.955837" style="fill: #9b59b6; fill-opacity: 0.35; stroke: #9b59b6; stroke-opacity: 0.35"/>
     <use xlink:href="#m4cbb47d7f7" x="196.843656" y="444.081538" style="fill: #9b59b6; fill-opacity: 0.35; stroke: #9b59b6; stroke-opacity: 0.35"/>
     <use xlink:href="#m4cbb47d7f7" x="224.796077" y="409.32994" style="fill: #9b59b6; fill-opacity: 0.35; stroke: #9b59b6; stroke-opacity: 0.35"/>
     <use xlink:href="#m4cbb47d7f7" x="135.814843" y="420.387085" style="fill: #9b59b6; fill-opacity: 0.35; stroke: #9b59b6; stroke-opacity: 0.35"/>
     <use xlink:href="#m4cbb47d7f7" x="213.558635" y="504.564655" style="fill: #9b59b6; fill-opacity: 0.35; stroke: #9b59b6; stroke-opacity: 0.35"/>
     <use xlink:href="#m4cbb47d7f7" x="116.95251" y="423.995803" style="fill: #9b59b6; fill-opacity: 0.35; stroke: #9b59b6; stroke-opacity: 0.35"/>
     <use xlink:href="#m4cbb47d7f7" x="100.472758" y="432.765732" style="fill: #9b59b6; fill-opacity: 0.35; stroke: #9b59b6; stroke-opacity: 0.35"/>
     <use xlink:href="#m4cbb47d7f7" x="182.64496" y="428.698929" style="fill: #9b59b6; fill-opacity: 0.35; stroke: #9b59b6; stroke-opacity: 0.35"/>
     <use xlink:href="#m4cbb47d7f7" x="154.375937" y="461.334645" style="fill: #9b59b6; fill-opacity: 0.35; stroke: #9b59b6; stroke-opacity: 0.35"/>
     <use xlink:href="#m4cbb47d7f7" x="204.888406" y="438.617271" style="fill: #9b59b6; fill-opacity: 0.35; stroke: #9b59b6; stroke-opacity: 0.35"/>
     <use xlink:href="#m4cbb47d7f7" x="303.669821" y="436.054776" style="fill: #9b59b6; fill-opacity: 0.35; stroke: #9b59b6; stroke-opacity: 0.35"/>
     <use xlink:href="#m4cbb47d7f7" x="157.613942" y="397.616533" style="fill: #9b59b6; fill-opacity: 0.35; stroke: #9b59b6; stroke-opacity: 0.35"/>
     <use xlink:href="#m4cbb47d7f7" x="167.478278" y="421.631898" style="fill: #9b59b6; fill-opacity: 0.35; stroke: #9b59b6; stroke-opacity: 0.35"/>
     <use xlink:href="#m4cbb47d7f7" x="206.851552" y="431.196274" style="fill: #9b59b6; fill-opacity: 0.35; stroke: #9b59b6; stroke-opacity: 0.35"/>
     <use xlink:href="#m4cbb47d7f7" x="220.505806" y="388.027016" style="fill: #9b59b6; fill-opacity: 0.35; stroke: #9b59b6; stroke-opacity: 0.35"/>
     <use xlink:href="#m4cbb47d7f7" x="188.725122" y="446.660235" style="fill: #9b59b6; fill-opacity: 0.35; stroke: #9b59b6; stroke-opacity: 0.35"/>
     <use xlink:href="#m4cbb47d7f7" x="187.323458" y="441.995453" style="fill: #9b59b6; fill-opacity: 0.35; stroke: #9b59b6; stroke-opacity: 0.35"/>
     <use xlink:href="#m4cbb47d7f7" x="230.449429" y="482.148952" style="fill: #9b59b6; fill-opacity: 0.35; stroke: #9b59b6; stroke-opacity: 0.35"/>
     <use xlink:href="#m4cbb47d7f7" x="221.782615" y="386.897914" style="fill: #9b59b6; fill-opacity: 0.35; stroke: #9b59b6; stroke-opacity: 0.35"/>
     <use xlink:href="#m4cbb47d7f7" x="148.02624" y="403.911402" style="fill: #9b59b6; fill-opacity: 0.35; stroke: #9b59b6; stroke-opacity: 0.35"/>
     <use xlink:href="#m4cbb47d7f7" x="193.340867" y="405.247231" style="fill: #9b59b6; fill-opacity: 0.35; stroke: #9b59b6; stroke-opacity: 0.35"/>
     <use xlink:href="#m4cbb47d7f7" x="198.775243" y="412.222549" style="fill: #9b59b6; fill-opacity: 0.35; stroke: #9b59b6; stroke-opacity: 0.35"/>
     <use xlink:href="#m4cbb47d7f7" x="147.038343" y="427.9413" style="fill: #9b59b6; fill-opacity: 0.35; stroke: #9b59b6; stroke-opacity: 0.35"/>
     <use xlink:href="#m4cbb47d7f7" x="209.435861" y="424.977865" style="fill: #9b59b6; fill-opacity: 0.35; stroke: #9b59b6; stroke-opacity: 0.35"/>
     <use xlink:href="#m4cbb47d7f7" x="156.368516" y="438.129449" style="fill: #9b59b6; fill-opacity: 0.35; stroke: #9b59b6; stroke-opacity: 0.35"/>
     <use xlink:href="#m4cbb47d7f7" x="243.248867" y="436.767687" style="fill: #9b59b6; fill-opacity: 0.35; stroke: #9b59b6; stroke-opacity: 0.35"/>
     <use xlink:href="#m4cbb47d7f7" x="206.250612" y="429.512331" style="fill: #9b59b6; fill-opacity: 0.35; stroke: #9b59b6; stroke-opacity: 0.35"/>
     <use xlink:href="#m4cbb47d7f7" x="201.339825" y="388.509212" style="fill: #9b59b6; fill-opacity: 0.35; stroke: #9b59b6; stroke-opacity: 0.35"/>
     <use xlink:href="#m4cbb47d7f7" x="169.040929" y="415.407388" style="fill: #9b59b6; fill-opacity: 0.35; stroke: #9b59b6; stroke-opacity: 0.35"/>
     <use xlink:href="#m4cbb47d7f7" x="191.468999" y="432.6846" style="fill: #9b59b6; fill-opacity: 0.35; stroke: #9b59b6; stroke-opacity: 0.35"/>
     <use xlink:href="#m4cbb47d7f7" x="102.256995" y="447.339457" style="fill: #9b59b6; fill-opacity: 0.35; stroke: #9b59b6; stroke-opacity: 0.35"/>
     <use xlink:href="#m4cbb47d7f7" x="143.38643" y="448.903777" style="fill: #9b59b6; fill-opacity: 0.35; stroke: #9b59b6; stroke-opacity: 0.35"/>
     <use xlink:href="#m4cbb47d7f7" x="214.325819" y="385.952703" style="fill: #9b59b6; fill-opacity: 0.35; stroke: #9b59b6; stroke-opacity: 0.35"/>
     <use xlink:href="#m4cbb47d7f7" x="96.04628" y="416.785873" style="fill: #9b59b6; fill-opacity: 0.35; stroke: #9b59b6; stroke-opacity: 0.35"/>
     <use xlink:href="#m4cbb47d7f7" x="237.29274" y="429.139668" style="fill: #9b59b6; fill-opacity: 0.35; stroke: #9b59b6; stroke-opacity: 0.35"/>
     <use xlink:href="#m4cbb47d7f7" x="114.20407" y="440.778788" style="fill: #9b59b6; fill-opacity: 0.35; stroke: #9b59b6; stroke-opacity: 0.35"/>
     <use xlink:href="#m4cbb47d7f7" x="233.02616" y="462.239891" style="fill: #9b59b6; fill-opacity: 0.35; stroke: #9b59b6; stroke-opacity: 0.35"/>
     <use xlink:href="#m4cbb47d7f7" x="156.960028" y="432.920949" style="fill: #9b59b6; fill-opacity: 0.35; stroke: #9b59b6; stroke-opacity: 0.35"/>
     <use xlink:href="#m4cbb47d7f7" x="234.082602" y="406.462252" style="fill: #9b59b6; fill-opacity: 0.35; stroke: #9b59b6; stroke-opacity: 0.35"/>
     <use xlink:href="#m4cbb47d7f7" x="203.316909" y="442.082858" style="fill: #9b59b6; fill-opacity: 0.35; stroke: #9b59b6; stroke-opacity: 0.35"/>
     <use xlink:href="#m4cbb47d7f7" x="124.138761" y="437.432788" style="fill: #9b59b6; fill-opacity: 0.35; stroke: #9b59b6; stroke-opacity: 0.35"/>
     <use xlink:href="#m4cbb47d7f7" x="256.403337" y="437.258138" style="fill: #9b59b6; fill-opacity: 0.35; stroke: #9b59b6; stroke-opacity: 0.35"/>
     <use xlink:href="#m4cbb47d7f7" x="265.545047" y="427.956891" style="fill: #9b59b6; fill-opacity: 0.35; stroke: #9b59b6; stroke-opacity: 0.35"/>
     <use xlink:href="#m4cbb47d7f7" x="193.975912" y="475.854582" style="fill: #9b59b6; fill-opacity: 0.35; stroke: #9b59b6; stroke-opacity: 0.35"/>
     <use xlink:href="#m4cbb47d7f7" x="184.095825" y="437.662226" style="fill: #9b59b6; fill-opacity: 0.35; stroke: #9b59b6; stroke-opacity: 0.35"/>
     <use xlink:href="#m4cbb47d7f7" x="189.510316" y="455.075855" style="fill: #9b59b6; fill-opacity: 0.35; stroke: #9b59b6; stroke-opacity: 0.35"/>
     <use xlink:href="#m4cbb47d7f7" x="150.804643" y="406.154854" style="fill: #9b59b6; fill-opacity: 0.35; stroke: #9b59b6; stroke-opacity: 0.35"/>
     <use xlink:href="#m4cbb47d7f7" x="249.255406" y="452.718482" style="fill: #9b59b6; fill-opacity: 0.35; stroke: #9b59b6; stroke-opacity: 0.35"/>
     <use xlink:href="#m4cbb47d7f7" x="171.326206" y="414.806521" style="fill: #9b59b6; fill-opacity: 0.35; stroke: #9b59b6; stroke-opacity: 0.35"/>
     <use xlink:href="#m4cbb47d7f7" x="194.669735" y="388.154526" style="fill: #9b59b6; fill-opacity: 0.35; stroke: #9b59b6; stroke-opacity: 0.35"/>
     <use xlink:href="#m4cbb47d7f7" x="159.438253" y="439.86209" style="fill: #9b59b6; fill-opacity: 0.35; stroke: #9b59b6; stroke-opacity: 0.35"/>
     <use xlink:href="#m4cbb47d7f7" x="167.37718" y="447.963543" style="fill: #9b59b6; fill-opacity: 0.35; stroke: #9b59b6; stroke-opacity: 0.35"/>
     <use xlink:href="#m4cbb47d7f7" x="136.439998" y="425.654628" style="fill: #9b59b6; fill-opacity: 0.35; stroke: #9b59b6; stroke-opacity: 0.35"/>
     <use xlink:href="#m4cbb47d7f7" x="256.779366" y="431.097081" style="fill: #9b59b6; fill-opacity: 0.35; stroke: #9b59b6; stroke-opacity: 0.35"/>
     <use xlink:href="#m4cbb47d7f7" x="189.784692" y="458.992415" style="fill: #9b59b6; fill-opacity: 0.35; stroke: #9b59b6; stroke-opacity: 0.35"/>
     <use xlink:href="#m4cbb47d7f7" x="242.957129" y="418.073415" style="fill: #9b59b6; fill-opacity: 0.35; stroke: #9b59b6; stroke-opacity: 0.35"/>
     <use xlink:href="#m4cbb47d7f7" x="197.732585" y="374.339502" style="fill: #9b59b6; fill-opacity: 0.35; stroke: #9b59b6; stroke-opacity: 0.35"/>
     <use xlink:href="#m4cbb47d7f7" x="164.133193" y="438.301207" style="fill: #9b59b6; fill-opacity: 0.35; stroke: #9b59b6; stroke-opacity: 0.35"/>
     <use xlink:href="#m4cbb47d7f7" x="181.590617" y="436.747313" style="fill: #9b59b6; fill-opacity: 0.35; stroke: #9b59b6; stroke-opacity: 0.35"/>
     <use xlink:href="#m4cbb47d7f7" x="170.503031" y="460.436028" style="fill: #9b59b6; fill-opacity: 0.35; stroke: #9b59b6; stroke-opacity: 0.35"/>
     <use xlink:href="#m4cbb47d7f7" x="197.477858" y="422.063404" style="fill: #9b59b6; fill-opacity: 0.35; stroke: #9b59b6; stroke-opacity: 0.35"/>
     <use xlink:href="#m4cbb47d7f7" x="179.284207" y="466.119935" style="fill: #9b59b6; fill-opacity: 0.35; stroke: #9b59b6; stroke-opacity: 0.35"/>
     <use xlink:href="#m4cbb47d7f7" x="182.861217" y="462.180184" style="fill: #9b59b6; fill-opacity: 0.35; stroke: #9b59b6; stroke-opacity: 0.35"/>
     <use xlink:href="#m4cbb47d7f7" x="131.652167" y="395.0404" style="fill: #9b59b6; fill-opacity: 0.35; stroke: #9b59b6; stroke-opacity: 0.35"/>
     <use xlink:href="#m4cbb47d7f7" x="158.79499" y="456.512205" style="fill: #9b59b6; fill-opacity: 0.35; stroke: #9b59b6; stroke-opacity: 0.35"/>
     <use xlink:href="#m4cbb47d7f7" x="275.626382" y="400.619249" style="fill: #9b59b6; fill-opacity: 0.35; stroke: #9b59b6; stroke-opacity: 0.35"/>
     <use xlink:href="#m4cbb47d7f7" x="165.233203" y="388.156761" style="fill: #9b59b6; fill-opacity: 0.35; stroke: #9b59b6; stroke-opacity: 0.35"/>
     <use xlink:href="#m4cbb47d7f7" x="147.056897" y="423.744628" style="fill: #9b59b6; fill-opacity: 0.35; stroke: #9b59b6; stroke-opacity: 0.35"/>
     <use xlink:href="#m4cbb47d7f7" x="213.114568" y="415.471993" style="fill: #9b59b6; fill-opacity: 0.35; stroke: #9b59b6; stroke-opacity: 0.35"/>
     <use xlink:href="#m4cbb47d7f7" x="263.910248" y="376.119276" style="fill: #9b59b6; fill-opacity: 0.35; stroke: #9b59b6; stroke-opacity: 0.35"/>
     <use xlink:href="#m4cbb47d7f7" x="128.070196" y="436.574363" style="fill: #9b59b6; fill-opacity: 0.35; stroke: #9b59b6; stroke-opacity: 0.35"/>
     <use xlink:href="#m4cbb47d7f7" x="187.200425" y="447.722439" style="fill: #9b59b6; fill-opacity: 0.35; stroke: #9b59b6; stroke-opacity: 0.35"/>
     <use xlink:href="#m4cbb47d7f7" x="167.093305" y="469.109096" style="fill: #9b59b6; fill-opacity: 0.35; stroke: #9b59b6; stroke-opacity: 0.35"/>
     <use xlink:href="#m4cbb47d7f7" x="113.4956" y="429.866696" style="fill: #9b59b6; fill-opacity: 0.35; stroke: #9b59b6; stroke-opacity: 0.35"/>
     <use xlink:href="#m4cbb47d7f7" x="231.990646" y="389.428715" style="fill: #9b59b6; fill-opacity: 0.35; stroke: #9b59b6; stroke-opacity: 0.35"/>
     <use xlink:href="#m4cbb47d7f7" x="195.987" y="404.044663" style="fill: #9b59b6; fill-opacity: 0.35; stroke: #9b59b6; stroke-opacity: 0.35"/>
     <use xlink:href="#m4cbb47d7f7" x="200.491702" y="457.542911" style="fill: #9b59b6; fill-opacity: 0.35; stroke: #9b59b6; stroke-opacity: 0.35"/>
     <use xlink:href="#m4cbb47d7f7" x="161.384013" y="455.10342" style="fill: #9b59b6; fill-opacity: 0.35; stroke: #9b59b6; stroke-opacity: 0.35"/>
     <use xlink:href="#m4cbb47d7f7" x="218.690878" y="445.223345" style="fill: #9b59b6; fill-opacity: 0.35; stroke: #9b59b6; stroke-opacity: 0.35"/>
     <use xlink:href="#m4cbb47d7f7" x="171.496858" y="422.817914" style="fill: #9b59b6; fill-opacity: 0.35; stroke: #9b59b6; stroke-opacity: 0.35"/>
     <use xlink:href="#m4cbb47d7f7" x="190.31567" y="436.815821" style="fill: #9b59b6; fill-opacity: 0.35; stroke: #9b59b6; stroke-opacity: 0.35"/>
     <use xlink:href="#m4cbb47d7f7" x="144.485319" y="425.006982" style="fill: #9b59b6; fill-opacity: 0.35; stroke: #9b59b6; stroke-opacity: 0.35"/>
     <use xlink:href="#m4cbb47d7f7" x="139.365521" y="422.692128" style="fill: #9b59b6; fill-opacity: 0.35; stroke: #9b59b6; stroke-opacity: 0.35"/>
     <use xlink:href="#m4cbb47d7f7" x="260.504375" y="439.445099" style="fill: #9b59b6; fill-opacity: 0.35; stroke: #9b59b6; stroke-opacity: 0.35"/>
     <use xlink:href="#m4cbb47d7f7" x="173.025204" y="432.170173" style="fill: #9b59b6; fill-opacity: 0.35; stroke: #9b59b6; stroke-opacity: 0.35"/>
     <use xlink:href="#m4cbb47d7f7" x="210.947525" y="425.228143" style="fill: #9b59b6; fill-opacity: 0.35; stroke: #9b59b6; stroke-opacity: 0.35"/>
     <use xlink:href="#m4cbb47d7f7" x="195.495799" y="433.402236" style="fill: #9b59b6; fill-opacity: 0.35; stroke: #9b59b6; stroke-opacity: 0.35"/>
    </g>
   </g>
   <g id="line2d_7">
    <path d="M 111.645 418.056 
L 26.19 379.104 
" clip-path="url(#p132c2ca8a2)" style="fill: none; stroke: #f39c12; stroke-opacity: 0.7; stroke-width: 1.8; stroke-linecap: square"/>
   </g>
   <g id="line2d_8">
    <path d="M 282.555 444.024 
L 368.01 482.976 
" clip-path="url(#p132c2ca8a2)" style="fill: none; stroke: #f39c12; stroke-opacity: 0.7; stroke-width: 1.8; stroke-linecap: square"/>
   </g>
   <g id="text_4">
    <!-- Coalescence -->
    <g style="fill: #2c3e50" transform="translate(16.695 318.512) scale(0.08 -0.08)">
     <defs>
      <path id="DejaVuSans-Bold-43" d="M 4288 256 
Q 3956 84 3597 -3 
Q 3238 -91 2847 -91 
Q 1681 -91 1000 561 
Q 319 1213 319 2328 
Q 319 3447 1000 4098 
Q 1681 4750 2847 4750 
Q 3238 4750 3597 4662 
Q 3956 4575 4288 4403 
L 4288 3438 
Q 3953 3666 3628 3772 
Q 3303 3878 2944 3878 
Q 2300 3878 1931 3465 
Q 1563 3053 1563 2328 
Q 1563 1606 1931 1193 
Q 2300 781 2944 781 
Q 3303 781 3628 887 
Q 3953 994 4288 1222 
L 4288 256 
z
" transform="scale(0.015625)"/>
      <path id="DejaVuSans-Bold-6c" d="M 538 4863 
L 1656 4863 
L 1656 0 
L 538 0 
L 538 4863 
z
" transform="scale(0.015625)"/>
      <path id="DejaVuSans-Bold-6e" d="M 4056 2131 
L 4056 0 
L 2931 0 
L 2931 347 
L 2931 1631 
Q 2931 2084 2911 2256 
Q 2891 2428 2841 2509 
Q 2775 2619 2662 2680 
Q 2550 2741 2406 2741 
Q 2056 2741 1856 2470 
Q 1656 2200 1656 1722 
L 1656 0 
L 538 0 
L 538 3500 
L 1656 3500 
L 1656 2988 
Q 1909 3294 2193 3439 
Q 2478 3584 2822 3584 
Q 3428 3584 3742 3212 
Q 4056 2841 4056 2131 
z
" transform="scale(0.015625)"/>
     </defs>
     <use xlink:href="#DejaVuSans-Bold-43"/>
     <use xlink:href="#DejaVuSans-Bold-6f" transform="translate(73.388672 0)"/>
     <use xlink:href="#DejaVuSans-Bold-61" transform="translate(142.089844 0)"/>
     <use xlink:href="#DejaVuSans-Bold-6c" transform="translate(209.570312 0)"/>
     <use xlink:href="#DejaVuSans-Bold-65" transform="translate(243.847656 0)"/>
     <use xlink:href="#DejaVuSans-Bold-73" transform="translate(311.669922 0)"/>
     <use xlink:href="#DejaVuSans-Bold-63" transform="translate(371.191406 0)"/>
     <use xlink:href="#DejaVuSans-Bold-65" transform="translate(430.46875 0)"/>
     <use xlink:href="#DejaVuSans-Bold-6e" transform="translate(498.291016 0)"/>
     <use xlink:href="#DejaVuSans-Bold-63" transform="translate(569.482422 0)"/>
     <use xlink:href="#DejaVuSans-Bold-65" transform="translate(628.759766 0)"/>
    </g>
   </g>
   <g id="text_5">
    <!-- relaxed remnant -->
    <g style="fill: #95a5a6" transform="translate(164.00625 534.912) scale(0.08 -0.08)">
     <defs>
      <path id="DejaVuSans-72" d="M 2631 2963 
Q 2534 3019 2420 3045 
Q 2306 3072 2169 3072 
Q 1681 3072 1420 2755 
Q 1159 2438 1159 1844 
L 1159 0 
L 581 0 
L 581 3500 
L 1159 3500 
L 1159 2956 
Q 1341 3275 1631 3429 
Q 1922 3584 2338 3584 
Q 2397 3584 2469 3576 
Q 2541 3569 2628 3553 
L 2631 2963 
z
" transform="scale(0.015625)"/>
      <path id="DejaVuSans-65" d="M 3597 1894 
L 3597 1613 
L 953 1613 
Q 991 1019 1311 708 
Q 1631 397 2203 397 
Q 2534 397 2845 478 
Q 3156 559 3463 722 
L 3463 178 
Q 3153 47 2828 -22 
Q 2503 -91 2169 -91 
Q 1331 -91 842 396 
Q 353 884 353 1716 
Q 353 2575 817 3079 
Q 1281 3584 2069 3584 
Q 2775 3584 3186 3129 
Q 3597 2675 3597 1894 
z
M 3022 2063 
Q 3016 2534 2758 2815 
Q 2500 3097 2075 3097 
Q 1594 3097 1305 2825 
Q 1016 2553 972 2059 
L 3022 2063 
z
" transform="scale(0.015625)"/>
      <path id="DejaVuSans-78" d="M 3513 3500 
L 2247 1797 
L 3578 0 
L 2900 0 
L 1881 1375 
L 863 0 
L 184 0 
L 1544 1831 
L 300 3500 
L 978 3500 
L 1906 2253 
L 2834 3500 
L 3513 3500 
z
" transform="scale(0.015625)"/>
      <path id="DejaVuSans-6d" d="M 3328 2828 
Q 3544 3216 3844 3400 
Q 4144 3584 4550 3584 
Q 5097 3584 5394 3201 
Q 5691 2819 5691 2113 
L 5691 0 
L 5113 0 
L 5113 2094 
Q 5113 2597 4934 2840 
Q 4756 3084 4391 3084 
Q 3944 3084 3684 2787 
Q 3425 2491 3425 1978 
L 3425 0 
L 2847 0 
L 2847 2094 
Q 2847 2600 2669 2842 
Q 2491 3084 2119 3084 
Q 1678 3084 1418 2786 
Q 1159 2488 1159 1978 
L 1159 0 
L 581 0 
L 581 3500 
L 1159 3500 
L 1159 2956 
Q 1356 3278 1631 3431 
Q 1906 3584 2284 3584 
Q 2666 3584 2933 3390 
Q 3200 3197 3328 2828 
z
" transform="scale(0.015625)"/>
      <path id="DejaVuSans-6e" d="M 3513 2113 
L 3513 0 
L 2938 0 
L 2938 2094 
Q 2938 2591 2744 2837 
Q 2550 3084 2163 3084 
Q 1697 3084 1428 2787 
Q 1159 2491 1159 1978 
L 1159 0 
L 581 0 
L 581 3500 
L 1159 3500 
L 1159 2956 
Q 1366 3272 1645 3428 
Q 1925 3584 2291 3584 
Q 2894 3584 3203 3211 
Q 3513 2838 3513 2113 
z
" transform="scale(0.015625)"/>
     </defs>
     <use xlink:href="#DejaVuSans-72"/>
     <use xlink:href="#DejaVuSans-65" transform="translate(38.863281 0)"/>
     <use xlink:href="#DejaVuSans-6c" transform="translate(100.386719 0)"/>
     <use xlink:href="#DejaVuSans-61" transform="translate(128.169922 0)"/>
     <use xlink:href="#DejaVuSans-78" transform="translate(189.449219 0)"/>
     <use xlink:href="#DejaVuSans-65" transform="translate(245.503906 0)"/>
     <use xlink:href="#DejaVuSans-64" transform="translate(307.027344 0)"/>
     <use xlink:href="#DejaVuSans-20" transform="translate(370.503906 0)"/>
     <use xlink:href="#DejaVuSans-72" transform="translate(402.291016 0)"/>
     <use xlink:href="#DejaVuSans-65" transform="translate(441.154297 0)"/>
     <use xlink:href="#DejaVuSans-6d" transform="translate(502.677734 0)"/>
     <use xlink:href="#DejaVuSans-6e" transform="translate(600.089844 0)"/>
     <use xlink:href="#DejaVuSans-61" transform="translate(663.46875 0)"/>
     <use xlink:href="#DejaVuSans-6e" transform="translate(724.748047 0)"/>
     <use xlink:href="#DejaVuSans-74" transform="translate(788.126953 0)"/>
    </g>
   </g>
  </g>
  <g id="axes_4">
   <g id="patch_13">
    <path d="M 549.72 469.992 
C 561.051465 469.992 571.920349 465.887772 579.932905 458.583223 
C 587.945461 451.278675 592.4475 441.370191 592.4475 431.04 
C 592.4475 420.709809 587.945461 410.801325 579.932905 403.496777 
C 571.920349 396.192228 561.051465 392.088 549.72 392.088 
C 538.388535 392.088 527.519651 396.192228 519.507095 403.496777 
C 511.494539 410.801325 506.9925 420.709809 506.9925 431.04 
C 506.9925 441.370191 511.494539 451.278675 519.507095 458.583223 
C 527.519651 465.887772 538.388535 469.992 549.72 469.992 
z
" clip-path="url(#pac15042f6d)" style="fill: #2ecc71; opacity: 0.1; stroke: #2ecc71; stroke-linejoin: miter"/>
   </g>
   <g id="patch_14">
    <path d="M 549.72 446.188 
C 554.126681 446.188 558.353469 444.591911 561.469463 441.751254 
C 564.585457 438.910596 566.33625 435.057297 566.33625 431.04 
C 566.33625 427.022703 564.585457 423.169404 561.469463 420.328746 
C 558.353469 417.488089 554.126681 415.892 549.72 415.892 
C 545.313319 415.892 541.086531 417.488089 537.970537 420.328746 
C 534.854543 423.169404 533.10375 427.022703 533.10375 431.04 
C 533.10375 435.057297 534.854543 438.910596 537.970537 441.751254 
C 541.086531 444.591911 545.313319 446.188 549.72 446.188 
z
" clip-path="url(#pac15042f6d)" style="fill: #e74c3c; opacity: 0.25; stroke: #e74c3c; stroke-linejoin: miter"/>
   </g>
   <g id="line2d_9">
    <path d="M 559.689841 427.197282 
L 559.576862 426.469161 
L 559.399842 425.736921 
L 559.15762 425.005237 
L 558.849447 424.278909 
L 558.474996 423.562832 
L 558.034371 422.861969 
L 557.528123 422.181315 
L 556.957244 421.525867 
L 556.323182 420.900589 
L 555.62783 420.310382 
L 554.873529 419.760049 
L 554.063062 419.254261 
L 553.19964 418.797526 
L 552.286897 418.394155 
L 551.32887 418.04823 
L 550.329983 417.763577 
L 549.295028 417.543732 
L 548.229139 417.391915 
L 547.137769 417.311003 
L 546.026663 417.303507 
L 544.901825 417.371545 
L 543.769488 417.516824 
L 542.636078 417.740622 
L 541.508179 418.04377 
L 540.392497 418.426637 
L 539.295818 418.889121 
L 538.224972 419.430642 
L 537.186787 420.050132 
L 536.188053 420.746036 
L 535.235478 421.516309 
L 534.335643 422.358421 
L 533.494966 423.269365 
L 532.719656 424.245662 
L 532.015672 425.283375 
L 531.388686 426.378124 
L 530.84404 427.525105 
L 530.386712 428.719109 
L 530.021279 429.954545 
L 529.751881 431.225469 
L 529.582189 432.525608 
L 529.515379 433.848398 
L 529.554099 435.187007 
L 529.700449 436.534382 
L 529.955955 437.883275 
L 530.321555 439.22629 
L 530.797579 440.555918 
L 531.383739 441.864583 
L 532.079119 443.144679 
L 532.88217 444.388619 
L 533.790709 445.588874 
L 534.801919 446.73802 
L 535.912357 447.828782 
L 537.117961 448.854077 
L 538.414062 449.807056 
L 539.795407 450.681152 
L 541.256169 451.470115 
L 542.789982 452.168059 
L 544.389957 452.769494 
L 546.048722 453.269372 
L 547.758451 453.663115 
L 549.5109 453.94665 
L 551.297452 454.116442 
L 553.109151 454.169521 
L 554.936755 454.103507 
L 556.77078 453.916632 
L 558.601546 453.60776 
L 560.419234 453.176402 
L 562.213933 452.62273 
L 563.975697 451.947587 
L 565.694598 451.152486 
L 567.360781 450.239619 
L 568.964522 449.211853 
L 570.49628 448.072722 
L 571.946753 446.826416 
L 573.306936 445.477774 
L 574.568171 444.03226 
L 575.722199 442.495945 
L 576.761215 440.875483 
L 577.677914 439.17808 
L 578.465539 437.411467 
L 579.117925 435.583858 
L 579.62954 433.703921 
L 579.995527 431.780729 
L 580.211738 429.823721 
L 580.274763 427.842653 
L 580.181963 425.847553 
L 579.931496 423.848666 
L 579.52233 421.856403 
L 578.954267 419.881288 
L 578.227953 417.933901 
L 577.344884 416.024824 
L 576.307411 414.16458 
L 575.118735 412.36358 
L 573.782907 410.632062 
L 572.304812 408.980034 
L 570.690155 407.417221 
L 568.94544 405.953005 
L 567.077949 404.59637 
L 565.095706 403.355853 
L 563.00745 402.23949 
L 560.822594 401.254765 
L 558.551183 400.408566 
L 556.203848 399.707141 
L 553.791757 399.156055 
L 551.326563 398.760151 
L 548.820346 398.52352 
L 546.285554 398.449465 
L 543.734943 398.540477 
L 541.18151 398.798211 
L 538.63843 399.223468 
L 536.118985 399.816179 
L 533.636496 400.575397 
L 531.204255 401.499292 
L 528.835449 402.585148 
L 526.543096 403.829368 
L 524.339967 405.227487 
L 522.238521 406.774177 
L 520.250832 408.463275 
L 518.388524 410.287799 
" clip-path="url(#pac15042f6d)" style="fill: none; stroke: #2ecc71; stroke-opacity: 0.8; stroke-width: 1.8; stroke-linecap: square"/>
   </g>
   <g id="line2d_10">
    <path d="M 578.205 431.04 
L 715.8825 482.976 
" clip-path="url(#pac15042f6d)" style="fill: none; stroke: #f39c12; stroke-opacity: 0.85; stroke-width: 2; stroke-linecap: square"/>
   </g>
   <g id="text_6">
    <!-- Ram pressure -->
    <g style="fill: #2c3e50" transform="translate(407.295 318.512) scale(0.08 -0.08)">
     <defs>
      <path id="DejaVuSans-Bold-52" d="M 2297 2597 
Q 2675 2597 2839 2737 
Q 3003 2878 3003 3200 
Q 3003 3519 2839 3656 
Q 2675 3794 2297 3794 
L 1791 3794 
L 1791 2597 
L 2297 2597 
z
M 1791 1766 
L 1791 0 
L 588 0 
L 588 4666 
L 2425 4666 
Q 3347 4666 3776 4356 
Q 4206 4047 4206 3378 
Q 4206 2916 3982 2619 
Q 3759 2322 3309 2181 
Q 3556 2125 3751 1926 
Q 3947 1728 4147 1325 
L 4800 0 
L 3519 0 
L 2950 1159 
Q 2778 1509 2601 1637 
Q 2425 1766 2131 1766 
L 1791 1766 
z
" transform="scale(0.015625)"/>
      <path id="DejaVuSans-Bold-6d" d="M 3781 2919 
Q 3994 3244 4286 3414 
Q 4578 3584 4928 3584 
Q 5531 3584 5847 3212 
Q 6163 2841 6163 2131 
L 6163 0 
L 5038 0 
L 5038 1825 
Q 5041 1866 5042 1909 
Q 5044 1953 5044 2034 
Q 5044 2406 4934 2573 
Q 4825 2741 4581 2741 
Q 4263 2741 4089 2478 
Q 3916 2216 3909 1719 
L 3909 0 
L 2784 0 
L 2784 1825 
Q 2784 2406 2684 2573 
Q 2584 2741 2328 2741 
Q 2006 2741 1831 2477 
Q 1656 2213 1656 1722 
L 1656 0 
L 531 0 
L 531 3500 
L 1656 3500 
L 1656 2988 
Q 1863 3284 2130 3434 
Q 2397 3584 2719 3584 
Q 3081 3584 3359 3409 
Q 3638 3234 3781 2919 
z
" transform="scale(0.015625)"/>
      <path id="DejaVuSans-Bold-75" d="M 500 1363 
L 500 3500 
L 1625 3500 
L 1625 3150 
Q 1625 2866 1622 2436 
Q 1619 2006 1619 1863 
Q 1619 1441 1641 1255 
Q 1663 1069 1716 984 
Q 1784 875 1895 815 
Q 2006 756 2150 756 
Q 2500 756 2700 1025 
Q 2900 1294 2900 1772 
L 2900 3500 
L 4019 3500 
L 4019 0 
L 2900 0 
L 2900 506 
Q 2647 200 2364 54 
Q 2081 -91 1741 -91 
Q 1134 -91 817 281 
Q 500 653 500 1363 
z
" transform="scale(0.015625)"/>
     </defs>
     <use xlink:href="#DejaVuSans-Bold-52"/>
     <use xlink:href="#DejaVuSans-Bold-61" transform="translate(77.001953 0)"/>
     <use xlink:href="#DejaVuSans-Bold-6d" transform="translate(144.482422 0)"/>
     <use xlink:href="#DejaVuSans-Bold-20" transform="translate(248.681641 0)"/>
     <use xlink:href="#DejaVuSans-Bold-70" transform="translate(283.496094 0)"/>
     <use xlink:href="#DejaVuSans-Bold-72" transform="translate(355.078125 0)"/>
     <use xlink:href="#DejaVuSans-Bold-65" transform="translate(404.394531 0)"/>
     <use xlink:href="#DejaVuSans-Bold-73" transform="translate(472.216797 0)"/>
     <use xlink:href="#DejaVuSans-Bold-73" transform="translate(531.738281 0)"/>
     <use xlink:href="#DejaVuSans-Bold-75" transform="translate(591.259766 0)"/>
     <use xlink:href="#DejaVuSans-Bold-72" transform="translate(662.451172 0)"/>
     <use xlink:href="#DejaVuSans-Bold-65" transform="translate(711.767578 0)"/>
    </g>
   </g>
   <g id="patch_15">
    <path d="M 756.607293 526.256 
Q 649.414921 526.256 543.675992 526.256 
" style="fill: none; opacity: 0.55; stroke: #e74c3c; stroke-width: 1.3; stroke-linecap: round"/>
    <path d="M 547.675992 528.256 
L 543.675992 526.256 
L 547.675992 524.256 
" style="fill: none; opacity: 0.55; stroke: #e74c3c; stroke-width: 1.3; stroke-linecap: round"/>
   </g>
   <g id="patch_16">
    <path d="M 756.607293 488.1696 
Q 649.414921 488.1696 543.675992 488.1696 
" style="fill: none; opacity: 0.55; stroke: #e74c3c; stroke-width: 1.3; stroke-linecap: round"/>
    <path d="M 547.675992 490.1696 
L 543.675992 488.1696 
L 547.675992 486.1696 
" style="fill: none; opacity: 0.55; stroke: #e74c3c; stroke-width: 1.3; stroke-linecap: round"/>
   </g>
   <g id="patch_17">
    <path d="M 756.607293 450.0832 
Q 649.414921 450.0832 543.675992 450.0832 
" style="fill: none; opacity: 0.55; stroke: #e74c3c; stroke-width: 1.3; stroke-linecap: round"/>
    <path d="M 547.675992 452.0832 
L 543.675992 450.0832 
L 547.675992 448.0832 
" style="fill: none; opacity: 0.55; stroke: #e74c3c; stroke-width: 1.3; stroke-linecap: round"/>
   </g>
   <g id="patch_18">
    <path d="M 756.607293 411.9968 
Q 649.414921 411.9968 543.675992 411.9968 
" style="fill: none; opacity: 0.55; stroke: #e74c3c; stroke-width: 1.3; stroke-linecap: round"/>
    <path d="M 547.675992 413.9968 
L 543.675992 411.9968 
L 547.675992 409.9968 
" style="fill: none; opacity: 0.55; stroke: #e74c3c; stroke-width: 1.3; stroke-linecap: round"/>
   </g>
   <g id="patch_19">
    <path d="M 756.607293 373.9104 
Q 649.414921 373.9104 543.675992 373.9104 
" style="fill: none; opacity: 0.55; stroke: #e74c3c; stroke-width: 1.3; stroke-linecap: round"/>
    <path d="M 547.675992 375.9104 
L 543.675992 373.9104 
L 547.675992 371.9104 
" style="fill: none; opacity: 0.55; stroke: #e74c3c; stroke-width: 1.3; stroke-linecap: round"/>
   </g>
   <g id="patch_20">
    <path d="M 756.607293 335.824 
Q 649.414921 335.824 543.675992 335.824 
" style="fill: none; opacity: 0.55; stroke: #e74c3c; stroke-width: 1.3; stroke-linecap: round"/>
    <path d="M 547.675992 337.824 
L 543.675992 335.824 
L 547.675992 333.824 
" style="fill: none; opacity: 0.55; stroke: #e74c3c; stroke-width: 1.3; stroke-linecap: round"/>
   </g>
   <g id="text_7">
    <!-- ICM wind -->
    <g style="fill: #e74c3c" transform="translate(684.325 325.004) scale(0.08 -0.08)">
     <defs>
      <path id="DejaVuSans-49" d="M 628 4666 
L 1259 4666 
L 1259 0 
L 628 0 
L 628 4666 
z
" transform="scale(0.015625)"/>
      <path id="DejaVuSans-43" d="M 4122 4306 
L 4122 3641 
Q 3803 3938 3442 4084 
Q 3081 4231 2675 4231 
Q 1875 4231 1450 3742 
Q 1025 3253 1025 2328 
Q 1025 1406 1450 917 
Q 1875 428 2675 428 
Q 3081 428 3442 575 
Q 3803 722 4122 1019 
L 4122 359 
Q 3791 134 3420 21 
Q 3050 -91 2638 -91 
Q 1578 -91 968 557 
Q 359 1206 359 2328 
Q 359 3453 968 4101 
Q 1578 4750 2638 4750 
Q 3056 4750 3426 4639 
Q 3797 4528 4122 4306 
z
" transform="scale(0.015625)"/>
      <path id="DejaVuSans-4d" d="M 628 4666 
L 1569 4666 
L 2759 1491 
L 3956 4666 
L 4897 4666 
L 4897 0 
L 4281 0 
L 4281 4097 
L 3078 897 
L 2444 897 
L 1241 4097 
L 1241 0 
L 628 0 
L 628 4666 
z
" transform="scale(0.015625)"/>
      <path id="DejaVuSans-77" d="M 269 3500 
L 844 3500 
L 1563 769 
L 2278 3500 
L 2956 3500 
L 3675 769 
L 4391 3500 
L 4966 3500 
L 4050 0 
L 3372 0 
L 2619 2869 
L 1863 0 
L 1184 0 
L 269 3500 
z
" transform="scale(0.015625)"/>
     </defs>
     <use xlink:href="#DejaVuSans-49"/>
     <use xlink:href="#DejaVuSans-43" transform="translate(29.492188 0)"/>
     <use xlink:href="#DejaVuSans-4d" transform="translate(99.316406 0)"/>
     <use xlink:href="#DejaVuSans-20" transform="translate(185.595703 0)"/>
     <use xlink:href="#DejaVuSans-77" transform="translate(217.382812 0)"/>
     <use xlink:href="#DejaVuSans-69" transform="translate(299.169922 0)"/>
     <use xlink:href="#DejaVuSans-6e" transform="translate(326.953125 0)"/>
     <use xlink:href="#DejaVuSans-64" transform="translate(390.332031 0)"/>
    </g>
   </g>
   <g id="text_8">
    <!-- gas tail -->
    <g style="fill: #f39c12" transform="translate(644.67 504.616) scale(0.08 -0.08)">
     <defs>
      <path id="DejaVuSans-67" d="M 2906 1791 
Q 2906 2416 2648 2759 
Q 2391 3103 1925 3103 
Q 1463 3103 1205 2759 
Q 947 2416 947 1791 
Q 947 1169 1205 825 
Q 1463 481 1925 481 
Q 2391 481 2648 825 
Q 2906 1169 2906 1791 
z
M 3481 434 
Q 3481 -459 3084 -895 
Q 2688 -1331 1869 -1331 
Q 1566 -1331 1297 -1286 
Q 1028 -1241 775 -1147 
L 775 -588 
Q 1028 -725 1275 -790 
Q 1522 -856 1778 -856 
Q 2344 -856 2625 -561 
Q 2906 -266 2906 331 
L 2906 616 
Q 2728 306 2450 153 
Q 2172 0 1784 0 
Q 1141 0 747 490 
Q 353 981 353 1791 
Q 353 2603 747 3093 
Q 1141 3584 1784 3584 
Q 2172 3584 2450 3431 
Q 2728 3278 2906 2969 
L 2906 3500 
L 3481 3500 
L 3481 434 
z
" transform="scale(0.015625)"/>
     </defs>
     <use xlink:href="#DejaVuSans-67"/>
     <use xlink:href="#DejaVuSans-61" transform="translate(63.476562 0)"/>
     <use xlink:href="#DejaVuSans-73" transform="translate(124.755859 0)"/>
     <use xlink:href="#DejaVuSans-20" transform="translate(176.855469 0)"/>
     <use xlink:href="#DejaVuSans-74" transform="translate(208.642578 0)"/>
     <use xlink:href="#DejaVuSans-61" transform="translate(247.851562 0)"/>
     <use xlink:href="#DejaVuSans-69" transform="translate(309.130859 0)"/>
     <use xlink:href="#DejaVuSans-6c" transform="translate(336.914062 0)"/>
    </g>
   </g>
  </g>
  <g id="text_9">
   <!-- Galaxy Interactions: Merger Stages and Environment -->
   <g transform="translate(206.591562 17.837812) scale(0.14 -0.14)">
    <defs>
     <path id="DejaVuSans-47" d="M 3809 666 
L 3809 1919 
L 2778 1919 
L 2778 2438 
L 4434 2438 
L 4434 434 
Q 4069 175 3628 42 
Q 3188 -91 2688 -91 
Q 1594 -91 976 548 
Q 359 1188 359 2328 
Q 359 3472 976 4111 
Q 1594 4750 2688 4750 
Q 3144 4750 3555 4637 
Q 3966 4525 4313 4306 
L 4313 3634 
Q 3963 3931 3569 4081 
Q 3175 4231 2741 4231 
Q 1884 4231 1454 3753 
Q 1025 3275 1025 2328 
Q 1025 1384 1454 906 
Q 1884 428 2741 428 
Q 3075 428 3337 486 
Q 3600 544 3809 666 
z
" transform="scale(0.015625)"/>
     <path id="DejaVuSans-79" d="M 2059 -325 
Q 1816 -950 1584 -1140 
Q 1353 -1331 966 -1331 
L 506 -1331 
L 506 -850 
L 844 -850 
Q 1081 -850 1212 -737 
Q 1344 -625 1503 -206 
L 1606 56 
L 191 3500 
L 800 3500 
L 1894 763 
L 2988 3500 
L 3597 3500 
L 2059 -325 
z
" transform="scale(0.015625)"/>
     <path id="DejaVuSans-63" d="M 3122 3366 
L 3122 2828 
Q 2878 2963 2633 3030 
Q 2388 3097 2138 3097 
Q 1578 3097 1268 2742 
Q 959 2388 959 1747 
Q 959 1106 1268 751 
Q 1578 397 2138 397 
Q 2388 397 2633 464 
Q 2878 531 3122 666 
L 3122 134 
Q 2881 22 2623 -34 
Q 2366 -91 2075 -91 
Q 1284 -91 818 406 
Q 353 903 353 1747 
Q 353 2603 823 3093 
Q 1294 3584 2113 3584 
Q 2378 3584 2631 3529 
Q 2884 3475 3122 3366 
z
" transform="scale(0.015625)"/>
     <path id="DejaVuSans-6f" d="M 1959 3097 
Q 1497 3097 1228 2736 
Q 959 2375 959 1747 
Q 959 1119 1226 758 
Q 1494 397 1959 397 
Q 2419 397 2687 759 
Q 2956 1122 2956 1747 
Q 2956 2369 2687 2733 
Q 2419 3097 1959 3097 
z
M 1959 3584 
Q 2709 3584 3137 3096 
Q 3566 2609 3566 1747 
Q 3566 888 3137 398 
Q 2709 -91 1959 -91 
Q 1206 -91 779 398 
Q 353 888 353 1747 
Q 353 2609 779 3096 
Q 1206 3584 1959 3584 
z
" transform="scale(0.015625)"/>
     <path id="DejaVuSans-3a" d="M 750 794 
L 1409 794 
L 1409 0 
L 750 0 
L 750 794 
z
M 750 3309 
L 1409 3309 
L 1409 2516 
L 750 2516 
L 750 3309 
z
" transform="scale(0.015625)"/>
     <path id="DejaVuSans-53" d="M 3425 4513 
L 3425 3897 
Q 3066 4069 2747 4153 
Q 2428 4238 2131 4238 
Q 1616 4238 1336 4038 
Q 1056 3838 1056 3469 
Q 1056 3159 1242 3001 
Q 1428 2844 1947 2747 
L 2328 2669 
Q 3034 2534 3370 2195 
Q 3706 1856 3706 1288 
Q 3706 609 3251 259 
Q 2797 -91 1919 -91 
Q 1588 -91 1214 -16 
Q 841 59 441 206 
L 441 856 
Q 825 641 1194 531 
Q 1563 422 1919 422 
Q 2459 422 2753 634 
Q 3047 847 3047 1241 
Q 3047 1584 2836 1778 
Q 2625 1972 2144 2069 
L 1759 2144 
Q 1053 2284 737 2584 
Q 422 2884 422 3419 
Q 422 4038 858 4394 
Q 1294 4750 2059 4750 
Q 2388 4750 2728 4690 
Q 3069 4631 3425 4513 
z
" transform="scale(0.015625)"/>
     <path id="DejaVuSans-45" d="M 628 4666 
L 3578 4666 
L 3578 4134 
L 1259 4134 
L 1259 2753 
L 3481 2753 
L 3481 2222 
L 1259 2222 
L 1259 531 
L 3634 531 
L 3634 0 
L 628 0 
L 628 4666 
z
" transform="scale(0.015625)"/>
     <path id="DejaVuSans-76" d="M 191 3500 
L 800 3500 
L 1894 563 
L 2988 3500 
L 3597 3500 
L 2284 0 
L 1503 0 
L 191 3500 
z
" transform="scale(0.015625)"/>
    </defs>
    <use xlink:href="#DejaVuSans-47"/>
    <use xlink:href="#DejaVuSans-61" transform="translate(77.490234 0)"/>
    <use xlink:href="#DejaVuSans-6c" transform="translate(138.769531 0)"/>
    <use xlink:href="#DejaVuSans-61" transform="translate(166.552734 0)"/>
    <use xlink:href="#DejaVuSans-78" transform="translate(227.832031 0)"/>
    <use xlink:href="#DejaVuSans-79" transform="translate(287.011719 0)"/>
    <use xlink:href="#DejaVuSans-20" transform="translate(346.191406 0)"/>
    <use xlink:href="#DejaVuSans-49" transform="translate(377.978516 0)"/>
    <use xlink:href="#DejaVuSans-6e" transform="translate(407.470703 0)"/>
    <use xlink:href="#DejaVuSans-74" transform="translate(470.849609 0)"/>
    <use xlink:href="#DejaVuSans-65" transform="translate(510.058594 0)"/>
    <use xlink:href="#DejaVuSans-72" transform="translate(571.582031 0)"/>
    <use xlink:href="#DejaVuSans-61" transform="translate(612.695312 0)"/>
    <use xlink:href="#DejaVuSans-63" transform="translate(673.974609 0)"/>
    <use xlink:href="#DejaVuSans-74" transform="translate(728.955078 0)"/>
    <use xlink:href="#DejaVuSans-69" transform="translate(768.164062 0)"/>
    <use xlink:href="#DejaVuSans-6f" transform="translate(795.947266 0)"/>
    <use xlink:href="#DejaVuSans-6e" transform="translate(857.128906 0)"/>
    <use xlink:href="#DejaVuSans-73" transform="translate(920.507812 0)"/>
    <use xlink:href="#DejaVuSans-3a" transform="translate(972.607422 0)"/>
    <use xlink:href="#DejaVuSans-20" transform="translate(1006.298828 0)"/>
    <use xlink:href="#DejaVuSans-4d" transform="translate(1038.085938 0)"/>
    <use xlink:href="#DejaVuSans-65" transform="translate(1124.365234 0)"/>
    <use xlink:href="#DejaVuSans-72" transform="translate(1185.888672 0)"/>
    <use xlink:href="#DejaVuSans-67" transform="translate(1225.251953 0)"/>
    <use xlink:href="#DejaVuSans-65" transform="translate(1288.728516 0)"/>
    <use xlink:href="#DejaVuSans-72" transform="translate(1350.251953 0)"/>
    <use xlink:href="#DejaVuSans-20" transform="translate(1391.365234 0)"/>
    <use xlink:href="#DejaVuSans-53" transform="translate(1423.152344 0)"/>
    <use xlink:href="#DejaVuSans-74" transform="translate(1486.628906 0)"/>
    <use xlink:href="#DejaVuSans-61" transform="translate(1525.837891 0)"/>
    <use xlink:href="#DejaVuSans-67" transform="translate(1587.117188 0)"/>
    <use xlink:href="#DejaVuSans-65" transform="translate(1650.59375 0)"/>
    <use xlink:href="#DejaVuSans-73" transform="translate(1712.117188 0)"/>
    <use xlink:href="#DejaVuSans-20" transform="translate(1764.216797 0)"/>
    <use xlink:href="#DejaVuSans-61" transform="translate(1796.003906 0)"/>
    <use xlink:href="#DejaVuSans-6e" transform="translate(1857.283203 0)"/>
    <use xlink:href="#DejaVuSans-64" transform="translate(1920.662109 0)"/>
    <use xlink:href="#DejaVuSans-20" transform="translate(1984.138672 0)"/>
    <use xlink:href="#DejaVuSans-45" transform="translate(2015.925781 0)"/>
    <use xlink:href="#DejaVuSans-6e" transform="translate(2079.109375 0)"/>
    <use xlink:href="#DejaVuSans-76" transform="translate(2142.488281 0)"/>
    <use xlink:href="#DejaVuSans-69" transform="translate(2201.667969 0)"/>
    <use xlink:href="#DejaVuSans-72" transform="translate(2229.451172 0)"/>
    <use xlink:href="#DejaVuSans-6f" transform="translate(2268.314453 0)"/>
    <use xlink:href="#DejaVuSans-6e" transform="translate(2329.496094 0)"/>
    <use xlink:href="#DejaVuSans-6d" transform="translate(2392.875 0)"/>
    <use xlink:href="#DejaVuSans-65" transform="translate(2490.287109 0)"/>
    <use xlink:href="#DejaVuSans-6e" transform="translate(2551.810547 0)"/>
    <use xlink:href="#DejaVuSans-74" transform="translate(2615.189453 0)"/>
   </g>
  </g>
 </g>
 <defs>
  <clipPath id="p691077e5fc">
   <rect x="7.2" y="30.72" width="379.8" height="259.68"/>
  </clipPath>
  <clipPath id="p118b6945fa">
   <rect x="397.8" y="30.72" width="379.8" height="259.68"/>
  </clipPath>
  <clipPath id="p132c2ca8a2">
   <rect x="7.2" y="301.2" width="379.8" height="259.68"/>
  </clipPath>
  <clipPath id="pac15042f6d">
   <rect x="397.8" y="301.2" width="379.8" height="259.68"/>
  </clipPath>
 </defs>
</svg>
