<?xml version="1.0" encoding="utf-8" standalone="no"?>
<!DOCTYPE svg PUBLIC "-//W3C//DTD SVG 1.1//EN"
  "http://www.w3.org/Graphics/SVG/1.1/DTD/svg11.dtd">
<svg xmlns:xlink="http://www.w3.org/1999/xlink" width="568.8pt" height="712.877813pt" viewBox="0 0 568.8 712.877813" xmlns="http://www.w3.org/2000/svg" version="1.1">
 <metadata>
  <rdf:RDF xmlns:dc="http://purl.org/dc/elements/1.1/" xmlns:cc="http://creativecommons.org/ns#" xmlns:rdf="http://www.w3.org/1999/02/22-rdf-syntax-ns#">
   <cc:Work>
    <dc:type rdf:resource="http://purl.org/dc/dcmitype/StillImage"/>
    <dc:date>2026-01-02T17:43:32.650837</dc:date>
    <dc:format>image/svg+xml</dc:format>
    <dc:creator>
     <cc:Agent>
      <dc:title>Matplotlib v3.10.8, https://matplotlib.org/</dc:title>
     </cc:Agent>
    </dc:creator>
   </cc:Work>
  </rdf:RDF>
 </metadata>
 <defs>
  <style type="text/css">*{stroke-linejoin: round; stroke-linecap: butt}</style>
 </defs>
 <g id="figure_1">
  <g id="patch_1">
   <path d="M 0 712.877813 
L 568.8 712.877813 
L 568.8 0 
L 0 0 
z
" style="fill: #ffffff"/>
  </g>
  <g id="axes_1">
   <g id="patch_2">
    <path d="M 73.728 85.629874 
L 495.072 85.629874 
Q 496.1808 85.629874 496.1808 84.594736 
L 496.1808 50.952736 
Q 496.1808 49.917597 495.072 49.917597 
L 73.728 49.917597 
Q 72.6192 49.917597 72.6192 50.952736 
L 72.6192 84.594736 
Q 72.6192 85.629874 73.728 85.629874 
z
" clip-path="url(#pcfc2286086)" style="fill: #2c3e50; opacity: 0.1; stroke: #2c3e50; stroke-width: 2.5; stroke-linejoin: miter"/>
   </g>
   <g id="patch_3">
    <path d="M 73.728 137.386797 
L 495.072 137.386797 
Q 496.1808 137.386797 496.1808 136.351659 
L 496.1808 102.709659 
Q 496.1808 101.67452 495.072 101.67452 
L 73.728 101.67452 
Q 72.6192 101.67452 72.6192 102.709659 
L 72.6192 136.351659 
Q 72.6192 137.386797 73.728 137.386797 
z
" clip-path="url(#pcfc2286086)" style="fill: #9b59b6; opacity: 0.12; stroke: #9b59b6; stroke-width: 2.5; stroke-linejoin: miter"/>
   </g>
   <g id="patch_4">
    <path d="M 73.728 189.14372 
L 495.072 189.14372 
Q 496.1808 189.14372 496.1808 188.108582 
L 496.1808 154.466582 
Q 496.1808 153.431443 495.072 153.431443 
L 73.728 153.431443 
Q 72.6192 153.431443 72.6192 154.466582 
L 72.6192 188.108582 
Q 72.6192 189.14372 73.728 189.14372 
z
" clip-path="url(#pcfc2286086)" style="fill: #95a5a6; opacity: 0.12; stroke: #95a5a6; stroke-width: 2.5; stroke-linejoin: miter"/>
   </g>
   <g id="patch_5">
    <path d="M 73.728 240.900643 
L 495.072 240.900643 
Q 496.1808 240.900643 496.1808 239.865505 
L 496.1808 206.223505 
Q 496.1808 205.188366 495.072 205.188366 
L 73.728 205.188366 
Q 72.6192 205.188366 72.6192 206.223505 
L 72.6192 239.865505 
Q 72.6192 240.900643 73.728 240.900643 
z
" clip-path="url(#pcfc2286086)" style="fill: #95a5a6; opacity: 0.12; stroke: #95a5a6; stroke-width: 2.5; stroke-linejoin: miter"/>
   </g>
   <g id="patch_6">
    <path d="M 73.728 292.657566 
L 495.072 292.657566 
Q 496.1808 292.657566 496.1808 291.622428 
L 496.1808 257.980428 
Q 496.1808 256.945289 495.072 256.945289 
L 73.728 256.945289 
Q 72.6192 256.945289 72.6192 257.980428 
L 72.6192 291.622428 
Q 72.6192 292.657566 73.728 292.657566 
z
" clip-path="url(#pcfc2286086)" style="fill: #2ecc71; opacity: 0.12; stroke: #2ecc71; stroke-width: 2.5; stroke-linejoin: miter"/>
   </g>
   <g id="patch_7">
    <path d="M 73.728 344.414489 
L 495.072 344.414489 
Q 496.1808 344.414489 496.1808 343.379351 
L 496.1808 309.737351 
Q 496.1808 308.702212 495.072 308.702212 
L 73.728 308.702212 
Q 72.6192 308.702212 72.6192 309.737351 
L 72.6192 343.379351 
Q 72.6192 344.414489 73.728 344.414489 
z
" clip-path="url(#pcfc2286086)" style="fill: #95a5a6; opacity: 0.12; stroke: #95a5a6; stroke-width: 2.5; stroke-linejoin: miter"/>
   </g>
   <g id="patch_8">
    <path d="M 73.728 396.171412 
L 495.072 396.171412 
Q 496.1808 396.171412 496.1808 395.136274 
L 496.1808 361.494274 
Q 496.1808 360.459136 495.072 360.459136 
L 73.728 360.459136 
Q 72.6192 360.459136 72.6192 361.494274 
L 72.6192 395.136274 
Q 72.6192 396.171412 73.728 396.171412 
z
" clip-path="url(#pcfc2286086)" style="fill: #7f8c8d; opacity: 0.12; stroke: #7f8c8d; stroke-width: 2.5; stroke-linejoin: miter"/>
   </g>
   <g id="patch_9">
    <path d="M 73.728 447.928336 
L 495.072 447.928336 
Q 496.1808 447.928336 496.1808 446.893197 
L 496.1808 413.251197 
Q 496.1808 412.216059 495.072 412.216059 
L 73.728 412.216059 
Q 72.6192 412.216059 72.6192 413.251197 
L 72.6192 446.893197 
Q 72.6192 447.928336 73.728 447.928336 
z
" clip-path="url(#pcfc2286086)" style="fill: #e74c3c; opacity: 0.12; stroke: #e74c3c; stroke-width: 2.5; stroke-linejoin: miter"/>
   </g>
   <g id="patch_10">
    <path d="M 73.728 499.685259 
L 495.072 499.685259 
Q 496.1808 499.685259 496.1808 498.65012 
L 496.1808 465.00812 
Q 496.1808 463.972982 495.072 463.972982 
L 73.728 463.972982 
Q 72.6192 463.972982 72.6192 465.00812 
L 72.6192 498.65012 
Q 72.6192 499.685259 73.728 499.685259 
z
" clip-path="url(#pcfc2286086)" style="fill: #f39c12; opacity: 0.12; stroke: #f39c12; stroke-width: 2.5; stroke-linejoin: miter"/>
   </g>
   <g id="patch_11">
    <path d="M 73.728 551.442182 
L 495.072 551.442182 
Q 496.1808 551.442182 496.1808 550.407043 
L 496.1808 516.765043 
Q 496.1808 515.729905 495.072 515.729905 
L 73.728 515.729905 
Q 72.6192 515.729905 72.6192 516.765043 
L 72.6192 550.407043 
Q 72.6192 551.442182 73.728 551.442182 
z
" clip-path="url(#pcfc2286086)" style="fill: #2c3e50; opacity: 0.1; stroke: #2c3e50; stroke-width: 2.5; stroke-linejoin: miter"/>
   </g>
   <g id="patch_12">
    <path d="M 73.728 603.199105 
L 495.072 603.199105 
Q 496.1808 603.199105 496.1808 602.163966 
L 496.1808 568.521966 
Q 496.1808 567.486828 495.072 567.486828 
L 73.728 567.486828 
Q 72.6192 567.486828 72.6192 568.521966 
L 72.6192 602.163966 
Q 72.6192 603.199105 73.728 603.199105 
z
" clip-path="url(#pcfc2286086)" style="fill: #9b59b6; opacity: 0.12; stroke: #9b59b6; stroke-width: 2.5; stroke-linejoin: miter"/>
   </g>
   <g id="patch_13">
    <path d="M 73.728 654.956028 
L 495.072 654.956028 
Q 496.1808 654.956028 496.1808 653.920889 
L 496.1808 620.278889 
Q 496.1808 619.243751 495.072 619.243751 
L 73.728 619.243751 
Q 72.6192 619.243751 72.6192 620.278889 
L 72.6192 653.920889 
Q 72.6192 654.956028 73.728 654.956028 
z
" clip-path="url(#pcfc2286086)" style="fill: #2c3e50; opacity: 0.1; stroke: #2c3e50; stroke-width: 2.5; stroke-linejoin: miter"/>
   </g>
   <g id="text_1">
    <!-- VOID -->
    <g style="fill: #2c3e50" transform="translate(267.5475 64.366298) scale(0.12 -0.12)">
     <defs>
      <path id="DejaVuSans-Bold-56" d="M 31 4666 
L 1241 4666 
L 2478 1222 
L 3713 4666 
L 4922 4666 
L 3194 0 
L 1759 0 
L 31 4666 
z
" transform="scale(0.015625)"/>
      <path id="DejaVuSans-Bold-4f" d="M 2719 3878 
Q 2169 3878 1866 3472 
Q 1563 3066 1563 2328 
Q 1563 1594 1866 1187 
Q 2169 781 2719 781 
Q 3272 781 3575 1187 
Q 3878 1594 3878 2328 
Q 3878 3066 3575 3472 
Q 3272 3878 2719 3878 
z
M 2719 4750 
Q 3844 4750 4481 4106 
Q 5119 3463 5119 2328 
Q 5119 1197 4481 553 
Q 3844 -91 2719 -91 
Q 1597 -91 958 553 
Q 319 1197 319 2328 
Q 319 3463 958 4106 
Q 1597 4750 2719 4750 
z
" transform="scale(0.015625)"/>
      <path id="DejaVuSans-Bold-49" d="M 588 4666 
L 1791 4666 
L 1791 0 
L 588 0 
L 588 4666 
z
" transform="scale(0.015625)"/>
      <path id="DejaVuSans-Bold-44" d="M 1791 3756 
L 1791 909 
L 2222 909 
Q 2959 909 3348 1275 
Q 3738 1641 3738 2338 
Q 3738 3031 3350 3393 
Q 2963 3756 2222 3756 
L 1791 3756 
z
M 588 4666 
L 1856 4666 
Q 2919 4666 3439 4514 
Q 3959 4363 4331 4000 
Q 4659 3684 4818 3271 
Q 4978 2859 4978 2338 
Q 4978 1809 4818 1395 
Q 4659 981 4331 666 
Q 3956 303 3431 151 
Q 2906 0 1856 0 
L 588 0 
L 588 4666 
z
" transform="scale(0.015625)"/>
     </defs>
     <use xlink:href="#DejaVuSans-Bold-56"/>
     <use xlink:href="#DejaVuSans-Bold-4f" transform="translate(75.642578 0)"/>
     <use xlink:href="#DejaVuSans-Bold-49" transform="translate(160.652344 0)"/>
     <use xlink:href="#DejaVuSans-Bold-44" transform="translate(197.859375 0)"/>
    </g>
    <!-- (State 0) -->
    <g style="fill: #2c3e50" transform="translate(254.476875 77.803673) scale(0.12 -0.12)">
     <defs>
      <path id="DejaVuSans-Bold-28" d="M 2413 -844 
L 1484 -844 
Q 1006 -72 778 623 
Q 550 1319 550 2003 
Q 550 2688 779 3389 
Q 1009 4091 1484 4856 
L 2413 4856 
Q 2013 4116 1813 3408 
Q 1613 2700 1613 2009 
Q 1613 1319 1811 609 
Q 2009 -100 2413 -844 
z
" transform="scale(0.015625)"/>
      <path id="DejaVuSans-Bold-53" d="M 3834 4519 
L 3834 3531 
Q 3450 3703 3084 3790 
Q 2719 3878 2394 3878 
Q 1963 3878 1756 3759 
Q 1550 3641 1550 3391 
Q 1550 3203 1689 3098 
Q 1828 2994 2194 2919 
L 2706 2816 
Q 3484 2659 3812 2340 
Q 4141 2022 4141 1434 
Q 4141 663 3683 286 
Q 3225 -91 2284 -91 
Q 1841 -91 1394 -6 
Q 947 78 500 244 
L 500 1259 
Q 947 1022 1364 901 
Q 1781 781 2169 781 
Q 2563 781 2772 912 
Q 2981 1044 2981 1288 
Q 2981 1506 2839 1625 
Q 2697 1744 2272 1838 
L 1806 1941 
Q 1106 2091 782 2419 
Q 459 2747 459 3303 
Q 459 4000 909 4375 
Q 1359 4750 2203 4750 
Q 2588 4750 2994 4692 
Q 3400 4634 3834 4519 
z
" transform="scale(0.015625)"/>
      <path id="DejaVuSans-Bold-74" d="M 1759 4494 
L 1759 3500 
L 2913 3500 
L 2913 2700 
L 1759 2700 
L 1759 1216 
Q 1759 972 1856 886 
Q 1953 800 2241 800 
L 2816 800 
L 2816 0 
L 1856 0 
Q 1194 0 917 276 
Q 641 553 641 1216 
L 641 2700 
L 84 2700 
L 84 3500 
L 641 3500 
L 641 4494 
L 1759 4494 
z
" transform="scale(0.015625)"/>
      <path id="DejaVuSans-Bold-61" d="M 2106 1575 
Q 1756 1575 1579 1456 
Q 1403 1338 1403 1106 
Q 1403 894 1545 773 
Q 1688 653 1941 653 
Q 2256 653 2472 879 
Q 2688 1106 2688 1447 
L 2688 1575 
L 2106 1575 
z
M 3816 1997 
L 3816 0 
L 2688 0 
L 2688 519 
Q 2463 200 2181 54 
Q 1900 -91 1497 -91 
Q 953 -91 614 226 
Q 275 544 275 1050 
Q 275 1666 698 1953 
Q 1122 2241 2028 2241 
L 2688 2241 
L 2688 2328 
Q 2688 2594 2478 2717 
Q 2269 2841 1825 2841 
Q 1466 2841 1156 2769 
Q 847 2697 581 2553 
L 581 3406 
Q 941 3494 1303 3539 
Q 1666 3584 2028 3584 
Q 2975 3584 3395 3211 
Q 3816 2838 3816 1997 
z
" transform="scale(0.015625)"/>
      <path id="DejaVuSans-Bold-65" d="M 4031 1759 
L 4031 1441 
L 1416 1441 
Q 1456 1047 1700 850 
Q 1944 653 2381 653 
Q 2734 653 3104 758 
Q 3475 863 3866 1075 
L 3866 213 
Q 3469 63 3072 -14 
Q 2675 -91 2278 -91 
Q 1328 -91 801 392 
Q 275 875 275 1747 
Q 275 2603 792 3093 
Q 1309 3584 2216 3584 
Q 3041 3584 3536 3087 
Q 4031 2591 4031 1759 
z
M 2881 2131 
Q 2881 2450 2695 2645 
Q 2509 2841 2209 2841 
Q 1884 2841 1681 2658 
Q 1478 2475 1428 2131 
L 2881 2131 
z
" transform="scale(0.015625)"/>
      <path id="DejaVuSans-Bold-20" transform="scale(0.015625)"/>
      <path id="DejaVuSans-Bold-30" d="M 2944 2338 
Q 2944 3213 2780 3570 
Q 2616 3928 2228 3928 
Q 1841 3928 1675 3570 
Q 1509 3213 1509 2338 
Q 1509 1453 1675 1090 
Q 1841 728 2228 728 
Q 2613 728 2778 1090 
Q 2944 1453 2944 2338 
z
M 4147 2328 
Q 4147 1169 3647 539 
Q 3147 -91 2228 -91 
Q 1306 -91 806 539 
Q 306 1169 306 2328 
Q 306 3491 806 4120 
Q 1306 4750 2228 4750 
Q 3147 4750 3647 4120 
Q 4147 3491 4147 2328 
z
" transform="scale(0.015625)"/>
      <path id="DejaVuSans-Bold-29" d="M 513 -844 
Q 913 -100 1113 609 
Q 1313 1319 1313 2009 
Q 1313 2700 1113 3408 
Q 913 4116 513 4856 
L 1441 4856 
Q 1916 4091 2145 3389 
Q 2375 2688 2375 2003 
Q 2375 1319 2147 623 
Q 1919 -72 1441 -844 
L 513 -844 
z
" transform="scale(0.015625)"/>
     </defs>
     <use xlink:href="#DejaVuSans-Bold-28"/>
     <use xlink:href="#DejaVuSans-Bold-53" transform="translate(45.703125 0)"/>
     <use xlink:href="#DejaVuSans-Bold-74" transform="translate(117.724609 0)"/>
     <use xlink:href="#DejaVuSans-Bold-61" transform="translate(165.527344 0)"/>
     <use xlink:href="#DejaVuSans-Bold-74" transform="translate(233.007812 0)"/>
     <use xlink:href="#DejaVuSans-Bold-65" transform="translate(280.810547 0)"/>
     <use xlink:href="#DejaVuSans-Bold-20" transform="translate(348.632812 0)"/>
     <use xlink:href="#DejaVuSans-Bold-30" transform="translate(383.447266 0)"/>
     <use xlink:href="#DejaVuSans-Bold-29" transform="translate(453.027344 0)"/>
    </g>
   </g>
   <g id="patch_14">
    <path d="M 284.4 89.182224 
Q 284.4 93.651804 284.4 96.444334 
" style="fill: none; stroke: #f39c12; stroke-width: 1.5; stroke-linecap: round"/>
    <path d="M 286.4 92.444334 
L 284.4 96.444334 
L 282.4 92.444334 
" style="fill: none; stroke: #f39c12; stroke-width: 1.5; stroke-linecap: round"/>
   </g>
   <g id="text_2">
    <!-- Genesis -->
    <g style="fill: #95a5a6" transform="translate(303.804 95.859697) scale(0.08 -0.08)">
     <defs>
      <path id="DejaVuSans-47" d="M 3809 666 
L 3809 1919 
L 2778 1919 
L 2778 2438 
L 4434 2438 
L 4434 434 
Q 4069 175 3628 42 
Q 3188 -91 2688 -91 
Q 1594 -91 976 548 
Q 359 1188 359 2328 
Q 359 3472 976 4111 
Q 1594 4750 2688 4750 
Q 3144 4750 3555 4637 
Q 3966 4525 4313 4306 
L 4313 3634 
Q 3963 3931 3569 4081 
Q 3175 4231 2741 4231 
Q 1884 4231 1454 3753 
Q 1025 3275 1025 2328 
Q 1025 1384 1454 906 
Q 1884 428 2741 428 
Q 3075 428 3337 486 
Q 3600 544 3809 666 
z
" transform="scale(0.015625)"/>
      <path id="DejaVuSans-65" d="M 3597 1894 
L 3597 1613 
L 953 1613 
Q 991 1019 1311 708 
Q 1631 397 2203 397 
Q 2534 397 2845 478 
Q 3156 559 3463 722 
L 3463 178 
Q 3153 47 2828 -22 
Q 2503 -91 2169 -91 
Q 1331 -91 842 396 
Q 353 884 353 1716 
Q 353 2575 817 3079 
Q 1281 3584 2069 3584 
Q 2775 3584 3186 3129 
Q 3597 2675 3597 1894 
z
M 3022 2063 
Q 3016 2534 2758 2815 
Q 2500 3097 2075 3097 
Q 1594 3097 1305 2825 
Q 1016 2553 972 2059 
L 3022 2063 
z
" transform="scale(0.015625)"/>
      <path id="DejaVuSans-6e" d="M 3513 2113 
L 3513 0 
L 2938 0 
L 2938 2094 
Q 2938 2591 2744 2837 
Q 2550 3084 2163 3084 
Q 1697 3084 1428 2787 
Q 1159 2491 1159 1978 
L 1159 0 
L 581 0 
L 581 3500 
L 1159 3500 
L 1159 2956 
Q 1366 3272 1645 3428 
Q 1925 3584 2291 3584 
Q 2894 3584 3203 3211 
Q 3513 2838 3513 2113 
z
" transform="scale(0.015625)"/>
      <path id="DejaVuSans-73" d="M 2834 3397 
L 2834 2853 
Q 2591 2978 2328 3040 
Q 2066 3103 1784 3103 
Q 1356 3103 1142 2972 
Q 928 2841 928 2578 
Q 928 2378 1081 2264 
Q 1234 2150 1697 2047 
L 1894 2003 
Q 2506 1872 2764 1633 
Q 3022 1394 3022 966 
Q 3022 478 2636 193 
Q 2250 -91 1575 -91 
Q 1294 -91 989 -36 
Q 684 19 347 128 
L 347 722 
Q 666 556 975 473 
Q 1284 391 1588 391 
Q 1994 391 2212 530 
Q 2431 669 2431 922 
Q 2431 1156 2273 1281 
Q 2116 1406 1581 1522 
L 1381 1569 
Q 847 1681 609 1914 
Q 372 2147 372 2553 
Q 372 3047 722 3315 
Q 1072 3584 1716 3584 
Q 2034 3584 2315 3537 
Q 2597 3491 2834 3397 
z
" transform="scale(0.015625)"/>
      <path id="DejaVuSans-69" d="M 603 3500 
L 1178 3500 
L 1178 0 
L 603 0 
L 603 3500 
z
M 603 4863 
L 1178 4863 
L 1178 4134 
L 603 4134 
L 603 4863 
z
" transform="scale(0.015625)"/>
     </defs>
     <use xlink:href="#DejaVuSans-47"/>
     <use xlink:href="#DejaVuSans-65" transform="translate(77.490234 0)"/>
     <use xlink:href="#DejaVuSans-6e" transform="translate(139.013672 0)"/>
     <use xlink:href="#DejaVuSans-65" transform="translate(202.392578 0)"/>
     <use xlink:href="#DejaVuSans-73" transform="translate(263.916016 0)"/>
     <use xlink:href="#DejaVuSans-69" transform="translate(316.015625 0)"/>
     <use xlink:href="#DejaVuSans-73" transform="translate(343.798828 0)"/>
    </g>
   </g>
   <g id="text_3">
    <!-- MANIFESTATION -->
    <g style="fill: #2c3e50" transform="translate(229.759687 116.123221) scale(0.12 -0.12)">
     <defs>
      <path id="DejaVuSans-Bold-4d" d="M 588 4666 
L 2119 4666 
L 3181 2169 
L 4250 4666 
L 5778 4666 
L 5778 0 
L 4641 0 
L 4641 3413 
L 3566 897 
L 2803 897 
L 1728 3413 
L 1728 0 
L 588 0 
L 588 4666 
z
" transform="scale(0.015625)"/>
      <path id="DejaVuSans-Bold-41" d="M 3419 850 
L 1538 850 
L 1241 0 
L 31 0 
L 1759 4666 
L 3194 4666 
L 4922 0 
L 3713 0 
L 3419 850 
z
M 1838 1716 
L 3116 1716 
L 2478 3572 
L 1838 1716 
z
" transform="scale(0.015625)"/>
      <path id="DejaVuSans-Bold-4e" d="M 588 4666 
L 1931 4666 
L 3628 1466 
L 3628 4666 
L 4769 4666 
L 4769 0 
L 3425 0 
L 1728 3200 
L 1728 0 
L 588 0 
L 588 4666 
z
" transform="scale(0.015625)"/>
      <path id="DejaVuSans-Bold-46" d="M 588 4666 
L 3834 4666 
L 3834 3756 
L 1791 3756 
L 1791 2888 
L 3713 2888 
L 3713 1978 
L 1791 1978 
L 1791 0 
L 588 0 
L 588 4666 
z
" transform="scale(0.015625)"/>
      <path id="DejaVuSans-Bold-45" d="M 588 4666 
L 3834 4666 
L 3834 3756 
L 1791 3756 
L 1791 2888 
L 3713 2888 
L 3713 1978 
L 1791 1978 
L 1791 909 
L 3903 909 
L 3903 0 
L 588 0 
L 588 4666 
z
" transform="scale(0.015625)"/>
      <path id="DejaVuSans-Bold-54" d="M 31 4666 
L 4331 4666 
L 4331 3756 
L 2784 3756 
L 2784 0 
L 1581 0 
L 1581 3756 
L 31 3756 
L 31 4666 
z
" transform="scale(0.015625)"/>
     </defs>
     <use xlink:href="#DejaVuSans-Bold-4d"/>
     <use xlink:href="#DejaVuSans-Bold-41" transform="translate(99.511719 0)"/>
     <use xlink:href="#DejaVuSans-Bold-4e" transform="translate(176.904297 0)"/>
     <use xlink:href="#DejaVuSans-Bold-49" transform="translate(260.595703 0)"/>
     <use xlink:href="#DejaVuSans-Bold-46" transform="translate(297.802734 0)"/>
     <use xlink:href="#DejaVuSans-Bold-45" transform="translate(366.113281 0)"/>
     <use xlink:href="#DejaVuSans-Bold-53" transform="translate(434.423828 0)"/>
     <use xlink:href="#DejaVuSans-Bold-54" transform="translate(506.445312 0)"/>
     <use xlink:href="#DejaVuSans-Bold-41" transform="translate(566.908203 0)"/>
     <use xlink:href="#DejaVuSans-Bold-54" transform="translate(636.550781 0)"/>
     <use xlink:href="#DejaVuSans-Bold-49" transform="translate(704.763672 0)"/>
     <use xlink:href="#DejaVuSans-Bold-4f" transform="translate(741.970703 0)"/>
     <use xlink:href="#DejaVuSans-Bold-4e" transform="translate(826.980469 0)"/>
    </g>
    <!-- (State ±1) -->
    <g style="fill: #2c3e50" transform="translate(249.449062 129.560596) scale(0.12 -0.12)">
     <defs>
      <path id="DejaVuSans-Bold-b1" d="M 3053 4013 
L 3053 2906 
L 4684 2906 
L 4684 2169 
L 3053 2169 
L 3053 1063 
L 2309 1063 
L 2309 2169 
L 678 2169 
L 678 2906 
L 2309 2906 
L 2309 4013 
L 3053 4013 
z
M 678 744 
L 4684 744 
L 4684 0 
L 678 0 
L 678 744 
z
" transform="scale(0.015625)"/>
      <path id="DejaVuSans-Bold-31" d="M 750 831 
L 1813 831 
L 1813 3847 
L 722 3622 
L 722 4441 
L 1806 4666 
L 2950 4666 
L 2950 831 
L 4013 831 
L 4013 0 
L 750 0 
L 750 831 
z
" transform="scale(0.015625)"/>
     </defs>
     <use xlink:href="#DejaVuSans-Bold-28"/>
     <use xlink:href="#DejaVuSans-Bold-53" transform="translate(45.703125 0)"/>
     <use xlink:href="#DejaVuSans-Bold-74" transform="translate(117.724609 0)"/>
     <use xlink:href="#DejaVuSans-Bold-61" transform="translate(165.527344 0)"/>
     <use xlink:href="#DejaVuSans-Bold-74" transform="translate(233.007812 0)"/>
     <use xlink:href="#DejaVuSans-Bold-65" transform="translate(280.810547 0)"/>
     <use xlink:href="#DejaVuSans-Bold-20" transform="translate(348.632812 0)"/>
     <use xlink:href="#DejaVuSans-Bold-b1" transform="translate(383.447266 0)"/>
     <use xlink:href="#DejaVuSans-Bold-31" transform="translate(467.236328 0)"/>
     <use xlink:href="#DejaVuSans-Bold-29" transform="translate(536.816406 0)"/>
    </g>
   </g>
   <g id="patch_15">
    <path d="M 284.4 140.939147 
Q 284.4 145.408727 284.4 148.201257 
" style="fill: none; stroke: #f39c12; stroke-width: 1.5; stroke-linecap: round"/>
    <path d="M 286.4 144.201257 
L 284.4 148.201257 
L 282.4 144.201257 
" style="fill: none; stroke: #f39c12; stroke-width: 1.5; stroke-linecap: round"/>
   </g>
   <g id="text_4">
    <!-- Binding -->
    <g style="fill: #95a5a6" transform="translate(303.804 147.61662) scale(0.08 -0.08)">
     <defs>
      <path id="DejaVuSans-42" d="M 1259 2228 
L 1259 519 
L 2272 519 
Q 2781 519 3026 730 
Q 3272 941 3272 1375 
Q 3272 1813 3026 2020 
Q 2781 2228 2272 2228 
L 1259 2228 
z
M 1259 4147 
L 1259 2741 
L 2194 2741 
Q 2656 2741 2882 2914 
Q 3109 3088 3109 3444 
Q 3109 3797 2882 3972 
Q 2656 4147 2194 4147 
L 1259 4147 
z
M 628 4666 
L 2241 4666 
Q 2963 4666 3353 4366 
Q 3744 4066 3744 3513 
Q 3744 3084 3544 2831 
Q 3344 2578 2956 2516 
Q 3422 2416 3680 2098 
Q 3938 1781 3938 1306 
Q 3938 681 3513 340 
Q 3088 0 2303 0 
L 628 0 
L 628 4666 
z
" transform="scale(0.015625)"/>
      <path id="DejaVuSans-64" d="M 2906 2969 
L 2906 4863 
L 3481 4863 
L 3481 0 
L 2906 0 
L 2906 525 
Q 2725 213 2448 61 
Q 2172 -91 1784 -91 
Q 1150 -91 751 415 
Q 353 922 353 1747 
Q 353 2572 751 3078 
Q 1150 3584 1784 3584 
Q 2172 3584 2448 3432 
Q 2725 3281 2906 2969 
z
M 947 1747 
Q 947 1113 1208 752 
Q 1469 391 1925 391 
Q 2381 391 2643 752 
Q 2906 1113 2906 1747 
Q 2906 2381 2643 2742 
Q 2381 3103 1925 3103 
Q 1469 3103 1208 2742 
Q 947 2381 947 1747 
z
" transform="scale(0.015625)"/>
      <path id="DejaVuSans-67" d="M 2906 1791 
Q 2906 2416 2648 2759 
Q 2391 3103 1925 3103 
Q 1463 3103 1205 2759 
Q 947 2416 947 1791 
Q 947 1169 1205 825 
Q 1463 481 1925 481 
Q 2391 481 2648 825 
Q 2906 1169 2906 1791 
z
M 3481 434 
Q 3481 -459 3084 -895 
Q 2688 -1331 1869 -1331 
Q 1566 -1331 1297 -1286 
Q 1028 -1241 775 -1147 
L 775 -588 
Q 1028 -725 1275 -790 
Q 1522 -856 1778 -856 
Q 2344 -856 2625 -561 
Q 2906 -266 2906 331 
L 2906 616 
Q 2728 306 2450 153 
Q 2172 0 1784 0 
Q 1141 0 747 490 
Q 353 981 353 1791 
Q 353 2603 747 3093 
Q 1141 3584 1784 3584 
Q 2172 3584 2450 3431 
Q 2728 3278 2906 2969 
L 2906 3500 
L 3481 3500 
L 3481 434 
z
" transform="scale(0.015625)"/>
     </defs>
     <use xlink:href="#DejaVuSans-42"/>
     <use xlink:href="#DejaVuSans-69" transform="translate(68.603516 0)"/>
     <use xlink:href="#DejaVuSans-6e" transform="translate(96.386719 0)"/>
     <use xlink:href="#DejaVuSans-64" transform="translate(159.765625 0)"/>
     <use xlink:href="#DejaVuSans-69" transform="translate(223.242188 0)"/>
     <use xlink:href="#DejaVuSans-6e" transform="translate(251.025391 0)"/>
     <use xlink:href="#DejaVuSans-67" transform="translate(314.404297 0)"/>
    </g>
   </g>
   <g id="text_5">
    <!-- STRUCTURE -->
    <g style="fill: #2c3e50" transform="translate(244.40625 167.880144) scale(0.12 -0.12)">
     <defs>
      <path id="DejaVuSans-Bold-52" d="M 2297 2597 
Q 2675 2597 2839 2737 
Q 3003 2878 3003 3200 
Q 3003 3519 2839 3656 
Q 2675 3794 2297 3794 
L 1791 3794 
L 1791 2597 
L 2297 2597 
z
M 1791 1766 
L 1791 0 
L 588 0 
L 588 4666 
L 2425 4666 
Q 3347 4666 3776 4356 
Q 4206 4047 4206 3378 
Q 4206 2916 3982 2619 
Q 3759 2322 3309 2181 
Q 3556 2125 3751 1926 
Q 3947 1728 4147 1325 
L 4800 0 
L 3519 0 
L 2950 1159 
Q 2778 1509 2601 1637 
Q 2425 1766 2131 1766 
L 1791 1766 
z
" transform="scale(0.015625)"/>
      <path id="DejaVuSans-Bold-55" d="M 588 4666 
L 1791 4666 
L 1791 1869 
Q 1791 1291 1980 1042 
Q 2169 794 2597 794 
Q 3028 794 3217 1042 
Q 3406 1291 3406 1869 
L 3406 4666 
L 4609 4666 
L 4609 1869 
Q 4609 878 4112 393 
Q 3616 -91 2597 -91 
Q 1581 -91 1084 393 
Q 588 878 588 1869 
L 588 4666 
z
" transform="scale(0.015625)"/>
      <path id="DejaVuSans-Bold-43" d="M 4288 256 
Q 3956 84 3597 -3 
Q 3238 -91 2847 -91 
Q 1681 -91 1000 561 
Q 319 1213 319 2328 
Q 319 3447 1000 4098 
Q 1681 4750 2847 4750 
Q 3238 4750 3597 4662 
Q 3956 4575 4288 4403 
L 4288 3438 
Q 3953 3666 3628 3772 
Q 3303 3878 2944 3878 
Q 2300 3878 1931 3465 
Q 1563 3053 1563 2328 
Q 1563 1606 1931 1193 
Q 2300 781 2944 781 
Q 3303 781 3628 887 
Q 3953 994 4288 1222 
L 4288 256 
z
" transform="scale(0.015625)"/>
     </defs>
     <use xlink:href="#DejaVuSans-Bold-53"/>
     <use xlink:href="#DejaVuSans-Bold-54" transform="translate(72.021484 0)"/>
     <use xlink:href="#DejaVuSans-Bold-52" transform="translate(140.234375 0)"/>
     <use xlink:href="#DejaVuSans-Bold-55" transform="translate(217.236328 0)"/>
     <use xlink:href="#DejaVuSans-Bold-43" transform="translate(298.4375 0)"/>
     <use xlink:href="#DejaVuSans-Bold-54" transform="translate(371.826172 0)"/>
     <use xlink:href="#DejaVuSans-Bold-55" transform="translate(440.039062 0)"/>
     <use xlink:href="#DejaVuSans-Bold-52" transform="translate(521.240234 0)"/>
     <use xlink:href="#DejaVuSans-Bold-45" transform="translate(598.242188 0)"/>
    </g>
    <!-- (Triads, Shells) -->
    <g style="fill: #2c3e50" transform="translate(233.837812 181.317519) scale(0.12 -0.12)">
     <defs>
      <path id="DejaVuSans-Bold-72" d="M 3138 2547 
Q 2991 2616 2845 2648 
Q 2700 2681 2553 2681 
Q 2122 2681 1889 2404 
Q 1656 2128 1656 1613 
L 1656 0 
L 538 0 
L 538 3500 
L 1656 3500 
L 1656 2925 
Q 1872 3269 2151 3426 
Q 2431 3584 2822 3584 
Q 2878 3584 2943 3579 
Q 3009 3575 3134 3559 
L 3138 2547 
z
" transform="scale(0.015625)"/>
      <path id="DejaVuSans-Bold-69" d="M 538 3500 
L 1656 3500 
L 1656 0 
L 538 0 
L 538 3500 
z
M 538 4863 
L 1656 4863 
L 1656 3950 
L 538 3950 
L 538 4863 
z
" transform="scale(0.015625)"/>
      <path id="DejaVuSans-Bold-64" d="M 2919 2988 
L 2919 4863 
L 4044 4863 
L 4044 0 
L 2919 0 
L 2919 506 
Q 2688 197 2409 53 
Q 2131 -91 1766 -91 
Q 1119 -91 703 423 
Q 288 938 288 1747 
Q 288 2556 703 3070 
Q 1119 3584 1766 3584 
Q 2128 3584 2408 3439 
Q 2688 3294 2919 2988 
z
M 2181 722 
Q 2541 722 2730 984 
Q 2919 1247 2919 1747 
Q 2919 2247 2730 2509 
Q 2541 2772 2181 2772 
Q 1825 2772 1636 2509 
Q 1447 2247 1447 1747 
Q 1447 1247 1636 984 
Q 1825 722 2181 722 
z
" transform="scale(0.015625)"/>
      <path id="DejaVuSans-Bold-73" d="M 3272 3391 
L 3272 2541 
Q 2913 2691 2578 2766 
Q 2244 2841 1947 2841 
Q 1628 2841 1473 2761 
Q 1319 2681 1319 2516 
Q 1319 2381 1436 2309 
Q 1553 2238 1856 2203 
L 2053 2175 
Q 2913 2066 3209 1816 
Q 3506 1566 3506 1031 
Q 3506 472 3093 190 
Q 2681 -91 1863 -91 
Q 1516 -91 1145 -36 
Q 775 19 384 128 
L 384 978 
Q 719 816 1070 734 
Q 1422 653 1784 653 
Q 2113 653 2278 743 
Q 2444 834 2444 1013 
Q 2444 1163 2330 1236 
Q 2216 1309 1875 1350 
L 1678 1375 
Q 931 1469 631 1722 
Q 331 1975 331 2491 
Q 331 3047 712 3315 
Q 1094 3584 1881 3584 
Q 2191 3584 2531 3537 
Q 2872 3491 3272 3391 
z
" transform="scale(0.015625)"/>
      <path id="DejaVuSans-Bold-2c" d="M 653 1209 
L 1778 1209 
L 1778 256 
L 1006 -909 
L 341 -909 
L 653 256 
L 653 1209 
z
" transform="scale(0.015625)"/>
      <path id="DejaVuSans-Bold-68" d="M 4056 2131 
L 4056 0 
L 2931 0 
L 2931 347 
L 2931 1625 
Q 2931 2084 2911 2256 
Q 2891 2428 2841 2509 
Q 2775 2619 2662 2680 
Q 2550 2741 2406 2741 
Q 2056 2741 1856 2470 
Q 1656 2200 1656 1722 
L 1656 0 
L 538 0 
L 538 4863 
L 1656 4863 
L 1656 2988 
Q 1909 3294 2193 3439 
Q 2478 3584 2822 3584 
Q 3428 3584 3742 3212 
Q 4056 2841 4056 2131 
z
" transform="scale(0.015625)"/>
      <path id="DejaVuSans-Bold-6c" d="M 538 4863 
L 1656 4863 
L 1656 0 
L 538 0 
L 538 4863 
z
" transform="scale(0.015625)"/>
     </defs>
     <use xlink:href="#DejaVuSans-Bold-28"/>
     <use xlink:href="#DejaVuSans-Bold-54" transform="translate(45.703125 0)"/>
     <use xlink:href="#DejaVuSans-Bold-72" transform="translate(102.916016 0)"/>
     <use xlink:href="#DejaVuSans-Bold-69" transform="translate(152.232422 0)"/>
     <use xlink:href="#DejaVuSans-Bold-61" transform="translate(186.509766 0)"/>
     <use xlink:href="#DejaVuSans-Bold-64" transform="translate(253.990234 0)"/>
     <use xlink:href="#DejaVuSans-Bold-73" transform="translate(325.572266 0)"/>
     <use xlink:href="#DejaVuSans-Bold-2c" transform="translate(385.09375 0)"/>
     <use xlink:href="#DejaVuSans-Bold-20" transform="translate(423.082031 0)"/>
     <use xlink:href="#DejaVuSans-Bold-53" transform="translate(457.896484 0)"/>
     <use xlink:href="#DejaVuSans-Bold-68" transform="translate(529.917969 0)"/>
     <use xlink:href="#DejaVuSans-Bold-65" transform="translate(601.109375 0)"/>
     <use xlink:href="#DejaVuSans-Bold-6c" transform="translate(668.931641 0)"/>
     <use xlink:href="#DejaVuSans-Bold-6c" transform="translate(703.208984 0)"/>
     <use xlink:href="#DejaVuSans-Bold-73" transform="translate(737.486328 0)"/>
     <use xlink:href="#DejaVuSans-Bold-29" transform="translate(797.007812 0)"/>
    </g>
   </g>
   <g id="patch_16">
    <path d="M 284.4 192.69607 
Q 284.4 197.16565 284.4 199.95818 
" style="fill: none; stroke: #f39c12; stroke-width: 1.5; stroke-linecap: round"/>
    <path d="M 286.4 195.95818 
L 284.4 199.95818 
L 282.4 195.95818 
" style="fill: none; stroke: #f39c12; stroke-width: 1.5; stroke-linecap: round"/>
   </g>
   <g id="text_6">
    <!-- Assembly -->
    <g style="fill: #95a5a6" transform="translate(303.804 199.373543) scale(0.08 -0.08)">
     <defs>
      <path id="DejaVuSans-41" d="M 2188 4044 
L 1331 1722 
L 3047 1722 
L 2188 4044 
z
M 1831 4666 
L 2547 4666 
L 4325 0 
L 3669 0 
L 3244 1197 
L 1141 1197 
L 716 0 
L 50 0 
L 1831 4666 
z
" transform="scale(0.015625)"/>
      <path id="DejaVuSans-6d" d="M 3328 2828 
Q 3544 3216 3844 3400 
Q 4144 3584 4550 3584 
Q 5097 3584 5394 3201 
Q 5691 2819 5691 2113 
L 5691 0 
L 5113 0 
L 5113 2094 
Q 5113 2597 4934 2840 
Q 4756 3084 4391 3084 
Q 3944 3084 3684 2787 
Q 3425 2491 3425 1978 
L 3425 0 
L 2847 0 
L 2847 2094 
Q 2847 2600 2669 2842 
Q 2491 3084 2119 3084 
Q 1678 3084 1418 2786 
Q 1159 2488 1159 1978 
L 1159 0 
L 581 0 
L 581 3500 
L 1159 3500 
L 1159 2956 
Q 1356 3278 1631 3431 
Q 1906 3584 2284 3584 
Q 2666 3584 2933 3390 
Q 3200 3197 3328 2828 
z
" transform="scale(0.015625)"/>
      <path id="DejaVuSans-62" d="M 3116 1747 
Q 3116 2381 2855 2742 
Q 2594 3103 2138 3103 
Q 1681 3103 1420 2742 
Q 1159 2381 1159 1747 
Q 1159 1113 1420 752 
Q 1681 391 2138 391 
Q 2594 391 2855 752 
Q 3116 1113 3116 1747 
z
M 1159 2969 
Q 1341 3281 1617 3432 
Q 1894 3584 2278 3584 
Q 2916 3584 3314 3078 
Q 3713 2572 3713 1747 
Q 3713 922 3314 415 
Q 2916 -91 2278 -91 
Q 1894 -91 1617 61 
Q 1341 213 1159 525 
L 1159 0 
L 581 0 
L 581 4863 
L 1159 4863 
L 1159 2969 
z
" transform="scale(0.015625)"/>
      <path id="DejaVuSans-6c" d="M 603 4863 
L 1178 4863 
L 1178 0 
L 603 0 
L 603 4863 
z
" transform="scale(0.015625)"/>
      <path id="DejaVuSans-79" d="M 2059 -325 
Q 1816 -950 1584 -1140 
Q 1353 -1331 966 -1331 
L 506 -1331 
L 506 -850 
L 844 -850 
Q 1081 -850 1212 -737 
Q 1344 -625 1503 -206 
L 1606 56 
L 191 3500 
L 800 3500 
L 1894 763 
L 2988 3500 
L 3597 3500 
L 2059 -325 
z
" transform="scale(0.015625)"/>
     </defs>
     <use xlink:href="#DejaVuSans-41"/>
     <use xlink:href="#DejaVuSans-73" transform="translate(68.408203 0)"/>
     <use xlink:href="#DejaVuSans-73" transform="translate(120.507812 0)"/>
     <use xlink:href="#DejaVuSans-65" transform="translate(172.607422 0)"/>
     <use xlink:href="#DejaVuSans-6d" transform="translate(234.130859 0)"/>
     <use xlink:href="#DejaVuSans-62" transform="translate(331.542969 0)"/>
     <use xlink:href="#DejaVuSans-6c" transform="translate(395.019531 0)"/>
     <use xlink:href="#DejaVuSans-79" transform="translate(422.802734 0)"/>
    </g>
   </g>
   <g id="text_7">
    <!-- ATOMS -->
    <g style="fill: #2c3e50" transform="translate(260.735625 219.637067) scale(0.12 -0.12)">
     <use xlink:href="#DejaVuSans-Bold-41"/>
     <use xlink:href="#DejaVuSans-Bold-54" transform="translate(69.642578 0)"/>
     <use xlink:href="#DejaVuSans-Bold-4f" transform="translate(137.855469 0)"/>
     <use xlink:href="#DejaVuSans-Bold-4d" transform="translate(222.865234 0)"/>
     <use xlink:href="#DejaVuSans-Bold-53" transform="translate(322.376953 0)"/>
    </g>
    <!-- (Periodic Table) -->
    <g style="fill: #2c3e50" transform="translate(231.522187 233.074442) scale(0.12 -0.12)">
     <defs>
      <path id="DejaVuSans-Bold-50" d="M 588 4666 
L 2584 4666 
Q 3475 4666 3951 4270 
Q 4428 3875 4428 3144 
Q 4428 2409 3951 2014 
Q 3475 1619 2584 1619 
L 1791 1619 
L 1791 0 
L 588 0 
L 588 4666 
z
M 1791 3794 
L 1791 2491 
L 2456 2491 
Q 2806 2491 2997 2661 
Q 3188 2831 3188 3144 
Q 3188 3456 2997 3625 
Q 2806 3794 2456 3794 
L 1791 3794 
z
" transform="scale(0.015625)"/>
      <path id="DejaVuSans-Bold-6f" d="M 2203 2784 
Q 1831 2784 1636 2517 
Q 1441 2250 1441 1747 
Q 1441 1244 1636 976 
Q 1831 709 2203 709 
Q 2569 709 2762 976 
Q 2956 1244 2956 1747 
Q 2956 2250 2762 2517 
Q 2569 2784 2203 2784 
z
M 2203 3584 
Q 3106 3584 3614 3096 
Q 4122 2609 4122 1747 
Q 4122 884 3614 396 
Q 3106 -91 2203 -91 
Q 1297 -91 786 396 
Q 275 884 275 1747 
Q 275 2609 786 3096 
Q 1297 3584 2203 3584 
z
" transform="scale(0.015625)"/>
      <path id="DejaVuSans-Bold-63" d="M 3366 3391 
L 3366 2478 
Q 3138 2634 2908 2709 
Q 2678 2784 2431 2784 
Q 1963 2784 1702 2511 
Q 1441 2238 1441 1747 
Q 1441 1256 1702 982 
Q 1963 709 2431 709 
Q 2694 709 2930 787 
Q 3166 866 3366 1019 
L 3366 103 
Q 3103 6 2833 -42 
Q 2563 -91 2291 -91 
Q 1344 -91 809 395 
Q 275 881 275 1747 
Q 275 2613 809 3098 
Q 1344 3584 2291 3584 
Q 2566 3584 2833 3536 
Q 3100 3488 3366 3391 
z
" transform="scale(0.015625)"/>
      <path id="DejaVuSans-Bold-62" d="M 2400 722 
Q 2759 722 2948 984 
Q 3138 1247 3138 1747 
Q 3138 2247 2948 2509 
Q 2759 2772 2400 2772 
Q 2041 2772 1848 2508 
Q 1656 2244 1656 1747 
Q 1656 1250 1848 986 
Q 2041 722 2400 722 
z
M 1656 2988 
Q 1888 3294 2169 3439 
Q 2450 3584 2816 3584 
Q 3463 3584 3878 3070 
Q 4294 2556 4294 1747 
Q 4294 938 3878 423 
Q 3463 -91 2816 -91 
Q 2450 -91 2169 54 
Q 1888 200 1656 506 
L 1656 0 
L 538 0 
L 538 4863 
L 1656 4863 
L 1656 2988 
z
" transform="scale(0.015625)"/>
     </defs>
     <use xlink:href="#DejaVuSans-Bold-28"/>
     <use xlink:href="#DejaVuSans-Bold-50" transform="translate(45.703125 0)"/>
     <use xlink:href="#DejaVuSans-Bold-65" transform="translate(118.994141 0)"/>
     <use xlink:href="#DejaVuSans-Bold-72" transform="translate(186.816406 0)"/>
     <use xlink:href="#DejaVuSans-Bold-69" transform="translate(236.132812 0)"/>
     <use xlink:href="#DejaVuSans-Bold-6f" transform="translate(270.410156 0)"/>
     <use xlink:href="#DejaVuSans-Bold-64" transform="translate(339.111328 0)"/>
     <use xlink:href="#DejaVuSans-Bold-69" transform="translate(410.693359 0)"/>
     <use xlink:href="#DejaVuSans-Bold-63" transform="translate(444.970703 0)"/>
     <use xlink:href="#DejaVuSans-Bold-20" transform="translate(504.248047 0)"/>
     <use xlink:href="#DejaVuSans-Bold-54" transform="translate(539.0625 0)"/>
     <use xlink:href="#DejaVuSans-Bold-61" transform="translate(594.400391 0)"/>
     <use xlink:href="#DejaVuSans-Bold-62" transform="translate(661.880859 0)"/>
     <use xlink:href="#DejaVuSans-Bold-6c" transform="translate(733.462891 0)"/>
     <use xlink:href="#DejaVuSans-Bold-65" transform="translate(767.740234 0)"/>
     <use xlink:href="#DejaVuSans-Bold-29" transform="translate(835.5625 0)"/>
    </g>
   </g>
   <g id="patch_17">
    <path d="M 284.4 244.452993 
Q 284.4 248.922573 284.4 251.715103 
" style="fill: none; stroke: #f39c12; stroke-width: 1.5; stroke-linecap: round"/>
    <path d="M 286.4 247.715103 
L 284.4 251.715103 
L 282.4 247.715103 
" style="fill: none; stroke: #f39c12; stroke-width: 1.5; stroke-linecap: round"/>
   </g>
   <g id="text_8">
    <!-- Bonding -->
    <g style="fill: #95a5a6" transform="translate(303.804 251.130466) scale(0.08 -0.08)">
     <defs>
      <path id="DejaVuSans-6f" d="M 1959 3097 
Q 1497 3097 1228 2736 
Q 959 2375 959 1747 
Q 959 1119 1226 758 
Q 1494 397 1959 397 
Q 2419 397 2687 759 
Q 2956 1122 2956 1747 
Q 2956 2369 2687 2733 
Q 2419 3097 1959 3097 
z
M 1959 3584 
Q 2709 3584 3137 3096 
Q 3566 2609 3566 1747 
Q 3566 888 3137 398 
Q 2709 -91 1959 -91 
Q 1206 -91 779 398 
Q 353 888 353 1747 
Q 353 2609 779 3096 
Q 1206 3584 1959 3584 
z
" transform="scale(0.015625)"/>
     </defs>
     <use xlink:href="#DejaVuSans-42"/>
     <use xlink:href="#DejaVuSans-6f" transform="translate(68.603516 0)"/>
     <use xlink:href="#DejaVuSans-6e" transform="translate(129.785156 0)"/>
     <use xlink:href="#DejaVuSans-64" transform="translate(193.164062 0)"/>
     <use xlink:href="#DejaVuSans-69" transform="translate(256.640625 0)"/>
     <use xlink:href="#DejaVuSans-6e" transform="translate(284.423828 0)"/>
     <use xlink:href="#DejaVuSans-67" transform="translate(347.802734 0)"/>
    </g>
   </g>
   <g id="text_9">
    <!-- MOLECULES -->
    <g style="fill: #2c3e50" transform="translate(243.887812 271.347115) scale(0.12 -0.12)">
     <defs>
      <path id="DejaVuSans-Bold-4c" d="M 588 4666 
L 1791 4666 
L 1791 909 
L 3903 909 
L 3903 0 
L 588 0 
L 588 4666 
z
" transform="scale(0.015625)"/>
     </defs>
     <use xlink:href="#DejaVuSans-Bold-4d"/>
     <use xlink:href="#DejaVuSans-Bold-4f" transform="translate(99.511719 0)"/>
     <use xlink:href="#DejaVuSans-Bold-4c" transform="translate(184.521484 0)"/>
     <use xlink:href="#DejaVuSans-Bold-45" transform="translate(248.242188 0)"/>
     <use xlink:href="#DejaVuSans-Bold-43" transform="translate(316.552734 0)"/>
     <use xlink:href="#DejaVuSans-Bold-55" transform="translate(389.941406 0)"/>
     <use xlink:href="#DejaVuSans-Bold-4c" transform="translate(471.142578 0)"/>
     <use xlink:href="#DejaVuSans-Bold-45" transform="translate(534.863281 0)"/>
     <use xlink:href="#DejaVuSans-Bold-53" transform="translate(603.173828 0)"/>
    </g>
    <!-- (Chemistry) -->
    <g style="fill: #2c3e50" transform="translate(244.553437 284.78449) scale(0.12 -0.12)">
     <defs>
      <path id="DejaVuSans-Bold-6d" d="M 3781 2919 
Q 3994 3244 4286 3414 
Q 4578 3584 4928 3584 
Q 5531 3584 5847 3212 
Q 6163 2841 6163 2131 
L 6163 0 
L 5038 0 
L 5038 1825 
Q 5041 1866 5042 1909 
Q 5044 1953 5044 2034 
Q 5044 2406 4934 2573 
Q 4825 2741 4581 2741 
Q 4263 2741 4089 2478 
Q 3916 2216 3909 1719 
L 3909 0 
L 2784 0 
L 2784 1825 
Q 2784 2406 2684 2573 
Q 2584 2741 2328 2741 
Q 2006 2741 1831 2477 
Q 1656 2213 1656 1722 
L 1656 0 
L 531 0 
L 531 3500 
L 1656 3500 
L 1656 2988 
Q 1863 3284 2130 3434 
Q 2397 3584 2719 3584 
Q 3081 3584 3359 3409 
Q 3638 3234 3781 2919 
z
" transform="scale(0.015625)"/>
      <path id="DejaVuSans-Bold-79" d="M 78 3500 
L 1197 3500 
L 2138 1125 
L 2938 3500 
L 4056 3500 
L 2584 -331 
Q 2363 -916 2067 -1148 
Q 1772 -1381 1288 -1381 
L 641 -1381 
L 641 -647 
L 991 -647 
Q 1275 -647 1404 -556 
Q 1534 -466 1606 -231 
L 1638 -134 
L 78 3500 
z
" transform="scale(0.015625)"/>
     </defs>
     <use xlink:href="#DejaVuSans-Bold-28"/>
     <use xlink:href="#DejaVuSans-Bold-43" transform="translate(45.703125 0)"/>
     <use xlink:href="#DejaVuSans-Bold-68" transform="translate(119.091797 0)"/>
     <use xlink:href="#DejaVuSans-Bold-65" transform="translate(190.283203 0)"/>
     <use xlink:href="#DejaVuSans-Bold-6d" transform="translate(258.105469 0)"/>
     <use xlink:href="#DejaVuSans-Bold-69" transform="translate(362.304688 0)"/>
     <use xlink:href="#DejaVuSans-Bold-73" transform="translate(396.582031 0)"/>
     <use xlink:href="#DejaVuSans-Bold-74" transform="translate(456.103516 0)"/>
     <use xlink:href="#DejaVuSans-Bold-72" transform="translate(503.90625 0)"/>
     <use xlink:href="#DejaVuSans-Bold-79" transform="translate(553.222656 0)"/>
     <use xlink:href="#DejaVuSans-Bold-29" transform="translate(618.408203 0)"/>
    </g>
   </g>
   <g id="patch_18">
    <path d="M 284.4 296.209916 
Q 284.4 300.679496 284.4 303.472026 
" style="fill: none; stroke: #f39c12; stroke-width: 1.5; stroke-linecap: round"/>
    <path d="M 286.4 299.472026 
L 284.4 303.472026 
L 282.4 299.472026 
" style="fill: none; stroke: #f39c12; stroke-width: 1.5; stroke-linecap: round"/>
   </g>
   <g id="text_10">
    <!-- Aggregation -->
    <g style="fill: #95a5a6" transform="translate(303.804 302.887389) scale(0.08 -0.08)">
     <defs>
      <path id="DejaVuSans-72" d="M 2631 2963 
Q 2534 3019 2420 3045 
Q 2306 3072 2169 3072 
Q 1681 3072 1420 2755 
Q 1159 2438 1159 1844 
L 1159 0 
L 581 0 
L 581 3500 
L 1159 3500 
L 1159 2956 
Q 1341 3275 1631 3429 
Q 1922 3584 2338 3584 
Q 2397 3584 2469 3576 
Q 2541 3569 2628 3553 
L 2631 2963 
z
" transform="scale(0.015625)"/>
      <path id="DejaVuSans-61" d="M 2194 1759 
Q 1497 1759 1228 1600 
Q 959 1441 959 1056 
Q 959 750 1161 570 
Q 1363 391 1709 391 
Q 2188 391 2477 730 
Q 2766 1069 2766 1631 
L 2766 1759 
L 2194 1759 
z
M 3341 1997 
L 3341 0 
L 2766 0 
L 2766 531 
Q 2569 213 2275 61 
Q 1981 -91 1556 -91 
Q 1019 -91 701 211 
Q 384 513 384 1019 
Q 384 1609 779 1909 
Q 1175 2209 1959 2209 
L 2766 2209 
L 2766 2266 
Q 2766 2663 2505 2880 
Q 2244 3097 1772 3097 
Q 1472 3097 1187 3025 
Q 903 2953 641 2809 
L 641 3341 
Q 956 3463 1253 3523 
Q 1550 3584 1831 3584 
Q 2591 3584 2966 3190 
Q 3341 2797 3341 1997 
z
" transform="scale(0.015625)"/>
      <path id="DejaVuSans-74" d="M 1172 4494 
L 1172 3500 
L 2356 3500 
L 2356 3053 
L 1172 3053 
L 1172 1153 
Q 1172 725 1289 603 
Q 1406 481 1766 481 
L 2356 481 
L 2356 0 
L 1766 0 
Q 1100 0 847 248 
Q 594 497 594 1153 
L 594 3053 
L 172 3053 
L 172 3500 
L 594 3500 
L 594 4494 
L 1172 4494 
z
" transform="scale(0.015625)"/>
     </defs>
     <use xlink:href="#DejaVuSans-41"/>
     <use xlink:href="#DejaVuSans-67" transform="translate(68.408203 0)"/>
     <use xlink:href="#DejaVuSans-67" transform="translate(131.884766 0)"/>
     <use xlink:href="#DejaVuSans-72" transform="translate(195.361328 0)"/>
     <use xlink:href="#DejaVuSans-65" transform="translate(234.224609 0)"/>
     <use xlink:href="#DejaVuSans-67" transform="translate(295.748047 0)"/>
     <use xlink:href="#DejaVuSans-61" transform="translate(359.224609 0)"/>
     <use xlink:href="#DejaVuSans-74" transform="translate(420.503906 0)"/>
     <use xlink:href="#DejaVuSans-69" transform="translate(459.712891 0)"/>
     <use xlink:href="#DejaVuSans-6f" transform="translate(487.496094 0)"/>
     <use xlink:href="#DejaVuSans-6e" transform="translate(548.677734 0)"/>
    </g>
   </g>
   <g id="text_11">
    <!-- MATTER -->
    <g style="fill: #2c3e50" transform="translate(257.210625 323.150913) scale(0.12 -0.12)">
     <use xlink:href="#DejaVuSans-Bold-4d"/>
     <use xlink:href="#DejaVuSans-Bold-41" transform="translate(99.511719 0)"/>
     <use xlink:href="#DejaVuSans-Bold-54" transform="translate(169.154297 0)"/>
     <use xlink:href="#DejaVuSans-Bold-54" transform="translate(239.617188 0)"/>
     <use xlink:href="#DejaVuSans-Bold-45" transform="translate(307.830078 0)"/>
     <use xlink:href="#DejaVuSans-Bold-52" transform="translate(376.140625 0)"/>
    </g>
    <!-- (Phases) -->
    <g style="fill: #2c3e50" transform="translate(254.985937 336.588288) scale(0.12 -0.12)">
     <use xlink:href="#DejaVuSans-Bold-28"/>
     <use xlink:href="#DejaVuSans-Bold-50" transform="translate(45.703125 0)"/>
     <use xlink:href="#DejaVuSans-Bold-68" transform="translate(118.994141 0)"/>
     <use xlink:href="#DejaVuSans-Bold-61" transform="translate(190.185547 0)"/>
     <use xlink:href="#DejaVuSans-Bold-73" transform="translate(257.666016 0)"/>
     <use xlink:href="#DejaVuSans-Bold-65" transform="translate(317.1875 0)"/>
     <use xlink:href="#DejaVuSans-Bold-73" transform="translate(385.009766 0)"/>
     <use xlink:href="#DejaVuSans-Bold-29" transform="translate(444.53125 0)"/>
    </g>
   </g>
   <g id="patch_19">
    <path d="M 284.4 347.966839 
Q 284.4 352.43642 284.4 355.228949 
" style="fill: none; stroke: #f39c12; stroke-width: 1.5; stroke-linecap: round"/>
    <path d="M 286.4 351.228949 
L 284.4 355.228949 
L 282.4 351.228949 
" style="fill: none; stroke: #f39c12; stroke-width: 1.5; stroke-linecap: round"/>
   </g>
   <g id="text_12">
    <!-- Accretion -->
    <g style="fill: #95a5a6" transform="translate(303.804 354.644313) scale(0.08 -0.08)">
     <defs>
      <path id="DejaVuSans-63" d="M 3122 3366 
L 3122 2828 
Q 2878 2963 2633 3030 
Q 2388 3097 2138 3097 
Q 1578 3097 1268 2742 
Q 959 2388 959 1747 
Q 959 1106 1268 751 
Q 1578 397 2138 397 
Q 2388 397 2633 464 
Q 2878 531 3122 666 
L 3122 134 
Q 2881 22 2623 -34 
Q 2366 -91 2075 -91 
Q 1284 -91 818 406 
Q 353 903 353 1747 
Q 353 2603 823 3093 
Q 1294 3584 2113 3584 
Q 2378 3584 2631 3529 
Q 2884 3475 3122 3366 
z
" transform="scale(0.015625)"/>
     </defs>
     <use xlink:href="#DejaVuSans-41"/>
     <use xlink:href="#DejaVuSans-63" transform="translate(66.658203 0)"/>
     <use xlink:href="#DejaVuSans-63" transform="translate(121.638672 0)"/>
     <use xlink:href="#DejaVuSans-72" transform="translate(176.619141 0)"/>
     <use xlink:href="#DejaVuSans-65" transform="translate(215.482422 0)"/>
     <use xlink:href="#DejaVuSans-74" transform="translate(277.005859 0)"/>
     <use xlink:href="#DejaVuSans-69" transform="translate(316.214844 0)"/>
     <use xlink:href="#DejaVuSans-6f" transform="translate(343.998047 0)"/>
     <use xlink:href="#DejaVuSans-6e" transform="translate(405.179688 0)"/>
    </g>
   </g>
   <g id="text_13">
    <!-- PLANETS -->
    <g style="fill: #2c3e50" transform="translate(254.001562 374.860962) scale(0.12 -0.12)">
     <use xlink:href="#DejaVuSans-Bold-50"/>
     <use xlink:href="#DejaVuSans-Bold-4c" transform="translate(73.291016 0)"/>
     <use xlink:href="#DejaVuSans-Bold-41" transform="translate(137.011719 0)"/>
     <use xlink:href="#DejaVuSans-Bold-4e" transform="translate(214.404297 0)"/>
     <use xlink:href="#DejaVuSans-Bold-45" transform="translate(298.095703 0)"/>
     <use xlink:href="#DejaVuSans-Bold-54" transform="translate(366.40625 0)"/>
     <use xlink:href="#DejaVuSans-Bold-53" transform="translate(434.619141 0)"/>
    </g>
    <!-- (Geology) -->
    <g style="fill: #2c3e50" transform="translate(251.414062 388.298337) scale(0.12 -0.12)">
     <defs>
      <path id="DejaVuSans-Bold-47" d="M 4781 347 
Q 4331 128 3847 18 
Q 3363 -91 2847 -91 
Q 1681 -91 1000 561 
Q 319 1213 319 2328 
Q 319 3456 1012 4103 
Q 1706 4750 2913 4750 
Q 3378 4750 3804 4662 
Q 4231 4575 4609 4403 
L 4609 3438 
Q 4219 3659 3833 3768 
Q 3447 3878 3059 3878 
Q 2341 3878 1952 3476 
Q 1563 3075 1563 2328 
Q 1563 1588 1938 1184 
Q 2313 781 3003 781 
Q 3191 781 3352 804 
Q 3513 828 3641 878 
L 3641 1784 
L 2906 1784 
L 2906 2591 
L 4781 2591 
L 4781 347 
z
" transform="scale(0.015625)"/>
      <path id="DejaVuSans-Bold-67" d="M 2919 594 
Q 2688 288 2409 144 
Q 2131 0 1766 0 
Q 1125 0 706 504 
Q 288 1009 288 1791 
Q 288 2575 706 3076 
Q 1125 3578 1766 3578 
Q 2131 3578 2409 3434 
Q 2688 3291 2919 2981 
L 2919 3500 
L 4044 3500 
L 4044 353 
Q 4044 -491 3511 -936 
Q 2978 -1381 1966 -1381 
Q 1638 -1381 1331 -1331 
Q 1025 -1281 716 -1178 
L 716 -306 
Q 1009 -475 1290 -558 
Q 1572 -641 1856 -641 
Q 2406 -641 2662 -400 
Q 2919 -159 2919 353 
L 2919 594 
z
M 2181 2772 
Q 1834 2772 1640 2515 
Q 1447 2259 1447 1791 
Q 1447 1309 1634 1061 
Q 1822 813 2181 813 
Q 2531 813 2725 1069 
Q 2919 1325 2919 1791 
Q 2919 2259 2725 2515 
Q 2531 2772 2181 2772 
z
" transform="scale(0.015625)"/>
     </defs>
     <use xlink:href="#DejaVuSans-Bold-28"/>
     <use xlink:href="#DejaVuSans-Bold-47" transform="translate(45.703125 0)"/>
     <use xlink:href="#DejaVuSans-Bold-65" transform="translate(127.783203 0)"/>
     <use xlink:href="#DejaVuSans-Bold-6f" transform="translate(195.605469 0)"/>
     <use xlink:href="#DejaVuSans-Bold-6c" transform="translate(264.306641 0)"/>
     <use xlink:href="#DejaVuSans-Bold-6f" transform="translate(298.583984 0)"/>
     <use xlink:href="#DejaVuSans-Bold-67" transform="translate(367.285156 0)"/>
     <use xlink:href="#DejaVuSans-Bold-79" transform="translate(438.867188 0)"/>
     <use xlink:href="#DejaVuSans-Bold-29" transform="translate(504.052734 0)"/>
    </g>
   </g>
   <g id="patch_20">
    <path d="M 284.4 399.723762 
Q 284.4 404.193343 284.4 406.985872 
" style="fill: none; stroke: #f39c12; stroke-width: 1.5; stroke-linecap: round"/>
    <path d="M 286.4 402.985872 
L 284.4 406.985872 
L 282.4 402.985872 
" style="fill: none; stroke: #f39c12; stroke-width: 1.5; stroke-linecap: round"/>
   </g>
   <g id="text_14">
    <!-- Ignition -->
    <g style="fill: #95a5a6" transform="translate(303.804 406.401236) scale(0.08 -0.08)">
     <defs>
      <path id="DejaVuSans-49" d="M 628 4666 
L 1259 4666 
L 1259 0 
L 628 0 
L 628 4666 
z
" transform="scale(0.015625)"/>
     </defs>
     <use xlink:href="#DejaVuSans-49"/>
     <use xlink:href="#DejaVuSans-67" transform="translate(29.492188 0)"/>
     <use xlink:href="#DejaVuSans-6e" transform="translate(92.96875 0)"/>
     <use xlink:href="#DejaVuSans-69" transform="translate(156.347656 0)"/>
     <use xlink:href="#DejaVuSans-74" transform="translate(184.130859 0)"/>
     <use xlink:href="#DejaVuSans-69" transform="translate(223.339844 0)"/>
     <use xlink:href="#DejaVuSans-6f" transform="translate(251.123047 0)"/>
     <use xlink:href="#DejaVuSans-6e" transform="translate(312.304688 0)"/>
    </g>
   </g>
   <g id="text_15">
    <!-- STARS -->
    <g style="fill: #2c3e50" transform="translate(262.866562 426.617885) scale(0.12 -0.12)">
     <use xlink:href="#DejaVuSans-Bold-53"/>
     <use xlink:href="#DejaVuSans-Bold-54" transform="translate(72.021484 0)"/>
     <use xlink:href="#DejaVuSans-Bold-41" transform="translate(132.484375 0)"/>
     <use xlink:href="#DejaVuSans-Bold-52" transform="translate(209.876953 0)"/>
     <use xlink:href="#DejaVuSans-Bold-53" transform="translate(286.878906 0)"/>
    </g>
    <!-- (Nucleosynthesis) -->
    <g style="fill: #2c3e50" transform="translate(223.656562 440.05526) scale(0.12 -0.12)">
     <defs>
      <path id="DejaVuSans-Bold-75" d="M 500 1363 
L 500 3500 
L 1625 3500 
L 1625 3150 
Q 1625 2866 1622 2436 
Q 1619 2006 1619 1863 
Q 1619 1441 1641 1255 
Q 1663 1069 1716 984 
Q 1784 875 1895 815 
Q 2006 756 2150 756 
Q 2500 756 2700 1025 
Q 2900 1294 2900 1772 
L 2900 3500 
L 4019 3500 
L 4019 0 
L 2900 0 
L 2900 506 
Q 2647 200 2364 54 
Q 2081 -91 1741 -91 
Q 1134 -91 817 281 
Q 500 653 500 1363 
z
" transform="scale(0.015625)"/>
      <path id="DejaVuSans-Bold-6e" d="M 4056 2131 
L 4056 0 
L 2931 0 
L 2931 347 
L 2931 1631 
Q 2931 2084 2911 2256 
Q 2891 2428 2841 2509 
Q 2775 2619 2662 2680 
Q 2550 2741 2406 2741 
Q 2056 2741 1856 2470 
Q 1656 2200 1656 1722 
L 1656 0 
L 538 0 
L 538 3500 
L 1656 3500 
L 1656 2988 
Q 1909 3294 2193 3439 
Q 2478 3584 2822 3584 
Q 3428 3584 3742 3212 
Q 4056 2841 4056 2131 
z
" transform="scale(0.015625)"/>
     </defs>
     <use xlink:href="#DejaVuSans-Bold-28"/>
     <use xlink:href="#DejaVuSans-Bold-4e" transform="translate(45.703125 0)"/>
     <use xlink:href="#DejaVuSans-Bold-75" transform="translate(129.394531 0)"/>
     <use xlink:href="#DejaVuSans-Bold-63" transform="translate(200.585938 0)"/>
     <use xlink:href="#DejaVuSans-Bold-6c" transform="translate(259.863281 0)"/>
     <use xlink:href="#DejaVuSans-Bold-65" transform="translate(294.140625 0)"/>
     <use xlink:href="#DejaVuSans-Bold-6f" transform="translate(361.962891 0)"/>
     <use xlink:href="#DejaVuSans-Bold-73" transform="translate(430.664062 0)"/>
     <use xlink:href="#DejaVuSans-Bold-79" transform="translate(490.185547 0)"/>
     <use xlink:href="#DejaVuSans-Bold-6e" transform="translate(555.371094 0)"/>
     <use xlink:href="#DejaVuSans-Bold-74" transform="translate(626.5625 0)"/>
     <use xlink:href="#DejaVuSans-Bold-68" transform="translate(674.365234 0)"/>
     <use xlink:href="#DejaVuSans-Bold-65" transform="translate(745.556641 0)"/>
     <use xlink:href="#DejaVuSans-Bold-73" transform="translate(813.378906 0)"/>
     <use xlink:href="#DejaVuSans-Bold-69" transform="translate(872.900391 0)"/>
     <use xlink:href="#DejaVuSans-Bold-73" transform="translate(907.177734 0)"/>
     <use xlink:href="#DejaVuSans-Bold-29" transform="translate(966.699219 0)"/>
    </g>
   </g>
   <g id="patch_21">
    <path d="M 284.4 451.480685 
Q 284.4 455.950266 284.4 458.742795 
" style="fill: none; stroke: #f39c12; stroke-width: 1.5; stroke-linecap: round"/>
    <path d="M 286.4 454.742795 
L 284.4 458.742795 
L 282.4 454.742795 
" style="fill: none; stroke: #f39c12; stroke-width: 1.5; stroke-linecap: round"/>
   </g>
   <g id="text_16">
    <!-- Assembly -->
    <g style="fill: #95a5a6" transform="translate(303.804 458.158159) scale(0.08 -0.08)">
     <use xlink:href="#DejaVuSans-41"/>
     <use xlink:href="#DejaVuSans-73" transform="translate(68.408203 0)"/>
     <use xlink:href="#DejaVuSans-73" transform="translate(120.507812 0)"/>
     <use xlink:href="#DejaVuSans-65" transform="translate(172.607422 0)"/>
     <use xlink:href="#DejaVuSans-6d" transform="translate(234.130859 0)"/>
     <use xlink:href="#DejaVuSans-62" transform="translate(331.542969 0)"/>
     <use xlink:href="#DejaVuSans-6c" transform="translate(395.019531 0)"/>
     <use xlink:href="#DejaVuSans-79" transform="translate(422.802734 0)"/>
    </g>
   </g>
   <g id="text_17">
    <!-- GALAXIES -->
    <g style="fill: #2c3e50" transform="translate(251.087812 478.374808) scale(0.12 -0.12)">
     <defs>
      <path id="DejaVuSans-Bold-58" d="M 3188 2381 
L 4806 0 
L 3553 0 
L 2463 1594 
L 1381 0 
L 122 0 
L 1741 2381 
L 184 4666 
L 1441 4666 
L 2463 3163 
L 3481 4666 
L 4744 4666 
L 3188 2381 
z
" transform="scale(0.015625)"/>
     </defs>
     <use xlink:href="#DejaVuSans-Bold-47"/>
     <use xlink:href="#DejaVuSans-Bold-41" transform="translate(82.080078 0)"/>
     <use xlink:href="#DejaVuSans-Bold-4c" transform="translate(159.472656 0)"/>
     <use xlink:href="#DejaVuSans-Bold-41" transform="translate(223.193359 0)"/>
     <use xlink:href="#DejaVuSans-Bold-58" transform="translate(300.585938 0)"/>
     <use xlink:href="#DejaVuSans-Bold-49" transform="translate(377.685547 0)"/>
     <use xlink:href="#DejaVuSans-Bold-45" transform="translate(414.892578 0)"/>
     <use xlink:href="#DejaVuSans-Bold-53" transform="translate(483.203125 0)"/>
    </g>
    <!-- (Dynamics) -->
    <g style="fill: #2c3e50" transform="translate(246.26625 491.812183) scale(0.12 -0.12)">
     <use xlink:href="#DejaVuSans-Bold-28"/>
     <use xlink:href="#DejaVuSans-Bold-44" transform="translate(45.703125 0)"/>
     <use xlink:href="#DejaVuSans-Bold-79" transform="translate(128.710938 0)"/>
     <use xlink:href="#DejaVuSans-Bold-6e" transform="translate(193.896484 0)"/>
     <use xlink:href="#DejaVuSans-Bold-61" transform="translate(265.087891 0)"/>
     <use xlink:href="#DejaVuSans-Bold-6d" transform="translate(332.568359 0)"/>
     <use xlink:href="#DejaVuSans-Bold-69" transform="translate(436.767578 0)"/>
     <use xlink:href="#DejaVuSans-Bold-63" transform="translate(471.044922 0)"/>
     <use xlink:href="#DejaVuSans-Bold-73" transform="translate(530.322266 0)"/>
     <use xlink:href="#DejaVuSans-Bold-29" transform="translate(589.84375 0)"/>
    </g>
   </g>
   <g id="patch_22">
    <path d="M 284.4 503.237608 
Q 284.4 507.707189 284.4 510.499718 
" style="fill: none; stroke: #f39c12; stroke-width: 1.5; stroke-linecap: round"/>
    <path d="M 286.4 506.499718 
L 284.4 510.499718 
L 282.4 506.499718 
" style="fill: none; stroke: #f39c12; stroke-width: 1.5; stroke-linecap: round"/>
   </g>
   <g id="text_18">
    <!-- Clustering -->
    <g style="fill: #95a5a6" transform="translate(303.804 509.915082) scale(0.08 -0.08)">
     <defs>
      <path id="DejaVuSans-43" d="M 4122 4306 
L 4122 3641 
Q 3803 3938 3442 4084 
Q 3081 4231 2675 4231 
Q 1875 4231 1450 3742 
Q 1025 3253 1025 2328 
Q 1025 1406 1450 917 
Q 1875 428 2675 428 
Q 3081 428 3442 575 
Q 3803 722 4122 1019 
L 4122 359 
Q 3791 134 3420 21 
Q 3050 -91 2638 -91 
Q 1578 -91 968 557 
Q 359 1206 359 2328 
Q 359 3453 968 4101 
Q 1578 4750 2638 4750 
Q 3056 4750 3426 4639 
Q 3797 4528 4122 4306 
z
" transform="scale(0.015625)"/>
      <path id="DejaVuSans-75" d="M 544 1381 
L 544 3500 
L 1119 3500 
L 1119 1403 
Q 1119 906 1312 657 
Q 1506 409 1894 409 
Q 2359 409 2629 706 
Q 2900 1003 2900 1516 
L 2900 3500 
L 3475 3500 
L 3475 0 
L 2900 0 
L 2900 538 
Q 2691 219 2414 64 
Q 2138 -91 1772 -91 
Q 1169 -91 856 284 
Q 544 659 544 1381 
z
M 1991 3584 
L 1991 3584 
z
" transform="scale(0.015625)"/>
     </defs>
     <use xlink:href="#DejaVuSans-43"/>
     <use xlink:href="#DejaVuSans-6c" transform="translate(69.824219 0)"/>
     <use xlink:href="#DejaVuSans-75" transform="translate(97.607422 0)"/>
     <use xlink:href="#DejaVuSans-73" transform="translate(160.986328 0)"/>
     <use xlink:href="#DejaVuSans-74" transform="translate(213.085938 0)"/>
     <use xlink:href="#DejaVuSans-65" transform="translate(252.294922 0)"/>
     <use xlink:href="#DejaVuSans-72" transform="translate(313.818359 0)"/>
     <use xlink:href="#DejaVuSans-69" transform="translate(354.931641 0)"/>
     <use xlink:href="#DejaVuSans-6e" transform="translate(382.714844 0)"/>
     <use xlink:href="#DejaVuSans-67" transform="translate(446.09375 0)"/>
    </g>
   </g>
   <g id="text_19">
    <!-- COSMOS -->
    <g style="fill: #2c3e50" transform="translate(255.181875 530.131731) scale(0.12 -0.12)">
     <use xlink:href="#DejaVuSans-Bold-43"/>
     <use xlink:href="#DejaVuSans-Bold-4f" transform="translate(73.388672 0)"/>
     <use xlink:href="#DejaVuSans-Bold-53" transform="translate(158.398438 0)"/>
     <use xlink:href="#DejaVuSans-Bold-4d" transform="translate(230.419922 0)"/>
     <use xlink:href="#DejaVuSans-Bold-4f" transform="translate(329.931641 0)"/>
     <use xlink:href="#DejaVuSans-Bold-53" transform="translate(414.941406 0)"/>
    </g>
    <!-- (Large-Scale Structure) -->
    <g style="fill: #2c3e50" transform="translate(204.945 543.569106) scale(0.12 -0.12)">
     <defs>
      <path id="DejaVuSans-Bold-2d" d="M 347 2297 
L 2309 2297 
L 2309 1388 
L 347 1388 
L 347 2297 
z
" transform="scale(0.015625)"/>
     </defs>
     <use xlink:href="#DejaVuSans-Bold-28"/>
     <use xlink:href="#DejaVuSans-Bold-4c" transform="translate(45.703125 0)"/>
     <use xlink:href="#DejaVuSans-Bold-61" transform="translate(109.423828 0)"/>
     <use xlink:href="#DejaVuSans-Bold-72" transform="translate(176.904297 0)"/>
     <use xlink:href="#DejaVuSans-Bold-67" transform="translate(226.220703 0)"/>
     <use xlink:href="#DejaVuSans-Bold-65" transform="translate(297.802734 0)"/>
     <use xlink:href="#DejaVuSans-Bold-2d" transform="translate(365.625 0)"/>
     <use xlink:href="#DejaVuSans-Bold-53" transform="translate(407.128906 0)"/>
     <use xlink:href="#DejaVuSans-Bold-63" transform="translate(479.150391 0)"/>
     <use xlink:href="#DejaVuSans-Bold-61" transform="translate(538.427734 0)"/>
     <use xlink:href="#DejaVuSans-Bold-6c" transform="translate(605.908203 0)"/>
     <use xlink:href="#DejaVuSans-Bold-65" transform="translate(640.185547 0)"/>
     <use xlink:href="#DejaVuSans-Bold-20" transform="translate(708.007812 0)"/>
     <use xlink:href="#DejaVuSans-Bold-53" transform="translate(742.822266 0)"/>
     <use xlink:href="#DejaVuSans-Bold-74" transform="translate(814.84375 0)"/>
     <use xlink:href="#DejaVuSans-Bold-72" transform="translate(862.646484 0)"/>
     <use xlink:href="#DejaVuSans-Bold-75" transform="translate(911.962891 0)"/>
     <use xlink:href="#DejaVuSans-Bold-63" transform="translate(983.154297 0)"/>
     <use xlink:href="#DejaVuSans-Bold-74" transform="translate(1042.431641 0)"/>
     <use xlink:href="#DejaVuSans-Bold-75" transform="translate(1090.234375 0)"/>
     <use xlink:href="#DejaVuSans-Bold-72" transform="translate(1161.425781 0)"/>
     <use xlink:href="#DejaVuSans-Bold-65" transform="translate(1210.742188 0)"/>
     <use xlink:href="#DejaVuSans-Bold-29" transform="translate(1278.564453 0)"/>
    </g>
   </g>
   <g id="patch_23">
    <path d="M 284.4 554.994531 
Q 284.4 559.464112 284.4 562.256641 
" style="fill: none; stroke: #f39c12; stroke-width: 1.5; stroke-linecap: round"/>
    <path d="M 286.4 558.256641 
L 284.4 562.256641 
L 282.4 558.256641 
" style="fill: none; stroke: #f39c12; stroke-width: 1.5; stroke-linecap: round"/>
   </g>
   <g id="text_20">
    <!-- Evolution -->
    <g style="fill: #95a5a6" transform="translate(303.804 561.672005) scale(0.08 -0.08)">
     <defs>
      <path id="DejaVuSans-45" d="M 628 4666 
L 3578 4666 
L 3578 4134 
L 1259 4134 
L 1259 2753 
L 3481 2753 
L 3481 2222 
L 1259 2222 
L 1259 531 
L 3634 531 
L 3634 0 
L 628 0 
L 628 4666 
z
" transform="scale(0.015625)"/>
      <path id="DejaVuSans-76" d="M 191 3500 
L 800 3500 
L 1894 563 
L 2988 3500 
L 3597 3500 
L 2284 0 
L 1503 0 
L 191 3500 
z
" transform="scale(0.015625)"/>
     </defs>
     <use xlink:href="#DejaVuSans-45"/>
     <use xlink:href="#DejaVuSans-76" transform="translate(63.183594 0)"/>
     <use xlink:href="#DejaVuSans-6f" transform="translate(122.363281 0)"/>
     <use xlink:href="#DejaVuSans-6c" transform="translate(183.544922 0)"/>
     <use xlink:href="#DejaVuSans-75" transform="translate(211.328125 0)"/>
     <use xlink:href="#DejaVuSans-74" transform="translate(274.707031 0)"/>
     <use xlink:href="#DejaVuSans-69" transform="translate(313.916016 0)"/>
     <use xlink:href="#DejaVuSans-6f" transform="translate(341.699219 0)"/>
     <use xlink:href="#DejaVuSans-6e" transform="translate(402.880859 0)"/>
    </g>
   </g>
   <g id="text_21">
    <!-- COMPLEXITY -->
    <g style="fill: #2c3e50" transform="translate(241.309687 581.888654) scale(0.12 -0.12)">
     <defs>
      <path id="DejaVuSans-Bold-59" d="M -63 4666 
L 1253 4666 
L 2316 3003 
L 3378 4666 
L 4697 4666 
L 2919 1966 
L 2919 0 
L 1716 0 
L 1716 1966 
L -63 4666 
z
" transform="scale(0.015625)"/>
     </defs>
     <use xlink:href="#DejaVuSans-Bold-43"/>
     <use xlink:href="#DejaVuSans-Bold-4f" transform="translate(73.388672 0)"/>
     <use xlink:href="#DejaVuSans-Bold-4d" transform="translate(158.398438 0)"/>
     <use xlink:href="#DejaVuSans-Bold-50" transform="translate(257.910156 0)"/>
     <use xlink:href="#DejaVuSans-Bold-4c" transform="translate(331.201172 0)"/>
     <use xlink:href="#DejaVuSans-Bold-45" transform="translate(394.921875 0)"/>
     <use xlink:href="#DejaVuSans-Bold-58" transform="translate(463.232422 0)"/>
     <use xlink:href="#DejaVuSans-Bold-49" transform="translate(540.332031 0)"/>
     <use xlink:href="#DejaVuSans-Bold-54" transform="translate(577.539062 0)"/>
     <use xlink:href="#DejaVuSans-Bold-59" transform="translate(645.751953 0)"/>
    </g>
    <!-- (Emergence) -->
    <g style="fill: #2c3e50" transform="translate(241.274062 595.326029) scale(0.12 -0.12)">
     <use xlink:href="#DejaVuSans-Bold-28"/>
     <use xlink:href="#DejaVuSans-Bold-45" transform="translate(45.703125 0)"/>
     <use xlink:href="#DejaVuSans-Bold-6d" transform="translate(114.013672 0)"/>
     <use xlink:href="#DejaVuSans-Bold-65" transform="translate(218.212891 0)"/>
     <use xlink:href="#DejaVuSans-Bold-72" transform="translate(286.035156 0)"/>
     <use xlink:href="#DejaVuSans-Bold-67" transform="translate(335.351562 0)"/>
     <use xlink:href="#DejaVuSans-Bold-65" transform="translate(406.933594 0)"/>
     <use xlink:href="#DejaVuSans-Bold-6e" transform="translate(474.755859 0)"/>
     <use xlink:href="#DejaVuSans-Bold-63" transform="translate(545.947266 0)"/>
     <use xlink:href="#DejaVuSans-Bold-65" transform="translate(605.224609 0)"/>
     <use xlink:href="#DejaVuSans-Bold-29" transform="translate(673.046875 0)"/>
    </g>
   </g>
   <g id="patch_24">
    <path d="M 284.4 606.751454 
Q 284.4 611.221035 284.4 614.013565 
" style="fill: none; stroke: #f39c12; stroke-width: 1.5; stroke-linecap: round"/>
    <path d="M 286.4 610.013565 
L 284.4 614.013565 
L 282.4 610.013565 
" style="fill: none; stroke: #f39c12; stroke-width: 1.5; stroke-linecap: round"/>
   </g>
   <g id="text_22">
    <!-- Return -->
    <g style="fill: #95a5a6" transform="translate(303.804 613.428928) scale(0.08 -0.08)">
     <defs>
      <path id="DejaVuSans-52" d="M 2841 2188 
Q 3044 2119 3236 1894 
Q 3428 1669 3622 1275 
L 4263 0 
L 3584 0 
L 2988 1197 
Q 2756 1666 2539 1819 
Q 2322 1972 1947 1972 
L 1259 1972 
L 1259 0 
L 628 0 
L 628 4666 
L 2053 4666 
Q 2853 4666 3247 4331 
Q 3641 3997 3641 3322 
Q 3641 2881 3436 2590 
Q 3231 2300 2841 2188 
z
M 1259 4147 
L 1259 2491 
L 2053 2491 
Q 2509 2491 2742 2702 
Q 2975 2913 2975 3322 
Q 2975 3731 2742 3939 
Q 2509 4147 2053 4147 
L 1259 4147 
z
" transform="scale(0.015625)"/>
     </defs>
     <use xlink:href="#DejaVuSans-52"/>
     <use xlink:href="#DejaVuSans-65" transform="translate(64.982422 0)"/>
     <use xlink:href="#DejaVuSans-74" transform="translate(126.505859 0)"/>
     <use xlink:href="#DejaVuSans-75" transform="translate(165.714844 0)"/>
     <use xlink:href="#DejaVuSans-72" transform="translate(229.09375 0)"/>
     <use xlink:href="#DejaVuSans-6e" transform="translate(268.457031 0)"/>
    </g>
   </g>
   <g id="text_23">
    <!-- VOID -->
    <g style="fill: #2c3e50" transform="translate(267.5475 633.692452) scale(0.12 -0.12)">
     <use xlink:href="#DejaVuSans-Bold-56"/>
     <use xlink:href="#DejaVuSans-Bold-4f" transform="translate(75.642578 0)"/>
     <use xlink:href="#DejaVuSans-Bold-49" transform="translate(160.652344 0)"/>
     <use xlink:href="#DejaVuSans-Bold-44" transform="translate(197.859375 0)"/>
    </g>
    <!-- (Heat Death) -->
    <g style="fill: #2c3e50" transform="translate(240.580312 647.129827) scale(0.12 -0.12)">
     <defs>
      <path id="DejaVuSans-Bold-48" d="M 588 4666 
L 1791 4666 
L 1791 2888 
L 3566 2888 
L 3566 4666 
L 4769 4666 
L 4769 0 
L 3566 0 
L 3566 1978 
L 1791 1978 
L 1791 0 
L 588 0 
L 588 4666 
z
" transform="scale(0.015625)"/>
     </defs>
     <use xlink:href="#DejaVuSans-Bold-28"/>
     <use xlink:href="#DejaVuSans-Bold-48" transform="translate(45.703125 0)"/>
     <use xlink:href="#DejaVuSans-Bold-65" transform="translate(129.394531 0)"/>
     <use xlink:href="#DejaVuSans-Bold-61" transform="translate(197.216797 0)"/>
     <use xlink:href="#DejaVuSans-Bold-74" transform="translate(264.697266 0)"/>
     <use xlink:href="#DejaVuSans-Bold-20" transform="translate(312.5 0)"/>
     <use xlink:href="#DejaVuSans-Bold-44" transform="translate(347.314453 0)"/>
     <use xlink:href="#DejaVuSans-Bold-65" transform="translate(430.322266 0)"/>
     <use xlink:href="#DejaVuSans-Bold-61" transform="translate(498.144531 0)"/>
     <use xlink:href="#DejaVuSans-Bold-74" transform="translate(565.625 0)"/>
     <use xlink:href="#DejaVuSans-Bold-68" transform="translate(613.427734 0)"/>
     <use xlink:href="#DejaVuSans-Bold-29" transform="translate(684.619141 0)"/>
    </g>
   </g>
   <g id="text_24">
    <!-- From potential → structure → cosmos → return -->
    <g style="fill: #95a5a6" transform="translate(168.372656 690.150736) scale(0.1 -0.1)">
     <defs>
      <path id="DejaVuSans-Oblique-46" d="M 1081 4666 
L 3756 4666 
L 3653 4134 
L 1606 4134 
L 1338 2759 
L 3188 2759 
L 3084 2228 
L 1234 2228 
L 800 0 
L 172 0 
L 1081 4666 
z
" transform="scale(0.015625)"/>
      <path id="DejaVuSans-Oblique-72" d="M 2853 2969 
Q 2766 3016 2653 3041 
Q 2541 3066 2413 3066 
Q 1953 3066 1609 2717 
Q 1266 2369 1153 1784 
L 800 0 
L 225 0 
L 909 3500 
L 1484 3500 
L 1375 2956 
Q 1603 3259 1920 3421 
Q 2238 3584 2597 3584 
Q 2691 3584 2781 3573 
Q 2872 3563 2963 3538 
L 2853 2969 
z
" transform="scale(0.015625)"/>
      <path id="DejaVuSans-Oblique-6f" d="M 1625 -91 
Q 1009 -91 651 289 
Q 294 669 294 1325 
Q 294 1706 417 2101 
Q 541 2497 738 2766 
Q 1047 3184 1428 3384 
Q 1809 3584 2291 3584 
Q 2888 3584 3255 3212 
Q 3622 2841 3622 2241 
Q 3622 1825 3500 1412 
Q 3378 1000 3181 728 
Q 2875 309 2494 109 
Q 2113 -91 1625 -91 
z
M 891 1344 
Q 891 869 1089 633 
Q 1288 397 1691 397 
Q 2269 397 2648 901 
Q 3028 1406 3028 2181 
Q 3028 2634 2825 2865 
Q 2622 3097 2228 3097 
Q 1903 3097 1650 2945 
Q 1397 2794 1197 2484 
Q 1050 2253 970 1956 
Q 891 1659 891 1344 
z
" transform="scale(0.015625)"/>
      <path id="DejaVuSans-Oblique-6d" d="M 5747 2113 
L 5338 0 
L 4763 0 
L 5166 2094 
Q 5191 2228 5203 2325 
Q 5216 2422 5216 2491 
Q 5216 2772 5059 2928 
Q 4903 3084 4622 3084 
Q 4203 3084 3875 2770 
Q 3547 2456 3450 1953 
L 3066 0 
L 2491 0 
L 2900 2094 
Q 2925 2209 2937 2307 
Q 2950 2406 2950 2484 
Q 2950 2769 2794 2926 
Q 2638 3084 2363 3084 
Q 1938 3084 1609 2770 
Q 1281 2456 1184 1953 
L 800 0 
L 225 0 
L 909 3500 
L 1484 3500 
L 1375 2956 
Q 1609 3263 1923 3423 
Q 2238 3584 2597 3584 
Q 2978 3584 3223 3384 
Q 3469 3184 3519 2828 
Q 3781 3197 4126 3390 
Q 4472 3584 4856 3584 
Q 5306 3584 5551 3325 
Q 5797 3066 5797 2591 
Q 5797 2488 5784 2364 
Q 5772 2241 5747 2113 
z
" transform="scale(0.015625)"/>
      <path id="DejaVuSans-Oblique-20" transform="scale(0.015625)"/>
      <path id="DejaVuSans-Oblique-70" d="M 3175 2156 
Q 3175 2616 2975 2859 
Q 2775 3103 2400 3103 
Q 2144 3103 1911 2972 
Q 1678 2841 1497 2591 
Q 1319 2344 1212 1994 
Q 1106 1644 1106 1300 
Q 1106 863 1306 627 
Q 1506 391 1875 391 
Q 2147 391 2380 519 
Q 2613 647 2778 891 
Q 2956 1147 3065 1494 
Q 3175 1841 3175 2156 
z
M 1394 2969 
Q 1625 3272 1939 3428 
Q 2253 3584 2638 3584 
Q 3175 3584 3472 3232 
Q 3769 2881 3769 2247 
Q 3769 1728 3584 1258 
Q 3400 788 3053 416 
Q 2822 169 2531 39 
Q 2241 -91 1919 -91 
Q 1547 -91 1294 64 
Q 1041 219 916 525 
L 556 -1331 
L -19 -1331 
L 922 3500 
L 1497 3500 
L 1394 2969 
z
" transform="scale(0.015625)"/>
      <path id="DejaVuSans-Oblique-74" d="M 2706 3500 
L 2619 3053 
L 1472 3053 
L 1100 1153 
Q 1081 1047 1072 975 
Q 1063 903 1063 863 
Q 1063 663 1183 572 
Q 1303 481 1569 481 
L 2150 481 
L 2053 0 
L 1503 0 
Q 991 0 739 200 
Q 488 400 488 806 
Q 488 878 497 964 
Q 506 1050 525 1153 
L 897 3053 
L 409 3053 
L 500 3500 
L 978 3500 
L 1172 4494 
L 1747 4494 
L 1556 3500 
L 2706 3500 
z
" transform="scale(0.015625)"/>
      <path id="DejaVuSans-Oblique-65" d="M 3078 2063 
Q 3088 2113 3092 2166 
Q 3097 2219 3097 2272 
Q 3097 2653 2873 2875 
Q 2650 3097 2266 3097 
Q 1838 3097 1509 2826 
Q 1181 2556 1013 2059 
L 3078 2063 
z
M 3578 1613 
L 903 1613 
Q 884 1494 878 1425 
Q 872 1356 872 1306 
Q 872 872 1139 634 
Q 1406 397 1894 397 
Q 2269 397 2603 481 
Q 2938 566 3225 728 
L 3116 159 
Q 2806 34 2476 -28 
Q 2147 -91 1806 -91 
Q 1078 -91 686 257 
Q 294 606 294 1247 
Q 294 1794 489 2264 
Q 684 2734 1063 3103 
Q 1306 3334 1642 3459 
Q 1978 3584 2356 3584 
Q 2950 3584 3301 3228 
Q 3653 2872 3653 2272 
Q 3653 2128 3634 1964 
Q 3616 1800 3578 1613 
z
" transform="scale(0.015625)"/>
      <path id="DejaVuSans-Oblique-6e" d="M 3566 2113 
L 3156 0 
L 2578 0 
L 2988 2091 
Q 3016 2238 3031 2350 
Q 3047 2463 3047 2528 
Q 3047 2791 2881 2937 
Q 2716 3084 2419 3084 
Q 1956 3084 1622 2776 
Q 1288 2469 1184 1941 
L 800 0 
L 225 0 
L 903 3500 
L 1478 3500 
L 1363 2950 
Q 1603 3253 1940 3418 
Q 2278 3584 2650 3584 
Q 3113 3584 3367 3334 
Q 3622 3084 3622 2631 
Q 3622 2519 3608 2391 
Q 3594 2263 3566 2113 
z
" transform="scale(0.015625)"/>
      <path id="DejaVuSans-Oblique-69" d="M 1172 4863 
L 1747 4863 
L 1606 4134 
L 1031 4134 
L 1172 4863 
z
M 909 3500 
L 1484 3500 
L 800 0 
L 225 0 
L 909 3500 
z
" transform="scale(0.015625)"/>
      <path id="DejaVuSans-Oblique-61" d="M 3438 1997 
L 3047 0 
L 2472 0 
L 2578 531 
Q 2325 219 2001 64 
Q 1678 -91 1281 -91 
Q 834 -91 548 182 
Q 263 456 263 884 
Q 263 1497 752 1853 
Q 1241 2209 2100 2209 
L 2900 2209 
L 2931 2363 
Q 2938 2388 2941 2417 
Q 2944 2447 2944 2509 
Q 2944 2788 2717 2942 
Q 2491 3097 2081 3097 
Q 1800 3097 1504 3025 
Q 1209 2953 897 2809 
L 997 3341 
Q 1322 3463 1633 3523 
Q 1944 3584 2234 3584 
Q 2853 3584 3176 3315 
Q 3500 3047 3500 2534 
Q 3500 2431 3484 2292 
Q 3469 2153 3438 1997 
z
M 2816 1759 
L 2241 1759 
Q 1534 1759 1195 1570 
Q 856 1381 856 984 
Q 856 709 1029 553 
Q 1203 397 1509 397 
Q 1978 397 2328 733 
Q 2678 1069 2791 1631 
L 2816 1759 
z
" transform="scale(0.015625)"/>
      <path id="DejaVuSans-Oblique-6c" d="M 1172 4863 
L 1747 4863 
L 800 0 
L 225 0 
L 1172 4863 
z
" transform="scale(0.015625)"/>
      <path id="DejaVuSans-Oblique-2192" d="M 5050 2147 
L 5050 1866 
L 3822 638 
L 3447 1013 
L 4175 1741 
L 366 1741 
L 366 2272 
L 4175 2272 
L 3447 3000 
L 3822 3375 
L 5050 2147 
z
" transform="scale(0.015625)"/>
      <path id="DejaVuSans-Oblique-73" d="M 3200 3397 
L 3091 2853 
Q 2863 2978 2609 3040 
Q 2356 3103 2088 3103 
Q 1634 3103 1373 2948 
Q 1113 2794 1113 2528 
Q 1113 2219 1719 2053 
Q 1766 2041 1788 2034 
L 1972 1978 
Q 2547 1819 2739 1644 
Q 2931 1469 2931 1166 
Q 2931 609 2489 259 
Q 2047 -91 1331 -91 
Q 1053 -91 747 -37 
Q 441 16 72 128 
L 184 722 
Q 500 559 806 475 
Q 1113 391 1394 391 
Q 1816 391 2080 572 
Q 2344 753 2344 1031 
Q 2344 1331 1650 1516 
L 1591 1531 
L 1394 1581 
Q 956 1697 753 1886 
Q 550 2075 550 2369 
Q 550 2928 970 3256 
Q 1391 3584 2113 3584 
Q 2397 3584 2667 3537 
Q 2938 3491 3200 3397 
z
" transform="scale(0.015625)"/>
      <path id="DejaVuSans-Oblique-75" d="M 428 1388 
L 838 3500 
L 1416 3500 
L 1006 1409 
Q 975 1256 961 1147 
Q 947 1038 947 966 
Q 947 700 1109 554 
Q 1272 409 1569 409 
Q 2031 409 2368 721 
Q 2706 1034 2809 1563 
L 3194 3500 
L 3769 3500 
L 3091 0 
L 2516 0 
L 2631 550 
Q 2388 244 2052 76 
Q 1716 -91 1338 -91 
Q 878 -91 622 161 
Q 366 413 366 863 
Q 366 956 381 1097 
Q 397 1238 428 1388 
z
" transform="scale(0.015625)"/>
      <path id="DejaVuSans-Oblique-63" d="M 3431 3366 
L 3316 2797 
Q 3109 2947 2876 3022 
Q 2644 3097 2394 3097 
Q 2119 3097 1870 3000 
Q 1622 2903 1453 2725 
Q 1184 2453 1037 2087 
Q 891 1722 891 1331 
Q 891 859 1127 628 
Q 1363 397 1844 397 
Q 2081 397 2348 469 
Q 2616 541 2906 684 
L 2797 116 
Q 2547 13 2283 -39 
Q 2019 -91 1741 -91 
Q 1044 -91 669 257 
Q 294 606 294 1253 
Q 294 1797 489 2255 
Q 684 2713 1069 3078 
Q 1331 3328 1684 3456 
Q 2038 3584 2456 3584 
Q 2700 3584 2940 3529 
Q 3181 3475 3431 3366 
z
" transform="scale(0.015625)"/>
     </defs>
     <use xlink:href="#DejaVuSans-Oblique-46"/>
     <use xlink:href="#DejaVuSans-Oblique-72" transform="translate(57.519531 0)"/>
     <use xlink:href="#DejaVuSans-Oblique-6f" transform="translate(98.632812 0)"/>
     <use xlink:href="#DejaVuSans-Oblique-6d" transform="translate(159.814453 0)"/>
     <use xlink:href="#DejaVuSans-Oblique-20" transform="translate(257.226562 0)"/>
     <use xlink:href="#DejaVuSans-Oblique-70" transform="translate(289.013672 0)"/>
     <use xlink:href="#DejaVuSans-Oblique-6f" transform="translate(352.490234 0)"/>
     <use xlink:href="#DejaVuSans-Oblique-74" transform="translate(413.671875 0)"/>
     <use xlink:href="#DejaVuSans-Oblique-65" transform="translate(452.880859 0)"/>
     <use xlink:href="#DejaVuSans-Oblique-6e" transform="translate(514.404297 0)"/>
     <use xlink:href="#DejaVuSans-Oblique-74" transform="translate(577.783203 0)"/>
     <use xlink:href="#DejaVuSans-Oblique-69" transform="translate(616.992188 0)"/>
     <use xlink:href="#DejaVuSans-Oblique-61" transform="translate(644.775391 0)"/>
     <use xlink:href="#DejaVuSans-Oblique-6c" transform="translate(706.054688 0)"/>
     <use xlink:href="#DejaVuSans-Oblique-20" transform="translate(733.837891 0)"/>
     <use xlink:href="#DejaVuSans-Oblique-2192" transform="translate(765.625 0)"/>
     <use xlink:href="#DejaVuSans-Oblique-20" transform="translate(849.414062 0)"/>
     <use xlink:href="#DejaVuSans-Oblique-73" transform="translate(881.201172 0)"/>
     <use xlink:href="#DejaVuSans-Oblique-74" transform="translate(933.300781 0)"/>
     <use xlink:href="#DejaVuSans-Oblique-72" transform="translate(972.509766 0)"/>
     <use xlink:href="#DejaVuSans-Oblique-75" transform="translate(1013.623047 0)"/>
     <use xlink:href="#DejaVuSans-Oblique-63" transform="translate(1077.001953 0)"/>
     <use xlink:href="#DejaVuSans-Oblique-74" transform="translate(1131.982422 0)"/>
     <use xlink:href="#DejaVuSans-Oblique-75" transform="translate(1171.191406 0)"/>
     <use xlink:href="#DejaVuSans-Oblique-72" transform="translate(1234.570312 0)"/>
     <use xlink:href="#DejaVuSans-Oblique-65" transform="translate(1275.683594 0)"/>
     <use xlink:href="#DejaVuSans-Oblique-20" transform="translate(1337.207031 0)"/>
     <use xlink:href="#DejaVuSans-Oblique-2192" transform="translate(1368.994141 0)"/>
     <use xlink:href="#DejaVuSans-Oblique-20" transform="translate(1452.783203 0)"/>
     <use xlink:href="#DejaVuSans-Oblique-63" transform="translate(1484.570312 0)"/>
     <use xlink:href="#DejaVuSans-Oblique-6f" transform="translate(1539.550781 0)"/>
     <use xlink:href="#DejaVuSans-Oblique-73" transform="translate(1600.732422 0)"/>
     <use xlink:href="#DejaVuSans-Oblique-6d" transform="translate(1652.832031 0)"/>
     <use xlink:href="#DejaVuSans-Oblique-6f" transform="translate(1750.244141 0)"/>
     <use xlink:href="#DejaVuSans-Oblique-73" transform="translate(1811.425781 0)"/>
     <use xlink:href="#DejaVuSans-Oblique-20" transform="translate(1863.525391 0)"/>
     <use xlink:href="#DejaVuSans-Oblique-2192" transform="translate(1895.3125 0)"/>
     <use xlink:href="#DejaVuSans-Oblique-20" transform="translate(1979.101562 0)"/>
     <use xlink:href="#DejaVuSans-Oblique-72" transform="translate(2010.888672 0)"/>
     <use xlink:href="#DejaVuSans-Oblique-65" transform="translate(2052.001953 0)"/>
     <use xlink:href="#DejaVuSans-Oblique-74" transform="translate(2113.525391 0)"/>
     <use xlink:href="#DejaVuSans-Oblique-75" transform="translate(2152.734375 0)"/>
     <use xlink:href="#DejaVuSans-Oblique-72" transform="translate(2216.113281 0)"/>
     <use xlink:href="#DejaVuSans-Oblique-6e" transform="translate(2257.226562 0)"/>
    </g>
   </g>
   <g id="text_25">
    <!-- Hierarchy of Being in TRD -->
    <g transform="translate(194.077031 17.837813) scale(0.14 -0.14)">
     <defs>
      <path id="DejaVuSans-48" d="M 628 4666 
L 1259 4666 
L 1259 2753 
L 3553 2753 
L 3553 4666 
L 4184 4666 
L 4184 0 
L 3553 0 
L 3553 2222 
L 1259 2222 
L 1259 0 
L 628 0 
L 628 4666 
z
" transform="scale(0.015625)"/>
      <path id="DejaVuSans-68" d="M 3513 2113 
L 3513 0 
L 2938 0 
L 2938 2094 
Q 2938 2591 2744 2837 
Q 2550 3084 2163 3084 
Q 1697 3084 1428 2787 
Q 1159 2491 1159 1978 
L 1159 0 
L 581 0 
L 581 4863 
L 1159 4863 
L 1159 2956 
Q 1366 3272 1645 3428 
Q 1925 3584 2291 3584 
Q 2894 3584 3203 3211 
Q 3513 2838 3513 2113 
z
" transform="scale(0.015625)"/>
      <path id="DejaVuSans-20" transform="scale(0.015625)"/>
      <path id="DejaVuSans-66" d="M 2375 4863 
L 2375 4384 
L 1825 4384 
Q 1516 4384 1395 4259 
Q 1275 4134 1275 3809 
L 1275 3500 
L 2222 3500 
L 2222 3053 
L 1275 3053 
L 1275 0 
L 697 0 
L 697 3053 
L 147 3053 
L 147 3500 
L 697 3500 
L 697 3744 
Q 697 4328 969 4595 
Q 1241 4863 1831 4863 
L 2375 4863 
z
" transform="scale(0.015625)"/>
      <path id="DejaVuSans-54" d="M -19 4666 
L 3928 4666 
L 3928 4134 
L 2272 4134 
L 2272 0 
L 1638 0 
L 1638 4134 
L -19 4134 
L -19 4666 
z
" transform="scale(0.015625)"/>
      <path id="DejaVuSans-44" d="M 1259 4147 
L 1259 519 
L 2022 519 
Q 2988 519 3436 956 
Q 3884 1394 3884 2338 
Q 3884 3275 3436 3711 
Q 2988 4147 2022 4147 
L 1259 4147 
z
M 628 4666 
L 1925 4666 
Q 3281 4666 3915 4102 
Q 4550 3538 4550 2338 
Q 4550 1131 3912 565 
Q 3275 0 1925 0 
L 628 0 
L 628 4666 
z
" transform="scale(0.015625)"/>
     </defs>
     <use xlink:href="#DejaVuSans-48"/>
     <use xlink:href="#DejaVuSans-69" transform="translate(75.195312 0)"/>
     <use xlink:href="#DejaVuSans-65" transform="translate(102.978516 0)"/>
     <use xlink:href="#DejaVuSans-72" transform="translate(164.501953 0)"/>
     <use xlink:href="#DejaVuSans-61" transform="translate(205.615234 0)"/>
     <use xlink:href="#DejaVuSans-72" transform="translate(266.894531 0)"/>
     <use xlink:href="#DejaVuSans-63" transform="translate(305.757812 0)"/>
     <use xlink:href="#DejaVuSans-68" transform="translate(360.738281 0)"/>
     <use xlink:href="#DejaVuSans-79" transform="translate(424.117188 0)"/>
     <use xlink:href="#DejaVuSans-20" transform="translate(483.296875 0)"/>
     <use xlink:href="#DejaVuSans-6f" transform="translate(515.083984 0)"/>
     <use xlink:href="#DejaVuSans-66" transform="translate(576.265625 0)"/>
     <use xlink:href="#DejaVuSans-20" transform="translate(611.470703 0)"/>
     <use xlink:href="#DejaVuSans-42" transform="translate(643.257812 0)"/>
     <use xlink:href="#DejaVuSans-65" transform="translate(711.861328 0)"/>
     <use xlink:href="#DejaVuSans-69" transform="translate(773.384766 0)"/>
     <use xlink:href="#DejaVuSans-6e" transform="translate(801.167969 0)"/>
     <use xlink:href="#DejaVuSans-67" transform="translate(864.546875 0)"/>
     <use xlink:href="#DejaVuSans-20" transform="translate(928.023438 0)"/>
     <use xlink:href="#DejaVuSans-69" transform="translate(959.810547 0)"/>
     <use xlink:href="#DejaVuSans-6e" transform="translate(987.59375 0)"/>
     <use xlink:href="#DejaVuSans-20" transform="translate(1050.972656 0)"/>
     <use xlink:href="#DejaVuSans-54" transform="translate(1082.759766 0)"/>
     <use xlink:href="#DejaVuSans-52" transform="translate(1143.84375 0)"/>
     <use xlink:href="#DejaVuSans-44" transform="translate(1213.326172 0)"/>
    </g>
   </g>
  </g>
 </g>
 <defs>
  <clipPath id="pcfc2286086">
   <rect x="7.2" y="32.837813" width="554.4" height="672.84"/>
  </clipPath>
 </defs>
</svg>
