<?xml version="1.0" encoding="utf-8" standalone="no"?>
<!DOCTYPE svg PUBLIC "-//W3C//DTD SVG 1.1//EN"
  "http://www.w3.org/Graphics/SVG/1.1/DTD/svg11.dtd">
<svg xmlns:xlink="http://www.w3.org/1999/xlink" width="712.8pt" height="424.877813pt" viewBox="0 0 712.8 424.877813" xmlns="http://www.w3.org/2000/svg" version="1.1">
 <metadata>
  <rdf:RDF xmlns:dc="http://purl.org/dc/elements/1.1/" xmlns:cc="http://creativecommons.org/ns#" xmlns:rdf="http://www.w3.org/1999/02/22-rdf-syntax-ns#">
   <cc:Work>
    <dc:type rdf:resource="http://purl.org/dc/dcmitype/StillImage"/>
    <dc:date>2026-01-02T19:17:48.056364</dc:date>
    <dc:format>image/svg+xml</dc:format>
    <dc:creator>
     <cc:Agent>
      <dc:title>Matplotlib v3.10.8, https://matplotlib.org/</dc:title>
     </cc:Agent>
    </dc:creator>
   </cc:Work>
  </rdf:RDF>
 </metadata>
 <defs>
  <style type="text/css">*{stroke-linejoin: round; stroke-linecap: butt}</style>
 </defs>
 <g id="figure_1">
  <g id="patch_1">
   <path d="M 0 424.877813 
L 712.8 424.877813 
L 712.8 0 
L 0 0 
z
" style="fill: #ffffff"/>
  </g>
  <g id="axes_1">
   <g id="patch_2">
    <path d="M 510.048 158.120479 
C 511.900178 158.120479 513.676746 157.45344 514.986434 156.26627 
C 516.296122 155.079099 517.032 153.468725 517.032 151.789812 
C 517.032 150.1109 516.296122 148.500526 514.986434 147.313355 
C 513.676746 146.126185 511.900178 145.459146 510.048 145.459146 
C 508.195822 145.459146 506.419254 146.126185 505.109566 147.313355 
C 503.799878 148.500526 503.064 150.1109 503.064 151.789812 
C 503.064 153.468725 503.799878 155.079099 505.109566 156.26627 
C 506.419254 157.45344 508.195822 158.120479 510.048 158.120479 
z
" clip-path="url(#p0cf886e09d)" style="fill: #2c3e50; opacity: 0.6; stroke: #2c3e50; stroke-width: 1.5; stroke-linejoin: miter"/>
   </g>
   <g id="patch_3">
    <path d="M 510.048 126.467146 
C 511.900178 126.467146 513.676746 125.800107 514.986434 124.612936 
C 516.296122 123.425766 517.032 121.815392 517.032 120.136479 
C 517.032 118.457567 516.296122 116.847192 514.986434 115.660022 
C 513.676746 114.472851 511.900178 113.805813 510.048 113.805813 
C 508.195822 113.805813 506.419254 114.472851 505.109566 115.660022 
C 503.799878 116.847192 503.064 118.457567 503.064 120.136479 
C 503.064 121.815392 503.799878 123.425766 505.109566 124.612936 
C 506.419254 125.800107 508.195822 126.467146 510.048 126.467146 
z
" clip-path="url(#p0cf886e09d)" style="fill: #2c3e50; opacity: 0.6; stroke: #2c3e50; stroke-width: 1.5; stroke-linejoin: miter"/>
   </g>
   <g id="patch_4">
    <path d="M 510.048 94.813812 
C 511.900178 94.813812 513.676746 94.146774 514.986434 92.959603 
C 516.296122 91.772433 517.032 90.162058 517.032 88.483146 
C 517.032 86.804233 516.296122 85.193859 514.986434 84.006689 
C 513.676746 82.819518 511.900178 82.152479 510.048 82.152479 
C 508.195822 82.152479 506.419254 82.819518 505.109566 84.006689 
C 503.799878 85.193859 503.064 86.804233 503.064 88.483146 
C 503.064 90.162058 503.799878 91.772433 505.109566 92.959603 
C 506.419254 94.146774 508.195822 94.813812 510.048 94.813812 
z
" clip-path="url(#p0cf886e09d)" style="fill: #2c3e50; opacity: 0.6; stroke: #2c3e50; stroke-width: 1.5; stroke-linejoin: miter"/>
   </g>
   <g id="patch_5">
    <path d="M 544.968 158.120479 
C 546.820178 158.120479 548.596746 157.45344 549.906434 156.26627 
C 551.216122 155.079099 551.952 153.468725 551.952 151.789812 
C 551.952 150.1109 551.216122 148.500526 549.906434 147.313355 
C 548.596746 146.126185 546.820178 145.459146 544.968 145.459146 
C 543.115822 145.459146 541.339254 146.126185 540.029566 147.313355 
C 538.719878 148.500526 537.984 150.1109 537.984 151.789812 
C 537.984 153.468725 538.719878 155.079099 540.029566 156.26627 
C 541.339254 157.45344 543.115822 158.120479 544.968 158.120479 
z
" clip-path="url(#p0cf886e09d)" style="fill: #2c3e50; opacity: 0.6; stroke: #2c3e50; stroke-width: 1.5; stroke-linejoin: miter"/>
   </g>
   <g id="patch_6">
    <path d="M 544.968 126.467146 
C 546.820178 126.467146 548.596746 125.800107 549.906434 124.612936 
C 551.216122 123.425766 551.952 121.815392 551.952 120.136479 
C 551.952 118.457567 551.216122 116.847192 549.906434 115.660022 
C 548.596746 114.472851 546.820178 113.805813 544.968 113.805813 
C 543.115822 113.805813 541.339254 114.472851 540.029566 115.660022 
C 538.719878 116.847192 537.984 118.457567 537.984 120.136479 
C 537.984 121.815392 538.719878 123.425766 540.029566 124.612936 
C 541.339254 125.800107 543.115822 126.467146 544.968 126.467146 
z
" clip-path="url(#p0cf886e09d)" style="fill: #2c3e50; opacity: 0.6; stroke: #2c3e50; stroke-width: 1.5; stroke-linejoin: miter"/>
   </g>
   <g id="patch_7">
    <path d="M 544.968 94.813812 
C 546.820178 94.813812 548.596746 94.146774 549.906434 92.959603 
C 551.216122 91.772433 551.952 90.162058 551.952 88.483146 
C 551.952 86.804233 551.216122 85.193859 549.906434 84.006689 
C 548.596746 82.819518 546.820178 82.152479 544.968 82.152479 
C 543.115822 82.152479 541.339254 82.819518 540.029566 84.006689 
C 538.719878 85.193859 537.984 86.804233 537.984 88.483146 
C 537.984 90.162058 538.719878 91.772433 540.029566 92.959603 
C 541.339254 94.146774 543.115822 94.813812 544.968 94.813812 
z
" clip-path="url(#p0cf886e09d)" style="fill: #2c3e50; opacity: 0.6; stroke: #2c3e50; stroke-width: 1.5; stroke-linejoin: miter"/>
   </g>
   <g id="patch_8">
    <path d="M 579.888 158.120479 
C 581.740178 158.120479 583.516746 157.45344 584.826434 156.26627 
C 586.136122 155.079099 586.872 153.468725 586.872 151.789812 
C 586.872 150.1109 586.136122 148.500526 584.826434 147.313355 
C 583.516746 146.126185 581.740178 145.459146 579.888 145.459146 
C 578.035822 145.459146 576.259254 146.126185 574.949566 147.313355 
C 573.639878 148.500526 572.904 150.1109 572.904 151.789812 
C 572.904 153.468725 573.639878 155.079099 574.949566 156.26627 
C 576.259254 157.45344 578.035822 158.120479 579.888 158.120479 
z
" clip-path="url(#p0cf886e09d)" style="fill: #2c3e50; opacity: 0.6; stroke: #2c3e50; stroke-width: 1.5; stroke-linejoin: miter"/>
   </g>
   <g id="patch_9">
    <path d="M 579.888 126.467146 
C 581.740178 126.467146 583.516746 125.800107 584.826434 124.612936 
C 586.136122 123.425766 586.872 121.815392 586.872 120.136479 
C 586.872 118.457567 586.136122 116.847192 584.826434 115.660022 
C 583.516746 114.472851 581.740178 113.805813 579.888 113.805813 
C 578.035822 113.805813 576.259254 114.472851 574.949566 115.660022 
C 573.639878 116.847192 572.904 118.457567 572.904 120.136479 
C 572.904 121.815392 573.639878 123.425766 574.949566 124.612936 
C 576.259254 125.800107 578.035822 126.467146 579.888 126.467146 
z
" clip-path="url(#p0cf886e09d)" style="fill: #2c3e50; opacity: 0.6; stroke: #2c3e50; stroke-width: 1.5; stroke-linejoin: miter"/>
   </g>
   <g id="patch_10">
    <path d="M 579.888 94.813812 
C 581.740178 94.813812 583.516746 94.146774 584.826434 92.959603 
C 586.136122 91.772433 586.872 90.162058 586.872 88.483146 
C 586.872 86.804233 586.136122 85.193859 584.826434 84.006689 
C 583.516746 82.819518 581.740178 82.152479 579.888 82.152479 
C 578.035822 82.152479 576.259254 82.819518 574.949566 84.006689 
C 573.639878 85.193859 572.904 86.804233 572.904 88.483146 
C 572.904 90.162058 573.639878 91.772433 574.949566 92.959603 
C 576.259254 94.146774 578.035822 94.813812 579.888 94.813812 
z
" clip-path="url(#p0cf886e09d)" style="fill: #2c3e50; opacity: 0.6; stroke: #2c3e50; stroke-width: 1.5; stroke-linejoin: miter"/>
   </g>
   <g id="patch_11">
    <path d="M 614.808 158.120479 
C 616.660178 158.120479 618.436746 157.45344 619.746434 156.26627 
C 621.056122 155.079099 621.792 153.468725 621.792 151.789812 
C 621.792 150.1109 621.056122 148.500526 619.746434 147.313355 
C 618.436746 146.126185 616.660178 145.459146 614.808 145.459146 
C 612.955822 145.459146 611.179254 146.126185 609.869566 147.313355 
C 608.559878 148.500526 607.824 150.1109 607.824 151.789812 
C 607.824 153.468725 608.559878 155.079099 609.869566 156.26627 
C 611.179254 157.45344 612.955822 158.120479 614.808 158.120479 
z
" clip-path="url(#p0cf886e09d)" style="fill: #2c3e50; opacity: 0.6; stroke: #2c3e50; stroke-width: 1.5; stroke-linejoin: miter"/>
   </g>
   <g id="patch_12">
    <path d="M 614.808 126.467146 
C 616.660178 126.467146 618.436746 125.800107 619.746434 124.612936 
C 621.056122 123.425766 621.792 121.815392 621.792 120.136479 
C 621.792 118.457567 621.056122 116.847192 619.746434 115.660022 
C 618.436746 114.472851 616.660178 113.805813 614.808 113.805813 
C 612.955822 113.805813 611.179254 114.472851 609.869566 115.660022 
C 608.559878 116.847192 607.824 118.457567 607.824 120.136479 
C 607.824 121.815392 608.559878 123.425766 609.869566 124.612936 
C 611.179254 125.800107 612.955822 126.467146 614.808 126.467146 
z
" clip-path="url(#p0cf886e09d)" style="fill: #2c3e50; opacity: 0.6; stroke: #2c3e50; stroke-width: 1.5; stroke-linejoin: miter"/>
   </g>
   <g id="patch_13">
    <path d="M 614.808 94.813812 
C 616.660178 94.813812 618.436746 94.146774 619.746434 92.959603 
C 621.056122 91.772433 621.792 90.162058 621.792 88.483146 
C 621.792 86.804233 621.056122 85.193859 619.746434 84.006689 
C 618.436746 82.819518 616.660178 82.152479 614.808 82.152479 
C 612.955822 82.152479 611.179254 82.819518 609.869566 84.006689 
C 608.559878 85.193859 607.824 86.804233 607.824 88.483146 
C 607.824 90.162058 608.559878 91.772433 609.869566 92.959603 
C 611.179254 94.146774 612.955822 94.813812 614.808 94.813812 
z
" clip-path="url(#p0cf886e09d)" style="fill: #2c3e50; opacity: 0.6; stroke: #2c3e50; stroke-width: 1.5; stroke-linejoin: miter"/>
   </g>
   <g id="patch_14">
    <path d="M 649.728 158.120479 
C 651.580178 158.120479 653.356746 157.45344 654.666434 156.26627 
C 655.976122 155.079099 656.712 153.468725 656.712 151.789812 
C 656.712 150.1109 655.976122 148.500526 654.666434 147.313355 
C 653.356746 146.126185 651.580178 145.459146 649.728 145.459146 
C 647.875822 145.459146 646.099254 146.126185 644.789566 147.313355 
C 643.479878 148.500526 642.744 150.1109 642.744 151.789812 
C 642.744 153.468725 643.479878 155.079099 644.789566 156.26627 
C 646.099254 157.45344 647.875822 158.120479 649.728 158.120479 
z
" clip-path="url(#p0cf886e09d)" style="fill: #2c3e50; opacity: 0.6; stroke: #2c3e50; stroke-width: 1.5; stroke-linejoin: miter"/>
   </g>
   <g id="patch_15">
    <path d="M 649.728 126.467146 
C 651.580178 126.467146 653.356746 125.800107 654.666434 124.612936 
C 655.976122 123.425766 656.712 121.815392 656.712 120.136479 
C 656.712 118.457567 655.976122 116.847192 654.666434 115.660022 
C 653.356746 114.472851 651.580178 113.805813 649.728 113.805813 
C 647.875822 113.805813 646.099254 114.472851 644.789566 115.660022 
C 643.479878 116.847192 642.744 118.457567 642.744 120.136479 
C 642.744 121.815392 643.479878 123.425766 644.789566 124.612936 
C 646.099254 125.800107 647.875822 126.467146 649.728 126.467146 
z
" clip-path="url(#p0cf886e09d)" style="fill: #2c3e50; opacity: 0.6; stroke: #2c3e50; stroke-width: 1.5; stroke-linejoin: miter"/>
   </g>
   <g id="patch_16">
    <path d="M 649.728 94.813812 
C 651.580178 94.813812 653.356746 94.146774 654.666434 92.959603 
C 655.976122 91.772433 656.712 90.162058 656.712 88.483146 
C 656.712 86.804233 655.976122 85.193859 654.666434 84.006689 
C 653.356746 82.819518 651.580178 82.152479 649.728 82.152479 
C 647.875822 82.152479 646.099254 82.819518 644.789566 84.006689 
C 643.479878 85.193859 642.744 86.804233 642.744 88.483146 
C 642.744 90.162058 643.479878 91.772433 644.789566 92.959603 
C 646.099254 94.146774 647.875822 94.813812 649.728 94.813812 
z
" clip-path="url(#p0cf886e09d)" style="fill: #2c3e50; opacity: 0.6; stroke: #2c3e50; stroke-width: 1.5; stroke-linejoin: miter"/>
   </g>
   <g id="patch_17">
    <path d="M 146.88 370.197812 
C 151.510446 370.197812 155.951865 368.530215 159.226084 365.562289 
C 162.500304 362.594363 164.34 358.568427 164.34 354.371146 
C 164.34 350.173865 162.500304 346.147928 159.226084 343.180003 
C 155.951865 340.212077 151.510446 338.544479 146.88 338.544479 
C 142.249554 338.544479 137.808135 340.212077 134.533916 343.180003 
C 131.259696 346.147928 129.42 350.173865 129.42 354.371146 
C 129.42 358.568427 131.259696 362.594363 134.533916 365.562289 
C 137.808135 368.530215 142.249554 370.197812 146.88 370.197812 
z
" clip-path="url(#p0cf886e09d)" style="fill: #2c3e50; opacity: 0.7; stroke: #2c3e50; stroke-width: 1.5; stroke-linejoin: miter"/>
   </g>
   <g id="patch_18">
    <path d="M 146.88 319.552479 
C 151.510446 319.552479 155.951865 317.884882 159.226084 314.916956 
C 162.500304 311.94903 164.34 307.923094 164.34 303.725812 
C 164.34 299.528531 162.500304 295.502595 159.226084 292.534669 
C 155.951865 289.566743 151.510446 287.899146 146.88 287.899146 
C 142.249554 287.899146 137.808135 289.566743 134.533916 292.534669 
C 131.259696 295.502595 129.42 299.528531 129.42 303.725812 
C 129.42 307.923094 131.259696 311.94903 134.533916 314.916956 
C 137.808135 317.884882 142.249554 319.552479 146.88 319.552479 
z
" clip-path="url(#p0cf886e09d)" style="fill: #3498db; opacity: 0.7; stroke: #3498db; stroke-width: 1.5; stroke-linejoin: miter"/>
   </g>
   <g id="patch_19">
    <path d="M 202.752 370.197812 
C 207.382446 370.197812 211.823865 368.530215 215.098084 365.562289 
C 218.372304 362.594363 220.212 358.568427 220.212 354.371146 
C 220.212 350.173865 218.372304 346.147928 215.098084 343.180003 
C 211.823865 340.212077 207.382446 338.544479 202.752 338.544479 
C 198.121554 338.544479 193.680135 340.212077 190.405916 343.180003 
C 187.131696 346.147928 185.292 350.173865 185.292 354.371146 
C 185.292 358.568427 187.131696 362.594363 190.405916 365.562289 
C 193.680135 368.530215 198.121554 370.197812 202.752 370.197812 
z
" clip-path="url(#p0cf886e09d)" style="fill: #2c3e50; opacity: 0.7; stroke: #2c3e50; stroke-width: 1.5; stroke-linejoin: miter"/>
   </g>
   <g id="patch_20">
    <path d="M 202.752 319.552479 
C 207.382446 319.552479 211.823865 317.884882 215.098084 314.916956 
C 218.372304 311.94903 220.212 307.923094 220.212 303.725812 
C 220.212 299.528531 218.372304 295.502595 215.098084 292.534669 
C 211.823865 289.566743 207.382446 287.899146 202.752 287.899146 
C 198.121554 287.899146 193.680135 289.566743 190.405916 292.534669 
C 187.131696 295.502595 185.292 299.528531 185.292 303.725812 
C 185.292 307.923094 187.131696 311.94903 190.405916 314.916956 
C 193.680135 317.884882 198.121554 319.552479 202.752 319.552479 
z
" clip-path="url(#p0cf886e09d)" style="fill: #3498db; opacity: 0.7; stroke: #3498db; stroke-width: 1.5; stroke-linejoin: miter"/>
   </g>
   <g id="patch_21">
    <path d="M 258.624 370.197812 
C 263.254446 370.197812 267.695865 368.530215 270.970084 365.562289 
C 274.244304 362.594363 276.084 358.568427 276.084 354.371146 
C 276.084 350.173865 274.244304 346.147928 270.970084 343.180003 
C 267.695865 340.212077 263.254446 338.544479 258.624 338.544479 
C 253.993554 338.544479 249.552135 340.212077 246.277916 343.180003 
C 243.003696 346.147928 241.164 350.173865 241.164 354.371146 
C 241.164 358.568427 243.003696 362.594363 246.277916 365.562289 
C 249.552135 368.530215 253.993554 370.197812 258.624 370.197812 
z
" clip-path="url(#p0cf886e09d)" style="fill: #3498db; opacity: 0.7; stroke: #3498db; stroke-width: 1.5; stroke-linejoin: miter"/>
   </g>
   <g id="patch_22">
    <path d="M 258.624 319.552479 
C 263.254446 319.552479 267.695865 317.884882 270.970084 314.916956 
C 274.244304 311.94903 276.084 307.923094 276.084 303.725812 
C 276.084 299.528531 274.244304 295.502595 270.970084 292.534669 
C 267.695865 289.566743 263.254446 287.899146 258.624 287.899146 
C 253.993554 287.899146 249.552135 289.566743 246.277916 292.534669 
C 243.003696 295.502595 241.164 299.528531 241.164 303.725812 
C 241.164 307.923094 243.003696 311.94903 246.277916 314.916956 
C 249.552135 317.884882 253.993554 319.552479 258.624 319.552479 
z
" clip-path="url(#p0cf886e09d)" style="fill: #e74c3c; opacity: 0.7; stroke: #e74c3c; stroke-width: 1.5; stroke-linejoin: miter"/>
   </g>
   <g id="patch_23">
    <path d="M 314.496 370.197812 
C 319.126446 370.197812 323.567865 368.530215 326.842084 365.562289 
C 330.116304 362.594363 331.956 358.568427 331.956 354.371146 
C 331.956 350.173865 330.116304 346.147928 326.842084 343.180003 
C 323.567865 340.212077 319.126446 338.544479 314.496 338.544479 
C 309.865554 338.544479 305.424135 340.212077 302.149916 343.180003 
C 298.875696 346.147928 297.036 350.173865 297.036 354.371146 
C 297.036 358.568427 298.875696 362.594363 302.149916 365.562289 
C 305.424135 368.530215 309.865554 370.197812 314.496 370.197812 
z
" clip-path="url(#p0cf886e09d)" style="fill: #2c3e50; opacity: 0.7; stroke: #2c3e50; stroke-width: 1.5; stroke-linejoin: miter"/>
   </g>
   <g id="patch_24">
    <path d="M 314.496 319.552479 
C 319.126446 319.552479 323.567865 317.884882 326.842084 314.916956 
C 330.116304 311.94903 331.956 307.923094 331.956 303.725812 
C 331.956 299.528531 330.116304 295.502595 326.842084 292.534669 
C 323.567865 289.566743 319.126446 287.899146 314.496 287.899146 
C 309.865554 287.899146 305.424135 289.566743 302.149916 292.534669 
C 298.875696 295.502595 297.036 299.528531 297.036 303.725812 
C 297.036 307.923094 298.875696 311.94903 302.149916 314.916956 
C 305.424135 317.884882 309.865554 319.552479 314.496 319.552479 
z
" clip-path="url(#p0cf886e09d)" style="fill: #e74c3c; opacity: 0.7; stroke: #e74c3c; stroke-width: 1.5; stroke-linejoin: miter"/>
   </g>
   <g id="patch_25">
    <path d="M 370.368 370.197812 
C 374.998446 370.197812 379.439865 368.530215 382.714084 365.562289 
C 385.988304 362.594363 387.828 358.568427 387.828 354.371146 
C 387.828 350.173865 385.988304 346.147928 382.714084 343.180003 
C 379.439865 340.212077 374.998446 338.544479 370.368 338.544479 
C 365.737554 338.544479 361.296135 340.212077 358.021916 343.180003 
C 354.747696 346.147928 352.908 350.173865 352.908 354.371146 
C 352.908 358.568427 354.747696 362.594363 358.021916 365.562289 
C 361.296135 368.530215 365.737554 370.197812 370.368 370.197812 
z
" clip-path="url(#p0cf886e09d)" style="fill: #2c3e50; opacity: 0.7; stroke: #2c3e50; stroke-width: 1.5; stroke-linejoin: miter"/>
   </g>
   <g id="patch_26">
    <path d="M 370.368 319.552479 
C 374.998446 319.552479 379.439865 317.884882 382.714084 314.916956 
C 385.988304 311.94903 387.828 307.923094 387.828 303.725812 
C 387.828 299.528531 385.988304 295.502595 382.714084 292.534669 
C 379.439865 289.566743 374.998446 287.899146 370.368 287.899146 
C 365.737554 287.899146 361.296135 289.566743 358.021916 292.534669 
C 354.747696 295.502595 352.908 299.528531 352.908 303.725812 
C 352.908 307.923094 354.747696 311.94903 358.021916 314.916956 
C 361.296135 317.884882 365.737554 319.552479 370.368 319.552479 
z
" clip-path="url(#p0cf886e09d)" style="fill: #3498db; opacity: 0.7; stroke: #3498db; stroke-width: 1.5; stroke-linejoin: miter"/>
   </g>
   <g id="patch_27">
    <path d="M 426.24 370.197812 
C 430.870446 370.197812 435.311865 368.530215 438.586084 365.562289 
C 441.860304 362.594363 443.7 358.568427 443.7 354.371146 
C 443.7 350.173865 441.860304 346.147928 438.586084 343.180003 
C 435.311865 340.212077 430.870446 338.544479 426.24 338.544479 
C 421.609554 338.544479 417.168135 340.212077 413.893916 343.180003 
C 410.619696 346.147928 408.78 350.173865 408.78 354.371146 
C 408.78 358.568427 410.619696 362.594363 413.893916 365.562289 
C 417.168135 368.530215 421.609554 370.197812 426.24 370.197812 
z
" clip-path="url(#p0cf886e09d)" style="fill: #e74c3c; opacity: 0.7; stroke: #e74c3c; stroke-width: 1.5; stroke-linejoin: miter"/>
   </g>
   <g id="patch_28">
    <path d="M 426.24 319.552479 
C 430.870446 319.552479 435.311865 317.884882 438.586084 314.916956 
C 441.860304 311.94903 443.7 307.923094 443.7 303.725812 
C 443.7 299.528531 441.860304 295.502595 438.586084 292.534669 
C 435.311865 289.566743 430.870446 287.899146 426.24 287.899146 
C 421.609554 287.899146 417.168135 289.566743 413.893916 292.534669 
C 410.619696 295.502595 408.78 299.528531 408.78 303.725812 
C 408.78 307.923094 410.619696 311.94903 413.893916 314.916956 
C 417.168135 317.884882 421.609554 319.552479 426.24 319.552479 
z
" clip-path="url(#p0cf886e09d)" style="fill: #e74c3c; opacity: 0.7; stroke: #e74c3c; stroke-width: 1.5; stroke-linejoin: miter"/>
   </g>
   <g id="patch_29">
    <path d="M 482.112 370.197812 
C 486.742446 370.197812 491.183865 368.530215 494.458084 365.562289 
C 497.732304 362.594363 499.572 358.568427 499.572 354.371146 
C 499.572 350.173865 497.732304 346.147928 494.458084 343.180003 
C 491.183865 340.212077 486.742446 338.544479 482.112 338.544479 
C 477.481554 338.544479 473.040135 340.212077 469.765916 343.180003 
C 466.491696 346.147928 464.652 350.173865 464.652 354.371146 
C 464.652 358.568427 466.491696 362.594363 469.765916 365.562289 
C 473.040135 368.530215 477.481554 370.197812 482.112 370.197812 
z
" clip-path="url(#p0cf886e09d)" style="fill: #2c3e50; opacity: 0.7; stroke: #2c3e50; stroke-width: 1.5; stroke-linejoin: miter"/>
   </g>
   <g id="patch_30">
    <path d="M 482.112 319.552479 
C 486.742446 319.552479 491.183865 317.884882 494.458084 314.916956 
C 497.732304 311.94903 499.572 307.923094 499.572 303.725812 
C 499.572 299.528531 497.732304 295.502595 494.458084 292.534669 
C 491.183865 289.566743 486.742446 287.899146 482.112 287.899146 
C 477.481554 287.899146 473.040135 289.566743 469.765916 292.534669 
C 466.491696 295.502595 464.652 299.528531 464.652 303.725812 
C 464.652 307.923094 466.491696 311.94903 469.765916 314.916956 
C 473.040135 317.884882 477.481554 319.552479 482.112 319.552479 
z
" clip-path="url(#p0cf886e09d)" style="fill: #3498db; opacity: 0.7; stroke: #3498db; stroke-width: 1.5; stroke-linejoin: miter"/>
   </g>
   <g id="patch_31">
    <path d="M 537.984 370.197812 
C 542.614446 370.197812 547.055865 368.530215 550.330084 365.562289 
C 553.604304 362.594363 555.444 358.568427 555.444 354.371146 
C 555.444 350.173865 553.604304 346.147928 550.330084 343.180003 
C 547.055865 340.212077 542.614446 338.544479 537.984 338.544479 
C 533.353554 338.544479 528.912135 340.212077 525.637916 343.180003 
C 522.363696 346.147928 520.524 350.173865 520.524 354.371146 
C 520.524 358.568427 522.363696 362.594363 525.637916 365.562289 
C 528.912135 368.530215 533.353554 370.197812 537.984 370.197812 
z
" clip-path="url(#p0cf886e09d)" style="fill: #3498db; opacity: 0.7; stroke: #3498db; stroke-width: 1.5; stroke-linejoin: miter"/>
   </g>
   <g id="patch_32">
    <path d="M 537.984 319.552479 
C 542.614446 319.552479 547.055865 317.884882 550.330084 314.916956 
C 553.604304 311.94903 555.444 307.923094 555.444 303.725812 
C 555.444 299.528531 553.604304 295.502595 550.330084 292.534669 
C 547.055865 289.566743 542.614446 287.899146 537.984 287.899146 
C 533.353554 287.899146 528.912135 289.566743 525.637916 292.534669 
C 522.363696 295.502595 520.524 299.528531 520.524 303.725812 
C 520.524 307.923094 522.363696 311.94903 525.637916 314.916956 
C 528.912135 317.884882 533.353554 319.552479 537.984 319.552479 
z
" clip-path="url(#p0cf886e09d)" style="fill: #2c3e50; opacity: 0.7; stroke: #2c3e50; stroke-width: 1.5; stroke-linejoin: miter"/>
   </g>
   <g id="line2d_1">
    <path d="M 21.168 119.173786 
L 23.002182 117.861433 
L 24.836364 116.713762 
L 26.670545 115.743424 
L 28.504727 114.961119 
L 30.338909 114.375472 
L 32.173091 113.99294 
L 34.007273 113.81774 
L 35.841455 113.851804 
L 37.675636 114.094757 
L 39.509818 114.54392 
L 41.344 115.19434 
L 43.178182 116.038847 
L 45.012364 117.068129 
L 46.846545 118.270838 
L 48.680727 119.633713 
L 50.514909 121.141729 
L 52.349091 122.778259 
L 54.183273 124.525259 
L 56.017455 126.363468 
L 57.851636 128.272618 
L 59.685818 130.231661 
L 61.52 132.218997 
L 63.354182 134.212714 
L 65.188364 136.190832 
L 67.022545 138.131539 
L 68.856727 140.013441 
L 70.690909 141.815786 
L 72.525091 143.518704 
L 74.359273 145.103419 
L 76.193455 146.55246 
L 78.027636 147.849848 
L 79.861818 148.981282 
L 81.696 149.934285 
L 83.530182 150.69835 
L 85.364364 151.265054 
L 87.198545 151.628148 
L 89.032727 151.783628 
L 90.866909 151.729781 
L 92.701091 151.467201 
L 94.535273 150.998782 
L 96.369455 150.329688 
L 98.203636 149.467298 
L 100.037818 148.421119 
L 101.872 147.202685 
L 103.706182 145.825432 
L 105.540364 144.304542 
L 107.374545 142.656786 
L 109.208727 140.90033 
L 111.042909 139.05454 
L 112.877091 137.139766 
L 114.711273 135.177121 
L 116.545455 133.188242 
L 118.379636 131.195059 
L 120.213818 129.219547 
L 122.048 127.283487 
L 123.882182 125.408225 
L 125.716364 123.614437 
L 127.550545 121.921899 
L 129.384727 120.349274 
L 131.218909 118.913899 
L 133.053091 117.631601 
L 134.887273 116.516518 
L 136.721455 115.580943 
L 138.555636 114.835193 
L 140.389818 114.287488 
L 142.224 113.943869 
L 144.058182 113.808123 
L 145.892364 113.881747 
L 147.726545 114.163929 
L 149.560727 114.651559 
L 151.394909 115.339259 
L 153.229091 116.219449 
L 155.063273 117.282422 
L 156.897455 118.51646 
L 158.731636 119.907956 
L 160.565818 121.441569 
L 162.4 123.100389 
L 164.234182 124.866129 
L 166.068364 126.719319 
L 167.902545 128.639527 
L 169.736727 130.605582 
L 171.570909 132.595807 
L 173.405091 134.58826 
L 175.239273 136.560972 
L 177.073455 138.492193 
L 178.907636 140.360632 
L 180.741818 142.145686 
L 182.576 143.827676 
L 184.410182 145.388057 
L 186.244364 146.809625 
L 188.078545 148.076705 
L 189.912727 149.175329 
L 191.746909 150.093383 
L 193.581091 150.820746 
L 195.415273 151.349397 
L 197.249455 151.673509 
L 199.083636 151.789507 
L 200.917818 151.696113 
L 202.752 151.394356 
" clip-path="url(#p0cf886e09d)" style="fill: none; stroke: #f39c12; stroke-width: 2.5; stroke-linecap: square"/>
   </g>
   <g id="line2d_2">
    <path d="M 265.608 132.5355 
L 267.442182 132.302604 
L 269.276364 132.065643 
L 271.110545 131.856438 
L 272.944727 131.711902 
L 274.778909 131.670041 
L 276.613091 131.764712 
L 278.447273 132.019652 
L 280.281455 132.442492 
L 282.115636 133.019659 
L 283.949818 133.713167 
L 285.784 134.46021 
L 287.618182 135.176248 
L 289.452364 135.761901 
L 291.286545 136.113461 
L 293.120727 136.1362 
L 294.954909 135.759121 
L 296.789091 134.949268 
L 298.623273 133.723446 
L 300.457455 132.155195 
L 302.291636 130.37515 
L 304.125818 128.563618 
L 305.96 126.93512 
L 307.794182 125.715784 
L 309.628364 125.115675 
L 311.462545 125.299167 
L 313.296727 126.357195 
L 315.130909 128.28552 
L 316.965091 130.972766 
L 318.799273 134.201135 
L 320.633455 137.66122 
L 322.467636 140.980527 
L 324.301818 143.763343 
L 326.136 145.637732 
L 327.970182 146.304056 
L 329.804364 145.578639 
L 331.638545 143.42633 
L 333.472727 139.9767 
L 335.306909 135.520487 
L 337.141091 130.485313 
L 338.975273 125.392518 
L 340.809455 120.799591 
L 342.643636 117.23495 
L 344.477818 115.133157 
L 346.312 114.77901 
L 348.146182 116.268127 
L 349.980364 119.489663 
L 351.814545 124.134082 
L 353.648727 129.725588 
L 355.482909 135.675576 
L 357.317091 141.350589 
L 359.151273 146.146266 
L 360.985455 149.557934 
L 362.819636 151.238898 
L 364.653818 151.03912 
L 366.488 149.01962 
L 368.322182 145.441124 
L 370.156364 140.728907 
L 371.990545 135.418806 
L 373.824727 130.091699 
L 375.658909 125.305022 
L 377.493091 121.529953 
L 379.327273 119.101826 
L 381.161455 118.189289 
L 382.995636 118.785023 
L 384.829818 120.717939 
L 386.664 123.68399 
L 388.498182 127.290576 
L 390.332364 131.10808 
L 392.166545 134.721677 
L 394.000727 137.777014 
L 395.834909 140.0147 
L 397.669091 141.290368 
L 399.503273 141.579235 
L 401.337455 140.966112 
L 403.171636 139.623611 
L 405.005818 137.782467 
L 406.84 135.698482 
L 408.674182 133.620521 
L 410.508364 131.763329 
L 412.342545 130.287874 
L 414.176727 129.290632 
L 416.010909 128.801927 
L 417.845091 128.792262 
L 419.679273 129.184738 
L 421.513455 129.871155 
L 423.347636 130.729279 
L 425.181818 131.638988 
L 427.016 132.495521 
L 428.850182 133.218681 
L 430.684364 133.757569 
L 432.518545 134.091018 
L 434.352727 134.224463 
L 436.186909 134.184244 
L 438.021091 134.010532 
L 439.855273 133.749988 
L 441.689455 133.449113 
L 443.523636 133.148954 
L 445.357818 132.881556 
L 447.192 132.668222 
" clip-path="url(#p0cf886e09d)" style="fill: none; stroke: #f39c12; stroke-width: 2.5; stroke-linecap: square"/>
   </g>
   <g id="line2d_3">
    <path d="M 7.2 259.411146 
L 705.6 259.411146 
" clip-path="url(#p0cf886e09d)" style="fill: none; stroke: #ecf0f1; stroke-linecap: square"/>
   </g>
   <g id="text_1">
    <!-- Macroscopic -->
    <g style="fill: #2c3e50" transform="translate(70.14375 69.491146) scale(0.12 -0.12)">
     <defs>
      <path id="DejaVuSans-Bold-4d" d="M 588 4666 
L 2119 4666 
L 3181 2169 
L 4250 4666 
L 5778 4666 
L 5778 0 
L 4641 0 
L 4641 3413 
L 3566 897 
L 2803 897 
L 1728 3413 
L 1728 0 
L 588 0 
L 588 4666 
z
" transform="scale(0.015625)"/>
      <path id="DejaVuSans-Bold-61" d="M 2106 1575 
Q 1756 1575 1579 1456 
Q 1403 1338 1403 1106 
Q 1403 894 1545 773 
Q 1688 653 1941 653 
Q 2256 653 2472 879 
Q 2688 1106 2688 1447 
L 2688 1575 
L 2106 1575 
z
M 3816 1997 
L 3816 0 
L 2688 0 
L 2688 519 
Q 2463 200 2181 54 
Q 1900 -91 1497 -91 
Q 953 -91 614 226 
Q 275 544 275 1050 
Q 275 1666 698 1953 
Q 1122 2241 2028 2241 
L 2688 2241 
L 2688 2328 
Q 2688 2594 2478 2717 
Q 2269 2841 1825 2841 
Q 1466 2841 1156 2769 
Q 847 2697 581 2553 
L 581 3406 
Q 941 3494 1303 3539 
Q 1666 3584 2028 3584 
Q 2975 3584 3395 3211 
Q 3816 2838 3816 1997 
z
" transform="scale(0.015625)"/>
      <path id="DejaVuSans-Bold-63" d="M 3366 3391 
L 3366 2478 
Q 3138 2634 2908 2709 
Q 2678 2784 2431 2784 
Q 1963 2784 1702 2511 
Q 1441 2238 1441 1747 
Q 1441 1256 1702 982 
Q 1963 709 2431 709 
Q 2694 709 2930 787 
Q 3166 866 3366 1019 
L 3366 103 
Q 3103 6 2833 -42 
Q 2563 -91 2291 -91 
Q 1344 -91 809 395 
Q 275 881 275 1747 
Q 275 2613 809 3098 
Q 1344 3584 2291 3584 
Q 2566 3584 2833 3536 
Q 3100 3488 3366 3391 
z
" transform="scale(0.015625)"/>
      <path id="DejaVuSans-Bold-72" d="M 3138 2547 
Q 2991 2616 2845 2648 
Q 2700 2681 2553 2681 
Q 2122 2681 1889 2404 
Q 1656 2128 1656 1613 
L 1656 0 
L 538 0 
L 538 3500 
L 1656 3500 
L 1656 2925 
Q 1872 3269 2151 3426 
Q 2431 3584 2822 3584 
Q 2878 3584 2943 3579 
Q 3009 3575 3134 3559 
L 3138 2547 
z
" transform="scale(0.015625)"/>
      <path id="DejaVuSans-Bold-6f" d="M 2203 2784 
Q 1831 2784 1636 2517 
Q 1441 2250 1441 1747 
Q 1441 1244 1636 976 
Q 1831 709 2203 709 
Q 2569 709 2762 976 
Q 2956 1244 2956 1747 
Q 2956 2250 2762 2517 
Q 2569 2784 2203 2784 
z
M 2203 3584 
Q 3106 3584 3614 3096 
Q 4122 2609 4122 1747 
Q 4122 884 3614 396 
Q 3106 -91 2203 -91 
Q 1297 -91 786 396 
Q 275 884 275 1747 
Q 275 2609 786 3096 
Q 1297 3584 2203 3584 
z
" transform="scale(0.015625)"/>
      <path id="DejaVuSans-Bold-73" d="M 3272 3391 
L 3272 2541 
Q 2913 2691 2578 2766 
Q 2244 2841 1947 2841 
Q 1628 2841 1473 2761 
Q 1319 2681 1319 2516 
Q 1319 2381 1436 2309 
Q 1553 2238 1856 2203 
L 2053 2175 
Q 2913 2066 3209 1816 
Q 3506 1566 3506 1031 
Q 3506 472 3093 190 
Q 2681 -91 1863 -91 
Q 1516 -91 1145 -36 
Q 775 19 384 128 
L 384 978 
Q 719 816 1070 734 
Q 1422 653 1784 653 
Q 2113 653 2278 743 
Q 2444 834 2444 1013 
Q 2444 1163 2330 1236 
Q 2216 1309 1875 1350 
L 1678 1375 
Q 931 1469 631 1722 
Q 331 1975 331 2491 
Q 331 3047 712 3315 
Q 1094 3584 1881 3584 
Q 2191 3584 2531 3537 
Q 2872 3491 3272 3391 
z
" transform="scale(0.015625)"/>
      <path id="DejaVuSans-Bold-70" d="M 1656 506 
L 1656 -1331 
L 538 -1331 
L 538 3500 
L 1656 3500 
L 1656 2988 
Q 1888 3294 2169 3439 
Q 2450 3584 2816 3584 
Q 3463 3584 3878 3070 
Q 4294 2556 4294 1747 
Q 4294 938 3878 423 
Q 3463 -91 2816 -91 
Q 2450 -91 2169 54 
Q 1888 200 1656 506 
z
M 2400 2772 
Q 2041 2772 1848 2508 
Q 1656 2244 1656 1747 
Q 1656 1250 1848 986 
Q 2041 722 2400 722 
Q 2759 722 2948 984 
Q 3138 1247 3138 1747 
Q 3138 2247 2948 2509 
Q 2759 2772 2400 2772 
z
" transform="scale(0.015625)"/>
      <path id="DejaVuSans-Bold-69" d="M 538 3500 
L 1656 3500 
L 1656 0 
L 538 0 
L 538 3500 
z
M 538 4863 
L 1656 4863 
L 1656 3950 
L 538 3950 
L 538 4863 
z
" transform="scale(0.015625)"/>
     </defs>
     <use xlink:href="#DejaVuSans-Bold-4d"/>
     <use xlink:href="#DejaVuSans-Bold-61" transform="translate(99.511719 0)"/>
     <use xlink:href="#DejaVuSans-Bold-63" transform="translate(166.992188 0)"/>
     <use xlink:href="#DejaVuSans-Bold-72" transform="translate(226.269531 0)"/>
     <use xlink:href="#DejaVuSans-Bold-6f" transform="translate(275.585938 0)"/>
     <use xlink:href="#DejaVuSans-Bold-73" transform="translate(344.287109 0)"/>
     <use xlink:href="#DejaVuSans-Bold-63" transform="translate(403.808594 0)"/>
     <use xlink:href="#DejaVuSans-Bold-6f" transform="translate(463.085938 0)"/>
     <use xlink:href="#DejaVuSans-Bold-70" transform="translate(531.787109 0)"/>
     <use xlink:href="#DejaVuSans-Bold-69" transform="translate(603.369141 0)"/>
     <use xlink:href="#DejaVuSans-Bold-63" transform="translate(637.646484 0)"/>
    </g>
   </g>
   <g id="text_2">
    <!-- Smooth, continuous -->
    <g style="fill: #95a5a6" transform="translate(71.98625 164.451146) scale(0.08 -0.08)">
     <defs>
      <path id="DejaVuSans-53" d="M 3425 4513 
L 3425 3897 
Q 3066 4069 2747 4153 
Q 2428 4238 2131 4238 
Q 1616 4238 1336 4038 
Q 1056 3838 1056 3469 
Q 1056 3159 1242 3001 
Q 1428 2844 1947 2747 
L 2328 2669 
Q 3034 2534 3370 2195 
Q 3706 1856 3706 1288 
Q 3706 609 3251 259 
Q 2797 -91 1919 -91 
Q 1588 -91 1214 -16 
Q 841 59 441 206 
L 441 856 
Q 825 641 1194 531 
Q 1563 422 1919 422 
Q 2459 422 2753 634 
Q 3047 847 3047 1241 
Q 3047 1584 2836 1778 
Q 2625 1972 2144 2069 
L 1759 2144 
Q 1053 2284 737 2584 
Q 422 2884 422 3419 
Q 422 4038 858 4394 
Q 1294 4750 2059 4750 
Q 2388 4750 2728 4690 
Q 3069 4631 3425 4513 
z
" transform="scale(0.015625)"/>
      <path id="DejaVuSans-6d" d="M 3328 2828 
Q 3544 3216 3844 3400 
Q 4144 3584 4550 3584 
Q 5097 3584 5394 3201 
Q 5691 2819 5691 2113 
L 5691 0 
L 5113 0 
L 5113 2094 
Q 5113 2597 4934 2840 
Q 4756 3084 4391 3084 
Q 3944 3084 3684 2787 
Q 3425 2491 3425 1978 
L 3425 0 
L 2847 0 
L 2847 2094 
Q 2847 2600 2669 2842 
Q 2491 3084 2119 3084 
Q 1678 3084 1418 2786 
Q 1159 2488 1159 1978 
L 1159 0 
L 581 0 
L 581 3500 
L 1159 3500 
L 1159 2956 
Q 1356 3278 1631 3431 
Q 1906 3584 2284 3584 
Q 2666 3584 2933 3390 
Q 3200 3197 3328 2828 
z
" transform="scale(0.015625)"/>
      <path id="DejaVuSans-6f" d="M 1959 3097 
Q 1497 3097 1228 2736 
Q 959 2375 959 1747 
Q 959 1119 1226 758 
Q 1494 397 1959 397 
Q 2419 397 2687 759 
Q 2956 1122 2956 1747 
Q 2956 2369 2687 2733 
Q 2419 3097 1959 3097 
z
M 1959 3584 
Q 2709 3584 3137 3096 
Q 3566 2609 3566 1747 
Q 3566 888 3137 398 
Q 2709 -91 1959 -91 
Q 1206 -91 779 398 
Q 353 888 353 1747 
Q 353 2609 779 3096 
Q 1206 3584 1959 3584 
z
" transform="scale(0.015625)"/>
      <path id="DejaVuSans-74" d="M 1172 4494 
L 1172 3500 
L 2356 3500 
L 2356 3053 
L 1172 3053 
L 1172 1153 
Q 1172 725 1289 603 
Q 1406 481 1766 481 
L 2356 481 
L 2356 0 
L 1766 0 
Q 1100 0 847 248 
Q 594 497 594 1153 
L 594 3053 
L 172 3053 
L 172 3500 
L 594 3500 
L 594 4494 
L 1172 4494 
z
" transform="scale(0.015625)"/>
      <path id="DejaVuSans-68" d="M 3513 2113 
L 3513 0 
L 2938 0 
L 2938 2094 
Q 2938 2591 2744 2837 
Q 2550 3084 2163 3084 
Q 1697 3084 1428 2787 
Q 1159 2491 1159 1978 
L 1159 0 
L 581 0 
L 581 4863 
L 1159 4863 
L 1159 2956 
Q 1366 3272 1645 3428 
Q 1925 3584 2291 3584 
Q 2894 3584 3203 3211 
Q 3513 2838 3513 2113 
z
" transform="scale(0.015625)"/>
      <path id="DejaVuSans-2c" d="M 750 794 
L 1409 794 
L 1409 256 
L 897 -744 
L 494 -744 
L 750 256 
L 750 794 
z
" transform="scale(0.015625)"/>
      <path id="DejaVuSans-20" transform="scale(0.015625)"/>
      <path id="DejaVuSans-63" d="M 3122 3366 
L 3122 2828 
Q 2878 2963 2633 3030 
Q 2388 3097 2138 3097 
Q 1578 3097 1268 2742 
Q 959 2388 959 1747 
Q 959 1106 1268 751 
Q 1578 397 2138 397 
Q 2388 397 2633 464 
Q 2878 531 3122 666 
L 3122 134 
Q 2881 22 2623 -34 
Q 2366 -91 2075 -91 
Q 1284 -91 818 406 
Q 353 903 353 1747 
Q 353 2603 823 3093 
Q 1294 3584 2113 3584 
Q 2378 3584 2631 3529 
Q 2884 3475 3122 3366 
z
" transform="scale(0.015625)"/>
      <path id="DejaVuSans-6e" d="M 3513 2113 
L 3513 0 
L 2938 0 
L 2938 2094 
Q 2938 2591 2744 2837 
Q 2550 3084 2163 3084 
Q 1697 3084 1428 2787 
Q 1159 2491 1159 1978 
L 1159 0 
L 581 0 
L 581 3500 
L 1159 3500 
L 1159 2956 
Q 1366 3272 1645 3428 
Q 1925 3584 2291 3584 
Q 2894 3584 3203 3211 
Q 3513 2838 3513 2113 
z
" transform="scale(0.015625)"/>
      <path id="DejaVuSans-69" d="M 603 3500 
L 1178 3500 
L 1178 0 
L 603 0 
L 603 3500 
z
M 603 4863 
L 1178 4863 
L 1178 4134 
L 603 4134 
L 603 4863 
z
" transform="scale(0.015625)"/>
      <path id="DejaVuSans-75" d="M 544 1381 
L 544 3500 
L 1119 3500 
L 1119 1403 
Q 1119 906 1312 657 
Q 1506 409 1894 409 
Q 2359 409 2629 706 
Q 2900 1003 2900 1516 
L 2900 3500 
L 3475 3500 
L 3475 0 
L 2900 0 
L 2900 538 
Q 2691 219 2414 64 
Q 2138 -91 1772 -91 
Q 1169 -91 856 284 
Q 544 659 544 1381 
z
M 1991 3584 
L 1991 3584 
z
" transform="scale(0.015625)"/>
      <path id="DejaVuSans-73" d="M 2834 3397 
L 2834 2853 
Q 2591 2978 2328 3040 
Q 2066 3103 1784 3103 
Q 1356 3103 1142 2972 
Q 928 2841 928 2578 
Q 928 2378 1081 2264 
Q 1234 2150 1697 2047 
L 1894 2003 
Q 2506 1872 2764 1633 
Q 3022 1394 3022 966 
Q 3022 478 2636 193 
Q 2250 -91 1575 -91 
Q 1294 -91 989 -36 
Q 684 19 347 128 
L 347 722 
Q 666 556 975 473 
Q 1284 391 1588 391 
Q 1994 391 2212 530 
Q 2431 669 2431 922 
Q 2431 1156 2273 1281 
Q 2116 1406 1581 1522 
L 1381 1569 
Q 847 1681 609 1914 
Q 372 2147 372 2553 
Q 372 3047 722 3315 
Q 1072 3584 1716 3584 
Q 2034 3584 2315 3537 
Q 2597 3491 2834 3397 
z
" transform="scale(0.015625)"/>
     </defs>
     <use xlink:href="#DejaVuSans-53"/>
     <use xlink:href="#DejaVuSans-6d" transform="translate(63.476562 0)"/>
     <use xlink:href="#DejaVuSans-6f" transform="translate(160.888672 0)"/>
     <use xlink:href="#DejaVuSans-6f" transform="translate(222.070312 0)"/>
     <use xlink:href="#DejaVuSans-74" transform="translate(283.251953 0)"/>
     <use xlink:href="#DejaVuSans-68" transform="translate(322.460938 0)"/>
     <use xlink:href="#DejaVuSans-2c" transform="translate(385.839844 0)"/>
     <use xlink:href="#DejaVuSans-20" transform="translate(417.626953 0)"/>
     <use xlink:href="#DejaVuSans-63" transform="translate(449.414062 0)"/>
     <use xlink:href="#DejaVuSans-6f" transform="translate(504.394531 0)"/>
     <use xlink:href="#DejaVuSans-6e" transform="translate(565.576172 0)"/>
     <use xlink:href="#DejaVuSans-74" transform="translate(628.955078 0)"/>
     <use xlink:href="#DejaVuSans-69" transform="translate(668.164062 0)"/>
     <use xlink:href="#DejaVuSans-6e" transform="translate(695.947266 0)"/>
     <use xlink:href="#DejaVuSans-75" transform="translate(759.326172 0)"/>
     <use xlink:href="#DejaVuSans-6f" transform="translate(822.705078 0)"/>
     <use xlink:href="#DejaVuSans-75" transform="translate(883.886719 0)"/>
     <use xlink:href="#DejaVuSans-73" transform="translate(947.265625 0)"/>
    </g>
   </g>
   <g id="text_3">
    <!-- Quantum -->
    <g style="fill: #2c3e50" transform="translate(325.31625 69.491146) scale(0.12 -0.12)">
     <defs>
      <path id="DejaVuSans-Bold-51" d="M 2847 -84 
L 2753 -84 
Q 1600 -84 959 553 
Q 319 1191 319 2328 
Q 319 3463 958 4106 
Q 1597 4750 2719 4750 
Q 3853 4750 4486 4112 
Q 5119 3475 5119 2328 
Q 5119 1541 4783 972 
Q 4447 403 3816 116 
L 4756 -934 
L 3609 -934 
L 2847 -84 
z
M 2719 3878 
Q 2169 3878 1866 3472 
Q 1563 3066 1563 2328 
Q 1563 1578 1859 1179 
Q 2156 781 2719 781 
Q 3272 781 3575 1187 
Q 3878 1594 3878 2328 
Q 3878 3066 3575 3472 
Q 3272 3878 2719 3878 
z
" transform="scale(0.015625)"/>
      <path id="DejaVuSans-Bold-75" d="M 500 1363 
L 500 3500 
L 1625 3500 
L 1625 3150 
Q 1625 2866 1622 2436 
Q 1619 2006 1619 1863 
Q 1619 1441 1641 1255 
Q 1663 1069 1716 984 
Q 1784 875 1895 815 
Q 2006 756 2150 756 
Q 2500 756 2700 1025 
Q 2900 1294 2900 1772 
L 2900 3500 
L 4019 3500 
L 4019 0 
L 2900 0 
L 2900 506 
Q 2647 200 2364 54 
Q 2081 -91 1741 -91 
Q 1134 -91 817 281 
Q 500 653 500 1363 
z
" transform="scale(0.015625)"/>
      <path id="DejaVuSans-Bold-6e" d="M 4056 2131 
L 4056 0 
L 2931 0 
L 2931 347 
L 2931 1631 
Q 2931 2084 2911 2256 
Q 2891 2428 2841 2509 
Q 2775 2619 2662 2680 
Q 2550 2741 2406 2741 
Q 2056 2741 1856 2470 
Q 1656 2200 1656 1722 
L 1656 0 
L 538 0 
L 538 3500 
L 1656 3500 
L 1656 2988 
Q 1909 3294 2193 3439 
Q 2478 3584 2822 3584 
Q 3428 3584 3742 3212 
Q 4056 2841 4056 2131 
z
" transform="scale(0.015625)"/>
      <path id="DejaVuSans-Bold-74" d="M 1759 4494 
L 1759 3500 
L 2913 3500 
L 2913 2700 
L 1759 2700 
L 1759 1216 
Q 1759 972 1856 886 
Q 1953 800 2241 800 
L 2816 800 
L 2816 0 
L 1856 0 
Q 1194 0 917 276 
Q 641 553 641 1216 
L 641 2700 
L 84 2700 
L 84 3500 
L 641 3500 
L 641 4494 
L 1759 4494 
z
" transform="scale(0.015625)"/>
      <path id="DejaVuSans-Bold-6d" d="M 3781 2919 
Q 3994 3244 4286 3414 
Q 4578 3584 4928 3584 
Q 5531 3584 5847 3212 
Q 6163 2841 6163 2131 
L 6163 0 
L 5038 0 
L 5038 1825 
Q 5041 1866 5042 1909 
Q 5044 1953 5044 2034 
Q 5044 2406 4934 2573 
Q 4825 2741 4581 2741 
Q 4263 2741 4089 2478 
Q 3916 2216 3909 1719 
L 3909 0 
L 2784 0 
L 2784 1825 
Q 2784 2406 2684 2573 
Q 2584 2741 2328 2741 
Q 2006 2741 1831 2477 
Q 1656 2213 1656 1722 
L 1656 0 
L 531 0 
L 531 3500 
L 1656 3500 
L 1656 2988 
Q 1863 3284 2130 3434 
Q 2397 3584 2719 3584 
Q 3081 3584 3359 3409 
Q 3638 3234 3781 2919 
z
" transform="scale(0.015625)"/>
     </defs>
     <use xlink:href="#DejaVuSans-Bold-51"/>
     <use xlink:href="#DejaVuSans-Bold-75" transform="translate(85.009766 0)"/>
     <use xlink:href="#DejaVuSans-Bold-61" transform="translate(156.201172 0)"/>
     <use xlink:href="#DejaVuSans-Bold-6e" transform="translate(223.681641 0)"/>
     <use xlink:href="#DejaVuSans-Bold-74" transform="translate(294.873047 0)"/>
     <use xlink:href="#DejaVuSans-Bold-75" transform="translate(342.675781 0)"/>
     <use xlink:href="#DejaVuSans-Bold-6d" transform="translate(413.867188 0)"/>
    </g>
   </g>
   <g id="text_4">
    <!-- Wave-like behavior -->
    <g style="fill: #95a5a6" transform="translate(318.293125 164.451146) scale(0.08 -0.08)">
     <defs>
      <path id="DejaVuSans-57" d="M 213 4666 
L 850 4666 
L 1831 722 
L 2809 4666 
L 3519 4666 
L 4500 722 
L 5478 4666 
L 6119 4666 
L 4947 0 
L 4153 0 
L 3169 4050 
L 2175 0 
L 1381 0 
L 213 4666 
z
" transform="scale(0.015625)"/>
      <path id="DejaVuSans-61" d="M 2194 1759 
Q 1497 1759 1228 1600 
Q 959 1441 959 1056 
Q 959 750 1161 570 
Q 1363 391 1709 391 
Q 2188 391 2477 730 
Q 2766 1069 2766 1631 
L 2766 1759 
L 2194 1759 
z
M 3341 1997 
L 3341 0 
L 2766 0 
L 2766 531 
Q 2569 213 2275 61 
Q 1981 -91 1556 -91 
Q 1019 -91 701 211 
Q 384 513 384 1019 
Q 384 1609 779 1909 
Q 1175 2209 1959 2209 
L 2766 2209 
L 2766 2266 
Q 2766 2663 2505 2880 
Q 2244 3097 1772 3097 
Q 1472 3097 1187 3025 
Q 903 2953 641 2809 
L 641 3341 
Q 956 3463 1253 3523 
Q 1550 3584 1831 3584 
Q 2591 3584 2966 3190 
Q 3341 2797 3341 1997 
z
" transform="scale(0.015625)"/>
      <path id="DejaVuSans-76" d="M 191 3500 
L 800 3500 
L 1894 563 
L 2988 3500 
L 3597 3500 
L 2284 0 
L 1503 0 
L 191 3500 
z
" transform="scale(0.015625)"/>
      <path id="DejaVuSans-65" d="M 3597 1894 
L 3597 1613 
L 953 1613 
Q 991 1019 1311 708 
Q 1631 397 2203 397 
Q 2534 397 2845 478 
Q 3156 559 3463 722 
L 3463 178 
Q 3153 47 2828 -22 
Q 2503 -91 2169 -91 
Q 1331 -91 842 396 
Q 353 884 353 1716 
Q 353 2575 817 3079 
Q 1281 3584 2069 3584 
Q 2775 3584 3186 3129 
Q 3597 2675 3597 1894 
z
M 3022 2063 
Q 3016 2534 2758 2815 
Q 2500 3097 2075 3097 
Q 1594 3097 1305 2825 
Q 1016 2553 972 2059 
L 3022 2063 
z
" transform="scale(0.015625)"/>
      <path id="DejaVuSans-2d" d="M 313 2009 
L 1997 2009 
L 1997 1497 
L 313 1497 
L 313 2009 
z
" transform="scale(0.015625)"/>
      <path id="DejaVuSans-6c" d="M 603 4863 
L 1178 4863 
L 1178 0 
L 603 0 
L 603 4863 
z
" transform="scale(0.015625)"/>
      <path id="DejaVuSans-6b" d="M 581 4863 
L 1159 4863 
L 1159 1991 
L 2875 3500 
L 3609 3500 
L 1753 1863 
L 3688 0 
L 2938 0 
L 1159 1709 
L 1159 0 
L 581 0 
L 581 4863 
z
" transform="scale(0.015625)"/>
      <path id="DejaVuSans-62" d="M 3116 1747 
Q 3116 2381 2855 2742 
Q 2594 3103 2138 3103 
Q 1681 3103 1420 2742 
Q 1159 2381 1159 1747 
Q 1159 1113 1420 752 
Q 1681 391 2138 391 
Q 2594 391 2855 752 
Q 3116 1113 3116 1747 
z
M 1159 2969 
Q 1341 3281 1617 3432 
Q 1894 3584 2278 3584 
Q 2916 3584 3314 3078 
Q 3713 2572 3713 1747 
Q 3713 922 3314 415 
Q 2916 -91 2278 -91 
Q 1894 -91 1617 61 
Q 1341 213 1159 525 
L 1159 0 
L 581 0 
L 581 4863 
L 1159 4863 
L 1159 2969 
z
" transform="scale(0.015625)"/>
      <path id="DejaVuSans-72" d="M 2631 2963 
Q 2534 3019 2420 3045 
Q 2306 3072 2169 3072 
Q 1681 3072 1420 2755 
Q 1159 2438 1159 1844 
L 1159 0 
L 581 0 
L 581 3500 
L 1159 3500 
L 1159 2956 
Q 1341 3275 1631 3429 
Q 1922 3584 2338 3584 
Q 2397 3584 2469 3576 
Q 2541 3569 2628 3553 
L 2631 2963 
z
" transform="scale(0.015625)"/>
     </defs>
     <use xlink:href="#DejaVuSans-57"/>
     <use xlink:href="#DejaVuSans-61" transform="translate(92.501953 0)"/>
     <use xlink:href="#DejaVuSans-76" transform="translate(153.78125 0)"/>
     <use xlink:href="#DejaVuSans-65" transform="translate(212.960938 0)"/>
     <use xlink:href="#DejaVuSans-2d" transform="translate(274.484375 0)"/>
     <use xlink:href="#DejaVuSans-6c" transform="translate(310.568359 0)"/>
     <use xlink:href="#DejaVuSans-69" transform="translate(338.351562 0)"/>
     <use xlink:href="#DejaVuSans-6b" transform="translate(366.134766 0)"/>
     <use xlink:href="#DejaVuSans-65" transform="translate(420.419922 0)"/>
     <use xlink:href="#DejaVuSans-20" transform="translate(481.943359 0)"/>
     <use xlink:href="#DejaVuSans-62" transform="translate(513.730469 0)"/>
     <use xlink:href="#DejaVuSans-65" transform="translate(577.207031 0)"/>
     <use xlink:href="#DejaVuSans-68" transform="translate(638.730469 0)"/>
     <use xlink:href="#DejaVuSans-61" transform="translate(702.109375 0)"/>
     <use xlink:href="#DejaVuSans-76" transform="translate(763.388672 0)"/>
     <use xlink:href="#DejaVuSans-69" transform="translate(822.568359 0)"/>
     <use xlink:href="#DejaVuSans-6f" transform="translate(850.351562 0)"/>
     <use xlink:href="#DejaVuSans-72" transform="translate(911.533203 0)"/>
    </g>
   </g>
   <g id="text_5">
    <!-- Planck Scale -->
    <g style="fill: #2c3e50" transform="translate(558.375938 69.491146) scale(0.12 -0.12)">
     <defs>
      <path id="DejaVuSans-Bold-50" d="M 588 4666 
L 2584 4666 
Q 3475 4666 3951 4270 
Q 4428 3875 4428 3144 
Q 4428 2409 3951 2014 
Q 3475 1619 2584 1619 
L 1791 1619 
L 1791 0 
L 588 0 
L 588 4666 
z
M 1791 3794 
L 1791 2491 
L 2456 2491 
Q 2806 2491 2997 2661 
Q 3188 2831 3188 3144 
Q 3188 3456 2997 3625 
Q 2806 3794 2456 3794 
L 1791 3794 
z
" transform="scale(0.015625)"/>
      <path id="DejaVuSans-Bold-6c" d="M 538 4863 
L 1656 4863 
L 1656 0 
L 538 0 
L 538 4863 
z
" transform="scale(0.015625)"/>
      <path id="DejaVuSans-Bold-6b" d="M 538 4863 
L 1656 4863 
L 1656 2216 
L 2944 3500 
L 4244 3500 
L 2534 1894 
L 4378 0 
L 3022 0 
L 1656 1459 
L 1656 0 
L 538 0 
L 538 4863 
z
" transform="scale(0.015625)"/>
      <path id="DejaVuSans-Bold-20" transform="scale(0.015625)"/>
      <path id="DejaVuSans-Bold-53" d="M 3834 4519 
L 3834 3531 
Q 3450 3703 3084 3790 
Q 2719 3878 2394 3878 
Q 1963 3878 1756 3759 
Q 1550 3641 1550 3391 
Q 1550 3203 1689 3098 
Q 1828 2994 2194 2919 
L 2706 2816 
Q 3484 2659 3812 2340 
Q 4141 2022 4141 1434 
Q 4141 663 3683 286 
Q 3225 -91 2284 -91 
Q 1841 -91 1394 -6 
Q 947 78 500 244 
L 500 1259 
Q 947 1022 1364 901 
Q 1781 781 2169 781 
Q 2563 781 2772 912 
Q 2981 1044 2981 1288 
Q 2981 1506 2839 1625 
Q 2697 1744 2272 1838 
L 1806 1941 
Q 1106 2091 782 2419 
Q 459 2747 459 3303 
Q 459 4000 909 4375 
Q 1359 4750 2203 4750 
Q 2588 4750 2994 4692 
Q 3400 4634 3834 4519 
z
" transform="scale(0.015625)"/>
      <path id="DejaVuSans-Bold-65" d="M 4031 1759 
L 4031 1441 
L 1416 1441 
Q 1456 1047 1700 850 
Q 1944 653 2381 653 
Q 2734 653 3104 758 
Q 3475 863 3866 1075 
L 3866 213 
Q 3469 63 3072 -14 
Q 2675 -91 2278 -91 
Q 1328 -91 801 392 
Q 275 875 275 1747 
Q 275 2603 792 3093 
Q 1309 3584 2216 3584 
Q 3041 3584 3536 3087 
Q 4031 2591 4031 1759 
z
M 2881 2131 
Q 2881 2450 2695 2645 
Q 2509 2841 2209 2841 
Q 1884 2841 1681 2658 
Q 1478 2475 1428 2131 
L 2881 2131 
z
" transform="scale(0.015625)"/>
     </defs>
     <use xlink:href="#DejaVuSans-Bold-50"/>
     <use xlink:href="#DejaVuSans-Bold-6c" transform="translate(73.291016 0)"/>
     <use xlink:href="#DejaVuSans-Bold-61" transform="translate(107.568359 0)"/>
     <use xlink:href="#DejaVuSans-Bold-6e" transform="translate(175.048828 0)"/>
     <use xlink:href="#DejaVuSans-Bold-63" transform="translate(246.240234 0)"/>
     <use xlink:href="#DejaVuSans-Bold-6b" transform="translate(305.517578 0)"/>
     <use xlink:href="#DejaVuSans-Bold-20" transform="translate(372.021484 0)"/>
     <use xlink:href="#DejaVuSans-Bold-53" transform="translate(406.835938 0)"/>
     <use xlink:href="#DejaVuSans-Bold-63" transform="translate(478.857422 0)"/>
     <use xlink:href="#DejaVuSans-Bold-61" transform="translate(538.134766 0)"/>
     <use xlink:href="#DejaVuSans-Bold-6c" transform="translate(605.615234 0)"/>
     <use xlink:href="#DejaVuSans-Bold-65" transform="translate(639.892578 0)"/>
    </g>
   </g>
   <g id="text_6">
    <!-- Discrete voxels -->
    <g style="fill: #95a5a6" transform="translate(570.460625 164.451146) scale(0.08 -0.08)">
     <defs>
      <path id="DejaVuSans-44" d="M 1259 4147 
L 1259 519 
L 2022 519 
Q 2988 519 3436 956 
Q 3884 1394 3884 2338 
Q 3884 3275 3436 3711 
Q 2988 4147 2022 4147 
L 1259 4147 
z
M 628 4666 
L 1925 4666 
Q 3281 4666 3915 4102 
Q 4550 3538 4550 2338 
Q 4550 1131 3912 565 
Q 3275 0 1925 0 
L 628 0 
L 628 4666 
z
" transform="scale(0.015625)"/>
      <path id="DejaVuSans-78" d="M 3513 3500 
L 2247 1797 
L 3578 0 
L 2900 0 
L 1881 1375 
L 863 0 
L 184 0 
L 1544 1831 
L 300 3500 
L 978 3500 
L 1906 2253 
L 2834 3500 
L 3513 3500 
z
" transform="scale(0.015625)"/>
     </defs>
     <use xlink:href="#DejaVuSans-44"/>
     <use xlink:href="#DejaVuSans-69" transform="translate(77.001953 0)"/>
     <use xlink:href="#DejaVuSans-73" transform="translate(104.785156 0)"/>
     <use xlink:href="#DejaVuSans-63" transform="translate(156.884766 0)"/>
     <use xlink:href="#DejaVuSans-72" transform="translate(211.865234 0)"/>
     <use xlink:href="#DejaVuSans-65" transform="translate(250.728516 0)"/>
     <use xlink:href="#DejaVuSans-74" transform="translate(312.251953 0)"/>
     <use xlink:href="#DejaVuSans-65" transform="translate(351.460938 0)"/>
     <use xlink:href="#DejaVuSans-20" transform="translate(412.984375 0)"/>
     <use xlink:href="#DejaVuSans-76" transform="translate(444.771484 0)"/>
     <use xlink:href="#DejaVuSans-6f" transform="translate(503.951172 0)"/>
     <use xlink:href="#DejaVuSans-78" transform="translate(562.007812 0)"/>
     <use xlink:href="#DejaVuSans-65" transform="translate(618.0625 0)"/>
     <use xlink:href="#DejaVuSans-6c" transform="translate(679.585938 0)"/>
     <use xlink:href="#DejaVuSans-73" transform="translate(707.369141 0)"/>
    </g>
   </g>
   <g id="patch_33">
    <path d="M 204.754188 132.797813 
Q 227.196936 132.797813 247.962633 132.797813 
" style="fill: none; stroke: #2c3e50; stroke-width: 1.5; stroke-linecap: round"/>
    <path d="M 243.962633 130.797813 
L 247.962633 132.797813 
L 243.962633 134.797813 
" style="fill: none; stroke: #2c3e50; stroke-width: 1.5; stroke-linecap: round"/>
   </g>
   <g id="patch_34">
    <path d="M 449.194188 132.797813 
Q 471.636936 132.797813 492.402633 132.797813 
" style="fill: none; stroke: #2c3e50; stroke-width: 1.5; stroke-linecap: round"/>
    <path d="M 488.402633 130.797813 
L 492.402633 132.797813 
L 488.402633 134.797813 
" style="fill: none; stroke: #2c3e50; stroke-width: 1.5; stroke-linecap: round"/>
   </g>
   <g id="text_7">
    <!-- ~meters -->
    <g transform="translate(94.493125 215.096479) scale(0.08 -0.08)">
     <defs>
      <path id="DejaVuSans-7e" d="M 4684 2553 
L 4684 1997 
Q 4356 1750 4076 1644 
Q 3797 1538 3494 1538 
Q 3150 1538 2694 1722 
Q 2659 1734 2644 1741 
Q 2622 1750 2575 1766 
Q 2091 1959 1797 1959 
Q 1522 1959 1253 1839 
Q 984 1719 678 1459 
L 678 2016 
Q 1006 2263 1286 2370 
Q 1566 2478 1869 2478 
Q 2213 2478 2672 2291 
Q 2703 2278 2719 2272 
Q 2744 2263 2788 2247 
Q 3272 2053 3566 2053 
Q 3834 2053 4098 2172 
Q 4363 2291 4684 2553 
z
" transform="scale(0.015625)"/>
     </defs>
     <use xlink:href="#DejaVuSans-7e"/>
     <use xlink:href="#DejaVuSans-6d" transform="translate(83.789062 0)"/>
     <use xlink:href="#DejaVuSans-65" transform="translate(181.201172 0)"/>
     <use xlink:href="#DejaVuSans-74" transform="translate(242.724609 0)"/>
     <use xlink:href="#DejaVuSans-65" transform="translate(281.933594 0)"/>
     <use xlink:href="#DejaVuSans-72" transform="translate(343.457031 0)"/>
     <use xlink:href="#DejaVuSans-73" transform="translate(384.570312 0)"/>
    </g>
   </g>
   <g id="text_8">
    <!-- ~10 m -->
    <g transform="translate(337.471875 215.096479) scale(0.08 -0.08)">
     <defs>
      <path id="DejaVuSans-31" d="M 794 531 
L 1825 531 
L 1825 4091 
L 703 3866 
L 703 4441 
L 1819 4666 
L 2450 4666 
L 2450 531 
L 3481 531 
L 3481 0 
L 794 0 
L 794 531 
z
" transform="scale(0.015625)"/>
      <path id="DejaVuSans-30" d="M 2034 4250 
Q 1547 4250 1301 3770 
Q 1056 3291 1056 2328 
Q 1056 1369 1301 889 
Q 1547 409 2034 409 
Q 2525 409 2770 889 
Q 3016 1369 3016 2328 
Q 3016 3291 2770 3770 
Q 2525 4250 2034 4250 
z
M 2034 4750 
Q 2819 4750 3233 4129 
Q 3647 3509 3647 2328 
Q 3647 1150 3233 529 
Q 2819 -91 2034 -91 
Q 1250 -91 836 529 
Q 422 1150 422 2328 
Q 422 3509 836 4129 
Q 1250 4750 2034 4750 
z
" transform="scale(0.015625)"/>
      <path id="DejaVuSans-207b" d="M 428 3359 
L 2950 3359 
L 2950 3063 
L 428 3063 
L 428 3359 
z
" transform="scale(0.015625)"/>
      <path id="DejaVuSans-b9" d="M 488 2431 
L 1125 2431 
L 1125 4341 
L 428 4213 
L 428 4575 
L 1147 4697 
L 1575 4697 
L 1575 2431 
L 2216 2431 
L 2216 2088 
L 488 2088 
L 488 2431 
z
" transform="scale(0.015625)"/>
      <path id="DejaVuSans-2070" d="M 1781 4203 
Q 1625 4472 1309 4472 
Q 994 4472 838 4203 
Q 678 3934 678 3397 
Q 678 2856 838 2588 
Q 994 2319 1309 2319 
Q 1625 2319 1781 2588 
Q 1941 2856 1941 3397 
Q 1941 3934 1781 4203 
z
M 1309 4750 
Q 1813 4750 2078 4403 
Q 2344 4056 2344 3397 
Q 2344 2734 2078 2387 
Q 1813 2041 1309 2041 
Q 803 2041 537 2387 
Q 272 2734 272 3397 
Q 272 4056 537 4403 
Q 803 4750 1309 4750 
z
" transform="scale(0.015625)"/>
     </defs>
     <use xlink:href="#DejaVuSans-7e"/>
     <use xlink:href="#DejaVuSans-31" transform="translate(83.789062 0)"/>
     <use xlink:href="#DejaVuSans-30" transform="translate(147.412109 0)"/>
     <use xlink:href="#DejaVuSans-207b" transform="translate(211.035156 0)"/>
     <use xlink:href="#DejaVuSans-b9" transform="translate(263.818359 0)"/>
     <use xlink:href="#DejaVuSans-2070" transform="translate(303.90625 0)"/>
     <use xlink:href="#DejaVuSans-20" transform="translate(343.994141 0)"/>
     <use xlink:href="#DejaVuSans-6d" transform="translate(375.78125 0)"/>
    </g>
   </g>
   <g id="text_9">
    <!-- ~10 m -->
    <g transform="translate(581.911875 215.096479) scale(0.08 -0.08)">
     <defs>
      <path id="DejaVuSans-b3" d="M 1638 3500 
Q 1925 3444 2083 3273 
Q 2241 3103 2241 2847 
Q 2241 2459 1944 2250 
Q 1647 2041 1094 2041 
Q 916 2041 720 2073 
Q 525 2106 306 2169 
L 306 2547 
Q 469 2463 655 2422 
Q 841 2381 1050 2381 
Q 1391 2381 1578 2504 
Q 1766 2628 1766 2847 
Q 1766 3078 1592 3197 
Q 1419 3316 1081 3316 
L 813 3316 
L 813 3653 
L 1106 3653 
Q 1400 3653 1551 3751 
Q 1703 3850 1703 4038 
Q 1703 4219 1547 4314 
Q 1391 4409 1094 4409 
Q 969 4409 809 4381 
Q 650 4353 397 4281 
L 397 4641 
Q 625 4694 825 4722 
Q 1025 4750 1197 4750 
Q 1647 4750 1911 4565 
Q 2175 4381 2175 4072 
Q 2175 3856 2034 3706 
Q 1894 3556 1638 3500 
z
" transform="scale(0.015625)"/>
      <path id="DejaVuSans-2075" d="M 444 4697 
L 2038 4697 
L 2038 4400 
L 816 4400 
L 816 3763 
Q 903 3791 994 3803 
Q 1081 3816 1169 3816 
Q 1672 3816 1966 3575 
Q 2259 3338 2259 2928 
Q 2259 2506 1956 2272 
Q 1656 2041 1106 2041 
Q 919 2041 722 2069 
Q 525 2097 319 2153 
L 319 2506 
Q 497 2422 691 2378 
Q 884 2338 1100 2338 
Q 1447 2338 1650 2497 
Q 1853 2656 1853 2928 
Q 1853 3200 1650 3359 
Q 1447 3519 1100 3519 
Q 938 3519 775 3487 
Q 613 3456 444 3391 
L 444 4697 
z
" transform="scale(0.015625)"/>
     </defs>
     <use xlink:href="#DejaVuSans-7e"/>
     <use xlink:href="#DejaVuSans-31" transform="translate(83.789062 0)"/>
     <use xlink:href="#DejaVuSans-30" transform="translate(147.412109 0)"/>
     <use xlink:href="#DejaVuSans-207b" transform="translate(211.035156 0)"/>
     <use xlink:href="#DejaVuSans-b3" transform="translate(263.818359 0)"/>
     <use xlink:href="#DejaVuSans-2075" transform="translate(303.90625 0)"/>
     <use xlink:href="#DejaVuSans-20" transform="translate(343.994141 0)"/>
     <use xlink:href="#DejaVuSans-6d" transform="translate(375.78125 0)"/>
    </g>
   </g>
   <g id="text_10">
    <!-- The Discrete Lattice -->
    <g transform="translate(288.365625 278.403146) scale(0.12 -0.12)">
     <defs>
      <path id="DejaVuSans-Bold-54" d="M 31 4666 
L 4331 4666 
L 4331 3756 
L 2784 3756 
L 2784 0 
L 1581 0 
L 1581 3756 
L 31 3756 
L 31 4666 
z
" transform="scale(0.015625)"/>
      <path id="DejaVuSans-Bold-68" d="M 4056 2131 
L 4056 0 
L 2931 0 
L 2931 347 
L 2931 1625 
Q 2931 2084 2911 2256 
Q 2891 2428 2841 2509 
Q 2775 2619 2662 2680 
Q 2550 2741 2406 2741 
Q 2056 2741 1856 2470 
Q 1656 2200 1656 1722 
L 1656 0 
L 538 0 
L 538 4863 
L 1656 4863 
L 1656 2988 
Q 1909 3294 2193 3439 
Q 2478 3584 2822 3584 
Q 3428 3584 3742 3212 
Q 4056 2841 4056 2131 
z
" transform="scale(0.015625)"/>
      <path id="DejaVuSans-Bold-44" d="M 1791 3756 
L 1791 909 
L 2222 909 
Q 2959 909 3348 1275 
Q 3738 1641 3738 2338 
Q 3738 3031 3350 3393 
Q 2963 3756 2222 3756 
L 1791 3756 
z
M 588 4666 
L 1856 4666 
Q 2919 4666 3439 4514 
Q 3959 4363 4331 4000 
Q 4659 3684 4818 3271 
Q 4978 2859 4978 2338 
Q 4978 1809 4818 1395 
Q 4659 981 4331 666 
Q 3956 303 3431 151 
Q 2906 0 1856 0 
L 588 0 
L 588 4666 
z
" transform="scale(0.015625)"/>
      <path id="DejaVuSans-Bold-4c" d="M 588 4666 
L 1791 4666 
L 1791 909 
L 3903 909 
L 3903 0 
L 588 0 
L 588 4666 
z
" transform="scale(0.015625)"/>
     </defs>
     <use xlink:href="#DejaVuSans-Bold-54"/>
     <use xlink:href="#DejaVuSans-Bold-68" transform="translate(68.212891 0)"/>
     <use xlink:href="#DejaVuSans-Bold-65" transform="translate(139.404297 0)"/>
     <use xlink:href="#DejaVuSans-Bold-20" transform="translate(207.226562 0)"/>
     <use xlink:href="#DejaVuSans-Bold-44" transform="translate(242.041016 0)"/>
     <use xlink:href="#DejaVuSans-Bold-69" transform="translate(325.048828 0)"/>
     <use xlink:href="#DejaVuSans-Bold-73" transform="translate(359.326172 0)"/>
     <use xlink:href="#DejaVuSans-Bold-63" transform="translate(418.847656 0)"/>
     <use xlink:href="#DejaVuSans-Bold-72" transform="translate(478.125 0)"/>
     <use xlink:href="#DejaVuSans-Bold-65" transform="translate(527.441406 0)"/>
     <use xlink:href="#DejaVuSans-Bold-74" transform="translate(595.263672 0)"/>
     <use xlink:href="#DejaVuSans-Bold-65" transform="translate(643.066406 0)"/>
     <use xlink:href="#DejaVuSans-Bold-20" transform="translate(710.888672 0)"/>
     <use xlink:href="#DejaVuSans-Bold-4c" transform="translate(745.703125 0)"/>
     <use xlink:href="#DejaVuSans-Bold-61" transform="translate(809.423828 0)"/>
     <use xlink:href="#DejaVuSans-Bold-74" transform="translate(876.904297 0)"/>
     <use xlink:href="#DejaVuSans-Bold-74" transform="translate(924.707031 0)"/>
     <use xlink:href="#DejaVuSans-Bold-69" transform="translate(972.509766 0)"/>
     <use xlink:href="#DejaVuSans-Bold-63" transform="translate(1006.787109 0)"/>
     <use xlink:href="#DejaVuSans-Bold-65" transform="translate(1066.064453 0)"/>
    </g>
   </g>
   <g id="text_11">
    <!-- -1 -->
    <g style="fill: #ffffff" transform="translate(142.891875 305.933312) scale(0.08 -0.08)">
     <use xlink:href="#DejaVuSans-2d"/>
     <use xlink:href="#DejaVuSans-31" transform="translate(36.083984 0)"/>
    </g>
   </g>
   <g id="text_12">
    <!-- -1 -->
    <g style="fill: #ffffff" transform="translate(198.763875 305.933312) scale(0.08 -0.08)">
     <use xlink:href="#DejaVuSans-2d"/>
     <use xlink:href="#DejaVuSans-31" transform="translate(36.083984 0)"/>
    </g>
   </g>
   <g id="text_13">
    <!-- -1 -->
    <g style="fill: #ffffff" transform="translate(254.635875 356.578646) scale(0.08 -0.08)">
     <use xlink:href="#DejaVuSans-2d"/>
     <use xlink:href="#DejaVuSans-31" transform="translate(36.083984 0)"/>
    </g>
   </g>
   <g id="text_14">
    <!-- +1 -->
    <g style="fill: #ffffff" transform="translate(252.727125 305.933312) scale(0.08 -0.08)">
     <defs>
      <path id="DejaVuSans-2b" d="M 2944 4013 
L 2944 2272 
L 4684 2272 
L 4684 1741 
L 2944 1741 
L 2944 0 
L 2419 0 
L 2419 1741 
L 678 1741 
L 678 2272 
L 2419 2272 
L 2419 4013 
L 2944 4013 
z
" transform="scale(0.015625)"/>
     </defs>
     <use xlink:href="#DejaVuSans-2b"/>
     <use xlink:href="#DejaVuSans-31" transform="translate(83.789062 0)"/>
    </g>
   </g>
   <g id="text_15">
    <!-- +1 -->
    <g style="fill: #ffffff" transform="translate(308.599125 305.933312) scale(0.08 -0.08)">
     <use xlink:href="#DejaVuSans-2b"/>
     <use xlink:href="#DejaVuSans-31" transform="translate(83.789062 0)"/>
    </g>
   </g>
   <g id="text_16">
    <!-- -1 -->
    <g style="fill: #ffffff" transform="translate(366.379875 305.933312) scale(0.08 -0.08)">
     <use xlink:href="#DejaVuSans-2d"/>
     <use xlink:href="#DejaVuSans-31" transform="translate(36.083984 0)"/>
    </g>
   </g>
   <g id="text_17">
    <!-- +1 -->
    <g style="fill: #ffffff" transform="translate(420.343125 356.578646) scale(0.08 -0.08)">
     <use xlink:href="#DejaVuSans-2b"/>
     <use xlink:href="#DejaVuSans-31" transform="translate(83.789062 0)"/>
    </g>
   </g>
   <g id="text_18">
    <!-- +1 -->
    <g style="fill: #ffffff" transform="translate(420.343125 305.933312) scale(0.08 -0.08)">
     <use xlink:href="#DejaVuSans-2b"/>
     <use xlink:href="#DejaVuSans-31" transform="translate(83.789062 0)"/>
    </g>
   </g>
   <g id="text_19">
    <!-- -1 -->
    <g style="fill: #ffffff" transform="translate(478.123875 305.933312) scale(0.08 -0.08)">
     <use xlink:href="#DejaVuSans-2d"/>
     <use xlink:href="#DejaVuSans-31" transform="translate(36.083984 0)"/>
    </g>
   </g>
   <g id="text_20">
    <!-- -1 -->
    <g style="fill: #ffffff" transform="translate(533.995875 356.578646) scale(0.08 -0.08)">
     <use xlink:href="#DejaVuSans-2d"/>
     <use xlink:href="#DejaVuSans-31" transform="translate(36.083984 0)"/>
    </g>
   </g>
   <g id="text_21">
    <!-- Zooming Into Discrete Structure -->
    <g transform="translate(243.725156 17.837812) scale(0.14 -0.14)">
     <defs>
      <path id="DejaVuSans-5a" d="M 359 4666 
L 4025 4666 
L 4025 4184 
L 1075 531 
L 4097 531 
L 4097 0 
L 288 0 
L 288 481 
L 3238 4134 
L 359 4134 
L 359 4666 
z
" transform="scale(0.015625)"/>
      <path id="DejaVuSans-67" d="M 2906 1791 
Q 2906 2416 2648 2759 
Q 2391 3103 1925 3103 
Q 1463 3103 1205 2759 
Q 947 2416 947 1791 
Q 947 1169 1205 825 
Q 1463 481 1925 481 
Q 2391 481 2648 825 
Q 2906 1169 2906 1791 
z
M 3481 434 
Q 3481 -459 3084 -895 
Q 2688 -1331 1869 -1331 
Q 1566 -1331 1297 -1286 
Q 1028 -1241 775 -1147 
L 775 -588 
Q 1028 -725 1275 -790 
Q 1522 -856 1778 -856 
Q 2344 -856 2625 -561 
Q 2906 -266 2906 331 
L 2906 616 
Q 2728 306 2450 153 
Q 2172 0 1784 0 
Q 1141 0 747 490 
Q 353 981 353 1791 
Q 353 2603 747 3093 
Q 1141 3584 1784 3584 
Q 2172 3584 2450 3431 
Q 2728 3278 2906 2969 
L 2906 3500 
L 3481 3500 
L 3481 434 
z
" transform="scale(0.015625)"/>
      <path id="DejaVuSans-49" d="M 628 4666 
L 1259 4666 
L 1259 0 
L 628 0 
L 628 4666 
z
" transform="scale(0.015625)"/>
     </defs>
     <use xlink:href="#DejaVuSans-5a"/>
     <use xlink:href="#DejaVuSans-6f" transform="translate(68.505859 0)"/>
     <use xlink:href="#DejaVuSans-6f" transform="translate(129.6875 0)"/>
     <use xlink:href="#DejaVuSans-6d" transform="translate(190.869141 0)"/>
     <use xlink:href="#DejaVuSans-69" transform="translate(288.28125 0)"/>
     <use xlink:href="#DejaVuSans-6e" transform="translate(316.064453 0)"/>
     <use xlink:href="#DejaVuSans-67" transform="translate(379.443359 0)"/>
     <use xlink:href="#DejaVuSans-20" transform="translate(442.919922 0)"/>
     <use xlink:href="#DejaVuSans-49" transform="translate(474.707031 0)"/>
     <use xlink:href="#DejaVuSans-6e" transform="translate(504.199219 0)"/>
     <use xlink:href="#DejaVuSans-74" transform="translate(567.578125 0)"/>
     <use xlink:href="#DejaVuSans-6f" transform="translate(606.787109 0)"/>
     <use xlink:href="#DejaVuSans-20" transform="translate(667.96875 0)"/>
     <use xlink:href="#DejaVuSans-44" transform="translate(699.755859 0)"/>
     <use xlink:href="#DejaVuSans-69" transform="translate(776.757812 0)"/>
     <use xlink:href="#DejaVuSans-73" transform="translate(804.541016 0)"/>
     <use xlink:href="#DejaVuSans-63" transform="translate(856.640625 0)"/>
     <use xlink:href="#DejaVuSans-72" transform="translate(911.621094 0)"/>
     <use xlink:href="#DejaVuSans-65" transform="translate(950.484375 0)"/>
     <use xlink:href="#DejaVuSans-74" transform="translate(1012.007812 0)"/>
     <use xlink:href="#DejaVuSans-65" transform="translate(1051.216797 0)"/>
     <use xlink:href="#DejaVuSans-20" transform="translate(1112.740234 0)"/>
     <use xlink:href="#DejaVuSans-53" transform="translate(1144.527344 0)"/>
     <use xlink:href="#DejaVuSans-74" transform="translate(1208.003906 0)"/>
     <use xlink:href="#DejaVuSans-72" transform="translate(1247.212891 0)"/>
     <use xlink:href="#DejaVuSans-75" transform="translate(1288.326172 0)"/>
     <use xlink:href="#DejaVuSans-63" transform="translate(1351.705078 0)"/>
     <use xlink:href="#DejaVuSans-74" transform="translate(1406.685547 0)"/>
     <use xlink:href="#DejaVuSans-75" transform="translate(1445.894531 0)"/>
     <use xlink:href="#DejaVuSans-72" transform="translate(1509.273438 0)"/>
     <use xlink:href="#DejaVuSans-65" transform="translate(1548.136719 0)"/>
    </g>
   </g>
  </g>
 </g>
 <defs>
  <clipPath id="p0cf886e09d">
   <rect x="7.2" y="37.837812" width="698.4" height="379.84"/>
  </clipPath>
 </defs>
</svg>
