<?xml version="1.0" encoding="utf-8" standalone="no"?>
<!DOCTYPE svg PUBLIC "-//W3C//DTD SVG 1.1//EN"
  "http://www.w3.org/Graphics/SVG/1.1/DTD/svg11.dtd">
<svg xmlns:xlink="http://www.w3.org/1999/xlink" width="856.8pt" height="360.38075pt" viewBox="0 0 856.8 360.38075" xmlns="http://www.w3.org/2000/svg" version="1.1">
 <metadata>
  <rdf:RDF xmlns:dc="http://purl.org/dc/elements/1.1/" xmlns:cc="http://creativecommons.org/ns#" xmlns:rdf="http://www.w3.org/1999/02/22-rdf-syntax-ns#">
   <cc:Work>
    <dc:type rdf:resource="http://purl.org/dc/dcmitype/StillImage"/>
    <dc:date>2026-01-02T19:17:48.276202</dc:date>
    <dc:format>image/svg+xml</dc:format>
    <dc:creator>
     <cc:Agent>
      <dc:title>Matplotlib v3.10.8, https://matplotlib.org/</dc:title>
     </cc:Agent>
    </dc:creator>
   </cc:Work>
  </rdf:RDF>
 </metadata>
 <defs>
  <style type="text/css">*{stroke-linejoin: round; stroke-linecap: butt}</style>
 </defs>
 <g id="figure_1">
  <g id="patch_1">
   <path d="M 0 360.38075 
L 856.8 360.38075 
L 856.8 -0 
L 0 -0 
z
" style="fill: #ffffff"/>
  </g>
  <g id="axes_1">
   <g id="patch_2">
    <path d="M 41.4 322.8 
C 45.027978 322.8 48.507853 321.358589 51.073221 318.793221 
C 53.638589 316.227853 55.08 312.747978 55.08 309.12 
C 55.08 305.492022 53.638589 302.012147 51.073221 299.446779 
C 48.507853 296.881411 45.027978 295.44 41.4 295.44 
C 37.772022 295.44 34.292147 296.881411 31.726779 299.446779 
C 29.161411 302.012147 27.72 305.492022 27.72 309.12 
C 27.72 312.747978 29.161411 316.227853 31.726779 318.793221 
C 34.292147 321.358589 37.772022 322.8 41.4 322.8 
z
" clip-path="url(#pb47d2a7b66)" style="fill: #f39c12; opacity: 0.304444; stroke: #f39c12; stroke-width: 1.5; stroke-linejoin: miter"/>
   </g>
   <g id="patch_3">
    <path d="M 41.4 271.5 
C 45.027978 271.5 48.507853 270.058589 51.073221 267.493221 
C 53.638589 264.927853 55.08 261.447978 55.08 257.82 
C 55.08 254.192022 53.638589 250.712147 51.073221 248.146779 
C 48.507853 245.581411 45.027978 244.14 41.4 244.14 
C 37.772022 244.14 34.292147 245.581411 31.726779 248.146779 
C 29.161411 250.712147 27.72 254.192022 27.72 257.82 
C 27.72 261.447978 29.161411 264.927853 31.726779 267.493221 
C 34.292147 270.058589 37.772022 271.5 41.4 271.5 
z
" clip-path="url(#pb47d2a7b66)" style="fill: #f39c12; opacity: 0.324022; stroke: #f39c12; stroke-width: 1.5; stroke-linejoin: miter"/>
   </g>
   <g id="patch_4">
    <path d="M 41.4 220.2 
C 45.027978 220.2 48.507853 218.758589 51.073221 216.193221 
C 53.638589 213.627853 55.08 210.147978 55.08 206.52 
C 55.08 202.892022 53.638589 199.412147 51.073221 196.846779 
C 48.507853 194.281411 45.027978 192.84 41.4 192.84 
C 37.772022 192.84 34.292147 194.281411 31.726779 196.846779 
C 29.161411 199.412147 27.72 202.892022 27.72 206.52 
C 27.72 210.147978 29.161411 213.627853 31.726779 216.193221 
C 34.292147 218.758589 37.772022 220.2 41.4 220.2 
z
" clip-path="url(#pb47d2a7b66)" style="fill: #f39c12; opacity: 0.34216; stroke: #f39c12; stroke-width: 1.5; stroke-linejoin: miter"/>
   </g>
   <g id="patch_5">
    <path d="M 41.4 168.9 
C 45.027978 168.9 48.507853 167.458589 51.073221 164.893221 
C 53.638589 162.327853 55.08 158.847978 55.08 155.22 
C 55.08 151.592022 53.638589 148.112147 51.073221 145.546779 
C 48.507853 142.981411 45.027978 141.54 41.4 141.54 
C 37.772022 141.54 34.292147 142.981411 31.726779 145.546779 
C 29.161411 148.112147 27.72 151.592022 27.72 155.22 
C 27.72 158.847978 29.161411 162.327853 31.726779 164.893221 
C 34.292147 167.458589 37.772022 168.9 41.4 168.9 
z
" clip-path="url(#pb47d2a7b66)" style="fill: #f39c12; opacity: 0.324022; stroke: #f39c12; stroke-width: 1.5; stroke-linejoin: miter"/>
   </g>
   <g id="patch_6">
    <path d="M 41.4 117.6 
C 45.027978 117.6 48.507853 116.158589 51.073221 113.593221 
C 53.638589 111.027853 55.08 107.547978 55.08 103.92 
C 55.08 100.292022 53.638589 96.812147 51.073221 94.246779 
C 48.507853 91.681411 45.027978 90.24 41.4 90.24 
C 37.772022 90.24 34.292147 91.681411 31.726779 94.246779 
C 29.161411 96.812147 27.72 100.292022 27.72 103.92 
C 27.72 107.547978 29.161411 111.027853 31.726779 113.593221 
C 34.292147 116.158589 37.772022 117.6 41.4 117.6 
z
" clip-path="url(#pb47d2a7b66)" style="fill: #f39c12; opacity: 0.304444; stroke: #f39c12; stroke-width: 1.5; stroke-linejoin: miter"/>
   </g>
   <g id="patch_7">
    <path d="M 92.7 322.8 
C 96.327978 322.8 99.807853 321.358589 102.373221 318.793221 
C 104.938589 316.227853 106.38 312.747978 106.38 309.12 
C 106.38 305.492022 104.938589 302.012147 102.373221 299.446779 
C 99.807853 296.881411 96.327978 295.44 92.7 295.44 
C 89.072022 295.44 85.592147 296.881411 83.026779 299.446779 
C 80.461411 302.012147 79.02 305.492022 79.02 309.12 
C 79.02 312.747978 80.461411 316.227853 83.026779 318.793221 
C 85.592147 321.358589 89.072022 322.8 92.7 322.8 
z
" clip-path="url(#pb47d2a7b66)" style="fill: #f39c12; opacity: 0.324022; stroke: #f39c12; stroke-width: 1.5; stroke-linejoin: miter"/>
   </g>
   <g id="patch_8">
    <path d="M 92.7 271.5 
C 96.327978 271.5 99.807853 270.058589 102.373221 267.493221 
C 104.938589 264.927853 106.38 261.447978 106.38 257.82 
C 106.38 254.192022 104.938589 250.712147 102.373221 248.146779 
C 99.807853 245.581411 96.327978 244.14 92.7 244.14 
C 89.072022 244.14 85.592147 245.581411 83.026779 248.146779 
C 80.461411 250.712147 79.02 254.192022 79.02 257.82 
C 79.02 261.447978 80.461411 264.927853 83.026779 267.493221 
C 85.592147 270.058589 89.072022 271.5 92.7 271.5 
z
" clip-path="url(#pb47d2a7b66)" style="fill: #f39c12; opacity: 0.429861; stroke: #f39c12; stroke-width: 1.5; stroke-linejoin: miter"/>
   </g>
   <g id="patch_9">
    <path d="M 92.7 220.2 
C 96.327978 220.2 99.807853 218.758589 102.373221 216.193221 
C 104.938589 213.627853 106.38 210.147978 106.38 206.52 
C 106.38 202.892022 104.938589 199.412147 102.373221 196.846779 
C 99.807853 194.281411 96.327978 192.84 92.7 192.84 
C 89.072022 192.84 85.592147 194.281411 83.026779 196.846779 
C 80.461411 199.412147 79.02 202.892022 79.02 206.52 
C 79.02 210.147978 80.461411 213.627853 83.026779 216.193221 
C 85.592147 218.758589 89.072022 220.2 92.7 220.2 
z
" clip-path="url(#pb47d2a7b66)" style="fill: #f39c12; opacity: 0.527913; stroke: #f39c12; stroke-width: 1.5; stroke-linejoin: miter"/>
   </g>
   <g id="patch_10">
    <path d="M 92.7 168.9 
C 96.327978 168.9 99.807853 167.458589 102.373221 164.893221 
C 104.938589 162.327853 106.38 158.847978 106.38 155.22 
C 106.38 151.592022 104.938589 148.112147 102.373221 145.546779 
C 99.807853 142.981411 96.327978 141.54 92.7 141.54 
C 89.072022 141.54 85.592147 142.981411 83.026779 145.546779 
C 80.461411 148.112147 79.02 151.592022 79.02 155.22 
C 79.02 158.847978 80.461411 162.327853 83.026779 164.893221 
C 85.592147 167.458589 89.072022 168.9 92.7 168.9 
z
" clip-path="url(#pb47d2a7b66)" style="fill: #f39c12; opacity: 0.429861; stroke: #f39c12; stroke-width: 1.5; stroke-linejoin: miter"/>
   </g>
   <g id="patch_11">
    <path d="M 92.7 117.6 
C 96.327978 117.6 99.807853 116.158589 102.373221 113.593221 
C 104.938589 111.027853 106.38 107.547978 106.38 103.92 
C 106.38 100.292022 104.938589 96.812147 102.373221 94.246779 
C 99.807853 91.681411 96.327978 90.24 92.7 90.24 
C 89.072022 90.24 85.592147 91.681411 83.026779 94.246779 
C 80.461411 96.812147 79.02 100.292022 79.02 103.92 
C 79.02 107.547978 80.461411 111.027853 83.026779 113.593221 
C 85.592147 116.158589 89.072022 117.6 92.7 117.6 
z
" clip-path="url(#pb47d2a7b66)" style="fill: #f39c12; opacity: 0.324022; stroke: #f39c12; stroke-width: 1.5; stroke-linejoin: miter"/>
   </g>
   <g id="patch_12">
    <path d="M 144 322.8 
C 147.627978 322.8 151.107853 321.358589 153.673221 318.793221 
C 156.238589 316.227853 157.68 312.747978 157.68 309.12 
C 157.68 305.492022 156.238589 302.012147 153.673221 299.446779 
C 151.107853 296.881411 147.627978 295.44 144 295.44 
C 140.372022 295.44 136.892147 296.881411 134.326779 299.446779 
C 131.761411 302.012147 130.32 305.492022 130.32 309.12 
C 130.32 312.747978 131.761411 316.227853 134.326779 318.793221 
C 136.892147 321.358589 140.372022 322.8 144 322.8 
z
" clip-path="url(#pb47d2a7b66)" style="fill: #f39c12; opacity: 0.34216; stroke: #f39c12; stroke-width: 1.5; stroke-linejoin: miter"/>
   </g>
   <g id="patch_13">
    <path d="M 144 271.5 
C 147.627978 271.5 151.107853 270.058589 153.673221 267.493221 
C 156.238589 264.927853 157.68 261.447978 157.68 257.82 
C 157.68 254.192022 156.238589 250.712147 153.673221 248.146779 
C 151.107853 245.581411 147.627978 244.14 144 244.14 
C 140.372022 244.14 136.892147 245.581411 134.326779 248.146779 
C 131.761411 250.712147 130.32 254.192022 130.32 257.82 
C 130.32 261.447978 131.761411 264.927853 134.326779 267.493221 
C 136.892147 270.058589 140.372022 271.5 144 271.5 
z
" clip-path="url(#pb47d2a7b66)" style="fill: #f39c12; opacity: 0.527913; stroke: #f39c12; stroke-width: 1.5; stroke-linejoin: miter"/>
   </g>
   <g id="patch_14">
    <path d="M 144 220.2 
C 147.627978 220.2 151.107853 218.758589 153.673221 216.193221 
C 156.238589 213.627853 157.68 210.147978 157.68 206.52 
C 157.68 202.892022 156.238589 199.412147 153.673221 196.846779 
C 151.107853 194.281411 147.627978 192.84 144 192.84 
C 140.372022 192.84 136.892147 194.281411 134.326779 196.846779 
C 131.761411 199.412147 130.32 202.892022 130.32 206.52 
C 130.32 210.147978 131.761411 213.627853 134.326779 216.193221 
C 136.892147 218.758589 140.372022 220.2 144 220.2 
z
" clip-path="url(#pb47d2a7b66)" style="fill: #f39c12; opacity: 0.7; stroke: #f39c12; stroke-width: 1.5; stroke-linejoin: miter"/>
   </g>
   <g id="patch_15">
    <path d="M 144 168.9 
C 147.627978 168.9 151.107853 167.458589 153.673221 164.893221 
C 156.238589 162.327853 157.68 158.847978 157.68 155.22 
C 157.68 151.592022 156.238589 148.112147 153.673221 145.546779 
C 151.107853 142.981411 147.627978 141.54 144 141.54 
C 140.372022 141.54 136.892147 142.981411 134.326779 145.546779 
C 131.761411 148.112147 130.32 151.592022 130.32 155.22 
C 130.32 158.847978 131.761411 162.327853 134.326779 164.893221 
C 136.892147 167.458589 140.372022 168.9 144 168.9 
z
" clip-path="url(#pb47d2a7b66)" style="fill: #f39c12; opacity: 0.527913; stroke: #f39c12; stroke-width: 1.5; stroke-linejoin: miter"/>
   </g>
   <g id="patch_16">
    <path d="M 144 117.6 
C 147.627978 117.6 151.107853 116.158589 153.673221 113.593221 
C 156.238589 111.027853 157.68 107.547978 157.68 103.92 
C 157.68 100.292022 156.238589 96.812147 153.673221 94.246779 
C 151.107853 91.681411 147.627978 90.24 144 90.24 
C 140.372022 90.24 136.892147 91.681411 134.326779 94.246779 
C 131.761411 96.812147 130.32 100.292022 130.32 103.92 
C 130.32 107.547978 131.761411 111.027853 134.326779 113.593221 
C 136.892147 116.158589 140.372022 117.6 144 117.6 
z
" clip-path="url(#pb47d2a7b66)" style="fill: #f39c12; opacity: 0.34216; stroke: #f39c12; stroke-width: 1.5; stroke-linejoin: miter"/>
   </g>
   <g id="patch_17">
    <path d="M 195.3 322.8 
C 198.927978 322.8 202.407853 321.358589 204.973221 318.793221 
C 207.538589 316.227853 208.98 312.747978 208.98 309.12 
C 208.98 305.492022 207.538589 302.012147 204.973221 299.446779 
C 202.407853 296.881411 198.927978 295.44 195.3 295.44 
C 191.672022 295.44 188.192147 296.881411 185.626779 299.446779 
C 183.061411 302.012147 181.62 305.492022 181.62 309.12 
C 181.62 312.747978 183.061411 316.227853 185.626779 318.793221 
C 188.192147 321.358589 191.672022 322.8 195.3 322.8 
z
" clip-path="url(#pb47d2a7b66)" style="fill: #f39c12; opacity: 0.324022; stroke: #f39c12; stroke-width: 1.5; stroke-linejoin: miter"/>
   </g>
   <g id="patch_18">
    <path d="M 195.3 271.5 
C 198.927978 271.5 202.407853 270.058589 204.973221 267.493221 
C 207.538589 264.927853 208.98 261.447978 208.98 257.82 
C 208.98 254.192022 207.538589 250.712147 204.973221 248.146779 
C 202.407853 245.581411 198.927978 244.14 195.3 244.14 
C 191.672022 244.14 188.192147 245.581411 185.626779 248.146779 
C 183.061411 250.712147 181.62 254.192022 181.62 257.82 
C 181.62 261.447978 183.061411 264.927853 185.626779 267.493221 
C 188.192147 270.058589 191.672022 271.5 195.3 271.5 
z
" clip-path="url(#pb47d2a7b66)" style="fill: #f39c12; opacity: 0.429861; stroke: #f39c12; stroke-width: 1.5; stroke-linejoin: miter"/>
   </g>
   <g id="patch_19">
    <path d="M 195.3 220.2 
C 198.927978 220.2 202.407853 218.758589 204.973221 216.193221 
C 207.538589 213.627853 208.98 210.147978 208.98 206.52 
C 208.98 202.892022 207.538589 199.412147 204.973221 196.846779 
C 202.407853 194.281411 198.927978 192.84 195.3 192.84 
C 191.672022 192.84 188.192147 194.281411 185.626779 196.846779 
C 183.061411 199.412147 181.62 202.892022 181.62 206.52 
C 181.62 210.147978 183.061411 213.627853 185.626779 216.193221 
C 188.192147 218.758589 191.672022 220.2 195.3 220.2 
z
" clip-path="url(#pb47d2a7b66)" style="fill: #f39c12; opacity: 0.527913; stroke: #f39c12; stroke-width: 1.5; stroke-linejoin: miter"/>
   </g>
   <g id="patch_20">
    <path d="M 195.3 168.9 
C 198.927978 168.9 202.407853 167.458589 204.973221 164.893221 
C 207.538589 162.327853 208.98 158.847978 208.98 155.22 
C 208.98 151.592022 207.538589 148.112147 204.973221 145.546779 
C 202.407853 142.981411 198.927978 141.54 195.3 141.54 
C 191.672022 141.54 188.192147 142.981411 185.626779 145.546779 
C 183.061411 148.112147 181.62 151.592022 181.62 155.22 
C 181.62 158.847978 183.061411 162.327853 185.626779 164.893221 
C 188.192147 167.458589 191.672022 168.9 195.3 168.9 
z
" clip-path="url(#pb47d2a7b66)" style="fill: #f39c12; opacity: 0.429861; stroke: #f39c12; stroke-width: 1.5; stroke-linejoin: miter"/>
   </g>
   <g id="patch_21">
    <path d="M 195.3 117.6 
C 198.927978 117.6 202.407853 116.158589 204.973221 113.593221 
C 207.538589 111.027853 208.98 107.547978 208.98 103.92 
C 208.98 100.292022 207.538589 96.812147 204.973221 94.246779 
C 202.407853 91.681411 198.927978 90.24 195.3 90.24 
C 191.672022 90.24 188.192147 91.681411 185.626779 94.246779 
C 183.061411 96.812147 181.62 100.292022 181.62 103.92 
C 181.62 107.547978 183.061411 111.027853 185.626779 113.593221 
C 188.192147 116.158589 191.672022 117.6 195.3 117.6 
z
" clip-path="url(#pb47d2a7b66)" style="fill: #f39c12; opacity: 0.324022; stroke: #f39c12; stroke-width: 1.5; stroke-linejoin: miter"/>
   </g>
   <g id="patch_22">
    <path d="M 246.6 322.8 
C 250.227978 322.8 253.707853 321.358589 256.273221 318.793221 
C 258.838589 316.227853 260.28 312.747978 260.28 309.12 
C 260.28 305.492022 258.838589 302.012147 256.273221 299.446779 
C 253.707853 296.881411 250.227978 295.44 246.6 295.44 
C 242.972022 295.44 239.492147 296.881411 236.926779 299.446779 
C 234.361411 302.012147 232.92 305.492022 232.92 309.12 
C 232.92 312.747978 234.361411 316.227853 236.926779 318.793221 
C 239.492147 321.358589 242.972022 322.8 246.6 322.8 
z
" clip-path="url(#pb47d2a7b66)" style="fill: #f39c12; opacity: 0.304444; stroke: #f39c12; stroke-width: 1.5; stroke-linejoin: miter"/>
   </g>
   <g id="patch_23">
    <path d="M 246.6 271.5 
C 250.227978 271.5 253.707853 270.058589 256.273221 267.493221 
C 258.838589 264.927853 260.28 261.447978 260.28 257.82 
C 260.28 254.192022 258.838589 250.712147 256.273221 248.146779 
C 253.707853 245.581411 250.227978 244.14 246.6 244.14 
C 242.972022 244.14 239.492147 245.581411 236.926779 248.146779 
C 234.361411 250.712147 232.92 254.192022 232.92 257.82 
C 232.92 261.447978 234.361411 264.927853 236.926779 267.493221 
C 239.492147 270.058589 242.972022 271.5 246.6 271.5 
z
" clip-path="url(#pb47d2a7b66)" style="fill: #f39c12; opacity: 0.324022; stroke: #f39c12; stroke-width: 1.5; stroke-linejoin: miter"/>
   </g>
   <g id="patch_24">
    <path d="M 246.6 220.2 
C 250.227978 220.2 253.707853 218.758589 256.273221 216.193221 
C 258.838589 213.627853 260.28 210.147978 260.28 206.52 
C 260.28 202.892022 258.838589 199.412147 256.273221 196.846779 
C 253.707853 194.281411 250.227978 192.84 246.6 192.84 
C 242.972022 192.84 239.492147 194.281411 236.926779 196.846779 
C 234.361411 199.412147 232.92 202.892022 232.92 206.52 
C 232.92 210.147978 234.361411 213.627853 236.926779 216.193221 
C 239.492147 218.758589 242.972022 220.2 246.6 220.2 
z
" clip-path="url(#pb47d2a7b66)" style="fill: #f39c12; opacity: 0.34216; stroke: #f39c12; stroke-width: 1.5; stroke-linejoin: miter"/>
   </g>
   <g id="patch_25">
    <path d="M 246.6 168.9 
C 250.227978 168.9 253.707853 167.458589 256.273221 164.893221 
C 258.838589 162.327853 260.28 158.847978 260.28 155.22 
C 260.28 151.592022 258.838589 148.112147 256.273221 145.546779 
C 253.707853 142.981411 250.227978 141.54 246.6 141.54 
C 242.972022 141.54 239.492147 142.981411 236.926779 145.546779 
C 234.361411 148.112147 232.92 151.592022 232.92 155.22 
C 232.92 158.847978 234.361411 162.327853 236.926779 164.893221 
C 239.492147 167.458589 242.972022 168.9 246.6 168.9 
z
" clip-path="url(#pb47d2a7b66)" style="fill: #f39c12; opacity: 0.324022; stroke: #f39c12; stroke-width: 1.5; stroke-linejoin: miter"/>
   </g>
   <g id="patch_26">
    <path d="M 246.6 117.6 
C 250.227978 117.6 253.707853 116.158589 256.273221 113.593221 
C 258.838589 111.027853 260.28 107.547978 260.28 103.92 
C 260.28 100.292022 258.838589 96.812147 256.273221 94.246779 
C 253.707853 91.681411 250.227978 90.24 246.6 90.24 
C 242.972022 90.24 239.492147 91.681411 236.926779 94.246779 
C 234.361411 96.812147 232.92 100.292022 232.92 103.92 
C 232.92 107.547978 234.361411 111.027853 236.926779 113.593221 
C 239.492147 116.158589 242.972022 117.6 246.6 117.6 
z
" clip-path="url(#pb47d2a7b66)" style="fill: #f39c12; opacity: 0.304444; stroke: #f39c12; stroke-width: 1.5; stroke-linejoin: miter"/>
   </g>
   <g id="text_1">
    <!-- Flux distributed -->
    <g transform="translate(112.713125 342.55875) scale(0.08 -0.08)">
     <defs>
      <path id="DejaVuSans-46" d="M 628 4666 
L 3309 4666 
L 3309 4134 
L 1259 4134 
L 1259 2759 
L 3109 2759 
L 3109 2228 
L 1259 2228 
L 1259 0 
L 628 0 
L 628 4666 
z
" transform="scale(0.015625)"/>
      <path id="DejaVuSans-6c" d="M 603 4863 
L 1178 4863 
L 1178 0 
L 603 0 
L 603 4863 
z
" transform="scale(0.015625)"/>
      <path id="DejaVuSans-75" d="M 544 1381 
L 544 3500 
L 1119 3500 
L 1119 1403 
Q 1119 906 1312 657 
Q 1506 409 1894 409 
Q 2359 409 2629 706 
Q 2900 1003 2900 1516 
L 2900 3500 
L 3475 3500 
L 3475 0 
L 2900 0 
L 2900 538 
Q 2691 219 2414 64 
Q 2138 -91 1772 -91 
Q 1169 -91 856 284 
Q 544 659 544 1381 
z
M 1991 3584 
L 1991 3584 
z
" transform="scale(0.015625)"/>
      <path id="DejaVuSans-78" d="M 3513 3500 
L 2247 1797 
L 3578 0 
L 2900 0 
L 1881 1375 
L 863 0 
L 184 0 
L 1544 1831 
L 300 3500 
L 978 3500 
L 1906 2253 
L 2834 3500 
L 3513 3500 
z
" transform="scale(0.015625)"/>
      <path id="DejaVuSans-20" transform="scale(0.015625)"/>
      <path id="DejaVuSans-64" d="M 2906 2969 
L 2906 4863 
L 3481 4863 
L 3481 0 
L 2906 0 
L 2906 525 
Q 2725 213 2448 61 
Q 2172 -91 1784 -91 
Q 1150 -91 751 415 
Q 353 922 353 1747 
Q 353 2572 751 3078 
Q 1150 3584 1784 3584 
Q 2172 3584 2448 3432 
Q 2725 3281 2906 2969 
z
M 947 1747 
Q 947 1113 1208 752 
Q 1469 391 1925 391 
Q 2381 391 2643 752 
Q 2906 1113 2906 1747 
Q 2906 2381 2643 2742 
Q 2381 3103 1925 3103 
Q 1469 3103 1208 2742 
Q 947 2381 947 1747 
z
" transform="scale(0.015625)"/>
      <path id="DejaVuSans-69" d="M 603 3500 
L 1178 3500 
L 1178 0 
L 603 0 
L 603 3500 
z
M 603 4863 
L 1178 4863 
L 1178 4134 
L 603 4134 
L 603 4863 
z
" transform="scale(0.015625)"/>
      <path id="DejaVuSans-73" d="M 2834 3397 
L 2834 2853 
Q 2591 2978 2328 3040 
Q 2066 3103 1784 3103 
Q 1356 3103 1142 2972 
Q 928 2841 928 2578 
Q 928 2378 1081 2264 
Q 1234 2150 1697 2047 
L 1894 2003 
Q 2506 1872 2764 1633 
Q 3022 1394 3022 966 
Q 3022 478 2636 193 
Q 2250 -91 1575 -91 
Q 1294 -91 989 -36 
Q 684 19 347 128 
L 347 722 
Q 666 556 975 473 
Q 1284 391 1588 391 
Q 1994 391 2212 530 
Q 2431 669 2431 922 
Q 2431 1156 2273 1281 
Q 2116 1406 1581 1522 
L 1381 1569 
Q 847 1681 609 1914 
Q 372 2147 372 2553 
Q 372 3047 722 3315 
Q 1072 3584 1716 3584 
Q 2034 3584 2315 3537 
Q 2597 3491 2834 3397 
z
" transform="scale(0.015625)"/>
      <path id="DejaVuSans-74" d="M 1172 4494 
L 1172 3500 
L 2356 3500 
L 2356 3053 
L 1172 3053 
L 1172 1153 
Q 1172 725 1289 603 
Q 1406 481 1766 481 
L 2356 481 
L 2356 0 
L 1766 0 
Q 1100 0 847 248 
Q 594 497 594 1153 
L 594 3053 
L 172 3053 
L 172 3500 
L 594 3500 
L 594 4494 
L 1172 4494 
z
" transform="scale(0.015625)"/>
      <path id="DejaVuSans-72" d="M 2631 2963 
Q 2534 3019 2420 3045 
Q 2306 3072 2169 3072 
Q 1681 3072 1420 2755 
Q 1159 2438 1159 1844 
L 1159 0 
L 581 0 
L 581 3500 
L 1159 3500 
L 1159 2956 
Q 1341 3275 1631 3429 
Q 1922 3584 2338 3584 
Q 2397 3584 2469 3576 
Q 2541 3569 2628 3553 
L 2631 2963 
z
" transform="scale(0.015625)"/>
      <path id="DejaVuSans-62" d="M 3116 1747 
Q 3116 2381 2855 2742 
Q 2594 3103 2138 3103 
Q 1681 3103 1420 2742 
Q 1159 2381 1159 1747 
Q 1159 1113 1420 752 
Q 1681 391 2138 391 
Q 2594 391 2855 752 
Q 3116 1113 3116 1747 
z
M 1159 2969 
Q 1341 3281 1617 3432 
Q 1894 3584 2278 3584 
Q 2916 3584 3314 3078 
Q 3713 2572 3713 1747 
Q 3713 922 3314 415 
Q 2916 -91 2278 -91 
Q 1894 -91 1617 61 
Q 1341 213 1159 525 
L 1159 0 
L 581 0 
L 581 4863 
L 1159 4863 
L 1159 2969 
z
" transform="scale(0.015625)"/>
      <path id="DejaVuSans-65" d="M 3597 1894 
L 3597 1613 
L 953 1613 
Q 991 1019 1311 708 
Q 1631 397 2203 397 
Q 2534 397 2845 478 
Q 3156 559 3463 722 
L 3463 178 
Q 3153 47 2828 -22 
Q 2503 -91 2169 -91 
Q 1331 -91 842 396 
Q 353 884 353 1716 
Q 353 2575 817 3079 
Q 1281 3584 2069 3584 
Q 2775 3584 3186 3129 
Q 3597 2675 3597 1894 
z
M 3022 2063 
Q 3016 2534 2758 2815 
Q 2500 3097 2075 3097 
Q 1594 3097 1305 2825 
Q 1016 2553 972 2059 
L 3022 2063 
z
" transform="scale(0.015625)"/>
     </defs>
     <use xlink:href="#DejaVuSans-46"/>
     <use xlink:href="#DejaVuSans-6c" transform="translate(57.519531 0)"/>
     <use xlink:href="#DejaVuSans-75" transform="translate(85.302734 0)"/>
     <use xlink:href="#DejaVuSans-78" transform="translate(148.681641 0)"/>
     <use xlink:href="#DejaVuSans-20" transform="translate(207.861328 0)"/>
     <use xlink:href="#DejaVuSans-64" transform="translate(239.648438 0)"/>
     <use xlink:href="#DejaVuSans-69" transform="translate(303.125 0)"/>
     <use xlink:href="#DejaVuSans-73" transform="translate(330.908203 0)"/>
     <use xlink:href="#DejaVuSans-74" transform="translate(383.007812 0)"/>
     <use xlink:href="#DejaVuSans-72" transform="translate(422.216797 0)"/>
     <use xlink:href="#DejaVuSans-69" transform="translate(463.330078 0)"/>
     <use xlink:href="#DejaVuSans-62" transform="translate(491.113281 0)"/>
     <use xlink:href="#DejaVuSans-75" transform="translate(554.589844 0)"/>
     <use xlink:href="#DejaVuSans-74" transform="translate(617.96875 0)"/>
     <use xlink:href="#DejaVuSans-65" transform="translate(657.177734 0)"/>
     <use xlink:href="#DejaVuSans-64" transform="translate(718.701172 0)"/>
    </g>
    <!-- across multiple voxels -->
    <g transform="translate(99.715 351.517) scale(0.08 -0.08)">
     <defs>
      <path id="DejaVuSans-61" d="M 2194 1759 
Q 1497 1759 1228 1600 
Q 959 1441 959 1056 
Q 959 750 1161 570 
Q 1363 391 1709 391 
Q 2188 391 2477 730 
Q 2766 1069 2766 1631 
L 2766 1759 
L 2194 1759 
z
M 3341 1997 
L 3341 0 
L 2766 0 
L 2766 531 
Q 2569 213 2275 61 
Q 1981 -91 1556 -91 
Q 1019 -91 701 211 
Q 384 513 384 1019 
Q 384 1609 779 1909 
Q 1175 2209 1959 2209 
L 2766 2209 
L 2766 2266 
Q 2766 2663 2505 2880 
Q 2244 3097 1772 3097 
Q 1472 3097 1187 3025 
Q 903 2953 641 2809 
L 641 3341 
Q 956 3463 1253 3523 
Q 1550 3584 1831 3584 
Q 2591 3584 2966 3190 
Q 3341 2797 3341 1997 
z
" transform="scale(0.015625)"/>
      <path id="DejaVuSans-63" d="M 3122 3366 
L 3122 2828 
Q 2878 2963 2633 3030 
Q 2388 3097 2138 3097 
Q 1578 3097 1268 2742 
Q 959 2388 959 1747 
Q 959 1106 1268 751 
Q 1578 397 2138 397 
Q 2388 397 2633 464 
Q 2878 531 3122 666 
L 3122 134 
Q 2881 22 2623 -34 
Q 2366 -91 2075 -91 
Q 1284 -91 818 406 
Q 353 903 353 1747 
Q 353 2603 823 3093 
Q 1294 3584 2113 3584 
Q 2378 3584 2631 3529 
Q 2884 3475 3122 3366 
z
" transform="scale(0.015625)"/>
      <path id="DejaVuSans-6f" d="M 1959 3097 
Q 1497 3097 1228 2736 
Q 959 2375 959 1747 
Q 959 1119 1226 758 
Q 1494 397 1959 397 
Q 2419 397 2687 759 
Q 2956 1122 2956 1747 
Q 2956 2369 2687 2733 
Q 2419 3097 1959 3097 
z
M 1959 3584 
Q 2709 3584 3137 3096 
Q 3566 2609 3566 1747 
Q 3566 888 3137 398 
Q 2709 -91 1959 -91 
Q 1206 -91 779 398 
Q 353 888 353 1747 
Q 353 2609 779 3096 
Q 1206 3584 1959 3584 
z
" transform="scale(0.015625)"/>
      <path id="DejaVuSans-6d" d="M 3328 2828 
Q 3544 3216 3844 3400 
Q 4144 3584 4550 3584 
Q 5097 3584 5394 3201 
Q 5691 2819 5691 2113 
L 5691 0 
L 5113 0 
L 5113 2094 
Q 5113 2597 4934 2840 
Q 4756 3084 4391 3084 
Q 3944 3084 3684 2787 
Q 3425 2491 3425 1978 
L 3425 0 
L 2847 0 
L 2847 2094 
Q 2847 2600 2669 2842 
Q 2491 3084 2119 3084 
Q 1678 3084 1418 2786 
Q 1159 2488 1159 1978 
L 1159 0 
L 581 0 
L 581 3500 
L 1159 3500 
L 1159 2956 
Q 1356 3278 1631 3431 
Q 1906 3584 2284 3584 
Q 2666 3584 2933 3390 
Q 3200 3197 3328 2828 
z
" transform="scale(0.015625)"/>
      <path id="DejaVuSans-70" d="M 1159 525 
L 1159 -1331 
L 581 -1331 
L 581 3500 
L 1159 3500 
L 1159 2969 
Q 1341 3281 1617 3432 
Q 1894 3584 2278 3584 
Q 2916 3584 3314 3078 
Q 3713 2572 3713 1747 
Q 3713 922 3314 415 
Q 2916 -91 2278 -91 
Q 1894 -91 1617 61 
Q 1341 213 1159 525 
z
M 3116 1747 
Q 3116 2381 2855 2742 
Q 2594 3103 2138 3103 
Q 1681 3103 1420 2742 
Q 1159 2381 1159 1747 
Q 1159 1113 1420 752 
Q 1681 391 2138 391 
Q 2594 391 2855 752 
Q 3116 1113 3116 1747 
z
" transform="scale(0.015625)"/>
      <path id="DejaVuSans-76" d="M 191 3500 
L 800 3500 
L 1894 563 
L 2988 3500 
L 3597 3500 
L 2284 0 
L 1503 0 
L 191 3500 
z
" transform="scale(0.015625)"/>
     </defs>
     <use xlink:href="#DejaVuSans-61"/>
     <use xlink:href="#DejaVuSans-63" transform="translate(61.279297 0)"/>
     <use xlink:href="#DejaVuSans-72" transform="translate(116.259766 0)"/>
     <use xlink:href="#DejaVuSans-6f" transform="translate(155.123047 0)"/>
     <use xlink:href="#DejaVuSans-73" transform="translate(216.304688 0)"/>
     <use xlink:href="#DejaVuSans-73" transform="translate(268.404297 0)"/>
     <use xlink:href="#DejaVuSans-20" transform="translate(320.503906 0)"/>
     <use xlink:href="#DejaVuSans-6d" transform="translate(352.291016 0)"/>
     <use xlink:href="#DejaVuSans-75" transform="translate(449.703125 0)"/>
     <use xlink:href="#DejaVuSans-6c" transform="translate(513.082031 0)"/>
     <use xlink:href="#DejaVuSans-74" transform="translate(540.865234 0)"/>
     <use xlink:href="#DejaVuSans-69" transform="translate(580.074219 0)"/>
     <use xlink:href="#DejaVuSans-70" transform="translate(607.857422 0)"/>
     <use xlink:href="#DejaVuSans-6c" transform="translate(671.333984 0)"/>
     <use xlink:href="#DejaVuSans-65" transform="translate(699.117188 0)"/>
     <use xlink:href="#DejaVuSans-20" transform="translate(760.640625 0)"/>
     <use xlink:href="#DejaVuSans-76" transform="translate(792.427734 0)"/>
     <use xlink:href="#DejaVuSans-6f" transform="translate(851.607422 0)"/>
     <use xlink:href="#DejaVuSans-78" transform="translate(909.664062 0)"/>
     <use xlink:href="#DejaVuSans-65" transform="translate(965.71875 0)"/>
     <use xlink:href="#DejaVuSans-6c" transform="translate(1027.242188 0)"/>
     <use xlink:href="#DejaVuSans-73" transform="translate(1055.025391 0)"/>
    </g>
   </g>
   <g id="text_2">
    <!-- Before: Superposition -->
    <g transform="translate(79.111875 59.72) scale(0.12 -0.12)">
     <defs>
      <path id="DejaVuSans-42" d="M 1259 2228 
L 1259 519 
L 2272 519 
Q 2781 519 3026 730 
Q 3272 941 3272 1375 
Q 3272 1813 3026 2020 
Q 2781 2228 2272 2228 
L 1259 2228 
z
M 1259 4147 
L 1259 2741 
L 2194 2741 
Q 2656 2741 2882 2914 
Q 3109 3088 3109 3444 
Q 3109 3797 2882 3972 
Q 2656 4147 2194 4147 
L 1259 4147 
z
M 628 4666 
L 2241 4666 
Q 2963 4666 3353 4366 
Q 3744 4066 3744 3513 
Q 3744 3084 3544 2831 
Q 3344 2578 2956 2516 
Q 3422 2416 3680 2098 
Q 3938 1781 3938 1306 
Q 3938 681 3513 340 
Q 3088 0 2303 0 
L 628 0 
L 628 4666 
z
" transform="scale(0.015625)"/>
      <path id="DejaVuSans-66" d="M 2375 4863 
L 2375 4384 
L 1825 4384 
Q 1516 4384 1395 4259 
Q 1275 4134 1275 3809 
L 1275 3500 
L 2222 3500 
L 2222 3053 
L 1275 3053 
L 1275 0 
L 697 0 
L 697 3053 
L 147 3053 
L 147 3500 
L 697 3500 
L 697 3744 
Q 697 4328 969 4595 
Q 1241 4863 1831 4863 
L 2375 4863 
z
" transform="scale(0.015625)"/>
      <path id="DejaVuSans-3a" d="M 750 794 
L 1409 794 
L 1409 0 
L 750 0 
L 750 794 
z
M 750 3309 
L 1409 3309 
L 1409 2516 
L 750 2516 
L 750 3309 
z
" transform="scale(0.015625)"/>
      <path id="DejaVuSans-53" d="M 3425 4513 
L 3425 3897 
Q 3066 4069 2747 4153 
Q 2428 4238 2131 4238 
Q 1616 4238 1336 4038 
Q 1056 3838 1056 3469 
Q 1056 3159 1242 3001 
Q 1428 2844 1947 2747 
L 2328 2669 
Q 3034 2534 3370 2195 
Q 3706 1856 3706 1288 
Q 3706 609 3251 259 
Q 2797 -91 1919 -91 
Q 1588 -91 1214 -16 
Q 841 59 441 206 
L 441 856 
Q 825 641 1194 531 
Q 1563 422 1919 422 
Q 2459 422 2753 634 
Q 3047 847 3047 1241 
Q 3047 1584 2836 1778 
Q 2625 1972 2144 2069 
L 1759 2144 
Q 1053 2284 737 2584 
Q 422 2884 422 3419 
Q 422 4038 858 4394 
Q 1294 4750 2059 4750 
Q 2388 4750 2728 4690 
Q 3069 4631 3425 4513 
z
" transform="scale(0.015625)"/>
      <path id="DejaVuSans-6e" d="M 3513 2113 
L 3513 0 
L 2938 0 
L 2938 2094 
Q 2938 2591 2744 2837 
Q 2550 3084 2163 3084 
Q 1697 3084 1428 2787 
Q 1159 2491 1159 1978 
L 1159 0 
L 581 0 
L 581 3500 
L 1159 3500 
L 1159 2956 
Q 1366 3272 1645 3428 
Q 1925 3584 2291 3584 
Q 2894 3584 3203 3211 
Q 3513 2838 3513 2113 
z
" transform="scale(0.015625)"/>
     </defs>
     <use xlink:href="#DejaVuSans-42"/>
     <use xlink:href="#DejaVuSans-65" transform="translate(68.603516 0)"/>
     <use xlink:href="#DejaVuSans-66" transform="translate(130.126953 0)"/>
     <use xlink:href="#DejaVuSans-6f" transform="translate(165.332031 0)"/>
     <use xlink:href="#DejaVuSans-72" transform="translate(226.513672 0)"/>
     <use xlink:href="#DejaVuSans-65" transform="translate(265.376953 0)"/>
     <use xlink:href="#DejaVuSans-3a" transform="translate(326.900391 0)"/>
     <use xlink:href="#DejaVuSans-20" transform="translate(360.591797 0)"/>
     <use xlink:href="#DejaVuSans-53" transform="translate(392.378906 0)"/>
     <use xlink:href="#DejaVuSans-75" transform="translate(455.855469 0)"/>
     <use xlink:href="#DejaVuSans-70" transform="translate(519.234375 0)"/>
     <use xlink:href="#DejaVuSans-65" transform="translate(582.710938 0)"/>
     <use xlink:href="#DejaVuSans-72" transform="translate(644.234375 0)"/>
     <use xlink:href="#DejaVuSans-70" transform="translate(685.347656 0)"/>
     <use xlink:href="#DejaVuSans-6f" transform="translate(748.824219 0)"/>
     <use xlink:href="#DejaVuSans-73" transform="translate(810.005859 0)"/>
     <use xlink:href="#DejaVuSans-69" transform="translate(862.105469 0)"/>
     <use xlink:href="#DejaVuSans-74" transform="translate(889.888672 0)"/>
     <use xlink:href="#DejaVuSans-69" transform="translate(929.097656 0)"/>
     <use xlink:href="#DejaVuSans-6f" transform="translate(956.880859 0)"/>
     <use xlink:href="#DejaVuSans-6e" transform="translate(1018.0625 0)"/>
    </g>
   </g>
  </g>
  <g id="axes_2">
   <g id="patch_27">
    <path d="M 325.8 322.8 
C 329.427978 322.8 332.907853 321.358589 335.473221 318.793221 
C 338.038589 316.227853 339.48 312.747978 339.48 309.12 
C 339.48 305.492022 338.038589 302.012147 335.473221 299.446779 
C 332.907853 296.881411 329.427978 295.44 325.8 295.44 
C 322.172022 295.44 318.692147 296.881411 316.126779 299.446779 
C 313.561411 302.012147 312.12 305.492022 312.12 309.12 
C 312.12 312.747978 313.561411 316.227853 316.126779 318.793221 
C 318.692147 321.358589 322.172022 322.8 325.8 322.8 
z
" clip-path="url(#p5433793b75)" style="fill: #f39c12; opacity: 0.102222; stroke: #f39c12; stroke-width: 1.5; stroke-linejoin: miter"/>
   </g>
   <g id="patch_28">
    <path d="M 325.8 271.5 
C 329.427978 271.5 332.907853 270.058589 335.473221 267.493221 
C 338.038589 264.927853 339.48 261.447978 339.48 257.82 
C 339.48 254.192022 338.038589 250.712147 335.473221 248.146779 
C 332.907853 245.581411 329.427978 244.14 325.8 244.14 
C 322.172022 244.14 318.692147 245.581411 316.126779 248.146779 
C 313.561411 250.712147 312.12 254.192022 312.12 257.82 
C 312.12 261.447978 313.561411 264.927853 316.126779 267.493221 
C 318.692147 270.058589 322.172022 271.5 325.8 271.5 
z
" clip-path="url(#p5433793b75)" style="fill: #f39c12; opacity: 0.112011; stroke: #f39c12; stroke-width: 1.5; stroke-linejoin: miter"/>
   </g>
   <g id="patch_29">
    <path d="M 325.8 220.2 
C 329.427978 220.2 332.907853 218.758589 335.473221 216.193221 
C 338.038589 213.627853 339.48 210.147978 339.48 206.52 
C 339.48 202.892022 338.038589 199.412147 335.473221 196.846779 
C 332.907853 194.281411 329.427978 192.84 325.8 192.84 
C 322.172022 192.84 318.692147 194.281411 316.126779 196.846779 
C 313.561411 199.412147 312.12 202.892022 312.12 206.52 
C 312.12 210.147978 313.561411 213.627853 316.126779 216.193221 
C 318.692147 218.758589 322.172022 220.2 325.8 220.2 
z
" clip-path="url(#p5433793b75)" style="fill: #f39c12; opacity: 0.12108; stroke: #f39c12; stroke-width: 1.5; stroke-linejoin: miter"/>
   </g>
   <g id="patch_30">
    <path d="M 325.8 168.9 
C 329.427978 168.9 332.907853 167.458589 335.473221 164.893221 
C 338.038589 162.327853 339.48 158.847978 339.48 155.22 
C 339.48 151.592022 338.038589 148.112147 335.473221 145.546779 
C 332.907853 142.981411 329.427978 141.54 325.8 141.54 
C 322.172022 141.54 318.692147 142.981411 316.126779 145.546779 
C 313.561411 148.112147 312.12 151.592022 312.12 155.22 
C 312.12 158.847978 313.561411 162.327853 316.126779 164.893221 
C 318.692147 167.458589 322.172022 168.9 325.8 168.9 
z
" clip-path="url(#p5433793b75)" style="fill: #f39c12; opacity: 0.112011; stroke: #f39c12; stroke-width: 1.5; stroke-linejoin: miter"/>
   </g>
   <g id="patch_31">
    <path d="M 325.8 117.6 
C 329.427978 117.6 332.907853 116.158589 335.473221 113.593221 
C 338.038589 111.027853 339.48 107.547978 339.48 103.92 
C 339.48 100.292022 338.038589 96.812147 335.473221 94.246779 
C 332.907853 91.681411 329.427978 90.24 325.8 90.24 
C 322.172022 90.24 318.692147 91.681411 316.126779 94.246779 
C 313.561411 96.812147 312.12 100.292022 312.12 103.92 
C 312.12 107.547978 313.561411 111.027853 316.126779 113.593221 
C 318.692147 116.158589 322.172022 117.6 325.8 117.6 
z
" clip-path="url(#p5433793b75)" style="fill: #f39c12; opacity: 0.102222; stroke: #f39c12; stroke-width: 1.5; stroke-linejoin: miter"/>
   </g>
   <g id="patch_32">
    <path d="M 377.1 322.8 
C 380.727978 322.8 384.207853 321.358589 386.773221 318.793221 
C 389.338589 316.227853 390.78 312.747978 390.78 309.12 
C 390.78 305.492022 389.338589 302.012147 386.773221 299.446779 
C 384.207853 296.881411 380.727978 295.44 377.1 295.44 
C 373.472022 295.44 369.992147 296.881411 367.426779 299.446779 
C 364.861411 302.012147 363.42 305.492022 363.42 309.12 
C 363.42 312.747978 364.861411 316.227853 367.426779 318.793221 
C 369.992147 321.358589 373.472022 322.8 377.1 322.8 
z
" clip-path="url(#p5433793b75)" style="fill: #f39c12; opacity: 0.112011; stroke: #f39c12; stroke-width: 1.5; stroke-linejoin: miter"/>
   </g>
   <g id="patch_33">
    <path d="M 377.1 271.5 
C 380.727978 271.5 384.207853 270.058589 386.773221 267.493221 
C 389.338589 264.927853 390.78 261.447978 390.78 257.82 
C 390.78 254.192022 389.338589 250.712147 386.773221 248.146779 
C 384.207853 245.581411 380.727978 244.14 377.1 244.14 
C 373.472022 244.14 369.992147 245.581411 367.426779 248.146779 
C 364.861411 250.712147 363.42 254.192022 363.42 257.82 
C 363.42 261.447978 364.861411 264.927853 367.426779 267.493221 
C 369.992147 270.058589 373.472022 271.5 377.1 271.5 
z
" clip-path="url(#p5433793b75)" style="fill: #f39c12; opacity: 0.16493; stroke: #f39c12; stroke-width: 1.5; stroke-linejoin: miter"/>
   </g>
   <g id="patch_34">
    <path d="M 377.1 220.2 
C 380.727978 220.2 384.207853 218.758589 386.773221 216.193221 
C 389.338589 213.627853 390.78 210.147978 390.78 206.52 
C 390.78 202.892022 389.338589 199.412147 386.773221 196.846779 
C 384.207853 194.281411 380.727978 192.84 377.1 192.84 
C 373.472022 192.84 369.992147 194.281411 367.426779 196.846779 
C 364.861411 199.412147 363.42 202.892022 363.42 206.52 
C 363.42 210.147978 364.861411 213.627853 367.426779 216.193221 
C 369.992147 218.758589 373.472022 220.2 377.1 220.2 
z
" clip-path="url(#p5433793b75)" style="fill: #f39c12; opacity: 0.213957; stroke: #f39c12; stroke-width: 1.5; stroke-linejoin: miter"/>
   </g>
   <g id="patch_35">
    <path d="M 377.1 168.9 
C 380.727978 168.9 384.207853 167.458589 386.773221 164.893221 
C 389.338589 162.327853 390.78 158.847978 390.78 155.22 
C 390.78 151.592022 389.338589 148.112147 386.773221 145.546779 
C 384.207853 142.981411 380.727978 141.54 377.1 141.54 
C 373.472022 141.54 369.992147 142.981411 367.426779 145.546779 
C 364.861411 148.112147 363.42 151.592022 363.42 155.22 
C 363.42 158.847978 364.861411 162.327853 367.426779 164.893221 
C 369.992147 167.458589 373.472022 168.9 377.1 168.9 
z
" clip-path="url(#p5433793b75)" style="fill: #f39c12; opacity: 0.16493; stroke: #f39c12; stroke-width: 1.5; stroke-linejoin: miter"/>
   </g>
   <g id="patch_36">
    <path d="M 377.1 117.6 
C 380.727978 117.6 384.207853 116.158589 386.773221 113.593221 
C 389.338589 111.027853 390.78 107.547978 390.78 103.92 
C 390.78 100.292022 389.338589 96.812147 386.773221 94.246779 
C 384.207853 91.681411 380.727978 90.24 377.1 90.24 
C 373.472022 90.24 369.992147 91.681411 367.426779 94.246779 
C 364.861411 96.812147 363.42 100.292022 363.42 103.92 
C 363.42 107.547978 364.861411 111.027853 367.426779 113.593221 
C 369.992147 116.158589 373.472022 117.6 377.1 117.6 
z
" clip-path="url(#p5433793b75)" style="fill: #f39c12; opacity: 0.112011; stroke: #f39c12; stroke-width: 1.5; stroke-linejoin: miter"/>
   </g>
   <g id="patch_37">
    <path d="M 428.4 322.8 
C 432.027978 322.8 435.507853 321.358589 438.073221 318.793221 
C 440.638589 316.227853 442.08 312.747978 442.08 309.12 
C 442.08 305.492022 440.638589 302.012147 438.073221 299.446779 
C 435.507853 296.881411 432.027978 295.44 428.4 295.44 
C 424.772022 295.44 421.292147 296.881411 418.726779 299.446779 
C 416.161411 302.012147 414.72 305.492022 414.72 309.12 
C 414.72 312.747978 416.161411 316.227853 418.726779 318.793221 
C 421.292147 321.358589 424.772022 322.8 428.4 322.8 
z
" clip-path="url(#p5433793b75)" style="fill: #f39c12; opacity: 0.12108; stroke: #f39c12; stroke-width: 1.5; stroke-linejoin: miter"/>
   </g>
   <g id="patch_38">
    <path d="M 428.4 271.5 
C 432.027978 271.5 435.507853 270.058589 438.073221 267.493221 
C 440.638589 264.927853 442.08 261.447978 442.08 257.82 
C 442.08 254.192022 440.638589 250.712147 438.073221 248.146779 
C 435.507853 245.581411 432.027978 244.14 428.4 244.14 
C 424.772022 244.14 421.292147 245.581411 418.726779 248.146779 
C 416.161411 250.712147 414.72 254.192022 414.72 257.82 
C 414.72 261.447978 416.161411 264.927853 418.726779 267.493221 
C 421.292147 270.058589 424.772022 271.5 428.4 271.5 
z
" clip-path="url(#p5433793b75)" style="fill: #f39c12; opacity: 0.213957; stroke: #f39c12; stroke-width: 1.5; stroke-linejoin: miter"/>
   </g>
   <g id="patch_39">
    <path d="M 428.4 227.04 
C 433.841968 227.04 439.061779 224.877883 442.909831 221.029831 
C 446.757883 217.181779 448.92 211.961968 448.92 206.52 
C 448.92 201.078032 446.757883 195.858221 442.909831 192.010169 
C 439.061779 188.162117 433.841968 186 428.4 186 
C 422.958032 186 417.738221 188.162117 413.890169 192.010169 
C 410.042117 195.858221 407.88 201.078032 407.88 206.52 
C 407.88 211.961968 410.042117 217.181779 413.890169 221.029831 
C 417.738221 224.877883 422.958032 227.04 428.4 227.04 
z
" clip-path="url(#p5433793b75)" style="fill: #9b59b6; opacity: 0.9; stroke: #9b59b6; stroke-width: 1.5; stroke-linejoin: miter"/>
   </g>
   <g id="patch_40">
    <path d="M 428.4 168.9 
C 432.027978 168.9 435.507853 167.458589 438.073221 164.893221 
C 440.638589 162.327853 442.08 158.847978 442.08 155.22 
C 442.08 151.592022 440.638589 148.112147 438.073221 145.546779 
C 435.507853 142.981411 432.027978 141.54 428.4 141.54 
C 424.772022 141.54 421.292147 142.981411 418.726779 145.546779 
C 416.161411 148.112147 414.72 151.592022 414.72 155.22 
C 414.72 158.847978 416.161411 162.327853 418.726779 164.893221 
C 421.292147 167.458589 424.772022 168.9 428.4 168.9 
z
" clip-path="url(#p5433793b75)" style="fill: #f39c12; opacity: 0.213957; stroke: #f39c12; stroke-width: 1.5; stroke-linejoin: miter"/>
   </g>
   <g id="patch_41">
    <path d="M 428.4 117.6 
C 432.027978 117.6 435.507853 116.158589 438.073221 113.593221 
C 440.638589 111.027853 442.08 107.547978 442.08 103.92 
C 442.08 100.292022 440.638589 96.812147 438.073221 94.246779 
C 435.507853 91.681411 432.027978 90.24 428.4 90.24 
C 424.772022 90.24 421.292147 91.681411 418.726779 94.246779 
C 416.161411 96.812147 414.72 100.292022 414.72 103.92 
C 414.72 107.547978 416.161411 111.027853 418.726779 113.593221 
C 421.292147 116.158589 424.772022 117.6 428.4 117.6 
z
" clip-path="url(#p5433793b75)" style="fill: #f39c12; opacity: 0.12108; stroke: #f39c12; stroke-width: 1.5; stroke-linejoin: miter"/>
   </g>
   <g id="patch_42">
    <path d="M 479.7 322.8 
C 483.327978 322.8 486.807853 321.358589 489.373221 318.793221 
C 491.938589 316.227853 493.38 312.747978 493.38 309.12 
C 493.38 305.492022 491.938589 302.012147 489.373221 299.446779 
C 486.807853 296.881411 483.327978 295.44 479.7 295.44 
C 476.072022 295.44 472.592147 296.881411 470.026779 299.446779 
C 467.461411 302.012147 466.02 305.492022 466.02 309.12 
C 466.02 312.747978 467.461411 316.227853 470.026779 318.793221 
C 472.592147 321.358589 476.072022 322.8 479.7 322.8 
z
" clip-path="url(#p5433793b75)" style="fill: #f39c12; opacity: 0.112011; stroke: #f39c12; stroke-width: 1.5; stroke-linejoin: miter"/>
   </g>
   <g id="patch_43">
    <path d="M 479.7 271.5 
C 483.327978 271.5 486.807853 270.058589 489.373221 267.493221 
C 491.938589 264.927853 493.38 261.447978 493.38 257.82 
C 493.38 254.192022 491.938589 250.712147 489.373221 248.146779 
C 486.807853 245.581411 483.327978 244.14 479.7 244.14 
C 476.072022 244.14 472.592147 245.581411 470.026779 248.146779 
C 467.461411 250.712147 466.02 254.192022 466.02 257.82 
C 466.02 261.447978 467.461411 264.927853 470.026779 267.493221 
C 472.592147 270.058589 476.072022 271.5 479.7 271.5 
z
" clip-path="url(#p5433793b75)" style="fill: #f39c12; opacity: 0.16493; stroke: #f39c12; stroke-width: 1.5; stroke-linejoin: miter"/>
   </g>
   <g id="patch_44">
    <path d="M 479.7 220.2 
C 483.327978 220.2 486.807853 218.758589 489.373221 216.193221 
C 491.938589 213.627853 493.38 210.147978 493.38 206.52 
C 493.38 202.892022 491.938589 199.412147 489.373221 196.846779 
C 486.807853 194.281411 483.327978 192.84 479.7 192.84 
C 476.072022 192.84 472.592147 194.281411 470.026779 196.846779 
C 467.461411 199.412147 466.02 202.892022 466.02 206.52 
C 466.02 210.147978 467.461411 213.627853 470.026779 216.193221 
C 472.592147 218.758589 476.072022 220.2 479.7 220.2 
z
" clip-path="url(#p5433793b75)" style="fill: #f39c12; opacity: 0.213957; stroke: #f39c12; stroke-width: 1.5; stroke-linejoin: miter"/>
   </g>
   <g id="patch_45">
    <path d="M 479.7 168.9 
C 483.327978 168.9 486.807853 167.458589 489.373221 164.893221 
C 491.938589 162.327853 493.38 158.847978 493.38 155.22 
C 493.38 151.592022 491.938589 148.112147 489.373221 145.546779 
C 486.807853 142.981411 483.327978 141.54 479.7 141.54 
C 476.072022 141.54 472.592147 142.981411 470.026779 145.546779 
C 467.461411 148.112147 466.02 151.592022 466.02 155.22 
C 466.02 158.847978 467.461411 162.327853 470.026779 164.893221 
C 472.592147 167.458589 476.072022 168.9 479.7 168.9 
z
" clip-path="url(#p5433793b75)" style="fill: #f39c12; opacity: 0.16493; stroke: #f39c12; stroke-width: 1.5; stroke-linejoin: miter"/>
   </g>
   <g id="patch_46">
    <path d="M 479.7 117.6 
C 483.327978 117.6 486.807853 116.158589 489.373221 113.593221 
C 491.938589 111.027853 493.38 107.547978 493.38 103.92 
C 493.38 100.292022 491.938589 96.812147 489.373221 94.246779 
C 486.807853 91.681411 483.327978 90.24 479.7 90.24 
C 476.072022 90.24 472.592147 91.681411 470.026779 94.246779 
C 467.461411 96.812147 466.02 100.292022 466.02 103.92 
C 466.02 107.547978 467.461411 111.027853 470.026779 113.593221 
C 472.592147 116.158589 476.072022 117.6 479.7 117.6 
z
" clip-path="url(#p5433793b75)" style="fill: #f39c12; opacity: 0.112011; stroke: #f39c12; stroke-width: 1.5; stroke-linejoin: miter"/>
   </g>
   <g id="patch_47">
    <path d="M 531 322.8 
C 534.627978 322.8 538.107853 321.358589 540.673221 318.793221 
C 543.238589 316.227853 544.68 312.747978 544.68 309.12 
C 544.68 305.492022 543.238589 302.012147 540.673221 299.446779 
C 538.107853 296.881411 534.627978 295.44 531 295.44 
C 527.372022 295.44 523.892147 296.881411 521.326779 299.446779 
C 518.761411 302.012147 517.32 305.492022 517.32 309.12 
C 517.32 312.747978 518.761411 316.227853 521.326779 318.793221 
C 523.892147 321.358589 527.372022 322.8 531 322.8 
z
" clip-path="url(#p5433793b75)" style="fill: #f39c12; opacity: 0.102222; stroke: #f39c12; stroke-width: 1.5; stroke-linejoin: miter"/>
   </g>
   <g id="patch_48">
    <path d="M 531 271.5 
C 534.627978 271.5 538.107853 270.058589 540.673221 267.493221 
C 543.238589 264.927853 544.68 261.447978 544.68 257.82 
C 544.68 254.192022 543.238589 250.712147 540.673221 248.146779 
C 538.107853 245.581411 534.627978 244.14 531 244.14 
C 527.372022 244.14 523.892147 245.581411 521.326779 248.146779 
C 518.761411 250.712147 517.32 254.192022 517.32 257.82 
C 517.32 261.447978 518.761411 264.927853 521.326779 267.493221 
C 523.892147 270.058589 527.372022 271.5 531 271.5 
z
" clip-path="url(#p5433793b75)" style="fill: #f39c12; opacity: 0.112011; stroke: #f39c12; stroke-width: 1.5; stroke-linejoin: miter"/>
   </g>
   <g id="patch_49">
    <path d="M 531 220.2 
C 534.627978 220.2 538.107853 218.758589 540.673221 216.193221 
C 543.238589 213.627853 544.68 210.147978 544.68 206.52 
C 544.68 202.892022 543.238589 199.412147 540.673221 196.846779 
C 538.107853 194.281411 534.627978 192.84 531 192.84 
C 527.372022 192.84 523.892147 194.281411 521.326779 196.846779 
C 518.761411 199.412147 517.32 202.892022 517.32 206.52 
C 517.32 210.147978 518.761411 213.627853 521.326779 216.193221 
C 523.892147 218.758589 527.372022 220.2 531 220.2 
z
" clip-path="url(#p5433793b75)" style="fill: #f39c12; opacity: 0.12108; stroke: #f39c12; stroke-width: 1.5; stroke-linejoin: miter"/>
   </g>
   <g id="patch_50">
    <path d="M 531 168.9 
C 534.627978 168.9 538.107853 167.458589 540.673221 164.893221 
C 543.238589 162.327853 544.68 158.847978 544.68 155.22 
C 544.68 151.592022 543.238589 148.112147 540.673221 145.546779 
C 538.107853 142.981411 534.627978 141.54 531 141.54 
C 527.372022 141.54 523.892147 142.981411 521.326779 145.546779 
C 518.761411 148.112147 517.32 151.592022 517.32 155.22 
C 517.32 158.847978 518.761411 162.327853 521.326779 164.893221 
C 523.892147 167.458589 527.372022 168.9 531 168.9 
z
" clip-path="url(#p5433793b75)" style="fill: #f39c12; opacity: 0.112011; stroke: #f39c12; stroke-width: 1.5; stroke-linejoin: miter"/>
   </g>
   <g id="patch_51">
    <path d="M 531 117.6 
C 534.627978 117.6 538.107853 116.158589 540.673221 113.593221 
C 543.238589 111.027853 544.68 107.547978 544.68 103.92 
C 544.68 100.292022 543.238589 96.812147 540.673221 94.246779 
C 538.107853 91.681411 534.627978 90.24 531 90.24 
C 527.372022 90.24 523.892147 91.681411 521.326779 94.246779 
C 518.761411 96.812147 517.32 100.292022 517.32 103.92 
C 517.32 107.547978 518.761411 111.027853 521.326779 113.593221 
C 523.892147 116.158589 527.372022 117.6 531 117.6 
z
" clip-path="url(#p5433793b75)" style="fill: #f39c12; opacity: 0.102222; stroke: #f39c12; stroke-width: 1.5; stroke-linejoin: miter"/>
   </g>
   <g id="text_3">
    <!-- ! -->
    <g style="fill: #ffffff" transform="translate(425.207344 210.383125) scale(0.14 -0.14)">
     <defs>
      <path id="DejaVuSans-Bold-21" d="M 897 4666 
L 2022 4666 
L 2022 2875 
L 1863 1569 
L 1056 1569 
L 897 2875 
L 897 4666 
z
M 897 1113 
L 2022 1113 
L 2022 0 
L 897 0 
L 897 1113 
z
" transform="scale(0.015625)"/>
     </defs>
     <use xlink:href="#DejaVuSans-Bold-21"/>
    </g>
   </g>
   <g id="text_4">
    <!-- One voxel exceeds -->
    <g transform="translate(390.77375 342.55875) scale(0.08 -0.08)">
     <defs>
      <path id="DejaVuSans-4f" d="M 2522 4238 
Q 1834 4238 1429 3725 
Q 1025 3213 1025 2328 
Q 1025 1447 1429 934 
Q 1834 422 2522 422 
Q 3209 422 3611 934 
Q 4013 1447 4013 2328 
Q 4013 3213 3611 3725 
Q 3209 4238 2522 4238 
z
M 2522 4750 
Q 3503 4750 4090 4092 
Q 4678 3434 4678 2328 
Q 4678 1225 4090 567 
Q 3503 -91 2522 -91 
Q 1538 -91 948 565 
Q 359 1222 359 2328 
Q 359 3434 948 4092 
Q 1538 4750 2522 4750 
z
" transform="scale(0.015625)"/>
     </defs>
     <use xlink:href="#DejaVuSans-4f"/>
     <use xlink:href="#DejaVuSans-6e" transform="translate(78.710938 0)"/>
     <use xlink:href="#DejaVuSans-65" transform="translate(142.089844 0)"/>
     <use xlink:href="#DejaVuSans-20" transform="translate(203.613281 0)"/>
     <use xlink:href="#DejaVuSans-76" transform="translate(235.400391 0)"/>
     <use xlink:href="#DejaVuSans-6f" transform="translate(294.580078 0)"/>
     <use xlink:href="#DejaVuSans-78" transform="translate(352.636719 0)"/>
     <use xlink:href="#DejaVuSans-65" transform="translate(408.691406 0)"/>
     <use xlink:href="#DejaVuSans-6c" transform="translate(470.214844 0)"/>
     <use xlink:href="#DejaVuSans-20" transform="translate(497.998047 0)"/>
     <use xlink:href="#DejaVuSans-65" transform="translate(529.785156 0)"/>
     <use xlink:href="#DejaVuSans-78" transform="translate(589.558594 0)"/>
     <use xlink:href="#DejaVuSans-63" transform="translate(646.988281 0)"/>
     <use xlink:href="#DejaVuSans-65" transform="translate(701.96875 0)"/>
     <use xlink:href="#DejaVuSans-65" transform="translate(763.492188 0)"/>
     <use xlink:href="#DejaVuSans-64" transform="translate(825.015625 0)"/>
     <use xlink:href="#DejaVuSans-73" transform="translate(888.492188 0)"/>
    </g>
    <!-- threshold KB -->
    <g transform="translate(402.925625 351.517) scale(0.08 -0.08)">
     <defs>
      <path id="DejaVuSans-68" d="M 3513 2113 
L 3513 0 
L 2938 0 
L 2938 2094 
Q 2938 2591 2744 2837 
Q 2550 3084 2163 3084 
Q 1697 3084 1428 2787 
Q 1159 2491 1159 1978 
L 1159 0 
L 581 0 
L 581 4863 
L 1159 4863 
L 1159 2956 
Q 1366 3272 1645 3428 
Q 1925 3584 2291 3584 
Q 2894 3584 3203 3211 
Q 3513 2838 3513 2113 
z
" transform="scale(0.015625)"/>
      <path id="DejaVuSans-4b" d="M 628 4666 
L 1259 4666 
L 1259 2694 
L 3353 4666 
L 4166 4666 
L 1850 2491 
L 4331 0 
L 3500 0 
L 1259 2247 
L 1259 0 
L 628 0 
L 628 4666 
z
" transform="scale(0.015625)"/>
     </defs>
     <use xlink:href="#DejaVuSans-74"/>
     <use xlink:href="#DejaVuSans-68" transform="translate(39.208984 0)"/>
     <use xlink:href="#DejaVuSans-72" transform="translate(102.587891 0)"/>
     <use xlink:href="#DejaVuSans-65" transform="translate(141.451172 0)"/>
     <use xlink:href="#DejaVuSans-73" transform="translate(202.974609 0)"/>
     <use xlink:href="#DejaVuSans-68" transform="translate(255.074219 0)"/>
     <use xlink:href="#DejaVuSans-6f" transform="translate(318.453125 0)"/>
     <use xlink:href="#DejaVuSans-6c" transform="translate(379.634766 0)"/>
     <use xlink:href="#DejaVuSans-64" transform="translate(407.417969 0)"/>
     <use xlink:href="#DejaVuSans-20" transform="translate(470.894531 0)"/>
     <use xlink:href="#DejaVuSans-4b" transform="translate(502.681641 0)"/>
     <use xlink:href="#DejaVuSans-42" transform="translate(568.257812 0)"/>
    </g>
   </g>
   <g id="text_5">
    <!-- During: Threshold -->
    <g transform="translate(374.738437 59.72) scale(0.12 -0.12)">
     <defs>
      <path id="DejaVuSans-44" d="M 1259 4147 
L 1259 519 
L 2022 519 
Q 2988 519 3436 956 
Q 3884 1394 3884 2338 
Q 3884 3275 3436 3711 
Q 2988 4147 2022 4147 
L 1259 4147 
z
M 628 4666 
L 1925 4666 
Q 3281 4666 3915 4102 
Q 4550 3538 4550 2338 
Q 4550 1131 3912 565 
Q 3275 0 1925 0 
L 628 0 
L 628 4666 
z
" transform="scale(0.015625)"/>
      <path id="DejaVuSans-67" d="M 2906 1791 
Q 2906 2416 2648 2759 
Q 2391 3103 1925 3103 
Q 1463 3103 1205 2759 
Q 947 2416 947 1791 
Q 947 1169 1205 825 
Q 1463 481 1925 481 
Q 2391 481 2648 825 
Q 2906 1169 2906 1791 
z
M 3481 434 
Q 3481 -459 3084 -895 
Q 2688 -1331 1869 -1331 
Q 1566 -1331 1297 -1286 
Q 1028 -1241 775 -1147 
L 775 -588 
Q 1028 -725 1275 -790 
Q 1522 -856 1778 -856 
Q 2344 -856 2625 -561 
Q 2906 -266 2906 331 
L 2906 616 
Q 2728 306 2450 153 
Q 2172 0 1784 0 
Q 1141 0 747 490 
Q 353 981 353 1791 
Q 353 2603 747 3093 
Q 1141 3584 1784 3584 
Q 2172 3584 2450 3431 
Q 2728 3278 2906 2969 
L 2906 3500 
L 3481 3500 
L 3481 434 
z
" transform="scale(0.015625)"/>
      <path id="DejaVuSans-54" d="M -19 4666 
L 3928 4666 
L 3928 4134 
L 2272 4134 
L 2272 0 
L 1638 0 
L 1638 4134 
L -19 4134 
L -19 4666 
z
" transform="scale(0.015625)"/>
     </defs>
     <use xlink:href="#DejaVuSans-44"/>
     <use xlink:href="#DejaVuSans-75" transform="translate(77.001953 0)"/>
     <use xlink:href="#DejaVuSans-72" transform="translate(140.380859 0)"/>
     <use xlink:href="#DejaVuSans-69" transform="translate(181.494141 0)"/>
     <use xlink:href="#DejaVuSans-6e" transform="translate(209.277344 0)"/>
     <use xlink:href="#DejaVuSans-67" transform="translate(272.65625 0)"/>
     <use xlink:href="#DejaVuSans-3a" transform="translate(336.132812 0)"/>
     <use xlink:href="#DejaVuSans-20" transform="translate(369.824219 0)"/>
     <use xlink:href="#DejaVuSans-54" transform="translate(401.611328 0)"/>
     <use xlink:href="#DejaVuSans-68" transform="translate(462.695312 0)"/>
     <use xlink:href="#DejaVuSans-72" transform="translate(526.074219 0)"/>
     <use xlink:href="#DejaVuSans-65" transform="translate(564.9375 0)"/>
     <use xlink:href="#DejaVuSans-73" transform="translate(626.460938 0)"/>
     <use xlink:href="#DejaVuSans-68" transform="translate(678.560547 0)"/>
     <use xlink:href="#DejaVuSans-6f" transform="translate(741.939453 0)"/>
     <use xlink:href="#DejaVuSans-6c" transform="translate(803.121094 0)"/>
     <use xlink:href="#DejaVuSans-64" transform="translate(830.904297 0)"/>
    </g>
   </g>
  </g>
  <g id="axes_3">
   <g id="patch_52">
    <path d="M 610.2 319.38 
C 612.920984 319.38 615.530889 318.298942 617.454916 316.374916 
C 619.378942 314.450889 620.46 311.840984 620.46 309.12 
C 620.46 306.399016 619.378942 303.789111 617.454916 301.865084 
C 615.530889 299.941058 612.920984 298.86 610.2 298.86 
C 607.479016 298.86 604.869111 299.941058 602.945084 301.865084 
C 601.021058 303.789111 599.94 306.399016 599.94 309.12 
C 599.94 311.840984 601.021058 314.450889 602.945084 316.374916 
C 604.869111 318.298942 607.479016 319.38 610.2 319.38 
z
" clip-path="url(#pfaa5f9a118)" style="fill: #2c3e50; opacity: 0.2; stroke: #2c3e50; stroke-width: 1.5; stroke-linejoin: miter"/>
   </g>
   <g id="patch_53">
    <path d="M 610.2 268.08 
C 612.920984 268.08 615.530889 266.998942 617.454916 265.074916 
C 619.378942 263.150889 620.46 260.540984 620.46 257.82 
C 620.46 255.099016 619.378942 252.489111 617.454916 250.565084 
C 615.530889 248.641058 612.920984 247.56 610.2 247.56 
C 607.479016 247.56 604.869111 248.641058 602.945084 250.565084 
C 601.021058 252.489111 599.94 255.099016 599.94 257.82 
C 599.94 260.540984 601.021058 263.150889 602.945084 265.074916 
C 604.869111 266.998942 607.479016 268.08 610.2 268.08 
z
" clip-path="url(#pfaa5f9a118)" style="fill: #2c3e50; opacity: 0.2; stroke: #2c3e50; stroke-width: 1.5; stroke-linejoin: miter"/>
   </g>
   <g id="patch_54">
    <path d="M 610.2 216.78 
C 612.920984 216.78 615.530889 215.698942 617.454916 213.774916 
C 619.378942 211.850889 620.46 209.240984 620.46 206.52 
C 620.46 203.799016 619.378942 201.189111 617.454916 199.265084 
C 615.530889 197.341058 612.920984 196.26 610.2 196.26 
C 607.479016 196.26 604.869111 197.341058 602.945084 199.265084 
C 601.021058 201.189111 599.94 203.799016 599.94 206.52 
C 599.94 209.240984 601.021058 211.850889 602.945084 213.774916 
C 604.869111 215.698942 607.479016 216.78 610.2 216.78 
z
" clip-path="url(#pfaa5f9a118)" style="fill: #2c3e50; opacity: 0.2; stroke: #2c3e50; stroke-width: 1.5; stroke-linejoin: miter"/>
   </g>
   <g id="patch_55">
    <path d="M 610.2 165.48 
C 612.920984 165.48 615.530889 164.398942 617.454916 162.474916 
C 619.378942 160.550889 620.46 157.940984 620.46 155.22 
C 620.46 152.499016 619.378942 149.889111 617.454916 147.965084 
C 615.530889 146.041058 612.920984 144.96 610.2 144.96 
C 607.479016 144.96 604.869111 146.041058 602.945084 147.965084 
C 601.021058 149.889111 599.94 152.499016 599.94 155.22 
C 599.94 157.940984 601.021058 160.550889 602.945084 162.474916 
C 604.869111 164.398942 607.479016 165.48 610.2 165.48 
z
" clip-path="url(#pfaa5f9a118)" style="fill: #2c3e50; opacity: 0.2; stroke: #2c3e50; stroke-width: 1.5; stroke-linejoin: miter"/>
   </g>
   <g id="patch_56">
    <path d="M 610.2 114.18 
C 612.920984 114.18 615.530889 113.098942 617.454916 111.174916 
C 619.378942 109.250889 620.46 106.640984 620.46 103.92 
C 620.46 101.199016 619.378942 98.589111 617.454916 96.665084 
C 615.530889 94.741058 612.920984 93.66 610.2 93.66 
C 607.479016 93.66 604.869111 94.741058 602.945084 96.665084 
C 601.021058 98.589111 599.94 101.199016 599.94 103.92 
C 599.94 106.640984 601.021058 109.250889 602.945084 111.174916 
C 604.869111 113.098942 607.479016 114.18 610.2 114.18 
z
" clip-path="url(#pfaa5f9a118)" style="fill: #2c3e50; opacity: 0.2; stroke: #2c3e50; stroke-width: 1.5; stroke-linejoin: miter"/>
   </g>
   <g id="patch_57">
    <path d="M 661.5 319.38 
C 664.220984 319.38 666.830889 318.298942 668.754916 316.374916 
C 670.678942 314.450889 671.76 311.840984 671.76 309.12 
C 671.76 306.399016 670.678942 303.789111 668.754916 301.865084 
C 666.830889 299.941058 664.220984 298.86 661.5 298.86 
C 658.779016 298.86 656.169111 299.941058 654.245084 301.865084 
C 652.321058 303.789111 651.24 306.399016 651.24 309.12 
C 651.24 311.840984 652.321058 314.450889 654.245084 316.374916 
C 656.169111 318.298942 658.779016 319.38 661.5 319.38 
z
" clip-path="url(#pfaa5f9a118)" style="fill: #2c3e50; opacity: 0.2; stroke: #2c3e50; stroke-width: 1.5; stroke-linejoin: miter"/>
   </g>
   <g id="patch_58">
    <path d="M 661.5 268.08 
C 664.220984 268.08 666.830889 266.998942 668.754916 265.074916 
C 670.678942 263.150889 671.76 260.540984 671.76 257.82 
C 671.76 255.099016 670.678942 252.489111 668.754916 250.565084 
C 666.830889 248.641058 664.220984 247.56 661.5 247.56 
C 658.779016 247.56 656.169111 248.641058 654.245084 250.565084 
C 652.321058 252.489111 651.24 255.099016 651.24 257.82 
C 651.24 260.540984 652.321058 263.150889 654.245084 265.074916 
C 656.169111 266.998942 658.779016 268.08 661.5 268.08 
z
" clip-path="url(#pfaa5f9a118)" style="fill: #2c3e50; opacity: 0.2; stroke: #2c3e50; stroke-width: 1.5; stroke-linejoin: miter"/>
   </g>
   <g id="patch_59">
    <path d="M 661.5 216.78 
C 664.220984 216.78 666.830889 215.698942 668.754916 213.774916 
C 670.678942 211.850889 671.76 209.240984 671.76 206.52 
C 671.76 203.799016 670.678942 201.189111 668.754916 199.265084 
C 666.830889 197.341058 664.220984 196.26 661.5 196.26 
C 658.779016 196.26 656.169111 197.341058 654.245084 199.265084 
C 652.321058 201.189111 651.24 203.799016 651.24 206.52 
C 651.24 209.240984 652.321058 211.850889 654.245084 213.774916 
C 656.169111 215.698942 658.779016 216.78 661.5 216.78 
z
" clip-path="url(#pfaa5f9a118)" style="fill: #2c3e50; opacity: 0.2; stroke: #2c3e50; stroke-width: 1.5; stroke-linejoin: miter"/>
   </g>
   <g id="patch_60">
    <path d="M 661.5 165.48 
C 664.220984 165.48 666.830889 164.398942 668.754916 162.474916 
C 670.678942 160.550889 671.76 157.940984 671.76 155.22 
C 671.76 152.499016 670.678942 149.889111 668.754916 147.965084 
C 666.830889 146.041058 664.220984 144.96 661.5 144.96 
C 658.779016 144.96 656.169111 146.041058 654.245084 147.965084 
C 652.321058 149.889111 651.24 152.499016 651.24 155.22 
C 651.24 157.940984 652.321058 160.550889 654.245084 162.474916 
C 656.169111 164.398942 658.779016 165.48 661.5 165.48 
z
" clip-path="url(#pfaa5f9a118)" style="fill: #2c3e50; opacity: 0.2; stroke: #2c3e50; stroke-width: 1.5; stroke-linejoin: miter"/>
   </g>
   <g id="patch_61">
    <path d="M 661.5 114.18 
C 664.220984 114.18 666.830889 113.098942 668.754916 111.174916 
C 670.678942 109.250889 671.76 106.640984 671.76 103.92 
C 671.76 101.199016 670.678942 98.589111 668.754916 96.665084 
C 666.830889 94.741058 664.220984 93.66 661.5 93.66 
C 658.779016 93.66 656.169111 94.741058 654.245084 96.665084 
C 652.321058 98.589111 651.24 101.199016 651.24 103.92 
C 651.24 106.640984 652.321058 109.250889 654.245084 111.174916 
C 656.169111 113.098942 658.779016 114.18 661.5 114.18 
z
" clip-path="url(#pfaa5f9a118)" style="fill: #2c3e50; opacity: 0.2; stroke: #2c3e50; stroke-width: 1.5; stroke-linejoin: miter"/>
   </g>
   <g id="patch_62">
    <path d="M 712.8 319.38 
C 715.520984 319.38 718.130889 318.298942 720.054916 316.374916 
C 721.978942 314.450889 723.06 311.840984 723.06 309.12 
C 723.06 306.399016 721.978942 303.789111 720.054916 301.865084 
C 718.130889 299.941058 715.520984 298.86 712.8 298.86 
C 710.079016 298.86 707.469111 299.941058 705.545084 301.865084 
C 703.621058 303.789111 702.54 306.399016 702.54 309.12 
C 702.54 311.840984 703.621058 314.450889 705.545084 316.374916 
C 707.469111 318.298942 710.079016 319.38 712.8 319.38 
z
" clip-path="url(#pfaa5f9a118)" style="fill: #2c3e50; opacity: 0.2; stroke: #2c3e50; stroke-width: 1.5; stroke-linejoin: miter"/>
   </g>
   <g id="patch_63">
    <path d="M 712.8 268.08 
C 715.520984 268.08 718.130889 266.998942 720.054916 265.074916 
C 721.978942 263.150889 723.06 260.540984 723.06 257.82 
C 723.06 255.099016 721.978942 252.489111 720.054916 250.565084 
C 718.130889 248.641058 715.520984 247.56 712.8 247.56 
C 710.079016 247.56 707.469111 248.641058 705.545084 250.565084 
C 703.621058 252.489111 702.54 255.099016 702.54 257.82 
C 702.54 260.540984 703.621058 263.150889 705.545084 265.074916 
C 707.469111 266.998942 710.079016 268.08 712.8 268.08 
z
" clip-path="url(#pfaa5f9a118)" style="fill: #2c3e50; opacity: 0.2; stroke: #2c3e50; stroke-width: 1.5; stroke-linejoin: miter"/>
   </g>
   <g id="patch_64">
    <path d="M 712.8 230.46 
C 719.148962 230.46 725.238742 227.937531 729.728136 223.448136 
C 734.217531 218.958742 736.74 212.868962 736.74 206.52 
C 736.74 200.171038 734.217531 194.081258 729.728136 189.591864 
C 725.238742 185.102469 719.148962 182.58 712.8 182.58 
C 706.451038 182.58 700.361258 185.102469 695.871864 189.591864 
C 691.382469 194.081258 688.86 200.171038 688.86 206.52 
C 688.86 212.868962 691.382469 218.958742 695.871864 223.448136 
C 700.361258 227.937531 706.451038 230.46 712.8 230.46 
z
" clip-path="url(#pfaa5f9a118)" style="fill: #e74c3c; opacity: 0.9; stroke: #e74c3c; stroke-width: 1.5; stroke-linejoin: miter"/>
   </g>
   <g id="patch_65">
    <path d="M 712.8 165.48 
C 715.520984 165.48 718.130889 164.398942 720.054916 162.474916 
C 721.978942 160.550889 723.06 157.940984 723.06 155.22 
C 723.06 152.499016 721.978942 149.889111 720.054916 147.965084 
C 718.130889 146.041058 715.520984 144.96 712.8 144.96 
C 710.079016 144.96 707.469111 146.041058 705.545084 147.965084 
C 703.621058 149.889111 702.54 152.499016 702.54 155.22 
C 702.54 157.940984 703.621058 160.550889 705.545084 162.474916 
C 707.469111 164.398942 710.079016 165.48 712.8 165.48 
z
" clip-path="url(#pfaa5f9a118)" style="fill: #2c3e50; opacity: 0.2; stroke: #2c3e50; stroke-width: 1.5; stroke-linejoin: miter"/>
   </g>
   <g id="patch_66">
    <path d="M 712.8 114.18 
C 715.520984 114.18 718.130889 113.098942 720.054916 111.174916 
C 721.978942 109.250889 723.06 106.640984 723.06 103.92 
C 723.06 101.199016 721.978942 98.589111 720.054916 96.665084 
C 718.130889 94.741058 715.520984 93.66 712.8 93.66 
C 710.079016 93.66 707.469111 94.741058 705.545084 96.665084 
C 703.621058 98.589111 702.54 101.199016 702.54 103.92 
C 702.54 106.640984 703.621058 109.250889 705.545084 111.174916 
C 707.469111 113.098942 710.079016 114.18 712.8 114.18 
z
" clip-path="url(#pfaa5f9a118)" style="fill: #2c3e50; opacity: 0.2; stroke: #2c3e50; stroke-width: 1.5; stroke-linejoin: miter"/>
   </g>
   <g id="patch_67">
    <path d="M 764.1 319.38 
C 766.820984 319.38 769.430889 318.298942 771.354916 316.374916 
C 773.278942 314.450889 774.36 311.840984 774.36 309.12 
C 774.36 306.399016 773.278942 303.789111 771.354916 301.865084 
C 769.430889 299.941058 766.820984 298.86 764.1 298.86 
C 761.379016 298.86 758.769111 299.941058 756.845084 301.865084 
C 754.921058 303.789111 753.84 306.399016 753.84 309.12 
C 753.84 311.840984 754.921058 314.450889 756.845084 316.374916 
C 758.769111 318.298942 761.379016 319.38 764.1 319.38 
z
" clip-path="url(#pfaa5f9a118)" style="fill: #2c3e50; opacity: 0.2; stroke: #2c3e50; stroke-width: 1.5; stroke-linejoin: miter"/>
   </g>
   <g id="patch_68">
    <path d="M 764.1 268.08 
C 766.820984 268.08 769.430889 266.998942 771.354916 265.074916 
C 773.278942 263.150889 774.36 260.540984 774.36 257.82 
C 774.36 255.099016 773.278942 252.489111 771.354916 250.565084 
C 769.430889 248.641058 766.820984 247.56 764.1 247.56 
C 761.379016 247.56 758.769111 248.641058 756.845084 250.565084 
C 754.921058 252.489111 753.84 255.099016 753.84 257.82 
C 753.84 260.540984 754.921058 263.150889 756.845084 265.074916 
C 758.769111 266.998942 761.379016 268.08 764.1 268.08 
z
" clip-path="url(#pfaa5f9a118)" style="fill: #2c3e50; opacity: 0.2; stroke: #2c3e50; stroke-width: 1.5; stroke-linejoin: miter"/>
   </g>
   <g id="patch_69">
    <path d="M 764.1 216.78 
C 766.820984 216.78 769.430889 215.698942 771.354916 213.774916 
C 773.278942 211.850889 774.36 209.240984 774.36 206.52 
C 774.36 203.799016 773.278942 201.189111 771.354916 199.265084 
C 769.430889 197.341058 766.820984 196.26 764.1 196.26 
C 761.379016 196.26 758.769111 197.341058 756.845084 199.265084 
C 754.921058 201.189111 753.84 203.799016 753.84 206.52 
C 753.84 209.240984 754.921058 211.850889 756.845084 213.774916 
C 758.769111 215.698942 761.379016 216.78 764.1 216.78 
z
" clip-path="url(#pfaa5f9a118)" style="fill: #2c3e50; opacity: 0.2; stroke: #2c3e50; stroke-width: 1.5; stroke-linejoin: miter"/>
   </g>
   <g id="patch_70">
    <path d="M 764.1 165.48 
C 766.820984 165.48 769.430889 164.398942 771.354916 162.474916 
C 773.278942 160.550889 774.36 157.940984 774.36 155.22 
C 774.36 152.499016 773.278942 149.889111 771.354916 147.965084 
C 769.430889 146.041058 766.820984 144.96 764.1 144.96 
C 761.379016 144.96 758.769111 146.041058 756.845084 147.965084 
C 754.921058 149.889111 753.84 152.499016 753.84 155.22 
C 753.84 157.940984 754.921058 160.550889 756.845084 162.474916 
C 758.769111 164.398942 761.379016 165.48 764.1 165.48 
z
" clip-path="url(#pfaa5f9a118)" style="fill: #2c3e50; opacity: 0.2; stroke: #2c3e50; stroke-width: 1.5; stroke-linejoin: miter"/>
   </g>
   <g id="patch_71">
    <path d="M 764.1 114.18 
C 766.820984 114.18 769.430889 113.098942 771.354916 111.174916 
C 773.278942 109.250889 774.36 106.640984 774.36 103.92 
C 774.36 101.199016 773.278942 98.589111 771.354916 96.665084 
C 769.430889 94.741058 766.820984 93.66 764.1 93.66 
C 761.379016 93.66 758.769111 94.741058 756.845084 96.665084 
C 754.921058 98.589111 753.84 101.199016 753.84 103.92 
C 753.84 106.640984 754.921058 109.250889 756.845084 111.174916 
C 758.769111 113.098942 761.379016 114.18 764.1 114.18 
z
" clip-path="url(#pfaa5f9a118)" style="fill: #2c3e50; opacity: 0.2; stroke: #2c3e50; stroke-width: 1.5; stroke-linejoin: miter"/>
   </g>
   <g id="patch_72">
    <path d="M 815.4 319.38 
C 818.120984 319.38 820.730889 318.298942 822.654916 316.374916 
C 824.578942 314.450889 825.66 311.840984 825.66 309.12 
C 825.66 306.399016 824.578942 303.789111 822.654916 301.865084 
C 820.730889 299.941058 818.120984 298.86 815.4 298.86 
C 812.679016 298.86 810.069111 299.941058 808.145084 301.865084 
C 806.221058 303.789111 805.14 306.399016 805.14 309.12 
C 805.14 311.840984 806.221058 314.450889 808.145084 316.374916 
C 810.069111 318.298942 812.679016 319.38 815.4 319.38 
z
" clip-path="url(#pfaa5f9a118)" style="fill: #2c3e50; opacity: 0.2; stroke: #2c3e50; stroke-width: 1.5; stroke-linejoin: miter"/>
   </g>
   <g id="patch_73">
    <path d="M 815.4 268.08 
C 818.120984 268.08 820.730889 266.998942 822.654916 265.074916 
C 824.578942 263.150889 825.66 260.540984 825.66 257.82 
C 825.66 255.099016 824.578942 252.489111 822.654916 250.565084 
C 820.730889 248.641058 818.120984 247.56 815.4 247.56 
C 812.679016 247.56 810.069111 248.641058 808.145084 250.565084 
C 806.221058 252.489111 805.14 255.099016 805.14 257.82 
C 805.14 260.540984 806.221058 263.150889 808.145084 265.074916 
C 810.069111 266.998942 812.679016 268.08 815.4 268.08 
z
" clip-path="url(#pfaa5f9a118)" style="fill: #2c3e50; opacity: 0.2; stroke: #2c3e50; stroke-width: 1.5; stroke-linejoin: miter"/>
   </g>
   <g id="patch_74">
    <path d="M 815.4 216.78 
C 818.120984 216.78 820.730889 215.698942 822.654916 213.774916 
C 824.578942 211.850889 825.66 209.240984 825.66 206.52 
C 825.66 203.799016 824.578942 201.189111 822.654916 199.265084 
C 820.730889 197.341058 818.120984 196.26 815.4 196.26 
C 812.679016 196.26 810.069111 197.341058 808.145084 199.265084 
C 806.221058 201.189111 805.14 203.799016 805.14 206.52 
C 805.14 209.240984 806.221058 211.850889 808.145084 213.774916 
C 810.069111 215.698942 812.679016 216.78 815.4 216.78 
z
" clip-path="url(#pfaa5f9a118)" style="fill: #2c3e50; opacity: 0.2; stroke: #2c3e50; stroke-width: 1.5; stroke-linejoin: miter"/>
   </g>
   <g id="patch_75">
    <path d="M 815.4 165.48 
C 818.120984 165.48 820.730889 164.398942 822.654916 162.474916 
C 824.578942 160.550889 825.66 157.940984 825.66 155.22 
C 825.66 152.499016 824.578942 149.889111 822.654916 147.965084 
C 820.730889 146.041058 818.120984 144.96 815.4 144.96 
C 812.679016 144.96 810.069111 146.041058 808.145084 147.965084 
C 806.221058 149.889111 805.14 152.499016 805.14 155.22 
C 805.14 157.940984 806.221058 160.550889 808.145084 162.474916 
C 810.069111 164.398942 812.679016 165.48 815.4 165.48 
z
" clip-path="url(#pfaa5f9a118)" style="fill: #2c3e50; opacity: 0.2; stroke: #2c3e50; stroke-width: 1.5; stroke-linejoin: miter"/>
   </g>
   <g id="patch_76">
    <path d="M 815.4 114.18 
C 818.120984 114.18 820.730889 113.098942 822.654916 111.174916 
C 824.578942 109.250889 825.66 106.640984 825.66 103.92 
C 825.66 101.199016 824.578942 98.589111 822.654916 96.665084 
C 820.730889 94.741058 818.120984 93.66 815.4 93.66 
C 812.679016 93.66 810.069111 94.741058 808.145084 96.665084 
C 806.221058 98.589111 805.14 101.199016 805.14 103.92 
C 805.14 106.640984 806.221058 109.250889 808.145084 111.174916 
C 810.069111 113.098942 812.679016 114.18 815.4 114.18 
z
" clip-path="url(#pfaa5f9a118)" style="fill: #2c3e50; opacity: 0.2; stroke: #2c3e50; stroke-width: 1.5; stroke-linejoin: miter"/>
   </g>
   <g id="text_6">
    <!-- +1 -->
    <g style="fill: #ffffff" transform="translate(703.5975 209.83125) scale(0.12 -0.12)">
     <defs>
      <path id="DejaVuSans-Bold-2b" d="M 3053 4013 
L 3053 2375 
L 4684 2375 
L 4684 1638 
L 3053 1638 
L 3053 0 
L 2309 0 
L 2309 1638 
L 678 1638 
L 678 2375 
L 2309 2375 
L 2309 4013 
L 3053 4013 
z
" transform="scale(0.015625)"/>
      <path id="DejaVuSans-Bold-31" d="M 750 831 
L 1813 831 
L 1813 3847 
L 722 3622 
L 722 4441 
L 1806 4666 
L 2950 4666 
L 2950 831 
L 4013 831 
L 4013 0 
L 750 0 
L 750 831 
z
" transform="scale(0.015625)"/>
     </defs>
     <use xlink:href="#DejaVuSans-Bold-2b"/>
     <use xlink:href="#DejaVuSans-Bold-31" transform="translate(83.789062 0)"/>
    </g>
   </g>
   <g id="text_7">
    <!-- State realized -->
    <g transform="translate(685.15125 342.55875) scale(0.08 -0.08)">
     <defs>
      <path id="DejaVuSans-7a" d="M 353 3500 
L 3084 3500 
L 3084 2975 
L 922 459 
L 3084 459 
L 3084 0 
L 275 0 
L 275 525 
L 2438 3041 
L 353 3041 
L 353 3500 
z
" transform="scale(0.015625)"/>
     </defs>
     <use xlink:href="#DejaVuSans-53"/>
     <use xlink:href="#DejaVuSans-74" transform="translate(63.476562 0)"/>
     <use xlink:href="#DejaVuSans-61" transform="translate(102.685547 0)"/>
     <use xlink:href="#DejaVuSans-74" transform="translate(163.964844 0)"/>
     <use xlink:href="#DejaVuSans-65" transform="translate(203.173828 0)"/>
     <use xlink:href="#DejaVuSans-20" transform="translate(264.697266 0)"/>
     <use xlink:href="#DejaVuSans-72" transform="translate(296.484375 0)"/>
     <use xlink:href="#DejaVuSans-65" transform="translate(335.347656 0)"/>
     <use xlink:href="#DejaVuSans-61" transform="translate(396.871094 0)"/>
     <use xlink:href="#DejaVuSans-6c" transform="translate(458.150391 0)"/>
     <use xlink:href="#DejaVuSans-69" transform="translate(485.933594 0)"/>
     <use xlink:href="#DejaVuSans-7a" transform="translate(513.716797 0)"/>
     <use xlink:href="#DejaVuSans-65" transform="translate(566.207031 0)"/>
     <use xlink:href="#DejaVuSans-64" transform="translate(627.730469 0)"/>
    </g>
    <!-- Flux localized -->
    <g transform="translate(685.6825 351.517) scale(0.08 -0.08)">
     <use xlink:href="#DejaVuSans-46"/>
     <use xlink:href="#DejaVuSans-6c" transform="translate(57.519531 0)"/>
     <use xlink:href="#DejaVuSans-75" transform="translate(85.302734 0)"/>
     <use xlink:href="#DejaVuSans-78" transform="translate(148.681641 0)"/>
     <use xlink:href="#DejaVuSans-20" transform="translate(207.861328 0)"/>
     <use xlink:href="#DejaVuSans-6c" transform="translate(239.648438 0)"/>
     <use xlink:href="#DejaVuSans-6f" transform="translate(267.431641 0)"/>
     <use xlink:href="#DejaVuSans-63" transform="translate(328.613281 0)"/>
     <use xlink:href="#DejaVuSans-61" transform="translate(383.59375 0)"/>
     <use xlink:href="#DejaVuSans-6c" transform="translate(444.873047 0)"/>
     <use xlink:href="#DejaVuSans-69" transform="translate(472.65625 0)"/>
     <use xlink:href="#DejaVuSans-7a" transform="translate(500.439453 0)"/>
     <use xlink:href="#DejaVuSans-65" transform="translate(552.929688 0)"/>
     <use xlink:href="#DejaVuSans-64" transform="translate(614.453125 0)"/>
    </g>
   </g>
   <g id="text_8">
    <!-- After: Manifestation -->
    <g transform="translate(653.7975 59.72) scale(0.12 -0.12)">
     <defs>
      <path id="DejaVuSans-41" d="M 2188 4044 
L 1331 1722 
L 3047 1722 
L 2188 4044 
z
M 1831 4666 
L 2547 4666 
L 4325 0 
L 3669 0 
L 3244 1197 
L 1141 1197 
L 716 0 
L 50 0 
L 1831 4666 
z
" transform="scale(0.015625)"/>
      <path id="DejaVuSans-4d" d="M 628 4666 
L 1569 4666 
L 2759 1491 
L 3956 4666 
L 4897 4666 
L 4897 0 
L 4281 0 
L 4281 4097 
L 3078 897 
L 2444 897 
L 1241 4097 
L 1241 0 
L 628 0 
L 628 4666 
z
" transform="scale(0.015625)"/>
     </defs>
     <use xlink:href="#DejaVuSans-41"/>
     <use xlink:href="#DejaVuSans-66" transform="translate(64.783203 0)"/>
     <use xlink:href="#DejaVuSans-74" transform="translate(98.238281 0)"/>
     <use xlink:href="#DejaVuSans-65" transform="translate(137.447266 0)"/>
     <use xlink:href="#DejaVuSans-72" transform="translate(198.970703 0)"/>
     <use xlink:href="#DejaVuSans-3a" transform="translate(238.333984 0)"/>
     <use xlink:href="#DejaVuSans-20" transform="translate(272.025391 0)"/>
     <use xlink:href="#DejaVuSans-4d" transform="translate(303.8125 0)"/>
     <use xlink:href="#DejaVuSans-61" transform="translate(390.091797 0)"/>
     <use xlink:href="#DejaVuSans-6e" transform="translate(451.371094 0)"/>
     <use xlink:href="#DejaVuSans-69" transform="translate(514.75 0)"/>
     <use xlink:href="#DejaVuSans-66" transform="translate(542.533203 0)"/>
     <use xlink:href="#DejaVuSans-65" transform="translate(577.738281 0)"/>
     <use xlink:href="#DejaVuSans-73" transform="translate(639.261719 0)"/>
     <use xlink:href="#DejaVuSans-74" transform="translate(691.361328 0)"/>
     <use xlink:href="#DejaVuSans-61" transform="translate(730.570312 0)"/>
     <use xlink:href="#DejaVuSans-74" transform="translate(791.849609 0)"/>
     <use xlink:href="#DejaVuSans-69" transform="translate(831.058594 0)"/>
     <use xlink:href="#DejaVuSans-6f" transform="translate(858.841797 0)"/>
     <use xlink:href="#DejaVuSans-6e" transform="translate(920.023438 0)"/>
    </g>
   </g>
  </g>
  <g id="text_9">
   <!-- Wavefunction Collapse as Manifestation -->
   <g transform="translate(288.6625 17.837812) scale(0.14 -0.14)">
    <defs>
     <path id="DejaVuSans-57" d="M 213 4666 
L 850 4666 
L 1831 722 
L 2809 4666 
L 3519 4666 
L 4500 722 
L 5478 4666 
L 6119 4666 
L 4947 0 
L 4153 0 
L 3169 4050 
L 2175 0 
L 1381 0 
L 213 4666 
z
" transform="scale(0.015625)"/>
     <path id="DejaVuSans-43" d="M 4122 4306 
L 4122 3641 
Q 3803 3938 3442 4084 
Q 3081 4231 2675 4231 
Q 1875 4231 1450 3742 
Q 1025 3253 1025 2328 
Q 1025 1406 1450 917 
Q 1875 428 2675 428 
Q 3081 428 3442 575 
Q 3803 722 4122 1019 
L 4122 359 
Q 3791 134 3420 21 
Q 3050 -91 2638 -91 
Q 1578 -91 968 557 
Q 359 1206 359 2328 
Q 359 3453 968 4101 
Q 1578 4750 2638 4750 
Q 3056 4750 3426 4639 
Q 3797 4528 4122 4306 
z
" transform="scale(0.015625)"/>
    </defs>
    <use xlink:href="#DejaVuSans-57"/>
    <use xlink:href="#DejaVuSans-61" transform="translate(92.501953 0)"/>
    <use xlink:href="#DejaVuSans-76" transform="translate(153.78125 0)"/>
    <use xlink:href="#DejaVuSans-65" transform="translate(212.960938 0)"/>
    <use xlink:href="#DejaVuSans-66" transform="translate(274.484375 0)"/>
    <use xlink:href="#DejaVuSans-75" transform="translate(309.689453 0)"/>
    <use xlink:href="#DejaVuSans-6e" transform="translate(373.068359 0)"/>
    <use xlink:href="#DejaVuSans-63" transform="translate(436.447266 0)"/>
    <use xlink:href="#DejaVuSans-74" transform="translate(491.427734 0)"/>
    <use xlink:href="#DejaVuSans-69" transform="translate(530.636719 0)"/>
    <use xlink:href="#DejaVuSans-6f" transform="translate(558.419922 0)"/>
    <use xlink:href="#DejaVuSans-6e" transform="translate(619.601562 0)"/>
    <use xlink:href="#DejaVuSans-20" transform="translate(682.980469 0)"/>
    <use xlink:href="#DejaVuSans-43" transform="translate(714.767578 0)"/>
    <use xlink:href="#DejaVuSans-6f" transform="translate(784.591797 0)"/>
    <use xlink:href="#DejaVuSans-6c" transform="translate(845.773438 0)"/>
    <use xlink:href="#DejaVuSans-6c" transform="translate(873.556641 0)"/>
    <use xlink:href="#DejaVuSans-61" transform="translate(901.339844 0)"/>
    <use xlink:href="#DejaVuSans-70" transform="translate(962.619141 0)"/>
    <use xlink:href="#DejaVuSans-73" transform="translate(1026.095703 0)"/>
    <use xlink:href="#DejaVuSans-65" transform="translate(1078.195312 0)"/>
    <use xlink:href="#DejaVuSans-20" transform="translate(1139.71875 0)"/>
    <use xlink:href="#DejaVuSans-61" transform="translate(1171.505859 0)"/>
    <use xlink:href="#DejaVuSans-73" transform="translate(1232.785156 0)"/>
    <use xlink:href="#DejaVuSans-20" transform="translate(1284.884766 0)"/>
    <use xlink:href="#DejaVuSans-4d" transform="translate(1316.671875 0)"/>
    <use xlink:href="#DejaVuSans-61" transform="translate(1402.951172 0)"/>
    <use xlink:href="#DejaVuSans-6e" transform="translate(1464.230469 0)"/>
    <use xlink:href="#DejaVuSans-69" transform="translate(1527.609375 0)"/>
    <use xlink:href="#DejaVuSans-66" transform="translate(1555.392578 0)"/>
    <use xlink:href="#DejaVuSans-65" transform="translate(1590.597656 0)"/>
    <use xlink:href="#DejaVuSans-73" transform="translate(1652.121094 0)"/>
    <use xlink:href="#DejaVuSans-74" transform="translate(1704.220703 0)"/>
    <use xlink:href="#DejaVuSans-61" transform="translate(1743.429688 0)"/>
    <use xlink:href="#DejaVuSans-74" transform="translate(1804.708984 0)"/>
    <use xlink:href="#DejaVuSans-69" transform="translate(1843.917969 0)"/>
    <use xlink:href="#DejaVuSans-6f" transform="translate(1871.701172 0)"/>
    <use xlink:href="#DejaVuSans-6e" transform="translate(1932.882812 0)"/>
   </g>
  </g>
 </g>
 <defs>
  <clipPath id="pb47d2a7b66">
   <rect x="7.2" y="69.72" width="273.6" height="273.6"/>
  </clipPath>
  <clipPath id="p5433793b75">
   <rect x="291.6" y="69.72" width="273.6" height="273.6"/>
  </clipPath>
  <clipPath id="pfaa5f9a118">
   <rect x="576" y="69.72" width="273.6" height="273.6"/>
  </clipPath>
 </defs>
</svg>
