<?xml version="1.0" encoding="utf-8" standalone="no"?>
<!DOCTYPE svg PUBLIC "-//W3C//DTD SVG 1.1//EN"
  "http://www.w3.org/Graphics/SVG/1.1/DTD/svg11.dtd">
<svg xmlns:xlink="http://www.w3.org/1999/xlink" width="926.302812pt" height="337.57875pt" viewBox="0 0 926.302812 337.57875" xmlns="http://www.w3.org/2000/svg" version="1.1">
 <metadata>
  <rdf:RDF xmlns:dc="http://purl.org/dc/elements/1.1/" xmlns:cc="http://creativecommons.org/ns#" xmlns:rdf="http://www.w3.org/1999/02/22-rdf-syntax-ns#">
   <cc:Work>
    <dc:type rdf:resource="http://purl.org/dc/dcmitype/StillImage"/>
    <dc:date>2026-01-02T19:17:48.475912</dc:date>
    <dc:format>image/svg+xml</dc:format>
    <dc:creator>
     <cc:Agent>
      <dc:title>Matplotlib v3.10.8, https://matplotlib.org/</dc:title>
     </cc:Agent>
    </dc:creator>
   </cc:Work>
  </rdf:RDF>
 </metadata>
 <defs>
  <style type="text/css">*{stroke-linejoin: round; stroke-linecap: butt}</style>
 </defs>
 <g id="figure_1">
  <g id="patch_1">
   <path d="M 0 337.57875 
L 926.302812 337.57875 
L 926.302812 0 
L 0 0 
z
" style="fill: #ffffff"/>
  </g>
  <g id="axes_1">
   <g id="patch_2">
    <path d="M 50.562813 301.958125 
L 320.680852 301.958125 
L 320.680852 26.318125 
L 50.562813 26.318125 
z
" style="fill: #ffffff"/>
   </g>
   <g id="patch_3">
    <path d="M 158.610028 262.580982 
L 212.633636 262.580982 
L 212.633636 65.695268 
L 158.610028 65.695268 
z
" clip-path="url(#pb448d56fc4)" style="fill: #ecf0f1; opacity: 0.7; stroke: #95a5a6; stroke-linejoin: miter"/>
   </g>
   <g id="matplotlib.axis_1">
    <g id="xtick_1">
     <g id="line2d_1">
      <defs>
       <path id="m4ef921f99a" d="M 0 0 
L 0 3.5 
" style="stroke: #000000; stroke-width: 0.8"/>
      </defs>
      <g>
       <use xlink:href="#m4ef921f99a" x="50.562813" y="301.958125" style="stroke: #000000; stroke-width: 0.8"/>
      </g>
     </g>
     <g id="text_1">
      <!-- −3 -->
      <g transform="translate(43.191719 316.556562) scale(0.1 -0.1)">
       <defs>
        <path id="DejaVuSans-2212" d="M 678 2272 
L 4684 2272 
L 4684 1741 
L 678 1741 
L 678 2272 
z
" transform="scale(0.015625)"/>
        <path id="DejaVuSans-33" d="M 2597 2516 
Q 3050 2419 3304 2112 
Q 3559 1806 3559 1356 
Q 3559 666 3084 287 
Q 2609 -91 1734 -91 
Q 1441 -91 1130 -33 
Q 819 25 488 141 
L 488 750 
Q 750 597 1062 519 
Q 1375 441 1716 441 
Q 2309 441 2620 675 
Q 2931 909 2931 1356 
Q 2931 1769 2642 2001 
Q 2353 2234 1838 2234 
L 1294 2234 
L 1294 2753 
L 1863 2753 
Q 2328 2753 2575 2939 
Q 2822 3125 2822 3475 
Q 2822 3834 2567 4026 
Q 2313 4219 1838 4219 
Q 1578 4219 1281 4162 
Q 984 4106 628 3988 
L 628 4550 
Q 988 4650 1302 4700 
Q 1616 4750 1894 4750 
Q 2613 4750 3031 4423 
Q 3450 4097 3450 3541 
Q 3450 3153 3228 2886 
Q 3006 2619 2597 2516 
z
" transform="scale(0.015625)"/>
       </defs>
       <use xlink:href="#DejaVuSans-2212"/>
       <use xlink:href="#DejaVuSans-33" transform="translate(83.789062 0)"/>
      </g>
     </g>
    </g>
    <g id="xtick_2">
     <g id="line2d_2">
      <g>
       <use xlink:href="#m4ef921f99a" x="95.582486" y="301.958125" style="stroke: #000000; stroke-width: 0.8"/>
      </g>
     </g>
     <g id="text_2">
      <!-- −2 -->
      <g transform="translate(88.211392 316.556562) scale(0.1 -0.1)">
       <defs>
        <path id="DejaVuSans-32" d="M 1228 531 
L 3431 531 
L 3431 0 
L 469 0 
L 469 531 
Q 828 903 1448 1529 
Q 2069 2156 2228 2338 
Q 2531 2678 2651 2914 
Q 2772 3150 2772 3378 
Q 2772 3750 2511 3984 
Q 2250 4219 1831 4219 
Q 1534 4219 1204 4116 
Q 875 4013 500 3803 
L 500 4441 
Q 881 4594 1212 4672 
Q 1544 4750 1819 4750 
Q 2544 4750 2975 4387 
Q 3406 4025 3406 3419 
Q 3406 3131 3298 2873 
Q 3191 2616 2906 2266 
Q 2828 2175 2409 1742 
Q 1991 1309 1228 531 
z
" transform="scale(0.015625)"/>
       </defs>
       <use xlink:href="#DejaVuSans-2212"/>
       <use xlink:href="#DejaVuSans-32" transform="translate(83.789062 0)"/>
      </g>
     </g>
    </g>
    <g id="xtick_3">
     <g id="line2d_3">
      <g>
       <use xlink:href="#m4ef921f99a" x="140.602159" y="301.958125" style="stroke: #000000; stroke-width: 0.8"/>
      </g>
     </g>
     <g id="text_3">
      <!-- −1 -->
      <g transform="translate(133.231065 316.556562) scale(0.1 -0.1)">
       <defs>
        <path id="DejaVuSans-31" d="M 794 531 
L 1825 531 
L 1825 4091 
L 703 3866 
L 703 4441 
L 1819 4666 
L 2450 4666 
L 2450 531 
L 3481 531 
L 3481 0 
L 794 0 
L 794 531 
z
" transform="scale(0.015625)"/>
       </defs>
       <use xlink:href="#DejaVuSans-2212"/>
       <use xlink:href="#DejaVuSans-31" transform="translate(83.789062 0)"/>
      </g>
     </g>
    </g>
    <g id="xtick_4">
     <g id="line2d_4">
      <g>
       <use xlink:href="#m4ef921f99a" x="185.621832" y="301.958125" style="stroke: #000000; stroke-width: 0.8"/>
      </g>
     </g>
     <g id="text_4">
      <!-- 0 -->
      <g transform="translate(182.440582 316.556562) scale(0.1 -0.1)">
       <defs>
        <path id="DejaVuSans-30" d="M 2034 4250 
Q 1547 4250 1301 3770 
Q 1056 3291 1056 2328 
Q 1056 1369 1301 889 
Q 1547 409 2034 409 
Q 2525 409 2770 889 
Q 3016 1369 3016 2328 
Q 3016 3291 2770 3770 
Q 2525 4250 2034 4250 
z
M 2034 4750 
Q 2819 4750 3233 4129 
Q 3647 3509 3647 2328 
Q 3647 1150 3233 529 
Q 2819 -91 2034 -91 
Q 1250 -91 836 529 
Q 422 1150 422 2328 
Q 422 3509 836 4129 
Q 1250 4750 2034 4750 
z
" transform="scale(0.015625)"/>
       </defs>
       <use xlink:href="#DejaVuSans-30"/>
      </g>
     </g>
    </g>
    <g id="xtick_5">
     <g id="line2d_5">
      <g>
       <use xlink:href="#m4ef921f99a" x="230.641505" y="301.958125" style="stroke: #000000; stroke-width: 0.8"/>
      </g>
     </g>
     <g id="text_5">
      <!-- 1 -->
      <g transform="translate(227.460255 316.556562) scale(0.1 -0.1)">
       <use xlink:href="#DejaVuSans-31"/>
      </g>
     </g>
    </g>
    <g id="xtick_6">
     <g id="line2d_6">
      <g>
       <use xlink:href="#m4ef921f99a" x="275.661179" y="301.958125" style="stroke: #000000; stroke-width: 0.8"/>
      </g>
     </g>
     <g id="text_6">
      <!-- 2 -->
      <g transform="translate(272.479929 316.556562) scale(0.1 -0.1)">
       <use xlink:href="#DejaVuSans-32"/>
      </g>
     </g>
    </g>
    <g id="xtick_7">
     <g id="line2d_7">
      <g>
       <use xlink:href="#m4ef921f99a" x="320.680852" y="301.958125" style="stroke: #000000; stroke-width: 0.8"/>
      </g>
     </g>
     <g id="text_7">
      <!-- 3 -->
      <g transform="translate(317.499602 316.556562) scale(0.1 -0.1)">
       <use xlink:href="#DejaVuSans-33"/>
      </g>
     </g>
    </g>
    <g id="text_8">
     <!-- position x -->
     <g transform="translate(166.139332 328.715) scale(0.08 -0.08)">
      <defs>
       <path id="DejaVuSans-70" d="M 1159 525 
L 1159 -1331 
L 581 -1331 
L 581 3500 
L 1159 3500 
L 1159 2969 
Q 1341 3281 1617 3432 
Q 1894 3584 2278 3584 
Q 2916 3584 3314 3078 
Q 3713 2572 3713 1747 
Q 3713 922 3314 415 
Q 2916 -91 2278 -91 
Q 1894 -91 1617 61 
Q 1341 213 1159 525 
z
M 3116 1747 
Q 3116 2381 2855 2742 
Q 2594 3103 2138 3103 
Q 1681 3103 1420 2742 
Q 1159 2381 1159 1747 
Q 1159 1113 1420 752 
Q 1681 391 2138 391 
Q 2594 391 2855 752 
Q 3116 1113 3116 1747 
z
" transform="scale(0.015625)"/>
       <path id="DejaVuSans-6f" d="M 1959 3097 
Q 1497 3097 1228 2736 
Q 959 2375 959 1747 
Q 959 1119 1226 758 
Q 1494 397 1959 397 
Q 2419 397 2687 759 
Q 2956 1122 2956 1747 
Q 2956 2369 2687 2733 
Q 2419 3097 1959 3097 
z
M 1959 3584 
Q 2709 3584 3137 3096 
Q 3566 2609 3566 1747 
Q 3566 888 3137 398 
Q 2709 -91 1959 -91 
Q 1206 -91 779 398 
Q 353 888 353 1747 
Q 353 2609 779 3096 
Q 1206 3584 1959 3584 
z
" transform="scale(0.015625)"/>
       <path id="DejaVuSans-73" d="M 2834 3397 
L 2834 2853 
Q 2591 2978 2328 3040 
Q 2066 3103 1784 3103 
Q 1356 3103 1142 2972 
Q 928 2841 928 2578 
Q 928 2378 1081 2264 
Q 1234 2150 1697 2047 
L 1894 2003 
Q 2506 1872 2764 1633 
Q 3022 1394 3022 966 
Q 3022 478 2636 193 
Q 2250 -91 1575 -91 
Q 1294 -91 989 -36 
Q 684 19 347 128 
L 347 722 
Q 666 556 975 473 
Q 1284 391 1588 391 
Q 1994 391 2212 530 
Q 2431 669 2431 922 
Q 2431 1156 2273 1281 
Q 2116 1406 1581 1522 
L 1381 1569 
Q 847 1681 609 1914 
Q 372 2147 372 2553 
Q 372 3047 722 3315 
Q 1072 3584 1716 3584 
Q 2034 3584 2315 3537 
Q 2597 3491 2834 3397 
z
" transform="scale(0.015625)"/>
       <path id="DejaVuSans-69" d="M 603 3500 
L 1178 3500 
L 1178 0 
L 603 0 
L 603 3500 
z
M 603 4863 
L 1178 4863 
L 1178 4134 
L 603 4134 
L 603 4863 
z
" transform="scale(0.015625)"/>
       <path id="DejaVuSans-74" d="M 1172 4494 
L 1172 3500 
L 2356 3500 
L 2356 3053 
L 1172 3053 
L 1172 1153 
Q 1172 725 1289 603 
Q 1406 481 1766 481 
L 2356 481 
L 2356 0 
L 1766 0 
Q 1100 0 847 248 
Q 594 497 594 1153 
L 594 3053 
L 172 3053 
L 172 3500 
L 594 3500 
L 594 4494 
L 1172 4494 
z
" transform="scale(0.015625)"/>
       <path id="DejaVuSans-6e" d="M 3513 2113 
L 3513 0 
L 2938 0 
L 2938 2094 
Q 2938 2591 2744 2837 
Q 2550 3084 2163 3084 
Q 1697 3084 1428 2787 
Q 1159 2491 1159 1978 
L 1159 0 
L 581 0 
L 581 3500 
L 1159 3500 
L 1159 2956 
Q 1366 3272 1645 3428 
Q 1925 3584 2291 3584 
Q 2894 3584 3203 3211 
Q 3513 2838 3513 2113 
z
" transform="scale(0.015625)"/>
       <path id="DejaVuSans-20" transform="scale(0.015625)"/>
       <path id="DejaVuSans-78" d="M 3513 3500 
L 2247 1797 
L 3578 0 
L 2900 0 
L 1881 1375 
L 863 0 
L 184 0 
L 1544 1831 
L 300 3500 
L 978 3500 
L 1906 2253 
L 2834 3500 
L 3513 3500 
z
" transform="scale(0.015625)"/>
      </defs>
      <use xlink:href="#DejaVuSans-70"/>
      <use xlink:href="#DejaVuSans-6f" transform="translate(63.476562 0)"/>
      <use xlink:href="#DejaVuSans-73" transform="translate(124.658203 0)"/>
      <use xlink:href="#DejaVuSans-69" transform="translate(176.757812 0)"/>
      <use xlink:href="#DejaVuSans-74" transform="translate(204.541016 0)"/>
      <use xlink:href="#DejaVuSans-69" transform="translate(243.75 0)"/>
      <use xlink:href="#DejaVuSans-6f" transform="translate(271.533203 0)"/>
      <use xlink:href="#DejaVuSans-6e" transform="translate(332.714844 0)"/>
      <use xlink:href="#DejaVuSans-20" transform="translate(396.09375 0)"/>
      <use xlink:href="#DejaVuSans-78" transform="translate(427.880859 0)"/>
     </g>
    </g>
   </g>
   <g id="matplotlib.axis_2">
    <g id="ytick_1">
     <g id="line2d_8">
      <defs>
       <path id="m848aca5910" d="M 0 0 
L -3.5 0 
" style="stroke: #000000; stroke-width: 0.8"/>
      </defs>
      <g>
       <use xlink:href="#m848aca5910" x="50.562813" y="301.958125" style="stroke: #000000; stroke-width: 0.8"/>
      </g>
     </g>
     <g id="text_9">
      <!-- −0.2 -->
      <g transform="translate(19.28 305.757344) scale(0.1 -0.1)">
       <defs>
        <path id="DejaVuSans-2e" d="M 684 794 
L 1344 794 
L 1344 0 
L 684 0 
L 684 794 
z
" transform="scale(0.015625)"/>
       </defs>
       <use xlink:href="#DejaVuSans-2212"/>
       <use xlink:href="#DejaVuSans-30" transform="translate(83.789062 0)"/>
       <use xlink:href="#DejaVuSans-2e" transform="translate(147.412109 0)"/>
       <use xlink:href="#DejaVuSans-32" transform="translate(179.199219 0)"/>
      </g>
     </g>
    </g>
    <g id="ytick_2">
     <g id="line2d_9">
      <g>
       <use xlink:href="#m848aca5910" x="50.562813" y="262.580982" style="stroke: #000000; stroke-width: 0.8"/>
      </g>
     </g>
     <g id="text_10">
      <!-- 0.0 -->
      <g transform="translate(27.659688 266.380201) scale(0.1 -0.1)">
       <use xlink:href="#DejaVuSans-30"/>
       <use xlink:href="#DejaVuSans-2e" transform="translate(63.623047 0)"/>
       <use xlink:href="#DejaVuSans-30" transform="translate(95.410156 0)"/>
      </g>
     </g>
    </g>
    <g id="ytick_3">
     <g id="line2d_10">
      <g>
       <use xlink:href="#m848aca5910" x="50.562813" y="223.203839" style="stroke: #000000; stroke-width: 0.8"/>
      </g>
     </g>
     <g id="text_11">
      <!-- 0.2 -->
      <g transform="translate(27.659688 227.003058) scale(0.1 -0.1)">
       <use xlink:href="#DejaVuSans-30"/>
       <use xlink:href="#DejaVuSans-2e" transform="translate(63.623047 0)"/>
       <use xlink:href="#DejaVuSans-32" transform="translate(95.410156 0)"/>
      </g>
     </g>
    </g>
    <g id="ytick_4">
     <g id="line2d_11">
      <g>
       <use xlink:href="#m848aca5910" x="50.562813" y="183.826696" style="stroke: #000000; stroke-width: 0.8"/>
      </g>
     </g>
     <g id="text_12">
      <!-- 0.4 -->
      <g transform="translate(27.659688 187.625915) scale(0.1 -0.1)">
       <defs>
        <path id="DejaVuSans-34" d="M 2419 4116 
L 825 1625 
L 2419 1625 
L 2419 4116 
z
M 2253 4666 
L 3047 4666 
L 3047 1625 
L 3713 1625 
L 3713 1100 
L 3047 1100 
L 3047 0 
L 2419 0 
L 2419 1100 
L 313 1100 
L 313 1709 
L 2253 4666 
z
" transform="scale(0.015625)"/>
       </defs>
       <use xlink:href="#DejaVuSans-30"/>
       <use xlink:href="#DejaVuSans-2e" transform="translate(63.623047 0)"/>
       <use xlink:href="#DejaVuSans-34" transform="translate(95.410156 0)"/>
      </g>
     </g>
    </g>
    <g id="ytick_5">
     <g id="line2d_12">
      <g>
       <use xlink:href="#m848aca5910" x="50.562813" y="144.449554" style="stroke: #000000; stroke-width: 0.8"/>
      </g>
     </g>
     <g id="text_13">
      <!-- 0.6 -->
      <g transform="translate(27.659688 148.248772) scale(0.1 -0.1)">
       <defs>
        <path id="DejaVuSans-36" d="M 2113 2584 
Q 1688 2584 1439 2293 
Q 1191 2003 1191 1497 
Q 1191 994 1439 701 
Q 1688 409 2113 409 
Q 2538 409 2786 701 
Q 3034 994 3034 1497 
Q 3034 2003 2786 2293 
Q 2538 2584 2113 2584 
z
M 3366 4563 
L 3366 3988 
Q 3128 4100 2886 4159 
Q 2644 4219 2406 4219 
Q 1781 4219 1451 3797 
Q 1122 3375 1075 2522 
Q 1259 2794 1537 2939 
Q 1816 3084 2150 3084 
Q 2853 3084 3261 2657 
Q 3669 2231 3669 1497 
Q 3669 778 3244 343 
Q 2819 -91 2113 -91 
Q 1303 -91 875 529 
Q 447 1150 447 2328 
Q 447 3434 972 4092 
Q 1497 4750 2381 4750 
Q 2619 4750 2861 4703 
Q 3103 4656 3366 4563 
z
" transform="scale(0.015625)"/>
       </defs>
       <use xlink:href="#DejaVuSans-30"/>
       <use xlink:href="#DejaVuSans-2e" transform="translate(63.623047 0)"/>
       <use xlink:href="#DejaVuSans-36" transform="translate(95.410156 0)"/>
      </g>
     </g>
    </g>
    <g id="ytick_6">
     <g id="line2d_13">
      <g>
       <use xlink:href="#m848aca5910" x="50.562813" y="105.072411" style="stroke: #000000; stroke-width: 0.8"/>
      </g>
     </g>
     <g id="text_14">
      <!-- 0.8 -->
      <g transform="translate(27.659688 108.871629) scale(0.1 -0.1)">
       <defs>
        <path id="DejaVuSans-38" d="M 2034 2216 
Q 1584 2216 1326 1975 
Q 1069 1734 1069 1313 
Q 1069 891 1326 650 
Q 1584 409 2034 409 
Q 2484 409 2743 651 
Q 3003 894 3003 1313 
Q 3003 1734 2745 1975 
Q 2488 2216 2034 2216 
z
M 1403 2484 
Q 997 2584 770 2862 
Q 544 3141 544 3541 
Q 544 4100 942 4425 
Q 1341 4750 2034 4750 
Q 2731 4750 3128 4425 
Q 3525 4100 3525 3541 
Q 3525 3141 3298 2862 
Q 3072 2584 2669 2484 
Q 3125 2378 3379 2068 
Q 3634 1759 3634 1313 
Q 3634 634 3220 271 
Q 2806 -91 2034 -91 
Q 1263 -91 848 271 
Q 434 634 434 1313 
Q 434 1759 690 2068 
Q 947 2378 1403 2484 
z
M 1172 3481 
Q 1172 3119 1398 2916 
Q 1625 2713 2034 2713 
Q 2441 2713 2670 2916 
Q 2900 3119 2900 3481 
Q 2900 3844 2670 4047 
Q 2441 4250 2034 4250 
Q 1625 4250 1398 4047 
Q 1172 3844 1172 3481 
z
" transform="scale(0.015625)"/>
       </defs>
       <use xlink:href="#DejaVuSans-30"/>
       <use xlink:href="#DejaVuSans-2e" transform="translate(63.623047 0)"/>
       <use xlink:href="#DejaVuSans-38" transform="translate(95.410156 0)"/>
      </g>
     </g>
    </g>
    <g id="ytick_7">
     <g id="line2d_14">
      <g>
       <use xlink:href="#m848aca5910" x="50.562813" y="65.695268" style="stroke: #000000; stroke-width: 0.8"/>
      </g>
     </g>
     <g id="text_15">
      <!-- 1.0 -->
      <g transform="translate(27.659688 69.494487) scale(0.1 -0.1)">
       <use xlink:href="#DejaVuSans-31"/>
       <use xlink:href="#DejaVuSans-2e" transform="translate(63.623047 0)"/>
       <use xlink:href="#DejaVuSans-30" transform="translate(95.410156 0)"/>
      </g>
     </g>
    </g>
    <g id="ytick_8">
     <g id="line2d_15">
      <g>
       <use xlink:href="#m848aca5910" x="50.562813" y="26.318125" style="stroke: #000000; stroke-width: 0.8"/>
      </g>
     </g>
     <g id="text_16">
      <!-- 1.2 -->
      <g transform="translate(27.659688 30.117344) scale(0.1 -0.1)">
       <use xlink:href="#DejaVuSans-31"/>
       <use xlink:href="#DejaVuSans-2e" transform="translate(63.623047 0)"/>
       <use xlink:href="#DejaVuSans-32" transform="translate(95.410156 0)"/>
      </g>
     </g>
    </g>
    <g id="text_17">
     <!-- $|\psi(x)|$ -->
     <g transform="translate(13.36 174.978125) rotate(-90) scale(0.08 -0.08)">
      <defs>
       <path id="DejaVuSans-7c" d="M 1344 4891 
L 1344 -1509 
L 813 -1509 
L 813 4891 
L 1344 4891 
z
" transform="scale(0.015625)"/>
       <path id="DejaVuSans-Oblique-3c8" d="M 1591 -78 
Q 891 38 616 341 
Q 278 713 425 1472 
L 819 3500 
L 1400 3500 
L 1009 1494 
Q 900 922 1119 684 
Q 1313 478 1691 434 
L 2284 3500 
L 2856 3500 
L 2263 438 
Q 2681 481 2928 688 
Q 3247 950 3353 1497 
L 3741 3500 
L 4322 3500 
L 3928 1475 
Q 3775 688 3300 344 
Q 2872 34 2163 -75 
L 1919 -1331 
L 1347 -1331 
L 1591 -78 
z
" transform="scale(0.015625)"/>
       <path id="DejaVuSans-28" d="M 1984 4856 
Q 1566 4138 1362 3434 
Q 1159 2731 1159 2009 
Q 1159 1288 1364 580 
Q 1569 -128 1984 -844 
L 1484 -844 
Q 1016 -109 783 600 
Q 550 1309 550 2009 
Q 550 2706 781 3412 
Q 1013 4119 1484 4856 
L 1984 4856 
z
" transform="scale(0.015625)"/>
       <path id="DejaVuSans-Oblique-78" d="M 3841 3500 
L 2234 1784 
L 3219 0 
L 2559 0 
L 1819 1388 
L 531 0 
L -166 0 
L 1556 1844 
L 641 3500 
L 1300 3500 
L 1972 2234 
L 3144 3500 
L 3841 3500 
z
" transform="scale(0.015625)"/>
       <path id="DejaVuSans-29" d="M 513 4856 
L 1013 4856 
Q 1481 4119 1714 3412 
Q 1947 2706 1947 2009 
Q 1947 1309 1714 600 
Q 1481 -109 1013 -844 
L 513 -844 
Q 928 -128 1133 580 
Q 1338 1288 1338 2009 
Q 1338 2731 1133 3434 
Q 928 4138 513 4856 
z
" transform="scale(0.015625)"/>
      </defs>
      <use xlink:href="#DejaVuSans-7c" transform="translate(0 0.578125)"/>
      <use xlink:href="#DejaVuSans-Oblique-3c8" transform="translate(33.691406 0.578125)"/>
      <use xlink:href="#DejaVuSans-28" transform="translate(99.658203 0.578125)"/>
      <use xlink:href="#DejaVuSans-Oblique-78" transform="translate(138.671875 0.578125)"/>
      <use xlink:href="#DejaVuSans-29" transform="translate(197.851562 0.578125)"/>
      <use xlink:href="#DejaVuSans-7c" transform="translate(236.865234 0.578125)"/>
     </g>
    </g>
   </g>
   <g id="line2d_16">
    <path d="M 50.562813 65.695268 
L 53.94775 58.828197 
L 55.978713 55.288043 
L 57.332688 53.335144 
L 58.686663 51.783633 
L 60.040638 50.683893 
L 61.394614 50.071637 
L 62.071601 49.955169 
L 62.748589 49.966748 
L 63.425576 50.106282 
L 64.102564 50.372633 
L 65.456539 51.276111 
L 66.810514 52.647841 
L 68.164489 54.443277 
L 69.518464 56.604115 
L 71.549427 60.374307 
L 74.934365 67.369998 
L 77.642315 72.7925 
L 79.673278 76.293838 
L 81.027253 78.2129 
L 82.381228 79.725459 
L 83.735203 80.782398 
L 84.412191 81.128671 
L 85.089178 81.349392 
L 85.766166 81.442764 
L 86.443154 81.408028 
L 87.120141 81.245467 
L 87.797129 80.956403 
L 89.151104 80.009182 
L 90.505079 78.597126 
L 91.859054 76.766091 
L 93.213029 74.575539 
L 95.243992 70.773856 
L 102.690855 55.986186 
L 104.04483 53.917906 
L 105.398805 52.232089 
L 106.752781 50.983479 
L 108.106756 50.212625 
L 108.783743 50.014812 
L 109.460731 49.94456 
L 110.137718 50.002443 
L 110.814706 50.187989 
L 111.491694 50.499689 
L 112.845669 51.490401 
L 114.199644 52.942407 
L 115.553619 54.808554 
L 116.907594 57.028239 
L 118.938557 60.860402 
L 125.708432 74.461829 
L 127.062408 76.668029 
L 128.416383 78.517896 
L 129.770358 79.951356 
L 131.124333 80.92186 
L 131.801321 81.223035 
L 132.478308 81.39789 
L 133.155296 81.445001 
L 133.832283 81.363987 
L 134.509271 81.155506 
L 135.863246 80.363949 
L 137.217221 79.096036 
L 138.571196 77.392942 
L 139.925171 75.309974 
L 141.956134 71.624066 
L 144.664084 66.08927 
L 148.049022 59.18493 
L 150.079985 55.587043 
L 151.43396 53.583231 
L 152.787935 51.972749 
L 154.14191 50.807897 
L 155.495885 50.126503 
L 156.172873 49.974654 
L 156.849861 49.950694 
L 157.526848 50.054818 
L 158.203836 50.28618 
L 158.880823 68.28351 
L 160.911786 86.641123 
L 162.942749 103.264272 
L 164.973711 118.316833 
L 167.004674 131.947198 
L 169.035637 144.289739 
L 171.066599 155.466132 
L 173.097562 165.586557 
L 175.128525 174.750784 
L 177.159488 183.049156 
L 179.19045 190.563482 
L 181.221413 197.367839 
L 183.252376 203.529307 
L 185.283338 209.108628 
L 187.314301 214.160802 
L 189.345264 218.735638 
L 191.376226 222.878233 
L 193.407189 226.629428 
L 195.438152 230.026203 
L 198.146102 234.061331 
L 200.854052 237.59631 
L 203.562003 240.693132 
L 206.269953 243.406106 
L 208.977903 245.782811 
L 211.685853 247.864925 
L 212.362841 248.343807 
L 213.039829 214.114668 
L 216.424766 211.271499 
L 217.778742 210.376229 
L 219.132717 209.748779 
L 220.486692 209.445475 
L 221.840667 209.493545 
L 223.194642 209.888675 
L 224.548617 210.595392 
L 225.902592 211.550253 
L 228.610543 213.846948 
L 230.641505 215.501753 
L 231.99548 216.384377 
L 233.349456 216.995457 
L 234.703431 217.280135 
L 236.057406 217.212854 
L 237.411381 216.799655 
L 238.765356 216.077632 
L 240.119331 215.111601 
L 243.504269 212.230642 
L 245.535232 210.69888 
L 246.889207 209.958378 
L 248.243182 209.523206 
L 249.597157 209.43243 
L 250.951132 209.6942 
L 252.305107 210.285016 
L 253.659083 211.151839 
L 255.690045 212.794272 
L 259.074983 215.608321 
L 260.428958 216.464954 
L 261.782933 217.04281 
L 263.136909 217.290012 
L 264.490884 217.18437 
L 265.844859 216.735366 
L 267.198834 215.983309 
L 269.229797 214.440674 
L 273.291722 211.058392 
L 274.645697 210.215097 
L 275.999672 209.654086 
L 277.353647 209.425722 
L 278.707623 209.550506 
L 280.061598 210.017235 
L 281.415573 210.784011 
L 283.446536 212.3403 
L 287.508461 215.712498 
L 288.862436 216.54223 
L 290.216411 217.086247 
L 291.570386 217.295712 
L 292.924361 217.15182 
L 294.278337 216.667489 
L 295.632312 215.886198 
L 297.663274 214.31667 
L 301.7252 210.955452 
L 303.079175 210.139503 
L 304.43315 209.612624 
L 305.787125 209.422114 
L 307.1411 209.585076 
L 308.495076 210.08688 
L 309.849051 210.882478 
L 311.880013 212.46483 
L 315.264951 215.325204 
L 316.618926 216.247742 
L 317.972901 216.911002 
L 319.326877 217.255442 
L 320.680852 217.25014 
L 320.680852 217.25014 
" clip-path="url(#pb448d56fc4)" style="fill: none; stroke: #f39c12; stroke-width: 2.5; stroke-linecap: square"/>
   </g>
   <g id="patch_4">
    <path d="M 50.562813 301.958125 
L 50.562813 26.318125 
" style="fill: none; stroke: #000000; stroke-width: 0.8; stroke-linejoin: miter; stroke-linecap: square"/>
   </g>
   <g id="patch_5">
    <path d="M 320.680852 301.958125 
L 320.680852 26.318125 
" style="fill: none; stroke: #000000; stroke-width: 0.8; stroke-linejoin: miter; stroke-linecap: square"/>
   </g>
   <g id="patch_6">
    <path d="M 50.562813 301.958125 
L 320.680852 301.958125 
" style="fill: none; stroke: #000000; stroke-width: 0.8; stroke-linejoin: miter; stroke-linecap: square"/>
   </g>
   <g id="patch_7">
    <path d="M 50.562813 26.318125 
L 320.680852 26.318125 
" style="fill: none; stroke: #000000; stroke-width: 0.8; stroke-linejoin: miter; stroke-linecap: square"/>
   </g>
   <g id="text_18">
    <!-- Barrier -->
    <g style="fill: #95a5a6" transform="translate(171.990582 46.892732) scale(0.08 -0.08)">
     <defs>
      <path id="DejaVuSans-42" d="M 1259 2228 
L 1259 519 
L 2272 519 
Q 2781 519 3026 730 
Q 3272 941 3272 1375 
Q 3272 1813 3026 2020 
Q 2781 2228 2272 2228 
L 1259 2228 
z
M 1259 4147 
L 1259 2741 
L 2194 2741 
Q 2656 2741 2882 2914 
Q 3109 3088 3109 3444 
Q 3109 3797 2882 3972 
Q 2656 4147 2194 4147 
L 1259 4147 
z
M 628 4666 
L 2241 4666 
Q 2963 4666 3353 4366 
Q 3744 4066 3744 3513 
Q 3744 3084 3544 2831 
Q 3344 2578 2956 2516 
Q 3422 2416 3680 2098 
Q 3938 1781 3938 1306 
Q 3938 681 3513 340 
Q 3088 0 2303 0 
L 628 0 
L 628 4666 
z
" transform="scale(0.015625)"/>
      <path id="DejaVuSans-61" d="M 2194 1759 
Q 1497 1759 1228 1600 
Q 959 1441 959 1056 
Q 959 750 1161 570 
Q 1363 391 1709 391 
Q 2188 391 2477 730 
Q 2766 1069 2766 1631 
L 2766 1759 
L 2194 1759 
z
M 3341 1997 
L 3341 0 
L 2766 0 
L 2766 531 
Q 2569 213 2275 61 
Q 1981 -91 1556 -91 
Q 1019 -91 701 211 
Q 384 513 384 1019 
Q 384 1609 779 1909 
Q 1175 2209 1959 2209 
L 2766 2209 
L 2766 2266 
Q 2766 2663 2505 2880 
Q 2244 3097 1772 3097 
Q 1472 3097 1187 3025 
Q 903 2953 641 2809 
L 641 3341 
Q 956 3463 1253 3523 
Q 1550 3584 1831 3584 
Q 2591 3584 2966 3190 
Q 3341 2797 3341 1997 
z
" transform="scale(0.015625)"/>
      <path id="DejaVuSans-72" d="M 2631 2963 
Q 2534 3019 2420 3045 
Q 2306 3072 2169 3072 
Q 1681 3072 1420 2755 
Q 1159 2438 1159 1844 
L 1159 0 
L 581 0 
L 581 3500 
L 1159 3500 
L 1159 2956 
Q 1341 3275 1631 3429 
Q 1922 3584 2338 3584 
Q 2397 3584 2469 3576 
Q 2541 3569 2628 3553 
L 2631 2963 
z
" transform="scale(0.015625)"/>
      <path id="DejaVuSans-65" d="M 3597 1894 
L 3597 1613 
L 953 1613 
Q 991 1019 1311 708 
Q 1631 397 2203 397 
Q 2534 397 2845 478 
Q 3156 559 3463 722 
L 3463 178 
Q 3153 47 2828 -22 
Q 2503 -91 2169 -91 
Q 1331 -91 842 396 
Q 353 884 353 1716 
Q 353 2575 817 3079 
Q 1281 3584 2069 3584 
Q 2775 3584 3186 3129 
Q 3597 2675 3597 1894 
z
M 3022 2063 
Q 3016 2534 2758 2815 
Q 2500 3097 2075 3097 
Q 1594 3097 1305 2825 
Q 1016 2553 972 2059 
L 3022 2063 
z
" transform="scale(0.015625)"/>
     </defs>
     <use xlink:href="#DejaVuSans-42"/>
     <use xlink:href="#DejaVuSans-61" transform="translate(68.603516 0)"/>
     <use xlink:href="#DejaVuSans-72" transform="translate(129.882812 0)"/>
     <use xlink:href="#DejaVuSans-72" transform="translate(169.246094 0)"/>
     <use xlink:href="#DejaVuSans-69" transform="translate(210.359375 0)"/>
     <use xlink:href="#DejaVuSans-65" transform="translate(238.142578 0)"/>
     <use xlink:href="#DejaVuSans-72" transform="translate(299.666016 0)"/>
    </g>
    <!-- (V &gt; E) -->
    <g style="fill: #95a5a6" transform="translate(171.342457 55.850982) scale(0.08 -0.08)">
     <defs>
      <path id="DejaVuSans-56" d="M 1831 0 
L 50 4666 
L 709 4666 
L 2188 738 
L 3669 4666 
L 4325 4666 
L 2547 0 
L 1831 0 
z
" transform="scale(0.015625)"/>
      <path id="DejaVuSans-3e" d="M 678 3150 
L 678 3719 
L 4684 2266 
L 4684 1747 
L 678 294 
L 678 863 
L 3897 2003 
L 678 3150 
z
" transform="scale(0.015625)"/>
      <path id="DejaVuSans-45" d="M 628 4666 
L 3578 4666 
L 3578 4134 
L 1259 4134 
L 1259 2753 
L 3481 2753 
L 3481 2222 
L 1259 2222 
L 1259 531 
L 3634 531 
L 3634 0 
L 628 0 
L 628 4666 
z
" transform="scale(0.015625)"/>
     </defs>
     <use xlink:href="#DejaVuSans-28"/>
     <use xlink:href="#DejaVuSans-56" transform="translate(39.013672 0)"/>
     <use xlink:href="#DejaVuSans-20" transform="translate(107.421875 0)"/>
     <use xlink:href="#DejaVuSans-3e" transform="translate(139.208984 0)"/>
     <use xlink:href="#DejaVuSans-20" transform="translate(222.998047 0)"/>
     <use xlink:href="#DejaVuSans-45" transform="translate(254.785156 0)"/>
     <use xlink:href="#DejaVuSans-29" transform="translate(317.96875 0)"/>
    </g>
   </g>
   <g id="patch_8">
    <path d="M 305.419366 100.782723 
Q 286.364201 156.124638 267.673022 210.409428 
" style="fill: none; stroke: #2c3e50; stroke-linecap: round"/>
    <path d="M 270.227647 207.904653 
L 267.673022 210.409428 
L 267.201977 206.862864 
" style="fill: none; stroke: #2c3e50; stroke-linecap: round"/>
   </g>
   <g id="text_19">
    <!-- transmitted -->
    <g style="fill: #2c3e50" transform="translate(284.665113 95.228125) scale(0.08 -0.08)">
     <defs>
      <path id="DejaVuSans-6d" d="M 3328 2828 
Q 3544 3216 3844 3400 
Q 4144 3584 4550 3584 
Q 5097 3584 5394 3201 
Q 5691 2819 5691 2113 
L 5691 0 
L 5113 0 
L 5113 2094 
Q 5113 2597 4934 2840 
Q 4756 3084 4391 3084 
Q 3944 3084 3684 2787 
Q 3425 2491 3425 1978 
L 3425 0 
L 2847 0 
L 2847 2094 
Q 2847 2600 2669 2842 
Q 2491 3084 2119 3084 
Q 1678 3084 1418 2786 
Q 1159 2488 1159 1978 
L 1159 0 
L 581 0 
L 581 3500 
L 1159 3500 
L 1159 2956 
Q 1356 3278 1631 3431 
Q 1906 3584 2284 3584 
Q 2666 3584 2933 3390 
Q 3200 3197 3328 2828 
z
" transform="scale(0.015625)"/>
      <path id="DejaVuSans-64" d="M 2906 2969 
L 2906 4863 
L 3481 4863 
L 3481 0 
L 2906 0 
L 2906 525 
Q 2725 213 2448 61 
Q 2172 -91 1784 -91 
Q 1150 -91 751 415 
Q 353 922 353 1747 
Q 353 2572 751 3078 
Q 1150 3584 1784 3584 
Q 2172 3584 2448 3432 
Q 2725 3281 2906 2969 
z
M 947 1747 
Q 947 1113 1208 752 
Q 1469 391 1925 391 
Q 2381 391 2643 752 
Q 2906 1113 2906 1747 
Q 2906 2381 2643 2742 
Q 2381 3103 1925 3103 
Q 1469 3103 1208 2742 
Q 947 2381 947 1747 
z
" transform="scale(0.015625)"/>
     </defs>
     <use xlink:href="#DejaVuSans-74"/>
     <use xlink:href="#DejaVuSans-72" transform="translate(39.208984 0)"/>
     <use xlink:href="#DejaVuSans-61" transform="translate(80.322266 0)"/>
     <use xlink:href="#DejaVuSans-6e" transform="translate(141.601562 0)"/>
     <use xlink:href="#DejaVuSans-73" transform="translate(204.980469 0)"/>
     <use xlink:href="#DejaVuSans-6d" transform="translate(257.080078 0)"/>
     <use xlink:href="#DejaVuSans-69" transform="translate(354.492188 0)"/>
     <use xlink:href="#DejaVuSans-74" transform="translate(382.275391 0)"/>
     <use xlink:href="#DejaVuSans-74" transform="translate(421.484375 0)"/>
     <use xlink:href="#DejaVuSans-65" transform="translate(460.693359 0)"/>
     <use xlink:href="#DejaVuSans-64" transform="translate(522.216797 0)"/>
    </g>
   </g>
   <g id="text_20">
    <!-- Tunneling (schematic) -->
    <g transform="translate(119.47277 16.318125) scale(0.12 -0.12)">
     <defs>
      <path id="DejaVuSans-54" d="M -19 4666 
L 3928 4666 
L 3928 4134 
L 2272 4134 
L 2272 0 
L 1638 0 
L 1638 4134 
L -19 4134 
L -19 4666 
z
" transform="scale(0.015625)"/>
      <path id="DejaVuSans-75" d="M 544 1381 
L 544 3500 
L 1119 3500 
L 1119 1403 
Q 1119 906 1312 657 
Q 1506 409 1894 409 
Q 2359 409 2629 706 
Q 2900 1003 2900 1516 
L 2900 3500 
L 3475 3500 
L 3475 0 
L 2900 0 
L 2900 538 
Q 2691 219 2414 64 
Q 2138 -91 1772 -91 
Q 1169 -91 856 284 
Q 544 659 544 1381 
z
M 1991 3584 
L 1991 3584 
z
" transform="scale(0.015625)"/>
      <path id="DejaVuSans-6c" d="M 603 4863 
L 1178 4863 
L 1178 0 
L 603 0 
L 603 4863 
z
" transform="scale(0.015625)"/>
      <path id="DejaVuSans-67" d="M 2906 1791 
Q 2906 2416 2648 2759 
Q 2391 3103 1925 3103 
Q 1463 3103 1205 2759 
Q 947 2416 947 1791 
Q 947 1169 1205 825 
Q 1463 481 1925 481 
Q 2391 481 2648 825 
Q 2906 1169 2906 1791 
z
M 3481 434 
Q 3481 -459 3084 -895 
Q 2688 -1331 1869 -1331 
Q 1566 -1331 1297 -1286 
Q 1028 -1241 775 -1147 
L 775 -588 
Q 1028 -725 1275 -790 
Q 1522 -856 1778 -856 
Q 2344 -856 2625 -561 
Q 2906 -266 2906 331 
L 2906 616 
Q 2728 306 2450 153 
Q 2172 0 1784 0 
Q 1141 0 747 490 
Q 353 981 353 1791 
Q 353 2603 747 3093 
Q 1141 3584 1784 3584 
Q 2172 3584 2450 3431 
Q 2728 3278 2906 2969 
L 2906 3500 
L 3481 3500 
L 3481 434 
z
" transform="scale(0.015625)"/>
      <path id="DejaVuSans-63" d="M 3122 3366 
L 3122 2828 
Q 2878 2963 2633 3030 
Q 2388 3097 2138 3097 
Q 1578 3097 1268 2742 
Q 959 2388 959 1747 
Q 959 1106 1268 751 
Q 1578 397 2138 397 
Q 2388 397 2633 464 
Q 2878 531 3122 666 
L 3122 134 
Q 2881 22 2623 -34 
Q 2366 -91 2075 -91 
Q 1284 -91 818 406 
Q 353 903 353 1747 
Q 353 2603 823 3093 
Q 1294 3584 2113 3584 
Q 2378 3584 2631 3529 
Q 2884 3475 3122 3366 
z
" transform="scale(0.015625)"/>
      <path id="DejaVuSans-68" d="M 3513 2113 
L 3513 0 
L 2938 0 
L 2938 2094 
Q 2938 2591 2744 2837 
Q 2550 3084 2163 3084 
Q 1697 3084 1428 2787 
Q 1159 2491 1159 1978 
L 1159 0 
L 581 0 
L 581 4863 
L 1159 4863 
L 1159 2956 
Q 1366 3272 1645 3428 
Q 1925 3584 2291 3584 
Q 2894 3584 3203 3211 
Q 3513 2838 3513 2113 
z
" transform="scale(0.015625)"/>
     </defs>
     <use xlink:href="#DejaVuSans-54"/>
     <use xlink:href="#DejaVuSans-75" transform="translate(45.958984 0)"/>
     <use xlink:href="#DejaVuSans-6e" transform="translate(109.337891 0)"/>
     <use xlink:href="#DejaVuSans-6e" transform="translate(172.716797 0)"/>
     <use xlink:href="#DejaVuSans-65" transform="translate(236.095703 0)"/>
     <use xlink:href="#DejaVuSans-6c" transform="translate(297.619141 0)"/>
     <use xlink:href="#DejaVuSans-69" transform="translate(325.402344 0)"/>
     <use xlink:href="#DejaVuSans-6e" transform="translate(353.185547 0)"/>
     <use xlink:href="#DejaVuSans-67" transform="translate(416.564453 0)"/>
     <use xlink:href="#DejaVuSans-20" transform="translate(480.041016 0)"/>
     <use xlink:href="#DejaVuSans-28" transform="translate(511.828125 0)"/>
     <use xlink:href="#DejaVuSans-73" transform="translate(550.841797 0)"/>
     <use xlink:href="#DejaVuSans-63" transform="translate(602.941406 0)"/>
     <use xlink:href="#DejaVuSans-68" transform="translate(657.921875 0)"/>
     <use xlink:href="#DejaVuSans-65" transform="translate(721.300781 0)"/>
     <use xlink:href="#DejaVuSans-6d" transform="translate(782.824219 0)"/>
     <use xlink:href="#DejaVuSans-61" transform="translate(880.236328 0)"/>
     <use xlink:href="#DejaVuSans-74" transform="translate(941.515625 0)"/>
     <use xlink:href="#DejaVuSans-69" transform="translate(980.724609 0)"/>
     <use xlink:href="#DejaVuSans-63" transform="translate(1008.507812 0)"/>
     <use xlink:href="#DejaVuSans-29" transform="translate(1063.488281 0)"/>
    </g>
   </g>
  </g>
  <g id="axes_2">
   <g id="patch_9">
    <path d="M 484.832813 192.32858 
C 490.205523 192.32858 495.358905 189.358255 499.157985 184.071787 
C 502.957065 178.785318 505.091665 171.614321 505.091665 164.138125 
C 505.091665 156.661929 502.957065 149.490932 499.157985 144.204463 
C 495.358905 138.917995 490.205523 135.94767 484.832813 135.94767 
C 479.460102 135.94767 474.30672 138.917995 470.50764 144.204463 
C 466.70856 149.490932 464.57396 156.661929 464.57396 164.138125 
C 464.57396 171.614321 466.70856 178.785318 470.50764 184.071787 
C 474.30672 189.358255 479.460102 192.32858 484.832813 192.32858 
z
" clip-path="url(#pd750a44aec)" style="fill: #9b59b6; opacity: 0.18; stroke: #9b59b6; stroke-width: 2.5; stroke-linejoin: miter"/>
   </g>
   <g id="patch_10">
    <path d="M 394.793466 135.94767 
C 398.972241 135.94767 402.980427 133.637418 405.935267 129.52572 
C 408.890107 125.414022 410.550352 119.83658 410.550352 114.021761 
C 410.550352 108.206942 408.890107 102.6295 405.935267 98.517802 
C 402.980427 94.406104 398.972241 92.095852 394.793466 92.095852 
C 390.614691 92.095852 386.606505 94.406104 383.651665 98.517802 
C 380.696825 102.6295 379.03658 108.206942 379.03658 114.021761 
C 379.03658 119.83658 380.696825 125.414022 383.651665 129.52572 
C 386.606505 133.637418 390.614691 135.94767 394.793466 135.94767 
z
" clip-path="url(#pd750a44aec)" style="fill: #e74c3c; opacity: 0.85; stroke: #e74c3c; stroke-width: 1.5; stroke-linejoin: miter"/>
   </g>
   <g id="patch_11">
    <path d="M 574.872159 135.94767 
C 579.050934 135.94767 583.05912 133.637418 586.01396 129.52572 
C 588.9688 125.414022 590.629045 119.83658 590.629045 114.021761 
C 590.629045 108.206942 588.9688 102.6295 586.01396 98.517802 
C 583.05912 94.406104 579.050934 92.095852 574.872159 92.095852 
C 570.693384 92.095852 566.685198 94.406104 563.730358 98.517802 
C 560.775518 102.6295 559.115273 108.206942 559.115273 114.021761 
C 559.115273 119.83658 560.775518 125.414022 563.730358 129.52572 
C 566.685198 133.637418 570.693384 135.94767 574.872159 135.94767 
z
" clip-path="url(#pd750a44aec)" style="fill: #3498db; opacity: 0.85; stroke: #3498db; stroke-width: 1.5; stroke-linejoin: miter"/>
   </g>
   <g id="patch_12">
    <path d="M 363.279695 265.623761 
L 426.307237 265.623761 
Q 427.207631 265.623761 427.207631 264.370852 
L 427.207631 217.386761 
Q 427.207631 216.133852 426.307237 216.133852 
L 363.279695 216.133852 
Q 362.379301 216.133852 362.379301 217.386761 
L 362.379301 264.370852 
Q 362.379301 265.623761 363.279695 265.623761 
z
" clip-path="url(#pd750a44aec)" style="fill: #ecf0f1; opacity: 0.35; stroke: #95a5a6; stroke-width: 1.5; stroke-linejoin: miter"/>
   </g>
   <g id="patch_13">
    <path d="M 543.358388 265.623761 
L 606.38593 265.623761 
Q 607.286324 265.623761 607.286324 264.370852 
L 607.286324 217.386761 
Q 607.286324 216.133852 606.38593 216.133852 
L 543.358388 216.133852 
Q 542.457994 216.133852 542.457994 217.386761 
L 542.457994 264.370852 
Q 542.457994 265.623761 543.358388 265.623761 
z
" clip-path="url(#pd750a44aec)" style="fill: #ecf0f1; opacity: 0.35; stroke: #95a5a6; stroke-width: 1.5; stroke-linejoin: miter"/>
   </g>
   <g id="line2d_17">
    <path d="M 403.797401 154.741307 
L 565.868224 154.741307 
" clip-path="url(#pd750a44aec)" style="fill: none; stroke-dasharray: 3.7,1.6; stroke-dashoffset: 0; stroke: #ecf0f1"/>
   </g>
   <g id="text_21">
    <!-- pair -->
    <g style="fill: #2c3e50" transform="translate(477.086563 161.8665) scale(0.08 -0.08)">
     <use xlink:href="#DejaVuSans-70"/>
     <use xlink:href="#DejaVuSans-61" transform="translate(63.476562 0)"/>
     <use xlink:href="#DejaVuSans-69" transform="translate(124.755859 0)"/>
     <use xlink:href="#DejaVuSans-72" transform="translate(152.539062 0)"/>
    </g>
    <!-- creation -->
    <g style="fill: #2c3e50" transform="translate(468.504688 170.82475) scale(0.08 -0.08)">
     <use xlink:href="#DejaVuSans-63"/>
     <use xlink:href="#DejaVuSans-72" transform="translate(54.980469 0)"/>
     <use xlink:href="#DejaVuSans-65" transform="translate(93.84375 0)"/>
     <use xlink:href="#DejaVuSans-61" transform="translate(155.367188 0)"/>
     <use xlink:href="#DejaVuSans-74" transform="translate(216.646484 0)"/>
     <use xlink:href="#DejaVuSans-69" transform="translate(255.855469 0)"/>
     <use xlink:href="#DejaVuSans-6f" transform="translate(283.638672 0)"/>
     <use xlink:href="#DejaVuSans-6e" transform="translate(344.820312 0)"/>
    </g>
   </g>
   <g id="text_22">
    <!-- + -->
    <g style="fill: #ffffff" transform="translate(389.765654 117.333011) scale(0.12 -0.12)">
     <defs>
      <path id="DejaVuSans-Bold-2b" d="M 3053 4013 
L 3053 2375 
L 4684 2375 
L 4684 1638 
L 3053 1638 
L 3053 0 
L 2309 0 
L 2309 1638 
L 678 1638 
L 678 2375 
L 2309 2375 
L 2309 4013 
L 3053 4013 
z
" transform="scale(0.015625)"/>
     </defs>
     <use xlink:href="#DejaVuSans-Bold-2b"/>
    </g>
   </g>
   <g id="text_23">
    <!-- − -->
    <g style="fill: #ffffff" transform="translate(569.844346 117.333011) scale(0.12 -0.12)">
     <defs>
      <path id="DejaVuSans-Bold-2212" d="M 678 2375 
L 4684 2375 
L 4684 1638 
L 678 1638 
L 678 2375 
z
" transform="scale(0.015625)"/>
     </defs>
     <use xlink:href="#DejaVuSans-Bold-2212"/>
    </g>
   </g>
   <g id="patch_14">
    <path d="M 467.318445 151.904099 
Q 442.064247 138.140329 419.2643 125.714148 
" style="fill: none; stroke: #f39c12; stroke-width: 2.5; stroke-linecap: round"/>
    <path d="M 421.819438 129.384471 
L 419.2643 125.714148 
L 423.733641 125.872231 
" style="fill: none; stroke: #f39c12; stroke-width: 2.5; stroke-linecap: round"/>
   </g>
   <g id="patch_15">
    <path d="M 502.34718 151.904099 
Q 527.601378 138.140329 550.401325 125.714148 
" style="fill: none; stroke: #f39c12; stroke-width: 2.5; stroke-linecap: round"/>
    <path d="M 545.931984 125.872231 
L 550.401325 125.714148 
L 547.846187 129.384471 
" style="fill: none; stroke: #f39c12; stroke-width: 2.5; stroke-linecap: round"/>
   </g>
   <g id="text_24">
    <!-- shared flux state -->
    <g style="fill: #95a5a6" transform="translate(451.110938 146.597398) scale(0.08 -0.08)">
     <defs>
      <path id="DejaVuSans-66" d="M 2375 4863 
L 2375 4384 
L 1825 4384 
Q 1516 4384 1395 4259 
Q 1275 4134 1275 3809 
L 1275 3500 
L 2222 3500 
L 2222 3053 
L 1275 3053 
L 1275 0 
L 697 0 
L 697 3053 
L 147 3053 
L 147 3500 
L 697 3500 
L 697 3744 
Q 697 4328 969 4595 
Q 1241 4863 1831 4863 
L 2375 4863 
z
" transform="scale(0.015625)"/>
     </defs>
     <use xlink:href="#DejaVuSans-73"/>
     <use xlink:href="#DejaVuSans-68" transform="translate(52.099609 0)"/>
     <use xlink:href="#DejaVuSans-61" transform="translate(115.478516 0)"/>
     <use xlink:href="#DejaVuSans-72" transform="translate(176.757812 0)"/>
     <use xlink:href="#DejaVuSans-65" transform="translate(215.621094 0)"/>
     <use xlink:href="#DejaVuSans-64" transform="translate(277.144531 0)"/>
     <use xlink:href="#DejaVuSans-20" transform="translate(340.621094 0)"/>
     <use xlink:href="#DejaVuSans-66" transform="translate(372.408203 0)"/>
     <use xlink:href="#DejaVuSans-6c" transform="translate(407.613281 0)"/>
     <use xlink:href="#DejaVuSans-75" transform="translate(435.396484 0)"/>
     <use xlink:href="#DejaVuSans-78" transform="translate(498.775391 0)"/>
     <use xlink:href="#DejaVuSans-20" transform="translate(557.955078 0)"/>
     <use xlink:href="#DejaVuSans-73" transform="translate(589.742188 0)"/>
     <use xlink:href="#DejaVuSans-74" transform="translate(641.841797 0)"/>
     <use xlink:href="#DejaVuSans-61" transform="translate(681.050781 0)"/>
     <use xlink:href="#DejaVuSans-74" transform="translate(742.330078 0)"/>
     <use xlink:href="#DejaVuSans-65" transform="translate(781.539062 0)"/>
    </g>
   </g>
   <g id="text_25">
    <!-- A / A′ -->
    <g style="fill: #2c3e50" transform="translate(383.300966 241.192034) scale(0.08 -0.08)">
     <defs>
      <path id="DejaVuSans-Bold-41" d="M 3419 850 
L 1538 850 
L 1241 0 
L 31 0 
L 1759 4666 
L 3194 4666 
L 4922 0 
L 3713 0 
L 3419 850 
z
M 1838 1716 
L 3116 1716 
L 2478 3572 
L 1838 1716 
z
" transform="scale(0.015625)"/>
      <path id="DejaVuSans-Bold-20" transform="scale(0.015625)"/>
      <path id="DejaVuSans-Bold-2f" d="M 1644 4666 
L 2338 4666 
L 691 -594 
L 0 -594 
L 1644 4666 
z
" transform="scale(0.015625)"/>
      <path id="DejaVuSans-Bold-2032" d="M 125 3500 
L 666 4666 
L 1534 4666 
L 631 3500 
L 125 3500 
z
" transform="scale(0.015625)"/>
     </defs>
     <use xlink:href="#DejaVuSans-Bold-41"/>
     <use xlink:href="#DejaVuSans-Bold-20" transform="translate(77.392578 0)"/>
     <use xlink:href="#DejaVuSans-Bold-2f" transform="translate(112.207031 0)"/>
     <use xlink:href="#DejaVuSans-Bold-20" transform="translate(148.730469 0)"/>
     <use xlink:href="#DejaVuSans-Bold-41" transform="translate(183.544922 0)"/>
     <use xlink:href="#DejaVuSans-Bold-2032" transform="translate(260.9375 0)"/>
    </g>
   </g>
   <g id="text_26">
    <!-- B / B′ -->
    <g style="fill: #2c3e50" transform="translate(563.473409 241.192034) scale(0.08 -0.08)">
     <defs>
      <path id="DejaVuSans-Bold-42" d="M 2456 2859 
Q 2741 2859 2887 2984 
Q 3034 3109 3034 3353 
Q 3034 3594 2887 3720 
Q 2741 3847 2456 3847 
L 1791 3847 
L 1791 2859 
L 2456 2859 
z
M 2497 819 
Q 2859 819 3042 972 
Q 3225 1125 3225 1434 
Q 3225 1738 3044 1889 
Q 2863 2041 2497 2041 
L 1791 2041 
L 1791 819 
L 2497 819 
z
M 3616 2497 
Q 4003 2384 4215 2081 
Q 4428 1778 4428 1338 
Q 4428 663 3972 331 
Q 3516 0 2584 0 
L 588 0 
L 588 4666 
L 2394 4666 
Q 3366 4666 3802 4372 
Q 4238 4078 4238 3431 
Q 4238 3091 4078 2852 
Q 3919 2613 3616 2497 
z
" transform="scale(0.015625)"/>
     </defs>
     <use xlink:href="#DejaVuSans-Bold-42"/>
     <use xlink:href="#DejaVuSans-Bold-20" transform="translate(76.220703 0)"/>
     <use xlink:href="#DejaVuSans-Bold-2f" transform="translate(111.035156 0)"/>
     <use xlink:href="#DejaVuSans-Bold-20" transform="translate(147.558594 0)"/>
     <use xlink:href="#DejaVuSans-Bold-42" transform="translate(182.373047 0)"/>
     <use xlink:href="#DejaVuSans-Bold-2032" transform="translate(258.59375 0)"/>
    </g>
   </g>
   <g id="text_27">
    <!-- non-factorizable correlations -->
    <g style="fill: #95a5a6" transform="translate(427.563438 286.296761) scale(0.08 -0.08)">
     <defs>
      <path id="DejaVuSans-2d" d="M 313 2009 
L 1997 2009 
L 1997 1497 
L 313 1497 
L 313 2009 
z
" transform="scale(0.015625)"/>
      <path id="DejaVuSans-7a" d="M 353 3500 
L 3084 3500 
L 3084 2975 
L 922 459 
L 3084 459 
L 3084 0 
L 275 0 
L 275 525 
L 2438 3041 
L 353 3041 
L 353 3500 
z
" transform="scale(0.015625)"/>
      <path id="DejaVuSans-62" d="M 3116 1747 
Q 3116 2381 2855 2742 
Q 2594 3103 2138 3103 
Q 1681 3103 1420 2742 
Q 1159 2381 1159 1747 
Q 1159 1113 1420 752 
Q 1681 391 2138 391 
Q 2594 391 2855 752 
Q 3116 1113 3116 1747 
z
M 1159 2969 
Q 1341 3281 1617 3432 
Q 1894 3584 2278 3584 
Q 2916 3584 3314 3078 
Q 3713 2572 3713 1747 
Q 3713 922 3314 415 
Q 2916 -91 2278 -91 
Q 1894 -91 1617 61 
Q 1341 213 1159 525 
L 1159 0 
L 581 0 
L 581 4863 
L 1159 4863 
L 1159 2969 
z
" transform="scale(0.015625)"/>
     </defs>
     <use xlink:href="#DejaVuSans-6e"/>
     <use xlink:href="#DejaVuSans-6f" transform="translate(63.378906 0)"/>
     <use xlink:href="#DejaVuSans-6e" transform="translate(124.560547 0)"/>
     <use xlink:href="#DejaVuSans-2d" transform="translate(187.939453 0)"/>
     <use xlink:href="#DejaVuSans-66" transform="translate(224.023438 0)"/>
     <use xlink:href="#DejaVuSans-61" transform="translate(259.228516 0)"/>
     <use xlink:href="#DejaVuSans-63" transform="translate(320.507812 0)"/>
     <use xlink:href="#DejaVuSans-74" transform="translate(375.488281 0)"/>
     <use xlink:href="#DejaVuSans-6f" transform="translate(414.697266 0)"/>
     <use xlink:href="#DejaVuSans-72" transform="translate(475.878906 0)"/>
     <use xlink:href="#DejaVuSans-69" transform="translate(516.992188 0)"/>
     <use xlink:href="#DejaVuSans-7a" transform="translate(544.775391 0)"/>
     <use xlink:href="#DejaVuSans-61" transform="translate(597.265625 0)"/>
     <use xlink:href="#DejaVuSans-62" transform="translate(658.544922 0)"/>
     <use xlink:href="#DejaVuSans-6c" transform="translate(722.021484 0)"/>
     <use xlink:href="#DejaVuSans-65" transform="translate(749.804688 0)"/>
     <use xlink:href="#DejaVuSans-20" transform="translate(811.328125 0)"/>
     <use xlink:href="#DejaVuSans-63" transform="translate(843.115234 0)"/>
     <use xlink:href="#DejaVuSans-6f" transform="translate(898.095703 0)"/>
     <use xlink:href="#DejaVuSans-72" transform="translate(959.277344 0)"/>
     <use xlink:href="#DejaVuSans-72" transform="translate(998.640625 0)"/>
     <use xlink:href="#DejaVuSans-65" transform="translate(1037.503906 0)"/>
     <use xlink:href="#DejaVuSans-6c" transform="translate(1099.027344 0)"/>
     <use xlink:href="#DejaVuSans-61" transform="translate(1126.810547 0)"/>
     <use xlink:href="#DejaVuSans-74" transform="translate(1188.089844 0)"/>
     <use xlink:href="#DejaVuSans-69" transform="translate(1227.298828 0)"/>
     <use xlink:href="#DejaVuSans-6f" transform="translate(1255.082031 0)"/>
     <use xlink:href="#DejaVuSans-6e" transform="translate(1316.263672 0)"/>
     <use xlink:href="#DejaVuSans-73" transform="translate(1379.642578 0)"/>
    </g>
   </g>
   <g id="text_28">
    <!-- Entanglement (schematic) -->
    <g transform="translate(405.201563 16.318125) scale(0.12 -0.12)">
     <use xlink:href="#DejaVuSans-45"/>
     <use xlink:href="#DejaVuSans-6e" transform="translate(63.183594 0)"/>
     <use xlink:href="#DejaVuSans-74" transform="translate(126.5625 0)"/>
     <use xlink:href="#DejaVuSans-61" transform="translate(165.771484 0)"/>
     <use xlink:href="#DejaVuSans-6e" transform="translate(227.050781 0)"/>
     <use xlink:href="#DejaVuSans-67" transform="translate(290.429688 0)"/>
     <use xlink:href="#DejaVuSans-6c" transform="translate(353.90625 0)"/>
     <use xlink:href="#DejaVuSans-65" transform="translate(381.689453 0)"/>
     <use xlink:href="#DejaVuSans-6d" transform="translate(443.212891 0)"/>
     <use xlink:href="#DejaVuSans-65" transform="translate(540.625 0)"/>
     <use xlink:href="#DejaVuSans-6e" transform="translate(602.148438 0)"/>
     <use xlink:href="#DejaVuSans-74" transform="translate(665.527344 0)"/>
     <use xlink:href="#DejaVuSans-20" transform="translate(704.736328 0)"/>
     <use xlink:href="#DejaVuSans-28" transform="translate(736.523438 0)"/>
     <use xlink:href="#DejaVuSans-73" transform="translate(775.537109 0)"/>
     <use xlink:href="#DejaVuSans-63" transform="translate(827.636719 0)"/>
     <use xlink:href="#DejaVuSans-68" transform="translate(882.617188 0)"/>
     <use xlink:href="#DejaVuSans-65" transform="translate(945.996094 0)"/>
     <use xlink:href="#DejaVuSans-6d" transform="translate(1007.519531 0)"/>
     <use xlink:href="#DejaVuSans-61" transform="translate(1104.931641 0)"/>
     <use xlink:href="#DejaVuSans-74" transform="translate(1166.210938 0)"/>
     <use xlink:href="#DejaVuSans-69" transform="translate(1205.419922 0)"/>
     <use xlink:href="#DejaVuSans-63" transform="translate(1233.203125 0)"/>
     <use xlink:href="#DejaVuSans-29" transform="translate(1288.183594 0)"/>
    </g>
   </g>
  </g>
  <g id="axes_3">
   <g id="patch_16">
    <path d="M 784.043793 110.889489 
C 790.610439 110.889489 796.909017 107.259092 801.552337 100.797853 
C 806.195657 94.336613 808.804613 85.572061 808.804613 76.434489 
C 808.804613 67.296916 806.195657 58.532364 801.552337 52.071124 
C 796.909017 45.609885 790.610439 41.979489 784.043793 41.979489 
C 777.477147 41.979489 771.178569 45.609885 766.535249 52.071124 
C 761.891929 58.532364 759.282973 67.296916 759.282973 76.434489 
C 759.282973 85.572061 761.891929 94.336613 766.535249 100.797853 
C 771.178569 107.259092 777.477147 110.889489 784.043793 110.889489 
z
" clip-path="url(#p65118f552b)" style="fill: #f39c12; opacity: 0.14; stroke: #f39c12; stroke-width: 2.5; stroke-linejoin: miter"/>
   </g>
   <g id="patch_17">
    <path d="M 874.083139 198.593125 
C 880.649786 198.593125 886.948363 194.962729 891.591683 188.501489 
C 896.235003 182.040249 898.84396 173.275698 898.84396 164.138125 
C 898.84396 155.000552 896.235003 146.236001 891.591683 139.774761 
C 886.948363 133.313521 880.649786 129.683125 874.083139 129.683125 
C 867.516493 129.683125 861.217916 133.313521 856.574595 139.774761 
C 851.931275 146.236001 849.322319 155.000552 849.322319 164.138125 
C 849.322319 173.275698 851.931275 182.040249 856.574595 188.501489 
C 861.217916 194.962729 867.516493 198.593125 874.083139 198.593125 
z
" clip-path="url(#p65118f552b)" style="fill: #9b59b6; opacity: 0.14; stroke: #9b59b6; stroke-width: 2.5; stroke-linejoin: miter"/>
   </g>
   <g id="patch_18">
    <path d="M 784.043793 286.296761 
C 790.610439 286.296761 796.909017 282.666365 801.552337 276.205126 
C 806.195657 269.743886 808.804613 260.979334 808.804613 251.841761 
C 808.804613 242.704189 806.195657 233.939637 801.552337 227.478397 
C 796.909017 221.017158 790.610439 217.386761 784.043793 217.386761 
C 777.477147 217.386761 771.178569 221.017158 766.535249 227.478397 
C 761.891929 233.939637 759.282973 242.704189 759.282973 251.841761 
C 759.282973 260.979334 761.891929 269.743886 766.535249 276.205126 
C 771.178569 282.666365 777.477147 286.296761 784.043793 286.296761 
z
" clip-path="url(#p65118f552b)" style="fill: #e74c3c; opacity: 0.14; stroke: #e74c3c; stroke-width: 2.5; stroke-linejoin: miter"/>
   </g>
   <g id="patch_19">
    <path d="M 694.004446 198.593125 
C 700.571093 198.593125 706.86967 194.962729 711.51299 188.501489 
C 716.156311 182.040249 718.765267 173.275698 718.765267 164.138125 
C 718.765267 155.000552 716.156311 146.236001 711.51299 139.774761 
C 706.86967 133.313521 700.571093 129.683125 694.004446 129.683125 
C 687.4378 129.683125 681.139223 133.313521 676.495903 139.774761 
C 671.852582 146.236001 669.243626 155.000552 669.243626 164.138125 
C 669.243626 173.275698 671.852582 182.040249 676.495903 188.501489 
C 681.139223 194.962729 687.4378 198.593125 694.004446 198.593125 
z
" clip-path="url(#p65118f552b)" style="fill: #95a5a6; opacity: 0.14; stroke: #95a5a6; stroke-width: 2.5; stroke-linejoin: miter"/>
   </g>
   <g id="text_29">
    <!-- flux -->
    <g style="fill: #2c3e50" transform="translate(776.621918 74.162864) scale(0.08 -0.08)">
     <use xlink:href="#DejaVuSans-66"/>
     <use xlink:href="#DejaVuSans-6c" transform="translate(35.205078 0)"/>
     <use xlink:href="#DejaVuSans-75" transform="translate(62.988281 0)"/>
     <use xlink:href="#DejaVuSans-78" transform="translate(126.367188 0)"/>
    </g>
    <!-- evolution -->
    <g style="fill: #2c3e50" transform="translate(765.459418 83.121114) scale(0.08 -0.08)">
     <defs>
      <path id="DejaVuSans-76" d="M 191 3500 
L 800 3500 
L 1894 563 
L 2988 3500 
L 3597 3500 
L 2284 0 
L 1503 0 
L 191 3500 
z
" transform="scale(0.015625)"/>
     </defs>
     <use xlink:href="#DejaVuSans-65"/>
     <use xlink:href="#DejaVuSans-76" transform="translate(61.523438 0)"/>
     <use xlink:href="#DejaVuSans-6f" transform="translate(120.703125 0)"/>
     <use xlink:href="#DejaVuSans-6c" transform="translate(181.884766 0)"/>
     <use xlink:href="#DejaVuSans-75" transform="translate(209.667969 0)"/>
     <use xlink:href="#DejaVuSans-74" transform="translate(273.046875 0)"/>
     <use xlink:href="#DejaVuSans-69" transform="translate(312.255859 0)"/>
     <use xlink:href="#DejaVuSans-6f" transform="translate(340.039062 0)"/>
     <use xlink:href="#DejaVuSans-6e" transform="translate(401.220703 0)"/>
    </g>
   </g>
   <g id="text_30">
    <!-- threshold -->
    <g style="fill: #2c3e50" transform="translate(855.247514 161.8665) scale(0.08 -0.08)">
     <use xlink:href="#DejaVuSans-74"/>
     <use xlink:href="#DejaVuSans-68" transform="translate(39.208984 0)"/>
     <use xlink:href="#DejaVuSans-72" transform="translate(102.587891 0)"/>
     <use xlink:href="#DejaVuSans-65" transform="translate(141.451172 0)"/>
     <use xlink:href="#DejaVuSans-73" transform="translate(202.974609 0)"/>
     <use xlink:href="#DejaVuSans-68" transform="translate(255.074219 0)"/>
     <use xlink:href="#DejaVuSans-6f" transform="translate(318.453125 0)"/>
     <use xlink:href="#DejaVuSans-6c" transform="translate(379.634766 0)"/>
     <use xlink:href="#DejaVuSans-64" transform="translate(407.417969 0)"/>
    </g>
    <!-- check -->
    <g style="fill: #2c3e50" transform="translate(862.371889 170.82475) scale(0.08 -0.08)">
     <defs>
      <path id="DejaVuSans-6b" d="M 581 4863 
L 1159 4863 
L 1159 1991 
L 2875 3500 
L 3609 3500 
L 1753 1863 
L 3688 0 
L 2938 0 
L 1159 1709 
L 1159 0 
L 581 0 
L 581 4863 
z
" transform="scale(0.015625)"/>
     </defs>
     <use xlink:href="#DejaVuSans-63"/>
     <use xlink:href="#DejaVuSans-68" transform="translate(54.980469 0)"/>
     <use xlink:href="#DejaVuSans-65" transform="translate(118.359375 0)"/>
     <use xlink:href="#DejaVuSans-63" transform="translate(179.882812 0)"/>
     <use xlink:href="#DejaVuSans-6b" transform="translate(234.863281 0)"/>
    </g>
   </g>
   <g id="text_31">
    <!-- manifest -->
    <g style="fill: #2c3e50" transform="translate(766.528793 249.570136) scale(0.08 -0.08)">
     <use xlink:href="#DejaVuSans-6d"/>
     <use xlink:href="#DejaVuSans-61" transform="translate(97.412109 0)"/>
     <use xlink:href="#DejaVuSans-6e" transform="translate(158.691406 0)"/>
     <use xlink:href="#DejaVuSans-69" transform="translate(222.070312 0)"/>
     <use xlink:href="#DejaVuSans-66" transform="translate(249.853516 0)"/>
     <use xlink:href="#DejaVuSans-65" transform="translate(285.058594 0)"/>
     <use xlink:href="#DejaVuSans-73" transform="translate(346.582031 0)"/>
     <use xlink:href="#DejaVuSans-74" transform="translate(398.681641 0)"/>
    </g>
    <!-- (event) -->
    <g style="fill: #2c3e50" transform="translate(769.529418 258.528386) scale(0.08 -0.08)">
     <use xlink:href="#DejaVuSans-28"/>
     <use xlink:href="#DejaVuSans-65" transform="translate(39.013672 0)"/>
     <use xlink:href="#DejaVuSans-76" transform="translate(100.537109 0)"/>
     <use xlink:href="#DejaVuSans-65" transform="translate(159.716797 0)"/>
     <use xlink:href="#DejaVuSans-6e" transform="translate(221.240234 0)"/>
     <use xlink:href="#DejaVuSans-74" transform="translate(284.619141 0)"/>
     <use xlink:href="#DejaVuSans-29" transform="translate(323.828125 0)"/>
    </g>
   </g>
   <g id="text_32">
    <!-- constraints -->
    <g style="fill: #2c3e50" transform="translate(671.776946 161.8665) scale(0.08 -0.08)">
     <use xlink:href="#DejaVuSans-63"/>
     <use xlink:href="#DejaVuSans-6f" transform="translate(54.980469 0)"/>
     <use xlink:href="#DejaVuSans-6e" transform="translate(116.162109 0)"/>
     <use xlink:href="#DejaVuSans-73" transform="translate(179.541016 0)"/>
     <use xlink:href="#DejaVuSans-74" transform="translate(231.640625 0)"/>
     <use xlink:href="#DejaVuSans-72" transform="translate(270.849609 0)"/>
     <use xlink:href="#DejaVuSans-61" transform="translate(311.962891 0)"/>
     <use xlink:href="#DejaVuSans-69" transform="translate(373.242188 0)"/>
     <use xlink:href="#DejaVuSans-6e" transform="translate(401.025391 0)"/>
     <use xlink:href="#DejaVuSans-74" transform="translate(464.404297 0)"/>
     <use xlink:href="#DejaVuSans-73" transform="translate(503.613281 0)"/>
    </g>
    <!-- update -->
    <g style="fill: #2c3e50" transform="translate(679.910071 170.82475) scale(0.08 -0.08)">
     <use xlink:href="#DejaVuSans-75"/>
     <use xlink:href="#DejaVuSans-70" transform="translate(63.378906 0)"/>
     <use xlink:href="#DejaVuSans-64" transform="translate(126.855469 0)"/>
     <use xlink:href="#DejaVuSans-61" transform="translate(190.332031 0)"/>
     <use xlink:href="#DejaVuSans-74" transform="translate(251.611328 0)"/>
     <use xlink:href="#DejaVuSans-65" transform="translate(290.820312 0)"/>
    </g>
   </g>
   <g id="patch_20">
    <path d="M 785.477146 91.863241 
Q 821.860314 127.302594 857.042148 161.571776 
" style="fill: none; stroke: #2c3e50; stroke-width: 1.5; stroke-linecap: round"/>
    <path d="M 855.572309 157.348084 
L 857.042148 161.571776 
L 852.781291 160.213432 
" style="fill: none; stroke: #2c3e50; stroke-width: 1.5; stroke-linecap: round"/>
   </g>
   <g id="patch_21">
    <path d="M 858.24349 165.534296 
Q 821.860323 200.973648 786.678489 235.24283 
" style="fill: none; stroke: #2c3e50; stroke-width: 1.5; stroke-linecap: round"/>
    <path d="M 790.939346 233.884486 
L 786.678489 235.24283 
L 788.148328 231.019139 
" style="fill: none; stroke: #2c3e50; stroke-width: 1.5; stroke-linecap: round"/>
   </g>
   <g id="patch_22">
    <path d="M 782.610439 236.413009 
Q 746.227272 200.973656 711.045438 166.704474 
" style="fill: none; stroke: #2c3e50; stroke-width: 1.5; stroke-linecap: round"/>
    <path d="M 712.515277 170.928166 
L 711.045438 166.704474 
L 715.306295 168.062818 
" style="fill: none; stroke: #2c3e50; stroke-width: 1.5; stroke-linecap: round"/>
   </g>
   <g id="patch_23">
    <path d="M 709.844095 162.741954 
Q 746.227263 127.302602 781.409097 93.03342 
" style="fill: none; stroke: #2c3e50; stroke-width: 1.5; stroke-linecap: round"/>
    <path d="M 777.14824 94.391764 
L 781.409097 93.03342 
L 779.939258 97.257111 
" style="fill: none; stroke: #2c3e50; stroke-width: 1.5; stroke-linecap: round"/>
   </g>
   <g id="text_33">
    <!-- loop closes without signaling -->
    <g style="fill: #95a5a6" transform="translate(726.243793 292.561307) scale(0.08 -0.08)">
     <defs>
      <path id="DejaVuSans-77" d="M 269 3500 
L 844 3500 
L 1563 769 
L 2278 3500 
L 2956 3500 
L 3675 769 
L 4391 3500 
L 4966 3500 
L 4050 0 
L 3372 0 
L 2619 2869 
L 1863 0 
L 1184 0 
L 269 3500 
z
" transform="scale(0.015625)"/>
     </defs>
     <use xlink:href="#DejaVuSans-6c"/>
     <use xlink:href="#DejaVuSans-6f" transform="translate(27.783203 0)"/>
     <use xlink:href="#DejaVuSans-6f" transform="translate(88.964844 0)"/>
     <use xlink:href="#DejaVuSans-70" transform="translate(150.146484 0)"/>
     <use xlink:href="#DejaVuSans-20" transform="translate(213.623047 0)"/>
     <use xlink:href="#DejaVuSans-63" transform="translate(245.410156 0)"/>
     <use xlink:href="#DejaVuSans-6c" transform="translate(300.390625 0)"/>
     <use xlink:href="#DejaVuSans-6f" transform="translate(328.173828 0)"/>
     <use xlink:href="#DejaVuSans-73" transform="translate(389.355469 0)"/>
     <use xlink:href="#DejaVuSans-65" transform="translate(441.455078 0)"/>
     <use xlink:href="#DejaVuSans-73" transform="translate(502.978516 0)"/>
     <use xlink:href="#DejaVuSans-20" transform="translate(555.078125 0)"/>
     <use xlink:href="#DejaVuSans-77" transform="translate(586.865234 0)"/>
     <use xlink:href="#DejaVuSans-69" transform="translate(668.652344 0)"/>
     <use xlink:href="#DejaVuSans-74" transform="translate(696.435547 0)"/>
     <use xlink:href="#DejaVuSans-68" transform="translate(735.644531 0)"/>
     <use xlink:href="#DejaVuSans-6f" transform="translate(799.023438 0)"/>
     <use xlink:href="#DejaVuSans-75" transform="translate(860.205078 0)"/>
     <use xlink:href="#DejaVuSans-74" transform="translate(923.583984 0)"/>
     <use xlink:href="#DejaVuSans-20" transform="translate(962.792969 0)"/>
     <use xlink:href="#DejaVuSans-73" transform="translate(994.580078 0)"/>
     <use xlink:href="#DejaVuSans-69" transform="translate(1046.679688 0)"/>
     <use xlink:href="#DejaVuSans-67" transform="translate(1074.462891 0)"/>
     <use xlink:href="#DejaVuSans-6e" transform="translate(1137.939453 0)"/>
     <use xlink:href="#DejaVuSans-61" transform="translate(1201.318359 0)"/>
     <use xlink:href="#DejaVuSans-6c" transform="translate(1262.597656 0)"/>
     <use xlink:href="#DejaVuSans-69" transform="translate(1290.380859 0)"/>
     <use xlink:href="#DejaVuSans-6e" transform="translate(1318.164062 0)"/>
     <use xlink:href="#DejaVuSans-67" transform="translate(1381.542969 0)"/>
    </g>
   </g>
   <g id="text_34">
    <!-- Selection Loop (sLoop) (schematic) -->
    <g transform="translate(678.644418 16.318125) scale(0.12 -0.12)">
     <defs>
      <path id="DejaVuSans-53" d="M 3425 4513 
L 3425 3897 
Q 3066 4069 2747 4153 
Q 2428 4238 2131 4238 
Q 1616 4238 1336 4038 
Q 1056 3838 1056 3469 
Q 1056 3159 1242 3001 
Q 1428 2844 1947 2747 
L 2328 2669 
Q 3034 2534 3370 2195 
Q 3706 1856 3706 1288 
Q 3706 609 3251 259 
Q 2797 -91 1919 -91 
Q 1588 -91 1214 -16 
Q 841 59 441 206 
L 441 856 
Q 825 641 1194 531 
Q 1563 422 1919 422 
Q 2459 422 2753 634 
Q 3047 847 3047 1241 
Q 3047 1584 2836 1778 
Q 2625 1972 2144 2069 
L 1759 2144 
Q 1053 2284 737 2584 
Q 422 2884 422 3419 
Q 422 4038 858 4394 
Q 1294 4750 2059 4750 
Q 2388 4750 2728 4690 
Q 3069 4631 3425 4513 
z
" transform="scale(0.015625)"/>
      <path id="DejaVuSans-4c" d="M 628 4666 
L 1259 4666 
L 1259 531 
L 3531 531 
L 3531 0 
L 628 0 
L 628 4666 
z
" transform="scale(0.015625)"/>
     </defs>
     <use xlink:href="#DejaVuSans-53"/>
     <use xlink:href="#DejaVuSans-65" transform="translate(63.476562 0)"/>
     <use xlink:href="#DejaVuSans-6c" transform="translate(125 0)"/>
     <use xlink:href="#DejaVuSans-65" transform="translate(152.783203 0)"/>
     <use xlink:href="#DejaVuSans-63" transform="translate(214.306641 0)"/>
     <use xlink:href="#DejaVuSans-74" transform="translate(269.287109 0)"/>
     <use xlink:href="#DejaVuSans-69" transform="translate(308.496094 0)"/>
     <use xlink:href="#DejaVuSans-6f" transform="translate(336.279297 0)"/>
     <use xlink:href="#DejaVuSans-6e" transform="translate(397.460938 0)"/>
     <use xlink:href="#DejaVuSans-20" transform="translate(460.839844 0)"/>
     <use xlink:href="#DejaVuSans-4c" transform="translate(492.626953 0)"/>
     <use xlink:href="#DejaVuSans-6f" transform="translate(546.589844 0)"/>
     <use xlink:href="#DejaVuSans-6f" transform="translate(607.771484 0)"/>
     <use xlink:href="#DejaVuSans-70" transform="translate(668.953125 0)"/>
     <use xlink:href="#DejaVuSans-20" transform="translate(732.429688 0)"/>
     <use xlink:href="#DejaVuSans-28" transform="translate(764.216797 0)"/>
     <use xlink:href="#DejaVuSans-73" transform="translate(803.230469 0)"/>
     <use xlink:href="#DejaVuSans-4c" transform="translate(855.330078 0)"/>
     <use xlink:href="#DejaVuSans-6f" transform="translate(909.292969 0)"/>
     <use xlink:href="#DejaVuSans-6f" transform="translate(970.474609 0)"/>
     <use xlink:href="#DejaVuSans-70" transform="translate(1031.65625 0)"/>
     <use xlink:href="#DejaVuSans-29" transform="translate(1095.132812 0)"/>
     <use xlink:href="#DejaVuSans-20" transform="translate(1134.146484 0)"/>
     <use xlink:href="#DejaVuSans-28" transform="translate(1165.933594 0)"/>
     <use xlink:href="#DejaVuSans-73" transform="translate(1204.947266 0)"/>
     <use xlink:href="#DejaVuSans-63" transform="translate(1257.046875 0)"/>
     <use xlink:href="#DejaVuSans-68" transform="translate(1312.027344 0)"/>
     <use xlink:href="#DejaVuSans-65" transform="translate(1375.40625 0)"/>
     <use xlink:href="#DejaVuSans-6d" transform="translate(1436.929688 0)"/>
     <use xlink:href="#DejaVuSans-61" transform="translate(1534.341797 0)"/>
     <use xlink:href="#DejaVuSans-74" transform="translate(1595.621094 0)"/>
     <use xlink:href="#DejaVuSans-69" transform="translate(1634.830078 0)"/>
     <use xlink:href="#DejaVuSans-63" transform="translate(1662.613281 0)"/>
     <use xlink:href="#DejaVuSans-29" transform="translate(1717.59375 0)"/>
    </g>
   </g>
  </g>
 </g>
 <defs>
  <clipPath id="pb448d56fc4">
   <rect x="50.562813" y="26.318125" width="270.118039" height="275.64"/>
  </clipPath>
  <clipPath id="pd750a44aec">
   <rect x="349.773793" y="26.318125" width="270.118039" height="275.64"/>
  </clipPath>
  <clipPath id="p65118f552b">
   <rect x="648.984773" y="26.318125" width="270.118039" height="275.64"/>
  </clipPath>
 </defs>
</svg>
