<?xml version="1.0" encoding="utf-8" standalone="no"?>
<!DOCTYPE svg PUBLIC "-//W3C//DTD SVG 1.1//EN"
  "http://www.w3.org/Graphics/SVG/1.1/DTD/svg11.dtd">
<svg xmlns:xlink="http://www.w3.org/1999/xlink" width="712.8pt" height="568.877812pt" viewBox="0 0 712.8 568.877812" xmlns="http://www.w3.org/2000/svg" version="1.1">
 <metadata>
  <rdf:RDF xmlns:dc="http://purl.org/dc/elements/1.1/" xmlns:cc="http://creativecommons.org/ns#" xmlns:rdf="http://www.w3.org/1999/02/22-rdf-syntax-ns#">
   <cc:Work>
    <dc:type rdf:resource="http://purl.org/dc/dcmitype/StillImage"/>
    <dc:date>2026-01-02T19:17:48.137916</dc:date>
    <dc:format>image/svg+xml</dc:format>
    <dc:creator>
     <cc:Agent>
      <dc:title>Matplotlib v3.10.8, https://matplotlib.org/</dc:title>
     </cc:Agent>
    </dc:creator>
   </cc:Work>
  </rdf:RDF>
 </metadata>
 <defs>
  <style type="text/css">*{stroke-linejoin: round; stroke-linecap: butt}</style>
 </defs>
 <g id="figure_1">
  <g id="patch_1">
   <path d="M 0 568.877812 
L 712.8 568.877812 
L 712.8 0 
L 0 0 
z
" style="fill: #ffffff"/>
  </g>
  <g id="axes_1">
   <g id="patch_2">
    <path d="M 356.4 273.565812 
C 384.182677 273.565812 410.831187 265.286549 430.476506 250.551435 
C 450.121826 235.81632 461.16 215.828411 461.16 194.989812 
C 461.16 174.151214 450.121826 154.163305 430.476506 139.42819 
C 410.831187 124.693076 384.182677 116.413812 356.4 116.413812 
C 328.617323 116.413812 301.968813 124.693076 282.323494 139.42819 
C 262.678174 154.163305 251.64 174.151214 251.64 194.989812 
C 251.64 215.828411 262.678174 235.81632 282.323494 250.551435 
C 301.968813 265.286549 328.617323 273.565812 356.4 273.565812 
z
" clip-path="url(#pc85735d14e)" style="fill: #2c3e50; opacity: 0.3; stroke: #2c3e50; stroke-width: 2.5; stroke-linejoin: miter"/>
   </g>
   <g id="patch_3">
    <path d="M 28.152 181.631892 
L 195.768 181.631892 
Q 197.1648 181.631892 197.1648 180.584212 
L 197.1648 104.627412 
Q 197.1648 103.579732 195.768 103.579732 
L 28.152 103.579732 
Q 26.7552 103.579732 26.7552 104.627412 
L 26.7552 180.584212 
Q 26.7552 181.631892 28.152 181.631892 
z
" clip-path="url(#pc85735d14e)" style="fill: #ecf0f1; opacity: 0.5; stroke: #95a5a6; stroke-width: 1.5; stroke-linejoin: miter"/>
   </g>
   <g id="patch_4">
    <path d="M 28.152 303.424692 
L 195.768 303.424692 
Q 197.1648 303.424692 197.1648 302.377012 
L 197.1648 244.754612 
Q 197.1648 243.706932 195.768 243.706932 
L 28.152 243.706932 
Q 26.7552 243.706932 26.7552 244.754612 
L 26.7552 302.377012 
Q 26.7552 303.424692 28.152 303.424692 
z
" clip-path="url(#pc85735d14e)" style="fill: #ecf0f1; opacity: 0.5; stroke: #95a5a6; stroke-width: 1.5; stroke-linejoin: miter"/>
   </g>
   <g id="patch_5">
    <path d="M 517.032 181.631892 
L 684.648 181.631892 
Q 686.0448 181.631892 686.0448 180.584212 
L 686.0448 104.627412 
Q 686.0448 103.579732 684.648 103.579732 
L 517.032 103.579732 
Q 515.6352 103.579732 515.6352 104.627412 
L 515.6352 180.584212 
Q 515.6352 181.631892 517.032 181.631892 
z
" clip-path="url(#pc85735d14e)" style="fill: #ecf0f1; opacity: 0.5; stroke: #95a5a6; stroke-width: 1.5; stroke-linejoin: miter"/>
   </g>
   <g id="patch_6">
    <path d="M 517.032 312.591892 
L 684.648 312.591892 
Q 686.0448 312.591892 686.0448 311.544212 
L 686.0448 235.587412 
Q 686.0448 234.539732 684.648 234.539732 
L 517.032 234.539732 
Q 515.6352 234.539732 515.6352 235.587412 
L 515.6352 311.544212 
Q 515.6352 312.591892 517.032 312.591892 
z
" clip-path="url(#pc85735d14e)" style="fill: #ecf0f1; opacity: 0.5; stroke: #95a5a6; stroke-width: 1.5; stroke-linejoin: miter"/>
   </g>
   <g id="patch_7">
    <path d="M 272.592 434.384692 
L 440.208 434.384692 
Q 441.6048 434.384692 441.6048 433.337012 
L 441.6048 375.714612 
Q 441.6048 374.666932 440.208 374.666932 
L 272.592 374.666932 
Q 271.1952 374.666932 271.1952 375.714612 
L 271.1952 433.337012 
Q 271.1952 434.384692 272.592 434.384692 
z
" clip-path="url(#pc85735d14e)" style="fill: #ecf0f1; opacity: 0.5; stroke: #95a5a6; stroke-width: 1.5; stroke-linejoin: miter"/>
   </g>
   <g id="line2d_1">
    <path d="M 111.96 142.605812 
L 160.848 153.082612 
" clip-path="url(#pc85735d14e)" style="fill: none; stroke-dasharray: 3.7,1.6; stroke-dashoffset: 0; stroke: #ecf0f1"/>
   </g>
   <g id="line2d_2">
    <path d="M 111.96 273.565812 
L 160.848 257.850612 
" clip-path="url(#pc85735d14e)" style="fill: none; stroke-dasharray: 3.7,1.6; stroke-dashoffset: 0; stroke: #ecf0f1"/>
   </g>
   <g id="line2d_3">
    <path d="M 600.84 142.605812 
L 551.952 153.082612 
" clip-path="url(#pc85735d14e)" style="fill: none; stroke-dasharray: 3.7,1.6; stroke-dashoffset: 0; stroke: #ecf0f1"/>
   </g>
   <g id="line2d_4">
    <path d="M 600.84 273.565812 
L 551.952 257.850612 
" clip-path="url(#pc85735d14e)" style="fill: none; stroke-dasharray: 3.7,1.6; stroke-dashoffset: 0; stroke: #ecf0f1"/>
   </g>
   <g id="line2d_5">
    <path d="M 356.4 404.525812 
L 356.4 362.618612 
" clip-path="url(#pc85735d14e)" style="fill: none; stroke-dasharray: 3.7,1.6; stroke-dashoffset: 0; stroke: #ecf0f1"/>
   </g>
   <g id="text_1">
    <!-- VOXEL -->
    <g style="fill: #2c3e50" transform="translate(327.1075 199.404812) scale(0.16 -0.16)">
     <defs>
      <path id="DejaVuSans-Bold-56" d="M 31 4666 
L 1241 4666 
L 2478 1222 
L 3713 4666 
L 4922 4666 
L 3194 0 
L 1759 0 
L 31 4666 
z
" transform="scale(0.015625)"/>
      <path id="DejaVuSans-Bold-4f" d="M 2719 3878 
Q 2169 3878 1866 3472 
Q 1563 3066 1563 2328 
Q 1563 1594 1866 1187 
Q 2169 781 2719 781 
Q 3272 781 3575 1187 
Q 3878 1594 3878 2328 
Q 3878 3066 3575 3472 
Q 3272 3878 2719 3878 
z
M 2719 4750 
Q 3844 4750 4481 4106 
Q 5119 3463 5119 2328 
Q 5119 1197 4481 553 
Q 3844 -91 2719 -91 
Q 1597 -91 958 553 
Q 319 1197 319 2328 
Q 319 3463 958 4106 
Q 1597 4750 2719 4750 
z
" transform="scale(0.015625)"/>
      <path id="DejaVuSans-Bold-58" d="M 3188 2381 
L 4806 0 
L 3553 0 
L 2463 1594 
L 1381 0 
L 122 0 
L 1741 2381 
L 184 4666 
L 1441 4666 
L 2463 3163 
L 3481 4666 
L 4744 4666 
L 3188 2381 
z
" transform="scale(0.015625)"/>
      <path id="DejaVuSans-Bold-45" d="M 588 4666 
L 3834 4666 
L 3834 3756 
L 1791 3756 
L 1791 2888 
L 3713 2888 
L 3713 1978 
L 1791 1978 
L 1791 909 
L 3903 909 
L 3903 0 
L 588 0 
L 588 4666 
z
" transform="scale(0.015625)"/>
      <path id="DejaVuSans-Bold-4c" d="M 588 4666 
L 1791 4666 
L 1791 909 
L 3903 909 
L 3903 0 
L 588 0 
L 588 4666 
z
" transform="scale(0.015625)"/>
     </defs>
     <use xlink:href="#DejaVuSans-Bold-56"/>
     <use xlink:href="#DejaVuSans-Bold-4f" transform="translate(75.642578 0)"/>
     <use xlink:href="#DejaVuSans-Bold-58" transform="translate(157.027344 0)"/>
     <use xlink:href="#DejaVuSans-Bold-45" transform="translate(234.126953 0)"/>
     <use xlink:href="#DejaVuSans-Bold-4c" transform="translate(302.4375 0)"/>
    </g>
   </g>
   <g id="text_2">
    <!-- Identity -->
    <g style="fill: #2c3e50" transform="translate(85.388438 112.485012) scale(0.12 -0.12)">
     <defs>
      <path id="DejaVuSans-Bold-49" d="M 588 4666 
L 1791 4666 
L 1791 0 
L 588 0 
L 588 4666 
z
" transform="scale(0.015625)"/>
      <path id="DejaVuSans-Bold-64" d="M 2919 2988 
L 2919 4863 
L 4044 4863 
L 4044 0 
L 2919 0 
L 2919 506 
Q 2688 197 2409 53 
Q 2131 -91 1766 -91 
Q 1119 -91 703 423 
Q 288 938 288 1747 
Q 288 2556 703 3070 
Q 1119 3584 1766 3584 
Q 2128 3584 2408 3439 
Q 2688 3294 2919 2988 
z
M 2181 722 
Q 2541 722 2730 984 
Q 2919 1247 2919 1747 
Q 2919 2247 2730 2509 
Q 2541 2772 2181 2772 
Q 1825 2772 1636 2509 
Q 1447 2247 1447 1747 
Q 1447 1247 1636 984 
Q 1825 722 2181 722 
z
" transform="scale(0.015625)"/>
      <path id="DejaVuSans-Bold-65" d="M 4031 1759 
L 4031 1441 
L 1416 1441 
Q 1456 1047 1700 850 
Q 1944 653 2381 653 
Q 2734 653 3104 758 
Q 3475 863 3866 1075 
L 3866 213 
Q 3469 63 3072 -14 
Q 2675 -91 2278 -91 
Q 1328 -91 801 392 
Q 275 875 275 1747 
Q 275 2603 792 3093 
Q 1309 3584 2216 3584 
Q 3041 3584 3536 3087 
Q 4031 2591 4031 1759 
z
M 2881 2131 
Q 2881 2450 2695 2645 
Q 2509 2841 2209 2841 
Q 1884 2841 1681 2658 
Q 1478 2475 1428 2131 
L 2881 2131 
z
" transform="scale(0.015625)"/>
      <path id="DejaVuSans-Bold-6e" d="M 4056 2131 
L 4056 0 
L 2931 0 
L 2931 347 
L 2931 1631 
Q 2931 2084 2911 2256 
Q 2891 2428 2841 2509 
Q 2775 2619 2662 2680 
Q 2550 2741 2406 2741 
Q 2056 2741 1856 2470 
Q 1656 2200 1656 1722 
L 1656 0 
L 538 0 
L 538 3500 
L 1656 3500 
L 1656 2988 
Q 1909 3294 2193 3439 
Q 2478 3584 2822 3584 
Q 3428 3584 3742 3212 
Q 4056 2841 4056 2131 
z
" transform="scale(0.015625)"/>
      <path id="DejaVuSans-Bold-74" d="M 1759 4494 
L 1759 3500 
L 2913 3500 
L 2913 2700 
L 1759 2700 
L 1759 1216 
Q 1759 972 1856 886 
Q 1953 800 2241 800 
L 2816 800 
L 2816 0 
L 1856 0 
Q 1194 0 917 276 
Q 641 553 641 1216 
L 641 2700 
L 84 2700 
L 84 3500 
L 641 3500 
L 641 4494 
L 1759 4494 
z
" transform="scale(0.015625)"/>
      <path id="DejaVuSans-Bold-69" d="M 538 3500 
L 1656 3500 
L 1656 0 
L 538 0 
L 538 3500 
z
M 538 4863 
L 1656 4863 
L 1656 3950 
L 538 3950 
L 538 4863 
z
" transform="scale(0.015625)"/>
      <path id="DejaVuSans-Bold-79" d="M 78 3500 
L 1197 3500 
L 2138 1125 
L 2938 3500 
L 4056 3500 
L 2584 -331 
Q 2363 -916 2067 -1148 
Q 1772 -1381 1288 -1381 
L 641 -1381 
L 641 -647 
L 991 -647 
Q 1275 -647 1404 -556 
Q 1534 -466 1606 -231 
L 1638 -134 
L 78 3500 
z
" transform="scale(0.015625)"/>
     </defs>
     <use xlink:href="#DejaVuSans-Bold-49"/>
     <use xlink:href="#DejaVuSans-Bold-64" transform="translate(37.207031 0)"/>
     <use xlink:href="#DejaVuSans-Bold-65" transform="translate(108.789062 0)"/>
     <use xlink:href="#DejaVuSans-Bold-6e" transform="translate(176.611328 0)"/>
     <use xlink:href="#DejaVuSans-Bold-74" transform="translate(247.802734 0)"/>
     <use xlink:href="#DejaVuSans-Bold-69" transform="translate(295.605469 0)"/>
     <use xlink:href="#DejaVuSans-Bold-74" transform="translate(329.882812 0)"/>
     <use xlink:href="#DejaVuSans-Bold-79" transform="translate(377.685547 0)"/>
    </g>
   </g>
   <g id="text_3">
    <!-- position: (x,y,z) -->
    <g style="fill: #95a5a6" transform="translate(71.021875 130.819412) scale(0.08 -0.08)">
     <defs>
      <path id="DejaVuSansMono-70" d="M 1172 441 
L 1172 -1331 
L 594 -1331 
L 594 3500 
L 1172 3500 
L 1172 3053 
Q 1316 3313 1555 3448 
Q 1794 3584 2106 3584 
Q 2741 3584 3102 3093 
Q 3463 2603 3463 1734 
Q 3463 881 3100 395 
Q 2738 -91 2106 -91 
Q 1788 -91 1548 45 
Q 1309 181 1172 441 
z
M 2859 1747 
Q 2859 2416 2648 2756 
Q 2438 3097 2022 3097 
Q 1603 3097 1387 2755 
Q 1172 2413 1172 1747 
Q 1172 1084 1387 740 
Q 1603 397 2022 397 
Q 2438 397 2648 737 
Q 2859 1078 2859 1747 
z
" transform="scale(0.015625)"/>
      <path id="DejaVuSansMono-6f" d="M 1925 3097 
Q 1488 3097 1263 2756 
Q 1038 2416 1038 1747 
Q 1038 1081 1263 739 
Q 1488 397 1925 397 
Q 2366 397 2591 739 
Q 2816 1081 2816 1747 
Q 2816 2416 2591 2756 
Q 2366 3097 1925 3097 
z
M 1925 3584 
Q 2653 3584 3039 3112 
Q 3425 2641 3425 1747 
Q 3425 850 3040 379 
Q 2656 -91 1925 -91 
Q 1197 -91 812 379 
Q 428 850 428 1747 
Q 428 2641 812 3112 
Q 1197 3584 1925 3584 
z
" transform="scale(0.015625)"/>
      <path id="DejaVuSansMono-73" d="M 3041 3378 
L 3041 2816 
Q 2794 2959 2544 3031 
Q 2294 3103 2034 3103 
Q 1644 3103 1451 2976 
Q 1259 2850 1259 2591 
Q 1259 2356 1403 2240 
Q 1547 2125 2119 2016 
L 2350 1972 
Q 2778 1891 2998 1647 
Q 3219 1403 3219 1013 
Q 3219 494 2850 201 
Q 2481 -91 1825 -91 
Q 1566 -91 1281 -36 
Q 997 19 666 128 
L 666 722 
Q 988 556 1281 473 
Q 1575 391 1838 391 
Q 2219 391 2428 545 
Q 2638 700 2638 978 
Q 2638 1378 1872 1531 
L 1847 1538 
L 1631 1581 
Q 1134 1678 906 1908 
Q 678 2138 678 2534 
Q 678 3038 1018 3311 
Q 1359 3584 1991 3584 
Q 2272 3584 2531 3532 
Q 2791 3481 3041 3378 
z
" transform="scale(0.015625)"/>
      <path id="DejaVuSansMono-69" d="M 800 3500 
L 2272 3500 
L 2272 447 
L 3413 447 
L 3413 0 
L 556 0 
L 556 447 
L 1697 447 
L 1697 3053 
L 800 3053 
L 800 3500 
z
M 1697 4863 
L 2272 4863 
L 2272 4134 
L 1697 4134 
L 1697 4863 
z
" transform="scale(0.015625)"/>
      <path id="DejaVuSansMono-74" d="M 1919 4494 
L 1919 3500 
L 3225 3500 
L 3225 3053 
L 1919 3053 
L 1919 1153 
Q 1919 766 2066 612 
Q 2213 459 2578 459 
L 3225 459 
L 3225 0 
L 2522 0 
Q 1875 0 1609 259 
Q 1344 519 1344 1153 
L 1344 3053 
L 409 3053 
L 409 3500 
L 1344 3500 
L 1344 4494 
L 1919 4494 
z
" transform="scale(0.015625)"/>
      <path id="DejaVuSansMono-6e" d="M 3284 2169 
L 3284 0 
L 2706 0 
L 2706 2169 
Q 2706 2641 2540 2862 
Q 2375 3084 2022 3084 
Q 1619 3084 1401 2798 
Q 1184 2513 1184 1978 
L 1184 0 
L 609 0 
L 609 3500 
L 1184 3500 
L 1184 2975 
Q 1338 3275 1600 3429 
Q 1863 3584 2222 3584 
Q 2756 3584 3020 3232 
Q 3284 2881 3284 2169 
z
" transform="scale(0.015625)"/>
      <path id="DejaVuSansMono-3a" d="M 1528 3322 
L 2316 3322 
L 2316 2375 
L 1528 2375 
L 1528 3322 
z
M 1528 953 
L 2316 953 
L 2316 0 
L 1528 0 
L 1528 953 
z
" transform="scale(0.015625)"/>
      <path id="DejaVuSansMono-20" transform="scale(0.015625)"/>
      <path id="DejaVuSansMono-28" d="M 2766 4856 
Q 2350 4144 2145 3436 
Q 1941 2728 1941 2009 
Q 1941 1294 2145 584 
Q 2350 -125 2766 -844 
L 2266 -844 
Q 1794 -100 1562 604 
Q 1331 1309 1331 2009 
Q 1331 2706 1562 3412 
Q 1794 4119 2266 4856 
L 2766 4856 
z
" transform="scale(0.015625)"/>
      <path id="DejaVuSansMono-78" d="M 3494 3500 
L 2241 1825 
L 3616 0 
L 2950 0 
L 1925 1403 
L 903 0 
L 238 0 
L 1613 1825 
L 359 3500 
L 997 3500 
L 1925 2234 
L 2847 3500 
L 3494 3500 
z
" transform="scale(0.015625)"/>
      <path id="DejaVuSansMono-2c" d="M 1569 947 
L 2356 947 
L 2356 300 
L 1741 -897 
L 1259 -897 
L 1569 300 
L 1569 947 
z
" transform="scale(0.015625)"/>
      <path id="DejaVuSansMono-79" d="M 2681 1125 
Q 2538 759 2316 163 
Q 2006 -663 1900 -844 
Q 1756 -1088 1540 -1209 
Q 1325 -1331 1038 -1331 
L 575 -1331 
L 575 -850 
L 916 -850 
Q 1169 -850 1312 -703 
Q 1456 -556 1678 56 
L 325 3500 
L 934 3500 
L 1972 763 
L 2994 3500 
L 3603 3500 
L 2681 1125 
z
" transform="scale(0.015625)"/>
      <path id="DejaVuSansMono-7a" d="M 709 3506 
L 3250 3506 
L 3250 2981 
L 1241 469 
L 3250 469 
L 3250 0 
L 634 0 
L 634 531 
L 2644 3047 
L 709 3047 
L 709 3506 
z
" transform="scale(0.015625)"/>
      <path id="DejaVuSansMono-29" d="M 1088 4856 
L 1588 4856 
Q 2059 4119 2290 3412 
Q 2522 2706 2522 2009 
Q 2522 1306 2290 600 
Q 2059 -106 1588 -844 
L 1088 -844 
Q 1503 -119 1708 590 
Q 1913 1300 1913 2009 
Q 1913 2722 1708 3431 
Q 1503 4141 1088 4856 
z
" transform="scale(0.015625)"/>
     </defs>
     <use xlink:href="#DejaVuSansMono-70"/>
     <use xlink:href="#DejaVuSansMono-6f" transform="translate(60.205078 0)"/>
     <use xlink:href="#DejaVuSansMono-73" transform="translate(120.410156 0)"/>
     <use xlink:href="#DejaVuSansMono-69" transform="translate(180.615234 0)"/>
     <use xlink:href="#DejaVuSansMono-74" transform="translate(240.820312 0)"/>
     <use xlink:href="#DejaVuSansMono-69" transform="translate(301.025391 0)"/>
     <use xlink:href="#DejaVuSansMono-6f" transform="translate(361.230469 0)"/>
     <use xlink:href="#DejaVuSansMono-6e" transform="translate(421.435547 0)"/>
     <use xlink:href="#DejaVuSansMono-3a" transform="translate(481.640625 0)"/>
     <use xlink:href="#DejaVuSansMono-20" transform="translate(541.845703 0)"/>
     <use xlink:href="#DejaVuSansMono-28" transform="translate(602.050781 0)"/>
     <use xlink:href="#DejaVuSansMono-78" transform="translate(662.255859 0)"/>
     <use xlink:href="#DejaVuSansMono-2c" transform="translate(722.460938 0)"/>
     <use xlink:href="#DejaVuSansMono-79" transform="translate(782.666016 0)"/>
     <use xlink:href="#DejaVuSansMono-2c" transform="translate(842.871094 0)"/>
     <use xlink:href="#DejaVuSansMono-7a" transform="translate(903.076172 0)"/>
     <use xlink:href="#DejaVuSansMono-29" transform="translate(963.28125 0)"/>
    </g>
   </g>
   <g id="text_4">
    <!-- uuid -->
    <g style="fill: #95a5a6" transform="translate(102.3275 149.153812) scale(0.08 -0.08)">
     <defs>
      <path id="DejaVuSansMono-75" d="M 609 1325 
L 609 3494 
L 1184 3494 
L 1184 1325 
Q 1184 853 1351 631 
Q 1519 409 1869 409 
Q 2275 409 2490 695 
Q 2706 981 2706 1516 
L 2706 3494 
L 3284 3494 
L 3284 0 
L 2706 0 
L 2706 525 
Q 2553 222 2289 65 
Q 2025 -91 1672 -91 
Q 1134 -91 871 261 
Q 609 613 609 1325 
z
" transform="scale(0.015625)"/>
      <path id="DejaVuSansMono-64" d="M 2681 3053 
L 2681 4863 
L 3256 4863 
L 3256 0 
L 2681 0 
L 2681 441 
Q 2538 181 2298 45 
Q 2059 -91 1747 -91 
Q 1113 -91 748 401 
Q 384 894 384 1759 
Q 384 2613 750 3098 
Q 1116 3584 1747 3584 
Q 2063 3584 2303 3448 
Q 2544 3313 2681 3053 
z
M 991 1747 
Q 991 1078 1203 737 
Q 1416 397 1831 397 
Q 2247 397 2464 740 
Q 2681 1084 2681 1747 
Q 2681 2413 2464 2755 
Q 2247 3097 1831 3097 
Q 1416 3097 1203 2756 
Q 991 2416 991 1747 
z
" transform="scale(0.015625)"/>
     </defs>
     <use xlink:href="#DejaVuSansMono-75"/>
     <use xlink:href="#DejaVuSansMono-75" transform="translate(60.205078 0)"/>
     <use xlink:href="#DejaVuSansMono-69" transform="translate(120.410156 0)"/>
     <use xlink:href="#DejaVuSansMono-64" transform="translate(180.615234 0)"/>
    </g>
   </g>
   <g id="text_5">
    <!-- partner_uuid -->
    <g style="fill: #95a5a6" transform="translate(83.0625 167.488212) scale(0.08 -0.08)">
     <defs>
      <path id="DejaVuSansMono-61" d="M 2194 1759 
L 2003 1759 
Q 1500 1759 1245 1582 
Q 991 1406 991 1056 
Q 991 741 1181 566 
Q 1372 391 1709 391 
Q 2184 391 2456 720 
Q 2728 1050 2731 1631 
L 2731 1759 
L 2194 1759 
z
M 3309 1997 
L 3309 0 
L 2731 0 
L 2731 519 
Q 2547 206 2267 57 
Q 1988 -91 1588 -91 
Q 1053 -91 734 211 
Q 416 513 416 1019 
Q 416 1603 808 1906 
Q 1200 2209 1959 2209 
L 2731 2209 
L 2731 2300 
Q 2728 2719 2518 2908 
Q 2309 3097 1850 3097 
Q 1556 3097 1256 3012 
Q 956 2928 672 2766 
L 672 3341 
Q 991 3463 1283 3523 
Q 1575 3584 1850 3584 
Q 2284 3584 2592 3456 
Q 2900 3328 3091 3072 
Q 3209 2916 3259 2686 
Q 3309 2456 3309 1997 
z
" transform="scale(0.015625)"/>
      <path id="DejaVuSansMono-72" d="M 3609 2778 
Q 3425 2922 3234 2987 
Q 3044 3053 2816 3053 
Q 2278 3053 1993 2715 
Q 1709 2378 1709 1741 
L 1709 0 
L 1131 0 
L 1131 3500 
L 1709 3500 
L 1709 2816 
Q 1853 3188 2151 3386 
Q 2450 3584 2859 3584 
Q 3072 3584 3256 3531 
Q 3441 3478 3609 3366 
L 3609 2778 
z
" transform="scale(0.015625)"/>
      <path id="DejaVuSansMono-65" d="M 3475 1894 
L 3475 1613 
L 984 1613 
L 984 1594 
Q 984 1022 1282 709 
Q 1581 397 2125 397 
Q 2400 397 2700 484 
Q 3000 572 3341 750 
L 3341 178 
Q 3013 44 2708 -23 
Q 2403 -91 2119 -91 
Q 1303 -91 843 398 
Q 384 888 384 1747 
Q 384 2584 834 3084 
Q 1284 3584 2034 3584 
Q 2703 3584 3089 3131 
Q 3475 2678 3475 1894 
z
M 2900 2063 
Q 2888 2569 2661 2833 
Q 2434 3097 2009 3097 
Q 1594 3097 1325 2822 
Q 1056 2547 1006 2059 
L 2900 2063 
z
" transform="scale(0.015625)"/>
      <path id="DejaVuSansMono-5f" d="M 3853 -1259 
L 3853 -1509 
L 0 -1509 
L 0 -1259 
L 3853 -1259 
z
" transform="scale(0.015625)"/>
     </defs>
     <use xlink:href="#DejaVuSansMono-70"/>
     <use xlink:href="#DejaVuSansMono-61" transform="translate(60.205078 0)"/>
     <use xlink:href="#DejaVuSansMono-72" transform="translate(120.410156 0)"/>
     <use xlink:href="#DejaVuSansMono-74" transform="translate(180.615234 0)"/>
     <use xlink:href="#DejaVuSansMono-6e" transform="translate(240.820312 0)"/>
     <use xlink:href="#DejaVuSansMono-65" transform="translate(301.025391 0)"/>
     <use xlink:href="#DejaVuSansMono-72" transform="translate(361.230469 0)"/>
     <use xlink:href="#DejaVuSansMono-5f" transform="translate(421.435547 0)"/>
     <use xlink:href="#DejaVuSansMono-75" transform="translate(481.640625 0)"/>
     <use xlink:href="#DejaVuSansMono-75" transform="translate(541.845703 0)"/>
     <use xlink:href="#DejaVuSansMono-69" transform="translate(602.050781 0)"/>
     <use xlink:href="#DejaVuSansMono-64" transform="translate(662.255859 0)"/>
    </g>
   </g>
   <g id="text_6">
    <!-- State -->
    <g style="fill: #2c3e50" transform="translate(93.784688 252.612212) scale(0.12 -0.12)">
     <defs>
      <path id="DejaVuSans-Bold-53" d="M 3834 4519 
L 3834 3531 
Q 3450 3703 3084 3790 
Q 2719 3878 2394 3878 
Q 1963 3878 1756 3759 
Q 1550 3641 1550 3391 
Q 1550 3203 1689 3098 
Q 1828 2994 2194 2919 
L 2706 2816 
Q 3484 2659 3812 2340 
Q 4141 2022 4141 1434 
Q 4141 663 3683 286 
Q 3225 -91 2284 -91 
Q 1841 -91 1394 -6 
Q 947 78 500 244 
L 500 1259 
Q 947 1022 1364 901 
Q 1781 781 2169 781 
Q 2563 781 2772 912 
Q 2981 1044 2981 1288 
Q 2981 1506 2839 1625 
Q 2697 1744 2272 1838 
L 1806 1941 
Q 1106 2091 782 2419 
Q 459 2747 459 3303 
Q 459 4000 909 4375 
Q 1359 4750 2203 4750 
Q 2588 4750 2994 4692 
Q 3400 4634 3834 4519 
z
" transform="scale(0.015625)"/>
      <path id="DejaVuSans-Bold-61" d="M 2106 1575 
Q 1756 1575 1579 1456 
Q 1403 1338 1403 1106 
Q 1403 894 1545 773 
Q 1688 653 1941 653 
Q 2256 653 2472 879 
Q 2688 1106 2688 1447 
L 2688 1575 
L 2106 1575 
z
M 3816 1997 
L 3816 0 
L 2688 0 
L 2688 519 
Q 2463 200 2181 54 
Q 1900 -91 1497 -91 
Q 953 -91 614 226 
Q 275 544 275 1050 
Q 275 1666 698 1953 
Q 1122 2241 2028 2241 
L 2688 2241 
L 2688 2328 
Q 2688 2594 2478 2717 
Q 2269 2841 1825 2841 
Q 1466 2841 1156 2769 
Q 847 2697 581 2553 
L 581 3406 
Q 941 3494 1303 3539 
Q 1666 3584 2028 3584 
Q 2975 3584 3395 3211 
Q 3816 2838 3816 1997 
z
" transform="scale(0.015625)"/>
     </defs>
     <use xlink:href="#DejaVuSans-Bold-53"/>
     <use xlink:href="#DejaVuSans-Bold-74" transform="translate(72.021484 0)"/>
     <use xlink:href="#DejaVuSans-Bold-61" transform="translate(119.824219 0)"/>
     <use xlink:href="#DejaVuSans-Bold-74" transform="translate(187.304688 0)"/>
     <use xlink:href="#DejaVuSans-Bold-65" transform="translate(235.107422 0)"/>
    </g>
   </g>
   <g id="text_7">
    <!-- s ∈ {-1, 0, +1} -->
    <g style="fill: #95a5a6" transform="translate(75.838125 270.946612) scale(0.08 -0.08)">
     <defs>
      <path id="DejaVuSansMono-2208" d="M 950 2022 
Q 975 1703 1081 1406 
Q 1219 1000 1456 765 
Q 1694 531 1975 531 
L 3450 531 
L 3450 0 
L 1975 0 
Q 1550 0 1187 306 
Q 825 613 615 1139 
Q 406 1666 406 2287 
Q 406 2909 615 3436 
Q 825 3963 1187 4269 
Q 1550 4575 1975 4575 
L 3450 4575 
L 3450 4044 
L 1975 4044 
Q 1688 4044 1456 3809 
Q 1213 3569 1081 3169 
Q 975 2872 950 2553 
L 3444 2553 
L 3444 2022 
L 950 2022 
z
" transform="scale(0.015625)"/>
      <path id="DejaVuSansMono-7b" d="M 3163 -594 
L 3163 -1044 
L 2963 -1044 
Q 2184 -1044 1920 -812 
Q 1656 -581 1656 109 
L 1656 856 
Q 1656 1328 1489 1509 
Q 1322 1691 884 1691 
L 691 1691 
L 691 2138 
L 884 2138 
Q 1325 2138 1490 2316 
Q 1656 2494 1656 2963 
L 1656 3713 
Q 1656 4403 1920 4633 
Q 2184 4863 2963 4863 
L 3163 4863 
L 3163 4416 
L 2944 4416 
Q 2506 4416 2373 4280 
Q 2241 4144 2241 3700 
L 2241 2925 
Q 2241 2434 2098 2212 
Q 1956 1991 1613 1913 
Q 1959 1828 2100 1606 
Q 2241 1384 2241 897 
L 2241 122 
Q 2241 -325 2373 -459 
Q 2506 -594 2944 -594 
L 3163 -594 
z
" transform="scale(0.015625)"/>
      <path id="DejaVuSansMono-2d" d="M 1113 2009 
L 2741 2009 
L 2741 1497 
L 1113 1497 
L 1113 2009 
z
" transform="scale(0.015625)"/>
      <path id="DejaVuSansMono-31" d="M 844 531 
L 1825 531 
L 1825 4097 
L 769 3859 
L 769 4434 
L 1819 4666 
L 2450 4666 
L 2450 531 
L 3419 531 
L 3419 0 
L 844 0 
L 844 531 
z
" transform="scale(0.015625)"/>
      <path id="DejaVuSansMono-30" d="M 1509 2344 
Q 1509 2516 1629 2641 
Q 1750 2766 1919 2766 
Q 2094 2766 2219 2641 
Q 2344 2516 2344 2344 
Q 2344 2169 2220 2047 
Q 2097 1925 1919 1925 
Q 1744 1925 1626 2044 
Q 1509 2163 1509 2344 
z
M 1925 4250 
Q 1484 4250 1267 3775 
Q 1050 3300 1050 2328 
Q 1050 1359 1267 884 
Q 1484 409 1925 409 
Q 2369 409 2586 884 
Q 2803 1359 2803 2328 
Q 2803 3300 2586 3775 
Q 2369 4250 1925 4250 
z
M 1925 4750 
Q 2672 4750 3055 4137 
Q 3438 3525 3438 2328 
Q 3438 1134 3055 521 
Q 2672 -91 1925 -91 
Q 1178 -91 797 521 
Q 416 1134 416 2328 
Q 416 3525 797 4137 
Q 1178 4750 1925 4750 
z
" transform="scale(0.015625)"/>
      <path id="DejaVuSansMono-2b" d="M 2188 3659 
L 2188 2272 
L 3578 2272 
L 3578 1741 
L 2188 1741 
L 2188 353 
L 1663 353 
L 1663 1741 
L 275 1741 
L 275 2272 
L 1663 2272 
L 1663 3659 
L 2188 3659 
z
" transform="scale(0.015625)"/>
      <path id="DejaVuSansMono-7d" d="M 691 -594 
L 903 -594 
Q 1344 -594 1478 -456 
Q 1613 -319 1613 122 
L 1613 897 
Q 1613 1384 1753 1606 
Q 1894 1828 2241 1913 
Q 1897 1991 1755 2212 
Q 1613 2434 1613 2925 
L 1613 3700 
Q 1613 4141 1478 4278 
Q 1344 4416 903 4416 
L 691 4416 
L 691 4863 
L 884 4863 
Q 1663 4863 1925 4633 
Q 2188 4403 2188 3713 
L 2188 2963 
Q 2188 2494 2355 2316 
Q 2522 2138 2963 2138 
L 3163 2138 
L 3163 1691 
L 2963 1691 
Q 2522 1691 2355 1509 
Q 2188 1328 2188 856 
L 2188 109 
Q 2188 -581 1925 -812 
Q 1663 -1044 884 -1044 
L 691 -1044 
L 691 -594 
z
" transform="scale(0.015625)"/>
     </defs>
     <use xlink:href="#DejaVuSansMono-73"/>
     <use xlink:href="#DejaVuSansMono-20" transform="translate(60.205078 0)"/>
     <use xlink:href="#DejaVuSansMono-2208" transform="translate(120.410156 0)"/>
     <use xlink:href="#DejaVuSansMono-20" transform="translate(180.615234 0)"/>
     <use xlink:href="#DejaVuSansMono-7b" transform="translate(240.820312 0)"/>
     <use xlink:href="#DejaVuSansMono-2d" transform="translate(301.025391 0)"/>
     <use xlink:href="#DejaVuSansMono-31" transform="translate(361.230469 0)"/>
     <use xlink:href="#DejaVuSansMono-2c" transform="translate(421.435547 0)"/>
     <use xlink:href="#DejaVuSansMono-20" transform="translate(481.640625 0)"/>
     <use xlink:href="#DejaVuSansMono-30" transform="translate(541.845703 0)"/>
     <use xlink:href="#DejaVuSansMono-2c" transform="translate(602.050781 0)"/>
     <use xlink:href="#DejaVuSansMono-20" transform="translate(662.255859 0)"/>
     <use xlink:href="#DejaVuSansMono-2b" transform="translate(722.460938 0)"/>
     <use xlink:href="#DejaVuSansMono-31" transform="translate(782.666016 0)"/>
     <use xlink:href="#DejaVuSansMono-7d" transform="translate(842.871094 0)"/>
    </g>
   </g>
   <g id="text_8">
    <!-- charge: q -->
    <g style="fill: #95a5a6" transform="translate(90.286875 289.281012) scale(0.08 -0.08)">
     <defs>
      <path id="DejaVuSansMono-63" d="M 3316 178 
Q 3084 44 2839 -23 
Q 2594 -91 2338 -91 
Q 1525 -91 1067 396 
Q 609 884 609 1747 
Q 609 2609 1067 3096 
Q 1525 3584 2338 3584 
Q 2591 3584 2831 3518 
Q 3072 3453 3316 3316 
L 3316 2713 
Q 3088 2916 2858 3006 
Q 2628 3097 2338 3097 
Q 1797 3097 1506 2747 
Q 1216 2397 1216 1747 
Q 1216 1100 1508 748 
Q 1800 397 2338 397 
Q 2638 397 2875 489 
Q 3113 581 3316 775 
L 3316 178 
z
" transform="scale(0.015625)"/>
      <path id="DejaVuSansMono-68" d="M 3284 2169 
L 3284 0 
L 2706 0 
L 2706 2169 
Q 2706 2641 2540 2862 
Q 2375 3084 2022 3084 
Q 1619 3084 1401 2798 
Q 1184 2513 1184 1978 
L 1184 0 
L 609 0 
L 609 4863 
L 1184 4863 
L 1184 2975 
Q 1338 3275 1600 3429 
Q 1863 3584 2222 3584 
Q 2756 3584 3020 3232 
Q 3284 2881 3284 2169 
z
" transform="scale(0.015625)"/>
      <path id="DejaVuSansMono-67" d="M 2681 1778 
Q 2681 2425 2470 2761 
Q 2259 3097 1856 3097 
Q 1434 3097 1212 2761 
Q 991 2425 991 1778 
Q 991 1131 1214 792 
Q 1438 453 1863 453 
Q 2259 453 2470 793 
Q 2681 1134 2681 1778 
z
M 3256 225 
Q 3256 -563 2884 -969 
Q 2513 -1375 1791 -1375 
Q 1553 -1375 1293 -1331 
Q 1034 -1288 775 -1203 
L 775 -634 
Q 1081 -778 1331 -847 
Q 1581 -916 1791 -916 
Q 2256 -916 2468 -662 
Q 2681 -409 2681 141 
L 2681 166 
L 2681 556 
Q 2544 263 2306 119 
Q 2069 -25 1728 -25 
Q 1116 -25 750 465 
Q 384 956 384 1778 
Q 384 2603 750 3093 
Q 1116 3584 1728 3584 
Q 2066 3584 2300 3450 
Q 2534 3316 2681 3034 
L 2681 3488 
L 3256 3488 
L 3256 225 
z
" transform="scale(0.015625)"/>
      <path id="DejaVuSansMono-71" d="M 1038 1734 
Q 1038 1066 1248 725 
Q 1459 384 1875 384 
Q 2291 384 2505 726 
Q 2719 1069 2719 1734 
Q 2719 2400 2505 2742 
Q 2291 3084 1875 3084 
Q 1459 3084 1248 2743 
Q 1038 2403 1038 1734 
z
M 2719 434 
Q 2578 175 2339 36 
Q 2100 -103 1784 -103 
Q 1156 -103 792 383 
Q 428 869 428 1722 
Q 428 2591 790 3081 
Q 1153 3572 1784 3572 
Q 2097 3572 2336 3436 
Q 2575 3300 2719 3041 
L 2719 3488 
L 3297 3488 
L 3297 -1344 
L 2719 -1344 
L 2719 434 
z
" transform="scale(0.015625)"/>
     </defs>
     <use xlink:href="#DejaVuSansMono-63"/>
     <use xlink:href="#DejaVuSansMono-68" transform="translate(60.205078 0)"/>
     <use xlink:href="#DejaVuSansMono-61" transform="translate(120.410156 0)"/>
     <use xlink:href="#DejaVuSansMono-72" transform="translate(180.615234 0)"/>
     <use xlink:href="#DejaVuSansMono-67" transform="translate(240.820312 0)"/>
     <use xlink:href="#DejaVuSansMono-65" transform="translate(301.025391 0)"/>
     <use xlink:href="#DejaVuSansMono-3a" transform="translate(361.230469 0)"/>
     <use xlink:href="#DejaVuSansMono-20" transform="translate(421.435547 0)"/>
     <use xlink:href="#DejaVuSansMono-71" transform="translate(481.640625 0)"/>
    </g>
   </g>
   <g id="text_9">
    <!-- Flux -->
    <g style="fill: #2c3e50" transform="translate(586.543125 112.485012) scale(0.12 -0.12)">
     <defs>
      <path id="DejaVuSans-Bold-46" d="M 588 4666 
L 3834 4666 
L 3834 3756 
L 1791 3756 
L 1791 2888 
L 3713 2888 
L 3713 1978 
L 1791 1978 
L 1791 0 
L 588 0 
L 588 4666 
z
" transform="scale(0.015625)"/>
      <path id="DejaVuSans-Bold-6c" d="M 538 4863 
L 1656 4863 
L 1656 0 
L 538 0 
L 538 4863 
z
" transform="scale(0.015625)"/>
      <path id="DejaVuSans-Bold-75" d="M 500 1363 
L 500 3500 
L 1625 3500 
L 1625 3150 
Q 1625 2866 1622 2436 
Q 1619 2006 1619 1863 
Q 1619 1441 1641 1255 
Q 1663 1069 1716 984 
Q 1784 875 1895 815 
Q 2006 756 2150 756 
Q 2500 756 2700 1025 
Q 2900 1294 2900 1772 
L 2900 3500 
L 4019 3500 
L 4019 0 
L 2900 0 
L 2900 506 
Q 2647 200 2364 54 
Q 2081 -91 1741 -91 
Q 1134 -91 817 281 
Q 500 653 500 1363 
z
" transform="scale(0.015625)"/>
      <path id="DejaVuSans-Bold-78" d="M 1422 1791 
L 159 3500 
L 1344 3500 
L 2059 2463 
L 2784 3500 
L 3969 3500 
L 2706 1797 
L 4031 0 
L 2847 0 
L 2059 1106 
L 1281 0 
L 97 0 
L 1422 1791 
z
" transform="scale(0.015625)"/>
     </defs>
     <use xlink:href="#DejaVuSans-Bold-46"/>
     <use xlink:href="#DejaVuSans-Bold-6c" transform="translate(68.310547 0)"/>
     <use xlink:href="#DejaVuSans-Bold-75" transform="translate(102.587891 0)"/>
     <use xlink:href="#DejaVuSans-Bold-78" transform="translate(173.779297 0)"/>
    </g>
   </g>
   <g id="text_10">
    <!-- J ∈ ℝ³ -->
    <g style="fill: #95a5a6" transform="translate(586.39125 130.819412) scale(0.08 -0.08)">
     <defs>
      <path id="DejaVuSansMono-4a" d="M 341 191 
L 341 928 
Q 625 675 928 548 
Q 1231 422 1556 422 
Q 2003 422 2179 655 
Q 2356 888 2356 1522 
L 2356 4134 
L 1166 4134 
L 1166 4666 
L 2988 4666 
L 2988 1522 
Q 2988 641 2658 275 
Q 2328 -91 1556 -91 
Q 1256 -91 959 -22 
Q 663 47 341 191 
z
" transform="scale(0.015625)"/>
      <path id="DejaVuSansMono-211d" d="M 2969 1197 
Q 2766 1669 2584 1819 
Q 2403 1972 2084 1972 
L 1966 1972 
Q 2169 1825 2438 1197 
L 2816 313 
L 3344 313 
L 2969 1197 
z
M 2644 2159 
Q 2784 2081 2934 1875 
Q 3084 1669 3250 1275 
L 3791 0 
L 2625 0 
L 2119 1197 
Q 1922 1666 1737 1819 
Q 1553 1972 1234 1972 
L 1181 1972 
L 1181 0 
L 116 0 
L 116 4666 
L 1919 4666 
Q 2597 4666 2931 4331 
Q 3266 3997 3266 3322 
Q 3266 2672 2953 2366 
Q 2825 2238 2644 2159 
z
M 1181 4353 
L 1181 2284 
L 2044 2284 
Q 2109 2284 2169 2291 
L 2169 4347 
Q 2109 4353 2044 4353 
L 1181 4353 
z
M 2447 4281 
L 2447 2359 
Q 2619 2428 2734 2556 
Q 2972 2825 2972 3322 
Q 2972 3819 2738 4084 
Q 2625 4213 2447 4281 
z
M 381 4353 
L 381 313 
L 919 313 
L 919 4353 
L 381 4353 
z
" transform="scale(0.015625)"/>
      <path id="DejaVuSansMono-b3" d="M 2284 3500 
Q 2578 3434 2733 3265 
Q 2888 3097 2888 2847 
Q 2888 2459 2591 2250 
Q 2294 2041 1741 2041 
Q 1559 2041 1381 2073 
Q 1203 2106 1019 2169 
L 1019 2547 
Q 1234 2463 1411 2422 
Q 1588 2381 1728 2381 
Q 2044 2381 2228 2507 
Q 2413 2634 2413 2847 
Q 2413 3078 2241 3197 
Q 2069 3316 1728 3316 
L 1522 3316 
L 1522 3653 
L 1753 3653 
Q 2044 3653 2197 3751 
Q 2350 3850 2350 4038 
Q 2350 4213 2200 4311 
Q 2050 4409 1778 4409 
Q 1641 4409 1466 4371 
Q 1291 4334 1106 4263 
L 1106 4641 
Q 1322 4694 1505 4722 
Q 1688 4750 1844 4750 
Q 2297 4750 2559 4565 
Q 2822 4381 2822 4072 
Q 2822 3850 2684 3704 
Q 2547 3559 2284 3500 
z
" transform="scale(0.015625)"/>
     </defs>
     <use xlink:href="#DejaVuSansMono-4a"/>
     <use xlink:href="#DejaVuSansMono-20" transform="translate(60.205078 0)"/>
     <use xlink:href="#DejaVuSansMono-2208" transform="translate(120.410156 0)"/>
     <use xlink:href="#DejaVuSansMono-20" transform="translate(180.615234 0)"/>
     <use xlink:href="#DejaVuSansMono-211d" transform="translate(240.820312 0)"/>
     <use xlink:href="#DejaVuSansMono-b3" transform="translate(301.025391 0)"/>
    </g>
   </g>
   <g id="text_11">
    <!-- density: |J| -->
    <g style="fill: #95a5a6" transform="translate(571.9425 149.153812) scale(0.08 -0.08)">
     <defs>
      <path id="DejaVuSansMono-7c" d="M 2194 4891 
L 2194 -1509 
L 1656 -1509 
L 1656 4891 
L 2194 4891 
z
" transform="scale(0.015625)"/>
     </defs>
     <use xlink:href="#DejaVuSansMono-64"/>
     <use xlink:href="#DejaVuSansMono-65" transform="translate(60.205078 0)"/>
     <use xlink:href="#DejaVuSansMono-6e" transform="translate(120.410156 0)"/>
     <use xlink:href="#DejaVuSansMono-73" transform="translate(180.615234 0)"/>
     <use xlink:href="#DejaVuSansMono-69" transform="translate(240.820312 0)"/>
     <use xlink:href="#DejaVuSansMono-74" transform="translate(301.025391 0)"/>
     <use xlink:href="#DejaVuSansMono-79" transform="translate(361.230469 0)"/>
     <use xlink:href="#DejaVuSansMono-3a" transform="translate(421.435547 0)"/>
     <use xlink:href="#DejaVuSansMono-20" transform="translate(481.640625 0)"/>
     <use xlink:href="#DejaVuSansMono-7c" transform="translate(541.845703 0)"/>
     <use xlink:href="#DejaVuSansMono-4a" transform="translate(602.050781 0)"/>
     <use xlink:href="#DejaVuSansMono-7c" transform="translate(662.255859 0)"/>
    </g>
   </g>
   <g id="text_12">
    <!-- frequency: ω -->
    <g style="fill: #95a5a6" transform="translate(571.9425 167.488212) scale(0.08 -0.08)">
     <defs>
      <path id="DejaVuSansMono-66" d="M 3322 4863 
L 3322 4384 
L 2669 4384 
Q 2359 4384 2239 4257 
Q 2119 4131 2119 3809 
L 2119 3500 
L 3322 3500 
L 3322 3053 
L 2119 3053 
L 2119 0 
L 1544 0 
L 1544 3053 
L 609 3053 
L 609 3500 
L 1544 3500 
L 1544 3744 
Q 1544 4319 1808 4591 
Q 2072 4863 2631 4863 
L 3322 4863 
z
" transform="scale(0.015625)"/>
      <path id="DejaVuSansMono-3c9" d="M 3228 3500 
Q 3638 2675 3638 1773 
Q 3638 872 3481 488 
Q 3247 -91 2666 -91 
Q 2400 -91 2197 70 
Q 1994 231 1928 469 
Q 1866 244 1666 76 
Q 1466 -91 1191 -91 
Q 609 -91 375 488 
Q 219 872 219 1773 
Q 219 2675 628 3500 
L 1222 3500 
Q 828 2641 828 1744 
Q 825 1038 881 844 
Q 1009 391 1209 397 
Q 1478 403 1584 750 
Q 1663 1006 1663 2184 
L 2194 2184 
Q 2194 1006 2272 750 
Q 2378 403 2647 397 
Q 2847 391 2975 844 
Q 3031 1038 3028 1744 
Q 3028 2641 2634 3500 
L 3228 3500 
z
" transform="scale(0.015625)"/>
     </defs>
     <use xlink:href="#DejaVuSansMono-66"/>
     <use xlink:href="#DejaVuSansMono-72" transform="translate(60.205078 0)"/>
     <use xlink:href="#DejaVuSansMono-65" transform="translate(120.410156 0)"/>
     <use xlink:href="#DejaVuSansMono-71" transform="translate(180.615234 0)"/>
     <use xlink:href="#DejaVuSansMono-75" transform="translate(240.820312 0)"/>
     <use xlink:href="#DejaVuSansMono-65" transform="translate(301.025391 0)"/>
     <use xlink:href="#DejaVuSansMono-6e" transform="translate(361.230469 0)"/>
     <use xlink:href="#DejaVuSansMono-63" transform="translate(421.435547 0)"/>
     <use xlink:href="#DejaVuSansMono-79" transform="translate(481.640625 0)"/>
     <use xlink:href="#DejaVuSansMono-3a" transform="translate(541.845703 0)"/>
     <use xlink:href="#DejaVuSansMono-20" transform="translate(602.050781 0)"/>
     <use xlink:href="#DejaVuSansMono-3c9" transform="translate(662.255859 0)"/>
    </g>
   </g>
   <g id="text_13">
    <!-- Mechanical -->
    <g style="fill: #2c3e50" transform="translate(562.93125 243.445012) scale(0.12 -0.12)">
     <defs>
      <path id="DejaVuSans-Bold-4d" d="M 588 4666 
L 2119 4666 
L 3181 2169 
L 4250 4666 
L 5778 4666 
L 5778 0 
L 4641 0 
L 4641 3413 
L 3566 897 
L 2803 897 
L 1728 3413 
L 1728 0 
L 588 0 
L 588 4666 
z
" transform="scale(0.015625)"/>
      <path id="DejaVuSans-Bold-63" d="M 3366 3391 
L 3366 2478 
Q 3138 2634 2908 2709 
Q 2678 2784 2431 2784 
Q 1963 2784 1702 2511 
Q 1441 2238 1441 1747 
Q 1441 1256 1702 982 
Q 1963 709 2431 709 
Q 2694 709 2930 787 
Q 3166 866 3366 1019 
L 3366 103 
Q 3103 6 2833 -42 
Q 2563 -91 2291 -91 
Q 1344 -91 809 395 
Q 275 881 275 1747 
Q 275 2613 809 3098 
Q 1344 3584 2291 3584 
Q 2566 3584 2833 3536 
Q 3100 3488 3366 3391 
z
" transform="scale(0.015625)"/>
      <path id="DejaVuSans-Bold-68" d="M 4056 2131 
L 4056 0 
L 2931 0 
L 2931 347 
L 2931 1625 
Q 2931 2084 2911 2256 
Q 2891 2428 2841 2509 
Q 2775 2619 2662 2680 
Q 2550 2741 2406 2741 
Q 2056 2741 1856 2470 
Q 1656 2200 1656 1722 
L 1656 0 
L 538 0 
L 538 4863 
L 1656 4863 
L 1656 2988 
Q 1909 3294 2193 3439 
Q 2478 3584 2822 3584 
Q 3428 3584 3742 3212 
Q 4056 2841 4056 2131 
z
" transform="scale(0.015625)"/>
     </defs>
     <use xlink:href="#DejaVuSans-Bold-4d"/>
     <use xlink:href="#DejaVuSans-Bold-65" transform="translate(99.511719 0)"/>
     <use xlink:href="#DejaVuSans-Bold-63" transform="translate(167.333984 0)"/>
     <use xlink:href="#DejaVuSans-Bold-68" transform="translate(226.611328 0)"/>
     <use xlink:href="#DejaVuSans-Bold-61" transform="translate(297.802734 0)"/>
     <use xlink:href="#DejaVuSans-Bold-6e" transform="translate(365.283203 0)"/>
     <use xlink:href="#DejaVuSans-Bold-69" transform="translate(436.474609 0)"/>
     <use xlink:href="#DejaVuSans-Bold-63" transform="translate(470.751953 0)"/>
     <use xlink:href="#DejaVuSans-Bold-61" transform="translate(530.029297 0)"/>
     <use xlink:href="#DejaVuSans-Bold-6c" transform="translate(597.509766 0)"/>
    </g>
   </g>
   <g id="text_14">
    <!-- force: F -->
    <g style="fill: #95a5a6" transform="translate(581.575 261.779412) scale(0.08 -0.08)">
     <defs>
      <path id="DejaVuSansMono-46" d="M 728 4666 
L 3475 4666 
L 3475 4134 
L 1363 4134 
L 1363 2759 
L 3278 2759 
L 3278 2228 
L 1363 2228 
L 1363 0 
L 728 0 
L 728 4666 
z
" transform="scale(0.015625)"/>
     </defs>
     <use xlink:href="#DejaVuSansMono-66"/>
     <use xlink:href="#DejaVuSansMono-6f" transform="translate(60.205078 0)"/>
     <use xlink:href="#DejaVuSansMono-72" transform="translate(120.410156 0)"/>
     <use xlink:href="#DejaVuSansMono-63" transform="translate(180.615234 0)"/>
     <use xlink:href="#DejaVuSansMono-65" transform="translate(240.820312 0)"/>
     <use xlink:href="#DejaVuSansMono-3a" transform="translate(301.025391 0)"/>
     <use xlink:href="#DejaVuSansMono-20" transform="translate(361.230469 0)"/>
     <use xlink:href="#DejaVuSansMono-46" transform="translate(421.435547 0)"/>
    </g>
   </g>
   <g id="text_15">
    <!-- velocity: v -->
    <g style="fill: #95a5a6" transform="translate(574.350625 280.113812) scale(0.08 -0.08)">
     <defs>
      <path id="DejaVuSansMono-76" d="M 313 3500 
L 909 3500 
L 1925 563 
L 2944 3500 
L 3541 3500 
L 2297 0 
L 1556 0 
L 313 3500 
z
" transform="scale(0.015625)"/>
      <path id="DejaVuSansMono-6c" d="M 1997 1269 
Q 1997 881 2139 684 
Q 2281 488 2559 488 
L 3231 488 
L 3231 0 
L 2503 0 
Q 1988 0 1705 331 
Q 1422 663 1422 1269 
L 1422 4447 
L 500 4447 
L 500 4897 
L 1997 4897 
L 1997 1269 
z
" transform="scale(0.015625)"/>
     </defs>
     <use xlink:href="#DejaVuSansMono-76"/>
     <use xlink:href="#DejaVuSansMono-65" transform="translate(60.205078 0)"/>
     <use xlink:href="#DejaVuSansMono-6c" transform="translate(120.410156 0)"/>
     <use xlink:href="#DejaVuSansMono-6f" transform="translate(180.615234 0)"/>
     <use xlink:href="#DejaVuSansMono-63" transform="translate(240.820312 0)"/>
     <use xlink:href="#DejaVuSansMono-69" transform="translate(301.025391 0)"/>
     <use xlink:href="#DejaVuSansMono-74" transform="translate(361.230469 0)"/>
     <use xlink:href="#DejaVuSansMono-79" transform="translate(421.435547 0)"/>
     <use xlink:href="#DejaVuSansMono-3a" transform="translate(481.640625 0)"/>
     <use xlink:href="#DejaVuSansMono-20" transform="translate(541.845703 0)"/>
     <use xlink:href="#DejaVuSansMono-76" transform="translate(602.050781 0)"/>
    </g>
   </g>
   <g id="text_16">
    <!-- remainder: r -->
    <g style="fill: #95a5a6" transform="translate(571.9425 298.448212) scale(0.08 -0.08)">
     <defs>
      <path id="DejaVuSansMono-6d" d="M 2113 3144 
Q 2219 3369 2383 3476 
Q 2547 3584 2778 3584 
Q 3200 3584 3373 3257 
Q 3547 2931 3547 2028 
L 3547 0 
L 3022 0 
L 3022 2003 
Q 3022 2744 2939 2923 
Q 2856 3103 2638 3103 
Q 2388 3103 2295 2911 
Q 2203 2719 2203 2003 
L 2203 0 
L 1678 0 
L 1678 2003 
Q 1678 2753 1589 2928 
Q 1500 3103 1269 3103 
Q 1041 3103 952 2911 
Q 863 2719 863 2003 
L 863 0 
L 341 0 
L 341 3500 
L 863 3500 
L 863 3200 
Q 966 3388 1120 3486 
Q 1275 3584 1472 3584 
Q 1709 3584 1867 3475 
Q 2025 3366 2113 3144 
z
" transform="scale(0.015625)"/>
     </defs>
     <use xlink:href="#DejaVuSansMono-72"/>
     <use xlink:href="#DejaVuSansMono-65" transform="translate(60.205078 0)"/>
     <use xlink:href="#DejaVuSansMono-6d" transform="translate(120.410156 0)"/>
     <use xlink:href="#DejaVuSansMono-61" transform="translate(180.615234 0)"/>
     <use xlink:href="#DejaVuSansMono-69" transform="translate(240.820312 0)"/>
     <use xlink:href="#DejaVuSansMono-6e" transform="translate(301.025391 0)"/>
     <use xlink:href="#DejaVuSansMono-64" transform="translate(361.230469 0)"/>
     <use xlink:href="#DejaVuSansMono-65" transform="translate(421.435547 0)"/>
     <use xlink:href="#DejaVuSansMono-72" transform="translate(481.640625 0)"/>
     <use xlink:href="#DejaVuSansMono-3a" transform="translate(541.845703 0)"/>
     <use xlink:href="#DejaVuSansMono-20" transform="translate(602.050781 0)"/>
     <use xlink:href="#DejaVuSansMono-72" transform="translate(662.255859 0)"/>
    </g>
   </g>
   <g id="text_17">
    <!-- Flags -->
    <g style="fill: #2c3e50" transform="translate(338.329688 383.572212) scale(0.12 -0.12)">
     <defs>
      <path id="DejaVuSans-Bold-67" d="M 2919 594 
Q 2688 288 2409 144 
Q 2131 0 1766 0 
Q 1125 0 706 504 
Q 288 1009 288 1791 
Q 288 2575 706 3076 
Q 1125 3578 1766 3578 
Q 2131 3578 2409 3434 
Q 2688 3291 2919 2981 
L 2919 3500 
L 4044 3500 
L 4044 353 
Q 4044 -491 3511 -936 
Q 2978 -1381 1966 -1381 
Q 1638 -1381 1331 -1331 
Q 1025 -1281 716 -1178 
L 716 -306 
Q 1009 -475 1290 -558 
Q 1572 -641 1856 -641 
Q 2406 -641 2662 -400 
Q 2919 -159 2919 353 
L 2919 594 
z
M 2181 2772 
Q 1834 2772 1640 2515 
Q 1447 2259 1447 1791 
Q 1447 1309 1634 1061 
Q 1822 813 2181 813 
Q 2531 813 2725 1069 
Q 2919 1325 2919 1791 
Q 2919 2259 2725 2515 
Q 2531 2772 2181 2772 
z
" transform="scale(0.015625)"/>
      <path id="DejaVuSans-Bold-73" d="M 3272 3391 
L 3272 2541 
Q 2913 2691 2578 2766 
Q 2244 2841 1947 2841 
Q 1628 2841 1473 2761 
Q 1319 2681 1319 2516 
Q 1319 2381 1436 2309 
Q 1553 2238 1856 2203 
L 2053 2175 
Q 2913 2066 3209 1816 
Q 3506 1566 3506 1031 
Q 3506 472 3093 190 
Q 2681 -91 1863 -91 
Q 1516 -91 1145 -36 
Q 775 19 384 128 
L 384 978 
Q 719 816 1070 734 
Q 1422 653 1784 653 
Q 2113 653 2278 743 
Q 2444 834 2444 1013 
Q 2444 1163 2330 1236 
Q 2216 1309 1875 1350 
L 1678 1375 
Q 931 1469 631 1722 
Q 331 1975 331 2491 
Q 331 3047 712 3315 
Q 1094 3584 1881 3584 
Q 2191 3584 2531 3537 
Q 2872 3491 3272 3391 
z
" transform="scale(0.015625)"/>
     </defs>
     <use xlink:href="#DejaVuSans-Bold-46"/>
     <use xlink:href="#DejaVuSans-Bold-6c" transform="translate(68.310547 0)"/>
     <use xlink:href="#DejaVuSans-Bold-61" transform="translate(102.587891 0)"/>
     <use xlink:href="#DejaVuSans-Bold-67" transform="translate(170.068359 0)"/>
     <use xlink:href="#DejaVuSans-Bold-73" transform="translate(241.650391 0)"/>
    </g>
   </g>
   <g id="text_18">
    <!-- is_locked -->
    <g style="fill: #95a5a6" transform="translate(334.726875 401.906612) scale(0.08 -0.08)">
     <defs>
      <path id="DejaVuSansMono-6b" d="M 738 4863 
L 1331 4863 
L 1331 2047 
L 2841 3500 
L 3541 3500 
L 2163 2181 
L 3756 0 
L 3053 0 
L 1759 1806 
L 1331 1403 
L 1331 0 
L 738 0 
L 738 4863 
z
" transform="scale(0.015625)"/>
     </defs>
     <use xlink:href="#DejaVuSansMono-69"/>
     <use xlink:href="#DejaVuSansMono-73" transform="translate(60.205078 0)"/>
     <use xlink:href="#DejaVuSansMono-5f" transform="translate(120.410156 0)"/>
     <use xlink:href="#DejaVuSansMono-6c" transform="translate(180.615234 0)"/>
     <use xlink:href="#DejaVuSansMono-6f" transform="translate(240.820312 0)"/>
     <use xlink:href="#DejaVuSansMono-63" transform="translate(301.025391 0)"/>
     <use xlink:href="#DejaVuSansMono-6b" transform="translate(361.230469 0)"/>
     <use xlink:href="#DejaVuSansMono-65" transform="translate(421.435547 0)"/>
     <use xlink:href="#DejaVuSansMono-64" transform="translate(481.640625 0)"/>
    </g>
   </g>
   <g id="text_19">
    <!-- is_active -->
    <g style="fill: #95a5a6" transform="translate(334.726875 420.241012) scale(0.08 -0.08)">
     <use xlink:href="#DejaVuSansMono-69"/>
     <use xlink:href="#DejaVuSansMono-73" transform="translate(60.205078 0)"/>
     <use xlink:href="#DejaVuSansMono-5f" transform="translate(120.410156 0)"/>
     <use xlink:href="#DejaVuSansMono-61" transform="translate(180.615234 0)"/>
     <use xlink:href="#DejaVuSansMono-63" transform="translate(240.820312 0)"/>
     <use xlink:href="#DejaVuSansMono-74" transform="translate(301.025391 0)"/>
     <use xlink:href="#DejaVuSansMono-69" transform="translate(361.230469 0)"/>
     <use xlink:href="#DejaVuSansMono-76" transform="translate(421.435547 0)"/>
     <use xlink:href="#DejaVuSansMono-65" transform="translate(481.640625 0)"/>
    </g>
   </g>
   <g id="text_20">
    <!-- Voxel Data Structure -->
    <g transform="translate(284.191719 17.837812) scale(0.14 -0.14)">
     <defs>
      <path id="DejaVuSans-56" d="M 1831 0 
L 50 4666 
L 709 4666 
L 2188 738 
L 3669 4666 
L 4325 4666 
L 2547 0 
L 1831 0 
z
" transform="scale(0.015625)"/>
      <path id="DejaVuSans-6f" d="M 1959 3097 
Q 1497 3097 1228 2736 
Q 959 2375 959 1747 
Q 959 1119 1226 758 
Q 1494 397 1959 397 
Q 2419 397 2687 759 
Q 2956 1122 2956 1747 
Q 2956 2369 2687 2733 
Q 2419 3097 1959 3097 
z
M 1959 3584 
Q 2709 3584 3137 3096 
Q 3566 2609 3566 1747 
Q 3566 888 3137 398 
Q 2709 -91 1959 -91 
Q 1206 -91 779 398 
Q 353 888 353 1747 
Q 353 2609 779 3096 
Q 1206 3584 1959 3584 
z
" transform="scale(0.015625)"/>
      <path id="DejaVuSans-78" d="M 3513 3500 
L 2247 1797 
L 3578 0 
L 2900 0 
L 1881 1375 
L 863 0 
L 184 0 
L 1544 1831 
L 300 3500 
L 978 3500 
L 1906 2253 
L 2834 3500 
L 3513 3500 
z
" transform="scale(0.015625)"/>
      <path id="DejaVuSans-65" d="M 3597 1894 
L 3597 1613 
L 953 1613 
Q 991 1019 1311 708 
Q 1631 397 2203 397 
Q 2534 397 2845 478 
Q 3156 559 3463 722 
L 3463 178 
Q 3153 47 2828 -22 
Q 2503 -91 2169 -91 
Q 1331 -91 842 396 
Q 353 884 353 1716 
Q 353 2575 817 3079 
Q 1281 3584 2069 3584 
Q 2775 3584 3186 3129 
Q 3597 2675 3597 1894 
z
M 3022 2063 
Q 3016 2534 2758 2815 
Q 2500 3097 2075 3097 
Q 1594 3097 1305 2825 
Q 1016 2553 972 2059 
L 3022 2063 
z
" transform="scale(0.015625)"/>
      <path id="DejaVuSans-6c" d="M 603 4863 
L 1178 4863 
L 1178 0 
L 603 0 
L 603 4863 
z
" transform="scale(0.015625)"/>
      <path id="DejaVuSans-20" transform="scale(0.015625)"/>
      <path id="DejaVuSans-44" d="M 1259 4147 
L 1259 519 
L 2022 519 
Q 2988 519 3436 956 
Q 3884 1394 3884 2338 
Q 3884 3275 3436 3711 
Q 2988 4147 2022 4147 
L 1259 4147 
z
M 628 4666 
L 1925 4666 
Q 3281 4666 3915 4102 
Q 4550 3538 4550 2338 
Q 4550 1131 3912 565 
Q 3275 0 1925 0 
L 628 0 
L 628 4666 
z
" transform="scale(0.015625)"/>
      <path id="DejaVuSans-61" d="M 2194 1759 
Q 1497 1759 1228 1600 
Q 959 1441 959 1056 
Q 959 750 1161 570 
Q 1363 391 1709 391 
Q 2188 391 2477 730 
Q 2766 1069 2766 1631 
L 2766 1759 
L 2194 1759 
z
M 3341 1997 
L 3341 0 
L 2766 0 
L 2766 531 
Q 2569 213 2275 61 
Q 1981 -91 1556 -91 
Q 1019 -91 701 211 
Q 384 513 384 1019 
Q 384 1609 779 1909 
Q 1175 2209 1959 2209 
L 2766 2209 
L 2766 2266 
Q 2766 2663 2505 2880 
Q 2244 3097 1772 3097 
Q 1472 3097 1187 3025 
Q 903 2953 641 2809 
L 641 3341 
Q 956 3463 1253 3523 
Q 1550 3584 1831 3584 
Q 2591 3584 2966 3190 
Q 3341 2797 3341 1997 
z
" transform="scale(0.015625)"/>
      <path id="DejaVuSans-74" d="M 1172 4494 
L 1172 3500 
L 2356 3500 
L 2356 3053 
L 1172 3053 
L 1172 1153 
Q 1172 725 1289 603 
Q 1406 481 1766 481 
L 2356 481 
L 2356 0 
L 1766 0 
Q 1100 0 847 248 
Q 594 497 594 1153 
L 594 3053 
L 172 3053 
L 172 3500 
L 594 3500 
L 594 4494 
L 1172 4494 
z
" transform="scale(0.015625)"/>
      <path id="DejaVuSans-53" d="M 3425 4513 
L 3425 3897 
Q 3066 4069 2747 4153 
Q 2428 4238 2131 4238 
Q 1616 4238 1336 4038 
Q 1056 3838 1056 3469 
Q 1056 3159 1242 3001 
Q 1428 2844 1947 2747 
L 2328 2669 
Q 3034 2534 3370 2195 
Q 3706 1856 3706 1288 
Q 3706 609 3251 259 
Q 2797 -91 1919 -91 
Q 1588 -91 1214 -16 
Q 841 59 441 206 
L 441 856 
Q 825 641 1194 531 
Q 1563 422 1919 422 
Q 2459 422 2753 634 
Q 3047 847 3047 1241 
Q 3047 1584 2836 1778 
Q 2625 1972 2144 2069 
L 1759 2144 
Q 1053 2284 737 2584 
Q 422 2884 422 3419 
Q 422 4038 858 4394 
Q 1294 4750 2059 4750 
Q 2388 4750 2728 4690 
Q 3069 4631 3425 4513 
z
" transform="scale(0.015625)"/>
      <path id="DejaVuSans-72" d="M 2631 2963 
Q 2534 3019 2420 3045 
Q 2306 3072 2169 3072 
Q 1681 3072 1420 2755 
Q 1159 2438 1159 1844 
L 1159 0 
L 581 0 
L 581 3500 
L 1159 3500 
L 1159 2956 
Q 1341 3275 1631 3429 
Q 1922 3584 2338 3584 
Q 2397 3584 2469 3576 
Q 2541 3569 2628 3553 
L 2631 2963 
z
" transform="scale(0.015625)"/>
      <path id="DejaVuSans-75" d="M 544 1381 
L 544 3500 
L 1119 3500 
L 1119 1403 
Q 1119 906 1312 657 
Q 1506 409 1894 409 
Q 2359 409 2629 706 
Q 2900 1003 2900 1516 
L 2900 3500 
L 3475 3500 
L 3475 0 
L 2900 0 
L 2900 538 
Q 2691 219 2414 64 
Q 2138 -91 1772 -91 
Q 1169 -91 856 284 
Q 544 659 544 1381 
z
M 1991 3584 
L 1991 3584 
z
" transform="scale(0.015625)"/>
      <path id="DejaVuSans-63" d="M 3122 3366 
L 3122 2828 
Q 2878 2963 2633 3030 
Q 2388 3097 2138 3097 
Q 1578 3097 1268 2742 
Q 959 2388 959 1747 
Q 959 1106 1268 751 
Q 1578 397 2138 397 
Q 2388 397 2633 464 
Q 2878 531 3122 666 
L 3122 134 
Q 2881 22 2623 -34 
Q 2366 -91 2075 -91 
Q 1284 -91 818 406 
Q 353 903 353 1747 
Q 353 2603 823 3093 
Q 1294 3584 2113 3584 
Q 2378 3584 2631 3529 
Q 2884 3475 3122 3366 
z
" transform="scale(0.015625)"/>
     </defs>
     <use xlink:href="#DejaVuSans-56"/>
     <use xlink:href="#DejaVuSans-6f" transform="translate(60.658203 0)"/>
     <use xlink:href="#DejaVuSans-78" transform="translate(118.714844 0)"/>
     <use xlink:href="#DejaVuSans-65" transform="translate(174.769531 0)"/>
     <use xlink:href="#DejaVuSans-6c" transform="translate(236.292969 0)"/>
     <use xlink:href="#DejaVuSans-20" transform="translate(264.076172 0)"/>
     <use xlink:href="#DejaVuSans-44" transform="translate(295.863281 0)"/>
     <use xlink:href="#DejaVuSans-61" transform="translate(372.865234 0)"/>
     <use xlink:href="#DejaVuSans-74" transform="translate(434.144531 0)"/>
     <use xlink:href="#DejaVuSans-61" transform="translate(473.353516 0)"/>
     <use xlink:href="#DejaVuSans-20" transform="translate(534.632812 0)"/>
     <use xlink:href="#DejaVuSans-53" transform="translate(566.419922 0)"/>
     <use xlink:href="#DejaVuSans-74" transform="translate(629.896484 0)"/>
     <use xlink:href="#DejaVuSans-72" transform="translate(669.105469 0)"/>
     <use xlink:href="#DejaVuSans-75" transform="translate(710.21875 0)"/>
     <use xlink:href="#DejaVuSans-63" transform="translate(773.597656 0)"/>
     <use xlink:href="#DejaVuSans-74" transform="translate(828.578125 0)"/>
     <use xlink:href="#DejaVuSans-75" transform="translate(867.787109 0)"/>
     <use xlink:href="#DejaVuSans-72" transform="translate(931.166016 0)"/>
     <use xlink:href="#DejaVuSans-65" transform="translate(970.029297 0)"/>
    </g>
   </g>
  </g>
 </g>
 <defs>
  <clipPath id="pc85735d14e">
   <rect x="7.2" y="37.837812" width="698.4" height="523.84"/>
  </clipPath>
 </defs>
</svg>
