<?xml version="1.0" encoding="utf-8" standalone="no"?>
<!DOCTYPE svg PUBLIC "-//W3C//DTD SVG 1.1//EN"
  "http://www.w3.org/Graphics/SVG/1.1/DTD/svg11.dtd">
<svg xmlns:xlink="http://www.w3.org/1999/xlink" width="730.95344pt" height="342.914125pt" viewBox="0 0 730.95344 342.914125" xmlns="http://www.w3.org/2000/svg" version="1.1">
 <metadata>
  <rdf:RDF xmlns:dc="http://purl.org/dc/elements/1.1/" xmlns:cc="http://creativecommons.org/ns#" xmlns:rdf="http://www.w3.org/1999/02/22-rdf-syntax-ns#">
   <cc:Work>
    <dc:type rdf:resource="http://purl.org/dc/dcmitype/StillImage"/>
    <dc:date>2026-01-02T19:17:48.731120</dc:date>
    <dc:format>image/svg+xml</dc:format>
    <dc:creator>
     <cc:Agent>
      <dc:title>Matplotlib v3.10.8, https://matplotlib.org/</dc:title>
     </cc:Agent>
    </dc:creator>
   </cc:Work>
  </rdf:RDF>
 </metadata>
 <defs>
  <style type="text/css">*{stroke-linejoin: round; stroke-linecap: butt}</style>
 </defs>
 <g id="figure_1">
  <g id="patch_1">
   <path d="M 0 342.914125 
L 730.95344 342.914125 
L 730.95344 0 
L 0 0 
z
" style="fill: #ffffff"/>
  </g>
  <g id="axes_1">
   <g id="patch_2">
    <path d="M 41.025 304.936 
L 408.959 304.936 
L 408.959 71.296 
L 41.025 71.296 
z
" style="fill: #ffffff"/>
   </g>
   <g id="matplotlib.axis_1">
    <g id="xtick_1">
     <g id="line2d_1">
      <path d="M 72.953157 304.936 
L 72.953157 71.296 
" clip-path="url(#pb927142e71)" style="fill: none; stroke: #ecf0f1; stroke-opacity: 0.8; stroke-width: 0.8; stroke-linecap: square"/>
     </g>
     <g id="line2d_2">
      <defs>
       <path id="mabef059d19" d="M 0 0 
L 0 3.5 
" style="stroke: #000000; stroke-width: 0.8"/>
      </defs>
      <g>
       <use xlink:href="#mabef059d19" x="72.953157" y="304.936" style="stroke: #000000; stroke-width: 0.8"/>
      </g>
     </g>
     <g id="text_1">
      <!-- −2 -->
      <g transform="translate(65.582063 319.534438) scale(0.1 -0.1)">
       <defs>
        <path id="DejaVuSans-2212" d="M 678 2272 
L 4684 2272 
L 4684 1741 
L 678 1741 
L 678 2272 
z
" transform="scale(0.015625)"/>
        <path id="DejaVuSans-32" d="M 1228 531 
L 3431 531 
L 3431 0 
L 469 0 
L 469 531 
Q 828 903 1448 1529 
Q 2069 2156 2228 2338 
Q 2531 2678 2651 2914 
Q 2772 3150 2772 3378 
Q 2772 3750 2511 3984 
Q 2250 4219 1831 4219 
Q 1534 4219 1204 4116 
Q 875 4013 500 3803 
L 500 4441 
Q 881 4594 1212 4672 
Q 1544 4750 1819 4750 
Q 2544 4750 2975 4387 
Q 3406 4025 3406 3419 
Q 3406 3131 3298 2873 
Q 3191 2616 2906 2266 
Q 2828 2175 2409 1742 
Q 1991 1309 1228 531 
z
" transform="scale(0.015625)"/>
       </defs>
       <use xlink:href="#DejaVuSans-2212"/>
       <use xlink:href="#DejaVuSans-32" transform="translate(83.789062 0)"/>
      </g>
     </g>
    </g>
    <g id="xtick_2">
     <g id="line2d_3">
      <path d="M 148.972579 304.936 
L 148.972579 71.296 
" clip-path="url(#pb927142e71)" style="fill: none; stroke: #ecf0f1; stroke-opacity: 0.8; stroke-width: 0.8; stroke-linecap: square"/>
     </g>
     <g id="line2d_4">
      <g>
       <use xlink:href="#mabef059d19" x="148.972579" y="304.936" style="stroke: #000000; stroke-width: 0.8"/>
      </g>
     </g>
     <g id="text_2">
      <!-- −1 -->
      <g transform="translate(141.601485 319.534438) scale(0.1 -0.1)">
       <defs>
        <path id="DejaVuSans-31" d="M 794 531 
L 1825 531 
L 1825 4091 
L 703 3866 
L 703 4441 
L 1819 4666 
L 2450 4666 
L 2450 531 
L 3481 531 
L 3481 0 
L 794 0 
L 794 531 
z
" transform="scale(0.015625)"/>
       </defs>
       <use xlink:href="#DejaVuSans-2212"/>
       <use xlink:href="#DejaVuSans-31" transform="translate(83.789062 0)"/>
      </g>
     </g>
    </g>
    <g id="xtick_3">
     <g id="line2d_5">
      <path d="M 224.992 304.936 
L 224.992 71.296 
" clip-path="url(#pb927142e71)" style="fill: none; stroke: #ecf0f1; stroke-opacity: 0.8; stroke-width: 0.8; stroke-linecap: square"/>
     </g>
     <g id="line2d_6">
      <g>
       <use xlink:href="#mabef059d19" x="224.992" y="304.936" style="stroke: #000000; stroke-width: 0.8"/>
      </g>
     </g>
     <g id="text_3">
      <!-- 0 -->
      <g transform="translate(221.81075 319.534438) scale(0.1 -0.1)">
       <defs>
        <path id="DejaVuSans-30" d="M 2034 4250 
Q 1547 4250 1301 3770 
Q 1056 3291 1056 2328 
Q 1056 1369 1301 889 
Q 1547 409 2034 409 
Q 2525 409 2770 889 
Q 3016 1369 3016 2328 
Q 3016 3291 2770 3770 
Q 2525 4250 2034 4250 
z
M 2034 4750 
Q 2819 4750 3233 4129 
Q 3647 3509 3647 2328 
Q 3647 1150 3233 529 
Q 2819 -91 2034 -91 
Q 1250 -91 836 529 
Q 422 1150 422 2328 
Q 422 3509 836 4129 
Q 1250 4750 2034 4750 
z
" transform="scale(0.015625)"/>
       </defs>
       <use xlink:href="#DejaVuSans-30"/>
      </g>
     </g>
    </g>
    <g id="xtick_4">
     <g id="line2d_7">
      <path d="M 301.011421 304.936 
L 301.011421 71.296 
" clip-path="url(#pb927142e71)" style="fill: none; stroke: #ecf0f1; stroke-opacity: 0.8; stroke-width: 0.8; stroke-linecap: square"/>
     </g>
     <g id="line2d_8">
      <g>
       <use xlink:href="#mabef059d19" x="301.011421" y="304.936" style="stroke: #000000; stroke-width: 0.8"/>
      </g>
     </g>
     <g id="text_4">
      <!-- 1 -->
      <g transform="translate(297.830171 319.534438) scale(0.1 -0.1)">
       <use xlink:href="#DejaVuSans-31"/>
      </g>
     </g>
    </g>
    <g id="xtick_5">
     <g id="line2d_9">
      <path d="M 377.030843 304.936 
L 377.030843 71.296 
" clip-path="url(#pb927142e71)" style="fill: none; stroke: #ecf0f1; stroke-opacity: 0.8; stroke-width: 0.8; stroke-linecap: square"/>
     </g>
     <g id="line2d_10">
      <g>
       <use xlink:href="#mabef059d19" x="377.030843" y="304.936" style="stroke: #000000; stroke-width: 0.8"/>
      </g>
     </g>
     <g id="text_5">
      <!-- 2 -->
      <g transform="translate(373.849593 319.534438) scale(0.1 -0.1)">
       <use xlink:href="#DejaVuSans-32"/>
      </g>
     </g>
    </g>
    <g id="text_6">
     <!-- Field amplitude $|J|$ (schematic) -->
     <g transform="translate(148.642 333.314125) scale(0.1 -0.1)">
      <defs>
       <path id="DejaVuSans-46" d="M 628 4666 
L 3309 4666 
L 3309 4134 
L 1259 4134 
L 1259 2759 
L 3109 2759 
L 3109 2228 
L 1259 2228 
L 1259 0 
L 628 0 
L 628 4666 
z
" transform="scale(0.015625)"/>
       <path id="DejaVuSans-69" d="M 603 3500 
L 1178 3500 
L 1178 0 
L 603 0 
L 603 3500 
z
M 603 4863 
L 1178 4863 
L 1178 4134 
L 603 4134 
L 603 4863 
z
" transform="scale(0.015625)"/>
       <path id="DejaVuSans-65" d="M 3597 1894 
L 3597 1613 
L 953 1613 
Q 991 1019 1311 708 
Q 1631 397 2203 397 
Q 2534 397 2845 478 
Q 3156 559 3463 722 
L 3463 178 
Q 3153 47 2828 -22 
Q 2503 -91 2169 -91 
Q 1331 -91 842 396 
Q 353 884 353 1716 
Q 353 2575 817 3079 
Q 1281 3584 2069 3584 
Q 2775 3584 3186 3129 
Q 3597 2675 3597 1894 
z
M 3022 2063 
Q 3016 2534 2758 2815 
Q 2500 3097 2075 3097 
Q 1594 3097 1305 2825 
Q 1016 2553 972 2059 
L 3022 2063 
z
" transform="scale(0.015625)"/>
       <path id="DejaVuSans-6c" d="M 603 4863 
L 1178 4863 
L 1178 0 
L 603 0 
L 603 4863 
z
" transform="scale(0.015625)"/>
       <path id="DejaVuSans-64" d="M 2906 2969 
L 2906 4863 
L 3481 4863 
L 3481 0 
L 2906 0 
L 2906 525 
Q 2725 213 2448 61 
Q 2172 -91 1784 -91 
Q 1150 -91 751 415 
Q 353 922 353 1747 
Q 353 2572 751 3078 
Q 1150 3584 1784 3584 
Q 2172 3584 2448 3432 
Q 2725 3281 2906 2969 
z
M 947 1747 
Q 947 1113 1208 752 
Q 1469 391 1925 391 
Q 2381 391 2643 752 
Q 2906 1113 2906 1747 
Q 2906 2381 2643 2742 
Q 2381 3103 1925 3103 
Q 1469 3103 1208 2742 
Q 947 2381 947 1747 
z
" transform="scale(0.015625)"/>
       <path id="DejaVuSans-20" transform="scale(0.015625)"/>
       <path id="DejaVuSans-61" d="M 2194 1759 
Q 1497 1759 1228 1600 
Q 959 1441 959 1056 
Q 959 750 1161 570 
Q 1363 391 1709 391 
Q 2188 391 2477 730 
Q 2766 1069 2766 1631 
L 2766 1759 
L 2194 1759 
z
M 3341 1997 
L 3341 0 
L 2766 0 
L 2766 531 
Q 2569 213 2275 61 
Q 1981 -91 1556 -91 
Q 1019 -91 701 211 
Q 384 513 384 1019 
Q 384 1609 779 1909 
Q 1175 2209 1959 2209 
L 2766 2209 
L 2766 2266 
Q 2766 2663 2505 2880 
Q 2244 3097 1772 3097 
Q 1472 3097 1187 3025 
Q 903 2953 641 2809 
L 641 3341 
Q 956 3463 1253 3523 
Q 1550 3584 1831 3584 
Q 2591 3584 2966 3190 
Q 3341 2797 3341 1997 
z
" transform="scale(0.015625)"/>
       <path id="DejaVuSans-6d" d="M 3328 2828 
Q 3544 3216 3844 3400 
Q 4144 3584 4550 3584 
Q 5097 3584 5394 3201 
Q 5691 2819 5691 2113 
L 5691 0 
L 5113 0 
L 5113 2094 
Q 5113 2597 4934 2840 
Q 4756 3084 4391 3084 
Q 3944 3084 3684 2787 
Q 3425 2491 3425 1978 
L 3425 0 
L 2847 0 
L 2847 2094 
Q 2847 2600 2669 2842 
Q 2491 3084 2119 3084 
Q 1678 3084 1418 2786 
Q 1159 2488 1159 1978 
L 1159 0 
L 581 0 
L 581 3500 
L 1159 3500 
L 1159 2956 
Q 1356 3278 1631 3431 
Q 1906 3584 2284 3584 
Q 2666 3584 2933 3390 
Q 3200 3197 3328 2828 
z
" transform="scale(0.015625)"/>
       <path id="DejaVuSans-70" d="M 1159 525 
L 1159 -1331 
L 581 -1331 
L 581 3500 
L 1159 3500 
L 1159 2969 
Q 1341 3281 1617 3432 
Q 1894 3584 2278 3584 
Q 2916 3584 3314 3078 
Q 3713 2572 3713 1747 
Q 3713 922 3314 415 
Q 2916 -91 2278 -91 
Q 1894 -91 1617 61 
Q 1341 213 1159 525 
z
M 3116 1747 
Q 3116 2381 2855 2742 
Q 2594 3103 2138 3103 
Q 1681 3103 1420 2742 
Q 1159 2381 1159 1747 
Q 1159 1113 1420 752 
Q 1681 391 2138 391 
Q 2594 391 2855 752 
Q 3116 1113 3116 1747 
z
" transform="scale(0.015625)"/>
       <path id="DejaVuSans-74" d="M 1172 4494 
L 1172 3500 
L 2356 3500 
L 2356 3053 
L 1172 3053 
L 1172 1153 
Q 1172 725 1289 603 
Q 1406 481 1766 481 
L 2356 481 
L 2356 0 
L 1766 0 
Q 1100 0 847 248 
Q 594 497 594 1153 
L 594 3053 
L 172 3053 
L 172 3500 
L 594 3500 
L 594 4494 
L 1172 4494 
z
" transform="scale(0.015625)"/>
       <path id="DejaVuSans-75" d="M 544 1381 
L 544 3500 
L 1119 3500 
L 1119 1403 
Q 1119 906 1312 657 
Q 1506 409 1894 409 
Q 2359 409 2629 706 
Q 2900 1003 2900 1516 
L 2900 3500 
L 3475 3500 
L 3475 0 
L 2900 0 
L 2900 538 
Q 2691 219 2414 64 
Q 2138 -91 1772 -91 
Q 1169 -91 856 284 
Q 544 659 544 1381 
z
M 1991 3584 
L 1991 3584 
z
" transform="scale(0.015625)"/>
       <path id="DejaVuSans-7c" d="M 1344 4891 
L 1344 -1509 
L 813 -1509 
L 813 4891 
L 1344 4891 
z
" transform="scale(0.015625)"/>
       <path id="DejaVuSans-Oblique-4a" d="M 1069 4666 
L 1703 4666 
L 856 325 
Q 691 -522 298 -901 
Q -94 -1281 -800 -1281 
L -1050 -1281 
L -947 -750 
L -750 -750 
Q -328 -750 -109 -509 
Q 109 -269 225 325 
L 1069 4666 
z
" transform="scale(0.015625)"/>
       <path id="DejaVuSans-28" d="M 1984 4856 
Q 1566 4138 1362 3434 
Q 1159 2731 1159 2009 
Q 1159 1288 1364 580 
Q 1569 -128 1984 -844 
L 1484 -844 
Q 1016 -109 783 600 
Q 550 1309 550 2009 
Q 550 2706 781 3412 
Q 1013 4119 1484 4856 
L 1984 4856 
z
" transform="scale(0.015625)"/>
       <path id="DejaVuSans-73" d="M 2834 3397 
L 2834 2853 
Q 2591 2978 2328 3040 
Q 2066 3103 1784 3103 
Q 1356 3103 1142 2972 
Q 928 2841 928 2578 
Q 928 2378 1081 2264 
Q 1234 2150 1697 2047 
L 1894 2003 
Q 2506 1872 2764 1633 
Q 3022 1394 3022 966 
Q 3022 478 2636 193 
Q 2250 -91 1575 -91 
Q 1294 -91 989 -36 
Q 684 19 347 128 
L 347 722 
Q 666 556 975 473 
Q 1284 391 1588 391 
Q 1994 391 2212 530 
Q 2431 669 2431 922 
Q 2431 1156 2273 1281 
Q 2116 1406 1581 1522 
L 1381 1569 
Q 847 1681 609 1914 
Q 372 2147 372 2553 
Q 372 3047 722 3315 
Q 1072 3584 1716 3584 
Q 2034 3584 2315 3537 
Q 2597 3491 2834 3397 
z
" transform="scale(0.015625)"/>
       <path id="DejaVuSans-63" d="M 3122 3366 
L 3122 2828 
Q 2878 2963 2633 3030 
Q 2388 3097 2138 3097 
Q 1578 3097 1268 2742 
Q 959 2388 959 1747 
Q 959 1106 1268 751 
Q 1578 397 2138 397 
Q 2388 397 2633 464 
Q 2878 531 3122 666 
L 3122 134 
Q 2881 22 2623 -34 
Q 2366 -91 2075 -91 
Q 1284 -91 818 406 
Q 353 903 353 1747 
Q 353 2603 823 3093 
Q 1294 3584 2113 3584 
Q 2378 3584 2631 3529 
Q 2884 3475 3122 3366 
z
" transform="scale(0.015625)"/>
       <path id="DejaVuSans-68" d="M 3513 2113 
L 3513 0 
L 2938 0 
L 2938 2094 
Q 2938 2591 2744 2837 
Q 2550 3084 2163 3084 
Q 1697 3084 1428 2787 
Q 1159 2491 1159 1978 
L 1159 0 
L 581 0 
L 581 4863 
L 1159 4863 
L 1159 2956 
Q 1366 3272 1645 3428 
Q 1925 3584 2291 3584 
Q 2894 3584 3203 3211 
Q 3513 2838 3513 2113 
z
" transform="scale(0.015625)"/>
       <path id="DejaVuSans-29" d="M 513 4856 
L 1013 4856 
Q 1481 4119 1714 3412 
Q 1947 2706 1947 2009 
Q 1947 1309 1714 600 
Q 1481 -109 1013 -844 
L 513 -844 
Q 928 -128 1133 580 
Q 1338 1288 1338 2009 
Q 1338 2731 1133 3434 
Q 928 4138 513 4856 
z
" transform="scale(0.015625)"/>
      </defs>
      <use xlink:href="#DejaVuSans-46" transform="translate(0 0.578125)"/>
      <use xlink:href="#DejaVuSans-69" transform="translate(57.519531 0.578125)"/>
      <use xlink:href="#DejaVuSans-65" transform="translate(85.302734 0.578125)"/>
      <use xlink:href="#DejaVuSans-6c" transform="translate(146.826172 0.578125)"/>
      <use xlink:href="#DejaVuSans-64" transform="translate(174.609375 0.578125)"/>
      <use xlink:href="#DejaVuSans-20" transform="translate(238.085938 0.578125)"/>
      <use xlink:href="#DejaVuSans-61" transform="translate(269.873047 0.578125)"/>
      <use xlink:href="#DejaVuSans-6d" transform="translate(331.152344 0.578125)"/>
      <use xlink:href="#DejaVuSans-70" transform="translate(428.564453 0.578125)"/>
      <use xlink:href="#DejaVuSans-6c" transform="translate(492.041016 0.578125)"/>
      <use xlink:href="#DejaVuSans-69" transform="translate(519.824219 0.578125)"/>
      <use xlink:href="#DejaVuSans-74" transform="translate(547.607422 0.578125)"/>
      <use xlink:href="#DejaVuSans-75" transform="translate(586.816406 0.578125)"/>
      <use xlink:href="#DejaVuSans-64" transform="translate(650.195312 0.578125)"/>
      <use xlink:href="#DejaVuSans-65" transform="translate(713.671875 0.578125)"/>
      <use xlink:href="#DejaVuSans-20" transform="translate(775.195312 0.578125)"/>
      <use xlink:href="#DejaVuSans-7c" transform="translate(806.982422 0.578125)"/>
      <use xlink:href="#DejaVuSans-Oblique-4a" transform="translate(840.673828 0.578125)"/>
      <use xlink:href="#DejaVuSans-7c" transform="translate(870.166016 0.578125)"/>
      <use xlink:href="#DejaVuSans-20" transform="translate(903.857422 0.578125)"/>
      <use xlink:href="#DejaVuSans-28" transform="translate(935.644531 0.578125)"/>
      <use xlink:href="#DejaVuSans-73" transform="translate(974.658203 0.578125)"/>
      <use xlink:href="#DejaVuSans-63" transform="translate(1026.757812 0.578125)"/>
      <use xlink:href="#DejaVuSans-68" transform="translate(1081.738281 0.578125)"/>
      <use xlink:href="#DejaVuSans-65" transform="translate(1145.117188 0.578125)"/>
      <use xlink:href="#DejaVuSans-6d" transform="translate(1206.640625 0.578125)"/>
      <use xlink:href="#DejaVuSans-61" transform="translate(1304.052734 0.578125)"/>
      <use xlink:href="#DejaVuSans-74" transform="translate(1365.332031 0.578125)"/>
      <use xlink:href="#DejaVuSans-69" transform="translate(1404.541016 0.578125)"/>
      <use xlink:href="#DejaVuSans-63" transform="translate(1432.324219 0.578125)"/>
      <use xlink:href="#DejaVuSans-29" transform="translate(1487.304688 0.578125)"/>
     </g>
    </g>
   </g>
   <g id="matplotlib.axis_2">
    <g id="ytick_1">
     <g id="line2d_11">
      <path d="M 41.025 294.316106 
L 408.959 294.316106 
" clip-path="url(#pb927142e71)" style="fill: none; stroke: #ecf0f1; stroke-opacity: 0.8; stroke-width: 0.8; stroke-linecap: square"/>
     </g>
     <g id="line2d_12">
      <defs>
       <path id="m4535daa38b" d="M 0 0 
L -3.5 0 
" style="stroke: #000000; stroke-width: 0.8"/>
      </defs>
      <g>
       <use xlink:href="#m4535daa38b" x="41.025" y="294.316106" style="stroke: #000000; stroke-width: 0.8"/>
      </g>
     </g>
     <g id="text_7">
      <!-- 0 -->
      <g transform="translate(27.6625 298.115325) scale(0.1 -0.1)">
       <use xlink:href="#DejaVuSans-30"/>
      </g>
     </g>
    </g>
    <g id="ytick_2">
     <g id="line2d_13">
      <path d="M 41.025 257.568683 
L 408.959 257.568683 
" clip-path="url(#pb927142e71)" style="fill: none; stroke: #ecf0f1; stroke-opacity: 0.8; stroke-width: 0.8; stroke-linecap: square"/>
     </g>
     <g id="line2d_14">
      <g>
       <use xlink:href="#m4535daa38b" x="41.025" y="257.568683" style="stroke: #000000; stroke-width: 0.8"/>
      </g>
     </g>
     <g id="text_8">
      <!-- 2 -->
      <g transform="translate(27.6625 261.367902) scale(0.1 -0.1)">
       <use xlink:href="#DejaVuSans-32"/>
      </g>
     </g>
    </g>
    <g id="ytick_3">
     <g id="line2d_15">
      <path d="M 41.025 220.82126 
L 408.959 220.82126 
" clip-path="url(#pb927142e71)" style="fill: none; stroke: #ecf0f1; stroke-opacity: 0.8; stroke-width: 0.8; stroke-linecap: square"/>
     </g>
     <g id="line2d_16">
      <g>
       <use xlink:href="#m4535daa38b" x="41.025" y="220.82126" style="stroke: #000000; stroke-width: 0.8"/>
      </g>
     </g>
     <g id="text_9">
      <!-- 4 -->
      <g transform="translate(27.6625 224.620479) scale(0.1 -0.1)">
       <defs>
        <path id="DejaVuSans-34" d="M 2419 4116 
L 825 1625 
L 2419 1625 
L 2419 4116 
z
M 2253 4666 
L 3047 4666 
L 3047 1625 
L 3713 1625 
L 3713 1100 
L 3047 1100 
L 3047 0 
L 2419 0 
L 2419 1100 
L 313 1100 
L 313 1709 
L 2253 4666 
z
" transform="scale(0.015625)"/>
       </defs>
       <use xlink:href="#DejaVuSans-34"/>
      </g>
     </g>
    </g>
    <g id="ytick_4">
     <g id="line2d_17">
      <path d="M 41.025 184.073837 
L 408.959 184.073837 
" clip-path="url(#pb927142e71)" style="fill: none; stroke: #ecf0f1; stroke-opacity: 0.8; stroke-width: 0.8; stroke-linecap: square"/>
     </g>
     <g id="line2d_18">
      <g>
       <use xlink:href="#m4535daa38b" x="41.025" y="184.073837" style="stroke: #000000; stroke-width: 0.8"/>
      </g>
     </g>
     <g id="text_10">
      <!-- 6 -->
      <g transform="translate(27.6625 187.873055) scale(0.1 -0.1)">
       <defs>
        <path id="DejaVuSans-36" d="M 2113 2584 
Q 1688 2584 1439 2293 
Q 1191 2003 1191 1497 
Q 1191 994 1439 701 
Q 1688 409 2113 409 
Q 2538 409 2786 701 
Q 3034 994 3034 1497 
Q 3034 2003 2786 2293 
Q 2538 2584 2113 2584 
z
M 3366 4563 
L 3366 3988 
Q 3128 4100 2886 4159 
Q 2644 4219 2406 4219 
Q 1781 4219 1451 3797 
Q 1122 3375 1075 2522 
Q 1259 2794 1537 2939 
Q 1816 3084 2150 3084 
Q 2853 3084 3261 2657 
Q 3669 2231 3669 1497 
Q 3669 778 3244 343 
Q 2819 -91 2113 -91 
Q 1303 -91 875 529 
Q 447 1150 447 2328 
Q 447 3434 972 4092 
Q 1497 4750 2381 4750 
Q 2619 4750 2861 4703 
Q 3103 4656 3366 4563 
z
" transform="scale(0.015625)"/>
       </defs>
       <use xlink:href="#DejaVuSans-36"/>
      </g>
     </g>
    </g>
    <g id="ytick_5">
     <g id="line2d_19">
      <path d="M 41.025 147.326413 
L 408.959 147.326413 
" clip-path="url(#pb927142e71)" style="fill: none; stroke: #ecf0f1; stroke-opacity: 0.8; stroke-width: 0.8; stroke-linecap: square"/>
     </g>
     <g id="line2d_20">
      <g>
       <use xlink:href="#m4535daa38b" x="41.025" y="147.326413" style="stroke: #000000; stroke-width: 0.8"/>
      </g>
     </g>
     <g id="text_11">
      <!-- 8 -->
      <g transform="translate(27.6625 151.125632) scale(0.1 -0.1)">
       <defs>
        <path id="DejaVuSans-38" d="M 2034 2216 
Q 1584 2216 1326 1975 
Q 1069 1734 1069 1313 
Q 1069 891 1326 650 
Q 1584 409 2034 409 
Q 2484 409 2743 651 
Q 3003 894 3003 1313 
Q 3003 1734 2745 1975 
Q 2488 2216 2034 2216 
z
M 1403 2484 
Q 997 2584 770 2862 
Q 544 3141 544 3541 
Q 544 4100 942 4425 
Q 1341 4750 2034 4750 
Q 2731 4750 3128 4425 
Q 3525 4100 3525 3541 
Q 3525 3141 3298 2862 
Q 3072 2584 2669 2484 
Q 3125 2378 3379 2068 
Q 3634 1759 3634 1313 
Q 3634 634 3220 271 
Q 2806 -91 2034 -91 
Q 1263 -91 848 271 
Q 434 634 434 1313 
Q 434 1759 690 2068 
Q 947 2378 1403 2484 
z
M 1172 3481 
Q 1172 3119 1398 2916 
Q 1625 2713 2034 2713 
Q 2441 2713 2670 2916 
Q 2900 3119 2900 3481 
Q 2900 3844 2670 4047 
Q 2441 4250 2034 4250 
Q 1625 4250 1398 4047 
Q 1172 3844 1172 3481 
z
" transform="scale(0.015625)"/>
       </defs>
       <use xlink:href="#DejaVuSans-38"/>
      </g>
     </g>
    </g>
    <g id="ytick_6">
     <g id="line2d_21">
      <path d="M 41.025 110.57899 
L 408.959 110.57899 
" clip-path="url(#pb927142e71)" style="fill: none; stroke: #ecf0f1; stroke-opacity: 0.8; stroke-width: 0.8; stroke-linecap: square"/>
     </g>
     <g id="line2d_22">
      <g>
       <use xlink:href="#m4535daa38b" x="41.025" y="110.57899" style="stroke: #000000; stroke-width: 0.8"/>
      </g>
     </g>
     <g id="text_12">
      <!-- 10 -->
      <g transform="translate(21.3 114.378209) scale(0.1 -0.1)">
       <use xlink:href="#DejaVuSans-31"/>
       <use xlink:href="#DejaVuSans-30" transform="translate(63.623047 0)"/>
      </g>
     </g>
    </g>
    <g id="ytick_7">
     <g id="line2d_23">
      <path d="M 41.025 73.831567 
L 408.959 73.831567 
" clip-path="url(#pb927142e71)" style="fill: none; stroke: #ecf0f1; stroke-opacity: 0.8; stroke-width: 0.8; stroke-linecap: square"/>
     </g>
     <g id="line2d_24">
      <g>
       <use xlink:href="#m4535daa38b" x="41.025" y="73.831567" style="stroke: #000000; stroke-width: 0.8"/>
      </g>
     </g>
     <g id="text_13">
      <!-- 12 -->
      <g transform="translate(21.3 77.630786) scale(0.1 -0.1)">
       <use xlink:href="#DejaVuSans-31"/>
       <use xlink:href="#DejaVuSans-32" transform="translate(63.623047 0)"/>
      </g>
     </g>
    </g>
    <g id="text_14">
     <!-- $V(|J|)$ -->
     <g transform="translate(14.9 200.316) rotate(-90) scale(0.1 -0.1)">
      <defs>
       <path id="DejaVuSans-Oblique-56" d="M 1319 0 
L 500 4666 
L 1119 4666 
L 1797 653 
L 4063 4666 
L 4750 4666 
L 2053 0 
L 1319 0 
z
" transform="scale(0.015625)"/>
      </defs>
      <use xlink:href="#DejaVuSans-Oblique-56" transform="translate(0 0.578125)"/>
      <use xlink:href="#DejaVuSans-28" transform="translate(68.408203 0.578125)"/>
      <use xlink:href="#DejaVuSans-7c" transform="translate(107.421875 0.578125)"/>
      <use xlink:href="#DejaVuSans-Oblique-4a" transform="translate(141.113281 0.578125)"/>
      <use xlink:href="#DejaVuSans-7c" transform="translate(170.605469 0.578125)"/>
      <use xlink:href="#DejaVuSans-29" transform="translate(204.296875 0.578125)"/>
     </g>
    </g>
   </g>
   <g id="line2d_25">
    <path d="M 57.749273 81.916 
L 61.099711 105.225118 
L 64.45015 126.749 
L 67.242182 143.380015 
L 70.034214 158.872991 
L 72.826246 173.272865 
L 75.618279 186.623766 
L 78.410311 198.969026 
L 81.202343 210.351172 
L 83.994375 220.811927 
L 86.786407 230.392216 
L 89.57844 239.132157 
L 92.370472 247.071069 
L 95.162504 254.247467 
L 97.954536 260.699063 
L 100.188162 265.363314 
L 102.421788 269.605858 
L 104.655413 273.444896 
L 106.889039 276.898298 
L 109.122665 279.983607 
L 111.35629 282.718037 
L 113.589916 285.118473 
L 115.823542 287.20147 
L 118.057168 288.983258 
L 120.290793 290.479734 
L 122.524419 291.70647 
L 124.758045 292.678707 
L 126.991671 293.411359 
L 129.225296 293.919009 
L 131.458922 294.215914 
L 133.692548 294.316 
L 136.48458 294.185017 
L 139.276612 293.793567 
L 142.068644 293.166683 
L 144.860677 292.328599 
L 148.211115 291.077047 
L 151.561554 289.594025 
L 155.470399 287.620949 
L 159.93765 285.114467 
L 165.521715 281.719362 
L 177.24825 274.230148 
L 184.507533 269.746256 
L 190.091598 266.553375 
L 195.117256 263.950516 
L 199.584507 261.898148 
L 203.493352 260.331014 
L 207.402197 258.996812 
L 211.311042 257.910956 
L 215.219887 257.085775 
L 218.570326 256.593046 
L 221.920765 256.3027 
L 225.271203 256.217092 
L 228.621642 256.336916 
L 231.97208 256.661202 
L 235.322519 257.187314 
L 238.672958 257.910956 
L 242.581803 258.996812 
L 246.490648 260.331014 
L 250.399493 261.898148 
L 254.866744 263.950516 
L 259.333996 266.250326 
L 264.359654 269.086116 
L 270.502124 272.821427 
L 281.670253 279.954075 
L 288.929537 284.45478 
L 293.955195 287.320826 
L 297.86404 289.326994 
L 301.772885 291.077047 
L 305.123323 292.328599 
L 307.915356 293.166683 
L 310.707388 293.793567 
L 313.49942 294.185017 
L 316.291452 294.316 
L 318.525078 294.215914 
L 320.758704 293.919009 
L 322.992329 293.411359 
L 325.225955 292.678707 
L 327.459581 291.70647 
L 329.693207 290.479734 
L 331.926832 288.983258 
L 334.160458 287.20147 
L 336.394084 285.118473 
L 338.62771 282.718037 
L 340.861335 279.983607 
L 343.094961 276.898298 
L 345.328587 273.444896 
L 347.562212 269.605858 
L 349.795838 265.363314 
L 352.029464 260.699063 
L 354.26309 255.594577 
L 356.496715 250.031 
L 359.288748 242.401671 
L 362.08078 233.986814 
L 364.872812 224.747434 
L 367.664844 214.643731 
L 370.456876 203.635104 
L 373.248908 191.680148 
L 376.040941 178.736657 
L 378.832973 164.761624 
L 381.625005 149.711236 
L 384.417037 133.54088 
L 387.209069 116.20514 
L 390.001102 97.657798 
L 392.234727 81.916 
L 392.234727 81.916 
" clip-path="url(#pb927142e71)" style="fill: none; stroke: #9b59b6; stroke-width: 2.5; stroke-linecap: square"/>
   </g>
   <g id="line2d_26">
    <path d="M 133.768694 304.936 
L 133.768694 71.296 
" clip-path="url(#pb927142e71)" style="fill: none; stroke-dasharray: 3.7,1.6; stroke-dashoffset: 0; stroke: #95a5a6"/>
   </g>
   <g id="line2d_27">
    <path d="M 316.215306 304.936 
L 316.215306 71.296 
" clip-path="url(#pb927142e71)" style="fill: none; stroke-dasharray: 3.7,1.6; stroke-dashoffset: 0; stroke: #95a5a6"/>
   </g>
   <g id="patch_3">
    <path d="M 41.025 304.936 
L 41.025 71.296 
" style="fill: none; stroke: #000000; stroke-width: 0.8; stroke-linejoin: miter; stroke-linecap: square"/>
   </g>
   <g id="patch_4">
    <path d="M 408.959 304.936 
L 408.959 71.296 
" style="fill: none; stroke: #000000; stroke-width: 0.8; stroke-linejoin: miter; stroke-linecap: square"/>
   </g>
   <g id="patch_5">
    <path d="M 41.025 304.936 
L 408.959 304.936 
" style="fill: none; stroke: #000000; stroke-width: 0.8; stroke-linejoin: miter; stroke-linecap: square"/>
   </g>
   <g id="patch_6">
    <path d="M 41.025 71.296 
L 408.959 71.296 
" style="fill: none; stroke: #000000; stroke-width: 0.8; stroke-linejoin: miter; stroke-linecap: square"/>
   </g>
   <g id="text_15">
    <!-- vacuum -->
    <g style="fill: #95a5a6" transform="translate(117.784319 262.45609) scale(0.08 -0.08)">
     <defs>
      <path id="DejaVuSans-76" d="M 191 3500 
L 800 3500 
L 1894 563 
L 2988 3500 
L 3597 3500 
L 2284 0 
L 1503 0 
L 191 3500 
z
" transform="scale(0.015625)"/>
     </defs>
     <use xlink:href="#DejaVuSans-76"/>
     <use xlink:href="#DejaVuSans-61" transform="translate(59.179688 0)"/>
     <use xlink:href="#DejaVuSans-63" transform="translate(120.458984 0)"/>
     <use xlink:href="#DejaVuSans-75" transform="translate(175.439453 0)"/>
     <use xlink:href="#DejaVuSans-75" transform="translate(238.818359 0)"/>
     <use xlink:href="#DejaVuSans-6d" transform="translate(302.197266 0)"/>
    </g>
   </g>
   <g id="text_16">
    <!-- vacuum -->
    <g style="fill: #95a5a6" transform="translate(300.230931 262.45609) scale(0.08 -0.08)">
     <use xlink:href="#DejaVuSans-76"/>
     <use xlink:href="#DejaVuSans-61" transform="translate(59.179688 0)"/>
     <use xlink:href="#DejaVuSans-63" transform="translate(120.458984 0)"/>
     <use xlink:href="#DejaVuSans-75" transform="translate(175.439453 0)"/>
     <use xlink:href="#DejaVuSans-75" transform="translate(238.818359 0)"/>
     <use xlink:href="#DejaVuSans-6d" transform="translate(302.197266 0)"/>
    </g>
   </g>
   <g id="text_17">
    <!-- Mexican Hat Potential -->
    <g transform="translate(159.59575 61.296) scale(0.12 -0.12)">
     <defs>
      <path id="DejaVuSans-4d" d="M 628 4666 
L 1569 4666 
L 2759 1491 
L 3956 4666 
L 4897 4666 
L 4897 0 
L 4281 0 
L 4281 4097 
L 3078 897 
L 2444 897 
L 1241 4097 
L 1241 0 
L 628 0 
L 628 4666 
z
" transform="scale(0.015625)"/>
      <path id="DejaVuSans-78" d="M 3513 3500 
L 2247 1797 
L 3578 0 
L 2900 0 
L 1881 1375 
L 863 0 
L 184 0 
L 1544 1831 
L 300 3500 
L 978 3500 
L 1906 2253 
L 2834 3500 
L 3513 3500 
z
" transform="scale(0.015625)"/>
      <path id="DejaVuSans-6e" d="M 3513 2113 
L 3513 0 
L 2938 0 
L 2938 2094 
Q 2938 2591 2744 2837 
Q 2550 3084 2163 3084 
Q 1697 3084 1428 2787 
Q 1159 2491 1159 1978 
L 1159 0 
L 581 0 
L 581 3500 
L 1159 3500 
L 1159 2956 
Q 1366 3272 1645 3428 
Q 1925 3584 2291 3584 
Q 2894 3584 3203 3211 
Q 3513 2838 3513 2113 
z
" transform="scale(0.015625)"/>
      <path id="DejaVuSans-48" d="M 628 4666 
L 1259 4666 
L 1259 2753 
L 3553 2753 
L 3553 4666 
L 4184 4666 
L 4184 0 
L 3553 0 
L 3553 2222 
L 1259 2222 
L 1259 0 
L 628 0 
L 628 4666 
z
" transform="scale(0.015625)"/>
      <path id="DejaVuSans-50" d="M 1259 4147 
L 1259 2394 
L 2053 2394 
Q 2494 2394 2734 2622 
Q 2975 2850 2975 3272 
Q 2975 3691 2734 3919 
Q 2494 4147 2053 4147 
L 1259 4147 
z
M 628 4666 
L 2053 4666 
Q 2838 4666 3239 4311 
Q 3641 3956 3641 3272 
Q 3641 2581 3239 2228 
Q 2838 1875 2053 1875 
L 1259 1875 
L 1259 0 
L 628 0 
L 628 4666 
z
" transform="scale(0.015625)"/>
      <path id="DejaVuSans-6f" d="M 1959 3097 
Q 1497 3097 1228 2736 
Q 959 2375 959 1747 
Q 959 1119 1226 758 
Q 1494 397 1959 397 
Q 2419 397 2687 759 
Q 2956 1122 2956 1747 
Q 2956 2369 2687 2733 
Q 2419 3097 1959 3097 
z
M 1959 3584 
Q 2709 3584 3137 3096 
Q 3566 2609 3566 1747 
Q 3566 888 3137 398 
Q 2709 -91 1959 -91 
Q 1206 -91 779 398 
Q 353 888 353 1747 
Q 353 2609 779 3096 
Q 1206 3584 1959 3584 
z
" transform="scale(0.015625)"/>
     </defs>
     <use xlink:href="#DejaVuSans-4d"/>
     <use xlink:href="#DejaVuSans-65" transform="translate(86.279297 0)"/>
     <use xlink:href="#DejaVuSans-78" transform="translate(146.052734 0)"/>
     <use xlink:href="#DejaVuSans-69" transform="translate(205.232422 0)"/>
     <use xlink:href="#DejaVuSans-63" transform="translate(233.015625 0)"/>
     <use xlink:href="#DejaVuSans-61" transform="translate(287.996094 0)"/>
     <use xlink:href="#DejaVuSans-6e" transform="translate(349.275391 0)"/>
     <use xlink:href="#DejaVuSans-20" transform="translate(412.654297 0)"/>
     <use xlink:href="#DejaVuSans-48" transform="translate(444.441406 0)"/>
     <use xlink:href="#DejaVuSans-61" transform="translate(519.636719 0)"/>
     <use xlink:href="#DejaVuSans-74" transform="translate(580.916016 0)"/>
     <use xlink:href="#DejaVuSans-20" transform="translate(620.125 0)"/>
     <use xlink:href="#DejaVuSans-50" transform="translate(651.912109 0)"/>
     <use xlink:href="#DejaVuSans-6f" transform="translate(708.589844 0)"/>
     <use xlink:href="#DejaVuSans-74" transform="translate(769.771484 0)"/>
     <use xlink:href="#DejaVuSans-65" transform="translate(808.980469 0)"/>
     <use xlink:href="#DejaVuSans-6e" transform="translate(870.503906 0)"/>
     <use xlink:href="#DejaVuSans-74" transform="translate(933.882812 0)"/>
     <use xlink:href="#DejaVuSans-69" transform="translate(973.091797 0)"/>
     <use xlink:href="#DejaVuSans-61" transform="translate(1000.875 0)"/>
     <use xlink:href="#DejaVuSans-6c" transform="translate(1062.154297 0)"/>
    </g>
   </g>
  </g>
  <g id="axes_2">
   <g id="patch_7">
    <path d="M 591.738 267.766 
C 612.861427 267.766 633.122537 259.373574 648.059055 244.437055 
C 662.995574 229.500537 671.388 209.239427 671.388 188.116 
C 671.388 166.992573 662.995574 146.731463 648.059055 131.794945 
C 633.122537 116.858426 612.861427 108.466 591.738 108.466 
C 570.614573 108.466 550.353463 116.858426 535.416945 131.794945 
C 520.480426 146.731463 512.088 166.992573 512.088 188.116 
C 512.088 209.239427 520.480426 229.500537 535.416945 244.437055 
C 550.353463 259.373574 570.614573 267.766 591.738 267.766 
z
" clip-path="url(#pcc2997ccef)" style="fill: #ecf0f1; opacity: 0.25; stroke: #95a5a6; stroke-width: 1.5; stroke-linejoin: miter"/>
   </g>
   <g id="PathCollection_1">
    <defs>
     <path id="m1d90f083dd" d="M 0 4.472136 
C 1.186024 4.472136 2.323632 4.000923 3.162278 3.162278 
C 4.000923 2.323632 4.472136 1.186024 4.472136 0 
C 4.472136 -1.186024 4.000923 -2.323632 3.162278 -3.162278 
C 2.323632 -4.000923 1.186024 -4.472136 0 -4.472136 
C -1.186024 -4.472136 -2.323632 -4.000923 -3.162278 -3.162278 
C -4.000923 -2.323632 -4.472136 -1.186024 -4.472136 0 
C -4.472136 1.186024 -4.000923 2.323632 -3.162278 3.162278 
C -2.323632 4.000923 -1.186024 4.472136 0 4.472136 
z
" style="stroke: #95a5a6"/>
    </defs>
    <g clip-path="url(#pcc2997ccef)">
     <use xlink:href="#m1d90f083dd" x="591.738" y="188.116" style="fill: #95a5a6; stroke: #95a5a6"/>
    </g>
   </g>
   <g id="PathCollection_2">
    <defs>
     <path id="m62b55f4864" d="M 0 5.477226 
C 1.452577 5.477226 2.845856 4.900111 3.872983 3.872983 
C 4.900111 2.845856 5.477226 1.452577 5.477226 0 
C 5.477226 -1.452577 4.900111 -2.845856 3.872983 -3.872983 
C 2.845856 -4.900111 1.452577 -5.477226 0 -5.477226 
C -1.452577 -5.477226 -2.845856 -4.900111 -3.872983 -3.872983 
C -4.900111 -2.845856 -5.477226 -1.452577 -5.477226 0 
C -5.477226 1.452577 -4.900111 2.845856 -3.872983 3.872983 
C -2.845856 4.900111 -1.452577 5.477226 0 5.477226 
z
" style="stroke: #9b59b6"/>
    </defs>
    <g clip-path="url(#pcc2997ccef)">
     <use xlink:href="#m62b55f4864" x="652.75344" y="136.917967" style="fill: #9b59b6; stroke: #9b59b6"/>
    </g>
   </g>
   <g id="patch_8">
    <path d="M 485.538 298.033 
L 697.938 298.033 
Q 699 298.033 699 296.971 
L 699 257.146 
Q 699 256.084 697.938 256.084 
L 485.538 256.084 
Q 484.476 256.084 484.476 257.146 
L 484.476 296.971 
Q 484.476 298.033 485.538 298.033 
z
" clip-path="url(#pcc2997ccef)" style="fill: #ffffff; stroke: #ecf0f1; stroke-linejoin: miter"/>
   </g>
   <g id="text_18">
    <!-- symmetric -->
    <g style="fill: #95a5a6" transform="translate(570.509875 192.43275) scale(0.08 -0.08)">
     <defs>
      <path id="DejaVuSans-79" d="M 2059 -325 
Q 1816 -950 1584 -1140 
Q 1353 -1331 966 -1331 
L 506 -1331 
L 506 -850 
L 844 -850 
Q 1081 -850 1212 -737 
Q 1344 -625 1503 -206 
L 1606 56 
L 191 3500 
L 800 3500 
L 1894 763 
L 2988 3500 
L 3597 3500 
L 2059 -325 
z
" transform="scale(0.015625)"/>
      <path id="DejaVuSans-72" d="M 2631 2963 
Q 2534 3019 2420 3045 
Q 2306 3072 2169 3072 
Q 1681 3072 1420 2755 
Q 1159 2438 1159 1844 
L 1159 0 
L 581 0 
L 581 3500 
L 1159 3500 
L 1159 2956 
Q 1341 3275 1631 3429 
Q 1922 3584 2338 3584 
Q 2397 3584 2469 3576 
Q 2541 3569 2628 3553 
L 2631 2963 
z
" transform="scale(0.015625)"/>
     </defs>
     <use xlink:href="#DejaVuSans-73"/>
     <use xlink:href="#DejaVuSans-79" transform="translate(52.099609 0)"/>
     <use xlink:href="#DejaVuSans-6d" transform="translate(111.279297 0)"/>
     <use xlink:href="#DejaVuSans-6d" transform="translate(208.691406 0)"/>
     <use xlink:href="#DejaVuSans-65" transform="translate(306.103516 0)"/>
     <use xlink:href="#DejaVuSans-74" transform="translate(367.626953 0)"/>
     <use xlink:href="#DejaVuSans-72" transform="translate(406.835938 0)"/>
     <use xlink:href="#DejaVuSans-69" transform="translate(447.949219 0)"/>
     <use xlink:href="#DejaVuSans-63" transform="translate(475.732422 0)"/>
    </g>
    <!-- vacuum -->
    <g style="fill: #95a5a6" transform="translate(575.753625 201.391) scale(0.08 -0.08)">
     <use xlink:href="#DejaVuSans-76"/>
     <use xlink:href="#DejaVuSans-61" transform="translate(59.179688 0)"/>
     <use xlink:href="#DejaVuSans-63" transform="translate(120.458984 0)"/>
     <use xlink:href="#DejaVuSans-75" transform="translate(175.439453 0)"/>
     <use xlink:href="#DejaVuSans-75" transform="translate(238.818359 0)"/>
     <use xlink:href="#DejaVuSans-6d" transform="translate(302.197266 0)"/>
    </g>
   </g>
   <g id="patch_9">
    <path d="M 593.2686 186.831674 
Q 622.246765 162.516107 649.08377 139.997186 
" style="fill: none; stroke: #9b59b6; stroke-width: 2.5; stroke-linecap: round"/>
    <path d="M 644.734017 141.036247 
L 649.08377 139.997186 
L 647.305167 144.100425 
" style="fill: none; stroke: #9b59b6; stroke-width: 2.5; stroke-linecap: round"/>
   </g>
   <g id="text_19">
    <!-- chosen vacuum -->
    <g style="fill: #9b59b6" transform="translate(660.71844 134.262967) scale(0.08 -0.08)">
     <use xlink:href="#DejaVuSans-63"/>
     <use xlink:href="#DejaVuSans-68" transform="translate(54.980469 0)"/>
     <use xlink:href="#DejaVuSans-6f" transform="translate(118.359375 0)"/>
     <use xlink:href="#DejaVuSans-73" transform="translate(179.541016 0)"/>
     <use xlink:href="#DejaVuSans-65" transform="translate(231.640625 0)"/>
     <use xlink:href="#DejaVuSans-6e" transform="translate(293.164062 0)"/>
     <use xlink:href="#DejaVuSans-20" transform="translate(356.542969 0)"/>
     <use xlink:href="#DejaVuSans-76" transform="translate(388.330078 0)"/>
     <use xlink:href="#DejaVuSans-61" transform="translate(447.509766 0)"/>
     <use xlink:href="#DejaVuSans-63" transform="translate(508.789062 0)"/>
     <use xlink:href="#DejaVuSans-75" transform="translate(563.769531 0)"/>
     <use xlink:href="#DejaVuSans-75" transform="translate(627.148438 0)"/>
     <use xlink:href="#DejaVuSans-6d" transform="translate(690.527344 0)"/>
    </g>
   </g>
   <g id="text_20">
    <!-- Fluctuations around the chosen vacuum -->
    <g style="fill: #2c3e50" transform="translate(511.333625 275.052375) scale(0.08 -0.08)">
     <use xlink:href="#DejaVuSans-46"/>
     <use xlink:href="#DejaVuSans-6c" transform="translate(57.519531 0)"/>
     <use xlink:href="#DejaVuSans-75" transform="translate(85.302734 0)"/>
     <use xlink:href="#DejaVuSans-63" transform="translate(148.681641 0)"/>
     <use xlink:href="#DejaVuSans-74" transform="translate(203.662109 0)"/>
     <use xlink:href="#DejaVuSans-75" transform="translate(242.871094 0)"/>
     <use xlink:href="#DejaVuSans-61" transform="translate(306.25 0)"/>
     <use xlink:href="#DejaVuSans-74" transform="translate(367.529297 0)"/>
     <use xlink:href="#DejaVuSans-69" transform="translate(406.738281 0)"/>
     <use xlink:href="#DejaVuSans-6f" transform="translate(434.521484 0)"/>
     <use xlink:href="#DejaVuSans-6e" transform="translate(495.703125 0)"/>
     <use xlink:href="#DejaVuSans-73" transform="translate(559.082031 0)"/>
     <use xlink:href="#DejaVuSans-20" transform="translate(611.181641 0)"/>
     <use xlink:href="#DejaVuSans-61" transform="translate(642.96875 0)"/>
     <use xlink:href="#DejaVuSans-72" transform="translate(704.248047 0)"/>
     <use xlink:href="#DejaVuSans-6f" transform="translate(743.111328 0)"/>
     <use xlink:href="#DejaVuSans-75" transform="translate(804.292969 0)"/>
     <use xlink:href="#DejaVuSans-6e" transform="translate(867.671875 0)"/>
     <use xlink:href="#DejaVuSans-64" transform="translate(931.050781 0)"/>
     <use xlink:href="#DejaVuSans-20" transform="translate(994.527344 0)"/>
     <use xlink:href="#DejaVuSans-74" transform="translate(1026.314453 0)"/>
     <use xlink:href="#DejaVuSans-68" transform="translate(1065.523438 0)"/>
     <use xlink:href="#DejaVuSans-65" transform="translate(1128.902344 0)"/>
     <use xlink:href="#DejaVuSans-20" transform="translate(1190.425781 0)"/>
     <use xlink:href="#DejaVuSans-63" transform="translate(1222.212891 0)"/>
     <use xlink:href="#DejaVuSans-68" transform="translate(1277.193359 0)"/>
     <use xlink:href="#DejaVuSans-6f" transform="translate(1340.572266 0)"/>
     <use xlink:href="#DejaVuSans-73" transform="translate(1401.753906 0)"/>
     <use xlink:href="#DejaVuSans-65" transform="translate(1453.853516 0)"/>
     <use xlink:href="#DejaVuSans-6e" transform="translate(1515.376953 0)"/>
     <use xlink:href="#DejaVuSans-20" transform="translate(1578.755859 0)"/>
     <use xlink:href="#DejaVuSans-76" transform="translate(1610.542969 0)"/>
     <use xlink:href="#DejaVuSans-61" transform="translate(1669.722656 0)"/>
     <use xlink:href="#DejaVuSans-63" transform="translate(1731.001953 0)"/>
     <use xlink:href="#DejaVuSans-75" transform="translate(1785.982422 0)"/>
     <use xlink:href="#DejaVuSans-75" transform="translate(1849.361328 0)"/>
     <use xlink:href="#DejaVuSans-6d" transform="translate(1912.740234 0)"/>
    </g>
    <!-- appear as massive excitations (W/Z, Higgs) -->
    <g style="fill: #2c3e50" transform="translate(504.823625 284.010625) scale(0.08 -0.08)">
     <defs>
      <path id="DejaVuSans-57" d="M 213 4666 
L 850 4666 
L 1831 722 
L 2809 4666 
L 3519 4666 
L 4500 722 
L 5478 4666 
L 6119 4666 
L 4947 0 
L 4153 0 
L 3169 4050 
L 2175 0 
L 1381 0 
L 213 4666 
z
" transform="scale(0.015625)"/>
      <path id="DejaVuSans-2f" d="M 1625 4666 
L 2156 4666 
L 531 -594 
L 0 -594 
L 1625 4666 
z
" transform="scale(0.015625)"/>
      <path id="DejaVuSans-5a" d="M 359 4666 
L 4025 4666 
L 4025 4184 
L 1075 531 
L 4097 531 
L 4097 0 
L 288 0 
L 288 481 
L 3238 4134 
L 359 4134 
L 359 4666 
z
" transform="scale(0.015625)"/>
      <path id="DejaVuSans-2c" d="M 750 794 
L 1409 794 
L 1409 256 
L 897 -744 
L 494 -744 
L 750 256 
L 750 794 
z
" transform="scale(0.015625)"/>
      <path id="DejaVuSans-67" d="M 2906 1791 
Q 2906 2416 2648 2759 
Q 2391 3103 1925 3103 
Q 1463 3103 1205 2759 
Q 947 2416 947 1791 
Q 947 1169 1205 825 
Q 1463 481 1925 481 
Q 2391 481 2648 825 
Q 2906 1169 2906 1791 
z
M 3481 434 
Q 3481 -459 3084 -895 
Q 2688 -1331 1869 -1331 
Q 1566 -1331 1297 -1286 
Q 1028 -1241 775 -1147 
L 775 -588 
Q 1028 -725 1275 -790 
Q 1522 -856 1778 -856 
Q 2344 -856 2625 -561 
Q 2906 -266 2906 331 
L 2906 616 
Q 2728 306 2450 153 
Q 2172 0 1784 0 
Q 1141 0 747 490 
Q 353 981 353 1791 
Q 353 2603 747 3093 
Q 1141 3584 1784 3584 
Q 2172 3584 2450 3431 
Q 2728 3278 2906 2969 
L 2906 3500 
L 3481 3500 
L 3481 434 
z
" transform="scale(0.015625)"/>
     </defs>
     <use xlink:href="#DejaVuSans-61"/>
     <use xlink:href="#DejaVuSans-70" transform="translate(61.279297 0)"/>
     <use xlink:href="#DejaVuSans-70" transform="translate(124.755859 0)"/>
     <use xlink:href="#DejaVuSans-65" transform="translate(188.232422 0)"/>
     <use xlink:href="#DejaVuSans-61" transform="translate(249.755859 0)"/>
     <use xlink:href="#DejaVuSans-72" transform="translate(311.035156 0)"/>
     <use xlink:href="#DejaVuSans-20" transform="translate(352.148438 0)"/>
     <use xlink:href="#DejaVuSans-61" transform="translate(383.935547 0)"/>
     <use xlink:href="#DejaVuSans-73" transform="translate(445.214844 0)"/>
     <use xlink:href="#DejaVuSans-20" transform="translate(497.314453 0)"/>
     <use xlink:href="#DejaVuSans-6d" transform="translate(529.101562 0)"/>
     <use xlink:href="#DejaVuSans-61" transform="translate(626.513672 0)"/>
     <use xlink:href="#DejaVuSans-73" transform="translate(687.792969 0)"/>
     <use xlink:href="#DejaVuSans-73" transform="translate(739.892578 0)"/>
     <use xlink:href="#DejaVuSans-69" transform="translate(791.992188 0)"/>
     <use xlink:href="#DejaVuSans-76" transform="translate(819.775391 0)"/>
     <use xlink:href="#DejaVuSans-65" transform="translate(878.955078 0)"/>
     <use xlink:href="#DejaVuSans-20" transform="translate(940.478516 0)"/>
     <use xlink:href="#DejaVuSans-65" transform="translate(972.265625 0)"/>
     <use xlink:href="#DejaVuSans-78" transform="translate(1032.039062 0)"/>
     <use xlink:href="#DejaVuSans-63" transform="translate(1089.46875 0)"/>
     <use xlink:href="#DejaVuSans-69" transform="translate(1144.449219 0)"/>
     <use xlink:href="#DejaVuSans-74" transform="translate(1172.232422 0)"/>
     <use xlink:href="#DejaVuSans-61" transform="translate(1211.441406 0)"/>
     <use xlink:href="#DejaVuSans-74" transform="translate(1272.720703 0)"/>
     <use xlink:href="#DejaVuSans-69" transform="translate(1311.929688 0)"/>
     <use xlink:href="#DejaVuSans-6f" transform="translate(1339.712891 0)"/>
     <use xlink:href="#DejaVuSans-6e" transform="translate(1400.894531 0)"/>
     <use xlink:href="#DejaVuSans-73" transform="translate(1464.273438 0)"/>
     <use xlink:href="#DejaVuSans-20" transform="translate(1516.373047 0)"/>
     <use xlink:href="#DejaVuSans-28" transform="translate(1548.160156 0)"/>
     <use xlink:href="#DejaVuSans-57" transform="translate(1587.173828 0)"/>
     <use xlink:href="#DejaVuSans-2f" transform="translate(1686.050781 0)"/>
     <use xlink:href="#DejaVuSans-5a" transform="translate(1719.742188 0)"/>
     <use xlink:href="#DejaVuSans-2c" transform="translate(1788.248047 0)"/>
     <use xlink:href="#DejaVuSans-20" transform="translate(1820.035156 0)"/>
     <use xlink:href="#DejaVuSans-48" transform="translate(1851.822266 0)"/>
     <use xlink:href="#DejaVuSans-69" transform="translate(1927.017578 0)"/>
     <use xlink:href="#DejaVuSans-67" transform="translate(1954.800781 0)"/>
     <use xlink:href="#DejaVuSans-67" transform="translate(2018.277344 0)"/>
     <use xlink:href="#DejaVuSans-73" transform="translate(2081.753906 0)"/>
     <use xlink:href="#DejaVuSans-29" transform="translate(2133.853516 0)"/>
    </g>
   </g>
   <g id="text_21">
    <!-- Symmetry Breaking → Mass -->
    <g transform="translate(508.203938 61.296) scale(0.12 -0.12)">
     <defs>
      <path id="DejaVuSans-53" d="M 3425 4513 
L 3425 3897 
Q 3066 4069 2747 4153 
Q 2428 4238 2131 4238 
Q 1616 4238 1336 4038 
Q 1056 3838 1056 3469 
Q 1056 3159 1242 3001 
Q 1428 2844 1947 2747 
L 2328 2669 
Q 3034 2534 3370 2195 
Q 3706 1856 3706 1288 
Q 3706 609 3251 259 
Q 2797 -91 1919 -91 
Q 1588 -91 1214 -16 
Q 841 59 441 206 
L 441 856 
Q 825 641 1194 531 
Q 1563 422 1919 422 
Q 2459 422 2753 634 
Q 3047 847 3047 1241 
Q 3047 1584 2836 1778 
Q 2625 1972 2144 2069 
L 1759 2144 
Q 1053 2284 737 2584 
Q 422 2884 422 3419 
Q 422 4038 858 4394 
Q 1294 4750 2059 4750 
Q 2388 4750 2728 4690 
Q 3069 4631 3425 4513 
z
" transform="scale(0.015625)"/>
      <path id="DejaVuSans-42" d="M 1259 2228 
L 1259 519 
L 2272 519 
Q 2781 519 3026 730 
Q 3272 941 3272 1375 
Q 3272 1813 3026 2020 
Q 2781 2228 2272 2228 
L 1259 2228 
z
M 1259 4147 
L 1259 2741 
L 2194 2741 
Q 2656 2741 2882 2914 
Q 3109 3088 3109 3444 
Q 3109 3797 2882 3972 
Q 2656 4147 2194 4147 
L 1259 4147 
z
M 628 4666 
L 2241 4666 
Q 2963 4666 3353 4366 
Q 3744 4066 3744 3513 
Q 3744 3084 3544 2831 
Q 3344 2578 2956 2516 
Q 3422 2416 3680 2098 
Q 3938 1781 3938 1306 
Q 3938 681 3513 340 
Q 3088 0 2303 0 
L 628 0 
L 628 4666 
z
" transform="scale(0.015625)"/>
      <path id="DejaVuSans-6b" d="M 581 4863 
L 1159 4863 
L 1159 1991 
L 2875 3500 
L 3609 3500 
L 1753 1863 
L 3688 0 
L 2938 0 
L 1159 1709 
L 1159 0 
L 581 0 
L 581 4863 
z
" transform="scale(0.015625)"/>
      <path id="DejaVuSans-2192" d="M 5050 2147 
L 5050 1866 
L 3822 638 
L 3447 1013 
L 4175 1741 
L 366 1741 
L 366 2272 
L 4175 2272 
L 3447 3000 
L 3822 3375 
L 5050 2147 
z
" transform="scale(0.015625)"/>
     </defs>
     <use xlink:href="#DejaVuSans-53"/>
     <use xlink:href="#DejaVuSans-79" transform="translate(63.476562 0)"/>
     <use xlink:href="#DejaVuSans-6d" transform="translate(122.65625 0)"/>
     <use xlink:href="#DejaVuSans-6d" transform="translate(220.068359 0)"/>
     <use xlink:href="#DejaVuSans-65" transform="translate(317.480469 0)"/>
     <use xlink:href="#DejaVuSans-74" transform="translate(379.003906 0)"/>
     <use xlink:href="#DejaVuSans-72" transform="translate(418.212891 0)"/>
     <use xlink:href="#DejaVuSans-79" transform="translate(459.326172 0)"/>
     <use xlink:href="#DejaVuSans-20" transform="translate(518.505859 0)"/>
     <use xlink:href="#DejaVuSans-42" transform="translate(550.292969 0)"/>
     <use xlink:href="#DejaVuSans-72" transform="translate(618.896484 0)"/>
     <use xlink:href="#DejaVuSans-65" transform="translate(657.759766 0)"/>
     <use xlink:href="#DejaVuSans-61" transform="translate(719.283203 0)"/>
     <use xlink:href="#DejaVuSans-6b" transform="translate(780.5625 0)"/>
     <use xlink:href="#DejaVuSans-69" transform="translate(838.472656 0)"/>
     <use xlink:href="#DejaVuSans-6e" transform="translate(866.255859 0)"/>
     <use xlink:href="#DejaVuSans-67" transform="translate(929.634766 0)"/>
     <use xlink:href="#DejaVuSans-20" transform="translate(993.111328 0)"/>
     <use xlink:href="#DejaVuSans-2192" transform="translate(1024.898438 0)"/>
     <use xlink:href="#DejaVuSans-20" transform="translate(1108.6875 0)"/>
     <use xlink:href="#DejaVuSans-4d" transform="translate(1140.474609 0)"/>
     <use xlink:href="#DejaVuSans-61" transform="translate(1226.753906 0)"/>
     <use xlink:href="#DejaVuSans-73" transform="translate(1288.033203 0)"/>
     <use xlink:href="#DejaVuSans-73" transform="translate(1340.132812 0)"/>
    </g>
   </g>
  </g>
  <g id="text_22">
   <!-- Higgs Mechanism (schematic) -->
   <g transform="translate(285.197656 17.837812) scale(0.14 -0.14)">
    <use xlink:href="#DejaVuSans-48"/>
    <use xlink:href="#DejaVuSans-69" transform="translate(75.195312 0)"/>
    <use xlink:href="#DejaVuSans-67" transform="translate(102.978516 0)"/>
    <use xlink:href="#DejaVuSans-67" transform="translate(166.455078 0)"/>
    <use xlink:href="#DejaVuSans-73" transform="translate(229.931641 0)"/>
    <use xlink:href="#DejaVuSans-20" transform="translate(282.03125 0)"/>
    <use xlink:href="#DejaVuSans-4d" transform="translate(313.818359 0)"/>
    <use xlink:href="#DejaVuSans-65" transform="translate(400.097656 0)"/>
    <use xlink:href="#DejaVuSans-63" transform="translate(461.621094 0)"/>
    <use xlink:href="#DejaVuSans-68" transform="translate(516.601562 0)"/>
    <use xlink:href="#DejaVuSans-61" transform="translate(579.980469 0)"/>
    <use xlink:href="#DejaVuSans-6e" transform="translate(641.259766 0)"/>
    <use xlink:href="#DejaVuSans-69" transform="translate(704.638672 0)"/>
    <use xlink:href="#DejaVuSans-73" transform="translate(732.421875 0)"/>
    <use xlink:href="#DejaVuSans-6d" transform="translate(784.521484 0)"/>
    <use xlink:href="#DejaVuSans-20" transform="translate(881.933594 0)"/>
    <use xlink:href="#DejaVuSans-28" transform="translate(913.720703 0)"/>
    <use xlink:href="#DejaVuSans-73" transform="translate(952.734375 0)"/>
    <use xlink:href="#DejaVuSans-63" transform="translate(1004.833984 0)"/>
    <use xlink:href="#DejaVuSans-68" transform="translate(1059.814453 0)"/>
    <use xlink:href="#DejaVuSans-65" transform="translate(1123.193359 0)"/>
    <use xlink:href="#DejaVuSans-6d" transform="translate(1184.716797 0)"/>
    <use xlink:href="#DejaVuSans-61" transform="translate(1282.128906 0)"/>
    <use xlink:href="#DejaVuSans-74" transform="translate(1343.408203 0)"/>
    <use xlink:href="#DejaVuSans-69" transform="translate(1382.617188 0)"/>
    <use xlink:href="#DejaVuSans-63" transform="translate(1410.400391 0)"/>
    <use xlink:href="#DejaVuSans-29" transform="translate(1465.380859 0)"/>
   </g>
  </g>
 </g>
 <defs>
  <clipPath id="pb927142e71">
   <rect x="41.025" y="71.296" width="367.934" height="233.64"/>
  </clipPath>
  <clipPath id="pcc2997ccef">
   <rect x="474.918" y="71.296" width="233.64" height="233.64"/>
  </clipPath>
 </defs>
</svg>
