<?xml version="1.0" encoding="utf-8" standalone="no"?>
<!DOCTYPE svg PUBLIC "-//W3C//DTD SVG 1.1//EN"
  "http://www.w3.org/Graphics/SVG/1.1/DTD/svg11.dtd">
<svg xmlns:xlink="http://www.w3.org/1999/xlink" width="998.64pt" height="433.981812pt" viewBox="0 0 998.64 433.981812" xmlns="http://www.w3.org/2000/svg" version="1.1">
 <metadata>
  <rdf:RDF xmlns:dc="http://purl.org/dc/elements/1.1/" xmlns:cc="http://creativecommons.org/ns#" xmlns:rdf="http://www.w3.org/1999/02/22-rdf-syntax-ns#">
   <cc:Work>
    <dc:type rdf:resource="http://purl.org/dc/dcmitype/StillImage"/>
    <dc:date>2026-01-10T12:06:52.437265</dc:date>
    <dc:format>image/svg+xml</dc:format>
    <dc:creator>
     <cc:Agent>
      <dc:title>Matplotlib v3.10.8, https://matplotlib.org/</dc:title>
     </cc:Agent>
    </dc:creator>
   </cc:Work>
  </rdf:RDF>
 </metadata>
 <defs>
  <style type="text/css">*{stroke-linejoin: round; stroke-linecap: butt}</style>
 </defs>
 <g id="figure_1">
  <g id="patch_1">
   <path d="M 0 433.981812 
L 998.64 433.981812 
L 998.64 0 
L 0 0 
z
" style="fill: #ffffff"/>
  </g>
  <g id="axes_1">
   <g id="patch_2">
    <path d="M 153.054 203.139012 
C 158.211458 203.139012 163.158374 201.089933 166.805247 197.443059 
C 170.45212 193.796186 172.5012 188.84927 172.5012 183.691812 
C 172.5012 178.534355 170.45212 173.587439 166.805247 169.940566 
C 163.158374 166.293692 158.211458 164.244612 153.054 164.244612 
C 147.896542 164.244612 142.949626 166.293692 139.302753 169.940566 
C 135.65588 173.587439 133.6068 178.534355 133.6068 183.691812 
C 133.6068 188.84927 135.65588 193.796186 139.302753 197.443059 
C 142.949626 201.089933 147.896542 203.139012 153.054 203.139012 
z
" clip-path="url(#p56cabba48c)" style="fill: #3498db; stroke: #000000; stroke-width: 2; stroke-linejoin: miter"/>
   </g>
   <g id="patch_3">
    <path d="M 347.526 203.139012 
C 352.683458 203.139012 357.630374 201.089933 361.277247 197.443059 
C 364.92412 193.796186 366.9732 188.84927 366.9732 183.691812 
C 366.9732 178.534355 364.92412 173.587439 361.277247 169.940566 
C 357.630374 166.293692 352.683458 164.244612 347.526 164.244612 
C 342.368542 164.244612 337.421626 166.293692 333.774753 169.940566 
C 330.12788 173.587439 328.0788 178.534355 328.0788 183.691812 
C 328.0788 188.84927 330.12788 193.796186 333.774753 197.443059 
C 337.421626 201.089933 342.368542 203.139012 347.526 203.139012 
z
" clip-path="url(#p56cabba48c)" style="fill: #e74c3c; stroke: #000000; stroke-width: 2; stroke-linejoin: miter"/>
   </g>
   <g id="patch_4">
    <path d="M 80.127 356.285712 
L 225.981 356.285712 
Q 228.4119 356.285712 228.4119 353.854812 
L 228.4119 280.927812 
Q 228.4119 278.496913 225.981 278.496913 
L 80.127 278.496913 
Q 77.6961 278.496913 77.6961 280.927812 
L 77.6961 353.854812 
Q 77.6961 356.285712 80.127 356.285712 
z
" clip-path="url(#p56cabba48c)" style="fill: #ecf0f1; stroke: #7f8c8d; stroke-width: 2; stroke-linejoin: miter"/>
   </g>
   <g id="patch_5">
    <path d="M 274.599 356.285712 
L 420.453 356.285712 
Q 422.8839 356.285712 422.8839 353.854812 
L 422.8839 280.927812 
Q 422.8839 278.496913 420.453 278.496913 
L 274.599 278.496913 
Q 272.1681 278.496913 272.1681 280.927812 
L 272.1681 353.854812 
Q 272.1681 356.285712 274.599 356.285712 
z
" clip-path="url(#p56cabba48c)" style="fill: #ecf0f1; stroke: #7f8c8d; stroke-width: 2; stroke-linejoin: miter"/>
   </g>
   <g id="text_1">
    <!-- A -->
    <g style="fill: #ffffff" transform="translate(148.410562 187.003062) scale(0.12 -0.12)">
     <defs>
      <path id="DejaVuSans-Bold-41" d="M 3419 850 
L 1538 850 
L 1241 0 
L 31 0 
L 1759 4666 
L 3194 4666 
L 4922 0 
L 3713 0 
L 3419 850 
z
M 1838 1716 
L 3116 1716 
L 2478 3572 
L 1838 1716 
z
" transform="scale(0.015625)"/>
     </defs>
     <use xlink:href="#DejaVuSans-Bold-41"/>
    </g>
   </g>
   <g id="text_2">
    <!-- B -->
    <g style="fill: #ffffff" transform="translate(342.952875 187.003062) scale(0.12 -0.12)">
     <defs>
      <path id="DejaVuSans-Bold-42" d="M 2456 2859 
Q 2741 2859 2887 2984 
Q 3034 3109 3034 3353 
Q 3034 3594 2887 3720 
Q 2741 3847 2456 3847 
L 1791 3847 
L 1791 2859 
L 2456 2859 
z
M 2497 819 
Q 2859 819 3042 972 
Q 3225 1125 3225 1434 
Q 3225 1738 3044 1889 
Q 2863 2041 2497 2041 
L 1791 2041 
L 1791 819 
L 2497 819 
z
M 3616 2497 
Q 4003 2384 4215 2081 
Q 4428 1778 4428 1338 
Q 4428 663 3972 331 
Q 3516 0 2584 0 
L 588 0 
L 588 4666 
L 2394 4666 
Q 3366 4666 3802 4372 
Q 4238 4078 4238 3431 
Q 4238 3091 4078 2852 
Q 3919 2613 3616 2497 
z
" transform="scale(0.015625)"/>
     </defs>
     <use xlink:href="#DejaVuSans-Bold-42"/>
    </g>
   </g>
   <g id="patch_6">
    <path d="M 181.597617 183.691812 
Q 250.290522 183.691812 318.983427 183.691812 
" style="fill: none; stroke-dasharray: 7.4,3.2; stroke-dashoffset: 0; stroke: #9b59b6; stroke-width: 2; stroke-linecap: round"/>
    <path d="M 185.997617 185.891812 
L 181.597617 183.691812 
L 185.997617 181.491812 
" style="fill: none; stroke-dasharray: 7.4,3.2; stroke-dashoffset: 0; stroke: #9b59b6; stroke-width: 2; stroke-linecap: round"/>
    <path d="M 314.583427 181.491812 
L 318.983427 183.691812 
L 314.583427 185.891812 
" style="fill: none; stroke-dasharray: 7.4,3.2; stroke-dashoffset: 0; stroke: #9b59b6; stroke-width: 2; stroke-linecap: round"/>
   </g>
   <g id="text_3">
    <!-- hidden λ -->
    <g style="fill: #9b59b6" transform="translate(228.59 162.164925) scale(0.1 -0.1)">
     <defs>
      <path id="DejaVuSans-Oblique-68" d="M 3566 2113 
L 3156 0 
L 2578 0 
L 2988 2091 
Q 3016 2238 3031 2350 
Q 3047 2463 3047 2528 
Q 3047 2791 2881 2937 
Q 2716 3084 2419 3084 
Q 1956 3084 1617 2771 
Q 1278 2459 1178 1941 
L 800 0 
L 225 0 
L 1172 4863 
L 1747 4863 
L 1375 2950 
Q 1594 3244 1934 3414 
Q 2275 3584 2650 3584 
Q 3113 3584 3367 3334 
Q 3622 3084 3622 2631 
Q 3622 2519 3608 2391 
Q 3594 2263 3566 2113 
z
" transform="scale(0.015625)"/>
      <path id="DejaVuSans-Oblique-69" d="M 1172 4863 
L 1747 4863 
L 1606 4134 
L 1031 4134 
L 1172 4863 
z
M 909 3500 
L 1484 3500 
L 800 0 
L 225 0 
L 909 3500 
z
" transform="scale(0.015625)"/>
      <path id="DejaVuSans-Oblique-64" d="M 2675 525 
Q 2444 222 2128 65 
Q 1813 -91 1428 -91 
Q 903 -91 598 267 
Q 294 625 294 1247 
Q 294 1766 478 2236 
Q 663 2706 1013 3078 
Q 1244 3325 1534 3454 
Q 1825 3584 2144 3584 
Q 2481 3584 2739 3421 
Q 2997 3259 3138 2956 
L 3513 4863 
L 4091 4863 
L 3144 0 
L 2566 0 
L 2675 525 
z
M 891 1350 
Q 891 897 1095 644 
Q 1300 391 1663 391 
Q 1931 391 2161 520 
Q 2391 650 2566 903 
Q 2750 1166 2856 1509 
Q 2963 1853 2963 2188 
Q 2963 2622 2758 2865 
Q 2553 3109 2194 3109 
Q 1922 3109 1687 2981 
Q 1453 2853 1288 2613 
Q 1106 2353 998 2009 
Q 891 1666 891 1350 
z
" transform="scale(0.015625)"/>
      <path id="DejaVuSans-Oblique-65" d="M 3078 2063 
Q 3088 2113 3092 2166 
Q 3097 2219 3097 2272 
Q 3097 2653 2873 2875 
Q 2650 3097 2266 3097 
Q 1838 3097 1509 2826 
Q 1181 2556 1013 2059 
L 3078 2063 
z
M 3578 1613 
L 903 1613 
Q 884 1494 878 1425 
Q 872 1356 872 1306 
Q 872 872 1139 634 
Q 1406 397 1894 397 
Q 2269 397 2603 481 
Q 2938 566 3225 728 
L 3116 159 
Q 2806 34 2476 -28 
Q 2147 -91 1806 -91 
Q 1078 -91 686 257 
Q 294 606 294 1247 
Q 294 1794 489 2264 
Q 684 2734 1063 3103 
Q 1306 3334 1642 3459 
Q 1978 3584 2356 3584 
Q 2950 3584 3301 3228 
Q 3653 2872 3653 2272 
Q 3653 2128 3634 1964 
Q 3616 1800 3578 1613 
z
" transform="scale(0.015625)"/>
      <path id="DejaVuSans-Oblique-6e" d="M 3566 2113 
L 3156 0 
L 2578 0 
L 2988 2091 
Q 3016 2238 3031 2350 
Q 3047 2463 3047 2528 
Q 3047 2791 2881 2937 
Q 2716 3084 2419 3084 
Q 1956 3084 1622 2776 
Q 1288 2469 1184 1941 
L 800 0 
L 225 0 
L 903 3500 
L 1478 3500 
L 1363 2950 
Q 1603 3253 1940 3418 
Q 2278 3584 2650 3584 
Q 3113 3584 3367 3334 
Q 3622 3084 3622 2631 
Q 3622 2519 3608 2391 
Q 3594 2263 3566 2113 
z
" transform="scale(0.015625)"/>
      <path id="DejaVuSans-Oblique-20" transform="scale(0.015625)"/>
      <path id="DejaVuSans-Oblique-3bb" d="M 2350 4316 
L 3125 0 
L 2516 0 
L 2038 2588 
L 328 0 
L -281 0 
L 1903 3356 
L 1794 3975 
Q 1725 4369 1391 4369 
L 1091 4369 
L 1184 4863 
L 1550 4856 
Q 2253 4847 2350 4316 
z
" transform="scale(0.015625)"/>
     </defs>
     <use xlink:href="#DejaVuSans-Oblique-68"/>
     <use xlink:href="#DejaVuSans-Oblique-69" transform="translate(63.378906 0)"/>
     <use xlink:href="#DejaVuSans-Oblique-64" transform="translate(91.162109 0)"/>
     <use xlink:href="#DejaVuSans-Oblique-64" transform="translate(154.638672 0)"/>
     <use xlink:href="#DejaVuSans-Oblique-65" transform="translate(218.115234 0)"/>
     <use xlink:href="#DejaVuSans-Oblique-6e" transform="translate(279.638672 0)"/>
     <use xlink:href="#DejaVuSans-Oblique-20" transform="translate(343.017578 0)"/>
     <use xlink:href="#DejaVuSans-Oblique-3bb" transform="translate(374.804688 0)"/>
    </g>
   </g>
   <g id="text_4">
    <!-- Apparatus α -->
    <g transform="translate(122.482906 314.551781) scale(0.1 -0.1)">
     <defs>
      <path id="DejaVuSans-41" d="M 2188 4044 
L 1331 1722 
L 3047 1722 
L 2188 4044 
z
M 1831 4666 
L 2547 4666 
L 4325 0 
L 3669 0 
L 3244 1197 
L 1141 1197 
L 716 0 
L 50 0 
L 1831 4666 
z
" transform="scale(0.015625)"/>
      <path id="DejaVuSans-70" d="M 1159 525 
L 1159 -1331 
L 581 -1331 
L 581 3500 
L 1159 3500 
L 1159 2969 
Q 1341 3281 1617 3432 
Q 1894 3584 2278 3584 
Q 2916 3584 3314 3078 
Q 3713 2572 3713 1747 
Q 3713 922 3314 415 
Q 2916 -91 2278 -91 
Q 1894 -91 1617 61 
Q 1341 213 1159 525 
z
M 3116 1747 
Q 3116 2381 2855 2742 
Q 2594 3103 2138 3103 
Q 1681 3103 1420 2742 
Q 1159 2381 1159 1747 
Q 1159 1113 1420 752 
Q 1681 391 2138 391 
Q 2594 391 2855 752 
Q 3116 1113 3116 1747 
z
" transform="scale(0.015625)"/>
      <path id="DejaVuSans-61" d="M 2194 1759 
Q 1497 1759 1228 1600 
Q 959 1441 959 1056 
Q 959 750 1161 570 
Q 1363 391 1709 391 
Q 2188 391 2477 730 
Q 2766 1069 2766 1631 
L 2766 1759 
L 2194 1759 
z
M 3341 1997 
L 3341 0 
L 2766 0 
L 2766 531 
Q 2569 213 2275 61 
Q 1981 -91 1556 -91 
Q 1019 -91 701 211 
Q 384 513 384 1019 
Q 384 1609 779 1909 
Q 1175 2209 1959 2209 
L 2766 2209 
L 2766 2266 
Q 2766 2663 2505 2880 
Q 2244 3097 1772 3097 
Q 1472 3097 1187 3025 
Q 903 2953 641 2809 
L 641 3341 
Q 956 3463 1253 3523 
Q 1550 3584 1831 3584 
Q 2591 3584 2966 3190 
Q 3341 2797 3341 1997 
z
" transform="scale(0.015625)"/>
      <path id="DejaVuSans-72" d="M 2631 2963 
Q 2534 3019 2420 3045 
Q 2306 3072 2169 3072 
Q 1681 3072 1420 2755 
Q 1159 2438 1159 1844 
L 1159 0 
L 581 0 
L 581 3500 
L 1159 3500 
L 1159 2956 
Q 1341 3275 1631 3429 
Q 1922 3584 2338 3584 
Q 2397 3584 2469 3576 
Q 2541 3569 2628 3553 
L 2631 2963 
z
" transform="scale(0.015625)"/>
      <path id="DejaVuSans-74" d="M 1172 4494 
L 1172 3500 
L 2356 3500 
L 2356 3053 
L 1172 3053 
L 1172 1153 
Q 1172 725 1289 603 
Q 1406 481 1766 481 
L 2356 481 
L 2356 0 
L 1766 0 
Q 1100 0 847 248 
Q 594 497 594 1153 
L 594 3053 
L 172 3053 
L 172 3500 
L 594 3500 
L 594 4494 
L 1172 4494 
z
" transform="scale(0.015625)"/>
      <path id="DejaVuSans-75" d="M 544 1381 
L 544 3500 
L 1119 3500 
L 1119 1403 
Q 1119 906 1312 657 
Q 1506 409 1894 409 
Q 2359 409 2629 706 
Q 2900 1003 2900 1516 
L 2900 3500 
L 3475 3500 
L 3475 0 
L 2900 0 
L 2900 538 
Q 2691 219 2414 64 
Q 2138 -91 1772 -91 
Q 1169 -91 856 284 
Q 544 659 544 1381 
z
M 1991 3584 
L 1991 3584 
z
" transform="scale(0.015625)"/>
      <path id="DejaVuSans-73" d="M 2834 3397 
L 2834 2853 
Q 2591 2978 2328 3040 
Q 2066 3103 1784 3103 
Q 1356 3103 1142 2972 
Q 928 2841 928 2578 
Q 928 2378 1081 2264 
Q 1234 2150 1697 2047 
L 1894 2003 
Q 2506 1872 2764 1633 
Q 3022 1394 3022 966 
Q 3022 478 2636 193 
Q 2250 -91 1575 -91 
Q 1294 -91 989 -36 
Q 684 19 347 128 
L 347 722 
Q 666 556 975 473 
Q 1284 391 1588 391 
Q 1994 391 2212 530 
Q 2431 669 2431 922 
Q 2431 1156 2273 1281 
Q 2116 1406 1581 1522 
L 1381 1569 
Q 847 1681 609 1914 
Q 372 2147 372 2553 
Q 372 3047 722 3315 
Q 1072 3584 1716 3584 
Q 2034 3584 2315 3537 
Q 2597 3491 2834 3397 
z
" transform="scale(0.015625)"/>
      <path id="DejaVuSans-20" transform="scale(0.015625)"/>
      <path id="DejaVuSans-3b1" d="M 2644 1628 
L 2506 2350 
Q 2366 3091 1809 3091 
Q 1391 3091 1200 2747 
Q 959 2316 959 1747 
Q 959 1059 1194 731 
Q 1431 397 1809 397 
Q 2228 397 2453 1063 
L 2644 1628 
z
M 2966 2584 
L 3275 3500 
L 3788 3500 
L 3147 1603 
L 3272 919 
Q 3300 766 3409 638 
Q 3538 488 3638 488 
L 3913 488 
L 3913 0 
L 3569 0 
Q 3275 0 3013 263 
Q 2884 394 2831 669 
Q 2688 322 2394 50 
Q 2256 -78 1809 -78 
Q 1075 -78 719 397 
Q 353 888 353 1747 
Q 353 2666 750 3097 
Q 1191 3578 1809 3578 
Q 2781 3578 2966 2584 
z
" transform="scale(0.015625)"/>
     </defs>
     <use xlink:href="#DejaVuSans-41"/>
     <use xlink:href="#DejaVuSans-70" transform="translate(68.408203 0)"/>
     <use xlink:href="#DejaVuSans-70" transform="translate(131.884766 0)"/>
     <use xlink:href="#DejaVuSans-61" transform="translate(195.361328 0)"/>
     <use xlink:href="#DejaVuSans-72" transform="translate(256.640625 0)"/>
     <use xlink:href="#DejaVuSans-61" transform="translate(297.753906 0)"/>
     <use xlink:href="#DejaVuSans-74" transform="translate(359.033203 0)"/>
     <use xlink:href="#DejaVuSans-75" transform="translate(398.242188 0)"/>
     <use xlink:href="#DejaVuSans-73" transform="translate(461.621094 0)"/>
     <use xlink:href="#DejaVuSans-20" transform="translate(513.720703 0)"/>
     <use xlink:href="#DejaVuSans-3b1" transform="translate(545.507812 0)"/>
    </g>
    <!-- (external) -->
    <g transform="translate(128.577437 325.749594) scale(0.1 -0.1)">
     <defs>
      <path id="DejaVuSans-28" d="M 1984 4856 
Q 1566 4138 1362 3434 
Q 1159 2731 1159 2009 
Q 1159 1288 1364 580 
Q 1569 -128 1984 -844 
L 1484 -844 
Q 1016 -109 783 600 
Q 550 1309 550 2009 
Q 550 2706 781 3412 
Q 1013 4119 1484 4856 
L 1984 4856 
z
" transform="scale(0.015625)"/>
      <path id="DejaVuSans-65" d="M 3597 1894 
L 3597 1613 
L 953 1613 
Q 991 1019 1311 708 
Q 1631 397 2203 397 
Q 2534 397 2845 478 
Q 3156 559 3463 722 
L 3463 178 
Q 3153 47 2828 -22 
Q 2503 -91 2169 -91 
Q 1331 -91 842 396 
Q 353 884 353 1716 
Q 353 2575 817 3079 
Q 1281 3584 2069 3584 
Q 2775 3584 3186 3129 
Q 3597 2675 3597 1894 
z
M 3022 2063 
Q 3016 2534 2758 2815 
Q 2500 3097 2075 3097 
Q 1594 3097 1305 2825 
Q 1016 2553 972 2059 
L 3022 2063 
z
" transform="scale(0.015625)"/>
      <path id="DejaVuSans-78" d="M 3513 3500 
L 2247 1797 
L 3578 0 
L 2900 0 
L 1881 1375 
L 863 0 
L 184 0 
L 1544 1831 
L 300 3500 
L 978 3500 
L 1906 2253 
L 2834 3500 
L 3513 3500 
z
" transform="scale(0.015625)"/>
      <path id="DejaVuSans-6e" d="M 3513 2113 
L 3513 0 
L 2938 0 
L 2938 2094 
Q 2938 2591 2744 2837 
Q 2550 3084 2163 3084 
Q 1697 3084 1428 2787 
Q 1159 2491 1159 1978 
L 1159 0 
L 581 0 
L 581 3500 
L 1159 3500 
L 1159 2956 
Q 1366 3272 1645 3428 
Q 1925 3584 2291 3584 
Q 2894 3584 3203 3211 
Q 3513 2838 3513 2113 
z
" transform="scale(0.015625)"/>
      <path id="DejaVuSans-6c" d="M 603 4863 
L 1178 4863 
L 1178 0 
L 603 0 
L 603 4863 
z
" transform="scale(0.015625)"/>
      <path id="DejaVuSans-29" d="M 513 4856 
L 1013 4856 
Q 1481 4119 1714 3412 
Q 1947 2706 1947 2009 
Q 1947 1309 1714 600 
Q 1481 -109 1013 -844 
L 513 -844 
Q 928 -128 1133 580 
Q 1338 1288 1338 2009 
Q 1338 2731 1133 3434 
Q 928 4138 513 4856 
z
" transform="scale(0.015625)"/>
     </defs>
     <use xlink:href="#DejaVuSans-28"/>
     <use xlink:href="#DejaVuSans-65" transform="translate(39.013672 0)"/>
     <use xlink:href="#DejaVuSans-78" transform="translate(98.787109 0)"/>
     <use xlink:href="#DejaVuSans-74" transform="translate(157.966797 0)"/>
     <use xlink:href="#DejaVuSans-65" transform="translate(197.175781 0)"/>
     <use xlink:href="#DejaVuSans-72" transform="translate(258.699219 0)"/>
     <use xlink:href="#DejaVuSans-6e" transform="translate(298.0625 0)"/>
     <use xlink:href="#DejaVuSans-61" transform="translate(361.441406 0)"/>
     <use xlink:href="#DejaVuSans-6c" transform="translate(422.720703 0)"/>
     <use xlink:href="#DejaVuSans-29" transform="translate(450.503906 0)"/>
    </g>
   </g>
   <g id="text_5">
    <!-- Apparatus β -->
    <g transform="translate(317.060375 314.583031) scale(0.1 -0.1)">
     <defs>
      <path id="DejaVuSans-3b2" d="M 1178 216 
L 1178 -1331 
L 600 -1331 
L 600 3478 
Q 600 4903 1931 4903 
Q 3288 4903 3288 3700 
Q 3288 2844 2750 2531 
Q 3625 2250 3625 1416 
Q 3625 -66 2119 -66 
Q 1456 -66 1178 216 
z
M 1178 966 
Q 1525 425 2141 425 
Q 3041 425 3041 1406 
Q 3041 2288 1591 2219 
L 1591 2750 
Q 2725 2750 2725 3750 
Q 2725 4434 1994 4434 
Q 1178 4434 1178 3459 
L 1178 966 
z
" transform="scale(0.015625)"/>
     </defs>
     <use xlink:href="#DejaVuSans-41"/>
     <use xlink:href="#DejaVuSans-70" transform="translate(68.408203 0)"/>
     <use xlink:href="#DejaVuSans-70" transform="translate(131.884766 0)"/>
     <use xlink:href="#DejaVuSans-61" transform="translate(195.361328 0)"/>
     <use xlink:href="#DejaVuSans-72" transform="translate(256.640625 0)"/>
     <use xlink:href="#DejaVuSans-61" transform="translate(297.753906 0)"/>
     <use xlink:href="#DejaVuSans-74" transform="translate(359.033203 0)"/>
     <use xlink:href="#DejaVuSans-75" transform="translate(398.242188 0)"/>
     <use xlink:href="#DejaVuSans-73" transform="translate(461.621094 0)"/>
     <use xlink:href="#DejaVuSans-20" transform="translate(513.720703 0)"/>
     <use xlink:href="#DejaVuSans-3b2" transform="translate(545.507812 0)"/>
    </g>
    <!-- (external) -->
    <g transform="translate(323.049437 325.780844) scale(0.1 -0.1)">
     <use xlink:href="#DejaVuSans-28"/>
     <use xlink:href="#DejaVuSans-65" transform="translate(39.013672 0)"/>
     <use xlink:href="#DejaVuSans-78" transform="translate(98.787109 0)"/>
     <use xlink:href="#DejaVuSans-74" transform="translate(157.966797 0)"/>
     <use xlink:href="#DejaVuSans-65" transform="translate(197.175781 0)"/>
     <use xlink:href="#DejaVuSans-72" transform="translate(258.699219 0)"/>
     <use xlink:href="#DejaVuSans-6e" transform="translate(298.0625 0)"/>
     <use xlink:href="#DejaVuSans-61" transform="translate(361.441406 0)"/>
     <use xlink:href="#DejaVuSans-6c" transform="translate(422.720703 0)"/>
     <use xlink:href="#DejaVuSans-29" transform="translate(450.503906 0)"/>
    </g>
   </g>
   <g id="patch_7">
    <path d="M 153.054 209.999361 
Q 153.054 244.465723 153.054 277.255033 
" style="fill: none; stroke: #000000; stroke-width: 1.5; stroke-linecap: round"/>
    <path d="M 155.254 272.855033 
L 153.054 277.255033 
L 150.854 272.855033 
" style="fill: none; stroke: #000000; stroke-width: 1.5; stroke-linecap: round"/>
   </g>
   <g id="patch_8">
    <path d="M 347.526 209.999361 
Q 347.526 244.465723 347.526 277.255033 
" style="fill: none; stroke: #000000; stroke-width: 1.5; stroke-linecap: round"/>
    <path d="M 349.726 272.855033 
L 347.526 277.255033 
L 345.326 272.855033 
" style="fill: none; stroke: #000000; stroke-width: 1.5; stroke-linecap: round"/>
   </g>
   <g id="text_6">
    <g id="patch_9">
     <path d="M 125.580562 395.726475 
L 180.527437 395.726475 
Q 183.527437 395.726475 183.527437 392.726475 
L 183.527437 383.04835 
Q 183.527437 380.04835 180.527437 380.04835 
L 125.580562 380.04835 
Q 122.580562 380.04835 122.580562 383.04835 
L 122.580562 392.726475 
Q 122.580562 395.726475 125.580562 395.726475 
z
" style="fill: #2ecc71; opacity: 0.7; stroke: #000000; stroke-linejoin: miter"/>
    </g>
    <!-- Outcome a -->
    <g transform="translate(125.580562 390.646787) scale(0.1 -0.1)">
     <defs>
      <path id="DejaVuSans-4f" d="M 2522 4238 
Q 1834 4238 1429 3725 
Q 1025 3213 1025 2328 
Q 1025 1447 1429 934 
Q 1834 422 2522 422 
Q 3209 422 3611 934 
Q 4013 1447 4013 2328 
Q 4013 3213 3611 3725 
Q 3209 4238 2522 4238 
z
M 2522 4750 
Q 3503 4750 4090 4092 
Q 4678 3434 4678 2328 
Q 4678 1225 4090 567 
Q 3503 -91 2522 -91 
Q 1538 -91 948 565 
Q 359 1222 359 2328 
Q 359 3434 948 4092 
Q 1538 4750 2522 4750 
z
" transform="scale(0.015625)"/>
      <path id="DejaVuSans-63" d="M 3122 3366 
L 3122 2828 
Q 2878 2963 2633 3030 
Q 2388 3097 2138 3097 
Q 1578 3097 1268 2742 
Q 959 2388 959 1747 
Q 959 1106 1268 751 
Q 1578 397 2138 397 
Q 2388 397 2633 464 
Q 2878 531 3122 666 
L 3122 134 
Q 2881 22 2623 -34 
Q 2366 -91 2075 -91 
Q 1284 -91 818 406 
Q 353 903 353 1747 
Q 353 2603 823 3093 
Q 1294 3584 2113 3584 
Q 2378 3584 2631 3529 
Q 2884 3475 3122 3366 
z
" transform="scale(0.015625)"/>
      <path id="DejaVuSans-6f" d="M 1959 3097 
Q 1497 3097 1228 2736 
Q 959 2375 959 1747 
Q 959 1119 1226 758 
Q 1494 397 1959 397 
Q 2419 397 2687 759 
Q 2956 1122 2956 1747 
Q 2956 2369 2687 2733 
Q 2419 3097 1959 3097 
z
M 1959 3584 
Q 2709 3584 3137 3096 
Q 3566 2609 3566 1747 
Q 3566 888 3137 398 
Q 2709 -91 1959 -91 
Q 1206 -91 779 398 
Q 353 888 353 1747 
Q 353 2609 779 3096 
Q 1206 3584 1959 3584 
z
" transform="scale(0.015625)"/>
      <path id="DejaVuSans-6d" d="M 3328 2828 
Q 3544 3216 3844 3400 
Q 4144 3584 4550 3584 
Q 5097 3584 5394 3201 
Q 5691 2819 5691 2113 
L 5691 0 
L 5113 0 
L 5113 2094 
Q 5113 2597 4934 2840 
Q 4756 3084 4391 3084 
Q 3944 3084 3684 2787 
Q 3425 2491 3425 1978 
L 3425 0 
L 2847 0 
L 2847 2094 
Q 2847 2600 2669 2842 
Q 2491 3084 2119 3084 
Q 1678 3084 1418 2786 
Q 1159 2488 1159 1978 
L 1159 0 
L 581 0 
L 581 3500 
L 1159 3500 
L 1159 2956 
Q 1356 3278 1631 3431 
Q 1906 3584 2284 3584 
Q 2666 3584 2933 3390 
Q 3200 3197 3328 2828 
z
" transform="scale(0.015625)"/>
     </defs>
     <use xlink:href="#DejaVuSans-4f"/>
     <use xlink:href="#DejaVuSans-75" transform="translate(78.710938 0)"/>
     <use xlink:href="#DejaVuSans-74" transform="translate(142.089844 0)"/>
     <use xlink:href="#DejaVuSans-63" transform="translate(181.298828 0)"/>
     <use xlink:href="#DejaVuSans-6f" transform="translate(236.279297 0)"/>
     <use xlink:href="#DejaVuSans-6d" transform="translate(297.460938 0)"/>
     <use xlink:href="#DejaVuSans-65" transform="translate(394.873047 0)"/>
     <use xlink:href="#DejaVuSans-20" transform="translate(456.396484 0)"/>
     <use xlink:href="#DejaVuSans-61" transform="translate(488.183594 0)"/>
    </g>
   </g>
   <g id="text_7">
    <g id="patch_10">
     <path d="M 319.942406 395.726475 
L 375.109594 395.726475 
Q 378.109594 395.726475 378.109594 392.726475 
L 378.109594 383.04835 
Q 378.109594 380.04835 375.109594 380.04835 
L 319.942406 380.04835 
Q 316.942406 380.04835 316.942406 383.04835 
L 316.942406 392.726475 
Q 316.942406 395.726475 319.942406 395.726475 
z
" style="fill: #2ecc71; opacity: 0.7; stroke: #000000; stroke-linejoin: miter"/>
    </g>
    <!-- Outcome b -->
    <g transform="translate(319.942406 390.646787) scale(0.1 -0.1)">
     <defs>
      <path id="DejaVuSans-62" d="M 3116 1747 
Q 3116 2381 2855 2742 
Q 2594 3103 2138 3103 
Q 1681 3103 1420 2742 
Q 1159 2381 1159 1747 
Q 1159 1113 1420 752 
Q 1681 391 2138 391 
Q 2594 391 2855 752 
Q 3116 1113 3116 1747 
z
M 1159 2969 
Q 1341 3281 1617 3432 
Q 1894 3584 2278 3584 
Q 2916 3584 3314 3078 
Q 3713 2572 3713 1747 
Q 3713 922 3314 415 
Q 2916 -91 2278 -91 
Q 1894 -91 1617 61 
Q 1341 213 1159 525 
L 1159 0 
L 581 0 
L 581 4863 
L 1159 4863 
L 1159 2969 
z
" transform="scale(0.015625)"/>
     </defs>
     <use xlink:href="#DejaVuSans-4f"/>
     <use xlink:href="#DejaVuSans-75" transform="translate(78.710938 0)"/>
     <use xlink:href="#DejaVuSans-74" transform="translate(142.089844 0)"/>
     <use xlink:href="#DejaVuSans-63" transform="translate(181.298828 0)"/>
     <use xlink:href="#DejaVuSans-6f" transform="translate(236.279297 0)"/>
     <use xlink:href="#DejaVuSans-6d" transform="translate(297.460938 0)"/>
     <use xlink:href="#DejaVuSans-65" transform="translate(394.873047 0)"/>
     <use xlink:href="#DejaVuSans-20" transform="translate(456.396484 0)"/>
     <use xlink:href="#DejaVuSans-62" transform="translate(488.183594 0)"/>
    </g>
   </g>
   <g id="patch_11">
    <path d="M 153.054 355.852471 
Q 153.054 361.146022 153.054 364.762522 
" style="fill: none; stroke: #000000; stroke-width: 1.5; stroke-linecap: round"/>
    <path d="M 155.254 360.362522 
L 153.054 364.762522 
L 150.854 360.362522 
" style="fill: none; stroke: #000000; stroke-width: 1.5; stroke-linecap: round"/>
   </g>
   <g id="patch_12">
    <path d="M 347.526 355.852471 
Q 347.526 361.146022 347.526 364.762522 
" style="fill: none; stroke: #000000; stroke-width: 1.5; stroke-linecap: round"/>
    <path d="M 349.726 360.362522 
L 347.526 364.762522 
L 345.326 360.362522 
" style="fill: none; stroke: #000000; stroke-width: 1.5; stroke-linecap: round"/>
   </g>
   <g id="text_8">
    <!-- Bell's Setup (implicit assumption) -->
    <g transform="translate(116.980469 17.837812) scale(0.14 -0.14)">
     <defs>
      <path id="DejaVuSans-Bold-65" d="M 4031 1759 
L 4031 1441 
L 1416 1441 
Q 1456 1047 1700 850 
Q 1944 653 2381 653 
Q 2734 653 3104 758 
Q 3475 863 3866 1075 
L 3866 213 
Q 3469 63 3072 -14 
Q 2675 -91 2278 -91 
Q 1328 -91 801 392 
Q 275 875 275 1747 
Q 275 2603 792 3093 
Q 1309 3584 2216 3584 
Q 3041 3584 3536 3087 
Q 4031 2591 4031 1759 
z
M 2881 2131 
Q 2881 2450 2695 2645 
Q 2509 2841 2209 2841 
Q 1884 2841 1681 2658 
Q 1478 2475 1428 2131 
L 2881 2131 
z
" transform="scale(0.015625)"/>
      <path id="DejaVuSans-Bold-6c" d="M 538 4863 
L 1656 4863 
L 1656 0 
L 538 0 
L 538 4863 
z
" transform="scale(0.015625)"/>
      <path id="DejaVuSans-Bold-27" d="M 1350 4666 
L 1350 2931 
L 609 2931 
L 609 4666 
L 1350 4666 
z
" transform="scale(0.015625)"/>
      <path id="DejaVuSans-Bold-73" d="M 3272 3391 
L 3272 2541 
Q 2913 2691 2578 2766 
Q 2244 2841 1947 2841 
Q 1628 2841 1473 2761 
Q 1319 2681 1319 2516 
Q 1319 2381 1436 2309 
Q 1553 2238 1856 2203 
L 2053 2175 
Q 2913 2066 3209 1816 
Q 3506 1566 3506 1031 
Q 3506 472 3093 190 
Q 2681 -91 1863 -91 
Q 1516 -91 1145 -36 
Q 775 19 384 128 
L 384 978 
Q 719 816 1070 734 
Q 1422 653 1784 653 
Q 2113 653 2278 743 
Q 2444 834 2444 1013 
Q 2444 1163 2330 1236 
Q 2216 1309 1875 1350 
L 1678 1375 
Q 931 1469 631 1722 
Q 331 1975 331 2491 
Q 331 3047 712 3315 
Q 1094 3584 1881 3584 
Q 2191 3584 2531 3537 
Q 2872 3491 3272 3391 
z
" transform="scale(0.015625)"/>
      <path id="DejaVuSans-Bold-20" transform="scale(0.015625)"/>
      <path id="DejaVuSans-Bold-53" d="M 3834 4519 
L 3834 3531 
Q 3450 3703 3084 3790 
Q 2719 3878 2394 3878 
Q 1963 3878 1756 3759 
Q 1550 3641 1550 3391 
Q 1550 3203 1689 3098 
Q 1828 2994 2194 2919 
L 2706 2816 
Q 3484 2659 3812 2340 
Q 4141 2022 4141 1434 
Q 4141 663 3683 286 
Q 3225 -91 2284 -91 
Q 1841 -91 1394 -6 
Q 947 78 500 244 
L 500 1259 
Q 947 1022 1364 901 
Q 1781 781 2169 781 
Q 2563 781 2772 912 
Q 2981 1044 2981 1288 
Q 2981 1506 2839 1625 
Q 2697 1744 2272 1838 
L 1806 1941 
Q 1106 2091 782 2419 
Q 459 2747 459 3303 
Q 459 4000 909 4375 
Q 1359 4750 2203 4750 
Q 2588 4750 2994 4692 
Q 3400 4634 3834 4519 
z
" transform="scale(0.015625)"/>
      <path id="DejaVuSans-Bold-74" d="M 1759 4494 
L 1759 3500 
L 2913 3500 
L 2913 2700 
L 1759 2700 
L 1759 1216 
Q 1759 972 1856 886 
Q 1953 800 2241 800 
L 2816 800 
L 2816 0 
L 1856 0 
Q 1194 0 917 276 
Q 641 553 641 1216 
L 641 2700 
L 84 2700 
L 84 3500 
L 641 3500 
L 641 4494 
L 1759 4494 
z
" transform="scale(0.015625)"/>
      <path id="DejaVuSans-Bold-75" d="M 500 1363 
L 500 3500 
L 1625 3500 
L 1625 3150 
Q 1625 2866 1622 2436 
Q 1619 2006 1619 1863 
Q 1619 1441 1641 1255 
Q 1663 1069 1716 984 
Q 1784 875 1895 815 
Q 2006 756 2150 756 
Q 2500 756 2700 1025 
Q 2900 1294 2900 1772 
L 2900 3500 
L 4019 3500 
L 4019 0 
L 2900 0 
L 2900 506 
Q 2647 200 2364 54 
Q 2081 -91 1741 -91 
Q 1134 -91 817 281 
Q 500 653 500 1363 
z
" transform="scale(0.015625)"/>
      <path id="DejaVuSans-Bold-70" d="M 1656 506 
L 1656 -1331 
L 538 -1331 
L 538 3500 
L 1656 3500 
L 1656 2988 
Q 1888 3294 2169 3439 
Q 2450 3584 2816 3584 
Q 3463 3584 3878 3070 
Q 4294 2556 4294 1747 
Q 4294 938 3878 423 
Q 3463 -91 2816 -91 
Q 2450 -91 2169 54 
Q 1888 200 1656 506 
z
M 2400 2772 
Q 2041 2772 1848 2508 
Q 1656 2244 1656 1747 
Q 1656 1250 1848 986 
Q 2041 722 2400 722 
Q 2759 722 2948 984 
Q 3138 1247 3138 1747 
Q 3138 2247 2948 2509 
Q 2759 2772 2400 2772 
z
" transform="scale(0.015625)"/>
      <path id="DejaVuSans-Bold-28" d="M 2413 -844 
L 1484 -844 
Q 1006 -72 778 623 
Q 550 1319 550 2003 
Q 550 2688 779 3389 
Q 1009 4091 1484 4856 
L 2413 4856 
Q 2013 4116 1813 3408 
Q 1613 2700 1613 2009 
Q 1613 1319 1811 609 
Q 2009 -100 2413 -844 
z
" transform="scale(0.015625)"/>
      <path id="DejaVuSans-Bold-69" d="M 538 3500 
L 1656 3500 
L 1656 0 
L 538 0 
L 538 3500 
z
M 538 4863 
L 1656 4863 
L 1656 3950 
L 538 3950 
L 538 4863 
z
" transform="scale(0.015625)"/>
      <path id="DejaVuSans-Bold-6d" d="M 3781 2919 
Q 3994 3244 4286 3414 
Q 4578 3584 4928 3584 
Q 5531 3584 5847 3212 
Q 6163 2841 6163 2131 
L 6163 0 
L 5038 0 
L 5038 1825 
Q 5041 1866 5042 1909 
Q 5044 1953 5044 2034 
Q 5044 2406 4934 2573 
Q 4825 2741 4581 2741 
Q 4263 2741 4089 2478 
Q 3916 2216 3909 1719 
L 3909 0 
L 2784 0 
L 2784 1825 
Q 2784 2406 2684 2573 
Q 2584 2741 2328 2741 
Q 2006 2741 1831 2477 
Q 1656 2213 1656 1722 
L 1656 0 
L 531 0 
L 531 3500 
L 1656 3500 
L 1656 2988 
Q 1863 3284 2130 3434 
Q 2397 3584 2719 3584 
Q 3081 3584 3359 3409 
Q 3638 3234 3781 2919 
z
" transform="scale(0.015625)"/>
      <path id="DejaVuSans-Bold-63" d="M 3366 3391 
L 3366 2478 
Q 3138 2634 2908 2709 
Q 2678 2784 2431 2784 
Q 1963 2784 1702 2511 
Q 1441 2238 1441 1747 
Q 1441 1256 1702 982 
Q 1963 709 2431 709 
Q 2694 709 2930 787 
Q 3166 866 3366 1019 
L 3366 103 
Q 3103 6 2833 -42 
Q 2563 -91 2291 -91 
Q 1344 -91 809 395 
Q 275 881 275 1747 
Q 275 2613 809 3098 
Q 1344 3584 2291 3584 
Q 2566 3584 2833 3536 
Q 3100 3488 3366 3391 
z
" transform="scale(0.015625)"/>
      <path id="DejaVuSans-Bold-61" d="M 2106 1575 
Q 1756 1575 1579 1456 
Q 1403 1338 1403 1106 
Q 1403 894 1545 773 
Q 1688 653 1941 653 
Q 2256 653 2472 879 
Q 2688 1106 2688 1447 
L 2688 1575 
L 2106 1575 
z
M 3816 1997 
L 3816 0 
L 2688 0 
L 2688 519 
Q 2463 200 2181 54 
Q 1900 -91 1497 -91 
Q 953 -91 614 226 
Q 275 544 275 1050 
Q 275 1666 698 1953 
Q 1122 2241 2028 2241 
L 2688 2241 
L 2688 2328 
Q 2688 2594 2478 2717 
Q 2269 2841 1825 2841 
Q 1466 2841 1156 2769 
Q 847 2697 581 2553 
L 581 3406 
Q 941 3494 1303 3539 
Q 1666 3584 2028 3584 
Q 2975 3584 3395 3211 
Q 3816 2838 3816 1997 
z
" transform="scale(0.015625)"/>
      <path id="DejaVuSans-Bold-6f" d="M 2203 2784 
Q 1831 2784 1636 2517 
Q 1441 2250 1441 1747 
Q 1441 1244 1636 976 
Q 1831 709 2203 709 
Q 2569 709 2762 976 
Q 2956 1244 2956 1747 
Q 2956 2250 2762 2517 
Q 2569 2784 2203 2784 
z
M 2203 3584 
Q 3106 3584 3614 3096 
Q 4122 2609 4122 1747 
Q 4122 884 3614 396 
Q 3106 -91 2203 -91 
Q 1297 -91 786 396 
Q 275 884 275 1747 
Q 275 2609 786 3096 
Q 1297 3584 2203 3584 
z
" transform="scale(0.015625)"/>
      <path id="DejaVuSans-Bold-6e" d="M 4056 2131 
L 4056 0 
L 2931 0 
L 2931 347 
L 2931 1631 
Q 2931 2084 2911 2256 
Q 2891 2428 2841 2509 
Q 2775 2619 2662 2680 
Q 2550 2741 2406 2741 
Q 2056 2741 1856 2470 
Q 1656 2200 1656 1722 
L 1656 0 
L 538 0 
L 538 3500 
L 1656 3500 
L 1656 2988 
Q 1909 3294 2193 3439 
Q 2478 3584 2822 3584 
Q 3428 3584 3742 3212 
Q 4056 2841 4056 2131 
z
" transform="scale(0.015625)"/>
      <path id="DejaVuSans-Bold-29" d="M 513 -844 
Q 913 -100 1113 609 
Q 1313 1319 1313 2009 
Q 1313 2700 1113 3408 
Q 913 4116 513 4856 
L 1441 4856 
Q 1916 4091 2145 3389 
Q 2375 2688 2375 2003 
Q 2375 1319 2147 623 
Q 1919 -72 1441 -844 
L 513 -844 
z
" transform="scale(0.015625)"/>
     </defs>
     <use xlink:href="#DejaVuSans-Bold-42"/>
     <use xlink:href="#DejaVuSans-Bold-65" transform="translate(76.220703 0)"/>
     <use xlink:href="#DejaVuSans-Bold-6c" transform="translate(144.042969 0)"/>
     <use xlink:href="#DejaVuSans-Bold-6c" transform="translate(178.320312 0)"/>
     <use xlink:href="#DejaVuSans-Bold-27" transform="translate(212.597656 0)"/>
     <use xlink:href="#DejaVuSans-Bold-73" transform="translate(243.212891 0)"/>
     <use xlink:href="#DejaVuSans-Bold-20" transform="translate(302.734375 0)"/>
     <use xlink:href="#DejaVuSans-Bold-53" transform="translate(337.548828 0)"/>
     <use xlink:href="#DejaVuSans-Bold-65" transform="translate(409.570312 0)"/>
     <use xlink:href="#DejaVuSans-Bold-74" transform="translate(477.392578 0)"/>
     <use xlink:href="#DejaVuSans-Bold-75" transform="translate(525.195312 0)"/>
     <use xlink:href="#DejaVuSans-Bold-70" transform="translate(596.386719 0)"/>
     <use xlink:href="#DejaVuSans-Bold-20" transform="translate(667.96875 0)"/>
     <use xlink:href="#DejaVuSans-Bold-28" transform="translate(702.783203 0)"/>
     <use xlink:href="#DejaVuSans-Bold-69" transform="translate(748.486328 0)"/>
     <use xlink:href="#DejaVuSans-Bold-6d" transform="translate(782.763672 0)"/>
     <use xlink:href="#DejaVuSans-Bold-70" transform="translate(886.962891 0)"/>
     <use xlink:href="#DejaVuSans-Bold-6c" transform="translate(958.544922 0)"/>
     <use xlink:href="#DejaVuSans-Bold-69" transform="translate(992.822266 0)"/>
     <use xlink:href="#DejaVuSans-Bold-63" transform="translate(1027.099609 0)"/>
     <use xlink:href="#DejaVuSans-Bold-69" transform="translate(1086.376953 0)"/>
     <use xlink:href="#DejaVuSans-Bold-74" transform="translate(1120.654297 0)"/>
     <use xlink:href="#DejaVuSans-Bold-20" transform="translate(1168.457031 0)"/>
     <use xlink:href="#DejaVuSans-Bold-61" transform="translate(1203.271484 0)"/>
     <use xlink:href="#DejaVuSans-Bold-73" transform="translate(1270.751953 0)"/>
     <use xlink:href="#DejaVuSans-Bold-73" transform="translate(1330.273438 0)"/>
     <use xlink:href="#DejaVuSans-Bold-75" transform="translate(1389.794922 0)"/>
     <use xlink:href="#DejaVuSans-Bold-6d" transform="translate(1460.986328 0)"/>
     <use xlink:href="#DejaVuSans-Bold-70" transform="translate(1565.185547 0)"/>
     <use xlink:href="#DejaVuSans-Bold-74" transform="translate(1636.767578 0)"/>
     <use xlink:href="#DejaVuSans-Bold-69" transform="translate(1684.570312 0)"/>
     <use xlink:href="#DejaVuSans-Bold-6f" transform="translate(1718.847656 0)"/>
     <use xlink:href="#DejaVuSans-Bold-6e" transform="translate(1787.548828 0)"/>
     <use xlink:href="#DejaVuSans-Bold-29" transform="translate(1858.740234 0)"/>
    </g>
   </g>
  </g>
  <g id="axes_2">
   <g id="patch_13">
    <path d="M 529.569 407.334612 
L 967.131 407.334612 
Q 971.9928 407.334612 971.9928 402.472812 
L 971.9928 62.146812 
Q 971.9928 57.285012 967.131 57.285012 
L 529.569 57.285012 
Q 524.7072 57.285012 524.7072 62.146812 
L 524.7072 402.472812 
Q 524.7072 407.334612 529.569 407.334612 
z
" clip-path="url(#pa21605cb1a)" style="fill: #e8f4f8; stroke: #3498db; stroke-width: 3; stroke-linejoin: miter"/>
   </g>
   <g id="patch_14">
    <path d="M 563.6016 234.740712 
L 690.0084 234.740712 
Q 692.4393 234.740712 692.4393 232.309812 
L 692.4393 173.968212 
Q 692.4393 171.537312 690.0084 171.537312 
L 563.6016 171.537312 
Q 561.1707 171.537312 561.1707 173.968212 
L 561.1707 232.309812 
Q 561.1707 234.740712 563.6016 234.740712 
z
" clip-path="url(#pa21605cb1a)" style="fill: #d5dbdb; stroke: #566573; stroke-width: 2; stroke-linejoin: miter"/>
   </g>
   <g id="patch_15">
    <path d="M 806.6916 234.740712 
L 933.0984 234.740712 
Q 935.5293 234.740712 935.5293 232.309812 
L 935.5293 173.968212 
Q 935.5293 171.537312 933.0984 171.537312 
L 806.6916 171.537312 
Q 804.2607 171.537312 804.2607 173.968212 
L 804.2607 232.309812 
Q 804.2607 234.740712 806.6916 234.740712 
z
" clip-path="url(#pa21605cb1a)" style="fill: #d5dbdb; stroke: #566573; stroke-width: 2; stroke-linejoin: miter"/>
   </g>
   <g id="patch_16">
    <path d="M 748.35 329.545813 
C 754.796822 329.545813 760.980467 326.984463 765.539059 322.425871 
C 770.09765 317.86728 772.659 311.683635 772.659 305.236812 
C 772.659 298.78999 770.09765 292.606345 765.539059 288.047754 
C 760.980467 283.489162 754.796822 280.927812 748.35 280.927812 
C 741.903178 280.927812 735.719533 283.489162 731.160941 288.047754 
C 726.60235 292.606345 724.041 298.78999 724.041 305.236812 
C 724.041 311.683635 726.60235 317.86728 731.160941 322.425871 
C 735.719533 326.984463 741.903178 329.545813 748.35 329.545813 
z
" clip-path="url(#pa21605cb1a)" style="fill: #9b59b6; stroke: #000000; stroke-width: 2; stroke-linejoin: miter"/>
   </g>
   <g id="text_9">
    <!-- SHARED FLUX SUBSTRATE -->
    <g style="fill: #2980b9" transform="translate(660.114375 80.043462) scale(0.12 -0.12)">
     <defs>
      <path id="DejaVuSans-Bold-48" d="M 588 4666 
L 1791 4666 
L 1791 2888 
L 3566 2888 
L 3566 4666 
L 4769 4666 
L 4769 0 
L 3566 0 
L 3566 1978 
L 1791 1978 
L 1791 0 
L 588 0 
L 588 4666 
z
" transform="scale(0.015625)"/>
      <path id="DejaVuSans-Bold-52" d="M 2297 2597 
Q 2675 2597 2839 2737 
Q 3003 2878 3003 3200 
Q 3003 3519 2839 3656 
Q 2675 3794 2297 3794 
L 1791 3794 
L 1791 2597 
L 2297 2597 
z
M 1791 1766 
L 1791 0 
L 588 0 
L 588 4666 
L 2425 4666 
Q 3347 4666 3776 4356 
Q 4206 4047 4206 3378 
Q 4206 2916 3982 2619 
Q 3759 2322 3309 2181 
Q 3556 2125 3751 1926 
Q 3947 1728 4147 1325 
L 4800 0 
L 3519 0 
L 2950 1159 
Q 2778 1509 2601 1637 
Q 2425 1766 2131 1766 
L 1791 1766 
z
" transform="scale(0.015625)"/>
      <path id="DejaVuSans-Bold-45" d="M 588 4666 
L 3834 4666 
L 3834 3756 
L 1791 3756 
L 1791 2888 
L 3713 2888 
L 3713 1978 
L 1791 1978 
L 1791 909 
L 3903 909 
L 3903 0 
L 588 0 
L 588 4666 
z
" transform="scale(0.015625)"/>
      <path id="DejaVuSans-Bold-44" d="M 1791 3756 
L 1791 909 
L 2222 909 
Q 2959 909 3348 1275 
Q 3738 1641 3738 2338 
Q 3738 3031 3350 3393 
Q 2963 3756 2222 3756 
L 1791 3756 
z
M 588 4666 
L 1856 4666 
Q 2919 4666 3439 4514 
Q 3959 4363 4331 4000 
Q 4659 3684 4818 3271 
Q 4978 2859 4978 2338 
Q 4978 1809 4818 1395 
Q 4659 981 4331 666 
Q 3956 303 3431 151 
Q 2906 0 1856 0 
L 588 0 
L 588 4666 
z
" transform="scale(0.015625)"/>
      <path id="DejaVuSans-Bold-46" d="M 588 4666 
L 3834 4666 
L 3834 3756 
L 1791 3756 
L 1791 2888 
L 3713 2888 
L 3713 1978 
L 1791 1978 
L 1791 0 
L 588 0 
L 588 4666 
z
" transform="scale(0.015625)"/>
      <path id="DejaVuSans-Bold-4c" d="M 588 4666 
L 1791 4666 
L 1791 909 
L 3903 909 
L 3903 0 
L 588 0 
L 588 4666 
z
" transform="scale(0.015625)"/>
      <path id="DejaVuSans-Bold-55" d="M 588 4666 
L 1791 4666 
L 1791 1869 
Q 1791 1291 1980 1042 
Q 2169 794 2597 794 
Q 3028 794 3217 1042 
Q 3406 1291 3406 1869 
L 3406 4666 
L 4609 4666 
L 4609 1869 
Q 4609 878 4112 393 
Q 3616 -91 2597 -91 
Q 1581 -91 1084 393 
Q 588 878 588 1869 
L 588 4666 
z
" transform="scale(0.015625)"/>
      <path id="DejaVuSans-Bold-58" d="M 3188 2381 
L 4806 0 
L 3553 0 
L 2463 1594 
L 1381 0 
L 122 0 
L 1741 2381 
L 184 4666 
L 1441 4666 
L 2463 3163 
L 3481 4666 
L 4744 4666 
L 3188 2381 
z
" transform="scale(0.015625)"/>
      <path id="DejaVuSans-Bold-54" d="M 31 4666 
L 4331 4666 
L 4331 3756 
L 2784 3756 
L 2784 0 
L 1581 0 
L 1581 3756 
L 31 3756 
L 31 4666 
z
" transform="scale(0.015625)"/>
     </defs>
     <use xlink:href="#DejaVuSans-Bold-53"/>
     <use xlink:href="#DejaVuSans-Bold-48" transform="translate(72.021484 0)"/>
     <use xlink:href="#DejaVuSans-Bold-41" transform="translate(155.712891 0)"/>
     <use xlink:href="#DejaVuSans-Bold-52" transform="translate(233.105469 0)"/>
     <use xlink:href="#DejaVuSans-Bold-45" transform="translate(310.107422 0)"/>
     <use xlink:href="#DejaVuSans-Bold-44" transform="translate(378.417969 0)"/>
     <use xlink:href="#DejaVuSans-Bold-20" transform="translate(461.425781 0)"/>
     <use xlink:href="#DejaVuSans-Bold-46" transform="translate(496.240234 0)"/>
     <use xlink:href="#DejaVuSans-Bold-4c" transform="translate(564.550781 0)"/>
     <use xlink:href="#DejaVuSans-Bold-55" transform="translate(624.646484 0)"/>
     <use xlink:href="#DejaVuSans-Bold-58" transform="translate(705.847656 0)"/>
     <use xlink:href="#DejaVuSans-Bold-20" transform="translate(782.947266 0)"/>
     <use xlink:href="#DejaVuSans-Bold-53" transform="translate(817.761719 0)"/>
     <use xlink:href="#DejaVuSans-Bold-55" transform="translate(889.783203 0)"/>
     <use xlink:href="#DejaVuSans-Bold-42" transform="translate(970.984375 0)"/>
     <use xlink:href="#DejaVuSans-Bold-53" transform="translate(1047.205078 0)"/>
     <use xlink:href="#DejaVuSans-Bold-54" transform="translate(1119.226562 0)"/>
     <use xlink:href="#DejaVuSans-Bold-52" transform="translate(1187.439453 0)"/>
     <use xlink:href="#DejaVuSans-Bold-41" transform="translate(1264.441406 0)"/>
     <use xlink:href="#DejaVuSans-Bold-54" transform="translate(1334.083984 0)"/>
     <use xlink:href="#DejaVuSans-Bold-45" transform="translate(1402.296875 0)"/>
    </g>
   </g>
   <g id="text_10">
    <!-- Apparatus α -->
    <g transform="translate(596.233906 205.898388) scale(0.1 -0.1)">
     <use xlink:href="#DejaVuSans-41"/>
     <use xlink:href="#DejaVuSans-70" transform="translate(68.408203 0)"/>
     <use xlink:href="#DejaVuSans-70" transform="translate(131.884766 0)"/>
     <use xlink:href="#DejaVuSans-61" transform="translate(195.361328 0)"/>
     <use xlink:href="#DejaVuSans-72" transform="translate(256.640625 0)"/>
     <use xlink:href="#DejaVuSans-61" transform="translate(297.753906 0)"/>
     <use xlink:href="#DejaVuSans-74" transform="translate(359.033203 0)"/>
     <use xlink:href="#DejaVuSans-75" transform="translate(398.242188 0)"/>
     <use xlink:href="#DejaVuSans-73" transform="translate(461.621094 0)"/>
     <use xlink:href="#DejaVuSans-20" transform="translate(513.720703 0)"/>
     <use xlink:href="#DejaVuSans-3b1" transform="translate(545.507812 0)"/>
    </g>
   </g>
   <g id="text_11">
    <!-- Apparatus β -->
    <g transform="translate(839.429375 205.929638) scale(0.1 -0.1)">
     <use xlink:href="#DejaVuSans-41"/>
     <use xlink:href="#DejaVuSans-70" transform="translate(68.408203 0)"/>
     <use xlink:href="#DejaVuSans-70" transform="translate(131.884766 0)"/>
     <use xlink:href="#DejaVuSans-61" transform="translate(195.361328 0)"/>
     <use xlink:href="#DejaVuSans-72" transform="translate(256.640625 0)"/>
     <use xlink:href="#DejaVuSans-61" transform="translate(297.753906 0)"/>
     <use xlink:href="#DejaVuSans-74" transform="translate(359.033203 0)"/>
     <use xlink:href="#DejaVuSans-75" transform="translate(398.242188 0)"/>
     <use xlink:href="#DejaVuSans-73" transform="translate(461.621094 0)"/>
     <use xlink:href="#DejaVuSans-20" transform="translate(513.720703 0)"/>
     <use xlink:href="#DejaVuSans-3b2" transform="translate(545.507812 0)"/>
    </g>
   </g>
   <g id="text_12">
    <!-- ψ -->
    <g style="fill: #ffffff" transform="translate(742.792656 309.099938) scale(0.14 -0.14)">
     <defs>
      <path id="DejaVuSans-Bold-3c8" d="M 3081 800 
Q 3516 1113 3516 1859 
L 3516 3500 
L 4634 3500 
L 4634 1838 
Q 4634 200 3081 0 
L 3081 -1331 
L 1969 -1331 
L 1969 0 
Q 416 200 416 1838 
L 416 3500 
L 1534 3500 
L 1534 1859 
Q 1534 1113 1969 800 
L 1969 3500 
L 3081 3500 
L 3081 800 
z
" transform="scale(0.015625)"/>
     </defs>
     <use xlink:href="#DejaVuSans-Bold-3c8"/>
    </g>
   </g>
   <g id="text_13">
    <!-- (entangled pair) -->
    <g transform="translate(711.966797 351.47645) scale(0.09 -0.09)">
     <defs>
      <path id="DejaVuSans-Oblique-28" d="M 2731 4856 
Q 1903 3822 1495 2892 
Q 1088 1963 1088 1100 
Q 1088 606 1206 120 
Q 1325 -366 1563 -844 
L 1063 -844 
Q 775 -306 634 201 
Q 494 709 494 1197 
Q 494 2125 923 3036 
Q 1353 3947 2222 4856 
L 2731 4856 
z
" transform="scale(0.015625)"/>
      <path id="DejaVuSans-Oblique-74" d="M 2706 3500 
L 2619 3053 
L 1472 3053 
L 1100 1153 
Q 1081 1047 1072 975 
Q 1063 903 1063 863 
Q 1063 663 1183 572 
Q 1303 481 1569 481 
L 2150 481 
L 2053 0 
L 1503 0 
Q 991 0 739 200 
Q 488 400 488 806 
Q 488 878 497 964 
Q 506 1050 525 1153 
L 897 3053 
L 409 3053 
L 500 3500 
L 978 3500 
L 1172 4494 
L 1747 4494 
L 1556 3500 
L 2706 3500 
z
" transform="scale(0.015625)"/>
      <path id="DejaVuSans-Oblique-61" d="M 3438 1997 
L 3047 0 
L 2472 0 
L 2578 531 
Q 2325 219 2001 64 
Q 1678 -91 1281 -91 
Q 834 -91 548 182 
Q 263 456 263 884 
Q 263 1497 752 1853 
Q 1241 2209 2100 2209 
L 2900 2209 
L 2931 2363 
Q 2938 2388 2941 2417 
Q 2944 2447 2944 2509 
Q 2944 2788 2717 2942 
Q 2491 3097 2081 3097 
Q 1800 3097 1504 3025 
Q 1209 2953 897 2809 
L 997 3341 
Q 1322 3463 1633 3523 
Q 1944 3584 2234 3584 
Q 2853 3584 3176 3315 
Q 3500 3047 3500 2534 
Q 3500 2431 3484 2292 
Q 3469 2153 3438 1997 
z
M 2816 1759 
L 2241 1759 
Q 1534 1759 1195 1570 
Q 856 1381 856 984 
Q 856 709 1029 553 
Q 1203 397 1509 397 
Q 1978 397 2328 733 
Q 2678 1069 2791 1631 
L 2816 1759 
z
" transform="scale(0.015625)"/>
      <path id="DejaVuSans-Oblique-67" d="M 3816 3500 
L 3219 434 
Q 3047 -456 2561 -893 
Q 2075 -1331 1253 -1331 
Q 950 -1331 690 -1286 
Q 431 -1241 206 -1147 
L 313 -588 
Q 525 -725 762 -790 
Q 1000 -856 1269 -856 
Q 1816 -856 2167 -557 
Q 2519 -259 2631 300 
L 2681 563 
Q 2441 288 2122 144 
Q 1803 0 1434 0 
Q 903 0 598 351 
Q 294 703 294 1319 
Q 294 1803 478 2267 
Q 663 2731 997 3091 
Q 1219 3328 1514 3456 
Q 1809 3584 2131 3584 
Q 2484 3584 2746 3420 
Q 3009 3256 3138 2956 
L 3238 3500 
L 3816 3500 
z
M 2950 2216 
Q 2950 2641 2750 2872 
Q 2550 3103 2181 3103 
Q 1953 3103 1747 3012 
Q 1541 2922 1394 2759 
Q 1156 2491 1023 2127 
Q 891 1763 891 1375 
Q 891 944 1092 712 
Q 1294 481 1672 481 
Q 2219 481 2584 976 
Q 2950 1472 2950 2216 
z
" transform="scale(0.015625)"/>
      <path id="DejaVuSans-Oblique-6c" d="M 1172 4863 
L 1747 4863 
L 800 0 
L 225 0 
L 1172 4863 
z
" transform="scale(0.015625)"/>
      <path id="DejaVuSans-Oblique-70" d="M 3175 2156 
Q 3175 2616 2975 2859 
Q 2775 3103 2400 3103 
Q 2144 3103 1911 2972 
Q 1678 2841 1497 2591 
Q 1319 2344 1212 1994 
Q 1106 1644 1106 1300 
Q 1106 863 1306 627 
Q 1506 391 1875 391 
Q 2147 391 2380 519 
Q 2613 647 2778 891 
Q 2956 1147 3065 1494 
Q 3175 1841 3175 2156 
z
M 1394 2969 
Q 1625 3272 1939 3428 
Q 2253 3584 2638 3584 
Q 3175 3584 3472 3232 
Q 3769 2881 3769 2247 
Q 3769 1728 3584 1258 
Q 3400 788 3053 416 
Q 2822 169 2531 39 
Q 2241 -91 1919 -91 
Q 1547 -91 1294 64 
Q 1041 219 916 525 
L 556 -1331 
L -19 -1331 
L 922 3500 
L 1497 3500 
L 1394 2969 
z
" transform="scale(0.015625)"/>
      <path id="DejaVuSans-Oblique-72" d="M 2853 2969 
Q 2766 3016 2653 3041 
Q 2541 3066 2413 3066 
Q 1953 3066 1609 2717 
Q 1266 2369 1153 1784 
L 800 0 
L 225 0 
L 909 3500 
L 1484 3500 
L 1375 2956 
Q 1603 3259 1920 3421 
Q 2238 3584 2597 3584 
Q 2691 3584 2781 3573 
Q 2872 3563 2963 3538 
L 2853 2969 
z
" transform="scale(0.015625)"/>
      <path id="DejaVuSans-Oblique-29" d="M -397 -844 
Q 434 191 840 1120 
Q 1247 2050 1247 2913 
Q 1247 3406 1130 3892 
Q 1013 4378 775 4856 
L 1275 4856 
Q 1563 4316 1703 3812 
Q 1844 3309 1844 2822 
Q 1844 1891 1411 973 
Q 978 56 116 -844 
L -397 -844 
z
" transform="scale(0.015625)"/>
     </defs>
     <use xlink:href="#DejaVuSans-Oblique-28"/>
     <use xlink:href="#DejaVuSans-Oblique-65" transform="translate(39.013672 0)"/>
     <use xlink:href="#DejaVuSans-Oblique-6e" transform="translate(100.537109 0)"/>
     <use xlink:href="#DejaVuSans-Oblique-74" transform="translate(163.916016 0)"/>
     <use xlink:href="#DejaVuSans-Oblique-61" transform="translate(203.125 0)"/>
     <use xlink:href="#DejaVuSans-Oblique-6e" transform="translate(264.404297 0)"/>
     <use xlink:href="#DejaVuSans-Oblique-67" transform="translate(327.783203 0)"/>
     <use xlink:href="#DejaVuSans-Oblique-6c" transform="translate(391.259766 0)"/>
     <use xlink:href="#DejaVuSans-Oblique-65" transform="translate(419.042969 0)"/>
     <use xlink:href="#DejaVuSans-Oblique-64" transform="translate(480.566406 0)"/>
     <use xlink:href="#DejaVuSans-Oblique-20" transform="translate(544.042969 0)"/>
     <use xlink:href="#DejaVuSans-Oblique-70" transform="translate(575.830078 0)"/>
     <use xlink:href="#DejaVuSans-Oblique-61" transform="translate(639.306641 0)"/>
     <use xlink:href="#DejaVuSans-Oblique-69" transform="translate(700.585938 0)"/>
     <use xlink:href="#DejaVuSans-Oblique-72" transform="translate(728.369141 0)"/>
     <use xlink:href="#DejaVuSans-Oblique-29" transform="translate(769.482422 0)"/>
    </g>
   </g>
   <g id="patch_17">
    <path d="M 629.272668 235.748964 
Q 663.179296 282.743343 719.890911 294.653081 
" style="fill: none; stroke: #3498db; stroke-width: 2; stroke-linecap: round"/>
    <path d="M 630.063039 240.604405 
L 629.272668 235.748964 
L 633.631244 238.029932 
" style="fill: none; stroke: #3498db; stroke-width: 2; stroke-linecap: round"/>
    <path d="M 716.036989 291.595748 
L 719.890911 294.653081 
L 715.132691 295.901819 
" style="fill: none; stroke: #3498db; stroke-width: 2; stroke-linecap: round"/>
   </g>
   <g id="patch_18">
    <path d="M 867.427332 235.748964 
Q 833.520704 282.743343 776.809089 294.653081 
" style="fill: none; stroke: #3498db; stroke-width: 2; stroke-linecap: round"/>
    <path d="M 863.068756 238.029932 
L 867.427332 235.748964 
L 866.636961 240.604405 
" style="fill: none; stroke: #3498db; stroke-width: 2; stroke-linecap: round"/>
    <path d="M 781.567309 295.901819 
L 776.809089 294.653081 
L 780.663011 291.595748 
" style="fill: none; stroke: #3498db; stroke-width: 2; stroke-linecap: round"/>
   </g>
   <g id="patch_19">
    <path d="M 693.660636 200.997061 
Q 748.348642 169.151578 803.036625 200.99552 
" style="fill: none; stroke: #3498db; stroke-width: 2; stroke-linecap: round"/>
    <path d="M 698.570019 200.684084 
L 693.660636 200.997061 
L 696.355885 196.881768 
" style="fill: none; stroke: #3498db; stroke-width: 2; stroke-linecap: round"/>
    <path d="M 800.34129 196.880283 
L 803.036625 200.99552 
L 798.127235 200.682646 
" style="fill: none; stroke: #3498db; stroke-width: 2; stroke-linecap: round"/>
   </g>
   <g id="text_14">
    <!-- flux -->
    <g style="fill: #3498db" transform="translate(665.673216 257.167026) rotate(-45) scale(0.09 -0.09)">
     <defs>
      <path id="DejaVuSans-66" d="M 2375 4863 
L 2375 4384 
L 1825 4384 
Q 1516 4384 1395 4259 
Q 1275 4134 1275 3809 
L 1275 3500 
L 2222 3500 
L 2222 3053 
L 1275 3053 
L 1275 0 
L 697 0 
L 697 3053 
L 147 3053 
L 147 3500 
L 697 3500 
L 697 3744 
Q 697 4328 969 4595 
Q 1241 4863 1831 4863 
L 2375 4863 
z
" transform="scale(0.015625)"/>
     </defs>
     <use xlink:href="#DejaVuSans-66"/>
     <use xlink:href="#DejaVuSans-6c" transform="translate(35.205078 0)"/>
     <use xlink:href="#DejaVuSans-75" transform="translate(62.988281 0)"/>
     <use xlink:href="#DejaVuSans-78" transform="translate(126.367188 0)"/>
    </g>
   </g>
   <g id="text_15">
    <!-- flux -->
    <g style="fill: #3498db" transform="translate(822.600505 245.358895) rotate(-315) scale(0.09 -0.09)">
     <use xlink:href="#DejaVuSans-66"/>
     <use xlink:href="#DejaVuSans-6c" transform="translate(35.205078 0)"/>
     <use xlink:href="#DejaVuSans-75" transform="translate(62.988281 0)"/>
     <use xlink:href="#DejaVuSans-78" transform="translate(126.367188 0)"/>
    </g>
   </g>
   <g id="text_16">
    <!-- flux -->
    <g style="fill: #3498db" transform="translate(748.35 169.106412) scale(0.09 -0.09)">
     <use xlink:href="#DejaVuSans-66"/>
     <use xlink:href="#DejaVuSans-6c" transform="translate(35.205078 0)"/>
     <use xlink:href="#DejaVuSans-75" transform="translate(62.988281 0)"/>
     <use xlink:href="#DejaVuSans-78" transform="translate(126.367188 0)"/>
    </g>
   </g>
   <g id="text_17">
    <!-- TRD sLoop -->
    <g transform="translate(706.681406 17.837812) scale(0.14 -0.14)">
     <use xlink:href="#DejaVuSans-Bold-54"/>
     <use xlink:href="#DejaVuSans-Bold-52" transform="translate(68.212891 0)"/>
     <use xlink:href="#DejaVuSans-Bold-44" transform="translate(145.214844 0)"/>
     <use xlink:href="#DejaVuSans-Bold-20" transform="translate(228.222656 0)"/>
     <use xlink:href="#DejaVuSans-Bold-73" transform="translate(263.037109 0)"/>
     <use xlink:href="#DejaVuSans-Bold-4c" transform="translate(322.558594 0)"/>
     <use xlink:href="#DejaVuSans-Bold-6f" transform="translate(386.279297 0)"/>
     <use xlink:href="#DejaVuSans-Bold-6f" transform="translate(454.980469 0)"/>
     <use xlink:href="#DejaVuSans-Bold-70" transform="translate(523.681641 0)"/>
    </g>
   </g>
  </g>
 </g>
 <defs>
  <clipPath id="p56cabba48c">
   <rect x="7.2" y="37.837812" width="486.18" height="388.944"/>
  </clipPath>
  <clipPath id="pa21605cb1a">
   <rect x="505.26" y="37.837812" width="486.18" height="388.944"/>
  </clipPath>
 </defs>
</svg>
