<?xml version="1.0" encoding="utf-8" standalone="no"?>
<!DOCTYPE svg PUBLIC "-//W3C//DTD SVG 1.1//EN"
  "http://www.w3.org/Graphics/SVG/1.1/DTD/svg11.dtd">
<svg xmlns:xlink="http://www.w3.org/1999/xlink" width="278.82pt" height="568.877812pt" viewBox="0 0 278.82 568.877812" xmlns="http://www.w3.org/2000/svg" version="1.1">
 <metadata>
  <rdf:RDF xmlns:dc="http://purl.org/dc/elements/1.1/" xmlns:cc="http://creativecommons.org/ns#" xmlns:rdf="http://www.w3.org/1999/02/22-rdf-syntax-ns#">
   <cc:Work>
    <dc:type rdf:resource="http://purl.org/dc/dcmitype/StillImage"/>
    <dc:date>2026-01-02T16:05:21.433557</dc:date>
    <dc:format>image/svg+xml</dc:format>
    <dc:creator>
     <cc:Agent>
      <dc:title>Matplotlib v3.10.8, https://matplotlib.org/</dc:title>
     </cc:Agent>
    </dc:creator>
   </cc:Work>
  </rdf:RDF>
 </metadata>
 <defs>
  <style type="text/css">*{stroke-linejoin: round; stroke-linecap: butt}</style>
 </defs>
 <g id="figure_1">
  <g id="patch_1">
   <path d="M 0 568.877812 
L 278.82 568.877812 
L 278.82 0 
L 0 0 
z
" style="fill: #ffffff"/>
  </g>
  <g id="axes_1">
   <g id="patch_2">
    <path d="M 177.493234 505.488562 
C 180.122922 505.488562 182.645258 504.443777 184.504728 502.584307 
C 186.364198 500.724837 187.408984 498.2025 187.408984 495.572812 
C 187.408984 492.943125 186.364198 490.420788 184.504728 488.561318 
C 182.645258 486.701848 180.122922 485.657062 177.493234 485.657062 
C 174.863546 485.657062 172.34121 486.701848 170.48174 488.561318 
C 168.62227 490.420788 167.577484 492.943125 167.577484 495.572812 
C 167.577484 498.2025 168.62227 500.724837 170.48174 502.584307 
C 172.34121 504.443777 174.863546 505.488562 177.493234 505.488562 
z
" clip-path="url(#pf4d508764f)" style="fill: #2ecc71; opacity: 0.9; stroke: #2ecc71; stroke-width: 1.5; stroke-linejoin: miter"/>
   </g>
   <g id="patch_3">
    <path d="M 113.484533 439.383562 
C 116.114221 439.383562 118.636557 438.338777 120.496027 436.479307 
C 122.355497 434.619837 123.400283 432.0975 123.400283 429.467812 
C 123.400283 426.838125 122.355497 424.315788 120.496027 422.456318 
C 118.636557 420.596848 116.114221 419.552062 113.484533 419.552062 
C 110.854845 419.552062 108.332509 420.596848 106.473039 422.456318 
C 104.613569 424.315788 103.568783 426.838125 103.568783 429.467812 
C 103.568783 432.0975 104.613569 434.619837 106.473039 436.479307 
C 108.332509 438.338777 110.854845 439.383562 113.484533 439.383562 
z
" clip-path="url(#pf4d508764f)" style="fill: #2ecc71; opacity: 0.9; stroke: #2ecc71; stroke-width: 1.5; stroke-linejoin: miter"/>
   </g>
   <g id="patch_4">
    <path d="M 122.904368 373.278562 
C 125.534056 373.278562 128.056392 372.233777 129.915862 370.374307 
C 131.775332 368.514837 132.820118 365.9925 132.820118 363.362812 
C 132.820118 360.733125 131.775332 358.210788 129.915862 356.351318 
C 128.056392 354.491848 125.534056 353.447062 122.904368 353.447062 
C 120.27468 353.447062 117.752344 354.491848 115.892874 356.351318 
C 114.033404 358.210788 112.988618 360.733125 112.988618 363.362812 
C 112.988618 365.9925 114.033404 368.514837 115.892874 370.374307 
C 117.752344 372.233777 120.27468 373.278562 122.904368 373.278562 
z
" clip-path="url(#pf4d508764f)" style="fill: #2ecc71; opacity: 0.9; stroke: #2ecc71; stroke-width: 1.5; stroke-linejoin: miter"/>
   </g>
   <g id="patch_5">
    <path d="M 179.073 307.173562 
C 181.702688 307.173562 184.225024 306.128777 186.084494 304.269307 
C 187.943964 302.409837 188.98875 299.8875 188.98875 297.257812 
C 188.98875 294.628125 187.943964 292.105788 186.084494 290.246318 
C 184.225024 288.386848 181.702688 287.342062 179.073 287.342062 
C 176.443312 287.342062 173.920976 288.386848 172.061506 290.246318 
C 170.202036 292.105788 169.15725 294.628125 169.15725 297.257812 
C 169.15725 299.8875 170.202036 302.409837 172.061506 304.269307 
C 173.920976 306.128777 176.443312 307.173562 179.073 307.173562 
z
" clip-path="url(#pf4d508764f)" style="fill: #2ecc71; opacity: 0.9; stroke: #2ecc71; stroke-width: 1.5; stroke-linejoin: miter"/>
   </g>
   <g id="patch_6">
    <path d="M 122.904368 241.068562 
C 125.534056 241.068562 128.056392 240.023777 129.915862 238.164307 
C 131.775332 236.304837 132.820118 233.7825 132.820118 231.152812 
C 132.820118 228.523125 131.775332 226.000788 129.915862 224.141318 
C 128.056392 222.281848 125.534056 221.237062 122.904368 221.237062 
C 120.27468 221.237062 117.752344 222.281848 115.892874 224.141318 
C 114.033404 226.000788 112.988618 228.523125 112.988618 231.152812 
C 112.988618 233.7825 114.033404 236.304837 115.892874 238.164307 
C 117.752344 240.023777 120.27468 241.068562 122.904368 241.068562 
z
" clip-path="url(#pf4d508764f)" style="fill: #2ecc71; opacity: 0.9; stroke: #2ecc71; stroke-width: 1.5; stroke-linejoin: miter"/>
   </g>
   <g id="patch_7">
    <path d="M 113.484533 174.963562 
C 116.114221 174.963562 118.636557 173.918777 120.496027 172.059307 
C 122.355497 170.199837 123.400283 167.6775 123.400283 165.047812 
C 123.400283 162.418125 122.355497 159.895788 120.496027 158.036318 
C 118.636557 156.176848 116.114221 155.132062 113.484533 155.132062 
C 110.854845 155.132062 108.332509 156.176848 106.473039 158.036318 
C 104.613569 159.895788 103.568783 162.418125 103.568783 165.047812 
C 103.568783 167.6775 104.613569 170.199837 106.473039 172.059307 
C 108.332509 173.918777 110.854845 174.963562 113.484533 174.963562 
z
" clip-path="url(#pf4d508764f)" style="fill: #2ecc71; opacity: 0.9; stroke: #2ecc71; stroke-width: 1.5; stroke-linejoin: miter"/>
   </g>
   <g id="patch_8">
    <path d="M 177.493234 108.858562 
C 180.122922 108.858562 182.645258 107.813777 184.504728 105.954307 
C 186.364198 104.094837 187.408984 101.5725 187.408984 98.942812 
C 187.408984 96.313125 186.364198 93.790788 184.504728 91.931318 
C 182.645258 90.071848 180.122922 89.027062 177.493234 89.027062 
C 174.863546 89.027062 172.34121 90.071848 170.48174 91.931318 
C 168.62227 93.790788 167.577484 96.313125 167.577484 98.942812 
C 167.577484 101.5725 168.62227 104.094837 170.48174 105.954307 
C 172.34121 107.813777 174.863546 108.858562 177.493234 108.858562 
z
" clip-path="url(#pf4d508764f)" style="fill: #2ecc71; opacity: 0.9; stroke: #2ecc71; stroke-width: 1.5; stroke-linejoin: miter"/>
   </g>
   <g id="line2d_1">
    <path d="M 169.312025 528.625312 
L 171.069776 526.300011 
L 172.670896 523.974709 
L 174.107463 521.649408 
L 175.37237 519.324106 
L 176.459359 516.998805 
L 177.363053 514.673503 
L 178.078981 512.348202 
L 178.603601 510.0229 
L 178.934317 507.697599 
L 179.069494 505.372297 
L 179.008461 503.046996 
L 178.751522 500.721694 
L 178.299948 498.396393 
L 177.655973 496.071091 
L 176.822781 493.74579 
L 175.804497 491.420488 
L 174.606157 489.095187 
L 173.23369 486.769885 
L 171.693886 484.444584 
L 169.994363 482.119282 
L 168.14353 479.793981 
L 164.025259 475.143378 
L 159.420473 470.492775 
L 154.420182 465.842172 
L 149.123217 461.191569 
L 138.061836 451.890363 
L 129.787476 444.914458 
L 124.486419 440.263855 
L 119.480324 435.613252 
L 114.868135 430.962649 
L 110.741013 426.312046 
L 108.885263 423.986745 
L 107.180528 421.661443 
L 105.635244 419.336142 
L 104.257054 417.01084 
L 103.052778 414.685539 
L 102.028373 412.360237 
L 101.188907 410.034936 
L 100.538533 407.709634 
L 100.080469 405.384333 
L 99.816981 403.059031 
L 99.749373 400.73373 
L 99.877979 398.408428 
L 100.202163 396.083127 
L 100.720322 393.757825 
L 101.42989 391.432524 
L 102.327359 389.107222 
L 103.408288 386.781921 
L 104.667329 384.456619 
L 106.098254 382.131318 
L 107.693982 379.806016 
L 109.446621 377.480715 
L 113.387209 372.830111 
L 117.842134 368.179508 
L 122.723344 363.528905 
L 127.934363 358.878302 
L 136.142699 351.902398 
L 149.96218 340.27589 
L 155.219762 335.625287 
L 160.164867 330.974684 
L 164.699755 326.324081 
L 168.734796 321.673478 
L 170.53952 319.348177 
L 172.190236 317.022875 
L 173.678778 314.697574 
L 174.997781 312.372272 
L 176.140719 310.046971 
L 177.101938 307.721669 
L 177.876683 305.396368 
L 178.461121 303.071066 
L 178.85236 300.745765 
L 179.048464 298.420463 
L 179.048464 296.095162 
L 178.85236 293.76986 
L 178.461121 291.444559 
L 177.876683 289.119257 
L 177.101938 286.793956 
L 176.140719 284.468654 
L 174.997781 282.143353 
L 173.678778 279.818051 
L 172.190236 277.49275 
L 170.53952 275.167448 
L 168.734796 272.842147 
L 164.699755 268.191544 
L 160.164867 263.540941 
L 155.219762 258.890338 
L 149.96218 254.239735 
L 141.718411 247.26383 
L 127.934363 235.637323 
L 122.723344 230.98672 
L 117.842134 226.336117 
L 113.387209 221.685514 
L 109.446621 217.03491 
L 107.693982 214.709609 
L 106.098254 212.384307 
L 104.667329 210.059006 
L 103.408288 207.733704 
L 102.327359 205.408403 
L 101.42989 203.083101 
L 100.720322 200.7578 
L 100.202163 198.432498 
L 99.877979 196.107197 
L 99.749373 193.781895 
L 99.816981 191.456594 
L 100.080469 189.131292 
L 100.538533 186.805991 
L 101.188907 184.480689 
L 102.028373 182.155388 
L 103.052778 179.830086 
L 104.257054 177.504785 
L 105.635244 175.179483 
L 107.180528 172.854182 
L 108.885263 170.52888 
L 112.738598 165.878277 
L 117.119089 161.227674 
L 121.940157 156.577071 
L 127.106513 151.926468 
L 135.278721 144.950564 
L 149.123217 133.324056 
L 154.420182 128.673453 
L 159.420473 124.02285 
L 164.025259 119.372247 
L 168.14353 114.721644 
L 169.994363 112.396343 
L 171.693886 110.071041 
L 173.23369 107.74574 
L 174.606157 105.420438 
L 175.804497 103.095137 
L 176.822781 100.769835 
L 177.655973 98.444534 
L 178.299948 96.119232 
L 178.751522 93.793931 
L 179.008461 91.468629 
L 179.069494 89.143328 
L 178.934317 86.818026 
L 178.603601 84.492725 
L 178.078981 82.167423 
L 177.363053 79.842122 
L 176.459359 77.51682 
L 175.37237 75.191519 
L 174.107463 72.866217 
L 172.670896 70.540916 
L 171.069776 68.215614 
L 169.312025 65.890312 
L 169.312025 65.890312 
" clip-path="url(#pf4d508764f)" style="fill: none; stroke: #e74c3c; stroke-opacity: 0.8; stroke-width: 3.75; stroke-linecap: square"/>
   </g>
   <g id="line2d_2">
    <path d="M 113.484533 429.467812 
L 122.904368 363.362812 
" clip-path="url(#pf4d508764f)" style="fill: none; stroke-dasharray: 3.7,1.6; stroke-dashoffset: 0; stroke: #f39c12; stroke-opacity: 0.6"/>
   </g>
   <g id="line2d_3">
    <path d="M 122.904368 363.362812 
L 179.073 297.257812 
" clip-path="url(#pf4d508764f)" style="fill: none; stroke-dasharray: 3.7,1.6; stroke-dashoffset: 0; stroke: #f39c12; stroke-opacity: 0.6"/>
   </g>
   <g id="line2d_4">
    <path d="M 179.073 297.257812 
L 122.904368 231.152812 
" clip-path="url(#pf4d508764f)" style="fill: none; stroke-dasharray: 3.7,1.6; stroke-dashoffset: 0; stroke: #f39c12; stroke-opacity: 0.6"/>
   </g>
   <g id="line2d_5">
    <path d="M 122.904368 231.152812 
L 113.484533 165.047812 
" clip-path="url(#pf4d508764f)" style="fill: none; stroke-dasharray: 3.7,1.6; stroke-dashoffset: 0; stroke: #f39c12; stroke-opacity: 0.6"/>
   </g>
   <g id="line2d_6">
    <path d="M 113.484533 165.047812 
L 177.493234 98.942812 
" clip-path="url(#pf4d508764f)" style="fill: none; stroke-dasharray: 3.7,1.6; stroke-dashoffset: 0; stroke: #f39c12; stroke-opacity: 0.6"/>
   </g>
   <g id="text_1">
    <!-- H-bonds -->
    <g style="fill: #f39c12" transform="translate(218.736 279.341312) scale(0.08 -0.08)">
     <defs>
      <path id="DejaVuSans-48" d="M 628 4666 
L 1259 4666 
L 1259 2753 
L 3553 2753 
L 3553 4666 
L 4184 4666 
L 4184 0 
L 3553 0 
L 3553 2222 
L 1259 2222 
L 1259 0 
L 628 0 
L 628 4666 
z
" transform="scale(0.015625)"/>
      <path id="DejaVuSans-2d" d="M 313 2009 
L 1997 2009 
L 1997 1497 
L 313 1497 
L 313 2009 
z
" transform="scale(0.015625)"/>
      <path id="DejaVuSans-62" d="M 3116 1747 
Q 3116 2381 2855 2742 
Q 2594 3103 2138 3103 
Q 1681 3103 1420 2742 
Q 1159 2381 1159 1747 
Q 1159 1113 1420 752 
Q 1681 391 2138 391 
Q 2594 391 2855 752 
Q 3116 1113 3116 1747 
z
M 1159 2969 
Q 1341 3281 1617 3432 
Q 1894 3584 2278 3584 
Q 2916 3584 3314 3078 
Q 3713 2572 3713 1747 
Q 3713 922 3314 415 
Q 2916 -91 2278 -91 
Q 1894 -91 1617 61 
Q 1341 213 1159 525 
L 1159 0 
L 581 0 
L 581 4863 
L 1159 4863 
L 1159 2969 
z
" transform="scale(0.015625)"/>
      <path id="DejaVuSans-6f" d="M 1959 3097 
Q 1497 3097 1228 2736 
Q 959 2375 959 1747 
Q 959 1119 1226 758 
Q 1494 397 1959 397 
Q 2419 397 2687 759 
Q 2956 1122 2956 1747 
Q 2956 2369 2687 2733 
Q 2419 3097 1959 3097 
z
M 1959 3584 
Q 2709 3584 3137 3096 
Q 3566 2609 3566 1747 
Q 3566 888 3137 398 
Q 2709 -91 1959 -91 
Q 1206 -91 779 398 
Q 353 888 353 1747 
Q 353 2609 779 3096 
Q 1206 3584 1959 3584 
z
" transform="scale(0.015625)"/>
      <path id="DejaVuSans-6e" d="M 3513 2113 
L 3513 0 
L 2938 0 
L 2938 2094 
Q 2938 2591 2744 2837 
Q 2550 3084 2163 3084 
Q 1697 3084 1428 2787 
Q 1159 2491 1159 1978 
L 1159 0 
L 581 0 
L 581 3500 
L 1159 3500 
L 1159 2956 
Q 1366 3272 1645 3428 
Q 1925 3584 2291 3584 
Q 2894 3584 3203 3211 
Q 3513 2838 3513 2113 
z
" transform="scale(0.015625)"/>
      <path id="DejaVuSans-64" d="M 2906 2969 
L 2906 4863 
L 3481 4863 
L 3481 0 
L 2906 0 
L 2906 525 
Q 2725 213 2448 61 
Q 2172 -91 1784 -91 
Q 1150 -91 751 415 
Q 353 922 353 1747 
Q 353 2572 751 3078 
Q 1150 3584 1784 3584 
Q 2172 3584 2448 3432 
Q 2725 3281 2906 2969 
z
M 947 1747 
Q 947 1113 1208 752 
Q 1469 391 1925 391 
Q 2381 391 2643 752 
Q 2906 1113 2906 1747 
Q 2906 2381 2643 2742 
Q 2381 3103 1925 3103 
Q 1469 3103 1208 2742 
Q 947 2381 947 1747 
z
" transform="scale(0.015625)"/>
      <path id="DejaVuSans-73" d="M 2834 3397 
L 2834 2853 
Q 2591 2978 2328 3040 
Q 2066 3103 1784 3103 
Q 1356 3103 1142 2972 
Q 928 2841 928 2578 
Q 928 2378 1081 2264 
Q 1234 2150 1697 2047 
L 1894 2003 
Q 2506 1872 2764 1633 
Q 3022 1394 3022 966 
Q 3022 478 2636 193 
Q 2250 -91 1575 -91 
Q 1294 -91 989 -36 
Q 684 19 347 128 
L 347 722 
Q 666 556 975 473 
Q 1284 391 1588 391 
Q 1994 391 2212 530 
Q 2431 669 2431 922 
Q 2431 1156 2273 1281 
Q 2116 1406 1581 1522 
L 1381 1569 
Q 847 1681 609 1914 
Q 372 2147 372 2553 
Q 372 3047 722 3315 
Q 1072 3584 1716 3584 
Q 2034 3584 2315 3537 
Q 2597 3491 2834 3397 
z
" transform="scale(0.015625)"/>
     </defs>
     <use xlink:href="#DejaVuSans-48"/>
     <use xlink:href="#DejaVuSans-2d" transform="translate(75.195312 0)"/>
     <use xlink:href="#DejaVuSans-62" transform="translate(111.279297 0)"/>
     <use xlink:href="#DejaVuSans-6f" transform="translate(174.755859 0)"/>
     <use xlink:href="#DejaVuSans-6e" transform="translate(235.9375 0)"/>
     <use xlink:href="#DejaVuSans-64" transform="translate(299.316406 0)"/>
     <use xlink:href="#DejaVuSans-73" transform="translate(362.792969 0)"/>
    </g>
    <!-- stabilize -->
    <g style="fill: #f39c12" transform="translate(218.736 288.299562) scale(0.08 -0.08)">
     <defs>
      <path id="DejaVuSans-74" d="M 1172 4494 
L 1172 3500 
L 2356 3500 
L 2356 3053 
L 1172 3053 
L 1172 1153 
Q 1172 725 1289 603 
Q 1406 481 1766 481 
L 2356 481 
L 2356 0 
L 1766 0 
Q 1100 0 847 248 
Q 594 497 594 1153 
L 594 3053 
L 172 3053 
L 172 3500 
L 594 3500 
L 594 4494 
L 1172 4494 
z
" transform="scale(0.015625)"/>
      <path id="DejaVuSans-61" d="M 2194 1759 
Q 1497 1759 1228 1600 
Q 959 1441 959 1056 
Q 959 750 1161 570 
Q 1363 391 1709 391 
Q 2188 391 2477 730 
Q 2766 1069 2766 1631 
L 2766 1759 
L 2194 1759 
z
M 3341 1997 
L 3341 0 
L 2766 0 
L 2766 531 
Q 2569 213 2275 61 
Q 1981 -91 1556 -91 
Q 1019 -91 701 211 
Q 384 513 384 1019 
Q 384 1609 779 1909 
Q 1175 2209 1959 2209 
L 2766 2209 
L 2766 2266 
Q 2766 2663 2505 2880 
Q 2244 3097 1772 3097 
Q 1472 3097 1187 3025 
Q 903 2953 641 2809 
L 641 3341 
Q 956 3463 1253 3523 
Q 1550 3584 1831 3584 
Q 2591 3584 2966 3190 
Q 3341 2797 3341 1997 
z
" transform="scale(0.015625)"/>
      <path id="DejaVuSans-69" d="M 603 3500 
L 1178 3500 
L 1178 0 
L 603 0 
L 603 3500 
z
M 603 4863 
L 1178 4863 
L 1178 4134 
L 603 4134 
L 603 4863 
z
" transform="scale(0.015625)"/>
      <path id="DejaVuSans-6c" d="M 603 4863 
L 1178 4863 
L 1178 0 
L 603 0 
L 603 4863 
z
" transform="scale(0.015625)"/>
      <path id="DejaVuSans-7a" d="M 353 3500 
L 3084 3500 
L 3084 2975 
L 922 459 
L 3084 459 
L 3084 0 
L 275 0 
L 275 525 
L 2438 3041 
L 353 3041 
L 353 3500 
z
" transform="scale(0.015625)"/>
      <path id="DejaVuSans-65" d="M 3597 1894 
L 3597 1613 
L 953 1613 
Q 991 1019 1311 708 
Q 1631 397 2203 397 
Q 2534 397 2845 478 
Q 3156 559 3463 722 
L 3463 178 
Q 3153 47 2828 -22 
Q 2503 -91 2169 -91 
Q 1331 -91 842 396 
Q 353 884 353 1716 
Q 353 2575 817 3079 
Q 1281 3584 2069 3584 
Q 2775 3584 3186 3129 
Q 3597 2675 3597 1894 
z
M 3022 2063 
Q 3016 2534 2758 2815 
Q 2500 3097 2075 3097 
Q 1594 3097 1305 2825 
Q 1016 2553 972 2059 
L 3022 2063 
z
" transform="scale(0.015625)"/>
     </defs>
     <use xlink:href="#DejaVuSans-73"/>
     <use xlink:href="#DejaVuSans-74" transform="translate(52.099609 0)"/>
     <use xlink:href="#DejaVuSans-61" transform="translate(91.308594 0)"/>
     <use xlink:href="#DejaVuSans-62" transform="translate(152.587891 0)"/>
     <use xlink:href="#DejaVuSans-69" transform="translate(216.064453 0)"/>
     <use xlink:href="#DejaVuSans-6c" transform="translate(243.847656 0)"/>
     <use xlink:href="#DejaVuSans-69" transform="translate(271.630859 0)"/>
     <use xlink:href="#DejaVuSans-7a" transform="translate(299.414062 0)"/>
     <use xlink:href="#DejaVuSans-65" transform="translate(351.904297 0)"/>
    </g>
    <!-- helix -->
    <g style="fill: #f39c12" transform="translate(218.736 297.257812) scale(0.08 -0.08)">
     <defs>
      <path id="DejaVuSans-68" d="M 3513 2113 
L 3513 0 
L 2938 0 
L 2938 2094 
Q 2938 2591 2744 2837 
Q 2550 3084 2163 3084 
Q 1697 3084 1428 2787 
Q 1159 2491 1159 1978 
L 1159 0 
L 581 0 
L 581 4863 
L 1159 4863 
L 1159 2956 
Q 1366 3272 1645 3428 
Q 1925 3584 2291 3584 
Q 2894 3584 3203 3211 
Q 3513 2838 3513 2113 
z
" transform="scale(0.015625)"/>
      <path id="DejaVuSans-78" d="M 3513 3500 
L 2247 1797 
L 3578 0 
L 2900 0 
L 1881 1375 
L 863 0 
L 184 0 
L 1544 1831 
L 300 3500 
L 978 3500 
L 1906 2253 
L 2834 3500 
L 3513 3500 
z
" transform="scale(0.015625)"/>
     </defs>
     <use xlink:href="#DejaVuSans-68"/>
     <use xlink:href="#DejaVuSans-65" transform="translate(63.378906 0)"/>
     <use xlink:href="#DejaVuSans-6c" transform="translate(124.902344 0)"/>
     <use xlink:href="#DejaVuSans-69" transform="translate(152.685547 0)"/>
     <use xlink:href="#DejaVuSans-78" transform="translate(180.46875 0)"/>
    </g>
   </g>
   <g id="text_2">
    <!-- α-Helix Structure -->
    <g transform="translate(79.882656 17.837812) scale(0.14 -0.14)">
     <defs>
      <path id="DejaVuSans-3b1" d="M 2644 1628 
L 2506 2350 
Q 2366 3091 1809 3091 
Q 1391 3091 1200 2747 
Q 959 2316 959 1747 
Q 959 1059 1194 731 
Q 1431 397 1809 397 
Q 2228 397 2453 1063 
L 2644 1628 
z
M 2966 2584 
L 3275 3500 
L 3788 3500 
L 3147 1603 
L 3272 919 
Q 3300 766 3409 638 
Q 3538 488 3638 488 
L 3913 488 
L 3913 0 
L 3569 0 
Q 3275 0 3013 263 
Q 2884 394 2831 669 
Q 2688 322 2394 50 
Q 2256 -78 1809 -78 
Q 1075 -78 719 397 
Q 353 888 353 1747 
Q 353 2666 750 3097 
Q 1191 3578 1809 3578 
Q 2781 3578 2966 2584 
z
" transform="scale(0.015625)"/>
      <path id="DejaVuSans-20" transform="scale(0.015625)"/>
      <path id="DejaVuSans-53" d="M 3425 4513 
L 3425 3897 
Q 3066 4069 2747 4153 
Q 2428 4238 2131 4238 
Q 1616 4238 1336 4038 
Q 1056 3838 1056 3469 
Q 1056 3159 1242 3001 
Q 1428 2844 1947 2747 
L 2328 2669 
Q 3034 2534 3370 2195 
Q 3706 1856 3706 1288 
Q 3706 609 3251 259 
Q 2797 -91 1919 -91 
Q 1588 -91 1214 -16 
Q 841 59 441 206 
L 441 856 
Q 825 641 1194 531 
Q 1563 422 1919 422 
Q 2459 422 2753 634 
Q 3047 847 3047 1241 
Q 3047 1584 2836 1778 
Q 2625 1972 2144 2069 
L 1759 2144 
Q 1053 2284 737 2584 
Q 422 2884 422 3419 
Q 422 4038 858 4394 
Q 1294 4750 2059 4750 
Q 2388 4750 2728 4690 
Q 3069 4631 3425 4513 
z
" transform="scale(0.015625)"/>
      <path id="DejaVuSans-72" d="M 2631 2963 
Q 2534 3019 2420 3045 
Q 2306 3072 2169 3072 
Q 1681 3072 1420 2755 
Q 1159 2438 1159 1844 
L 1159 0 
L 581 0 
L 581 3500 
L 1159 3500 
L 1159 2956 
Q 1341 3275 1631 3429 
Q 1922 3584 2338 3584 
Q 2397 3584 2469 3576 
Q 2541 3569 2628 3553 
L 2631 2963 
z
" transform="scale(0.015625)"/>
      <path id="DejaVuSans-75" d="M 544 1381 
L 544 3500 
L 1119 3500 
L 1119 1403 
Q 1119 906 1312 657 
Q 1506 409 1894 409 
Q 2359 409 2629 706 
Q 2900 1003 2900 1516 
L 2900 3500 
L 3475 3500 
L 3475 0 
L 2900 0 
L 2900 538 
Q 2691 219 2414 64 
Q 2138 -91 1772 -91 
Q 1169 -91 856 284 
Q 544 659 544 1381 
z
M 1991 3584 
L 1991 3584 
z
" transform="scale(0.015625)"/>
      <path id="DejaVuSans-63" d="M 3122 3366 
L 3122 2828 
Q 2878 2963 2633 3030 
Q 2388 3097 2138 3097 
Q 1578 3097 1268 2742 
Q 959 2388 959 1747 
Q 959 1106 1268 751 
Q 1578 397 2138 397 
Q 2388 397 2633 464 
Q 2878 531 3122 666 
L 3122 134 
Q 2881 22 2623 -34 
Q 2366 -91 2075 -91 
Q 1284 -91 818 406 
Q 353 903 353 1747 
Q 353 2603 823 3093 
Q 1294 3584 2113 3584 
Q 2378 3584 2631 3529 
Q 2884 3475 3122 3366 
z
" transform="scale(0.015625)"/>
     </defs>
     <use xlink:href="#DejaVuSans-3b1"/>
     <use xlink:href="#DejaVuSans-2d" transform="translate(65.917969 0)"/>
     <use xlink:href="#DejaVuSans-48" transform="translate(102.001953 0)"/>
     <use xlink:href="#DejaVuSans-65" transform="translate(177.197266 0)"/>
     <use xlink:href="#DejaVuSans-6c" transform="translate(238.720703 0)"/>
     <use xlink:href="#DejaVuSans-69" transform="translate(266.503906 0)"/>
     <use xlink:href="#DejaVuSans-78" transform="translate(294.287109 0)"/>
     <use xlink:href="#DejaVuSans-20" transform="translate(353.466797 0)"/>
     <use xlink:href="#DejaVuSans-53" transform="translate(385.253906 0)"/>
     <use xlink:href="#DejaVuSans-74" transform="translate(448.730469 0)"/>
     <use xlink:href="#DejaVuSans-72" transform="translate(487.939453 0)"/>
     <use xlink:href="#DejaVuSans-75" transform="translate(529.052734 0)"/>
     <use xlink:href="#DejaVuSans-63" transform="translate(592.431641 0)"/>
     <use xlink:href="#DejaVuSans-74" transform="translate(647.412109 0)"/>
     <use xlink:href="#DejaVuSans-75" transform="translate(686.621094 0)"/>
     <use xlink:href="#DejaVuSans-72" transform="translate(750 0)"/>
     <use xlink:href="#DejaVuSans-65" transform="translate(788.863281 0)"/>
    </g>
   </g>
  </g>
 </g>
 <defs>
  <clipPath id="pf4d508764f">
   <rect x="7.2" y="32.837812" width="264.42" height="528.84"/>
  </clipPath>
 </defs>
</svg>
