<?xml version="1.0" encoding="utf-8" standalone="no"?>
<!DOCTYPE svg PUBLIC "-//W3C//DTD SVG 1.1//EN"
  "http://www.w3.org/Graphics/SVG/1.1/DTD/svg11.dtd">
<svg xmlns:xlink="http://www.w3.org/1999/xlink" width="708.48pt" height="568.8pt" viewBox="0 0 708.48 568.8" xmlns="http://www.w3.org/2000/svg" version="1.1">
 <metadata>
  <rdf:RDF xmlns:dc="http://purl.org/dc/elements/1.1/" xmlns:cc="http://creativecommons.org/ns#" xmlns:rdf="http://www.w3.org/1999/02/22-rdf-syntax-ns#">
   <cc:Work>
    <dc:type rdf:resource="http://purl.org/dc/dcmitype/StillImage"/>
    <dc:date>2026-01-02T16:05:20.639101</dc:date>
    <dc:format>image/svg+xml</dc:format>
    <dc:creator>
     <cc:Agent>
      <dc:title>Matplotlib v3.10.8, https://matplotlib.org/</dc:title>
     </cc:Agent>
    </dc:creator>
   </cc:Work>
  </rdf:RDF>
 </metadata>
 <defs>
  <style type="text/css">*{stroke-linejoin: round; stroke-linecap: butt}</style>
 </defs>
 <g id="figure_1">
  <g id="patch_1">
   <path d="M 0 568.8 
L 708.48 568.8 
L 708.48 0 
L 0 0 
z
" style="fill: #ffffff"/>
  </g>
  <g id="axes_1">
   <g id="patch_2">
    <path d="M 122.88 472.896 
C 129.015739 472.896 134.901 470.559397 139.239622 466.4008 
C 143.578245 462.242203 146.016 456.601144 146.016 450.72 
C 146.016 444.838856 143.578245 439.197797 139.239622 435.0392 
C 134.901 430.880603 129.015739 428.544 122.88 428.544 
C 116.744261 428.544 110.859 430.880603 106.520378 435.0392 
C 102.181755 439.197797 99.744 444.838856 99.744 450.72 
C 99.744 456.601144 102.181755 462.242203 106.520378 466.4008 
C 110.859 470.559397 116.744261 472.896 122.88 472.896 
z
" clip-path="url(#p104f837262)" style="fill: #e74c3c; stroke: #000000; stroke-width: 2; stroke-linejoin: miter"/>
   </g>
   <g id="patch_3">
    <path d="M 209.64 472.896 
C 215.775739 472.896 221.661 470.559397 225.999622 466.4008 
C 230.338245 462.242203 232.776 456.601144 232.776 450.72 
C 232.776 444.838856 230.338245 439.197797 225.999622 435.0392 
C 221.661 430.880603 215.775739 428.544 209.64 428.544 
C 203.504261 428.544 197.619 430.880603 193.280378 435.0392 
C 188.941755 439.197797 186.504 444.838856 186.504 450.72 
C 186.504 456.601144 188.941755 462.242203 193.280378 466.4008 
C 197.619 470.559397 203.504261 472.896 209.64 472.896 
z
" clip-path="url(#p104f837262)" style="fill: #e74c3c; stroke: #000000; stroke-width: 2; stroke-linejoin: miter"/>
   </g>
   <g id="patch_4">
    <path d="M 296.4 472.896 
C 302.535739 472.896 308.421 470.559397 312.759622 466.4008 
C 317.098245 462.242203 319.536 456.601144 319.536 450.72 
C 319.536 444.838856 317.098245 439.197797 312.759622 435.0392 
C 308.421 430.880603 302.535739 428.544 296.4 428.544 
C 290.264261 428.544 284.379 430.880603 280.040378 435.0392 
C 275.701755 439.197797 273.264 444.838856 273.264 450.72 
C 273.264 456.601144 275.701755 462.242203 280.040378 466.4008 
C 284.379 470.559397 290.264261 472.896 296.4 472.896 
z
" clip-path="url(#p104f837262)" style="fill: #e74c3c; stroke: #000000; stroke-width: 2; stroke-linejoin: miter"/>
   </g>
   <g id="patch_5">
    <path d="M 383.16 472.896 
C 389.295739 472.896 395.181 470.559397 399.519622 466.4008 
C 403.858245 462.242203 406.296 456.601144 406.296 450.72 
C 406.296 444.838856 403.858245 439.197797 399.519622 435.0392 
C 395.181 430.880603 389.295739 428.544 383.16 428.544 
C 377.024261 428.544 371.139 430.880603 366.800378 435.0392 
C 362.461755 439.197797 360.024 444.838856 360.024 450.72 
C 360.024 456.601144 362.461755 462.242203 366.800378 466.4008 
C 371.139 470.559397 377.024261 472.896 383.16 472.896 
z
" clip-path="url(#p104f837262)" style="fill: #e74c3c; stroke: #000000; stroke-width: 2; stroke-linejoin: miter"/>
   </g>
   <g id="patch_6">
    <path d="M 469.92 472.896 
C 476.055739 472.896 481.941 470.559397 486.279622 466.4008 
C 490.618245 462.242203 493.056 456.601144 493.056 450.72 
C 493.056 444.838856 490.618245 439.197797 486.279622 435.0392 
C 481.941 430.880603 476.055739 428.544 469.92 428.544 
C 463.784261 428.544 457.899 430.880603 453.560378 435.0392 
C 449.221755 439.197797 446.784 444.838856 446.784 450.72 
C 446.784 456.601144 449.221755 462.242203 453.560378 466.4008 
C 457.899 470.559397 463.784261 472.896 469.92 472.896 
z
" clip-path="url(#p104f837262)" style="fill: #e74c3c; stroke: #000000; stroke-width: 2; stroke-linejoin: miter"/>
   </g>
   <g id="patch_7">
    <path d="M 556.68 472.896 
C 562.815739 472.896 568.701 470.559397 573.039622 466.4008 
C 577.378245 462.242203 579.816 456.601144 579.816 450.72 
C 579.816 444.838856 577.378245 439.197797 573.039622 435.0392 
C 568.701 430.880603 562.815739 428.544 556.68 428.544 
C 550.544261 428.544 544.659 430.880603 540.320378 435.0392 
C 535.981755 439.197797 533.544 444.838856 533.544 450.72 
C 533.544 456.601144 535.981755 462.242203 540.320378 466.4008 
C 544.659 470.559397 550.544261 472.896 556.68 472.896 
z
" clip-path="url(#p104f837262)" style="fill: #e74c3c; stroke: #000000; stroke-width: 2; stroke-linejoin: miter"/>
   </g>
   <g id="patch_8">
    <path d="M 166.26 306.576 
C 172.395739 306.576 178.281 304.239397 182.619622 300.0808 
C 186.958245 295.922203 189.396 290.281144 189.396 284.4 
C 189.396 278.518856 186.958245 272.877797 182.619622 268.7192 
C 178.281 264.560603 172.395739 262.224 166.26 262.224 
C 160.124261 262.224 154.239 264.560603 149.900378 268.7192 
C 145.561755 272.877797 143.124 278.518856 143.124 284.4 
C 143.124 290.281144 145.561755 295.922203 149.900378 300.0808 
C 154.239 304.239397 160.124261 306.576 166.26 306.576 
z
" clip-path="url(#p104f837262)" style="fill: #9b59b6; stroke: #000000; stroke-width: 2; stroke-linejoin: miter"/>
   </g>
   <g id="patch_9">
    <path d="M 253.02 306.576 
C 259.155739 306.576 265.041 304.239397 269.379622 300.0808 
C 273.718245 295.922203 276.156 290.281144 276.156 284.4 
C 276.156 278.518856 273.718245 272.877797 269.379622 268.7192 
C 265.041 264.560603 259.155739 262.224 253.02 262.224 
C 246.884261 262.224 240.999 264.560603 236.660378 268.7192 
C 232.321755 272.877797 229.884 278.518856 229.884 284.4 
C 229.884 290.281144 232.321755 295.922203 236.660378 300.0808 
C 240.999 304.239397 246.884261 306.576 253.02 306.576 
z
" clip-path="url(#p104f837262)" style="fill: #9b59b6; stroke: #000000; stroke-width: 2; stroke-linejoin: miter"/>
   </g>
   <g id="patch_10">
    <path d="M 339.78 306.576 
C 345.915739 306.576 351.801 304.239397 356.139622 300.0808 
C 360.478245 295.922203 362.916 290.281144 362.916 284.4 
C 362.916 278.518856 360.478245 272.877797 356.139622 268.7192 
C 351.801 264.560603 345.915739 262.224 339.78 262.224 
C 333.644261 262.224 327.759 264.560603 323.420378 268.7192 
C 319.081755 272.877797 316.644 278.518856 316.644 284.4 
C 316.644 290.281144 319.081755 295.922203 323.420378 300.0808 
C 327.759 304.239397 333.644261 306.576 339.78 306.576 
z
" clip-path="url(#p104f837262)" style="fill: #9b59b6; stroke: #000000; stroke-width: 2; stroke-linejoin: miter"/>
   </g>
   <g id="patch_11">
    <path d="M 426.54 306.576 
C 432.675739 306.576 438.561 304.239397 442.899622 300.0808 
C 447.238245 295.922203 449.676 290.281144 449.676 284.4 
C 449.676 278.518856 447.238245 272.877797 442.899622 268.7192 
C 438.561 264.560603 432.675739 262.224 426.54 262.224 
C 420.404261 262.224 414.519 264.560603 410.180378 268.7192 
C 405.841755 272.877797 403.404 278.518856 403.404 284.4 
C 403.404 290.281144 405.841755 295.922203 410.180378 300.0808 
C 414.519 304.239397 420.404261 306.576 426.54 306.576 
z
" clip-path="url(#p104f837262)" style="fill: #9b59b6; stroke: #000000; stroke-width: 2; stroke-linejoin: miter"/>
   </g>
   <g id="patch_12">
    <path d="M 513.3 306.576 
C 519.435739 306.576 525.321 304.239397 529.659622 300.0808 
C 533.998245 295.922203 536.436 290.281144 536.436 284.4 
C 536.436 278.518856 533.998245 272.877797 529.659622 268.7192 
C 525.321 264.560603 519.435739 262.224 513.3 262.224 
C 507.164261 262.224 501.279 264.560603 496.940378 268.7192 
C 492.601755 272.877797 490.164 278.518856 490.164 284.4 
C 490.164 290.281144 492.601755 295.922203 496.940378 300.0808 
C 501.279 304.239397 507.164261 306.576 513.3 306.576 
z
" clip-path="url(#p104f837262)" style="fill: #9b59b6; stroke: #000000; stroke-width: 2; stroke-linejoin: miter"/>
   </g>
   <g id="patch_13">
    <path d="M 122.88 140.256 
C 129.015739 140.256 134.901 137.919397 139.239622 133.7608 
C 143.578245 129.602203 146.016 123.961144 146.016 118.08 
C 146.016 112.198856 143.578245 106.557797 139.239622 102.3992 
C 134.901 98.240603 129.015739 95.904 122.88 95.904 
C 116.744261 95.904 110.859 98.240603 106.520378 102.3992 
C 102.181755 106.557797 99.744 112.198856 99.744 118.08 
C 99.744 123.961144 102.181755 129.602203 106.520378 133.7608 
C 110.859 137.919397 116.744261 140.256 122.88 140.256 
z
" clip-path="url(#p104f837262)" style="fill: #e74c3c; stroke: #000000; stroke-width: 2; stroke-linejoin: miter"/>
   </g>
   <g id="patch_14">
    <path d="M 209.64 140.256 
C 215.775739 140.256 221.661 137.919397 225.999622 133.7608 
C 230.338245 129.602203 232.776 123.961144 232.776 118.08 
C 232.776 112.198856 230.338245 106.557797 225.999622 102.3992 
C 221.661 98.240603 215.775739 95.904 209.64 95.904 
C 203.504261 95.904 197.619 98.240603 193.280378 102.3992 
C 188.941755 106.557797 186.504 112.198856 186.504 118.08 
C 186.504 123.961144 188.941755 129.602203 193.280378 133.7608 
C 197.619 137.919397 203.504261 140.256 209.64 140.256 
z
" clip-path="url(#p104f837262)" style="fill: #e74c3c; stroke: #000000; stroke-width: 2; stroke-linejoin: miter"/>
   </g>
   <g id="patch_15">
    <path d="M 296.4 140.256 
C 302.535739 140.256 308.421 137.919397 312.759622 133.7608 
C 317.098245 129.602203 319.536 123.961144 319.536 118.08 
C 319.536 112.198856 317.098245 106.557797 312.759622 102.3992 
C 308.421 98.240603 302.535739 95.904 296.4 95.904 
C 290.264261 95.904 284.379 98.240603 280.040378 102.3992 
C 275.701755 106.557797 273.264 112.198856 273.264 118.08 
C 273.264 123.961144 275.701755 129.602203 280.040378 133.7608 
C 284.379 137.919397 290.264261 140.256 296.4 140.256 
z
" clip-path="url(#p104f837262)" style="fill: #e74c3c; stroke: #000000; stroke-width: 2; stroke-linejoin: miter"/>
   </g>
   <g id="patch_16">
    <path d="M 383.16 140.256 
C 389.295739 140.256 395.181 137.919397 399.519622 133.7608 
C 403.858245 129.602203 406.296 123.961144 406.296 118.08 
C 406.296 112.198856 403.858245 106.557797 399.519622 102.3992 
C 395.181 98.240603 389.295739 95.904 383.16 95.904 
C 377.024261 95.904 371.139 98.240603 366.800378 102.3992 
C 362.461755 106.557797 360.024 112.198856 360.024 118.08 
C 360.024 123.961144 362.461755 129.602203 366.800378 133.7608 
C 371.139 137.919397 377.024261 140.256 383.16 140.256 
z
" clip-path="url(#p104f837262)" style="fill: #e74c3c; stroke: #000000; stroke-width: 2; stroke-linejoin: miter"/>
   </g>
   <g id="patch_17">
    <path d="M 469.92 140.256 
C 476.055739 140.256 481.941 137.919397 486.279622 133.7608 
C 490.618245 129.602203 493.056 123.961144 493.056 118.08 
C 493.056 112.198856 490.618245 106.557797 486.279622 102.3992 
C 481.941 98.240603 476.055739 95.904 469.92 95.904 
C 463.784261 95.904 457.899 98.240603 453.560378 102.3992 
C 449.221755 106.557797 446.784 112.198856 446.784 118.08 
C 446.784 123.961144 449.221755 129.602203 453.560378 133.7608 
C 457.899 137.919397 463.784261 140.256 469.92 140.256 
z
" clip-path="url(#p104f837262)" style="fill: #e74c3c; stroke: #000000; stroke-width: 2; stroke-linejoin: miter"/>
   </g>
   <g id="patch_18">
    <path d="M 556.68 140.256 
C 562.815739 140.256 568.701 137.919397 573.039622 133.7608 
C 577.378245 129.602203 579.816 123.961144 579.816 118.08 
C 579.816 112.198856 577.378245 106.557797 573.039622 102.3992 
C 568.701 98.240603 562.815739 95.904 556.68 95.904 
C 550.544261 95.904 544.659 98.240603 540.320378 102.3992 
C 535.981755 106.557797 533.544 112.198856 533.544 118.08 
C 533.544 123.961144 535.981755 129.602203 540.320378 133.7608 
C 544.659 137.919397 550.544261 140.256 556.68 140.256 
z
" clip-path="url(#p104f837262)" style="fill: #e74c3c; stroke: #000000; stroke-width: 2; stroke-linejoin: miter"/>
   </g>
   <g id="line2d_1">
    <path d="M 122.88 478.44 
L 122.88 90.36 
" clip-path="url(#p104f837262)" style="fill: none; stroke-dasharray: 3.7,1.6; stroke-dashoffset: 0; stroke: #95a5a6; stroke-opacity: 0.5"/>
   </g>
   <g id="line2d_2">
    <path d="M 296.4 478.44 
L 296.4 90.36 
" clip-path="url(#p104f837262)" style="fill: none; stroke-dasharray: 3.7,1.6; stroke-dashoffset: 0; stroke: #95a5a6; stroke-opacity: 0.5"/>
   </g>
   <g id="line2d_3">
    <path d="M 469.92 478.44 
L 469.92 90.36 
" clip-path="url(#p104f837262)" style="fill: none; stroke-dasharray: 3.7,1.6; stroke-dashoffset: 0; stroke: #95a5a6; stroke-opacity: 0.5"/>
   </g>
   <g id="text_1">
    <!-- Layer A -->
    <g transform="translate(643.44 453.9375) scale(0.12 -0.12)">
     <defs>
      <path id="DejaVuSans-Bold-4c" d="M 588 4666 
L 1791 4666 
L 1791 909 
L 3903 909 
L 3903 0 
L 588 0 
L 588 4666 
z
" transform="scale(0.015625)"/>
      <path id="DejaVuSans-Bold-61" d="M 2106 1575 
Q 1756 1575 1579 1456 
Q 1403 1338 1403 1106 
Q 1403 894 1545 773 
Q 1688 653 1941 653 
Q 2256 653 2472 879 
Q 2688 1106 2688 1447 
L 2688 1575 
L 2106 1575 
z
M 3816 1997 
L 3816 0 
L 2688 0 
L 2688 519 
Q 2463 200 2181 54 
Q 1900 -91 1497 -91 
Q 953 -91 614 226 
Q 275 544 275 1050 
Q 275 1666 698 1953 
Q 1122 2241 2028 2241 
L 2688 2241 
L 2688 2328 
Q 2688 2594 2478 2717 
Q 2269 2841 1825 2841 
Q 1466 2841 1156 2769 
Q 847 2697 581 2553 
L 581 3406 
Q 941 3494 1303 3539 
Q 1666 3584 2028 3584 
Q 2975 3584 3395 3211 
Q 3816 2838 3816 1997 
z
" transform="scale(0.015625)"/>
      <path id="DejaVuSans-Bold-79" d="M 78 3500 
L 1197 3500 
L 2138 1125 
L 2938 3500 
L 4056 3500 
L 2584 -331 
Q 2363 -916 2067 -1148 
Q 1772 -1381 1288 -1381 
L 641 -1381 
L 641 -647 
L 991 -647 
Q 1275 -647 1404 -556 
Q 1534 -466 1606 -231 
L 1638 -134 
L 78 3500 
z
" transform="scale(0.015625)"/>
      <path id="DejaVuSans-Bold-65" d="M 4031 1759 
L 4031 1441 
L 1416 1441 
Q 1456 1047 1700 850 
Q 1944 653 2381 653 
Q 2734 653 3104 758 
Q 3475 863 3866 1075 
L 3866 213 
Q 3469 63 3072 -14 
Q 2675 -91 2278 -91 
Q 1328 -91 801 392 
Q 275 875 275 1747 
Q 275 2603 792 3093 
Q 1309 3584 2216 3584 
Q 3041 3584 3536 3087 
Q 4031 2591 4031 1759 
z
M 2881 2131 
Q 2881 2450 2695 2645 
Q 2509 2841 2209 2841 
Q 1884 2841 1681 2658 
Q 1478 2475 1428 2131 
L 2881 2131 
z
" transform="scale(0.015625)"/>
      <path id="DejaVuSans-Bold-72" d="M 3138 2547 
Q 2991 2616 2845 2648 
Q 2700 2681 2553 2681 
Q 2122 2681 1889 2404 
Q 1656 2128 1656 1613 
L 1656 0 
L 538 0 
L 538 3500 
L 1656 3500 
L 1656 2925 
Q 1872 3269 2151 3426 
Q 2431 3584 2822 3584 
Q 2878 3584 2943 3579 
Q 3009 3575 3134 3559 
L 3138 2547 
z
" transform="scale(0.015625)"/>
      <path id="DejaVuSans-Bold-20" transform="scale(0.015625)"/>
      <path id="DejaVuSans-Bold-41" d="M 3419 850 
L 1538 850 
L 1241 0 
L 31 0 
L 1759 4666 
L 3194 4666 
L 4922 0 
L 3713 0 
L 3419 850 
z
M 1838 1716 
L 3116 1716 
L 2478 3572 
L 1838 1716 
z
" transform="scale(0.015625)"/>
     </defs>
     <use xlink:href="#DejaVuSans-Bold-4c"/>
     <use xlink:href="#DejaVuSans-Bold-61" transform="translate(63.720703 0)"/>
     <use xlink:href="#DejaVuSans-Bold-79" transform="translate(128.076172 0)"/>
     <use xlink:href="#DejaVuSans-Bold-65" transform="translate(193.261719 0)"/>
     <use xlink:href="#DejaVuSans-Bold-72" transform="translate(261.083984 0)"/>
     <use xlink:href="#DejaVuSans-Bold-20" transform="translate(310.400391 0)"/>
     <use xlink:href="#DejaVuSans-Bold-41" transform="translate(345.214844 0)"/>
    </g>
   </g>
   <g id="text_2">
    <!-- Layer B -->
    <g transform="translate(643.44 287.6175) scale(0.12 -0.12)">
     <defs>
      <path id="DejaVuSans-Bold-42" d="M 2456 2859 
Q 2741 2859 2887 2984 
Q 3034 3109 3034 3353 
Q 3034 3594 2887 3720 
Q 2741 3847 2456 3847 
L 1791 3847 
L 1791 2859 
L 2456 2859 
z
M 2497 819 
Q 2859 819 3042 972 
Q 3225 1125 3225 1434 
Q 3225 1738 3044 1889 
Q 2863 2041 2497 2041 
L 1791 2041 
L 1791 819 
L 2497 819 
z
M 3616 2497 
Q 4003 2384 4215 2081 
Q 4428 1778 4428 1338 
Q 4428 663 3972 331 
Q 3516 0 2584 0 
L 588 0 
L 588 4666 
L 2394 4666 
Q 3366 4666 3802 4372 
Q 4238 4078 4238 3431 
Q 4238 3091 4078 2852 
Q 3919 2613 3616 2497 
z
" transform="scale(0.015625)"/>
     </defs>
     <use xlink:href="#DejaVuSans-Bold-4c"/>
     <use xlink:href="#DejaVuSans-Bold-61" transform="translate(63.720703 0)"/>
     <use xlink:href="#DejaVuSans-Bold-79" transform="translate(128.076172 0)"/>
     <use xlink:href="#DejaVuSans-Bold-65" transform="translate(193.261719 0)"/>
     <use xlink:href="#DejaVuSans-Bold-72" transform="translate(261.083984 0)"/>
     <use xlink:href="#DejaVuSans-Bold-20" transform="translate(310.400391 0)"/>
     <use xlink:href="#DejaVuSans-Bold-42" transform="translate(345.214844 0)"/>
    </g>
   </g>
   <g id="text_3">
    <!-- Layer A -->
    <g transform="translate(643.44 121.2975) scale(0.12 -0.12)">
     <use xlink:href="#DejaVuSans-Bold-4c"/>
     <use xlink:href="#DejaVuSans-Bold-61" transform="translate(63.720703 0)"/>
     <use xlink:href="#DejaVuSans-Bold-79" transform="translate(128.076172 0)"/>
     <use xlink:href="#DejaVuSans-Bold-65" transform="translate(193.261719 0)"/>
     <use xlink:href="#DejaVuSans-Bold-72" transform="translate(261.083984 0)"/>
     <use xlink:href="#DejaVuSans-Bold-20" transform="translate(310.400391 0)"/>
     <use xlink:href="#DejaVuSans-Bold-41" transform="translate(345.214844 0)"/>
    </g>
   </g>
   <g id="text_4">
    <!-- Hexagonal Close-Packed (HCP) -->
    <g transform="translate(232.854531 34.92) scale(0.14 -0.14)">
     <defs>
      <path id="DejaVuSans-Bold-48" d="M 588 4666 
L 1791 4666 
L 1791 2888 
L 3566 2888 
L 3566 4666 
L 4769 4666 
L 4769 0 
L 3566 0 
L 3566 1978 
L 1791 1978 
L 1791 0 
L 588 0 
L 588 4666 
z
" transform="scale(0.015625)"/>
      <path id="DejaVuSans-Bold-78" d="M 1422 1791 
L 159 3500 
L 1344 3500 
L 2059 2463 
L 2784 3500 
L 3969 3500 
L 2706 1797 
L 4031 0 
L 2847 0 
L 2059 1106 
L 1281 0 
L 97 0 
L 1422 1791 
z
" transform="scale(0.015625)"/>
      <path id="DejaVuSans-Bold-67" d="M 2919 594 
Q 2688 288 2409 144 
Q 2131 0 1766 0 
Q 1125 0 706 504 
Q 288 1009 288 1791 
Q 288 2575 706 3076 
Q 1125 3578 1766 3578 
Q 2131 3578 2409 3434 
Q 2688 3291 2919 2981 
L 2919 3500 
L 4044 3500 
L 4044 353 
Q 4044 -491 3511 -936 
Q 2978 -1381 1966 -1381 
Q 1638 -1381 1331 -1331 
Q 1025 -1281 716 -1178 
L 716 -306 
Q 1009 -475 1290 -558 
Q 1572 -641 1856 -641 
Q 2406 -641 2662 -400 
Q 2919 -159 2919 353 
L 2919 594 
z
M 2181 2772 
Q 1834 2772 1640 2515 
Q 1447 2259 1447 1791 
Q 1447 1309 1634 1061 
Q 1822 813 2181 813 
Q 2531 813 2725 1069 
Q 2919 1325 2919 1791 
Q 2919 2259 2725 2515 
Q 2531 2772 2181 2772 
z
" transform="scale(0.015625)"/>
      <path id="DejaVuSans-Bold-6f" d="M 2203 2784 
Q 1831 2784 1636 2517 
Q 1441 2250 1441 1747 
Q 1441 1244 1636 976 
Q 1831 709 2203 709 
Q 2569 709 2762 976 
Q 2956 1244 2956 1747 
Q 2956 2250 2762 2517 
Q 2569 2784 2203 2784 
z
M 2203 3584 
Q 3106 3584 3614 3096 
Q 4122 2609 4122 1747 
Q 4122 884 3614 396 
Q 3106 -91 2203 -91 
Q 1297 -91 786 396 
Q 275 884 275 1747 
Q 275 2609 786 3096 
Q 1297 3584 2203 3584 
z
" transform="scale(0.015625)"/>
      <path id="DejaVuSans-Bold-6e" d="M 4056 2131 
L 4056 0 
L 2931 0 
L 2931 347 
L 2931 1631 
Q 2931 2084 2911 2256 
Q 2891 2428 2841 2509 
Q 2775 2619 2662 2680 
Q 2550 2741 2406 2741 
Q 2056 2741 1856 2470 
Q 1656 2200 1656 1722 
L 1656 0 
L 538 0 
L 538 3500 
L 1656 3500 
L 1656 2988 
Q 1909 3294 2193 3439 
Q 2478 3584 2822 3584 
Q 3428 3584 3742 3212 
Q 4056 2841 4056 2131 
z
" transform="scale(0.015625)"/>
      <path id="DejaVuSans-Bold-6c" d="M 538 4863 
L 1656 4863 
L 1656 0 
L 538 0 
L 538 4863 
z
" transform="scale(0.015625)"/>
      <path id="DejaVuSans-Bold-43" d="M 4288 256 
Q 3956 84 3597 -3 
Q 3238 -91 2847 -91 
Q 1681 -91 1000 561 
Q 319 1213 319 2328 
Q 319 3447 1000 4098 
Q 1681 4750 2847 4750 
Q 3238 4750 3597 4662 
Q 3956 4575 4288 4403 
L 4288 3438 
Q 3953 3666 3628 3772 
Q 3303 3878 2944 3878 
Q 2300 3878 1931 3465 
Q 1563 3053 1563 2328 
Q 1563 1606 1931 1193 
Q 2300 781 2944 781 
Q 3303 781 3628 887 
Q 3953 994 4288 1222 
L 4288 256 
z
" transform="scale(0.015625)"/>
      <path id="DejaVuSans-Bold-73" d="M 3272 3391 
L 3272 2541 
Q 2913 2691 2578 2766 
Q 2244 2841 1947 2841 
Q 1628 2841 1473 2761 
Q 1319 2681 1319 2516 
Q 1319 2381 1436 2309 
Q 1553 2238 1856 2203 
L 2053 2175 
Q 2913 2066 3209 1816 
Q 3506 1566 3506 1031 
Q 3506 472 3093 190 
Q 2681 -91 1863 -91 
Q 1516 -91 1145 -36 
Q 775 19 384 128 
L 384 978 
Q 719 816 1070 734 
Q 1422 653 1784 653 
Q 2113 653 2278 743 
Q 2444 834 2444 1013 
Q 2444 1163 2330 1236 
Q 2216 1309 1875 1350 
L 1678 1375 
Q 931 1469 631 1722 
Q 331 1975 331 2491 
Q 331 3047 712 3315 
Q 1094 3584 1881 3584 
Q 2191 3584 2531 3537 
Q 2872 3491 3272 3391 
z
" transform="scale(0.015625)"/>
      <path id="DejaVuSans-Bold-2d" d="M 347 2297 
L 2309 2297 
L 2309 1388 
L 347 1388 
L 347 2297 
z
" transform="scale(0.015625)"/>
      <path id="DejaVuSans-Bold-50" d="M 588 4666 
L 2584 4666 
Q 3475 4666 3951 4270 
Q 4428 3875 4428 3144 
Q 4428 2409 3951 2014 
Q 3475 1619 2584 1619 
L 1791 1619 
L 1791 0 
L 588 0 
L 588 4666 
z
M 1791 3794 
L 1791 2491 
L 2456 2491 
Q 2806 2491 2997 2661 
Q 3188 2831 3188 3144 
Q 3188 3456 2997 3625 
Q 2806 3794 2456 3794 
L 1791 3794 
z
" transform="scale(0.015625)"/>
      <path id="DejaVuSans-Bold-63" d="M 3366 3391 
L 3366 2478 
Q 3138 2634 2908 2709 
Q 2678 2784 2431 2784 
Q 1963 2784 1702 2511 
Q 1441 2238 1441 1747 
Q 1441 1256 1702 982 
Q 1963 709 2431 709 
Q 2694 709 2930 787 
Q 3166 866 3366 1019 
L 3366 103 
Q 3103 6 2833 -42 
Q 2563 -91 2291 -91 
Q 1344 -91 809 395 
Q 275 881 275 1747 
Q 275 2613 809 3098 
Q 1344 3584 2291 3584 
Q 2566 3584 2833 3536 
Q 3100 3488 3366 3391 
z
" transform="scale(0.015625)"/>
      <path id="DejaVuSans-Bold-6b" d="M 538 4863 
L 1656 4863 
L 1656 2216 
L 2944 3500 
L 4244 3500 
L 2534 1894 
L 4378 0 
L 3022 0 
L 1656 1459 
L 1656 0 
L 538 0 
L 538 4863 
z
" transform="scale(0.015625)"/>
      <path id="DejaVuSans-Bold-64" d="M 2919 2988 
L 2919 4863 
L 4044 4863 
L 4044 0 
L 2919 0 
L 2919 506 
Q 2688 197 2409 53 
Q 2131 -91 1766 -91 
Q 1119 -91 703 423 
Q 288 938 288 1747 
Q 288 2556 703 3070 
Q 1119 3584 1766 3584 
Q 2128 3584 2408 3439 
Q 2688 3294 2919 2988 
z
M 2181 722 
Q 2541 722 2730 984 
Q 2919 1247 2919 1747 
Q 2919 2247 2730 2509 
Q 2541 2772 2181 2772 
Q 1825 2772 1636 2509 
Q 1447 2247 1447 1747 
Q 1447 1247 1636 984 
Q 1825 722 2181 722 
z
" transform="scale(0.015625)"/>
      <path id="DejaVuSans-Bold-28" d="M 2413 -844 
L 1484 -844 
Q 1006 -72 778 623 
Q 550 1319 550 2003 
Q 550 2688 779 3389 
Q 1009 4091 1484 4856 
L 2413 4856 
Q 2013 4116 1813 3408 
Q 1613 2700 1613 2009 
Q 1613 1319 1811 609 
Q 2009 -100 2413 -844 
z
" transform="scale(0.015625)"/>
      <path id="DejaVuSans-Bold-29" d="M 513 -844 
Q 913 -100 1113 609 
Q 1313 1319 1313 2009 
Q 1313 2700 1113 3408 
Q 913 4116 513 4856 
L 1441 4856 
Q 1916 4091 2145 3389 
Q 2375 2688 2375 2003 
Q 2375 1319 2147 623 
Q 1919 -72 1441 -844 
L 513 -844 
z
" transform="scale(0.015625)"/>
     </defs>
     <use xlink:href="#DejaVuSans-Bold-48"/>
     <use xlink:href="#DejaVuSans-Bold-65" transform="translate(83.691406 0)"/>
     <use xlink:href="#DejaVuSans-Bold-78" transform="translate(151.513672 0)"/>
     <use xlink:href="#DejaVuSans-Bold-61" transform="translate(216.015625 0)"/>
     <use xlink:href="#DejaVuSans-Bold-67" transform="translate(283.496094 0)"/>
     <use xlink:href="#DejaVuSans-Bold-6f" transform="translate(355.078125 0)"/>
     <use xlink:href="#DejaVuSans-Bold-6e" transform="translate(423.779297 0)"/>
     <use xlink:href="#DejaVuSans-Bold-61" transform="translate(494.970703 0)"/>
     <use xlink:href="#DejaVuSans-Bold-6c" transform="translate(562.451172 0)"/>
     <use xlink:href="#DejaVuSans-Bold-20" transform="translate(596.728516 0)"/>
     <use xlink:href="#DejaVuSans-Bold-43" transform="translate(631.542969 0)"/>
     <use xlink:href="#DejaVuSans-Bold-6c" transform="translate(704.931641 0)"/>
     <use xlink:href="#DejaVuSans-Bold-6f" transform="translate(739.208984 0)"/>
     <use xlink:href="#DejaVuSans-Bold-73" transform="translate(807.910156 0)"/>
     <use xlink:href="#DejaVuSans-Bold-65" transform="translate(867.431641 0)"/>
     <use xlink:href="#DejaVuSans-Bold-2d" transform="translate(935.253906 0)"/>
     <use xlink:href="#DejaVuSans-Bold-50" transform="translate(976.757812 0)"/>
     <use xlink:href="#DejaVuSans-Bold-61" transform="translate(1047.423828 0)"/>
     <use xlink:href="#DejaVuSans-Bold-63" transform="translate(1114.904297 0)"/>
     <use xlink:href="#DejaVuSans-Bold-6b" transform="translate(1174.181641 0)"/>
     <use xlink:href="#DejaVuSans-Bold-65" transform="translate(1238.060547 0)"/>
     <use xlink:href="#DejaVuSans-Bold-64" transform="translate(1305.882812 0)"/>
     <use xlink:href="#DejaVuSans-Bold-20" transform="translate(1377.464844 0)"/>
     <use xlink:href="#DejaVuSans-Bold-28" transform="translate(1412.279297 0)"/>
     <use xlink:href="#DejaVuSans-Bold-48" transform="translate(1457.982422 0)"/>
     <use xlink:href="#DejaVuSans-Bold-43" transform="translate(1541.673828 0)"/>
     <use xlink:href="#DejaVuSans-Bold-50" transform="translate(1615.0625 0)"/>
     <use xlink:href="#DejaVuSans-Bold-29" transform="translate(1688.353516 0)"/>
    </g>
   </g>
   <g id="text_5">
    <!-- Stacking: ABABAB... | Coordination: 12 | Packing: 74% -->
    <g transform="translate(192.122813 533.88) scale(0.12 -0.12)">
     <defs>
      <path id="DejaVuSans-53" d="M 3425 4513 
L 3425 3897 
Q 3066 4069 2747 4153 
Q 2428 4238 2131 4238 
Q 1616 4238 1336 4038 
Q 1056 3838 1056 3469 
Q 1056 3159 1242 3001 
Q 1428 2844 1947 2747 
L 2328 2669 
Q 3034 2534 3370 2195 
Q 3706 1856 3706 1288 
Q 3706 609 3251 259 
Q 2797 -91 1919 -91 
Q 1588 -91 1214 -16 
Q 841 59 441 206 
L 441 856 
Q 825 641 1194 531 
Q 1563 422 1919 422 
Q 2459 422 2753 634 
Q 3047 847 3047 1241 
Q 3047 1584 2836 1778 
Q 2625 1972 2144 2069 
L 1759 2144 
Q 1053 2284 737 2584 
Q 422 2884 422 3419 
Q 422 4038 858 4394 
Q 1294 4750 2059 4750 
Q 2388 4750 2728 4690 
Q 3069 4631 3425 4513 
z
" transform="scale(0.015625)"/>
      <path id="DejaVuSans-74" d="M 1172 4494 
L 1172 3500 
L 2356 3500 
L 2356 3053 
L 1172 3053 
L 1172 1153 
Q 1172 725 1289 603 
Q 1406 481 1766 481 
L 2356 481 
L 2356 0 
L 1766 0 
Q 1100 0 847 248 
Q 594 497 594 1153 
L 594 3053 
L 172 3053 
L 172 3500 
L 594 3500 
L 594 4494 
L 1172 4494 
z
" transform="scale(0.015625)"/>
      <path id="DejaVuSans-61" d="M 2194 1759 
Q 1497 1759 1228 1600 
Q 959 1441 959 1056 
Q 959 750 1161 570 
Q 1363 391 1709 391 
Q 2188 391 2477 730 
Q 2766 1069 2766 1631 
L 2766 1759 
L 2194 1759 
z
M 3341 1997 
L 3341 0 
L 2766 0 
L 2766 531 
Q 2569 213 2275 61 
Q 1981 -91 1556 -91 
Q 1019 -91 701 211 
Q 384 513 384 1019 
Q 384 1609 779 1909 
Q 1175 2209 1959 2209 
L 2766 2209 
L 2766 2266 
Q 2766 2663 2505 2880 
Q 2244 3097 1772 3097 
Q 1472 3097 1187 3025 
Q 903 2953 641 2809 
L 641 3341 
Q 956 3463 1253 3523 
Q 1550 3584 1831 3584 
Q 2591 3584 2966 3190 
Q 3341 2797 3341 1997 
z
" transform="scale(0.015625)"/>
      <path id="DejaVuSans-63" d="M 3122 3366 
L 3122 2828 
Q 2878 2963 2633 3030 
Q 2388 3097 2138 3097 
Q 1578 3097 1268 2742 
Q 959 2388 959 1747 
Q 959 1106 1268 751 
Q 1578 397 2138 397 
Q 2388 397 2633 464 
Q 2878 531 3122 666 
L 3122 134 
Q 2881 22 2623 -34 
Q 2366 -91 2075 -91 
Q 1284 -91 818 406 
Q 353 903 353 1747 
Q 353 2603 823 3093 
Q 1294 3584 2113 3584 
Q 2378 3584 2631 3529 
Q 2884 3475 3122 3366 
z
" transform="scale(0.015625)"/>
      <path id="DejaVuSans-6b" d="M 581 4863 
L 1159 4863 
L 1159 1991 
L 2875 3500 
L 3609 3500 
L 1753 1863 
L 3688 0 
L 2938 0 
L 1159 1709 
L 1159 0 
L 581 0 
L 581 4863 
z
" transform="scale(0.015625)"/>
      <path id="DejaVuSans-69" d="M 603 3500 
L 1178 3500 
L 1178 0 
L 603 0 
L 603 3500 
z
M 603 4863 
L 1178 4863 
L 1178 4134 
L 603 4134 
L 603 4863 
z
" transform="scale(0.015625)"/>
      <path id="DejaVuSans-6e" d="M 3513 2113 
L 3513 0 
L 2938 0 
L 2938 2094 
Q 2938 2591 2744 2837 
Q 2550 3084 2163 3084 
Q 1697 3084 1428 2787 
Q 1159 2491 1159 1978 
L 1159 0 
L 581 0 
L 581 3500 
L 1159 3500 
L 1159 2956 
Q 1366 3272 1645 3428 
Q 1925 3584 2291 3584 
Q 2894 3584 3203 3211 
Q 3513 2838 3513 2113 
z
" transform="scale(0.015625)"/>
      <path id="DejaVuSans-67" d="M 2906 1791 
Q 2906 2416 2648 2759 
Q 2391 3103 1925 3103 
Q 1463 3103 1205 2759 
Q 947 2416 947 1791 
Q 947 1169 1205 825 
Q 1463 481 1925 481 
Q 2391 481 2648 825 
Q 2906 1169 2906 1791 
z
M 3481 434 
Q 3481 -459 3084 -895 
Q 2688 -1331 1869 -1331 
Q 1566 -1331 1297 -1286 
Q 1028 -1241 775 -1147 
L 775 -588 
Q 1028 -725 1275 -790 
Q 1522 -856 1778 -856 
Q 2344 -856 2625 -561 
Q 2906 -266 2906 331 
L 2906 616 
Q 2728 306 2450 153 
Q 2172 0 1784 0 
Q 1141 0 747 490 
Q 353 981 353 1791 
Q 353 2603 747 3093 
Q 1141 3584 1784 3584 
Q 2172 3584 2450 3431 
Q 2728 3278 2906 2969 
L 2906 3500 
L 3481 3500 
L 3481 434 
z
" transform="scale(0.015625)"/>
      <path id="DejaVuSans-3a" d="M 750 794 
L 1409 794 
L 1409 0 
L 750 0 
L 750 794 
z
M 750 3309 
L 1409 3309 
L 1409 2516 
L 750 2516 
L 750 3309 
z
" transform="scale(0.015625)"/>
      <path id="DejaVuSans-20" transform="scale(0.015625)"/>
      <path id="DejaVuSans-41" d="M 2188 4044 
L 1331 1722 
L 3047 1722 
L 2188 4044 
z
M 1831 4666 
L 2547 4666 
L 4325 0 
L 3669 0 
L 3244 1197 
L 1141 1197 
L 716 0 
L 50 0 
L 1831 4666 
z
" transform="scale(0.015625)"/>
      <path id="DejaVuSans-42" d="M 1259 2228 
L 1259 519 
L 2272 519 
Q 2781 519 3026 730 
Q 3272 941 3272 1375 
Q 3272 1813 3026 2020 
Q 2781 2228 2272 2228 
L 1259 2228 
z
M 1259 4147 
L 1259 2741 
L 2194 2741 
Q 2656 2741 2882 2914 
Q 3109 3088 3109 3444 
Q 3109 3797 2882 3972 
Q 2656 4147 2194 4147 
L 1259 4147 
z
M 628 4666 
L 2241 4666 
Q 2963 4666 3353 4366 
Q 3744 4066 3744 3513 
Q 3744 3084 3544 2831 
Q 3344 2578 2956 2516 
Q 3422 2416 3680 2098 
Q 3938 1781 3938 1306 
Q 3938 681 3513 340 
Q 3088 0 2303 0 
L 628 0 
L 628 4666 
z
" transform="scale(0.015625)"/>
      <path id="DejaVuSans-2e" d="M 684 794 
L 1344 794 
L 1344 0 
L 684 0 
L 684 794 
z
" transform="scale(0.015625)"/>
      <path id="DejaVuSans-7c" d="M 1344 4891 
L 1344 -1509 
L 813 -1509 
L 813 4891 
L 1344 4891 
z
" transform="scale(0.015625)"/>
      <path id="DejaVuSans-43" d="M 4122 4306 
L 4122 3641 
Q 3803 3938 3442 4084 
Q 3081 4231 2675 4231 
Q 1875 4231 1450 3742 
Q 1025 3253 1025 2328 
Q 1025 1406 1450 917 
Q 1875 428 2675 428 
Q 3081 428 3442 575 
Q 3803 722 4122 1019 
L 4122 359 
Q 3791 134 3420 21 
Q 3050 -91 2638 -91 
Q 1578 -91 968 557 
Q 359 1206 359 2328 
Q 359 3453 968 4101 
Q 1578 4750 2638 4750 
Q 3056 4750 3426 4639 
Q 3797 4528 4122 4306 
z
" transform="scale(0.015625)"/>
      <path id="DejaVuSans-6f" d="M 1959 3097 
Q 1497 3097 1228 2736 
Q 959 2375 959 1747 
Q 959 1119 1226 758 
Q 1494 397 1959 397 
Q 2419 397 2687 759 
Q 2956 1122 2956 1747 
Q 2956 2369 2687 2733 
Q 2419 3097 1959 3097 
z
M 1959 3584 
Q 2709 3584 3137 3096 
Q 3566 2609 3566 1747 
Q 3566 888 3137 398 
Q 2709 -91 1959 -91 
Q 1206 -91 779 398 
Q 353 888 353 1747 
Q 353 2609 779 3096 
Q 1206 3584 1959 3584 
z
" transform="scale(0.015625)"/>
      <path id="DejaVuSans-72" d="M 2631 2963 
Q 2534 3019 2420 3045 
Q 2306 3072 2169 3072 
Q 1681 3072 1420 2755 
Q 1159 2438 1159 1844 
L 1159 0 
L 581 0 
L 581 3500 
L 1159 3500 
L 1159 2956 
Q 1341 3275 1631 3429 
Q 1922 3584 2338 3584 
Q 2397 3584 2469 3576 
Q 2541 3569 2628 3553 
L 2631 2963 
z
" transform="scale(0.015625)"/>
      <path id="DejaVuSans-64" d="M 2906 2969 
L 2906 4863 
L 3481 4863 
L 3481 0 
L 2906 0 
L 2906 525 
Q 2725 213 2448 61 
Q 2172 -91 1784 -91 
Q 1150 -91 751 415 
Q 353 922 353 1747 
Q 353 2572 751 3078 
Q 1150 3584 1784 3584 
Q 2172 3584 2448 3432 
Q 2725 3281 2906 2969 
z
M 947 1747 
Q 947 1113 1208 752 
Q 1469 391 1925 391 
Q 2381 391 2643 752 
Q 2906 1113 2906 1747 
Q 2906 2381 2643 2742 
Q 2381 3103 1925 3103 
Q 1469 3103 1208 2742 
Q 947 2381 947 1747 
z
" transform="scale(0.015625)"/>
      <path id="DejaVuSans-31" d="M 794 531 
L 1825 531 
L 1825 4091 
L 703 3866 
L 703 4441 
L 1819 4666 
L 2450 4666 
L 2450 531 
L 3481 531 
L 3481 0 
L 794 0 
L 794 531 
z
" transform="scale(0.015625)"/>
      <path id="DejaVuSans-32" d="M 1228 531 
L 3431 531 
L 3431 0 
L 469 0 
L 469 531 
Q 828 903 1448 1529 
Q 2069 2156 2228 2338 
Q 2531 2678 2651 2914 
Q 2772 3150 2772 3378 
Q 2772 3750 2511 3984 
Q 2250 4219 1831 4219 
Q 1534 4219 1204 4116 
Q 875 4013 500 3803 
L 500 4441 
Q 881 4594 1212 4672 
Q 1544 4750 1819 4750 
Q 2544 4750 2975 4387 
Q 3406 4025 3406 3419 
Q 3406 3131 3298 2873 
Q 3191 2616 2906 2266 
Q 2828 2175 2409 1742 
Q 1991 1309 1228 531 
z
" transform="scale(0.015625)"/>
      <path id="DejaVuSans-50" d="M 1259 4147 
L 1259 2394 
L 2053 2394 
Q 2494 2394 2734 2622 
Q 2975 2850 2975 3272 
Q 2975 3691 2734 3919 
Q 2494 4147 2053 4147 
L 1259 4147 
z
M 628 4666 
L 2053 4666 
Q 2838 4666 3239 4311 
Q 3641 3956 3641 3272 
Q 3641 2581 3239 2228 
Q 2838 1875 2053 1875 
L 1259 1875 
L 1259 0 
L 628 0 
L 628 4666 
z
" transform="scale(0.015625)"/>
      <path id="DejaVuSans-37" d="M 525 4666 
L 3525 4666 
L 3525 4397 
L 1831 0 
L 1172 0 
L 2766 4134 
L 525 4134 
L 525 4666 
z
" transform="scale(0.015625)"/>
      <path id="DejaVuSans-34" d="M 2419 4116 
L 825 1625 
L 2419 1625 
L 2419 4116 
z
M 2253 4666 
L 3047 4666 
L 3047 1625 
L 3713 1625 
L 3713 1100 
L 3047 1100 
L 3047 0 
L 2419 0 
L 2419 1100 
L 313 1100 
L 313 1709 
L 2253 4666 
z
" transform="scale(0.015625)"/>
      <path id="DejaVuSans-25" d="M 4653 2053 
Q 4381 2053 4226 1822 
Q 4072 1591 4072 1178 
Q 4072 772 4226 539 
Q 4381 306 4653 306 
Q 4919 306 5073 539 
Q 5228 772 5228 1178 
Q 5228 1588 5073 1820 
Q 4919 2053 4653 2053 
z
M 4653 2450 
Q 5147 2450 5437 2106 
Q 5728 1763 5728 1178 
Q 5728 594 5436 251 
Q 5144 -91 4653 -91 
Q 4153 -91 3862 251 
Q 3572 594 3572 1178 
Q 3572 1766 3864 2108 
Q 4156 2450 4653 2450 
z
M 1428 4353 
Q 1159 4353 1004 4120 
Q 850 3888 850 3481 
Q 850 3069 1003 2837 
Q 1156 2606 1428 2606 
Q 1700 2606 1854 2837 
Q 2009 3069 2009 3481 
Q 2009 3884 1853 4118 
Q 1697 4353 1428 4353 
z
M 4250 4750 
L 4750 4750 
L 1831 -91 
L 1331 -91 
L 4250 4750 
z
M 1428 4750 
Q 1922 4750 2215 4408 
Q 2509 4066 2509 3481 
Q 2509 2891 2217 2550 
Q 1925 2209 1428 2209 
Q 931 2209 642 2551 
Q 353 2894 353 3481 
Q 353 4063 643 4406 
Q 934 4750 1428 4750 
z
" transform="scale(0.015625)"/>
     </defs>
     <use xlink:href="#DejaVuSans-53"/>
     <use xlink:href="#DejaVuSans-74" transform="translate(63.476562 0)"/>
     <use xlink:href="#DejaVuSans-61" transform="translate(102.685547 0)"/>
     <use xlink:href="#DejaVuSans-63" transform="translate(163.964844 0)"/>
     <use xlink:href="#DejaVuSans-6b" transform="translate(218.945312 0)"/>
     <use xlink:href="#DejaVuSans-69" transform="translate(276.855469 0)"/>
     <use xlink:href="#DejaVuSans-6e" transform="translate(304.638672 0)"/>
     <use xlink:href="#DejaVuSans-67" transform="translate(368.017578 0)"/>
     <use xlink:href="#DejaVuSans-3a" transform="translate(431.494141 0)"/>
     <use xlink:href="#DejaVuSans-20" transform="translate(465.185547 0)"/>
     <use xlink:href="#DejaVuSans-41" transform="translate(496.972656 0)"/>
     <use xlink:href="#DejaVuSans-42" transform="translate(565.380859 0)"/>
     <use xlink:href="#DejaVuSans-41" transform="translate(633.984375 0)"/>
     <use xlink:href="#DejaVuSans-42" transform="translate(702.392578 0)"/>
     <use xlink:href="#DejaVuSans-41" transform="translate(770.996094 0)"/>
     <use xlink:href="#DejaVuSans-42" transform="translate(839.404297 0)"/>
     <use xlink:href="#DejaVuSans-2e" transform="translate(908.007812 0)"/>
     <use xlink:href="#DejaVuSans-2e" transform="translate(939.794922 0)"/>
     <use xlink:href="#DejaVuSans-2e" transform="translate(971.582031 0)"/>
     <use xlink:href="#DejaVuSans-20" transform="translate(1003.369141 0)"/>
     <use xlink:href="#DejaVuSans-7c" transform="translate(1035.15625 0)"/>
     <use xlink:href="#DejaVuSans-20" transform="translate(1068.847656 0)"/>
     <use xlink:href="#DejaVuSans-43" transform="translate(1100.634766 0)"/>
     <use xlink:href="#DejaVuSans-6f" transform="translate(1170.458984 0)"/>
     <use xlink:href="#DejaVuSans-6f" transform="translate(1231.640625 0)"/>
     <use xlink:href="#DejaVuSans-72" transform="translate(1292.822266 0)"/>
     <use xlink:href="#DejaVuSans-64" transform="translate(1332.185547 0)"/>
     <use xlink:href="#DejaVuSans-69" transform="translate(1395.662109 0)"/>
     <use xlink:href="#DejaVuSans-6e" transform="translate(1423.445312 0)"/>
     <use xlink:href="#DejaVuSans-61" transform="translate(1486.824219 0)"/>
     <use xlink:href="#DejaVuSans-74" transform="translate(1548.103516 0)"/>
     <use xlink:href="#DejaVuSans-69" transform="translate(1587.3125 0)"/>
     <use xlink:href="#DejaVuSans-6f" transform="translate(1615.095703 0)"/>
     <use xlink:href="#DejaVuSans-6e" transform="translate(1676.277344 0)"/>
     <use xlink:href="#DejaVuSans-3a" transform="translate(1739.65625 0)"/>
     <use xlink:href="#DejaVuSans-20" transform="translate(1773.347656 0)"/>
     <use xlink:href="#DejaVuSans-31" transform="translate(1805.134766 0)"/>
     <use xlink:href="#DejaVuSans-32" transform="translate(1868.757812 0)"/>
     <use xlink:href="#DejaVuSans-20" transform="translate(1932.380859 0)"/>
     <use xlink:href="#DejaVuSans-7c" transform="translate(1964.167969 0)"/>
     <use xlink:href="#DejaVuSans-20" transform="translate(1997.859375 0)"/>
     <use xlink:href="#DejaVuSans-50" transform="translate(2029.646484 0)"/>
     <use xlink:href="#DejaVuSans-61" transform="translate(2085.449219 0)"/>
     <use xlink:href="#DejaVuSans-63" transform="translate(2146.728516 0)"/>
     <use xlink:href="#DejaVuSans-6b" transform="translate(2201.708984 0)"/>
     <use xlink:href="#DejaVuSans-69" transform="translate(2259.619141 0)"/>
     <use xlink:href="#DejaVuSans-6e" transform="translate(2287.402344 0)"/>
     <use xlink:href="#DejaVuSans-67" transform="translate(2350.78125 0)"/>
     <use xlink:href="#DejaVuSans-3a" transform="translate(2414.257812 0)"/>
     <use xlink:href="#DejaVuSans-20" transform="translate(2447.949219 0)"/>
     <use xlink:href="#DejaVuSans-37" transform="translate(2479.736328 0)"/>
     <use xlink:href="#DejaVuSans-34" transform="translate(2543.359375 0)"/>
     <use xlink:href="#DejaVuSans-25" transform="translate(2606.982422 0)"/>
    </g>
   </g>
  </g>
 </g>
 <defs>
  <clipPath id="p104f837262">
   <rect x="7.2" y="7.2" width="694.08" height="554.4"/>
  </clipPath>
 </defs>
</svg>
