<?xml version="1.0" encoding="utf-8" standalone="no"?>
<!DOCTYPE svg PUBLIC "-//W3C//DTD SVG 1.1//EN"
  "http://www.w3.org/Graphics/SVG/1.1/DTD/svg11.dtd">
<svg xmlns:xlink="http://www.w3.org/1999/xlink" width="712.8pt" height="424.8pt" viewBox="0 0 712.8 424.8" xmlns="http://www.w3.org/2000/svg" version="1.1">
 <metadata>
  <rdf:RDF xmlns:dc="http://purl.org/dc/elements/1.1/" xmlns:cc="http://creativecommons.org/ns#" xmlns:rdf="http://www.w3.org/1999/02/22-rdf-syntax-ns#">
   <cc:Work>
    <dc:type rdf:resource="http://purl.org/dc/dcmitype/StillImage"/>
    <dc:date>2026-01-02T16:05:20.882855</dc:date>
    <dc:format>image/svg+xml</dc:format>
    <dc:creator>
     <cc:Agent>
      <dc:title>Matplotlib v3.10.8, https://matplotlib.org/</dc:title>
     </cc:Agent>
    </dc:creator>
   </cc:Work>
  </rdf:RDF>
 </metadata>
 <defs>
  <style type="text/css">*{stroke-linejoin: round; stroke-linecap: butt}</style>
 </defs>
 <g id="figure_1">
  <g id="patch_1">
   <path d="M 0 424.8 
L 712.8 424.8 
L 712.8 0 
L 0 0 
z
" style="fill: #ffffff"/>
  </g>
  <g id="axes_1">
   <g id="patch_2">
    <path d="M 111.96 373.14 
C 118.442625 373.14 124.66061 370.617531 129.244518 366.128136 
C 133.828426 361.638742 136.404 355.548962 136.404 349.2 
C 136.404 342.851038 133.828426 336.761258 129.244518 332.271864 
C 124.66061 327.782469 118.442625 325.26 111.96 325.26 
C 105.477375 325.26 99.25939 327.782469 94.675482 332.271864 
C 90.091574 336.761258 87.516 342.851038 87.516 349.2 
C 87.516 355.548962 90.091574 361.638742 94.675482 366.128136 
C 99.25939 370.617531 105.477375 373.14 111.96 373.14 
z
" clip-path="url(#p0b0aeb76ea)" style="fill: #e74c3c; stroke: #000000; stroke-width: 2; stroke-linejoin: miter"/>
   </g>
   <g id="patch_3">
    <path d="M 111.96 256.86 
C 118.442625 256.86 124.66061 254.337531 129.244518 249.848136 
C 133.828426 245.358742 136.404 239.268962 136.404 232.92 
C 136.404 226.571038 133.828426 220.481258 129.244518 215.991864 
C 124.66061 211.502469 118.442625 208.98 111.96 208.98 
C 105.477375 208.98 99.25939 211.502469 94.675482 215.991864 
C 90.091574 220.481258 87.516 226.571038 87.516 232.92 
C 87.516 239.268962 90.091574 245.358742 94.675482 249.848136 
C 99.25939 254.337531 105.477375 256.86 111.96 256.86 
z
" clip-path="url(#p0b0aeb76ea)" style="fill: #e74c3c; stroke: #000000; stroke-width: 2; stroke-linejoin: miter"/>
   </g>
   <g id="patch_4">
    <path d="M 111.96 140.58 
C 118.442625 140.58 124.66061 138.057531 129.244518 133.568136 
C 133.828426 129.078742 136.404 122.988962 136.404 116.64 
C 136.404 110.291038 133.828426 104.201258 129.244518 99.711864 
C 124.66061 95.222469 118.442625 92.7 111.96 92.7 
C 105.477375 92.7 99.25939 95.222469 94.675482 99.711864 
C 90.091574 104.201258 87.516 110.291038 87.516 116.64 
C 87.516 122.988962 90.091574 129.078742 94.675482 133.568136 
C 99.25939 138.057531 105.477375 140.58 111.96 140.58 
z
" clip-path="url(#p0b0aeb76ea)" style="fill: #e74c3c; stroke: #000000; stroke-width: 2; stroke-linejoin: miter"/>
   </g>
   <g id="patch_5">
    <path d="M 230.688 373.14 
C 237.170625 373.14 243.38861 370.617531 247.972518 366.128136 
C 252.556426 361.638742 255.132 355.548962 255.132 349.2 
C 255.132 342.851038 252.556426 336.761258 247.972518 332.271864 
C 243.38861 327.782469 237.170625 325.26 230.688 325.26 
C 224.205375 325.26 217.98739 327.782469 213.403482 332.271864 
C 208.819574 336.761258 206.244 342.851038 206.244 349.2 
C 206.244 355.548962 208.819574 361.638742 213.403482 366.128136 
C 217.98739 370.617531 224.205375 373.14 230.688 373.14 
z
" clip-path="url(#p0b0aeb76ea)" style="fill: #e74c3c; stroke: #000000; stroke-width: 2; stroke-linejoin: miter"/>
   </g>
   <g id="patch_6">
    <path d="M 230.688 256.86 
C 237.170625 256.86 243.38861 254.337531 247.972518 249.848136 
C 252.556426 245.358742 255.132 239.268962 255.132 232.92 
C 255.132 226.571038 252.556426 220.481258 247.972518 215.991864 
C 243.38861 211.502469 237.170625 208.98 230.688 208.98 
C 224.205375 208.98 217.98739 211.502469 213.403482 215.991864 
C 208.819574 220.481258 206.244 226.571038 206.244 232.92 
C 206.244 239.268962 208.819574 245.358742 213.403482 249.848136 
C 217.98739 254.337531 224.205375 256.86 230.688 256.86 
z
" clip-path="url(#p0b0aeb76ea)" style="fill: #e74c3c; stroke: #000000; stroke-width: 2; stroke-linejoin: miter"/>
   </g>
   <g id="patch_7">
    <path d="M 230.688 140.58 
C 237.170625 140.58 243.38861 138.057531 247.972518 133.568136 
C 252.556426 129.078742 255.132 122.988962 255.132 116.64 
C 255.132 110.291038 252.556426 104.201258 247.972518 99.711864 
C 243.38861 95.222469 237.170625 92.7 230.688 92.7 
C 224.205375 92.7 217.98739 95.222469 213.403482 99.711864 
C 208.819574 104.201258 206.244 110.291038 206.244 116.64 
C 206.244 122.988962 208.819574 129.078742 213.403482 133.568136 
C 217.98739 138.057531 224.205375 140.58 230.688 140.58 
z
" clip-path="url(#p0b0aeb76ea)" style="fill: #e74c3c; stroke: #000000; stroke-width: 2; stroke-linejoin: miter"/>
   </g>
   <g id="patch_8">
    <path d="M 349.416 373.14 
C 355.898625 373.14 362.11661 370.617531 366.700518 366.128136 
C 371.284426 361.638742 373.86 355.548962 373.86 349.2 
C 373.86 342.851038 371.284426 336.761258 366.700518 332.271864 
C 362.11661 327.782469 355.898625 325.26 349.416 325.26 
C 342.933375 325.26 336.71539 327.782469 332.131482 332.271864 
C 327.547574 336.761258 324.972 342.851038 324.972 349.2 
C 324.972 355.548962 327.547574 361.638742 332.131482 366.128136 
C 336.71539 370.617531 342.933375 373.14 349.416 373.14 
z
" clip-path="url(#p0b0aeb76ea)" style="fill: #e74c3c; stroke: #000000; stroke-width: 2; stroke-linejoin: miter"/>
   </g>
   <g id="patch_9">
    <path d="M 349.416 256.86 
C 355.898625 256.86 362.11661 254.337531 366.700518 249.848136 
C 371.284426 245.358742 373.86 239.268962 373.86 232.92 
C 373.86 226.571038 371.284426 220.481258 366.700518 215.991864 
C 362.11661 211.502469 355.898625 208.98 349.416 208.98 
C 342.933375 208.98 336.71539 211.502469 332.131482 215.991864 
C 327.547574 220.481258 324.972 226.571038 324.972 232.92 
C 324.972 239.268962 327.547574 245.358742 332.131482 249.848136 
C 336.71539 254.337531 342.933375 256.86 349.416 256.86 
z
" clip-path="url(#p0b0aeb76ea)" style="fill: #e74c3c; stroke: #000000; stroke-width: 2; stroke-linejoin: miter"/>
   </g>
   <g id="patch_10">
    <path d="M 349.416 140.58 
C 355.898625 140.58 362.11661 138.057531 366.700518 133.568136 
C 371.284426 129.078742 373.86 122.988962 373.86 116.64 
C 373.86 110.291038 371.284426 104.201258 366.700518 99.711864 
C 362.11661 95.222469 355.898625 92.7 349.416 92.7 
C 342.933375 92.7 336.71539 95.222469 332.131482 99.711864 
C 327.547574 104.201258 324.972 110.291038 324.972 116.64 
C 324.972 122.988962 327.547574 129.078742 332.131482 133.568136 
C 336.71539 138.057531 342.933375 140.58 349.416 140.58 
z
" clip-path="url(#p0b0aeb76ea)" style="fill: #e74c3c; stroke: #000000; stroke-width: 2; stroke-linejoin: miter"/>
   </g>
   <g id="patch_11">
    <path d="M 468.144 373.14 
C 474.626625 373.14 480.84461 370.617531 485.428518 366.128136 
C 490.012426 361.638742 492.588 355.548962 492.588 349.2 
C 492.588 342.851038 490.012426 336.761258 485.428518 332.271864 
C 480.84461 327.782469 474.626625 325.26 468.144 325.26 
C 461.661375 325.26 455.44339 327.782469 450.859482 332.271864 
C 446.275574 336.761258 443.7 342.851038 443.7 349.2 
C 443.7 355.548962 446.275574 361.638742 450.859482 366.128136 
C 455.44339 370.617531 461.661375 373.14 468.144 373.14 
z
" clip-path="url(#p0b0aeb76ea)" style="fill: #e74c3c; stroke: #000000; stroke-width: 2; stroke-linejoin: miter"/>
   </g>
   <g id="patch_12">
    <path d="M 468.144 256.86 
C 474.626625 256.86 480.84461 254.337531 485.428518 249.848136 
C 490.012426 245.358742 492.588 239.268962 492.588 232.92 
C 492.588 226.571038 490.012426 220.481258 485.428518 215.991864 
C 480.84461 211.502469 474.626625 208.98 468.144 208.98 
C 461.661375 208.98 455.44339 211.502469 450.859482 215.991864 
C 446.275574 220.481258 443.7 226.571038 443.7 232.92 
C 443.7 239.268962 446.275574 245.358742 450.859482 249.848136 
C 455.44339 254.337531 461.661375 256.86 468.144 256.86 
z
" clip-path="url(#p0b0aeb76ea)" style="fill: #e74c3c; stroke: #000000; stroke-width: 2; stroke-linejoin: miter"/>
   </g>
   <g id="patch_13">
    <path d="M 468.144 140.58 
C 474.626625 140.58 480.84461 138.057531 485.428518 133.568136 
C 490.012426 129.078742 492.588 122.988962 492.588 116.64 
C 492.588 110.291038 490.012426 104.201258 485.428518 99.711864 
C 480.84461 95.222469 474.626625 92.7 468.144 92.7 
C 461.661375 92.7 455.44339 95.222469 450.859482 99.711864 
C 446.275574 104.201258 443.7 110.291038 443.7 116.64 
C 443.7 122.988962 446.275574 129.078742 450.859482 133.568136 
C 455.44339 138.057531 461.661375 140.58 468.144 140.58 
z
" clip-path="url(#p0b0aeb76ea)" style="fill: #e74c3c; stroke: #000000; stroke-width: 2; stroke-linejoin: miter"/>
   </g>
   <g id="patch_14">
    <path d="M 586.872 373.14 
C 593.354625 373.14 599.57261 370.617531 604.156518 366.128136 
C 608.740426 361.638742 611.316 355.548962 611.316 349.2 
C 611.316 342.851038 608.740426 336.761258 604.156518 332.271864 
C 599.57261 327.782469 593.354625 325.26 586.872 325.26 
C 580.389375 325.26 574.17139 327.782469 569.587482 332.271864 
C 565.003574 336.761258 562.428 342.851038 562.428 349.2 
C 562.428 355.548962 565.003574 361.638742 569.587482 366.128136 
C 574.17139 370.617531 580.389375 373.14 586.872 373.14 
z
" clip-path="url(#p0b0aeb76ea)" style="fill: #e74c3c; stroke: #000000; stroke-width: 2; stroke-linejoin: miter"/>
   </g>
   <g id="patch_15">
    <path d="M 586.872 256.86 
C 593.354625 256.86 599.57261 254.337531 604.156518 249.848136 
C 608.740426 245.358742 611.316 239.268962 611.316 232.92 
C 611.316 226.571038 608.740426 220.481258 604.156518 215.991864 
C 599.57261 211.502469 593.354625 208.98 586.872 208.98 
C 580.389375 208.98 574.17139 211.502469 569.587482 215.991864 
C 565.003574 220.481258 562.428 226.571038 562.428 232.92 
C 562.428 239.268962 565.003574 245.358742 569.587482 249.848136 
C 574.17139 254.337531 580.389375 256.86 586.872 256.86 
z
" clip-path="url(#p0b0aeb76ea)" style="fill: #e74c3c; stroke: #000000; stroke-width: 2; stroke-linejoin: miter"/>
   </g>
   <g id="patch_16">
    <path d="M 586.872 140.58 
C 593.354625 140.58 599.57261 138.057531 604.156518 133.568136 
C 608.740426 129.078742 611.316 122.988962 611.316 116.64 
C 611.316 110.291038 608.740426 104.201258 604.156518 99.711864 
C 599.57261 95.222469 593.354625 92.7 586.872 92.7 
C 580.389375 92.7 574.17139 95.222469 569.587482 99.711864 
C 565.003574 104.201258 562.428 110.291038 562.428 116.64 
C 562.428 122.988962 565.003574 129.078742 569.587482 133.568136 
C 574.17139 138.057531 580.389375 140.58 586.872 140.58 
z
" clip-path="url(#p0b0aeb76ea)" style="fill: #e74c3c; stroke: #000000; stroke-width: 2; stroke-linejoin: miter"/>
   </g>
   <g id="line2d_1">
    <defs>
     <path id="mb2ae265c28" d="M 0 4 
C 1.060812 4 2.078319 3.578535 2.828427 2.828427 
C 3.578535 2.078319 4 1.060812 4 0 
C 4 -1.060812 3.578535 -2.078319 2.828427 -2.828427 
C 2.078319 -3.578535 1.060812 -4 0 -4 
C -1.060812 -4 -2.078319 -3.578535 -2.828427 -2.828427 
C -3.578535 -2.078319 -4 -1.060812 -4 0 
C -4 1.060812 -3.578535 2.078319 -2.828427 2.828427 
C -2.078319 3.578535 -1.060812 4 0 4 
z
" style="stroke: #3498db; stroke-opacity: 0.7"/>
    </defs>
    <g clip-path="url(#p0b0aeb76ea)">
     <use xlink:href="#mb2ae265c28" x="286.303055" y="58.255707" style="fill: #3498db; fill-opacity: 0.7; stroke: #3498db; stroke-opacity: 0.7"/>
    </g>
   </g>
   <g id="line2d_2">
    <g clip-path="url(#p0b0aeb76ea)">
     <use xlink:href="#mb2ae265c28" x="486.019655" y="178.658798" style="fill: #3498db; fill-opacity: 0.7; stroke: #3498db; stroke-opacity: 0.7"/>
    </g>
   </g>
   <g id="line2d_3">
    <g clip-path="url(#p0b0aeb76ea)">
     <use xlink:href="#mb2ae265c28" x="164.210735" y="330.049874" style="fill: #3498db; fill-opacity: 0.7; stroke: #3498db; stroke-opacity: 0.7"/>
    </g>
   </g>
   <g id="line2d_4">
    <g clip-path="url(#p0b0aeb76ea)">
     <use xlink:href="#mb2ae265c28" x="109.492476" y="87.167758" style="fill: #3498db; fill-opacity: 0.7; stroke: #3498db; stroke-opacity: 0.7"/>
    </g>
   </g>
   <g id="line2d_5">
    <g clip-path="url(#p0b0aeb76ea)">
     <use xlink:href="#mb2ae265c28" x="412.894979" y="141.239178" style="fill: #3498db; fill-opacity: 0.7; stroke: #3498db; stroke-opacity: 0.7"/>
    </g>
   </g>
   <g id="line2d_6">
    <g clip-path="url(#p0b0aeb76ea)">
     <use xlink:href="#mb2ae265c28" x="88.540969" y="51.690831" style="fill: #3498db; fill-opacity: 0.7; stroke: #3498db; stroke-opacity: 0.7"/>
    </g>
   </g>
   <g id="line2d_7">
    <g clip-path="url(#p0b0aeb76ea)">
     <use xlink:href="#mb2ae265c28" x="542.142352" y="310.780024" style="fill: #3498db; fill-opacity: 0.7; stroke: #3498db; stroke-opacity: 0.7"/>
    </g>
   </g>
   <g id="line2d_8">
    <g clip-path="url(#p0b0aeb76ea)">
     <use xlink:href="#mb2ae265c28" x="178.629246" y="320.675658" style="fill: #3498db; fill-opacity: 0.7; stroke: #3498db; stroke-opacity: 0.7"/>
    </g>
   </g>
   <g id="line2d_9">
    <g clip-path="url(#p0b0aeb76ea)">
     <use xlink:href="#mb2ae265c28" x="247.026226" y="203.9333" style="fill: #3498db; fill-opacity: 0.7; stroke: #3498db; stroke-opacity: 0.7"/>
    </g>
   </g>
   <g id="line2d_10">
    <g clip-path="url(#p0b0aeb76ea)">
     <use xlink:href="#mb2ae265c28" x="318.376321" y="283.799634" style="fill: #3498db; fill-opacity: 0.7; stroke: #3498db; stroke-opacity: 0.7"/>
    </g>
   </g>
   <g id="line2d_11">
    <g clip-path="url(#p0b0aeb76ea)">
     <use xlink:href="#mb2ae265c28" x="418.894449" y="335.6931" style="fill: #3498db; fill-opacity: 0.7; stroke: #3498db; stroke-opacity: 0.7"/>
    </g>
   </g>
   <g id="line2d_12">
    <g clip-path="url(#p0b0aeb76ea)">
     <use xlink:href="#mb2ae265c28" x="240.267058" y="258.10425" style="fill: #3498db; fill-opacity: 0.7; stroke: #3498db; stroke-opacity: 0.7"/>
    </g>
   </g>
   <g id="line2d_13">
    <g clip-path="url(#p0b0aeb76ea)">
     <use xlink:href="#mb2ae265c28" x="331.855422" y="114.869821" style="fill: #3498db; fill-opacity: 0.7; stroke: #3498db; stroke-opacity: 0.7"/>
    </g>
   </g>
   <g id="line2d_14">
    <g clip-path="url(#p0b0aeb76ea)">
     <use xlink:href="#mb2ae265c28" x="188.601736" y="207.531822" style="fill: #3498db; fill-opacity: 0.7; stroke: #3498db; stroke-opacity: 0.7"/>
    </g>
   </g>
   <g id="line2d_15">
    <g clip-path="url(#p0b0aeb76ea)">
     <use xlink:href="#mb2ae265c28" x="408.033868" y="367.513959" style="fill: #3498db; fill-opacity: 0.7; stroke: #3498db; stroke-opacity: 0.7"/>
    </g>
   </g>
   <g id="line2d_16">
    <g clip-path="url(#p0b0aeb76ea)">
     <use xlink:href="#mb2ae265c28" x="416.48746" y="325.08075" style="fill: #3498db; fill-opacity: 0.7; stroke: #3498db; stroke-opacity: 0.7"/>
    </g>
   </g>
   <g id="line2d_17">
    <g clip-path="url(#p0b0aeb76ea)">
     <use xlink:href="#mb2ae265c28" x="113.385626" y="58.881146" style="fill: #3498db; fill-opacity: 0.7; stroke: #3498db; stroke-opacity: 0.7"/>
    </g>
   </g>
   <g id="line2d_18">
    <g clip-path="url(#p0b0aeb76ea)">
     <use xlink:href="#mb2ae265c28" x="616.55793" y="106.928107" style="fill: #3498db; fill-opacity: 0.7; stroke: #3498db; stroke-opacity: 0.7"/>
    </g>
   </g>
   <g id="line2d_19">
    <g clip-path="url(#p0b0aeb76ea)">
     <use xlink:href="#mb2ae265c28" x="247.233805" y="349.996137" style="fill: #3498db; fill-opacity: 0.7; stroke: #3498db; stroke-opacity: 0.7"/>
    </g>
   </g>
   <g id="line2d_20">
    <g clip-path="url(#p0b0aeb76ea)">
     <use xlink:href="#mb2ae265c28" x="459.334677" y="232.867847" style="fill: #3498db; fill-opacity: 0.7; stroke: #3498db; stroke-opacity: 0.7"/>
    </g>
   </g>
   <g id="line2d_21">
    <g clip-path="url(#p0b0aeb76ea)">
     <use xlink:href="#mb2ae265c28" x="145.225203" y="214.049497" style="fill: #3498db; fill-opacity: 0.7; stroke: #3498db; stroke-opacity: 0.7"/>
    </g>
   </g>
   <g id="line2d_22">
    <g clip-path="url(#p0b0aeb76ea)">
     <use xlink:href="#mb2ae265c28" x="96.253555" y="72.412422" style="fill: #3498db; fill-opacity: 0.7; stroke: #3498db; stroke-opacity: 0.7"/>
    </g>
   </g>
   <g id="line2d_23">
    <g clip-path="url(#p0b0aeb76ea)">
     <use xlink:href="#mb2ae265c28" x="221.625551" y="156.817379" style="fill: #3498db; fill-opacity: 0.7; stroke: #3498db; stroke-opacity: 0.7"/>
    </g>
   </g>
   <g id="line2d_24">
    <g clip-path="url(#p0b0aeb76ea)">
     <use xlink:href="#mb2ae265c28" x="251.199212" y="205.536737" style="fill: #3498db; fill-opacity: 0.7; stroke: #3498db; stroke-opacity: 0.7"/>
    </g>
   </g>
   <g id="line2d_25">
    <g clip-path="url(#p0b0aeb76ea)">
     <use xlink:href="#mb2ae265c28" x="382.497967" y="320.179776" style="fill: #3498db; fill-opacity: 0.7; stroke: #3498db; stroke-opacity: 0.7"/>
    </g>
   </g>
   <g id="line2d_26">
    <defs>
     <path id="mdbc0fc49b1" d="M 0 6 
C 1.591219 6 3.117479 5.367802 4.242641 4.242641 
C 5.367802 3.117479 6 1.591219 6 0 
C 6 -1.591219 5.367802 -3.117479 4.242641 -4.242641 
C 3.117479 -5.367802 1.591219 -6 0 -6 
C -1.591219 -6 -3.117479 -5.367802 -4.242641 -4.242641 
C -5.367802 -3.117479 -6 -1.591219 -6 0 
C -6 1.591219 -5.367802 3.117479 -4.242641 4.242641 
C -3.117479 5.367802 -1.591219 6 0 6 
z
" style="stroke: #e74c3c"/>
    </defs>
    <g clip-path="url(#p0b0aeb76ea)">
     <use xlink:href="#mdbc0fc49b1" x="77.04" y="403.92" style="fill: #e74c3c; stroke: #e74c3c"/>
    </g>
   </g>
   <g id="line2d_27">
    <defs>
     <path id="m46af87193c" d="M 0 5 
C 1.326016 5 2.597899 4.473168 3.535534 3.535534 
C 4.473168 2.597899 5 1.326016 5 0 
C 5 -1.326016 4.473168 -2.597899 3.535534 -3.535534 
C 2.597899 -4.473168 1.326016 -5 0 -5 
C -1.326016 -5 -2.597899 -4.473168 -3.535534 -3.535534 
C -4.473168 -2.597899 -5 -1.326016 -5 0 
C -5 1.326016 -4.473168 2.597899 -3.535534 3.535534 
C -2.597899 4.473168 -1.326016 5 0 5 
z
" style="stroke: #3498db"/>
    </defs>
    <g clip-path="url(#p0b0aeb76ea)">
     <use xlink:href="#m46af87193c" x="356.4" y="403.92" style="fill: #3498db; stroke: #3498db"/>
    </g>
   </g>
   <g id="text_1">
    <!-- + -->
    <g transform="translate(106.094219 353.063125) scale(0.14 -0.14)">
     <defs>
      <path id="DejaVuSans-Bold-2b" d="M 3053 4013 
L 3053 2375 
L 4684 2375 
L 4684 1638 
L 3053 1638 
L 3053 0 
L 2309 0 
L 2309 1638 
L 678 1638 
L 678 2375 
L 2309 2375 
L 2309 4013 
L 3053 4013 
z
" transform="scale(0.015625)"/>
     </defs>
     <use xlink:href="#DejaVuSans-Bold-2b"/>
    </g>
   </g>
   <g id="text_2">
    <!-- + -->
    <g transform="translate(106.094219 236.783125) scale(0.14 -0.14)">
     <use xlink:href="#DejaVuSans-Bold-2b"/>
    </g>
   </g>
   <g id="text_3">
    <!-- + -->
    <g transform="translate(106.094219 120.503125) scale(0.14 -0.14)">
     <use xlink:href="#DejaVuSans-Bold-2b"/>
    </g>
   </g>
   <g id="text_4">
    <!-- + -->
    <g transform="translate(224.822219 353.063125) scale(0.14 -0.14)">
     <use xlink:href="#DejaVuSans-Bold-2b"/>
    </g>
   </g>
   <g id="text_5">
    <!-- + -->
    <g transform="translate(224.822219 236.783125) scale(0.14 -0.14)">
     <use xlink:href="#DejaVuSans-Bold-2b"/>
    </g>
   </g>
   <g id="text_6">
    <!-- + -->
    <g transform="translate(224.822219 120.503125) scale(0.14 -0.14)">
     <use xlink:href="#DejaVuSans-Bold-2b"/>
    </g>
   </g>
   <g id="text_7">
    <!-- + -->
    <g transform="translate(343.550219 353.063125) scale(0.14 -0.14)">
     <use xlink:href="#DejaVuSans-Bold-2b"/>
    </g>
   </g>
   <g id="text_8">
    <!-- + -->
    <g transform="translate(343.550219 236.783125) scale(0.14 -0.14)">
     <use xlink:href="#DejaVuSans-Bold-2b"/>
    </g>
   </g>
   <g id="text_9">
    <!-- + -->
    <g transform="translate(343.550219 120.503125) scale(0.14 -0.14)">
     <use xlink:href="#DejaVuSans-Bold-2b"/>
    </g>
   </g>
   <g id="text_10">
    <!-- + -->
    <g transform="translate(462.278219 353.063125) scale(0.14 -0.14)">
     <use xlink:href="#DejaVuSans-Bold-2b"/>
    </g>
   </g>
   <g id="text_11">
    <!-- + -->
    <g transform="translate(462.278219 236.783125) scale(0.14 -0.14)">
     <use xlink:href="#DejaVuSans-Bold-2b"/>
    </g>
   </g>
   <g id="text_12">
    <!-- + -->
    <g transform="translate(462.278219 120.503125) scale(0.14 -0.14)">
     <use xlink:href="#DejaVuSans-Bold-2b"/>
    </g>
   </g>
   <g id="text_13">
    <!-- + -->
    <g transform="translate(581.006219 353.063125) scale(0.14 -0.14)">
     <use xlink:href="#DejaVuSans-Bold-2b"/>
    </g>
   </g>
   <g id="text_14">
    <!-- + -->
    <g transform="translate(581.006219 236.783125) scale(0.14 -0.14)">
     <use xlink:href="#DejaVuSans-Bold-2b"/>
    </g>
   </g>
   <g id="text_15">
    <!-- + -->
    <g transform="translate(581.006219 120.503125) scale(0.14 -0.14)">
     <use xlink:href="#DejaVuSans-Bold-2b"/>
    </g>
   </g>
   <g id="text_16">
    <!-- e⁻ -->
    <g style="fill: #ffffff" transform="translate(282.081727 60.18727) scale(0.07 -0.07)">
     <defs>
      <path id="DejaVuSans-Bold-65" d="M 4031 1759 
L 4031 1441 
L 1416 1441 
Q 1456 1047 1700 850 
Q 1944 653 2381 653 
Q 2734 653 3104 758 
Q 3475 863 3866 1075 
L 3866 213 
Q 3469 63 3072 -14 
Q 2675 -91 2278 -91 
Q 1328 -91 801 392 
Q 275 875 275 1747 
Q 275 2603 792 3093 
Q 1309 3584 2216 3584 
Q 3041 3584 3536 3087 
Q 4031 2591 4031 1759 
z
M 2881 2131 
Q 2881 2450 2695 2645 
Q 2509 2841 2209 2841 
Q 1884 2841 1681 2658 
Q 1478 2475 1428 2131 
L 2881 2131 
z
" transform="scale(0.015625)"/>
      <path id="DejaVuSans-Bold-207b" d="M 428 3419 
L 2950 3419 
L 2950 3003 
L 428 3003 
L 428 3419 
z
" transform="scale(0.015625)"/>
     </defs>
     <use xlink:href="#DejaVuSans-Bold-65"/>
     <use xlink:href="#DejaVuSans-Bold-207b" transform="translate(67.822266 0)"/>
    </g>
   </g>
   <g id="text_17">
    <!-- e⁻ -->
    <g style="fill: #ffffff" transform="translate(481.798327 180.590361) scale(0.07 -0.07)">
     <use xlink:href="#DejaVuSans-Bold-65"/>
     <use xlink:href="#DejaVuSans-Bold-207b" transform="translate(67.822266 0)"/>
    </g>
   </g>
   <g id="text_18">
    <!-- e⁻ -->
    <g style="fill: #ffffff" transform="translate(159.989407 331.981437) scale(0.07 -0.07)">
     <use xlink:href="#DejaVuSans-Bold-65"/>
     <use xlink:href="#DejaVuSans-Bold-207b" transform="translate(67.822266 0)"/>
    </g>
   </g>
   <g id="text_19">
    <!-- e⁻ -->
    <g style="fill: #ffffff" transform="translate(105.271148 89.099321) scale(0.07 -0.07)">
     <use xlink:href="#DejaVuSans-Bold-65"/>
     <use xlink:href="#DejaVuSans-Bold-207b" transform="translate(67.822266 0)"/>
    </g>
   </g>
   <g id="text_20">
    <!-- e⁻ -->
    <g style="fill: #ffffff" transform="translate(408.673651 143.170741) scale(0.07 -0.07)">
     <use xlink:href="#DejaVuSans-Bold-65"/>
     <use xlink:href="#DejaVuSans-Bold-207b" transform="translate(67.822266 0)"/>
    </g>
   </g>
   <g id="text_21">
    <!-- e⁻ -->
    <g style="fill: #ffffff" transform="translate(84.319641 53.622393) scale(0.07 -0.07)">
     <use xlink:href="#DejaVuSans-Bold-65"/>
     <use xlink:href="#DejaVuSans-Bold-207b" transform="translate(67.822266 0)"/>
    </g>
   </g>
   <g id="text_22">
    <!-- e⁻ -->
    <g style="fill: #ffffff" transform="translate(537.921024 312.711587) scale(0.07 -0.07)">
     <use xlink:href="#DejaVuSans-Bold-65"/>
     <use xlink:href="#DejaVuSans-Bold-207b" transform="translate(67.822266 0)"/>
    </g>
   </g>
   <g id="text_23">
    <!-- e⁻ -->
    <g style="fill: #ffffff" transform="translate(174.407918 322.60722) scale(0.07 -0.07)">
     <use xlink:href="#DejaVuSans-Bold-65"/>
     <use xlink:href="#DejaVuSans-Bold-207b" transform="translate(67.822266 0)"/>
    </g>
   </g>
   <g id="text_24">
    <!-- e⁻ -->
    <g style="fill: #ffffff" transform="translate(242.804898 205.864863) scale(0.07 -0.07)">
     <use xlink:href="#DejaVuSans-Bold-65"/>
     <use xlink:href="#DejaVuSans-Bold-207b" transform="translate(67.822266 0)"/>
    </g>
   </g>
   <g id="text_25">
    <!-- e⁻ -->
    <g style="fill: #ffffff" transform="translate(314.154993 285.731197) scale(0.07 -0.07)">
     <use xlink:href="#DejaVuSans-Bold-65"/>
     <use xlink:href="#DejaVuSans-Bold-207b" transform="translate(67.822266 0)"/>
    </g>
   </g>
   <g id="text_26">
    <!-- e⁻ -->
    <g style="fill: #ffffff" transform="translate(414.673121 337.624662) scale(0.07 -0.07)">
     <use xlink:href="#DejaVuSans-Bold-65"/>
     <use xlink:href="#DejaVuSans-Bold-207b" transform="translate(67.822266 0)"/>
    </g>
   </g>
   <g id="text_27">
    <!-- e⁻ -->
    <g style="fill: #ffffff" transform="translate(236.04573 260.035812) scale(0.07 -0.07)">
     <use xlink:href="#DejaVuSans-Bold-65"/>
     <use xlink:href="#DejaVuSans-Bold-207b" transform="translate(67.822266 0)"/>
    </g>
   </g>
   <g id="text_28">
    <!-- e⁻ -->
    <g style="fill: #ffffff" transform="translate(327.634093 116.801384) scale(0.07 -0.07)">
     <use xlink:href="#DejaVuSans-Bold-65"/>
     <use xlink:href="#DejaVuSans-Bold-207b" transform="translate(67.822266 0)"/>
    </g>
   </g>
   <g id="text_29">
    <!-- e⁻ -->
    <g style="fill: #ffffff" transform="translate(184.380407 209.463385) scale(0.07 -0.07)">
     <use xlink:href="#DejaVuSans-Bold-65"/>
     <use xlink:href="#DejaVuSans-Bold-207b" transform="translate(67.822266 0)"/>
    </g>
   </g>
   <g id="text_30">
    <!-- e⁻ -->
    <g style="fill: #ffffff" transform="translate(403.81254 369.445521) scale(0.07 -0.07)">
     <use xlink:href="#DejaVuSans-Bold-65"/>
     <use xlink:href="#DejaVuSans-Bold-207b" transform="translate(67.822266 0)"/>
    </g>
   </g>
   <g id="text_31">
    <!-- e⁻ -->
    <g style="fill: #ffffff" transform="translate(412.266132 327.012312) scale(0.07 -0.07)">
     <use xlink:href="#DejaVuSans-Bold-65"/>
     <use xlink:href="#DejaVuSans-Bold-207b" transform="translate(67.822266 0)"/>
    </g>
   </g>
   <g id="text_32">
    <!-- e⁻ -->
    <g style="fill: #ffffff" transform="translate(109.164298 60.812709) scale(0.07 -0.07)">
     <use xlink:href="#DejaVuSans-Bold-65"/>
     <use xlink:href="#DejaVuSans-Bold-207b" transform="translate(67.822266 0)"/>
    </g>
   </g>
   <g id="text_33">
    <!-- e⁻ -->
    <g style="fill: #ffffff" transform="translate(612.336601 108.859669) scale(0.07 -0.07)">
     <use xlink:href="#DejaVuSans-Bold-65"/>
     <use xlink:href="#DejaVuSans-Bold-207b" transform="translate(67.822266 0)"/>
    </g>
   </g>
   <g id="text_34">
    <!-- e⁻ -->
    <g style="fill: #ffffff" transform="translate(243.012477 351.9277) scale(0.07 -0.07)">
     <use xlink:href="#DejaVuSans-Bold-65"/>
     <use xlink:href="#DejaVuSans-Bold-207b" transform="translate(67.822266 0)"/>
    </g>
   </g>
   <g id="text_35">
    <!-- e⁻ -->
    <g style="fill: #ffffff" transform="translate(455.113348 234.79941) scale(0.07 -0.07)">
     <use xlink:href="#DejaVuSans-Bold-65"/>
     <use xlink:href="#DejaVuSans-Bold-207b" transform="translate(67.822266 0)"/>
    </g>
   </g>
   <g id="text_36">
    <!-- e⁻ -->
    <g style="fill: #ffffff" transform="translate(141.003874 215.981059) scale(0.07 -0.07)">
     <use xlink:href="#DejaVuSans-Bold-65"/>
     <use xlink:href="#DejaVuSans-Bold-207b" transform="translate(67.822266 0)"/>
    </g>
   </g>
   <g id="text_37">
    <!-- e⁻ -->
    <g style="fill: #ffffff" transform="translate(92.032226 74.343985) scale(0.07 -0.07)">
     <use xlink:href="#DejaVuSans-Bold-65"/>
     <use xlink:href="#DejaVuSans-Bold-207b" transform="translate(67.822266 0)"/>
    </g>
   </g>
   <g id="text_38">
    <!-- e⁻ -->
    <g style="fill: #ffffff" transform="translate(217.404223 158.748941) scale(0.07 -0.07)">
     <use xlink:href="#DejaVuSans-Bold-65"/>
     <use xlink:href="#DejaVuSans-Bold-207b" transform="translate(67.822266 0)"/>
    </g>
   </g>
   <g id="text_39">
    <!-- e⁻ -->
    <g style="fill: #ffffff" transform="translate(246.977884 207.468299) scale(0.07 -0.07)">
     <use xlink:href="#DejaVuSans-Bold-65"/>
     <use xlink:href="#DejaVuSans-Bold-207b" transform="translate(67.822266 0)"/>
    </g>
   </g>
   <g id="text_40">
    <!-- e⁻ -->
    <g style="fill: #ffffff" transform="translate(378.276639 322.111339) scale(0.07 -0.07)">
     <use xlink:href="#DejaVuSans-Bold-65"/>
     <use xlink:href="#DejaVuSans-Bold-207b" transform="translate(67.822266 0)"/>
    </g>
   </g>
   <g id="text_41">
    <!-- Electron Sea Model -->
    <g transform="translate(280.410625 27.72) scale(0.14 -0.14)">
     <defs>
      <path id="DejaVuSans-Bold-45" d="M 588 4666 
L 3834 4666 
L 3834 3756 
L 1791 3756 
L 1791 2888 
L 3713 2888 
L 3713 1978 
L 1791 1978 
L 1791 909 
L 3903 909 
L 3903 0 
L 588 0 
L 588 4666 
z
" transform="scale(0.015625)"/>
      <path id="DejaVuSans-Bold-6c" d="M 538 4863 
L 1656 4863 
L 1656 0 
L 538 0 
L 538 4863 
z
" transform="scale(0.015625)"/>
      <path id="DejaVuSans-Bold-63" d="M 3366 3391 
L 3366 2478 
Q 3138 2634 2908 2709 
Q 2678 2784 2431 2784 
Q 1963 2784 1702 2511 
Q 1441 2238 1441 1747 
Q 1441 1256 1702 982 
Q 1963 709 2431 709 
Q 2694 709 2930 787 
Q 3166 866 3366 1019 
L 3366 103 
Q 3103 6 2833 -42 
Q 2563 -91 2291 -91 
Q 1344 -91 809 395 
Q 275 881 275 1747 
Q 275 2613 809 3098 
Q 1344 3584 2291 3584 
Q 2566 3584 2833 3536 
Q 3100 3488 3366 3391 
z
" transform="scale(0.015625)"/>
      <path id="DejaVuSans-Bold-74" d="M 1759 4494 
L 1759 3500 
L 2913 3500 
L 2913 2700 
L 1759 2700 
L 1759 1216 
Q 1759 972 1856 886 
Q 1953 800 2241 800 
L 2816 800 
L 2816 0 
L 1856 0 
Q 1194 0 917 276 
Q 641 553 641 1216 
L 641 2700 
L 84 2700 
L 84 3500 
L 641 3500 
L 641 4494 
L 1759 4494 
z
" transform="scale(0.015625)"/>
      <path id="DejaVuSans-Bold-72" d="M 3138 2547 
Q 2991 2616 2845 2648 
Q 2700 2681 2553 2681 
Q 2122 2681 1889 2404 
Q 1656 2128 1656 1613 
L 1656 0 
L 538 0 
L 538 3500 
L 1656 3500 
L 1656 2925 
Q 1872 3269 2151 3426 
Q 2431 3584 2822 3584 
Q 2878 3584 2943 3579 
Q 3009 3575 3134 3559 
L 3138 2547 
z
" transform="scale(0.015625)"/>
      <path id="DejaVuSans-Bold-6f" d="M 2203 2784 
Q 1831 2784 1636 2517 
Q 1441 2250 1441 1747 
Q 1441 1244 1636 976 
Q 1831 709 2203 709 
Q 2569 709 2762 976 
Q 2956 1244 2956 1747 
Q 2956 2250 2762 2517 
Q 2569 2784 2203 2784 
z
M 2203 3584 
Q 3106 3584 3614 3096 
Q 4122 2609 4122 1747 
Q 4122 884 3614 396 
Q 3106 -91 2203 -91 
Q 1297 -91 786 396 
Q 275 884 275 1747 
Q 275 2609 786 3096 
Q 1297 3584 2203 3584 
z
" transform="scale(0.015625)"/>
      <path id="DejaVuSans-Bold-6e" d="M 4056 2131 
L 4056 0 
L 2931 0 
L 2931 347 
L 2931 1631 
Q 2931 2084 2911 2256 
Q 2891 2428 2841 2509 
Q 2775 2619 2662 2680 
Q 2550 2741 2406 2741 
Q 2056 2741 1856 2470 
Q 1656 2200 1656 1722 
L 1656 0 
L 538 0 
L 538 3500 
L 1656 3500 
L 1656 2988 
Q 1909 3294 2193 3439 
Q 2478 3584 2822 3584 
Q 3428 3584 3742 3212 
Q 4056 2841 4056 2131 
z
" transform="scale(0.015625)"/>
      <path id="DejaVuSans-Bold-20" transform="scale(0.015625)"/>
      <path id="DejaVuSans-Bold-53" d="M 3834 4519 
L 3834 3531 
Q 3450 3703 3084 3790 
Q 2719 3878 2394 3878 
Q 1963 3878 1756 3759 
Q 1550 3641 1550 3391 
Q 1550 3203 1689 3098 
Q 1828 2994 2194 2919 
L 2706 2816 
Q 3484 2659 3812 2340 
Q 4141 2022 4141 1434 
Q 4141 663 3683 286 
Q 3225 -91 2284 -91 
Q 1841 -91 1394 -6 
Q 947 78 500 244 
L 500 1259 
Q 947 1022 1364 901 
Q 1781 781 2169 781 
Q 2563 781 2772 912 
Q 2981 1044 2981 1288 
Q 2981 1506 2839 1625 
Q 2697 1744 2272 1838 
L 1806 1941 
Q 1106 2091 782 2419 
Q 459 2747 459 3303 
Q 459 4000 909 4375 
Q 1359 4750 2203 4750 
Q 2588 4750 2994 4692 
Q 3400 4634 3834 4519 
z
" transform="scale(0.015625)"/>
      <path id="DejaVuSans-Bold-61" d="M 2106 1575 
Q 1756 1575 1579 1456 
Q 1403 1338 1403 1106 
Q 1403 894 1545 773 
Q 1688 653 1941 653 
Q 2256 653 2472 879 
Q 2688 1106 2688 1447 
L 2688 1575 
L 2106 1575 
z
M 3816 1997 
L 3816 0 
L 2688 0 
L 2688 519 
Q 2463 200 2181 54 
Q 1900 -91 1497 -91 
Q 953 -91 614 226 
Q 275 544 275 1050 
Q 275 1666 698 1953 
Q 1122 2241 2028 2241 
L 2688 2241 
L 2688 2328 
Q 2688 2594 2478 2717 
Q 2269 2841 1825 2841 
Q 1466 2841 1156 2769 
Q 847 2697 581 2553 
L 581 3406 
Q 941 3494 1303 3539 
Q 1666 3584 2028 3584 
Q 2975 3584 3395 3211 
Q 3816 2838 3816 1997 
z
" transform="scale(0.015625)"/>
      <path id="DejaVuSans-Bold-4d" d="M 588 4666 
L 2119 4666 
L 3181 2169 
L 4250 4666 
L 5778 4666 
L 5778 0 
L 4641 0 
L 4641 3413 
L 3566 897 
L 2803 897 
L 1728 3413 
L 1728 0 
L 588 0 
L 588 4666 
z
" transform="scale(0.015625)"/>
      <path id="DejaVuSans-Bold-64" d="M 2919 2988 
L 2919 4863 
L 4044 4863 
L 4044 0 
L 2919 0 
L 2919 506 
Q 2688 197 2409 53 
Q 2131 -91 1766 -91 
Q 1119 -91 703 423 
Q 288 938 288 1747 
Q 288 2556 703 3070 
Q 1119 3584 1766 3584 
Q 2128 3584 2408 3439 
Q 2688 3294 2919 2988 
z
M 2181 722 
Q 2541 722 2730 984 
Q 2919 1247 2919 1747 
Q 2919 2247 2730 2509 
Q 2541 2772 2181 2772 
Q 1825 2772 1636 2509 
Q 1447 2247 1447 1747 
Q 1447 1247 1636 984 
Q 1825 722 2181 722 
z
" transform="scale(0.015625)"/>
     </defs>
     <use xlink:href="#DejaVuSans-Bold-45"/>
     <use xlink:href="#DejaVuSans-Bold-6c" transform="translate(68.310547 0)"/>
     <use xlink:href="#DejaVuSans-Bold-65" transform="translate(102.587891 0)"/>
     <use xlink:href="#DejaVuSans-Bold-63" transform="translate(170.410156 0)"/>
     <use xlink:href="#DejaVuSans-Bold-74" transform="translate(229.6875 0)"/>
     <use xlink:href="#DejaVuSans-Bold-72" transform="translate(277.490234 0)"/>
     <use xlink:href="#DejaVuSans-Bold-6f" transform="translate(326.806641 0)"/>
     <use xlink:href="#DejaVuSans-Bold-6e" transform="translate(395.507812 0)"/>
     <use xlink:href="#DejaVuSans-Bold-20" transform="translate(466.699219 0)"/>
     <use xlink:href="#DejaVuSans-Bold-53" transform="translate(501.513672 0)"/>
     <use xlink:href="#DejaVuSans-Bold-65" transform="translate(573.535156 0)"/>
     <use xlink:href="#DejaVuSans-Bold-61" transform="translate(641.357422 0)"/>
     <use xlink:href="#DejaVuSans-Bold-20" transform="translate(708.837891 0)"/>
     <use xlink:href="#DejaVuSans-Bold-4d" transform="translate(743.652344 0)"/>
     <use xlink:href="#DejaVuSans-Bold-6f" transform="translate(843.164062 0)"/>
     <use xlink:href="#DejaVuSans-Bold-64" transform="translate(911.865234 0)"/>
     <use xlink:href="#DejaVuSans-Bold-65" transform="translate(983.447266 0)"/>
     <use xlink:href="#DejaVuSans-Bold-6c" transform="translate(1051.269531 0)"/>
    </g>
   </g>
   <g id="text_42">
    <!-- = Metal cation (fixed) -->
    <g transform="translate(111.96 406.1275) scale(0.08 -0.08)">
     <defs>
      <path id="DejaVuSans-3d" d="M 678 2906 
L 4684 2906 
L 4684 2381 
L 678 2381 
L 678 2906 
z
M 678 1631 
L 4684 1631 
L 4684 1100 
L 678 1100 
L 678 1631 
z
" transform="scale(0.015625)"/>
      <path id="DejaVuSans-20" transform="scale(0.015625)"/>
      <path id="DejaVuSans-4d" d="M 628 4666 
L 1569 4666 
L 2759 1491 
L 3956 4666 
L 4897 4666 
L 4897 0 
L 4281 0 
L 4281 4097 
L 3078 897 
L 2444 897 
L 1241 4097 
L 1241 0 
L 628 0 
L 628 4666 
z
" transform="scale(0.015625)"/>
      <path id="DejaVuSans-65" d="M 3597 1894 
L 3597 1613 
L 953 1613 
Q 991 1019 1311 708 
Q 1631 397 2203 397 
Q 2534 397 2845 478 
Q 3156 559 3463 722 
L 3463 178 
Q 3153 47 2828 -22 
Q 2503 -91 2169 -91 
Q 1331 -91 842 396 
Q 353 884 353 1716 
Q 353 2575 817 3079 
Q 1281 3584 2069 3584 
Q 2775 3584 3186 3129 
Q 3597 2675 3597 1894 
z
M 3022 2063 
Q 3016 2534 2758 2815 
Q 2500 3097 2075 3097 
Q 1594 3097 1305 2825 
Q 1016 2553 972 2059 
L 3022 2063 
z
" transform="scale(0.015625)"/>
      <path id="DejaVuSans-74" d="M 1172 4494 
L 1172 3500 
L 2356 3500 
L 2356 3053 
L 1172 3053 
L 1172 1153 
Q 1172 725 1289 603 
Q 1406 481 1766 481 
L 2356 481 
L 2356 0 
L 1766 0 
Q 1100 0 847 248 
Q 594 497 594 1153 
L 594 3053 
L 172 3053 
L 172 3500 
L 594 3500 
L 594 4494 
L 1172 4494 
z
" transform="scale(0.015625)"/>
      <path id="DejaVuSans-61" d="M 2194 1759 
Q 1497 1759 1228 1600 
Q 959 1441 959 1056 
Q 959 750 1161 570 
Q 1363 391 1709 391 
Q 2188 391 2477 730 
Q 2766 1069 2766 1631 
L 2766 1759 
L 2194 1759 
z
M 3341 1997 
L 3341 0 
L 2766 0 
L 2766 531 
Q 2569 213 2275 61 
Q 1981 -91 1556 -91 
Q 1019 -91 701 211 
Q 384 513 384 1019 
Q 384 1609 779 1909 
Q 1175 2209 1959 2209 
L 2766 2209 
L 2766 2266 
Q 2766 2663 2505 2880 
Q 2244 3097 1772 3097 
Q 1472 3097 1187 3025 
Q 903 2953 641 2809 
L 641 3341 
Q 956 3463 1253 3523 
Q 1550 3584 1831 3584 
Q 2591 3584 2966 3190 
Q 3341 2797 3341 1997 
z
" transform="scale(0.015625)"/>
      <path id="DejaVuSans-6c" d="M 603 4863 
L 1178 4863 
L 1178 0 
L 603 0 
L 603 4863 
z
" transform="scale(0.015625)"/>
      <path id="DejaVuSans-63" d="M 3122 3366 
L 3122 2828 
Q 2878 2963 2633 3030 
Q 2388 3097 2138 3097 
Q 1578 3097 1268 2742 
Q 959 2388 959 1747 
Q 959 1106 1268 751 
Q 1578 397 2138 397 
Q 2388 397 2633 464 
Q 2878 531 3122 666 
L 3122 134 
Q 2881 22 2623 -34 
Q 2366 -91 2075 -91 
Q 1284 -91 818 406 
Q 353 903 353 1747 
Q 353 2603 823 3093 
Q 1294 3584 2113 3584 
Q 2378 3584 2631 3529 
Q 2884 3475 3122 3366 
z
" transform="scale(0.015625)"/>
      <path id="DejaVuSans-69" d="M 603 3500 
L 1178 3500 
L 1178 0 
L 603 0 
L 603 3500 
z
M 603 4863 
L 1178 4863 
L 1178 4134 
L 603 4134 
L 603 4863 
z
" transform="scale(0.015625)"/>
      <path id="DejaVuSans-6f" d="M 1959 3097 
Q 1497 3097 1228 2736 
Q 959 2375 959 1747 
Q 959 1119 1226 758 
Q 1494 397 1959 397 
Q 2419 397 2687 759 
Q 2956 1122 2956 1747 
Q 2956 2369 2687 2733 
Q 2419 3097 1959 3097 
z
M 1959 3584 
Q 2709 3584 3137 3096 
Q 3566 2609 3566 1747 
Q 3566 888 3137 398 
Q 2709 -91 1959 -91 
Q 1206 -91 779 398 
Q 353 888 353 1747 
Q 353 2609 779 3096 
Q 1206 3584 1959 3584 
z
" transform="scale(0.015625)"/>
      <path id="DejaVuSans-6e" d="M 3513 2113 
L 3513 0 
L 2938 0 
L 2938 2094 
Q 2938 2591 2744 2837 
Q 2550 3084 2163 3084 
Q 1697 3084 1428 2787 
Q 1159 2491 1159 1978 
L 1159 0 
L 581 0 
L 581 3500 
L 1159 3500 
L 1159 2956 
Q 1366 3272 1645 3428 
Q 1925 3584 2291 3584 
Q 2894 3584 3203 3211 
Q 3513 2838 3513 2113 
z
" transform="scale(0.015625)"/>
      <path id="DejaVuSans-28" d="M 1984 4856 
Q 1566 4138 1362 3434 
Q 1159 2731 1159 2009 
Q 1159 1288 1364 580 
Q 1569 -128 1984 -844 
L 1484 -844 
Q 1016 -109 783 600 
Q 550 1309 550 2009 
Q 550 2706 781 3412 
Q 1013 4119 1484 4856 
L 1984 4856 
z
" transform="scale(0.015625)"/>
      <path id="DejaVuSans-66" d="M 2375 4863 
L 2375 4384 
L 1825 4384 
Q 1516 4384 1395 4259 
Q 1275 4134 1275 3809 
L 1275 3500 
L 2222 3500 
L 2222 3053 
L 1275 3053 
L 1275 0 
L 697 0 
L 697 3053 
L 147 3053 
L 147 3500 
L 697 3500 
L 697 3744 
Q 697 4328 969 4595 
Q 1241 4863 1831 4863 
L 2375 4863 
z
" transform="scale(0.015625)"/>
      <path id="DejaVuSans-78" d="M 3513 3500 
L 2247 1797 
L 3578 0 
L 2900 0 
L 1881 1375 
L 863 0 
L 184 0 
L 1544 1831 
L 300 3500 
L 978 3500 
L 1906 2253 
L 2834 3500 
L 3513 3500 
z
" transform="scale(0.015625)"/>
      <path id="DejaVuSans-64" d="M 2906 2969 
L 2906 4863 
L 3481 4863 
L 3481 0 
L 2906 0 
L 2906 525 
Q 2725 213 2448 61 
Q 2172 -91 1784 -91 
Q 1150 -91 751 415 
Q 353 922 353 1747 
Q 353 2572 751 3078 
Q 1150 3584 1784 3584 
Q 2172 3584 2448 3432 
Q 2725 3281 2906 2969 
z
M 947 1747 
Q 947 1113 1208 752 
Q 1469 391 1925 391 
Q 2381 391 2643 752 
Q 2906 1113 2906 1747 
Q 2906 2381 2643 2742 
Q 2381 3103 1925 3103 
Q 1469 3103 1208 2742 
Q 947 2381 947 1747 
z
" transform="scale(0.015625)"/>
      <path id="DejaVuSans-29" d="M 513 4856 
L 1013 4856 
Q 1481 4119 1714 3412 
Q 1947 2706 1947 2009 
Q 1947 1309 1714 600 
Q 1481 -109 1013 -844 
L 513 -844 
Q 928 -128 1133 580 
Q 1338 1288 1338 2009 
Q 1338 2731 1133 3434 
Q 928 4138 513 4856 
z
" transform="scale(0.015625)"/>
     </defs>
     <use xlink:href="#DejaVuSans-3d"/>
     <use xlink:href="#DejaVuSans-20" transform="translate(83.789062 0)"/>
     <use xlink:href="#DejaVuSans-4d" transform="translate(115.576172 0)"/>
     <use xlink:href="#DejaVuSans-65" transform="translate(201.855469 0)"/>
     <use xlink:href="#DejaVuSans-74" transform="translate(263.378906 0)"/>
     <use xlink:href="#DejaVuSans-61" transform="translate(302.587891 0)"/>
     <use xlink:href="#DejaVuSans-6c" transform="translate(363.867188 0)"/>
     <use xlink:href="#DejaVuSans-20" transform="translate(391.650391 0)"/>
     <use xlink:href="#DejaVuSans-63" transform="translate(423.4375 0)"/>
     <use xlink:href="#DejaVuSans-61" transform="translate(478.417969 0)"/>
     <use xlink:href="#DejaVuSans-74" transform="translate(539.697266 0)"/>
     <use xlink:href="#DejaVuSans-69" transform="translate(578.90625 0)"/>
     <use xlink:href="#DejaVuSans-6f" transform="translate(606.689453 0)"/>
     <use xlink:href="#DejaVuSans-6e" transform="translate(667.871094 0)"/>
     <use xlink:href="#DejaVuSans-20" transform="translate(731.25 0)"/>
     <use xlink:href="#DejaVuSans-28" transform="translate(763.037109 0)"/>
     <use xlink:href="#DejaVuSans-66" transform="translate(802.050781 0)"/>
     <use xlink:href="#DejaVuSans-69" transform="translate(837.255859 0)"/>
     <use xlink:href="#DejaVuSans-78" transform="translate(865.039062 0)"/>
     <use xlink:href="#DejaVuSans-65" transform="translate(921.09375 0)"/>
     <use xlink:href="#DejaVuSans-64" transform="translate(982.617188 0)"/>
     <use xlink:href="#DejaVuSans-29" transform="translate(1046.09375 0)"/>
    </g>
   </g>
   <g id="text_43">
    <!-- = Delocalized electron (mobile) -->
    <g transform="translate(391.32 406.1275) scale(0.08 -0.08)">
     <defs>
      <path id="DejaVuSans-44" d="M 1259 4147 
L 1259 519 
L 2022 519 
Q 2988 519 3436 956 
Q 3884 1394 3884 2338 
Q 3884 3275 3436 3711 
Q 2988 4147 2022 4147 
L 1259 4147 
z
M 628 4666 
L 1925 4666 
Q 3281 4666 3915 4102 
Q 4550 3538 4550 2338 
Q 4550 1131 3912 565 
Q 3275 0 1925 0 
L 628 0 
L 628 4666 
z
" transform="scale(0.015625)"/>
      <path id="DejaVuSans-7a" d="M 353 3500 
L 3084 3500 
L 3084 2975 
L 922 459 
L 3084 459 
L 3084 0 
L 275 0 
L 275 525 
L 2438 3041 
L 353 3041 
L 353 3500 
z
" transform="scale(0.015625)"/>
      <path id="DejaVuSans-72" d="M 2631 2963 
Q 2534 3019 2420 3045 
Q 2306 3072 2169 3072 
Q 1681 3072 1420 2755 
Q 1159 2438 1159 1844 
L 1159 0 
L 581 0 
L 581 3500 
L 1159 3500 
L 1159 2956 
Q 1341 3275 1631 3429 
Q 1922 3584 2338 3584 
Q 2397 3584 2469 3576 
Q 2541 3569 2628 3553 
L 2631 2963 
z
" transform="scale(0.015625)"/>
      <path id="DejaVuSans-6d" d="M 3328 2828 
Q 3544 3216 3844 3400 
Q 4144 3584 4550 3584 
Q 5097 3584 5394 3201 
Q 5691 2819 5691 2113 
L 5691 0 
L 5113 0 
L 5113 2094 
Q 5113 2597 4934 2840 
Q 4756 3084 4391 3084 
Q 3944 3084 3684 2787 
Q 3425 2491 3425 1978 
L 3425 0 
L 2847 0 
L 2847 2094 
Q 2847 2600 2669 2842 
Q 2491 3084 2119 3084 
Q 1678 3084 1418 2786 
Q 1159 2488 1159 1978 
L 1159 0 
L 581 0 
L 581 3500 
L 1159 3500 
L 1159 2956 
Q 1356 3278 1631 3431 
Q 1906 3584 2284 3584 
Q 2666 3584 2933 3390 
Q 3200 3197 3328 2828 
z
" transform="scale(0.015625)"/>
      <path id="DejaVuSans-62" d="M 3116 1747 
Q 3116 2381 2855 2742 
Q 2594 3103 2138 3103 
Q 1681 3103 1420 2742 
Q 1159 2381 1159 1747 
Q 1159 1113 1420 752 
Q 1681 391 2138 391 
Q 2594 391 2855 752 
Q 3116 1113 3116 1747 
z
M 1159 2969 
Q 1341 3281 1617 3432 
Q 1894 3584 2278 3584 
Q 2916 3584 3314 3078 
Q 3713 2572 3713 1747 
Q 3713 922 3314 415 
Q 2916 -91 2278 -91 
Q 1894 -91 1617 61 
Q 1341 213 1159 525 
L 1159 0 
L 581 0 
L 581 4863 
L 1159 4863 
L 1159 2969 
z
" transform="scale(0.015625)"/>
     </defs>
     <use xlink:href="#DejaVuSans-3d"/>
     <use xlink:href="#DejaVuSans-20" transform="translate(83.789062 0)"/>
     <use xlink:href="#DejaVuSans-44" transform="translate(115.576172 0)"/>
     <use xlink:href="#DejaVuSans-65" transform="translate(192.578125 0)"/>
     <use xlink:href="#DejaVuSans-6c" transform="translate(254.101562 0)"/>
     <use xlink:href="#DejaVuSans-6f" transform="translate(281.884766 0)"/>
     <use xlink:href="#DejaVuSans-63" transform="translate(343.066406 0)"/>
     <use xlink:href="#DejaVuSans-61" transform="translate(398.046875 0)"/>
     <use xlink:href="#DejaVuSans-6c" transform="translate(459.326172 0)"/>
     <use xlink:href="#DejaVuSans-69" transform="translate(487.109375 0)"/>
     <use xlink:href="#DejaVuSans-7a" transform="translate(514.892578 0)"/>
     <use xlink:href="#DejaVuSans-65" transform="translate(567.382812 0)"/>
     <use xlink:href="#DejaVuSans-64" transform="translate(628.90625 0)"/>
     <use xlink:href="#DejaVuSans-20" transform="translate(692.382812 0)"/>
     <use xlink:href="#DejaVuSans-65" transform="translate(724.169922 0)"/>
     <use xlink:href="#DejaVuSans-6c" transform="translate(785.693359 0)"/>
     <use xlink:href="#DejaVuSans-65" transform="translate(813.476562 0)"/>
     <use xlink:href="#DejaVuSans-63" transform="translate(875 0)"/>
     <use xlink:href="#DejaVuSans-74" transform="translate(929.980469 0)"/>
     <use xlink:href="#DejaVuSans-72" transform="translate(969.189453 0)"/>
     <use xlink:href="#DejaVuSans-6f" transform="translate(1008.052734 0)"/>
     <use xlink:href="#DejaVuSans-6e" transform="translate(1069.234375 0)"/>
     <use xlink:href="#DejaVuSans-20" transform="translate(1132.613281 0)"/>
     <use xlink:href="#DejaVuSans-28" transform="translate(1164.400391 0)"/>
     <use xlink:href="#DejaVuSans-6d" transform="translate(1203.414062 0)"/>
     <use xlink:href="#DejaVuSans-6f" transform="translate(1300.826172 0)"/>
     <use xlink:href="#DejaVuSans-62" transform="translate(1362.007812 0)"/>
     <use xlink:href="#DejaVuSans-69" transform="translate(1425.484375 0)"/>
     <use xlink:href="#DejaVuSans-6c" transform="translate(1453.267578 0)"/>
     <use xlink:href="#DejaVuSans-65" transform="translate(1481.050781 0)"/>
     <use xlink:href="#DejaVuSans-29" transform="translate(1542.574219 0)"/>
    </g>
   </g>
  </g>
 </g>
 <defs>
  <clipPath id="p0b0aeb76ea">
   <rect x="7.2" y="7.2" width="698.4" height="410.4"/>
  </clipPath>
 </defs>
</svg>
