<?xml version="1.0" encoding="utf-8" standalone="no"?>
<!DOCTYPE svg PUBLIC "-//W3C//DTD SVG 1.1//EN"
  "http://www.w3.org/Graphics/SVG/1.1/DTD/svg11.dtd">
<svg xmlns:xlink="http://www.w3.org/1999/xlink" width="712.8pt" height="424.877812pt" viewBox="0 0 712.8 424.877812" xmlns="http://www.w3.org/2000/svg" version="1.1">
 <metadata>
  <rdf:RDF xmlns:dc="http://purl.org/dc/elements/1.1/" xmlns:cc="http://creativecommons.org/ns#" xmlns:rdf="http://www.w3.org/1999/02/22-rdf-syntax-ns#">
   <cc:Work>
    <dc:type rdf:resource="http://purl.org/dc/dcmitype/StillImage"/>
    <dc:date>2026-01-02T16:05:21.193721</dc:date>
    <dc:format>image/svg+xml</dc:format>
    <dc:creator>
     <cc:Agent>
      <dc:title>Matplotlib v3.10.8, https://matplotlib.org/</dc:title>
     </cc:Agent>
    </dc:creator>
   </cc:Work>
  </rdf:RDF>
 </metadata>
 <defs>
  <style type="text/css">*{stroke-linejoin: round; stroke-linecap: butt}</style>
 </defs>
 <g id="figure_1">
  <g id="patch_1">
   <path d="M 0 424.877812 
L 712.8 424.877812 
L 712.8 0 
L 0 0 
z
" style="fill: #ffffff"/>
  </g>
  <g id="axes_1">
   <g id="patch_2">
    <path d="M 42.12 353.537812 
L 286.56 353.537812 
L 286.56 96.977813 
L 42.12 96.977813 
z
" clip-path="url(#p6f2056a00e)" style="fill: #3498db; opacity: 0.2; stroke: #3498db; stroke-width: 2.5; stroke-linejoin: miter"/>
   </g>
   <g id="patch_3">
    <path d="M 77.04 299.018812 
C 79.818268 299.018812 82.483119 298.005083 84.447651 296.200887 
C 86.412183 294.39669 87.516 291.949332 87.516 289.397812 
C 87.516 286.846293 86.412183 284.398935 84.447651 282.594738 
C 82.483119 280.790542 79.818268 279.776813 77.04 279.776813 
C 74.261732 279.776813 71.596881 280.790542 69.632349 282.594738 
C 67.667817 284.398935 66.564 286.846293 66.564 289.397812 
C 66.564 291.949332 67.667817 294.39669 69.632349 296.200887 
C 71.596881 298.005083 74.261732 299.018812 77.04 299.018812 
z
" clip-path="url(#p6f2056a00e)" style="fill: #ffffff; stroke: #e74c3c; stroke-linejoin: miter"/>
   </g>
   <g id="patch_4">
    <path d="M 77.04 247.706813 
C 79.818268 247.706813 82.483119 246.693083 84.447651 244.888887 
C 86.412183 243.08469 87.516 240.637332 87.516 238.085813 
C 87.516 235.534293 86.412183 233.086935 84.447651 231.282738 
C 82.483119 229.478542 79.818268 228.464812 77.04 228.464812 
C 74.261732 228.464812 71.596881 229.478542 69.632349 231.282738 
C 67.667817 233.086935 66.564 235.534293 66.564 238.085813 
C 66.564 240.637332 67.667817 243.08469 69.632349 244.888887 
C 71.596881 246.693083 74.261732 247.706813 77.04 247.706813 
z
" clip-path="url(#p6f2056a00e)" style="fill: #ffffff; stroke: #e74c3c; stroke-linejoin: miter"/>
   </g>
   <g id="patch_5">
    <path d="M 77.04 196.394813 
C 79.818268 196.394813 82.483119 195.381083 84.447651 193.576887 
C 86.412183 191.77269 87.516 189.325332 87.516 186.773812 
C 87.516 184.222293 86.412183 181.774935 84.447651 179.970738 
C 82.483119 178.166542 79.818268 177.152812 77.04 177.152812 
C 74.261732 177.152812 71.596881 178.166542 69.632349 179.970738 
C 67.667817 181.774935 66.564 184.222293 66.564 186.773812 
C 66.564 189.325332 67.667817 191.77269 69.632349 193.576887 
C 71.596881 195.381083 74.261732 196.394813 77.04 196.394813 
z
" clip-path="url(#p6f2056a00e)" style="fill: #ffffff; stroke: #e74c3c; stroke-linejoin: miter"/>
   </g>
   <g id="patch_6">
    <path d="M 132.912 299.018812 
C 135.690268 299.018812 138.355119 298.005083 140.319651 296.200887 
C 142.284183 294.39669 143.388 291.949332 143.388 289.397812 
C 143.388 286.846293 142.284183 284.398935 140.319651 282.594738 
C 138.355119 280.790542 135.690268 279.776813 132.912 279.776813 
C 130.133732 279.776813 127.468881 280.790542 125.504349 282.594738 
C 123.539817 284.398935 122.436 286.846293 122.436 289.397812 
C 122.436 291.949332 123.539817 294.39669 125.504349 296.200887 
C 127.468881 298.005083 130.133732 299.018812 132.912 299.018812 
z
" clip-path="url(#p6f2056a00e)" style="fill: #ffffff; stroke: #e74c3c; stroke-linejoin: miter"/>
   </g>
   <g id="patch_7">
    <path d="M 132.912 247.706813 
C 135.690268 247.706813 138.355119 246.693083 140.319651 244.888887 
C 142.284183 243.08469 143.388 240.637332 143.388 238.085813 
C 143.388 235.534293 142.284183 233.086935 140.319651 231.282738 
C 138.355119 229.478542 135.690268 228.464812 132.912 228.464812 
C 130.133732 228.464812 127.468881 229.478542 125.504349 231.282738 
C 123.539817 233.086935 122.436 235.534293 122.436 238.085813 
C 122.436 240.637332 123.539817 243.08469 125.504349 244.888887 
C 127.468881 246.693083 130.133732 247.706813 132.912 247.706813 
z
" clip-path="url(#p6f2056a00e)" style="fill: #ffffff; stroke: #e74c3c; stroke-linejoin: miter"/>
   </g>
   <g id="patch_8">
    <path d="M 132.912 196.394813 
C 135.690268 196.394813 138.355119 195.381083 140.319651 193.576887 
C 142.284183 191.77269 143.388 189.325332 143.388 186.773812 
C 143.388 184.222293 142.284183 181.774935 140.319651 179.970738 
C 138.355119 178.166542 135.690268 177.152812 132.912 177.152812 
C 130.133732 177.152812 127.468881 178.166542 125.504349 179.970738 
C 123.539817 181.774935 122.436 184.222293 122.436 186.773812 
C 122.436 189.325332 123.539817 191.77269 125.504349 193.576887 
C 127.468881 195.381083 130.133732 196.394813 132.912 196.394813 
z
" clip-path="url(#p6f2056a00e)" style="fill: #ffffff; stroke: #e74c3c; stroke-linejoin: miter"/>
   </g>
   <g id="patch_9">
    <path d="M 188.784 299.018812 
C 191.562268 299.018812 194.227119 298.005083 196.191651 296.200887 
C 198.156183 294.39669 199.26 291.949332 199.26 289.397812 
C 199.26 286.846293 198.156183 284.398935 196.191651 282.594738 
C 194.227119 280.790542 191.562268 279.776813 188.784 279.776813 
C 186.005732 279.776813 183.340881 280.790542 181.376349 282.594738 
C 179.411817 284.398935 178.308 286.846293 178.308 289.397812 
C 178.308 291.949332 179.411817 294.39669 181.376349 296.200887 
C 183.340881 298.005083 186.005732 299.018812 188.784 299.018812 
z
" clip-path="url(#p6f2056a00e)" style="fill: #ffffff; stroke: #e74c3c; stroke-linejoin: miter"/>
   </g>
   <g id="patch_10">
    <path d="M 188.784 247.706813 
C 191.562268 247.706813 194.227119 246.693083 196.191651 244.888887 
C 198.156183 243.08469 199.26 240.637332 199.26 238.085813 
C 199.26 235.534293 198.156183 233.086935 196.191651 231.282738 
C 194.227119 229.478542 191.562268 228.464812 188.784 228.464812 
C 186.005732 228.464812 183.340881 229.478542 181.376349 231.282738 
C 179.411817 233.086935 178.308 235.534293 178.308 238.085813 
C 178.308 240.637332 179.411817 243.08469 181.376349 244.888887 
C 183.340881 246.693083 186.005732 247.706813 188.784 247.706813 
z
" clip-path="url(#p6f2056a00e)" style="fill: #ffffff; stroke: #e74c3c; stroke-linejoin: miter"/>
   </g>
   <g id="patch_11">
    <path d="M 188.784 196.394813 
C 191.562268 196.394813 194.227119 195.381083 196.191651 193.576887 
C 198.156183 191.77269 199.26 189.325332 199.26 186.773812 
C 199.26 184.222293 198.156183 181.774935 196.191651 179.970738 
C 194.227119 178.166542 191.562268 177.152812 188.784 177.152812 
C 186.005732 177.152812 183.340881 178.166542 181.376349 179.970738 
C 179.411817 181.774935 178.308 184.222293 178.308 186.773812 
C 178.308 189.325332 179.411817 191.77269 181.376349 193.576887 
C 183.340881 195.381083 186.005732 196.394813 188.784 196.394813 
z
" clip-path="url(#p6f2056a00e)" style="fill: #ffffff; stroke: #e74c3c; stroke-linejoin: miter"/>
   </g>
   <g id="patch_12">
    <path d="M 286.56 353.537812 
L 426.24 353.537812 
L 426.24 96.977813 
L 286.56 96.977813 
z
" clip-path="url(#p6f2056a00e)" style="fill: #f5f5f5; opacity: 0.5; stroke: #95a5a6; stroke-width: 2.5; stroke-linejoin: miter"/>
   </g>
   <g id="patch_13">
    <path d="M 426.24 353.537812 
L 670.68 353.537812 
L 670.68 96.977813 
L 426.24 96.977813 
z
" clip-path="url(#p6f2056a00e)" style="fill: #e74c3c; opacity: 0.2; stroke: #e74c3c; stroke-width: 2.5; stroke-linejoin: miter"/>
   </g>
   <g id="patch_14">
    <path d="M 482.112 297.094612 
C 484.334614 297.094612 486.466495 296.283629 488.038121 294.840272 
C 489.609746 293.396915 490.4928 291.439028 490.4928 289.397812 
C 490.4928 287.356597 489.609746 285.39871 488.038121 283.955353 
C 486.466495 282.511996 484.334614 281.701012 482.112 281.701012 
C 479.889386 281.701012 477.757505 282.511996 476.185879 283.955353 
C 474.614254 285.39871 473.7312 287.356597 473.7312 289.397812 
C 473.7312 291.439028 474.614254 293.396915 476.185879 294.840272 
C 477.757505 296.283629 479.889386 297.094612 482.112 297.094612 
z
" clip-path="url(#p6f2056a00e)" style="fill: #3498db; opacity: 0.8; stroke: #3498db; stroke-width: 1.5; stroke-linejoin: miter"/>
   </g>
   <g id="patch_15">
    <path d="M 482.112 245.782612 
C 484.334614 245.782612 486.466495 244.971629 488.038121 243.528272 
C 489.609746 242.084915 490.4928 240.127028 490.4928 238.085813 
C 490.4928 236.044597 489.609746 234.08671 488.038121 232.643353 
C 486.466495 231.199996 484.334614 230.389013 482.112 230.389013 
C 479.889386 230.389013 477.757505 231.199996 476.185879 232.643353 
C 474.614254 234.08671 473.7312 236.044597 473.7312 238.085813 
C 473.7312 240.127028 474.614254 242.084915 476.185879 243.528272 
C 477.757505 244.971629 479.889386 245.782612 482.112 245.782612 
z
" clip-path="url(#p6f2056a00e)" style="fill: #3498db; opacity: 0.8; stroke: #3498db; stroke-width: 1.5; stroke-linejoin: miter"/>
   </g>
   <g id="patch_16">
    <path d="M 482.112 194.470612 
C 484.334614 194.470612 486.466495 193.659629 488.038121 192.216272 
C 489.609746 190.772915 490.4928 188.815028 490.4928 186.773812 
C 490.4928 184.732597 489.609746 182.77471 488.038121 181.331353 
C 486.466495 179.887996 484.334614 179.077012 482.112 179.077012 
C 479.889386 179.077012 477.757505 179.887996 476.185879 181.331353 
C 474.614254 182.77471 473.7312 184.732597 473.7312 186.773812 
C 473.7312 188.815028 474.614254 190.772915 476.185879 192.216272 
C 477.757505 193.659629 479.889386 194.470612 482.112 194.470612 
z
" clip-path="url(#p6f2056a00e)" style="fill: #3498db; opacity: 0.8; stroke: #3498db; stroke-width: 1.5; stroke-linejoin: miter"/>
   </g>
   <g id="patch_17">
    <path d="M 537.984 297.094612 
C 540.206614 297.094612 542.338495 296.283629 543.910121 294.840272 
C 545.481746 293.396915 546.3648 291.439028 546.3648 289.397812 
C 546.3648 287.356597 545.481746 285.39871 543.910121 283.955353 
C 542.338495 282.511996 540.206614 281.701012 537.984 281.701012 
C 535.761386 281.701012 533.629505 282.511996 532.057879 283.955353 
C 530.486254 285.39871 529.6032 287.356597 529.6032 289.397812 
C 529.6032 291.439028 530.486254 293.396915 532.057879 294.840272 
C 533.629505 296.283629 535.761386 297.094612 537.984 297.094612 
z
" clip-path="url(#p6f2056a00e)" style="fill: #3498db; opacity: 0.8; stroke: #3498db; stroke-width: 1.5; stroke-linejoin: miter"/>
   </g>
   <g id="patch_18">
    <path d="M 537.984 245.782612 
C 540.206614 245.782612 542.338495 244.971629 543.910121 243.528272 
C 545.481746 242.084915 546.3648 240.127028 546.3648 238.085813 
C 546.3648 236.044597 545.481746 234.08671 543.910121 232.643353 
C 542.338495 231.199996 540.206614 230.389013 537.984 230.389013 
C 535.761386 230.389013 533.629505 231.199996 532.057879 232.643353 
C 530.486254 234.08671 529.6032 236.044597 529.6032 238.085813 
C 529.6032 240.127028 530.486254 242.084915 532.057879 243.528272 
C 533.629505 244.971629 535.761386 245.782612 537.984 245.782612 
z
" clip-path="url(#p6f2056a00e)" style="fill: #3498db; opacity: 0.8; stroke: #3498db; stroke-width: 1.5; stroke-linejoin: miter"/>
   </g>
   <g id="patch_19">
    <path d="M 537.984 194.470612 
C 540.206614 194.470612 542.338495 193.659629 543.910121 192.216272 
C 545.481746 190.772915 546.3648 188.815028 546.3648 186.773812 
C 546.3648 184.732597 545.481746 182.77471 543.910121 181.331353 
C 542.338495 179.887996 540.206614 179.077012 537.984 179.077012 
C 535.761386 179.077012 533.629505 179.887996 532.057879 181.331353 
C 530.486254 182.77471 529.6032 184.732597 529.6032 186.773812 
C 529.6032 188.815028 530.486254 190.772915 532.057879 192.216272 
C 533.629505 193.659629 535.761386 194.470612 537.984 194.470612 
z
" clip-path="url(#p6f2056a00e)" style="fill: #3498db; opacity: 0.8; stroke: #3498db; stroke-width: 1.5; stroke-linejoin: miter"/>
   </g>
   <g id="patch_20">
    <path d="M 593.856 297.094612 
C 596.078614 297.094612 598.210495 296.283629 599.782121 294.840272 
C 601.353746 293.396915 602.2368 291.439028 602.2368 289.397812 
C 602.2368 287.356597 601.353746 285.39871 599.782121 283.955353 
C 598.210495 282.511996 596.078614 281.701012 593.856 281.701012 
C 591.633386 281.701012 589.501505 282.511996 587.929879 283.955353 
C 586.358254 285.39871 585.4752 287.356597 585.4752 289.397812 
C 585.4752 291.439028 586.358254 293.396915 587.929879 294.840272 
C 589.501505 296.283629 591.633386 297.094612 593.856 297.094612 
z
" clip-path="url(#p6f2056a00e)" style="fill: #3498db; opacity: 0.8; stroke: #3498db; stroke-width: 1.5; stroke-linejoin: miter"/>
   </g>
   <g id="patch_21">
    <path d="M 593.856 245.782612 
C 596.078614 245.782612 598.210495 244.971629 599.782121 243.528272 
C 601.353746 242.084915 602.2368 240.127028 602.2368 238.085813 
C 602.2368 236.044597 601.353746 234.08671 599.782121 232.643353 
C 598.210495 231.199996 596.078614 230.389013 593.856 230.389013 
C 591.633386 230.389013 589.501505 231.199996 587.929879 232.643353 
C 586.358254 234.08671 585.4752 236.044597 585.4752 238.085813 
C 585.4752 240.127028 586.358254 242.084915 587.929879 243.528272 
C 589.501505 244.971629 591.633386 245.782612 593.856 245.782612 
z
" clip-path="url(#p6f2056a00e)" style="fill: #3498db; opacity: 0.8; stroke: #3498db; stroke-width: 1.5; stroke-linejoin: miter"/>
   </g>
   <g id="patch_22">
    <path d="M 593.856 194.470612 
C 596.078614 194.470612 598.210495 193.659629 599.782121 192.216272 
C 601.353746 190.772915 602.2368 188.815028 602.2368 186.773812 
C 602.2368 184.732597 601.353746 182.77471 599.782121 181.331353 
C 598.210495 179.887996 596.078614 179.077012 593.856 179.077012 
C 591.633386 179.077012 589.501505 179.887996 587.929879 181.331353 
C 586.358254 182.77471 585.4752 184.732597 585.4752 186.773812 
C 585.4752 188.815028 586.358254 190.772915 587.929879 192.216272 
C 589.501505 193.659629 591.633386 194.470612 593.856 194.470612 
z
" clip-path="url(#p6f2056a00e)" style="fill: #3498db; opacity: 0.8; stroke: #3498db; stroke-width: 1.5; stroke-linejoin: miter"/>
   </g>
   <g id="text_1">
    <!-- P-type -->
    <g style="fill: #3498db" transform="translate(142.41375 77.735813) scale(0.12 -0.12)">
     <defs>
      <path id="DejaVuSans-Bold-50" d="M 588 4666 
L 2584 4666 
Q 3475 4666 3951 4270 
Q 4428 3875 4428 3144 
Q 4428 2409 3951 2014 
Q 3475 1619 2584 1619 
L 1791 1619 
L 1791 0 
L 588 0 
L 588 4666 
z
M 1791 3794 
L 1791 2491 
L 2456 2491 
Q 2806 2491 2997 2661 
Q 3188 2831 3188 3144 
Q 3188 3456 2997 3625 
Q 2806 3794 2456 3794 
L 1791 3794 
z
" transform="scale(0.015625)"/>
      <path id="DejaVuSans-Bold-2d" d="M 347 2297 
L 2309 2297 
L 2309 1388 
L 347 1388 
L 347 2297 
z
" transform="scale(0.015625)"/>
      <path id="DejaVuSans-Bold-74" d="M 1759 4494 
L 1759 3500 
L 2913 3500 
L 2913 2700 
L 1759 2700 
L 1759 1216 
Q 1759 972 1856 886 
Q 1953 800 2241 800 
L 2816 800 
L 2816 0 
L 1856 0 
Q 1194 0 917 276 
Q 641 553 641 1216 
L 641 2700 
L 84 2700 
L 84 3500 
L 641 3500 
L 641 4494 
L 1759 4494 
z
" transform="scale(0.015625)"/>
      <path id="DejaVuSans-Bold-79" d="M 78 3500 
L 1197 3500 
L 2138 1125 
L 2938 3500 
L 4056 3500 
L 2584 -331 
Q 2363 -916 2067 -1148 
Q 1772 -1381 1288 -1381 
L 641 -1381 
L 641 -647 
L 991 -647 
Q 1275 -647 1404 -556 
Q 1534 -466 1606 -231 
L 1638 -134 
L 78 3500 
z
" transform="scale(0.015625)"/>
      <path id="DejaVuSans-Bold-70" d="M 1656 506 
L 1656 -1331 
L 538 -1331 
L 538 3500 
L 1656 3500 
L 1656 2988 
Q 1888 3294 2169 3439 
Q 2450 3584 2816 3584 
Q 3463 3584 3878 3070 
Q 4294 2556 4294 1747 
Q 4294 938 3878 423 
Q 3463 -91 2816 -91 
Q 2450 -91 2169 54 
Q 1888 200 1656 506 
z
M 2400 2772 
Q 2041 2772 1848 2508 
Q 1656 2244 1656 1747 
Q 1656 1250 1848 986 
Q 2041 722 2400 722 
Q 2759 722 2948 984 
Q 3138 1247 3138 1747 
Q 3138 2247 2948 2509 
Q 2759 2772 2400 2772 
z
" transform="scale(0.015625)"/>
      <path id="DejaVuSans-Bold-65" d="M 4031 1759 
L 4031 1441 
L 1416 1441 
Q 1456 1047 1700 850 
Q 1944 653 2381 653 
Q 2734 653 3104 758 
Q 3475 863 3866 1075 
L 3866 213 
Q 3469 63 3072 -14 
Q 2675 -91 2278 -91 
Q 1328 -91 801 392 
Q 275 875 275 1747 
Q 275 2603 792 3093 
Q 1309 3584 2216 3584 
Q 3041 3584 3536 3087 
Q 4031 2591 4031 1759 
z
M 2881 2131 
Q 2881 2450 2695 2645 
Q 2509 2841 2209 2841 
Q 1884 2841 1681 2658 
Q 1478 2475 1428 2131 
L 2881 2131 
z
" transform="scale(0.015625)"/>
     </defs>
     <use xlink:href="#DejaVuSans-Bold-50"/>
     <use xlink:href="#DejaVuSans-Bold-2d" transform="translate(71.541016 0)"/>
     <use xlink:href="#DejaVuSans-Bold-74" transform="translate(113.044922 0)"/>
     <use xlink:href="#DejaVuSans-Bold-79" transform="translate(160.847656 0)"/>
     <use xlink:href="#DejaVuSans-Bold-70" transform="translate(226.033203 0)"/>
     <use xlink:href="#DejaVuSans-Bold-65" transform="translate(297.615234 0)"/>
    </g>
   </g>
   <g id="text_2">
    <!-- Depletion -->
    <g style="fill: #95a5a6" transform="translate(337.085 68.777563) scale(0.08 -0.08)">
     <defs>
      <path id="DejaVuSans-44" d="M 1259 4147 
L 1259 519 
L 2022 519 
Q 2988 519 3436 956 
Q 3884 1394 3884 2338 
Q 3884 3275 3436 3711 
Q 2988 4147 2022 4147 
L 1259 4147 
z
M 628 4666 
L 1925 4666 
Q 3281 4666 3915 4102 
Q 4550 3538 4550 2338 
Q 4550 1131 3912 565 
Q 3275 0 1925 0 
L 628 0 
L 628 4666 
z
" transform="scale(0.015625)"/>
      <path id="DejaVuSans-65" d="M 3597 1894 
L 3597 1613 
L 953 1613 
Q 991 1019 1311 708 
Q 1631 397 2203 397 
Q 2534 397 2845 478 
Q 3156 559 3463 722 
L 3463 178 
Q 3153 47 2828 -22 
Q 2503 -91 2169 -91 
Q 1331 -91 842 396 
Q 353 884 353 1716 
Q 353 2575 817 3079 
Q 1281 3584 2069 3584 
Q 2775 3584 3186 3129 
Q 3597 2675 3597 1894 
z
M 3022 2063 
Q 3016 2534 2758 2815 
Q 2500 3097 2075 3097 
Q 1594 3097 1305 2825 
Q 1016 2553 972 2059 
L 3022 2063 
z
" transform="scale(0.015625)"/>
      <path id="DejaVuSans-70" d="M 1159 525 
L 1159 -1331 
L 581 -1331 
L 581 3500 
L 1159 3500 
L 1159 2969 
Q 1341 3281 1617 3432 
Q 1894 3584 2278 3584 
Q 2916 3584 3314 3078 
Q 3713 2572 3713 1747 
Q 3713 922 3314 415 
Q 2916 -91 2278 -91 
Q 1894 -91 1617 61 
Q 1341 213 1159 525 
z
M 3116 1747 
Q 3116 2381 2855 2742 
Q 2594 3103 2138 3103 
Q 1681 3103 1420 2742 
Q 1159 2381 1159 1747 
Q 1159 1113 1420 752 
Q 1681 391 2138 391 
Q 2594 391 2855 752 
Q 3116 1113 3116 1747 
z
" transform="scale(0.015625)"/>
      <path id="DejaVuSans-6c" d="M 603 4863 
L 1178 4863 
L 1178 0 
L 603 0 
L 603 4863 
z
" transform="scale(0.015625)"/>
      <path id="DejaVuSans-74" d="M 1172 4494 
L 1172 3500 
L 2356 3500 
L 2356 3053 
L 1172 3053 
L 1172 1153 
Q 1172 725 1289 603 
Q 1406 481 1766 481 
L 2356 481 
L 2356 0 
L 1766 0 
Q 1100 0 847 248 
Q 594 497 594 1153 
L 594 3053 
L 172 3053 
L 172 3500 
L 594 3500 
L 594 4494 
L 1172 4494 
z
" transform="scale(0.015625)"/>
      <path id="DejaVuSans-69" d="M 603 3500 
L 1178 3500 
L 1178 0 
L 603 0 
L 603 3500 
z
M 603 4863 
L 1178 4863 
L 1178 4134 
L 603 4134 
L 603 4863 
z
" transform="scale(0.015625)"/>
      <path id="DejaVuSans-6f" d="M 1959 3097 
Q 1497 3097 1228 2736 
Q 959 2375 959 1747 
Q 959 1119 1226 758 
Q 1494 397 1959 397 
Q 2419 397 2687 759 
Q 2956 1122 2956 1747 
Q 2956 2369 2687 2733 
Q 2419 3097 1959 3097 
z
M 1959 3584 
Q 2709 3584 3137 3096 
Q 3566 2609 3566 1747 
Q 3566 888 3137 398 
Q 2709 -91 1959 -91 
Q 1206 -91 779 398 
Q 353 888 353 1747 
Q 353 2609 779 3096 
Q 1206 3584 1959 3584 
z
" transform="scale(0.015625)"/>
      <path id="DejaVuSans-6e" d="M 3513 2113 
L 3513 0 
L 2938 0 
L 2938 2094 
Q 2938 2591 2744 2837 
Q 2550 3084 2163 3084 
Q 1697 3084 1428 2787 
Q 1159 2491 1159 1978 
L 1159 0 
L 581 0 
L 581 3500 
L 1159 3500 
L 1159 2956 
Q 1366 3272 1645 3428 
Q 1925 3584 2291 3584 
Q 2894 3584 3203 3211 
Q 3513 2838 3513 2113 
z
" transform="scale(0.015625)"/>
     </defs>
     <use xlink:href="#DejaVuSans-44"/>
     <use xlink:href="#DejaVuSans-65" transform="translate(77.001953 0)"/>
     <use xlink:href="#DejaVuSans-70" transform="translate(138.525391 0)"/>
     <use xlink:href="#DejaVuSans-6c" transform="translate(202.001953 0)"/>
     <use xlink:href="#DejaVuSans-65" transform="translate(229.785156 0)"/>
     <use xlink:href="#DejaVuSans-74" transform="translate(291.308594 0)"/>
     <use xlink:href="#DejaVuSans-69" transform="translate(330.517578 0)"/>
     <use xlink:href="#DejaVuSans-6f" transform="translate(358.300781 0)"/>
     <use xlink:href="#DejaVuSans-6e" transform="translate(419.482422 0)"/>
    </g>
    <!-- Zone -->
    <g style="fill: #95a5a6" transform="translate(346.21625 77.735813) scale(0.08 -0.08)">
     <defs>
      <path id="DejaVuSans-5a" d="M 359 4666 
L 4025 4666 
L 4025 4184 
L 1075 531 
L 4097 531 
L 4097 0 
L 288 0 
L 288 481 
L 3238 4134 
L 359 4134 
L 359 4666 
z
" transform="scale(0.015625)"/>
     </defs>
     <use xlink:href="#DejaVuSans-5a"/>
     <use xlink:href="#DejaVuSans-6f" transform="translate(68.505859 0)"/>
     <use xlink:href="#DejaVuSans-6e" transform="translate(129.6875 0)"/>
     <use xlink:href="#DejaVuSans-65" transform="translate(193.066406 0)"/>
    </g>
   </g>
   <g id="text_3">
    <!-- ⊖ -->
    <g style="fill: #3498db" transform="translate(302.484188 198.383062) scale(0.12 -0.12)">
     <defs>
      <path id="DejaVuSans-2296" d="M 1303 2272 
L 4059 2272 
L 4059 1741 
L 1303 1741 
L 1303 2272 
z
M 3306 3522 
Q 3016 3644 2681 3644 
Q 2347 3644 2056 3522 
Q 1769 3400 1531 3163 
Q 1291 2922 1172 2634 
Q 1053 2347 1053 2006 
Q 1053 1675 1172 1387 
Q 1291 1100 1531 859 
Q 1769 622 2056 500 
Q 2347 378 2681 378 
Q 3016 378 3306 500 
Q 3594 622 3831 859 
Q 4072 1100 4190 1387 
Q 4309 1675 4309 2006 
Q 4309 2347 4190 2634 
Q 4072 2922 3831 3163 
Q 3594 3400 3306 3522 
z
M 1878 3956 
Q 2250 4113 2681 4113 
Q 3113 4113 3484 3956 
Q 3856 3800 4163 3494 
Q 4472 3184 4625 2813 
Q 4778 2444 4778 2006 
Q 4778 1578 4625 1206 
Q 4472 838 4163 528 
Q 3856 222 3484 65 
Q 3113 -91 2681 -91 
Q 2250 -91 1878 65 
Q 1506 222 1200 528 
Q 891 838 738 1206 
Q 584 1578 584 2006 
Q 584 2444 738 2813 
Q 891 3184 1200 3494 
Q 1506 3800 1878 3956 
z
" transform="scale(0.015625)"/>
     </defs>
     <use xlink:href="#DejaVuSans-2296"/>
    </g>
    <!-- ⊖ -->
    <g style="fill: #3498db" transform="translate(302.484188 211.820437) scale(0.12 -0.12)">
     <use xlink:href="#DejaVuSans-2296"/>
    </g>
    <!-- ⊖ -->
    <g style="fill: #3498db" transform="translate(302.484188 225.257812) scale(0.12 -0.12)">
     <use xlink:href="#DejaVuSans-2296"/>
    </g>
   </g>
   <g id="text_4">
    <!-- ⊕ -->
    <g style="fill: #e74c3c" transform="translate(400.260188 198.383062) scale(0.12 -0.12)">
     <defs>
      <path id="DejaVuSans-2295" d="M 3306 3522 
Q 3016 3644 2681 3644 
Q 2347 3644 2056 3522 
Q 1769 3400 1531 3163 
Q 1291 2922 1172 2634 
Q 1053 2347 1053 2006 
Q 1053 1675 1172 1387 
Q 1291 1100 1531 859 
Q 1769 622 2056 500 
Q 2347 378 2681 378 
Q 3016 378 3306 500 
Q 3594 622 3831 859 
Q 4072 1100 4190 1387 
Q 4309 1675 4309 2006 
Q 4309 2347 4190 2634 
Q 4072 2922 3831 3163 
Q 3594 3400 3306 3522 
z
M 1878 3956 
Q 2250 4113 2681 4113 
Q 3113 4113 3484 3956 
Q 3856 3800 4163 3494 
Q 4472 3184 4625 2813 
Q 4778 2444 4778 2006 
Q 4778 1578 4625 1206 
Q 4472 838 4163 528 
Q 3856 222 3484 65 
Q 3113 -91 2681 -91 
Q 2250 -91 1878 65 
Q 1506 222 1200 528 
Q 891 838 738 1206 
Q 584 1578 584 2006 
Q 584 2444 738 2813 
Q 891 3184 1200 3494 
Q 1506 3800 1878 3956 
z
M 2947 3388 
L 2947 2272 
L 4059 2272 
L 4059 1741 
L 2947 1741 
L 2947 625 
L 2416 625 
L 2416 1741 
L 1303 1741 
L 1303 2272 
L 2416 2272 
L 2416 3388 
L 2947 3388 
z
" transform="scale(0.015625)"/>
     </defs>
     <use xlink:href="#DejaVuSans-2295"/>
    </g>
    <!-- ⊕ -->
    <g style="fill: #e74c3c" transform="translate(400.260188 211.820437) scale(0.12 -0.12)">
     <use xlink:href="#DejaVuSans-2295"/>
    </g>
    <!-- ⊕ -->
    <g style="fill: #e74c3c" transform="translate(400.260188 225.257812) scale(0.12 -0.12)">
     <use xlink:href="#DejaVuSans-2295"/>
    </g>
   </g>
   <g id="text_5">
    <!-- N-type -->
    <g style="fill: #e74c3c" transform="translate(525.805313 77.735813) scale(0.12 -0.12)">
     <defs>
      <path id="DejaVuSans-Bold-4e" d="M 588 4666 
L 1931 4666 
L 3628 1466 
L 3628 4666 
L 4769 4666 
L 4769 0 
L 3425 0 
L 1728 3200 
L 1728 0 
L 588 0 
L 588 4666 
z
" transform="scale(0.015625)"/>
     </defs>
     <use xlink:href="#DejaVuSans-Bold-4e"/>
     <use xlink:href="#DejaVuSans-Bold-2d" transform="translate(83.691406 0)"/>
     <use xlink:href="#DejaVuSans-Bold-74" transform="translate(125.195312 0)"/>
     <use xlink:href="#DejaVuSans-Bold-79" transform="translate(172.998047 0)"/>
     <use xlink:href="#DejaVuSans-Bold-70" transform="translate(238.183594 0)"/>
     <use xlink:href="#DejaVuSans-Bold-65" transform="translate(309.765625 0)"/>
    </g>
   </g>
   <g id="patch_23">
    <path d="M 389.320796 385.607812 
Q 356.400371 385.607812 326.27503 385.607812 
" style="fill: none; stroke: #f39c12; stroke-width: 2.5; stroke-linecap: round"/>
    <path d="M 330.27503 387.607812 
L 326.27503 385.607812 
L 330.27503 383.607812 
" style="fill: none; stroke: #f39c12; stroke-width: 2.5; stroke-linecap: round"/>
   </g>
   <g id="text_6">
    <!-- E-field -->
    <g style="fill: #f39c12" transform="translate(343.798125 404.849812) scale(0.08 -0.08)">
     <defs>
      <path id="DejaVuSans-45" d="M 628 4666 
L 3578 4666 
L 3578 4134 
L 1259 4134 
L 1259 2753 
L 3481 2753 
L 3481 2222 
L 1259 2222 
L 1259 531 
L 3634 531 
L 3634 0 
L 628 0 
L 628 4666 
z
" transform="scale(0.015625)"/>
      <path id="DejaVuSans-2d" d="M 313 2009 
L 1997 2009 
L 1997 1497 
L 313 1497 
L 313 2009 
z
" transform="scale(0.015625)"/>
      <path id="DejaVuSans-66" d="M 2375 4863 
L 2375 4384 
L 1825 4384 
Q 1516 4384 1395 4259 
Q 1275 4134 1275 3809 
L 1275 3500 
L 2222 3500 
L 2222 3053 
L 1275 3053 
L 1275 0 
L 697 0 
L 697 3053 
L 147 3053 
L 147 3500 
L 697 3500 
L 697 3744 
Q 697 4328 969 4595 
Q 1241 4863 1831 4863 
L 2375 4863 
z
" transform="scale(0.015625)"/>
      <path id="DejaVuSans-64" d="M 2906 2969 
L 2906 4863 
L 3481 4863 
L 3481 0 
L 2906 0 
L 2906 525 
Q 2725 213 2448 61 
Q 2172 -91 1784 -91 
Q 1150 -91 751 415 
Q 353 922 353 1747 
Q 353 2572 751 3078 
Q 1150 3584 1784 3584 
Q 2172 3584 2448 3432 
Q 2725 3281 2906 2969 
z
M 947 1747 
Q 947 1113 1208 752 
Q 1469 391 1925 391 
Q 2381 391 2643 752 
Q 2906 1113 2906 1747 
Q 2906 2381 2643 2742 
Q 2381 3103 1925 3103 
Q 1469 3103 1208 2742 
Q 947 2381 947 1747 
z
" transform="scale(0.015625)"/>
     </defs>
     <use xlink:href="#DejaVuSans-45"/>
     <use xlink:href="#DejaVuSans-2d" transform="translate(63.183594 0)"/>
     <use xlink:href="#DejaVuSans-66" transform="translate(99.267578 0)"/>
     <use xlink:href="#DejaVuSans-69" transform="translate(134.472656 0)"/>
     <use xlink:href="#DejaVuSans-65" transform="translate(162.255859 0)"/>
     <use xlink:href="#DejaVuSans-6c" transform="translate(223.779297 0)"/>
     <use xlink:href="#DejaVuSans-64" transform="translate(251.5625 0)"/>
    </g>
   </g>
   <g id="text_7">
    <!-- P-N Junction -->
    <g transform="translate(314.155 17.837812) scale(0.14 -0.14)">
     <defs>
      <path id="DejaVuSans-50" d="M 1259 4147 
L 1259 2394 
L 2053 2394 
Q 2494 2394 2734 2622 
Q 2975 2850 2975 3272 
Q 2975 3691 2734 3919 
Q 2494 4147 2053 4147 
L 1259 4147 
z
M 628 4666 
L 2053 4666 
Q 2838 4666 3239 4311 
Q 3641 3956 3641 3272 
Q 3641 2581 3239 2228 
Q 2838 1875 2053 1875 
L 1259 1875 
L 1259 0 
L 628 0 
L 628 4666 
z
" transform="scale(0.015625)"/>
      <path id="DejaVuSans-4e" d="M 628 4666 
L 1478 4666 
L 3547 763 
L 3547 4666 
L 4159 4666 
L 4159 0 
L 3309 0 
L 1241 3903 
L 1241 0 
L 628 0 
L 628 4666 
z
" transform="scale(0.015625)"/>
      <path id="DejaVuSans-20" transform="scale(0.015625)"/>
      <path id="DejaVuSans-4a" d="M 628 4666 
L 1259 4666 
L 1259 325 
Q 1259 -519 939 -900 
Q 619 -1281 -91 -1281 
L -331 -1281 
L -331 -750 
L -134 -750 
Q 284 -750 456 -515 
Q 628 -281 628 325 
L 628 4666 
z
" transform="scale(0.015625)"/>
      <path id="DejaVuSans-75" d="M 544 1381 
L 544 3500 
L 1119 3500 
L 1119 1403 
Q 1119 906 1312 657 
Q 1506 409 1894 409 
Q 2359 409 2629 706 
Q 2900 1003 2900 1516 
L 2900 3500 
L 3475 3500 
L 3475 0 
L 2900 0 
L 2900 538 
Q 2691 219 2414 64 
Q 2138 -91 1772 -91 
Q 1169 -91 856 284 
Q 544 659 544 1381 
z
M 1991 3584 
L 1991 3584 
z
" transform="scale(0.015625)"/>
      <path id="DejaVuSans-63" d="M 3122 3366 
L 3122 2828 
Q 2878 2963 2633 3030 
Q 2388 3097 2138 3097 
Q 1578 3097 1268 2742 
Q 959 2388 959 1747 
Q 959 1106 1268 751 
Q 1578 397 2138 397 
Q 2388 397 2633 464 
Q 2878 531 3122 666 
L 3122 134 
Q 2881 22 2623 -34 
Q 2366 -91 2075 -91 
Q 1284 -91 818 406 
Q 353 903 353 1747 
Q 353 2603 823 3093 
Q 1294 3584 2113 3584 
Q 2378 3584 2631 3529 
Q 2884 3475 3122 3366 
z
" transform="scale(0.015625)"/>
     </defs>
     <use xlink:href="#DejaVuSans-50"/>
     <use xlink:href="#DejaVuSans-2d" transform="translate(58.052734 0)"/>
     <use xlink:href="#DejaVuSans-4e" transform="translate(94.136719 0)"/>
     <use xlink:href="#DejaVuSans-20" transform="translate(168.941406 0)"/>
     <use xlink:href="#DejaVuSans-4a" transform="translate(200.728516 0)"/>
     <use xlink:href="#DejaVuSans-75" transform="translate(230.220703 0)"/>
     <use xlink:href="#DejaVuSans-6e" transform="translate(293.599609 0)"/>
     <use xlink:href="#DejaVuSans-63" transform="translate(356.978516 0)"/>
     <use xlink:href="#DejaVuSans-74" transform="translate(411.958984 0)"/>
     <use xlink:href="#DejaVuSans-69" transform="translate(451.167969 0)"/>
     <use xlink:href="#DejaVuSans-6f" transform="translate(478.951172 0)"/>
     <use xlink:href="#DejaVuSans-6e" transform="translate(540.132812 0)"/>
    </g>
   </g>
  </g>
 </g>
 <defs>
  <clipPath id="p6f2056a00e">
   <rect x="7.2" y="32.837812" width="698.4" height="384.84"/>
  </clipPath>
 </defs>
</svg>
