<?xml version="1.0" encoding="utf-8" standalone="no"?>
<!DOCTYPE svg PUBLIC "-//W3C//DTD SVG 1.1//EN"
  "http://www.w3.org/Graphics/SVG/1.1/DTD/svg11.dtd">
<svg xmlns:xlink="http://www.w3.org/1999/xlink" width="568.8pt" height="424.877812pt" viewBox="0 0 568.8 424.877812" xmlns="http://www.w3.org/2000/svg" version="1.1">
 <metadata>
  <rdf:RDF xmlns:dc="http://purl.org/dc/elements/1.1/" xmlns:cc="http://creativecommons.org/ns#" xmlns:rdf="http://www.w3.org/1999/02/22-rdf-syntax-ns#">
   <cc:Work>
    <dc:type rdf:resource="http://purl.org/dc/dcmitype/StillImage"/>
    <dc:date>2026-01-02T16:05:21.049599</dc:date>
    <dc:format>image/svg+xml</dc:format>
    <dc:creator>
     <cc:Agent>
      <dc:title>Matplotlib v3.10.8, https://matplotlib.org/</dc:title>
     </cc:Agent>
    </dc:creator>
   </cc:Work>
  </rdf:RDF>
 </metadata>
 <defs>
  <style type="text/css">*{stroke-linejoin: round; stroke-linecap: butt}</style>
 </defs>
 <g id="figure_1">
  <g id="patch_1">
   <path d="M 0 424.877812 
L 568.8 424.877812 
L 568.8 0 
L 0 0 
z
" style="fill: #ffffff"/>
  </g>
  <g id="axes_1">
   <g id="patch_2">
    <path d="M 111.15 372.779812 
C 116.663572 372.779812 121.952066 370.752354 125.85075 367.143961 
C 129.749434 363.535568 131.94 358.640851 131.94 353.537812 
C 131.94 348.434774 129.749434 343.540057 125.85075 339.931664 
C 121.952066 336.323271 116.663572 334.295812 111.15 334.295812 
C 105.636428 334.295812 100.347934 336.323271 96.44925 339.931664 
C 92.550566 343.540057 90.36 348.434774 90.36 353.537812 
C 90.36 358.640851 92.550566 363.535568 96.44925 367.143961 
C 100.347934 370.752354 105.636428 372.779812 111.15 372.779812 
z
" clip-path="url(#pecf6b29088)" style="fill: #7f8c8d; opacity: 0.7; stroke: #7f8c8d; stroke-width: 1.5; stroke-linejoin: miter"/>
   </g>
   <g id="patch_3">
    <path d="M 111.15 295.811813 
C 116.663572 295.811813 121.952066 293.784354 125.85075 290.175961 
C 129.749434 286.567568 131.94 281.672851 131.94 276.569813 
C 131.94 271.466774 129.749434 266.572057 125.85075 262.963664 
C 121.952066 259.355271 116.663572 257.327812 111.15 257.327812 
C 105.636428 257.327812 100.347934 259.355271 96.44925 262.963664 
C 92.550566 266.572057 90.36 271.466774 90.36 276.569813 
C 90.36 281.672851 92.550566 286.567568 96.44925 290.175961 
C 100.347934 293.784354 105.636428 295.811813 111.15 295.811813 
z
" clip-path="url(#pecf6b29088)" style="fill: #7f8c8d; opacity: 0.7; stroke: #7f8c8d; stroke-width: 1.5; stroke-linejoin: miter"/>
   </g>
   <g id="patch_4">
    <path d="M 111.15 218.843813 
C 116.663572 218.843813 121.952066 216.816354 125.85075 213.207961 
C 129.749434 209.599568 131.94 204.704851 131.94 199.601813 
C 131.94 194.498774 129.749434 189.604057 125.85075 185.995664 
C 121.952066 182.387271 116.663572 180.359813 111.15 180.359813 
C 105.636428 180.359813 100.347934 182.387271 96.44925 185.995664 
C 92.550566 189.604057 90.36 194.498774 90.36 199.601813 
C 90.36 204.704851 92.550566 209.599568 96.44925 213.207961 
C 100.347934 216.816354 105.636428 218.843813 111.15 218.843813 
z
" clip-path="url(#pecf6b29088)" style="fill: #7f8c8d; opacity: 0.7; stroke: #7f8c8d; stroke-width: 1.5; stroke-linejoin: miter"/>
   </g>
   <g id="patch_5">
    <path d="M 111.15 141.875813 
C 116.663572 141.875813 121.952066 139.848354 125.85075 136.239961 
C 129.749434 132.631568 131.94 127.736851 131.94 122.633813 
C 131.94 117.530774 129.749434 112.636057 125.85075 109.027664 
C 121.952066 105.419271 116.663572 103.391813 111.15 103.391813 
C 105.636428 103.391813 100.347934 105.419271 96.44925 109.027664 
C 92.550566 112.636057 90.36 117.530774 90.36 122.633813 
C 90.36 127.736851 92.550566 132.631568 96.44925 136.239961 
C 100.347934 139.848354 105.636428 141.875813 111.15 141.875813 
z
" clip-path="url(#pecf6b29088)" style="fill: #7f8c8d; opacity: 0.7; stroke: #7f8c8d; stroke-width: 1.5; stroke-linejoin: miter"/>
   </g>
   <g id="patch_6">
    <path d="M 194.31 372.779812 
C 199.823572 372.779812 205.112066 370.752354 209.01075 367.143961 
C 212.909434 363.535568 215.1 358.640851 215.1 353.537812 
C 215.1 348.434774 212.909434 343.540057 209.01075 339.931664 
C 205.112066 336.323271 199.823572 334.295812 194.31 334.295812 
C 188.796428 334.295812 183.507934 336.323271 179.60925 339.931664 
C 175.710566 343.540057 173.52 348.434774 173.52 353.537812 
C 173.52 358.640851 175.710566 363.535568 179.60925 367.143961 
C 183.507934 370.752354 188.796428 372.779812 194.31 372.779812 
z
" clip-path="url(#pecf6b29088)" style="fill: #7f8c8d; opacity: 0.7; stroke: #7f8c8d; stroke-width: 1.5; stroke-linejoin: miter"/>
   </g>
   <g id="patch_7">
    <path d="M 194.31 295.811813 
C 199.823572 295.811813 205.112066 293.784354 209.01075 290.175961 
C 212.909434 286.567568 215.1 281.672851 215.1 276.569813 
C 215.1 271.466774 212.909434 266.572057 209.01075 262.963664 
C 205.112066 259.355271 199.823572 257.327812 194.31 257.327812 
C 188.796428 257.327812 183.507934 259.355271 179.60925 262.963664 
C 175.710566 266.572057 173.52 271.466774 173.52 276.569813 
C 173.52 281.672851 175.710566 286.567568 179.60925 290.175961 
C 183.507934 293.784354 188.796428 295.811813 194.31 295.811813 
z
" clip-path="url(#pecf6b29088)" style="fill: #7f8c8d; opacity: 0.7; stroke: #7f8c8d; stroke-width: 1.5; stroke-linejoin: miter"/>
   </g>
   <g id="patch_8">
    <path d="M 194.31 218.843813 
C 199.823572 218.843813 205.112066 216.816354 209.01075 213.207961 
C 212.909434 209.599568 215.1 204.704851 215.1 199.601813 
C 215.1 194.498774 212.909434 189.604057 209.01075 185.995664 
C 205.112066 182.387271 199.823572 180.359813 194.31 180.359813 
C 188.796428 180.359813 183.507934 182.387271 179.60925 185.995664 
C 175.710566 189.604057 173.52 194.498774 173.52 199.601813 
C 173.52 204.704851 175.710566 209.599568 179.60925 213.207961 
C 183.507934 216.816354 188.796428 218.843813 194.31 218.843813 
z
" clip-path="url(#pecf6b29088)" style="fill: #7f8c8d; opacity: 0.7; stroke: #7f8c8d; stroke-width: 1.5; stroke-linejoin: miter"/>
   </g>
   <g id="patch_9">
    <path d="M 194.31 141.875813 
C 199.823572 141.875813 205.112066 139.848354 209.01075 136.239961 
C 212.909434 132.631568 215.1 127.736851 215.1 122.633813 
C 215.1 117.530774 212.909434 112.636057 209.01075 109.027664 
C 205.112066 105.419271 199.823572 103.391813 194.31 103.391813 
C 188.796428 103.391813 183.507934 105.419271 179.60925 109.027664 
C 175.710566 112.636057 173.52 117.530774 173.52 122.633813 
C 173.52 127.736851 175.710566 132.631568 179.60925 136.239961 
C 183.507934 139.848354 188.796428 141.875813 194.31 141.875813 
z
" clip-path="url(#pecf6b29088)" style="fill: #7f8c8d; opacity: 0.7; stroke: #7f8c8d; stroke-width: 1.5; stroke-linejoin: miter"/>
   </g>
   <g id="patch_10">
    <path d="M 277.47 372.779812 
C 282.983572 372.779812 288.272066 370.752354 292.17075 367.143961 
C 296.069434 363.535568 298.26 358.640851 298.26 353.537812 
C 298.26 348.434774 296.069434 343.540057 292.17075 339.931664 
C 288.272066 336.323271 282.983572 334.295812 277.47 334.295812 
C 271.956428 334.295812 266.667934 336.323271 262.76925 339.931664 
C 258.870566 343.540057 256.68 348.434774 256.68 353.537812 
C 256.68 358.640851 258.870566 363.535568 262.76925 367.143961 
C 266.667934 370.752354 271.956428 372.779812 277.47 372.779812 
z
" clip-path="url(#pecf6b29088)" style="fill: #7f8c8d; opacity: 0.7; stroke: #7f8c8d; stroke-width: 1.5; stroke-linejoin: miter"/>
   </g>
   <g id="patch_11">
    <path d="M 277.47 295.811813 
C 282.983572 295.811813 288.272066 293.784354 292.17075 290.175961 
C 296.069434 286.567568 298.26 281.672851 298.26 276.569813 
C 298.26 271.466774 296.069434 266.572057 292.17075 262.963664 
C 288.272066 259.355271 282.983572 257.327812 277.47 257.327812 
C 271.956428 257.327812 266.667934 259.355271 262.76925 262.963664 
C 258.870566 266.572057 256.68 271.466774 256.68 276.569813 
C 256.68 281.672851 258.870566 286.567568 262.76925 290.175961 
C 266.667934 293.784354 271.956428 295.811813 277.47 295.811813 
z
" clip-path="url(#pecf6b29088)" style="fill: #7f8c8d; opacity: 0.7; stroke: #7f8c8d; stroke-width: 1.5; stroke-linejoin: miter"/>
   </g>
   <g id="patch_12">
    <path d="M 277.47 222.050813 
C 283.902501 222.050813 290.07241 219.685444 294.620875 215.475653 
C 299.16934 211.265861 301.725 205.555357 301.725 199.601813 
C 301.725 193.648268 299.16934 187.937764 294.620875 183.727972 
C 290.07241 179.518181 283.902501 177.152813 277.47 177.152813 
C 271.037499 177.152813 264.86759 179.518181 260.319125 183.727972 
C 255.77066 187.937764 253.215 193.648268 253.215 199.601813 
C 253.215 205.555357 255.77066 211.265861 260.319125 215.475653 
C 264.86759 219.685444 271.037499 222.050813 277.47 222.050813 
z
" clip-path="url(#pecf6b29088)" style="fill: #e74c3c; opacity: 0.9; stroke: #e74c3c; stroke-width: 1.5; stroke-linejoin: miter"/>
   </g>
   <g id="patch_13">
    <path d="M 312.12 188.056613 
C 314.325429 188.056613 316.440826 187.245629 318.0003 185.802272 
C 319.559774 184.358915 320.436 182.401028 320.436 180.359813 
C 320.436 178.318597 319.559774 176.36071 318.0003 174.917353 
C 316.440826 173.473996 314.325429 172.663013 312.12 172.663013 
C 309.914571 172.663013 307.799174 173.473996 306.2397 174.917353 
C 304.680226 176.36071 303.804 178.318597 303.804 180.359813 
C 303.804 182.401028 304.680226 184.358915 306.2397 185.802272 
C 307.799174 187.245629 309.914571 188.056613 312.12 188.056613 
z
" clip-path="url(#pecf6b29088)" style="fill: #3498db; opacity: 0.9; stroke: #3498db; stroke-width: 1.5; stroke-linejoin: miter"/>
   </g>
   <g id="patch_14">
    <path d="M 277.47 141.875813 
C 282.983572 141.875813 288.272066 139.848354 292.17075 136.239961 
C 296.069434 132.631568 298.26 127.736851 298.26 122.633813 
C 298.26 117.530774 296.069434 112.636057 292.17075 109.027664 
C 288.272066 105.419271 282.983572 103.391813 277.47 103.391813 
C 271.956428 103.391813 266.667934 105.419271 262.76925 109.027664 
C 258.870566 112.636057 256.68 117.530774 256.68 122.633813 
C 256.68 127.736851 258.870566 132.631568 262.76925 136.239961 
C 266.667934 139.848354 271.956428 141.875813 277.47 141.875813 
z
" clip-path="url(#pecf6b29088)" style="fill: #7f8c8d; opacity: 0.7; stroke: #7f8c8d; stroke-width: 1.5; stroke-linejoin: miter"/>
   </g>
   <g id="patch_15">
    <path d="M 360.63 372.779812 
C 366.143572 372.779812 371.432066 370.752354 375.33075 367.143961 
C 379.229434 363.535568 381.42 358.640851 381.42 353.537812 
C 381.42 348.434774 379.229434 343.540057 375.33075 339.931664 
C 371.432066 336.323271 366.143572 334.295812 360.63 334.295812 
C 355.116428 334.295812 349.827934 336.323271 345.92925 339.931664 
C 342.030566 343.540057 339.84 348.434774 339.84 353.537812 
C 339.84 358.640851 342.030566 363.535568 345.92925 367.143961 
C 349.827934 370.752354 355.116428 372.779812 360.63 372.779812 
z
" clip-path="url(#pecf6b29088)" style="fill: #7f8c8d; opacity: 0.7; stroke: #7f8c8d; stroke-width: 1.5; stroke-linejoin: miter"/>
   </g>
   <g id="patch_16">
    <path d="M 360.63 295.811813 
C 366.143572 295.811813 371.432066 293.784354 375.33075 290.175961 
C 379.229434 286.567568 381.42 281.672851 381.42 276.569813 
C 381.42 271.466774 379.229434 266.572057 375.33075 262.963664 
C 371.432066 259.355271 366.143572 257.327812 360.63 257.327812 
C 355.116428 257.327812 349.827934 259.355271 345.92925 262.963664 
C 342.030566 266.572057 339.84 271.466774 339.84 276.569813 
C 339.84 281.672851 342.030566 286.567568 345.92925 290.175961 
C 349.827934 293.784354 355.116428 295.811813 360.63 295.811813 
z
" clip-path="url(#pecf6b29088)" style="fill: #7f8c8d; opacity: 0.7; stroke: #7f8c8d; stroke-width: 1.5; stroke-linejoin: miter"/>
   </g>
   <g id="patch_17">
    <path d="M 360.63 218.843813 
C 366.143572 218.843813 371.432066 216.816354 375.33075 213.207961 
C 379.229434 209.599568 381.42 204.704851 381.42 199.601813 
C 381.42 194.498774 379.229434 189.604057 375.33075 185.995664 
C 371.432066 182.387271 366.143572 180.359813 360.63 180.359813 
C 355.116428 180.359813 349.827934 182.387271 345.92925 185.995664 
C 342.030566 189.604057 339.84 194.498774 339.84 199.601813 
C 339.84 204.704851 342.030566 209.599568 345.92925 213.207961 
C 349.827934 216.816354 355.116428 218.843813 360.63 218.843813 
z
" clip-path="url(#pecf6b29088)" style="fill: #7f8c8d; opacity: 0.7; stroke: #7f8c8d; stroke-width: 1.5; stroke-linejoin: miter"/>
   </g>
   <g id="patch_18">
    <path d="M 360.63 141.875813 
C 366.143572 141.875813 371.432066 139.848354 375.33075 136.239961 
C 379.229434 132.631568 381.42 127.736851 381.42 122.633813 
C 381.42 117.530774 379.229434 112.636057 375.33075 109.027664 
C 371.432066 105.419271 366.143572 103.391813 360.63 103.391813 
C 355.116428 103.391813 349.827934 105.419271 345.92925 109.027664 
C 342.030566 112.636057 339.84 117.530774 339.84 122.633813 
C 339.84 127.736851 342.030566 132.631568 345.92925 136.239961 
C 349.827934 139.848354 355.116428 141.875813 360.63 141.875813 
z
" clip-path="url(#pecf6b29088)" style="fill: #7f8c8d; opacity: 0.7; stroke: #7f8c8d; stroke-width: 1.5; stroke-linejoin: miter"/>
   </g>
   <g id="patch_19">
    <path d="M 443.79 372.779812 
C 449.303572 372.779812 454.592066 370.752354 458.49075 367.143961 
C 462.389434 363.535568 464.58 358.640851 464.58 353.537812 
C 464.58 348.434774 462.389434 343.540057 458.49075 339.931664 
C 454.592066 336.323271 449.303572 334.295812 443.79 334.295812 
C 438.276428 334.295812 432.987934 336.323271 429.08925 339.931664 
C 425.190566 343.540057 423 348.434774 423 353.537812 
C 423 358.640851 425.190566 363.535568 429.08925 367.143961 
C 432.987934 370.752354 438.276428 372.779812 443.79 372.779812 
z
" clip-path="url(#pecf6b29088)" style="fill: #7f8c8d; opacity: 0.7; stroke: #7f8c8d; stroke-width: 1.5; stroke-linejoin: miter"/>
   </g>
   <g id="patch_20">
    <path d="M 443.79 295.811813 
C 449.303572 295.811813 454.592066 293.784354 458.49075 290.175961 
C 462.389434 286.567568 464.58 281.672851 464.58 276.569813 
C 464.58 271.466774 462.389434 266.572057 458.49075 262.963664 
C 454.592066 259.355271 449.303572 257.327812 443.79 257.327812 
C 438.276428 257.327812 432.987934 259.355271 429.08925 262.963664 
C 425.190566 266.572057 423 271.466774 423 276.569813 
C 423 281.672851 425.190566 286.567568 429.08925 290.175961 
C 432.987934 293.784354 438.276428 295.811813 443.79 295.811813 
z
" clip-path="url(#pecf6b29088)" style="fill: #7f8c8d; opacity: 0.7; stroke: #7f8c8d; stroke-width: 1.5; stroke-linejoin: miter"/>
   </g>
   <g id="patch_21">
    <path d="M 443.79 218.843813 
C 449.303572 218.843813 454.592066 216.816354 458.49075 213.207961 
C 462.389434 209.599568 464.58 204.704851 464.58 199.601813 
C 464.58 194.498774 462.389434 189.604057 458.49075 185.995664 
C 454.592066 182.387271 449.303572 180.359813 443.79 180.359813 
C 438.276428 180.359813 432.987934 182.387271 429.08925 185.995664 
C 425.190566 189.604057 423 194.498774 423 199.601813 
C 423 204.704851 425.190566 209.599568 429.08925 213.207961 
C 432.987934 216.816354 438.276428 218.843813 443.79 218.843813 
z
" clip-path="url(#pecf6b29088)" style="fill: #7f8c8d; opacity: 0.7; stroke: #7f8c8d; stroke-width: 1.5; stroke-linejoin: miter"/>
   </g>
   <g id="patch_22">
    <path d="M 443.79 141.875813 
C 449.303572 141.875813 454.592066 139.848354 458.49075 136.239961 
C 462.389434 132.631568 464.58 127.736851 464.58 122.633813 
C 464.58 117.530774 462.389434 112.636057 458.49075 109.027664 
C 454.592066 105.419271 449.303572 103.391813 443.79 103.391813 
C 438.276428 103.391813 432.987934 105.419271 429.08925 109.027664 
C 425.190566 112.636057 423 117.530774 423 122.633813 
C 423 127.736851 425.190566 132.631568 429.08925 136.239961 
C 432.987934 139.848354 438.276428 141.875813 443.79 141.875813 
z
" clip-path="url(#pecf6b29088)" style="fill: #7f8c8d; opacity: 0.7; stroke: #7f8c8d; stroke-width: 1.5; stroke-linejoin: miter"/>
   </g>
   <g id="line2d_1">
    <path d="M 135.405 353.537812 
L 170.055 353.537812 
" clip-path="url(#pecf6b29088)" style="fill: none; stroke: #2ecc71; stroke-opacity: 0.5; stroke-linecap: square"/>
   </g>
   <g id="line2d_2">
    <path d="M 111.15 331.088812 
L 111.15 299.018812 
" clip-path="url(#pecf6b29088)" style="fill: none; stroke: #2ecc71; stroke-opacity: 0.5; stroke-linecap: square"/>
   </g>
   <g id="line2d_3">
    <path d="M 135.405 276.569813 
L 170.055 276.569813 
" clip-path="url(#pecf6b29088)" style="fill: none; stroke: #2ecc71; stroke-opacity: 0.5; stroke-linecap: square"/>
   </g>
   <g id="line2d_4">
    <path d="M 111.15 254.120812 
L 111.15 222.050812 
" clip-path="url(#pecf6b29088)" style="fill: none; stroke: #2ecc71; stroke-opacity: 0.5; stroke-linecap: square"/>
   </g>
   <g id="line2d_5">
    <path d="M 135.405 199.601813 
L 170.055 199.601813 
" clip-path="url(#pecf6b29088)" style="fill: none; stroke: #2ecc71; stroke-opacity: 0.5; stroke-linecap: square"/>
   </g>
   <g id="line2d_6">
    <path d="M 111.15 177.152813 
L 111.15 145.082813 
" clip-path="url(#pecf6b29088)" style="fill: none; stroke: #2ecc71; stroke-opacity: 0.5; stroke-linecap: square"/>
   </g>
   <g id="line2d_7">
    <path d="M 135.405 122.633813 
L 170.055 122.633813 
" clip-path="url(#pecf6b29088)" style="fill: none; stroke: #2ecc71; stroke-opacity: 0.5; stroke-linecap: square"/>
   </g>
   <g id="line2d_8">
    <path d="M 218.565 353.537812 
L 253.215 353.537812 
" clip-path="url(#pecf6b29088)" style="fill: none; stroke: #2ecc71; stroke-opacity: 0.5; stroke-linecap: square"/>
   </g>
   <g id="line2d_9">
    <path d="M 194.31 331.088812 
L 194.31 299.018812 
" clip-path="url(#pecf6b29088)" style="fill: none; stroke: #2ecc71; stroke-opacity: 0.5; stroke-linecap: square"/>
   </g>
   <g id="line2d_10">
    <path d="M 218.565 276.569813 
L 253.215 276.569813 
" clip-path="url(#pecf6b29088)" style="fill: none; stroke: #2ecc71; stroke-opacity: 0.5; stroke-linecap: square"/>
   </g>
   <g id="line2d_11">
    <path d="M 194.31 254.120812 
L 194.31 222.050812 
" clip-path="url(#pecf6b29088)" style="fill: none; stroke: #2ecc71; stroke-opacity: 0.5; stroke-linecap: square"/>
   </g>
   <g id="line2d_12">
    <path d="M 218.565 199.601813 
L 253.215 199.601813 
" clip-path="url(#pecf6b29088)" style="fill: none; stroke: #2ecc71; stroke-opacity: 0.5; stroke-linecap: square"/>
   </g>
   <g id="line2d_13">
    <path d="M 194.31 177.152813 
L 194.31 145.082813 
" clip-path="url(#pecf6b29088)" style="fill: none; stroke: #2ecc71; stroke-opacity: 0.5; stroke-linecap: square"/>
   </g>
   <g id="line2d_14">
    <path d="M 218.565 122.633813 
L 253.215 122.633813 
" clip-path="url(#pecf6b29088)" style="fill: none; stroke: #2ecc71; stroke-opacity: 0.5; stroke-linecap: square"/>
   </g>
   <g id="line2d_15">
    <path d="M 301.725 353.537812 
L 336.375 353.537812 
" clip-path="url(#pecf6b29088)" style="fill: none; stroke: #2ecc71; stroke-opacity: 0.5; stroke-linecap: square"/>
   </g>
   <g id="line2d_16">
    <path d="M 277.47 331.088812 
L 277.47 299.018812 
" clip-path="url(#pecf6b29088)" style="fill: none; stroke: #2ecc71; stroke-opacity: 0.5; stroke-linecap: square"/>
   </g>
   <g id="line2d_17">
    <path d="M 301.725 276.569813 
L 336.375 276.569813 
" clip-path="url(#pecf6b29088)" style="fill: none; stroke: #2ecc71; stroke-opacity: 0.5; stroke-linecap: square"/>
   </g>
   <g id="line2d_18">
    <path d="M 277.47 254.120812 
L 277.47 222.050812 
" clip-path="url(#pecf6b29088)" style="fill: none; stroke: #2ecc71; stroke-opacity: 0.5; stroke-linecap: square"/>
   </g>
   <g id="line2d_19">
    <path d="M 301.725 199.601813 
L 336.375 199.601813 
" clip-path="url(#pecf6b29088)" style="fill: none; stroke: #2ecc71; stroke-opacity: 0.5; stroke-linecap: square"/>
   </g>
   <g id="line2d_20">
    <path d="M 277.47 177.152813 
L 277.47 145.082813 
" clip-path="url(#pecf6b29088)" style="fill: none; stroke: #2ecc71; stroke-opacity: 0.5; stroke-linecap: square"/>
   </g>
   <g id="line2d_21">
    <path d="M 301.725 122.633813 
L 336.375 122.633813 
" clip-path="url(#pecf6b29088)" style="fill: none; stroke: #2ecc71; stroke-opacity: 0.5; stroke-linecap: square"/>
   </g>
   <g id="line2d_22">
    <path d="M 384.885 353.537812 
L 419.535 353.537812 
" clip-path="url(#pecf6b29088)" style="fill: none; stroke: #2ecc71; stroke-opacity: 0.5; stroke-linecap: square"/>
   </g>
   <g id="line2d_23">
    <path d="M 360.63 331.088812 
L 360.63 299.018812 
" clip-path="url(#pecf6b29088)" style="fill: none; stroke: #2ecc71; stroke-opacity: 0.5; stroke-linecap: square"/>
   </g>
   <g id="line2d_24">
    <path d="M 384.885 276.569813 
L 419.535 276.569813 
" clip-path="url(#pecf6b29088)" style="fill: none; stroke: #2ecc71; stroke-opacity: 0.5; stroke-linecap: square"/>
   </g>
   <g id="line2d_25">
    <path d="M 360.63 254.120812 
L 360.63 222.050812 
" clip-path="url(#pecf6b29088)" style="fill: none; stroke: #2ecc71; stroke-opacity: 0.5; stroke-linecap: square"/>
   </g>
   <g id="line2d_26">
    <path d="M 384.885 199.601813 
L 419.535 199.601813 
" clip-path="url(#pecf6b29088)" style="fill: none; stroke: #2ecc71; stroke-opacity: 0.5; stroke-linecap: square"/>
   </g>
   <g id="line2d_27">
    <path d="M 360.63 177.152813 
L 360.63 145.082813 
" clip-path="url(#pecf6b29088)" style="fill: none; stroke: #2ecc71; stroke-opacity: 0.5; stroke-linecap: square"/>
   </g>
   <g id="line2d_28">
    <path d="M 384.885 122.633813 
L 419.535 122.633813 
" clip-path="url(#pecf6b29088)" style="fill: none; stroke: #2ecc71; stroke-opacity: 0.5; stroke-linecap: square"/>
   </g>
   <g id="text_1">
    <!-- Si -->
    <g style="fill: #ffffff" transform="translate(106.586719 356.297187) scale(0.1 -0.1)">
     <defs>
      <path id="DejaVuSans-53" d="M 3425 4513 
L 3425 3897 
Q 3066 4069 2747 4153 
Q 2428 4238 2131 4238 
Q 1616 4238 1336 4038 
Q 1056 3838 1056 3469 
Q 1056 3159 1242 3001 
Q 1428 2844 1947 2747 
L 2328 2669 
Q 3034 2534 3370 2195 
Q 3706 1856 3706 1288 
Q 3706 609 3251 259 
Q 2797 -91 1919 -91 
Q 1588 -91 1214 -16 
Q 841 59 441 206 
L 441 856 
Q 825 641 1194 531 
Q 1563 422 1919 422 
Q 2459 422 2753 634 
Q 3047 847 3047 1241 
Q 3047 1584 2836 1778 
Q 2625 1972 2144 2069 
L 1759 2144 
Q 1053 2284 737 2584 
Q 422 2884 422 3419 
Q 422 4038 858 4394 
Q 1294 4750 2059 4750 
Q 2388 4750 2728 4690 
Q 3069 4631 3425 4513 
z
" transform="scale(0.015625)"/>
      <path id="DejaVuSans-69" d="M 603 3500 
L 1178 3500 
L 1178 0 
L 603 0 
L 603 3500 
z
M 603 4863 
L 1178 4863 
L 1178 4134 
L 603 4134 
L 603 4863 
z
" transform="scale(0.015625)"/>
     </defs>
     <use xlink:href="#DejaVuSans-53"/>
     <use xlink:href="#DejaVuSans-69" transform="translate(63.476562 0)"/>
    </g>
   </g>
   <g id="text_2">
    <!-- Si -->
    <g style="fill: #ffffff" transform="translate(106.586719 279.329187) scale(0.1 -0.1)">
     <use xlink:href="#DejaVuSans-53"/>
     <use xlink:href="#DejaVuSans-69" transform="translate(63.476562 0)"/>
    </g>
   </g>
   <g id="text_3">
    <!-- Si -->
    <g style="fill: #ffffff" transform="translate(106.586719 202.361188) scale(0.1 -0.1)">
     <use xlink:href="#DejaVuSans-53"/>
     <use xlink:href="#DejaVuSans-69" transform="translate(63.476562 0)"/>
    </g>
   </g>
   <g id="text_4">
    <!-- Si -->
    <g style="fill: #ffffff" transform="translate(106.586719 125.393188) scale(0.1 -0.1)">
     <use xlink:href="#DejaVuSans-53"/>
     <use xlink:href="#DejaVuSans-69" transform="translate(63.476562 0)"/>
    </g>
   </g>
   <g id="text_5">
    <!-- Si -->
    <g style="fill: #ffffff" transform="translate(189.746719 356.297187) scale(0.1 -0.1)">
     <use xlink:href="#DejaVuSans-53"/>
     <use xlink:href="#DejaVuSans-69" transform="translate(63.476562 0)"/>
    </g>
   </g>
   <g id="text_6">
    <!-- Si -->
    <g style="fill: #ffffff" transform="translate(189.746719 279.329187) scale(0.1 -0.1)">
     <use xlink:href="#DejaVuSans-53"/>
     <use xlink:href="#DejaVuSans-69" transform="translate(63.476562 0)"/>
    </g>
   </g>
   <g id="text_7">
    <!-- Si -->
    <g style="fill: #ffffff" transform="translate(189.746719 202.361188) scale(0.1 -0.1)">
     <use xlink:href="#DejaVuSans-53"/>
     <use xlink:href="#DejaVuSans-69" transform="translate(63.476562 0)"/>
    </g>
   </g>
   <g id="text_8">
    <!-- Si -->
    <g style="fill: #ffffff" transform="translate(189.746719 125.393188) scale(0.1 -0.1)">
     <use xlink:href="#DejaVuSans-53"/>
     <use xlink:href="#DejaVuSans-69" transform="translate(63.476562 0)"/>
    </g>
   </g>
   <g id="text_9">
    <!-- Si -->
    <g style="fill: #ffffff" transform="translate(272.906719 356.297187) scale(0.1 -0.1)">
     <use xlink:href="#DejaVuSans-53"/>
     <use xlink:href="#DejaVuSans-69" transform="translate(63.476562 0)"/>
    </g>
   </g>
   <g id="text_10">
    <!-- Si -->
    <g style="fill: #ffffff" transform="translate(272.906719 279.329187) scale(0.1 -0.1)">
     <use xlink:href="#DejaVuSans-53"/>
     <use xlink:href="#DejaVuSans-69" transform="translate(63.476562 0)"/>
    </g>
   </g>
   <g id="text_11">
    <!-- P -->
    <g style="fill: #ffffff" transform="translate(273.072187 202.913063) scale(0.12 -0.12)">
     <defs>
      <path id="DejaVuSans-Bold-50" d="M 588 4666 
L 2584 4666 
Q 3475 4666 3951 4270 
Q 4428 3875 4428 3144 
Q 4428 2409 3951 2014 
Q 3475 1619 2584 1619 
L 1791 1619 
L 1791 0 
L 588 0 
L 588 4666 
z
M 1791 3794 
L 1791 2491 
L 2456 2491 
Q 2806 2491 2997 2661 
Q 3188 2831 3188 3144 
Q 3188 3456 2997 3625 
Q 2806 3794 2456 3794 
L 1791 3794 
z
" transform="scale(0.015625)"/>
     </defs>
     <use xlink:href="#DejaVuSans-Bold-50"/>
    </g>
   </g>
   <g id="text_12">
    <!-- e⁻ -->
    <g style="fill: #ffffff" transform="translate(308.119062 182.291375) scale(0.07 -0.07)">
     <defs>
      <path id="DejaVuSans-65" d="M 3597 1894 
L 3597 1613 
L 953 1613 
Q 991 1019 1311 708 
Q 1631 397 2203 397 
Q 2534 397 2845 478 
Q 3156 559 3463 722 
L 3463 178 
Q 3153 47 2828 -22 
Q 2503 -91 2169 -91 
Q 1331 -91 842 396 
Q 353 884 353 1716 
Q 353 2575 817 3079 
Q 1281 3584 2069 3584 
Q 2775 3584 3186 3129 
Q 3597 2675 3597 1894 
z
M 3022 2063 
Q 3016 2534 2758 2815 
Q 2500 3097 2075 3097 
Q 1594 3097 1305 2825 
Q 1016 2553 972 2059 
L 3022 2063 
z
" transform="scale(0.015625)"/>
      <path id="DejaVuSans-207b" d="M 428 3359 
L 2950 3359 
L 2950 3063 
L 428 3063 
L 428 3359 
z
" transform="scale(0.015625)"/>
     </defs>
     <use xlink:href="#DejaVuSans-65"/>
     <use xlink:href="#DejaVuSans-207b" transform="translate(61.523438 0)"/>
    </g>
   </g>
   <g id="text_13">
    <!-- Si -->
    <g style="fill: #ffffff" transform="translate(272.906719 125.393188) scale(0.1 -0.1)">
     <use xlink:href="#DejaVuSans-53"/>
     <use xlink:href="#DejaVuSans-69" transform="translate(63.476562 0)"/>
    </g>
   </g>
   <g id="text_14">
    <!-- Si -->
    <g style="fill: #ffffff" transform="translate(356.066719 356.297187) scale(0.1 -0.1)">
     <use xlink:href="#DejaVuSans-53"/>
     <use xlink:href="#DejaVuSans-69" transform="translate(63.476562 0)"/>
    </g>
   </g>
   <g id="text_15">
    <!-- Si -->
    <g style="fill: #ffffff" transform="translate(356.066719 279.329187) scale(0.1 -0.1)">
     <use xlink:href="#DejaVuSans-53"/>
     <use xlink:href="#DejaVuSans-69" transform="translate(63.476562 0)"/>
    </g>
   </g>
   <g id="text_16">
    <!-- Si -->
    <g style="fill: #ffffff" transform="translate(356.066719 202.361188) scale(0.1 -0.1)">
     <use xlink:href="#DejaVuSans-53"/>
     <use xlink:href="#DejaVuSans-69" transform="translate(63.476562 0)"/>
    </g>
   </g>
   <g id="text_17">
    <!-- Si -->
    <g style="fill: #ffffff" transform="translate(356.066719 125.393188) scale(0.1 -0.1)">
     <use xlink:href="#DejaVuSans-53"/>
     <use xlink:href="#DejaVuSans-69" transform="translate(63.476562 0)"/>
    </g>
   </g>
   <g id="text_18">
    <!-- Si -->
    <g style="fill: #ffffff" transform="translate(439.226719 356.297187) scale(0.1 -0.1)">
     <use xlink:href="#DejaVuSans-53"/>
     <use xlink:href="#DejaVuSans-69" transform="translate(63.476562 0)"/>
    </g>
   </g>
   <g id="text_19">
    <!-- Si -->
    <g style="fill: #ffffff" transform="translate(439.226719 279.329187) scale(0.1 -0.1)">
     <use xlink:href="#DejaVuSans-53"/>
     <use xlink:href="#DejaVuSans-69" transform="translate(63.476562 0)"/>
    </g>
   </g>
   <g id="text_20">
    <!-- Si -->
    <g style="fill: #ffffff" transform="translate(439.226719 202.361188) scale(0.1 -0.1)">
     <use xlink:href="#DejaVuSans-53"/>
     <use xlink:href="#DejaVuSans-69" transform="translate(63.476562 0)"/>
    </g>
   </g>
   <g id="text_21">
    <!-- Si -->
    <g style="fill: #ffffff" transform="translate(439.226719 125.393188) scale(0.1 -0.1)">
     <use xlink:href="#DejaVuSans-53"/>
     <use xlink:href="#DejaVuSans-69" transform="translate(63.476562 0)"/>
    </g>
   </g>
   <g id="text_22">
    <!-- N-type: Phosphorus (5 valence e⁻) donates 1 free electron -->
    <g transform="translate(138.359375 64.907813) scale(0.1 -0.1)">
     <defs>
      <path id="DejaVuSans-4e" d="M 628 4666 
L 1478 4666 
L 3547 763 
L 3547 4666 
L 4159 4666 
L 4159 0 
L 3309 0 
L 1241 3903 
L 1241 0 
L 628 0 
L 628 4666 
z
" transform="scale(0.015625)"/>
      <path id="DejaVuSans-2d" d="M 313 2009 
L 1997 2009 
L 1997 1497 
L 313 1497 
L 313 2009 
z
" transform="scale(0.015625)"/>
      <path id="DejaVuSans-74" d="M 1172 4494 
L 1172 3500 
L 2356 3500 
L 2356 3053 
L 1172 3053 
L 1172 1153 
Q 1172 725 1289 603 
Q 1406 481 1766 481 
L 2356 481 
L 2356 0 
L 1766 0 
Q 1100 0 847 248 
Q 594 497 594 1153 
L 594 3053 
L 172 3053 
L 172 3500 
L 594 3500 
L 594 4494 
L 1172 4494 
z
" transform="scale(0.015625)"/>
      <path id="DejaVuSans-79" d="M 2059 -325 
Q 1816 -950 1584 -1140 
Q 1353 -1331 966 -1331 
L 506 -1331 
L 506 -850 
L 844 -850 
Q 1081 -850 1212 -737 
Q 1344 -625 1503 -206 
L 1606 56 
L 191 3500 
L 800 3500 
L 1894 763 
L 2988 3500 
L 3597 3500 
L 2059 -325 
z
" transform="scale(0.015625)"/>
      <path id="DejaVuSans-70" d="M 1159 525 
L 1159 -1331 
L 581 -1331 
L 581 3500 
L 1159 3500 
L 1159 2969 
Q 1341 3281 1617 3432 
Q 1894 3584 2278 3584 
Q 2916 3584 3314 3078 
Q 3713 2572 3713 1747 
Q 3713 922 3314 415 
Q 2916 -91 2278 -91 
Q 1894 -91 1617 61 
Q 1341 213 1159 525 
z
M 3116 1747 
Q 3116 2381 2855 2742 
Q 2594 3103 2138 3103 
Q 1681 3103 1420 2742 
Q 1159 2381 1159 1747 
Q 1159 1113 1420 752 
Q 1681 391 2138 391 
Q 2594 391 2855 752 
Q 3116 1113 3116 1747 
z
" transform="scale(0.015625)"/>
      <path id="DejaVuSans-3a" d="M 750 794 
L 1409 794 
L 1409 0 
L 750 0 
L 750 794 
z
M 750 3309 
L 1409 3309 
L 1409 2516 
L 750 2516 
L 750 3309 
z
" transform="scale(0.015625)"/>
      <path id="DejaVuSans-20" transform="scale(0.015625)"/>
      <path id="DejaVuSans-50" d="M 1259 4147 
L 1259 2394 
L 2053 2394 
Q 2494 2394 2734 2622 
Q 2975 2850 2975 3272 
Q 2975 3691 2734 3919 
Q 2494 4147 2053 4147 
L 1259 4147 
z
M 628 4666 
L 2053 4666 
Q 2838 4666 3239 4311 
Q 3641 3956 3641 3272 
Q 3641 2581 3239 2228 
Q 2838 1875 2053 1875 
L 1259 1875 
L 1259 0 
L 628 0 
L 628 4666 
z
" transform="scale(0.015625)"/>
      <path id="DejaVuSans-68" d="M 3513 2113 
L 3513 0 
L 2938 0 
L 2938 2094 
Q 2938 2591 2744 2837 
Q 2550 3084 2163 3084 
Q 1697 3084 1428 2787 
Q 1159 2491 1159 1978 
L 1159 0 
L 581 0 
L 581 4863 
L 1159 4863 
L 1159 2956 
Q 1366 3272 1645 3428 
Q 1925 3584 2291 3584 
Q 2894 3584 3203 3211 
Q 3513 2838 3513 2113 
z
" transform="scale(0.015625)"/>
      <path id="DejaVuSans-6f" d="M 1959 3097 
Q 1497 3097 1228 2736 
Q 959 2375 959 1747 
Q 959 1119 1226 758 
Q 1494 397 1959 397 
Q 2419 397 2687 759 
Q 2956 1122 2956 1747 
Q 2956 2369 2687 2733 
Q 2419 3097 1959 3097 
z
M 1959 3584 
Q 2709 3584 3137 3096 
Q 3566 2609 3566 1747 
Q 3566 888 3137 398 
Q 2709 -91 1959 -91 
Q 1206 -91 779 398 
Q 353 888 353 1747 
Q 353 2609 779 3096 
Q 1206 3584 1959 3584 
z
" transform="scale(0.015625)"/>
      <path id="DejaVuSans-73" d="M 2834 3397 
L 2834 2853 
Q 2591 2978 2328 3040 
Q 2066 3103 1784 3103 
Q 1356 3103 1142 2972 
Q 928 2841 928 2578 
Q 928 2378 1081 2264 
Q 1234 2150 1697 2047 
L 1894 2003 
Q 2506 1872 2764 1633 
Q 3022 1394 3022 966 
Q 3022 478 2636 193 
Q 2250 -91 1575 -91 
Q 1294 -91 989 -36 
Q 684 19 347 128 
L 347 722 
Q 666 556 975 473 
Q 1284 391 1588 391 
Q 1994 391 2212 530 
Q 2431 669 2431 922 
Q 2431 1156 2273 1281 
Q 2116 1406 1581 1522 
L 1381 1569 
Q 847 1681 609 1914 
Q 372 2147 372 2553 
Q 372 3047 722 3315 
Q 1072 3584 1716 3584 
Q 2034 3584 2315 3537 
Q 2597 3491 2834 3397 
z
" transform="scale(0.015625)"/>
      <path id="DejaVuSans-72" d="M 2631 2963 
Q 2534 3019 2420 3045 
Q 2306 3072 2169 3072 
Q 1681 3072 1420 2755 
Q 1159 2438 1159 1844 
L 1159 0 
L 581 0 
L 581 3500 
L 1159 3500 
L 1159 2956 
Q 1341 3275 1631 3429 
Q 1922 3584 2338 3584 
Q 2397 3584 2469 3576 
Q 2541 3569 2628 3553 
L 2631 2963 
z
" transform="scale(0.015625)"/>
      <path id="DejaVuSans-75" d="M 544 1381 
L 544 3500 
L 1119 3500 
L 1119 1403 
Q 1119 906 1312 657 
Q 1506 409 1894 409 
Q 2359 409 2629 706 
Q 2900 1003 2900 1516 
L 2900 3500 
L 3475 3500 
L 3475 0 
L 2900 0 
L 2900 538 
Q 2691 219 2414 64 
Q 2138 -91 1772 -91 
Q 1169 -91 856 284 
Q 544 659 544 1381 
z
M 1991 3584 
L 1991 3584 
z
" transform="scale(0.015625)"/>
      <path id="DejaVuSans-28" d="M 1984 4856 
Q 1566 4138 1362 3434 
Q 1159 2731 1159 2009 
Q 1159 1288 1364 580 
Q 1569 -128 1984 -844 
L 1484 -844 
Q 1016 -109 783 600 
Q 550 1309 550 2009 
Q 550 2706 781 3412 
Q 1013 4119 1484 4856 
L 1984 4856 
z
" transform="scale(0.015625)"/>
      <path id="DejaVuSans-35" d="M 691 4666 
L 3169 4666 
L 3169 4134 
L 1269 4134 
L 1269 2991 
Q 1406 3038 1543 3061 
Q 1681 3084 1819 3084 
Q 2600 3084 3056 2656 
Q 3513 2228 3513 1497 
Q 3513 744 3044 326 
Q 2575 -91 1722 -91 
Q 1428 -91 1123 -41 
Q 819 9 494 109 
L 494 744 
Q 775 591 1075 516 
Q 1375 441 1709 441 
Q 2250 441 2565 725 
Q 2881 1009 2881 1497 
Q 2881 1984 2565 2268 
Q 2250 2553 1709 2553 
Q 1456 2553 1204 2497 
Q 953 2441 691 2322 
L 691 4666 
z
" transform="scale(0.015625)"/>
      <path id="DejaVuSans-76" d="M 191 3500 
L 800 3500 
L 1894 563 
L 2988 3500 
L 3597 3500 
L 2284 0 
L 1503 0 
L 191 3500 
z
" transform="scale(0.015625)"/>
      <path id="DejaVuSans-61" d="M 2194 1759 
Q 1497 1759 1228 1600 
Q 959 1441 959 1056 
Q 959 750 1161 570 
Q 1363 391 1709 391 
Q 2188 391 2477 730 
Q 2766 1069 2766 1631 
L 2766 1759 
L 2194 1759 
z
M 3341 1997 
L 3341 0 
L 2766 0 
L 2766 531 
Q 2569 213 2275 61 
Q 1981 -91 1556 -91 
Q 1019 -91 701 211 
Q 384 513 384 1019 
Q 384 1609 779 1909 
Q 1175 2209 1959 2209 
L 2766 2209 
L 2766 2266 
Q 2766 2663 2505 2880 
Q 2244 3097 1772 3097 
Q 1472 3097 1187 3025 
Q 903 2953 641 2809 
L 641 3341 
Q 956 3463 1253 3523 
Q 1550 3584 1831 3584 
Q 2591 3584 2966 3190 
Q 3341 2797 3341 1997 
z
" transform="scale(0.015625)"/>
      <path id="DejaVuSans-6c" d="M 603 4863 
L 1178 4863 
L 1178 0 
L 603 0 
L 603 4863 
z
" transform="scale(0.015625)"/>
      <path id="DejaVuSans-6e" d="M 3513 2113 
L 3513 0 
L 2938 0 
L 2938 2094 
Q 2938 2591 2744 2837 
Q 2550 3084 2163 3084 
Q 1697 3084 1428 2787 
Q 1159 2491 1159 1978 
L 1159 0 
L 581 0 
L 581 3500 
L 1159 3500 
L 1159 2956 
Q 1366 3272 1645 3428 
Q 1925 3584 2291 3584 
Q 2894 3584 3203 3211 
Q 3513 2838 3513 2113 
z
" transform="scale(0.015625)"/>
      <path id="DejaVuSans-63" d="M 3122 3366 
L 3122 2828 
Q 2878 2963 2633 3030 
Q 2388 3097 2138 3097 
Q 1578 3097 1268 2742 
Q 959 2388 959 1747 
Q 959 1106 1268 751 
Q 1578 397 2138 397 
Q 2388 397 2633 464 
Q 2878 531 3122 666 
L 3122 134 
Q 2881 22 2623 -34 
Q 2366 -91 2075 -91 
Q 1284 -91 818 406 
Q 353 903 353 1747 
Q 353 2603 823 3093 
Q 1294 3584 2113 3584 
Q 2378 3584 2631 3529 
Q 2884 3475 3122 3366 
z
" transform="scale(0.015625)"/>
      <path id="DejaVuSans-29" d="M 513 4856 
L 1013 4856 
Q 1481 4119 1714 3412 
Q 1947 2706 1947 2009 
Q 1947 1309 1714 600 
Q 1481 -109 1013 -844 
L 513 -844 
Q 928 -128 1133 580 
Q 1338 1288 1338 2009 
Q 1338 2731 1133 3434 
Q 928 4138 513 4856 
z
" transform="scale(0.015625)"/>
      <path id="DejaVuSans-64" d="M 2906 2969 
L 2906 4863 
L 3481 4863 
L 3481 0 
L 2906 0 
L 2906 525 
Q 2725 213 2448 61 
Q 2172 -91 1784 -91 
Q 1150 -91 751 415 
Q 353 922 353 1747 
Q 353 2572 751 3078 
Q 1150 3584 1784 3584 
Q 2172 3584 2448 3432 
Q 2725 3281 2906 2969 
z
M 947 1747 
Q 947 1113 1208 752 
Q 1469 391 1925 391 
Q 2381 391 2643 752 
Q 2906 1113 2906 1747 
Q 2906 2381 2643 2742 
Q 2381 3103 1925 3103 
Q 1469 3103 1208 2742 
Q 947 2381 947 1747 
z
" transform="scale(0.015625)"/>
      <path id="DejaVuSans-31" d="M 794 531 
L 1825 531 
L 1825 4091 
L 703 3866 
L 703 4441 
L 1819 4666 
L 2450 4666 
L 2450 531 
L 3481 531 
L 3481 0 
L 794 0 
L 794 531 
z
" transform="scale(0.015625)"/>
      <path id="DejaVuSans-66" d="M 2375 4863 
L 2375 4384 
L 1825 4384 
Q 1516 4384 1395 4259 
Q 1275 4134 1275 3809 
L 1275 3500 
L 2222 3500 
L 2222 3053 
L 1275 3053 
L 1275 0 
L 697 0 
L 697 3053 
L 147 3053 
L 147 3500 
L 697 3500 
L 697 3744 
Q 697 4328 969 4595 
Q 1241 4863 1831 4863 
L 2375 4863 
z
" transform="scale(0.015625)"/>
     </defs>
     <use xlink:href="#DejaVuSans-4e"/>
     <use xlink:href="#DejaVuSans-2d" transform="translate(74.804688 0)"/>
     <use xlink:href="#DejaVuSans-74" transform="translate(110.888672 0)"/>
     <use xlink:href="#DejaVuSans-79" transform="translate(150.097656 0)"/>
     <use xlink:href="#DejaVuSans-70" transform="translate(209.277344 0)"/>
     <use xlink:href="#DejaVuSans-65" transform="translate(272.753906 0)"/>
     <use xlink:href="#DejaVuSans-3a" transform="translate(334.277344 0)"/>
     <use xlink:href="#DejaVuSans-20" transform="translate(367.96875 0)"/>
     <use xlink:href="#DejaVuSans-50" transform="translate(399.755859 0)"/>
     <use xlink:href="#DejaVuSans-68" transform="translate(460.058594 0)"/>
     <use xlink:href="#DejaVuSans-6f" transform="translate(523.4375 0)"/>
     <use xlink:href="#DejaVuSans-73" transform="translate(584.619141 0)"/>
     <use xlink:href="#DejaVuSans-70" transform="translate(636.71875 0)"/>
     <use xlink:href="#DejaVuSans-68" transform="translate(700.195312 0)"/>
     <use xlink:href="#DejaVuSans-6f" transform="translate(763.574219 0)"/>
     <use xlink:href="#DejaVuSans-72" transform="translate(824.755859 0)"/>
     <use xlink:href="#DejaVuSans-75" transform="translate(865.869141 0)"/>
     <use xlink:href="#DejaVuSans-73" transform="translate(929.248047 0)"/>
     <use xlink:href="#DejaVuSans-20" transform="translate(981.347656 0)"/>
     <use xlink:href="#DejaVuSans-28" transform="translate(1013.134766 0)"/>
     <use xlink:href="#DejaVuSans-35" transform="translate(1052.148438 0)"/>
     <use xlink:href="#DejaVuSans-20" transform="translate(1115.771484 0)"/>
     <use xlink:href="#DejaVuSans-76" transform="translate(1147.558594 0)"/>
     <use xlink:href="#DejaVuSans-61" transform="translate(1206.738281 0)"/>
     <use xlink:href="#DejaVuSans-6c" transform="translate(1268.017578 0)"/>
     <use xlink:href="#DejaVuSans-65" transform="translate(1295.800781 0)"/>
     <use xlink:href="#DejaVuSans-6e" transform="translate(1357.324219 0)"/>
     <use xlink:href="#DejaVuSans-63" transform="translate(1420.703125 0)"/>
     <use xlink:href="#DejaVuSans-65" transform="translate(1475.683594 0)"/>
     <use xlink:href="#DejaVuSans-20" transform="translate(1537.207031 0)"/>
     <use xlink:href="#DejaVuSans-65" transform="translate(1568.994141 0)"/>
     <use xlink:href="#DejaVuSans-207b" transform="translate(1630.517578 0)"/>
     <use xlink:href="#DejaVuSans-29" transform="translate(1683.300781 0)"/>
     <use xlink:href="#DejaVuSans-20" transform="translate(1722.314453 0)"/>
     <use xlink:href="#DejaVuSans-64" transform="translate(1754.101562 0)"/>
     <use xlink:href="#DejaVuSans-6f" transform="translate(1817.578125 0)"/>
     <use xlink:href="#DejaVuSans-6e" transform="translate(1878.759766 0)"/>
     <use xlink:href="#DejaVuSans-61" transform="translate(1942.138672 0)"/>
     <use xlink:href="#DejaVuSans-74" transform="translate(2003.417969 0)"/>
     <use xlink:href="#DejaVuSans-65" transform="translate(2042.626953 0)"/>
     <use xlink:href="#DejaVuSans-73" transform="translate(2104.150391 0)"/>
     <use xlink:href="#DejaVuSans-20" transform="translate(2156.25 0)"/>
     <use xlink:href="#DejaVuSans-31" transform="translate(2188.037109 0)"/>
     <use xlink:href="#DejaVuSans-20" transform="translate(2251.660156 0)"/>
     <use xlink:href="#DejaVuSans-66" transform="translate(2283.447266 0)"/>
     <use xlink:href="#DejaVuSans-72" transform="translate(2318.652344 0)"/>
     <use xlink:href="#DejaVuSans-65" transform="translate(2357.515625 0)"/>
     <use xlink:href="#DejaVuSans-65" transform="translate(2419.039062 0)"/>
     <use xlink:href="#DejaVuSans-20" transform="translate(2480.5625 0)"/>
     <use xlink:href="#DejaVuSans-65" transform="translate(2512.349609 0)"/>
     <use xlink:href="#DejaVuSans-6c" transform="translate(2573.873047 0)"/>
     <use xlink:href="#DejaVuSans-65" transform="translate(2601.65625 0)"/>
     <use xlink:href="#DejaVuSans-63" transform="translate(2663.179688 0)"/>
     <use xlink:href="#DejaVuSans-74" transform="translate(2718.160156 0)"/>
     <use xlink:href="#DejaVuSans-72" transform="translate(2757.369141 0)"/>
     <use xlink:href="#DejaVuSans-6f" transform="translate(2796.232422 0)"/>
     <use xlink:href="#DejaVuSans-6e" transform="translate(2857.414062 0)"/>
    </g>
   </g>
   <g id="text_23">
    <!-- N-Type Doping (Donor) -->
    <g transform="translate(205.076875 17.837812) scale(0.14 -0.14)">
     <defs>
      <path id="DejaVuSans-54" d="M -19 4666 
L 3928 4666 
L 3928 4134 
L 2272 4134 
L 2272 0 
L 1638 0 
L 1638 4134 
L -19 4134 
L -19 4666 
z
" transform="scale(0.015625)"/>
      <path id="DejaVuSans-44" d="M 1259 4147 
L 1259 519 
L 2022 519 
Q 2988 519 3436 956 
Q 3884 1394 3884 2338 
Q 3884 3275 3436 3711 
Q 2988 4147 2022 4147 
L 1259 4147 
z
M 628 4666 
L 1925 4666 
Q 3281 4666 3915 4102 
Q 4550 3538 4550 2338 
Q 4550 1131 3912 565 
Q 3275 0 1925 0 
L 628 0 
L 628 4666 
z
" transform="scale(0.015625)"/>
      <path id="DejaVuSans-67" d="M 2906 1791 
Q 2906 2416 2648 2759 
Q 2391 3103 1925 3103 
Q 1463 3103 1205 2759 
Q 947 2416 947 1791 
Q 947 1169 1205 825 
Q 1463 481 1925 481 
Q 2391 481 2648 825 
Q 2906 1169 2906 1791 
z
M 3481 434 
Q 3481 -459 3084 -895 
Q 2688 -1331 1869 -1331 
Q 1566 -1331 1297 -1286 
Q 1028 -1241 775 -1147 
L 775 -588 
Q 1028 -725 1275 -790 
Q 1522 -856 1778 -856 
Q 2344 -856 2625 -561 
Q 2906 -266 2906 331 
L 2906 616 
Q 2728 306 2450 153 
Q 2172 0 1784 0 
Q 1141 0 747 490 
Q 353 981 353 1791 
Q 353 2603 747 3093 
Q 1141 3584 1784 3584 
Q 2172 3584 2450 3431 
Q 2728 3278 2906 2969 
L 2906 3500 
L 3481 3500 
L 3481 434 
z
" transform="scale(0.015625)"/>
     </defs>
     <use xlink:href="#DejaVuSans-4e"/>
     <use xlink:href="#DejaVuSans-2d" transform="translate(74.804688 0)"/>
     <use xlink:href="#DejaVuSans-54" transform="translate(101.763672 0)"/>
     <use xlink:href="#DejaVuSans-79" transform="translate(147.222656 0)"/>
     <use xlink:href="#DejaVuSans-70" transform="translate(206.402344 0)"/>
     <use xlink:href="#DejaVuSans-65" transform="translate(269.878906 0)"/>
     <use xlink:href="#DejaVuSans-20" transform="translate(331.402344 0)"/>
     <use xlink:href="#DejaVuSans-44" transform="translate(363.189453 0)"/>
     <use xlink:href="#DejaVuSans-6f" transform="translate(440.191406 0)"/>
     <use xlink:href="#DejaVuSans-70" transform="translate(501.373047 0)"/>
     <use xlink:href="#DejaVuSans-69" transform="translate(564.849609 0)"/>
     <use xlink:href="#DejaVuSans-6e" transform="translate(592.632812 0)"/>
     <use xlink:href="#DejaVuSans-67" transform="translate(656.011719 0)"/>
     <use xlink:href="#DejaVuSans-20" transform="translate(719.488281 0)"/>
     <use xlink:href="#DejaVuSans-28" transform="translate(751.275391 0)"/>
     <use xlink:href="#DejaVuSans-44" transform="translate(790.289062 0)"/>
     <use xlink:href="#DejaVuSans-6f" transform="translate(867.291016 0)"/>
     <use xlink:href="#DejaVuSans-6e" transform="translate(928.472656 0)"/>
     <use xlink:href="#DejaVuSans-6f" transform="translate(991.851562 0)"/>
     <use xlink:href="#DejaVuSans-72" transform="translate(1053.033203 0)"/>
     <use xlink:href="#DejaVuSans-29" transform="translate(1094.146484 0)"/>
    </g>
   </g>
  </g>
 </g>
 <defs>
  <clipPath id="pecf6b29088">
   <rect x="7.2" y="32.837812" width="554.4" height="384.84"/>
  </clipPath>
 </defs>
</svg>
