<?xml version="1.0" encoding="utf-8" standalone="no"?>
<!DOCTYPE svg PUBLIC "-//W3C//DTD SVG 1.1//EN"
  "http://www.w3.org/Graphics/SVG/1.1/DTD/svg11.dtd">
<svg xmlns:xlink="http://www.w3.org/1999/xlink" width="707.1395pt" height="424.877812pt" viewBox="0 0 707.1395 424.877812" xmlns="http://www.w3.org/2000/svg" version="1.1">
 <metadata>
  <rdf:RDF xmlns:dc="http://purl.org/dc/elements/1.1/" xmlns:cc="http://creativecommons.org/ns#" xmlns:rdf="http://www.w3.org/1999/02/22-rdf-syntax-ns#">
   <cc:Work>
    <dc:type rdf:resource="http://purl.org/dc/dcmitype/StillImage"/>
    <dc:date>2026-01-02T16:05:21.327937</dc:date>
    <dc:format>image/svg+xml</dc:format>
    <dc:creator>
     <cc:Agent>
      <dc:title>Matplotlib v3.10.8, https://matplotlib.org/</dc:title>
     </cc:Agent>
    </dc:creator>
   </cc:Work>
  </rdf:RDF>
 </metadata>
 <defs>
  <style type="text/css">*{stroke-linejoin: round; stroke-linecap: butt}</style>
 </defs>
 <g id="figure_1">
  <g id="patch_1">
   <path d="M 0 424.877812 
L 707.1395 424.877812 
L 707.1395 0 
L 0 0 
z
" style="fill: #ffffff"/>
  </g>
  <g id="axes_1">
   <g id="patch_2">
    <path d="M 88.3152 145.082813 
C 92.796867 145.082813 97.09558 143.393264 100.264597 140.38627 
C 103.433615 137.379276 105.2142 133.300344 105.2142 129.047813 
C 105.2142 124.795281 103.433615 120.716349 100.264597 117.709355 
C 97.09558 114.702361 92.796867 113.012813 88.3152 113.012813 
C 83.833533 113.012813 79.53482 114.702361 76.365803 117.709355 
C 73.196785 120.716349 71.4162 124.795281 71.4162 129.047813 
C 71.4162 133.300344 73.196785 137.379276 76.365803 140.38627 
C 79.53482 143.393264 83.833533 145.082813 88.3152 145.082813 
z
" clip-path="url(#pb9664d302a)" style="fill: #e74c3c; opacity: 0.8; stroke: #e74c3c; stroke-width: 1.5; stroke-linejoin: miter"/>
   </g>
   <g id="patch_3">
    <path d="M 155.9112 145.082813 
C 160.392867 145.082813 164.69158 143.393264 167.860597 140.38627 
C 171.029615 137.379276 172.8102 133.300344 172.8102 129.047813 
C 172.8102 124.795281 171.029615 120.716349 167.860597 117.709355 
C 164.69158 114.702361 160.392867 113.012813 155.9112 113.012813 
C 151.429533 113.012813 147.13082 114.702361 143.961803 117.709355 
C 140.792785 120.716349 139.0122 124.795281 139.0122 129.047813 
C 139.0122 133.300344 140.792785 137.379276 143.961803 140.38627 
C 147.13082 143.393264 151.429533 145.082813 155.9112 145.082813 
z
" clip-path="url(#pb9664d302a)" style="fill: #e74c3c; opacity: 0.8; stroke: #e74c3c; stroke-width: 1.5; stroke-linejoin: miter"/>
   </g>
   <g id="patch_4">
    <path d="M 223.5072 145.082813 
C 227.988867 145.082813 232.28758 143.393264 235.456597 140.38627 
C 238.625615 137.379276 240.4062 133.300344 240.4062 129.047813 
C 240.4062 124.795281 238.625615 120.716349 235.456597 117.709355 
C 232.28758 114.702361 227.988867 113.012813 223.5072 113.012813 
C 219.025533 113.012813 214.72682 114.702361 211.557803 117.709355 
C 208.388785 120.716349 206.6082 124.795281 206.6082 129.047813 
C 206.6082 133.300344 208.388785 137.379276 211.557803 140.38627 
C 214.72682 143.393264 219.025533 145.082813 223.5072 145.082813 
z
" clip-path="url(#pb9664d302a)" style="fill: #e74c3c; opacity: 0.8; stroke: #e74c3c; stroke-width: 1.5; stroke-linejoin: miter"/>
   </g>
   <g id="patch_5">
    <path d="M 291.1032 145.082813 
C 295.584867 145.082813 299.88358 143.393264 303.052597 140.38627 
C 306.221615 137.379276 308.0022 133.300344 308.0022 129.047813 
C 308.0022 124.795281 306.221615 120.716349 303.052597 117.709355 
C 299.88358 114.702361 295.584867 113.012813 291.1032 113.012813 
C 286.621533 113.012813 282.32282 114.702361 279.153803 117.709355 
C 275.984785 120.716349 274.2042 124.795281 274.2042 129.047813 
C 274.2042 133.300344 275.984785 137.379276 279.153803 140.38627 
C 282.32282 143.393264 286.621533 145.082813 291.1032 145.082813 
z
" clip-path="url(#pb9664d302a)" style="fill: #e74c3c; opacity: 0.8; stroke: #e74c3c; stroke-width: 1.5; stroke-linejoin: miter"/>
   </g>
   <g id="patch_6">
    <path d="M 358.6992 145.082813 
C 363.180867 145.082813 367.47958 143.393264 370.648597 140.38627 
C 373.817615 137.379276 375.5982 133.300344 375.5982 129.047813 
C 375.5982 124.795281 373.817615 120.716349 370.648597 117.709355 
C 367.47958 114.702361 363.180867 113.012813 358.6992 113.012813 
C 354.217533 113.012813 349.91882 114.702361 346.749803 117.709355 
C 343.580785 120.716349 341.8002 124.795281 341.8002 129.047813 
C 341.8002 133.300344 343.580785 137.379276 346.749803 140.38627 
C 349.91882 143.393264 354.217533 145.082813 358.6992 145.082813 
z
" clip-path="url(#pb9664d302a)" style="fill: #e74c3c; opacity: 0.8; stroke: #e74c3c; stroke-width: 1.5; stroke-linejoin: miter"/>
   </g>
   <g id="patch_7">
    <path d="M 426.2952 145.082813 
C 430.776867 145.082813 435.07558 143.393264 438.244597 140.38627 
C 441.413615 137.379276 443.1942 133.300344 443.1942 129.047813 
C 443.1942 124.795281 441.413615 120.716349 438.244597 117.709355 
C 435.07558 114.702361 430.776867 113.012813 426.2952 113.012813 
C 421.813533 113.012813 417.51482 114.702361 414.345803 117.709355 
C 411.176785 120.716349 409.3962 124.795281 409.3962 129.047813 
C 409.3962 133.300344 411.176785 137.379276 414.345803 140.38627 
C 417.51482 143.393264 421.813533 145.082813 426.2952 145.082813 
z
" clip-path="url(#pb9664d302a)" style="fill: #e74c3c; opacity: 0.8; stroke: #e74c3c; stroke-width: 1.5; stroke-linejoin: miter"/>
   </g>
   <g id="patch_8">
    <path d="M 493.8912 145.082813 
C 498.372867 145.082813 502.67158 143.393264 505.840597 140.38627 
C 509.009615 137.379276 510.7902 133.300344 510.7902 129.047813 
C 510.7902 124.795281 509.009615 120.716349 505.840597 117.709355 
C 502.67158 114.702361 498.372867 113.012813 493.8912 113.012813 
C 489.409533 113.012813 485.11082 114.702361 481.941803 117.709355 
C 478.772785 120.716349 476.9922 124.795281 476.9922 129.047813 
C 476.9922 133.300344 478.772785 137.379276 481.941803 140.38627 
C 485.11082 143.393264 489.409533 145.082813 493.8912 145.082813 
z
" clip-path="url(#pb9664d302a)" style="fill: #e74c3c; opacity: 0.8; stroke: #e74c3c; stroke-width: 1.5; stroke-linejoin: miter"/>
   </g>
   <g id="patch_9">
    <path d="M 561.4872 145.082813 
C 565.968867 145.082813 570.26758 143.393264 573.436597 140.38627 
C 576.605615 137.379276 578.3862 133.300344 578.3862 129.047813 
C 578.3862 124.795281 576.605615 120.716349 573.436597 117.709355 
C 570.26758 114.702361 565.968867 113.012813 561.4872 113.012813 
C 557.005533 113.012813 552.70682 114.702361 549.537803 117.709355 
C 546.368785 120.716349 544.5882 124.795281 544.5882 129.047813 
C 544.5882 133.300344 546.368785 137.379276 549.537803 140.38627 
C 552.70682 143.393264 557.005533 145.082813 561.4872 145.082813 
z
" clip-path="url(#pb9664d302a)" style="fill: #e74c3c; opacity: 0.8; stroke: #e74c3c; stroke-width: 1.5; stroke-linejoin: miter"/>
   </g>
   <g id="patch_10">
    <path d="M 88.3152 337.502813 
C 92.796867 337.502813 97.09558 335.813264 100.264597 332.80627 
C 103.433615 329.799276 105.2142 325.720344 105.2142 321.467812 
C 105.2142 317.215281 103.433615 313.136349 100.264597 310.129355 
C 97.09558 307.122361 92.796867 305.432812 88.3152 305.432812 
C 83.833533 305.432812 79.53482 307.122361 76.365803 310.129355 
C 73.196785 313.136349 71.4162 317.215281 71.4162 321.467812 
C 71.4162 325.720344 73.196785 329.799276 76.365803 332.80627 
C 79.53482 335.813264 83.833533 337.502813 88.3152 337.502813 
z
" clip-path="url(#pb9664d302a)" style="fill: #e74c3c; opacity: 0.8; stroke: #e74c3c; stroke-width: 1.5; stroke-linejoin: miter"/>
   </g>
   <g id="patch_11">
    <path d="M 155.9112 337.502813 
C 160.392867 337.502813 164.69158 335.813264 167.860597 332.80627 
C 171.029615 329.799276 172.8102 325.720344 172.8102 321.467812 
C 172.8102 317.215281 171.029615 313.136349 167.860597 310.129355 
C 164.69158 307.122361 160.392867 305.432812 155.9112 305.432812 
C 151.429533 305.432812 147.13082 307.122361 143.961803 310.129355 
C 140.792785 313.136349 139.0122 317.215281 139.0122 321.467812 
C 139.0122 325.720344 140.792785 329.799276 143.961803 332.80627 
C 147.13082 335.813264 151.429533 337.502813 155.9112 337.502813 
z
" clip-path="url(#pb9664d302a)" style="fill: #e74c3c; opacity: 0.8; stroke: #e74c3c; stroke-width: 1.5; stroke-linejoin: miter"/>
   </g>
   <g id="patch_12">
    <path d="M 223.5072 337.502813 
C 227.988867 337.502813 232.28758 335.813264 235.456597 332.80627 
C 238.625615 329.799276 240.4062 325.720344 240.4062 321.467812 
C 240.4062 317.215281 238.625615 313.136349 235.456597 310.129355 
C 232.28758 307.122361 227.988867 305.432812 223.5072 305.432812 
C 219.025533 305.432812 214.72682 307.122361 211.557803 310.129355 
C 208.388785 313.136349 206.6082 317.215281 206.6082 321.467812 
C 206.6082 325.720344 208.388785 329.799276 211.557803 332.80627 
C 214.72682 335.813264 219.025533 337.502813 223.5072 337.502813 
z
" clip-path="url(#pb9664d302a)" style="fill: #e74c3c; opacity: 0.8; stroke: #e74c3c; stroke-width: 1.5; stroke-linejoin: miter"/>
   </g>
   <g id="patch_13">
    <path d="M 291.1032 337.502813 
C 295.584867 337.502813 299.88358 335.813264 303.052597 332.80627 
C 306.221615 329.799276 308.0022 325.720344 308.0022 321.467812 
C 308.0022 317.215281 306.221615 313.136349 303.052597 310.129355 
C 299.88358 307.122361 295.584867 305.432812 291.1032 305.432812 
C 286.621533 305.432812 282.32282 307.122361 279.153803 310.129355 
C 275.984785 313.136349 274.2042 317.215281 274.2042 321.467812 
C 274.2042 325.720344 275.984785 329.799276 279.153803 332.80627 
C 282.32282 335.813264 286.621533 337.502813 291.1032 337.502813 
z
" clip-path="url(#pb9664d302a)" style="fill: #e74c3c; opacity: 0.8; stroke: #e74c3c; stroke-width: 1.5; stroke-linejoin: miter"/>
   </g>
   <g id="patch_14">
    <path d="M 358.6992 337.502813 
C 363.180867 337.502813 367.47958 335.813264 370.648597 332.80627 
C 373.817615 329.799276 375.5982 325.720344 375.5982 321.467812 
C 375.5982 317.215281 373.817615 313.136349 370.648597 310.129355 
C 367.47958 307.122361 363.180867 305.432812 358.6992 305.432812 
C 354.217533 305.432812 349.91882 307.122361 346.749803 310.129355 
C 343.580785 313.136349 341.8002 317.215281 341.8002 321.467812 
C 341.8002 325.720344 343.580785 329.799276 346.749803 332.80627 
C 349.91882 335.813264 354.217533 337.502813 358.6992 337.502813 
z
" clip-path="url(#pb9664d302a)" style="fill: #e74c3c; opacity: 0.8; stroke: #e74c3c; stroke-width: 1.5; stroke-linejoin: miter"/>
   </g>
   <g id="patch_15">
    <path d="M 426.2952 337.502813 
C 430.776867 337.502813 435.07558 335.813264 438.244597 332.80627 
C 441.413615 329.799276 443.1942 325.720344 443.1942 321.467812 
C 443.1942 317.215281 441.413615 313.136349 438.244597 310.129355 
C 435.07558 307.122361 430.776867 305.432812 426.2952 305.432812 
C 421.813533 305.432812 417.51482 307.122361 414.345803 310.129355 
C 411.176785 313.136349 409.3962 317.215281 409.3962 321.467812 
C 409.3962 325.720344 411.176785 329.799276 414.345803 332.80627 
C 417.51482 335.813264 421.813533 337.502813 426.2952 337.502813 
z
" clip-path="url(#pb9664d302a)" style="fill: #e74c3c; opacity: 0.8; stroke: #e74c3c; stroke-width: 1.5; stroke-linejoin: miter"/>
   </g>
   <g id="patch_16">
    <path d="M 493.8912 337.502813 
C 498.372867 337.502813 502.67158 335.813264 505.840597 332.80627 
C 509.009615 329.799276 510.7902 325.720344 510.7902 321.467812 
C 510.7902 317.215281 509.009615 313.136349 505.840597 310.129355 
C 502.67158 307.122361 498.372867 305.432812 493.8912 305.432812 
C 489.409533 305.432812 485.11082 307.122361 481.941803 310.129355 
C 478.772785 313.136349 476.9922 317.215281 476.9922 321.467812 
C 476.9922 325.720344 478.772785 329.799276 481.941803 332.80627 
C 485.11082 335.813264 489.409533 337.502813 493.8912 337.502813 
z
" clip-path="url(#pb9664d302a)" style="fill: #e74c3c; opacity: 0.8; stroke: #e74c3c; stroke-width: 1.5; stroke-linejoin: miter"/>
   </g>
   <g id="patch_17">
    <path d="M 561.4872 337.502813 
C 565.968867 337.502813 570.26758 335.813264 573.436597 332.80627 
C 576.605615 329.799276 578.3862 325.720344 578.3862 321.467812 
C 578.3862 317.215281 576.605615 313.136349 573.436597 310.129355 
C 570.26758 307.122361 565.968867 305.432812 561.4872 305.432812 
C 557.005533 305.432812 552.70682 307.122361 549.537803 310.129355 
C 546.368785 313.136349 544.5882 317.215281 544.5882 321.467812 
C 544.5882 325.720344 546.368785 329.799276 549.537803 332.80627 
C 552.70682 335.813264 557.005533 337.502813 561.4872 337.502813 
z
" clip-path="url(#pb9664d302a)" style="fill: #e74c3c; opacity: 0.8; stroke: #e74c3c; stroke-width: 1.5; stroke-linejoin: miter"/>
   </g>
   <g id="line2d_1">
    <path d="M 81.5556 148.289812 
L 78.1758 212.429812 
" clip-path="url(#pb9664d302a)" style="fill: none; stroke: #f39c12; stroke-width: 2.5; stroke-linecap: square"/>
   </g>
   <g id="line2d_2">
    <path d="M 95.0748 148.289812 
L 98.4546 212.429812 
" clip-path="url(#pb9664d302a)" style="fill: none; stroke: #f39c12; stroke-width: 2.5; stroke-linecap: square"/>
   </g>
   <g id="line2d_3">
    <path d="M 149.1516 148.289812 
L 145.7718 212.429812 
" clip-path="url(#pb9664d302a)" style="fill: none; stroke: #f39c12; stroke-width: 2.5; stroke-linecap: square"/>
   </g>
   <g id="line2d_4">
    <path d="M 162.6708 148.289812 
L 166.0506 212.429812 
" clip-path="url(#pb9664d302a)" style="fill: none; stroke: #f39c12; stroke-width: 2.5; stroke-linecap: square"/>
   </g>
   <g id="line2d_5">
    <path d="M 216.7476 148.289812 
L 213.3678 212.429812 
" clip-path="url(#pb9664d302a)" style="fill: none; stroke: #f39c12; stroke-width: 2.5; stroke-linecap: square"/>
   </g>
   <g id="line2d_6">
    <path d="M 230.2668 148.289812 
L 233.6466 212.429812 
" clip-path="url(#pb9664d302a)" style="fill: none; stroke: #f39c12; stroke-width: 2.5; stroke-linecap: square"/>
   </g>
   <g id="line2d_7">
    <path d="M 284.3436 148.289812 
L 280.9638 212.429812 
" clip-path="url(#pb9664d302a)" style="fill: none; stroke: #f39c12; stroke-width: 2.5; stroke-linecap: square"/>
   </g>
   <g id="line2d_8">
    <path d="M 297.8628 148.289812 
L 301.2426 212.429812 
" clip-path="url(#pb9664d302a)" style="fill: none; stroke: #f39c12; stroke-width: 2.5; stroke-linecap: square"/>
   </g>
   <g id="line2d_9">
    <path d="M 351.9396 148.289812 
L 348.5598 212.429812 
" clip-path="url(#pb9664d302a)" style="fill: none; stroke: #f39c12; stroke-width: 2.5; stroke-linecap: square"/>
   </g>
   <g id="line2d_10">
    <path d="M 365.4588 148.289812 
L 368.8386 212.429812 
" clip-path="url(#pb9664d302a)" style="fill: none; stroke: #f39c12; stroke-width: 2.5; stroke-linecap: square"/>
   </g>
   <g id="line2d_11">
    <path d="M 419.5356 148.289812 
L 416.1558 212.429812 
" clip-path="url(#pb9664d302a)" style="fill: none; stroke: #f39c12; stroke-width: 2.5; stroke-linecap: square"/>
   </g>
   <g id="line2d_12">
    <path d="M 433.0548 148.289812 
L 436.4346 212.429812 
" clip-path="url(#pb9664d302a)" style="fill: none; stroke: #f39c12; stroke-width: 2.5; stroke-linecap: square"/>
   </g>
   <g id="line2d_13">
    <path d="M 487.1316 148.289812 
L 483.7518 212.429812 
" clip-path="url(#pb9664d302a)" style="fill: none; stroke: #f39c12; stroke-width: 2.5; stroke-linecap: square"/>
   </g>
   <g id="line2d_14">
    <path d="M 500.6508 148.289812 
L 504.0306 212.429812 
" clip-path="url(#pb9664d302a)" style="fill: none; stroke: #f39c12; stroke-width: 2.5; stroke-linecap: square"/>
   </g>
   <g id="line2d_15">
    <path d="M 554.7276 148.289812 
L 551.3478 212.429812 
" clip-path="url(#pb9664d302a)" style="fill: none; stroke: #f39c12; stroke-width: 2.5; stroke-linecap: square"/>
   </g>
   <g id="line2d_16">
    <path d="M 568.2468 148.289812 
L 571.6266 212.429812 
" clip-path="url(#pb9664d302a)" style="fill: none; stroke: #f39c12; stroke-width: 2.5; stroke-linecap: square"/>
   </g>
   <g id="line2d_17">
    <path d="M 81.5556 302.225812 
L 78.1758 238.085813 
" clip-path="url(#pb9664d302a)" style="fill: none; stroke: #f39c12; stroke-width: 2.5; stroke-linecap: square"/>
   </g>
   <g id="line2d_18">
    <path d="M 95.0748 302.225812 
L 98.4546 238.085813 
" clip-path="url(#pb9664d302a)" style="fill: none; stroke: #f39c12; stroke-width: 2.5; stroke-linecap: square"/>
   </g>
   <g id="line2d_19">
    <path d="M 149.1516 302.225812 
L 145.7718 238.085813 
" clip-path="url(#pb9664d302a)" style="fill: none; stroke: #f39c12; stroke-width: 2.5; stroke-linecap: square"/>
   </g>
   <g id="line2d_20">
    <path d="M 162.6708 302.225812 
L 166.0506 238.085813 
" clip-path="url(#pb9664d302a)" style="fill: none; stroke: #f39c12; stroke-width: 2.5; stroke-linecap: square"/>
   </g>
   <g id="line2d_21">
    <path d="M 216.7476 302.225812 
L 213.3678 238.085813 
" clip-path="url(#pb9664d302a)" style="fill: none; stroke: #f39c12; stroke-width: 2.5; stroke-linecap: square"/>
   </g>
   <g id="line2d_22">
    <path d="M 230.2668 302.225812 
L 233.6466 238.085813 
" clip-path="url(#pb9664d302a)" style="fill: none; stroke: #f39c12; stroke-width: 2.5; stroke-linecap: square"/>
   </g>
   <g id="line2d_23">
    <path d="M 284.3436 302.225812 
L 280.9638 238.085813 
" clip-path="url(#pb9664d302a)" style="fill: none; stroke: #f39c12; stroke-width: 2.5; stroke-linecap: square"/>
   </g>
   <g id="line2d_24">
    <path d="M 297.8628 302.225812 
L 301.2426 238.085813 
" clip-path="url(#pb9664d302a)" style="fill: none; stroke: #f39c12; stroke-width: 2.5; stroke-linecap: square"/>
   </g>
   <g id="line2d_25">
    <path d="M 351.9396 302.225812 
L 348.5598 238.085813 
" clip-path="url(#pb9664d302a)" style="fill: none; stroke: #f39c12; stroke-width: 2.5; stroke-linecap: square"/>
   </g>
   <g id="line2d_26">
    <path d="M 365.4588 302.225812 
L 368.8386 238.085813 
" clip-path="url(#pb9664d302a)" style="fill: none; stroke: #f39c12; stroke-width: 2.5; stroke-linecap: square"/>
   </g>
   <g id="line2d_27">
    <path d="M 419.5356 302.225812 
L 416.1558 238.085813 
" clip-path="url(#pb9664d302a)" style="fill: none; stroke: #f39c12; stroke-width: 2.5; stroke-linecap: square"/>
   </g>
   <g id="line2d_28">
    <path d="M 433.0548 302.225812 
L 436.4346 238.085813 
" clip-path="url(#pb9664d302a)" style="fill: none; stroke: #f39c12; stroke-width: 2.5; stroke-linecap: square"/>
   </g>
   <g id="line2d_29">
    <path d="M 487.1316 302.225812 
L 483.7518 238.085813 
" clip-path="url(#pb9664d302a)" style="fill: none; stroke: #f39c12; stroke-width: 2.5; stroke-linecap: square"/>
   </g>
   <g id="line2d_30">
    <path d="M 500.6508 302.225812 
L 504.0306 238.085813 
" clip-path="url(#pb9664d302a)" style="fill: none; stroke: #f39c12; stroke-width: 2.5; stroke-linecap: square"/>
   </g>
   <g id="line2d_31">
    <path d="M 554.7276 302.225812 
L 551.3478 238.085813 
" clip-path="url(#pb9664d302a)" style="fill: none; stroke: #f39c12; stroke-width: 2.5; stroke-linecap: square"/>
   </g>
   <g id="line2d_32">
    <path d="M 568.2468 302.225812 
L 571.6266 238.085813 
" clip-path="url(#pb9664d302a)" style="fill: none; stroke: #f39c12; stroke-width: 2.5; stroke-linecap: square"/>
   </g>
   <g id="text_1">
    <!-- Hydrophilic -->
    <g style="fill: #e74c3c" transform="translate(649.362 126.776188) scale(0.08 -0.08)">
     <defs>
      <path id="DejaVuSans-48" d="M 628 4666 
L 1259 4666 
L 1259 2753 
L 3553 2753 
L 3553 4666 
L 4184 4666 
L 4184 0 
L 3553 0 
L 3553 2222 
L 1259 2222 
L 1259 0 
L 628 0 
L 628 4666 
z
" transform="scale(0.015625)"/>
      <path id="DejaVuSans-79" d="M 2059 -325 
Q 1816 -950 1584 -1140 
Q 1353 -1331 966 -1331 
L 506 -1331 
L 506 -850 
L 844 -850 
Q 1081 -850 1212 -737 
Q 1344 -625 1503 -206 
L 1606 56 
L 191 3500 
L 800 3500 
L 1894 763 
L 2988 3500 
L 3597 3500 
L 2059 -325 
z
" transform="scale(0.015625)"/>
      <path id="DejaVuSans-64" d="M 2906 2969 
L 2906 4863 
L 3481 4863 
L 3481 0 
L 2906 0 
L 2906 525 
Q 2725 213 2448 61 
Q 2172 -91 1784 -91 
Q 1150 -91 751 415 
Q 353 922 353 1747 
Q 353 2572 751 3078 
Q 1150 3584 1784 3584 
Q 2172 3584 2448 3432 
Q 2725 3281 2906 2969 
z
M 947 1747 
Q 947 1113 1208 752 
Q 1469 391 1925 391 
Q 2381 391 2643 752 
Q 2906 1113 2906 1747 
Q 2906 2381 2643 2742 
Q 2381 3103 1925 3103 
Q 1469 3103 1208 2742 
Q 947 2381 947 1747 
z
" transform="scale(0.015625)"/>
      <path id="DejaVuSans-72" d="M 2631 2963 
Q 2534 3019 2420 3045 
Q 2306 3072 2169 3072 
Q 1681 3072 1420 2755 
Q 1159 2438 1159 1844 
L 1159 0 
L 581 0 
L 581 3500 
L 1159 3500 
L 1159 2956 
Q 1341 3275 1631 3429 
Q 1922 3584 2338 3584 
Q 2397 3584 2469 3576 
Q 2541 3569 2628 3553 
L 2631 2963 
z
" transform="scale(0.015625)"/>
      <path id="DejaVuSans-6f" d="M 1959 3097 
Q 1497 3097 1228 2736 
Q 959 2375 959 1747 
Q 959 1119 1226 758 
Q 1494 397 1959 397 
Q 2419 397 2687 759 
Q 2956 1122 2956 1747 
Q 2956 2369 2687 2733 
Q 2419 3097 1959 3097 
z
M 1959 3584 
Q 2709 3584 3137 3096 
Q 3566 2609 3566 1747 
Q 3566 888 3137 398 
Q 2709 -91 1959 -91 
Q 1206 -91 779 398 
Q 353 888 353 1747 
Q 353 2609 779 3096 
Q 1206 3584 1959 3584 
z
" transform="scale(0.015625)"/>
      <path id="DejaVuSans-70" d="M 1159 525 
L 1159 -1331 
L 581 -1331 
L 581 3500 
L 1159 3500 
L 1159 2969 
Q 1341 3281 1617 3432 
Q 1894 3584 2278 3584 
Q 2916 3584 3314 3078 
Q 3713 2572 3713 1747 
Q 3713 922 3314 415 
Q 2916 -91 2278 -91 
Q 1894 -91 1617 61 
Q 1341 213 1159 525 
z
M 3116 1747 
Q 3116 2381 2855 2742 
Q 2594 3103 2138 3103 
Q 1681 3103 1420 2742 
Q 1159 2381 1159 1747 
Q 1159 1113 1420 752 
Q 1681 391 2138 391 
Q 2594 391 2855 752 
Q 3116 1113 3116 1747 
z
" transform="scale(0.015625)"/>
      <path id="DejaVuSans-68" d="M 3513 2113 
L 3513 0 
L 2938 0 
L 2938 2094 
Q 2938 2591 2744 2837 
Q 2550 3084 2163 3084 
Q 1697 3084 1428 2787 
Q 1159 2491 1159 1978 
L 1159 0 
L 581 0 
L 581 4863 
L 1159 4863 
L 1159 2956 
Q 1366 3272 1645 3428 
Q 1925 3584 2291 3584 
Q 2894 3584 3203 3211 
Q 3513 2838 3513 2113 
z
" transform="scale(0.015625)"/>
      <path id="DejaVuSans-69" d="M 603 3500 
L 1178 3500 
L 1178 0 
L 603 0 
L 603 3500 
z
M 603 4863 
L 1178 4863 
L 1178 4134 
L 603 4134 
L 603 4863 
z
" transform="scale(0.015625)"/>
      <path id="DejaVuSans-6c" d="M 603 4863 
L 1178 4863 
L 1178 0 
L 603 0 
L 603 4863 
z
" transform="scale(0.015625)"/>
      <path id="DejaVuSans-63" d="M 3122 3366 
L 3122 2828 
Q 2878 2963 2633 3030 
Q 2388 3097 2138 3097 
Q 1578 3097 1268 2742 
Q 959 2388 959 1747 
Q 959 1106 1268 751 
Q 1578 397 2138 397 
Q 2388 397 2633 464 
Q 2878 531 3122 666 
L 3122 134 
Q 2881 22 2623 -34 
Q 2366 -91 2075 -91 
Q 1284 -91 818 406 
Q 353 903 353 1747 
Q 353 2603 823 3093 
Q 1294 3584 2113 3584 
Q 2378 3584 2631 3529 
Q 2884 3475 3122 3366 
z
" transform="scale(0.015625)"/>
     </defs>
     <use xlink:href="#DejaVuSans-48"/>
     <use xlink:href="#DejaVuSans-79" transform="translate(75.195312 0)"/>
     <use xlink:href="#DejaVuSans-64" transform="translate(134.375 0)"/>
     <use xlink:href="#DejaVuSans-72" transform="translate(197.851562 0)"/>
     <use xlink:href="#DejaVuSans-6f" transform="translate(236.714844 0)"/>
     <use xlink:href="#DejaVuSans-70" transform="translate(297.896484 0)"/>
     <use xlink:href="#DejaVuSans-68" transform="translate(361.373047 0)"/>
     <use xlink:href="#DejaVuSans-69" transform="translate(424.751953 0)"/>
     <use xlink:href="#DejaVuSans-6c" transform="translate(452.535156 0)"/>
     <use xlink:href="#DejaVuSans-69" transform="translate(480.318359 0)"/>
     <use xlink:href="#DejaVuSans-63" transform="translate(508.101562 0)"/>
    </g>
    <!-- heads -->
    <g style="fill: #e74c3c" transform="translate(649.362 135.734438) scale(0.08 -0.08)">
     <defs>
      <path id="DejaVuSans-65" d="M 3597 1894 
L 3597 1613 
L 953 1613 
Q 991 1019 1311 708 
Q 1631 397 2203 397 
Q 2534 397 2845 478 
Q 3156 559 3463 722 
L 3463 178 
Q 3153 47 2828 -22 
Q 2503 -91 2169 -91 
Q 1331 -91 842 396 
Q 353 884 353 1716 
Q 353 2575 817 3079 
Q 1281 3584 2069 3584 
Q 2775 3584 3186 3129 
Q 3597 2675 3597 1894 
z
M 3022 2063 
Q 3016 2534 2758 2815 
Q 2500 3097 2075 3097 
Q 1594 3097 1305 2825 
Q 1016 2553 972 2059 
L 3022 2063 
z
" transform="scale(0.015625)"/>
      <path id="DejaVuSans-61" d="M 2194 1759 
Q 1497 1759 1228 1600 
Q 959 1441 959 1056 
Q 959 750 1161 570 
Q 1363 391 1709 391 
Q 2188 391 2477 730 
Q 2766 1069 2766 1631 
L 2766 1759 
L 2194 1759 
z
M 3341 1997 
L 3341 0 
L 2766 0 
L 2766 531 
Q 2569 213 2275 61 
Q 1981 -91 1556 -91 
Q 1019 -91 701 211 
Q 384 513 384 1019 
Q 384 1609 779 1909 
Q 1175 2209 1959 2209 
L 2766 2209 
L 2766 2266 
Q 2766 2663 2505 2880 
Q 2244 3097 1772 3097 
Q 1472 3097 1187 3025 
Q 903 2953 641 2809 
L 641 3341 
Q 956 3463 1253 3523 
Q 1550 3584 1831 3584 
Q 2591 3584 2966 3190 
Q 3341 2797 3341 1997 
z
" transform="scale(0.015625)"/>
      <path id="DejaVuSans-73" d="M 2834 3397 
L 2834 2853 
Q 2591 2978 2328 3040 
Q 2066 3103 1784 3103 
Q 1356 3103 1142 2972 
Q 928 2841 928 2578 
Q 928 2378 1081 2264 
Q 1234 2150 1697 2047 
L 1894 2003 
Q 2506 1872 2764 1633 
Q 3022 1394 3022 966 
Q 3022 478 2636 193 
Q 2250 -91 1575 -91 
Q 1294 -91 989 -36 
Q 684 19 347 128 
L 347 722 
Q 666 556 975 473 
Q 1284 391 1588 391 
Q 1994 391 2212 530 
Q 2431 669 2431 922 
Q 2431 1156 2273 1281 
Q 2116 1406 1581 1522 
L 1381 1569 
Q 847 1681 609 1914 
Q 372 2147 372 2553 
Q 372 3047 722 3315 
Q 1072 3584 1716 3584 
Q 2034 3584 2315 3537 
Q 2597 3491 2834 3397 
z
" transform="scale(0.015625)"/>
     </defs>
     <use xlink:href="#DejaVuSans-68"/>
     <use xlink:href="#DejaVuSans-65" transform="translate(63.378906 0)"/>
     <use xlink:href="#DejaVuSans-61" transform="translate(124.902344 0)"/>
     <use xlink:href="#DejaVuSans-64" transform="translate(186.181641 0)"/>
     <use xlink:href="#DejaVuSans-73" transform="translate(249.658203 0)"/>
    </g>
   </g>
   <g id="text_2">
    <!-- Hydrophobic -->
    <g style="fill: #f39c12" transform="translate(649.362 222.986187) scale(0.08 -0.08)">
     <defs>
      <path id="DejaVuSans-62" d="M 3116 1747 
Q 3116 2381 2855 2742 
Q 2594 3103 2138 3103 
Q 1681 3103 1420 2742 
Q 1159 2381 1159 1747 
Q 1159 1113 1420 752 
Q 1681 391 2138 391 
Q 2594 391 2855 752 
Q 3116 1113 3116 1747 
z
M 1159 2969 
Q 1341 3281 1617 3432 
Q 1894 3584 2278 3584 
Q 2916 3584 3314 3078 
Q 3713 2572 3713 1747 
Q 3713 922 3314 415 
Q 2916 -91 2278 -91 
Q 1894 -91 1617 61 
Q 1341 213 1159 525 
L 1159 0 
L 581 0 
L 581 4863 
L 1159 4863 
L 1159 2969 
z
" transform="scale(0.015625)"/>
     </defs>
     <use xlink:href="#DejaVuSans-48"/>
     <use xlink:href="#DejaVuSans-79" transform="translate(75.195312 0)"/>
     <use xlink:href="#DejaVuSans-64" transform="translate(134.375 0)"/>
     <use xlink:href="#DejaVuSans-72" transform="translate(197.851562 0)"/>
     <use xlink:href="#DejaVuSans-6f" transform="translate(236.714844 0)"/>
     <use xlink:href="#DejaVuSans-70" transform="translate(297.896484 0)"/>
     <use xlink:href="#DejaVuSans-68" transform="translate(361.373047 0)"/>
     <use xlink:href="#DejaVuSans-6f" transform="translate(424.751953 0)"/>
     <use xlink:href="#DejaVuSans-62" transform="translate(485.933594 0)"/>
     <use xlink:href="#DejaVuSans-69" transform="translate(549.410156 0)"/>
     <use xlink:href="#DejaVuSans-63" transform="translate(577.193359 0)"/>
    </g>
    <!-- tails -->
    <g style="fill: #f39c12" transform="translate(649.362 231.944437) scale(0.08 -0.08)">
     <defs>
      <path id="DejaVuSans-74" d="M 1172 4494 
L 1172 3500 
L 2356 3500 
L 2356 3053 
L 1172 3053 
L 1172 1153 
Q 1172 725 1289 603 
Q 1406 481 1766 481 
L 2356 481 
L 2356 0 
L 1766 0 
Q 1100 0 847 248 
Q 594 497 594 1153 
L 594 3053 
L 172 3053 
L 172 3500 
L 594 3500 
L 594 4494 
L 1172 4494 
z
" transform="scale(0.015625)"/>
     </defs>
     <use xlink:href="#DejaVuSans-74"/>
     <use xlink:href="#DejaVuSans-61" transform="translate(39.208984 0)"/>
     <use xlink:href="#DejaVuSans-69" transform="translate(100.488281 0)"/>
     <use xlink:href="#DejaVuSans-6c" transform="translate(128.271484 0)"/>
     <use xlink:href="#DejaVuSans-73" transform="translate(156.054688 0)"/>
    </g>
   </g>
   <g id="text_3">
    <!-- Hydrophilic -->
    <g style="fill: #e74c3c" transform="translate(649.362 319.196187) scale(0.08 -0.08)">
     <use xlink:href="#DejaVuSans-48"/>
     <use xlink:href="#DejaVuSans-79" transform="translate(75.195312 0)"/>
     <use xlink:href="#DejaVuSans-64" transform="translate(134.375 0)"/>
     <use xlink:href="#DejaVuSans-72" transform="translate(197.851562 0)"/>
     <use xlink:href="#DejaVuSans-6f" transform="translate(236.714844 0)"/>
     <use xlink:href="#DejaVuSans-70" transform="translate(297.896484 0)"/>
     <use xlink:href="#DejaVuSans-68" transform="translate(361.373047 0)"/>
     <use xlink:href="#DejaVuSans-69" transform="translate(424.751953 0)"/>
     <use xlink:href="#DejaVuSans-6c" transform="translate(452.535156 0)"/>
     <use xlink:href="#DejaVuSans-69" transform="translate(480.318359 0)"/>
     <use xlink:href="#DejaVuSans-63" transform="translate(508.101562 0)"/>
    </g>
    <!-- heads -->
    <g style="fill: #e74c3c" transform="translate(649.362 328.154437) scale(0.08 -0.08)">
     <use xlink:href="#DejaVuSans-68"/>
     <use xlink:href="#DejaVuSans-65" transform="translate(63.378906 0)"/>
     <use xlink:href="#DejaVuSans-61" transform="translate(124.902344 0)"/>
     <use xlink:href="#DejaVuSans-64" transform="translate(186.181641 0)"/>
     <use xlink:href="#DejaVuSans-73" transform="translate(249.658203 0)"/>
    </g>
   </g>
   <g id="text_4">
    <!-- H₂O -->
    <g style="fill: #3498db" transform="translate(27.4788 96.977813) scale(0.08 -0.08)">
     <defs>
      <path id="DejaVuSans-2082" d="M 838 332 
L 2163 332 
L 2163 -24 
L 294 -24 
L 294 319 
Q 400 416 597 591 
Q 1672 1544 1672 1838 
Q 1672 2044 1509 2170 
Q 1347 2297 1081 2297 
Q 919 2297 728 2242 
Q 538 2188 313 2079 
L 313 2463 
Q 553 2551 761 2594 
Q 969 2638 1147 2638 
Q 1600 2638 1872 2432 
Q 2144 2226 2144 1888 
Q 2144 1454 1109 566 
Q 934 416 838 332 
z
" transform="scale(0.015625)"/>
      <path id="DejaVuSans-4f" d="M 2522 4238 
Q 1834 4238 1429 3725 
Q 1025 3213 1025 2328 
Q 1025 1447 1429 934 
Q 1834 422 2522 422 
Q 3209 422 3611 934 
Q 4013 1447 4013 2328 
Q 4013 3213 3611 3725 
Q 3209 4238 2522 4238 
z
M 2522 4750 
Q 3503 4750 4090 4092 
Q 4678 3434 4678 2328 
Q 4678 1225 4090 567 
Q 3503 -91 2522 -91 
Q 1538 -91 948 565 
Q 359 1222 359 2328 
Q 359 3434 948 4092 
Q 1538 4750 2522 4750 
z
" transform="scale(0.015625)"/>
     </defs>
     <use xlink:href="#DejaVuSans-48"/>
     <use xlink:href="#DejaVuSans-2082" transform="translate(75.195312 0)"/>
     <use xlink:href="#DejaVuSans-4f" transform="translate(115.283203 0)"/>
    </g>
   </g>
   <g id="text_5">
    <!-- H₂O -->
    <g style="fill: #3498db" transform="translate(27.4788 366.365812) scale(0.08 -0.08)">
     <use xlink:href="#DejaVuSans-48"/>
     <use xlink:href="#DejaVuSans-2082" transform="translate(75.195312 0)"/>
     <use xlink:href="#DejaVuSans-4f" transform="translate(115.283203 0)"/>
    </g>
   </g>
   <g id="text_6">
    <!-- Interior -->
    <g style="fill: #95a5a6" transform="translate(27.4788 225.257812) scale(0.08 -0.08)">
     <defs>
      <path id="DejaVuSans-49" d="M 628 4666 
L 1259 4666 
L 1259 0 
L 628 0 
L 628 4666 
z
" transform="scale(0.015625)"/>
      <path id="DejaVuSans-6e" d="M 3513 2113 
L 3513 0 
L 2938 0 
L 2938 2094 
Q 2938 2591 2744 2837 
Q 2550 3084 2163 3084 
Q 1697 3084 1428 2787 
Q 1159 2491 1159 1978 
L 1159 0 
L 581 0 
L 581 3500 
L 1159 3500 
L 1159 2956 
Q 1366 3272 1645 3428 
Q 1925 3584 2291 3584 
Q 2894 3584 3203 3211 
Q 3513 2838 3513 2113 
z
" transform="scale(0.015625)"/>
     </defs>
     <use xlink:href="#DejaVuSans-49"/>
     <use xlink:href="#DejaVuSans-6e" transform="translate(29.492188 0)"/>
     <use xlink:href="#DejaVuSans-74" transform="translate(92.871094 0)"/>
     <use xlink:href="#DejaVuSans-65" transform="translate(132.080078 0)"/>
     <use xlink:href="#DejaVuSans-72" transform="translate(193.603516 0)"/>
     <use xlink:href="#DejaVuSans-69" transform="translate(234.716797 0)"/>
     <use xlink:href="#DejaVuSans-6f" transform="translate(262.5 0)"/>
     <use xlink:href="#DejaVuSans-72" transform="translate(323.681641 0)"/>
    </g>
   </g>
   <g id="text_7">
    <!-- Lipid Bilayer (Cell Membrane) -->
    <g transform="translate(241.452031 17.837812) scale(0.14 -0.14)">
     <defs>
      <path id="DejaVuSans-4c" d="M 628 4666 
L 1259 4666 
L 1259 531 
L 3531 531 
L 3531 0 
L 628 0 
L 628 4666 
z
" transform="scale(0.015625)"/>
      <path id="DejaVuSans-20" transform="scale(0.015625)"/>
      <path id="DejaVuSans-42" d="M 1259 2228 
L 1259 519 
L 2272 519 
Q 2781 519 3026 730 
Q 3272 941 3272 1375 
Q 3272 1813 3026 2020 
Q 2781 2228 2272 2228 
L 1259 2228 
z
M 1259 4147 
L 1259 2741 
L 2194 2741 
Q 2656 2741 2882 2914 
Q 3109 3088 3109 3444 
Q 3109 3797 2882 3972 
Q 2656 4147 2194 4147 
L 1259 4147 
z
M 628 4666 
L 2241 4666 
Q 2963 4666 3353 4366 
Q 3744 4066 3744 3513 
Q 3744 3084 3544 2831 
Q 3344 2578 2956 2516 
Q 3422 2416 3680 2098 
Q 3938 1781 3938 1306 
Q 3938 681 3513 340 
Q 3088 0 2303 0 
L 628 0 
L 628 4666 
z
" transform="scale(0.015625)"/>
      <path id="DejaVuSans-28" d="M 1984 4856 
Q 1566 4138 1362 3434 
Q 1159 2731 1159 2009 
Q 1159 1288 1364 580 
Q 1569 -128 1984 -844 
L 1484 -844 
Q 1016 -109 783 600 
Q 550 1309 550 2009 
Q 550 2706 781 3412 
Q 1013 4119 1484 4856 
L 1984 4856 
z
" transform="scale(0.015625)"/>
      <path id="DejaVuSans-43" d="M 4122 4306 
L 4122 3641 
Q 3803 3938 3442 4084 
Q 3081 4231 2675 4231 
Q 1875 4231 1450 3742 
Q 1025 3253 1025 2328 
Q 1025 1406 1450 917 
Q 1875 428 2675 428 
Q 3081 428 3442 575 
Q 3803 722 4122 1019 
L 4122 359 
Q 3791 134 3420 21 
Q 3050 -91 2638 -91 
Q 1578 -91 968 557 
Q 359 1206 359 2328 
Q 359 3453 968 4101 
Q 1578 4750 2638 4750 
Q 3056 4750 3426 4639 
Q 3797 4528 4122 4306 
z
" transform="scale(0.015625)"/>
      <path id="DejaVuSans-4d" d="M 628 4666 
L 1569 4666 
L 2759 1491 
L 3956 4666 
L 4897 4666 
L 4897 0 
L 4281 0 
L 4281 4097 
L 3078 897 
L 2444 897 
L 1241 4097 
L 1241 0 
L 628 0 
L 628 4666 
z
" transform="scale(0.015625)"/>
      <path id="DejaVuSans-6d" d="M 3328 2828 
Q 3544 3216 3844 3400 
Q 4144 3584 4550 3584 
Q 5097 3584 5394 3201 
Q 5691 2819 5691 2113 
L 5691 0 
L 5113 0 
L 5113 2094 
Q 5113 2597 4934 2840 
Q 4756 3084 4391 3084 
Q 3944 3084 3684 2787 
Q 3425 2491 3425 1978 
L 3425 0 
L 2847 0 
L 2847 2094 
Q 2847 2600 2669 2842 
Q 2491 3084 2119 3084 
Q 1678 3084 1418 2786 
Q 1159 2488 1159 1978 
L 1159 0 
L 581 0 
L 581 3500 
L 1159 3500 
L 1159 2956 
Q 1356 3278 1631 3431 
Q 1906 3584 2284 3584 
Q 2666 3584 2933 3390 
Q 3200 3197 3328 2828 
z
" transform="scale(0.015625)"/>
      <path id="DejaVuSans-29" d="M 513 4856 
L 1013 4856 
Q 1481 4119 1714 3412 
Q 1947 2706 1947 2009 
Q 1947 1309 1714 600 
Q 1481 -109 1013 -844 
L 513 -844 
Q 928 -128 1133 580 
Q 1338 1288 1338 2009 
Q 1338 2731 1133 3434 
Q 928 4138 513 4856 
z
" transform="scale(0.015625)"/>
     </defs>
     <use xlink:href="#DejaVuSans-4c"/>
     <use xlink:href="#DejaVuSans-69" transform="translate(55.712891 0)"/>
     <use xlink:href="#DejaVuSans-70" transform="translate(83.496094 0)"/>
     <use xlink:href="#DejaVuSans-69" transform="translate(146.972656 0)"/>
     <use xlink:href="#DejaVuSans-64" transform="translate(174.755859 0)"/>
     <use xlink:href="#DejaVuSans-20" transform="translate(238.232422 0)"/>
     <use xlink:href="#DejaVuSans-42" transform="translate(270.019531 0)"/>
     <use xlink:href="#DejaVuSans-69" transform="translate(338.623047 0)"/>
     <use xlink:href="#DejaVuSans-6c" transform="translate(366.40625 0)"/>
     <use xlink:href="#DejaVuSans-61" transform="translate(394.189453 0)"/>
     <use xlink:href="#DejaVuSans-79" transform="translate(455.46875 0)"/>
     <use xlink:href="#DejaVuSans-65" transform="translate(514.648438 0)"/>
     <use xlink:href="#DejaVuSans-72" transform="translate(576.171875 0)"/>
     <use xlink:href="#DejaVuSans-20" transform="translate(617.285156 0)"/>
     <use xlink:href="#DejaVuSans-28" transform="translate(649.072266 0)"/>
     <use xlink:href="#DejaVuSans-43" transform="translate(688.085938 0)"/>
     <use xlink:href="#DejaVuSans-65" transform="translate(757.910156 0)"/>
     <use xlink:href="#DejaVuSans-6c" transform="translate(819.433594 0)"/>
     <use xlink:href="#DejaVuSans-6c" transform="translate(847.216797 0)"/>
     <use xlink:href="#DejaVuSans-20" transform="translate(875 0)"/>
     <use xlink:href="#DejaVuSans-4d" transform="translate(906.787109 0)"/>
     <use xlink:href="#DejaVuSans-65" transform="translate(993.066406 0)"/>
     <use xlink:href="#DejaVuSans-6d" transform="translate(1054.589844 0)"/>
     <use xlink:href="#DejaVuSans-62" transform="translate(1152.001953 0)"/>
     <use xlink:href="#DejaVuSans-72" transform="translate(1215.478516 0)"/>
     <use xlink:href="#DejaVuSans-61" transform="translate(1256.591797 0)"/>
     <use xlink:href="#DejaVuSans-6e" transform="translate(1317.871094 0)"/>
     <use xlink:href="#DejaVuSans-65" transform="translate(1381.25 0)"/>
     <use xlink:href="#DejaVuSans-29" transform="translate(1442.773438 0)"/>
    </g>
   </g>
  </g>
 </g>
 <defs>
  <clipPath id="pb9664d302a">
   <rect x="7.2" y="32.837812" width="675.96" height="384.84"/>
  </clipPath>
 </defs>
</svg>
