<?xml version="1.0" encoding="utf-8" standalone="no"?>
<!DOCTYPE svg PUBLIC "-//W3C//DTD SVG 1.1//EN"
  "http://www.w3.org/Graphics/SVG/1.1/DTD/svg11.dtd">
<svg xmlns:xlink="http://www.w3.org/1999/xlink" width="562.5575pt" height="424.965312pt" viewBox="0 0 562.5575 424.965312" xmlns="http://www.w3.org/2000/svg" version="1.1">
 <metadata>
  <rdf:RDF xmlns:dc="http://purl.org/dc/elements/1.1/" xmlns:cc="http://creativecommons.org/ns#" xmlns:rdf="http://www.w3.org/1999/02/22-rdf-syntax-ns#">
   <cc:Work>
    <dc:type rdf:resource="http://purl.org/dc/dcmitype/StillImage"/>
    <dc:date>2026-01-02T16:05:21.478123</dc:date>
    <dc:format>image/svg+xml</dc:format>
    <dc:creator>
     <cc:Agent>
      <dc:title>Matplotlib v3.10.8, https://matplotlib.org/</dc:title>
     </cc:Agent>
    </dc:creator>
   </cc:Work>
  </rdf:RDF>
 </metadata>
 <defs>
  <style type="text/css">*{stroke-linejoin: round; stroke-linecap: butt}</style>
 </defs>
 <g id="figure_1">
  <g id="patch_1">
   <path d="M 0 424.965312 
L 562.5575 424.965312 
L 562.5575 0 
L 0 0 
z
" style="fill: #ffffff"/>
  </g>
  <g id="axes_1">
   <g id="line2d_1">
    <path d="M 75.675 129.135312 
L 109.9125 129.135312 
L 144.15 129.135312 
L 178.3875 129.135312 
L 212.625 129.135312 
L 246.8625 129.135312 
L 281.1 129.135312 
L 315.3375 129.135312 
L 349.575 129.135312 
L 383.8125 129.135312 
L 418.05 129.135312 
L 452.2875 129.135312 
L 486.525 129.135312 
" clip-path="url(#pf618a44caa)" style="fill: none; stroke: #e74c3c; stroke-opacity: 0.8; stroke-width: 2.5; stroke-linecap: square"/>
   </g>
   <g id="line2d_2">
    <path d="M 75.675 225.345312 
L 109.9125 225.345312 
L 144.15 225.345312 
L 178.3875 225.345312 
L 212.625 225.345312 
L 246.8625 225.345312 
L 281.1 225.345312 
L 315.3375 225.345312 
L 349.575 225.345312 
L 383.8125 225.345312 
L 418.05 225.345312 
L 452.2875 225.345312 
L 486.525 225.345312 
" clip-path="url(#pf618a44caa)" style="fill: none; stroke: #e74c3c; stroke-opacity: 0.8; stroke-width: 2.5; stroke-linecap: square"/>
   </g>
   <g id="line2d_3">
    <path d="M 75.675 321.555312 
L 109.9125 321.555312 
L 144.15 321.555312 
L 178.3875 321.555312 
L 212.625 321.555312 
L 246.8625 321.555312 
L 281.1 321.555312 
L 315.3375 321.555312 
L 349.575 321.555312 
L 383.8125 321.555312 
L 418.05 321.555312 
L 452.2875 321.555312 
L 486.525 321.555312 
" clip-path="url(#pf618a44caa)" style="fill: none; stroke: #e74c3c; stroke-opacity: 0.8; stroke-width: 2.5; stroke-linecap: square"/>
   </g>
   <g id="line2d_4">
    <path d="M 109.9125 141.963312 
L 109.9125 212.517312 
" clip-path="url(#pf618a44caa)" style="fill: none; stroke-dasharray: 3.7,1.6; stroke-dashoffset: 0; stroke: #f39c12; stroke-opacity: 0.6"/>
   </g>
   <g id="line2d_5">
    <path d="M 109.9125 238.173312 
L 109.9125 308.727312 
" clip-path="url(#pf618a44caa)" style="fill: none; stroke-dasharray: 3.7,1.6; stroke-dashoffset: 0; stroke: #f39c12; stroke-opacity: 0.6"/>
   </g>
   <g id="line2d_6">
    <path d="M 178.3875 141.963312 
L 178.3875 212.517312 
" clip-path="url(#pf618a44caa)" style="fill: none; stroke-dasharray: 3.7,1.6; stroke-dashoffset: 0; stroke: #f39c12; stroke-opacity: 0.6"/>
   </g>
   <g id="line2d_7">
    <path d="M 178.3875 238.173312 
L 178.3875 308.727312 
" clip-path="url(#pf618a44caa)" style="fill: none; stroke-dasharray: 3.7,1.6; stroke-dashoffset: 0; stroke: #f39c12; stroke-opacity: 0.6"/>
   </g>
   <g id="line2d_8">
    <path d="M 246.8625 141.963312 
L 246.8625 212.517312 
" clip-path="url(#pf618a44caa)" style="fill: none; stroke-dasharray: 3.7,1.6; stroke-dashoffset: 0; stroke: #f39c12; stroke-opacity: 0.6"/>
   </g>
   <g id="line2d_9">
    <path d="M 246.8625 238.173312 
L 246.8625 308.727312 
" clip-path="url(#pf618a44caa)" style="fill: none; stroke-dasharray: 3.7,1.6; stroke-dashoffset: 0; stroke: #f39c12; stroke-opacity: 0.6"/>
   </g>
   <g id="line2d_10">
    <path d="M 315.3375 141.963312 
L 315.3375 212.517312 
" clip-path="url(#pf618a44caa)" style="fill: none; stroke-dasharray: 3.7,1.6; stroke-dashoffset: 0; stroke: #f39c12; stroke-opacity: 0.6"/>
   </g>
   <g id="line2d_11">
    <path d="M 315.3375 238.173312 
L 315.3375 308.727312 
" clip-path="url(#pf618a44caa)" style="fill: none; stroke-dasharray: 3.7,1.6; stroke-dashoffset: 0; stroke: #f39c12; stroke-opacity: 0.6"/>
   </g>
   <g id="line2d_12">
    <path d="M 383.8125 141.963312 
L 383.8125 212.517312 
" clip-path="url(#pf618a44caa)" style="fill: none; stroke-dasharray: 3.7,1.6; stroke-dashoffset: 0; stroke: #f39c12; stroke-opacity: 0.6"/>
   </g>
   <g id="line2d_13">
    <path d="M 383.8125 238.173312 
L 383.8125 308.727312 
" clip-path="url(#pf618a44caa)" style="fill: none; stroke-dasharray: 3.7,1.6; stroke-dashoffset: 0; stroke: #f39c12; stroke-opacity: 0.6"/>
   </g>
   <g id="line2d_14">
    <path d="M 452.2875 141.963312 
L 452.2875 212.517312 
" clip-path="url(#pf618a44caa)" style="fill: none; stroke-dasharray: 3.7,1.6; stroke-dashoffset: 0; stroke: #f39c12; stroke-opacity: 0.6"/>
   </g>
   <g id="line2d_15">
    <path d="M 452.2875 238.173312 
L 452.2875 308.727312 
" clip-path="url(#pf618a44caa)" style="fill: none; stroke-dasharray: 3.7,1.6; stroke-dashoffset: 0; stroke: #f39c12; stroke-opacity: 0.6"/>
   </g>
   <g id="patch_2">
    <path d="M 454.285663 129.135312 
Q 476.253345 129.135312 497.102992 129.135312 
" style="fill: none; stroke: #e74c3c; stroke-linecap: round"/>
    <path d="M 493.102992 127.135312 
L 497.102992 129.135312 
L 493.102992 131.135312 
" style="fill: none; stroke: #e74c3c; stroke-linecap: round"/>
   </g>
   <g id="patch_3">
    <path d="M 121.609337 225.345312 
Q 99.641655 225.345312 78.792008 225.345312 
" style="fill: none; stroke: #e74c3c; stroke-linecap: round"/>
    <path d="M 82.792008 227.345312 
L 78.792008 225.345312 
L 82.792008 223.345312 
" style="fill: none; stroke: #e74c3c; stroke-linecap: round"/>
   </g>
   <g id="patch_4">
    <path d="M 454.285663 321.555312 
Q 476.253345 321.555312 497.102992 321.555312 
" style="fill: none; stroke: #e74c3c; stroke-linecap: round"/>
    <path d="M 493.102992 319.555312 
L 497.102992 321.555312 
L 493.102992 323.555312 
" style="fill: none; stroke: #e74c3c; stroke-linecap: round"/>
   </g>
   <g id="text_1">
    <!-- H-bonds -->
    <g style="fill: #f39c12" transform="translate(520.7625 207.428812) scale(0.08 -0.08)">
     <defs>
      <path id="DejaVuSans-48" d="M 628 4666 
L 1259 4666 
L 1259 2753 
L 3553 2753 
L 3553 4666 
L 4184 4666 
L 4184 0 
L 3553 0 
L 3553 2222 
L 1259 2222 
L 1259 0 
L 628 0 
L 628 4666 
z
" transform="scale(0.015625)"/>
      <path id="DejaVuSans-2d" d="M 313 2009 
L 1997 2009 
L 1997 1497 
L 313 1497 
L 313 2009 
z
" transform="scale(0.015625)"/>
      <path id="DejaVuSans-62" d="M 3116 1747 
Q 3116 2381 2855 2742 
Q 2594 3103 2138 3103 
Q 1681 3103 1420 2742 
Q 1159 2381 1159 1747 
Q 1159 1113 1420 752 
Q 1681 391 2138 391 
Q 2594 391 2855 752 
Q 3116 1113 3116 1747 
z
M 1159 2969 
Q 1341 3281 1617 3432 
Q 1894 3584 2278 3584 
Q 2916 3584 3314 3078 
Q 3713 2572 3713 1747 
Q 3713 922 3314 415 
Q 2916 -91 2278 -91 
Q 1894 -91 1617 61 
Q 1341 213 1159 525 
L 1159 0 
L 581 0 
L 581 4863 
L 1159 4863 
L 1159 2969 
z
" transform="scale(0.015625)"/>
      <path id="DejaVuSans-6f" d="M 1959 3097 
Q 1497 3097 1228 2736 
Q 959 2375 959 1747 
Q 959 1119 1226 758 
Q 1494 397 1959 397 
Q 2419 397 2687 759 
Q 2956 1122 2956 1747 
Q 2956 2369 2687 2733 
Q 2419 3097 1959 3097 
z
M 1959 3584 
Q 2709 3584 3137 3096 
Q 3566 2609 3566 1747 
Q 3566 888 3137 398 
Q 2709 -91 1959 -91 
Q 1206 -91 779 398 
Q 353 888 353 1747 
Q 353 2609 779 3096 
Q 1206 3584 1959 3584 
z
" transform="scale(0.015625)"/>
      <path id="DejaVuSans-6e" d="M 3513 2113 
L 3513 0 
L 2938 0 
L 2938 2094 
Q 2938 2591 2744 2837 
Q 2550 3084 2163 3084 
Q 1697 3084 1428 2787 
Q 1159 2491 1159 1978 
L 1159 0 
L 581 0 
L 581 3500 
L 1159 3500 
L 1159 2956 
Q 1366 3272 1645 3428 
Q 1925 3584 2291 3584 
Q 2894 3584 3203 3211 
Q 3513 2838 3513 2113 
z
" transform="scale(0.015625)"/>
      <path id="DejaVuSans-64" d="M 2906 2969 
L 2906 4863 
L 3481 4863 
L 3481 0 
L 2906 0 
L 2906 525 
Q 2725 213 2448 61 
Q 2172 -91 1784 -91 
Q 1150 -91 751 415 
Q 353 922 353 1747 
Q 353 2572 751 3078 
Q 1150 3584 1784 3584 
Q 2172 3584 2448 3432 
Q 2725 3281 2906 2969 
z
M 947 1747 
Q 947 1113 1208 752 
Q 1469 391 1925 391 
Q 2381 391 2643 752 
Q 2906 1113 2906 1747 
Q 2906 2381 2643 2742 
Q 2381 3103 1925 3103 
Q 1469 3103 1208 2742 
Q 947 2381 947 1747 
z
" transform="scale(0.015625)"/>
      <path id="DejaVuSans-73" d="M 2834 3397 
L 2834 2853 
Q 2591 2978 2328 3040 
Q 2066 3103 1784 3103 
Q 1356 3103 1142 2972 
Q 928 2841 928 2578 
Q 928 2378 1081 2264 
Q 1234 2150 1697 2047 
L 1894 2003 
Q 2506 1872 2764 1633 
Q 3022 1394 3022 966 
Q 3022 478 2636 193 
Q 2250 -91 1575 -91 
Q 1294 -91 989 -36 
Q 684 19 347 128 
L 347 722 
Q 666 556 975 473 
Q 1284 391 1588 391 
Q 1994 391 2212 530 
Q 2431 669 2431 922 
Q 2431 1156 2273 1281 
Q 2116 1406 1581 1522 
L 1381 1569 
Q 847 1681 609 1914 
Q 372 2147 372 2553 
Q 372 3047 722 3315 
Q 1072 3584 1716 3584 
Q 2034 3584 2315 3537 
Q 2597 3491 2834 3397 
z
" transform="scale(0.015625)"/>
     </defs>
     <use xlink:href="#DejaVuSans-48"/>
     <use xlink:href="#DejaVuSans-2d" transform="translate(75.195312 0)"/>
     <use xlink:href="#DejaVuSans-62" transform="translate(111.279297 0)"/>
     <use xlink:href="#DejaVuSans-6f" transform="translate(174.755859 0)"/>
     <use xlink:href="#DejaVuSans-6e" transform="translate(235.9375 0)"/>
     <use xlink:href="#DejaVuSans-64" transform="translate(299.316406 0)"/>
     <use xlink:href="#DejaVuSans-73" transform="translate(362.792969 0)"/>
    </g>
    <!-- between -->
    <g style="fill: #f39c12" transform="translate(520.7625 216.387062) scale(0.08 -0.08)">
     <defs>
      <path id="DejaVuSans-65" d="M 3597 1894 
L 3597 1613 
L 953 1613 
Q 991 1019 1311 708 
Q 1631 397 2203 397 
Q 2534 397 2845 478 
Q 3156 559 3463 722 
L 3463 178 
Q 3153 47 2828 -22 
Q 2503 -91 2169 -91 
Q 1331 -91 842 396 
Q 353 884 353 1716 
Q 353 2575 817 3079 
Q 1281 3584 2069 3584 
Q 2775 3584 3186 3129 
Q 3597 2675 3597 1894 
z
M 3022 2063 
Q 3016 2534 2758 2815 
Q 2500 3097 2075 3097 
Q 1594 3097 1305 2825 
Q 1016 2553 972 2059 
L 3022 2063 
z
" transform="scale(0.015625)"/>
      <path id="DejaVuSans-74" d="M 1172 4494 
L 1172 3500 
L 2356 3500 
L 2356 3053 
L 1172 3053 
L 1172 1153 
Q 1172 725 1289 603 
Q 1406 481 1766 481 
L 2356 481 
L 2356 0 
L 1766 0 
Q 1100 0 847 248 
Q 594 497 594 1153 
L 594 3053 
L 172 3053 
L 172 3500 
L 594 3500 
L 594 4494 
L 1172 4494 
z
" transform="scale(0.015625)"/>
      <path id="DejaVuSans-77" d="M 269 3500 
L 844 3500 
L 1563 769 
L 2278 3500 
L 2956 3500 
L 3675 769 
L 4391 3500 
L 4966 3500 
L 4050 0 
L 3372 0 
L 2619 2869 
L 1863 0 
L 1184 0 
L 269 3500 
z
" transform="scale(0.015625)"/>
     </defs>
     <use xlink:href="#DejaVuSans-62"/>
     <use xlink:href="#DejaVuSans-65" transform="translate(63.476562 0)"/>
     <use xlink:href="#DejaVuSans-74" transform="translate(125 0)"/>
     <use xlink:href="#DejaVuSans-77" transform="translate(164.208984 0)"/>
     <use xlink:href="#DejaVuSans-65" transform="translate(245.996094 0)"/>
     <use xlink:href="#DejaVuSans-65" transform="translate(307.519531 0)"/>
     <use xlink:href="#DejaVuSans-6e" transform="translate(369.042969 0)"/>
    </g>
    <!-- strands -->
    <g style="fill: #f39c12" transform="translate(520.7625 225.345312) scale(0.08 -0.08)">
     <defs>
      <path id="DejaVuSans-72" d="M 2631 2963 
Q 2534 3019 2420 3045 
Q 2306 3072 2169 3072 
Q 1681 3072 1420 2755 
Q 1159 2438 1159 1844 
L 1159 0 
L 581 0 
L 581 3500 
L 1159 3500 
L 1159 2956 
Q 1341 3275 1631 3429 
Q 1922 3584 2338 3584 
Q 2397 3584 2469 3576 
Q 2541 3569 2628 3553 
L 2631 2963 
z
" transform="scale(0.015625)"/>
      <path id="DejaVuSans-61" d="M 2194 1759 
Q 1497 1759 1228 1600 
Q 959 1441 959 1056 
Q 959 750 1161 570 
Q 1363 391 1709 391 
Q 2188 391 2477 730 
Q 2766 1069 2766 1631 
L 2766 1759 
L 2194 1759 
z
M 3341 1997 
L 3341 0 
L 2766 0 
L 2766 531 
Q 2569 213 2275 61 
Q 1981 -91 1556 -91 
Q 1019 -91 701 211 
Q 384 513 384 1019 
Q 384 1609 779 1909 
Q 1175 2209 1959 2209 
L 2766 2209 
L 2766 2266 
Q 2766 2663 2505 2880 
Q 2244 3097 1772 3097 
Q 1472 3097 1187 3025 
Q 903 2953 641 2809 
L 641 3341 
Q 956 3463 1253 3523 
Q 1550 3584 1831 3584 
Q 2591 3584 2966 3190 
Q 3341 2797 3341 1997 
z
" transform="scale(0.015625)"/>
     </defs>
     <use xlink:href="#DejaVuSans-73"/>
     <use xlink:href="#DejaVuSans-74" transform="translate(52.099609 0)"/>
     <use xlink:href="#DejaVuSans-72" transform="translate(91.308594 0)"/>
     <use xlink:href="#DejaVuSans-61" transform="translate(132.421875 0)"/>
     <use xlink:href="#DejaVuSans-6e" transform="translate(193.701172 0)"/>
     <use xlink:href="#DejaVuSans-64" transform="translate(257.080078 0)"/>
     <use xlink:href="#DejaVuSans-73" transform="translate(320.556641 0)"/>
    </g>
   </g>
   <g id="text_2">
    <!-- β-Sheet Structure (Antiparallel) -->
    <g transform="translate(171.442812 17.925312) scale(0.14 -0.14)">
     <defs>
      <path id="DejaVuSans-3b2" d="M 1178 216 
L 1178 -1331 
L 600 -1331 
L 600 3478 
Q 600 4903 1931 4903 
Q 3288 4903 3288 3700 
Q 3288 2844 2750 2531 
Q 3625 2250 3625 1416 
Q 3625 -66 2119 -66 
Q 1456 -66 1178 216 
z
M 1178 966 
Q 1525 425 2141 425 
Q 3041 425 3041 1406 
Q 3041 2288 1591 2219 
L 1591 2750 
Q 2725 2750 2725 3750 
Q 2725 4434 1994 4434 
Q 1178 4434 1178 3459 
L 1178 966 
z
" transform="scale(0.015625)"/>
      <path id="DejaVuSans-53" d="M 3425 4513 
L 3425 3897 
Q 3066 4069 2747 4153 
Q 2428 4238 2131 4238 
Q 1616 4238 1336 4038 
Q 1056 3838 1056 3469 
Q 1056 3159 1242 3001 
Q 1428 2844 1947 2747 
L 2328 2669 
Q 3034 2534 3370 2195 
Q 3706 1856 3706 1288 
Q 3706 609 3251 259 
Q 2797 -91 1919 -91 
Q 1588 -91 1214 -16 
Q 841 59 441 206 
L 441 856 
Q 825 641 1194 531 
Q 1563 422 1919 422 
Q 2459 422 2753 634 
Q 3047 847 3047 1241 
Q 3047 1584 2836 1778 
Q 2625 1972 2144 2069 
L 1759 2144 
Q 1053 2284 737 2584 
Q 422 2884 422 3419 
Q 422 4038 858 4394 
Q 1294 4750 2059 4750 
Q 2388 4750 2728 4690 
Q 3069 4631 3425 4513 
z
" transform="scale(0.015625)"/>
      <path id="DejaVuSans-68" d="M 3513 2113 
L 3513 0 
L 2938 0 
L 2938 2094 
Q 2938 2591 2744 2837 
Q 2550 3084 2163 3084 
Q 1697 3084 1428 2787 
Q 1159 2491 1159 1978 
L 1159 0 
L 581 0 
L 581 4863 
L 1159 4863 
L 1159 2956 
Q 1366 3272 1645 3428 
Q 1925 3584 2291 3584 
Q 2894 3584 3203 3211 
Q 3513 2838 3513 2113 
z
" transform="scale(0.015625)"/>
      <path id="DejaVuSans-20" transform="scale(0.015625)"/>
      <path id="DejaVuSans-75" d="M 544 1381 
L 544 3500 
L 1119 3500 
L 1119 1403 
Q 1119 906 1312 657 
Q 1506 409 1894 409 
Q 2359 409 2629 706 
Q 2900 1003 2900 1516 
L 2900 3500 
L 3475 3500 
L 3475 0 
L 2900 0 
L 2900 538 
Q 2691 219 2414 64 
Q 2138 -91 1772 -91 
Q 1169 -91 856 284 
Q 544 659 544 1381 
z
M 1991 3584 
L 1991 3584 
z
" transform="scale(0.015625)"/>
      <path id="DejaVuSans-63" d="M 3122 3366 
L 3122 2828 
Q 2878 2963 2633 3030 
Q 2388 3097 2138 3097 
Q 1578 3097 1268 2742 
Q 959 2388 959 1747 
Q 959 1106 1268 751 
Q 1578 397 2138 397 
Q 2388 397 2633 464 
Q 2878 531 3122 666 
L 3122 134 
Q 2881 22 2623 -34 
Q 2366 -91 2075 -91 
Q 1284 -91 818 406 
Q 353 903 353 1747 
Q 353 2603 823 3093 
Q 1294 3584 2113 3584 
Q 2378 3584 2631 3529 
Q 2884 3475 3122 3366 
z
" transform="scale(0.015625)"/>
      <path id="DejaVuSans-28" d="M 1984 4856 
Q 1566 4138 1362 3434 
Q 1159 2731 1159 2009 
Q 1159 1288 1364 580 
Q 1569 -128 1984 -844 
L 1484 -844 
Q 1016 -109 783 600 
Q 550 1309 550 2009 
Q 550 2706 781 3412 
Q 1013 4119 1484 4856 
L 1984 4856 
z
" transform="scale(0.015625)"/>
      <path id="DejaVuSans-41" d="M 2188 4044 
L 1331 1722 
L 3047 1722 
L 2188 4044 
z
M 1831 4666 
L 2547 4666 
L 4325 0 
L 3669 0 
L 3244 1197 
L 1141 1197 
L 716 0 
L 50 0 
L 1831 4666 
z
" transform="scale(0.015625)"/>
      <path id="DejaVuSans-69" d="M 603 3500 
L 1178 3500 
L 1178 0 
L 603 0 
L 603 3500 
z
M 603 4863 
L 1178 4863 
L 1178 4134 
L 603 4134 
L 603 4863 
z
" transform="scale(0.015625)"/>
      <path id="DejaVuSans-70" d="M 1159 525 
L 1159 -1331 
L 581 -1331 
L 581 3500 
L 1159 3500 
L 1159 2969 
Q 1341 3281 1617 3432 
Q 1894 3584 2278 3584 
Q 2916 3584 3314 3078 
Q 3713 2572 3713 1747 
Q 3713 922 3314 415 
Q 2916 -91 2278 -91 
Q 1894 -91 1617 61 
Q 1341 213 1159 525 
z
M 3116 1747 
Q 3116 2381 2855 2742 
Q 2594 3103 2138 3103 
Q 1681 3103 1420 2742 
Q 1159 2381 1159 1747 
Q 1159 1113 1420 752 
Q 1681 391 2138 391 
Q 2594 391 2855 752 
Q 3116 1113 3116 1747 
z
" transform="scale(0.015625)"/>
      <path id="DejaVuSans-6c" d="M 603 4863 
L 1178 4863 
L 1178 0 
L 603 0 
L 603 4863 
z
" transform="scale(0.015625)"/>
      <path id="DejaVuSans-29" d="M 513 4856 
L 1013 4856 
Q 1481 4119 1714 3412 
Q 1947 2706 1947 2009 
Q 1947 1309 1714 600 
Q 1481 -109 1013 -844 
L 513 -844 
Q 928 -128 1133 580 
Q 1338 1288 1338 2009 
Q 1338 2731 1133 3434 
Q 928 4138 513 4856 
z
" transform="scale(0.015625)"/>
     </defs>
     <use xlink:href="#DejaVuSans-3b2"/>
     <use xlink:href="#DejaVuSans-2d" transform="translate(63.818359 0)"/>
     <use xlink:href="#DejaVuSans-53" transform="translate(99.902344 0)"/>
     <use xlink:href="#DejaVuSans-68" transform="translate(163.378906 0)"/>
     <use xlink:href="#DejaVuSans-65" transform="translate(226.757812 0)"/>
     <use xlink:href="#DejaVuSans-65" transform="translate(288.28125 0)"/>
     <use xlink:href="#DejaVuSans-74" transform="translate(349.804688 0)"/>
     <use xlink:href="#DejaVuSans-20" transform="translate(389.013672 0)"/>
     <use xlink:href="#DejaVuSans-53" transform="translate(420.800781 0)"/>
     <use xlink:href="#DejaVuSans-74" transform="translate(484.277344 0)"/>
     <use xlink:href="#DejaVuSans-72" transform="translate(523.486328 0)"/>
     <use xlink:href="#DejaVuSans-75" transform="translate(564.599609 0)"/>
     <use xlink:href="#DejaVuSans-63" transform="translate(627.978516 0)"/>
     <use xlink:href="#DejaVuSans-74" transform="translate(682.958984 0)"/>
     <use xlink:href="#DejaVuSans-75" transform="translate(722.167969 0)"/>
     <use xlink:href="#DejaVuSans-72" transform="translate(785.546875 0)"/>
     <use xlink:href="#DejaVuSans-65" transform="translate(824.410156 0)"/>
     <use xlink:href="#DejaVuSans-20" transform="translate(885.933594 0)"/>
     <use xlink:href="#DejaVuSans-28" transform="translate(917.720703 0)"/>
     <use xlink:href="#DejaVuSans-41" transform="translate(956.734375 0)"/>
     <use xlink:href="#DejaVuSans-6e" transform="translate(1025.142578 0)"/>
     <use xlink:href="#DejaVuSans-74" transform="translate(1088.521484 0)"/>
     <use xlink:href="#DejaVuSans-69" transform="translate(1127.730469 0)"/>
     <use xlink:href="#DejaVuSans-70" transform="translate(1155.513672 0)"/>
     <use xlink:href="#DejaVuSans-61" transform="translate(1218.990234 0)"/>
     <use xlink:href="#DejaVuSans-72" transform="translate(1280.269531 0)"/>
     <use xlink:href="#DejaVuSans-61" transform="translate(1321.382812 0)"/>
     <use xlink:href="#DejaVuSans-6c" transform="translate(1382.662109 0)"/>
     <use xlink:href="#DejaVuSans-6c" transform="translate(1410.445312 0)"/>
     <use xlink:href="#DejaVuSans-65" transform="translate(1438.228516 0)"/>
     <use xlink:href="#DejaVuSans-6c" transform="translate(1499.751953 0)"/>
     <use xlink:href="#DejaVuSans-29" transform="translate(1527.535156 0)"/>
    </g>
   </g>
  </g>
 </g>
 <defs>
  <clipPath id="pf618a44caa">
   <rect x="7.2" y="32.925312" width="547.8" height="384.84"/>
  </clipPath>
 </defs>
</svg>
