<?xml version="1.0" encoding="utf-8" standalone="no"?>
<!DOCTYPE svg PUBLIC "-//W3C//DTD SVG 1.1//EN"
  "http://www.w3.org/Graphics/SVG/1.1/DTD/svg11.dtd">
<svg xmlns:xlink="http://www.w3.org/1999/xlink" width="784.800937pt" height="359.72425pt" viewBox="0 0 784.800937 359.72425" xmlns="http://www.w3.org/2000/svg" version="1.1">
 <metadata>
  <rdf:RDF xmlns:dc="http://purl.org/dc/elements/1.1/" xmlns:cc="http://creativecommons.org/ns#" xmlns:rdf="http://www.w3.org/1999/02/22-rdf-syntax-ns#">
   <cc:Work>
    <dc:type rdf:resource="http://purl.org/dc/dcmitype/StillImage"/>
    <dc:date>2026-01-02T18:44:33.455135</dc:date>
    <dc:format>image/svg+xml</dc:format>
    <dc:creator>
     <cc:Agent>
      <dc:title>Matplotlib v3.10.8, https://matplotlib.org/</dc:title>
     </cc:Agent>
    </dc:creator>
   </cc:Work>
  </rdf:RDF>
 </metadata>
 <defs>
  <style type="text/css">*{stroke-linejoin: round; stroke-linecap: butt}</style>
 </defs>
 <g id="figure_1">
  <g id="patch_1">
   <path d="M 0 359.72425 
L 784.800937 359.72425 
L 784.800937 0 
L 0 0 
z
" style="fill: #ffffff"/>
  </g>
  <g id="axes_1">
   <g id="patch_2">
    <path d="M 52.160938 322.168 
L 409.480937 322.168 
L 409.480937 71.728 
L 52.160938 71.728 
z
" style="fill: #ffffff"/>
   </g>
   <g id="matplotlib.axis_1">
    <g id="xtick_1">
     <g id="line2d_1">
      <path d="M 54.279436 322.168 
L 54.279436 71.728 
" clip-path="url(#pfb91c962b0)" style="fill: none; stroke: #ecf0f1; stroke-opacity: 0.8; stroke-width: 0.8; stroke-linecap: square"/>
     </g>
     <g id="line2d_2">
      <defs>
       <path id="mf5dc8c6704" d="M 0 0 
L 0 3.5 
" style="stroke: #000000; stroke-width: 0.8"/>
      </defs>
      <g>
       <use xlink:href="#mf5dc8c6704" x="54.279436" y="322.168" style="stroke: #000000; stroke-width: 0.8"/>
      </g>
     </g>
     <g id="text_1">
      <!-- 0 -->
      <g transform="translate(51.098186 336.766437) scale(0.1 -0.1)">
       <defs>
        <path id="DejaVuSans-30" d="M 2034 4250 
Q 1547 4250 1301 3770 
Q 1056 3291 1056 2328 
Q 1056 1369 1301 889 
Q 1547 409 2034 409 
Q 2525 409 2770 889 
Q 3016 1369 3016 2328 
Q 3016 3291 2770 3770 
Q 2525 4250 2034 4250 
z
M 2034 4750 
Q 2819 4750 3233 4129 
Q 3647 3509 3647 2328 
Q 3647 1150 3233 529 
Q 2819 -91 2034 -91 
Q 1250 -91 836 529 
Q 422 1150 422 2328 
Q 422 3509 836 4129 
Q 1250 4750 2034 4750 
z
" transform="scale(0.015625)"/>
       </defs>
       <use xlink:href="#DejaVuSans-30"/>
      </g>
     </g>
    </g>
    <g id="xtick_2">
     <g id="line2d_3">
      <path d="M 110.772716 322.168 
L 110.772716 71.728 
" clip-path="url(#pfb91c962b0)" style="fill: none; stroke: #ecf0f1; stroke-opacity: 0.8; stroke-width: 0.8; stroke-linecap: square"/>
     </g>
     <g id="line2d_4">
      <g>
       <use xlink:href="#mf5dc8c6704" x="110.772716" y="322.168" style="stroke: #000000; stroke-width: 0.8"/>
      </g>
     </g>
     <g id="text_2">
      <!-- 1 -->
      <g transform="translate(107.591466 336.766437) scale(0.1 -0.1)">
       <defs>
        <path id="DejaVuSans-31" d="M 794 531 
L 1825 531 
L 1825 4091 
L 703 3866 
L 703 4441 
L 1819 4666 
L 2450 4666 
L 2450 531 
L 3481 531 
L 3481 0 
L 794 0 
L 794 531 
z
" transform="scale(0.015625)"/>
       </defs>
       <use xlink:href="#DejaVuSans-31"/>
      </g>
     </g>
    </g>
    <g id="xtick_3">
     <g id="line2d_5">
      <path d="M 167.265997 322.168 
L 167.265997 71.728 
" clip-path="url(#pfb91c962b0)" style="fill: none; stroke: #ecf0f1; stroke-opacity: 0.8; stroke-width: 0.8; stroke-linecap: square"/>
     </g>
     <g id="line2d_6">
      <g>
       <use xlink:href="#mf5dc8c6704" x="167.265997" y="322.168" style="stroke: #000000; stroke-width: 0.8"/>
      </g>
     </g>
     <g id="text_3">
      <!-- 2 -->
      <g transform="translate(164.084747 336.766437) scale(0.1 -0.1)">
       <defs>
        <path id="DejaVuSans-32" d="M 1228 531 
L 3431 531 
L 3431 0 
L 469 0 
L 469 531 
Q 828 903 1448 1529 
Q 2069 2156 2228 2338 
Q 2531 2678 2651 2914 
Q 2772 3150 2772 3378 
Q 2772 3750 2511 3984 
Q 2250 4219 1831 4219 
Q 1534 4219 1204 4116 
Q 875 4013 500 3803 
L 500 4441 
Q 881 4594 1212 4672 
Q 1544 4750 1819 4750 
Q 2544 4750 2975 4387 
Q 3406 4025 3406 3419 
Q 3406 3131 3298 2873 
Q 3191 2616 2906 2266 
Q 2828 2175 2409 1742 
Q 1991 1309 1228 531 
z
" transform="scale(0.015625)"/>
       </defs>
       <use xlink:href="#DejaVuSans-32"/>
      </g>
     </g>
    </g>
    <g id="xtick_4">
     <g id="line2d_7">
      <path d="M 223.759277 322.168 
L 223.759277 71.728 
" clip-path="url(#pfb91c962b0)" style="fill: none; stroke: #ecf0f1; stroke-opacity: 0.8; stroke-width: 0.8; stroke-linecap: square"/>
     </g>
     <g id="line2d_8">
      <g>
       <use xlink:href="#mf5dc8c6704" x="223.759277" y="322.168" style="stroke: #000000; stroke-width: 0.8"/>
      </g>
     </g>
     <g id="text_4">
      <!-- 3 -->
      <g transform="translate(220.578027 336.766437) scale(0.1 -0.1)">
       <defs>
        <path id="DejaVuSans-33" d="M 2597 2516 
Q 3050 2419 3304 2112 
Q 3559 1806 3559 1356 
Q 3559 666 3084 287 
Q 2609 -91 1734 -91 
Q 1441 -91 1130 -33 
Q 819 25 488 141 
L 488 750 
Q 750 597 1062 519 
Q 1375 441 1716 441 
Q 2309 441 2620 675 
Q 2931 909 2931 1356 
Q 2931 1769 2642 2001 
Q 2353 2234 1838 2234 
L 1294 2234 
L 1294 2753 
L 1863 2753 
Q 2328 2753 2575 2939 
Q 2822 3125 2822 3475 
Q 2822 3834 2567 4026 
Q 2313 4219 1838 4219 
Q 1578 4219 1281 4162 
Q 984 4106 628 3988 
L 628 4550 
Q 988 4650 1302 4700 
Q 1616 4750 1894 4750 
Q 2613 4750 3031 4423 
Q 3450 4097 3450 3541 
Q 3450 3153 3228 2886 
Q 3006 2619 2597 2516 
z
" transform="scale(0.015625)"/>
       </defs>
       <use xlink:href="#DejaVuSans-33"/>
      </g>
     </g>
    </g>
    <g id="xtick_5">
     <g id="line2d_9">
      <path d="M 280.252558 322.168 
L 280.252558 71.728 
" clip-path="url(#pfb91c962b0)" style="fill: none; stroke: #ecf0f1; stroke-opacity: 0.8; stroke-width: 0.8; stroke-linecap: square"/>
     </g>
     <g id="line2d_10">
      <g>
       <use xlink:href="#mf5dc8c6704" x="280.252558" y="322.168" style="stroke: #000000; stroke-width: 0.8"/>
      </g>
     </g>
     <g id="text_5">
      <!-- 4 -->
      <g transform="translate(277.071308 336.766437) scale(0.1 -0.1)">
       <defs>
        <path id="DejaVuSans-34" d="M 2419 4116 
L 825 1625 
L 2419 1625 
L 2419 4116 
z
M 2253 4666 
L 3047 4666 
L 3047 1625 
L 3713 1625 
L 3713 1100 
L 3047 1100 
L 3047 0 
L 2419 0 
L 2419 1100 
L 313 1100 
L 313 1709 
L 2253 4666 
z
" transform="scale(0.015625)"/>
       </defs>
       <use xlink:href="#DejaVuSans-34"/>
      </g>
     </g>
    </g>
    <g id="xtick_6">
     <g id="line2d_11">
      <path d="M 336.745839 322.168 
L 336.745839 71.728 
" clip-path="url(#pfb91c962b0)" style="fill: none; stroke: #ecf0f1; stroke-opacity: 0.8; stroke-width: 0.8; stroke-linecap: square"/>
     </g>
     <g id="line2d_12">
      <g>
       <use xlink:href="#mf5dc8c6704" x="336.745839" y="322.168" style="stroke: #000000; stroke-width: 0.8"/>
      </g>
     </g>
     <g id="text_6">
      <!-- 5 -->
      <g transform="translate(333.564589 336.766437) scale(0.1 -0.1)">
       <defs>
        <path id="DejaVuSans-35" d="M 691 4666 
L 3169 4666 
L 3169 4134 
L 1269 4134 
L 1269 2991 
Q 1406 3038 1543 3061 
Q 1681 3084 1819 3084 
Q 2600 3084 3056 2656 
Q 3513 2228 3513 1497 
Q 3513 744 3044 326 
Q 2575 -91 1722 -91 
Q 1428 -91 1123 -41 
Q 819 9 494 109 
L 494 744 
Q 775 591 1075 516 
Q 1375 441 1709 441 
Q 2250 441 2565 725 
Q 2881 1009 2881 1497 
Q 2881 1984 2565 2268 
Q 2250 2553 1709 2553 
Q 1456 2553 1204 2497 
Q 953 2441 691 2322 
L 691 4666 
z
" transform="scale(0.015625)"/>
       </defs>
       <use xlink:href="#DejaVuSans-35"/>
      </g>
     </g>
    </g>
    <g id="xtick_7">
     <g id="line2d_13">
      <path d="M 393.239119 322.168 
L 393.239119 71.728 
" clip-path="url(#pfb91c962b0)" style="fill: none; stroke: #ecf0f1; stroke-opacity: 0.8; stroke-width: 0.8; stroke-linecap: square"/>
     </g>
     <g id="line2d_14">
      <g>
       <use xlink:href="#mf5dc8c6704" x="393.239119" y="322.168" style="stroke: #000000; stroke-width: 0.8"/>
      </g>
     </g>
     <g id="text_7">
      <!-- 6 -->
      <g transform="translate(390.057869 336.766437) scale(0.1 -0.1)">
       <defs>
        <path id="DejaVuSans-36" d="M 2113 2584 
Q 1688 2584 1439 2293 
Q 1191 2003 1191 1497 
Q 1191 994 1439 701 
Q 1688 409 2113 409 
Q 2538 409 2786 701 
Q 3034 994 3034 1497 
Q 3034 2003 2786 2293 
Q 2538 2584 2113 2584 
z
M 3366 4563 
L 3366 3988 
Q 3128 4100 2886 4159 
Q 2644 4219 2406 4219 
Q 1781 4219 1451 3797 
Q 1122 3375 1075 2522 
Q 1259 2794 1537 2939 
Q 1816 3084 2150 3084 
Q 2853 3084 3261 2657 
Q 3669 2231 3669 1497 
Q 3669 778 3244 343 
Q 2819 -91 2113 -91 
Q 1303 -91 875 529 
Q 447 1150 447 2328 
Q 447 3434 972 4092 
Q 1497 4750 2381 4750 
Q 2619 4750 2861 4703 
Q 3103 4656 3366 4563 
z
" transform="scale(0.015625)"/>
       </defs>
       <use xlink:href="#DejaVuSans-36"/>
      </g>
     </g>
    </g>
    <g id="text_8">
     <!-- radius r (schematic) -->
     <g transform="translate(180.5975 350.444562) scale(0.1 -0.1)">
      <defs>
       <path id="DejaVuSans-72" d="M 2631 2963 
Q 2534 3019 2420 3045 
Q 2306 3072 2169 3072 
Q 1681 3072 1420 2755 
Q 1159 2438 1159 1844 
L 1159 0 
L 581 0 
L 581 3500 
L 1159 3500 
L 1159 2956 
Q 1341 3275 1631 3429 
Q 1922 3584 2338 3584 
Q 2397 3584 2469 3576 
Q 2541 3569 2628 3553 
L 2631 2963 
z
" transform="scale(0.015625)"/>
       <path id="DejaVuSans-61" d="M 2194 1759 
Q 1497 1759 1228 1600 
Q 959 1441 959 1056 
Q 959 750 1161 570 
Q 1363 391 1709 391 
Q 2188 391 2477 730 
Q 2766 1069 2766 1631 
L 2766 1759 
L 2194 1759 
z
M 3341 1997 
L 3341 0 
L 2766 0 
L 2766 531 
Q 2569 213 2275 61 
Q 1981 -91 1556 -91 
Q 1019 -91 701 211 
Q 384 513 384 1019 
Q 384 1609 779 1909 
Q 1175 2209 1959 2209 
L 2766 2209 
L 2766 2266 
Q 2766 2663 2505 2880 
Q 2244 3097 1772 3097 
Q 1472 3097 1187 3025 
Q 903 2953 641 2809 
L 641 3341 
Q 956 3463 1253 3523 
Q 1550 3584 1831 3584 
Q 2591 3584 2966 3190 
Q 3341 2797 3341 1997 
z
" transform="scale(0.015625)"/>
       <path id="DejaVuSans-64" d="M 2906 2969 
L 2906 4863 
L 3481 4863 
L 3481 0 
L 2906 0 
L 2906 525 
Q 2725 213 2448 61 
Q 2172 -91 1784 -91 
Q 1150 -91 751 415 
Q 353 922 353 1747 
Q 353 2572 751 3078 
Q 1150 3584 1784 3584 
Q 2172 3584 2448 3432 
Q 2725 3281 2906 2969 
z
M 947 1747 
Q 947 1113 1208 752 
Q 1469 391 1925 391 
Q 2381 391 2643 752 
Q 2906 1113 2906 1747 
Q 2906 2381 2643 2742 
Q 2381 3103 1925 3103 
Q 1469 3103 1208 2742 
Q 947 2381 947 1747 
z
" transform="scale(0.015625)"/>
       <path id="DejaVuSans-69" d="M 603 3500 
L 1178 3500 
L 1178 0 
L 603 0 
L 603 3500 
z
M 603 4863 
L 1178 4863 
L 1178 4134 
L 603 4134 
L 603 4863 
z
" transform="scale(0.015625)"/>
       <path id="DejaVuSans-75" d="M 544 1381 
L 544 3500 
L 1119 3500 
L 1119 1403 
Q 1119 906 1312 657 
Q 1506 409 1894 409 
Q 2359 409 2629 706 
Q 2900 1003 2900 1516 
L 2900 3500 
L 3475 3500 
L 3475 0 
L 2900 0 
L 2900 538 
Q 2691 219 2414 64 
Q 2138 -91 1772 -91 
Q 1169 -91 856 284 
Q 544 659 544 1381 
z
M 1991 3584 
L 1991 3584 
z
" transform="scale(0.015625)"/>
       <path id="DejaVuSans-73" d="M 2834 3397 
L 2834 2853 
Q 2591 2978 2328 3040 
Q 2066 3103 1784 3103 
Q 1356 3103 1142 2972 
Q 928 2841 928 2578 
Q 928 2378 1081 2264 
Q 1234 2150 1697 2047 
L 1894 2003 
Q 2506 1872 2764 1633 
Q 3022 1394 3022 966 
Q 3022 478 2636 193 
Q 2250 -91 1575 -91 
Q 1294 -91 989 -36 
Q 684 19 347 128 
L 347 722 
Q 666 556 975 473 
Q 1284 391 1588 391 
Q 1994 391 2212 530 
Q 2431 669 2431 922 
Q 2431 1156 2273 1281 
Q 2116 1406 1581 1522 
L 1381 1569 
Q 847 1681 609 1914 
Q 372 2147 372 2553 
Q 372 3047 722 3315 
Q 1072 3584 1716 3584 
Q 2034 3584 2315 3537 
Q 2597 3491 2834 3397 
z
" transform="scale(0.015625)"/>
       <path id="DejaVuSans-20" transform="scale(0.015625)"/>
       <path id="DejaVuSans-28" d="M 1984 4856 
Q 1566 4138 1362 3434 
Q 1159 2731 1159 2009 
Q 1159 1288 1364 580 
Q 1569 -128 1984 -844 
L 1484 -844 
Q 1016 -109 783 600 
Q 550 1309 550 2009 
Q 550 2706 781 3412 
Q 1013 4119 1484 4856 
L 1984 4856 
z
" transform="scale(0.015625)"/>
       <path id="DejaVuSans-63" d="M 3122 3366 
L 3122 2828 
Q 2878 2963 2633 3030 
Q 2388 3097 2138 3097 
Q 1578 3097 1268 2742 
Q 959 2388 959 1747 
Q 959 1106 1268 751 
Q 1578 397 2138 397 
Q 2388 397 2633 464 
Q 2878 531 3122 666 
L 3122 134 
Q 2881 22 2623 -34 
Q 2366 -91 2075 -91 
Q 1284 -91 818 406 
Q 353 903 353 1747 
Q 353 2603 823 3093 
Q 1294 3584 2113 3584 
Q 2378 3584 2631 3529 
Q 2884 3475 3122 3366 
z
" transform="scale(0.015625)"/>
       <path id="DejaVuSans-68" d="M 3513 2113 
L 3513 0 
L 2938 0 
L 2938 2094 
Q 2938 2591 2744 2837 
Q 2550 3084 2163 3084 
Q 1697 3084 1428 2787 
Q 1159 2491 1159 1978 
L 1159 0 
L 581 0 
L 581 4863 
L 1159 4863 
L 1159 2956 
Q 1366 3272 1645 3428 
Q 1925 3584 2291 3584 
Q 2894 3584 3203 3211 
Q 3513 2838 3513 2113 
z
" transform="scale(0.015625)"/>
       <path id="DejaVuSans-65" d="M 3597 1894 
L 3597 1613 
L 953 1613 
Q 991 1019 1311 708 
Q 1631 397 2203 397 
Q 2534 397 2845 478 
Q 3156 559 3463 722 
L 3463 178 
Q 3153 47 2828 -22 
Q 2503 -91 2169 -91 
Q 1331 -91 842 396 
Q 353 884 353 1716 
Q 353 2575 817 3079 
Q 1281 3584 2069 3584 
Q 2775 3584 3186 3129 
Q 3597 2675 3597 1894 
z
M 3022 2063 
Q 3016 2534 2758 2815 
Q 2500 3097 2075 3097 
Q 1594 3097 1305 2825 
Q 1016 2553 972 2059 
L 3022 2063 
z
" transform="scale(0.015625)"/>
       <path id="DejaVuSans-6d" d="M 3328 2828 
Q 3544 3216 3844 3400 
Q 4144 3584 4550 3584 
Q 5097 3584 5394 3201 
Q 5691 2819 5691 2113 
L 5691 0 
L 5113 0 
L 5113 2094 
Q 5113 2597 4934 2840 
Q 4756 3084 4391 3084 
Q 3944 3084 3684 2787 
Q 3425 2491 3425 1978 
L 3425 0 
L 2847 0 
L 2847 2094 
Q 2847 2600 2669 2842 
Q 2491 3084 2119 3084 
Q 1678 3084 1418 2786 
Q 1159 2488 1159 1978 
L 1159 0 
L 581 0 
L 581 3500 
L 1159 3500 
L 1159 2956 
Q 1356 3278 1631 3431 
Q 1906 3584 2284 3584 
Q 2666 3584 2933 3390 
Q 3200 3197 3328 2828 
z
" transform="scale(0.015625)"/>
       <path id="DejaVuSans-74" d="M 1172 4494 
L 1172 3500 
L 2356 3500 
L 2356 3053 
L 1172 3053 
L 1172 1153 
Q 1172 725 1289 603 
Q 1406 481 1766 481 
L 2356 481 
L 2356 0 
L 1766 0 
Q 1100 0 847 248 
Q 594 497 594 1153 
L 594 3053 
L 172 3053 
L 172 3500 
L 594 3500 
L 594 4494 
L 1172 4494 
z
" transform="scale(0.015625)"/>
       <path id="DejaVuSans-29" d="M 513 4856 
L 1013 4856 
Q 1481 4119 1714 3412 
Q 1947 2706 1947 2009 
Q 1947 1309 1714 600 
Q 1481 -109 1013 -844 
L 513 -844 
Q 928 -128 1133 580 
Q 1338 1288 1338 2009 
Q 1338 2731 1133 3434 
Q 928 4138 513 4856 
z
" transform="scale(0.015625)"/>
      </defs>
      <use xlink:href="#DejaVuSans-72"/>
      <use xlink:href="#DejaVuSans-61" transform="translate(41.113281 0)"/>
      <use xlink:href="#DejaVuSans-64" transform="translate(102.392578 0)"/>
      <use xlink:href="#DejaVuSans-69" transform="translate(165.869141 0)"/>
      <use xlink:href="#DejaVuSans-75" transform="translate(193.652344 0)"/>
      <use xlink:href="#DejaVuSans-73" transform="translate(257.03125 0)"/>
      <use xlink:href="#DejaVuSans-20" transform="translate(309.130859 0)"/>
      <use xlink:href="#DejaVuSans-72" transform="translate(340.917969 0)"/>
      <use xlink:href="#DejaVuSans-20" transform="translate(382.03125 0)"/>
      <use xlink:href="#DejaVuSans-28" transform="translate(413.818359 0)"/>
      <use xlink:href="#DejaVuSans-73" transform="translate(452.832031 0)"/>
      <use xlink:href="#DejaVuSans-63" transform="translate(504.931641 0)"/>
      <use xlink:href="#DejaVuSans-68" transform="translate(559.912109 0)"/>
      <use xlink:href="#DejaVuSans-65" transform="translate(623.291016 0)"/>
      <use xlink:href="#DejaVuSans-6d" transform="translate(684.814453 0)"/>
      <use xlink:href="#DejaVuSans-61" transform="translate(782.226562 0)"/>
      <use xlink:href="#DejaVuSans-74" transform="translate(843.505859 0)"/>
      <use xlink:href="#DejaVuSans-69" transform="translate(882.714844 0)"/>
      <use xlink:href="#DejaVuSans-63" transform="translate(910.498047 0)"/>
      <use xlink:href="#DejaVuSans-29" transform="translate(965.478516 0)"/>
     </g>
    </g>
   </g>
   <g id="matplotlib.axis_2">
    <g id="ytick_1">
     <g id="line2d_15">
      <path d="M 52.160938 310.784364 
L 409.480937 310.784364 
" clip-path="url(#pfb91c962b0)" style="fill: none; stroke: #ecf0f1; stroke-opacity: 0.8; stroke-width: 0.8; stroke-linecap: square"/>
     </g>
     <g id="line2d_16">
      <defs>
       <path id="mfdaff75b26" d="M 0 0 
L -3.5 0 
" style="stroke: #000000; stroke-width: 0.8"/>
      </defs>
      <g>
       <use xlink:href="#mfdaff75b26" x="52.160938" y="310.784364" style="stroke: #000000; stroke-width: 0.8"/>
      </g>
     </g>
     <g id="text_9">
      <!-- −1.0 -->
      <g transform="translate(20.878125 314.583582) scale(0.1 -0.1)">
       <defs>
        <path id="DejaVuSans-2212" d="M 678 2272 
L 4684 2272 
L 4684 1741 
L 678 1741 
L 678 2272 
z
" transform="scale(0.015625)"/>
        <path id="DejaVuSans-2e" d="M 684 794 
L 1344 794 
L 1344 0 
L 684 0 
L 684 794 
z
" transform="scale(0.015625)"/>
       </defs>
       <use xlink:href="#DejaVuSans-2212"/>
       <use xlink:href="#DejaVuSans-31" transform="translate(83.789062 0)"/>
       <use xlink:href="#DejaVuSans-2e" transform="translate(147.412109 0)"/>
       <use xlink:href="#DejaVuSans-30" transform="translate(179.199219 0)"/>
      </g>
     </g>
    </g>
    <g id="ytick_2">
     <g id="line2d_17">
      <path d="M 52.160938 263.270055 
L 409.480937 263.270055 
" clip-path="url(#pfb91c962b0)" style="fill: none; stroke: #ecf0f1; stroke-opacity: 0.8; stroke-width: 0.8; stroke-linecap: square"/>
     </g>
     <g id="line2d_18">
      <g>
       <use xlink:href="#mfdaff75b26" x="52.160938" y="263.270055" style="stroke: #000000; stroke-width: 0.8"/>
      </g>
     </g>
     <g id="text_10">
      <!-- −0.8 -->
      <g transform="translate(20.878125 267.069274) scale(0.1 -0.1)">
       <defs>
        <path id="DejaVuSans-38" d="M 2034 2216 
Q 1584 2216 1326 1975 
Q 1069 1734 1069 1313 
Q 1069 891 1326 650 
Q 1584 409 2034 409 
Q 2484 409 2743 651 
Q 3003 894 3003 1313 
Q 3003 1734 2745 1975 
Q 2488 2216 2034 2216 
z
M 1403 2484 
Q 997 2584 770 2862 
Q 544 3141 544 3541 
Q 544 4100 942 4425 
Q 1341 4750 2034 4750 
Q 2731 4750 3128 4425 
Q 3525 4100 3525 3541 
Q 3525 3141 3298 2862 
Q 3072 2584 2669 2484 
Q 3125 2378 3379 2068 
Q 3634 1759 3634 1313 
Q 3634 634 3220 271 
Q 2806 -91 2034 -91 
Q 1263 -91 848 271 
Q 434 634 434 1313 
Q 434 1759 690 2068 
Q 947 2378 1403 2484 
z
M 1172 3481 
Q 1172 3119 1398 2916 
Q 1625 2713 2034 2713 
Q 2441 2713 2670 2916 
Q 2900 3119 2900 3481 
Q 2900 3844 2670 4047 
Q 2441 4250 2034 4250 
Q 1625 4250 1398 4047 
Q 1172 3844 1172 3481 
z
" transform="scale(0.015625)"/>
       </defs>
       <use xlink:href="#DejaVuSans-2212"/>
       <use xlink:href="#DejaVuSans-30" transform="translate(83.789062 0)"/>
       <use xlink:href="#DejaVuSans-2e" transform="translate(147.412109 0)"/>
       <use xlink:href="#DejaVuSans-38" transform="translate(179.199219 0)"/>
      </g>
     </g>
    </g>
    <g id="ytick_3">
     <g id="line2d_19">
      <path d="M 52.160938 215.755747 
L 409.480937 215.755747 
" clip-path="url(#pfb91c962b0)" style="fill: none; stroke: #ecf0f1; stroke-opacity: 0.8; stroke-width: 0.8; stroke-linecap: square"/>
     </g>
     <g id="line2d_20">
      <g>
       <use xlink:href="#mfdaff75b26" x="52.160938" y="215.755747" style="stroke: #000000; stroke-width: 0.8"/>
      </g>
     </g>
     <g id="text_11">
      <!-- −0.6 -->
      <g transform="translate(20.878125 219.554966) scale(0.1 -0.1)">
       <use xlink:href="#DejaVuSans-2212"/>
       <use xlink:href="#DejaVuSans-30" transform="translate(83.789062 0)"/>
       <use xlink:href="#DejaVuSans-2e" transform="translate(147.412109 0)"/>
       <use xlink:href="#DejaVuSans-36" transform="translate(179.199219 0)"/>
      </g>
     </g>
    </g>
    <g id="ytick_4">
     <g id="line2d_21">
      <path d="M 52.160938 168.241439 
L 409.480937 168.241439 
" clip-path="url(#pfb91c962b0)" style="fill: none; stroke: #ecf0f1; stroke-opacity: 0.8; stroke-width: 0.8; stroke-linecap: square"/>
     </g>
     <g id="line2d_22">
      <g>
       <use xlink:href="#mfdaff75b26" x="52.160938" y="168.241439" style="stroke: #000000; stroke-width: 0.8"/>
      </g>
     </g>
     <g id="text_12">
      <!-- −0.4 -->
      <g transform="translate(20.878125 172.040657) scale(0.1 -0.1)">
       <use xlink:href="#DejaVuSans-2212"/>
       <use xlink:href="#DejaVuSans-30" transform="translate(83.789062 0)"/>
       <use xlink:href="#DejaVuSans-2e" transform="translate(147.412109 0)"/>
       <use xlink:href="#DejaVuSans-34" transform="translate(179.199219 0)"/>
      </g>
     </g>
    </g>
    <g id="ytick_5">
     <g id="line2d_23">
      <path d="M 52.160938 120.72713 
L 409.480937 120.72713 
" clip-path="url(#pfb91c962b0)" style="fill: none; stroke: #ecf0f1; stroke-opacity: 0.8; stroke-width: 0.8; stroke-linecap: square"/>
     </g>
     <g id="line2d_24">
      <g>
       <use xlink:href="#mfdaff75b26" x="52.160938" y="120.72713" style="stroke: #000000; stroke-width: 0.8"/>
      </g>
     </g>
     <g id="text_13">
      <!-- −0.2 -->
      <g transform="translate(20.878125 124.526349) scale(0.1 -0.1)">
       <use xlink:href="#DejaVuSans-2212"/>
       <use xlink:href="#DejaVuSans-30" transform="translate(83.789062 0)"/>
       <use xlink:href="#DejaVuSans-2e" transform="translate(147.412109 0)"/>
       <use xlink:href="#DejaVuSans-32" transform="translate(179.199219 0)"/>
      </g>
     </g>
    </g>
    <g id="ytick_6">
     <g id="line2d_25">
      <path d="M 52.160938 73.212822 
L 409.480937 73.212822 
" clip-path="url(#pfb91c962b0)" style="fill: none; stroke: #ecf0f1; stroke-opacity: 0.8; stroke-width: 0.8; stroke-linecap: square"/>
     </g>
     <g id="line2d_26">
      <g>
       <use xlink:href="#mfdaff75b26" x="52.160938" y="73.212822" style="stroke: #000000; stroke-width: 0.8"/>
      </g>
     </g>
     <g id="text_14">
      <!-- 0.0 -->
      <g transform="translate(29.257813 77.012041) scale(0.1 -0.1)">
       <use xlink:href="#DejaVuSans-30"/>
       <use xlink:href="#DejaVuSans-2e" transform="translate(63.623047 0)"/>
       <use xlink:href="#DejaVuSans-30" transform="translate(95.410156 0)"/>
      </g>
     </g>
    </g>
    <g id="text_15">
     <!-- potential U (normalized) -->
     <g transform="translate(14.798438 257.712062) rotate(-90) scale(0.1 -0.1)">
      <defs>
       <path id="DejaVuSans-70" d="M 1159 525 
L 1159 -1331 
L 581 -1331 
L 581 3500 
L 1159 3500 
L 1159 2969 
Q 1341 3281 1617 3432 
Q 1894 3584 2278 3584 
Q 2916 3584 3314 3078 
Q 3713 2572 3713 1747 
Q 3713 922 3314 415 
Q 2916 -91 2278 -91 
Q 1894 -91 1617 61 
Q 1341 213 1159 525 
z
M 3116 1747 
Q 3116 2381 2855 2742 
Q 2594 3103 2138 3103 
Q 1681 3103 1420 2742 
Q 1159 2381 1159 1747 
Q 1159 1113 1420 752 
Q 1681 391 2138 391 
Q 2594 391 2855 752 
Q 3116 1113 3116 1747 
z
" transform="scale(0.015625)"/>
       <path id="DejaVuSans-6f" d="M 1959 3097 
Q 1497 3097 1228 2736 
Q 959 2375 959 1747 
Q 959 1119 1226 758 
Q 1494 397 1959 397 
Q 2419 397 2687 759 
Q 2956 1122 2956 1747 
Q 2956 2369 2687 2733 
Q 2419 3097 1959 3097 
z
M 1959 3584 
Q 2709 3584 3137 3096 
Q 3566 2609 3566 1747 
Q 3566 888 3137 398 
Q 2709 -91 1959 -91 
Q 1206 -91 779 398 
Q 353 888 353 1747 
Q 353 2609 779 3096 
Q 1206 3584 1959 3584 
z
" transform="scale(0.015625)"/>
       <path id="DejaVuSans-6e" d="M 3513 2113 
L 3513 0 
L 2938 0 
L 2938 2094 
Q 2938 2591 2744 2837 
Q 2550 3084 2163 3084 
Q 1697 3084 1428 2787 
Q 1159 2491 1159 1978 
L 1159 0 
L 581 0 
L 581 3500 
L 1159 3500 
L 1159 2956 
Q 1366 3272 1645 3428 
Q 1925 3584 2291 3584 
Q 2894 3584 3203 3211 
Q 3513 2838 3513 2113 
z
" transform="scale(0.015625)"/>
       <path id="DejaVuSans-6c" d="M 603 4863 
L 1178 4863 
L 1178 0 
L 603 0 
L 603 4863 
z
" transform="scale(0.015625)"/>
       <path id="DejaVuSans-55" d="M 556 4666 
L 1191 4666 
L 1191 1831 
Q 1191 1081 1462 751 
Q 1734 422 2344 422 
Q 2950 422 3222 751 
Q 3494 1081 3494 1831 
L 3494 4666 
L 4128 4666 
L 4128 1753 
Q 4128 841 3676 375 
Q 3225 -91 2344 -91 
Q 1459 -91 1007 375 
Q 556 841 556 1753 
L 556 4666 
z
" transform="scale(0.015625)"/>
       <path id="DejaVuSans-7a" d="M 353 3500 
L 3084 3500 
L 3084 2975 
L 922 459 
L 3084 459 
L 3084 0 
L 275 0 
L 275 525 
L 2438 3041 
L 353 3041 
L 353 3500 
z
" transform="scale(0.015625)"/>
      </defs>
      <use xlink:href="#DejaVuSans-70"/>
      <use xlink:href="#DejaVuSans-6f" transform="translate(63.476562 0)"/>
      <use xlink:href="#DejaVuSans-74" transform="translate(124.658203 0)"/>
      <use xlink:href="#DejaVuSans-65" transform="translate(163.867188 0)"/>
      <use xlink:href="#DejaVuSans-6e" transform="translate(225.390625 0)"/>
      <use xlink:href="#DejaVuSans-74" transform="translate(288.769531 0)"/>
      <use xlink:href="#DejaVuSans-69" transform="translate(327.978516 0)"/>
      <use xlink:href="#DejaVuSans-61" transform="translate(355.761719 0)"/>
      <use xlink:href="#DejaVuSans-6c" transform="translate(417.041016 0)"/>
      <use xlink:href="#DejaVuSans-20" transform="translate(444.824219 0)"/>
      <use xlink:href="#DejaVuSans-55" transform="translate(476.611328 0)"/>
      <use xlink:href="#DejaVuSans-20" transform="translate(549.804688 0)"/>
      <use xlink:href="#DejaVuSans-28" transform="translate(581.591797 0)"/>
      <use xlink:href="#DejaVuSans-6e" transform="translate(620.605469 0)"/>
      <use xlink:href="#DejaVuSans-6f" transform="translate(683.984375 0)"/>
      <use xlink:href="#DejaVuSans-72" transform="translate(745.166016 0)"/>
      <use xlink:href="#DejaVuSans-6d" transform="translate(784.529297 0)"/>
      <use xlink:href="#DejaVuSans-61" transform="translate(881.941406 0)"/>
      <use xlink:href="#DejaVuSans-6c" transform="translate(943.220703 0)"/>
      <use xlink:href="#DejaVuSans-69" transform="translate(971.003906 0)"/>
      <use xlink:href="#DejaVuSans-7a" transform="translate(998.787109 0)"/>
      <use xlink:href="#DejaVuSans-65" transform="translate(1051.277344 0)"/>
      <use xlink:href="#DejaVuSans-64" transform="translate(1112.800781 0)"/>
      <use xlink:href="#DejaVuSans-29" transform="translate(1176.277344 0)"/>
     </g>
    </g>
   </g>
   <g id="line2d_27">
    <path d="M 68.402756 310.784364 
L 69.489165 293.814968 
L 70.575574 279.108158 
L 71.661983 266.2397 
L 72.748393 254.885177 
L 73.834802 244.792269 
L 76.00762 227.634324 
L 78.180439 213.596006 
L 80.353257 201.897407 
L 82.526076 191.998593 
L 84.698894 183.513895 
L 86.871713 176.16049 
L 89.044531 169.726261 
L 91.21735 164.049 
L 93.390168 159.002545 
L 95.562987 154.487297 
L 97.735805 150.423573 
L 99.908624 146.746871 
L 102.081442 143.404414 
L 104.254261 140.352606 
L 107.513488 136.242007 
L 110.772716 132.605708 
L 114.031944 129.366096 
L 117.291172 126.461616 
L 120.550399 123.842823 
L 123.809627 121.469542 
L 128.155264 118.630911 
L 132.500901 116.107684 
L 136.846538 113.850059 
L 141.192175 111.818198 
L 146.624221 109.547293 
L 152.056267 107.528711 
L 157.488314 105.722612 
L 164.006769 103.791337 
L 170.525225 102.076654 
L 178.130089 100.304314 
L 186.821363 98.527822 
L 195.512637 96.969976 
L 205.29032 95.431743 
L 216.154413 93.940541 
L 228.104914 92.51551 
L 242.228235 91.065019 
L 257.437964 89.728491 
L 274.820512 88.426763 
L 294.375878 87.187619 
L 317.190472 85.97493 
L 343.264294 84.823461 
L 372.597344 83.753539 
L 393.239119 83.111636 
L 393.239119 83.111636 
" clip-path="url(#pfb91c962b0)" style="fill: none; stroke: #9b59b6; stroke-width: 2.5; stroke-linecap: square"/>
   </g>
   <g id="line2d_28">
    <path d="M 52.160938 73.212822 
L 409.480937 73.212822 
" clip-path="url(#pfb91c962b0)" style="fill: none; stroke: #ecf0f1; stroke-linecap: square"/>
   </g>
   <g id="patch_3">
    <path d="M 52.160938 322.168 
L 52.160938 71.728 
" style="fill: none; stroke: #000000; stroke-width: 0.8; stroke-linejoin: miter; stroke-linecap: square"/>
   </g>
   <g id="patch_4">
    <path d="M 409.480937 322.168 
L 409.480937 71.728 
" style="fill: none; stroke: #000000; stroke-width: 0.8; stroke-linejoin: miter; stroke-linecap: square"/>
   </g>
   <g id="patch_5">
    <path d="M 52.160938 322.168 
L 409.480938 322.168 
" style="fill: none; stroke: #000000; stroke-width: 0.8; stroke-linejoin: miter; stroke-linecap: square"/>
   </g>
   <g id="patch_6">
    <path d="M 52.160938 71.728 
L 409.480938 71.728 
" style="fill: none; stroke: #000000; stroke-width: 0.8; stroke-linejoin: miter; stroke-linecap: square"/>
   </g>
   <g id="text_16">
    <!-- deeper well -->
    <g style="fill: #95a5a6" transform="translate(268.218089 218.676074) scale(0.08 -0.08)">
     <defs>
      <path id="DejaVuSans-77" d="M 269 3500 
L 844 3500 
L 1563 769 
L 2278 3500 
L 2956 3500 
L 3675 769 
L 4391 3500 
L 4966 3500 
L 4050 0 
L 3372 0 
L 2619 2869 
L 1863 0 
L 1184 0 
L 269 3500 
z
" transform="scale(0.015625)"/>
     </defs>
     <use xlink:href="#DejaVuSans-64"/>
     <use xlink:href="#DejaVuSans-65" transform="translate(63.476562 0)"/>
     <use xlink:href="#DejaVuSans-65" transform="translate(125 0)"/>
     <use xlink:href="#DejaVuSans-70" transform="translate(186.523438 0)"/>
     <use xlink:href="#DejaVuSans-65" transform="translate(250 0)"/>
     <use xlink:href="#DejaVuSans-72" transform="translate(311.523438 0)"/>
     <use xlink:href="#DejaVuSans-20" transform="translate(352.636719 0)"/>
     <use xlink:href="#DejaVuSans-77" transform="translate(384.423828 0)"/>
     <use xlink:href="#DejaVuSans-65" transform="translate(466.210938 0)"/>
     <use xlink:href="#DejaVuSans-6c" transform="translate(527.734375 0)"/>
     <use xlink:href="#DejaVuSans-6c" transform="translate(555.517578 0)"/>
    </g>
    <!-- = stronger binding -->
    <g style="fill: #95a5a6" transform="translate(253.912464 227.634324) scale(0.08 -0.08)">
     <defs>
      <path id="DejaVuSans-3d" d="M 678 2906 
L 4684 2906 
L 4684 2381 
L 678 2381 
L 678 2906 
z
M 678 1631 
L 4684 1631 
L 4684 1100 
L 678 1100 
L 678 1631 
z
" transform="scale(0.015625)"/>
      <path id="DejaVuSans-67" d="M 2906 1791 
Q 2906 2416 2648 2759 
Q 2391 3103 1925 3103 
Q 1463 3103 1205 2759 
Q 947 2416 947 1791 
Q 947 1169 1205 825 
Q 1463 481 1925 481 
Q 2391 481 2648 825 
Q 2906 1169 2906 1791 
z
M 3481 434 
Q 3481 -459 3084 -895 
Q 2688 -1331 1869 -1331 
Q 1566 -1331 1297 -1286 
Q 1028 -1241 775 -1147 
L 775 -588 
Q 1028 -725 1275 -790 
Q 1522 -856 1778 -856 
Q 2344 -856 2625 -561 
Q 2906 -266 2906 331 
L 2906 616 
Q 2728 306 2450 153 
Q 2172 0 1784 0 
Q 1141 0 747 490 
Q 353 981 353 1791 
Q 353 2603 747 3093 
Q 1141 3584 1784 3584 
Q 2172 3584 2450 3431 
Q 2728 3278 2906 2969 
L 2906 3500 
L 3481 3500 
L 3481 434 
z
" transform="scale(0.015625)"/>
      <path id="DejaVuSans-62" d="M 3116 1747 
Q 3116 2381 2855 2742 
Q 2594 3103 2138 3103 
Q 1681 3103 1420 2742 
Q 1159 2381 1159 1747 
Q 1159 1113 1420 752 
Q 1681 391 2138 391 
Q 2594 391 2855 752 
Q 3116 1113 3116 1747 
z
M 1159 2969 
Q 1341 3281 1617 3432 
Q 1894 3584 2278 3584 
Q 2916 3584 3314 3078 
Q 3713 2572 3713 1747 
Q 3713 922 3314 415 
Q 2916 -91 2278 -91 
Q 1894 -91 1617 61 
Q 1341 213 1159 525 
L 1159 0 
L 581 0 
L 581 4863 
L 1159 4863 
L 1159 2969 
z
" transform="scale(0.015625)"/>
     </defs>
     <use xlink:href="#DejaVuSans-3d"/>
     <use xlink:href="#DejaVuSans-20" transform="translate(83.789062 0)"/>
     <use xlink:href="#DejaVuSans-73" transform="translate(115.576172 0)"/>
     <use xlink:href="#DejaVuSans-74" transform="translate(167.675781 0)"/>
     <use xlink:href="#DejaVuSans-72" transform="translate(206.884766 0)"/>
     <use xlink:href="#DejaVuSans-6f" transform="translate(245.748047 0)"/>
     <use xlink:href="#DejaVuSans-6e" transform="translate(306.929688 0)"/>
     <use xlink:href="#DejaVuSans-67" transform="translate(370.308594 0)"/>
     <use xlink:href="#DejaVuSans-65" transform="translate(433.785156 0)"/>
     <use xlink:href="#DejaVuSans-72" transform="translate(495.308594 0)"/>
     <use xlink:href="#DejaVuSans-20" transform="translate(536.421875 0)"/>
     <use xlink:href="#DejaVuSans-62" transform="translate(568.208984 0)"/>
     <use xlink:href="#DejaVuSans-69" transform="translate(631.685547 0)"/>
     <use xlink:href="#DejaVuSans-6e" transform="translate(659.46875 0)"/>
     <use xlink:href="#DejaVuSans-64" transform="translate(722.847656 0)"/>
     <use xlink:href="#DejaVuSans-69" transform="translate(786.324219 0)"/>
     <use xlink:href="#DejaVuSans-6e" transform="translate(814.107422 0)"/>
     <use xlink:href="#DejaVuSans-67" transform="translate(877.486328 0)"/>
    </g>
   </g>
   <g id="text_17">
    <!-- Gravitational Potential Well -->
    <g transform="translate(149.244375 61.728) scale(0.12 -0.12)">
     <defs>
      <path id="DejaVuSans-47" d="M 3809 666 
L 3809 1919 
L 2778 1919 
L 2778 2438 
L 4434 2438 
L 4434 434 
Q 4069 175 3628 42 
Q 3188 -91 2688 -91 
Q 1594 -91 976 548 
Q 359 1188 359 2328 
Q 359 3472 976 4111 
Q 1594 4750 2688 4750 
Q 3144 4750 3555 4637 
Q 3966 4525 4313 4306 
L 4313 3634 
Q 3963 3931 3569 4081 
Q 3175 4231 2741 4231 
Q 1884 4231 1454 3753 
Q 1025 3275 1025 2328 
Q 1025 1384 1454 906 
Q 1884 428 2741 428 
Q 3075 428 3337 486 
Q 3600 544 3809 666 
z
" transform="scale(0.015625)"/>
      <path id="DejaVuSans-76" d="M 191 3500 
L 800 3500 
L 1894 563 
L 2988 3500 
L 3597 3500 
L 2284 0 
L 1503 0 
L 191 3500 
z
" transform="scale(0.015625)"/>
      <path id="DejaVuSans-50" d="M 1259 4147 
L 1259 2394 
L 2053 2394 
Q 2494 2394 2734 2622 
Q 2975 2850 2975 3272 
Q 2975 3691 2734 3919 
Q 2494 4147 2053 4147 
L 1259 4147 
z
M 628 4666 
L 2053 4666 
Q 2838 4666 3239 4311 
Q 3641 3956 3641 3272 
Q 3641 2581 3239 2228 
Q 2838 1875 2053 1875 
L 1259 1875 
L 1259 0 
L 628 0 
L 628 4666 
z
" transform="scale(0.015625)"/>
      <path id="DejaVuSans-57" d="M 213 4666 
L 850 4666 
L 1831 722 
L 2809 4666 
L 3519 4666 
L 4500 722 
L 5478 4666 
L 6119 4666 
L 4947 0 
L 4153 0 
L 3169 4050 
L 2175 0 
L 1381 0 
L 213 4666 
z
" transform="scale(0.015625)"/>
     </defs>
     <use xlink:href="#DejaVuSans-47"/>
     <use xlink:href="#DejaVuSans-72" transform="translate(77.490234 0)"/>
     <use xlink:href="#DejaVuSans-61" transform="translate(118.603516 0)"/>
     <use xlink:href="#DejaVuSans-76" transform="translate(179.882812 0)"/>
     <use xlink:href="#DejaVuSans-69" transform="translate(239.0625 0)"/>
     <use xlink:href="#DejaVuSans-74" transform="translate(266.845703 0)"/>
     <use xlink:href="#DejaVuSans-61" transform="translate(306.054688 0)"/>
     <use xlink:href="#DejaVuSans-74" transform="translate(367.333984 0)"/>
     <use xlink:href="#DejaVuSans-69" transform="translate(406.542969 0)"/>
     <use xlink:href="#DejaVuSans-6f" transform="translate(434.326172 0)"/>
     <use xlink:href="#DejaVuSans-6e" transform="translate(495.507812 0)"/>
     <use xlink:href="#DejaVuSans-61" transform="translate(558.886719 0)"/>
     <use xlink:href="#DejaVuSans-6c" transform="translate(620.166016 0)"/>
     <use xlink:href="#DejaVuSans-20" transform="translate(647.949219 0)"/>
     <use xlink:href="#DejaVuSans-50" transform="translate(679.736328 0)"/>
     <use xlink:href="#DejaVuSans-6f" transform="translate(736.414062 0)"/>
     <use xlink:href="#DejaVuSans-74" transform="translate(797.595703 0)"/>
     <use xlink:href="#DejaVuSans-65" transform="translate(836.804688 0)"/>
     <use xlink:href="#DejaVuSans-6e" transform="translate(898.328125 0)"/>
     <use xlink:href="#DejaVuSans-74" transform="translate(961.707031 0)"/>
     <use xlink:href="#DejaVuSans-69" transform="translate(1000.916016 0)"/>
     <use xlink:href="#DejaVuSans-61" transform="translate(1028.699219 0)"/>
     <use xlink:href="#DejaVuSans-6c" transform="translate(1089.978516 0)"/>
     <use xlink:href="#DejaVuSans-20" transform="translate(1117.761719 0)"/>
     <use xlink:href="#DejaVuSans-57" transform="translate(1149.548828 0)"/>
     <use xlink:href="#DejaVuSans-65" transform="translate(1242.550781 0)"/>
     <use xlink:href="#DejaVuSans-6c" transform="translate(1304.074219 0)"/>
     <use xlink:href="#DejaVuSans-6c" transform="translate(1331.857422 0)"/>
    </g>
   </g>
  </g>
  <g id="axes_2">
   <g id="patch_7">
    <path d="M 431.000538 220.7398 
L 502.464538 220.7398 
Q 503.179178 220.7398 503.179178 219.905 
L 503.179178 173.991 
Q 503.179178 173.1562 502.464538 173.1562 
L 431.000538 173.1562 
Q 430.285898 173.1562 430.285898 173.991 
L 430.285898 219.905 
Q 430.285898 220.7398 431.000538 220.7398 
z
" clip-path="url(#pfc4d7df2cd)" style="fill: #ecf0f1; opacity: 0.15; stroke: #ecf0f1; stroke-width: 2.5; stroke-linejoin: miter"/>
   </g>
   <g id="patch_8">
    <path d="M 513.184138 220.7398 
L 584.648138 220.7398 
Q 585.362777 220.7398 585.362777 219.905 
L 585.362777 173.991 
Q 585.362777 173.1562 584.648138 173.1562 
L 513.184138 173.1562 
Q 512.469497 173.1562 512.469497 173.991 
L 512.469497 219.905 
Q 512.469497 220.7398 513.184138 220.7398 
z
" clip-path="url(#pfc4d7df2cd)" style="fill: #95a5a6; opacity: 0.15; stroke: #95a5a6; stroke-width: 2.5; stroke-linejoin: miter"/>
   </g>
   <g id="patch_9">
    <path d="M 598.940938 220.7398 
L 670.404937 220.7398 
Q 671.119577 220.7398 671.119577 219.905 
L 671.119577 173.991 
Q 671.119577 173.1562 670.404937 173.1562 
L 598.940938 173.1562 
Q 598.226297 173.1562 598.226297 173.991 
L 598.226297 219.905 
Q 598.226297 220.7398 598.940938 220.7398 
z
" clip-path="url(#pfc4d7df2cd)" style="fill: #7f8c8d; opacity: 0.15; stroke: #7f8c8d; stroke-width: 2.5; stroke-linejoin: miter"/>
   </g>
   <g id="patch_10">
    <path d="M 684.697738 220.7398 
L 756.161738 220.7398 
Q 756.876377 220.7398 756.876377 219.905 
L 756.876377 173.991 
Q 756.876377 173.1562 756.161738 173.1562 
L 684.697738 173.1562 
Q 683.983097 173.1562 683.983097 173.991 
L 683.983097 219.905 
Q 683.983097 220.7398 684.697738 220.7398 
z
" clip-path="url(#pfc4d7df2cd)" style="fill: #9b59b6; opacity: 0.15; stroke: #9b59b6; stroke-width: 2.5; stroke-linejoin: miter"/>
   </g>
   <g id="text_18">
    <!-- Dust -->
    <g style="fill: #2c3e50" transform="translate(456.271913 194.645125) scale(0.08 -0.08)">
     <defs>
      <path id="DejaVuSans-Bold-44" d="M 1791 3756 
L 1791 909 
L 2222 909 
Q 2959 909 3348 1275 
Q 3738 1641 3738 2338 
Q 3738 3031 3350 3393 
Q 2963 3756 2222 3756 
L 1791 3756 
z
M 588 4666 
L 1856 4666 
Q 2919 4666 3439 4514 
Q 3959 4363 4331 4000 
Q 4659 3684 4818 3271 
Q 4978 2859 4978 2338 
Q 4978 1809 4818 1395 
Q 4659 981 4331 666 
Q 3956 303 3431 151 
Q 2906 0 1856 0 
L 588 0 
L 588 4666 
z
" transform="scale(0.015625)"/>
      <path id="DejaVuSans-Bold-75" d="M 500 1363 
L 500 3500 
L 1625 3500 
L 1625 3150 
Q 1625 2866 1622 2436 
Q 1619 2006 1619 1863 
Q 1619 1441 1641 1255 
Q 1663 1069 1716 984 
Q 1784 875 1895 815 
Q 2006 756 2150 756 
Q 2500 756 2700 1025 
Q 2900 1294 2900 1772 
L 2900 3500 
L 4019 3500 
L 4019 0 
L 2900 0 
L 2900 506 
Q 2647 200 2364 54 
Q 2081 -91 1741 -91 
Q 1134 -91 817 281 
Q 500 653 500 1363 
z
" transform="scale(0.015625)"/>
      <path id="DejaVuSans-Bold-73" d="M 3272 3391 
L 3272 2541 
Q 2913 2691 2578 2766 
Q 2244 2841 1947 2841 
Q 1628 2841 1473 2761 
Q 1319 2681 1319 2516 
Q 1319 2381 1436 2309 
Q 1553 2238 1856 2203 
L 2053 2175 
Q 2913 2066 3209 1816 
Q 3506 1566 3506 1031 
Q 3506 472 3093 190 
Q 2681 -91 1863 -91 
Q 1516 -91 1145 -36 
Q 775 19 384 128 
L 384 978 
Q 719 816 1070 734 
Q 1422 653 1784 653 
Q 2113 653 2278 743 
Q 2444 834 2444 1013 
Q 2444 1163 2330 1236 
Q 2216 1309 1875 1350 
L 1678 1375 
Q 931 1469 631 1722 
Q 331 1975 331 2491 
Q 331 3047 712 3315 
Q 1094 3584 1881 3584 
Q 2191 3584 2531 3537 
Q 2872 3491 3272 3391 
z
" transform="scale(0.015625)"/>
      <path id="DejaVuSans-Bold-74" d="M 1759 4494 
L 1759 3500 
L 2913 3500 
L 2913 2700 
L 1759 2700 
L 1759 1216 
Q 1759 972 1856 886 
Q 1953 800 2241 800 
L 2816 800 
L 2816 0 
L 1856 0 
Q 1194 0 917 276 
Q 641 553 641 1216 
L 641 2700 
L 84 2700 
L 84 3500 
L 641 3500 
L 641 4494 
L 1759 4494 
z
" transform="scale(0.015625)"/>
     </defs>
     <use xlink:href="#DejaVuSans-Bold-44"/>
     <use xlink:href="#DejaVuSans-Bold-75" transform="translate(83.007812 0)"/>
     <use xlink:href="#DejaVuSans-Bold-73" transform="translate(154.199219 0)"/>
     <use xlink:href="#DejaVuSans-Bold-74" transform="translate(213.720703 0)"/>
    </g>
    <!-- &amp; gas -->
    <g style="fill: #2c3e50" transform="translate(453.908788 203.603375) scale(0.08 -0.08)">
     <defs>
      <path id="DejaVuSans-Bold-26" d="M 2497 3097 
L 3775 1691 
Q 3941 1909 4027 2181 
Q 4113 2453 4128 2797 
L 5100 2797 
Q 5053 2228 4879 1784 
Q 4706 1341 4397 1006 
L 5313 0 
L 3988 0 
L 3681 341 
Q 3353 122 2990 15 
Q 2628 -91 2222 -91 
Q 1400 -91 892 342 
Q 384 775 384 1459 
Q 384 1916 607 2267 
Q 831 2619 1338 2950 
Q 1206 3116 1143 3281 
Q 1081 3447 1081 3628 
Q 1081 4138 1478 4444 
Q 1875 4750 2534 4750 
Q 2819 4750 3126 4704 
Q 3434 4659 3769 4569 
L 3769 3700 
Q 3475 3850 3212 3922 
Q 2950 3994 2700 3994 
Q 2459 3994 2326 3901 
Q 2194 3809 2194 3641 
Q 2194 3534 2270 3398 
Q 2347 3263 2497 3097 
z
M 1875 2322 
Q 1672 2175 1569 1989 
Q 1466 1803 1466 1581 
Q 1466 1222 1731 969 
Q 1997 716 2369 716 
Q 2578 716 2759 780 
Q 2941 844 3097 972 
L 1875 2322 
z
" transform="scale(0.015625)"/>
      <path id="DejaVuSans-Bold-20" transform="scale(0.015625)"/>
      <path id="DejaVuSans-Bold-67" d="M 2919 594 
Q 2688 288 2409 144 
Q 2131 0 1766 0 
Q 1125 0 706 504 
Q 288 1009 288 1791 
Q 288 2575 706 3076 
Q 1125 3578 1766 3578 
Q 2131 3578 2409 3434 
Q 2688 3291 2919 2981 
L 2919 3500 
L 4044 3500 
L 4044 353 
Q 4044 -491 3511 -936 
Q 2978 -1381 1966 -1381 
Q 1638 -1381 1331 -1331 
Q 1025 -1281 716 -1178 
L 716 -306 
Q 1009 -475 1290 -558 
Q 1572 -641 1856 -641 
Q 2406 -641 2662 -400 
Q 2919 -159 2919 353 
L 2919 594 
z
M 2181 2772 
Q 1834 2772 1640 2515 
Q 1447 2259 1447 1791 
Q 1447 1309 1634 1061 
Q 1822 813 2181 813 
Q 2531 813 2725 1069 
Q 2919 1325 2919 1791 
Q 2919 2259 2725 2515 
Q 2531 2772 2181 2772 
z
" transform="scale(0.015625)"/>
      <path id="DejaVuSans-Bold-61" d="M 2106 1575 
Q 1756 1575 1579 1456 
Q 1403 1338 1403 1106 
Q 1403 894 1545 773 
Q 1688 653 1941 653 
Q 2256 653 2472 879 
Q 2688 1106 2688 1447 
L 2688 1575 
L 2106 1575 
z
M 3816 1997 
L 3816 0 
L 2688 0 
L 2688 519 
Q 2463 200 2181 54 
Q 1900 -91 1497 -91 
Q 953 -91 614 226 
Q 275 544 275 1050 
Q 275 1666 698 1953 
Q 1122 2241 2028 2241 
L 2688 2241 
L 2688 2328 
Q 2688 2594 2478 2717 
Q 2269 2841 1825 2841 
Q 1466 2841 1156 2769 
Q 847 2697 581 2553 
L 581 3406 
Q 941 3494 1303 3539 
Q 1666 3584 2028 3584 
Q 2975 3584 3395 3211 
Q 3816 2838 3816 1997 
z
" transform="scale(0.015625)"/>
     </defs>
     <use xlink:href="#DejaVuSans-Bold-26"/>
     <use xlink:href="#DejaVuSans-Bold-20" transform="translate(87.207031 0)"/>
     <use xlink:href="#DejaVuSans-Bold-67" transform="translate(122.021484 0)"/>
     <use xlink:href="#DejaVuSans-Bold-61" transform="translate(193.603516 0)"/>
     <use xlink:href="#DejaVuSans-Bold-73" transform="translate(261.083984 0)"/>
    </g>
   </g>
   <g id="text_19">
    <!-- Planetesimals -->
    <g style="fill: #2c3e50" transform="translate(517.356762 199.1555) scale(0.08 -0.08)">
     <defs>
      <path id="DejaVuSans-Bold-50" d="M 588 4666 
L 2584 4666 
Q 3475 4666 3951 4270 
Q 4428 3875 4428 3144 
Q 4428 2409 3951 2014 
Q 3475 1619 2584 1619 
L 1791 1619 
L 1791 0 
L 588 0 
L 588 4666 
z
M 1791 3794 
L 1791 2491 
L 2456 2491 
Q 2806 2491 2997 2661 
Q 3188 2831 3188 3144 
Q 3188 3456 2997 3625 
Q 2806 3794 2456 3794 
L 1791 3794 
z
" transform="scale(0.015625)"/>
      <path id="DejaVuSans-Bold-6c" d="M 538 4863 
L 1656 4863 
L 1656 0 
L 538 0 
L 538 4863 
z
" transform="scale(0.015625)"/>
      <path id="DejaVuSans-Bold-6e" d="M 4056 2131 
L 4056 0 
L 2931 0 
L 2931 347 
L 2931 1631 
Q 2931 2084 2911 2256 
Q 2891 2428 2841 2509 
Q 2775 2619 2662 2680 
Q 2550 2741 2406 2741 
Q 2056 2741 1856 2470 
Q 1656 2200 1656 1722 
L 1656 0 
L 538 0 
L 538 3500 
L 1656 3500 
L 1656 2988 
Q 1909 3294 2193 3439 
Q 2478 3584 2822 3584 
Q 3428 3584 3742 3212 
Q 4056 2841 4056 2131 
z
" transform="scale(0.015625)"/>
      <path id="DejaVuSans-Bold-65" d="M 4031 1759 
L 4031 1441 
L 1416 1441 
Q 1456 1047 1700 850 
Q 1944 653 2381 653 
Q 2734 653 3104 758 
Q 3475 863 3866 1075 
L 3866 213 
Q 3469 63 3072 -14 
Q 2675 -91 2278 -91 
Q 1328 -91 801 392 
Q 275 875 275 1747 
Q 275 2603 792 3093 
Q 1309 3584 2216 3584 
Q 3041 3584 3536 3087 
Q 4031 2591 4031 1759 
z
M 2881 2131 
Q 2881 2450 2695 2645 
Q 2509 2841 2209 2841 
Q 1884 2841 1681 2658 
Q 1478 2475 1428 2131 
L 2881 2131 
z
" transform="scale(0.015625)"/>
      <path id="DejaVuSans-Bold-69" d="M 538 3500 
L 1656 3500 
L 1656 0 
L 538 0 
L 538 3500 
z
M 538 4863 
L 1656 4863 
L 1656 3950 
L 538 3950 
L 538 4863 
z
" transform="scale(0.015625)"/>
      <path id="DejaVuSans-Bold-6d" d="M 3781 2919 
Q 3994 3244 4286 3414 
Q 4578 3584 4928 3584 
Q 5531 3584 5847 3212 
Q 6163 2841 6163 2131 
L 6163 0 
L 5038 0 
L 5038 1825 
Q 5041 1866 5042 1909 
Q 5044 1953 5044 2034 
Q 5044 2406 4934 2573 
Q 4825 2741 4581 2741 
Q 4263 2741 4089 2478 
Q 3916 2216 3909 1719 
L 3909 0 
L 2784 0 
L 2784 1825 
Q 2784 2406 2684 2573 
Q 2584 2741 2328 2741 
Q 2006 2741 1831 2477 
Q 1656 2213 1656 1722 
L 1656 0 
L 531 0 
L 531 3500 
L 1656 3500 
L 1656 2988 
Q 1863 3284 2130 3434 
Q 2397 3584 2719 3584 
Q 3081 3584 3359 3409 
Q 3638 3234 3781 2919 
z
" transform="scale(0.015625)"/>
     </defs>
     <use xlink:href="#DejaVuSans-Bold-50"/>
     <use xlink:href="#DejaVuSans-Bold-6c" transform="translate(73.291016 0)"/>
     <use xlink:href="#DejaVuSans-Bold-61" transform="translate(107.568359 0)"/>
     <use xlink:href="#DejaVuSans-Bold-6e" transform="translate(175.048828 0)"/>
     <use xlink:href="#DejaVuSans-Bold-65" transform="translate(246.240234 0)"/>
     <use xlink:href="#DejaVuSans-Bold-74" transform="translate(314.0625 0)"/>
     <use xlink:href="#DejaVuSans-Bold-65" transform="translate(361.865234 0)"/>
     <use xlink:href="#DejaVuSans-Bold-73" transform="translate(429.6875 0)"/>
     <use xlink:href="#DejaVuSans-Bold-69" transform="translate(489.208984 0)"/>
     <use xlink:href="#DejaVuSans-Bold-6d" transform="translate(523.486328 0)"/>
     <use xlink:href="#DejaVuSans-Bold-61" transform="translate(627.685547 0)"/>
     <use xlink:href="#DejaVuSans-Bold-6c" transform="translate(695.166016 0)"/>
     <use xlink:href="#DejaVuSans-Bold-73" transform="translate(729.443359 0)"/>
    </g>
   </g>
   <g id="text_20">
    <!-- Protoplanet -->
    <g style="fill: #2c3e50" transform="translate(607.954187 199.1555) scale(0.08 -0.08)">
     <defs>
      <path id="DejaVuSans-Bold-72" d="M 3138 2547 
Q 2991 2616 2845 2648 
Q 2700 2681 2553 2681 
Q 2122 2681 1889 2404 
Q 1656 2128 1656 1613 
L 1656 0 
L 538 0 
L 538 3500 
L 1656 3500 
L 1656 2925 
Q 1872 3269 2151 3426 
Q 2431 3584 2822 3584 
Q 2878 3584 2943 3579 
Q 3009 3575 3134 3559 
L 3138 2547 
z
" transform="scale(0.015625)"/>
      <path id="DejaVuSans-Bold-6f" d="M 2203 2784 
Q 1831 2784 1636 2517 
Q 1441 2250 1441 1747 
Q 1441 1244 1636 976 
Q 1831 709 2203 709 
Q 2569 709 2762 976 
Q 2956 1244 2956 1747 
Q 2956 2250 2762 2517 
Q 2569 2784 2203 2784 
z
M 2203 3584 
Q 3106 3584 3614 3096 
Q 4122 2609 4122 1747 
Q 4122 884 3614 396 
Q 3106 -91 2203 -91 
Q 1297 -91 786 396 
Q 275 884 275 1747 
Q 275 2609 786 3096 
Q 1297 3584 2203 3584 
z
" transform="scale(0.015625)"/>
      <path id="DejaVuSans-Bold-70" d="M 1656 506 
L 1656 -1331 
L 538 -1331 
L 538 3500 
L 1656 3500 
L 1656 2988 
Q 1888 3294 2169 3439 
Q 2450 3584 2816 3584 
Q 3463 3584 3878 3070 
Q 4294 2556 4294 1747 
Q 4294 938 3878 423 
Q 3463 -91 2816 -91 
Q 2450 -91 2169 54 
Q 1888 200 1656 506 
z
M 2400 2772 
Q 2041 2772 1848 2508 
Q 1656 2244 1656 1747 
Q 1656 1250 1848 986 
Q 2041 722 2400 722 
Q 2759 722 2948 984 
Q 3138 1247 3138 1747 
Q 3138 2247 2948 2509 
Q 2759 2772 2400 2772 
z
" transform="scale(0.015625)"/>
     </defs>
     <use xlink:href="#DejaVuSans-Bold-50"/>
     <use xlink:href="#DejaVuSans-Bold-72" transform="translate(73.291016 0)"/>
     <use xlink:href="#DejaVuSans-Bold-6f" transform="translate(122.607422 0)"/>
     <use xlink:href="#DejaVuSans-Bold-74" transform="translate(191.308594 0)"/>
     <use xlink:href="#DejaVuSans-Bold-6f" transform="translate(239.111328 0)"/>
     <use xlink:href="#DejaVuSans-Bold-70" transform="translate(307.8125 0)"/>
     <use xlink:href="#DejaVuSans-Bold-6c" transform="translate(379.394531 0)"/>
     <use xlink:href="#DejaVuSans-Bold-61" transform="translate(413.671875 0)"/>
     <use xlink:href="#DejaVuSans-Bold-6e" transform="translate(481.152344 0)"/>
     <use xlink:href="#DejaVuSans-Bold-65" transform="translate(552.34375 0)"/>
     <use xlink:href="#DejaVuSans-Bold-74" transform="translate(620.166016 0)"/>
    </g>
   </g>
   <g id="text_21">
    <!-- Planet -->
    <g style="fill: #2c3e50" transform="translate(705.954737 199.1555) scale(0.08 -0.08)">
     <use xlink:href="#DejaVuSans-Bold-50"/>
     <use xlink:href="#DejaVuSans-Bold-6c" transform="translate(73.291016 0)"/>
     <use xlink:href="#DejaVuSans-Bold-61" transform="translate(107.568359 0)"/>
     <use xlink:href="#DejaVuSans-Bold-6e" transform="translate(175.048828 0)"/>
     <use xlink:href="#DejaVuSans-Bold-65" transform="translate(246.240234 0)"/>
     <use xlink:href="#DejaVuSans-Bold-74" transform="translate(314.0625 0)"/>
    </g>
   </g>
   <g id="patch_11">
    <path d="M 506.250594 196.948 
Q 507.825086 196.948 506.604494 196.948 
" style="fill: none; stroke: #f39c12; stroke-width: 2.5; stroke-linecap: round"/>
    <path d="M 502.604494 194.948 
L 506.604494 196.948 
L 502.604494 198.948 
" style="fill: none; stroke: #f39c12; stroke-width: 2.5; stroke-linecap: round"/>
   </g>
   <g id="patch_12">
    <path d="M 588.436811 196.948 
Q 591.797401 196.948 592.362905 196.948 
" style="fill: none; stroke: #f39c12; stroke-width: 2.5; stroke-linecap: round"/>
    <path d="M 588.362905 194.948 
L 592.362905 196.948 
L 588.362905 198.948 
" style="fill: none; stroke: #f39c12; stroke-width: 2.5; stroke-linecap: round"/>
   </g>
   <g id="patch_13">
    <path d="M 674.193611 196.948 
Q 677.554201 196.948 678.119705 196.948 
" style="fill: none; stroke: #f39c12; stroke-width: 2.5; stroke-linecap: round"/>
    <path d="M 674.119705 194.948 
L 678.119705 196.948 
L 674.119705 198.948 
" style="fill: none; stroke: #f39c12; stroke-width: 2.5; stroke-linecap: round"/>
   </g>
   <g id="text_22">
    <!-- Accretion driven by gravity and collisions -->
    <g style="fill: #95a5a6" transform="translate(516.459687 272.08) scale(0.08 -0.08)">
     <defs>
      <path id="DejaVuSans-41" d="M 2188 4044 
L 1331 1722 
L 3047 1722 
L 2188 4044 
z
M 1831 4666 
L 2547 4666 
L 4325 0 
L 3669 0 
L 3244 1197 
L 1141 1197 
L 716 0 
L 50 0 
L 1831 4666 
z
" transform="scale(0.015625)"/>
      <path id="DejaVuSans-79" d="M 2059 -325 
Q 1816 -950 1584 -1140 
Q 1353 -1331 966 -1331 
L 506 -1331 
L 506 -850 
L 844 -850 
Q 1081 -850 1212 -737 
Q 1344 -625 1503 -206 
L 1606 56 
L 191 3500 
L 800 3500 
L 1894 763 
L 2988 3500 
L 3597 3500 
L 2059 -325 
z
" transform="scale(0.015625)"/>
     </defs>
     <use xlink:href="#DejaVuSans-41"/>
     <use xlink:href="#DejaVuSans-63" transform="translate(66.658203 0)"/>
     <use xlink:href="#DejaVuSans-63" transform="translate(121.638672 0)"/>
     <use xlink:href="#DejaVuSans-72" transform="translate(176.619141 0)"/>
     <use xlink:href="#DejaVuSans-65" transform="translate(215.482422 0)"/>
     <use xlink:href="#DejaVuSans-74" transform="translate(277.005859 0)"/>
     <use xlink:href="#DejaVuSans-69" transform="translate(316.214844 0)"/>
     <use xlink:href="#DejaVuSans-6f" transform="translate(343.998047 0)"/>
     <use xlink:href="#DejaVuSans-6e" transform="translate(405.179688 0)"/>
     <use xlink:href="#DejaVuSans-20" transform="translate(468.558594 0)"/>
     <use xlink:href="#DejaVuSans-64" transform="translate(500.345703 0)"/>
     <use xlink:href="#DejaVuSans-72" transform="translate(563.822266 0)"/>
     <use xlink:href="#DejaVuSans-69" transform="translate(604.935547 0)"/>
     <use xlink:href="#DejaVuSans-76" transform="translate(632.71875 0)"/>
     <use xlink:href="#DejaVuSans-65" transform="translate(691.898438 0)"/>
     <use xlink:href="#DejaVuSans-6e" transform="translate(753.421875 0)"/>
     <use xlink:href="#DejaVuSans-20" transform="translate(816.800781 0)"/>
     <use xlink:href="#DejaVuSans-62" transform="translate(848.587891 0)"/>
     <use xlink:href="#DejaVuSans-79" transform="translate(912.064453 0)"/>
     <use xlink:href="#DejaVuSans-20" transform="translate(971.244141 0)"/>
     <use xlink:href="#DejaVuSans-67" transform="translate(1003.03125 0)"/>
     <use xlink:href="#DejaVuSans-72" transform="translate(1066.507812 0)"/>
     <use xlink:href="#DejaVuSans-61" transform="translate(1107.621094 0)"/>
     <use xlink:href="#DejaVuSans-76" transform="translate(1168.900391 0)"/>
     <use xlink:href="#DejaVuSans-69" transform="translate(1228.080078 0)"/>
     <use xlink:href="#DejaVuSans-74" transform="translate(1255.863281 0)"/>
     <use xlink:href="#DejaVuSans-79" transform="translate(1295.072266 0)"/>
     <use xlink:href="#DejaVuSans-20" transform="translate(1354.251953 0)"/>
     <use xlink:href="#DejaVuSans-61" transform="translate(1386.039062 0)"/>
     <use xlink:href="#DejaVuSans-6e" transform="translate(1447.318359 0)"/>
     <use xlink:href="#DejaVuSans-64" transform="translate(1510.697266 0)"/>
     <use xlink:href="#DejaVuSans-20" transform="translate(1574.173828 0)"/>
     <use xlink:href="#DejaVuSans-63" transform="translate(1605.960938 0)"/>
     <use xlink:href="#DejaVuSans-6f" transform="translate(1660.941406 0)"/>
     <use xlink:href="#DejaVuSans-6c" transform="translate(1722.123047 0)"/>
     <use xlink:href="#DejaVuSans-6c" transform="translate(1749.90625 0)"/>
     <use xlink:href="#DejaVuSans-69" transform="translate(1777.689453 0)"/>
     <use xlink:href="#DejaVuSans-73" transform="translate(1805.472656 0)"/>
     <use xlink:href="#DejaVuSans-69" transform="translate(1857.572266 0)"/>
     <use xlink:href="#DejaVuSans-6f" transform="translate(1885.355469 0)"/>
     <use xlink:href="#DejaVuSans-6e" transform="translate(1946.537109 0)"/>
     <use xlink:href="#DejaVuSans-73" transform="translate(2009.916016 0)"/>
    </g>
   </g>
   <g id="text_23">
    <!-- Planet Formation (schematic) -->
    <g transform="translate(510.598438 61.728) scale(0.12 -0.12)">
     <defs>
      <path id="DejaVuSans-46" d="M 628 4666 
L 3309 4666 
L 3309 4134 
L 1259 4134 
L 1259 2759 
L 3109 2759 
L 3109 2228 
L 1259 2228 
L 1259 0 
L 628 0 
L 628 4666 
z
" transform="scale(0.015625)"/>
     </defs>
     <use xlink:href="#DejaVuSans-50"/>
     <use xlink:href="#DejaVuSans-6c" transform="translate(60.302734 0)"/>
     <use xlink:href="#DejaVuSans-61" transform="translate(88.085938 0)"/>
     <use xlink:href="#DejaVuSans-6e" transform="translate(149.365234 0)"/>
     <use xlink:href="#DejaVuSans-65" transform="translate(212.744141 0)"/>
     <use xlink:href="#DejaVuSans-74" transform="translate(274.267578 0)"/>
     <use xlink:href="#DejaVuSans-20" transform="translate(313.476562 0)"/>
     <use xlink:href="#DejaVuSans-46" transform="translate(345.263672 0)"/>
     <use xlink:href="#DejaVuSans-6f" transform="translate(399.158203 0)"/>
     <use xlink:href="#DejaVuSans-72" transform="translate(460.339844 0)"/>
     <use xlink:href="#DejaVuSans-6d" transform="translate(499.703125 0)"/>
     <use xlink:href="#DejaVuSans-61" transform="translate(597.115234 0)"/>
     <use xlink:href="#DejaVuSans-74" transform="translate(658.394531 0)"/>
     <use xlink:href="#DejaVuSans-69" transform="translate(697.603516 0)"/>
     <use xlink:href="#DejaVuSans-6f" transform="translate(725.386719 0)"/>
     <use xlink:href="#DejaVuSans-6e" transform="translate(786.568359 0)"/>
     <use xlink:href="#DejaVuSans-20" transform="translate(849.947266 0)"/>
     <use xlink:href="#DejaVuSans-28" transform="translate(881.734375 0)"/>
     <use xlink:href="#DejaVuSans-73" transform="translate(920.748047 0)"/>
     <use xlink:href="#DejaVuSans-63" transform="translate(972.847656 0)"/>
     <use xlink:href="#DejaVuSans-68" transform="translate(1027.828125 0)"/>
     <use xlink:href="#DejaVuSans-65" transform="translate(1091.207031 0)"/>
     <use xlink:href="#DejaVuSans-6d" transform="translate(1152.730469 0)"/>
     <use xlink:href="#DejaVuSans-61" transform="translate(1250.142578 0)"/>
     <use xlink:href="#DejaVuSans-74" transform="translate(1311.421875 0)"/>
     <use xlink:href="#DejaVuSans-69" transform="translate(1350.630859 0)"/>
     <use xlink:href="#DejaVuSans-63" transform="translate(1378.414062 0)"/>
     <use xlink:href="#DejaVuSans-29" transform="translate(1433.394531 0)"/>
    </g>
   </g>
  </g>
  <g id="text_24">
   <!-- Gravity Wells and Planet Formation -->
   <g transform="translate(269.142969 17.837812) scale(0.14 -0.14)">
    <use xlink:href="#DejaVuSans-47"/>
    <use xlink:href="#DejaVuSans-72" transform="translate(77.490234 0)"/>
    <use xlink:href="#DejaVuSans-61" transform="translate(118.603516 0)"/>
    <use xlink:href="#DejaVuSans-76" transform="translate(179.882812 0)"/>
    <use xlink:href="#DejaVuSans-69" transform="translate(239.0625 0)"/>
    <use xlink:href="#DejaVuSans-74" transform="translate(266.845703 0)"/>
    <use xlink:href="#DejaVuSans-79" transform="translate(306.054688 0)"/>
    <use xlink:href="#DejaVuSans-20" transform="translate(365.234375 0)"/>
    <use xlink:href="#DejaVuSans-57" transform="translate(397.021484 0)"/>
    <use xlink:href="#DejaVuSans-65" transform="translate(490.023438 0)"/>
    <use xlink:href="#DejaVuSans-6c" transform="translate(551.546875 0)"/>
    <use xlink:href="#DejaVuSans-6c" transform="translate(579.330078 0)"/>
    <use xlink:href="#DejaVuSans-73" transform="translate(607.113281 0)"/>
    <use xlink:href="#DejaVuSans-20" transform="translate(659.212891 0)"/>
    <use xlink:href="#DejaVuSans-61" transform="translate(691 0)"/>
    <use xlink:href="#DejaVuSans-6e" transform="translate(752.279297 0)"/>
    <use xlink:href="#DejaVuSans-64" transform="translate(815.658203 0)"/>
    <use xlink:href="#DejaVuSans-20" transform="translate(879.134766 0)"/>
    <use xlink:href="#DejaVuSans-50" transform="translate(910.921875 0)"/>
    <use xlink:href="#DejaVuSans-6c" transform="translate(971.224609 0)"/>
    <use xlink:href="#DejaVuSans-61" transform="translate(999.007812 0)"/>
    <use xlink:href="#DejaVuSans-6e" transform="translate(1060.287109 0)"/>
    <use xlink:href="#DejaVuSans-65" transform="translate(1123.666016 0)"/>
    <use xlink:href="#DejaVuSans-74" transform="translate(1185.189453 0)"/>
    <use xlink:href="#DejaVuSans-20" transform="translate(1224.398438 0)"/>
    <use xlink:href="#DejaVuSans-46" transform="translate(1256.185547 0)"/>
    <use xlink:href="#DejaVuSans-6f" transform="translate(1310.080078 0)"/>
    <use xlink:href="#DejaVuSans-72" transform="translate(1371.261719 0)"/>
    <use xlink:href="#DejaVuSans-6d" transform="translate(1410.625 0)"/>
    <use xlink:href="#DejaVuSans-61" transform="translate(1508.037109 0)"/>
    <use xlink:href="#DejaVuSans-74" transform="translate(1569.316406 0)"/>
    <use xlink:href="#DejaVuSans-69" transform="translate(1608.525391 0)"/>
    <use xlink:href="#DejaVuSans-6f" transform="translate(1636.308594 0)"/>
    <use xlink:href="#DejaVuSans-6e" transform="translate(1697.490234 0)"/>
   </g>
  </g>
 </g>
 <defs>
  <clipPath id="pfb91c962b0">
   <rect x="52.160938" y="71.728" width="357.32" height="250.44"/>
  </clipPath>
  <clipPath id="pfc4d7df2cd">
   <rect x="420.280938" y="71.728" width="357.32" height="250.44"/>
  </clipPath>
 </defs>
</svg>
