<?xml version="1.0" encoding="utf-8" standalone="no"?>
<!DOCTYPE svg PUBLIC "-//W3C//DTD SVG 1.1//EN"
  "http://www.w3.org/Graphics/SVG/1.1/DTD/svg11.dtd">
<svg xmlns:xlink="http://www.w3.org/1999/xlink" width="733.609pt" height="359.568pt" viewBox="0 0 733.609 359.568" xmlns="http://www.w3.org/2000/svg" version="1.1">
 <metadata>
  <rdf:RDF xmlns:dc="http://purl.org/dc/elements/1.1/" xmlns:cc="http://creativecommons.org/ns#" xmlns:rdf="http://www.w3.org/1999/02/22-rdf-syntax-ns#">
   <cc:Work>
    <dc:type rdf:resource="http://purl.org/dc/dcmitype/StillImage"/>
    <dc:date>2026-01-02T18:44:33.725298</dc:date>
    <dc:format>image/svg+xml</dc:format>
    <dc:creator>
     <cc:Agent>
      <dc:title>Matplotlib v3.10.8, https://matplotlib.org/</dc:title>
     </cc:Agent>
    </dc:creator>
   </cc:Work>
  </rdf:RDF>
 </metadata>
 <defs>
  <style type="text/css">*{stroke-linejoin: round; stroke-linecap: butt}</style>
 </defs>
 <g id="figure_1">
  <g id="patch_1">
   <path d="M 0 359.568 
L 733.609 359.568 
L 733.609 0 
L 0 0 
z
" style="fill: #ffffff"/>
  </g>
  <g id="axes_1">
   <g id="patch_2">
    <path d="M 147.52 339.611636 
C 181.350272 339.611636 213.799498 326.170727 237.721112 302.249112 
C 261.642727 278.327498 275.083636 245.878272 275.083636 212.048 
C 275.083636 178.217728 261.642727 145.768502 237.721112 121.846888 
C 213.799498 97.925273 181.350272 84.484364 147.52 84.484364 
C 113.689728 84.484364 81.240502 97.925273 57.318888 121.846888 
C 33.397273 145.768502 19.956364 178.217728 19.956364 212.048 
C 19.956364 245.878272 33.397273 278.327498 57.318888 302.249112 
C 81.240502 326.170727 113.689728 339.611636 147.52 339.611636 
z
" clip-path="url(#pd40f3c5eb6)" style="fill: #95a5a6; opacity: 0.18; stroke: #95a5a6; stroke-width: 2.5; stroke-linejoin: miter"/>
   </g>
   <g id="patch_3">
    <path d="M 147.52 307.720727 
C 172.892704 307.720727 197.229623 297.640045 215.170834 279.698834 
C 233.112045 261.757623 243.192727 237.420704 243.192727 212.048 
C 243.192727 186.675296 233.112045 162.338377 215.170834 144.397166 
C 197.229623 126.455955 172.892704 116.375273 147.52 116.375273 
C 122.147296 116.375273 97.810377 126.455955 79.869166 144.397166 
C 61.927955 162.338377 51.847273 186.675296 51.847273 212.048 
C 51.847273 237.420704 61.927955 261.757623 79.869166 279.698834 
C 97.810377 297.640045 122.147296 307.720727 147.52 307.720727 
z
" clip-path="url(#pd40f3c5eb6)" style="fill: #7f8c8d; opacity: 0.18; stroke: #7f8c8d; stroke-width: 2.5; stroke-linejoin: miter"/>
   </g>
   <g id="patch_4">
    <path d="M 147.52 269.451636 
C 162.743622 269.451636 177.345774 263.403227 188.110501 252.638501 
C 198.875227 241.873774 204.923636 227.271622 204.923636 212.048 
C 204.923636 196.824378 198.875227 182.222226 188.110501 171.457499 
C 177.345774 160.692773 162.743622 154.644364 147.52 154.644364 
C 132.296378 154.644364 117.694226 160.692773 106.929499 171.457499 
C 96.164773 182.222226 90.116364 196.824378 90.116364 212.048 
C 90.116364 227.271622 96.164773 241.873774 106.929499 252.638501 
C 117.694226 263.403227 132.296378 269.451636 147.52 269.451636 
z
" clip-path="url(#pd40f3c5eb6)" style="fill: #9b59b6; opacity: 0.18; stroke: #9b59b6; stroke-width: 2.5; stroke-linejoin: miter"/>
   </g>
   <g id="patch_5">
    <path d="M 147.52 240.749818 
C 155.131811 240.749818 162.432887 237.725614 167.81525 232.34325 
C 173.197614 226.960887 176.221818 219.659811 176.221818 212.048 
C 176.221818 204.436189 173.197614 197.135113 167.81525 191.75275 
C 162.432887 186.370386 155.131811 183.346182 147.52 183.346182 
C 139.908189 183.346182 132.607113 186.370386 127.22475 191.75275 
C 121.842386 197.135113 118.818182 204.436189 118.818182 212.048 
C 118.818182 219.659811 121.842386 226.960887 127.22475 232.34325 
C 132.607113 237.725614 139.908189 240.749818 147.52 240.749818 
z
" clip-path="url(#pd40f3c5eb6)" style="fill: #2c3e50; opacity: 0.18; stroke: #2c3e50; stroke-width: 2.5; stroke-linejoin: miter"/>
   </g>
   <g id="text_1">
    <!-- crust -->
    <g style="fill: #2c3e50" transform="translate(137.489375 106.808) scale(0.08 -0.08)">
     <defs>
      <path id="DejaVuSans-63" d="M 3122 3366 
L 3122 2828 
Q 2878 2963 2633 3030 
Q 2388 3097 2138 3097 
Q 1578 3097 1268 2742 
Q 959 2388 959 1747 
Q 959 1106 1268 751 
Q 1578 397 2138 397 
Q 2388 397 2633 464 
Q 2878 531 3122 666 
L 3122 134 
Q 2881 22 2623 -34 
Q 2366 -91 2075 -91 
Q 1284 -91 818 406 
Q 353 903 353 1747 
Q 353 2603 823 3093 
Q 1294 3584 2113 3584 
Q 2378 3584 2631 3529 
Q 2884 3475 3122 3366 
z
" transform="scale(0.015625)"/>
      <path id="DejaVuSans-72" d="M 2631 2963 
Q 2534 3019 2420 3045 
Q 2306 3072 2169 3072 
Q 1681 3072 1420 2755 
Q 1159 2438 1159 1844 
L 1159 0 
L 581 0 
L 581 3500 
L 1159 3500 
L 1159 2956 
Q 1341 3275 1631 3429 
Q 1922 3584 2338 3584 
Q 2397 3584 2469 3576 
Q 2541 3569 2628 3553 
L 2631 2963 
z
" transform="scale(0.015625)"/>
      <path id="DejaVuSans-75" d="M 544 1381 
L 544 3500 
L 1119 3500 
L 1119 1403 
Q 1119 906 1312 657 
Q 1506 409 1894 409 
Q 2359 409 2629 706 
Q 2900 1003 2900 1516 
L 2900 3500 
L 3475 3500 
L 3475 0 
L 2900 0 
L 2900 538 
Q 2691 219 2414 64 
Q 2138 -91 1772 -91 
Q 1169 -91 856 284 
Q 544 659 544 1381 
z
M 1991 3584 
L 1991 3584 
z
" transform="scale(0.015625)"/>
      <path id="DejaVuSans-73" d="M 2834 3397 
L 2834 2853 
Q 2591 2978 2328 3040 
Q 2066 3103 1784 3103 
Q 1356 3103 1142 2972 
Q 928 2841 928 2578 
Q 928 2378 1081 2264 
Q 1234 2150 1697 2047 
L 1894 2003 
Q 2506 1872 2764 1633 
Q 3022 1394 3022 966 
Q 3022 478 2636 193 
Q 2250 -91 1575 -91 
Q 1294 -91 989 -36 
Q 684 19 347 128 
L 347 722 
Q 666 556 975 473 
Q 1284 391 1588 391 
Q 1994 391 2212 530 
Q 2431 669 2431 922 
Q 2431 1156 2273 1281 
Q 2116 1406 1581 1522 
L 1381 1569 
Q 847 1681 609 1914 
Q 372 2147 372 2553 
Q 372 3047 722 3315 
Q 1072 3584 1716 3584 
Q 2034 3584 2315 3537 
Q 2597 3491 2834 3397 
z
" transform="scale(0.015625)"/>
      <path id="DejaVuSans-74" d="M 1172 4494 
L 1172 3500 
L 2356 3500 
L 2356 3053 
L 1172 3053 
L 1172 1153 
Q 1172 725 1289 603 
Q 1406 481 1766 481 
L 2356 481 
L 2356 0 
L 1766 0 
Q 1100 0 847 248 
Q 594 497 594 1153 
L 594 3053 
L 172 3053 
L 172 3500 
L 594 3500 
L 594 4494 
L 1172 4494 
z
" transform="scale(0.015625)"/>
     </defs>
     <use xlink:href="#DejaVuSans-63"/>
     <use xlink:href="#DejaVuSans-72" transform="translate(54.980469 0)"/>
     <use xlink:href="#DejaVuSans-75" transform="translate(96.09375 0)"/>
     <use xlink:href="#DejaVuSans-73" transform="translate(159.472656 0)"/>
     <use xlink:href="#DejaVuSans-74" transform="translate(211.572266 0)"/>
    </g>
   </g>
   <g id="text_2">
    <!-- mantle -->
    <g style="fill: #2c3e50" transform="translate(133.496875 138.698909) scale(0.08 -0.08)">
     <defs>
      <path id="DejaVuSans-6d" d="M 3328 2828 
Q 3544 3216 3844 3400 
Q 4144 3584 4550 3584 
Q 5097 3584 5394 3201 
Q 5691 2819 5691 2113 
L 5691 0 
L 5113 0 
L 5113 2094 
Q 5113 2597 4934 2840 
Q 4756 3084 4391 3084 
Q 3944 3084 3684 2787 
Q 3425 2491 3425 1978 
L 3425 0 
L 2847 0 
L 2847 2094 
Q 2847 2600 2669 2842 
Q 2491 3084 2119 3084 
Q 1678 3084 1418 2786 
Q 1159 2488 1159 1978 
L 1159 0 
L 581 0 
L 581 3500 
L 1159 3500 
L 1159 2956 
Q 1356 3278 1631 3431 
Q 1906 3584 2284 3584 
Q 2666 3584 2933 3390 
Q 3200 3197 3328 2828 
z
" transform="scale(0.015625)"/>
      <path id="DejaVuSans-61" d="M 2194 1759 
Q 1497 1759 1228 1600 
Q 959 1441 959 1056 
Q 959 750 1161 570 
Q 1363 391 1709 391 
Q 2188 391 2477 730 
Q 2766 1069 2766 1631 
L 2766 1759 
L 2194 1759 
z
M 3341 1997 
L 3341 0 
L 2766 0 
L 2766 531 
Q 2569 213 2275 61 
Q 1981 -91 1556 -91 
Q 1019 -91 701 211 
Q 384 513 384 1019 
Q 384 1609 779 1909 
Q 1175 2209 1959 2209 
L 2766 2209 
L 2766 2266 
Q 2766 2663 2505 2880 
Q 2244 3097 1772 3097 
Q 1472 3097 1187 3025 
Q 903 2953 641 2809 
L 641 3341 
Q 956 3463 1253 3523 
Q 1550 3584 1831 3584 
Q 2591 3584 2966 3190 
Q 3341 2797 3341 1997 
z
" transform="scale(0.015625)"/>
      <path id="DejaVuSans-6e" d="M 3513 2113 
L 3513 0 
L 2938 0 
L 2938 2094 
Q 2938 2591 2744 2837 
Q 2550 3084 2163 3084 
Q 1697 3084 1428 2787 
Q 1159 2491 1159 1978 
L 1159 0 
L 581 0 
L 581 3500 
L 1159 3500 
L 1159 2956 
Q 1366 3272 1645 3428 
Q 1925 3584 2291 3584 
Q 2894 3584 3203 3211 
Q 3513 2838 3513 2113 
z
" transform="scale(0.015625)"/>
      <path id="DejaVuSans-6c" d="M 603 4863 
L 1178 4863 
L 1178 0 
L 603 0 
L 603 4863 
z
" transform="scale(0.015625)"/>
      <path id="DejaVuSans-65" d="M 3597 1894 
L 3597 1613 
L 953 1613 
Q 991 1019 1311 708 
Q 1631 397 2203 397 
Q 2534 397 2845 478 
Q 3156 559 3463 722 
L 3463 178 
Q 3153 47 2828 -22 
Q 2503 -91 2169 -91 
Q 1331 -91 842 396 
Q 353 884 353 1716 
Q 353 2575 817 3079 
Q 1281 3584 2069 3584 
Q 2775 3584 3186 3129 
Q 3597 2675 3597 1894 
z
M 3022 2063 
Q 3016 2534 2758 2815 
Q 2500 3097 2075 3097 
Q 1594 3097 1305 2825 
Q 1016 2553 972 2059 
L 3022 2063 
z
" transform="scale(0.015625)"/>
     </defs>
     <use xlink:href="#DejaVuSans-6d"/>
     <use xlink:href="#DejaVuSans-61" transform="translate(97.412109 0)"/>
     <use xlink:href="#DejaVuSans-6e" transform="translate(158.691406 0)"/>
     <use xlink:href="#DejaVuSans-74" transform="translate(222.070312 0)"/>
     <use xlink:href="#DejaVuSans-6c" transform="translate(261.279297 0)"/>
     <use xlink:href="#DejaVuSans-65" transform="translate(289.0625 0)"/>
    </g>
   </g>
   <g id="text_3">
    <!-- outer -->
    <g style="fill: #2c3e50" transform="translate(136.86375 168.00975) scale(0.08 -0.08)">
     <defs>
      <path id="DejaVuSans-6f" d="M 1959 3097 
Q 1497 3097 1228 2736 
Q 959 2375 959 1747 
Q 959 1119 1226 758 
Q 1494 397 1959 397 
Q 2419 397 2687 759 
Q 2956 1122 2956 1747 
Q 2956 2369 2687 2733 
Q 2419 3097 1959 3097 
z
M 1959 3584 
Q 2709 3584 3137 3096 
Q 3566 2609 3566 1747 
Q 3566 888 3137 398 
Q 2709 -91 1959 -91 
Q 1206 -91 779 398 
Q 353 888 353 1747 
Q 353 2609 779 3096 
Q 1206 3584 1959 3584 
z
" transform="scale(0.015625)"/>
     </defs>
     <use xlink:href="#DejaVuSans-6f"/>
     <use xlink:href="#DejaVuSans-75" transform="translate(61.181641 0)"/>
     <use xlink:href="#DejaVuSans-74" transform="translate(124.560547 0)"/>
     <use xlink:href="#DejaVuSans-65" transform="translate(163.769531 0)"/>
     <use xlink:href="#DejaVuSans-72" transform="translate(225.292969 0)"/>
    </g>
    <!-- core -->
    <g style="fill: #2c3e50" transform="translate(138.8575 176.968) scale(0.08 -0.08)">
     <use xlink:href="#DejaVuSans-63"/>
     <use xlink:href="#DejaVuSans-6f" transform="translate(54.980469 0)"/>
     <use xlink:href="#DejaVuSans-72" transform="translate(116.162109 0)"/>
     <use xlink:href="#DejaVuSans-65" transform="translate(155.025391 0)"/>
    </g>
   </g>
   <g id="text_4">
    <!-- inner -->
    <g style="fill: #2c3e50" transform="translate(137.233125 196.711568) scale(0.08 -0.08)">
     <defs>
      <path id="DejaVuSans-69" d="M 603 3500 
L 1178 3500 
L 1178 0 
L 603 0 
L 603 3500 
z
M 603 4863 
L 1178 4863 
L 1178 4134 
L 603 4134 
L 603 4863 
z
" transform="scale(0.015625)"/>
     </defs>
     <use xlink:href="#DejaVuSans-69"/>
     <use xlink:href="#DejaVuSans-6e" transform="translate(27.783203 0)"/>
     <use xlink:href="#DejaVuSans-6e" transform="translate(91.162109 0)"/>
     <use xlink:href="#DejaVuSans-65" transform="translate(154.541016 0)"/>
     <use xlink:href="#DejaVuSans-72" transform="translate(216.064453 0)"/>
    </g>
    <!-- core -->
    <g style="fill: #2c3e50" transform="translate(138.8575 205.669818) scale(0.08 -0.08)">
     <use xlink:href="#DejaVuSans-63"/>
     <use xlink:href="#DejaVuSans-6f" transform="translate(54.980469 0)"/>
     <use xlink:href="#DejaVuSans-72" transform="translate(116.162109 0)"/>
     <use xlink:href="#DejaVuSans-65" transform="translate(155.025391 0)"/>
    </g>
   </g>
   <g id="text_5">
    <!-- Planet Interior (schematic) -->
    <g transform="translate(67.57 61.728) scale(0.12 -0.12)">
     <defs>
      <path id="DejaVuSans-50" d="M 1259 4147 
L 1259 2394 
L 2053 2394 
Q 2494 2394 2734 2622 
Q 2975 2850 2975 3272 
Q 2975 3691 2734 3919 
Q 2494 4147 2053 4147 
L 1259 4147 
z
M 628 4666 
L 2053 4666 
Q 2838 4666 3239 4311 
Q 3641 3956 3641 3272 
Q 3641 2581 3239 2228 
Q 2838 1875 2053 1875 
L 1259 1875 
L 1259 0 
L 628 0 
L 628 4666 
z
" transform="scale(0.015625)"/>
      <path id="DejaVuSans-20" transform="scale(0.015625)"/>
      <path id="DejaVuSans-49" d="M 628 4666 
L 1259 4666 
L 1259 0 
L 628 0 
L 628 4666 
z
" transform="scale(0.015625)"/>
      <path id="DejaVuSans-28" d="M 1984 4856 
Q 1566 4138 1362 3434 
Q 1159 2731 1159 2009 
Q 1159 1288 1364 580 
Q 1569 -128 1984 -844 
L 1484 -844 
Q 1016 -109 783 600 
Q 550 1309 550 2009 
Q 550 2706 781 3412 
Q 1013 4119 1484 4856 
L 1984 4856 
z
" transform="scale(0.015625)"/>
      <path id="DejaVuSans-68" d="M 3513 2113 
L 3513 0 
L 2938 0 
L 2938 2094 
Q 2938 2591 2744 2837 
Q 2550 3084 2163 3084 
Q 1697 3084 1428 2787 
Q 1159 2491 1159 1978 
L 1159 0 
L 581 0 
L 581 4863 
L 1159 4863 
L 1159 2956 
Q 1366 3272 1645 3428 
Q 1925 3584 2291 3584 
Q 2894 3584 3203 3211 
Q 3513 2838 3513 2113 
z
" transform="scale(0.015625)"/>
      <path id="DejaVuSans-29" d="M 513 4856 
L 1013 4856 
Q 1481 4119 1714 3412 
Q 1947 2706 1947 2009 
Q 1947 1309 1714 600 
Q 1481 -109 1013 -844 
L 513 -844 
Q 928 -128 1133 580 
Q 1338 1288 1338 2009 
Q 1338 2731 1133 3434 
Q 928 4138 513 4856 
z
" transform="scale(0.015625)"/>
     </defs>
     <use xlink:href="#DejaVuSans-50"/>
     <use xlink:href="#DejaVuSans-6c" transform="translate(60.302734 0)"/>
     <use xlink:href="#DejaVuSans-61" transform="translate(88.085938 0)"/>
     <use xlink:href="#DejaVuSans-6e" transform="translate(149.365234 0)"/>
     <use xlink:href="#DejaVuSans-65" transform="translate(212.744141 0)"/>
     <use xlink:href="#DejaVuSans-74" transform="translate(274.267578 0)"/>
     <use xlink:href="#DejaVuSans-20" transform="translate(313.476562 0)"/>
     <use xlink:href="#DejaVuSans-49" transform="translate(345.263672 0)"/>
     <use xlink:href="#DejaVuSans-6e" transform="translate(374.755859 0)"/>
     <use xlink:href="#DejaVuSans-74" transform="translate(438.134766 0)"/>
     <use xlink:href="#DejaVuSans-65" transform="translate(477.34375 0)"/>
     <use xlink:href="#DejaVuSans-72" transform="translate(538.867188 0)"/>
     <use xlink:href="#DejaVuSans-69" transform="translate(579.980469 0)"/>
     <use xlink:href="#DejaVuSans-6f" transform="translate(607.763672 0)"/>
     <use xlink:href="#DejaVuSans-72" transform="translate(668.945312 0)"/>
     <use xlink:href="#DejaVuSans-20" transform="translate(710.058594 0)"/>
     <use xlink:href="#DejaVuSans-28" transform="translate(741.845703 0)"/>
     <use xlink:href="#DejaVuSans-73" transform="translate(780.859375 0)"/>
     <use xlink:href="#DejaVuSans-63" transform="translate(832.958984 0)"/>
     <use xlink:href="#DejaVuSans-68" transform="translate(887.939453 0)"/>
     <use xlink:href="#DejaVuSans-65" transform="translate(951.318359 0)"/>
     <use xlink:href="#DejaVuSans-6d" transform="translate(1012.841797 0)"/>
     <use xlink:href="#DejaVuSans-61" transform="translate(1110.253906 0)"/>
     <use xlink:href="#DejaVuSans-74" transform="translate(1171.533203 0)"/>
     <use xlink:href="#DejaVuSans-69" transform="translate(1210.742188 0)"/>
     <use xlink:href="#DejaVuSans-63" transform="translate(1238.525391 0)"/>
     <use xlink:href="#DejaVuSans-29" transform="translate(1293.505859 0)"/>
    </g>
   </g>
  </g>
  <g id="axes_2">
   <g id="patch_6">
    <path d="M 481.27492 159.194133 
L 588.52108 159.194133 
Q 589.287124 159.194133 589.287124 158.258667 
L 589.287124 106.808 
Q 589.287124 105.872533 588.52108 105.872533 
L 481.27492 105.872533 
Q 480.508876 105.872533 480.508876 106.808 
L 480.508876 158.258667 
Q 480.508876 159.194133 481.27492 159.194133 
z
" clip-path="url(#p35bf40bb44)" style="fill: #e74c3c; opacity: 0.12; stroke: #e74c3c; stroke-width: 2.5; stroke-linejoin: miter"/>
   </g>
   <g id="patch_7">
    <path d="M 374.02876 238.7088 
L 481.27492 238.7088 
Q 482.040964 238.7088 482.040964 237.773333 
L 482.040964 186.322667 
Q 482.040964 185.3872 481.27492 185.3872 
L 374.02876 185.3872 
Q 373.262716 185.3872 373.262716 186.322667 
L 373.262716 237.773333 
Q 373.262716 238.7088 374.02876 238.7088 
z
" clip-path="url(#p35bf40bb44)" style="fill: #95a5a6; opacity: 0.12; stroke: #95a5a6; stroke-width: 2.5; stroke-linejoin: miter"/>
   </g>
   <g id="patch_8">
    <path d="M 588.52108 238.7088 
L 695.76724 238.7088 
Q 696.533284 238.7088 696.533284 237.773333 
L 696.533284 186.322667 
Q 696.533284 185.3872 695.76724 185.3872 
L 588.52108 185.3872 
Q 587.755036 185.3872 587.755036 186.322667 
L 587.755036 237.773333 
Q 587.755036 238.7088 588.52108 238.7088 
z
" clip-path="url(#p35bf40bb44)" style="fill: #7f8c8d; opacity: 0.12; stroke: #7f8c8d; stroke-width: 2.5; stroke-linejoin: miter"/>
   </g>
   <g id="patch_9">
    <path d="M 481.27492 318.223467 
L 588.52108 318.223467 
Q 589.287124 318.223467 589.287124 317.288 
L 589.287124 265.837333 
Q 589.287124 264.901867 588.52108 264.901867 
L 481.27492 264.901867 
Q 480.508876 264.901867 480.508876 265.837333 
L 480.508876 317.288 
Q 480.508876 318.223467 481.27492 318.223467 
z
" clip-path="url(#p35bf40bb44)" style="fill: #9b59b6; opacity: 0.12; stroke: #9b59b6; stroke-width: 2.5; stroke-linejoin: miter"/>
   </g>
   <g id="text_6">
    <!-- Igneous -->
    <g style="fill: #2c3e50" transform="translate(517.009875 134.678333) scale(0.08 -0.08)">
     <defs>
      <path id="DejaVuSans-Bold-49" d="M 588 4666 
L 1791 4666 
L 1791 0 
L 588 0 
L 588 4666 
z
" transform="scale(0.015625)"/>
      <path id="DejaVuSans-Bold-67" d="M 2919 594 
Q 2688 288 2409 144 
Q 2131 0 1766 0 
Q 1125 0 706 504 
Q 288 1009 288 1791 
Q 288 2575 706 3076 
Q 1125 3578 1766 3578 
Q 2131 3578 2409 3434 
Q 2688 3291 2919 2981 
L 2919 3500 
L 4044 3500 
L 4044 353 
Q 4044 -491 3511 -936 
Q 2978 -1381 1966 -1381 
Q 1638 -1381 1331 -1331 
Q 1025 -1281 716 -1178 
L 716 -306 
Q 1009 -475 1290 -558 
Q 1572 -641 1856 -641 
Q 2406 -641 2662 -400 
Q 2919 -159 2919 353 
L 2919 594 
z
M 2181 2772 
Q 1834 2772 1640 2515 
Q 1447 2259 1447 1791 
Q 1447 1309 1634 1061 
Q 1822 813 2181 813 
Q 2531 813 2725 1069 
Q 2919 1325 2919 1791 
Q 2919 2259 2725 2515 
Q 2531 2772 2181 2772 
z
" transform="scale(0.015625)"/>
      <path id="DejaVuSans-Bold-6e" d="M 4056 2131 
L 4056 0 
L 2931 0 
L 2931 347 
L 2931 1631 
Q 2931 2084 2911 2256 
Q 2891 2428 2841 2509 
Q 2775 2619 2662 2680 
Q 2550 2741 2406 2741 
Q 2056 2741 1856 2470 
Q 1656 2200 1656 1722 
L 1656 0 
L 538 0 
L 538 3500 
L 1656 3500 
L 1656 2988 
Q 1909 3294 2193 3439 
Q 2478 3584 2822 3584 
Q 3428 3584 3742 3212 
Q 4056 2841 4056 2131 
z
" transform="scale(0.015625)"/>
      <path id="DejaVuSans-Bold-65" d="M 4031 1759 
L 4031 1441 
L 1416 1441 
Q 1456 1047 1700 850 
Q 1944 653 2381 653 
Q 2734 653 3104 758 
Q 3475 863 3866 1075 
L 3866 213 
Q 3469 63 3072 -14 
Q 2675 -91 2278 -91 
Q 1328 -91 801 392 
Q 275 875 275 1747 
Q 275 2603 792 3093 
Q 1309 3584 2216 3584 
Q 3041 3584 3536 3087 
Q 4031 2591 4031 1759 
z
M 2881 2131 
Q 2881 2450 2695 2645 
Q 2509 2841 2209 2841 
Q 1884 2841 1681 2658 
Q 1478 2475 1428 2131 
L 2881 2131 
z
" transform="scale(0.015625)"/>
      <path id="DejaVuSans-Bold-6f" d="M 2203 2784 
Q 1831 2784 1636 2517 
Q 1441 2250 1441 1747 
Q 1441 1244 1636 976 
Q 1831 709 2203 709 
Q 2569 709 2762 976 
Q 2956 1244 2956 1747 
Q 2956 2250 2762 2517 
Q 2569 2784 2203 2784 
z
M 2203 3584 
Q 3106 3584 3614 3096 
Q 4122 2609 4122 1747 
Q 4122 884 3614 396 
Q 3106 -91 2203 -91 
Q 1297 -91 786 396 
Q 275 884 275 1747 
Q 275 2609 786 3096 
Q 1297 3584 2203 3584 
z
" transform="scale(0.015625)"/>
      <path id="DejaVuSans-Bold-75" d="M 500 1363 
L 500 3500 
L 1625 3500 
L 1625 3150 
Q 1625 2866 1622 2436 
Q 1619 2006 1619 1863 
Q 1619 1441 1641 1255 
Q 1663 1069 1716 984 
Q 1784 875 1895 815 
Q 2006 756 2150 756 
Q 2500 756 2700 1025 
Q 2900 1294 2900 1772 
L 2900 3500 
L 4019 3500 
L 4019 0 
L 2900 0 
L 2900 506 
Q 2647 200 2364 54 
Q 2081 -91 1741 -91 
Q 1134 -91 817 281 
Q 500 653 500 1363 
z
" transform="scale(0.015625)"/>
      <path id="DejaVuSans-Bold-73" d="M 3272 3391 
L 3272 2541 
Q 2913 2691 2578 2766 
Q 2244 2841 1947 2841 
Q 1628 2841 1473 2761 
Q 1319 2681 1319 2516 
Q 1319 2381 1436 2309 
Q 1553 2238 1856 2203 
L 2053 2175 
Q 2913 2066 3209 1816 
Q 3506 1566 3506 1031 
Q 3506 472 3093 190 
Q 2681 -91 1863 -91 
Q 1516 -91 1145 -36 
Q 775 19 384 128 
L 384 978 
Q 719 816 1070 734 
Q 1422 653 1784 653 
Q 2113 653 2278 743 
Q 2444 834 2444 1013 
Q 2444 1163 2330 1236 
Q 2216 1309 1875 1350 
L 1678 1375 
Q 931 1469 631 1722 
Q 331 1975 331 2491 
Q 331 3047 712 3315 
Q 1094 3584 1881 3584 
Q 2191 3584 2531 3537 
Q 2872 3491 3272 3391 
z
" transform="scale(0.015625)"/>
     </defs>
     <use xlink:href="#DejaVuSans-Bold-49"/>
     <use xlink:href="#DejaVuSans-Bold-67" transform="translate(37.207031 0)"/>
     <use xlink:href="#DejaVuSans-Bold-6e" transform="translate(108.789062 0)"/>
     <use xlink:href="#DejaVuSans-Bold-65" transform="translate(179.980469 0)"/>
     <use xlink:href="#DejaVuSans-Bold-6f" transform="translate(247.802734 0)"/>
     <use xlink:href="#DejaVuSans-Bold-75" transform="translate(316.503906 0)"/>
     <use xlink:href="#DejaVuSans-Bold-73" transform="translate(387.695312 0)"/>
    </g>
   </g>
   <g id="text_7">
    <!-- Sedimentary -->
    <g style="fill: #2c3e50" transform="translate(398.903715 214.22425) scale(0.08 -0.08)">
     <defs>
      <path id="DejaVuSans-Bold-53" d="M 3834 4519 
L 3834 3531 
Q 3450 3703 3084 3790 
Q 2719 3878 2394 3878 
Q 1963 3878 1756 3759 
Q 1550 3641 1550 3391 
Q 1550 3203 1689 3098 
Q 1828 2994 2194 2919 
L 2706 2816 
Q 3484 2659 3812 2340 
Q 4141 2022 4141 1434 
Q 4141 663 3683 286 
Q 3225 -91 2284 -91 
Q 1841 -91 1394 -6 
Q 947 78 500 244 
L 500 1259 
Q 947 1022 1364 901 
Q 1781 781 2169 781 
Q 2563 781 2772 912 
Q 2981 1044 2981 1288 
Q 2981 1506 2839 1625 
Q 2697 1744 2272 1838 
L 1806 1941 
Q 1106 2091 782 2419 
Q 459 2747 459 3303 
Q 459 4000 909 4375 
Q 1359 4750 2203 4750 
Q 2588 4750 2994 4692 
Q 3400 4634 3834 4519 
z
" transform="scale(0.015625)"/>
      <path id="DejaVuSans-Bold-64" d="M 2919 2988 
L 2919 4863 
L 4044 4863 
L 4044 0 
L 2919 0 
L 2919 506 
Q 2688 197 2409 53 
Q 2131 -91 1766 -91 
Q 1119 -91 703 423 
Q 288 938 288 1747 
Q 288 2556 703 3070 
Q 1119 3584 1766 3584 
Q 2128 3584 2408 3439 
Q 2688 3294 2919 2988 
z
M 2181 722 
Q 2541 722 2730 984 
Q 2919 1247 2919 1747 
Q 2919 2247 2730 2509 
Q 2541 2772 2181 2772 
Q 1825 2772 1636 2509 
Q 1447 2247 1447 1747 
Q 1447 1247 1636 984 
Q 1825 722 2181 722 
z
" transform="scale(0.015625)"/>
      <path id="DejaVuSans-Bold-69" d="M 538 3500 
L 1656 3500 
L 1656 0 
L 538 0 
L 538 3500 
z
M 538 4863 
L 1656 4863 
L 1656 3950 
L 538 3950 
L 538 4863 
z
" transform="scale(0.015625)"/>
      <path id="DejaVuSans-Bold-6d" d="M 3781 2919 
Q 3994 3244 4286 3414 
Q 4578 3584 4928 3584 
Q 5531 3584 5847 3212 
Q 6163 2841 6163 2131 
L 6163 0 
L 5038 0 
L 5038 1825 
Q 5041 1866 5042 1909 
Q 5044 1953 5044 2034 
Q 5044 2406 4934 2573 
Q 4825 2741 4581 2741 
Q 4263 2741 4089 2478 
Q 3916 2216 3909 1719 
L 3909 0 
L 2784 0 
L 2784 1825 
Q 2784 2406 2684 2573 
Q 2584 2741 2328 2741 
Q 2006 2741 1831 2477 
Q 1656 2213 1656 1722 
L 1656 0 
L 531 0 
L 531 3500 
L 1656 3500 
L 1656 2988 
Q 1863 3284 2130 3434 
Q 2397 3584 2719 3584 
Q 3081 3584 3359 3409 
Q 3638 3234 3781 2919 
z
" transform="scale(0.015625)"/>
      <path id="DejaVuSans-Bold-74" d="M 1759 4494 
L 1759 3500 
L 2913 3500 
L 2913 2700 
L 1759 2700 
L 1759 1216 
Q 1759 972 1856 886 
Q 1953 800 2241 800 
L 2816 800 
L 2816 0 
L 1856 0 
Q 1194 0 917 276 
Q 641 553 641 1216 
L 641 2700 
L 84 2700 
L 84 3500 
L 641 3500 
L 641 4494 
L 1759 4494 
z
" transform="scale(0.015625)"/>
      <path id="DejaVuSans-Bold-61" d="M 2106 1575 
Q 1756 1575 1579 1456 
Q 1403 1338 1403 1106 
Q 1403 894 1545 773 
Q 1688 653 1941 653 
Q 2256 653 2472 879 
Q 2688 1106 2688 1447 
L 2688 1575 
L 2106 1575 
z
M 3816 1997 
L 3816 0 
L 2688 0 
L 2688 519 
Q 2463 200 2181 54 
Q 1900 -91 1497 -91 
Q 953 -91 614 226 
Q 275 544 275 1050 
Q 275 1666 698 1953 
Q 1122 2241 2028 2241 
L 2688 2241 
L 2688 2328 
Q 2688 2594 2478 2717 
Q 2269 2841 1825 2841 
Q 1466 2841 1156 2769 
Q 847 2697 581 2553 
L 581 3406 
Q 941 3494 1303 3539 
Q 1666 3584 2028 3584 
Q 2975 3584 3395 3211 
Q 3816 2838 3816 1997 
z
" transform="scale(0.015625)"/>
      <path id="DejaVuSans-Bold-72" d="M 3138 2547 
Q 2991 2616 2845 2648 
Q 2700 2681 2553 2681 
Q 2122 2681 1889 2404 
Q 1656 2128 1656 1613 
L 1656 0 
L 538 0 
L 538 3500 
L 1656 3500 
L 1656 2925 
Q 1872 3269 2151 3426 
Q 2431 3584 2822 3584 
Q 2878 3584 2943 3579 
Q 3009 3575 3134 3559 
L 3138 2547 
z
" transform="scale(0.015625)"/>
      <path id="DejaVuSans-Bold-79" d="M 78 3500 
L 1197 3500 
L 2138 1125 
L 2938 3500 
L 4056 3500 
L 2584 -331 
Q 2363 -916 2067 -1148 
Q 1772 -1381 1288 -1381 
L 641 -1381 
L 641 -647 
L 991 -647 
Q 1275 -647 1404 -556 
Q 1534 -466 1606 -231 
L 1638 -134 
L 78 3500 
z
" transform="scale(0.015625)"/>
     </defs>
     <use xlink:href="#DejaVuSans-Bold-53"/>
     <use xlink:href="#DejaVuSans-Bold-65" transform="translate(72.021484 0)"/>
     <use xlink:href="#DejaVuSans-Bold-64" transform="translate(139.84375 0)"/>
     <use xlink:href="#DejaVuSans-Bold-69" transform="translate(211.425781 0)"/>
     <use xlink:href="#DejaVuSans-Bold-6d" transform="translate(245.703125 0)"/>
     <use xlink:href="#DejaVuSans-Bold-65" transform="translate(349.902344 0)"/>
     <use xlink:href="#DejaVuSans-Bold-6e" transform="translate(417.724609 0)"/>
     <use xlink:href="#DejaVuSans-Bold-74" transform="translate(488.916016 0)"/>
     <use xlink:href="#DejaVuSans-Bold-61" transform="translate(536.71875 0)"/>
     <use xlink:href="#DejaVuSans-Bold-72" transform="translate(604.199219 0)"/>
     <use xlink:href="#DejaVuSans-Bold-79" transform="translate(653.515625 0)"/>
    </g>
   </g>
   <g id="text_8">
    <!-- Metamorphic -->
    <g style="fill: #2c3e50" transform="translate(612.497285 214.2555) scale(0.08 -0.08)">
     <defs>
      <path id="DejaVuSans-Bold-4d" d="M 588 4666 
L 2119 4666 
L 3181 2169 
L 4250 4666 
L 5778 4666 
L 5778 0 
L 4641 0 
L 4641 3413 
L 3566 897 
L 2803 897 
L 1728 3413 
L 1728 0 
L 588 0 
L 588 4666 
z
" transform="scale(0.015625)"/>
      <path id="DejaVuSans-Bold-70" d="M 1656 506 
L 1656 -1331 
L 538 -1331 
L 538 3500 
L 1656 3500 
L 1656 2988 
Q 1888 3294 2169 3439 
Q 2450 3584 2816 3584 
Q 3463 3584 3878 3070 
Q 4294 2556 4294 1747 
Q 4294 938 3878 423 
Q 3463 -91 2816 -91 
Q 2450 -91 2169 54 
Q 1888 200 1656 506 
z
M 2400 2772 
Q 2041 2772 1848 2508 
Q 1656 2244 1656 1747 
Q 1656 1250 1848 986 
Q 2041 722 2400 722 
Q 2759 722 2948 984 
Q 3138 1247 3138 1747 
Q 3138 2247 2948 2509 
Q 2759 2772 2400 2772 
z
" transform="scale(0.015625)"/>
      <path id="DejaVuSans-Bold-68" d="M 4056 2131 
L 4056 0 
L 2931 0 
L 2931 347 
L 2931 1625 
Q 2931 2084 2911 2256 
Q 2891 2428 2841 2509 
Q 2775 2619 2662 2680 
Q 2550 2741 2406 2741 
Q 2056 2741 1856 2470 
Q 1656 2200 1656 1722 
L 1656 0 
L 538 0 
L 538 4863 
L 1656 4863 
L 1656 2988 
Q 1909 3294 2193 3439 
Q 2478 3584 2822 3584 
Q 3428 3584 3742 3212 
Q 4056 2841 4056 2131 
z
" transform="scale(0.015625)"/>
      <path id="DejaVuSans-Bold-63" d="M 3366 3391 
L 3366 2478 
Q 3138 2634 2908 2709 
Q 2678 2784 2431 2784 
Q 1963 2784 1702 2511 
Q 1441 2238 1441 1747 
Q 1441 1256 1702 982 
Q 1963 709 2431 709 
Q 2694 709 2930 787 
Q 3166 866 3366 1019 
L 3366 103 
Q 3103 6 2833 -42 
Q 2563 -91 2291 -91 
Q 1344 -91 809 395 
Q 275 881 275 1747 
Q 275 2613 809 3098 
Q 1344 3584 2291 3584 
Q 2566 3584 2833 3536 
Q 3100 3488 3366 3391 
z
" transform="scale(0.015625)"/>
     </defs>
     <use xlink:href="#DejaVuSans-Bold-4d"/>
     <use xlink:href="#DejaVuSans-Bold-65" transform="translate(99.511719 0)"/>
     <use xlink:href="#DejaVuSans-Bold-74" transform="translate(167.333984 0)"/>
     <use xlink:href="#DejaVuSans-Bold-61" transform="translate(215.136719 0)"/>
     <use xlink:href="#DejaVuSans-Bold-6d" transform="translate(282.617188 0)"/>
     <use xlink:href="#DejaVuSans-Bold-6f" transform="translate(386.816406 0)"/>
     <use xlink:href="#DejaVuSans-Bold-72" transform="translate(455.517578 0)"/>
     <use xlink:href="#DejaVuSans-Bold-70" transform="translate(504.833984 0)"/>
     <use xlink:href="#DejaVuSans-Bold-68" transform="translate(576.416016 0)"/>
     <use xlink:href="#DejaVuSans-Bold-69" transform="translate(647.607422 0)"/>
     <use xlink:href="#DejaVuSans-Bold-63" transform="translate(681.884766 0)"/>
    </g>
   </g>
   <g id="text_9">
    <!-- Magma -->
    <g style="fill: #2c3e50" transform="translate(518.487375 293.707667) scale(0.08 -0.08)">
     <use xlink:href="#DejaVuSans-Bold-4d"/>
     <use xlink:href="#DejaVuSans-Bold-61" transform="translate(99.511719 0)"/>
     <use xlink:href="#DejaVuSans-Bold-67" transform="translate(166.992188 0)"/>
     <use xlink:href="#DejaVuSans-Bold-6d" transform="translate(238.574219 0)"/>
     <use xlink:href="#DejaVuSans-Bold-61" transform="translate(342.773438 0)"/>
    </g>
   </g>
   <g id="patch_10">
    <path d="M 532.904808 167.787192 
Q 481.27567 172.290601 432.431045 176.551128 
" style="fill: none; stroke: #f39c12; stroke-width: 2.5; stroke-linecap: round"/>
    <path d="M 436.589707 178.195979 
L 432.431045 176.551128 
L 436.242122 174.211109 
" style="fill: none; stroke: #f39c12; stroke-width: 2.5; stroke-linecap: round"/>
   </g>
   <g id="text_10">
    <!-- weathering -->
    <g style="fill: #95a5a6" transform="translate(458.696795 172.290667) scale(0.08 -0.08)">
     <defs>
      <path id="DejaVuSans-77" d="M 269 3500 
L 844 3500 
L 1563 769 
L 2278 3500 
L 2956 3500 
L 3675 769 
L 4391 3500 
L 4966 3500 
L 4050 0 
L 3372 0 
L 2619 2869 
L 1863 0 
L 1184 0 
L 269 3500 
z
" transform="scale(0.015625)"/>
      <path id="DejaVuSans-67" d="M 2906 1791 
Q 2906 2416 2648 2759 
Q 2391 3103 1925 3103 
Q 1463 3103 1205 2759 
Q 947 2416 947 1791 
Q 947 1169 1205 825 
Q 1463 481 1925 481 
Q 2391 481 2648 825 
Q 2906 1169 2906 1791 
z
M 3481 434 
Q 3481 -459 3084 -895 
Q 2688 -1331 1869 -1331 
Q 1566 -1331 1297 -1286 
Q 1028 -1241 775 -1147 
L 775 -588 
Q 1028 -725 1275 -790 
Q 1522 -856 1778 -856 
Q 2344 -856 2625 -561 
Q 2906 -266 2906 331 
L 2906 616 
Q 2728 306 2450 153 
Q 2172 0 1784 0 
Q 1141 0 747 490 
Q 353 981 353 1791 
Q 353 2603 747 3093 
Q 1141 3584 1784 3584 
Q 2172 3584 2450 3431 
Q 2728 3278 2906 2969 
L 2906 3500 
L 3481 3500 
L 3481 434 
z
" transform="scale(0.015625)"/>
     </defs>
     <use xlink:href="#DejaVuSans-77"/>
     <use xlink:href="#DejaVuSans-65" transform="translate(81.787109 0)"/>
     <use xlink:href="#DejaVuSans-61" transform="translate(143.310547 0)"/>
     <use xlink:href="#DejaVuSans-74" transform="translate(204.589844 0)"/>
     <use xlink:href="#DejaVuSans-68" transform="translate(243.798828 0)"/>
     <use xlink:href="#DejaVuSans-65" transform="translate(307.177734 0)"/>
     <use xlink:href="#DejaVuSans-72" transform="translate(368.701172 0)"/>
     <use xlink:href="#DejaVuSans-69" transform="translate(409.814453 0)"/>
     <use xlink:href="#DejaVuSans-6e" transform="translate(437.597656 0)"/>
     <use xlink:href="#DejaVuSans-67" transform="translate(500.976562 0)"/>
    </g>
   </g>
   <g id="patch_11">
    <path d="M 429.553391 177.589993 
Q 534.899941 212.048635 637.589914 245.638315 
" style="fill: none; stroke: #f39c12; stroke-width: 2.5; stroke-linecap: round"/>
    <path d="M 634.409907 242.493867 
L 637.589914 245.638315 
L 633.166351 246.295652 
" style="fill: none; stroke: #f39c12; stroke-width: 2.5; stroke-linecap: round"/>
   </g>
   <g id="text_11">
    <!-- pressure/heat -->
    <g style="fill: #95a5a6" transform="translate(507.26175 212.048) scale(0.08 -0.08)">
     <defs>
      <path id="DejaVuSans-70" d="M 1159 525 
L 1159 -1331 
L 581 -1331 
L 581 3500 
L 1159 3500 
L 1159 2969 
Q 1341 3281 1617 3432 
Q 1894 3584 2278 3584 
Q 2916 3584 3314 3078 
Q 3713 2572 3713 1747 
Q 3713 922 3314 415 
Q 2916 -91 2278 -91 
Q 1894 -91 1617 61 
Q 1341 213 1159 525 
z
M 3116 1747 
Q 3116 2381 2855 2742 
Q 2594 3103 2138 3103 
Q 1681 3103 1420 2742 
Q 1159 2381 1159 1747 
Q 1159 1113 1420 752 
Q 1681 391 2138 391 
Q 2594 391 2855 752 
Q 3116 1113 3116 1747 
z
" transform="scale(0.015625)"/>
      <path id="DejaVuSans-2f" d="M 1625 4666 
L 2156 4666 
L 531 -594 
L 0 -594 
L 1625 4666 
z
" transform="scale(0.015625)"/>
     </defs>
     <use xlink:href="#DejaVuSans-70"/>
     <use xlink:href="#DejaVuSans-72" transform="translate(63.476562 0)"/>
     <use xlink:href="#DejaVuSans-65" transform="translate(102.339844 0)"/>
     <use xlink:href="#DejaVuSans-73" transform="translate(163.863281 0)"/>
     <use xlink:href="#DejaVuSans-73" transform="translate(215.962891 0)"/>
     <use xlink:href="#DejaVuSans-75" transform="translate(268.0625 0)"/>
     <use xlink:href="#DejaVuSans-72" transform="translate(331.441406 0)"/>
     <use xlink:href="#DejaVuSans-65" transform="translate(370.304688 0)"/>
     <use xlink:href="#DejaVuSans-2f" transform="translate(431.828125 0)"/>
     <use xlink:href="#DejaVuSans-68" transform="translate(465.519531 0)"/>
     <use xlink:href="#DejaVuSans-65" transform="translate(528.898438 0)"/>
     <use xlink:href="#DejaVuSans-61" transform="translate(590.421875 0)"/>
     <use xlink:href="#DejaVuSans-74" transform="translate(651.701172 0)"/>
    </g>
   </g>
   <g id="patch_12">
    <path d="M 640.150968 247.301858 
Q 588.52183 251.805268 539.677205 256.065795 
" style="fill: none; stroke: #f39c12; stroke-width: 2.5; stroke-linecap: round"/>
    <path d="M 543.835867 257.710645 
L 539.677205 256.065795 
L 543.488282 253.725776 
" style="fill: none; stroke: #f39c12; stroke-width: 2.5; stroke-linecap: round"/>
   </g>
   <g id="text_12">
    <!-- melting -->
    <g style="fill: #95a5a6" transform="translate(573.29858 251.805333) scale(0.08 -0.08)">
     <use xlink:href="#DejaVuSans-6d"/>
     <use xlink:href="#DejaVuSans-65" transform="translate(97.412109 0)"/>
     <use xlink:href="#DejaVuSans-6c" transform="translate(158.935547 0)"/>
     <use xlink:href="#DejaVuSans-74" transform="translate(186.71875 0)"/>
     <use xlink:href="#DejaVuSans-69" transform="translate(225.927734 0)"/>
     <use xlink:href="#DejaVuSans-6e" transform="translate(253.710938 0)"/>
     <use xlink:href="#DejaVuSans-67" transform="translate(317.089844 0)"/>
    </g>
   </g>
   <g id="patch_13">
    <path d="M 534.898 254.483866 
Q 534.898 212.049382 534.898 172.409982 
" style="fill: none; stroke: #f39c12; stroke-width: 2.5; stroke-linecap: round"/>
    <path d="M 532.898 176.409982 
L 534.898 172.409982 
L 536.898 176.409982 
" style="fill: none; stroke: #f39c12; stroke-width: 2.5; stroke-linecap: round"/>
   </g>
   <g id="text_13">
    <!-- cooling -->
    <g style="fill: #95a5a6" transform="translate(520.50675 212.048) scale(0.08 -0.08)">
     <use xlink:href="#DejaVuSans-63"/>
     <use xlink:href="#DejaVuSans-6f" transform="translate(54.980469 0)"/>
     <use xlink:href="#DejaVuSans-6f" transform="translate(116.162109 0)"/>
     <use xlink:href="#DejaVuSans-6c" transform="translate(177.34375 0)"/>
     <use xlink:href="#DejaVuSans-69" transform="translate(205.126953 0)"/>
     <use xlink:href="#DejaVuSans-6e" transform="translate(232.910156 0)"/>
     <use xlink:href="#DejaVuSans-67" transform="translate(296.289062 0)"/>
    </g>
   </g>
   <g id="text_14">
    <!-- Rock Cycle (schematic) -->
    <g transform="translate(464.901437 61.728) scale(0.12 -0.12)">
     <defs>
      <path id="DejaVuSans-52" d="M 2841 2188 
Q 3044 2119 3236 1894 
Q 3428 1669 3622 1275 
L 4263 0 
L 3584 0 
L 2988 1197 
Q 2756 1666 2539 1819 
Q 2322 1972 1947 1972 
L 1259 1972 
L 1259 0 
L 628 0 
L 628 4666 
L 2053 4666 
Q 2853 4666 3247 4331 
Q 3641 3997 3641 3322 
Q 3641 2881 3436 2590 
Q 3231 2300 2841 2188 
z
M 1259 4147 
L 1259 2491 
L 2053 2491 
Q 2509 2491 2742 2702 
Q 2975 2913 2975 3322 
Q 2975 3731 2742 3939 
Q 2509 4147 2053 4147 
L 1259 4147 
z
" transform="scale(0.015625)"/>
      <path id="DejaVuSans-6b" d="M 581 4863 
L 1159 4863 
L 1159 1991 
L 2875 3500 
L 3609 3500 
L 1753 1863 
L 3688 0 
L 2938 0 
L 1159 1709 
L 1159 0 
L 581 0 
L 581 4863 
z
" transform="scale(0.015625)"/>
      <path id="DejaVuSans-43" d="M 4122 4306 
L 4122 3641 
Q 3803 3938 3442 4084 
Q 3081 4231 2675 4231 
Q 1875 4231 1450 3742 
Q 1025 3253 1025 2328 
Q 1025 1406 1450 917 
Q 1875 428 2675 428 
Q 3081 428 3442 575 
Q 3803 722 4122 1019 
L 4122 359 
Q 3791 134 3420 21 
Q 3050 -91 2638 -91 
Q 1578 -91 968 557 
Q 359 1206 359 2328 
Q 359 3453 968 4101 
Q 1578 4750 2638 4750 
Q 3056 4750 3426 4639 
Q 3797 4528 4122 4306 
z
" transform="scale(0.015625)"/>
      <path id="DejaVuSans-79" d="M 2059 -325 
Q 1816 -950 1584 -1140 
Q 1353 -1331 966 -1331 
L 506 -1331 
L 506 -850 
L 844 -850 
Q 1081 -850 1212 -737 
Q 1344 -625 1503 -206 
L 1606 56 
L 191 3500 
L 800 3500 
L 1894 763 
L 2988 3500 
L 3597 3500 
L 2059 -325 
z
" transform="scale(0.015625)"/>
     </defs>
     <use xlink:href="#DejaVuSans-52"/>
     <use xlink:href="#DejaVuSans-6f" transform="translate(64.982422 0)"/>
     <use xlink:href="#DejaVuSans-63" transform="translate(126.164062 0)"/>
     <use xlink:href="#DejaVuSans-6b" transform="translate(181.144531 0)"/>
     <use xlink:href="#DejaVuSans-20" transform="translate(239.054688 0)"/>
     <use xlink:href="#DejaVuSans-43" transform="translate(270.841797 0)"/>
     <use xlink:href="#DejaVuSans-79" transform="translate(340.666016 0)"/>
     <use xlink:href="#DejaVuSans-63" transform="translate(399.845703 0)"/>
     <use xlink:href="#DejaVuSans-6c" transform="translate(454.826172 0)"/>
     <use xlink:href="#DejaVuSans-65" transform="translate(482.609375 0)"/>
     <use xlink:href="#DejaVuSans-20" transform="translate(544.132812 0)"/>
     <use xlink:href="#DejaVuSans-28" transform="translate(575.919922 0)"/>
     <use xlink:href="#DejaVuSans-73" transform="translate(614.933594 0)"/>
     <use xlink:href="#DejaVuSans-63" transform="translate(667.033203 0)"/>
     <use xlink:href="#DejaVuSans-68" transform="translate(722.013672 0)"/>
     <use xlink:href="#DejaVuSans-65" transform="translate(785.392578 0)"/>
     <use xlink:href="#DejaVuSans-6d" transform="translate(846.916016 0)"/>
     <use xlink:href="#DejaVuSans-61" transform="translate(944.328125 0)"/>
     <use xlink:href="#DejaVuSans-74" transform="translate(1005.607422 0)"/>
     <use xlink:href="#DejaVuSans-69" transform="translate(1044.816406 0)"/>
     <use xlink:href="#DejaVuSans-63" transform="translate(1072.599609 0)"/>
     <use xlink:href="#DejaVuSans-29" transform="translate(1127.580078 0)"/>
    </g>
   </g>
  </g>
  <g id="text_15">
   <!-- Geology: Interior and Cycling -->
   <g transform="translate(239.500094 17.837812) scale(0.14 -0.14)">
    <defs>
     <path id="DejaVuSans-47" d="M 3809 666 
L 3809 1919 
L 2778 1919 
L 2778 2438 
L 4434 2438 
L 4434 434 
Q 4069 175 3628 42 
Q 3188 -91 2688 -91 
Q 1594 -91 976 548 
Q 359 1188 359 2328 
Q 359 3472 976 4111 
Q 1594 4750 2688 4750 
Q 3144 4750 3555 4637 
Q 3966 4525 4313 4306 
L 4313 3634 
Q 3963 3931 3569 4081 
Q 3175 4231 2741 4231 
Q 1884 4231 1454 3753 
Q 1025 3275 1025 2328 
Q 1025 1384 1454 906 
Q 1884 428 2741 428 
Q 3075 428 3337 486 
Q 3600 544 3809 666 
z
" transform="scale(0.015625)"/>
     <path id="DejaVuSans-3a" d="M 750 794 
L 1409 794 
L 1409 0 
L 750 0 
L 750 794 
z
M 750 3309 
L 1409 3309 
L 1409 2516 
L 750 2516 
L 750 3309 
z
" transform="scale(0.015625)"/>
     <path id="DejaVuSans-64" d="M 2906 2969 
L 2906 4863 
L 3481 4863 
L 3481 0 
L 2906 0 
L 2906 525 
Q 2725 213 2448 61 
Q 2172 -91 1784 -91 
Q 1150 -91 751 415 
Q 353 922 353 1747 
Q 353 2572 751 3078 
Q 1150 3584 1784 3584 
Q 2172 3584 2448 3432 
Q 2725 3281 2906 2969 
z
M 947 1747 
Q 947 1113 1208 752 
Q 1469 391 1925 391 
Q 2381 391 2643 752 
Q 2906 1113 2906 1747 
Q 2906 2381 2643 2742 
Q 2381 3103 1925 3103 
Q 1469 3103 1208 2742 
Q 947 2381 947 1747 
z
" transform="scale(0.015625)"/>
    </defs>
    <use xlink:href="#DejaVuSans-47"/>
    <use xlink:href="#DejaVuSans-65" transform="translate(77.490234 0)"/>
    <use xlink:href="#DejaVuSans-6f" transform="translate(139.013672 0)"/>
    <use xlink:href="#DejaVuSans-6c" transform="translate(200.195312 0)"/>
    <use xlink:href="#DejaVuSans-6f" transform="translate(227.978516 0)"/>
    <use xlink:href="#DejaVuSans-67" transform="translate(289.160156 0)"/>
    <use xlink:href="#DejaVuSans-79" transform="translate(352.636719 0)"/>
    <use xlink:href="#DejaVuSans-3a" transform="translate(404.566406 0)"/>
    <use xlink:href="#DejaVuSans-20" transform="translate(438.257812 0)"/>
    <use xlink:href="#DejaVuSans-49" transform="translate(470.044922 0)"/>
    <use xlink:href="#DejaVuSans-6e" transform="translate(499.537109 0)"/>
    <use xlink:href="#DejaVuSans-74" transform="translate(562.916016 0)"/>
    <use xlink:href="#DejaVuSans-65" transform="translate(602.125 0)"/>
    <use xlink:href="#DejaVuSans-72" transform="translate(663.648438 0)"/>
    <use xlink:href="#DejaVuSans-69" transform="translate(704.761719 0)"/>
    <use xlink:href="#DejaVuSans-6f" transform="translate(732.544922 0)"/>
    <use xlink:href="#DejaVuSans-72" transform="translate(793.726562 0)"/>
    <use xlink:href="#DejaVuSans-20" transform="translate(834.839844 0)"/>
    <use xlink:href="#DejaVuSans-61" transform="translate(866.626953 0)"/>
    <use xlink:href="#DejaVuSans-6e" transform="translate(927.90625 0)"/>
    <use xlink:href="#DejaVuSans-64" transform="translate(991.285156 0)"/>
    <use xlink:href="#DejaVuSans-20" transform="translate(1054.761719 0)"/>
    <use xlink:href="#DejaVuSans-43" transform="translate(1086.548828 0)"/>
    <use xlink:href="#DejaVuSans-79" transform="translate(1156.373047 0)"/>
    <use xlink:href="#DejaVuSans-63" transform="translate(1215.552734 0)"/>
    <use xlink:href="#DejaVuSans-6c" transform="translate(1270.533203 0)"/>
    <use xlink:href="#DejaVuSans-69" transform="translate(1298.316406 0)"/>
    <use xlink:href="#DejaVuSans-6e" transform="translate(1326.099609 0)"/>
    <use xlink:href="#DejaVuSans-67" transform="translate(1389.478516 0)"/>
   </g>
  </g>
 </g>
 <defs>
  <clipPath id="pd40f3c5eb6">
   <rect x="7.2" y="71.728" width="280.64" height="280.64"/>
  </clipPath>
  <clipPath id="p35bf40bb44">
   <rect x="343.387" y="71.728" width="383.022" height="280.64"/>
  </clipPath>
 </defs>
</svg>
