<?xml version="1.0" encoding="utf-8" standalone="no"?>
<!DOCTYPE svg PUBLIC "-//W3C//DTD SVG 1.1//EN"
  "http://www.w3.org/Graphics/SVG/1.1/DTD/svg11.dtd">
<svg xmlns:xlink="http://www.w3.org/1999/xlink" width="371.931429pt" height="352.877812pt" viewBox="0 0 371.931429 352.877812" xmlns="http://www.w3.org/2000/svg" version="1.1">
 <metadata>
  <rdf:RDF xmlns:dc="http://purl.org/dc/elements/1.1/" xmlns:cc="http://creativecommons.org/ns#" xmlns:rdf="http://www.w3.org/1999/02/22-rdf-syntax-ns#">
   <cc:Work>
    <dc:type rdf:resource="http://purl.org/dc/dcmitype/StillImage"/>
    <dc:date>2026-01-02T18:08:09.204509</dc:date>
    <dc:format>image/svg+xml</dc:format>
    <dc:creator>
     <cc:Agent>
      <dc:title>Matplotlib v3.10.8, https://matplotlib.org/</dc:title>
     </cc:Agent>
    </dc:creator>
   </cc:Work>
  </rdf:RDF>
 </metadata>
 <defs>
  <style type="text/css">*{stroke-linejoin: round; stroke-linecap: butt}</style>
 </defs>
 <g id="figure_1">
  <g id="patch_1">
   <path d="M 0 352.877812 
L 371.931429 352.877812 
L 371.931429 0 
L 0 0 
z
" style="fill: #ffffff"/>
  </g>
  <g id="axes_1">
   <g id="patch_2">
    <path d="M 185.965714 166.912098 
C 193.077098 166.912098 199.898174 164.086716 204.926682 159.058208 
C 209.955189 154.029701 212.780571 147.208624 212.780571 140.097241 
C 212.780571 132.985858 209.955189 126.164781 204.926682 121.136274 
C 199.898174 116.107766 193.077098 113.282384 185.965714 113.282384 
C 178.854331 113.282384 172.033254 116.107766 167.004747 121.136274 
C 161.97624 126.164781 159.150857 132.985858 159.150857 140.097241 
C 159.150857 147.208624 161.97624 154.029701 167.004747 159.058208 
C 172.033254 164.086716 178.854331 166.912098 185.965714 166.912098 
z
" clip-path="url(#pf472899a04)" style="fill: #3498db; opacity: 0.9; stroke: #3498db; stroke-width: 1.5; stroke-linejoin: miter"/>
   </g>
   <g id="patch_3">
    <path d="M 102.222949 218.430991 
C 109.334332 218.430991 116.155409 215.605609 121.183916 210.577102 
C 126.212423 205.548594 129.037806 198.727517 129.037806 191.616134 
C 129.037806 184.504751 126.212423 177.683674 121.183916 172.655167 
C 116.155409 167.62666 109.334332 164.801277 102.222949 164.801277 
C 95.111565 164.801277 88.290489 167.62666 83.261981 172.655167 
C 78.233474 177.683674 75.408092 184.504751 75.408092 191.616134 
C 75.408092 198.727517 78.233474 205.548594 83.261981 210.577102 
C 88.290489 215.605609 95.111565 218.430991 102.222949 218.430991 
z
" clip-path="url(#pf472899a04)" style="fill: #3498db; opacity: 0.9; stroke: #3498db; stroke-width: 1.5; stroke-linejoin: miter"/>
   </g>
   <g id="patch_4">
    <path d="M 269.70848 218.430991 
C 276.819863 218.430991 283.64094 215.605609 288.669447 210.577102 
C 293.697954 205.548594 296.523337 198.727517 296.523337 191.616134 
C 296.523337 184.504751 293.697954 177.683674 288.669447 172.655167 
C 283.64094 167.62666 276.819863 164.801277 269.70848 164.801277 
C 262.597097 164.801277 255.77602 167.62666 250.747513 172.655167 
C 245.719005 177.683674 242.893623 184.504751 242.893623 191.616134 
C 242.893623 198.727517 245.719005 205.548594 250.747513 210.577102 
C 255.77602 215.605609 262.597097 218.430991 269.70848 218.430991 
z
" clip-path="url(#pf472899a04)" style="fill: #3498db; opacity: 0.9; stroke: #3498db; stroke-width: 1.5; stroke-linejoin: miter"/>
   </g>
   <g id="patch_5">
    <path d="M 159.320289 156.489616 
C 162.119984 161.040456 166.039426 164.799065 170.703513 167.405735 
C 175.3676 170.012405 180.622641 171.381241 185.965714 171.381241 
C 191.308788 171.381241 196.563829 170.012405 201.227916 167.405735 
C 205.892003 164.799065 209.811444 161.040456 212.61114 156.489616 
" clip-path="url(#pf472899a04)" style="fill: none; stroke: #f39c12; stroke-linejoin: miter"/>
   </g>
   <g id="line2d_1">
    <path d="M 185.965714 166.912098 
L 127.345778 155.862991 
" clip-path="url(#pf472899a04)" style="fill: none; stroke: #2ecc71; stroke-width: 2.5; stroke-linecap: square"/>
   </g>
   <g id="line2d_2">
    <path d="M 185.965714 166.912098 
L 244.58565 155.862991 
" clip-path="url(#pf472899a04)" style="fill: none; stroke: #2ecc71; stroke-width: 2.5; stroke-linecap: square"/>
   </g>
   <g id="text_1">
    <!-- O -->
    <g style="fill: #ffffff" transform="translate(181.242589 143.408491) scale(0.12 -0.12)">
     <defs>
      <path id="DejaVuSans-4f" d="M 2522 4238 
Q 1834 4238 1429 3725 
Q 1025 3213 1025 2328 
Q 1025 1447 1429 934 
Q 1834 422 2522 422 
Q 3209 422 3611 934 
Q 4013 1447 4013 2328 
Q 4013 3213 3611 3725 
Q 3209 4238 2522 4238 
z
M 2522 4750 
Q 3503 4750 4090 4092 
Q 4678 3434 4678 2328 
Q 4678 1225 4090 567 
Q 3503 -91 2522 -91 
Q 1538 -91 948 565 
Q 359 1222 359 2328 
Q 359 3434 948 4092 
Q 1538 4750 2522 4750 
z
" transform="scale(0.015625)"/>
     </defs>
     <use xlink:href="#DejaVuSans-4f"/>
    </g>
   </g>
   <g id="text_2">
    <!-- O -->
    <g style="fill: #ffffff" transform="translate(97.499824 194.927384) scale(0.12 -0.12)">
     <use xlink:href="#DejaVuSans-4f"/>
    </g>
   </g>
   <g id="text_3">
    <!-- O -->
    <g style="fill: #ffffff" transform="translate(264.985355 194.927384) scale(0.12 -0.12)">
     <use xlink:href="#DejaVuSans-4f"/>
    </g>
   </g>
   <g id="text_4">
    <!-- 116.8° -->
    <g style="fill: #f39c12" transform="translate(172.514464 193.726955) scale(0.08 -0.08)">
     <defs>
      <path id="DejaVuSans-31" d="M 794 531 
L 1825 531 
L 1825 4091 
L 703 3866 
L 703 4441 
L 1819 4666 
L 2450 4666 
L 2450 531 
L 3481 531 
L 3481 0 
L 794 0 
L 794 531 
z
" transform="scale(0.015625)"/>
      <path id="DejaVuSans-36" d="M 2113 2584 
Q 1688 2584 1439 2293 
Q 1191 2003 1191 1497 
Q 1191 994 1439 701 
Q 1688 409 2113 409 
Q 2538 409 2786 701 
Q 3034 994 3034 1497 
Q 3034 2003 2786 2293 
Q 2538 2584 2113 2584 
z
M 3366 4563 
L 3366 3988 
Q 3128 4100 2886 4159 
Q 2644 4219 2406 4219 
Q 1781 4219 1451 3797 
Q 1122 3375 1075 2522 
Q 1259 2794 1537 2939 
Q 1816 3084 2150 3084 
Q 2853 3084 3261 2657 
Q 3669 2231 3669 1497 
Q 3669 778 3244 343 
Q 2819 -91 2113 -91 
Q 1303 -91 875 529 
Q 447 1150 447 2328 
Q 447 3434 972 4092 
Q 1497 4750 2381 4750 
Q 2619 4750 2861 4703 
Q 3103 4656 3366 4563 
z
" transform="scale(0.015625)"/>
      <path id="DejaVuSans-2e" d="M 684 794 
L 1344 794 
L 1344 0 
L 684 0 
L 684 794 
z
" transform="scale(0.015625)"/>
      <path id="DejaVuSans-38" d="M 2034 2216 
Q 1584 2216 1326 1975 
Q 1069 1734 1069 1313 
Q 1069 891 1326 650 
Q 1584 409 2034 409 
Q 2484 409 2743 651 
Q 3003 894 3003 1313 
Q 3003 1734 2745 1975 
Q 2488 2216 2034 2216 
z
M 1403 2484 
Q 997 2584 770 2862 
Q 544 3141 544 3541 
Q 544 4100 942 4425 
Q 1341 4750 2034 4750 
Q 2731 4750 3128 4425 
Q 3525 4100 3525 3541 
Q 3525 3141 3298 2862 
Q 3072 2584 2669 2484 
Q 3125 2378 3379 2068 
Q 3634 1759 3634 1313 
Q 3634 634 3220 271 
Q 2806 -91 2034 -91 
Q 1263 -91 848 271 
Q 434 634 434 1313 
Q 434 1759 690 2068 
Q 947 2378 1403 2484 
z
M 1172 3481 
Q 1172 3119 1398 2916 
Q 1625 2713 2034 2713 
Q 2441 2713 2670 2916 
Q 2900 3119 2900 3481 
Q 2900 3844 2670 4047 
Q 2441 4250 2034 4250 
Q 1625 4250 1398 4047 
Q 1172 3844 1172 3481 
z
" transform="scale(0.015625)"/>
      <path id="DejaVuSans-b0" d="M 1600 4347 
Q 1350 4347 1178 4173 
Q 1006 4000 1006 3750 
Q 1006 3503 1178 3333 
Q 1350 3163 1600 3163 
Q 1850 3163 2022 3333 
Q 2194 3503 2194 3750 
Q 2194 3997 2020 4172 
Q 1847 4347 1600 4347 
z
M 1600 4750 
Q 1800 4750 1984 4673 
Q 2169 4597 2303 4453 
Q 2447 4313 2519 4134 
Q 2591 3956 2591 3750 
Q 2591 3338 2302 3052 
Q 2013 2766 1594 2766 
Q 1172 2766 890 3047 
Q 609 3328 609 3750 
Q 609 4169 896 4459 
Q 1184 4750 1600 4750 
z
" transform="scale(0.015625)"/>
     </defs>
     <use xlink:href="#DejaVuSans-31"/>
     <use xlink:href="#DejaVuSans-31" transform="translate(63.623047 0)"/>
     <use xlink:href="#DejaVuSans-36" transform="translate(127.246094 0)"/>
     <use xlink:href="#DejaVuSans-2e" transform="translate(190.869141 0)"/>
     <use xlink:href="#DejaVuSans-38" transform="translate(222.65625 0)"/>
     <use xlink:href="#DejaVuSans-b0" transform="translate(286.279297 0)"/>
    </g>
   </g>
   <g id="text_5">
    <!-- Bent geometry (resonance structure) -->
    <g transform="translate(92.831339 318.862955) scale(0.1 -0.1)">
     <defs>
      <path id="DejaVuSans-42" d="M 1259 2228 
L 1259 519 
L 2272 519 
Q 2781 519 3026 730 
Q 3272 941 3272 1375 
Q 3272 1813 3026 2020 
Q 2781 2228 2272 2228 
L 1259 2228 
z
M 1259 4147 
L 1259 2741 
L 2194 2741 
Q 2656 2741 2882 2914 
Q 3109 3088 3109 3444 
Q 3109 3797 2882 3972 
Q 2656 4147 2194 4147 
L 1259 4147 
z
M 628 4666 
L 2241 4666 
Q 2963 4666 3353 4366 
Q 3744 4066 3744 3513 
Q 3744 3084 3544 2831 
Q 3344 2578 2956 2516 
Q 3422 2416 3680 2098 
Q 3938 1781 3938 1306 
Q 3938 681 3513 340 
Q 3088 0 2303 0 
L 628 0 
L 628 4666 
z
" transform="scale(0.015625)"/>
      <path id="DejaVuSans-65" d="M 3597 1894 
L 3597 1613 
L 953 1613 
Q 991 1019 1311 708 
Q 1631 397 2203 397 
Q 2534 397 2845 478 
Q 3156 559 3463 722 
L 3463 178 
Q 3153 47 2828 -22 
Q 2503 -91 2169 -91 
Q 1331 -91 842 396 
Q 353 884 353 1716 
Q 353 2575 817 3079 
Q 1281 3584 2069 3584 
Q 2775 3584 3186 3129 
Q 3597 2675 3597 1894 
z
M 3022 2063 
Q 3016 2534 2758 2815 
Q 2500 3097 2075 3097 
Q 1594 3097 1305 2825 
Q 1016 2553 972 2059 
L 3022 2063 
z
" transform="scale(0.015625)"/>
      <path id="DejaVuSans-6e" d="M 3513 2113 
L 3513 0 
L 2938 0 
L 2938 2094 
Q 2938 2591 2744 2837 
Q 2550 3084 2163 3084 
Q 1697 3084 1428 2787 
Q 1159 2491 1159 1978 
L 1159 0 
L 581 0 
L 581 3500 
L 1159 3500 
L 1159 2956 
Q 1366 3272 1645 3428 
Q 1925 3584 2291 3584 
Q 2894 3584 3203 3211 
Q 3513 2838 3513 2113 
z
" transform="scale(0.015625)"/>
      <path id="DejaVuSans-74" d="M 1172 4494 
L 1172 3500 
L 2356 3500 
L 2356 3053 
L 1172 3053 
L 1172 1153 
Q 1172 725 1289 603 
Q 1406 481 1766 481 
L 2356 481 
L 2356 0 
L 1766 0 
Q 1100 0 847 248 
Q 594 497 594 1153 
L 594 3053 
L 172 3053 
L 172 3500 
L 594 3500 
L 594 4494 
L 1172 4494 
z
" transform="scale(0.015625)"/>
      <path id="DejaVuSans-20" transform="scale(0.015625)"/>
      <path id="DejaVuSans-67" d="M 2906 1791 
Q 2906 2416 2648 2759 
Q 2391 3103 1925 3103 
Q 1463 3103 1205 2759 
Q 947 2416 947 1791 
Q 947 1169 1205 825 
Q 1463 481 1925 481 
Q 2391 481 2648 825 
Q 2906 1169 2906 1791 
z
M 3481 434 
Q 3481 -459 3084 -895 
Q 2688 -1331 1869 -1331 
Q 1566 -1331 1297 -1286 
Q 1028 -1241 775 -1147 
L 775 -588 
Q 1028 -725 1275 -790 
Q 1522 -856 1778 -856 
Q 2344 -856 2625 -561 
Q 2906 -266 2906 331 
L 2906 616 
Q 2728 306 2450 153 
Q 2172 0 1784 0 
Q 1141 0 747 490 
Q 353 981 353 1791 
Q 353 2603 747 3093 
Q 1141 3584 1784 3584 
Q 2172 3584 2450 3431 
Q 2728 3278 2906 2969 
L 2906 3500 
L 3481 3500 
L 3481 434 
z
" transform="scale(0.015625)"/>
      <path id="DejaVuSans-6f" d="M 1959 3097 
Q 1497 3097 1228 2736 
Q 959 2375 959 1747 
Q 959 1119 1226 758 
Q 1494 397 1959 397 
Q 2419 397 2687 759 
Q 2956 1122 2956 1747 
Q 2956 2369 2687 2733 
Q 2419 3097 1959 3097 
z
M 1959 3584 
Q 2709 3584 3137 3096 
Q 3566 2609 3566 1747 
Q 3566 888 3137 398 
Q 2709 -91 1959 -91 
Q 1206 -91 779 398 
Q 353 888 353 1747 
Q 353 2609 779 3096 
Q 1206 3584 1959 3584 
z
" transform="scale(0.015625)"/>
      <path id="DejaVuSans-6d" d="M 3328 2828 
Q 3544 3216 3844 3400 
Q 4144 3584 4550 3584 
Q 5097 3584 5394 3201 
Q 5691 2819 5691 2113 
L 5691 0 
L 5113 0 
L 5113 2094 
Q 5113 2597 4934 2840 
Q 4756 3084 4391 3084 
Q 3944 3084 3684 2787 
Q 3425 2491 3425 1978 
L 3425 0 
L 2847 0 
L 2847 2094 
Q 2847 2600 2669 2842 
Q 2491 3084 2119 3084 
Q 1678 3084 1418 2786 
Q 1159 2488 1159 1978 
L 1159 0 
L 581 0 
L 581 3500 
L 1159 3500 
L 1159 2956 
Q 1356 3278 1631 3431 
Q 1906 3584 2284 3584 
Q 2666 3584 2933 3390 
Q 3200 3197 3328 2828 
z
" transform="scale(0.015625)"/>
      <path id="DejaVuSans-72" d="M 2631 2963 
Q 2534 3019 2420 3045 
Q 2306 3072 2169 3072 
Q 1681 3072 1420 2755 
Q 1159 2438 1159 1844 
L 1159 0 
L 581 0 
L 581 3500 
L 1159 3500 
L 1159 2956 
Q 1341 3275 1631 3429 
Q 1922 3584 2338 3584 
Q 2397 3584 2469 3576 
Q 2541 3569 2628 3553 
L 2631 2963 
z
" transform="scale(0.015625)"/>
      <path id="DejaVuSans-79" d="M 2059 -325 
Q 1816 -950 1584 -1140 
Q 1353 -1331 966 -1331 
L 506 -1331 
L 506 -850 
L 844 -850 
Q 1081 -850 1212 -737 
Q 1344 -625 1503 -206 
L 1606 56 
L 191 3500 
L 800 3500 
L 1894 763 
L 2988 3500 
L 3597 3500 
L 2059 -325 
z
" transform="scale(0.015625)"/>
      <path id="DejaVuSans-28" d="M 1984 4856 
Q 1566 4138 1362 3434 
Q 1159 2731 1159 2009 
Q 1159 1288 1364 580 
Q 1569 -128 1984 -844 
L 1484 -844 
Q 1016 -109 783 600 
Q 550 1309 550 2009 
Q 550 2706 781 3412 
Q 1013 4119 1484 4856 
L 1984 4856 
z
" transform="scale(0.015625)"/>
      <path id="DejaVuSans-73" d="M 2834 3397 
L 2834 2853 
Q 2591 2978 2328 3040 
Q 2066 3103 1784 3103 
Q 1356 3103 1142 2972 
Q 928 2841 928 2578 
Q 928 2378 1081 2264 
Q 1234 2150 1697 2047 
L 1894 2003 
Q 2506 1872 2764 1633 
Q 3022 1394 3022 966 
Q 3022 478 2636 193 
Q 2250 -91 1575 -91 
Q 1294 -91 989 -36 
Q 684 19 347 128 
L 347 722 
Q 666 556 975 473 
Q 1284 391 1588 391 
Q 1994 391 2212 530 
Q 2431 669 2431 922 
Q 2431 1156 2273 1281 
Q 2116 1406 1581 1522 
L 1381 1569 
Q 847 1681 609 1914 
Q 372 2147 372 2553 
Q 372 3047 722 3315 
Q 1072 3584 1716 3584 
Q 2034 3584 2315 3537 
Q 2597 3491 2834 3397 
z
" transform="scale(0.015625)"/>
      <path id="DejaVuSans-61" d="M 2194 1759 
Q 1497 1759 1228 1600 
Q 959 1441 959 1056 
Q 959 750 1161 570 
Q 1363 391 1709 391 
Q 2188 391 2477 730 
Q 2766 1069 2766 1631 
L 2766 1759 
L 2194 1759 
z
M 3341 1997 
L 3341 0 
L 2766 0 
L 2766 531 
Q 2569 213 2275 61 
Q 1981 -91 1556 -91 
Q 1019 -91 701 211 
Q 384 513 384 1019 
Q 384 1609 779 1909 
Q 1175 2209 1959 2209 
L 2766 2209 
L 2766 2266 
Q 2766 2663 2505 2880 
Q 2244 3097 1772 3097 
Q 1472 3097 1187 3025 
Q 903 2953 641 2809 
L 641 3341 
Q 956 3463 1253 3523 
Q 1550 3584 1831 3584 
Q 2591 3584 2966 3190 
Q 3341 2797 3341 1997 
z
" transform="scale(0.015625)"/>
      <path id="DejaVuSans-63" d="M 3122 3366 
L 3122 2828 
Q 2878 2963 2633 3030 
Q 2388 3097 2138 3097 
Q 1578 3097 1268 2742 
Q 959 2388 959 1747 
Q 959 1106 1268 751 
Q 1578 397 2138 397 
Q 2388 397 2633 464 
Q 2878 531 3122 666 
L 3122 134 
Q 2881 22 2623 -34 
Q 2366 -91 2075 -91 
Q 1284 -91 818 406 
Q 353 903 353 1747 
Q 353 2603 823 3093 
Q 1294 3584 2113 3584 
Q 2378 3584 2631 3529 
Q 2884 3475 3122 3366 
z
" transform="scale(0.015625)"/>
      <path id="DejaVuSans-75" d="M 544 1381 
L 544 3500 
L 1119 3500 
L 1119 1403 
Q 1119 906 1312 657 
Q 1506 409 1894 409 
Q 2359 409 2629 706 
Q 2900 1003 2900 1516 
L 2900 3500 
L 3475 3500 
L 3475 0 
L 2900 0 
L 2900 538 
Q 2691 219 2414 64 
Q 2138 -91 1772 -91 
Q 1169 -91 856 284 
Q 544 659 544 1381 
z
M 1991 3584 
L 1991 3584 
z
" transform="scale(0.015625)"/>
      <path id="DejaVuSans-29" d="M 513 4856 
L 1013 4856 
Q 1481 4119 1714 3412 
Q 1947 2706 1947 2009 
Q 1947 1309 1714 600 
Q 1481 -109 1013 -844 
L 513 -844 
Q 928 -128 1133 580 
Q 1338 1288 1338 2009 
Q 1338 2731 1133 3434 
Q 928 4138 513 4856 
z
" transform="scale(0.015625)"/>
     </defs>
     <use xlink:href="#DejaVuSans-42"/>
     <use xlink:href="#DejaVuSans-65" transform="translate(68.603516 0)"/>
     <use xlink:href="#DejaVuSans-6e" transform="translate(130.126953 0)"/>
     <use xlink:href="#DejaVuSans-74" transform="translate(193.505859 0)"/>
     <use xlink:href="#DejaVuSans-20" transform="translate(232.714844 0)"/>
     <use xlink:href="#DejaVuSans-67" transform="translate(264.501953 0)"/>
     <use xlink:href="#DejaVuSans-65" transform="translate(327.978516 0)"/>
     <use xlink:href="#DejaVuSans-6f" transform="translate(389.501953 0)"/>
     <use xlink:href="#DejaVuSans-6d" transform="translate(450.683594 0)"/>
     <use xlink:href="#DejaVuSans-65" transform="translate(548.095703 0)"/>
     <use xlink:href="#DejaVuSans-74" transform="translate(609.619141 0)"/>
     <use xlink:href="#DejaVuSans-72" transform="translate(648.828125 0)"/>
     <use xlink:href="#DejaVuSans-79" transform="translate(689.941406 0)"/>
     <use xlink:href="#DejaVuSans-20" transform="translate(749.121094 0)"/>
     <use xlink:href="#DejaVuSans-28" transform="translate(780.908203 0)"/>
     <use xlink:href="#DejaVuSans-72" transform="translate(819.921875 0)"/>
     <use xlink:href="#DejaVuSans-65" transform="translate(858.785156 0)"/>
     <use xlink:href="#DejaVuSans-73" transform="translate(920.308594 0)"/>
     <use xlink:href="#DejaVuSans-6f" transform="translate(972.408203 0)"/>
     <use xlink:href="#DejaVuSans-6e" transform="translate(1033.589844 0)"/>
     <use xlink:href="#DejaVuSans-61" transform="translate(1096.96875 0)"/>
     <use xlink:href="#DejaVuSans-6e" transform="translate(1158.248047 0)"/>
     <use xlink:href="#DejaVuSans-63" transform="translate(1221.626953 0)"/>
     <use xlink:href="#DejaVuSans-65" transform="translate(1276.607422 0)"/>
     <use xlink:href="#DejaVuSans-20" transform="translate(1338.130859 0)"/>
     <use xlink:href="#DejaVuSans-73" transform="translate(1369.917969 0)"/>
     <use xlink:href="#DejaVuSans-74" transform="translate(1422.017578 0)"/>
     <use xlink:href="#DejaVuSans-72" transform="translate(1461.226562 0)"/>
     <use xlink:href="#DejaVuSans-75" transform="translate(1502.339844 0)"/>
     <use xlink:href="#DejaVuSans-63" transform="translate(1565.71875 0)"/>
     <use xlink:href="#DejaVuSans-74" transform="translate(1620.699219 0)"/>
     <use xlink:href="#DejaVuSans-75" transform="translate(1659.908203 0)"/>
     <use xlink:href="#DejaVuSans-72" transform="translate(1723.287109 0)"/>
     <use xlink:href="#DejaVuSans-65" transform="translate(1762.150391 0)"/>
     <use xlink:href="#DejaVuSans-29" transform="translate(1823.673828 0)"/>
    </g>
   </g>
   <g id="text_6">
    <!-- Ozone (O₃) Geometry -->
    <g transform="translate(110.621652 17.837812) scale(0.14 -0.14)">
     <defs>
      <path id="DejaVuSans-7a" d="M 353 3500 
L 3084 3500 
L 3084 2975 
L 922 459 
L 3084 459 
L 3084 0 
L 275 0 
L 275 525 
L 2438 3041 
L 353 3041 
L 353 3500 
z
" transform="scale(0.015625)"/>
      <path id="DejaVuSans-2083" d="M 1638 1388 
Q 1925 1332 2083 1161 
Q 2241 991 2241 735 
Q 2241 347 1944 138 
Q 1647 -71 1094 -71 
Q 916 -71 720 -38 
Q 525 -6 306 57 
L 306 435 
Q 469 351 655 310 
Q 841 269 1050 269 
Q 1391 269 1578 392 
Q 1766 516 1766 735 
Q 1766 966 1592 1085 
Q 1419 1204 1081 1204 
L 813 1204 
L 813 1541 
L 1106 1541 
Q 1400 1541 1551 1639 
Q 1703 1738 1703 1926 
Q 1703 2107 1547 2202 
Q 1391 2297 1094 2297 
Q 969 2297 809 2269 
Q 650 2241 397 2169 
L 397 2529 
Q 625 2582 825 2610 
Q 1025 2638 1197 2638 
Q 1647 2638 1911 2453 
Q 2175 2269 2175 1960 
Q 2175 1744 2034 1594 
Q 1894 1444 1638 1388 
z
" transform="scale(0.015625)"/>
      <path id="DejaVuSans-47" d="M 3809 666 
L 3809 1919 
L 2778 1919 
L 2778 2438 
L 4434 2438 
L 4434 434 
Q 4069 175 3628 42 
Q 3188 -91 2688 -91 
Q 1594 -91 976 548 
Q 359 1188 359 2328 
Q 359 3472 976 4111 
Q 1594 4750 2688 4750 
Q 3144 4750 3555 4637 
Q 3966 4525 4313 4306 
L 4313 3634 
Q 3963 3931 3569 4081 
Q 3175 4231 2741 4231 
Q 1884 4231 1454 3753 
Q 1025 3275 1025 2328 
Q 1025 1384 1454 906 
Q 1884 428 2741 428 
Q 3075 428 3337 486 
Q 3600 544 3809 666 
z
" transform="scale(0.015625)"/>
     </defs>
     <use xlink:href="#DejaVuSans-4f"/>
     <use xlink:href="#DejaVuSans-7a" transform="translate(78.710938 0)"/>
     <use xlink:href="#DejaVuSans-6f" transform="translate(131.201172 0)"/>
     <use xlink:href="#DejaVuSans-6e" transform="translate(192.382812 0)"/>
     <use xlink:href="#DejaVuSans-65" transform="translate(255.761719 0)"/>
     <use xlink:href="#DejaVuSans-20" transform="translate(317.285156 0)"/>
     <use xlink:href="#DejaVuSans-28" transform="translate(349.072266 0)"/>
     <use xlink:href="#DejaVuSans-4f" transform="translate(388.085938 0)"/>
     <use xlink:href="#DejaVuSans-2083" transform="translate(466.796875 0)"/>
     <use xlink:href="#DejaVuSans-29" transform="translate(506.884766 0)"/>
     <use xlink:href="#DejaVuSans-20" transform="translate(545.898438 0)"/>
     <use xlink:href="#DejaVuSans-47" transform="translate(577.685547 0)"/>
     <use xlink:href="#DejaVuSans-65" transform="translate(655.175781 0)"/>
     <use xlink:href="#DejaVuSans-6f" transform="translate(716.699219 0)"/>
     <use xlink:href="#DejaVuSans-6d" transform="translate(777.880859 0)"/>
     <use xlink:href="#DejaVuSans-65" transform="translate(875.292969 0)"/>
     <use xlink:href="#DejaVuSans-74" transform="translate(936.816406 0)"/>
     <use xlink:href="#DejaVuSans-72" transform="translate(976.025391 0)"/>
     <use xlink:href="#DejaVuSans-79" transform="translate(1017.138672 0)"/>
    </g>
   </g>
  </g>
 </g>
 <defs>
  <clipPath id="pf472899a04">
   <rect x="7.2" y="32.837812" width="357.531429" height="312.84"/>
  </clipPath>
 </defs>
</svg>
