<?xml version="1.0" encoding="utf-8" standalone="no"?>
<!DOCTYPE svg PUBLIC "-//W3C//DTD SVG 1.1//EN"
  "http://www.w3.org/Graphics/SVG/1.1/DTD/svg11.dtd">
<svg xmlns:xlink="http://www.w3.org/1999/xlink" width="399.24pt" height="424.877812pt" viewBox="0 0 399.24 424.877812" xmlns="http://www.w3.org/2000/svg" version="1.1">
 <metadata>
  <rdf:RDF xmlns:dc="http://purl.org/dc/elements/1.1/" xmlns:cc="http://creativecommons.org/ns#" xmlns:rdf="http://www.w3.org/1999/02/22-rdf-syntax-ns#">
   <cc:Work>
    <dc:type rdf:resource="http://purl.org/dc/dcmitype/StillImage"/>
    <dc:date>2026-01-02T18:08:09.265261</dc:date>
    <dc:format>image/svg+xml</dc:format>
    <dc:creator>
     <cc:Agent>
      <dc:title>Matplotlib v3.10.8, https://matplotlib.org/</dc:title>
     </cc:Agent>
    </dc:creator>
   </cc:Work>
  </rdf:RDF>
 </metadata>
 <defs>
  <style type="text/css">*{stroke-linejoin: round; stroke-linecap: butt}</style>
 </defs>
 <g id="figure_1">
  <g id="patch_1">
   <path d="M 0 424.877812 
L 399.24 424.877812 
L 399.24 0 
L 0 0 
z
" style="fill: #ffffff"/>
  </g>
  <g id="axes_1">
   <g id="patch_2">
    <path d="M 199.62 273.362812 
C 212.377595 273.362812 224.61439 268.294166 233.635372 259.273184 
C 242.656354 250.252202 247.725 238.015408 247.725 225.257812 
C 247.725 212.500217 242.656354 200.263423 233.635372 191.242441 
C 224.61439 182.221459 212.377595 177.152812 199.62 177.152812 
C 186.862405 177.152812 174.62561 182.221459 165.604628 191.242441 
C 156.583646 200.263423 151.515 212.500217 151.515 225.257812 
C 151.515 238.015408 156.583646 250.252202 165.604628 259.273184 
C 174.62561 268.294166 186.862405 273.362812 199.62 273.362812 
L 199.62 273.362812 
z
" clip-path="url(#p588eb59662)" style="fill: none; stroke-dasharray: 5.55,2.4; stroke-dashoffset: 0; stroke: #2ecc71; stroke-width: 1.5; stroke-linejoin: miter"/>
   </g>
   <g id="patch_3">
    <path d="M 199.62 143.479312 
C 203.447279 143.479312 207.118317 141.958719 209.824612 139.252424 
C 212.530906 136.546129 214.0515 132.875091 214.0515 129.047812 
C 214.0515 125.220534 212.530906 121.549496 209.824612 118.843201 
C 207.118317 116.136906 203.447279 114.616312 199.62 114.616312 
C 195.792721 114.616312 192.121683 116.136906 189.415388 118.843201 
C 186.709094 121.549496 185.1885 125.220534 185.1885 129.047812 
C 185.1885 132.875091 186.709094 136.546129 189.415388 139.252424 
C 192.121683 141.958719 195.792721 143.479312 199.62 143.479312 
z
" clip-path="url(#p588eb59662)" style="fill: #95a5a6; opacity: 0.9; stroke: #95a5a6; stroke-width: 1.5; stroke-linejoin: miter"/>
   </g>
   <g id="patch_4">
    <path d="M 199.62 97.779562 
C 202.171519 97.779562 204.618878 96.765833 206.423074 94.961637 
C 208.227271 93.15744 209.241 90.710082 209.241 88.158562 
C 209.241 85.607043 208.227271 83.159685 206.423074 81.355488 
C 204.618878 79.551292 202.171519 78.537562 199.62 78.537562 
C 197.068481 78.537562 194.621122 79.551292 192.816926 81.355488 
C 191.012729 83.159685 189.999 85.607043 189.999 88.158562 
C 189.999 90.710082 191.012729 93.15744 192.816926 94.961637 
C 194.621122 96.765833 197.068481 97.779562 199.62 97.779562 
z
" clip-path="url(#p588eb59662)" style="fill: #e74c3c; opacity: 0.9; stroke: #e74c3c; stroke-width: 1.5; stroke-linejoin: miter"/>
   </g>
   <g id="patch_5">
    <path d="M 116.299696 191.584312 
C 120.126974 191.584312 123.798013 190.063719 126.504307 187.357424 
C 129.210602 184.651129 130.731196 180.980091 130.731196 177.152812 
C 130.731196 173.325534 129.210602 169.654496 126.504307 166.948201 
C 123.798013 164.241906 120.126974 162.721312 116.299696 162.721312 
C 112.472417 162.721312 108.801379 164.241906 106.095084 166.948201 
C 103.38879 169.654496 101.868196 173.325534 101.868196 177.152812 
C 101.868196 180.980091 103.38879 184.651129 106.095084 187.357424 
C 108.801379 190.063719 112.472417 191.584312 116.299696 191.584312 
z
" clip-path="url(#p588eb59662)" style="fill: #95a5a6; opacity: 0.9; stroke: #95a5a6; stroke-width: 1.5; stroke-linejoin: miter"/>
   </g>
   <g id="patch_6">
    <path d="M 80.888567 166.329187 
C 83.440086 166.329187 85.887445 165.315458 87.691641 163.511262 
C 89.495837 161.707065 90.509567 159.259707 90.509567 156.708187 
C 90.509567 154.156668 89.495837 151.70931 87.691641 149.905113 
C 85.887445 148.100917 83.440086 147.087187 80.888567 147.087187 
C 78.337048 147.087187 75.889689 148.100917 74.085492 149.905113 
C 72.281296 151.70931 71.267567 154.156668 71.267567 156.708187 
C 71.267567 159.259707 72.281296 161.707065 74.085492 163.511262 
C 75.889689 165.315458 78.337048 166.329187 80.888567 166.329187 
z
" clip-path="url(#p588eb59662)" style="fill: #e74c3c; opacity: 0.9; stroke: #e74c3c; stroke-width: 1.5; stroke-linejoin: miter"/>
   </g>
   <g id="patch_7">
    <path d="M 116.299696 287.794312 
C 120.126974 287.794312 123.798013 286.273719 126.504307 283.567424 
C 129.210602 280.861129 130.731196 277.190091 130.731196 273.362812 
C 130.731196 269.535534 129.210602 265.864496 126.504307 263.158201 
C 123.798013 260.451906 120.126974 258.931312 116.299696 258.931312 
C 112.472417 258.931312 108.801379 260.451906 106.095084 263.158201 
C 103.38879 265.864496 101.868196 269.535534 101.868196 273.362812 
C 101.868196 277.190091 103.38879 280.861129 106.095084 283.567424 
C 108.801379 286.273719 112.472417 287.794312 116.299696 287.794312 
z
" clip-path="url(#p588eb59662)" style="fill: #95a5a6; opacity: 0.9; stroke: #95a5a6; stroke-width: 1.5; stroke-linejoin: miter"/>
   </g>
   <g id="patch_8">
    <path d="M 80.888567 303.428437 
C 83.440086 303.428437 85.887445 302.414708 87.691641 300.610512 
C 89.495837 298.806315 90.509567 296.358957 90.509567 293.807437 
C 90.509567 291.255918 89.495837 288.80856 87.691641 287.004363 
C 85.887445 285.200167 83.440086 284.186437 80.888567 284.186437 
C 78.337048 284.186437 75.889689 285.200167 74.085492 287.004363 
C 72.281296 288.80856 71.267567 291.255918 71.267567 293.807437 
C 71.267567 296.358957 72.281296 298.806315 74.085492 300.610512 
C 75.889689 302.414708 78.337048 303.428437 80.888567 303.428437 
z
" clip-path="url(#p588eb59662)" style="fill: #e74c3c; opacity: 0.9; stroke: #e74c3c; stroke-width: 1.5; stroke-linejoin: miter"/>
   </g>
   <g id="patch_9">
    <path d="M 199.62 335.899312 
C 203.447279 335.899312 207.118317 334.378719 209.824612 331.672424 
C 212.530906 328.966129 214.0515 325.295091 214.0515 321.467812 
C 214.0515 317.640534 212.530906 313.969496 209.824612 311.263201 
C 207.118317 308.556906 203.447279 307.036313 199.62 307.036313 
C 195.792721 307.036313 192.121683 308.556906 189.415388 311.263201 
C 186.709094 313.969496 185.1885 317.640534 185.1885 321.467812 
C 185.1885 325.295091 186.709094 328.966129 189.415388 331.672424 
C 192.121683 334.378719 195.792721 335.899312 199.62 335.899312 
z
" clip-path="url(#p588eb59662)" style="fill: #95a5a6; opacity: 0.9; stroke: #95a5a6; stroke-width: 1.5; stroke-linejoin: miter"/>
   </g>
   <g id="patch_10">
    <path d="M 199.62 371.978062 
C 202.171519 371.978062 204.618878 370.964333 206.423074 369.160137 
C 208.227271 367.35594 209.241 364.908582 209.241 362.357062 
C 209.241 359.805543 208.227271 357.358185 206.423074 355.553988 
C 204.618878 353.749792 202.171519 352.736063 199.62 352.736063 
C 197.068481 352.736063 194.621122 353.749792 192.816926 355.553988 
C 191.012729 357.358185 189.999 359.805543 189.999 362.357062 
C 189.999 364.908582 191.012729 367.35594 192.816926 369.160137 
C 194.621122 370.964333 197.068481 371.978062 199.62 371.978062 
z
" clip-path="url(#p588eb59662)" style="fill: #e74c3c; opacity: 0.9; stroke: #e74c3c; stroke-width: 1.5; stroke-linejoin: miter"/>
   </g>
   <g id="patch_11">
    <path d="M 282.940304 287.794312 
C 286.767583 287.794312 290.438621 286.273719 293.144916 283.567424 
C 295.85121 280.861129 297.371804 277.190091 297.371804 273.362813 
C 297.371804 269.535534 295.85121 265.864496 293.144916 263.158201 
C 290.438621 260.451906 286.767583 258.931313 282.940304 258.931313 
C 279.113026 258.931313 275.441987 260.451906 272.735693 263.158201 
C 270.029398 265.864496 268.508804 269.535534 268.508804 273.362813 
C 268.508804 277.190091 270.029398 280.861129 272.735693 283.567424 
C 275.441987 286.273719 279.113026 287.794312 282.940304 287.794312 
z
" clip-path="url(#p588eb59662)" style="fill: #95a5a6; opacity: 0.9; stroke: #95a5a6; stroke-width: 1.5; stroke-linejoin: miter"/>
   </g>
   <g id="patch_12">
    <path d="M 318.351433 303.428437 
C 320.902952 303.428437 323.350311 302.414708 325.154508 300.610512 
C 326.958704 298.806315 327.972433 296.358957 327.972433 293.807437 
C 327.972433 291.255918 326.958704 288.80856 325.154508 287.004363 
C 323.350311 285.200167 320.902952 284.186438 318.351433 284.186438 
C 315.799914 284.186438 313.352555 285.200167 311.548359 287.004363 
C 309.744163 288.80856 308.730433 291.255918 308.730433 293.807437 
C 308.730433 296.358957 309.744163 298.806315 311.548359 300.610512 
C 313.352555 302.414708 315.799914 303.428437 318.351433 303.428437 
z
" clip-path="url(#p588eb59662)" style="fill: #e74c3c; opacity: 0.9; stroke: #e74c3c; stroke-width: 1.5; stroke-linejoin: miter"/>
   </g>
   <g id="patch_13">
    <path d="M 282.940304 191.584312 
C 286.767583 191.584312 290.438621 190.063719 293.144916 187.357424 
C 295.85121 184.651129 297.371804 180.980091 297.371804 177.152812 
C 297.371804 173.325534 295.85121 169.654496 293.144916 166.948201 
C 290.438621 164.241906 286.767583 162.721312 282.940304 162.721312 
C 279.113026 162.721312 275.441987 164.241906 272.735693 166.948201 
C 270.029398 169.654496 268.508804 173.325534 268.508804 177.152812 
C 268.508804 180.980091 270.029398 184.651129 272.735693 187.357424 
C 275.441987 190.063719 279.113026 191.584312 282.940304 191.584312 
z
" clip-path="url(#p588eb59662)" style="fill: #95a5a6; opacity: 0.9; stroke: #95a5a6; stroke-width: 1.5; stroke-linejoin: miter"/>
   </g>
   <g id="patch_14">
    <path d="M 318.351433 166.329187 
C 320.902952 166.329187 323.350311 165.315458 325.154508 163.511262 
C 326.958704 161.707065 327.972433 159.259707 327.972433 156.708187 
C 327.972433 154.156668 326.958704 151.70931 325.154508 149.905113 
C 323.350311 148.100917 320.902952 147.087187 318.351433 147.087187 
C 315.799914 147.087187 313.352555 148.100917 311.548359 149.905113 
C 309.744163 151.70931 308.730433 154.156668 308.730433 156.708187 
C 308.730433 159.259707 309.744163 161.707065 311.548359 163.511262 
C 313.352555 165.315458 315.799914 166.329187 318.351433 166.329187 
z
" clip-path="url(#p588eb59662)" style="fill: #e74c3c; opacity: 0.9; stroke: #e74c3c; stroke-width: 1.5; stroke-linejoin: miter"/>
   </g>
   <g id="line2d_1">
    <path d="M 199.62 129.047812 
L 116.299696 177.152812 
" clip-path="url(#p588eb59662)" style="fill: none; stroke: #2ecc71; stroke-width: 2.5; stroke-linecap: square"/>
   </g>
   <g id="line2d_2">
    <path d="M 116.299696 177.152812 
L 116.299696 273.362812 
" clip-path="url(#p588eb59662)" style="fill: none; stroke: #2ecc71; stroke-width: 2.5; stroke-linecap: square"/>
   </g>
   <g id="line2d_3">
    <path d="M 116.299696 273.362812 
L 199.62 321.467812 
" clip-path="url(#p588eb59662)" style="fill: none; stroke: #2ecc71; stroke-width: 2.5; stroke-linecap: square"/>
   </g>
   <g id="line2d_4">
    <path d="M 199.62 321.467812 
L 282.940304 273.362813 
" clip-path="url(#p588eb59662)" style="fill: none; stroke: #2ecc71; stroke-width: 2.5; stroke-linecap: square"/>
   </g>
   <g id="line2d_5">
    <path d="M 282.940304 273.362813 
L 282.940304 177.152812 
" clip-path="url(#p588eb59662)" style="fill: none; stroke: #2ecc71; stroke-width: 2.5; stroke-linecap: square"/>
   </g>
   <g id="line2d_6">
    <path d="M 282.940304 177.152812 
L 199.62 129.047812 
" clip-path="url(#p588eb59662)" style="fill: none; stroke: #2ecc71; stroke-width: 2.5; stroke-linecap: square"/>
   </g>
   <g id="line2d_7">
    <path d="M 199.62 117.502612 
L 199.62 95.374312 
" clip-path="url(#p588eb59662)" style="fill: none; stroke: #2ecc71; stroke-width: 1.5; stroke-linecap: square"/>
   </g>
   <g id="line2d_8">
    <path d="M 106.301259 171.380212 
L 87.137589 160.316062 
" clip-path="url(#p588eb59662)" style="fill: none; stroke: #2ecc71; stroke-width: 1.5; stroke-linecap: square"/>
   </g>
   <g id="line2d_9">
    <path d="M 106.301259 279.135412 
L 87.137589 290.199562 
" clip-path="url(#p588eb59662)" style="fill: none; stroke: #2ecc71; stroke-width: 1.5; stroke-linecap: square"/>
   </g>
   <g id="line2d_10">
    <path d="M 199.62 333.013012 
L 199.62 355.141312 
" clip-path="url(#p588eb59662)" style="fill: none; stroke: #2ecc71; stroke-width: 1.5; stroke-linecap: square"/>
   </g>
   <g id="line2d_11">
    <path d="M 292.938741 279.135413 
L 312.102411 290.199563 
" clip-path="url(#p588eb59662)" style="fill: none; stroke: #2ecc71; stroke-width: 1.5; stroke-linecap: square"/>
   </g>
   <g id="line2d_12">
    <path d="M 292.938741 171.380212 
L 312.102411 160.316062 
" clip-path="url(#p588eb59662)" style="fill: none; stroke: #2ecc71; stroke-width: 1.5; stroke-linecap: square"/>
   </g>
   <g id="text_1">
    <!-- C -->
    <g style="fill: #ffffff" transform="translate(196.826875 131.255312) scale(0.08 -0.08)">
     <defs>
      <path id="DejaVuSans-43" d="M 4122 4306 
L 4122 3641 
Q 3803 3938 3442 4084 
Q 3081 4231 2675 4231 
Q 1875 4231 1450 3742 
Q 1025 3253 1025 2328 
Q 1025 1406 1450 917 
Q 1875 428 2675 428 
Q 3081 428 3442 575 
Q 3803 722 4122 1019 
L 4122 359 
Q 3791 134 3420 21 
Q 3050 -91 2638 -91 
Q 1578 -91 968 557 
Q 359 1206 359 2328 
Q 359 3453 968 4101 
Q 1578 4750 2638 4750 
Q 3056 4750 3426 4639 
Q 3797 4528 4122 4306 
z
" transform="scale(0.015625)"/>
     </defs>
     <use xlink:href="#DejaVuSans-43"/>
    </g>
   </g>
   <g id="text_2">
    <!-- H -->
    <g style="fill: #ffffff" transform="translate(197.363906 89.814187) scale(0.06 -0.06)">
     <defs>
      <path id="DejaVuSans-48" d="M 628 4666 
L 1259 4666 
L 1259 2753 
L 3553 2753 
L 3553 4666 
L 4184 4666 
L 4184 0 
L 3553 0 
L 3553 2222 
L 1259 2222 
L 1259 0 
L 628 0 
L 628 4666 
z
" transform="scale(0.015625)"/>
     </defs>
     <use xlink:href="#DejaVuSans-48"/>
    </g>
   </g>
   <g id="text_3">
    <!-- C -->
    <g style="fill: #ffffff" transform="translate(113.506571 179.360312) scale(0.08 -0.08)">
     <use xlink:href="#DejaVuSans-43"/>
    </g>
   </g>
   <g id="text_4">
    <!-- H -->
    <g style="fill: #ffffff" transform="translate(78.632473 158.363812) scale(0.06 -0.06)">
     <use xlink:href="#DejaVuSans-48"/>
    </g>
   </g>
   <g id="text_5">
    <!-- C -->
    <g style="fill: #ffffff" transform="translate(113.506571 275.570312) scale(0.08 -0.08)">
     <use xlink:href="#DejaVuSans-43"/>
    </g>
   </g>
   <g id="text_6">
    <!-- H -->
    <g style="fill: #ffffff" transform="translate(78.632473 295.463062) scale(0.06 -0.06)">
     <use xlink:href="#DejaVuSans-48"/>
    </g>
   </g>
   <g id="text_7">
    <!-- C -->
    <g style="fill: #ffffff" transform="translate(196.826875 323.675312) scale(0.08 -0.08)">
     <use xlink:href="#DejaVuSans-43"/>
    </g>
   </g>
   <g id="text_8">
    <!-- H -->
    <g style="fill: #ffffff" transform="translate(197.363906 364.012687) scale(0.06 -0.06)">
     <use xlink:href="#DejaVuSans-48"/>
    </g>
   </g>
   <g id="text_9">
    <!-- C -->
    <g style="fill: #ffffff" transform="translate(280.147179 275.570312) scale(0.08 -0.08)">
     <use xlink:href="#DejaVuSans-43"/>
    </g>
   </g>
   <g id="text_10">
    <!-- H -->
    <g style="fill: #ffffff" transform="translate(316.09534 295.463062) scale(0.06 -0.06)">
     <use xlink:href="#DejaVuSans-48"/>
    </g>
   </g>
   <g id="text_11">
    <!-- C -->
    <g style="fill: #ffffff" transform="translate(280.147179 179.360312) scale(0.08 -0.08)">
     <use xlink:href="#DejaVuSans-43"/>
    </g>
   </g>
   <g id="text_12">
    <!-- H -->
    <g style="fill: #ffffff" transform="translate(316.09534 158.363812) scale(0.06 -0.06)">
     <use xlink:href="#DejaVuSans-48"/>
    </g>
   </g>
   <g id="text_13">
    <!-- Benzene (C₆H₆) - Aromatic ring with resonance -->
    <g transform="translate(82.736406 398.435812) scale(0.1 -0.1)">
     <defs>
      <path id="DejaVuSans-42" d="M 1259 2228 
L 1259 519 
L 2272 519 
Q 2781 519 3026 730 
Q 3272 941 3272 1375 
Q 3272 1813 3026 2020 
Q 2781 2228 2272 2228 
L 1259 2228 
z
M 1259 4147 
L 1259 2741 
L 2194 2741 
Q 2656 2741 2882 2914 
Q 3109 3088 3109 3444 
Q 3109 3797 2882 3972 
Q 2656 4147 2194 4147 
L 1259 4147 
z
M 628 4666 
L 2241 4666 
Q 2963 4666 3353 4366 
Q 3744 4066 3744 3513 
Q 3744 3084 3544 2831 
Q 3344 2578 2956 2516 
Q 3422 2416 3680 2098 
Q 3938 1781 3938 1306 
Q 3938 681 3513 340 
Q 3088 0 2303 0 
L 628 0 
L 628 4666 
z
" transform="scale(0.015625)"/>
      <path id="DejaVuSans-65" d="M 3597 1894 
L 3597 1613 
L 953 1613 
Q 991 1019 1311 708 
Q 1631 397 2203 397 
Q 2534 397 2845 478 
Q 3156 559 3463 722 
L 3463 178 
Q 3153 47 2828 -22 
Q 2503 -91 2169 -91 
Q 1331 -91 842 396 
Q 353 884 353 1716 
Q 353 2575 817 3079 
Q 1281 3584 2069 3584 
Q 2775 3584 3186 3129 
Q 3597 2675 3597 1894 
z
M 3022 2063 
Q 3016 2534 2758 2815 
Q 2500 3097 2075 3097 
Q 1594 3097 1305 2825 
Q 1016 2553 972 2059 
L 3022 2063 
z
" transform="scale(0.015625)"/>
      <path id="DejaVuSans-6e" d="M 3513 2113 
L 3513 0 
L 2938 0 
L 2938 2094 
Q 2938 2591 2744 2837 
Q 2550 3084 2163 3084 
Q 1697 3084 1428 2787 
Q 1159 2491 1159 1978 
L 1159 0 
L 581 0 
L 581 3500 
L 1159 3500 
L 1159 2956 
Q 1366 3272 1645 3428 
Q 1925 3584 2291 3584 
Q 2894 3584 3203 3211 
Q 3513 2838 3513 2113 
z
" transform="scale(0.015625)"/>
      <path id="DejaVuSans-7a" d="M 353 3500 
L 3084 3500 
L 3084 2975 
L 922 459 
L 3084 459 
L 3084 0 
L 275 0 
L 275 525 
L 2438 3041 
L 353 3041 
L 353 3500 
z
" transform="scale(0.015625)"/>
      <path id="DejaVuSans-20" transform="scale(0.015625)"/>
      <path id="DejaVuSans-28" d="M 1984 4856 
Q 1566 4138 1362 3434 
Q 1159 2731 1159 2009 
Q 1159 1288 1364 580 
Q 1569 -128 1984 -844 
L 1484 -844 
Q 1016 -109 783 600 
Q 550 1309 550 2009 
Q 550 2706 781 3412 
Q 1013 4119 1484 4856 
L 1984 4856 
z
" transform="scale(0.015625)"/>
      <path id="DejaVuSans-2086" d="M 1359 1429 
Q 1084 1429 925 1266 
Q 766 1101 766 816 
Q 766 535 925 372 
Q 1084 207 1359 207 
Q 1631 207 1791 372 
Q 1950 535 1950 816 
Q 1950 1101 1791 1266 
Q 1631 1429 1359 1429 
z
M 2166 2535 
L 2166 2213 
Q 2013 2276 1856 2307 
Q 1700 2341 1547 2341 
Q 1147 2341 934 2107 
Q 722 1869 691 1391 
Q 809 1544 988 1626 
Q 1169 1707 1381 1707 
Q 1834 1707 2097 1469 
Q 2359 1229 2359 816 
Q 2359 419 2084 172 
Q 1813 -71 1359 -71 
Q 838 -71 563 275 
Q 288 622 288 1285 
Q 288 1904 625 2269 
Q 963 2638 1531 2638 
Q 1684 2638 1841 2613 
Q 1997 2585 2166 2535 
z
" transform="scale(0.015625)"/>
      <path id="DejaVuSans-29" d="M 513 4856 
L 1013 4856 
Q 1481 4119 1714 3412 
Q 1947 2706 1947 2009 
Q 1947 1309 1714 600 
Q 1481 -109 1013 -844 
L 513 -844 
Q 928 -128 1133 580 
Q 1338 1288 1338 2009 
Q 1338 2731 1133 3434 
Q 928 4138 513 4856 
z
" transform="scale(0.015625)"/>
      <path id="DejaVuSans-2d" d="M 313 2009 
L 1997 2009 
L 1997 1497 
L 313 1497 
L 313 2009 
z
" transform="scale(0.015625)"/>
      <path id="DejaVuSans-41" d="M 2188 4044 
L 1331 1722 
L 3047 1722 
L 2188 4044 
z
M 1831 4666 
L 2547 4666 
L 4325 0 
L 3669 0 
L 3244 1197 
L 1141 1197 
L 716 0 
L 50 0 
L 1831 4666 
z
" transform="scale(0.015625)"/>
      <path id="DejaVuSans-72" d="M 2631 2963 
Q 2534 3019 2420 3045 
Q 2306 3072 2169 3072 
Q 1681 3072 1420 2755 
Q 1159 2438 1159 1844 
L 1159 0 
L 581 0 
L 581 3500 
L 1159 3500 
L 1159 2956 
Q 1341 3275 1631 3429 
Q 1922 3584 2338 3584 
Q 2397 3584 2469 3576 
Q 2541 3569 2628 3553 
L 2631 2963 
z
" transform="scale(0.015625)"/>
      <path id="DejaVuSans-6f" d="M 1959 3097 
Q 1497 3097 1228 2736 
Q 959 2375 959 1747 
Q 959 1119 1226 758 
Q 1494 397 1959 397 
Q 2419 397 2687 759 
Q 2956 1122 2956 1747 
Q 2956 2369 2687 2733 
Q 2419 3097 1959 3097 
z
M 1959 3584 
Q 2709 3584 3137 3096 
Q 3566 2609 3566 1747 
Q 3566 888 3137 398 
Q 2709 -91 1959 -91 
Q 1206 -91 779 398 
Q 353 888 353 1747 
Q 353 2609 779 3096 
Q 1206 3584 1959 3584 
z
" transform="scale(0.015625)"/>
      <path id="DejaVuSans-6d" d="M 3328 2828 
Q 3544 3216 3844 3400 
Q 4144 3584 4550 3584 
Q 5097 3584 5394 3201 
Q 5691 2819 5691 2113 
L 5691 0 
L 5113 0 
L 5113 2094 
Q 5113 2597 4934 2840 
Q 4756 3084 4391 3084 
Q 3944 3084 3684 2787 
Q 3425 2491 3425 1978 
L 3425 0 
L 2847 0 
L 2847 2094 
Q 2847 2600 2669 2842 
Q 2491 3084 2119 3084 
Q 1678 3084 1418 2786 
Q 1159 2488 1159 1978 
L 1159 0 
L 581 0 
L 581 3500 
L 1159 3500 
L 1159 2956 
Q 1356 3278 1631 3431 
Q 1906 3584 2284 3584 
Q 2666 3584 2933 3390 
Q 3200 3197 3328 2828 
z
" transform="scale(0.015625)"/>
      <path id="DejaVuSans-61" d="M 2194 1759 
Q 1497 1759 1228 1600 
Q 959 1441 959 1056 
Q 959 750 1161 570 
Q 1363 391 1709 391 
Q 2188 391 2477 730 
Q 2766 1069 2766 1631 
L 2766 1759 
L 2194 1759 
z
M 3341 1997 
L 3341 0 
L 2766 0 
L 2766 531 
Q 2569 213 2275 61 
Q 1981 -91 1556 -91 
Q 1019 -91 701 211 
Q 384 513 384 1019 
Q 384 1609 779 1909 
Q 1175 2209 1959 2209 
L 2766 2209 
L 2766 2266 
Q 2766 2663 2505 2880 
Q 2244 3097 1772 3097 
Q 1472 3097 1187 3025 
Q 903 2953 641 2809 
L 641 3341 
Q 956 3463 1253 3523 
Q 1550 3584 1831 3584 
Q 2591 3584 2966 3190 
Q 3341 2797 3341 1997 
z
" transform="scale(0.015625)"/>
      <path id="DejaVuSans-74" d="M 1172 4494 
L 1172 3500 
L 2356 3500 
L 2356 3053 
L 1172 3053 
L 1172 1153 
Q 1172 725 1289 603 
Q 1406 481 1766 481 
L 2356 481 
L 2356 0 
L 1766 0 
Q 1100 0 847 248 
Q 594 497 594 1153 
L 594 3053 
L 172 3053 
L 172 3500 
L 594 3500 
L 594 4494 
L 1172 4494 
z
" transform="scale(0.015625)"/>
      <path id="DejaVuSans-69" d="M 603 3500 
L 1178 3500 
L 1178 0 
L 603 0 
L 603 3500 
z
M 603 4863 
L 1178 4863 
L 1178 4134 
L 603 4134 
L 603 4863 
z
" transform="scale(0.015625)"/>
      <path id="DejaVuSans-63" d="M 3122 3366 
L 3122 2828 
Q 2878 2963 2633 3030 
Q 2388 3097 2138 3097 
Q 1578 3097 1268 2742 
Q 959 2388 959 1747 
Q 959 1106 1268 751 
Q 1578 397 2138 397 
Q 2388 397 2633 464 
Q 2878 531 3122 666 
L 3122 134 
Q 2881 22 2623 -34 
Q 2366 -91 2075 -91 
Q 1284 -91 818 406 
Q 353 903 353 1747 
Q 353 2603 823 3093 
Q 1294 3584 2113 3584 
Q 2378 3584 2631 3529 
Q 2884 3475 3122 3366 
z
" transform="scale(0.015625)"/>
      <path id="DejaVuSans-67" d="M 2906 1791 
Q 2906 2416 2648 2759 
Q 2391 3103 1925 3103 
Q 1463 3103 1205 2759 
Q 947 2416 947 1791 
Q 947 1169 1205 825 
Q 1463 481 1925 481 
Q 2391 481 2648 825 
Q 2906 1169 2906 1791 
z
M 3481 434 
Q 3481 -459 3084 -895 
Q 2688 -1331 1869 -1331 
Q 1566 -1331 1297 -1286 
Q 1028 -1241 775 -1147 
L 775 -588 
Q 1028 -725 1275 -790 
Q 1522 -856 1778 -856 
Q 2344 -856 2625 -561 
Q 2906 -266 2906 331 
L 2906 616 
Q 2728 306 2450 153 
Q 2172 0 1784 0 
Q 1141 0 747 490 
Q 353 981 353 1791 
Q 353 2603 747 3093 
Q 1141 3584 1784 3584 
Q 2172 3584 2450 3431 
Q 2728 3278 2906 2969 
L 2906 3500 
L 3481 3500 
L 3481 434 
z
" transform="scale(0.015625)"/>
      <path id="DejaVuSans-77" d="M 269 3500 
L 844 3500 
L 1563 769 
L 2278 3500 
L 2956 3500 
L 3675 769 
L 4391 3500 
L 4966 3500 
L 4050 0 
L 3372 0 
L 2619 2869 
L 1863 0 
L 1184 0 
L 269 3500 
z
" transform="scale(0.015625)"/>
      <path id="DejaVuSans-68" d="M 3513 2113 
L 3513 0 
L 2938 0 
L 2938 2094 
Q 2938 2591 2744 2837 
Q 2550 3084 2163 3084 
Q 1697 3084 1428 2787 
Q 1159 2491 1159 1978 
L 1159 0 
L 581 0 
L 581 4863 
L 1159 4863 
L 1159 2956 
Q 1366 3272 1645 3428 
Q 1925 3584 2291 3584 
Q 2894 3584 3203 3211 
Q 3513 2838 3513 2113 
z
" transform="scale(0.015625)"/>
      <path id="DejaVuSans-73" d="M 2834 3397 
L 2834 2853 
Q 2591 2978 2328 3040 
Q 2066 3103 1784 3103 
Q 1356 3103 1142 2972 
Q 928 2841 928 2578 
Q 928 2378 1081 2264 
Q 1234 2150 1697 2047 
L 1894 2003 
Q 2506 1872 2764 1633 
Q 3022 1394 3022 966 
Q 3022 478 2636 193 
Q 2250 -91 1575 -91 
Q 1294 -91 989 -36 
Q 684 19 347 128 
L 347 722 
Q 666 556 975 473 
Q 1284 391 1588 391 
Q 1994 391 2212 530 
Q 2431 669 2431 922 
Q 2431 1156 2273 1281 
Q 2116 1406 1581 1522 
L 1381 1569 
Q 847 1681 609 1914 
Q 372 2147 372 2553 
Q 372 3047 722 3315 
Q 1072 3584 1716 3584 
Q 2034 3584 2315 3537 
Q 2597 3491 2834 3397 
z
" transform="scale(0.015625)"/>
     </defs>
     <use xlink:href="#DejaVuSans-42"/>
     <use xlink:href="#DejaVuSans-65" transform="translate(68.603516 0)"/>
     <use xlink:href="#DejaVuSans-6e" transform="translate(130.126953 0)"/>
     <use xlink:href="#DejaVuSans-7a" transform="translate(193.505859 0)"/>
     <use xlink:href="#DejaVuSans-65" transform="translate(245.996094 0)"/>
     <use xlink:href="#DejaVuSans-6e" transform="translate(307.519531 0)"/>
     <use xlink:href="#DejaVuSans-65" transform="translate(370.898438 0)"/>
     <use xlink:href="#DejaVuSans-20" transform="translate(432.421875 0)"/>
     <use xlink:href="#DejaVuSans-28" transform="translate(464.208984 0)"/>
     <use xlink:href="#DejaVuSans-43" transform="translate(503.222656 0)"/>
     <use xlink:href="#DejaVuSans-2086" transform="translate(573.046875 0)"/>
     <use xlink:href="#DejaVuSans-48" transform="translate(613.134766 0)"/>
     <use xlink:href="#DejaVuSans-2086" transform="translate(688.330078 0)"/>
     <use xlink:href="#DejaVuSans-29" transform="translate(728.417969 0)"/>
     <use xlink:href="#DejaVuSans-20" transform="translate(767.431641 0)"/>
     <use xlink:href="#DejaVuSans-2d" transform="translate(799.21875 0)"/>
     <use xlink:href="#DejaVuSans-20" transform="translate(835.302734 0)"/>
     <use xlink:href="#DejaVuSans-41" transform="translate(867.089844 0)"/>
     <use xlink:href="#DejaVuSans-72" transform="translate(935.498047 0)"/>
     <use xlink:href="#DejaVuSans-6f" transform="translate(974.361328 0)"/>
     <use xlink:href="#DejaVuSans-6d" transform="translate(1035.542969 0)"/>
     <use xlink:href="#DejaVuSans-61" transform="translate(1132.955078 0)"/>
     <use xlink:href="#DejaVuSans-74" transform="translate(1194.234375 0)"/>
     <use xlink:href="#DejaVuSans-69" transform="translate(1233.443359 0)"/>
     <use xlink:href="#DejaVuSans-63" transform="translate(1261.226562 0)"/>
     <use xlink:href="#DejaVuSans-20" transform="translate(1316.207031 0)"/>
     <use xlink:href="#DejaVuSans-72" transform="translate(1347.994141 0)"/>
     <use xlink:href="#DejaVuSans-69" transform="translate(1389.107422 0)"/>
     <use xlink:href="#DejaVuSans-6e" transform="translate(1416.890625 0)"/>
     <use xlink:href="#DejaVuSans-67" transform="translate(1480.269531 0)"/>
     <use xlink:href="#DejaVuSans-20" transform="translate(1543.746094 0)"/>
     <use xlink:href="#DejaVuSans-77" transform="translate(1575.533203 0)"/>
     <use xlink:href="#DejaVuSans-69" transform="translate(1657.320312 0)"/>
     <use xlink:href="#DejaVuSans-74" transform="translate(1685.103516 0)"/>
     <use xlink:href="#DejaVuSans-68" transform="translate(1724.3125 0)"/>
     <use xlink:href="#DejaVuSans-20" transform="translate(1787.691406 0)"/>
     <use xlink:href="#DejaVuSans-72" transform="translate(1819.478516 0)"/>
     <use xlink:href="#DejaVuSans-65" transform="translate(1858.341797 0)"/>
     <use xlink:href="#DejaVuSans-73" transform="translate(1919.865234 0)"/>
     <use xlink:href="#DejaVuSans-6f" transform="translate(1971.964844 0)"/>
     <use xlink:href="#DejaVuSans-6e" transform="translate(2033.146484 0)"/>
     <use xlink:href="#DejaVuSans-61" transform="translate(2096.525391 0)"/>
     <use xlink:href="#DejaVuSans-6e" transform="translate(2157.804688 0)"/>
     <use xlink:href="#DejaVuSans-63" transform="translate(2221.183594 0)"/>
     <use xlink:href="#DejaVuSans-65" transform="translate(2276.164062 0)"/>
    </g>
   </g>
   <g id="text_14">
    <!-- Benzene Structure -->
    <g transform="translate(134.565938 17.837812) scale(0.14 -0.14)">
     <defs>
      <path id="DejaVuSans-53" d="M 3425 4513 
L 3425 3897 
Q 3066 4069 2747 4153 
Q 2428 4238 2131 4238 
Q 1616 4238 1336 4038 
Q 1056 3838 1056 3469 
Q 1056 3159 1242 3001 
Q 1428 2844 1947 2747 
L 2328 2669 
Q 3034 2534 3370 2195 
Q 3706 1856 3706 1288 
Q 3706 609 3251 259 
Q 2797 -91 1919 -91 
Q 1588 -91 1214 -16 
Q 841 59 441 206 
L 441 856 
Q 825 641 1194 531 
Q 1563 422 1919 422 
Q 2459 422 2753 634 
Q 3047 847 3047 1241 
Q 3047 1584 2836 1778 
Q 2625 1972 2144 2069 
L 1759 2144 
Q 1053 2284 737 2584 
Q 422 2884 422 3419 
Q 422 4038 858 4394 
Q 1294 4750 2059 4750 
Q 2388 4750 2728 4690 
Q 3069 4631 3425 4513 
z
" transform="scale(0.015625)"/>
      <path id="DejaVuSans-75" d="M 544 1381 
L 544 3500 
L 1119 3500 
L 1119 1403 
Q 1119 906 1312 657 
Q 1506 409 1894 409 
Q 2359 409 2629 706 
Q 2900 1003 2900 1516 
L 2900 3500 
L 3475 3500 
L 3475 0 
L 2900 0 
L 2900 538 
Q 2691 219 2414 64 
Q 2138 -91 1772 -91 
Q 1169 -91 856 284 
Q 544 659 544 1381 
z
M 1991 3584 
L 1991 3584 
z
" transform="scale(0.015625)"/>
     </defs>
     <use xlink:href="#DejaVuSans-42"/>
     <use xlink:href="#DejaVuSans-65" transform="translate(68.603516 0)"/>
     <use xlink:href="#DejaVuSans-6e" transform="translate(130.126953 0)"/>
     <use xlink:href="#DejaVuSans-7a" transform="translate(193.505859 0)"/>
     <use xlink:href="#DejaVuSans-65" transform="translate(245.996094 0)"/>
     <use xlink:href="#DejaVuSans-6e" transform="translate(307.519531 0)"/>
     <use xlink:href="#DejaVuSans-65" transform="translate(370.898438 0)"/>
     <use xlink:href="#DejaVuSans-20" transform="translate(432.421875 0)"/>
     <use xlink:href="#DejaVuSans-53" transform="translate(464.208984 0)"/>
     <use xlink:href="#DejaVuSans-74" transform="translate(527.685547 0)"/>
     <use xlink:href="#DejaVuSans-72" transform="translate(566.894531 0)"/>
     <use xlink:href="#DejaVuSans-75" transform="translate(608.007812 0)"/>
     <use xlink:href="#DejaVuSans-63" transform="translate(671.386719 0)"/>
     <use xlink:href="#DejaVuSans-74" transform="translate(726.367188 0)"/>
     <use xlink:href="#DejaVuSans-75" transform="translate(765.576172 0)"/>
     <use xlink:href="#DejaVuSans-72" transform="translate(828.955078 0)"/>
     <use xlink:href="#DejaVuSans-65" transform="translate(867.818359 0)"/>
    </g>
   </g>
  </g>
 </g>
 <defs>
  <clipPath id="p588eb59662">
   <rect x="7.2" y="32.837812" width="384.84" height="384.84"/>
  </clipPath>
 </defs>
</svg>
