<?xml version="1.0" encoding="utf-8" standalone="no"?>
<!DOCTYPE svg PUBLIC "-//W3C//DTD SVG 1.1//EN"
  "http://www.w3.org/Graphics/SVG/1.1/DTD/svg11.dtd">
<svg xmlns:xlink="http://www.w3.org/1999/xlink" width="568.8pt" height="424.877812pt" viewBox="0 0 568.8 424.877812" xmlns="http://www.w3.org/2000/svg" version="1.1">
 <metadata>
  <rdf:RDF xmlns:dc="http://purl.org/dc/elements/1.1/" xmlns:cc="http://creativecommons.org/ns#" xmlns:rdf="http://www.w3.org/1999/02/22-rdf-syntax-ns#">
   <cc:Work>
    <dc:type rdf:resource="http://purl.org/dc/dcmitype/StillImage"/>
    <dc:date>2026-01-02T18:08:09.558954</dc:date>
    <dc:format>image/svg+xml</dc:format>
    <dc:creator>
     <cc:Agent>
      <dc:title>Matplotlib v3.10.8, https://matplotlib.org/</dc:title>
     </cc:Agent>
    </dc:creator>
   </cc:Work>
  </rdf:RDF>
 </metadata>
 <defs>
  <style type="text/css">*{stroke-linejoin: round; stroke-linecap: butt}</style>
 </defs>
 <g id="figure_1">
  <g id="patch_1">
   <path d="M 0 424.877812 
L 568.8 424.877812 
L 568.8 0 
L 0 0 
z
" style="fill: #ffffff"/>
  </g>
  <g id="axes_1">
   <g id="patch_2">
    <path d="M 180.45 244.499812 
C 185.963572 244.499812 191.252066 242.472354 195.15075 238.863961 
C 199.049434 235.255568 201.24 230.360851 201.24 225.257812 
C 201.24 220.154774 199.049434 215.260057 195.15075 211.651664 
C 191.252066 208.043271 185.963572 206.015813 180.45 206.015813 
C 174.936428 206.015813 169.647934 208.043271 165.74925 211.651664 
C 161.850566 215.260057 159.66 220.154774 159.66 225.257812 
C 159.66 230.360851 161.850566 235.255568 165.74925 238.863961 
C 169.647934 242.472354 174.936428 244.499812 180.45 244.499812 
z
" clip-path="url(#p498d7eaf99)" style="fill: #95a5a6; opacity: 0.9; stroke: #95a5a6; stroke-width: 1.5; stroke-linejoin: miter"/>
   </g>
   <g id="patch_3">
    <path d="M 111.15 177.152813 
C 115.744644 177.152813 120.151721 175.463264 123.400625 172.45627 
C 126.649529 169.449276 128.475 165.370344 128.475 161.117813 
C 128.475 156.865281 126.649529 152.786349 123.400625 149.779355 
C 120.151721 146.772361 115.744644 145.082813 111.15 145.082813 
C 106.555356 145.082813 102.148279 146.772361 98.899375 149.779355 
C 95.650471 152.786349 93.825 156.865281 93.825 161.117813 
C 93.825 165.370344 95.650471 169.449276 98.899375 172.45627 
C 102.148279 175.463264 106.555356 177.152813 111.15 177.152813 
z
" clip-path="url(#p498d7eaf99)" style="fill: #e74c3c; opacity: 0.9; stroke: #e74c3c; stroke-width: 1.5; stroke-linejoin: miter"/>
   </g>
   <g id="patch_4">
    <path d="M 249.75 177.152813 
C 254.344644 177.152813 258.751721 175.463264 262.000625 172.45627 
C 265.249529 169.449276 267.075 165.370344 267.075 161.117813 
C 267.075 156.865281 265.249529 152.786349 262.000625 149.779355 
C 258.751721 146.772361 254.344644 145.082813 249.75 145.082813 
C 245.155356 145.082813 240.748279 146.772361 237.499375 149.779355 
C 234.250471 152.786349 232.425 156.865281 232.425 161.117813 
C 232.425 165.370344 234.250471 169.449276 237.499375 172.45627 
C 240.748279 175.463264 245.155356 177.152813 249.75 177.152813 
z
" clip-path="url(#p498d7eaf99)" style="fill: #3498db; opacity: 0.9; stroke: #3498db; stroke-width: 1.5; stroke-linejoin: miter"/>
   </g>
   <g id="patch_5">
    <path d="M 111.15 305.432812 
C 115.744644 305.432812 120.151721 303.743264 123.400625 300.73627 
C 126.649529 297.729276 128.475 293.650344 128.475 289.397812 
C 128.475 285.145281 126.649529 281.066349 123.400625 278.059355 
C 120.151721 275.052361 115.744644 273.362813 111.15 273.362813 
C 106.555356 273.362813 102.148279 275.052361 98.899375 278.059355 
C 95.650471 281.066349 93.825 285.145281 93.825 289.397812 
C 93.825 293.650344 95.650471 297.729276 98.899375 300.73627 
C 102.148279 303.743264 106.555356 305.432812 111.15 305.432812 
z
" clip-path="url(#p498d7eaf99)" style="fill: #f39c12; opacity: 0.9; stroke: #f39c12; stroke-width: 1.5; stroke-linejoin: miter"/>
   </g>
   <g id="patch_6">
    <path d="M 249.75 305.432812 
C 254.344644 305.432812 258.751721 303.743264 262.000625 300.73627 
C 265.249529 297.729276 267.075 293.650344 267.075 289.397812 
C 267.075 285.145281 265.249529 281.066349 262.000625 278.059355 
C 258.751721 275.052361 254.344644 273.362813 249.75 273.362813 
C 245.155356 273.362813 240.748279 275.052361 237.499375 278.059355 
C 234.250471 281.066349 232.425 285.145281 232.425 289.397812 
C 232.425 293.650344 234.250471 297.729276 237.499375 300.73627 
C 240.748279 303.743264 245.155356 305.432812 249.75 305.432812 
z
" clip-path="url(#p498d7eaf99)" style="fill: #9b59b6; opacity: 0.9; stroke: #9b59b6; stroke-width: 1.5; stroke-linejoin: miter"/>
   </g>
   <g id="patch_7">
    <path d="M 388.35 244.499812 
C 393.863572 244.499812 399.152066 242.472354 403.05075 238.863961 
C 406.949434 235.255568 409.14 230.360851 409.14 225.257812 
C 409.14 220.154774 406.949434 215.260057 403.05075 211.651664 
C 399.152066 208.043271 393.863572 206.015813 388.35 206.015813 
C 382.836428 206.015813 377.547934 208.043271 373.64925 211.651664 
C 369.750566 215.260057 367.56 220.154774 367.56 225.257812 
C 367.56 230.360851 369.750566 235.255568 373.64925 238.863961 
C 377.547934 242.472354 382.836428 244.499812 388.35 244.499812 
z
" clip-path="url(#p498d7eaf99)" style="fill: #95a5a6; opacity: 0.9; stroke: #95a5a6; stroke-width: 1.5; stroke-linejoin: miter"/>
   </g>
   <g id="patch_8">
    <path d="M 457.65 177.152813 
C 462.244644 177.152813 466.651721 175.463264 469.900625 172.45627 
C 473.149529 169.449276 474.975 165.370344 474.975 161.117813 
C 474.975 156.865281 473.149529 152.786349 469.900625 149.779355 
C 466.651721 146.772361 462.244644 145.082813 457.65 145.082813 
C 453.055356 145.082813 448.648279 146.772361 445.399375 149.779355 
C 442.150471 152.786349 440.325 156.865281 440.325 161.117813 
C 440.325 165.370344 442.150471 169.449276 445.399375 172.45627 
C 448.648279 175.463264 453.055356 177.152813 457.65 177.152813 
z
" clip-path="url(#p498d7eaf99)" style="fill: #e74c3c; opacity: 0.9; stroke: #e74c3c; stroke-width: 1.5; stroke-linejoin: miter"/>
   </g>
   <g id="patch_9">
    <path d="M 319.05 177.152813 
C 323.644644 177.152813 328.051721 175.463264 331.300625 172.45627 
C 334.549529 169.449276 336.375 165.370344 336.375 161.117813 
C 336.375 156.865281 334.549529 152.786349 331.300625 149.779355 
C 328.051721 146.772361 323.644644 145.082813 319.05 145.082813 
C 314.455356 145.082813 310.048279 146.772361 306.799375 149.779355 
C 303.550471 152.786349 301.725 156.865281 301.725 161.117813 
C 301.725 165.370344 303.550471 169.449276 306.799375 172.45627 
C 310.048279 175.463264 314.455356 177.152813 319.05 177.152813 
z
" clip-path="url(#p498d7eaf99)" style="fill: #3498db; opacity: 0.9; stroke: #3498db; stroke-width: 1.5; stroke-linejoin: miter"/>
   </g>
   <g id="patch_10">
    <path d="M 457.65 305.432812 
C 462.244644 305.432812 466.651721 303.743264 469.900625 300.73627 
C 473.149529 297.729276 474.975 293.650344 474.975 289.397812 
C 474.975 285.145281 473.149529 281.066349 469.900625 278.059355 
C 466.651721 275.052361 462.244644 273.362813 457.65 273.362813 
C 453.055356 273.362813 448.648279 275.052361 445.399375 278.059355 
C 442.150471 281.066349 440.325 285.145281 440.325 289.397812 
C 440.325 293.650344 442.150471 297.729276 445.399375 300.73627 
C 448.648279 303.743264 453.055356 305.432812 457.65 305.432812 
z
" clip-path="url(#p498d7eaf99)" style="fill: #f39c12; opacity: 0.9; stroke: #f39c12; stroke-width: 1.5; stroke-linejoin: miter"/>
   </g>
   <g id="patch_11">
    <path d="M 319.05 305.432812 
C 323.644644 305.432812 328.051721 303.743264 331.300625 300.73627 
C 334.549529 297.729276 336.375 293.650344 336.375 289.397812 
C 336.375 285.145281 334.549529 281.066349 331.300625 278.059355 
C 328.051721 275.052361 323.644644 273.362813 319.05 273.362813 
C 314.455356 273.362813 310.048279 275.052361 306.799375 278.059355 
C 303.550471 281.066349 301.725 285.145281 301.725 289.397812 
C 301.725 293.650344 303.550471 297.729276 306.799375 300.73627 
C 310.048279 303.743264 314.455356 305.432812 319.05 305.432812 
z
" clip-path="url(#p498d7eaf99)" style="fill: #9b59b6; opacity: 0.9; stroke: #9b59b6; stroke-width: 1.5; stroke-linejoin: miter"/>
   </g>
   <g id="line2d_1">
    <path d="M 123.400625 172.45627 
L 165.74925 211.651664 
" clip-path="url(#p498d7eaf99)" style="fill: none; stroke: #2ecc71; stroke-width: 2.5; stroke-linecap: square"/>
   </g>
   <g id="line2d_2">
    <path d="M 237.499375 172.45627 
L 195.15075 211.651664 
" clip-path="url(#p498d7eaf99)" style="fill: none; stroke: #2ecc71; stroke-width: 2.5; stroke-linecap: square"/>
   </g>
   <g id="line2d_3">
    <path d="M 123.400625 278.059355 
L 165.74925 238.863961 
" clip-path="url(#p498d7eaf99)" style="fill: none; stroke: #2ecc71; stroke-width: 2.5; stroke-linecap: square"/>
   </g>
   <g id="line2d_4">
    <path d="M 237.499375 278.059355 
L 195.15075 238.863961 
" clip-path="url(#p498d7eaf99)" style="fill: none; stroke: #2ecc71; stroke-width: 2.5; stroke-linecap: square"/>
   </g>
   <g id="line2d_5">
    <path d="M 284.4 417.677812 
L 284.4 32.837812 
" clip-path="url(#p498d7eaf99)" style="fill: none; stroke-dasharray: 7.4,3.2; stroke-dashoffset: 0; stroke: #ecf0f1; stroke-width: 2"/>
   </g>
   <g id="line2d_6">
    <path d="M 445.399375 172.45627 
L 403.05075 211.651664 
" clip-path="url(#p498d7eaf99)" style="fill: none; stroke: #2ecc71; stroke-width: 2.5; stroke-linecap: square"/>
   </g>
   <g id="line2d_7">
    <path d="M 331.300625 172.45627 
L 373.64925 211.651664 
" clip-path="url(#p498d7eaf99)" style="fill: none; stroke: #2ecc71; stroke-width: 2.5; stroke-linecap: square"/>
   </g>
   <g id="line2d_8">
    <path d="M 445.399375 278.059355 
L 403.05075 238.863961 
" clip-path="url(#p498d7eaf99)" style="fill: none; stroke: #2ecc71; stroke-width: 2.5; stroke-linecap: square"/>
   </g>
   <g id="line2d_9">
    <path d="M 331.300625 278.059355 
L 373.64925 238.863961 
" clip-path="url(#p498d7eaf99)" style="fill: none; stroke: #2ecc71; stroke-width: 2.5; stroke-linecap: square"/>
   </g>
   <g id="text_1">
    <!-- C* -->
    <g style="fill: #ffffff" transform="translate(174.458594 228.017188) scale(0.1 -0.1)">
     <defs>
      <path id="DejaVuSans-43" d="M 4122 4306 
L 4122 3641 
Q 3803 3938 3442 4084 
Q 3081 4231 2675 4231 
Q 1875 4231 1450 3742 
Q 1025 3253 1025 2328 
Q 1025 1406 1450 917 
Q 1875 428 2675 428 
Q 3081 428 3442 575 
Q 3803 722 4122 1019 
L 4122 359 
Q 3791 134 3420 21 
Q 3050 -91 2638 -91 
Q 1578 -91 968 557 
Q 359 1206 359 2328 
Q 359 3453 968 4101 
Q 1578 4750 2638 4750 
Q 3056 4750 3426 4639 
Q 3797 4528 4122 4306 
z
" transform="scale(0.015625)"/>
      <path id="DejaVuSans-2a" d="M 3009 3897 
L 1888 3291 
L 3009 2681 
L 2828 2375 
L 1778 3009 
L 1778 1831 
L 1422 1831 
L 1422 3009 
L 372 2375 
L 191 2681 
L 1313 3291 
L 191 3897 
L 372 4206 
L 1422 3572 
L 1422 4750 
L 1778 4750 
L 1778 3572 
L 2828 4206 
L 3009 3897 
z
" transform="scale(0.015625)"/>
     </defs>
     <use xlink:href="#DejaVuSans-43"/>
     <use xlink:href="#DejaVuSans-2a" transform="translate(69.824219 0)"/>
    </g>
   </g>
   <g id="text_2">
    <!-- A -->
    <g style="fill: #ffffff" transform="translate(107.729687 163.877187) scale(0.1 -0.1)">
     <defs>
      <path id="DejaVuSans-41" d="M 2188 4044 
L 1331 1722 
L 3047 1722 
L 2188 4044 
z
M 1831 4666 
L 2547 4666 
L 4325 0 
L 3669 0 
L 3244 1197 
L 1141 1197 
L 716 0 
L 50 0 
L 1831 4666 
z
" transform="scale(0.015625)"/>
     </defs>
     <use xlink:href="#DejaVuSans-41"/>
    </g>
   </g>
   <g id="text_3">
    <!-- B -->
    <g style="fill: #ffffff" transform="translate(246.319531 163.877187) scale(0.1 -0.1)">
     <defs>
      <path id="DejaVuSans-42" d="M 1259 2228 
L 1259 519 
L 2272 519 
Q 2781 519 3026 730 
Q 3272 941 3272 1375 
Q 3272 1813 3026 2020 
Q 2781 2228 2272 2228 
L 1259 2228 
z
M 1259 4147 
L 1259 2741 
L 2194 2741 
Q 2656 2741 2882 2914 
Q 3109 3088 3109 3444 
Q 3109 3797 2882 3972 
Q 2656 4147 2194 4147 
L 1259 4147 
z
M 628 4666 
L 2241 4666 
Q 2963 4666 3353 4366 
Q 3744 4066 3744 3513 
Q 3744 3084 3544 2831 
Q 3344 2578 2956 2516 
Q 3422 2416 3680 2098 
Q 3938 1781 3938 1306 
Q 3938 681 3513 340 
Q 3088 0 2303 0 
L 628 0 
L 628 4666 
z
" transform="scale(0.015625)"/>
     </defs>
     <use xlink:href="#DejaVuSans-42"/>
    </g>
   </g>
   <g id="text_4">
    <!-- C -->
    <g style="fill: #ffffff" transform="translate(107.658594 292.157187) scale(0.1 -0.1)">
     <use xlink:href="#DejaVuSans-43"/>
    </g>
   </g>
   <g id="text_5">
    <!-- D -->
    <g style="fill: #ffffff" transform="translate(245.9 292.157187) scale(0.1 -0.1)">
     <defs>
      <path id="DejaVuSans-44" d="M 1259 4147 
L 1259 519 
L 2022 519 
Q 2988 519 3436 956 
Q 3884 1394 3884 2338 
Q 3884 3275 3436 3711 
Q 2988 4147 2022 4147 
L 1259 4147 
z
M 628 4666 
L 1925 4666 
Q 3281 4666 3915 4102 
Q 4550 3538 4550 2338 
Q 4550 1131 3912 565 
Q 3275 0 1925 0 
L 628 0 
L 628 4666 
z
" transform="scale(0.015625)"/>
     </defs>
     <use xlink:href="#DejaVuSans-44"/>
    </g>
   </g>
   <g id="text_6">
    <!-- Mirror -->
    <g style="fill: #95a5a6" transform="translate(272.616875 64.907813) scale(0.08 -0.08)">
     <defs>
      <path id="DejaVuSans-4d" d="M 628 4666 
L 1569 4666 
L 2759 1491 
L 3956 4666 
L 4897 4666 
L 4897 0 
L 4281 0 
L 4281 4097 
L 3078 897 
L 2444 897 
L 1241 4097 
L 1241 0 
L 628 0 
L 628 4666 
z
" transform="scale(0.015625)"/>
      <path id="DejaVuSans-69" d="M 603 3500 
L 1178 3500 
L 1178 0 
L 603 0 
L 603 3500 
z
M 603 4863 
L 1178 4863 
L 1178 4134 
L 603 4134 
L 603 4863 
z
" transform="scale(0.015625)"/>
      <path id="DejaVuSans-72" d="M 2631 2963 
Q 2534 3019 2420 3045 
Q 2306 3072 2169 3072 
Q 1681 3072 1420 2755 
Q 1159 2438 1159 1844 
L 1159 0 
L 581 0 
L 581 3500 
L 1159 3500 
L 1159 2956 
Q 1341 3275 1631 3429 
Q 1922 3584 2338 3584 
Q 2397 3584 2469 3576 
Q 2541 3569 2628 3553 
L 2631 2963 
z
" transform="scale(0.015625)"/>
      <path id="DejaVuSans-6f" d="M 1959 3097 
Q 1497 3097 1228 2736 
Q 959 2375 959 1747 
Q 959 1119 1226 758 
Q 1494 397 1959 397 
Q 2419 397 2687 759 
Q 2956 1122 2956 1747 
Q 2956 2369 2687 2733 
Q 2419 3097 1959 3097 
z
M 1959 3584 
Q 2709 3584 3137 3096 
Q 3566 2609 3566 1747 
Q 3566 888 3137 398 
Q 2709 -91 1959 -91 
Q 1206 -91 779 398 
Q 353 888 353 1747 
Q 353 2609 779 3096 
Q 1206 3584 1959 3584 
z
" transform="scale(0.015625)"/>
     </defs>
     <use xlink:href="#DejaVuSans-4d"/>
     <use xlink:href="#DejaVuSans-69" transform="translate(86.279297 0)"/>
     <use xlink:href="#DejaVuSans-72" transform="translate(114.0625 0)"/>
     <use xlink:href="#DejaVuSans-72" transform="translate(153.425781 0)"/>
     <use xlink:href="#DejaVuSans-6f" transform="translate(192.289062 0)"/>
     <use xlink:href="#DejaVuSans-72" transform="translate(253.470703 0)"/>
    </g>
   </g>
   <g id="text_7">
    <!-- C* -->
    <g style="fill: #ffffff" transform="translate(382.358594 228.017188) scale(0.1 -0.1)">
     <use xlink:href="#DejaVuSans-43"/>
     <use xlink:href="#DejaVuSans-2a" transform="translate(69.824219 0)"/>
    </g>
   </g>
   <g id="text_8">
    <!-- A -->
    <g style="fill: #ffffff" transform="translate(454.229687 163.877187) scale(0.1 -0.1)">
     <use xlink:href="#DejaVuSans-41"/>
    </g>
   </g>
   <g id="text_9">
    <!-- B -->
    <g style="fill: #ffffff" transform="translate(315.619531 163.877187) scale(0.1 -0.1)">
     <use xlink:href="#DejaVuSans-42"/>
    </g>
   </g>
   <g id="text_10">
    <!-- C -->
    <g style="fill: #ffffff" transform="translate(454.158594 292.157187) scale(0.1 -0.1)">
     <use xlink:href="#DejaVuSans-43"/>
    </g>
   </g>
   <g id="text_11">
    <!-- D -->
    <g style="fill: #ffffff" transform="translate(315.2 292.157187) scale(0.1 -0.1)">
     <use xlink:href="#DejaVuSans-44"/>
    </g>
   </g>
   <g id="text_12">
    <!-- Mirror images are NOT superimposable → Enantiomers -->
    <g transform="translate(147.496094 366.365812) scale(0.1 -0.1)">
     <defs>
      <path id="DejaVuSans-20" transform="scale(0.015625)"/>
      <path id="DejaVuSans-6d" d="M 3328 2828 
Q 3544 3216 3844 3400 
Q 4144 3584 4550 3584 
Q 5097 3584 5394 3201 
Q 5691 2819 5691 2113 
L 5691 0 
L 5113 0 
L 5113 2094 
Q 5113 2597 4934 2840 
Q 4756 3084 4391 3084 
Q 3944 3084 3684 2787 
Q 3425 2491 3425 1978 
L 3425 0 
L 2847 0 
L 2847 2094 
Q 2847 2600 2669 2842 
Q 2491 3084 2119 3084 
Q 1678 3084 1418 2786 
Q 1159 2488 1159 1978 
L 1159 0 
L 581 0 
L 581 3500 
L 1159 3500 
L 1159 2956 
Q 1356 3278 1631 3431 
Q 1906 3584 2284 3584 
Q 2666 3584 2933 3390 
Q 3200 3197 3328 2828 
z
" transform="scale(0.015625)"/>
      <path id="DejaVuSans-61" d="M 2194 1759 
Q 1497 1759 1228 1600 
Q 959 1441 959 1056 
Q 959 750 1161 570 
Q 1363 391 1709 391 
Q 2188 391 2477 730 
Q 2766 1069 2766 1631 
L 2766 1759 
L 2194 1759 
z
M 3341 1997 
L 3341 0 
L 2766 0 
L 2766 531 
Q 2569 213 2275 61 
Q 1981 -91 1556 -91 
Q 1019 -91 701 211 
Q 384 513 384 1019 
Q 384 1609 779 1909 
Q 1175 2209 1959 2209 
L 2766 2209 
L 2766 2266 
Q 2766 2663 2505 2880 
Q 2244 3097 1772 3097 
Q 1472 3097 1187 3025 
Q 903 2953 641 2809 
L 641 3341 
Q 956 3463 1253 3523 
Q 1550 3584 1831 3584 
Q 2591 3584 2966 3190 
Q 3341 2797 3341 1997 
z
" transform="scale(0.015625)"/>
      <path id="DejaVuSans-67" d="M 2906 1791 
Q 2906 2416 2648 2759 
Q 2391 3103 1925 3103 
Q 1463 3103 1205 2759 
Q 947 2416 947 1791 
Q 947 1169 1205 825 
Q 1463 481 1925 481 
Q 2391 481 2648 825 
Q 2906 1169 2906 1791 
z
M 3481 434 
Q 3481 -459 3084 -895 
Q 2688 -1331 1869 -1331 
Q 1566 -1331 1297 -1286 
Q 1028 -1241 775 -1147 
L 775 -588 
Q 1028 -725 1275 -790 
Q 1522 -856 1778 -856 
Q 2344 -856 2625 -561 
Q 2906 -266 2906 331 
L 2906 616 
Q 2728 306 2450 153 
Q 2172 0 1784 0 
Q 1141 0 747 490 
Q 353 981 353 1791 
Q 353 2603 747 3093 
Q 1141 3584 1784 3584 
Q 2172 3584 2450 3431 
Q 2728 3278 2906 2969 
L 2906 3500 
L 3481 3500 
L 3481 434 
z
" transform="scale(0.015625)"/>
      <path id="DejaVuSans-65" d="M 3597 1894 
L 3597 1613 
L 953 1613 
Q 991 1019 1311 708 
Q 1631 397 2203 397 
Q 2534 397 2845 478 
Q 3156 559 3463 722 
L 3463 178 
Q 3153 47 2828 -22 
Q 2503 -91 2169 -91 
Q 1331 -91 842 396 
Q 353 884 353 1716 
Q 353 2575 817 3079 
Q 1281 3584 2069 3584 
Q 2775 3584 3186 3129 
Q 3597 2675 3597 1894 
z
M 3022 2063 
Q 3016 2534 2758 2815 
Q 2500 3097 2075 3097 
Q 1594 3097 1305 2825 
Q 1016 2553 972 2059 
L 3022 2063 
z
" transform="scale(0.015625)"/>
      <path id="DejaVuSans-73" d="M 2834 3397 
L 2834 2853 
Q 2591 2978 2328 3040 
Q 2066 3103 1784 3103 
Q 1356 3103 1142 2972 
Q 928 2841 928 2578 
Q 928 2378 1081 2264 
Q 1234 2150 1697 2047 
L 1894 2003 
Q 2506 1872 2764 1633 
Q 3022 1394 3022 966 
Q 3022 478 2636 193 
Q 2250 -91 1575 -91 
Q 1294 -91 989 -36 
Q 684 19 347 128 
L 347 722 
Q 666 556 975 473 
Q 1284 391 1588 391 
Q 1994 391 2212 530 
Q 2431 669 2431 922 
Q 2431 1156 2273 1281 
Q 2116 1406 1581 1522 
L 1381 1569 
Q 847 1681 609 1914 
Q 372 2147 372 2553 
Q 372 3047 722 3315 
Q 1072 3584 1716 3584 
Q 2034 3584 2315 3537 
Q 2597 3491 2834 3397 
z
" transform="scale(0.015625)"/>
      <path id="DejaVuSans-4e" d="M 628 4666 
L 1478 4666 
L 3547 763 
L 3547 4666 
L 4159 4666 
L 4159 0 
L 3309 0 
L 1241 3903 
L 1241 0 
L 628 0 
L 628 4666 
z
" transform="scale(0.015625)"/>
      <path id="DejaVuSans-4f" d="M 2522 4238 
Q 1834 4238 1429 3725 
Q 1025 3213 1025 2328 
Q 1025 1447 1429 934 
Q 1834 422 2522 422 
Q 3209 422 3611 934 
Q 4013 1447 4013 2328 
Q 4013 3213 3611 3725 
Q 3209 4238 2522 4238 
z
M 2522 4750 
Q 3503 4750 4090 4092 
Q 4678 3434 4678 2328 
Q 4678 1225 4090 567 
Q 3503 -91 2522 -91 
Q 1538 -91 948 565 
Q 359 1222 359 2328 
Q 359 3434 948 4092 
Q 1538 4750 2522 4750 
z
" transform="scale(0.015625)"/>
      <path id="DejaVuSans-54" d="M -19 4666 
L 3928 4666 
L 3928 4134 
L 2272 4134 
L 2272 0 
L 1638 0 
L 1638 4134 
L -19 4134 
L -19 4666 
z
" transform="scale(0.015625)"/>
      <path id="DejaVuSans-75" d="M 544 1381 
L 544 3500 
L 1119 3500 
L 1119 1403 
Q 1119 906 1312 657 
Q 1506 409 1894 409 
Q 2359 409 2629 706 
Q 2900 1003 2900 1516 
L 2900 3500 
L 3475 3500 
L 3475 0 
L 2900 0 
L 2900 538 
Q 2691 219 2414 64 
Q 2138 -91 1772 -91 
Q 1169 -91 856 284 
Q 544 659 544 1381 
z
M 1991 3584 
L 1991 3584 
z
" transform="scale(0.015625)"/>
      <path id="DejaVuSans-70" d="M 1159 525 
L 1159 -1331 
L 581 -1331 
L 581 3500 
L 1159 3500 
L 1159 2969 
Q 1341 3281 1617 3432 
Q 1894 3584 2278 3584 
Q 2916 3584 3314 3078 
Q 3713 2572 3713 1747 
Q 3713 922 3314 415 
Q 2916 -91 2278 -91 
Q 1894 -91 1617 61 
Q 1341 213 1159 525 
z
M 3116 1747 
Q 3116 2381 2855 2742 
Q 2594 3103 2138 3103 
Q 1681 3103 1420 2742 
Q 1159 2381 1159 1747 
Q 1159 1113 1420 752 
Q 1681 391 2138 391 
Q 2594 391 2855 752 
Q 3116 1113 3116 1747 
z
" transform="scale(0.015625)"/>
      <path id="DejaVuSans-62" d="M 3116 1747 
Q 3116 2381 2855 2742 
Q 2594 3103 2138 3103 
Q 1681 3103 1420 2742 
Q 1159 2381 1159 1747 
Q 1159 1113 1420 752 
Q 1681 391 2138 391 
Q 2594 391 2855 752 
Q 3116 1113 3116 1747 
z
M 1159 2969 
Q 1341 3281 1617 3432 
Q 1894 3584 2278 3584 
Q 2916 3584 3314 3078 
Q 3713 2572 3713 1747 
Q 3713 922 3314 415 
Q 2916 -91 2278 -91 
Q 1894 -91 1617 61 
Q 1341 213 1159 525 
L 1159 0 
L 581 0 
L 581 4863 
L 1159 4863 
L 1159 2969 
z
" transform="scale(0.015625)"/>
      <path id="DejaVuSans-6c" d="M 603 4863 
L 1178 4863 
L 1178 0 
L 603 0 
L 603 4863 
z
" transform="scale(0.015625)"/>
      <path id="DejaVuSans-2192" d="M 5050 2147 
L 5050 1866 
L 3822 638 
L 3447 1013 
L 4175 1741 
L 366 1741 
L 366 2272 
L 4175 2272 
L 3447 3000 
L 3822 3375 
L 5050 2147 
z
" transform="scale(0.015625)"/>
      <path id="DejaVuSans-45" d="M 628 4666 
L 3578 4666 
L 3578 4134 
L 1259 4134 
L 1259 2753 
L 3481 2753 
L 3481 2222 
L 1259 2222 
L 1259 531 
L 3634 531 
L 3634 0 
L 628 0 
L 628 4666 
z
" transform="scale(0.015625)"/>
      <path id="DejaVuSans-6e" d="M 3513 2113 
L 3513 0 
L 2938 0 
L 2938 2094 
Q 2938 2591 2744 2837 
Q 2550 3084 2163 3084 
Q 1697 3084 1428 2787 
Q 1159 2491 1159 1978 
L 1159 0 
L 581 0 
L 581 3500 
L 1159 3500 
L 1159 2956 
Q 1366 3272 1645 3428 
Q 1925 3584 2291 3584 
Q 2894 3584 3203 3211 
Q 3513 2838 3513 2113 
z
" transform="scale(0.015625)"/>
      <path id="DejaVuSans-74" d="M 1172 4494 
L 1172 3500 
L 2356 3500 
L 2356 3053 
L 1172 3053 
L 1172 1153 
Q 1172 725 1289 603 
Q 1406 481 1766 481 
L 2356 481 
L 2356 0 
L 1766 0 
Q 1100 0 847 248 
Q 594 497 594 1153 
L 594 3053 
L 172 3053 
L 172 3500 
L 594 3500 
L 594 4494 
L 1172 4494 
z
" transform="scale(0.015625)"/>
     </defs>
     <use xlink:href="#DejaVuSans-4d"/>
     <use xlink:href="#DejaVuSans-69" transform="translate(86.279297 0)"/>
     <use xlink:href="#DejaVuSans-72" transform="translate(114.0625 0)"/>
     <use xlink:href="#DejaVuSans-72" transform="translate(153.425781 0)"/>
     <use xlink:href="#DejaVuSans-6f" transform="translate(192.289062 0)"/>
     <use xlink:href="#DejaVuSans-72" transform="translate(253.470703 0)"/>
     <use xlink:href="#DejaVuSans-20" transform="translate(294.583984 0)"/>
     <use xlink:href="#DejaVuSans-69" transform="translate(326.371094 0)"/>
     <use xlink:href="#DejaVuSans-6d" transform="translate(354.154297 0)"/>
     <use xlink:href="#DejaVuSans-61" transform="translate(451.566406 0)"/>
     <use xlink:href="#DejaVuSans-67" transform="translate(512.845703 0)"/>
     <use xlink:href="#DejaVuSans-65" transform="translate(576.322266 0)"/>
     <use xlink:href="#DejaVuSans-73" transform="translate(637.845703 0)"/>
     <use xlink:href="#DejaVuSans-20" transform="translate(689.945312 0)"/>
     <use xlink:href="#DejaVuSans-61" transform="translate(721.732422 0)"/>
     <use xlink:href="#DejaVuSans-72" transform="translate(783.011719 0)"/>
     <use xlink:href="#DejaVuSans-65" transform="translate(821.875 0)"/>
     <use xlink:href="#DejaVuSans-20" transform="translate(883.398438 0)"/>
     <use xlink:href="#DejaVuSans-4e" transform="translate(915.185547 0)"/>
     <use xlink:href="#DejaVuSans-4f" transform="translate(989.990234 0)"/>
     <use xlink:href="#DejaVuSans-54" transform="translate(1068.701172 0)"/>
     <use xlink:href="#DejaVuSans-20" transform="translate(1129.785156 0)"/>
     <use xlink:href="#DejaVuSans-73" transform="translate(1161.572266 0)"/>
     <use xlink:href="#DejaVuSans-75" transform="translate(1213.671875 0)"/>
     <use xlink:href="#DejaVuSans-70" transform="translate(1277.050781 0)"/>
     <use xlink:href="#DejaVuSans-65" transform="translate(1340.527344 0)"/>
     <use xlink:href="#DejaVuSans-72" transform="translate(1402.050781 0)"/>
     <use xlink:href="#DejaVuSans-69" transform="translate(1443.164062 0)"/>
     <use xlink:href="#DejaVuSans-6d" transform="translate(1470.947266 0)"/>
     <use xlink:href="#DejaVuSans-70" transform="translate(1568.359375 0)"/>
     <use xlink:href="#DejaVuSans-6f" transform="translate(1631.835938 0)"/>
     <use xlink:href="#DejaVuSans-73" transform="translate(1693.017578 0)"/>
     <use xlink:href="#DejaVuSans-61" transform="translate(1745.117188 0)"/>
     <use xlink:href="#DejaVuSans-62" transform="translate(1806.396484 0)"/>
     <use xlink:href="#DejaVuSans-6c" transform="translate(1869.873047 0)"/>
     <use xlink:href="#DejaVuSans-65" transform="translate(1897.65625 0)"/>
     <use xlink:href="#DejaVuSans-20" transform="translate(1959.179688 0)"/>
     <use xlink:href="#DejaVuSans-2192" transform="translate(1990.966797 0)"/>
     <use xlink:href="#DejaVuSans-20" transform="translate(2074.755859 0)"/>
     <use xlink:href="#DejaVuSans-45" transform="translate(2106.542969 0)"/>
     <use xlink:href="#DejaVuSans-6e" transform="translate(2169.726562 0)"/>
     <use xlink:href="#DejaVuSans-61" transform="translate(2233.105469 0)"/>
     <use xlink:href="#DejaVuSans-6e" transform="translate(2294.384766 0)"/>
     <use xlink:href="#DejaVuSans-74" transform="translate(2357.763672 0)"/>
     <use xlink:href="#DejaVuSans-69" transform="translate(2396.972656 0)"/>
     <use xlink:href="#DejaVuSans-6f" transform="translate(2424.755859 0)"/>
     <use xlink:href="#DejaVuSans-6d" transform="translate(2485.9375 0)"/>
     <use xlink:href="#DejaVuSans-65" transform="translate(2583.349609 0)"/>
     <use xlink:href="#DejaVuSans-72" transform="translate(2644.873047 0)"/>
     <use xlink:href="#DejaVuSans-73" transform="translate(2685.986328 0)"/>
    </g>
   </g>
   <g id="text_13">
    <!-- C* = chiral center (4 different groups) -->
    <g style="fill: #95a5a6" transform="translate(208.293125 398.435812) scale(0.08 -0.08)">
     <defs>
      <path id="DejaVuSans-3d" d="M 678 2906 
L 4684 2906 
L 4684 2381 
L 678 2381 
L 678 2906 
z
M 678 1631 
L 4684 1631 
L 4684 1100 
L 678 1100 
L 678 1631 
z
" transform="scale(0.015625)"/>
      <path id="DejaVuSans-63" d="M 3122 3366 
L 3122 2828 
Q 2878 2963 2633 3030 
Q 2388 3097 2138 3097 
Q 1578 3097 1268 2742 
Q 959 2388 959 1747 
Q 959 1106 1268 751 
Q 1578 397 2138 397 
Q 2388 397 2633 464 
Q 2878 531 3122 666 
L 3122 134 
Q 2881 22 2623 -34 
Q 2366 -91 2075 -91 
Q 1284 -91 818 406 
Q 353 903 353 1747 
Q 353 2603 823 3093 
Q 1294 3584 2113 3584 
Q 2378 3584 2631 3529 
Q 2884 3475 3122 3366 
z
" transform="scale(0.015625)"/>
      <path id="DejaVuSans-68" d="M 3513 2113 
L 3513 0 
L 2938 0 
L 2938 2094 
Q 2938 2591 2744 2837 
Q 2550 3084 2163 3084 
Q 1697 3084 1428 2787 
Q 1159 2491 1159 1978 
L 1159 0 
L 581 0 
L 581 4863 
L 1159 4863 
L 1159 2956 
Q 1366 3272 1645 3428 
Q 1925 3584 2291 3584 
Q 2894 3584 3203 3211 
Q 3513 2838 3513 2113 
z
" transform="scale(0.015625)"/>
      <path id="DejaVuSans-28" d="M 1984 4856 
Q 1566 4138 1362 3434 
Q 1159 2731 1159 2009 
Q 1159 1288 1364 580 
Q 1569 -128 1984 -844 
L 1484 -844 
Q 1016 -109 783 600 
Q 550 1309 550 2009 
Q 550 2706 781 3412 
Q 1013 4119 1484 4856 
L 1984 4856 
z
" transform="scale(0.015625)"/>
      <path id="DejaVuSans-34" d="M 2419 4116 
L 825 1625 
L 2419 1625 
L 2419 4116 
z
M 2253 4666 
L 3047 4666 
L 3047 1625 
L 3713 1625 
L 3713 1100 
L 3047 1100 
L 3047 0 
L 2419 0 
L 2419 1100 
L 313 1100 
L 313 1709 
L 2253 4666 
z
" transform="scale(0.015625)"/>
      <path id="DejaVuSans-64" d="M 2906 2969 
L 2906 4863 
L 3481 4863 
L 3481 0 
L 2906 0 
L 2906 525 
Q 2725 213 2448 61 
Q 2172 -91 1784 -91 
Q 1150 -91 751 415 
Q 353 922 353 1747 
Q 353 2572 751 3078 
Q 1150 3584 1784 3584 
Q 2172 3584 2448 3432 
Q 2725 3281 2906 2969 
z
M 947 1747 
Q 947 1113 1208 752 
Q 1469 391 1925 391 
Q 2381 391 2643 752 
Q 2906 1113 2906 1747 
Q 2906 2381 2643 2742 
Q 2381 3103 1925 3103 
Q 1469 3103 1208 2742 
Q 947 2381 947 1747 
z
" transform="scale(0.015625)"/>
      <path id="DejaVuSans-66" d="M 2375 4863 
L 2375 4384 
L 1825 4384 
Q 1516 4384 1395 4259 
Q 1275 4134 1275 3809 
L 1275 3500 
L 2222 3500 
L 2222 3053 
L 1275 3053 
L 1275 0 
L 697 0 
L 697 3053 
L 147 3053 
L 147 3500 
L 697 3500 
L 697 3744 
Q 697 4328 969 4595 
Q 1241 4863 1831 4863 
L 2375 4863 
z
" transform="scale(0.015625)"/>
      <path id="DejaVuSans-29" d="M 513 4856 
L 1013 4856 
Q 1481 4119 1714 3412 
Q 1947 2706 1947 2009 
Q 1947 1309 1714 600 
Q 1481 -109 1013 -844 
L 513 -844 
Q 928 -128 1133 580 
Q 1338 1288 1338 2009 
Q 1338 2731 1133 3434 
Q 928 4138 513 4856 
z
" transform="scale(0.015625)"/>
     </defs>
     <use xlink:href="#DejaVuSans-43"/>
     <use xlink:href="#DejaVuSans-2a" transform="translate(69.824219 0)"/>
     <use xlink:href="#DejaVuSans-20" transform="translate(119.824219 0)"/>
     <use xlink:href="#DejaVuSans-3d" transform="translate(151.611328 0)"/>
     <use xlink:href="#DejaVuSans-20" transform="translate(235.400391 0)"/>
     <use xlink:href="#DejaVuSans-63" transform="translate(267.1875 0)"/>
     <use xlink:href="#DejaVuSans-68" transform="translate(322.167969 0)"/>
     <use xlink:href="#DejaVuSans-69" transform="translate(385.546875 0)"/>
     <use xlink:href="#DejaVuSans-72" transform="translate(413.330078 0)"/>
     <use xlink:href="#DejaVuSans-61" transform="translate(454.443359 0)"/>
     <use xlink:href="#DejaVuSans-6c" transform="translate(515.722656 0)"/>
     <use xlink:href="#DejaVuSans-20" transform="translate(543.505859 0)"/>
     <use xlink:href="#DejaVuSans-63" transform="translate(575.292969 0)"/>
     <use xlink:href="#DejaVuSans-65" transform="translate(630.273438 0)"/>
     <use xlink:href="#DejaVuSans-6e" transform="translate(691.796875 0)"/>
     <use xlink:href="#DejaVuSans-74" transform="translate(755.175781 0)"/>
     <use xlink:href="#DejaVuSans-65" transform="translate(794.384766 0)"/>
     <use xlink:href="#DejaVuSans-72" transform="translate(855.908203 0)"/>
     <use xlink:href="#DejaVuSans-20" transform="translate(897.021484 0)"/>
     <use xlink:href="#DejaVuSans-28" transform="translate(928.808594 0)"/>
     <use xlink:href="#DejaVuSans-34" transform="translate(967.822266 0)"/>
     <use xlink:href="#DejaVuSans-20" transform="translate(1031.445312 0)"/>
     <use xlink:href="#DejaVuSans-64" transform="translate(1063.232422 0)"/>
     <use xlink:href="#DejaVuSans-69" transform="translate(1126.708984 0)"/>
     <use xlink:href="#DejaVuSans-66" transform="translate(1154.492188 0)"/>
     <use xlink:href="#DejaVuSans-66" transform="translate(1189.697266 0)"/>
     <use xlink:href="#DejaVuSans-65" transform="translate(1224.902344 0)"/>
     <use xlink:href="#DejaVuSans-72" transform="translate(1286.425781 0)"/>
     <use xlink:href="#DejaVuSans-65" transform="translate(1325.289062 0)"/>
     <use xlink:href="#DejaVuSans-6e" transform="translate(1386.8125 0)"/>
     <use xlink:href="#DejaVuSans-74" transform="translate(1450.191406 0)"/>
     <use xlink:href="#DejaVuSans-20" transform="translate(1489.400391 0)"/>
     <use xlink:href="#DejaVuSans-67" transform="translate(1521.1875 0)"/>
     <use xlink:href="#DejaVuSans-72" transform="translate(1584.664062 0)"/>
     <use xlink:href="#DejaVuSans-6f" transform="translate(1623.527344 0)"/>
     <use xlink:href="#DejaVuSans-75" transform="translate(1684.708984 0)"/>
     <use xlink:href="#DejaVuSans-70" transform="translate(1748.087891 0)"/>
     <use xlink:href="#DejaVuSans-73" transform="translate(1811.564453 0)"/>
     <use xlink:href="#DejaVuSans-29" transform="translate(1863.664062 0)"/>
    </g>
   </g>
   <g id="text_14">
    <!-- Chirality (Handedness) -->
    <g transform="translate(204.278437 17.837812) scale(0.14 -0.14)">
     <defs>
      <path id="DejaVuSans-79" d="M 2059 -325 
Q 1816 -950 1584 -1140 
Q 1353 -1331 966 -1331 
L 506 -1331 
L 506 -850 
L 844 -850 
Q 1081 -850 1212 -737 
Q 1344 -625 1503 -206 
L 1606 56 
L 191 3500 
L 800 3500 
L 1894 763 
L 2988 3500 
L 3597 3500 
L 2059 -325 
z
" transform="scale(0.015625)"/>
      <path id="DejaVuSans-48" d="M 628 4666 
L 1259 4666 
L 1259 2753 
L 3553 2753 
L 3553 4666 
L 4184 4666 
L 4184 0 
L 3553 0 
L 3553 2222 
L 1259 2222 
L 1259 0 
L 628 0 
L 628 4666 
z
" transform="scale(0.015625)"/>
     </defs>
     <use xlink:href="#DejaVuSans-43"/>
     <use xlink:href="#DejaVuSans-68" transform="translate(69.824219 0)"/>
     <use xlink:href="#DejaVuSans-69" transform="translate(133.203125 0)"/>
     <use xlink:href="#DejaVuSans-72" transform="translate(160.986328 0)"/>
     <use xlink:href="#DejaVuSans-61" transform="translate(202.099609 0)"/>
     <use xlink:href="#DejaVuSans-6c" transform="translate(263.378906 0)"/>
     <use xlink:href="#DejaVuSans-69" transform="translate(291.162109 0)"/>
     <use xlink:href="#DejaVuSans-74" transform="translate(318.945312 0)"/>
     <use xlink:href="#DejaVuSans-79" transform="translate(358.154297 0)"/>
     <use xlink:href="#DejaVuSans-20" transform="translate(417.333984 0)"/>
     <use xlink:href="#DejaVuSans-28" transform="translate(449.121094 0)"/>
     <use xlink:href="#DejaVuSans-48" transform="translate(488.134766 0)"/>
     <use xlink:href="#DejaVuSans-61" transform="translate(563.330078 0)"/>
     <use xlink:href="#DejaVuSans-6e" transform="translate(624.609375 0)"/>
     <use xlink:href="#DejaVuSans-64" transform="translate(687.988281 0)"/>
     <use xlink:href="#DejaVuSans-65" transform="translate(751.464844 0)"/>
     <use xlink:href="#DejaVuSans-64" transform="translate(812.988281 0)"/>
     <use xlink:href="#DejaVuSans-6e" transform="translate(876.464844 0)"/>
     <use xlink:href="#DejaVuSans-65" transform="translate(939.84375 0)"/>
     <use xlink:href="#DejaVuSans-73" transform="translate(1001.367188 0)"/>
     <use xlink:href="#DejaVuSans-73" transform="translate(1053.466797 0)"/>
     <use xlink:href="#DejaVuSans-29" transform="translate(1105.566406 0)"/>
    </g>
   </g>
  </g>
 </g>
 <defs>
  <clipPath id="p498d7eaf99">
   <rect x="7.2" y="32.837812" width="554.4" height="384.84"/>
  </clipPath>
 </defs>
</svg>
