<?xml version="1.0" encoding="utf-8" standalone="no"?>
<!DOCTYPE svg PUBLIC "-//W3C//DTD SVG 1.1//EN"
  "http://www.w3.org/Graphics/SVG/1.1/DTD/svg11.dtd">
<svg xmlns:xlink="http://www.w3.org/1999/xlink" width="371.931429pt" height="352.877812pt" viewBox="0 0 371.931429 352.877812" xmlns="http://www.w3.org/2000/svg" version="1.1">
 <metadata>
  <rdf:RDF xmlns:dc="http://purl.org/dc/elements/1.1/" xmlns:cc="http://creativecommons.org/ns#" xmlns:rdf="http://www.w3.org/1999/02/22-rdf-syntax-ns#">
   <cc:Work>
    <dc:type rdf:resource="http://purl.org/dc/dcmitype/StillImage"/>
    <dc:date>2026-01-02T18:08:09.065617</dc:date>
    <dc:format>image/svg+xml</dc:format>
    <dc:creator>
     <cc:Agent>
      <dc:title>Matplotlib v3.10.8, https://matplotlib.org/</dc:title>
     </cc:Agent>
    </dc:creator>
   </cc:Work>
  </rdf:RDF>
 </metadata>
 <defs>
  <style type="text/css">*{stroke-linejoin: round; stroke-linecap: butt}</style>
 </defs>
 <g id="figure_1">
  <g id="patch_1">
   <path d="M 0 352.877812 
L 371.931429 352.877812 
L 371.931429 0 
L 0 0 
z
" style="fill: #ffffff"/>
  </g>
  <g id="axes_1">
   <g id="patch_2">
    <path d="M 185.965714 247.35667 
C 195.447559 247.35667 204.542328 243.589493 211.247004 236.884817 
C 217.95168 230.18014 221.718857 221.085371 221.718857 211.603527 
C 221.718857 202.121682 217.95168 193.026913 211.247004 186.322237 
C 204.542328 179.617561 195.447559 175.850384 185.965714 175.850384 
C 176.48387 175.850384 167.389101 179.617561 160.684425 186.322237 
C 153.979748 193.026913 150.212571 202.121682 150.212571 211.603527 
C 150.212571 221.085371 153.979748 230.18014 160.684425 236.884817 
C 167.389101 243.589493 176.48387 247.35667 185.965714 247.35667 
z
" clip-path="url(#pb0b6380383)" style="fill: #3498db; opacity: 0.9; stroke: #3498db; stroke-width: 1.5; stroke-linejoin: miter"/>
   </g>
   <g id="patch_3">
    <path d="M 115.291621 288.670971 
C 121.217774 288.670971 126.902004 286.316485 131.092427 282.126063 
C 135.28285 277.93564 137.637335 272.251409 137.637335 266.325256 
C 137.637335 260.399104 135.28285 254.714873 131.092427 250.52445 
C 126.902004 246.334028 121.217774 243.979542 115.291621 243.979542 
C 109.365468 243.979542 103.681238 246.334028 99.490815 250.52445 
C 95.300392 254.714873 92.945907 260.399104 92.945907 266.325256 
C 92.945907 272.251409 95.300392 277.93564 99.490815 282.126063 
C 103.681238 286.316485 109.365468 288.670971 115.291621 288.670971 
z
" clip-path="url(#pb0b6380383)" style="fill: #e74c3c; opacity: 0.9; stroke: #e74c3c; stroke-width: 1.5; stroke-linejoin: miter"/>
   </g>
   <g id="patch_4">
    <path d="M 256.639808 288.670971 
C 262.56596 288.670971 268.250191 286.316485 272.440614 282.126063 
C 276.631036 277.93564 278.985522 272.251409 278.985522 266.325256 
C 278.985522 260.399104 276.631036 254.714873 272.440614 250.52445 
C 268.250191 246.334028 262.56596 243.979542 256.639808 243.979542 
C 250.713655 243.979542 245.029424 246.334028 240.839001 250.52445 
C 236.648579 254.714873 234.294093 260.399104 234.294093 266.325256 
C 234.294093 272.251409 236.648579 277.93564 240.839001 282.126063 
C 245.029424 286.316485 250.713655 288.670971 256.639808 288.670971 
z
" clip-path="url(#pb0b6380383)" style="fill: #e74c3c; opacity: 0.9; stroke: #e74c3c; stroke-width: 1.5; stroke-linejoin: miter"/>
   </g>
   <g id="patch_5">
    <path d="M 143.508857 159.449197 
C 146.588176 161.227043 150.719032 160.893268 154.991651 158.521382 
C 159.26427 156.149497 163.329812 151.933154 166.292888 146.800955 
C 169.255964 141.668757 170.874653 136.039723 170.792457 131.153583 
C 170.710261 126.267444 168.933891 122.523131 165.854571 120.745285 
C 162.775252 118.967439 158.644397 119.301214 154.371778 121.6731 
C 150.099159 124.044985 146.033617 128.261328 143.070541 133.393527 
C 140.107464 138.525726 138.488775 144.154759 138.570972 149.040899 
C 138.653168 153.927038 140.429538 157.671351 143.508857 159.449197 
z
" clip-path="url(#pb0b6380383)" style="fill: #3498db; opacity: 0.4; stroke: #3498db; stroke-linejoin: miter"/>
   </g>
   <g id="patch_6">
    <path d="M 228.422571 159.449197 
C 231.501891 157.671351 233.278261 153.927038 233.360457 149.040899 
C 233.442653 144.154759 231.823964 138.525726 228.860888 133.393527 
C 225.897812 128.261328 221.83227 124.044985 217.559651 121.6731 
C 213.287032 119.301214 209.156176 118.967439 206.076857 120.745285 
C 202.997538 122.523131 201.221168 126.267444 201.138972 131.153583 
C 201.056775 136.039723 202.675464 141.668757 205.638541 146.800955 
C 208.601617 151.933154 212.667159 156.149497 216.939778 158.521382 
C 221.212397 160.893268 225.343252 161.227043 228.422571 159.449197 
z
" clip-path="url(#pb0b6380383)" style="fill: #3498db; opacity: 0.4; stroke: #3498db; stroke-linejoin: miter"/>
   </g>
   <g id="line2d_1">
    <path d="M 185.965714 247.35667 
L 143.561258 239.510399 
" clip-path="url(#pb0b6380383)" style="fill: none; stroke: #2ecc71; stroke-width: 2.5; stroke-linecap: square"/>
   </g>
   <g id="line2d_2">
    <path d="M 185.965714 247.35667 
L 228.37017 239.510399 
" clip-path="url(#pb0b6380383)" style="fill: none; stroke: #2ecc71; stroke-width: 2.5; stroke-linecap: square"/>
   </g>
   <g id="text_1">
    <!-- O -->
    <g style="fill: #ffffff" transform="translate(180.014621 215.466652) scale(0.14 -0.14)">
     <defs>
      <path id="DejaVuSans-Bold-4f" d="M 2719 3878 
Q 2169 3878 1866 3472 
Q 1563 3066 1563 2328 
Q 1563 1594 1866 1187 
Q 2169 781 2719 781 
Q 3272 781 3575 1187 
Q 3878 1594 3878 2328 
Q 3878 3066 3575 3472 
Q 3272 3878 2719 3878 
z
M 2719 4750 
Q 3844 4750 4481 4106 
Q 5119 3463 5119 2328 
Q 5119 1197 4481 553 
Q 3844 -91 2719 -91 
Q 1597 -91 958 553 
Q 319 1197 319 2328 
Q 319 3463 958 4106 
Q 1597 4750 2719 4750 
z
" transform="scale(0.015625)"/>
     </defs>
     <use xlink:href="#DejaVuSans-Bold-4f"/>
    </g>
   </g>
   <g id="text_2">
    <!-- H -->
    <g style="fill: #ffffff" transform="translate(111.531465 269.084631) scale(0.1 -0.1)">
     <defs>
      <path id="DejaVuSans-48" d="M 628 4666 
L 1259 4666 
L 1259 2753 
L 3553 2753 
L 3553 4666 
L 4184 4666 
L 4184 0 
L 3553 0 
L 3553 2222 
L 1259 2222 
L 1259 0 
L 628 0 
L 628 4666 
z
" transform="scale(0.015625)"/>
     </defs>
     <use xlink:href="#DejaVuSans-48"/>
    </g>
   </g>
   <g id="text_3">
    <!-- H -->
    <g style="fill: #ffffff" transform="translate(252.879651 269.084631) scale(0.1 -0.1)">
     <use xlink:href="#DejaVuSans-48"/>
    </g>
   </g>
   <g id="text_4">
    <!-- : -->
    <g style="fill: #3498db" transform="translate(151.882808 143.960366) scale(0.14 -0.14)">
     <defs>
      <path id="DejaVuSans-Bold-3a" d="M 716 3500 
L 1844 3500 
L 1844 2291 
L 716 2291 
L 716 3500 
z
M 716 1209 
L 1844 1209 
L 1844 0 
L 716 0 
L 716 1209 
z
" transform="scale(0.015625)"/>
     </defs>
     <use xlink:href="#DejaVuSans-Bold-3a"/>
    </g>
   </g>
   <g id="text_5">
    <!-- : -->
    <g style="fill: #3498db" transform="translate(214.450808 143.960366) scale(0.14 -0.14)">
     <use xlink:href="#DejaVuSans-Bold-3a"/>
    </g>
   </g>
   <g id="text_6">
    <!-- 2 bonding pairs + 2 lone pairs = tetrahedral arrangement -->
    <g style="fill: #2c3e50" transform="translate(69.715714 327.801241) scale(0.08 -0.08)">
     <defs>
      <path id="DejaVuSans-32" d="M 1228 531 
L 3431 531 
L 3431 0 
L 469 0 
L 469 531 
Q 828 903 1448 1529 
Q 2069 2156 2228 2338 
Q 2531 2678 2651 2914 
Q 2772 3150 2772 3378 
Q 2772 3750 2511 3984 
Q 2250 4219 1831 4219 
Q 1534 4219 1204 4116 
Q 875 4013 500 3803 
L 500 4441 
Q 881 4594 1212 4672 
Q 1544 4750 1819 4750 
Q 2544 4750 2975 4387 
Q 3406 4025 3406 3419 
Q 3406 3131 3298 2873 
Q 3191 2616 2906 2266 
Q 2828 2175 2409 1742 
Q 1991 1309 1228 531 
z
" transform="scale(0.015625)"/>
      <path id="DejaVuSans-20" transform="scale(0.015625)"/>
      <path id="DejaVuSans-62" d="M 3116 1747 
Q 3116 2381 2855 2742 
Q 2594 3103 2138 3103 
Q 1681 3103 1420 2742 
Q 1159 2381 1159 1747 
Q 1159 1113 1420 752 
Q 1681 391 2138 391 
Q 2594 391 2855 752 
Q 3116 1113 3116 1747 
z
M 1159 2969 
Q 1341 3281 1617 3432 
Q 1894 3584 2278 3584 
Q 2916 3584 3314 3078 
Q 3713 2572 3713 1747 
Q 3713 922 3314 415 
Q 2916 -91 2278 -91 
Q 1894 -91 1617 61 
Q 1341 213 1159 525 
L 1159 0 
L 581 0 
L 581 4863 
L 1159 4863 
L 1159 2969 
z
" transform="scale(0.015625)"/>
      <path id="DejaVuSans-6f" d="M 1959 3097 
Q 1497 3097 1228 2736 
Q 959 2375 959 1747 
Q 959 1119 1226 758 
Q 1494 397 1959 397 
Q 2419 397 2687 759 
Q 2956 1122 2956 1747 
Q 2956 2369 2687 2733 
Q 2419 3097 1959 3097 
z
M 1959 3584 
Q 2709 3584 3137 3096 
Q 3566 2609 3566 1747 
Q 3566 888 3137 398 
Q 2709 -91 1959 -91 
Q 1206 -91 779 398 
Q 353 888 353 1747 
Q 353 2609 779 3096 
Q 1206 3584 1959 3584 
z
" transform="scale(0.015625)"/>
      <path id="DejaVuSans-6e" d="M 3513 2113 
L 3513 0 
L 2938 0 
L 2938 2094 
Q 2938 2591 2744 2837 
Q 2550 3084 2163 3084 
Q 1697 3084 1428 2787 
Q 1159 2491 1159 1978 
L 1159 0 
L 581 0 
L 581 3500 
L 1159 3500 
L 1159 2956 
Q 1366 3272 1645 3428 
Q 1925 3584 2291 3584 
Q 2894 3584 3203 3211 
Q 3513 2838 3513 2113 
z
" transform="scale(0.015625)"/>
      <path id="DejaVuSans-64" d="M 2906 2969 
L 2906 4863 
L 3481 4863 
L 3481 0 
L 2906 0 
L 2906 525 
Q 2725 213 2448 61 
Q 2172 -91 1784 -91 
Q 1150 -91 751 415 
Q 353 922 353 1747 
Q 353 2572 751 3078 
Q 1150 3584 1784 3584 
Q 2172 3584 2448 3432 
Q 2725 3281 2906 2969 
z
M 947 1747 
Q 947 1113 1208 752 
Q 1469 391 1925 391 
Q 2381 391 2643 752 
Q 2906 1113 2906 1747 
Q 2906 2381 2643 2742 
Q 2381 3103 1925 3103 
Q 1469 3103 1208 2742 
Q 947 2381 947 1747 
z
" transform="scale(0.015625)"/>
      <path id="DejaVuSans-69" d="M 603 3500 
L 1178 3500 
L 1178 0 
L 603 0 
L 603 3500 
z
M 603 4863 
L 1178 4863 
L 1178 4134 
L 603 4134 
L 603 4863 
z
" transform="scale(0.015625)"/>
      <path id="DejaVuSans-67" d="M 2906 1791 
Q 2906 2416 2648 2759 
Q 2391 3103 1925 3103 
Q 1463 3103 1205 2759 
Q 947 2416 947 1791 
Q 947 1169 1205 825 
Q 1463 481 1925 481 
Q 2391 481 2648 825 
Q 2906 1169 2906 1791 
z
M 3481 434 
Q 3481 -459 3084 -895 
Q 2688 -1331 1869 -1331 
Q 1566 -1331 1297 -1286 
Q 1028 -1241 775 -1147 
L 775 -588 
Q 1028 -725 1275 -790 
Q 1522 -856 1778 -856 
Q 2344 -856 2625 -561 
Q 2906 -266 2906 331 
L 2906 616 
Q 2728 306 2450 153 
Q 2172 0 1784 0 
Q 1141 0 747 490 
Q 353 981 353 1791 
Q 353 2603 747 3093 
Q 1141 3584 1784 3584 
Q 2172 3584 2450 3431 
Q 2728 3278 2906 2969 
L 2906 3500 
L 3481 3500 
L 3481 434 
z
" transform="scale(0.015625)"/>
      <path id="DejaVuSans-70" d="M 1159 525 
L 1159 -1331 
L 581 -1331 
L 581 3500 
L 1159 3500 
L 1159 2969 
Q 1341 3281 1617 3432 
Q 1894 3584 2278 3584 
Q 2916 3584 3314 3078 
Q 3713 2572 3713 1747 
Q 3713 922 3314 415 
Q 2916 -91 2278 -91 
Q 1894 -91 1617 61 
Q 1341 213 1159 525 
z
M 3116 1747 
Q 3116 2381 2855 2742 
Q 2594 3103 2138 3103 
Q 1681 3103 1420 2742 
Q 1159 2381 1159 1747 
Q 1159 1113 1420 752 
Q 1681 391 2138 391 
Q 2594 391 2855 752 
Q 3116 1113 3116 1747 
z
" transform="scale(0.015625)"/>
      <path id="DejaVuSans-61" d="M 2194 1759 
Q 1497 1759 1228 1600 
Q 959 1441 959 1056 
Q 959 750 1161 570 
Q 1363 391 1709 391 
Q 2188 391 2477 730 
Q 2766 1069 2766 1631 
L 2766 1759 
L 2194 1759 
z
M 3341 1997 
L 3341 0 
L 2766 0 
L 2766 531 
Q 2569 213 2275 61 
Q 1981 -91 1556 -91 
Q 1019 -91 701 211 
Q 384 513 384 1019 
Q 384 1609 779 1909 
Q 1175 2209 1959 2209 
L 2766 2209 
L 2766 2266 
Q 2766 2663 2505 2880 
Q 2244 3097 1772 3097 
Q 1472 3097 1187 3025 
Q 903 2953 641 2809 
L 641 3341 
Q 956 3463 1253 3523 
Q 1550 3584 1831 3584 
Q 2591 3584 2966 3190 
Q 3341 2797 3341 1997 
z
" transform="scale(0.015625)"/>
      <path id="DejaVuSans-72" d="M 2631 2963 
Q 2534 3019 2420 3045 
Q 2306 3072 2169 3072 
Q 1681 3072 1420 2755 
Q 1159 2438 1159 1844 
L 1159 0 
L 581 0 
L 581 3500 
L 1159 3500 
L 1159 2956 
Q 1341 3275 1631 3429 
Q 1922 3584 2338 3584 
Q 2397 3584 2469 3576 
Q 2541 3569 2628 3553 
L 2631 2963 
z
" transform="scale(0.015625)"/>
      <path id="DejaVuSans-73" d="M 2834 3397 
L 2834 2853 
Q 2591 2978 2328 3040 
Q 2066 3103 1784 3103 
Q 1356 3103 1142 2972 
Q 928 2841 928 2578 
Q 928 2378 1081 2264 
Q 1234 2150 1697 2047 
L 1894 2003 
Q 2506 1872 2764 1633 
Q 3022 1394 3022 966 
Q 3022 478 2636 193 
Q 2250 -91 1575 -91 
Q 1294 -91 989 -36 
Q 684 19 347 128 
L 347 722 
Q 666 556 975 473 
Q 1284 391 1588 391 
Q 1994 391 2212 530 
Q 2431 669 2431 922 
Q 2431 1156 2273 1281 
Q 2116 1406 1581 1522 
L 1381 1569 
Q 847 1681 609 1914 
Q 372 2147 372 2553 
Q 372 3047 722 3315 
Q 1072 3584 1716 3584 
Q 2034 3584 2315 3537 
Q 2597 3491 2834 3397 
z
" transform="scale(0.015625)"/>
      <path id="DejaVuSans-2b" d="M 2944 4013 
L 2944 2272 
L 4684 2272 
L 4684 1741 
L 2944 1741 
L 2944 0 
L 2419 0 
L 2419 1741 
L 678 1741 
L 678 2272 
L 2419 2272 
L 2419 4013 
L 2944 4013 
z
" transform="scale(0.015625)"/>
      <path id="DejaVuSans-6c" d="M 603 4863 
L 1178 4863 
L 1178 0 
L 603 0 
L 603 4863 
z
" transform="scale(0.015625)"/>
      <path id="DejaVuSans-65" d="M 3597 1894 
L 3597 1613 
L 953 1613 
Q 991 1019 1311 708 
Q 1631 397 2203 397 
Q 2534 397 2845 478 
Q 3156 559 3463 722 
L 3463 178 
Q 3153 47 2828 -22 
Q 2503 -91 2169 -91 
Q 1331 -91 842 396 
Q 353 884 353 1716 
Q 353 2575 817 3079 
Q 1281 3584 2069 3584 
Q 2775 3584 3186 3129 
Q 3597 2675 3597 1894 
z
M 3022 2063 
Q 3016 2534 2758 2815 
Q 2500 3097 2075 3097 
Q 1594 3097 1305 2825 
Q 1016 2553 972 2059 
L 3022 2063 
z
" transform="scale(0.015625)"/>
      <path id="DejaVuSans-3d" d="M 678 2906 
L 4684 2906 
L 4684 2381 
L 678 2381 
L 678 2906 
z
M 678 1631 
L 4684 1631 
L 4684 1100 
L 678 1100 
L 678 1631 
z
" transform="scale(0.015625)"/>
      <path id="DejaVuSans-74" d="M 1172 4494 
L 1172 3500 
L 2356 3500 
L 2356 3053 
L 1172 3053 
L 1172 1153 
Q 1172 725 1289 603 
Q 1406 481 1766 481 
L 2356 481 
L 2356 0 
L 1766 0 
Q 1100 0 847 248 
Q 594 497 594 1153 
L 594 3053 
L 172 3053 
L 172 3500 
L 594 3500 
L 594 4494 
L 1172 4494 
z
" transform="scale(0.015625)"/>
      <path id="DejaVuSans-68" d="M 3513 2113 
L 3513 0 
L 2938 0 
L 2938 2094 
Q 2938 2591 2744 2837 
Q 2550 3084 2163 3084 
Q 1697 3084 1428 2787 
Q 1159 2491 1159 1978 
L 1159 0 
L 581 0 
L 581 4863 
L 1159 4863 
L 1159 2956 
Q 1366 3272 1645 3428 
Q 1925 3584 2291 3584 
Q 2894 3584 3203 3211 
Q 3513 2838 3513 2113 
z
" transform="scale(0.015625)"/>
      <path id="DejaVuSans-6d" d="M 3328 2828 
Q 3544 3216 3844 3400 
Q 4144 3584 4550 3584 
Q 5097 3584 5394 3201 
Q 5691 2819 5691 2113 
L 5691 0 
L 5113 0 
L 5113 2094 
Q 5113 2597 4934 2840 
Q 4756 3084 4391 3084 
Q 3944 3084 3684 2787 
Q 3425 2491 3425 1978 
L 3425 0 
L 2847 0 
L 2847 2094 
Q 2847 2600 2669 2842 
Q 2491 3084 2119 3084 
Q 1678 3084 1418 2786 
Q 1159 2488 1159 1978 
L 1159 0 
L 581 0 
L 581 3500 
L 1159 3500 
L 1159 2956 
Q 1356 3278 1631 3431 
Q 1906 3584 2284 3584 
Q 2666 3584 2933 3390 
Q 3200 3197 3328 2828 
z
" transform="scale(0.015625)"/>
     </defs>
     <use xlink:href="#DejaVuSans-32"/>
     <use xlink:href="#DejaVuSans-20" transform="translate(63.623047 0)"/>
     <use xlink:href="#DejaVuSans-62" transform="translate(95.410156 0)"/>
     <use xlink:href="#DejaVuSans-6f" transform="translate(158.886719 0)"/>
     <use xlink:href="#DejaVuSans-6e" transform="translate(220.068359 0)"/>
     <use xlink:href="#DejaVuSans-64" transform="translate(283.447266 0)"/>
     <use xlink:href="#DejaVuSans-69" transform="translate(346.923828 0)"/>
     <use xlink:href="#DejaVuSans-6e" transform="translate(374.707031 0)"/>
     <use xlink:href="#DejaVuSans-67" transform="translate(438.085938 0)"/>
     <use xlink:href="#DejaVuSans-20" transform="translate(501.5625 0)"/>
     <use xlink:href="#DejaVuSans-70" transform="translate(533.349609 0)"/>
     <use xlink:href="#DejaVuSans-61" transform="translate(596.826172 0)"/>
     <use xlink:href="#DejaVuSans-69" transform="translate(658.105469 0)"/>
     <use xlink:href="#DejaVuSans-72" transform="translate(685.888672 0)"/>
     <use xlink:href="#DejaVuSans-73" transform="translate(727.001953 0)"/>
     <use xlink:href="#DejaVuSans-20" transform="translate(779.101562 0)"/>
     <use xlink:href="#DejaVuSans-2b" transform="translate(810.888672 0)"/>
     <use xlink:href="#DejaVuSans-20" transform="translate(894.677734 0)"/>
     <use xlink:href="#DejaVuSans-32" transform="translate(926.464844 0)"/>
     <use xlink:href="#DejaVuSans-20" transform="translate(990.087891 0)"/>
     <use xlink:href="#DejaVuSans-6c" transform="translate(1021.875 0)"/>
     <use xlink:href="#DejaVuSans-6f" transform="translate(1049.658203 0)"/>
     <use xlink:href="#DejaVuSans-6e" transform="translate(1110.839844 0)"/>
     <use xlink:href="#DejaVuSans-65" transform="translate(1174.21875 0)"/>
     <use xlink:href="#DejaVuSans-20" transform="translate(1235.742188 0)"/>
     <use xlink:href="#DejaVuSans-70" transform="translate(1267.529297 0)"/>
     <use xlink:href="#DejaVuSans-61" transform="translate(1331.005859 0)"/>
     <use xlink:href="#DejaVuSans-69" transform="translate(1392.285156 0)"/>
     <use xlink:href="#DejaVuSans-72" transform="translate(1420.068359 0)"/>
     <use xlink:href="#DejaVuSans-73" transform="translate(1461.181641 0)"/>
     <use xlink:href="#DejaVuSans-20" transform="translate(1513.28125 0)"/>
     <use xlink:href="#DejaVuSans-3d" transform="translate(1545.068359 0)"/>
     <use xlink:href="#DejaVuSans-20" transform="translate(1628.857422 0)"/>
     <use xlink:href="#DejaVuSans-74" transform="translate(1660.644531 0)"/>
     <use xlink:href="#DejaVuSans-65" transform="translate(1699.853516 0)"/>
     <use xlink:href="#DejaVuSans-74" transform="translate(1761.376953 0)"/>
     <use xlink:href="#DejaVuSans-72" transform="translate(1800.585938 0)"/>
     <use xlink:href="#DejaVuSans-61" transform="translate(1841.699219 0)"/>
     <use xlink:href="#DejaVuSans-68" transform="translate(1902.978516 0)"/>
     <use xlink:href="#DejaVuSans-65" transform="translate(1966.357422 0)"/>
     <use xlink:href="#DejaVuSans-64" transform="translate(2027.880859 0)"/>
     <use xlink:href="#DejaVuSans-72" transform="translate(2091.357422 0)"/>
     <use xlink:href="#DejaVuSans-61" transform="translate(2132.470703 0)"/>
     <use xlink:href="#DejaVuSans-6c" transform="translate(2193.75 0)"/>
     <use xlink:href="#DejaVuSans-20" transform="translate(2221.533203 0)"/>
     <use xlink:href="#DejaVuSans-61" transform="translate(2253.320312 0)"/>
     <use xlink:href="#DejaVuSans-72" transform="translate(2314.599609 0)"/>
     <use xlink:href="#DejaVuSans-72" transform="translate(2353.962891 0)"/>
     <use xlink:href="#DejaVuSans-61" transform="translate(2395.076172 0)"/>
     <use xlink:href="#DejaVuSans-6e" transform="translate(2456.355469 0)"/>
     <use xlink:href="#DejaVuSans-67" transform="translate(2519.734375 0)"/>
     <use xlink:href="#DejaVuSans-65" transform="translate(2583.210938 0)"/>
     <use xlink:href="#DejaVuSans-6d" transform="translate(2644.734375 0)"/>
     <use xlink:href="#DejaVuSans-65" transform="translate(2742.146484 0)"/>
     <use xlink:href="#DejaVuSans-6e" transform="translate(2803.669922 0)"/>
     <use xlink:href="#DejaVuSans-74" transform="translate(2867.048828 0)"/>
    </g>
   </g>
   <g id="text_7">
    <!-- Lone pairs -->
    <g style="fill: #3498db" transform="translate(165.261964 59.65267) scale(0.08 -0.08)">
     <defs>
      <path id="DejaVuSans-4c" d="M 628 4666 
L 1259 4666 
L 1259 531 
L 3531 531 
L 3531 0 
L 628 0 
L 628 4666 
z
" transform="scale(0.015625)"/>
     </defs>
     <use xlink:href="#DejaVuSans-4c"/>
     <use xlink:href="#DejaVuSans-6f" transform="translate(53.962891 0)"/>
     <use xlink:href="#DejaVuSans-6e" transform="translate(115.144531 0)"/>
     <use xlink:href="#DejaVuSans-65" transform="translate(178.523438 0)"/>
     <use xlink:href="#DejaVuSans-20" transform="translate(240.046875 0)"/>
     <use xlink:href="#DejaVuSans-70" transform="translate(271.833984 0)"/>
     <use xlink:href="#DejaVuSans-61" transform="translate(335.310547 0)"/>
     <use xlink:href="#DejaVuSans-69" transform="translate(396.589844 0)"/>
     <use xlink:href="#DejaVuSans-72" transform="translate(424.373047 0)"/>
     <use xlink:href="#DejaVuSans-73" transform="translate(465.486328 0)"/>
    </g>
   </g>
   <g id="text_8">
    <!-- Water Lone Pair Structure -->
    <g transform="translate(96.216964 17.837812) scale(0.14 -0.14)">
     <defs>
      <path id="DejaVuSans-57" d="M 213 4666 
L 850 4666 
L 1831 722 
L 2809 4666 
L 3519 4666 
L 4500 722 
L 5478 4666 
L 6119 4666 
L 4947 0 
L 4153 0 
L 3169 4050 
L 2175 0 
L 1381 0 
L 213 4666 
z
" transform="scale(0.015625)"/>
      <path id="DejaVuSans-50" d="M 1259 4147 
L 1259 2394 
L 2053 2394 
Q 2494 2394 2734 2622 
Q 2975 2850 2975 3272 
Q 2975 3691 2734 3919 
Q 2494 4147 2053 4147 
L 1259 4147 
z
M 628 4666 
L 2053 4666 
Q 2838 4666 3239 4311 
Q 3641 3956 3641 3272 
Q 3641 2581 3239 2228 
Q 2838 1875 2053 1875 
L 1259 1875 
L 1259 0 
L 628 0 
L 628 4666 
z
" transform="scale(0.015625)"/>
      <path id="DejaVuSans-53" d="M 3425 4513 
L 3425 3897 
Q 3066 4069 2747 4153 
Q 2428 4238 2131 4238 
Q 1616 4238 1336 4038 
Q 1056 3838 1056 3469 
Q 1056 3159 1242 3001 
Q 1428 2844 1947 2747 
L 2328 2669 
Q 3034 2534 3370 2195 
Q 3706 1856 3706 1288 
Q 3706 609 3251 259 
Q 2797 -91 1919 -91 
Q 1588 -91 1214 -16 
Q 841 59 441 206 
L 441 856 
Q 825 641 1194 531 
Q 1563 422 1919 422 
Q 2459 422 2753 634 
Q 3047 847 3047 1241 
Q 3047 1584 2836 1778 
Q 2625 1972 2144 2069 
L 1759 2144 
Q 1053 2284 737 2584 
Q 422 2884 422 3419 
Q 422 4038 858 4394 
Q 1294 4750 2059 4750 
Q 2388 4750 2728 4690 
Q 3069 4631 3425 4513 
z
" transform="scale(0.015625)"/>
      <path id="DejaVuSans-75" d="M 544 1381 
L 544 3500 
L 1119 3500 
L 1119 1403 
Q 1119 906 1312 657 
Q 1506 409 1894 409 
Q 2359 409 2629 706 
Q 2900 1003 2900 1516 
L 2900 3500 
L 3475 3500 
L 3475 0 
L 2900 0 
L 2900 538 
Q 2691 219 2414 64 
Q 2138 -91 1772 -91 
Q 1169 -91 856 284 
Q 544 659 544 1381 
z
M 1991 3584 
L 1991 3584 
z
" transform="scale(0.015625)"/>
      <path id="DejaVuSans-63" d="M 3122 3366 
L 3122 2828 
Q 2878 2963 2633 3030 
Q 2388 3097 2138 3097 
Q 1578 3097 1268 2742 
Q 959 2388 959 1747 
Q 959 1106 1268 751 
Q 1578 397 2138 397 
Q 2388 397 2633 464 
Q 2878 531 3122 666 
L 3122 134 
Q 2881 22 2623 -34 
Q 2366 -91 2075 -91 
Q 1284 -91 818 406 
Q 353 903 353 1747 
Q 353 2603 823 3093 
Q 1294 3584 2113 3584 
Q 2378 3584 2631 3529 
Q 2884 3475 3122 3366 
z
" transform="scale(0.015625)"/>
     </defs>
     <use xlink:href="#DejaVuSans-57"/>
     <use xlink:href="#DejaVuSans-61" transform="translate(92.501953 0)"/>
     <use xlink:href="#DejaVuSans-74" transform="translate(153.78125 0)"/>
     <use xlink:href="#DejaVuSans-65" transform="translate(192.990234 0)"/>
     <use xlink:href="#DejaVuSans-72" transform="translate(254.513672 0)"/>
     <use xlink:href="#DejaVuSans-20" transform="translate(295.626953 0)"/>
     <use xlink:href="#DejaVuSans-4c" transform="translate(327.414062 0)"/>
     <use xlink:href="#DejaVuSans-6f" transform="translate(381.376953 0)"/>
     <use xlink:href="#DejaVuSans-6e" transform="translate(442.558594 0)"/>
     <use xlink:href="#DejaVuSans-65" transform="translate(505.9375 0)"/>
     <use xlink:href="#DejaVuSans-20" transform="translate(567.460938 0)"/>
     <use xlink:href="#DejaVuSans-50" transform="translate(599.248047 0)"/>
     <use xlink:href="#DejaVuSans-61" transform="translate(655.050781 0)"/>
     <use xlink:href="#DejaVuSans-69" transform="translate(716.330078 0)"/>
     <use xlink:href="#DejaVuSans-72" transform="translate(744.113281 0)"/>
     <use xlink:href="#DejaVuSans-20" transform="translate(785.226562 0)"/>
     <use xlink:href="#DejaVuSans-53" transform="translate(817.013672 0)"/>
     <use xlink:href="#DejaVuSans-74" transform="translate(880.490234 0)"/>
     <use xlink:href="#DejaVuSans-72" transform="translate(919.699219 0)"/>
     <use xlink:href="#DejaVuSans-75" transform="translate(960.8125 0)"/>
     <use xlink:href="#DejaVuSans-63" transform="translate(1024.191406 0)"/>
     <use xlink:href="#DejaVuSans-74" transform="translate(1079.171875 0)"/>
     <use xlink:href="#DejaVuSans-75" transform="translate(1118.380859 0)"/>
     <use xlink:href="#DejaVuSans-72" transform="translate(1181.759766 0)"/>
     <use xlink:href="#DejaVuSans-65" transform="translate(1220.623047 0)"/>
    </g>
   </g>
  </g>
 </g>
 <defs>
  <clipPath id="pb0b6380383">
   <rect x="7.2" y="32.837812" width="357.531429" height="312.84"/>
  </clipPath>
 </defs>
</svg>
