<?xml version="1.0" encoding="utf-8" standalone="no"?>
<!DOCTYPE svg PUBLIC "-//W3C//DTD SVG 1.1//EN"
  "http://www.w3.org/Graphics/SVG/1.1/DTD/svg11.dtd">
<svg xmlns:xlink="http://www.w3.org/1999/xlink" width="712.8pt" height="352.877812pt" viewBox="0 0 712.8 352.877812" xmlns="http://www.w3.org/2000/svg" version="1.1">
 <metadata>
  <rdf:RDF xmlns:dc="http://purl.org/dc/elements/1.1/" xmlns:cc="http://creativecommons.org/ns#" xmlns:rdf="http://www.w3.org/1999/02/22-rdf-syntax-ns#">
   <cc:Work>
    <dc:type rdf:resource="http://purl.org/dc/dcmitype/StillImage"/>
    <dc:date>2026-01-02T18:08:09.500721</dc:date>
    <dc:format>image/svg+xml</dc:format>
    <dc:creator>
     <cc:Agent>
      <dc:title>Matplotlib v3.10.8, https://matplotlib.org/</dc:title>
     </cc:Agent>
    </dc:creator>
   </cc:Work>
  </rdf:RDF>
 </metadata>
 <defs>
  <style type="text/css">*{stroke-linejoin: round; stroke-linecap: butt}</style>
 </defs>
 <g id="figure_1">
  <g id="patch_1">
   <path d="M 0 352.877812 
L 712.8 352.877812 
L 712.8 0 
L 0 0 
z
" style="fill: #ffffff"/>
  </g>
  <g id="axes_1">
   <g id="patch_2">
    <path d="M 77.04 201.771412 
C 80.744357 201.771412 84.297492 200.452901 86.916868 198.106264 
C 89.536243 195.759627 91.008 192.576458 91.008 189.257812 
C 91.008 185.939167 89.536243 182.755998 86.916868 180.409361 
C 84.297492 178.062724 80.744357 176.744212 77.04 176.744212 
C 73.335643 176.744212 69.782508 178.062724 67.163132 180.409361 
C 64.543757 182.755998 63.072 185.939167 63.072 189.257812 
C 63.072 192.576458 64.543757 195.759627 67.163132 198.106264 
C 69.782508 200.452901 73.335643 201.771412 77.04 201.771412 
z
" clip-path="url(#p94a9220035)" style="fill: #95a5a6; opacity: 0.9; stroke: #95a5a6; stroke-width: 1.5; stroke-linejoin: miter"/>
   </g>
   <g id="patch_3">
    <path d="M 146.88 201.771412 
C 150.584357 201.771412 154.137492 200.452901 156.756868 198.106264 
C 159.376243 195.759627 160.848 192.576458 160.848 189.257812 
C 160.848 185.939167 159.376243 182.755998 156.756868 180.409361 
C 154.137492 178.062724 150.584357 176.744212 146.88 176.744212 
C 143.175643 176.744212 139.622508 178.062724 137.003132 180.409361 
C 134.383757 182.755998 132.912 185.939167 132.912 189.257812 
C 132.912 192.576458 134.383757 195.759627 137.003132 198.106264 
C 139.622508 200.452901 143.175643 201.771412 146.88 201.771412 
z
" clip-path="url(#p94a9220035)" style="fill: #95a5a6; opacity: 0.9; stroke: #95a5a6; stroke-width: 1.5; stroke-linejoin: miter"/>
   </g>
   <g id="patch_4">
    <path d="M 216.72 201.771412 
C 220.424357 201.771412 223.977492 200.452901 226.596868 198.106264 
C 229.216243 195.759627 230.688 192.576458 230.688 189.257812 
C 230.688 185.939167 229.216243 182.755998 226.596868 180.409361 
C 223.977492 178.062724 220.424357 176.744212 216.72 176.744212 
C 213.015643 176.744212 209.462508 178.062724 206.843132 180.409361 
C 204.223757 182.755998 202.752 185.939167 202.752 189.257812 
C 202.752 192.576458 204.223757 195.759627 206.843132 198.106264 
C 209.462508 200.452901 213.015643 201.771412 216.72 201.771412 
z
" clip-path="url(#p94a9220035)" style="fill: #95a5a6; opacity: 0.9; stroke: #95a5a6; stroke-width: 1.5; stroke-linejoin: miter"/>
   </g>
   <g id="patch_5">
    <path d="M 286.56 201.771412 
C 290.264357 201.771412 293.817492 200.452901 296.436868 198.106264 
C 299.056243 195.759627 300.528 192.576458 300.528 189.257812 
C 300.528 185.939167 299.056243 182.755998 296.436868 180.409361 
C 293.817492 178.062724 290.264357 176.744212 286.56 176.744212 
C 282.855643 176.744212 279.302508 178.062724 276.683132 180.409361 
C 274.063757 182.755998 272.592 185.939167 272.592 189.257812 
C 272.592 192.576458 274.063757 195.759627 276.683132 198.106264 
C 279.302508 200.452901 282.855643 201.771412 286.56 201.771412 
z
" clip-path="url(#p94a9220035)" style="fill: #95a5a6; opacity: 0.9; stroke: #95a5a6; stroke-width: 1.5; stroke-linejoin: miter"/>
   </g>
   <g id="patch_6">
    <path d="M 531 201.771412 
C 534.704357 201.771412 538.257492 200.452901 540.876868 198.106264 
C 543.496243 195.759627 544.968 192.576458 544.968 189.257812 
C 544.968 185.939167 543.496243 182.755998 540.876868 180.409361 
C 538.257492 178.062724 534.704357 176.744212 531 176.744212 
C 527.295643 176.744212 523.742508 178.062724 521.123132 180.409361 
C 518.503757 182.755998 517.032 185.939167 517.032 189.257812 
C 517.032 192.576458 518.503757 195.759627 521.123132 198.106264 
C 523.742508 200.452901 527.295643 201.771412 531 201.771412 
z
" clip-path="url(#p94a9220035)" style="fill: #95a5a6; opacity: 0.9; stroke: #95a5a6; stroke-width: 1.5; stroke-linejoin: miter"/>
   </g>
   <g id="patch_7">
    <path d="M 461.16 201.771412 
C 464.864357 201.771412 468.417492 200.452901 471.036868 198.106264 
C 473.656243 195.759627 475.128 192.576458 475.128 189.257812 
C 475.128 185.939167 473.656243 182.755998 471.036868 180.409361 
C 468.417492 178.062724 464.864357 176.744212 461.16 176.744212 
C 457.455643 176.744212 453.902508 178.062724 451.283132 180.409361 
C 448.663757 182.755998 447.192 185.939167 447.192 189.257812 
C 447.192 192.576458 448.663757 195.759627 451.283132 198.106264 
C 453.902508 200.452901 457.455643 201.771412 461.16 201.771412 
z
" clip-path="url(#p94a9220035)" style="fill: #95a5a6; opacity: 0.9; stroke: #95a5a6; stroke-width: 1.5; stroke-linejoin: miter"/>
   </g>
   <g id="patch_8">
    <path d="M 600.84 201.771412 
C 604.544357 201.771412 608.097492 200.452901 610.716868 198.106264 
C 613.336243 195.759627 614.808 192.576458 614.808 189.257812 
C 614.808 185.939167 613.336243 182.755998 610.716868 180.409361 
C 608.097492 178.062724 604.544357 176.744212 600.84 176.744212 
C 597.135643 176.744212 593.582508 178.062724 590.963132 180.409361 
C 588.343757 182.755998 586.872 185.939167 586.872 189.257812 
C 586.872 192.576458 588.343757 195.759627 590.963132 198.106264 
C 593.582508 200.452901 597.135643 201.771412 600.84 201.771412 
z
" clip-path="url(#p94a9220035)" style="fill: #95a5a6; opacity: 0.9; stroke: #95a5a6; stroke-width: 1.5; stroke-linejoin: miter"/>
   </g>
   <g id="patch_9">
    <path d="M 531 139.203412 
C 534.704357 139.203412 538.257492 137.884901 540.876868 135.538264 
C 543.496243 133.191627 544.968 130.008458 544.968 126.689812 
C 544.968 123.371167 543.496243 120.187998 540.876868 117.841361 
C 538.257492 115.494724 534.704357 114.176212 531 114.176212 
C 527.295643 114.176212 523.742508 115.494724 521.123132 117.841361 
C 518.503757 120.187998 517.032 123.371167 517.032 126.689812 
C 517.032 130.008458 518.503757 133.191627 521.123132 135.538264 
C 523.742508 137.884901 527.295643 139.203412 531 139.203412 
z
" clip-path="url(#p94a9220035)" style="fill: #95a5a6; opacity: 0.9; stroke: #95a5a6; stroke-width: 1.5; stroke-linejoin: miter"/>
   </g>
   <g id="line2d_1">
    <path d="M 91.008 189.257812 
L 132.912 189.257812 
" clip-path="url(#p94a9220035)" style="fill: none; stroke: #2ecc71; stroke-width: 2.5; stroke-linecap: square"/>
   </g>
   <g id="line2d_2">
    <path d="M 160.848 189.257812 
L 202.752 189.257812 
" clip-path="url(#p94a9220035)" style="fill: none; stroke: #2ecc71; stroke-width: 2.5; stroke-linecap: square"/>
   </g>
   <g id="line2d_3">
    <path d="M 230.688 189.257812 
L 272.592 189.257812 
" clip-path="url(#p94a9220035)" style="fill: none; stroke: #2ecc71; stroke-width: 2.5; stroke-linecap: square"/>
   </g>
   <g id="line2d_4">
    <path d="M 475.128 189.257812 
L 517.032 189.257812 
" clip-path="url(#p94a9220035)" style="fill: none; stroke: #2ecc71; stroke-width: 2.5; stroke-linecap: square"/>
   </g>
   <g id="line2d_5">
    <path d="M 586.872 189.257812 
L 544.968 189.257812 
" clip-path="url(#p94a9220035)" style="fill: none; stroke: #2ecc71; stroke-width: 2.5; stroke-linecap: square"/>
   </g>
   <g id="line2d_6">
    <path d="M 531 139.203412 
L 531 176.744212 
" clip-path="url(#p94a9220035)" style="fill: none; stroke: #2ecc71; stroke-width: 2.5; stroke-linecap: square"/>
   </g>
   <g id="text_1">
    <!-- n-Butane -->
    <g transform="translate(150.936563 76.635412) scale(0.12 -0.12)">
     <defs>
      <path id="DejaVuSans-Bold-6e" d="M 4056 2131 
L 4056 0 
L 2931 0 
L 2931 347 
L 2931 1631 
Q 2931 2084 2911 2256 
Q 2891 2428 2841 2509 
Q 2775 2619 2662 2680 
Q 2550 2741 2406 2741 
Q 2056 2741 1856 2470 
Q 1656 2200 1656 1722 
L 1656 0 
L 538 0 
L 538 3500 
L 1656 3500 
L 1656 2988 
Q 1909 3294 2193 3439 
Q 2478 3584 2822 3584 
Q 3428 3584 3742 3212 
Q 4056 2841 4056 2131 
z
" transform="scale(0.015625)"/>
      <path id="DejaVuSans-Bold-2d" d="M 347 2297 
L 2309 2297 
L 2309 1388 
L 347 1388 
L 347 2297 
z
" transform="scale(0.015625)"/>
      <path id="DejaVuSans-Bold-42" d="M 2456 2859 
Q 2741 2859 2887 2984 
Q 3034 3109 3034 3353 
Q 3034 3594 2887 3720 
Q 2741 3847 2456 3847 
L 1791 3847 
L 1791 2859 
L 2456 2859 
z
M 2497 819 
Q 2859 819 3042 972 
Q 3225 1125 3225 1434 
Q 3225 1738 3044 1889 
Q 2863 2041 2497 2041 
L 1791 2041 
L 1791 819 
L 2497 819 
z
M 3616 2497 
Q 4003 2384 4215 2081 
Q 4428 1778 4428 1338 
Q 4428 663 3972 331 
Q 3516 0 2584 0 
L 588 0 
L 588 4666 
L 2394 4666 
Q 3366 4666 3802 4372 
Q 4238 4078 4238 3431 
Q 4238 3091 4078 2852 
Q 3919 2613 3616 2497 
z
" transform="scale(0.015625)"/>
      <path id="DejaVuSans-Bold-75" d="M 500 1363 
L 500 3500 
L 1625 3500 
L 1625 3150 
Q 1625 2866 1622 2436 
Q 1619 2006 1619 1863 
Q 1619 1441 1641 1255 
Q 1663 1069 1716 984 
Q 1784 875 1895 815 
Q 2006 756 2150 756 
Q 2500 756 2700 1025 
Q 2900 1294 2900 1772 
L 2900 3500 
L 4019 3500 
L 4019 0 
L 2900 0 
L 2900 506 
Q 2647 200 2364 54 
Q 2081 -91 1741 -91 
Q 1134 -91 817 281 
Q 500 653 500 1363 
z
" transform="scale(0.015625)"/>
      <path id="DejaVuSans-Bold-74" d="M 1759 4494 
L 1759 3500 
L 2913 3500 
L 2913 2700 
L 1759 2700 
L 1759 1216 
Q 1759 972 1856 886 
Q 1953 800 2241 800 
L 2816 800 
L 2816 0 
L 1856 0 
Q 1194 0 917 276 
Q 641 553 641 1216 
L 641 2700 
L 84 2700 
L 84 3500 
L 641 3500 
L 641 4494 
L 1759 4494 
z
" transform="scale(0.015625)"/>
      <path id="DejaVuSans-Bold-61" d="M 2106 1575 
Q 1756 1575 1579 1456 
Q 1403 1338 1403 1106 
Q 1403 894 1545 773 
Q 1688 653 1941 653 
Q 2256 653 2472 879 
Q 2688 1106 2688 1447 
L 2688 1575 
L 2106 1575 
z
M 3816 1997 
L 3816 0 
L 2688 0 
L 2688 519 
Q 2463 200 2181 54 
Q 1900 -91 1497 -91 
Q 953 -91 614 226 
Q 275 544 275 1050 
Q 275 1666 698 1953 
Q 1122 2241 2028 2241 
L 2688 2241 
L 2688 2328 
Q 2688 2594 2478 2717 
Q 2269 2841 1825 2841 
Q 1466 2841 1156 2769 
Q 847 2697 581 2553 
L 581 3406 
Q 941 3494 1303 3539 
Q 1666 3584 2028 3584 
Q 2975 3584 3395 3211 
Q 3816 2838 3816 1997 
z
" transform="scale(0.015625)"/>
      <path id="DejaVuSans-Bold-65" d="M 4031 1759 
L 4031 1441 
L 1416 1441 
Q 1456 1047 1700 850 
Q 1944 653 2381 653 
Q 2734 653 3104 758 
Q 3475 863 3866 1075 
L 3866 213 
Q 3469 63 3072 -14 
Q 2675 -91 2278 -91 
Q 1328 -91 801 392 
Q 275 875 275 1747 
Q 275 2603 792 3093 
Q 1309 3584 2216 3584 
Q 3041 3584 3536 3087 
Q 4031 2591 4031 1759 
z
M 2881 2131 
Q 2881 2450 2695 2645 
Q 2509 2841 2209 2841 
Q 1884 2841 1681 2658 
Q 1478 2475 1428 2131 
L 2881 2131 
z
" transform="scale(0.015625)"/>
     </defs>
     <use xlink:href="#DejaVuSans-Bold-6e"/>
     <use xlink:href="#DejaVuSans-Bold-2d" transform="translate(71.191406 0)"/>
     <use xlink:href="#DejaVuSans-Bold-42" transform="translate(112.695312 0)"/>
     <use xlink:href="#DejaVuSans-Bold-75" transform="translate(188.916016 0)"/>
     <use xlink:href="#DejaVuSans-Bold-74" transform="translate(260.107422 0)"/>
     <use xlink:href="#DejaVuSans-Bold-61" transform="translate(307.910156 0)"/>
     <use xlink:href="#DejaVuSans-Bold-6e" transform="translate(375.390625 0)"/>
     <use xlink:href="#DejaVuSans-Bold-65" transform="translate(446.582031 0)"/>
    </g>
   </g>
   <g id="text_2">
    <!-- C -->
    <g style="fill: #ffffff" transform="translate(74.246875 191.465312) scale(0.08 -0.08)">
     <defs>
      <path id="DejaVuSans-43" d="M 4122 4306 
L 4122 3641 
Q 3803 3938 3442 4084 
Q 3081 4231 2675 4231 
Q 1875 4231 1450 3742 
Q 1025 3253 1025 2328 
Q 1025 1406 1450 917 
Q 1875 428 2675 428 
Q 3081 428 3442 575 
Q 3803 722 4122 1019 
L 4122 359 
Q 3791 134 3420 21 
Q 3050 -91 2638 -91 
Q 1578 -91 968 557 
Q 359 1206 359 2328 
Q 359 3453 968 4101 
Q 1578 4750 2638 4750 
Q 3056 4750 3426 4639 
Q 3797 4528 4122 4306 
z
" transform="scale(0.015625)"/>
     </defs>
     <use xlink:href="#DejaVuSans-43"/>
    </g>
   </g>
   <g id="text_3">
    <!-- C -->
    <g style="fill: #ffffff" transform="translate(144.086875 191.465312) scale(0.08 -0.08)">
     <use xlink:href="#DejaVuSans-43"/>
    </g>
   </g>
   <g id="text_4">
    <!-- C -->
    <g style="fill: #ffffff" transform="translate(213.926875 191.465312) scale(0.08 -0.08)">
     <use xlink:href="#DejaVuSans-43"/>
    </g>
   </g>
   <g id="text_5">
    <!-- C -->
    <g style="fill: #ffffff" transform="translate(283.766875 191.465312) scale(0.08 -0.08)">
     <use xlink:href="#DejaVuSans-43"/>
    </g>
   </g>
   <g id="text_6">
    <!-- CH₃-CH₂-CH₂-CH₃ -->
    <g transform="translate(145.678125 251.825812) scale(0.08 -0.08)">
     <defs>
      <path id="DejaVuSansMono-43" d="M 3353 166 
Q 3113 38 2859 -26 
Q 2606 -91 2322 -91 
Q 1425 -91 929 543 
Q 434 1178 434 2328 
Q 434 3472 932 4111 
Q 1431 4750 2322 4750 
Q 2606 4750 2859 4686 
Q 3113 4622 3353 4494 
L 3353 3847 
Q 3122 4038 2856 4138 
Q 2591 4238 2322 4238 
Q 1706 4238 1400 3763 
Q 1094 3288 1094 2328 
Q 1094 1372 1400 897 
Q 1706 422 2322 422 
Q 2597 422 2861 522 
Q 3125 622 3353 813 
L 3353 166 
z
" transform="scale(0.015625)"/>
      <path id="DejaVuSansMono-48" d="M 428 4666 
L 1063 4666 
L 1063 2753 
L 2791 2753 
L 2791 4666 
L 3425 4666 
L 3425 0 
L 2791 0 
L 2791 2222 
L 1063 2222 
L 1063 0 
L 428 0 
L 428 4666 
z
" transform="scale(0.015625)"/>
      <path id="DejaVuSansMono-2083" d="M 2284 1388 
Q 2578 1322 2733 1153 
Q 2888 985 2888 735 
Q 2888 347 2591 138 
Q 2294 -71 1741 -71 
Q 1559 -71 1381 -38 
Q 1203 -6 1019 57 
L 1019 435 
Q 1234 351 1411 310 
Q 1588 269 1728 269 
Q 2044 269 2228 395 
Q 2413 522 2413 735 
Q 2413 966 2241 1085 
Q 2069 1204 1728 1204 
L 1522 1204 
L 1522 1541 
L 1753 1541 
Q 2044 1541 2197 1639 
Q 2350 1738 2350 1926 
Q 2350 2101 2200 2199 
Q 2050 2297 1778 2297 
Q 1641 2297 1466 2259 
Q 1291 2222 1106 2151 
L 1106 2529 
Q 1322 2582 1505 2610 
Q 1688 2638 1844 2638 
Q 2297 2638 2559 2453 
Q 2822 2269 2822 1960 
Q 2822 1738 2684 1592 
Q 2547 1447 2284 1388 
z
" transform="scale(0.015625)"/>
      <path id="DejaVuSansMono-2d" d="M 1113 2009 
L 2741 2009 
L 2741 1497 
L 1113 1497 
L 1113 2009 
z
" transform="scale(0.015625)"/>
      <path id="DejaVuSansMono-2082" d="M 1509 332 
L 2791 332 
L 2791 -24 
L 1006 -24 
L 1006 319 
L 1728 1026 
Q 2044 1329 2170 1519 
Q 2297 1710 2297 1869 
Q 2297 2060 2140 2178 
Q 1984 2297 1728 2297 
Q 1575 2297 1398 2241 
Q 1222 2185 1025 2072 
L 1025 2463 
Q 1228 2551 1417 2594 
Q 1606 2638 1791 2638 
Q 2234 2638 2503 2430 
Q 2772 2222 2772 1888 
Q 2772 1710 2656 1524 
Q 2541 1338 2169 972 
L 1509 332 
z
" transform="scale(0.015625)"/>
     </defs>
     <use xlink:href="#DejaVuSansMono-43"/>
     <use xlink:href="#DejaVuSansMono-48" transform="translate(60.205078 0)"/>
     <use xlink:href="#DejaVuSansMono-2083" transform="translate(120.410156 0)"/>
     <use xlink:href="#DejaVuSansMono-2d" transform="translate(180.615234 0)"/>
     <use xlink:href="#DejaVuSansMono-43" transform="translate(240.820312 0)"/>
     <use xlink:href="#DejaVuSansMono-48" transform="translate(301.025391 0)"/>
     <use xlink:href="#DejaVuSansMono-2082" transform="translate(361.230469 0)"/>
     <use xlink:href="#DejaVuSansMono-2d" transform="translate(421.435547 0)"/>
     <use xlink:href="#DejaVuSansMono-43" transform="translate(481.640625 0)"/>
     <use xlink:href="#DejaVuSansMono-48" transform="translate(541.845703 0)"/>
     <use xlink:href="#DejaVuSansMono-2082" transform="translate(602.050781 0)"/>
     <use xlink:href="#DejaVuSansMono-2d" transform="translate(662.255859 0)"/>
     <use xlink:href="#DejaVuSansMono-43" transform="translate(722.460938 0)"/>
     <use xlink:href="#DejaVuSansMono-48" transform="translate(782.666016 0)"/>
     <use xlink:href="#DejaVuSansMono-2083" transform="translate(842.871094 0)"/>
    </g>
   </g>
   <g id="text_7">
    <!-- vs -->
    <g transform="translate(348.610313 189.257812) scale(0.14 -0.14)">
     <defs>
      <path id="DejaVuSans-Oblique-76" d="M 459 3500 
L 1069 3500 
L 1581 525 
L 3256 3500 
L 3866 3500 
L 1875 0 
L 1100 0 
L 459 3500 
z
" transform="scale(0.015625)"/>
      <path id="DejaVuSans-Oblique-73" d="M 3200 3397 
L 3091 2853 
Q 2863 2978 2609 3040 
Q 2356 3103 2088 3103 
Q 1634 3103 1373 2948 
Q 1113 2794 1113 2528 
Q 1113 2219 1719 2053 
Q 1766 2041 1788 2034 
L 1972 1978 
Q 2547 1819 2739 1644 
Q 2931 1469 2931 1166 
Q 2931 609 2489 259 
Q 2047 -91 1331 -91 
Q 1053 -91 747 -37 
Q 441 16 72 128 
L 184 722 
Q 500 559 806 475 
Q 1113 391 1394 391 
Q 1816 391 2080 572 
Q 2344 753 2344 1031 
Q 2344 1331 1650 1516 
L 1591 1531 
L 1394 1581 
Q 956 1697 753 1886 
Q 550 2075 550 2369 
Q 550 2928 970 3256 
Q 1391 3584 2113 3584 
Q 2397 3584 2667 3537 
Q 2938 3491 3200 3397 
z
" transform="scale(0.015625)"/>
     </defs>
     <use xlink:href="#DejaVuSans-Oblique-76"/>
     <use xlink:href="#DejaVuSans-Oblique-73" transform="translate(59.179688 0)"/>
    </g>
   </g>
   <g id="text_8">
    <!-- Isobutane -->
    <g transform="translate(497.250938 76.635412) scale(0.12 -0.12)">
     <defs>
      <path id="DejaVuSans-Bold-49" d="M 588 4666 
L 1791 4666 
L 1791 0 
L 588 0 
L 588 4666 
z
" transform="scale(0.015625)"/>
      <path id="DejaVuSans-Bold-73" d="M 3272 3391 
L 3272 2541 
Q 2913 2691 2578 2766 
Q 2244 2841 1947 2841 
Q 1628 2841 1473 2761 
Q 1319 2681 1319 2516 
Q 1319 2381 1436 2309 
Q 1553 2238 1856 2203 
L 2053 2175 
Q 2913 2066 3209 1816 
Q 3506 1566 3506 1031 
Q 3506 472 3093 190 
Q 2681 -91 1863 -91 
Q 1516 -91 1145 -36 
Q 775 19 384 128 
L 384 978 
Q 719 816 1070 734 
Q 1422 653 1784 653 
Q 2113 653 2278 743 
Q 2444 834 2444 1013 
Q 2444 1163 2330 1236 
Q 2216 1309 1875 1350 
L 1678 1375 
Q 931 1469 631 1722 
Q 331 1975 331 2491 
Q 331 3047 712 3315 
Q 1094 3584 1881 3584 
Q 2191 3584 2531 3537 
Q 2872 3491 3272 3391 
z
" transform="scale(0.015625)"/>
      <path id="DejaVuSans-Bold-6f" d="M 2203 2784 
Q 1831 2784 1636 2517 
Q 1441 2250 1441 1747 
Q 1441 1244 1636 976 
Q 1831 709 2203 709 
Q 2569 709 2762 976 
Q 2956 1244 2956 1747 
Q 2956 2250 2762 2517 
Q 2569 2784 2203 2784 
z
M 2203 3584 
Q 3106 3584 3614 3096 
Q 4122 2609 4122 1747 
Q 4122 884 3614 396 
Q 3106 -91 2203 -91 
Q 1297 -91 786 396 
Q 275 884 275 1747 
Q 275 2609 786 3096 
Q 1297 3584 2203 3584 
z
" transform="scale(0.015625)"/>
      <path id="DejaVuSans-Bold-62" d="M 2400 722 
Q 2759 722 2948 984 
Q 3138 1247 3138 1747 
Q 3138 2247 2948 2509 
Q 2759 2772 2400 2772 
Q 2041 2772 1848 2508 
Q 1656 2244 1656 1747 
Q 1656 1250 1848 986 
Q 2041 722 2400 722 
z
M 1656 2988 
Q 1888 3294 2169 3439 
Q 2450 3584 2816 3584 
Q 3463 3584 3878 3070 
Q 4294 2556 4294 1747 
Q 4294 938 3878 423 
Q 3463 -91 2816 -91 
Q 2450 -91 2169 54 
Q 1888 200 1656 506 
L 1656 0 
L 538 0 
L 538 4863 
L 1656 4863 
L 1656 2988 
z
" transform="scale(0.015625)"/>
     </defs>
     <use xlink:href="#DejaVuSans-Bold-49"/>
     <use xlink:href="#DejaVuSans-Bold-73" transform="translate(37.207031 0)"/>
     <use xlink:href="#DejaVuSans-Bold-6f" transform="translate(96.728516 0)"/>
     <use xlink:href="#DejaVuSans-Bold-62" transform="translate(165.429688 0)"/>
     <use xlink:href="#DejaVuSans-Bold-75" transform="translate(237.011719 0)"/>
     <use xlink:href="#DejaVuSans-Bold-74" transform="translate(308.203125 0)"/>
     <use xlink:href="#DejaVuSans-Bold-61" transform="translate(356.005859 0)"/>
     <use xlink:href="#DejaVuSans-Bold-6e" transform="translate(423.486328 0)"/>
     <use xlink:href="#DejaVuSans-Bold-65" transform="translate(494.677734 0)"/>
    </g>
   </g>
   <g id="text_9">
    <!-- C -->
    <g style="fill: #ffffff" transform="translate(528.206875 191.465312) scale(0.08 -0.08)">
     <use xlink:href="#DejaVuSans-43"/>
    </g>
   </g>
   <g id="text_10">
    <!-- C -->
    <g style="fill: #ffffff" transform="translate(458.366875 191.465312) scale(0.08 -0.08)">
     <use xlink:href="#DejaVuSans-43"/>
    </g>
   </g>
   <g id="text_11">
    <!-- C -->
    <g style="fill: #ffffff" transform="translate(598.046875 191.465312) scale(0.08 -0.08)">
     <use xlink:href="#DejaVuSans-43"/>
    </g>
   </g>
   <g id="text_12">
    <!-- C -->
    <g style="fill: #ffffff" transform="translate(528.206875 128.897312) scale(0.08 -0.08)">
     <use xlink:href="#DejaVuSans-43"/>
    </g>
   </g>
   <g id="text_13">
    <!-- CH₃-CH(CH₃)-CH₃ -->
    <g transform="translate(494.878125 251.825812) scale(0.08 -0.08)">
     <defs>
      <path id="DejaVuSansMono-28" d="M 2766 4856 
Q 2350 4144 2145 3436 
Q 1941 2728 1941 2009 
Q 1941 1294 2145 584 
Q 2350 -125 2766 -844 
L 2266 -844 
Q 1794 -100 1562 604 
Q 1331 1309 1331 2009 
Q 1331 2706 1562 3412 
Q 1794 4119 2266 4856 
L 2766 4856 
z
" transform="scale(0.015625)"/>
      <path id="DejaVuSansMono-29" d="M 1088 4856 
L 1588 4856 
Q 2059 4119 2290 3412 
Q 2522 2706 2522 2009 
Q 2522 1306 2290 600 
Q 2059 -106 1588 -844 
L 1088 -844 
Q 1503 -119 1708 590 
Q 1913 1300 1913 2009 
Q 1913 2722 1708 3431 
Q 1503 4141 1088 4856 
z
" transform="scale(0.015625)"/>
     </defs>
     <use xlink:href="#DejaVuSansMono-43"/>
     <use xlink:href="#DejaVuSansMono-48" transform="translate(60.205078 0)"/>
     <use xlink:href="#DejaVuSansMono-2083" transform="translate(120.410156 0)"/>
     <use xlink:href="#DejaVuSansMono-2d" transform="translate(180.615234 0)"/>
     <use xlink:href="#DejaVuSansMono-43" transform="translate(240.820312 0)"/>
     <use xlink:href="#DejaVuSansMono-48" transform="translate(301.025391 0)"/>
     <use xlink:href="#DejaVuSansMono-28" transform="translate(361.230469 0)"/>
     <use xlink:href="#DejaVuSansMono-43" transform="translate(421.435547 0)"/>
     <use xlink:href="#DejaVuSansMono-48" transform="translate(481.640625 0)"/>
     <use xlink:href="#DejaVuSansMono-2083" transform="translate(541.845703 0)"/>
     <use xlink:href="#DejaVuSansMono-29" transform="translate(602.050781 0)"/>
     <use xlink:href="#DejaVuSansMono-2d" transform="translate(662.255859 0)"/>
     <use xlink:href="#DejaVuSansMono-43" transform="translate(722.460938 0)"/>
     <use xlink:href="#DejaVuSansMono-48" transform="translate(782.666016 0)"/>
     <use xlink:href="#DejaVuSansMono-2083" transform="translate(842.871094 0)"/>
    </g>
   </g>
   <g id="text_14">
    <!-- Same formula (C₄H₁₀), different structure = Structural Isomers -->
    <g transform="translate(200.378906 314.393812) scale(0.1 -0.1)">
     <defs>
      <path id="DejaVuSans-53" d="M 3425 4513 
L 3425 3897 
Q 3066 4069 2747 4153 
Q 2428 4238 2131 4238 
Q 1616 4238 1336 4038 
Q 1056 3838 1056 3469 
Q 1056 3159 1242 3001 
Q 1428 2844 1947 2747 
L 2328 2669 
Q 3034 2534 3370 2195 
Q 3706 1856 3706 1288 
Q 3706 609 3251 259 
Q 2797 -91 1919 -91 
Q 1588 -91 1214 -16 
Q 841 59 441 206 
L 441 856 
Q 825 641 1194 531 
Q 1563 422 1919 422 
Q 2459 422 2753 634 
Q 3047 847 3047 1241 
Q 3047 1584 2836 1778 
Q 2625 1972 2144 2069 
L 1759 2144 
Q 1053 2284 737 2584 
Q 422 2884 422 3419 
Q 422 4038 858 4394 
Q 1294 4750 2059 4750 
Q 2388 4750 2728 4690 
Q 3069 4631 3425 4513 
z
" transform="scale(0.015625)"/>
      <path id="DejaVuSans-61" d="M 2194 1759 
Q 1497 1759 1228 1600 
Q 959 1441 959 1056 
Q 959 750 1161 570 
Q 1363 391 1709 391 
Q 2188 391 2477 730 
Q 2766 1069 2766 1631 
L 2766 1759 
L 2194 1759 
z
M 3341 1997 
L 3341 0 
L 2766 0 
L 2766 531 
Q 2569 213 2275 61 
Q 1981 -91 1556 -91 
Q 1019 -91 701 211 
Q 384 513 384 1019 
Q 384 1609 779 1909 
Q 1175 2209 1959 2209 
L 2766 2209 
L 2766 2266 
Q 2766 2663 2505 2880 
Q 2244 3097 1772 3097 
Q 1472 3097 1187 3025 
Q 903 2953 641 2809 
L 641 3341 
Q 956 3463 1253 3523 
Q 1550 3584 1831 3584 
Q 2591 3584 2966 3190 
Q 3341 2797 3341 1997 
z
" transform="scale(0.015625)"/>
      <path id="DejaVuSans-6d" d="M 3328 2828 
Q 3544 3216 3844 3400 
Q 4144 3584 4550 3584 
Q 5097 3584 5394 3201 
Q 5691 2819 5691 2113 
L 5691 0 
L 5113 0 
L 5113 2094 
Q 5113 2597 4934 2840 
Q 4756 3084 4391 3084 
Q 3944 3084 3684 2787 
Q 3425 2491 3425 1978 
L 3425 0 
L 2847 0 
L 2847 2094 
Q 2847 2600 2669 2842 
Q 2491 3084 2119 3084 
Q 1678 3084 1418 2786 
Q 1159 2488 1159 1978 
L 1159 0 
L 581 0 
L 581 3500 
L 1159 3500 
L 1159 2956 
Q 1356 3278 1631 3431 
Q 1906 3584 2284 3584 
Q 2666 3584 2933 3390 
Q 3200 3197 3328 2828 
z
" transform="scale(0.015625)"/>
      <path id="DejaVuSans-65" d="M 3597 1894 
L 3597 1613 
L 953 1613 
Q 991 1019 1311 708 
Q 1631 397 2203 397 
Q 2534 397 2845 478 
Q 3156 559 3463 722 
L 3463 178 
Q 3153 47 2828 -22 
Q 2503 -91 2169 -91 
Q 1331 -91 842 396 
Q 353 884 353 1716 
Q 353 2575 817 3079 
Q 1281 3584 2069 3584 
Q 2775 3584 3186 3129 
Q 3597 2675 3597 1894 
z
M 3022 2063 
Q 3016 2534 2758 2815 
Q 2500 3097 2075 3097 
Q 1594 3097 1305 2825 
Q 1016 2553 972 2059 
L 3022 2063 
z
" transform="scale(0.015625)"/>
      <path id="DejaVuSans-20" transform="scale(0.015625)"/>
      <path id="DejaVuSans-66" d="M 2375 4863 
L 2375 4384 
L 1825 4384 
Q 1516 4384 1395 4259 
Q 1275 4134 1275 3809 
L 1275 3500 
L 2222 3500 
L 2222 3053 
L 1275 3053 
L 1275 0 
L 697 0 
L 697 3053 
L 147 3053 
L 147 3500 
L 697 3500 
L 697 3744 
Q 697 4328 969 4595 
Q 1241 4863 1831 4863 
L 2375 4863 
z
" transform="scale(0.015625)"/>
      <path id="DejaVuSans-6f" d="M 1959 3097 
Q 1497 3097 1228 2736 
Q 959 2375 959 1747 
Q 959 1119 1226 758 
Q 1494 397 1959 397 
Q 2419 397 2687 759 
Q 2956 1122 2956 1747 
Q 2956 2369 2687 2733 
Q 2419 3097 1959 3097 
z
M 1959 3584 
Q 2709 3584 3137 3096 
Q 3566 2609 3566 1747 
Q 3566 888 3137 398 
Q 2709 -91 1959 -91 
Q 1206 -91 779 398 
Q 353 888 353 1747 
Q 353 2609 779 3096 
Q 1206 3584 1959 3584 
z
" transform="scale(0.015625)"/>
      <path id="DejaVuSans-72" d="M 2631 2963 
Q 2534 3019 2420 3045 
Q 2306 3072 2169 3072 
Q 1681 3072 1420 2755 
Q 1159 2438 1159 1844 
L 1159 0 
L 581 0 
L 581 3500 
L 1159 3500 
L 1159 2956 
Q 1341 3275 1631 3429 
Q 1922 3584 2338 3584 
Q 2397 3584 2469 3576 
Q 2541 3569 2628 3553 
L 2631 2963 
z
" transform="scale(0.015625)"/>
      <path id="DejaVuSans-75" d="M 544 1381 
L 544 3500 
L 1119 3500 
L 1119 1403 
Q 1119 906 1312 657 
Q 1506 409 1894 409 
Q 2359 409 2629 706 
Q 2900 1003 2900 1516 
L 2900 3500 
L 3475 3500 
L 3475 0 
L 2900 0 
L 2900 538 
Q 2691 219 2414 64 
Q 2138 -91 1772 -91 
Q 1169 -91 856 284 
Q 544 659 544 1381 
z
M 1991 3584 
L 1991 3584 
z
" transform="scale(0.015625)"/>
      <path id="DejaVuSans-6c" d="M 603 4863 
L 1178 4863 
L 1178 0 
L 603 0 
L 603 4863 
z
" transform="scale(0.015625)"/>
      <path id="DejaVuSans-28" d="M 1984 4856 
Q 1566 4138 1362 3434 
Q 1159 2731 1159 2009 
Q 1159 1288 1364 580 
Q 1569 -128 1984 -844 
L 1484 -844 
Q 1016 -109 783 600 
Q 550 1309 550 2009 
Q 550 2706 781 3412 
Q 1013 4119 1484 4856 
L 1984 4856 
z
" transform="scale(0.015625)"/>
      <path id="DejaVuSans-2084" d="M 1491 2207 
L 525 897 
L 1491 897 
L 1491 2207 
z
M 1422 2585 
L 1941 2585 
L 1941 897 
L 2363 897 
L 2363 557 
L 1941 557 
L 1941 -24 
L 1491 -24 
L 1491 557 
L 197 557 
L 197 935 
L 1422 2585 
z
" transform="scale(0.015625)"/>
      <path id="DejaVuSans-48" d="M 628 4666 
L 1259 4666 
L 1259 2753 
L 3553 2753 
L 3553 4666 
L 4184 4666 
L 4184 0 
L 3553 0 
L 3553 2222 
L 1259 2222 
L 1259 0 
L 628 0 
L 628 4666 
z
" transform="scale(0.015625)"/>
      <path id="DejaVuSans-2081" d="M 488 319 
L 1125 319 
L 1125 2229 
L 428 2101 
L 428 2463 
L 1147 2585 
L 1575 2585 
L 1575 319 
L 2216 319 
L 2216 -24 
L 488 -24 
L 488 319 
z
" transform="scale(0.015625)"/>
      <path id="DejaVuSans-2080" d="M 1781 2091 
Q 1625 2360 1309 2360 
Q 994 2360 838 2091 
Q 678 1822 678 1285 
Q 678 744 838 476 
Q 994 207 1309 207 
Q 1625 207 1781 476 
Q 1941 744 1941 1285 
Q 1941 1822 1781 2091 
z
M 1309 2638 
Q 1813 2638 2078 2291 
Q 2344 1944 2344 1285 
Q 2344 622 2078 275 
Q 1813 -71 1309 -71 
Q 803 -71 537 275 
Q 272 622 272 1285 
Q 272 1944 537 2291 
Q 803 2638 1309 2638 
z
" transform="scale(0.015625)"/>
      <path id="DejaVuSans-29" d="M 513 4856 
L 1013 4856 
Q 1481 4119 1714 3412 
Q 1947 2706 1947 2009 
Q 1947 1309 1714 600 
Q 1481 -109 1013 -844 
L 513 -844 
Q 928 -128 1133 580 
Q 1338 1288 1338 2009 
Q 1338 2731 1133 3434 
Q 928 4138 513 4856 
z
" transform="scale(0.015625)"/>
      <path id="DejaVuSans-2c" d="M 750 794 
L 1409 794 
L 1409 256 
L 897 -744 
L 494 -744 
L 750 256 
L 750 794 
z
" transform="scale(0.015625)"/>
      <path id="DejaVuSans-64" d="M 2906 2969 
L 2906 4863 
L 3481 4863 
L 3481 0 
L 2906 0 
L 2906 525 
Q 2725 213 2448 61 
Q 2172 -91 1784 -91 
Q 1150 -91 751 415 
Q 353 922 353 1747 
Q 353 2572 751 3078 
Q 1150 3584 1784 3584 
Q 2172 3584 2448 3432 
Q 2725 3281 2906 2969 
z
M 947 1747 
Q 947 1113 1208 752 
Q 1469 391 1925 391 
Q 2381 391 2643 752 
Q 2906 1113 2906 1747 
Q 2906 2381 2643 2742 
Q 2381 3103 1925 3103 
Q 1469 3103 1208 2742 
Q 947 2381 947 1747 
z
" transform="scale(0.015625)"/>
      <path id="DejaVuSans-69" d="M 603 3500 
L 1178 3500 
L 1178 0 
L 603 0 
L 603 3500 
z
M 603 4863 
L 1178 4863 
L 1178 4134 
L 603 4134 
L 603 4863 
z
" transform="scale(0.015625)"/>
      <path id="DejaVuSans-6e" d="M 3513 2113 
L 3513 0 
L 2938 0 
L 2938 2094 
Q 2938 2591 2744 2837 
Q 2550 3084 2163 3084 
Q 1697 3084 1428 2787 
Q 1159 2491 1159 1978 
L 1159 0 
L 581 0 
L 581 3500 
L 1159 3500 
L 1159 2956 
Q 1366 3272 1645 3428 
Q 1925 3584 2291 3584 
Q 2894 3584 3203 3211 
Q 3513 2838 3513 2113 
z
" transform="scale(0.015625)"/>
      <path id="DejaVuSans-74" d="M 1172 4494 
L 1172 3500 
L 2356 3500 
L 2356 3053 
L 1172 3053 
L 1172 1153 
Q 1172 725 1289 603 
Q 1406 481 1766 481 
L 2356 481 
L 2356 0 
L 1766 0 
Q 1100 0 847 248 
Q 594 497 594 1153 
L 594 3053 
L 172 3053 
L 172 3500 
L 594 3500 
L 594 4494 
L 1172 4494 
z
" transform="scale(0.015625)"/>
      <path id="DejaVuSans-73" d="M 2834 3397 
L 2834 2853 
Q 2591 2978 2328 3040 
Q 2066 3103 1784 3103 
Q 1356 3103 1142 2972 
Q 928 2841 928 2578 
Q 928 2378 1081 2264 
Q 1234 2150 1697 2047 
L 1894 2003 
Q 2506 1872 2764 1633 
Q 3022 1394 3022 966 
Q 3022 478 2636 193 
Q 2250 -91 1575 -91 
Q 1294 -91 989 -36 
Q 684 19 347 128 
L 347 722 
Q 666 556 975 473 
Q 1284 391 1588 391 
Q 1994 391 2212 530 
Q 2431 669 2431 922 
Q 2431 1156 2273 1281 
Q 2116 1406 1581 1522 
L 1381 1569 
Q 847 1681 609 1914 
Q 372 2147 372 2553 
Q 372 3047 722 3315 
Q 1072 3584 1716 3584 
Q 2034 3584 2315 3537 
Q 2597 3491 2834 3397 
z
" transform="scale(0.015625)"/>
      <path id="DejaVuSans-63" d="M 3122 3366 
L 3122 2828 
Q 2878 2963 2633 3030 
Q 2388 3097 2138 3097 
Q 1578 3097 1268 2742 
Q 959 2388 959 1747 
Q 959 1106 1268 751 
Q 1578 397 2138 397 
Q 2388 397 2633 464 
Q 2878 531 3122 666 
L 3122 134 
Q 2881 22 2623 -34 
Q 2366 -91 2075 -91 
Q 1284 -91 818 406 
Q 353 903 353 1747 
Q 353 2603 823 3093 
Q 1294 3584 2113 3584 
Q 2378 3584 2631 3529 
Q 2884 3475 3122 3366 
z
" transform="scale(0.015625)"/>
      <path id="DejaVuSans-3d" d="M 678 2906 
L 4684 2906 
L 4684 2381 
L 678 2381 
L 678 2906 
z
M 678 1631 
L 4684 1631 
L 4684 1100 
L 678 1100 
L 678 1631 
z
" transform="scale(0.015625)"/>
      <path id="DejaVuSans-49" d="M 628 4666 
L 1259 4666 
L 1259 0 
L 628 0 
L 628 4666 
z
" transform="scale(0.015625)"/>
     </defs>
     <use xlink:href="#DejaVuSans-53"/>
     <use xlink:href="#DejaVuSans-61" transform="translate(63.476562 0)"/>
     <use xlink:href="#DejaVuSans-6d" transform="translate(124.755859 0)"/>
     <use xlink:href="#DejaVuSans-65" transform="translate(222.167969 0)"/>
     <use xlink:href="#DejaVuSans-20" transform="translate(283.691406 0)"/>
     <use xlink:href="#DejaVuSans-66" transform="translate(315.478516 0)"/>
     <use xlink:href="#DejaVuSans-6f" transform="translate(350.683594 0)"/>
     <use xlink:href="#DejaVuSans-72" transform="translate(411.865234 0)"/>
     <use xlink:href="#DejaVuSans-6d" transform="translate(451.228516 0)"/>
     <use xlink:href="#DejaVuSans-75" transform="translate(548.640625 0)"/>
     <use xlink:href="#DejaVuSans-6c" transform="translate(612.019531 0)"/>
     <use xlink:href="#DejaVuSans-61" transform="translate(639.802734 0)"/>
     <use xlink:href="#DejaVuSans-20" transform="translate(701.082031 0)"/>
     <use xlink:href="#DejaVuSans-28" transform="translate(732.869141 0)"/>
     <use xlink:href="#DejaVuSans-43" transform="translate(771.882812 0)"/>
     <use xlink:href="#DejaVuSans-2084" transform="translate(841.707031 0)"/>
     <use xlink:href="#DejaVuSans-48" transform="translate(881.794922 0)"/>
     <use xlink:href="#DejaVuSans-2081" transform="translate(956.990234 0)"/>
     <use xlink:href="#DejaVuSans-2080" transform="translate(997.078125 0)"/>
     <use xlink:href="#DejaVuSans-29" transform="translate(1037.166016 0)"/>
     <use xlink:href="#DejaVuSans-2c" transform="translate(1076.179688 0)"/>
     <use xlink:href="#DejaVuSans-20" transform="translate(1107.966797 0)"/>
     <use xlink:href="#DejaVuSans-64" transform="translate(1139.753906 0)"/>
     <use xlink:href="#DejaVuSans-69" transform="translate(1203.230469 0)"/>
     <use xlink:href="#DejaVuSans-66" transform="translate(1231.013672 0)"/>
     <use xlink:href="#DejaVuSans-66" transform="translate(1266.21875 0)"/>
     <use xlink:href="#DejaVuSans-65" transform="translate(1301.423828 0)"/>
     <use xlink:href="#DejaVuSans-72" transform="translate(1362.947266 0)"/>
     <use xlink:href="#DejaVuSans-65" transform="translate(1401.810547 0)"/>
     <use xlink:href="#DejaVuSans-6e" transform="translate(1463.333984 0)"/>
     <use xlink:href="#DejaVuSans-74" transform="translate(1526.712891 0)"/>
     <use xlink:href="#DejaVuSans-20" transform="translate(1565.921875 0)"/>
     <use xlink:href="#DejaVuSans-73" transform="translate(1597.708984 0)"/>
     <use xlink:href="#DejaVuSans-74" transform="translate(1649.808594 0)"/>
     <use xlink:href="#DejaVuSans-72" transform="translate(1689.017578 0)"/>
     <use xlink:href="#DejaVuSans-75" transform="translate(1730.130859 0)"/>
     <use xlink:href="#DejaVuSans-63" transform="translate(1793.509766 0)"/>
     <use xlink:href="#DejaVuSans-74" transform="translate(1848.490234 0)"/>
     <use xlink:href="#DejaVuSans-75" transform="translate(1887.699219 0)"/>
     <use xlink:href="#DejaVuSans-72" transform="translate(1951.078125 0)"/>
     <use xlink:href="#DejaVuSans-65" transform="translate(1989.941406 0)"/>
     <use xlink:href="#DejaVuSans-20" transform="translate(2051.464844 0)"/>
     <use xlink:href="#DejaVuSans-3d" transform="translate(2083.251953 0)"/>
     <use xlink:href="#DejaVuSans-20" transform="translate(2167.041016 0)"/>
     <use xlink:href="#DejaVuSans-53" transform="translate(2198.828125 0)"/>
     <use xlink:href="#DejaVuSans-74" transform="translate(2262.304688 0)"/>
     <use xlink:href="#DejaVuSans-72" transform="translate(2301.513672 0)"/>
     <use xlink:href="#DejaVuSans-75" transform="translate(2342.626953 0)"/>
     <use xlink:href="#DejaVuSans-63" transform="translate(2406.005859 0)"/>
     <use xlink:href="#DejaVuSans-74" transform="translate(2460.986328 0)"/>
     <use xlink:href="#DejaVuSans-75" transform="translate(2500.195312 0)"/>
     <use xlink:href="#DejaVuSans-72" transform="translate(2563.574219 0)"/>
     <use xlink:href="#DejaVuSans-61" transform="translate(2604.6875 0)"/>
     <use xlink:href="#DejaVuSans-6c" transform="translate(2665.966797 0)"/>
     <use xlink:href="#DejaVuSans-20" transform="translate(2693.75 0)"/>
     <use xlink:href="#DejaVuSans-49" transform="translate(2725.537109 0)"/>
     <use xlink:href="#DejaVuSans-73" transform="translate(2755.029297 0)"/>
     <use xlink:href="#DejaVuSans-6f" transform="translate(2807.128906 0)"/>
     <use xlink:href="#DejaVuSans-6d" transform="translate(2868.310547 0)"/>
     <use xlink:href="#DejaVuSans-65" transform="translate(2965.722656 0)"/>
     <use xlink:href="#DejaVuSans-72" transform="translate(3027.246094 0)"/>
     <use xlink:href="#DejaVuSans-73" transform="translate(3068.359375 0)"/>
    </g>
   </g>
   <g id="text_15">
    <!-- Structural Isomers -->
    <g transform="translate(291.887344 17.837812) scale(0.14 -0.14)">
     <use xlink:href="#DejaVuSans-53"/>
     <use xlink:href="#DejaVuSans-74" transform="translate(63.476562 0)"/>
     <use xlink:href="#DejaVuSans-72" transform="translate(102.685547 0)"/>
     <use xlink:href="#DejaVuSans-75" transform="translate(143.798828 0)"/>
     <use xlink:href="#DejaVuSans-63" transform="translate(207.177734 0)"/>
     <use xlink:href="#DejaVuSans-74" transform="translate(262.158203 0)"/>
     <use xlink:href="#DejaVuSans-75" transform="translate(301.367188 0)"/>
     <use xlink:href="#DejaVuSans-72" transform="translate(364.746094 0)"/>
     <use xlink:href="#DejaVuSans-61" transform="translate(405.859375 0)"/>
     <use xlink:href="#DejaVuSans-6c" transform="translate(467.138672 0)"/>
     <use xlink:href="#DejaVuSans-20" transform="translate(494.921875 0)"/>
     <use xlink:href="#DejaVuSans-49" transform="translate(526.708984 0)"/>
     <use xlink:href="#DejaVuSans-73" transform="translate(556.201172 0)"/>
     <use xlink:href="#DejaVuSans-6f" transform="translate(608.300781 0)"/>
     <use xlink:href="#DejaVuSans-6d" transform="translate(669.482422 0)"/>
     <use xlink:href="#DejaVuSans-65" transform="translate(766.894531 0)"/>
     <use xlink:href="#DejaVuSans-72" transform="translate(828.417969 0)"/>
     <use xlink:href="#DejaVuSans-73" transform="translate(869.53125 0)"/>
    </g>
   </g>
  </g>
 </g>
 <defs>
  <clipPath id="p94a9220035">
   <rect x="7.2" y="32.837812" width="698.4" height="312.84"/>
  </clipPath>
 </defs>
</svg>
