<?xml version="1.0" encoding="utf-8" standalone="no"?>
<!DOCTYPE svg PUBLIC "-//W3C//DTD SVG 1.1//EN"
  "http://www.w3.org/Graphics/SVG/1.1/DTD/svg11.dtd">
<svg xmlns:xlink="http://www.w3.org/1999/xlink" width="568.8pt" height="352.877812pt" viewBox="0 0 568.8 352.877812" xmlns="http://www.w3.org/2000/svg" version="1.1">
 <metadata>
  <rdf:RDF xmlns:dc="http://purl.org/dc/elements/1.1/" xmlns:cc="http://creativecommons.org/ns#" xmlns:rdf="http://www.w3.org/1999/02/22-rdf-syntax-ns#">
   <cc:Work>
    <dc:type rdf:resource="http://purl.org/dc/dcmitype/StillImage"/>
    <dc:date>2026-01-02T18:08:08.886764</dc:date>
    <dc:format>image/svg+xml</dc:format>
    <dc:creator>
     <cc:Agent>
      <dc:title>Matplotlib v3.10.8, https://matplotlib.org/</dc:title>
     </cc:Agent>
    </dc:creator>
   </cc:Work>
  </rdf:RDF>
 </metadata>
 <defs>
  <style type="text/css">*{stroke-linejoin: round; stroke-linecap: butt}</style>
 </defs>
 <g id="figure_1">
  <g id="patch_1">
   <path d="M 0 352.877812 
L 568.8 352.877812 
L 568.8 0 
L 0 0 
z
" style="fill: #ffffff"/>
  </g>
  <g id="axes_1">
   <g id="patch_2">
    <path d="M 145.8 211.156612 
C 152.232501 211.156612 158.40241 208.849217 162.950875 204.742602 
C 167.49934 200.635988 170.055 195.065442 170.055 189.257812 
C 170.055 183.450183 167.49934 177.879637 162.950875 173.773023 
C 158.40241 169.666408 152.232501 167.359012 145.8 167.359012 
C 139.367499 167.359012 133.19759 169.666408 128.649125 173.773023 
C 124.10066 177.879637 121.545 183.450183 121.545 189.257812 
C 121.545 195.065442 124.10066 200.635988 128.649125 204.742602 
C 133.19759 208.849217 139.367499 211.156612 145.8 211.156612 
z
" clip-path="url(#pe7f72065bb)" style="fill: #3498db; opacity: 0.9; stroke: #3498db; stroke-width: 1.5; stroke-linejoin: miter"/>
   </g>
   <g id="patch_3">
    <path d="M 97.29 239.312212 
C 100.965715 239.312212 104.491377 237.993701 107.0905 235.647064 
C 109.689623 233.300427 111.15 230.117258 111.15 226.798612 
C 111.15 223.479967 109.689623 220.296798 107.0905 217.950161 
C 104.491377 215.603524 100.965715 214.285012 97.29 214.285012 
C 93.614285 214.285012 90.088623 215.603524 87.4895 217.950161 
C 84.890377 220.296798 83.43 223.479967 83.43 226.798612 
C 83.43 230.117258 84.890377 233.300427 87.4895 235.647064 
C 90.088623 237.993701 93.614285 239.312212 97.29 239.312212 
z
" clip-path="url(#pe7f72065bb)" style="fill: #e74c3c; opacity: 0.9; stroke: #e74c3c; stroke-width: 1.5; stroke-linejoin: miter"/>
   </g>
   <g id="patch_4">
    <path d="M 194.31 239.312212 
C 197.985715 239.312212 201.511377 237.993701 204.1105 235.647064 
C 206.709623 233.300427 208.17 230.117258 208.17 226.798612 
C 208.17 223.479967 206.709623 220.296798 204.1105 217.950161 
C 201.511377 215.603524 197.985715 214.285012 194.31 214.285012 
C 190.634285 214.285012 187.108623 215.603524 184.5095 217.950161 
C 181.910377 220.296798 180.45 223.479967 180.45 226.798612 
C 180.45 230.117258 181.910377 233.300427 184.5095 235.647064 
C 187.108623 237.993701 190.634285 239.312212 194.31 239.312212 
z
" clip-path="url(#pe7f72065bb)" style="fill: #e74c3c; opacity: 0.9; stroke: #e74c3c; stroke-width: 1.5; stroke-linejoin: miter"/>
   </g>
   <g id="patch_5">
    <path d="M 388.35 211.156612 
C 394.782501 211.156612 400.95241 208.849217 405.500875 204.742602 
C 410.04934 200.635988 412.605 195.065442 412.605 189.257812 
C 412.605 183.450183 410.04934 177.879637 405.500875 173.773023 
C 400.95241 169.666408 394.782501 167.359012 388.35 167.359012 
C 381.917499 167.359012 375.74759 169.666408 371.199125 173.773023 
C 366.65066 177.879637 364.095 183.450183 364.095 189.257812 
C 364.095 195.065442 366.65066 200.635988 371.199125 204.742602 
C 375.74759 208.849217 381.917499 211.156612 388.35 211.156612 
z
" clip-path="url(#pe7f72065bb)" style="fill: #3498db; opacity: 0.9; stroke: #3498db; stroke-width: 1.5; stroke-linejoin: miter"/>
   </g>
   <g id="patch_6">
    <path d="M 339.84 239.312212 
C 343.515715 239.312212 347.041377 237.993701 349.6405 235.647064 
C 352.239623 233.300427 353.7 230.117258 353.7 226.798612 
C 353.7 223.479967 352.239623 220.296798 349.6405 217.950161 
C 347.041377 215.603524 343.515715 214.285012 339.84 214.285012 
C 336.164285 214.285012 332.638623 215.603524 330.0395 217.950161 
C 327.440377 220.296798 325.98 223.479967 325.98 226.798612 
C 325.98 230.117258 327.440377 233.300427 330.0395 235.647064 
C 332.638623 237.993701 336.164285 239.312212 339.84 239.312212 
z
" clip-path="url(#pe7f72065bb)" style="fill: #e74c3c; opacity: 0.9; stroke: #e74c3c; stroke-width: 1.5; stroke-linejoin: miter"/>
   </g>
   <g id="patch_7">
    <path d="M 436.86 239.312212 
C 440.535715 239.312212 444.061377 237.993701 446.6605 235.647064 
C 449.259623 233.300427 450.72 230.117258 450.72 226.798612 
C 450.72 223.479967 449.259623 220.296798 446.6605 217.950161 
C 444.061377 215.603524 440.535715 214.285012 436.86 214.285012 
C 433.184285 214.285012 429.658623 215.603524 427.0595 217.950161 
C 424.460377 220.296798 423 223.479967 423 226.798612 
C 423 230.117258 424.460377 233.300427 427.0595 235.647064 
C 429.658623 237.993701 433.184285 239.312212 436.86 239.312212 
z
" clip-path="url(#pe7f72065bb)" style="fill: #e74c3c; opacity: 0.9; stroke: #e74c3c; stroke-width: 1.5; stroke-linejoin: miter"/>
   </g>
   <g id="line2d_1">
    <path d="M 114.615 217.413412 
L 131.94 198.643012 
" clip-path="url(#pe7f72065bb)" style="fill: none; stroke: #2ecc71; stroke-width: 2.5; stroke-linecap: square"/>
   </g>
   <g id="line2d_2">
    <path d="M 176.985 217.413412 
L 159.66 198.643012 
" clip-path="url(#pe7f72065bb)" style="fill: none; stroke: #2ecc71; stroke-width: 2.5; stroke-linecap: square"/>
   </g>
   <g id="line2d_3">
    <path d="M 357.165 217.413412 
L 374.49 198.643012 
" clip-path="url(#pe7f72065bb)" style="fill: none; stroke: #2ecc71; stroke-width: 2.5; stroke-linecap: square"/>
   </g>
   <g id="line2d_4">
    <path d="M 419.535 217.413412 
L 402.21 198.643012 
" clip-path="url(#pe7f72065bb)" style="fill: none; stroke: #2ecc71; stroke-width: 2.5; stroke-linecap: square"/>
   </g>
   <g id="line2d_5">
    <path d="M 170.055 189.257812 
L 364.095 189.257812 
" clip-path="url(#pe7f72065bb)" style="fill: none; stroke-dasharray: 5.55,2.4; stroke-dashoffset: 0; stroke: #f39c12; stroke-width: 1.5"/>
   </g>
   <g id="text_1">
    <!-- O -->
    <g style="fill: #ffffff" transform="translate(141.076875 192.569062) scale(0.12 -0.12)">
     <defs>
      <path id="DejaVuSans-4f" d="M 2522 4238 
Q 1834 4238 1429 3725 
Q 1025 3213 1025 2328 
Q 1025 1447 1429 934 
Q 1834 422 2522 422 
Q 3209 422 3611 934 
Q 4013 1447 4013 2328 
Q 4013 3213 3611 3725 
Q 3209 4238 2522 4238 
z
M 2522 4750 
Q 3503 4750 4090 4092 
Q 4678 3434 4678 2328 
Q 4678 1225 4090 567 
Q 3503 -91 2522 -91 
Q 1538 -91 948 565 
Q 359 1222 359 2328 
Q 359 3434 948 4092 
Q 1538 4750 2522 4750 
z
" transform="scale(0.015625)"/>
     </defs>
     <use xlink:href="#DejaVuSans-4f"/>
    </g>
   </g>
   <g id="text_2">
    <!-- H -->
    <g style="fill: #ffffff" transform="translate(93.529844 229.557987) scale(0.1 -0.1)">
     <defs>
      <path id="DejaVuSans-48" d="M 628 4666 
L 1259 4666 
L 1259 2753 
L 3553 2753 
L 3553 4666 
L 4184 4666 
L 4184 0 
L 3553 0 
L 3553 2222 
L 1259 2222 
L 1259 0 
L 628 0 
L 628 4666 
z
" transform="scale(0.015625)"/>
     </defs>
     <use xlink:href="#DejaVuSans-48"/>
    </g>
   </g>
   <g id="text_3">
    <!-- H -->
    <g style="fill: #ffffff" transform="translate(190.549844 229.557987) scale(0.1 -0.1)">
     <use xlink:href="#DejaVuSans-48"/>
    </g>
   </g>
   <g id="text_4">
    <!-- O -->
    <g style="fill: #ffffff" transform="translate(383.626875 192.569062) scale(0.12 -0.12)">
     <use xlink:href="#DejaVuSans-4f"/>
    </g>
   </g>
   <g id="text_5">
    <!-- H -->
    <g style="fill: #ffffff" transform="translate(336.079844 229.557987) scale(0.1 -0.1)">
     <use xlink:href="#DejaVuSans-48"/>
    </g>
   </g>
   <g id="text_6">
    <!-- H -->
    <g style="fill: #ffffff" transform="translate(433.099844 229.557987) scale(0.1 -0.1)">
     <use xlink:href="#DejaVuSans-48"/>
    </g>
   </g>
   <g id="text_7">
    <!-- H-bond -->
    <g style="fill: #f39c12" transform="translate(252.5625 170.487412) scale(0.08 -0.08)">
     <defs>
      <path id="DejaVuSans-2d" d="M 313 2009 
L 1997 2009 
L 1997 1497 
L 313 1497 
L 313 2009 
z
" transform="scale(0.015625)"/>
      <path id="DejaVuSans-62" d="M 3116 1747 
Q 3116 2381 2855 2742 
Q 2594 3103 2138 3103 
Q 1681 3103 1420 2742 
Q 1159 2381 1159 1747 
Q 1159 1113 1420 752 
Q 1681 391 2138 391 
Q 2594 391 2855 752 
Q 3116 1113 3116 1747 
z
M 1159 2969 
Q 1341 3281 1617 3432 
Q 1894 3584 2278 3584 
Q 2916 3584 3314 3078 
Q 3713 2572 3713 1747 
Q 3713 922 3314 415 
Q 2916 -91 2278 -91 
Q 1894 -91 1617 61 
Q 1341 213 1159 525 
L 1159 0 
L 581 0 
L 581 4863 
L 1159 4863 
L 1159 2969 
z
" transform="scale(0.015625)"/>
      <path id="DejaVuSans-6f" d="M 1959 3097 
Q 1497 3097 1228 2736 
Q 959 2375 959 1747 
Q 959 1119 1226 758 
Q 1494 397 1959 397 
Q 2419 397 2687 759 
Q 2956 1122 2956 1747 
Q 2956 2369 2687 2733 
Q 2419 3097 1959 3097 
z
M 1959 3584 
Q 2709 3584 3137 3096 
Q 3566 2609 3566 1747 
Q 3566 888 3137 398 
Q 2709 -91 1959 -91 
Q 1206 -91 779 398 
Q 353 888 353 1747 
Q 353 2609 779 3096 
Q 1206 3584 1959 3584 
z
" transform="scale(0.015625)"/>
      <path id="DejaVuSans-6e" d="M 3513 2113 
L 3513 0 
L 2938 0 
L 2938 2094 
Q 2938 2591 2744 2837 
Q 2550 3084 2163 3084 
Q 1697 3084 1428 2787 
Q 1159 2491 1159 1978 
L 1159 0 
L 581 0 
L 581 3500 
L 1159 3500 
L 1159 2956 
Q 1366 3272 1645 3428 
Q 1925 3584 2291 3584 
Q 2894 3584 3203 3211 
Q 3513 2838 3513 2113 
z
" transform="scale(0.015625)"/>
      <path id="DejaVuSans-64" d="M 2906 2969 
L 2906 4863 
L 3481 4863 
L 3481 0 
L 2906 0 
L 2906 525 
Q 2725 213 2448 61 
Q 2172 -91 1784 -91 
Q 1150 -91 751 415 
Q 353 922 353 1747 
Q 353 2572 751 3078 
Q 1150 3584 1784 3584 
Q 2172 3584 2448 3432 
Q 2725 3281 2906 2969 
z
M 947 1747 
Q 947 1113 1208 752 
Q 1469 391 1925 391 
Q 2381 391 2643 752 
Q 2906 1113 2906 1747 
Q 2906 2381 2643 2742 
Q 2381 3103 1925 3103 
Q 1469 3103 1208 2742 
Q 947 2381 947 1747 
z
" transform="scale(0.015625)"/>
     </defs>
     <use xlink:href="#DejaVuSans-48"/>
     <use xlink:href="#DejaVuSans-2d" transform="translate(75.195312 0)"/>
     <use xlink:href="#DejaVuSans-62" transform="translate(111.279297 0)"/>
     <use xlink:href="#DejaVuSans-6f" transform="translate(174.755859 0)"/>
     <use xlink:href="#DejaVuSans-6e" transform="translate(235.9375 0)"/>
     <use xlink:href="#DejaVuSans-64" transform="translate(299.316406 0)"/>
    </g>
   </g>
   <g id="text_8">
    <!-- δ⁻ -->
    <g style="fill: #3498db" transform="translate(140.101562 151.717012) scale(0.1 -0.1)">
     <defs>
      <path id="DejaVuSans-3b4" d="M 3138 4053 
Q 2819 4272 2072 4272 
Q 1281 4272 1281 3906 
Q 1281 3619 2106 3469 
Q 2756 3353 3122 3003 
Q 3566 2581 3566 1716 
Q 3566 888 3138 400 
Q 2709 -91 1959 -91 
Q 1213 -91 781 400 
Q 353 888 353 1747 
Q 353 2384 781 2900 
Q 947 3100 1181 3213 
Q 694 3459 694 3900 
Q 694 4750 2072 4750 
Q 2763 4750 3138 4531 
L 3138 4053 
z
M 1613 3056 
Q 1400 2966 1228 2738 
Q 959 2384 959 1747 
Q 959 1113 1225 756 
Q 1494 397 1959 397 
Q 2419 397 2687 759 
Q 2956 1122 2956 1716 
Q 2956 2338 2672 2638 
Q 2369 2959 1975 2994 
Q 1775 3013 1613 3056 
z
" transform="scale(0.015625)"/>
      <path id="DejaVuSans-207b" d="M 428 3359 
L 2950 3359 
L 2950 3063 
L 428 3063 
L 428 3359 
z
" transform="scale(0.015625)"/>
     </defs>
     <use xlink:href="#DejaVuSans-3b4"/>
     <use xlink:href="#DejaVuSans-207b" transform="translate(61.181641 0)"/>
    </g>
   </g>
   <g id="text_9">
    <!-- δ⁺ -->
    <g style="fill: #e74c3c" transform="translate(188.611562 251.825812) scale(0.1 -0.1)">
     <defs>
      <path id="DejaVuSans-207a" d="M 1853 4334 
L 1853 3359 
L 2950 3359 
L 2950 3063 
L 1853 3063 
L 1853 2088 
L 1525 2088 
L 1525 3063 
L 428 3063 
L 428 3359 
L 1525 3359 
L 1525 4334 
L 1853 4334 
z
" transform="scale(0.015625)"/>
     </defs>
     <use xlink:href="#DejaVuSans-3b4"/>
     <use xlink:href="#DejaVuSans-207a" transform="translate(61.181641 0)"/>
    </g>
   </g>
   <g id="text_10">
    <!-- δ⁻ -->
    <g style="fill: #3498db" transform="translate(382.651562 151.717012) scale(0.1 -0.1)">
     <use xlink:href="#DejaVuSans-3b4"/>
     <use xlink:href="#DejaVuSans-207b" transform="translate(61.181641 0)"/>
    </g>
   </g>
   <g id="text_11">
    <!-- Electrostatic attraction between δ⁺ (H) and δ⁻ (O) -->
    <g transform="translate(159.857031 295.623412) scale(0.1 -0.1)">
     <defs>
      <path id="DejaVuSans-45" d="M 628 4666 
L 3578 4666 
L 3578 4134 
L 1259 4134 
L 1259 2753 
L 3481 2753 
L 3481 2222 
L 1259 2222 
L 1259 531 
L 3634 531 
L 3634 0 
L 628 0 
L 628 4666 
z
" transform="scale(0.015625)"/>
      <path id="DejaVuSans-6c" d="M 603 4863 
L 1178 4863 
L 1178 0 
L 603 0 
L 603 4863 
z
" transform="scale(0.015625)"/>
      <path id="DejaVuSans-65" d="M 3597 1894 
L 3597 1613 
L 953 1613 
Q 991 1019 1311 708 
Q 1631 397 2203 397 
Q 2534 397 2845 478 
Q 3156 559 3463 722 
L 3463 178 
Q 3153 47 2828 -22 
Q 2503 -91 2169 -91 
Q 1331 -91 842 396 
Q 353 884 353 1716 
Q 353 2575 817 3079 
Q 1281 3584 2069 3584 
Q 2775 3584 3186 3129 
Q 3597 2675 3597 1894 
z
M 3022 2063 
Q 3016 2534 2758 2815 
Q 2500 3097 2075 3097 
Q 1594 3097 1305 2825 
Q 1016 2553 972 2059 
L 3022 2063 
z
" transform="scale(0.015625)"/>
      <path id="DejaVuSans-63" d="M 3122 3366 
L 3122 2828 
Q 2878 2963 2633 3030 
Q 2388 3097 2138 3097 
Q 1578 3097 1268 2742 
Q 959 2388 959 1747 
Q 959 1106 1268 751 
Q 1578 397 2138 397 
Q 2388 397 2633 464 
Q 2878 531 3122 666 
L 3122 134 
Q 2881 22 2623 -34 
Q 2366 -91 2075 -91 
Q 1284 -91 818 406 
Q 353 903 353 1747 
Q 353 2603 823 3093 
Q 1294 3584 2113 3584 
Q 2378 3584 2631 3529 
Q 2884 3475 3122 3366 
z
" transform="scale(0.015625)"/>
      <path id="DejaVuSans-74" d="M 1172 4494 
L 1172 3500 
L 2356 3500 
L 2356 3053 
L 1172 3053 
L 1172 1153 
Q 1172 725 1289 603 
Q 1406 481 1766 481 
L 2356 481 
L 2356 0 
L 1766 0 
Q 1100 0 847 248 
Q 594 497 594 1153 
L 594 3053 
L 172 3053 
L 172 3500 
L 594 3500 
L 594 4494 
L 1172 4494 
z
" transform="scale(0.015625)"/>
      <path id="DejaVuSans-72" d="M 2631 2963 
Q 2534 3019 2420 3045 
Q 2306 3072 2169 3072 
Q 1681 3072 1420 2755 
Q 1159 2438 1159 1844 
L 1159 0 
L 581 0 
L 581 3500 
L 1159 3500 
L 1159 2956 
Q 1341 3275 1631 3429 
Q 1922 3584 2338 3584 
Q 2397 3584 2469 3576 
Q 2541 3569 2628 3553 
L 2631 2963 
z
" transform="scale(0.015625)"/>
      <path id="DejaVuSans-73" d="M 2834 3397 
L 2834 2853 
Q 2591 2978 2328 3040 
Q 2066 3103 1784 3103 
Q 1356 3103 1142 2972 
Q 928 2841 928 2578 
Q 928 2378 1081 2264 
Q 1234 2150 1697 2047 
L 1894 2003 
Q 2506 1872 2764 1633 
Q 3022 1394 3022 966 
Q 3022 478 2636 193 
Q 2250 -91 1575 -91 
Q 1294 -91 989 -36 
Q 684 19 347 128 
L 347 722 
Q 666 556 975 473 
Q 1284 391 1588 391 
Q 1994 391 2212 530 
Q 2431 669 2431 922 
Q 2431 1156 2273 1281 
Q 2116 1406 1581 1522 
L 1381 1569 
Q 847 1681 609 1914 
Q 372 2147 372 2553 
Q 372 3047 722 3315 
Q 1072 3584 1716 3584 
Q 2034 3584 2315 3537 
Q 2597 3491 2834 3397 
z
" transform="scale(0.015625)"/>
      <path id="DejaVuSans-61" d="M 2194 1759 
Q 1497 1759 1228 1600 
Q 959 1441 959 1056 
Q 959 750 1161 570 
Q 1363 391 1709 391 
Q 2188 391 2477 730 
Q 2766 1069 2766 1631 
L 2766 1759 
L 2194 1759 
z
M 3341 1997 
L 3341 0 
L 2766 0 
L 2766 531 
Q 2569 213 2275 61 
Q 1981 -91 1556 -91 
Q 1019 -91 701 211 
Q 384 513 384 1019 
Q 384 1609 779 1909 
Q 1175 2209 1959 2209 
L 2766 2209 
L 2766 2266 
Q 2766 2663 2505 2880 
Q 2244 3097 1772 3097 
Q 1472 3097 1187 3025 
Q 903 2953 641 2809 
L 641 3341 
Q 956 3463 1253 3523 
Q 1550 3584 1831 3584 
Q 2591 3584 2966 3190 
Q 3341 2797 3341 1997 
z
" transform="scale(0.015625)"/>
      <path id="DejaVuSans-69" d="M 603 3500 
L 1178 3500 
L 1178 0 
L 603 0 
L 603 3500 
z
M 603 4863 
L 1178 4863 
L 1178 4134 
L 603 4134 
L 603 4863 
z
" transform="scale(0.015625)"/>
      <path id="DejaVuSans-20" transform="scale(0.015625)"/>
      <path id="DejaVuSans-77" d="M 269 3500 
L 844 3500 
L 1563 769 
L 2278 3500 
L 2956 3500 
L 3675 769 
L 4391 3500 
L 4966 3500 
L 4050 0 
L 3372 0 
L 2619 2869 
L 1863 0 
L 1184 0 
L 269 3500 
z
" transform="scale(0.015625)"/>
      <path id="DejaVuSans-28" d="M 1984 4856 
Q 1566 4138 1362 3434 
Q 1159 2731 1159 2009 
Q 1159 1288 1364 580 
Q 1569 -128 1984 -844 
L 1484 -844 
Q 1016 -109 783 600 
Q 550 1309 550 2009 
Q 550 2706 781 3412 
Q 1013 4119 1484 4856 
L 1984 4856 
z
" transform="scale(0.015625)"/>
      <path id="DejaVuSans-29" d="M 513 4856 
L 1013 4856 
Q 1481 4119 1714 3412 
Q 1947 2706 1947 2009 
Q 1947 1309 1714 600 
Q 1481 -109 1013 -844 
L 513 -844 
Q 928 -128 1133 580 
Q 1338 1288 1338 2009 
Q 1338 2731 1133 3434 
Q 928 4138 513 4856 
z
" transform="scale(0.015625)"/>
     </defs>
     <use xlink:href="#DejaVuSans-45"/>
     <use xlink:href="#DejaVuSans-6c" transform="translate(63.183594 0)"/>
     <use xlink:href="#DejaVuSans-65" transform="translate(90.966797 0)"/>
     <use xlink:href="#DejaVuSans-63" transform="translate(152.490234 0)"/>
     <use xlink:href="#DejaVuSans-74" transform="translate(207.470703 0)"/>
     <use xlink:href="#DejaVuSans-72" transform="translate(246.679688 0)"/>
     <use xlink:href="#DejaVuSans-6f" transform="translate(285.542969 0)"/>
     <use xlink:href="#DejaVuSans-73" transform="translate(346.724609 0)"/>
     <use xlink:href="#DejaVuSans-74" transform="translate(398.824219 0)"/>
     <use xlink:href="#DejaVuSans-61" transform="translate(438.033203 0)"/>
     <use xlink:href="#DejaVuSans-74" transform="translate(499.3125 0)"/>
     <use xlink:href="#DejaVuSans-69" transform="translate(538.521484 0)"/>
     <use xlink:href="#DejaVuSans-63" transform="translate(566.304688 0)"/>
     <use xlink:href="#DejaVuSans-20" transform="translate(621.285156 0)"/>
     <use xlink:href="#DejaVuSans-61" transform="translate(653.072266 0)"/>
     <use xlink:href="#DejaVuSans-74" transform="translate(714.351562 0)"/>
     <use xlink:href="#DejaVuSans-74" transform="translate(753.560547 0)"/>
     <use xlink:href="#DejaVuSans-72" transform="translate(792.769531 0)"/>
     <use xlink:href="#DejaVuSans-61" transform="translate(833.882812 0)"/>
     <use xlink:href="#DejaVuSans-63" transform="translate(895.162109 0)"/>
     <use xlink:href="#DejaVuSans-74" transform="translate(950.142578 0)"/>
     <use xlink:href="#DejaVuSans-69" transform="translate(989.351562 0)"/>
     <use xlink:href="#DejaVuSans-6f" transform="translate(1017.134766 0)"/>
     <use xlink:href="#DejaVuSans-6e" transform="translate(1078.316406 0)"/>
     <use xlink:href="#DejaVuSans-20" transform="translate(1141.695312 0)"/>
     <use xlink:href="#DejaVuSans-62" transform="translate(1173.482422 0)"/>
     <use xlink:href="#DejaVuSans-65" transform="translate(1236.958984 0)"/>
     <use xlink:href="#DejaVuSans-74" transform="translate(1298.482422 0)"/>
     <use xlink:href="#DejaVuSans-77" transform="translate(1337.691406 0)"/>
     <use xlink:href="#DejaVuSans-65" transform="translate(1419.478516 0)"/>
     <use xlink:href="#DejaVuSans-65" transform="translate(1481.001953 0)"/>
     <use xlink:href="#DejaVuSans-6e" transform="translate(1542.525391 0)"/>
     <use xlink:href="#DejaVuSans-20" transform="translate(1605.904297 0)"/>
     <use xlink:href="#DejaVuSans-3b4" transform="translate(1637.691406 0)"/>
     <use xlink:href="#DejaVuSans-207a" transform="translate(1698.873047 0)"/>
     <use xlink:href="#DejaVuSans-20" transform="translate(1751.65625 0)"/>
     <use xlink:href="#DejaVuSans-28" transform="translate(1783.443359 0)"/>
     <use xlink:href="#DejaVuSans-48" transform="translate(1822.457031 0)"/>
     <use xlink:href="#DejaVuSans-29" transform="translate(1897.652344 0)"/>
     <use xlink:href="#DejaVuSans-20" transform="translate(1936.666016 0)"/>
     <use xlink:href="#DejaVuSans-61" transform="translate(1968.453125 0)"/>
     <use xlink:href="#DejaVuSans-6e" transform="translate(2029.732422 0)"/>
     <use xlink:href="#DejaVuSans-64" transform="translate(2093.111328 0)"/>
     <use xlink:href="#DejaVuSans-20" transform="translate(2156.587891 0)"/>
     <use xlink:href="#DejaVuSans-3b4" transform="translate(2188.375 0)"/>
     <use xlink:href="#DejaVuSans-207b" transform="translate(2249.556641 0)"/>
     <use xlink:href="#DejaVuSans-20" transform="translate(2302.339844 0)"/>
     <use xlink:href="#DejaVuSans-28" transform="translate(2334.126953 0)"/>
     <use xlink:href="#DejaVuSans-4f" transform="translate(2373.140625 0)"/>
     <use xlink:href="#DejaVuSans-29" transform="translate(2451.851562 0)"/>
    </g>
   </g>
   <g id="text_12">
    <!-- Hydrogen Bonding -->
    <g transform="translate(219.342656 17.837812) scale(0.14 -0.14)">
     <defs>
      <path id="DejaVuSans-79" d="M 2059 -325 
Q 1816 -950 1584 -1140 
Q 1353 -1331 966 -1331 
L 506 -1331 
L 506 -850 
L 844 -850 
Q 1081 -850 1212 -737 
Q 1344 -625 1503 -206 
L 1606 56 
L 191 3500 
L 800 3500 
L 1894 763 
L 2988 3500 
L 3597 3500 
L 2059 -325 
z
" transform="scale(0.015625)"/>
      <path id="DejaVuSans-67" d="M 2906 1791 
Q 2906 2416 2648 2759 
Q 2391 3103 1925 3103 
Q 1463 3103 1205 2759 
Q 947 2416 947 1791 
Q 947 1169 1205 825 
Q 1463 481 1925 481 
Q 2391 481 2648 825 
Q 2906 1169 2906 1791 
z
M 3481 434 
Q 3481 -459 3084 -895 
Q 2688 -1331 1869 -1331 
Q 1566 -1331 1297 -1286 
Q 1028 -1241 775 -1147 
L 775 -588 
Q 1028 -725 1275 -790 
Q 1522 -856 1778 -856 
Q 2344 -856 2625 -561 
Q 2906 -266 2906 331 
L 2906 616 
Q 2728 306 2450 153 
Q 2172 0 1784 0 
Q 1141 0 747 490 
Q 353 981 353 1791 
Q 353 2603 747 3093 
Q 1141 3584 1784 3584 
Q 2172 3584 2450 3431 
Q 2728 3278 2906 2969 
L 2906 3500 
L 3481 3500 
L 3481 434 
z
" transform="scale(0.015625)"/>
      <path id="DejaVuSans-42" d="M 1259 2228 
L 1259 519 
L 2272 519 
Q 2781 519 3026 730 
Q 3272 941 3272 1375 
Q 3272 1813 3026 2020 
Q 2781 2228 2272 2228 
L 1259 2228 
z
M 1259 4147 
L 1259 2741 
L 2194 2741 
Q 2656 2741 2882 2914 
Q 3109 3088 3109 3444 
Q 3109 3797 2882 3972 
Q 2656 4147 2194 4147 
L 1259 4147 
z
M 628 4666 
L 2241 4666 
Q 2963 4666 3353 4366 
Q 3744 4066 3744 3513 
Q 3744 3084 3544 2831 
Q 3344 2578 2956 2516 
Q 3422 2416 3680 2098 
Q 3938 1781 3938 1306 
Q 3938 681 3513 340 
Q 3088 0 2303 0 
L 628 0 
L 628 4666 
z
" transform="scale(0.015625)"/>
     </defs>
     <use xlink:href="#DejaVuSans-48"/>
     <use xlink:href="#DejaVuSans-79" transform="translate(75.195312 0)"/>
     <use xlink:href="#DejaVuSans-64" transform="translate(134.375 0)"/>
     <use xlink:href="#DejaVuSans-72" transform="translate(197.851562 0)"/>
     <use xlink:href="#DejaVuSans-6f" transform="translate(236.714844 0)"/>
     <use xlink:href="#DejaVuSans-67" transform="translate(297.896484 0)"/>
     <use xlink:href="#DejaVuSans-65" transform="translate(361.373047 0)"/>
     <use xlink:href="#DejaVuSans-6e" transform="translate(422.896484 0)"/>
     <use xlink:href="#DejaVuSans-20" transform="translate(486.275391 0)"/>
     <use xlink:href="#DejaVuSans-42" transform="translate(518.0625 0)"/>
     <use xlink:href="#DejaVuSans-6f" transform="translate(586.666016 0)"/>
     <use xlink:href="#DejaVuSans-6e" transform="translate(647.847656 0)"/>
     <use xlink:href="#DejaVuSans-64" transform="translate(711.226562 0)"/>
     <use xlink:href="#DejaVuSans-69" transform="translate(774.703125 0)"/>
     <use xlink:href="#DejaVuSans-6e" transform="translate(802.486328 0)"/>
     <use xlink:href="#DejaVuSans-67" transform="translate(865.865234 0)"/>
    </g>
   </g>
  </g>
 </g>
 <defs>
  <clipPath id="pe7f72065bb">
   <rect x="7.2" y="32.837812" width="554.4" height="312.84"/>
  </clipPath>
 </defs>
</svg>
