<?xml version="1.0" encoding="utf-8" standalone="no"?>
<!DOCTYPE svg PUBLIC "-//W3C//DTD SVG 1.1//EN"
  "http://www.w3.org/Graphics/SVG/1.1/DTD/svg11.dtd">
<svg xmlns:xlink="http://www.w3.org/1999/xlink" width="712.8pt" height="352.877812pt" viewBox="0 0 712.8 352.877812" xmlns="http://www.w3.org/2000/svg" version="1.1">
 <metadata>
  <rdf:RDF xmlns:dc="http://purl.org/dc/elements/1.1/" xmlns:cc="http://creativecommons.org/ns#" xmlns:rdf="http://www.w3.org/1999/02/22-rdf-syntax-ns#">
   <cc:Work>
    <dc:type rdf:resource="http://purl.org/dc/dcmitype/StillImage"/>
    <dc:date>2026-01-02T18:08:09.375453</dc:date>
    <dc:format>image/svg+xml</dc:format>
    <dc:creator>
     <cc:Agent>
      <dc:title>Matplotlib v3.10.8, https://matplotlib.org/</dc:title>
     </cc:Agent>
    </dc:creator>
   </cc:Work>
  </rdf:RDF>
 </metadata>
 <defs>
  <style type="text/css">*{stroke-linejoin: round; stroke-linecap: butt}</style>
 </defs>
 <g id="figure_1">
  <g id="patch_1">
   <path d="M 0 352.877812 
L 712.8 352.877812 
L 712.8 0 
L 0 0 
z
" style="fill: #ffffff"/>
  </g>
  <g id="axes_1">
   <g id="patch_2">
    <path d="M 42.12 236.183812 
L 97.992 236.183812 
Q 101.484 236.183812 101.484 233.055412 
L 101.484 176.744212 
Q 101.484 173.615812 97.992 173.615812 
L 42.12 173.615812 
Q 38.628 173.615812 38.628 176.744212 
L 38.628 233.055412 
Q 38.628 236.183812 42.12 236.183812 
z
" clip-path="url(#pc36f4f4a7a)" style="fill: #95a5a6; opacity: 0.5; stroke: #000000; stroke-linejoin: miter"/>
   </g>
   <g id="patch_3">
    <path d="M 146.88 220.541812 
C 151.510446 220.541812 155.951865 218.893673 159.226084 215.960377 
C 162.500304 213.027081 164.34 209.048119 164.34 204.899812 
C 164.34 200.751506 162.500304 196.772544 159.226084 193.839248 
C 155.951865 190.905952 151.510446 189.257812 146.88 189.257812 
C 142.249554 189.257812 137.808135 190.905952 134.533916 193.839248 
C 131.259696 196.772544 129.42 200.751506 129.42 204.899812 
C 129.42 209.048119 131.259696 213.027081 134.533916 215.960377 
C 137.808135 218.893673 142.249554 220.541812 146.88 220.541812 
z
" clip-path="url(#pc36f4f4a7a)" style="fill: #95a5a6; opacity: 0.9; stroke: #95a5a6; stroke-width: 1.5; stroke-linejoin: miter"/>
   </g>
   <g id="patch_4">
    <path d="M 146.88 142.331812 
C 151.510446 142.331812 155.951865 140.683673 159.226084 137.750377 
C 162.500304 134.817081 164.34 130.838119 164.34 126.689812 
C 164.34 122.541506 162.500304 118.562544 159.226084 115.629248 
C 155.951865 112.695952 151.510446 111.047812 146.88 111.047812 
C 142.249554 111.047812 137.808135 112.695952 134.533916 115.629248 
C 131.259696 118.562544 129.42 122.541506 129.42 126.689812 
C 129.42 130.838119 131.259696 134.817081 134.533916 137.750377 
C 137.808135 140.683673 142.249554 142.331812 146.88 142.331812 
z
" clip-path="url(#pc36f4f4a7a)" style="fill: #3498db; opacity: 0.9; stroke: #3498db; stroke-width: 1.5; stroke-linejoin: miter"/>
   </g>
   <g id="patch_5">
    <path d="M 230.688 220.541812 
C 235.318446 220.541812 239.759865 218.893673 243.034084 215.960377 
C 246.308304 213.027081 248.148 209.048119 248.148 204.899812 
C 248.148 200.751506 246.308304 196.772544 243.034084 193.839248 
C 239.759865 190.905952 235.318446 189.257812 230.688 189.257812 
C 226.057554 189.257812 221.616135 190.905952 218.341916 193.839248 
C 215.067696 196.772544 213.228 200.751506 213.228 204.899812 
C 213.228 209.048119 215.067696 213.027081 218.341916 215.960377 
C 221.616135 218.893673 226.057554 220.541812 230.688 220.541812 
z
" clip-path="url(#pc36f4f4a7a)" style="fill: #3498db; opacity: 0.9; stroke: #3498db; stroke-width: 1.5; stroke-linejoin: miter"/>
   </g>
   <g id="patch_6">
    <path d="M 293.544 214.285012 
C 296.322268 214.285012 298.987119 213.296129 300.951651 211.536151 
C 302.916183 209.776174 304.02 207.388797 304.02 204.899812 
C 304.02 202.410828 302.916183 200.023451 300.951651 198.263474 
C 298.987119 196.503496 296.322268 195.514612 293.544 195.514612 
C 290.765732 195.514612 288.100881 196.503496 286.136349 198.263474 
C 284.171817 200.023451 283.068 202.410828 283.068 204.899812 
C 283.068 207.388797 284.171817 209.776174 286.136349 211.536151 
C 288.100881 213.296129 290.765732 214.285012 293.544 214.285012 
z
" clip-path="url(#pc36f4f4a7a)" style="fill: #e74c3c; opacity: 0.9; stroke: #e74c3c; stroke-width: 1.5; stroke-linejoin: miter"/>
   </g>
   <g id="patch_7">
    <path d="M 440.208 236.183812 
L 496.08 236.183812 
Q 499.572 236.183812 499.572 233.055412 
L 499.572 176.744212 
Q 499.572 173.615812 496.08 173.615812 
L 440.208 173.615812 
Q 436.716 173.615812 436.716 176.744212 
L 436.716 233.055412 
Q 436.716 236.183812 440.208 236.183812 
z
" clip-path="url(#pc36f4f4a7a)" style="fill: #95a5a6; opacity: 0.5; stroke: #000000; stroke-linejoin: miter"/>
   </g>
   <g id="patch_8">
    <path d="M 544.968 220.541812 
C 549.598446 220.541812 554.039865 218.893673 557.314084 215.960377 
C 560.588304 213.027081 562.428 209.048119 562.428 204.899812 
C 562.428 200.751506 560.588304 196.772544 557.314084 193.839248 
C 554.039865 190.905952 549.598446 189.257812 544.968 189.257812 
C 540.337554 189.257812 535.896135 190.905952 532.621916 193.839248 
C 529.347696 196.772544 527.508 200.751506 527.508 204.899812 
C 527.508 209.048119 529.347696 213.027081 532.621916 215.960377 
C 535.896135 218.893673 540.337554 220.541812 544.968 220.541812 
z
" clip-path="url(#pc36f4f4a7a)" style="fill: #95a5a6; opacity: 0.9; stroke: #95a5a6; stroke-width: 1.5; stroke-linejoin: miter"/>
   </g>
   <g id="patch_9">
    <path d="M 544.968 142.331812 
C 549.598446 142.331812 554.039865 140.683673 557.314084 137.750377 
C 560.588304 134.817081 562.428 130.838119 562.428 126.689812 
C 562.428 122.541506 560.588304 118.562544 557.314084 115.629248 
C 554.039865 112.695952 549.598446 111.047812 544.968 111.047812 
C 540.337554 111.047812 535.896135 112.695952 532.621916 115.629248 
C 529.347696 118.562544 527.508 122.541506 527.508 126.689812 
C 527.508 130.838119 529.347696 134.817081 532.621916 137.750377 
C 535.896135 140.683673 540.337554 142.331812 544.968 142.331812 
z
" clip-path="url(#pc36f4f4a7a)" style="fill: #3498db; opacity: 0.9; stroke: #3498db; stroke-width: 1.5; stroke-linejoin: miter"/>
   </g>
   <g id="patch_10">
    <path d="M 628.776 220.541812 
C 633.406446 220.541812 637.847865 218.893673 641.122084 215.960377 
C 644.396304 213.027081 646.236 209.048119 646.236 204.899812 
C 646.236 200.751506 644.396304 196.772544 641.122084 193.839248 
C 637.847865 190.905952 633.406446 189.257812 628.776 189.257812 
C 624.145554 189.257812 619.704135 190.905952 616.429916 193.839248 
C 613.155696 196.772544 611.316 200.751506 611.316 204.899812 
C 611.316 209.048119 613.155696 213.027081 616.429916 215.960377 
C 619.704135 218.893673 624.145554 220.541812 628.776 220.541812 
z
" clip-path="url(#pc36f4f4a7a)" style="fill: #3498db; opacity: 0.9; stroke: #3498db; stroke-width: 1.5; stroke-linejoin: miter"/>
   </g>
   <g id="line2d_1">
    <path d="M 97.992 204.899812 
L 129.42 204.899812 
" clip-path="url(#pc36f4f4a7a)" style="fill: none; stroke: #2ecc71; stroke-width: 2.5; stroke-linecap: square"/>
   </g>
   <g id="line2d_2">
    <path d="M 146.88 189.257812 
L 146.88 142.331812 
" clip-path="url(#pc36f4f4a7a)" style="fill: none; stroke: #2ecc71; stroke-width: 2.5; stroke-linecap: square"/>
   </g>
   <g id="line2d_3">
    <path d="M 153.864 189.257812 
L 153.864 142.331812 
" clip-path="url(#pc36f4f4a7a)" style="fill: none; stroke: #2ecc71; stroke-width: 2.5; stroke-linecap: square"/>
   </g>
   <g id="line2d_4">
    <path d="M 164.34 204.899812 
L 213.228 204.899812 
" clip-path="url(#pc36f4f4a7a)" style="fill: none; stroke: #2ecc71; stroke-width: 2.5; stroke-linecap: square"/>
   </g>
   <g id="line2d_5">
    <path d="M 248.148 204.899812 
L 283.068 204.899812 
" clip-path="url(#pc36f4f4a7a)" style="fill: none; stroke: #2ecc71; stroke-width: 1.5; stroke-linecap: square"/>
   </g>
   <g id="line2d_6">
    <path d="M 496.08 204.899812 
L 527.508 204.899812 
" clip-path="url(#pc36f4f4a7a)" style="fill: none; stroke: #2ecc71; stroke-width: 2.5; stroke-linecap: square"/>
   </g>
   <g id="line2d_7">
    <path d="M 544.968 189.257812 
L 544.968 142.331812 
" clip-path="url(#pc36f4f4a7a)" style="fill: none; stroke: #2ecc71; stroke-width: 2.5; stroke-linecap: square"/>
   </g>
   <g id="line2d_8">
    <path d="M 562.428 204.899812 
L 611.316 204.899812 
" clip-path="url(#pc36f4f4a7a)" style="fill: none; stroke: #2ecc71; stroke-width: 2.5; stroke-linecap: square"/>
   </g>
   <g id="text_1">
    <!-- R -->
    <g style="fill: #ffffff" transform="translate(65.886938 208.211062) scale(0.12 -0.12)">
     <defs>
      <path id="DejaVuSans-52" d="M 2841 2188 
Q 3044 2119 3236 1894 
Q 3428 1669 3622 1275 
L 4263 0 
L 3584 0 
L 2988 1197 
Q 2756 1666 2539 1819 
Q 2322 1972 1947 1972 
L 1259 1972 
L 1259 0 
L 628 0 
L 628 4666 
L 2053 4666 
Q 2853 4666 3247 4331 
Q 3641 3997 3641 3322 
Q 3641 2881 3436 2590 
Q 3231 2300 2841 2188 
z
M 1259 4147 
L 1259 2491 
L 2053 2491 
Q 2509 2491 2742 2702 
Q 2975 2913 2975 3322 
Q 2975 3731 2742 3939 
Q 2509 4147 2053 4147 
L 1259 4147 
z
" transform="scale(0.015625)"/>
     </defs>
     <use xlink:href="#DejaVuSans-52"/>
    </g>
   </g>
   <g id="text_2">
    <!-- C -->
    <g style="fill: #ffffff" transform="translate(143.388594 207.659187) scale(0.1 -0.1)">
     <defs>
      <path id="DejaVuSans-43" d="M 4122 4306 
L 4122 3641 
Q 3803 3938 3442 4084 
Q 3081 4231 2675 4231 
Q 1875 4231 1450 3742 
Q 1025 3253 1025 2328 
Q 1025 1406 1450 917 
Q 1875 428 2675 428 
Q 3081 428 3442 575 
Q 3803 722 4122 1019 
L 4122 359 
Q 3791 134 3420 21 
Q 3050 -91 2638 -91 
Q 1578 -91 968 557 
Q 359 1206 359 2328 
Q 359 3453 968 4101 
Q 1578 4750 2638 4750 
Q 3056 4750 3426 4639 
Q 3797 4528 4122 4306 
z
" transform="scale(0.015625)"/>
     </defs>
     <use xlink:href="#DejaVuSans-43"/>
    </g>
   </g>
   <g id="text_3">
    <!-- O -->
    <g style="fill: #ffffff" transform="translate(142.944063 129.449187) scale(0.1 -0.1)">
     <defs>
      <path id="DejaVuSans-4f" d="M 2522 4238 
Q 1834 4238 1429 3725 
Q 1025 3213 1025 2328 
Q 1025 1447 1429 934 
Q 1834 422 2522 422 
Q 3209 422 3611 934 
Q 4013 1447 4013 2328 
Q 4013 3213 3611 3725 
Q 3209 4238 2522 4238 
z
M 2522 4750 
Q 3503 4750 4090 4092 
Q 4678 3434 4678 2328 
Q 4678 1225 4090 567 
Q 3503 -91 2522 -91 
Q 1538 -91 948 565 
Q 359 1222 359 2328 
Q 359 3434 948 4092 
Q 1538 4750 2522 4750 
z
" transform="scale(0.015625)"/>
     </defs>
     <use xlink:href="#DejaVuSans-4f"/>
    </g>
   </g>
   <g id="text_4">
    <!-- O -->
    <g style="fill: #ffffff" transform="translate(226.752063 207.659187) scale(0.1 -0.1)">
     <use xlink:href="#DejaVuSans-4f"/>
    </g>
   </g>
   <g id="text_5">
    <!-- H -->
    <g style="fill: #ffffff" transform="translate(290.535875 207.107312) scale(0.08 -0.08)">
     <defs>
      <path id="DejaVuSans-48" d="M 628 4666 
L 1259 4666 
L 1259 2753 
L 3553 2753 
L 3553 4666 
L 4184 4666 
L 4184 0 
L 3553 0 
L 3553 2222 
L 1259 2222 
L 1259 0 
L 628 0 
L 628 4666 
z
" transform="scale(0.015625)"/>
     </defs>
     <use xlink:href="#DejaVuSans-48"/>
    </g>
   </g>
   <g id="patch_11">
    <path d="M 344.431204 204.899812 
Q 377.351629 204.899812 408.035987 204.899812 
" style="fill: none; stroke: #f39c12; stroke-width: 2; stroke-linecap: round"/>
    <path d="M 404.035987 202.899812 
L 408.035987 204.899812 
L 404.035987 206.899812 
" style="fill: none; stroke: #f39c12; stroke-width: 2; stroke-linecap: round"/>
   </g>
   <g id="text_6">
    <!-- R -->
    <g style="fill: #ffffff" transform="translate(463.974938 208.211062) scale(0.12 -0.12)">
     <use xlink:href="#DejaVuSans-52"/>
    </g>
   </g>
   <g id="text_7">
    <!-- C -->
    <g style="fill: #ffffff" transform="translate(541.476594 207.659187) scale(0.1 -0.1)">
     <use xlink:href="#DejaVuSans-43"/>
    </g>
   </g>
   <g id="text_8">
    <!-- O -->
    <g style="fill: #ffffff" transform="translate(541.032063 129.449187) scale(0.1 -0.1)">
     <use xlink:href="#DejaVuSans-4f"/>
    </g>
   </g>
   <g id="text_9">
    <!-- O⁻ -->
    <g style="fill: #ffffff" transform="translate(622.8585 207.38325) scale(0.09 -0.09)">
     <defs>
      <path id="DejaVuSans-207b" d="M 428 3359 
L 2950 3359 
L 2950 3063 
L 428 3063 
L 428 3359 
z
" transform="scale(0.015625)"/>
     </defs>
     <use xlink:href="#DejaVuSans-4f"/>
     <use xlink:href="#DejaVuSans-207b" transform="translate(78.710938 0)"/>
    </g>
   </g>
   <g id="text_10">
    <!-- H⁺ -->
    <g style="fill: #e74c3c" transform="translate(661.721094 145.460212) scale(0.14 -0.14)">
     <defs>
      <path id="DejaVuSans-207a" d="M 1853 4334 
L 1853 3359 
L 2950 3359 
L 2950 3063 
L 1853 3063 
L 1853 2088 
L 1525 2088 
L 1525 3063 
L 428 3063 
L 428 3359 
L 1525 3359 
L 1525 4334 
L 1853 4334 
z
" transform="scale(0.015625)"/>
     </defs>
     <use xlink:href="#DejaVuSans-48"/>
     <use xlink:href="#DejaVuSans-207a" transform="translate(75.195312 0)"/>
    </g>
   </g>
   <g id="text_11">
    <!-- + -->
    <g style="fill: #2c3e50" transform="translate(665.652188 176.744212) scale(0.12 -0.12)">
     <defs>
      <path id="DejaVuSans-2b" d="M 2944 4013 
L 2944 2272 
L 4684 2272 
L 4684 1741 
L 2944 1741 
L 2944 0 
L 2419 0 
L 2419 1741 
L 678 1741 
L 678 2272 
L 2419 2272 
L 2419 4013 
L 2944 4013 
z
" transform="scale(0.015625)"/>
     </defs>
     <use xlink:href="#DejaVuSans-2b"/>
    </g>
   </g>
   <g id="text_12">
    <!-- Carboxylic acid ionization: R-COOH → R-COO⁻ + H⁺ -->
    <g transform="translate(228.748438 295.623412) scale(0.1 -0.1)">
     <defs>
      <path id="DejaVuSans-61" d="M 2194 1759 
Q 1497 1759 1228 1600 
Q 959 1441 959 1056 
Q 959 750 1161 570 
Q 1363 391 1709 391 
Q 2188 391 2477 730 
Q 2766 1069 2766 1631 
L 2766 1759 
L 2194 1759 
z
M 3341 1997 
L 3341 0 
L 2766 0 
L 2766 531 
Q 2569 213 2275 61 
Q 1981 -91 1556 -91 
Q 1019 -91 701 211 
Q 384 513 384 1019 
Q 384 1609 779 1909 
Q 1175 2209 1959 2209 
L 2766 2209 
L 2766 2266 
Q 2766 2663 2505 2880 
Q 2244 3097 1772 3097 
Q 1472 3097 1187 3025 
Q 903 2953 641 2809 
L 641 3341 
Q 956 3463 1253 3523 
Q 1550 3584 1831 3584 
Q 2591 3584 2966 3190 
Q 3341 2797 3341 1997 
z
" transform="scale(0.015625)"/>
      <path id="DejaVuSans-72" d="M 2631 2963 
Q 2534 3019 2420 3045 
Q 2306 3072 2169 3072 
Q 1681 3072 1420 2755 
Q 1159 2438 1159 1844 
L 1159 0 
L 581 0 
L 581 3500 
L 1159 3500 
L 1159 2956 
Q 1341 3275 1631 3429 
Q 1922 3584 2338 3584 
Q 2397 3584 2469 3576 
Q 2541 3569 2628 3553 
L 2631 2963 
z
" transform="scale(0.015625)"/>
      <path id="DejaVuSans-62" d="M 3116 1747 
Q 3116 2381 2855 2742 
Q 2594 3103 2138 3103 
Q 1681 3103 1420 2742 
Q 1159 2381 1159 1747 
Q 1159 1113 1420 752 
Q 1681 391 2138 391 
Q 2594 391 2855 752 
Q 3116 1113 3116 1747 
z
M 1159 2969 
Q 1341 3281 1617 3432 
Q 1894 3584 2278 3584 
Q 2916 3584 3314 3078 
Q 3713 2572 3713 1747 
Q 3713 922 3314 415 
Q 2916 -91 2278 -91 
Q 1894 -91 1617 61 
Q 1341 213 1159 525 
L 1159 0 
L 581 0 
L 581 4863 
L 1159 4863 
L 1159 2969 
z
" transform="scale(0.015625)"/>
      <path id="DejaVuSans-6f" d="M 1959 3097 
Q 1497 3097 1228 2736 
Q 959 2375 959 1747 
Q 959 1119 1226 758 
Q 1494 397 1959 397 
Q 2419 397 2687 759 
Q 2956 1122 2956 1747 
Q 2956 2369 2687 2733 
Q 2419 3097 1959 3097 
z
M 1959 3584 
Q 2709 3584 3137 3096 
Q 3566 2609 3566 1747 
Q 3566 888 3137 398 
Q 2709 -91 1959 -91 
Q 1206 -91 779 398 
Q 353 888 353 1747 
Q 353 2609 779 3096 
Q 1206 3584 1959 3584 
z
" transform="scale(0.015625)"/>
      <path id="DejaVuSans-78" d="M 3513 3500 
L 2247 1797 
L 3578 0 
L 2900 0 
L 1881 1375 
L 863 0 
L 184 0 
L 1544 1831 
L 300 3500 
L 978 3500 
L 1906 2253 
L 2834 3500 
L 3513 3500 
z
" transform="scale(0.015625)"/>
      <path id="DejaVuSans-79" d="M 2059 -325 
Q 1816 -950 1584 -1140 
Q 1353 -1331 966 -1331 
L 506 -1331 
L 506 -850 
L 844 -850 
Q 1081 -850 1212 -737 
Q 1344 -625 1503 -206 
L 1606 56 
L 191 3500 
L 800 3500 
L 1894 763 
L 2988 3500 
L 3597 3500 
L 2059 -325 
z
" transform="scale(0.015625)"/>
      <path id="DejaVuSans-6c" d="M 603 4863 
L 1178 4863 
L 1178 0 
L 603 0 
L 603 4863 
z
" transform="scale(0.015625)"/>
      <path id="DejaVuSans-69" d="M 603 3500 
L 1178 3500 
L 1178 0 
L 603 0 
L 603 3500 
z
M 603 4863 
L 1178 4863 
L 1178 4134 
L 603 4134 
L 603 4863 
z
" transform="scale(0.015625)"/>
      <path id="DejaVuSans-63" d="M 3122 3366 
L 3122 2828 
Q 2878 2963 2633 3030 
Q 2388 3097 2138 3097 
Q 1578 3097 1268 2742 
Q 959 2388 959 1747 
Q 959 1106 1268 751 
Q 1578 397 2138 397 
Q 2388 397 2633 464 
Q 2878 531 3122 666 
L 3122 134 
Q 2881 22 2623 -34 
Q 2366 -91 2075 -91 
Q 1284 -91 818 406 
Q 353 903 353 1747 
Q 353 2603 823 3093 
Q 1294 3584 2113 3584 
Q 2378 3584 2631 3529 
Q 2884 3475 3122 3366 
z
" transform="scale(0.015625)"/>
      <path id="DejaVuSans-20" transform="scale(0.015625)"/>
      <path id="DejaVuSans-64" d="M 2906 2969 
L 2906 4863 
L 3481 4863 
L 3481 0 
L 2906 0 
L 2906 525 
Q 2725 213 2448 61 
Q 2172 -91 1784 -91 
Q 1150 -91 751 415 
Q 353 922 353 1747 
Q 353 2572 751 3078 
Q 1150 3584 1784 3584 
Q 2172 3584 2448 3432 
Q 2725 3281 2906 2969 
z
M 947 1747 
Q 947 1113 1208 752 
Q 1469 391 1925 391 
Q 2381 391 2643 752 
Q 2906 1113 2906 1747 
Q 2906 2381 2643 2742 
Q 2381 3103 1925 3103 
Q 1469 3103 1208 2742 
Q 947 2381 947 1747 
z
" transform="scale(0.015625)"/>
      <path id="DejaVuSans-6e" d="M 3513 2113 
L 3513 0 
L 2938 0 
L 2938 2094 
Q 2938 2591 2744 2837 
Q 2550 3084 2163 3084 
Q 1697 3084 1428 2787 
Q 1159 2491 1159 1978 
L 1159 0 
L 581 0 
L 581 3500 
L 1159 3500 
L 1159 2956 
Q 1366 3272 1645 3428 
Q 1925 3584 2291 3584 
Q 2894 3584 3203 3211 
Q 3513 2838 3513 2113 
z
" transform="scale(0.015625)"/>
      <path id="DejaVuSans-7a" d="M 353 3500 
L 3084 3500 
L 3084 2975 
L 922 459 
L 3084 459 
L 3084 0 
L 275 0 
L 275 525 
L 2438 3041 
L 353 3041 
L 353 3500 
z
" transform="scale(0.015625)"/>
      <path id="DejaVuSans-74" d="M 1172 4494 
L 1172 3500 
L 2356 3500 
L 2356 3053 
L 1172 3053 
L 1172 1153 
Q 1172 725 1289 603 
Q 1406 481 1766 481 
L 2356 481 
L 2356 0 
L 1766 0 
Q 1100 0 847 248 
Q 594 497 594 1153 
L 594 3053 
L 172 3053 
L 172 3500 
L 594 3500 
L 594 4494 
L 1172 4494 
z
" transform="scale(0.015625)"/>
      <path id="DejaVuSans-3a" d="M 750 794 
L 1409 794 
L 1409 0 
L 750 0 
L 750 794 
z
M 750 3309 
L 1409 3309 
L 1409 2516 
L 750 2516 
L 750 3309 
z
" transform="scale(0.015625)"/>
      <path id="DejaVuSans-2d" d="M 313 2009 
L 1997 2009 
L 1997 1497 
L 313 1497 
L 313 2009 
z
" transform="scale(0.015625)"/>
      <path id="DejaVuSans-2192" d="M 5050 2147 
L 5050 1866 
L 3822 638 
L 3447 1013 
L 4175 1741 
L 366 1741 
L 366 2272 
L 4175 2272 
L 3447 3000 
L 3822 3375 
L 5050 2147 
z
" transform="scale(0.015625)"/>
     </defs>
     <use xlink:href="#DejaVuSans-43"/>
     <use xlink:href="#DejaVuSans-61" transform="translate(69.824219 0)"/>
     <use xlink:href="#DejaVuSans-72" transform="translate(131.103516 0)"/>
     <use xlink:href="#DejaVuSans-62" transform="translate(172.216797 0)"/>
     <use xlink:href="#DejaVuSans-6f" transform="translate(235.693359 0)"/>
     <use xlink:href="#DejaVuSans-78" transform="translate(293.75 0)"/>
     <use xlink:href="#DejaVuSans-79" transform="translate(352.929688 0)"/>
     <use xlink:href="#DejaVuSans-6c" transform="translate(412.109375 0)"/>
     <use xlink:href="#DejaVuSans-69" transform="translate(439.892578 0)"/>
     <use xlink:href="#DejaVuSans-63" transform="translate(467.675781 0)"/>
     <use xlink:href="#DejaVuSans-20" transform="translate(522.65625 0)"/>
     <use xlink:href="#DejaVuSans-61" transform="translate(554.443359 0)"/>
     <use xlink:href="#DejaVuSans-63" transform="translate(615.722656 0)"/>
     <use xlink:href="#DejaVuSans-69" transform="translate(670.703125 0)"/>
     <use xlink:href="#DejaVuSans-64" transform="translate(698.486328 0)"/>
     <use xlink:href="#DejaVuSans-20" transform="translate(761.962891 0)"/>
     <use xlink:href="#DejaVuSans-69" transform="translate(793.75 0)"/>
     <use xlink:href="#DejaVuSans-6f" transform="translate(821.533203 0)"/>
     <use xlink:href="#DejaVuSans-6e" transform="translate(882.714844 0)"/>
     <use xlink:href="#DejaVuSans-69" transform="translate(946.09375 0)"/>
     <use xlink:href="#DejaVuSans-7a" transform="translate(973.876953 0)"/>
     <use xlink:href="#DejaVuSans-61" transform="translate(1026.367188 0)"/>
     <use xlink:href="#DejaVuSans-74" transform="translate(1087.646484 0)"/>
     <use xlink:href="#DejaVuSans-69" transform="translate(1126.855469 0)"/>
     <use xlink:href="#DejaVuSans-6f" transform="translate(1154.638672 0)"/>
     <use xlink:href="#DejaVuSans-6e" transform="translate(1215.820312 0)"/>
     <use xlink:href="#DejaVuSans-3a" transform="translate(1279.199219 0)"/>
     <use xlink:href="#DejaVuSans-20" transform="translate(1312.890625 0)"/>
     <use xlink:href="#DejaVuSans-52" transform="translate(1344.677734 0)"/>
     <use xlink:href="#DejaVuSans-2d" transform="translate(1410.160156 0)"/>
     <use xlink:href="#DejaVuSans-43" transform="translate(1446.244141 0)"/>
     <use xlink:href="#DejaVuSans-4f" transform="translate(1516.068359 0)"/>
     <use xlink:href="#DejaVuSans-4f" transform="translate(1594.779297 0)"/>
     <use xlink:href="#DejaVuSans-48" transform="translate(1673.490234 0)"/>
     <use xlink:href="#DejaVuSans-20" transform="translate(1748.685547 0)"/>
     <use xlink:href="#DejaVuSans-2192" transform="translate(1780.472656 0)"/>
     <use xlink:href="#DejaVuSans-20" transform="translate(1864.261719 0)"/>
     <use xlink:href="#DejaVuSans-52" transform="translate(1896.048828 0)"/>
     <use xlink:href="#DejaVuSans-2d" transform="translate(1961.53125 0)"/>
     <use xlink:href="#DejaVuSans-43" transform="translate(1997.615234 0)"/>
     <use xlink:href="#DejaVuSans-4f" transform="translate(2067.439453 0)"/>
     <use xlink:href="#DejaVuSans-4f" transform="translate(2146.150391 0)"/>
     <use xlink:href="#DejaVuSans-207b" transform="translate(2224.861328 0)"/>
     <use xlink:href="#DejaVuSans-20" transform="translate(2277.644531 0)"/>
     <use xlink:href="#DejaVuSans-2b" transform="translate(2309.431641 0)"/>
     <use xlink:href="#DejaVuSans-20" transform="translate(2393.220703 0)"/>
     <use xlink:href="#DejaVuSans-48" transform="translate(2425.007812 0)"/>
     <use xlink:href="#DejaVuSans-207a" transform="translate(2500.203125 0)"/>
    </g>
   </g>
   <g id="text_13">
    <!-- Carboxylic Acid (Acid Functional Group) -->
    <g transform="translate(218.331562 17.837812) scale(0.14 -0.14)">
     <defs>
      <path id="DejaVuSans-41" d="M 2188 4044 
L 1331 1722 
L 3047 1722 
L 2188 4044 
z
M 1831 4666 
L 2547 4666 
L 4325 0 
L 3669 0 
L 3244 1197 
L 1141 1197 
L 716 0 
L 50 0 
L 1831 4666 
z
" transform="scale(0.015625)"/>
      <path id="DejaVuSans-28" d="M 1984 4856 
Q 1566 4138 1362 3434 
Q 1159 2731 1159 2009 
Q 1159 1288 1364 580 
Q 1569 -128 1984 -844 
L 1484 -844 
Q 1016 -109 783 600 
Q 550 1309 550 2009 
Q 550 2706 781 3412 
Q 1013 4119 1484 4856 
L 1984 4856 
z
" transform="scale(0.015625)"/>
      <path id="DejaVuSans-46" d="M 628 4666 
L 3309 4666 
L 3309 4134 
L 1259 4134 
L 1259 2759 
L 3109 2759 
L 3109 2228 
L 1259 2228 
L 1259 0 
L 628 0 
L 628 4666 
z
" transform="scale(0.015625)"/>
      <path id="DejaVuSans-75" d="M 544 1381 
L 544 3500 
L 1119 3500 
L 1119 1403 
Q 1119 906 1312 657 
Q 1506 409 1894 409 
Q 2359 409 2629 706 
Q 2900 1003 2900 1516 
L 2900 3500 
L 3475 3500 
L 3475 0 
L 2900 0 
L 2900 538 
Q 2691 219 2414 64 
Q 2138 -91 1772 -91 
Q 1169 -91 856 284 
Q 544 659 544 1381 
z
M 1991 3584 
L 1991 3584 
z
" transform="scale(0.015625)"/>
      <path id="DejaVuSans-47" d="M 3809 666 
L 3809 1919 
L 2778 1919 
L 2778 2438 
L 4434 2438 
L 4434 434 
Q 4069 175 3628 42 
Q 3188 -91 2688 -91 
Q 1594 -91 976 548 
Q 359 1188 359 2328 
Q 359 3472 976 4111 
Q 1594 4750 2688 4750 
Q 3144 4750 3555 4637 
Q 3966 4525 4313 4306 
L 4313 3634 
Q 3963 3931 3569 4081 
Q 3175 4231 2741 4231 
Q 1884 4231 1454 3753 
Q 1025 3275 1025 2328 
Q 1025 1384 1454 906 
Q 1884 428 2741 428 
Q 3075 428 3337 486 
Q 3600 544 3809 666 
z
" transform="scale(0.015625)"/>
      <path id="DejaVuSans-70" d="M 1159 525 
L 1159 -1331 
L 581 -1331 
L 581 3500 
L 1159 3500 
L 1159 2969 
Q 1341 3281 1617 3432 
Q 1894 3584 2278 3584 
Q 2916 3584 3314 3078 
Q 3713 2572 3713 1747 
Q 3713 922 3314 415 
Q 2916 -91 2278 -91 
Q 1894 -91 1617 61 
Q 1341 213 1159 525 
z
M 3116 1747 
Q 3116 2381 2855 2742 
Q 2594 3103 2138 3103 
Q 1681 3103 1420 2742 
Q 1159 2381 1159 1747 
Q 1159 1113 1420 752 
Q 1681 391 2138 391 
Q 2594 391 2855 752 
Q 3116 1113 3116 1747 
z
" transform="scale(0.015625)"/>
      <path id="DejaVuSans-29" d="M 513 4856 
L 1013 4856 
Q 1481 4119 1714 3412 
Q 1947 2706 1947 2009 
Q 1947 1309 1714 600 
Q 1481 -109 1013 -844 
L 513 -844 
Q 928 -128 1133 580 
Q 1338 1288 1338 2009 
Q 1338 2731 1133 3434 
Q 928 4138 513 4856 
z
" transform="scale(0.015625)"/>
     </defs>
     <use xlink:href="#DejaVuSans-43"/>
     <use xlink:href="#DejaVuSans-61" transform="translate(69.824219 0)"/>
     <use xlink:href="#DejaVuSans-72" transform="translate(131.103516 0)"/>
     <use xlink:href="#DejaVuSans-62" transform="translate(172.216797 0)"/>
     <use xlink:href="#DejaVuSans-6f" transform="translate(235.693359 0)"/>
     <use xlink:href="#DejaVuSans-78" transform="translate(293.75 0)"/>
     <use xlink:href="#DejaVuSans-79" transform="translate(352.929688 0)"/>
     <use xlink:href="#DejaVuSans-6c" transform="translate(412.109375 0)"/>
     <use xlink:href="#DejaVuSans-69" transform="translate(439.892578 0)"/>
     <use xlink:href="#DejaVuSans-63" transform="translate(467.675781 0)"/>
     <use xlink:href="#DejaVuSans-20" transform="translate(522.65625 0)"/>
     <use xlink:href="#DejaVuSans-41" transform="translate(554.443359 0)"/>
     <use xlink:href="#DejaVuSans-63" transform="translate(621.101562 0)"/>
     <use xlink:href="#DejaVuSans-69" transform="translate(676.082031 0)"/>
     <use xlink:href="#DejaVuSans-64" transform="translate(703.865234 0)"/>
     <use xlink:href="#DejaVuSans-20" transform="translate(767.341797 0)"/>
     <use xlink:href="#DejaVuSans-28" transform="translate(799.128906 0)"/>
     <use xlink:href="#DejaVuSans-41" transform="translate(838.142578 0)"/>
     <use xlink:href="#DejaVuSans-63" transform="translate(904.800781 0)"/>
     <use xlink:href="#DejaVuSans-69" transform="translate(959.78125 0)"/>
     <use xlink:href="#DejaVuSans-64" transform="translate(987.564453 0)"/>
     <use xlink:href="#DejaVuSans-20" transform="translate(1051.041016 0)"/>
     <use xlink:href="#DejaVuSans-46" transform="translate(1082.828125 0)"/>
     <use xlink:href="#DejaVuSans-75" transform="translate(1134.847656 0)"/>
     <use xlink:href="#DejaVuSans-6e" transform="translate(1198.226562 0)"/>
     <use xlink:href="#DejaVuSans-63" transform="translate(1261.605469 0)"/>
     <use xlink:href="#DejaVuSans-74" transform="translate(1316.585938 0)"/>
     <use xlink:href="#DejaVuSans-69" transform="translate(1355.794922 0)"/>
     <use xlink:href="#DejaVuSans-6f" transform="translate(1383.578125 0)"/>
     <use xlink:href="#DejaVuSans-6e" transform="translate(1444.759766 0)"/>
     <use xlink:href="#DejaVuSans-61" transform="translate(1508.138672 0)"/>
     <use xlink:href="#DejaVuSans-6c" transform="translate(1569.417969 0)"/>
     <use xlink:href="#DejaVuSans-20" transform="translate(1597.201172 0)"/>
     <use xlink:href="#DejaVuSans-47" transform="translate(1628.988281 0)"/>
     <use xlink:href="#DejaVuSans-72" transform="translate(1706.478516 0)"/>
     <use xlink:href="#DejaVuSans-6f" transform="translate(1745.341797 0)"/>
     <use xlink:href="#DejaVuSans-75" transform="translate(1806.523438 0)"/>
     <use xlink:href="#DejaVuSans-70" transform="translate(1869.902344 0)"/>
     <use xlink:href="#DejaVuSans-29" transform="translate(1933.378906 0)"/>
    </g>
   </g>
  </g>
 </g>
 <defs>
  <clipPath id="pc36f4f4a7a">
   <rect x="7.2" y="32.837812" width="698.4" height="312.84"/>
  </clipPath>
 </defs>
</svg>
