<?xml version="1.0" encoding="utf-8" standalone="no"?>
<!DOCTYPE svg PUBLIC "-//W3C//DTD SVG 1.1//EN"
  "http://www.w3.org/Graphics/SVG/1.1/DTD/svg11.dtd">
<svg xmlns:xlink="http://www.w3.org/1999/xlink" width="568.8pt" height="426.3439pt" viewBox="0 0 568.8 426.3439" xmlns="http://www.w3.org/2000/svg" version="1.1">
 <metadata>
  <rdf:RDF xmlns:dc="http://purl.org/dc/elements/1.1/" xmlns:cc="http://creativecommons.org/ns#" xmlns:rdf="http://www.w3.org/1999/02/22-rdf-syntax-ns#">
   <cc:Work>
    <dc:type rdf:resource="http://purl.org/dc/dcmitype/StillImage"/>
    <dc:date>2026-01-02T18:08:08.821424</dc:date>
    <dc:format>image/svg+xml</dc:format>
    <dc:creator>
     <cc:Agent>
      <dc:title>Matplotlib v3.10.8, https://matplotlib.org/</dc:title>
     </cc:Agent>
    </dc:creator>
   </cc:Work>
  </rdf:RDF>
 </metadata>
 <defs>
  <style type="text/css">*{stroke-linejoin: round; stroke-linecap: butt}</style>
 </defs>
 <g id="figure_1">
  <g id="patch_1">
   <path d="M 0 426.3439 
L 568.8 426.3439 
L 568.8 0 
L 0 0 
z
" style="fill: #ffffff"/>
  </g>
  <g id="axes_1">
   <g id="patch_2">
    <path d="M 111.15 364.388012 
C 117.582501 364.388012 123.75241 362.102596 128.300875 358.0351 
C 132.84934 353.967604 135.405 348.450121 135.405 342.697812 
C 135.405 336.945504 132.84934 331.428021 128.300875 327.360525 
C 123.75241 323.293029 117.582501 321.007612 111.15 321.007612 
C 104.717499 321.007612 98.54759 323.293029 93.999125 327.360525 
C 89.45066 331.428021 86.895 336.945504 86.895 342.697812 
C 86.895 348.450121 89.45066 353.967604 93.999125 358.0351 
C 98.54759 362.102596 104.717499 364.388012 111.15 364.388012 
z
" clip-path="url(#pf47aa47605)" style="fill: #e74c3c; opacity: 0.8; stroke: #e74c3c; stroke-width: 1.5; stroke-linejoin: miter"/>
   </g>
   <g id="patch_3">
    <path d="M 111.15 290.021612 
C 117.582501 290.021612 123.75241 287.736196 128.300875 283.6687 
C 132.84934 279.601204 135.405 274.083721 135.405 268.331412 
C 135.405 262.579104 132.84934 257.061621 128.300875 252.994125 
C 123.75241 248.926629 117.582501 246.641212 111.15 246.641212 
C 104.717499 246.641212 98.54759 248.926629 93.999125 252.994125 
C 89.45066 257.061621 86.895 262.579104 86.895 268.331412 
C 86.895 274.083721 89.45066 279.601204 93.999125 283.6687 
C 98.54759 287.736196 104.717499 290.021612 111.15 290.021612 
z
" clip-path="url(#pf47aa47605)" style="fill: #e74c3c; opacity: 0.8; stroke: #e74c3c; stroke-width: 1.5; stroke-linejoin: miter"/>
   </g>
   <g id="patch_4">
    <path d="M 111.15 215.655213 
C 117.582501 215.655213 123.75241 213.369796 128.300875 209.3023 
C 132.84934 205.234804 135.405 199.717321 135.405 193.965013 
C 135.405 188.212704 132.84934 182.695221 128.300875 178.627725 
C 123.75241 174.560229 117.582501 172.274812 111.15 172.274812 
C 104.717499 172.274812 98.54759 174.560229 93.999125 178.627725 
C 89.45066 182.695221 86.895 188.212704 86.895 193.965013 
C 86.895 199.717321 89.45066 205.234804 93.999125 209.3023 
C 98.54759 213.369796 104.717499 215.655213 111.15 215.655213 
z
" clip-path="url(#pf47aa47605)" style="fill: #e74c3c; opacity: 0.8; stroke: #e74c3c; stroke-width: 1.5; stroke-linejoin: miter"/>
   </g>
   <g id="patch_5">
    <path d="M 111.15 141.288813 
C 117.582501 141.288813 123.75241 139.003396 128.300875 134.9359 
C 132.84934 130.868404 135.405 125.350921 135.405 119.598613 
C 135.405 113.846304 132.84934 108.328821 128.300875 104.261325 
C 123.75241 100.193829 117.582501 97.908412 111.15 97.908412 
C 104.717499 97.908412 98.54759 100.193829 93.999125 104.261325 
C 89.45066 108.328821 86.895 113.846304 86.895 119.598613 
C 86.895 125.350921 89.45066 130.868404 93.999125 134.9359 
C 98.54759 139.003396 104.717499 141.288813 111.15 141.288813 
z
" clip-path="url(#pf47aa47605)" style="fill: #e74c3c; opacity: 0.8; stroke: #e74c3c; stroke-width: 1.5; stroke-linejoin: miter"/>
   </g>
   <g id="patch_6">
    <path d="M 194.31 364.388012 
C 200.742501 364.388012 206.91241 362.102596 211.460875 358.0351 
C 216.00934 353.967604 218.565 348.450121 218.565 342.697812 
C 218.565 336.945504 216.00934 331.428021 211.460875 327.360525 
C 206.91241 323.293029 200.742501 321.007612 194.31 321.007612 
C 187.877499 321.007612 181.70759 323.293029 177.159125 327.360525 
C 172.61066 331.428021 170.055 336.945504 170.055 342.697812 
C 170.055 348.450121 172.61066 353.967604 177.159125 358.0351 
C 181.70759 362.102596 187.877499 364.388012 194.31 364.388012 
z
" clip-path="url(#pf47aa47605)" style="fill: #e74c3c; opacity: 0.8; stroke: #e74c3c; stroke-width: 1.5; stroke-linejoin: miter"/>
   </g>
   <g id="patch_7">
    <path d="M 194.31 290.021612 
C 200.742501 290.021612 206.91241 287.736196 211.460875 283.6687 
C 216.00934 279.601204 218.565 274.083721 218.565 268.331412 
C 218.565 262.579104 216.00934 257.061621 211.460875 252.994125 
C 206.91241 248.926629 200.742501 246.641212 194.31 246.641212 
C 187.877499 246.641212 181.70759 248.926629 177.159125 252.994125 
C 172.61066 257.061621 170.055 262.579104 170.055 268.331412 
C 170.055 274.083721 172.61066 279.601204 177.159125 283.6687 
C 181.70759 287.736196 187.877499 290.021612 194.31 290.021612 
z
" clip-path="url(#pf47aa47605)" style="fill: #e74c3c; opacity: 0.8; stroke: #e74c3c; stroke-width: 1.5; stroke-linejoin: miter"/>
   </g>
   <g id="patch_8">
    <path d="M 194.31 215.655213 
C 200.742501 215.655213 206.91241 213.369796 211.460875 209.3023 
C 216.00934 205.234804 218.565 199.717321 218.565 193.965013 
C 218.565 188.212704 216.00934 182.695221 211.460875 178.627725 
C 206.91241 174.560229 200.742501 172.274812 194.31 172.274812 
C 187.877499 172.274812 181.70759 174.560229 177.159125 178.627725 
C 172.61066 182.695221 170.055 188.212704 170.055 193.965013 
C 170.055 199.717321 172.61066 205.234804 177.159125 209.3023 
C 181.70759 213.369796 187.877499 215.655213 194.31 215.655213 
z
" clip-path="url(#pf47aa47605)" style="fill: #e74c3c; opacity: 0.8; stroke: #e74c3c; stroke-width: 1.5; stroke-linejoin: miter"/>
   </g>
   <g id="patch_9">
    <path d="M 194.31 141.288813 
C 200.742501 141.288813 206.91241 139.003396 211.460875 134.9359 
C 216.00934 130.868404 218.565 125.350921 218.565 119.598613 
C 218.565 113.846304 216.00934 108.328821 211.460875 104.261325 
C 206.91241 100.193829 200.742501 97.908412 194.31 97.908412 
C 187.877499 97.908412 181.70759 100.193829 177.159125 104.261325 
C 172.61066 108.328821 170.055 113.846304 170.055 119.598613 
C 170.055 125.350921 172.61066 130.868404 177.159125 134.9359 
C 181.70759 139.003396 187.877499 141.288813 194.31 141.288813 
z
" clip-path="url(#pf47aa47605)" style="fill: #e74c3c; opacity: 0.8; stroke: #e74c3c; stroke-width: 1.5; stroke-linejoin: miter"/>
   </g>
   <g id="patch_10">
    <path d="M 277.47 364.388012 
C 283.902501 364.388012 290.07241 362.102596 294.620875 358.0351 
C 299.16934 353.967604 301.725 348.450121 301.725 342.697812 
C 301.725 336.945504 299.16934 331.428021 294.620875 327.360525 
C 290.07241 323.293029 283.902501 321.007612 277.47 321.007612 
C 271.037499 321.007612 264.86759 323.293029 260.319125 327.360525 
C 255.77066 331.428021 253.215 336.945504 253.215 342.697812 
C 253.215 348.450121 255.77066 353.967604 260.319125 358.0351 
C 264.86759 362.102596 271.037499 364.388012 277.47 364.388012 
z
" clip-path="url(#pf47aa47605)" style="fill: #e74c3c; opacity: 0.8; stroke: #e74c3c; stroke-width: 1.5; stroke-linejoin: miter"/>
   </g>
   <g id="patch_11">
    <path d="M 277.47 290.021612 
C 283.902501 290.021612 290.07241 287.736196 294.620875 283.6687 
C 299.16934 279.601204 301.725 274.083721 301.725 268.331412 
C 301.725 262.579104 299.16934 257.061621 294.620875 252.994125 
C 290.07241 248.926629 283.902501 246.641212 277.47 246.641212 
C 271.037499 246.641212 264.86759 248.926629 260.319125 252.994125 
C 255.77066 257.061621 253.215 262.579104 253.215 268.331412 
C 253.215 274.083721 255.77066 279.601204 260.319125 283.6687 
C 264.86759 287.736196 271.037499 290.021612 277.47 290.021612 
z
" clip-path="url(#pf47aa47605)" style="fill: #e74c3c; opacity: 0.8; stroke: #e74c3c; stroke-width: 1.5; stroke-linejoin: miter"/>
   </g>
   <g id="patch_12">
    <path d="M 277.47 215.655213 
C 283.902501 215.655213 290.07241 213.369796 294.620875 209.3023 
C 299.16934 205.234804 301.725 199.717321 301.725 193.965013 
C 301.725 188.212704 299.16934 182.695221 294.620875 178.627725 
C 290.07241 174.560229 283.902501 172.274812 277.47 172.274812 
C 271.037499 172.274812 264.86759 174.560229 260.319125 178.627725 
C 255.77066 182.695221 253.215 188.212704 253.215 193.965013 
C 253.215 199.717321 255.77066 205.234804 260.319125 209.3023 
C 264.86759 213.369796 271.037499 215.655213 277.47 215.655213 
z
" clip-path="url(#pf47aa47605)" style="fill: #e74c3c; opacity: 0.8; stroke: #e74c3c; stroke-width: 1.5; stroke-linejoin: miter"/>
   </g>
   <g id="patch_13">
    <path d="M 277.47 141.288813 
C 283.902501 141.288813 290.07241 139.003396 294.620875 134.9359 
C 299.16934 130.868404 301.725 125.350921 301.725 119.598613 
C 301.725 113.846304 299.16934 108.328821 294.620875 104.261325 
C 290.07241 100.193829 283.902501 97.908412 277.47 97.908412 
C 271.037499 97.908412 264.86759 100.193829 260.319125 104.261325 
C 255.77066 108.328821 253.215 113.846304 253.215 119.598613 
C 253.215 125.350921 255.77066 130.868404 260.319125 134.9359 
C 264.86759 139.003396 271.037499 141.288813 277.47 141.288813 
z
" clip-path="url(#pf47aa47605)" style="fill: #e74c3c; opacity: 0.8; stroke: #e74c3c; stroke-width: 1.5; stroke-linejoin: miter"/>
   </g>
   <g id="patch_14">
    <path d="M 360.63 364.388012 
C 367.062501 364.388012 373.23241 362.102596 377.780875 358.0351 
C 382.32934 353.967604 384.885 348.450121 384.885 342.697812 
C 384.885 336.945504 382.32934 331.428021 377.780875 327.360525 
C 373.23241 323.293029 367.062501 321.007612 360.63 321.007612 
C 354.197499 321.007612 348.02759 323.293029 343.479125 327.360525 
C 338.93066 331.428021 336.375 336.945504 336.375 342.697812 
C 336.375 348.450121 338.93066 353.967604 343.479125 358.0351 
C 348.02759 362.102596 354.197499 364.388012 360.63 364.388012 
z
" clip-path="url(#pf47aa47605)" style="fill: #e74c3c; opacity: 0.8; stroke: #e74c3c; stroke-width: 1.5; stroke-linejoin: miter"/>
   </g>
   <g id="patch_15">
    <path d="M 360.63 290.021612 
C 367.062501 290.021612 373.23241 287.736196 377.780875 283.6687 
C 382.32934 279.601204 384.885 274.083721 384.885 268.331412 
C 384.885 262.579104 382.32934 257.061621 377.780875 252.994125 
C 373.23241 248.926629 367.062501 246.641212 360.63 246.641212 
C 354.197499 246.641212 348.02759 248.926629 343.479125 252.994125 
C 338.93066 257.061621 336.375 262.579104 336.375 268.331412 
C 336.375 274.083721 338.93066 279.601204 343.479125 283.6687 
C 348.02759 287.736196 354.197499 290.021612 360.63 290.021612 
z
" clip-path="url(#pf47aa47605)" style="fill: #e74c3c; opacity: 0.8; stroke: #e74c3c; stroke-width: 1.5; stroke-linejoin: miter"/>
   </g>
   <g id="patch_16">
    <path d="M 360.63 215.655213 
C 367.062501 215.655213 373.23241 213.369796 377.780875 209.3023 
C 382.32934 205.234804 384.885 199.717321 384.885 193.965013 
C 384.885 188.212704 382.32934 182.695221 377.780875 178.627725 
C 373.23241 174.560229 367.062501 172.274812 360.63 172.274812 
C 354.197499 172.274812 348.02759 174.560229 343.479125 178.627725 
C 338.93066 182.695221 336.375 188.212704 336.375 193.965013 
C 336.375 199.717321 338.93066 205.234804 343.479125 209.3023 
C 348.02759 213.369796 354.197499 215.655213 360.63 215.655213 
z
" clip-path="url(#pf47aa47605)" style="fill: #e74c3c; opacity: 0.8; stroke: #e74c3c; stroke-width: 1.5; stroke-linejoin: miter"/>
   </g>
   <g id="patch_17">
    <path d="M 360.63 141.288813 
C 367.062501 141.288813 373.23241 139.003396 377.780875 134.9359 
C 382.32934 130.868404 384.885 125.350921 384.885 119.598613 
C 384.885 113.846304 382.32934 108.328821 377.780875 104.261325 
C 373.23241 100.193829 367.062501 97.908412 360.63 97.908412 
C 354.197499 97.908412 348.02759 100.193829 343.479125 104.261325 
C 338.93066 108.328821 336.375 113.846304 336.375 119.598613 
C 336.375 125.350921 338.93066 130.868404 343.479125 134.9359 
C 348.02759 139.003396 354.197499 141.288813 360.63 141.288813 
z
" clip-path="url(#pf47aa47605)" style="fill: #e74c3c; opacity: 0.8; stroke: #e74c3c; stroke-width: 1.5; stroke-linejoin: miter"/>
   </g>
   <g id="patch_18">
    <path d="M 443.79 364.388012 
C 450.222501 364.388012 456.39241 362.102596 460.940875 358.0351 
C 465.48934 353.967604 468.045 348.450121 468.045 342.697812 
C 468.045 336.945504 465.48934 331.428021 460.940875 327.360525 
C 456.39241 323.293029 450.222501 321.007612 443.79 321.007612 
C 437.357499 321.007612 431.18759 323.293029 426.639125 327.360525 
C 422.09066 331.428021 419.535 336.945504 419.535 342.697812 
C 419.535 348.450121 422.09066 353.967604 426.639125 358.0351 
C 431.18759 362.102596 437.357499 364.388012 443.79 364.388012 
z
" clip-path="url(#pf47aa47605)" style="fill: #e74c3c; opacity: 0.8; stroke: #e74c3c; stroke-width: 1.5; stroke-linejoin: miter"/>
   </g>
   <g id="patch_19">
    <path d="M 443.79 290.021612 
C 450.222501 290.021612 456.39241 287.736196 460.940875 283.6687 
C 465.48934 279.601204 468.045 274.083721 468.045 268.331412 
C 468.045 262.579104 465.48934 257.061621 460.940875 252.994125 
C 456.39241 248.926629 450.222501 246.641212 443.79 246.641212 
C 437.357499 246.641212 431.18759 248.926629 426.639125 252.994125 
C 422.09066 257.061621 419.535 262.579104 419.535 268.331412 
C 419.535 274.083721 422.09066 279.601204 426.639125 283.6687 
C 431.18759 287.736196 437.357499 290.021612 443.79 290.021612 
z
" clip-path="url(#pf47aa47605)" style="fill: #e74c3c; opacity: 0.8; stroke: #e74c3c; stroke-width: 1.5; stroke-linejoin: miter"/>
   </g>
   <g id="patch_20">
    <path d="M 443.79 215.655213 
C 450.222501 215.655213 456.39241 213.369796 460.940875 209.3023 
C 465.48934 205.234804 468.045 199.717321 468.045 193.965013 
C 468.045 188.212704 465.48934 182.695221 460.940875 178.627725 
C 456.39241 174.560229 450.222501 172.274812 443.79 172.274812 
C 437.357499 172.274812 431.18759 174.560229 426.639125 178.627725 
C 422.09066 182.695221 419.535 188.212704 419.535 193.965013 
C 419.535 199.717321 422.09066 205.234804 426.639125 209.3023 
C 431.18759 213.369796 437.357499 215.655213 443.79 215.655213 
z
" clip-path="url(#pf47aa47605)" style="fill: #e74c3c; opacity: 0.8; stroke: #e74c3c; stroke-width: 1.5; stroke-linejoin: miter"/>
   </g>
   <g id="patch_21">
    <path d="M 443.79 141.288813 
C 450.222501 141.288813 456.39241 139.003396 460.940875 134.9359 
C 465.48934 130.868404 468.045 125.350921 468.045 119.598613 
C 468.045 113.846304 465.48934 108.328821 460.940875 104.261325 
C 456.39241 100.193829 450.222501 97.908412 443.79 97.908412 
C 437.357499 97.908412 431.18759 100.193829 426.639125 104.261325 
C 422.09066 108.328821 419.535 113.846304 419.535 119.598613 
C 419.535 125.350921 422.09066 130.868404 426.639125 134.9359 
C 431.18759 139.003396 437.357499 141.288813 443.79 141.288813 
z
" clip-path="url(#pf47aa47605)" style="fill: #e74c3c; opacity: 0.8; stroke: #e74c3c; stroke-width: 1.5; stroke-linejoin: miter"/>
   </g>
   <g id="patch_22">
    <path d="M 232.233781 85.292678 
C 234.071639 85.292678 235.83447 84.639701 237.134031 83.47756 
C 238.433593 82.315418 239.163781 80.738994 239.163781 79.095478 
C 239.163781 77.451961 238.433593 75.875537 237.134031 74.713395 
C 235.83447 73.551254 234.071639 72.898278 232.233781 72.898278 
C 230.395924 72.898278 228.633093 73.551254 227.333531 74.713395 
C 226.03397 75.875537 225.303781 77.451961 225.303781 79.095478 
C 225.303781 80.738994 226.03397 82.315418 227.333531 83.47756 
C 228.633093 84.639701 230.395924 85.292678 232.233781 85.292678 
z
" clip-path="url(#pf47aa47605)" style="fill: #3498db; opacity: 0.7; stroke: #3498db; stroke-width: 1.5; stroke-linejoin: miter"/>
   </g>
   <g id="patch_23">
    <path d="M 380.863081 194.380695 
C 382.700938 194.380695 384.46377 193.727719 385.763331 192.565577 
C 387.062892 191.403435 387.793081 189.827011 387.793081 188.183495 
C 387.793081 186.539978 387.062892 184.963554 385.763331 183.801412 
C 384.46377 182.639271 382.700938 181.986295 380.863081 181.986295 
C 379.025224 181.986295 377.262393 182.639271 375.962831 183.801412 
C 374.66327 184.963554 373.933081 186.539978 373.933081 188.183495 
C 373.933081 189.827011 374.66327 191.403435 375.962831 192.565577 
C 377.262393 193.727719 379.025224 194.380695 380.863081 194.380695 
z
" clip-path="url(#pf47aa47605)" style="fill: #3498db; opacity: 0.7; stroke: #3498db; stroke-width: 1.5; stroke-linejoin: miter"/>
   </g>
   <g id="patch_24">
    <path d="M 141.372551 331.54455 
C 143.210408 331.54455 144.973239 330.891574 146.272801 329.729433 
C 147.572362 328.567291 148.302551 326.990867 148.302551 325.34735 
C 148.302551 323.703834 147.572362 322.12741 146.272801 320.965268 
C 144.973239 319.803127 143.210408 319.15015 141.372551 319.15015 
C 139.534693 319.15015 137.771862 319.803127 136.472301 320.965268 
C 135.172739 322.12741 134.442551 323.703834 134.442551 325.34735 
C 134.442551 326.990867 135.172739 328.567291 136.472301 329.729433 
C 137.771862 330.891574 139.534693 331.54455 141.372551 331.54455 
z
" clip-path="url(#pf47aa47605)" style="fill: #3498db; opacity: 0.7; stroke: #3498db; stroke-width: 1.5; stroke-linejoin: miter"/>
   </g>
   <g id="patch_25">
    <path d="M 100.651166 111.487672 
C 102.489023 111.487672 104.251854 110.834696 105.551416 109.672554 
C 106.850977 108.510412 107.581166 106.933989 107.581166 105.290472 
C 107.581166 103.646955 106.850977 102.070532 105.551416 100.90839 
C 104.251854 99.746248 102.489023 99.093272 100.651166 99.093272 
C 98.813308 99.093272 97.050477 99.746248 95.750916 100.90839 
C 94.451354 102.070532 93.721166 103.646955 93.721166 105.290472 
C 93.721166 106.933989 94.451354 108.510412 95.750916 109.672554 
C 97.050477 110.834696 98.813308 111.487672 100.651166 111.487672 
z
" clip-path="url(#pf47aa47605)" style="fill: #3498db; opacity: 0.7; stroke: #3498db; stroke-width: 1.5; stroke-linejoin: miter"/>
   </g>
   <g id="patch_26">
    <path d="M 326.443622 160.477644 
C 328.281479 160.477644 330.04431 159.824667 331.343872 158.662526 
C 332.643433 157.500384 333.373622 155.92396 333.373622 154.280444 
C 333.373622 152.636927 332.643433 151.060503 331.343872 149.898361 
C 330.04431 148.73622 328.281479 148.083244 326.443622 148.083244 
C 324.605764 148.083244 322.842933 148.73622 321.543372 149.898361 
C 320.24381 151.060503 319.513622 152.636927 319.513622 154.280444 
C 319.513622 155.92396 320.24381 157.500384 321.543372 158.662526 
C 322.842933 159.824667 324.605764 160.477644 326.443622 160.477644 
z
" clip-path="url(#pf47aa47605)" style="fill: #3498db; opacity: 0.7; stroke: #3498db; stroke-width: 1.5; stroke-linejoin: miter"/>
   </g>
   <g id="patch_27">
    <path d="M 85.059033 79.344746 
C 86.89689 79.344746 88.659721 78.69177 89.959283 77.529628 
C 91.258844 76.367486 91.989033 74.791062 91.989033 73.147546 
C 91.989033 71.504029 91.258844 69.927605 89.959283 68.765464 
C 88.659721 67.603322 86.89689 66.950346 85.059033 66.950346 
C 83.221175 66.950346 81.458344 67.603322 80.158783 68.765464 
C 78.859221 69.927605 78.129033 71.504029 78.129033 73.147546 
C 78.129033 74.791062 78.859221 76.367486 80.158783 77.529628 
C 81.458344 78.69177 83.221175 79.344746 85.059033 79.344746 
z
" clip-path="url(#pf47aa47605)" style="fill: #3498db; opacity: 0.7; stroke: #3498db; stroke-width: 1.5; stroke-linejoin: miter"/>
   </g>
   <g id="patch_28">
    <path d="M 422.62965 314.085616 
C 424.467508 314.085616 426.230339 313.43264 427.5299 312.270498 
C 428.829462 311.108356 429.55965 309.531932 429.55965 307.888416 
C 429.55965 306.244899 428.829462 304.668475 427.5299 303.506334 
C 426.230339 302.344192 424.467508 301.691216 422.62965 301.691216 
C 420.791793 301.691216 419.028962 302.344192 417.7294 303.506334 
C 416.429839 304.668475 415.69965 306.244899 415.69965 307.888416 
C 415.69965 309.531932 416.429839 311.108356 417.7294 312.270498 
C 419.028962 313.43264 420.791793 314.085616 422.62965 314.085616 
z
" clip-path="url(#pf47aa47605)" style="fill: #3498db; opacity: 0.7; stroke: #3498db; stroke-width: 1.5; stroke-linejoin: miter"/>
   </g>
   <g id="patch_29">
    <path d="M 152.102821 323.051291 
C 153.940679 323.051291 155.70351 322.398315 157.003071 321.236173 
C 158.302633 320.074031 159.032821 318.497608 159.032821 316.854091 
C 159.032821 315.210574 158.302633 313.634151 157.003071 312.472009 
C 155.70351 311.309867 153.940679 310.656891 152.102821 310.656891 
C 150.264964 310.656891 148.502133 311.309867 147.202571 312.472009 
C 145.90301 313.634151 145.172821 315.210574 145.172821 316.854091 
C 145.172821 318.497608 145.90301 320.074031 147.202571 321.236173 
C 148.502133 322.398315 150.264964 323.051291 152.102821 323.051291 
z
" clip-path="url(#pf47aa47605)" style="fill: #3498db; opacity: 0.7; stroke: #3498db; stroke-width: 1.5; stroke-linejoin: miter"/>
   </g>
   <g id="patch_30">
    <path d="M 203.003925 217.279985 
C 204.841782 217.279985 206.604613 216.627009 207.904175 215.464867 
C 209.203736 214.302725 209.933925 212.726301 209.933925 211.082785 
C 209.933925 209.439268 209.203736 207.862844 207.904175 206.700702 
C 206.604613 205.538561 204.841782 204.885585 203.003925 204.885585 
C 201.166067 204.885585 199.403236 205.538561 198.103675 206.700702 
C 196.804113 207.862844 196.073925 209.439268 196.073925 211.082785 
C 196.073925 212.726301 196.804113 214.302725 198.103675 215.464867 
C 199.403236 216.627009 201.166067 217.279985 203.003925 217.279985 
z
" clip-path="url(#pf47aa47605)" style="fill: #3498db; opacity: 0.7; stroke: #3498db; stroke-width: 1.5; stroke-linejoin: miter"/>
   </g>
   <g id="patch_31">
    <path d="M 256.102739 289.640751 
C 257.940596 289.640751 259.703427 288.987775 261.002989 287.825633 
C 262.30255 286.663491 263.032739 285.087068 263.032739 283.443551 
C 263.032739 281.800034 262.30255 280.223611 261.002989 279.061469 
C 259.703427 277.899327 257.940596 277.246351 256.102739 277.246351 
C 254.264881 277.246351 252.50205 277.899327 251.202489 279.061469 
C 249.902927 280.223611 249.172739 281.800034 249.172739 283.443551 
C 249.172739 285.087068 249.902927 286.663491 251.202489 287.825633 
C 252.50205 288.987775 254.264881 289.640751 256.102739 289.640751 
z
" clip-path="url(#pf47aa47605)" style="fill: #3498db; opacity: 0.7; stroke: #3498db; stroke-width: 1.5; stroke-linejoin: miter"/>
   </g>
   <g id="patch_32">
    <path d="M 330.908434 336.657445 
C 332.746291 336.657445 334.509122 336.004469 335.808684 334.842327 
C 337.108245 333.680185 337.838434 332.103761 337.838434 330.460245 
C 337.838434 328.816728 337.108245 327.240304 335.808684 326.078163 
C 334.509122 324.916021 332.746291 324.263045 330.908434 324.263045 
C 329.070576 324.263045 327.307745 324.916021 326.008184 326.078163 
C 324.708622 327.240304 323.978434 328.816728 323.978434 330.460245 
C 323.978434 332.103761 324.708622 333.680185 326.008184 334.842327 
C 327.307745 336.004469 329.070576 336.657445 330.908434 336.657445 
z
" clip-path="url(#pf47aa47605)" style="fill: #3498db; opacity: 0.7; stroke: #3498db; stroke-width: 1.5; stroke-linejoin: miter"/>
   </g>
   <g id="patch_33">
    <path d="M 197.973745 266.360132 
C 199.811602 266.360132 201.574433 265.707156 202.873995 264.545014 
C 204.173556 263.382872 204.903745 261.806448 204.903745 260.162932 
C 204.903745 258.519415 204.173556 256.942991 202.873995 255.78085 
C 201.574433 254.618708 199.811602 253.965732 197.973745 253.965732 
C 196.135887 253.965732 194.373056 254.618708 193.073495 255.78085 
C 191.773933 256.942991 191.043745 258.519415 191.043745 260.162932 
C 191.043745 261.806448 191.773933 263.382872 193.073495 264.545014 
C 194.373056 265.707156 196.135887 266.360132 197.973745 266.360132 
z
" clip-path="url(#pf47aa47605)" style="fill: #3498db; opacity: 0.7; stroke: #3498db; stroke-width: 1.5; stroke-linejoin: miter"/>
   </g>
   <g id="patch_34">
    <path d="M 266.133899 136.586389 
C 267.971757 136.586389 269.734588 135.933413 271.034149 134.771271 
C 272.333711 133.609129 273.063899 132.032706 273.063899 130.389189 
C 273.063899 128.745672 272.333711 127.169249 271.034149 126.007107 
C 269.734588 124.844965 267.971757 124.191989 266.133899 124.191989 
C 264.296042 124.191989 262.533211 124.844965 261.233649 126.007107 
C 259.934088 127.169249 259.203899 128.745672 259.203899 130.389189 
C 259.203899 132.032706 259.934088 133.609129 261.233649 134.771271 
C 262.533211 135.933413 264.296042 136.586389 266.133899 136.586389 
z
" clip-path="url(#pf47aa47605)" style="fill: #3498db; opacity: 0.7; stroke: #3498db; stroke-width: 1.5; stroke-linejoin: miter"/>
   </g>
   <g id="patch_35">
    <path d="M 159.524359 220.540329 
C 161.362216 220.540329 163.125047 219.887353 164.424609 218.725212 
C 165.72417 217.56307 166.454359 215.986646 166.454359 214.343129 
C 166.454359 212.699613 165.72417 211.123189 164.424609 209.961047 
C 163.125047 208.798905 161.362216 208.145929 159.524359 208.145929 
C 157.686501 208.145929 155.92367 208.798905 154.624109 209.961047 
C 153.324547 211.123189 152.594359 212.699613 152.594359 214.343129 
C 152.594359 215.986646 153.324547 217.56307 154.624109 218.725212 
C 155.92367 219.887353 157.686501 220.540329 159.524359 220.540329 
z
" clip-path="url(#pf47aa47605)" style="fill: #3498db; opacity: 0.7; stroke: #3498db; stroke-width: 1.5; stroke-linejoin: miter"/>
   </g>
   <g id="patch_36">
    <path d="M 322.825978 365.487888 
C 324.663835 365.487888 326.426666 364.834912 327.726228 363.67277 
C 329.025789 362.510628 329.755978 360.934204 329.755978 359.290688 
C 329.755978 357.647171 329.025789 356.070747 327.726228 354.908605 
C 326.426666 353.746464 324.663835 353.093488 322.825978 353.093488 
C 320.98812 353.093488 319.225289 353.746464 317.925728 354.908605 
C 316.626166 356.070747 315.895978 357.647171 315.895978 359.290688 
C 315.895978 360.934204 316.626166 362.510628 317.925728 363.67277 
C 319.225289 364.834912 320.98812 365.487888 322.825978 365.487888 
z
" clip-path="url(#pf47aa47605)" style="fill: #3498db; opacity: 0.7; stroke: #3498db; stroke-width: 1.5; stroke-linejoin: miter"/>
   </g>
   <g id="patch_37">
    <path d="M 329.117149 327.042408 
C 330.955007 327.042408 332.717838 326.389431 334.017399 325.22729 
C 335.316961 324.065148 336.047149 322.488724 336.047149 320.845208 
C 336.047149 319.201691 335.316961 317.625267 334.017399 316.463125 
C 332.717838 315.300984 330.955007 314.648008 329.117149 314.648008 
C 327.279292 314.648008 325.516461 315.300984 324.216899 316.463125 
C 322.917338 317.625267 322.187149 319.201691 322.187149 320.845208 
C 322.187149 322.488724 322.917338 324.065148 324.216899 325.22729 
C 325.516461 326.389431 327.279292 327.042408 329.117149 327.042408 
z
" clip-path="url(#pf47aa47605)" style="fill: #3498db; opacity: 0.7; stroke: #3498db; stroke-width: 1.5; stroke-linejoin: miter"/>
   </g>
   <g id="patch_38">
    <path d="M 103.548452 85.85934 
C 105.38631 85.85934 107.149141 85.206364 108.448702 84.044222 
C 109.748264 82.88208 110.478452 81.305657 110.478452 79.66214 
C 110.478452 78.018623 109.748264 76.4422 108.448702 75.280058 
C 107.149141 74.117916 105.38631 73.46494 103.548452 73.46494 
C 101.710595 73.46494 99.947764 74.117916 98.648202 75.280058 
C 97.348641 76.4422 96.618452 78.018623 96.618452 79.66214 
C 96.618452 81.305657 97.348641 82.88208 98.648202 84.044222 
C 99.947764 85.206364 101.710595 85.85934 103.548452 85.85934 
z
" clip-path="url(#pf47aa47605)" style="fill: #3498db; opacity: 0.7; stroke: #3498db; stroke-width: 1.5; stroke-linejoin: miter"/>
   </g>
   <g id="patch_39">
    <path d="M 478.009799 129.39101 
C 479.847657 129.39101 481.610488 128.738034 482.910049 127.575892 
C 484.209611 126.413751 484.939799 124.837327 484.939799 123.19381 
C 484.939799 121.550294 484.209611 119.97387 482.910049 118.811728 
C 481.610488 117.649586 479.847657 116.99661 478.009799 116.99661 
C 476.171942 116.99661 474.409111 117.649586 473.109549 118.811728 
C 471.809988 119.97387 471.079799 121.550294 471.079799 123.19381 
C 471.079799 124.837327 471.809988 126.413751 473.109549 127.575892 
C 474.409111 128.738034 476.171942 129.39101 478.009799 129.39101 
z
" clip-path="url(#pf47aa47605)" style="fill: #3498db; opacity: 0.7; stroke: #3498db; stroke-width: 1.5; stroke-linejoin: miter"/>
   </g>
   <g id="patch_40">
    <path d="M 203.158405 349.616331 
C 204.996263 349.616331 206.759094 348.963355 208.058655 347.801213 
C 209.358217 346.639072 210.088405 345.062648 210.088405 343.419131 
C 210.088405 341.775615 209.358217 340.199191 208.058655 339.037049 
C 206.759094 337.874907 204.996263 337.221931 203.158405 337.221931 
C 201.320548 337.221931 199.557717 337.874907 198.258155 339.037049 
C 196.958594 340.199191 196.228405 341.775615 196.228405 343.419131 
C 196.228405 345.062648 196.958594 346.639072 198.258155 347.801213 
C 199.557717 348.963355 201.320548 349.616331 203.158405 349.616331 
z
" clip-path="url(#pf47aa47605)" style="fill: #3498db; opacity: 0.7; stroke: #3498db; stroke-width: 1.5; stroke-linejoin: miter"/>
   </g>
   <g id="patch_41">
    <path d="M 361.004092 243.495361 
C 362.84195 243.495361 364.604781 242.842385 365.904342 241.680243 
C 367.203904 240.518101 367.934092 238.941677 367.934092 237.298161 
C 367.934092 235.654644 367.203904 234.07822 365.904342 232.916079 
C 364.604781 231.753937 362.84195 231.100961 361.004092 231.100961 
C 359.166235 231.100961 357.403404 231.753937 356.103842 232.916079 
C 354.804281 234.07822 354.074092 235.654644 354.074092 237.298161 
C 354.074092 238.941677 354.804281 240.518101 356.103842 241.680243 
C 357.403404 242.842385 359.166235 243.495361 361.004092 243.495361 
z
" clip-path="url(#pf47aa47605)" style="fill: #3498db; opacity: 0.7; stroke: #3498db; stroke-width: 1.5; stroke-linejoin: miter"/>
   </g>
   <g id="patch_42">
    <path d="M 127.243498 226.445495 
C 129.081356 226.445495 130.844187 225.792519 132.143748 224.630377 
C 133.44331 223.468236 134.173498 221.891812 134.173498 220.248295 
C 134.173498 218.604778 133.44331 217.028355 132.143748 215.866213 
C 130.844187 214.704071 129.081356 214.051095 127.243498 214.051095 
C 125.405641 214.051095 123.64281 214.704071 122.343248 215.866213 
C 121.043687 217.028355 120.313498 218.604778 120.313498 220.248295 
C 120.313498 221.891812 121.043687 223.468236 122.343248 224.630377 
C 123.64281 225.792519 125.405641 226.445495 127.243498 226.445495 
z
" clip-path="url(#pf47aa47605)" style="fill: #3498db; opacity: 0.7; stroke: #3498db; stroke-width: 1.5; stroke-linejoin: miter"/>
   </g>
   <g id="patch_43">
    <path d="M 90.798747 98.118993 
C 92.636605 98.118993 94.399436 97.466017 95.698997 96.303875 
C 96.998559 95.141733 97.728747 93.565309 97.728747 91.921793 
C 97.728747 90.278276 96.998559 88.701852 95.698997 87.539711 
C 94.399436 86.377569 92.636605 85.724593 90.798747 85.724593 
C 88.96089 85.724593 87.198059 86.377569 85.898497 87.539711 
C 84.598936 88.701852 83.868747 90.278276 83.868747 91.921793 
C 83.868747 93.565309 84.598936 95.141733 85.898497 96.303875 
C 87.198059 97.466017 88.96089 98.118993 90.798747 98.118993 
z
" clip-path="url(#pf47aa47605)" style="fill: #3498db; opacity: 0.7; stroke: #3498db; stroke-width: 1.5; stroke-linejoin: miter"/>
   </g>
   <g id="patch_44">
    <path d="M 184.100716 174.591857 
C 185.938574 174.591857 187.701405 173.938881 189.000966 172.77674 
C 190.300528 171.614598 191.030716 170.038174 191.030716 168.394657 
C 191.030716 166.751141 190.300528 165.174717 189.000966 164.012575 
C 187.701405 162.850434 185.938574 162.197457 184.100716 162.197457 
C 182.262859 162.197457 180.500028 162.850434 179.200466 164.012575 
C 177.900905 165.174717 177.170716 166.751141 177.170716 168.394657 
C 177.170716 170.038174 177.900905 171.614598 179.200466 172.77674 
C 180.500028 173.938881 182.262859 174.591857 184.100716 174.591857 
z
" clip-path="url(#pf47aa47605)" style="fill: #3498db; opacity: 0.7; stroke: #3498db; stroke-width: 1.5; stroke-linejoin: miter"/>
   </g>
   <g id="patch_45">
    <path d="M 206.109465 218.732735 
C 207.947323 218.732735 209.710154 218.079759 211.009715 216.917618 
C 212.309277 215.755476 213.039465 214.179052 213.039465 212.535535 
C 213.039465 210.892019 212.309277 209.315595 211.009715 208.153453 
C 209.710154 206.991312 207.947323 206.338335 206.109465 206.338335 
C 204.271608 206.338335 202.508777 206.991312 201.209215 208.153453 
C 199.909654 209.315595 199.179465 210.892019 199.179465 212.535535 
C 199.179465 214.179052 199.909654 215.755476 201.209215 216.917618 
C 202.508777 218.079759 204.271608 218.732735 206.109465 218.732735 
z
" clip-path="url(#pf47aa47605)" style="fill: #3498db; opacity: 0.7; stroke: #3498db; stroke-width: 1.5; stroke-linejoin: miter"/>
   </g>
   <g id="patch_46">
    <path d="M 303.822134 322.602011 
C 305.659992 322.602011 307.422823 321.949035 308.722384 320.786893 
C 310.021946 319.624751 310.752134 318.048328 310.752134 316.404811 
C 310.752134 314.761294 310.021946 313.184871 308.722384 312.022729 
C 307.422823 310.860587 305.659992 310.207611 303.822134 310.207611 
C 301.984277 310.207611 300.221446 310.860587 298.921884 312.022729 
C 297.622323 313.184871 296.892134 314.761294 296.892134 316.404811 
C 296.892134 318.048328 297.622323 319.624751 298.921884 320.786893 
C 300.221446 321.949035 301.984277 322.602011 303.822134 322.602011 
z
" clip-path="url(#pf47aa47605)" style="fill: #3498db; opacity: 0.7; stroke: #3498db; stroke-width: 1.5; stroke-linejoin: miter"/>
   </g>
   <g id="patch_47">
    <path d="M 62.64 386.078212 
L 506.16 386.078212 
L 506.16 51.429412 
L 62.64 51.429412 
z
" clip-path="url(#pf47aa47605)" style="fill: #3498db; opacity: 0.1; stroke: #3498db; stroke-width: 1.5; stroke-linejoin: miter"/>
   </g>
   <g id="text_1">
    <!-- M⁺ -->
    <g style="fill: #ffffff" transform="translate(104.196875 345.457187) scale(0.1 -0.1)">
     <defs>
      <path id="DejaVuSans-4d" d="M 628 4666 
L 1569 4666 
L 2759 1491 
L 3956 4666 
L 4897 4666 
L 4897 0 
L 4281 0 
L 4281 4097 
L 3078 897 
L 2444 897 
L 1241 4097 
L 1241 0 
L 628 0 
L 628 4666 
z
" transform="scale(0.015625)"/>
      <path id="DejaVuSans-207a" d="M 1853 4334 
L 1853 3359 
L 2950 3359 
L 2950 3063 
L 1853 3063 
L 1853 2088 
L 1525 2088 
L 1525 3063 
L 428 3063 
L 428 3359 
L 1525 3359 
L 1525 4334 
L 1853 4334 
z
" transform="scale(0.015625)"/>
     </defs>
     <use xlink:href="#DejaVuSans-4d"/>
     <use xlink:href="#DejaVuSans-207a" transform="translate(86.279297 0)"/>
    </g>
   </g>
   <g id="text_2">
    <!-- M⁺ -->
    <g style="fill: #ffffff" transform="translate(104.196875 271.090787) scale(0.1 -0.1)">
     <use xlink:href="#DejaVuSans-4d"/>
     <use xlink:href="#DejaVuSans-207a" transform="translate(86.279297 0)"/>
    </g>
   </g>
   <g id="text_3">
    <!-- M⁺ -->
    <g style="fill: #ffffff" transform="translate(104.196875 196.724388) scale(0.1 -0.1)">
     <use xlink:href="#DejaVuSans-4d"/>
     <use xlink:href="#DejaVuSans-207a" transform="translate(86.279297 0)"/>
    </g>
   </g>
   <g id="text_4">
    <!-- M⁺ -->
    <g style="fill: #ffffff" transform="translate(104.196875 122.357987) scale(0.1 -0.1)">
     <use xlink:href="#DejaVuSans-4d"/>
     <use xlink:href="#DejaVuSans-207a" transform="translate(86.279297 0)"/>
    </g>
   </g>
   <g id="text_5">
    <!-- M⁺ -->
    <g style="fill: #ffffff" transform="translate(187.356875 345.457187) scale(0.1 -0.1)">
     <use xlink:href="#DejaVuSans-4d"/>
     <use xlink:href="#DejaVuSans-207a" transform="translate(86.279297 0)"/>
    </g>
   </g>
   <g id="text_6">
    <!-- M⁺ -->
    <g style="fill: #ffffff" transform="translate(187.356875 271.090787) scale(0.1 -0.1)">
     <use xlink:href="#DejaVuSans-4d"/>
     <use xlink:href="#DejaVuSans-207a" transform="translate(86.279297 0)"/>
    </g>
   </g>
   <g id="text_7">
    <!-- M⁺ -->
    <g style="fill: #ffffff" transform="translate(187.356875 196.724388) scale(0.1 -0.1)">
     <use xlink:href="#DejaVuSans-4d"/>
     <use xlink:href="#DejaVuSans-207a" transform="translate(86.279297 0)"/>
    </g>
   </g>
   <g id="text_8">
    <!-- M⁺ -->
    <g style="fill: #ffffff" transform="translate(187.356875 122.357987) scale(0.1 -0.1)">
     <use xlink:href="#DejaVuSans-4d"/>
     <use xlink:href="#DejaVuSans-207a" transform="translate(86.279297 0)"/>
    </g>
   </g>
   <g id="text_9">
    <!-- M⁺ -->
    <g style="fill: #ffffff" transform="translate(270.516875 345.457187) scale(0.1 -0.1)">
     <use xlink:href="#DejaVuSans-4d"/>
     <use xlink:href="#DejaVuSans-207a" transform="translate(86.279297 0)"/>
    </g>
   </g>
   <g id="text_10">
    <!-- M⁺ -->
    <g style="fill: #ffffff" transform="translate(270.516875 271.090787) scale(0.1 -0.1)">
     <use xlink:href="#DejaVuSans-4d"/>
     <use xlink:href="#DejaVuSans-207a" transform="translate(86.279297 0)"/>
    </g>
   </g>
   <g id="text_11">
    <!-- M⁺ -->
    <g style="fill: #ffffff" transform="translate(270.516875 196.724388) scale(0.1 -0.1)">
     <use xlink:href="#DejaVuSans-4d"/>
     <use xlink:href="#DejaVuSans-207a" transform="translate(86.279297 0)"/>
    </g>
   </g>
   <g id="text_12">
    <!-- M⁺ -->
    <g style="fill: #ffffff" transform="translate(270.516875 122.357987) scale(0.1 -0.1)">
     <use xlink:href="#DejaVuSans-4d"/>
     <use xlink:href="#DejaVuSans-207a" transform="translate(86.279297 0)"/>
    </g>
   </g>
   <g id="text_13">
    <!-- M⁺ -->
    <g style="fill: #ffffff" transform="translate(353.676875 345.457187) scale(0.1 -0.1)">
     <use xlink:href="#DejaVuSans-4d"/>
     <use xlink:href="#DejaVuSans-207a" transform="translate(86.279297 0)"/>
    </g>
   </g>
   <g id="text_14">
    <!-- M⁺ -->
    <g style="fill: #ffffff" transform="translate(353.676875 271.090787) scale(0.1 -0.1)">
     <use xlink:href="#DejaVuSans-4d"/>
     <use xlink:href="#DejaVuSans-207a" transform="translate(86.279297 0)"/>
    </g>
   </g>
   <g id="text_15">
    <!-- M⁺ -->
    <g style="fill: #ffffff" transform="translate(353.676875 196.724388) scale(0.1 -0.1)">
     <use xlink:href="#DejaVuSans-4d"/>
     <use xlink:href="#DejaVuSans-207a" transform="translate(86.279297 0)"/>
    </g>
   </g>
   <g id="text_16">
    <!-- M⁺ -->
    <g style="fill: #ffffff" transform="translate(353.676875 122.357987) scale(0.1 -0.1)">
     <use xlink:href="#DejaVuSans-4d"/>
     <use xlink:href="#DejaVuSans-207a" transform="translate(86.279297 0)"/>
    </g>
   </g>
   <g id="text_17">
    <!-- M⁺ -->
    <g style="fill: #ffffff" transform="translate(436.836875 345.457187) scale(0.1 -0.1)">
     <use xlink:href="#DejaVuSans-4d"/>
     <use xlink:href="#DejaVuSans-207a" transform="translate(86.279297 0)"/>
    </g>
   </g>
   <g id="text_18">
    <!-- M⁺ -->
    <g style="fill: #ffffff" transform="translate(436.836875 271.090787) scale(0.1 -0.1)">
     <use xlink:href="#DejaVuSans-4d"/>
     <use xlink:href="#DejaVuSans-207a" transform="translate(86.279297 0)"/>
    </g>
   </g>
   <g id="text_19">
    <!-- M⁺ -->
    <g style="fill: #ffffff" transform="translate(436.836875 196.724388) scale(0.1 -0.1)">
     <use xlink:href="#DejaVuSans-4d"/>
     <use xlink:href="#DejaVuSans-207a" transform="translate(86.279297 0)"/>
    </g>
   </g>
   <g id="text_20">
    <!-- M⁺ -->
    <g style="fill: #ffffff" transform="translate(436.836875 122.357987) scale(0.1 -0.1)">
     <use xlink:href="#DejaVuSans-4d"/>
     <use xlink:href="#DejaVuSans-207a" transform="translate(86.279297 0)"/>
    </g>
   </g>
   <g id="text_21">
    <!-- "Electron Sea" -->
    <g style="fill: #3498db" transform="translate(241.05375 51.429413) scale(0.12 -0.12)">
     <defs>
      <path id="DejaVuSans-Oblique-22" d="M 1147 4666 
L 1147 2931 
L 616 2931 
L 616 4666 
L 1147 4666 
z
M 2328 4666 
L 2328 2931 
L 1797 2931 
L 1797 4666 
L 2328 4666 
z
" transform="scale(0.015625)"/>
      <path id="DejaVuSans-Oblique-45" d="M 1081 4666 
L 4031 4666 
L 3928 4134 
L 1606 4134 
L 1338 2753 
L 3566 2753 
L 3463 2222 
L 1234 2222 
L 909 531 
L 3284 531 
L 3181 0 
L 172 0 
L 1081 4666 
z
" transform="scale(0.015625)"/>
      <path id="DejaVuSans-Oblique-6c" d="M 1172 4863 
L 1747 4863 
L 800 0 
L 225 0 
L 1172 4863 
z
" transform="scale(0.015625)"/>
      <path id="DejaVuSans-Oblique-65" d="M 3078 2063 
Q 3088 2113 3092 2166 
Q 3097 2219 3097 2272 
Q 3097 2653 2873 2875 
Q 2650 3097 2266 3097 
Q 1838 3097 1509 2826 
Q 1181 2556 1013 2059 
L 3078 2063 
z
M 3578 1613 
L 903 1613 
Q 884 1494 878 1425 
Q 872 1356 872 1306 
Q 872 872 1139 634 
Q 1406 397 1894 397 
Q 2269 397 2603 481 
Q 2938 566 3225 728 
L 3116 159 
Q 2806 34 2476 -28 
Q 2147 -91 1806 -91 
Q 1078 -91 686 257 
Q 294 606 294 1247 
Q 294 1794 489 2264 
Q 684 2734 1063 3103 
Q 1306 3334 1642 3459 
Q 1978 3584 2356 3584 
Q 2950 3584 3301 3228 
Q 3653 2872 3653 2272 
Q 3653 2128 3634 1964 
Q 3616 1800 3578 1613 
z
" transform="scale(0.015625)"/>
      <path id="DejaVuSans-Oblique-63" d="M 3431 3366 
L 3316 2797 
Q 3109 2947 2876 3022 
Q 2644 3097 2394 3097 
Q 2119 3097 1870 3000 
Q 1622 2903 1453 2725 
Q 1184 2453 1037 2087 
Q 891 1722 891 1331 
Q 891 859 1127 628 
Q 1363 397 1844 397 
Q 2081 397 2348 469 
Q 2616 541 2906 684 
L 2797 116 
Q 2547 13 2283 -39 
Q 2019 -91 1741 -91 
Q 1044 -91 669 257 
Q 294 606 294 1253 
Q 294 1797 489 2255 
Q 684 2713 1069 3078 
Q 1331 3328 1684 3456 
Q 2038 3584 2456 3584 
Q 2700 3584 2940 3529 
Q 3181 3475 3431 3366 
z
" transform="scale(0.015625)"/>
      <path id="DejaVuSans-Oblique-74" d="M 2706 3500 
L 2619 3053 
L 1472 3053 
L 1100 1153 
Q 1081 1047 1072 975 
Q 1063 903 1063 863 
Q 1063 663 1183 572 
Q 1303 481 1569 481 
L 2150 481 
L 2053 0 
L 1503 0 
Q 991 0 739 200 
Q 488 400 488 806 
Q 488 878 497 964 
Q 506 1050 525 1153 
L 897 3053 
L 409 3053 
L 500 3500 
L 978 3500 
L 1172 4494 
L 1747 4494 
L 1556 3500 
L 2706 3500 
z
" transform="scale(0.015625)"/>
      <path id="DejaVuSans-Oblique-72" d="M 2853 2969 
Q 2766 3016 2653 3041 
Q 2541 3066 2413 3066 
Q 1953 3066 1609 2717 
Q 1266 2369 1153 1784 
L 800 0 
L 225 0 
L 909 3500 
L 1484 3500 
L 1375 2956 
Q 1603 3259 1920 3421 
Q 2238 3584 2597 3584 
Q 2691 3584 2781 3573 
Q 2872 3563 2963 3538 
L 2853 2969 
z
" transform="scale(0.015625)"/>
      <path id="DejaVuSans-Oblique-6f" d="M 1625 -91 
Q 1009 -91 651 289 
Q 294 669 294 1325 
Q 294 1706 417 2101 
Q 541 2497 738 2766 
Q 1047 3184 1428 3384 
Q 1809 3584 2291 3584 
Q 2888 3584 3255 3212 
Q 3622 2841 3622 2241 
Q 3622 1825 3500 1412 
Q 3378 1000 3181 728 
Q 2875 309 2494 109 
Q 2113 -91 1625 -91 
z
M 891 1344 
Q 891 869 1089 633 
Q 1288 397 1691 397 
Q 2269 397 2648 901 
Q 3028 1406 3028 2181 
Q 3028 2634 2825 2865 
Q 2622 3097 2228 3097 
Q 1903 3097 1650 2945 
Q 1397 2794 1197 2484 
Q 1050 2253 970 1956 
Q 891 1659 891 1344 
z
" transform="scale(0.015625)"/>
      <path id="DejaVuSans-Oblique-6e" d="M 3566 2113 
L 3156 0 
L 2578 0 
L 2988 2091 
Q 3016 2238 3031 2350 
Q 3047 2463 3047 2528 
Q 3047 2791 2881 2937 
Q 2716 3084 2419 3084 
Q 1956 3084 1622 2776 
Q 1288 2469 1184 1941 
L 800 0 
L 225 0 
L 903 3500 
L 1478 3500 
L 1363 2950 
Q 1603 3253 1940 3418 
Q 2278 3584 2650 3584 
Q 3113 3584 3367 3334 
Q 3622 3084 3622 2631 
Q 3622 2519 3608 2391 
Q 3594 2263 3566 2113 
z
" transform="scale(0.015625)"/>
      <path id="DejaVuSans-Oblique-20" transform="scale(0.015625)"/>
      <path id="DejaVuSans-Oblique-53" d="M 3859 4513 
L 3738 3897 
Q 3422 4066 3111 4152 
Q 2800 4238 2509 4238 
Q 1944 4238 1609 3991 
Q 1275 3744 1275 3334 
Q 1275 3109 1398 2989 
Q 1522 2869 2034 2731 
L 2413 2638 
Q 3053 2472 3303 2217 
Q 3553 1963 3553 1503 
Q 3553 797 2998 353 
Q 2444 -91 1538 -91 
Q 1166 -91 791 -17 
Q 416 56 38 206 
L 166 856 
Q 513 641 861 531 
Q 1209 422 1556 422 
Q 2147 422 2503 684 
Q 2859 947 2859 1369 
Q 2859 1650 2717 1795 
Q 2575 1941 2106 2059 
L 1728 2156 
Q 1081 2325 845 2545 
Q 609 2766 609 3163 
Q 609 3859 1145 4304 
Q 1681 4750 2541 4750 
Q 2875 4750 3203 4690 
Q 3531 4631 3859 4513 
z
" transform="scale(0.015625)"/>
      <path id="DejaVuSans-Oblique-61" d="M 3438 1997 
L 3047 0 
L 2472 0 
L 2578 531 
Q 2325 219 2001 64 
Q 1678 -91 1281 -91 
Q 834 -91 548 182 
Q 263 456 263 884 
Q 263 1497 752 1853 
Q 1241 2209 2100 2209 
L 2900 2209 
L 2931 2363 
Q 2938 2388 2941 2417 
Q 2944 2447 2944 2509 
Q 2944 2788 2717 2942 
Q 2491 3097 2081 3097 
Q 1800 3097 1504 3025 
Q 1209 2953 897 2809 
L 997 3341 
Q 1322 3463 1633 3523 
Q 1944 3584 2234 3584 
Q 2853 3584 3176 3315 
Q 3500 3047 3500 2534 
Q 3500 2431 3484 2292 
Q 3469 2153 3438 1997 
z
M 2816 1759 
L 2241 1759 
Q 1534 1759 1195 1570 
Q 856 1381 856 984 
Q 856 709 1029 553 
Q 1203 397 1509 397 
Q 1978 397 2328 733 
Q 2678 1069 2791 1631 
L 2816 1759 
z
" transform="scale(0.015625)"/>
     </defs>
     <use xlink:href="#DejaVuSans-Oblique-22"/>
     <use xlink:href="#DejaVuSans-Oblique-45" transform="translate(45.996094 0)"/>
     <use xlink:href="#DejaVuSans-Oblique-6c" transform="translate(109.179688 0)"/>
     <use xlink:href="#DejaVuSans-Oblique-65" transform="translate(136.962891 0)"/>
     <use xlink:href="#DejaVuSans-Oblique-63" transform="translate(198.486328 0)"/>
     <use xlink:href="#DejaVuSans-Oblique-74" transform="translate(253.466797 0)"/>
     <use xlink:href="#DejaVuSans-Oblique-72" transform="translate(292.675781 0)"/>
     <use xlink:href="#DejaVuSans-Oblique-6f" transform="translate(333.789062 0)"/>
     <use xlink:href="#DejaVuSans-Oblique-6e" transform="translate(394.970703 0)"/>
     <use xlink:href="#DejaVuSans-Oblique-20" transform="translate(458.349609 0)"/>
     <use xlink:href="#DejaVuSans-Oblique-53" transform="translate(490.136719 0)"/>
     <use xlink:href="#DejaVuSans-Oblique-65" transform="translate(553.613281 0)"/>
     <use xlink:href="#DejaVuSans-Oblique-61" transform="translate(615.136719 0)"/>
     <use xlink:href="#DejaVuSans-Oblique-22" transform="translate(676.416016 0)"/>
    </g>
   </g>
   <g id="text_22">
    <!-- Metal cations in a "sea" of delocalized electrons -->
    <g transform="translate(164.497656 417.064212) scale(0.1 -0.1)">
     <defs>
      <path id="DejaVuSans-65" d="M 3597 1894 
L 3597 1613 
L 953 1613 
Q 991 1019 1311 708 
Q 1631 397 2203 397 
Q 2534 397 2845 478 
Q 3156 559 3463 722 
L 3463 178 
Q 3153 47 2828 -22 
Q 2503 -91 2169 -91 
Q 1331 -91 842 396 
Q 353 884 353 1716 
Q 353 2575 817 3079 
Q 1281 3584 2069 3584 
Q 2775 3584 3186 3129 
Q 3597 2675 3597 1894 
z
M 3022 2063 
Q 3016 2534 2758 2815 
Q 2500 3097 2075 3097 
Q 1594 3097 1305 2825 
Q 1016 2553 972 2059 
L 3022 2063 
z
" transform="scale(0.015625)"/>
      <path id="DejaVuSans-74" d="M 1172 4494 
L 1172 3500 
L 2356 3500 
L 2356 3053 
L 1172 3053 
L 1172 1153 
Q 1172 725 1289 603 
Q 1406 481 1766 481 
L 2356 481 
L 2356 0 
L 1766 0 
Q 1100 0 847 248 
Q 594 497 594 1153 
L 594 3053 
L 172 3053 
L 172 3500 
L 594 3500 
L 594 4494 
L 1172 4494 
z
" transform="scale(0.015625)"/>
      <path id="DejaVuSans-61" d="M 2194 1759 
Q 1497 1759 1228 1600 
Q 959 1441 959 1056 
Q 959 750 1161 570 
Q 1363 391 1709 391 
Q 2188 391 2477 730 
Q 2766 1069 2766 1631 
L 2766 1759 
L 2194 1759 
z
M 3341 1997 
L 3341 0 
L 2766 0 
L 2766 531 
Q 2569 213 2275 61 
Q 1981 -91 1556 -91 
Q 1019 -91 701 211 
Q 384 513 384 1019 
Q 384 1609 779 1909 
Q 1175 2209 1959 2209 
L 2766 2209 
L 2766 2266 
Q 2766 2663 2505 2880 
Q 2244 3097 1772 3097 
Q 1472 3097 1187 3025 
Q 903 2953 641 2809 
L 641 3341 
Q 956 3463 1253 3523 
Q 1550 3584 1831 3584 
Q 2591 3584 2966 3190 
Q 3341 2797 3341 1997 
z
" transform="scale(0.015625)"/>
      <path id="DejaVuSans-6c" d="M 603 4863 
L 1178 4863 
L 1178 0 
L 603 0 
L 603 4863 
z
" transform="scale(0.015625)"/>
      <path id="DejaVuSans-20" transform="scale(0.015625)"/>
      <path id="DejaVuSans-63" d="M 3122 3366 
L 3122 2828 
Q 2878 2963 2633 3030 
Q 2388 3097 2138 3097 
Q 1578 3097 1268 2742 
Q 959 2388 959 1747 
Q 959 1106 1268 751 
Q 1578 397 2138 397 
Q 2388 397 2633 464 
Q 2878 531 3122 666 
L 3122 134 
Q 2881 22 2623 -34 
Q 2366 -91 2075 -91 
Q 1284 -91 818 406 
Q 353 903 353 1747 
Q 353 2603 823 3093 
Q 1294 3584 2113 3584 
Q 2378 3584 2631 3529 
Q 2884 3475 3122 3366 
z
" transform="scale(0.015625)"/>
      <path id="DejaVuSans-69" d="M 603 3500 
L 1178 3500 
L 1178 0 
L 603 0 
L 603 3500 
z
M 603 4863 
L 1178 4863 
L 1178 4134 
L 603 4134 
L 603 4863 
z
" transform="scale(0.015625)"/>
      <path id="DejaVuSans-6f" d="M 1959 3097 
Q 1497 3097 1228 2736 
Q 959 2375 959 1747 
Q 959 1119 1226 758 
Q 1494 397 1959 397 
Q 2419 397 2687 759 
Q 2956 1122 2956 1747 
Q 2956 2369 2687 2733 
Q 2419 3097 1959 3097 
z
M 1959 3584 
Q 2709 3584 3137 3096 
Q 3566 2609 3566 1747 
Q 3566 888 3137 398 
Q 2709 -91 1959 -91 
Q 1206 -91 779 398 
Q 353 888 353 1747 
Q 353 2609 779 3096 
Q 1206 3584 1959 3584 
z
" transform="scale(0.015625)"/>
      <path id="DejaVuSans-6e" d="M 3513 2113 
L 3513 0 
L 2938 0 
L 2938 2094 
Q 2938 2591 2744 2837 
Q 2550 3084 2163 3084 
Q 1697 3084 1428 2787 
Q 1159 2491 1159 1978 
L 1159 0 
L 581 0 
L 581 3500 
L 1159 3500 
L 1159 2956 
Q 1366 3272 1645 3428 
Q 1925 3584 2291 3584 
Q 2894 3584 3203 3211 
Q 3513 2838 3513 2113 
z
" transform="scale(0.015625)"/>
      <path id="DejaVuSans-73" d="M 2834 3397 
L 2834 2853 
Q 2591 2978 2328 3040 
Q 2066 3103 1784 3103 
Q 1356 3103 1142 2972 
Q 928 2841 928 2578 
Q 928 2378 1081 2264 
Q 1234 2150 1697 2047 
L 1894 2003 
Q 2506 1872 2764 1633 
Q 3022 1394 3022 966 
Q 3022 478 2636 193 
Q 2250 -91 1575 -91 
Q 1294 -91 989 -36 
Q 684 19 347 128 
L 347 722 
Q 666 556 975 473 
Q 1284 391 1588 391 
Q 1994 391 2212 530 
Q 2431 669 2431 922 
Q 2431 1156 2273 1281 
Q 2116 1406 1581 1522 
L 1381 1569 
Q 847 1681 609 1914 
Q 372 2147 372 2553 
Q 372 3047 722 3315 
Q 1072 3584 1716 3584 
Q 2034 3584 2315 3537 
Q 2597 3491 2834 3397 
z
" transform="scale(0.015625)"/>
      <path id="DejaVuSans-22" d="M 1147 4666 
L 1147 2931 
L 616 2931 
L 616 4666 
L 1147 4666 
z
M 2328 4666 
L 2328 2931 
L 1797 2931 
L 1797 4666 
L 2328 4666 
z
" transform="scale(0.015625)"/>
      <path id="DejaVuSans-66" d="M 2375 4863 
L 2375 4384 
L 1825 4384 
Q 1516 4384 1395 4259 
Q 1275 4134 1275 3809 
L 1275 3500 
L 2222 3500 
L 2222 3053 
L 1275 3053 
L 1275 0 
L 697 0 
L 697 3053 
L 147 3053 
L 147 3500 
L 697 3500 
L 697 3744 
Q 697 4328 969 4595 
Q 1241 4863 1831 4863 
L 2375 4863 
z
" transform="scale(0.015625)"/>
      <path id="DejaVuSans-64" d="M 2906 2969 
L 2906 4863 
L 3481 4863 
L 3481 0 
L 2906 0 
L 2906 525 
Q 2725 213 2448 61 
Q 2172 -91 1784 -91 
Q 1150 -91 751 415 
Q 353 922 353 1747 
Q 353 2572 751 3078 
Q 1150 3584 1784 3584 
Q 2172 3584 2448 3432 
Q 2725 3281 2906 2969 
z
M 947 1747 
Q 947 1113 1208 752 
Q 1469 391 1925 391 
Q 2381 391 2643 752 
Q 2906 1113 2906 1747 
Q 2906 2381 2643 2742 
Q 2381 3103 1925 3103 
Q 1469 3103 1208 2742 
Q 947 2381 947 1747 
z
" transform="scale(0.015625)"/>
      <path id="DejaVuSans-7a" d="M 353 3500 
L 3084 3500 
L 3084 2975 
L 922 459 
L 3084 459 
L 3084 0 
L 275 0 
L 275 525 
L 2438 3041 
L 353 3041 
L 353 3500 
z
" transform="scale(0.015625)"/>
      <path id="DejaVuSans-72" d="M 2631 2963 
Q 2534 3019 2420 3045 
Q 2306 3072 2169 3072 
Q 1681 3072 1420 2755 
Q 1159 2438 1159 1844 
L 1159 0 
L 581 0 
L 581 3500 
L 1159 3500 
L 1159 2956 
Q 1341 3275 1631 3429 
Q 1922 3584 2338 3584 
Q 2397 3584 2469 3576 
Q 2541 3569 2628 3553 
L 2631 2963 
z
" transform="scale(0.015625)"/>
     </defs>
     <use xlink:href="#DejaVuSans-4d"/>
     <use xlink:href="#DejaVuSans-65" transform="translate(86.279297 0)"/>
     <use xlink:href="#DejaVuSans-74" transform="translate(147.802734 0)"/>
     <use xlink:href="#DejaVuSans-61" transform="translate(187.011719 0)"/>
     <use xlink:href="#DejaVuSans-6c" transform="translate(248.291016 0)"/>
     <use xlink:href="#DejaVuSans-20" transform="translate(276.074219 0)"/>
     <use xlink:href="#DejaVuSans-63" transform="translate(307.861328 0)"/>
     <use xlink:href="#DejaVuSans-61" transform="translate(362.841797 0)"/>
     <use xlink:href="#DejaVuSans-74" transform="translate(424.121094 0)"/>
     <use xlink:href="#DejaVuSans-69" transform="translate(463.330078 0)"/>
     <use xlink:href="#DejaVuSans-6f" transform="translate(491.113281 0)"/>
     <use xlink:href="#DejaVuSans-6e" transform="translate(552.294922 0)"/>
     <use xlink:href="#DejaVuSans-73" transform="translate(615.673828 0)"/>
     <use xlink:href="#DejaVuSans-20" transform="translate(667.773438 0)"/>
     <use xlink:href="#DejaVuSans-69" transform="translate(699.560547 0)"/>
     <use xlink:href="#DejaVuSans-6e" transform="translate(727.34375 0)"/>
     <use xlink:href="#DejaVuSans-20" transform="translate(790.722656 0)"/>
     <use xlink:href="#DejaVuSans-61" transform="translate(822.509766 0)"/>
     <use xlink:href="#DejaVuSans-20" transform="translate(883.789062 0)"/>
     <use xlink:href="#DejaVuSans-22" transform="translate(915.576172 0)"/>
     <use xlink:href="#DejaVuSans-73" transform="translate(961.572266 0)"/>
     <use xlink:href="#DejaVuSans-65" transform="translate(1013.671875 0)"/>
     <use xlink:href="#DejaVuSans-61" transform="translate(1075.195312 0)"/>
     <use xlink:href="#DejaVuSans-22" transform="translate(1136.474609 0)"/>
     <use xlink:href="#DejaVuSans-20" transform="translate(1182.470703 0)"/>
     <use xlink:href="#DejaVuSans-6f" transform="translate(1214.257812 0)"/>
     <use xlink:href="#DejaVuSans-66" transform="translate(1275.439453 0)"/>
     <use xlink:href="#DejaVuSans-20" transform="translate(1310.644531 0)"/>
     <use xlink:href="#DejaVuSans-64" transform="translate(1342.431641 0)"/>
     <use xlink:href="#DejaVuSans-65" transform="translate(1405.908203 0)"/>
     <use xlink:href="#DejaVuSans-6c" transform="translate(1467.431641 0)"/>
     <use xlink:href="#DejaVuSans-6f" transform="translate(1495.214844 0)"/>
     <use xlink:href="#DejaVuSans-63" transform="translate(1556.396484 0)"/>
     <use xlink:href="#DejaVuSans-61" transform="translate(1611.376953 0)"/>
     <use xlink:href="#DejaVuSans-6c" transform="translate(1672.65625 0)"/>
     <use xlink:href="#DejaVuSans-69" transform="translate(1700.439453 0)"/>
     <use xlink:href="#DejaVuSans-7a" transform="translate(1728.222656 0)"/>
     <use xlink:href="#DejaVuSans-65" transform="translate(1780.712891 0)"/>
     <use xlink:href="#DejaVuSans-64" transform="translate(1842.236328 0)"/>
     <use xlink:href="#DejaVuSans-20" transform="translate(1905.712891 0)"/>
     <use xlink:href="#DejaVuSans-65" transform="translate(1937.5 0)"/>
     <use xlink:href="#DejaVuSans-6c" transform="translate(1999.023438 0)"/>
     <use xlink:href="#DejaVuSans-65" transform="translate(2026.806641 0)"/>
     <use xlink:href="#DejaVuSans-63" transform="translate(2088.330078 0)"/>
     <use xlink:href="#DejaVuSans-74" transform="translate(2143.310547 0)"/>
     <use xlink:href="#DejaVuSans-72" transform="translate(2182.519531 0)"/>
     <use xlink:href="#DejaVuSans-6f" transform="translate(2221.382812 0)"/>
     <use xlink:href="#DejaVuSans-6e" transform="translate(2282.564453 0)"/>
     <use xlink:href="#DejaVuSans-73" transform="translate(2345.943359 0)"/>
    </g>
   </g>
   <g id="text_23">
    <!-- Metallic Bonding -->
    <g transform="translate(226.320781 17.837812) scale(0.14 -0.14)">
     <defs>
      <path id="DejaVuSans-42" d="M 1259 2228 
L 1259 519 
L 2272 519 
Q 2781 519 3026 730 
Q 3272 941 3272 1375 
Q 3272 1813 3026 2020 
Q 2781 2228 2272 2228 
L 1259 2228 
z
M 1259 4147 
L 1259 2741 
L 2194 2741 
Q 2656 2741 2882 2914 
Q 3109 3088 3109 3444 
Q 3109 3797 2882 3972 
Q 2656 4147 2194 4147 
L 1259 4147 
z
M 628 4666 
L 2241 4666 
Q 2963 4666 3353 4366 
Q 3744 4066 3744 3513 
Q 3744 3084 3544 2831 
Q 3344 2578 2956 2516 
Q 3422 2416 3680 2098 
Q 3938 1781 3938 1306 
Q 3938 681 3513 340 
Q 3088 0 2303 0 
L 628 0 
L 628 4666 
z
" transform="scale(0.015625)"/>
      <path id="DejaVuSans-67" d="M 2906 1791 
Q 2906 2416 2648 2759 
Q 2391 3103 1925 3103 
Q 1463 3103 1205 2759 
Q 947 2416 947 1791 
Q 947 1169 1205 825 
Q 1463 481 1925 481 
Q 2391 481 2648 825 
Q 2906 1169 2906 1791 
z
M 3481 434 
Q 3481 -459 3084 -895 
Q 2688 -1331 1869 -1331 
Q 1566 -1331 1297 -1286 
Q 1028 -1241 775 -1147 
L 775 -588 
Q 1028 -725 1275 -790 
Q 1522 -856 1778 -856 
Q 2344 -856 2625 -561 
Q 2906 -266 2906 331 
L 2906 616 
Q 2728 306 2450 153 
Q 2172 0 1784 0 
Q 1141 0 747 490 
Q 353 981 353 1791 
Q 353 2603 747 3093 
Q 1141 3584 1784 3584 
Q 2172 3584 2450 3431 
Q 2728 3278 2906 2969 
L 2906 3500 
L 3481 3500 
L 3481 434 
z
" transform="scale(0.015625)"/>
     </defs>
     <use xlink:href="#DejaVuSans-4d"/>
     <use xlink:href="#DejaVuSans-65" transform="translate(86.279297 0)"/>
     <use xlink:href="#DejaVuSans-74" transform="translate(147.802734 0)"/>
     <use xlink:href="#DejaVuSans-61" transform="translate(187.011719 0)"/>
     <use xlink:href="#DejaVuSans-6c" transform="translate(248.291016 0)"/>
     <use xlink:href="#DejaVuSans-6c" transform="translate(276.074219 0)"/>
     <use xlink:href="#DejaVuSans-69" transform="translate(303.857422 0)"/>
     <use xlink:href="#DejaVuSans-63" transform="translate(331.640625 0)"/>
     <use xlink:href="#DejaVuSans-20" transform="translate(386.621094 0)"/>
     <use xlink:href="#DejaVuSans-42" transform="translate(418.408203 0)"/>
     <use xlink:href="#DejaVuSans-6f" transform="translate(487.011719 0)"/>
     <use xlink:href="#DejaVuSans-6e" transform="translate(548.193359 0)"/>
     <use xlink:href="#DejaVuSans-64" transform="translate(611.572266 0)"/>
     <use xlink:href="#DejaVuSans-69" transform="translate(675.048828 0)"/>
     <use xlink:href="#DejaVuSans-6e" transform="translate(702.832031 0)"/>
     <use xlink:href="#DejaVuSans-67" transform="translate(766.210938 0)"/>
    </g>
   </g>
  </g>
 </g>
 <defs>
  <clipPath id="pf47aa47605">
   <rect x="7.2" y="32.837812" width="554.4" height="371.832"/>
  </clipPath>
 </defs>
</svg>
