<?xml version="1.0" encoding="utf-8" standalone="no"?>
<!DOCTYPE svg PUBLIC "-//W3C//DTD SVG 1.1//EN"
  "http://www.w3.org/Graphics/SVG/1.1/DTD/svg11.dtd">
<svg xmlns:xlink="http://www.w3.org/1999/xlink" width="568.8pt" height="352.877812pt" viewBox="0 0 568.8 352.877812" xmlns="http://www.w3.org/2000/svg" version="1.1">
 <metadata>
  <rdf:RDF xmlns:dc="http://purl.org/dc/elements/1.1/" xmlns:cc="http://creativecommons.org/ns#" xmlns:rdf="http://www.w3.org/1999/02/22-rdf-syntax-ns#">
   <cc:Work>
    <dc:type rdf:resource="http://purl.org/dc/dcmitype/StillImage"/>
    <dc:date>2026-01-02T18:08:09.321660</dc:date>
    <dc:format>image/svg+xml</dc:format>
    <dc:creator>
     <cc:Agent>
      <dc:title>Matplotlib v3.10.8, https://matplotlib.org/</dc:title>
     </cc:Agent>
    </dc:creator>
   </cc:Work>
  </rdf:RDF>
 </metadata>
 <defs>
  <style type="text/css">*{stroke-linejoin: round; stroke-linecap: butt}</style>
 </defs>
 <g id="figure_1">
  <g id="patch_1">
   <path d="M 0 352.877812 
L 568.8 352.877812 
L 568.8 0 
L 0 0 
z
" style="fill: #ffffff"/>
  </g>
  <g id="axes_1">
   <g id="patch_2">
    <path d="M 145.8 208.028212 
C 151.313572 208.028212 156.602066 206.050445 160.50075 202.53049 
C 164.399434 199.010535 166.59 194.235781 166.59 189.257812 
C 166.59 184.279844 164.399434 179.50509 160.50075 175.985135 
C 156.602066 172.46518 151.313572 170.487412 145.8 170.487412 
C 140.286428 170.487412 134.997934 172.46518 131.09925 175.985135 
C 127.200566 179.50509 125.01 184.279844 125.01 189.257812 
C 125.01 194.235781 127.200566 199.010535 131.09925 202.53049 
C 134.997934 206.050445 140.286428 208.028212 145.8 208.028212 
z
" clip-path="url(#pc71b35c503)" style="fill: #95a5a6; opacity: 0.9; stroke: #95a5a6; stroke-width: 1.5; stroke-linejoin: miter"/>
   </g>
   <g id="patch_3">
    <path d="M 90.36 154.845412 
C 93.116786 154.845412 95.761033 153.856529 97.710375 152.096551 
C 99.659717 150.336574 100.755 147.949197 100.755 145.460212 
C 100.755 142.971228 99.659717 140.583851 97.710375 138.823874 
C 95.761033 137.063896 93.116786 136.075012 90.36 136.075012 
C 87.603214 136.075012 84.958967 137.063896 83.009625 138.823874 
C 81.060283 140.583851 79.965 142.971228 79.965 145.460212 
C 79.965 147.949197 81.060283 150.336574 83.009625 152.096551 
C 84.958967 153.856529 87.603214 154.845412 90.36 154.845412 
z
" clip-path="url(#pc71b35c503)" style="fill: #e74c3c; opacity: 0.9; stroke: #e74c3c; stroke-width: 1.5; stroke-linejoin: miter"/>
   </g>
   <g id="patch_4">
    <path d="M 90.36 242.440612 
C 93.116786 242.440612 95.761033 241.451729 97.710375 239.691751 
C 99.659717 237.931774 100.755 235.544397 100.755 233.055412 
C 100.755 230.566428 99.659717 228.179051 97.710375 226.419074 
C 95.761033 224.659096 93.116786 223.670212 90.36 223.670212 
C 87.603214 223.670212 84.958967 224.659096 83.009625 226.419074 
C 81.060283 228.179051 79.965 230.566428 79.965 233.055412 
C 79.965 235.544397 81.060283 237.931774 83.009625 239.691751 
C 84.958967 241.451729 87.603214 242.440612 90.36 242.440612 
z
" clip-path="url(#pc71b35c503)" style="fill: #e74c3c; opacity: 0.9; stroke: #e74c3c; stroke-width: 1.5; stroke-linejoin: miter"/>
   </g>
   <g id="patch_5">
    <path d="M 111.15 196.765972 
C 113.355429 196.765972 115.470826 195.974865 117.0303 194.566883 
C 118.589774 193.158901 119.466 191.249 119.466 189.257812 
C 119.466 187.266625 118.589774 185.356724 117.0303 183.948742 
C 115.470826 182.54076 113.355429 181.749652 111.15 181.749652 
C 108.944571 181.749652 106.829174 182.54076 105.2697 183.948742 
C 103.710226 185.356724 102.834 187.266625 102.834 189.257812 
C 102.834 191.249 103.710226 193.158901 105.2697 194.566883 
C 106.829174 195.974865 108.944571 196.765972 111.15 196.765972 
z
" clip-path="url(#pc71b35c503)" style="fill: #e74c3c; opacity: 0.7; stroke: #e74c3c; stroke-width: 1.5; stroke-linejoin: miter"/>
   </g>
   <g id="patch_6">
    <path d="M 284.4 208.028212 
C 289.913572 208.028212 295.202066 206.050445 299.10075 202.53049 
C 302.999434 199.010535 305.19 194.235781 305.19 189.257812 
C 305.19 184.279844 302.999434 179.50509 299.10075 175.985135 
C 295.202066 172.46518 289.913572 170.487412 284.4 170.487412 
C 278.886428 170.487412 273.597934 172.46518 269.69925 175.985135 
C 265.800566 179.50509 263.61 184.279844 263.61 189.257812 
C 263.61 194.235781 265.800566 199.010535 269.69925 202.53049 
C 273.597934 206.050445 278.886428 208.028212 284.4 208.028212 
z
" clip-path="url(#pc71b35c503)" style="fill: #95a5a6; opacity: 0.9; stroke: #95a5a6; stroke-width: 1.5; stroke-linejoin: miter"/>
   </g>
   <g id="patch_7">
    <path d="M 284.4 136.075012 
C 287.156786 136.075012 289.801033 135.086129 291.750375 133.326151 
C 293.699717 131.566174 294.795 129.178797 294.795 126.689812 
C 294.795 124.200828 293.699717 121.813451 291.750375 120.053474 
C 289.801033 118.293496 287.156786 117.304612 284.4 117.304612 
C 281.643214 117.304612 278.998967 118.293496 277.049625 120.053474 
C 275.100283 121.813451 274.005 124.200828 274.005 126.689812 
C 274.005 129.178797 275.100283 131.566174 277.049625 133.326151 
C 278.998967 135.086129 281.643214 136.075012 284.4 136.075012 
z
" clip-path="url(#pc71b35c503)" style="fill: #e74c3c; opacity: 0.9; stroke: #e74c3c; stroke-width: 1.5; stroke-linejoin: miter"/>
   </g>
   <g id="patch_8">
    <path d="M 284.4 261.211012 
C 287.156786 261.211012 289.801033 260.222129 291.750375 258.462151 
C 293.699717 256.702174 294.795 254.314797 294.795 251.825812 
C 294.795 249.336828 293.699717 246.949451 291.750375 245.189474 
C 289.801033 243.429496 287.156786 242.440612 284.4 242.440612 
C 281.643214 242.440612 278.998967 243.429496 277.049625 245.189474 
C 275.100283 246.949451 274.005 249.336828 274.005 251.825812 
C 274.005 254.314797 275.100283 256.702174 277.049625 258.462151 
C 278.998967 260.222129 281.643214 261.211012 284.4 261.211012 
z
" clip-path="url(#pc71b35c503)" style="fill: #e74c3c; opacity: 0.9; stroke: #e74c3c; stroke-width: 1.5; stroke-linejoin: miter"/>
   </g>
   <g id="patch_9">
    <path d="M 423 211.156612 
C 429.432501 211.156612 435.60241 208.849217 440.150875 204.742602 
C 444.69934 200.635988 447.255 195.065442 447.255 189.257812 
C 447.255 183.450183 444.69934 177.879637 440.150875 173.773023 
C 435.60241 169.666408 429.432501 167.359012 423 167.359012 
C 416.567499 167.359012 410.39759 169.666408 405.849125 173.773023 
C 401.30066 177.879637 398.745 183.450183 398.745 189.257812 
C 398.745 195.065442 401.30066 200.635988 405.849125 204.742602 
C 410.39759 208.849217 416.567499 211.156612 423 211.156612 
z
" clip-path="url(#pc71b35c503)" style="fill: #3498db; opacity: 0.9; stroke: #3498db; stroke-width: 1.5; stroke-linejoin: miter"/>
   </g>
   <g id="patch_10">
    <path d="M 492.3 154.845412 
C 495.056786 154.845412 497.701033 153.856529 499.650375 152.096551 
C 501.599717 150.336574 502.695 147.949197 502.695 145.460212 
C 502.695 142.971228 501.599717 140.583851 499.650375 138.823874 
C 497.701033 137.063896 495.056786 136.075012 492.3 136.075012 
C 489.543214 136.075012 486.898967 137.063896 484.949625 138.823874 
C 483.000283 140.583851 481.905 142.971228 481.905 145.460212 
C 481.905 147.949197 483.000283 150.336574 484.949625 152.096551 
C 486.898967 153.856529 489.543214 154.845412 492.3 154.845412 
z
" clip-path="url(#pc71b35c503)" style="fill: #e74c3c; opacity: 0.9; stroke: #e74c3c; stroke-width: 1.5; stroke-linejoin: miter"/>
   </g>
   <g id="line2d_1">
    <path d="M 125.01 176.118532 
L 97.29 149.839972 
" clip-path="url(#pc71b35c503)" style="fill: none; stroke: #2ecc71; stroke-width: 1.5; stroke-linecap: square"/>
   </g>
   <g id="line2d_2">
    <path d="M 125.01 202.397092 
L 97.29 228.675652 
" clip-path="url(#pc71b35c503)" style="fill: none; stroke: #2ecc71; stroke-width: 1.5; stroke-linecap: square"/>
   </g>
   <g id="line2d_3">
    <path d="M 166.59 189.257812 
L 263.61 189.257812 
" clip-path="url(#pc71b35c503)" style="fill: none; stroke: #2ecc71; stroke-width: 2.5; stroke-linecap: square"/>
   </g>
   <g id="line2d_4">
    <path d="M 284.4 170.487412 
L 284.4 136.075012 
" clip-path="url(#pc71b35c503)" style="fill: none; stroke: #2ecc71; stroke-width: 1.5; stroke-linecap: square"/>
   </g>
   <g id="line2d_5">
    <path d="M 284.4 208.028212 
L 284.4 242.440612 
" clip-path="url(#pc71b35c503)" style="fill: none; stroke: #2ecc71; stroke-width: 1.5; stroke-linecap: square"/>
   </g>
   <g id="line2d_6">
    <path d="M 305.19 189.257812 
L 398.745 189.257812 
" clip-path="url(#pc71b35c503)" style="fill: none; stroke: #2ecc71; stroke-width: 2.5; stroke-linecap: square"/>
   </g>
   <g id="line2d_7">
    <path d="M 440.325 173.615812 
L 485.37 151.717012 
" clip-path="url(#pc71b35c503)" style="fill: none; stroke: #2ecc71; stroke-width: 1.5; stroke-linecap: square"/>
   </g>
   <g id="text_1">
    <!-- C -->
    <g style="fill: #ffffff" transform="translate(141.610312 192.569062) scale(0.12 -0.12)">
     <defs>
      <path id="DejaVuSans-43" d="M 4122 4306 
L 4122 3641 
Q 3803 3938 3442 4084 
Q 3081 4231 2675 4231 
Q 1875 4231 1450 3742 
Q 1025 3253 1025 2328 
Q 1025 1406 1450 917 
Q 1875 428 2675 428 
Q 3081 428 3442 575 
Q 3803 722 4122 1019 
L 4122 359 
Q 3791 134 3420 21 
Q 3050 -91 2638 -91 
Q 1578 -91 968 557 
Q 359 1206 359 2328 
Q 359 3453 968 4101 
Q 1578 4750 2638 4750 
Q 3056 4750 3426 4639 
Q 3797 4528 4122 4306 
z
" transform="scale(0.015625)"/>
     </defs>
     <use xlink:href="#DejaVuSans-43"/>
    </g>
   </g>
   <g id="text_2">
    <!-- H -->
    <g style="fill: #ffffff" transform="translate(87.351875 147.667712) scale(0.08 -0.08)">
     <defs>
      <path id="DejaVuSans-48" d="M 628 4666 
L 1259 4666 
L 1259 2753 
L 3553 2753 
L 3553 4666 
L 4184 4666 
L 4184 0 
L 3553 0 
L 3553 2222 
L 1259 2222 
L 1259 0 
L 628 0 
L 628 4666 
z
" transform="scale(0.015625)"/>
     </defs>
     <use xlink:href="#DejaVuSans-48"/>
    </g>
   </g>
   <g id="text_3">
    <!-- H -->
    <g style="fill: #ffffff" transform="translate(87.351875 235.262912) scale(0.08 -0.08)">
     <use xlink:href="#DejaVuSans-48"/>
    </g>
   </g>
   <g id="text_4">
    <!-- C -->
    <g style="fill: #ffffff" transform="translate(280.210312 192.569062) scale(0.12 -0.12)">
     <use xlink:href="#DejaVuSans-43"/>
    </g>
   </g>
   <g id="text_5">
    <!-- H -->
    <g style="fill: #ffffff" transform="translate(281.391875 128.897312) scale(0.08 -0.08)">
     <use xlink:href="#DejaVuSans-48"/>
    </g>
   </g>
   <g id="text_6">
    <!-- H -->
    <g style="fill: #ffffff" transform="translate(281.391875 254.033312) scale(0.08 -0.08)">
     <use xlink:href="#DejaVuSans-48"/>
    </g>
   </g>
   <g id="text_7">
    <!-- O -->
    <g style="fill: #ffffff" transform="translate(418.276875 192.569062) scale(0.12 -0.12)">
     <defs>
      <path id="DejaVuSans-4f" d="M 2522 4238 
Q 1834 4238 1429 3725 
Q 1025 3213 1025 2328 
Q 1025 1447 1429 934 
Q 1834 422 2522 422 
Q 3209 422 3611 934 
Q 4013 1447 4013 2328 
Q 4013 3213 3611 3725 
Q 3209 4238 2522 4238 
z
M 2522 4750 
Q 3503 4750 4090 4092 
Q 4678 3434 4678 2328 
Q 4678 1225 4090 567 
Q 3503 -91 2522 -91 
Q 1538 -91 948 565 
Q 359 1222 359 2328 
Q 359 3434 948 4092 
Q 1538 4750 2522 4750 
z
" transform="scale(0.015625)"/>
     </defs>
     <use xlink:href="#DejaVuSans-4f"/>
    </g>
   </g>
   <g id="text_8">
    <!-- H -->
    <g style="fill: #ffffff" transform="translate(489.291875 147.667712) scale(0.08 -0.08)">
     <use xlink:href="#DejaVuSans-48"/>
    </g>
   </g>
   <g id="text_9">
    <!-- : -->
    <g style="fill: #3498db" transform="translate(455.62875 220.541812) scale(0.12 -0.12)">
     <defs>
      <path id="DejaVuSans-3a" d="M 750 794 
L 1409 794 
L 1409 0 
L 750 0 
L 750 794 
z
M 750 3309 
L 1409 3309 
L 1409 2516 
L 750 2516 
L 750 3309 
z
" transform="scale(0.015625)"/>
     </defs>
     <use xlink:href="#DejaVuSans-3a"/>
    </g>
   </g>
   <g id="text_10">
    <!-- CH₃ -->
    <g style="fill: #2c3e50" transform="translate(138.395 82.892212) scale(0.08 -0.08)">
     <defs>
      <path id="DejaVuSans-2083" d="M 1638 1388 
Q 1925 1332 2083 1161 
Q 2241 991 2241 735 
Q 2241 347 1944 138 
Q 1647 -71 1094 -71 
Q 916 -71 720 -38 
Q 525 -6 306 57 
L 306 435 
Q 469 351 655 310 
Q 841 269 1050 269 
Q 1391 269 1578 392 
Q 1766 516 1766 735 
Q 1766 966 1592 1085 
Q 1419 1204 1081 1204 
L 813 1204 
L 813 1541 
L 1106 1541 
Q 1400 1541 1551 1639 
Q 1703 1738 1703 1926 
Q 1703 2107 1547 2202 
Q 1391 2297 1094 2297 
Q 969 2297 809 2269 
Q 650 2241 397 2169 
L 397 2529 
Q 625 2582 825 2610 
Q 1025 2638 1197 2638 
Q 1647 2638 1911 2453 
Q 2175 2269 2175 1960 
Q 2175 1744 2034 1594 
Q 1894 1444 1638 1388 
z
" transform="scale(0.015625)"/>
     </defs>
     <use xlink:href="#DejaVuSans-43"/>
     <use xlink:href="#DejaVuSans-48" transform="translate(69.824219 0)"/>
     <use xlink:href="#DejaVuSans-2083" transform="translate(145.019531 0)"/>
    </g>
   </g>
   <g id="text_11">
    <!-- CH₂ -->
    <g style="fill: #2c3e50" transform="translate(276.995 82.892212) scale(0.08 -0.08)">
     <defs>
      <path id="DejaVuSans-2082" d="M 838 332 
L 2163 332 
L 2163 -24 
L 294 -24 
L 294 319 
Q 400 416 597 591 
Q 1672 1544 1672 1838 
Q 1672 2044 1509 2170 
Q 1347 2297 1081 2297 
Q 919 2297 728 2242 
Q 538 2188 313 2079 
L 313 2463 
Q 553 2551 761 2594 
Q 969 2638 1147 2638 
Q 1600 2638 1872 2432 
Q 2144 2226 2144 1888 
Q 2144 1454 1109 566 
Q 934 416 838 332 
z
" transform="scale(0.015625)"/>
     </defs>
     <use xlink:href="#DejaVuSans-43"/>
     <use xlink:href="#DejaVuSans-48" transform="translate(69.824219 0)"/>
     <use xlink:href="#DejaVuSans-2082" transform="translate(145.019531 0)"/>
    </g>
   </g>
   <g id="text_12">
    <!-- OH -->
    <g style="fill: #2c3e50" transform="translate(451.493125 82.892212) scale(0.08 -0.08)">
     <use xlink:href="#DejaVuSans-4f"/>
     <use xlink:href="#DejaVuSans-48" transform="translate(78.710938 0)"/>
    </g>
   </g>
   <g id="text_13">
    <!-- Ethanol (C₂H₅OH) - Alcohol functional group -->
    <g transform="translate(175.190625 314.393812) scale(0.1 -0.1)">
     <defs>
      <path id="DejaVuSans-45" d="M 628 4666 
L 3578 4666 
L 3578 4134 
L 1259 4134 
L 1259 2753 
L 3481 2753 
L 3481 2222 
L 1259 2222 
L 1259 531 
L 3634 531 
L 3634 0 
L 628 0 
L 628 4666 
z
" transform="scale(0.015625)"/>
      <path id="DejaVuSans-74" d="M 1172 4494 
L 1172 3500 
L 2356 3500 
L 2356 3053 
L 1172 3053 
L 1172 1153 
Q 1172 725 1289 603 
Q 1406 481 1766 481 
L 2356 481 
L 2356 0 
L 1766 0 
Q 1100 0 847 248 
Q 594 497 594 1153 
L 594 3053 
L 172 3053 
L 172 3500 
L 594 3500 
L 594 4494 
L 1172 4494 
z
" transform="scale(0.015625)"/>
      <path id="DejaVuSans-68" d="M 3513 2113 
L 3513 0 
L 2938 0 
L 2938 2094 
Q 2938 2591 2744 2837 
Q 2550 3084 2163 3084 
Q 1697 3084 1428 2787 
Q 1159 2491 1159 1978 
L 1159 0 
L 581 0 
L 581 4863 
L 1159 4863 
L 1159 2956 
Q 1366 3272 1645 3428 
Q 1925 3584 2291 3584 
Q 2894 3584 3203 3211 
Q 3513 2838 3513 2113 
z
" transform="scale(0.015625)"/>
      <path id="DejaVuSans-61" d="M 2194 1759 
Q 1497 1759 1228 1600 
Q 959 1441 959 1056 
Q 959 750 1161 570 
Q 1363 391 1709 391 
Q 2188 391 2477 730 
Q 2766 1069 2766 1631 
L 2766 1759 
L 2194 1759 
z
M 3341 1997 
L 3341 0 
L 2766 0 
L 2766 531 
Q 2569 213 2275 61 
Q 1981 -91 1556 -91 
Q 1019 -91 701 211 
Q 384 513 384 1019 
Q 384 1609 779 1909 
Q 1175 2209 1959 2209 
L 2766 2209 
L 2766 2266 
Q 2766 2663 2505 2880 
Q 2244 3097 1772 3097 
Q 1472 3097 1187 3025 
Q 903 2953 641 2809 
L 641 3341 
Q 956 3463 1253 3523 
Q 1550 3584 1831 3584 
Q 2591 3584 2966 3190 
Q 3341 2797 3341 1997 
z
" transform="scale(0.015625)"/>
      <path id="DejaVuSans-6e" d="M 3513 2113 
L 3513 0 
L 2938 0 
L 2938 2094 
Q 2938 2591 2744 2837 
Q 2550 3084 2163 3084 
Q 1697 3084 1428 2787 
Q 1159 2491 1159 1978 
L 1159 0 
L 581 0 
L 581 3500 
L 1159 3500 
L 1159 2956 
Q 1366 3272 1645 3428 
Q 1925 3584 2291 3584 
Q 2894 3584 3203 3211 
Q 3513 2838 3513 2113 
z
" transform="scale(0.015625)"/>
      <path id="DejaVuSans-6f" d="M 1959 3097 
Q 1497 3097 1228 2736 
Q 959 2375 959 1747 
Q 959 1119 1226 758 
Q 1494 397 1959 397 
Q 2419 397 2687 759 
Q 2956 1122 2956 1747 
Q 2956 2369 2687 2733 
Q 2419 3097 1959 3097 
z
M 1959 3584 
Q 2709 3584 3137 3096 
Q 3566 2609 3566 1747 
Q 3566 888 3137 398 
Q 2709 -91 1959 -91 
Q 1206 -91 779 398 
Q 353 888 353 1747 
Q 353 2609 779 3096 
Q 1206 3584 1959 3584 
z
" transform="scale(0.015625)"/>
      <path id="DejaVuSans-6c" d="M 603 4863 
L 1178 4863 
L 1178 0 
L 603 0 
L 603 4863 
z
" transform="scale(0.015625)"/>
      <path id="DejaVuSans-20" transform="scale(0.015625)"/>
      <path id="DejaVuSans-28" d="M 1984 4856 
Q 1566 4138 1362 3434 
Q 1159 2731 1159 2009 
Q 1159 1288 1364 580 
Q 1569 -128 1984 -844 
L 1484 -844 
Q 1016 -109 783 600 
Q 550 1309 550 2009 
Q 550 2706 781 3412 
Q 1013 4119 1484 4856 
L 1984 4856 
z
" transform="scale(0.015625)"/>
      <path id="DejaVuSans-2085" d="M 444 2585 
L 2038 2585 
L 2038 2288 
L 816 2288 
L 816 1651 
Q 903 1679 994 1691 
Q 1081 1704 1169 1704 
Q 1672 1704 1966 1463 
Q 2259 1226 2259 816 
Q 2259 394 1956 160 
Q 1656 -71 1106 -71 
Q 919 -71 722 -43 
Q 525 -15 319 41 
L 319 394 
Q 497 310 691 266 
Q 884 226 1100 226 
Q 1447 226 1650 385 
Q 1853 544 1853 816 
Q 1853 1088 1650 1247 
Q 1447 1407 1100 1407 
Q 938 1407 775 1375 
Q 613 1344 444 1279 
L 444 2585 
z
" transform="scale(0.015625)"/>
      <path id="DejaVuSans-29" d="M 513 4856 
L 1013 4856 
Q 1481 4119 1714 3412 
Q 1947 2706 1947 2009 
Q 1947 1309 1714 600 
Q 1481 -109 1013 -844 
L 513 -844 
Q 928 -128 1133 580 
Q 1338 1288 1338 2009 
Q 1338 2731 1133 3434 
Q 928 4138 513 4856 
z
" transform="scale(0.015625)"/>
      <path id="DejaVuSans-2d" d="M 313 2009 
L 1997 2009 
L 1997 1497 
L 313 1497 
L 313 2009 
z
" transform="scale(0.015625)"/>
      <path id="DejaVuSans-41" d="M 2188 4044 
L 1331 1722 
L 3047 1722 
L 2188 4044 
z
M 1831 4666 
L 2547 4666 
L 4325 0 
L 3669 0 
L 3244 1197 
L 1141 1197 
L 716 0 
L 50 0 
L 1831 4666 
z
" transform="scale(0.015625)"/>
      <path id="DejaVuSans-63" d="M 3122 3366 
L 3122 2828 
Q 2878 2963 2633 3030 
Q 2388 3097 2138 3097 
Q 1578 3097 1268 2742 
Q 959 2388 959 1747 
Q 959 1106 1268 751 
Q 1578 397 2138 397 
Q 2388 397 2633 464 
Q 2878 531 3122 666 
L 3122 134 
Q 2881 22 2623 -34 
Q 2366 -91 2075 -91 
Q 1284 -91 818 406 
Q 353 903 353 1747 
Q 353 2603 823 3093 
Q 1294 3584 2113 3584 
Q 2378 3584 2631 3529 
Q 2884 3475 3122 3366 
z
" transform="scale(0.015625)"/>
      <path id="DejaVuSans-66" d="M 2375 4863 
L 2375 4384 
L 1825 4384 
Q 1516 4384 1395 4259 
Q 1275 4134 1275 3809 
L 1275 3500 
L 2222 3500 
L 2222 3053 
L 1275 3053 
L 1275 0 
L 697 0 
L 697 3053 
L 147 3053 
L 147 3500 
L 697 3500 
L 697 3744 
Q 697 4328 969 4595 
Q 1241 4863 1831 4863 
L 2375 4863 
z
" transform="scale(0.015625)"/>
      <path id="DejaVuSans-75" d="M 544 1381 
L 544 3500 
L 1119 3500 
L 1119 1403 
Q 1119 906 1312 657 
Q 1506 409 1894 409 
Q 2359 409 2629 706 
Q 2900 1003 2900 1516 
L 2900 3500 
L 3475 3500 
L 3475 0 
L 2900 0 
L 2900 538 
Q 2691 219 2414 64 
Q 2138 -91 1772 -91 
Q 1169 -91 856 284 
Q 544 659 544 1381 
z
M 1991 3584 
L 1991 3584 
z
" transform="scale(0.015625)"/>
      <path id="DejaVuSans-69" d="M 603 3500 
L 1178 3500 
L 1178 0 
L 603 0 
L 603 3500 
z
M 603 4863 
L 1178 4863 
L 1178 4134 
L 603 4134 
L 603 4863 
z
" transform="scale(0.015625)"/>
      <path id="DejaVuSans-67" d="M 2906 1791 
Q 2906 2416 2648 2759 
Q 2391 3103 1925 3103 
Q 1463 3103 1205 2759 
Q 947 2416 947 1791 
Q 947 1169 1205 825 
Q 1463 481 1925 481 
Q 2391 481 2648 825 
Q 2906 1169 2906 1791 
z
M 3481 434 
Q 3481 -459 3084 -895 
Q 2688 -1331 1869 -1331 
Q 1566 -1331 1297 -1286 
Q 1028 -1241 775 -1147 
L 775 -588 
Q 1028 -725 1275 -790 
Q 1522 -856 1778 -856 
Q 2344 -856 2625 -561 
Q 2906 -266 2906 331 
L 2906 616 
Q 2728 306 2450 153 
Q 2172 0 1784 0 
Q 1141 0 747 490 
Q 353 981 353 1791 
Q 353 2603 747 3093 
Q 1141 3584 1784 3584 
Q 2172 3584 2450 3431 
Q 2728 3278 2906 2969 
L 2906 3500 
L 3481 3500 
L 3481 434 
z
" transform="scale(0.015625)"/>
      <path id="DejaVuSans-72" d="M 2631 2963 
Q 2534 3019 2420 3045 
Q 2306 3072 2169 3072 
Q 1681 3072 1420 2755 
Q 1159 2438 1159 1844 
L 1159 0 
L 581 0 
L 581 3500 
L 1159 3500 
L 1159 2956 
Q 1341 3275 1631 3429 
Q 1922 3584 2338 3584 
Q 2397 3584 2469 3576 
Q 2541 3569 2628 3553 
L 2631 2963 
z
" transform="scale(0.015625)"/>
      <path id="DejaVuSans-70" d="M 1159 525 
L 1159 -1331 
L 581 -1331 
L 581 3500 
L 1159 3500 
L 1159 2969 
Q 1341 3281 1617 3432 
Q 1894 3584 2278 3584 
Q 2916 3584 3314 3078 
Q 3713 2572 3713 1747 
Q 3713 922 3314 415 
Q 2916 -91 2278 -91 
Q 1894 -91 1617 61 
Q 1341 213 1159 525 
z
M 3116 1747 
Q 3116 2381 2855 2742 
Q 2594 3103 2138 3103 
Q 1681 3103 1420 2742 
Q 1159 2381 1159 1747 
Q 1159 1113 1420 752 
Q 1681 391 2138 391 
Q 2594 391 2855 752 
Q 3116 1113 3116 1747 
z
" transform="scale(0.015625)"/>
     </defs>
     <use xlink:href="#DejaVuSans-45"/>
     <use xlink:href="#DejaVuSans-74" transform="translate(63.183594 0)"/>
     <use xlink:href="#DejaVuSans-68" transform="translate(102.392578 0)"/>
     <use xlink:href="#DejaVuSans-61" transform="translate(165.771484 0)"/>
     <use xlink:href="#DejaVuSans-6e" transform="translate(227.050781 0)"/>
     <use xlink:href="#DejaVuSans-6f" transform="translate(290.429688 0)"/>
     <use xlink:href="#DejaVuSans-6c" transform="translate(351.611328 0)"/>
     <use xlink:href="#DejaVuSans-20" transform="translate(379.394531 0)"/>
     <use xlink:href="#DejaVuSans-28" transform="translate(411.181641 0)"/>
     <use xlink:href="#DejaVuSans-43" transform="translate(450.195312 0)"/>
     <use xlink:href="#DejaVuSans-2082" transform="translate(520.019531 0)"/>
     <use xlink:href="#DejaVuSans-48" transform="translate(560.107422 0)"/>
     <use xlink:href="#DejaVuSans-2085" transform="translate(635.302734 0)"/>
     <use xlink:href="#DejaVuSans-4f" transform="translate(675.390625 0)"/>
     <use xlink:href="#DejaVuSans-48" transform="translate(754.101562 0)"/>
     <use xlink:href="#DejaVuSans-29" transform="translate(829.296875 0)"/>
     <use xlink:href="#DejaVuSans-20" transform="translate(868.310547 0)"/>
     <use xlink:href="#DejaVuSans-2d" transform="translate(900.097656 0)"/>
     <use xlink:href="#DejaVuSans-20" transform="translate(936.181641 0)"/>
     <use xlink:href="#DejaVuSans-41" transform="translate(967.96875 0)"/>
     <use xlink:href="#DejaVuSans-6c" transform="translate(1036.376953 0)"/>
     <use xlink:href="#DejaVuSans-63" transform="translate(1064.160156 0)"/>
     <use xlink:href="#DejaVuSans-6f" transform="translate(1119.140625 0)"/>
     <use xlink:href="#DejaVuSans-68" transform="translate(1180.322266 0)"/>
     <use xlink:href="#DejaVuSans-6f" transform="translate(1243.701172 0)"/>
     <use xlink:href="#DejaVuSans-6c" transform="translate(1304.882812 0)"/>
     <use xlink:href="#DejaVuSans-20" transform="translate(1332.666016 0)"/>
     <use xlink:href="#DejaVuSans-66" transform="translate(1364.453125 0)"/>
     <use xlink:href="#DejaVuSans-75" transform="translate(1399.658203 0)"/>
     <use xlink:href="#DejaVuSans-6e" transform="translate(1463.037109 0)"/>
     <use xlink:href="#DejaVuSans-63" transform="translate(1526.416016 0)"/>
     <use xlink:href="#DejaVuSans-74" transform="translate(1581.396484 0)"/>
     <use xlink:href="#DejaVuSans-69" transform="translate(1620.605469 0)"/>
     <use xlink:href="#DejaVuSans-6f" transform="translate(1648.388672 0)"/>
     <use xlink:href="#DejaVuSans-6e" transform="translate(1709.570312 0)"/>
     <use xlink:href="#DejaVuSans-61" transform="translate(1772.949219 0)"/>
     <use xlink:href="#DejaVuSans-6c" transform="translate(1834.228516 0)"/>
     <use xlink:href="#DejaVuSans-20" transform="translate(1862.011719 0)"/>
     <use xlink:href="#DejaVuSans-67" transform="translate(1893.798828 0)"/>
     <use xlink:href="#DejaVuSans-72" transform="translate(1957.275391 0)"/>
     <use xlink:href="#DejaVuSans-6f" transform="translate(1996.138672 0)"/>
     <use xlink:href="#DejaVuSans-75" transform="translate(2057.320312 0)"/>
     <use xlink:href="#DejaVuSans-70" transform="translate(2120.699219 0)"/>
    </g>
   </g>
   <g id="text_14">
    <!-- Ethanol Structure -->
    <g transform="translate(223.059219 17.837812) scale(0.14 -0.14)">
     <defs>
      <path id="DejaVuSans-53" d="M 3425 4513 
L 3425 3897 
Q 3066 4069 2747 4153 
Q 2428 4238 2131 4238 
Q 1616 4238 1336 4038 
Q 1056 3838 1056 3469 
Q 1056 3159 1242 3001 
Q 1428 2844 1947 2747 
L 2328 2669 
Q 3034 2534 3370 2195 
Q 3706 1856 3706 1288 
Q 3706 609 3251 259 
Q 2797 -91 1919 -91 
Q 1588 -91 1214 -16 
Q 841 59 441 206 
L 441 856 
Q 825 641 1194 531 
Q 1563 422 1919 422 
Q 2459 422 2753 634 
Q 3047 847 3047 1241 
Q 3047 1584 2836 1778 
Q 2625 1972 2144 2069 
L 1759 2144 
Q 1053 2284 737 2584 
Q 422 2884 422 3419 
Q 422 4038 858 4394 
Q 1294 4750 2059 4750 
Q 2388 4750 2728 4690 
Q 3069 4631 3425 4513 
z
" transform="scale(0.015625)"/>
      <path id="DejaVuSans-65" d="M 3597 1894 
L 3597 1613 
L 953 1613 
Q 991 1019 1311 708 
Q 1631 397 2203 397 
Q 2534 397 2845 478 
Q 3156 559 3463 722 
L 3463 178 
Q 3153 47 2828 -22 
Q 2503 -91 2169 -91 
Q 1331 -91 842 396 
Q 353 884 353 1716 
Q 353 2575 817 3079 
Q 1281 3584 2069 3584 
Q 2775 3584 3186 3129 
Q 3597 2675 3597 1894 
z
M 3022 2063 
Q 3016 2534 2758 2815 
Q 2500 3097 2075 3097 
Q 1594 3097 1305 2825 
Q 1016 2553 972 2059 
L 3022 2063 
z
" transform="scale(0.015625)"/>
     </defs>
     <use xlink:href="#DejaVuSans-45"/>
     <use xlink:href="#DejaVuSans-74" transform="translate(63.183594 0)"/>
     <use xlink:href="#DejaVuSans-68" transform="translate(102.392578 0)"/>
     <use xlink:href="#DejaVuSans-61" transform="translate(165.771484 0)"/>
     <use xlink:href="#DejaVuSans-6e" transform="translate(227.050781 0)"/>
     <use xlink:href="#DejaVuSans-6f" transform="translate(290.429688 0)"/>
     <use xlink:href="#DejaVuSans-6c" transform="translate(351.611328 0)"/>
     <use xlink:href="#DejaVuSans-20" transform="translate(379.394531 0)"/>
     <use xlink:href="#DejaVuSans-53" transform="translate(411.181641 0)"/>
     <use xlink:href="#DejaVuSans-74" transform="translate(474.658203 0)"/>
     <use xlink:href="#DejaVuSans-72" transform="translate(513.867188 0)"/>
     <use xlink:href="#DejaVuSans-75" transform="translate(554.980469 0)"/>
     <use xlink:href="#DejaVuSans-63" transform="translate(618.359375 0)"/>
     <use xlink:href="#DejaVuSans-74" transform="translate(673.339844 0)"/>
     <use xlink:href="#DejaVuSans-75" transform="translate(712.548828 0)"/>
     <use xlink:href="#DejaVuSans-72" transform="translate(775.927734 0)"/>
     <use xlink:href="#DejaVuSans-65" transform="translate(814.791016 0)"/>
    </g>
   </g>
  </g>
 </g>
 <defs>
  <clipPath id="pc71b35c503">
   <rect x="7.2" y="32.837812" width="554.4" height="312.84"/>
  </clipPath>
 </defs>
</svg>
