<?xml version="1.0" encoding="utf-8" standalone="no"?>
<!DOCTYPE svg PUBLIC "-//W3C//DTD SVG 1.1//EN"
  "http://www.w3.org/Graphics/SVG/1.1/DTD/svg11.dtd">
<svg xmlns:xlink="http://www.w3.org/1999/xlink" width="712.8pt" height="352.877812pt" viewBox="0 0 712.8 352.877812" xmlns="http://www.w3.org/2000/svg" version="1.1">
 <metadata>
  <rdf:RDF xmlns:dc="http://purl.org/dc/elements/1.1/" xmlns:cc="http://creativecommons.org/ns#" xmlns:rdf="http://www.w3.org/1999/02/22-rdf-syntax-ns#">
   <cc:Work>
    <dc:type rdf:resource="http://purl.org/dc/dcmitype/StillImage"/>
    <dc:date>2026-01-02T18:08:08.600845</dc:date>
    <dc:format>image/svg+xml</dc:format>
    <dc:creator>
     <cc:Agent>
      <dc:title>Matplotlib v3.10.8, https://matplotlib.org/</dc:title>
     </cc:Agent>
    </dc:creator>
   </cc:Work>
  </rdf:RDF>
 </metadata>
 <defs>
  <style type="text/css">*{stroke-linejoin: round; stroke-linecap: butt}</style>
 </defs>
 <g id="figure_1">
  <g id="patch_1">
   <path d="M 0 352.877812 
L 712.8 352.877812 
L 712.8 0 
L 0 0 
z
" style="fill: #ffffff"/>
  </g>
  <g id="axes_1">
   <g id="patch_2">
    <path d="M 111.96 226.798612 
C 123.073071 226.798612 133.732475 222.843077 141.590603 215.803167 
C 149.44873 208.763257 153.864 199.213749 153.864 189.257812 
C 153.864 179.301876 149.44873 169.752368 141.590603 162.712458 
C 133.732475 155.672548 123.073071 151.717012 111.96 151.717012 
C 100.846929 151.717012 90.187525 155.672548 82.329397 162.712458 
C 74.47127 169.752368 70.056 179.301876 70.056 189.257812 
C 70.056 199.213749 74.47127 208.763257 82.329397 215.803167 
C 90.187525 222.843077 100.846929 226.798612 111.96 226.798612 
z
" clip-path="url(#p4561331c7e)" style="fill: #e74c3c; opacity: 0.7; stroke: #e74c3c; stroke-width: 1.5; stroke-linejoin: miter"/>
   </g>
   <g id="patch_3">
    <path d="M 160.848 196.765972 
C 163.070614 196.765972 165.202495 195.974865 166.774121 194.566883 
C 168.345746 193.158901 169.2288 191.249 169.2288 189.257812 
C 169.2288 187.266625 168.345746 185.356724 166.774121 183.948742 
C 165.202495 182.54076 163.070614 181.749652 160.848 181.749652 
C 158.625386 181.749652 156.493505 182.54076 154.921879 183.948742 
C 153.350254 185.356724 152.4672 187.266625 152.4672 189.257812 
C 152.4672 191.249 153.350254 193.158901 154.921879 194.566883 
C 156.493505 195.974865 158.625386 196.765972 160.848 196.765972 
z
" clip-path="url(#p4561331c7e)" style="fill: #3498db; opacity: 0.9; stroke: #3498db; stroke-width: 1.5; stroke-linejoin: miter"/>
   </g>
   <g id="patch_4">
    <path d="M 286.56 226.798612 
C 297.673071 226.798612 308.332475 222.843077 316.190603 215.803167 
C 324.04873 208.763257 328.464 199.213749 328.464 189.257812 
C 328.464 179.301876 324.04873 169.752368 316.190603 162.712458 
C 308.332475 155.672548 297.673071 151.717012 286.56 151.717012 
C 275.446929 151.717012 264.787525 155.672548 256.929397 162.712458 
C 249.07127 169.752368 244.656 179.301876 244.656 189.257812 
C 244.656 199.213749 249.07127 208.763257 256.929397 215.803167 
C 264.787525 222.843077 275.446929 226.798612 286.56 226.798612 
z
" clip-path="url(#p4561331c7e)" style="fill: #3498db; opacity: 0.7; stroke: #3498db; stroke-width: 1.5; stroke-linejoin: miter"/>
   </g>
   <g id="patch_5">
    <path d="M 345.924 194.263252 
C 347.405743 194.263252 348.826997 193.735848 349.874747 192.797193 
C 350.922497 191.858538 351.5112 190.585271 351.5112 189.257812 
C 351.5112 187.930354 350.922497 186.657087 349.874747 185.718432 
C 348.826997 184.779777 347.405743 184.252372 345.924 184.252372 
C 344.442257 184.252372 343.021003 184.779777 341.973253 185.718432 
C 340.925503 186.657087 340.3368 187.930354 340.3368 189.257812 
C 340.3368 190.585271 340.925503 191.858538 341.973253 192.797193 
C 343.021003 193.735848 344.442257 194.263252 345.924 194.263252 
z
" clip-path="url(#p4561331c7e)" style="fill: #3498db; opacity: 0.9; stroke: #3498db; stroke-width: 1.5; stroke-linejoin: miter"/>
   </g>
   <g id="patch_6">
    <path d="M 323.918976 152.932454 
C 325.400718 152.932454 326.821972 152.40505 327.869723 151.466395 
C 328.917473 150.52774 329.506176 149.254472 329.506176 147.927014 
C 329.506176 146.599556 328.917473 145.326288 327.869723 144.387634 
C 326.821972 143.448979 325.400718 142.921574 323.918976 142.921574 
C 322.437233 142.921574 321.015979 143.448979 319.968229 144.387634 
C 318.920478 145.326288 318.331776 146.599556 318.331776 147.927014 
C 318.331776 149.254472 318.920478 150.52774 319.968229 151.466395 
C 321.015979 152.40505 322.437233 152.932454 323.918976 152.932454 
z
" clip-path="url(#p4561331c7e)" style="fill: #3498db; opacity: 0.9; stroke: #3498db; stroke-width: 1.5; stroke-linejoin: miter"/>
   </g>
   <g id="patch_7">
    <path d="M 274.21753 142.242624 
C 275.699273 142.242624 277.120527 141.71522 278.168277 140.776565 
C 279.216028 139.83791 279.80473 138.564642 279.80473 137.237184 
C 279.80473 135.909726 279.216028 134.636458 278.168277 133.697804 
C 277.120527 132.759149 275.699273 132.231744 274.21753 132.231744 
C 272.735788 132.231744 271.314534 132.759149 270.266783 133.697804 
C 269.219033 134.636458 268.63033 135.909726 268.63033 137.237184 
C 268.63033 138.564642 269.219033 139.83791 270.266783 140.776565 
C 271.314534 141.71522 272.735788 142.242624 274.21753 142.242624 
z
" clip-path="url(#p4561331c7e)" style="fill: #3498db; opacity: 0.9; stroke: #3498db; stroke-width: 1.5; stroke-linejoin: miter"/>
   </g>
   <g id="patch_8">
    <path d="M 233.666289 170.118767 
C 235.148031 170.118767 236.569285 169.591362 237.617036 168.652707 
C 238.664786 167.714052 239.253489 166.440785 239.253489 165.113327 
C 239.253489 163.785868 238.664786 162.512601 237.617036 161.573946 
C 236.569285 160.635291 235.148031 160.107887 233.666289 160.107887 
C 232.184546 160.107887 230.763292 160.635291 229.715542 161.573946 
C 228.667791 162.512601 228.079089 163.785868 228.079089 165.113327 
C 228.079089 166.440785 228.667791 167.714052 229.715542 168.652707 
C 230.763292 169.591362 232.184546 170.118767 233.666289 170.118767 
z
" clip-path="url(#p4561331c7e)" style="fill: #3498db; opacity: 0.9; stroke: #3498db; stroke-width: 1.5; stroke-linejoin: miter"/>
   </g>
   <g id="patch_9">
    <path d="M 232.328287 215.894646 
C 233.81003 215.894646 235.231284 215.367241 236.279034 214.428587 
C 237.326785 213.489932 237.915487 212.216664 237.915487 210.889206 
C 237.915487 209.561748 237.326785 208.28848 236.279034 207.349825 
C 235.231284 206.411171 233.81003 205.883766 232.328287 205.883766 
C 230.846545 205.883766 229.425291 206.411171 228.37754 207.349825 
C 227.32979 208.28848 226.741087 209.561748 226.741087 210.889206 
C 226.741087 212.216664 227.32979 213.489932 228.37754 214.428587 
C 229.425291 215.367241 230.846545 215.894646 232.328287 215.894646 
z
" clip-path="url(#p4561331c7e)" style="fill: #3498db; opacity: 0.9; stroke: #3498db; stroke-width: 1.5; stroke-linejoin: miter"/>
   </g>
   <g id="patch_10">
    <path d="M 271.195466 245.633893 
C 272.677209 245.633893 274.098463 245.106488 275.146213 244.167833 
C 276.193964 243.229178 276.782666 241.955911 276.782666 240.628453 
C 276.782666 239.300994 276.193964 238.027727 275.146213 237.089072 
C 274.098463 236.150417 272.677209 235.623013 271.195466 235.623013 
C 269.713723 235.623013 268.29247 236.150417 267.244719 237.089072 
C 266.196969 238.027727 265.608266 239.300994 265.608266 240.628453 
C 265.608266 241.955911 266.196969 243.229178 267.244719 244.167833 
C 268.29247 245.106488 269.713723 245.633893 271.195466 245.633893 
z
" clip-path="url(#p4561331c7e)" style="fill: #3498db; opacity: 0.9; stroke: #3498db; stroke-width: 1.5; stroke-linejoin: miter"/>
   </g>
   <g id="patch_11">
    <path d="M 321.453284 237.289042 
C 322.935026 237.289042 324.35628 236.761637 325.404031 235.822982 
C 326.451781 234.884327 327.040484 233.61106 327.040484 232.283602 
C 327.040484 230.956143 326.451781 229.682876 325.404031 228.744221 
C 324.35628 227.805566 322.935026 227.278162 321.453284 227.278162 
C 319.971541 227.278162 318.550287 227.805566 317.502537 228.744221 
C 316.454786 229.682876 315.866084 230.956143 315.866084 232.283602 
C 315.866084 233.61106 316.454786 234.884327 317.502537 235.822982 
C 318.550287 236.761637 319.971541 237.289042 321.453284 237.289042 
z
" clip-path="url(#p4561331c7e)" style="fill: #3498db; opacity: 0.9; stroke: #3498db; stroke-width: 1.5; stroke-linejoin: miter"/>
   </g>
   <g id="patch_12">
    <path d="M 345.842644 197.046625 
C 347.324386 197.046625 348.74564 196.51922 349.793391 195.580566 
C 350.841141 194.641911 351.429844 193.368643 351.429844 192.041185 
C 351.429844 190.713727 350.841141 189.440459 349.793391 188.501805 
C 348.74564 187.56315 347.324386 187.035745 345.842644 187.035745 
C 344.360901 187.035745 342.939647 187.56315 341.891897 188.501805 
C 340.844146 189.440459 340.255444 190.713727 340.255444 192.041185 
C 340.255444 193.368643 340.844146 194.641911 341.891897 195.580566 
C 342.939647 196.51922 344.360901 197.046625 345.842644 197.046625 
z
" clip-path="url(#p4561331c7e)" style="fill: #3498db; opacity: 0.9; stroke: #3498db; stroke-width: 1.5; stroke-linejoin: miter"/>
   </g>
   <g id="patch_13">
    <path d="M 510.048 220.541812 
C 519.308892 220.541812 528.191729 217.245533 534.740169 211.378941 
C 541.288609 205.512349 544.968 197.554426 544.968 189.257812 
C 544.968 180.961199 541.288609 173.003276 534.740169 167.136684 
C 528.191729 161.270092 519.308892 157.973812 510.048 157.973812 
C 500.787108 157.973812 491.904271 161.270092 485.355831 167.136684 
C 478.807391 173.003276 475.128 180.961199 475.128 189.257812 
C 475.128 197.554426 478.807391 205.512349 485.355831 211.378941 
C 491.904271 217.245533 500.787108 220.541812 510.048 220.541812 
z
" clip-path="url(#p4561331c7e)" style="fill: #e74c3c; opacity: 0.9; stroke: #e74c3c; stroke-width: 1.5; stroke-linejoin: miter"/>
   </g>
   <g id="patch_14">
    <path d="M 621.792 233.055412 
C 634.757249 233.055412 647.193221 228.440621 656.361036 220.227392 
C 665.528852 212.014164 670.68 200.873072 670.68 189.257812 
C 670.68 177.642553 665.528852 166.501461 656.361036 158.288233 
C 647.193221 150.075004 634.757249 145.460212 621.792 145.460212 
C 608.826751 145.460212 596.390779 150.075004 587.222964 158.288233 
C 578.055148 166.501461 572.904 177.642553 572.904 189.257812 
C 572.904 200.873072 578.055148 212.014164 587.222964 220.227392 
C 596.390779 228.440621 608.826751 233.055412 621.792 233.055412 
z
" clip-path="url(#p4561331c7e)" style="fill: #3498db; opacity: 0.9; stroke: #3498db; stroke-width: 1.5; stroke-linejoin: miter"/>
   </g>
   <g id="line2d_1">
    <path d="M 544.968 189.257812 
L 572.904 189.257812 
" clip-path="url(#p4561331c7e)" style="fill: none; stroke-dasharray: 9.25,4; stroke-dashoffset: 0; stroke: #2ecc71; stroke-width: 2.5"/>
   </g>
   <g id="text_1">
    <!-- Na -->
    <g style="fill: #ffffff" transform="translate(102.433438 193.120937) scale(0.14 -0.14)">
     <defs>
      <path id="DejaVuSans-4e" d="M 628 4666 
L 1478 4666 
L 3547 763 
L 3547 4666 
L 4159 4666 
L 4159 0 
L 3309 0 
L 1241 3903 
L 1241 0 
L 628 0 
L 628 4666 
z
" transform="scale(0.015625)"/>
      <path id="DejaVuSans-61" d="M 2194 1759 
Q 1497 1759 1228 1600 
Q 959 1441 959 1056 
Q 959 750 1161 570 
Q 1363 391 1709 391 
Q 2188 391 2477 730 
Q 2766 1069 2766 1631 
L 2766 1759 
L 2194 1759 
z
M 3341 1997 
L 3341 0 
L 2766 0 
L 2766 531 
Q 2569 213 2275 61 
Q 1981 -91 1556 -91 
Q 1019 -91 701 211 
Q 384 513 384 1019 
Q 384 1609 779 1909 
Q 1175 2209 1959 2209 
L 2766 2209 
L 2766 2266 
Q 2766 2663 2505 2880 
Q 2244 3097 1772 3097 
Q 1472 3097 1187 3025 
Q 903 2953 641 2809 
L 641 3341 
Q 956 3463 1253 3523 
Q 1550 3584 1831 3584 
Q 2591 3584 2966 3190 
Q 3341 2797 3341 1997 
z
" transform="scale(0.015625)"/>
     </defs>
     <use xlink:href="#DejaVuSans-4e"/>
     <use xlink:href="#DejaVuSans-61" transform="translate(74.804688 0)"/>
    </g>
   </g>
   <g id="text_2">
    <!-- 1 valence e⁻ -->
    <g transform="translate(86.713125 251.825812) scale(0.08 -0.08)">
     <defs>
      <path id="DejaVuSans-31" d="M 794 531 
L 1825 531 
L 1825 4091 
L 703 3866 
L 703 4441 
L 1819 4666 
L 2450 4666 
L 2450 531 
L 3481 531 
L 3481 0 
L 794 0 
L 794 531 
z
" transform="scale(0.015625)"/>
      <path id="DejaVuSans-20" transform="scale(0.015625)"/>
      <path id="DejaVuSans-76" d="M 191 3500 
L 800 3500 
L 1894 563 
L 2988 3500 
L 3597 3500 
L 2284 0 
L 1503 0 
L 191 3500 
z
" transform="scale(0.015625)"/>
      <path id="DejaVuSans-6c" d="M 603 4863 
L 1178 4863 
L 1178 0 
L 603 0 
L 603 4863 
z
" transform="scale(0.015625)"/>
      <path id="DejaVuSans-65" d="M 3597 1894 
L 3597 1613 
L 953 1613 
Q 991 1019 1311 708 
Q 1631 397 2203 397 
Q 2534 397 2845 478 
Q 3156 559 3463 722 
L 3463 178 
Q 3153 47 2828 -22 
Q 2503 -91 2169 -91 
Q 1331 -91 842 396 
Q 353 884 353 1716 
Q 353 2575 817 3079 
Q 1281 3584 2069 3584 
Q 2775 3584 3186 3129 
Q 3597 2675 3597 1894 
z
M 3022 2063 
Q 3016 2534 2758 2815 
Q 2500 3097 2075 3097 
Q 1594 3097 1305 2825 
Q 1016 2553 972 2059 
L 3022 2063 
z
" transform="scale(0.015625)"/>
      <path id="DejaVuSans-6e" d="M 3513 2113 
L 3513 0 
L 2938 0 
L 2938 2094 
Q 2938 2591 2744 2837 
Q 2550 3084 2163 3084 
Q 1697 3084 1428 2787 
Q 1159 2491 1159 1978 
L 1159 0 
L 581 0 
L 581 3500 
L 1159 3500 
L 1159 2956 
Q 1366 3272 1645 3428 
Q 1925 3584 2291 3584 
Q 2894 3584 3203 3211 
Q 3513 2838 3513 2113 
z
" transform="scale(0.015625)"/>
      <path id="DejaVuSans-63" d="M 3122 3366 
L 3122 2828 
Q 2878 2963 2633 3030 
Q 2388 3097 2138 3097 
Q 1578 3097 1268 2742 
Q 959 2388 959 1747 
Q 959 1106 1268 751 
Q 1578 397 2138 397 
Q 2388 397 2633 464 
Q 2878 531 3122 666 
L 3122 134 
Q 2881 22 2623 -34 
Q 2366 -91 2075 -91 
Q 1284 -91 818 406 
Q 353 903 353 1747 
Q 353 2603 823 3093 
Q 1294 3584 2113 3584 
Q 2378 3584 2631 3529 
Q 2884 3475 3122 3366 
z
" transform="scale(0.015625)"/>
      <path id="DejaVuSans-207b" d="M 428 3359 
L 2950 3359 
L 2950 3063 
L 428 3063 
L 428 3359 
z
" transform="scale(0.015625)"/>
     </defs>
     <use xlink:href="#DejaVuSans-31"/>
     <use xlink:href="#DejaVuSans-20" transform="translate(63.623047 0)"/>
     <use xlink:href="#DejaVuSans-76" transform="translate(95.410156 0)"/>
     <use xlink:href="#DejaVuSans-61" transform="translate(154.589844 0)"/>
     <use xlink:href="#DejaVuSans-6c" transform="translate(215.869141 0)"/>
     <use xlink:href="#DejaVuSans-65" transform="translate(243.652344 0)"/>
     <use xlink:href="#DejaVuSans-6e" transform="translate(305.175781 0)"/>
     <use xlink:href="#DejaVuSans-63" transform="translate(368.554688 0)"/>
     <use xlink:href="#DejaVuSans-65" transform="translate(423.535156 0)"/>
     <use xlink:href="#DejaVuSans-20" transform="translate(485.058594 0)"/>
     <use xlink:href="#DejaVuSans-65" transform="translate(516.845703 0)"/>
     <use xlink:href="#DejaVuSans-207b" transform="translate(578.369141 0)"/>
    </g>
   </g>
   <g id="text_3">
    <!-- Cl -->
    <g style="fill: #ffffff" transform="translate(279.727344 193.120937) scale(0.14 -0.14)">
     <defs>
      <path id="DejaVuSans-43" d="M 4122 4306 
L 4122 3641 
Q 3803 3938 3442 4084 
Q 3081 4231 2675 4231 
Q 1875 4231 1450 3742 
Q 1025 3253 1025 2328 
Q 1025 1406 1450 917 
Q 1875 428 2675 428 
Q 3081 428 3442 575 
Q 3803 722 4122 1019 
L 4122 359 
Q 3791 134 3420 21 
Q 3050 -91 2638 -91 
Q 1578 -91 968 557 
Q 359 1206 359 2328 
Q 359 3453 968 4101 
Q 1578 4750 2638 4750 
Q 3056 4750 3426 4639 
Q 3797 4528 4122 4306 
z
" transform="scale(0.015625)"/>
     </defs>
     <use xlink:href="#DejaVuSans-43"/>
     <use xlink:href="#DejaVuSans-6c" transform="translate(69.824219 0)"/>
    </g>
   </g>
   <g id="text_4">
    <!-- 7 valence e⁻ -->
    <g transform="translate(261.313125 251.825812) scale(0.08 -0.08)">
     <defs>
      <path id="DejaVuSans-37" d="M 525 4666 
L 3525 4666 
L 3525 4397 
L 1831 0 
L 1172 0 
L 2766 4134 
L 525 4134 
L 525 4666 
z
" transform="scale(0.015625)"/>
     </defs>
     <use xlink:href="#DejaVuSans-37"/>
     <use xlink:href="#DejaVuSans-20" transform="translate(63.623047 0)"/>
     <use xlink:href="#DejaVuSans-76" transform="translate(95.410156 0)"/>
     <use xlink:href="#DejaVuSans-61" transform="translate(154.589844 0)"/>
     <use xlink:href="#DejaVuSans-6c" transform="translate(215.869141 0)"/>
     <use xlink:href="#DejaVuSans-65" transform="translate(243.652344 0)"/>
     <use xlink:href="#DejaVuSans-6e" transform="translate(305.175781 0)"/>
     <use xlink:href="#DejaVuSans-63" transform="translate(368.554688 0)"/>
     <use xlink:href="#DejaVuSans-65" transform="translate(423.535156 0)"/>
     <use xlink:href="#DejaVuSans-20" transform="translate(485.058594 0)"/>
     <use xlink:href="#DejaVuSans-65" transform="translate(516.845703 0)"/>
     <use xlink:href="#DejaVuSans-207b" transform="translate(578.369141 0)"/>
    </g>
   </g>
   <g id="patch_15">
    <path d="M 372.369762 189.257812 
Q 398.303691 189.257812 421.442536 189.257812 
" style="fill: none; stroke: #2c3e50; stroke-width: 2.5; stroke-linecap: round"/>
    <path d="M 417.442536 187.257812 
L 421.442536 189.257812 
L 417.442536 191.257812 
" style="fill: none; stroke: #2c3e50; stroke-width: 2.5; stroke-linecap: round"/>
   </g>
   <g id="text_5">
    <!-- e⁻ transfer -->
    <g transform="translate(376.664 157.973812) scale(0.08 -0.08)">
     <defs>
      <path id="DejaVuSans-74" d="M 1172 4494 
L 1172 3500 
L 2356 3500 
L 2356 3053 
L 1172 3053 
L 1172 1153 
Q 1172 725 1289 603 
Q 1406 481 1766 481 
L 2356 481 
L 2356 0 
L 1766 0 
Q 1100 0 847 248 
Q 594 497 594 1153 
L 594 3053 
L 172 3053 
L 172 3500 
L 594 3500 
L 594 4494 
L 1172 4494 
z
" transform="scale(0.015625)"/>
      <path id="DejaVuSans-72" d="M 2631 2963 
Q 2534 3019 2420 3045 
Q 2306 3072 2169 3072 
Q 1681 3072 1420 2755 
Q 1159 2438 1159 1844 
L 1159 0 
L 581 0 
L 581 3500 
L 1159 3500 
L 1159 2956 
Q 1341 3275 1631 3429 
Q 1922 3584 2338 3584 
Q 2397 3584 2469 3576 
Q 2541 3569 2628 3553 
L 2631 2963 
z
" transform="scale(0.015625)"/>
      <path id="DejaVuSans-73" d="M 2834 3397 
L 2834 2853 
Q 2591 2978 2328 3040 
Q 2066 3103 1784 3103 
Q 1356 3103 1142 2972 
Q 928 2841 928 2578 
Q 928 2378 1081 2264 
Q 1234 2150 1697 2047 
L 1894 2003 
Q 2506 1872 2764 1633 
Q 3022 1394 3022 966 
Q 3022 478 2636 193 
Q 2250 -91 1575 -91 
Q 1294 -91 989 -36 
Q 684 19 347 128 
L 347 722 
Q 666 556 975 473 
Q 1284 391 1588 391 
Q 1994 391 2212 530 
Q 2431 669 2431 922 
Q 2431 1156 2273 1281 
Q 2116 1406 1581 1522 
L 1381 1569 
Q 847 1681 609 1914 
Q 372 2147 372 2553 
Q 372 3047 722 3315 
Q 1072 3584 1716 3584 
Q 2034 3584 2315 3537 
Q 2597 3491 2834 3397 
z
" transform="scale(0.015625)"/>
      <path id="DejaVuSans-66" d="M 2375 4863 
L 2375 4384 
L 1825 4384 
Q 1516 4384 1395 4259 
Q 1275 4134 1275 3809 
L 1275 3500 
L 2222 3500 
L 2222 3053 
L 1275 3053 
L 1275 0 
L 697 0 
L 697 3053 
L 147 3053 
L 147 3500 
L 697 3500 
L 697 3744 
Q 697 4328 969 4595 
Q 1241 4863 1831 4863 
L 2375 4863 
z
" transform="scale(0.015625)"/>
     </defs>
     <use xlink:href="#DejaVuSans-65"/>
     <use xlink:href="#DejaVuSans-207b" transform="translate(61.523438 0)"/>
     <use xlink:href="#DejaVuSans-20" transform="translate(114.306641 0)"/>
     <use xlink:href="#DejaVuSans-74" transform="translate(146.09375 0)"/>
     <use xlink:href="#DejaVuSans-72" transform="translate(185.302734 0)"/>
     <use xlink:href="#DejaVuSans-61" transform="translate(226.416016 0)"/>
     <use xlink:href="#DejaVuSans-6e" transform="translate(287.695312 0)"/>
     <use xlink:href="#DejaVuSans-73" transform="translate(351.074219 0)"/>
     <use xlink:href="#DejaVuSans-66" transform="translate(403.173828 0)"/>
     <use xlink:href="#DejaVuSans-65" transform="translate(438.378906 0)"/>
     <use xlink:href="#DejaVuSans-72" transform="translate(499.902344 0)"/>
    </g>
   </g>
   <g id="text_6">
    <!-- Na⁺ -->
    <g style="fill: #ffffff" transform="translate(498.7155 192.569062) scale(0.12 -0.12)">
     <defs>
      <path id="DejaVuSans-207a" d="M 1853 4334 
L 1853 3359 
L 2950 3359 
L 2950 3063 
L 1853 3063 
L 1853 2088 
L 1525 2088 
L 1525 3063 
L 428 3063 
L 428 3359 
L 1525 3359 
L 1525 4334 
L 1853 4334 
z
" transform="scale(0.015625)"/>
     </defs>
     <use xlink:href="#DejaVuSans-4e"/>
     <use xlink:href="#DejaVuSans-61" transform="translate(74.804688 0)"/>
     <use xlink:href="#DejaVuSans-207a" transform="translate(136.083984 0)"/>
    </g>
   </g>
   <g id="text_7">
    <!-- Cl⁻ -->
    <g style="fill: #ffffff" transform="translate(612.768563 192.569062) scale(0.12 -0.12)">
     <use xlink:href="#DejaVuSans-43"/>
     <use xlink:href="#DejaVuSans-6c" transform="translate(69.824219 0)"/>
     <use xlink:href="#DejaVuSans-207b" transform="translate(97.607422 0)"/>
    </g>
   </g>
   <g id="text_8">
    <!-- Electrostatic -->
    <g transform="translate(541.06875 242.867562) scale(0.08 -0.08)">
     <defs>
      <path id="DejaVuSans-45" d="M 628 4666 
L 3578 4666 
L 3578 4134 
L 1259 4134 
L 1259 2753 
L 3481 2753 
L 3481 2222 
L 1259 2222 
L 1259 531 
L 3634 531 
L 3634 0 
L 628 0 
L 628 4666 
z
" transform="scale(0.015625)"/>
      <path id="DejaVuSans-6f" d="M 1959 3097 
Q 1497 3097 1228 2736 
Q 959 2375 959 1747 
Q 959 1119 1226 758 
Q 1494 397 1959 397 
Q 2419 397 2687 759 
Q 2956 1122 2956 1747 
Q 2956 2369 2687 2733 
Q 2419 3097 1959 3097 
z
M 1959 3584 
Q 2709 3584 3137 3096 
Q 3566 2609 3566 1747 
Q 3566 888 3137 398 
Q 2709 -91 1959 -91 
Q 1206 -91 779 398 
Q 353 888 353 1747 
Q 353 2609 779 3096 
Q 1206 3584 1959 3584 
z
" transform="scale(0.015625)"/>
      <path id="DejaVuSans-69" d="M 603 3500 
L 1178 3500 
L 1178 0 
L 603 0 
L 603 3500 
z
M 603 4863 
L 1178 4863 
L 1178 4134 
L 603 4134 
L 603 4863 
z
" transform="scale(0.015625)"/>
     </defs>
     <use xlink:href="#DejaVuSans-45"/>
     <use xlink:href="#DejaVuSans-6c" transform="translate(63.183594 0)"/>
     <use xlink:href="#DejaVuSans-65" transform="translate(90.966797 0)"/>
     <use xlink:href="#DejaVuSans-63" transform="translate(152.490234 0)"/>
     <use xlink:href="#DejaVuSans-74" transform="translate(207.470703 0)"/>
     <use xlink:href="#DejaVuSans-72" transform="translate(246.679688 0)"/>
     <use xlink:href="#DejaVuSans-6f" transform="translate(285.542969 0)"/>
     <use xlink:href="#DejaVuSans-73" transform="translate(346.724609 0)"/>
     <use xlink:href="#DejaVuSans-74" transform="translate(398.824219 0)"/>
     <use xlink:href="#DejaVuSans-61" transform="translate(438.033203 0)"/>
     <use xlink:href="#DejaVuSans-74" transform="translate(499.3125 0)"/>
     <use xlink:href="#DejaVuSans-69" transform="translate(538.521484 0)"/>
     <use xlink:href="#DejaVuSans-63" transform="translate(566.304688 0)"/>
    </g>
    <!-- attraction -->
    <g transform="translate(546.375625 251.825812) scale(0.08 -0.08)">
     <use xlink:href="#DejaVuSans-61"/>
     <use xlink:href="#DejaVuSans-74" transform="translate(61.279297 0)"/>
     <use xlink:href="#DejaVuSans-74" transform="translate(100.488281 0)"/>
     <use xlink:href="#DejaVuSans-72" transform="translate(139.697266 0)"/>
     <use xlink:href="#DejaVuSans-61" transform="translate(180.810547 0)"/>
     <use xlink:href="#DejaVuSans-63" transform="translate(242.089844 0)"/>
     <use xlink:href="#DejaVuSans-74" transform="translate(297.070312 0)"/>
     <use xlink:href="#DejaVuSans-69" transform="translate(336.279297 0)"/>
     <use xlink:href="#DejaVuSans-6f" transform="translate(364.0625 0)"/>
     <use xlink:href="#DejaVuSans-6e" transform="translate(425.244141 0)"/>
    </g>
   </g>
   <g id="text_9">
    <!-- Ionic Bonding: NaCl Formation -->
    <g transform="translate(250.312812 17.837812) scale(0.14 -0.14)">
     <defs>
      <path id="DejaVuSans-49" d="M 628 4666 
L 1259 4666 
L 1259 0 
L 628 0 
L 628 4666 
z
" transform="scale(0.015625)"/>
      <path id="DejaVuSans-42" d="M 1259 2228 
L 1259 519 
L 2272 519 
Q 2781 519 3026 730 
Q 3272 941 3272 1375 
Q 3272 1813 3026 2020 
Q 2781 2228 2272 2228 
L 1259 2228 
z
M 1259 4147 
L 1259 2741 
L 2194 2741 
Q 2656 2741 2882 2914 
Q 3109 3088 3109 3444 
Q 3109 3797 2882 3972 
Q 2656 4147 2194 4147 
L 1259 4147 
z
M 628 4666 
L 2241 4666 
Q 2963 4666 3353 4366 
Q 3744 4066 3744 3513 
Q 3744 3084 3544 2831 
Q 3344 2578 2956 2516 
Q 3422 2416 3680 2098 
Q 3938 1781 3938 1306 
Q 3938 681 3513 340 
Q 3088 0 2303 0 
L 628 0 
L 628 4666 
z
" transform="scale(0.015625)"/>
      <path id="DejaVuSans-64" d="M 2906 2969 
L 2906 4863 
L 3481 4863 
L 3481 0 
L 2906 0 
L 2906 525 
Q 2725 213 2448 61 
Q 2172 -91 1784 -91 
Q 1150 -91 751 415 
Q 353 922 353 1747 
Q 353 2572 751 3078 
Q 1150 3584 1784 3584 
Q 2172 3584 2448 3432 
Q 2725 3281 2906 2969 
z
M 947 1747 
Q 947 1113 1208 752 
Q 1469 391 1925 391 
Q 2381 391 2643 752 
Q 2906 1113 2906 1747 
Q 2906 2381 2643 2742 
Q 2381 3103 1925 3103 
Q 1469 3103 1208 2742 
Q 947 2381 947 1747 
z
" transform="scale(0.015625)"/>
      <path id="DejaVuSans-67" d="M 2906 1791 
Q 2906 2416 2648 2759 
Q 2391 3103 1925 3103 
Q 1463 3103 1205 2759 
Q 947 2416 947 1791 
Q 947 1169 1205 825 
Q 1463 481 1925 481 
Q 2391 481 2648 825 
Q 2906 1169 2906 1791 
z
M 3481 434 
Q 3481 -459 3084 -895 
Q 2688 -1331 1869 -1331 
Q 1566 -1331 1297 -1286 
Q 1028 -1241 775 -1147 
L 775 -588 
Q 1028 -725 1275 -790 
Q 1522 -856 1778 -856 
Q 2344 -856 2625 -561 
Q 2906 -266 2906 331 
L 2906 616 
Q 2728 306 2450 153 
Q 2172 0 1784 0 
Q 1141 0 747 490 
Q 353 981 353 1791 
Q 353 2603 747 3093 
Q 1141 3584 1784 3584 
Q 2172 3584 2450 3431 
Q 2728 3278 2906 2969 
L 2906 3500 
L 3481 3500 
L 3481 434 
z
" transform="scale(0.015625)"/>
      <path id="DejaVuSans-3a" d="M 750 794 
L 1409 794 
L 1409 0 
L 750 0 
L 750 794 
z
M 750 3309 
L 1409 3309 
L 1409 2516 
L 750 2516 
L 750 3309 
z
" transform="scale(0.015625)"/>
      <path id="DejaVuSans-46" d="M 628 4666 
L 3309 4666 
L 3309 4134 
L 1259 4134 
L 1259 2759 
L 3109 2759 
L 3109 2228 
L 1259 2228 
L 1259 0 
L 628 0 
L 628 4666 
z
" transform="scale(0.015625)"/>
      <path id="DejaVuSans-6d" d="M 3328 2828 
Q 3544 3216 3844 3400 
Q 4144 3584 4550 3584 
Q 5097 3584 5394 3201 
Q 5691 2819 5691 2113 
L 5691 0 
L 5113 0 
L 5113 2094 
Q 5113 2597 4934 2840 
Q 4756 3084 4391 3084 
Q 3944 3084 3684 2787 
Q 3425 2491 3425 1978 
L 3425 0 
L 2847 0 
L 2847 2094 
Q 2847 2600 2669 2842 
Q 2491 3084 2119 3084 
Q 1678 3084 1418 2786 
Q 1159 2488 1159 1978 
L 1159 0 
L 581 0 
L 581 3500 
L 1159 3500 
L 1159 2956 
Q 1356 3278 1631 3431 
Q 1906 3584 2284 3584 
Q 2666 3584 2933 3390 
Q 3200 3197 3328 2828 
z
" transform="scale(0.015625)"/>
     </defs>
     <use xlink:href="#DejaVuSans-49"/>
     <use xlink:href="#DejaVuSans-6f" transform="translate(29.492188 0)"/>
     <use xlink:href="#DejaVuSans-6e" transform="translate(90.673828 0)"/>
     <use xlink:href="#DejaVuSans-69" transform="translate(154.052734 0)"/>
     <use xlink:href="#DejaVuSans-63" transform="translate(181.835938 0)"/>
     <use xlink:href="#DejaVuSans-20" transform="translate(236.816406 0)"/>
     <use xlink:href="#DejaVuSans-42" transform="translate(268.603516 0)"/>
     <use xlink:href="#DejaVuSans-6f" transform="translate(337.207031 0)"/>
     <use xlink:href="#DejaVuSans-6e" transform="translate(398.388672 0)"/>
     <use xlink:href="#DejaVuSans-64" transform="translate(461.767578 0)"/>
     <use xlink:href="#DejaVuSans-69" transform="translate(525.244141 0)"/>
     <use xlink:href="#DejaVuSans-6e" transform="translate(553.027344 0)"/>
     <use xlink:href="#DejaVuSans-67" transform="translate(616.40625 0)"/>
     <use xlink:href="#DejaVuSans-3a" transform="translate(679.882812 0)"/>
     <use xlink:href="#DejaVuSans-20" transform="translate(713.574219 0)"/>
     <use xlink:href="#DejaVuSans-4e" transform="translate(745.361328 0)"/>
     <use xlink:href="#DejaVuSans-61" transform="translate(820.166016 0)"/>
     <use xlink:href="#DejaVuSans-43" transform="translate(881.445312 0)"/>
     <use xlink:href="#DejaVuSans-6c" transform="translate(951.269531 0)"/>
     <use xlink:href="#DejaVuSans-20" transform="translate(979.052734 0)"/>
     <use xlink:href="#DejaVuSans-46" transform="translate(1010.839844 0)"/>
     <use xlink:href="#DejaVuSans-6f" transform="translate(1064.734375 0)"/>
     <use xlink:href="#DejaVuSans-72" transform="translate(1125.916016 0)"/>
     <use xlink:href="#DejaVuSans-6d" transform="translate(1165.279297 0)"/>
     <use xlink:href="#DejaVuSans-61" transform="translate(1262.691406 0)"/>
     <use xlink:href="#DejaVuSans-74" transform="translate(1323.970703 0)"/>
     <use xlink:href="#DejaVuSans-69" transform="translate(1363.179688 0)"/>
     <use xlink:href="#DejaVuSans-6f" transform="translate(1390.962891 0)"/>
     <use xlink:href="#DejaVuSans-6e" transform="translate(1452.144531 0)"/>
    </g>
   </g>
  </g>
 </g>
 <defs>
  <clipPath id="p4561331c7e">
   <rect x="7.2" y="32.837812" width="698.4" height="312.84"/>
  </clipPath>
 </defs>
</svg>
