<?xml version="1.0" encoding="utf-8" standalone="no"?>
<!DOCTYPE svg PUBLIC "-//W3C//DTD SVG 1.1//EN"
  "http://www.w3.org/Graphics/SVG/1.1/DTD/svg11.dtd">
<svg xmlns:xlink="http://www.w3.org/1999/xlink" width="712.8pt" height="568.877812pt" viewBox="0 0 712.8 568.877812" xmlns="http://www.w3.org/2000/svg" version="1.1">
 <metadata>
  <rdf:RDF xmlns:dc="http://purl.org/dc/elements/1.1/" xmlns:cc="http://creativecommons.org/ns#" xmlns:rdf="http://www.w3.org/1999/02/22-rdf-syntax-ns#">
   <cc:Work>
    <dc:type rdf:resource="http://purl.org/dc/dcmitype/StillImage"/>
    <dc:date>2026-01-02T18:44:32.117558</dc:date>
    <dc:format>image/svg+xml</dc:format>
    <dc:creator>
     <cc:Agent>
      <dc:title>Matplotlib v3.10.8, https://matplotlib.org/</dc:title>
     </cc:Agent>
    </dc:creator>
   </cc:Work>
  </rdf:RDF>
 </metadata>
 <defs>
  <style type="text/css">*{stroke-linejoin: round; stroke-linecap: butt}</style>
 </defs>
 <g id="figure_1">
  <g id="patch_1">
   <path d="M 0 568.877812 
L 712.8 568.877812 
L 712.8 0 
L 0 0 
z
" style="fill: #ffffff"/>
  </g>
  <g id="axes_1">
   <g id="patch_2">
    <path d="M 123.6 79.745012 
C 135.947856 79.745012 147.791639 79.009078 156.522892 77.69929 
C 165.254145 76.389502 170.16 74.612799 170.16 72.760479 
C 170.16 70.908159 165.254145 69.131456 156.522892 67.821668 
C 147.791639 66.51188 135.947856 65.775946 123.6 65.775946 
C 111.252144 65.775946 99.408361 66.51188 90.677108 67.821668 
C 81.945855 69.131456 77.04 70.908159 77.04 72.760479 
C 77.04 74.612799 81.945855 76.389502 90.677108 77.69929 
C 99.408361 79.009078 111.252144 79.745012 123.6 79.745012 
z
" clip-path="url(#pac54b2e27a)" style="fill: #e74c3c; opacity: 0.9; stroke: #e74c3c; stroke-width: 1.5; stroke-linejoin: miter"/>
   </g>
   <g id="patch_3">
    <path d="M 123.6 114.667679 
C 135.947856 114.667679 147.791639 113.931745 156.522892 112.621957 
C 165.254145 111.312169 170.16 109.535466 170.16 107.683146 
C 170.16 105.830826 165.254145 104.054123 156.522892 102.744335 
C 147.791639 101.434547 135.947856 100.698612 123.6 100.698612 
C 111.252144 100.698612 99.408361 101.434547 90.677108 102.744335 
C 81.945855 104.054123 77.04 105.830826 77.04 107.683146 
C 77.04 109.535466 81.945855 111.312169 90.677108 112.621957 
C 99.408361 113.931745 111.252144 114.667679 123.6 114.667679 
z
" clip-path="url(#pac54b2e27a)" style="fill: #e74c3c; opacity: 0.9; stroke: #e74c3c; stroke-width: 1.5; stroke-linejoin: miter"/>
   </g>
   <g id="patch_4">
    <path d="M 123.6 149.590346 
C 135.947856 149.590346 147.791639 148.854411 156.522892 147.544623 
C 165.254145 146.234835 170.16 144.458132 170.16 142.605812 
C 170.16 140.753493 165.254145 138.97679 156.522892 137.667002 
C 147.791639 136.357214 135.947856 135.621279 123.6 135.621279 
C 111.252144 135.621279 99.408361 136.357214 90.677108 137.667002 
C 81.945855 138.97679 77.04 140.753493 77.04 142.605812 
C 77.04 144.458132 81.945855 146.234835 90.677108 147.544623 
C 99.408361 148.854411 111.252144 149.590346 123.6 149.590346 
z
" clip-path="url(#pac54b2e27a)" style="fill: #e74c3c; opacity: 0.9; stroke: #e74c3c; stroke-width: 1.5; stroke-linejoin: miter"/>
   </g>
   <g id="patch_5">
    <path d="M 123.6 184.513012 
C 135.947856 184.513012 147.791639 183.777078 156.522892 182.46729 
C 165.254145 181.157502 170.16 179.380799 170.16 177.528479 
C 170.16 175.676159 165.254145 173.899456 156.522892 172.589668 
C 147.791639 171.27988 135.947856 170.543946 123.6 170.543946 
C 111.252144 170.543946 99.408361 171.27988 90.677108 172.589668 
C 81.945855 173.899456 77.04 175.676159 77.04 177.528479 
C 77.04 179.380799 81.945855 181.157502 90.677108 182.46729 
C 99.408361 183.777078 111.252144 184.513012 123.6 184.513012 
z
" clip-path="url(#pac54b2e27a)" style="fill: #e74c3c; opacity: 0.9; stroke: #e74c3c; stroke-width: 1.5; stroke-linejoin: miter"/>
   </g>
   <g id="patch_6">
    <path d="M 123.6 219.435679 
C 135.947856 219.435679 147.791639 218.699745 156.522892 217.389957 
C 165.254145 216.080169 170.16 214.303466 170.16 212.451146 
C 170.16 210.598826 165.254145 208.822123 156.522892 207.512335 
C 147.791639 206.202547 135.947856 205.466612 123.6 205.466612 
C 111.252144 205.466612 99.408361 206.202547 90.677108 207.512335 
C 81.945855 208.822123 77.04 210.598826 77.04 212.451146 
C 77.04 214.303466 81.945855 216.080169 90.677108 217.389957 
C 99.408361 218.699745 111.252144 219.435679 123.6 219.435679 
z
" clip-path="url(#pac54b2e27a)" style="fill: #e74c3c; opacity: 0.9; stroke: #e74c3c; stroke-width: 1.5; stroke-linejoin: miter"/>
   </g>
   <g id="patch_7">
    <path d="M 123.6 254.358346 
C 135.947856 254.358346 147.791639 253.622411 156.522892 252.312623 
C 165.254145 251.002835 170.16 249.226132 170.16 247.373812 
C 170.16 245.521493 165.254145 243.74479 156.522892 242.435002 
C 147.791639 241.125214 135.947856 240.389279 123.6 240.389279 
C 111.252144 240.389279 99.408361 241.125214 90.677108 242.435002 
C 81.945855 243.74479 77.04 245.521493 77.04 247.373812 
C 77.04 249.226132 81.945855 251.002835 90.677108 252.312623 
C 99.408361 253.622411 111.252144 254.358346 123.6 254.358346 
z
" clip-path="url(#pac54b2e27a)" style="fill: #e74c3c; opacity: 0.9; stroke: #e74c3c; stroke-width: 1.5; stroke-linejoin: miter"/>
   </g>
   <g id="patch_8">
    <path d="M 123.6 289.281012 
C 135.947856 289.281012 147.791639 288.545078 156.522892 287.23529 
C 165.254145 285.925502 170.16 284.148799 170.16 282.296479 
C 170.16 280.444159 165.254145 278.667456 156.522892 277.357668 
C 147.791639 276.04788 135.947856 275.311946 123.6 275.311946 
C 111.252144 275.311946 99.408361 276.04788 90.677108 277.357668 
C 81.945855 278.667456 77.04 280.444159 77.04 282.296479 
C 77.04 284.148799 81.945855 285.925502 90.677108 287.23529 
C 99.408361 288.545078 111.252144 289.281012 123.6 289.281012 
z
" clip-path="url(#pac54b2e27a)" style="fill: #e74c3c; opacity: 0.9; stroke: #e74c3c; stroke-width: 1.5; stroke-linejoin: miter"/>
   </g>
   <g id="patch_9">
    <path d="M 123.6 324.203679 
C 135.947856 324.203679 147.791639 323.467745 156.522892 322.157957 
C 165.254145 320.848169 170.16 319.071466 170.16 317.219146 
C 170.16 315.366826 165.254145 313.590123 156.522892 312.280335 
C 147.791639 310.970547 135.947856 310.234612 123.6 310.234612 
C 111.252144 310.234612 99.408361 310.970547 90.677108 312.280335 
C 81.945855 313.590123 77.04 315.366826 77.04 317.219146 
C 77.04 319.071466 81.945855 320.848169 90.677108 322.157957 
C 99.408361 323.467745 111.252144 324.203679 123.6 324.203679 
z
" clip-path="url(#pac54b2e27a)" style="fill: #e74c3c; opacity: 0.9; stroke: #e74c3c; stroke-width: 1.5; stroke-linejoin: miter"/>
   </g>
   <g id="patch_10">
    <path d="M 123.6 359.126346 
C 135.947856 359.126346 147.791639 358.390411 156.522892 357.080623 
C 165.254145 355.770835 170.16 353.994132 170.16 352.141812 
C 170.16 350.289493 165.254145 348.51279 156.522892 347.203002 
C 147.791639 345.893214 135.947856 345.157279 123.6 345.157279 
C 111.252144 345.157279 99.408361 345.893214 90.677108 347.203002 
C 81.945855 348.51279 77.04 350.289493 77.04 352.141812 
C 77.04 353.994132 81.945855 355.770835 90.677108 357.080623 
C 99.408361 358.390411 111.252144 359.126346 123.6 359.126346 
z
" clip-path="url(#pac54b2e27a)" style="fill: #e74c3c; opacity: 0.9; stroke: #e74c3c; stroke-width: 1.5; stroke-linejoin: miter"/>
   </g>
   <g id="patch_11">
    <path d="M 123.6 394.049012 
C 135.947856 394.049012 147.791639 393.313078 156.522892 392.00329 
C 165.254145 390.693502 170.16 388.916799 170.16 387.064479 
C 170.16 385.212159 165.254145 383.435456 156.522892 382.125668 
C 147.791639 380.81588 135.947856 380.079946 123.6 380.079946 
C 111.252144 380.079946 99.408361 380.81588 90.677108 382.125668 
C 81.945855 383.435456 77.04 385.212159 77.04 387.064479 
C 77.04 388.916799 81.945855 390.693502 90.677108 392.00329 
C 99.408361 393.313078 111.252144 394.049012 123.6 394.049012 
z
" clip-path="url(#pac54b2e27a)" style="fill: #e74c3c; opacity: 0.9; stroke: #e74c3c; stroke-width: 1.5; stroke-linejoin: miter"/>
   </g>
   <g id="patch_12">
    <path d="M 123.6 428.971679 
C 135.947856 428.971679 147.791639 428.235745 156.522892 426.925957 
C 165.254145 425.616169 170.16 423.839466 170.16 421.987146 
C 170.16 420.134826 165.254145 418.358123 156.522892 417.048335 
C 147.791639 415.738547 135.947856 415.002612 123.6 415.002612 
C 111.252144 415.002612 99.408361 415.738547 90.677108 417.048335 
C 81.945855 418.358123 77.04 420.134826 77.04 421.987146 
C 77.04 423.839466 81.945855 425.616169 90.677108 426.925957 
C 99.408361 428.235745 111.252144 428.971679 123.6 428.971679 
z
" clip-path="url(#pac54b2e27a)" style="fill: #e74c3c; opacity: 0.9; stroke: #e74c3c; stroke-width: 1.5; stroke-linejoin: miter"/>
   </g>
   <g id="patch_13">
    <path d="M 123.6 463.894346 
C 135.947856 463.894346 147.791639 463.158411 156.522892 461.848623 
C 165.254145 460.538835 170.16 458.762132 170.16 456.909812 
C 170.16 455.057493 165.254145 453.28079 156.522892 451.971002 
C 147.791639 450.661214 135.947856 449.925279 123.6 449.925279 
C 111.252144 449.925279 99.408361 450.661214 90.677108 451.971002 
C 81.945855 453.28079 77.04 455.057493 77.04 456.909812 
C 77.04 458.762132 81.945855 460.538835 90.677108 461.848623 
C 99.408361 463.158411 111.252144 463.894346 123.6 463.894346 
z
" clip-path="url(#pac54b2e27a)" style="fill: #e74c3c; opacity: 0.9; stroke: #e74c3c; stroke-width: 1.5; stroke-linejoin: miter"/>
   </g>
   <g id="patch_14">
    <path d="M 123.6 498.817012 
C 135.947856 498.817012 147.791639 498.081078 156.522892 496.77129 
C 165.254145 495.461502 170.16 493.684799 170.16 491.832479 
C 170.16 489.980159 165.254145 488.203456 156.522892 486.893668 
C 147.791639 485.58388 135.947856 484.847946 123.6 484.847946 
C 111.252144 484.847946 99.408361 485.58388 90.677108 486.893668 
C 81.945855 488.203456 77.04 489.980159 77.04 491.832479 
C 77.04 493.684799 81.945855 495.461502 90.677108 496.77129 
C 99.408361 498.081078 111.252144 498.817012 123.6 498.817012 
z
" clip-path="url(#pac54b2e27a)" style="fill: #9b59b6; opacity: 0.9; stroke: #9b59b6; stroke-width: 1.5; stroke-linejoin: miter"/>
   </g>
   <g id="line2d_1">
    <path d="M 123.6 81.491146 
L 123.6 98.952479 
" clip-path="url(#pac54b2e27a)" style="fill: none; stroke: #ecf0f1; stroke-linecap: square"/>
   </g>
   <g id="line2d_2">
    <path d="M 123.6 116.413812 
L 123.6 133.875146 
" clip-path="url(#pac54b2e27a)" style="fill: none; stroke: #ecf0f1; stroke-linecap: square"/>
   </g>
   <g id="line2d_3">
    <path d="M 123.6 151.336479 
L 123.6 168.797812 
" clip-path="url(#pac54b2e27a)" style="fill: none; stroke: #ecf0f1; stroke-linecap: square"/>
   </g>
   <g id="line2d_4">
    <path d="M 123.6 186.259146 
L 123.6 203.720479 
" clip-path="url(#pac54b2e27a)" style="fill: none; stroke: #ecf0f1; stroke-linecap: square"/>
   </g>
   <g id="line2d_5">
    <path d="M 123.6 221.181812 
L 123.6 238.643146 
" clip-path="url(#pac54b2e27a)" style="fill: none; stroke: #ecf0f1; stroke-linecap: square"/>
   </g>
   <g id="line2d_6">
    <path d="M 123.6 256.104479 
L 123.6 273.565812 
" clip-path="url(#pac54b2e27a)" style="fill: none; stroke: #ecf0f1; stroke-linecap: square"/>
   </g>
   <g id="line2d_7">
    <path d="M 123.6 291.027146 
L 123.6 308.488479 
" clip-path="url(#pac54b2e27a)" style="fill: none; stroke: #ecf0f1; stroke-linecap: square"/>
   </g>
   <g id="line2d_8">
    <path d="M 123.6 325.949812 
L 123.6 343.411146 
" clip-path="url(#pac54b2e27a)" style="fill: none; stroke: #ecf0f1; stroke-linecap: square"/>
   </g>
   <g id="line2d_9">
    <path d="M 123.6 360.872479 
L 123.6 378.333812 
" clip-path="url(#pac54b2e27a)" style="fill: none; stroke: #ecf0f1; stroke-linecap: square"/>
   </g>
   <g id="line2d_10">
    <path d="M 123.6 395.795146 
L 123.6 413.256479 
" clip-path="url(#pac54b2e27a)" style="fill: none; stroke: #ecf0f1; stroke-linecap: square"/>
   </g>
   <g id="line2d_11">
    <path d="M 123.6 430.717812 
L 123.6 448.179146 
" clip-path="url(#pac54b2e27a)" style="fill: none; stroke: #ecf0f1; stroke-linecap: square"/>
   </g>
   <g id="line2d_12">
    <path d="M 123.6 465.640479 
L 123.6 483.101812 
" clip-path="url(#pac54b2e27a)" style="fill: none; stroke: #ecf0f1; stroke-linecap: square"/>
   </g>
   <g id="text_1">
    <!-- 1 -->
    <g style="fill: #ffffff" transform="translate(120.816875 74.967979) scale(0.08 -0.08)">
     <defs>
      <path id="DejaVuSans-Bold-31" d="M 750 831 
L 1813 831 
L 1813 3847 
L 722 3622 
L 722 4441 
L 1806 4666 
L 2950 4666 
L 2950 831 
L 4013 831 
L 4013 0 
L 750 0 
L 750 831 
z
" transform="scale(0.015625)"/>
     </defs>
     <use xlink:href="#DejaVuSans-Bold-31"/>
    </g>
   </g>
   <g id="text_2">
    <!-- Time Gating -->
    <g style="fill: #2c3e50" transform="translate(216.72 69.268213) scale(0.12 -0.12)">
     <defs>
      <path id="DejaVuSans-Bold-54" d="M 31 4666 
L 4331 4666 
L 4331 3756 
L 2784 3756 
L 2784 0 
L 1581 0 
L 1581 3756 
L 31 3756 
L 31 4666 
z
" transform="scale(0.015625)"/>
      <path id="DejaVuSans-Bold-69" d="M 538 3500 
L 1656 3500 
L 1656 0 
L 538 0 
L 538 3500 
z
M 538 4863 
L 1656 4863 
L 1656 3950 
L 538 3950 
L 538 4863 
z
" transform="scale(0.015625)"/>
      <path id="DejaVuSans-Bold-6d" d="M 3781 2919 
Q 3994 3244 4286 3414 
Q 4578 3584 4928 3584 
Q 5531 3584 5847 3212 
Q 6163 2841 6163 2131 
L 6163 0 
L 5038 0 
L 5038 1825 
Q 5041 1866 5042 1909 
Q 5044 1953 5044 2034 
Q 5044 2406 4934 2573 
Q 4825 2741 4581 2741 
Q 4263 2741 4089 2478 
Q 3916 2216 3909 1719 
L 3909 0 
L 2784 0 
L 2784 1825 
Q 2784 2406 2684 2573 
Q 2584 2741 2328 2741 
Q 2006 2741 1831 2477 
Q 1656 2213 1656 1722 
L 1656 0 
L 531 0 
L 531 3500 
L 1656 3500 
L 1656 2988 
Q 1863 3284 2130 3434 
Q 2397 3584 2719 3584 
Q 3081 3584 3359 3409 
Q 3638 3234 3781 2919 
z
" transform="scale(0.015625)"/>
      <path id="DejaVuSans-Bold-65" d="M 4031 1759 
L 4031 1441 
L 1416 1441 
Q 1456 1047 1700 850 
Q 1944 653 2381 653 
Q 2734 653 3104 758 
Q 3475 863 3866 1075 
L 3866 213 
Q 3469 63 3072 -14 
Q 2675 -91 2278 -91 
Q 1328 -91 801 392 
Q 275 875 275 1747 
Q 275 2603 792 3093 
Q 1309 3584 2216 3584 
Q 3041 3584 3536 3087 
Q 4031 2591 4031 1759 
z
M 2881 2131 
Q 2881 2450 2695 2645 
Q 2509 2841 2209 2841 
Q 1884 2841 1681 2658 
Q 1478 2475 1428 2131 
L 2881 2131 
z
" transform="scale(0.015625)"/>
      <path id="DejaVuSans-Bold-20" transform="scale(0.015625)"/>
      <path id="DejaVuSans-Bold-47" d="M 4781 347 
Q 4331 128 3847 18 
Q 3363 -91 2847 -91 
Q 1681 -91 1000 561 
Q 319 1213 319 2328 
Q 319 3456 1012 4103 
Q 1706 4750 2913 4750 
Q 3378 4750 3804 4662 
Q 4231 4575 4609 4403 
L 4609 3438 
Q 4219 3659 3833 3768 
Q 3447 3878 3059 3878 
Q 2341 3878 1952 3476 
Q 1563 3075 1563 2328 
Q 1563 1588 1938 1184 
Q 2313 781 3003 781 
Q 3191 781 3352 804 
Q 3513 828 3641 878 
L 3641 1784 
L 2906 1784 
L 2906 2591 
L 4781 2591 
L 4781 347 
z
" transform="scale(0.015625)"/>
      <path id="DejaVuSans-Bold-61" d="M 2106 1575 
Q 1756 1575 1579 1456 
Q 1403 1338 1403 1106 
Q 1403 894 1545 773 
Q 1688 653 1941 653 
Q 2256 653 2472 879 
Q 2688 1106 2688 1447 
L 2688 1575 
L 2106 1575 
z
M 3816 1997 
L 3816 0 
L 2688 0 
L 2688 519 
Q 2463 200 2181 54 
Q 1900 -91 1497 -91 
Q 953 -91 614 226 
Q 275 544 275 1050 
Q 275 1666 698 1953 
Q 1122 2241 2028 2241 
L 2688 2241 
L 2688 2328 
Q 2688 2594 2478 2717 
Q 2269 2841 1825 2841 
Q 1466 2841 1156 2769 
Q 847 2697 581 2553 
L 581 3406 
Q 941 3494 1303 3539 
Q 1666 3584 2028 3584 
Q 2975 3584 3395 3211 
Q 3816 2838 3816 1997 
z
" transform="scale(0.015625)"/>
      <path id="DejaVuSans-Bold-74" d="M 1759 4494 
L 1759 3500 
L 2913 3500 
L 2913 2700 
L 1759 2700 
L 1759 1216 
Q 1759 972 1856 886 
Q 1953 800 2241 800 
L 2816 800 
L 2816 0 
L 1856 0 
Q 1194 0 917 276 
Q 641 553 641 1216 
L 641 2700 
L 84 2700 
L 84 3500 
L 641 3500 
L 641 4494 
L 1759 4494 
z
" transform="scale(0.015625)"/>
      <path id="DejaVuSans-Bold-6e" d="M 4056 2131 
L 4056 0 
L 2931 0 
L 2931 347 
L 2931 1631 
Q 2931 2084 2911 2256 
Q 2891 2428 2841 2509 
Q 2775 2619 2662 2680 
Q 2550 2741 2406 2741 
Q 2056 2741 1856 2470 
Q 1656 2200 1656 1722 
L 1656 0 
L 538 0 
L 538 3500 
L 1656 3500 
L 1656 2988 
Q 1909 3294 2193 3439 
Q 2478 3584 2822 3584 
Q 3428 3584 3742 3212 
Q 4056 2841 4056 2131 
z
" transform="scale(0.015625)"/>
      <path id="DejaVuSans-Bold-67" d="M 2919 594 
Q 2688 288 2409 144 
Q 2131 0 1766 0 
Q 1125 0 706 504 
Q 288 1009 288 1791 
Q 288 2575 706 3076 
Q 1125 3578 1766 3578 
Q 2131 3578 2409 3434 
Q 2688 3291 2919 2981 
L 2919 3500 
L 4044 3500 
L 4044 353 
Q 4044 -491 3511 -936 
Q 2978 -1381 1966 -1381 
Q 1638 -1381 1331 -1331 
Q 1025 -1281 716 -1178 
L 716 -306 
Q 1009 -475 1290 -558 
Q 1572 -641 1856 -641 
Q 2406 -641 2662 -400 
Q 2919 -159 2919 353 
L 2919 594 
z
M 2181 2772 
Q 1834 2772 1640 2515 
Q 1447 2259 1447 1791 
Q 1447 1309 1634 1061 
Q 1822 813 2181 813 
Q 2531 813 2725 1069 
Q 2919 1325 2919 1791 
Q 2919 2259 2725 2515 
Q 2531 2772 2181 2772 
z
" transform="scale(0.015625)"/>
     </defs>
     <use xlink:href="#DejaVuSans-Bold-54"/>
     <use xlink:href="#DejaVuSans-Bold-69" transform="translate(68.212891 0)"/>
     <use xlink:href="#DejaVuSans-Bold-6d" transform="translate(102.490234 0)"/>
     <use xlink:href="#DejaVuSans-Bold-65" transform="translate(206.689453 0)"/>
     <use xlink:href="#DejaVuSans-Bold-20" transform="translate(274.511719 0)"/>
     <use xlink:href="#DejaVuSans-Bold-47" transform="translate(309.326172 0)"/>
     <use xlink:href="#DejaVuSans-Bold-61" transform="translate(391.40625 0)"/>
     <use xlink:href="#DejaVuSans-Bold-74" transform="translate(458.886719 0)"/>
     <use xlink:href="#DejaVuSans-Bold-69" transform="translate(506.689453 0)"/>
     <use xlink:href="#DejaVuSans-Bold-6e" transform="translate(540.966797 0)"/>
     <use xlink:href="#DejaVuSans-Bold-67" transform="translate(612.158203 0)"/>
    </g>
   </g>
   <g id="text_3">
    <!-- Check phase accumulators -->
    <g style="fill: #95a5a6" transform="translate(216.72 81.491146) scale(0.08 -0.08)">
     <defs>
      <path id="DejaVuSans-43" d="M 4122 4306 
L 4122 3641 
Q 3803 3938 3442 4084 
Q 3081 4231 2675 4231 
Q 1875 4231 1450 3742 
Q 1025 3253 1025 2328 
Q 1025 1406 1450 917 
Q 1875 428 2675 428 
Q 3081 428 3442 575 
Q 3803 722 4122 1019 
L 4122 359 
Q 3791 134 3420 21 
Q 3050 -91 2638 -91 
Q 1578 -91 968 557 
Q 359 1206 359 2328 
Q 359 3453 968 4101 
Q 1578 4750 2638 4750 
Q 3056 4750 3426 4639 
Q 3797 4528 4122 4306 
z
" transform="scale(0.015625)"/>
      <path id="DejaVuSans-68" d="M 3513 2113 
L 3513 0 
L 2938 0 
L 2938 2094 
Q 2938 2591 2744 2837 
Q 2550 3084 2163 3084 
Q 1697 3084 1428 2787 
Q 1159 2491 1159 1978 
L 1159 0 
L 581 0 
L 581 4863 
L 1159 4863 
L 1159 2956 
Q 1366 3272 1645 3428 
Q 1925 3584 2291 3584 
Q 2894 3584 3203 3211 
Q 3513 2838 3513 2113 
z
" transform="scale(0.015625)"/>
      <path id="DejaVuSans-65" d="M 3597 1894 
L 3597 1613 
L 953 1613 
Q 991 1019 1311 708 
Q 1631 397 2203 397 
Q 2534 397 2845 478 
Q 3156 559 3463 722 
L 3463 178 
Q 3153 47 2828 -22 
Q 2503 -91 2169 -91 
Q 1331 -91 842 396 
Q 353 884 353 1716 
Q 353 2575 817 3079 
Q 1281 3584 2069 3584 
Q 2775 3584 3186 3129 
Q 3597 2675 3597 1894 
z
M 3022 2063 
Q 3016 2534 2758 2815 
Q 2500 3097 2075 3097 
Q 1594 3097 1305 2825 
Q 1016 2553 972 2059 
L 3022 2063 
z
" transform="scale(0.015625)"/>
      <path id="DejaVuSans-63" d="M 3122 3366 
L 3122 2828 
Q 2878 2963 2633 3030 
Q 2388 3097 2138 3097 
Q 1578 3097 1268 2742 
Q 959 2388 959 1747 
Q 959 1106 1268 751 
Q 1578 397 2138 397 
Q 2388 397 2633 464 
Q 2878 531 3122 666 
L 3122 134 
Q 2881 22 2623 -34 
Q 2366 -91 2075 -91 
Q 1284 -91 818 406 
Q 353 903 353 1747 
Q 353 2603 823 3093 
Q 1294 3584 2113 3584 
Q 2378 3584 2631 3529 
Q 2884 3475 3122 3366 
z
" transform="scale(0.015625)"/>
      <path id="DejaVuSans-6b" d="M 581 4863 
L 1159 4863 
L 1159 1991 
L 2875 3500 
L 3609 3500 
L 1753 1863 
L 3688 0 
L 2938 0 
L 1159 1709 
L 1159 0 
L 581 0 
L 581 4863 
z
" transform="scale(0.015625)"/>
      <path id="DejaVuSans-20" transform="scale(0.015625)"/>
      <path id="DejaVuSans-70" d="M 1159 525 
L 1159 -1331 
L 581 -1331 
L 581 3500 
L 1159 3500 
L 1159 2969 
Q 1341 3281 1617 3432 
Q 1894 3584 2278 3584 
Q 2916 3584 3314 3078 
Q 3713 2572 3713 1747 
Q 3713 922 3314 415 
Q 2916 -91 2278 -91 
Q 1894 -91 1617 61 
Q 1341 213 1159 525 
z
M 3116 1747 
Q 3116 2381 2855 2742 
Q 2594 3103 2138 3103 
Q 1681 3103 1420 2742 
Q 1159 2381 1159 1747 
Q 1159 1113 1420 752 
Q 1681 391 2138 391 
Q 2594 391 2855 752 
Q 3116 1113 3116 1747 
z
" transform="scale(0.015625)"/>
      <path id="DejaVuSans-61" d="M 2194 1759 
Q 1497 1759 1228 1600 
Q 959 1441 959 1056 
Q 959 750 1161 570 
Q 1363 391 1709 391 
Q 2188 391 2477 730 
Q 2766 1069 2766 1631 
L 2766 1759 
L 2194 1759 
z
M 3341 1997 
L 3341 0 
L 2766 0 
L 2766 531 
Q 2569 213 2275 61 
Q 1981 -91 1556 -91 
Q 1019 -91 701 211 
Q 384 513 384 1019 
Q 384 1609 779 1909 
Q 1175 2209 1959 2209 
L 2766 2209 
L 2766 2266 
Q 2766 2663 2505 2880 
Q 2244 3097 1772 3097 
Q 1472 3097 1187 3025 
Q 903 2953 641 2809 
L 641 3341 
Q 956 3463 1253 3523 
Q 1550 3584 1831 3584 
Q 2591 3584 2966 3190 
Q 3341 2797 3341 1997 
z
" transform="scale(0.015625)"/>
      <path id="DejaVuSans-73" d="M 2834 3397 
L 2834 2853 
Q 2591 2978 2328 3040 
Q 2066 3103 1784 3103 
Q 1356 3103 1142 2972 
Q 928 2841 928 2578 
Q 928 2378 1081 2264 
Q 1234 2150 1697 2047 
L 1894 2003 
Q 2506 1872 2764 1633 
Q 3022 1394 3022 966 
Q 3022 478 2636 193 
Q 2250 -91 1575 -91 
Q 1294 -91 989 -36 
Q 684 19 347 128 
L 347 722 
Q 666 556 975 473 
Q 1284 391 1588 391 
Q 1994 391 2212 530 
Q 2431 669 2431 922 
Q 2431 1156 2273 1281 
Q 2116 1406 1581 1522 
L 1381 1569 
Q 847 1681 609 1914 
Q 372 2147 372 2553 
Q 372 3047 722 3315 
Q 1072 3584 1716 3584 
Q 2034 3584 2315 3537 
Q 2597 3491 2834 3397 
z
" transform="scale(0.015625)"/>
      <path id="DejaVuSans-75" d="M 544 1381 
L 544 3500 
L 1119 3500 
L 1119 1403 
Q 1119 906 1312 657 
Q 1506 409 1894 409 
Q 2359 409 2629 706 
Q 2900 1003 2900 1516 
L 2900 3500 
L 3475 3500 
L 3475 0 
L 2900 0 
L 2900 538 
Q 2691 219 2414 64 
Q 2138 -91 1772 -91 
Q 1169 -91 856 284 
Q 544 659 544 1381 
z
M 1991 3584 
L 1991 3584 
z
" transform="scale(0.015625)"/>
      <path id="DejaVuSans-6d" d="M 3328 2828 
Q 3544 3216 3844 3400 
Q 4144 3584 4550 3584 
Q 5097 3584 5394 3201 
Q 5691 2819 5691 2113 
L 5691 0 
L 5113 0 
L 5113 2094 
Q 5113 2597 4934 2840 
Q 4756 3084 4391 3084 
Q 3944 3084 3684 2787 
Q 3425 2491 3425 1978 
L 3425 0 
L 2847 0 
L 2847 2094 
Q 2847 2600 2669 2842 
Q 2491 3084 2119 3084 
Q 1678 3084 1418 2786 
Q 1159 2488 1159 1978 
L 1159 0 
L 581 0 
L 581 3500 
L 1159 3500 
L 1159 2956 
Q 1356 3278 1631 3431 
Q 1906 3584 2284 3584 
Q 2666 3584 2933 3390 
Q 3200 3197 3328 2828 
z
" transform="scale(0.015625)"/>
      <path id="DejaVuSans-6c" d="M 603 4863 
L 1178 4863 
L 1178 0 
L 603 0 
L 603 4863 
z
" transform="scale(0.015625)"/>
      <path id="DejaVuSans-74" d="M 1172 4494 
L 1172 3500 
L 2356 3500 
L 2356 3053 
L 1172 3053 
L 1172 1153 
Q 1172 725 1289 603 
Q 1406 481 1766 481 
L 2356 481 
L 2356 0 
L 1766 0 
Q 1100 0 847 248 
Q 594 497 594 1153 
L 594 3053 
L 172 3053 
L 172 3500 
L 594 3500 
L 594 4494 
L 1172 4494 
z
" transform="scale(0.015625)"/>
      <path id="DejaVuSans-6f" d="M 1959 3097 
Q 1497 3097 1228 2736 
Q 959 2375 959 1747 
Q 959 1119 1226 758 
Q 1494 397 1959 397 
Q 2419 397 2687 759 
Q 2956 1122 2956 1747 
Q 2956 2369 2687 2733 
Q 2419 3097 1959 3097 
z
M 1959 3584 
Q 2709 3584 3137 3096 
Q 3566 2609 3566 1747 
Q 3566 888 3137 398 
Q 2709 -91 1959 -91 
Q 1206 -91 779 398 
Q 353 888 353 1747 
Q 353 2609 779 3096 
Q 1206 3584 1959 3584 
z
" transform="scale(0.015625)"/>
      <path id="DejaVuSans-72" d="M 2631 2963 
Q 2534 3019 2420 3045 
Q 2306 3072 2169 3072 
Q 1681 3072 1420 2755 
Q 1159 2438 1159 1844 
L 1159 0 
L 581 0 
L 581 3500 
L 1159 3500 
L 1159 2956 
Q 1341 3275 1631 3429 
Q 1922 3584 2338 3584 
Q 2397 3584 2469 3576 
Q 2541 3569 2628 3553 
L 2631 2963 
z
" transform="scale(0.015625)"/>
     </defs>
     <use xlink:href="#DejaVuSans-43"/>
     <use xlink:href="#DejaVuSans-68" transform="translate(69.824219 0)"/>
     <use xlink:href="#DejaVuSans-65" transform="translate(133.203125 0)"/>
     <use xlink:href="#DejaVuSans-63" transform="translate(194.726562 0)"/>
     <use xlink:href="#DejaVuSans-6b" transform="translate(249.707031 0)"/>
     <use xlink:href="#DejaVuSans-20" transform="translate(307.617188 0)"/>
     <use xlink:href="#DejaVuSans-70" transform="translate(339.404297 0)"/>
     <use xlink:href="#DejaVuSans-68" transform="translate(402.880859 0)"/>
     <use xlink:href="#DejaVuSans-61" transform="translate(466.259766 0)"/>
     <use xlink:href="#DejaVuSans-73" transform="translate(527.539062 0)"/>
     <use xlink:href="#DejaVuSans-65" transform="translate(579.638672 0)"/>
     <use xlink:href="#DejaVuSans-20" transform="translate(641.162109 0)"/>
     <use xlink:href="#DejaVuSans-61" transform="translate(672.949219 0)"/>
     <use xlink:href="#DejaVuSans-63" transform="translate(734.228516 0)"/>
     <use xlink:href="#DejaVuSans-63" transform="translate(789.208984 0)"/>
     <use xlink:href="#DejaVuSans-75" transform="translate(844.189453 0)"/>
     <use xlink:href="#DejaVuSans-6d" transform="translate(907.568359 0)"/>
     <use xlink:href="#DejaVuSans-75" transform="translate(1004.980469 0)"/>
     <use xlink:href="#DejaVuSans-6c" transform="translate(1068.359375 0)"/>
     <use xlink:href="#DejaVuSans-61" transform="translate(1096.142578 0)"/>
     <use xlink:href="#DejaVuSans-74" transform="translate(1157.421875 0)"/>
     <use xlink:href="#DejaVuSans-6f" transform="translate(1196.630859 0)"/>
     <use xlink:href="#DejaVuSans-72" transform="translate(1257.8125 0)"/>
     <use xlink:href="#DejaVuSans-73" transform="translate(1298.925781 0)"/>
    </g>
   </g>
   <g id="text_4">
    <!-- 2 -->
    <g style="fill: #ffffff" transform="translate(120.816875 109.890646) scale(0.08 -0.08)">
     <defs>
      <path id="DejaVuSans-Bold-32" d="M 1844 884 
L 3897 884 
L 3897 0 
L 506 0 
L 506 884 
L 2209 2388 
Q 2438 2594 2547 2791 
Q 2656 2988 2656 3200 
Q 2656 3528 2436 3728 
Q 2216 3928 1850 3928 
Q 1569 3928 1234 3808 
Q 900 3688 519 3450 
L 519 4475 
Q 925 4609 1322 4679 
Q 1719 4750 2100 4750 
Q 2938 4750 3402 4381 
Q 3866 4013 3866 3353 
Q 3866 2972 3669 2642 
Q 3472 2313 2841 1759 
L 1844 884 
z
" transform="scale(0.015625)"/>
     </defs>
     <use xlink:href="#DejaVuSans-Bold-32"/>
    </g>
   </g>
   <g id="text_5">
    <!-- Entropy -->
    <g style="fill: #2c3e50" transform="translate(216.72 104.190879) scale(0.12 -0.12)">
     <defs>
      <path id="DejaVuSans-Bold-45" d="M 588 4666 
L 3834 4666 
L 3834 3756 
L 1791 3756 
L 1791 2888 
L 3713 2888 
L 3713 1978 
L 1791 1978 
L 1791 909 
L 3903 909 
L 3903 0 
L 588 0 
L 588 4666 
z
" transform="scale(0.015625)"/>
      <path id="DejaVuSans-Bold-72" d="M 3138 2547 
Q 2991 2616 2845 2648 
Q 2700 2681 2553 2681 
Q 2122 2681 1889 2404 
Q 1656 2128 1656 1613 
L 1656 0 
L 538 0 
L 538 3500 
L 1656 3500 
L 1656 2925 
Q 1872 3269 2151 3426 
Q 2431 3584 2822 3584 
Q 2878 3584 2943 3579 
Q 3009 3575 3134 3559 
L 3138 2547 
z
" transform="scale(0.015625)"/>
      <path id="DejaVuSans-Bold-6f" d="M 2203 2784 
Q 1831 2784 1636 2517 
Q 1441 2250 1441 1747 
Q 1441 1244 1636 976 
Q 1831 709 2203 709 
Q 2569 709 2762 976 
Q 2956 1244 2956 1747 
Q 2956 2250 2762 2517 
Q 2569 2784 2203 2784 
z
M 2203 3584 
Q 3106 3584 3614 3096 
Q 4122 2609 4122 1747 
Q 4122 884 3614 396 
Q 3106 -91 2203 -91 
Q 1297 -91 786 396 
Q 275 884 275 1747 
Q 275 2609 786 3096 
Q 1297 3584 2203 3584 
z
" transform="scale(0.015625)"/>
      <path id="DejaVuSans-Bold-70" d="M 1656 506 
L 1656 -1331 
L 538 -1331 
L 538 3500 
L 1656 3500 
L 1656 2988 
Q 1888 3294 2169 3439 
Q 2450 3584 2816 3584 
Q 3463 3584 3878 3070 
Q 4294 2556 4294 1747 
Q 4294 938 3878 423 
Q 3463 -91 2816 -91 
Q 2450 -91 2169 54 
Q 1888 200 1656 506 
z
M 2400 2772 
Q 2041 2772 1848 2508 
Q 1656 2244 1656 1747 
Q 1656 1250 1848 986 
Q 2041 722 2400 722 
Q 2759 722 2948 984 
Q 3138 1247 3138 1747 
Q 3138 2247 2948 2509 
Q 2759 2772 2400 2772 
z
" transform="scale(0.015625)"/>
      <path id="DejaVuSans-Bold-79" d="M 78 3500 
L 1197 3500 
L 2138 1125 
L 2938 3500 
L 4056 3500 
L 2584 -331 
Q 2363 -916 2067 -1148 
Q 1772 -1381 1288 -1381 
L 641 -1381 
L 641 -647 
L 991 -647 
Q 1275 -647 1404 -556 
Q 1534 -466 1606 -231 
L 1638 -134 
L 78 3500 
z
" transform="scale(0.015625)"/>
     </defs>
     <use xlink:href="#DejaVuSans-Bold-45"/>
     <use xlink:href="#DejaVuSans-Bold-6e" transform="translate(68.310547 0)"/>
     <use xlink:href="#DejaVuSans-Bold-74" transform="translate(139.501953 0)"/>
     <use xlink:href="#DejaVuSans-Bold-72" transform="translate(187.304688 0)"/>
     <use xlink:href="#DejaVuSans-Bold-6f" transform="translate(236.621094 0)"/>
     <use xlink:href="#DejaVuSans-Bold-70" transform="translate(305.322266 0)"/>
     <use xlink:href="#DejaVuSans-Bold-79" transform="translate(376.904297 0)"/>
    </g>
   </g>
   <g id="text_6">
    <!-- Apply decay to unlocked voxels -->
    <g style="fill: #95a5a6" transform="translate(216.72 116.413812) scale(0.08 -0.08)">
     <defs>
      <path id="DejaVuSans-41" d="M 2188 4044 
L 1331 1722 
L 3047 1722 
L 2188 4044 
z
M 1831 4666 
L 2547 4666 
L 4325 0 
L 3669 0 
L 3244 1197 
L 1141 1197 
L 716 0 
L 50 0 
L 1831 4666 
z
" transform="scale(0.015625)"/>
      <path id="DejaVuSans-79" d="M 2059 -325 
Q 1816 -950 1584 -1140 
Q 1353 -1331 966 -1331 
L 506 -1331 
L 506 -850 
L 844 -850 
Q 1081 -850 1212 -737 
Q 1344 -625 1503 -206 
L 1606 56 
L 191 3500 
L 800 3500 
L 1894 763 
L 2988 3500 
L 3597 3500 
L 2059 -325 
z
" transform="scale(0.015625)"/>
      <path id="DejaVuSans-64" d="M 2906 2969 
L 2906 4863 
L 3481 4863 
L 3481 0 
L 2906 0 
L 2906 525 
Q 2725 213 2448 61 
Q 2172 -91 1784 -91 
Q 1150 -91 751 415 
Q 353 922 353 1747 
Q 353 2572 751 3078 
Q 1150 3584 1784 3584 
Q 2172 3584 2448 3432 
Q 2725 3281 2906 2969 
z
M 947 1747 
Q 947 1113 1208 752 
Q 1469 391 1925 391 
Q 2381 391 2643 752 
Q 2906 1113 2906 1747 
Q 2906 2381 2643 2742 
Q 2381 3103 1925 3103 
Q 1469 3103 1208 2742 
Q 947 2381 947 1747 
z
" transform="scale(0.015625)"/>
      <path id="DejaVuSans-6e" d="M 3513 2113 
L 3513 0 
L 2938 0 
L 2938 2094 
Q 2938 2591 2744 2837 
Q 2550 3084 2163 3084 
Q 1697 3084 1428 2787 
Q 1159 2491 1159 1978 
L 1159 0 
L 581 0 
L 581 3500 
L 1159 3500 
L 1159 2956 
Q 1366 3272 1645 3428 
Q 1925 3584 2291 3584 
Q 2894 3584 3203 3211 
Q 3513 2838 3513 2113 
z
" transform="scale(0.015625)"/>
      <path id="DejaVuSans-76" d="M 191 3500 
L 800 3500 
L 1894 563 
L 2988 3500 
L 3597 3500 
L 2284 0 
L 1503 0 
L 191 3500 
z
" transform="scale(0.015625)"/>
      <path id="DejaVuSans-78" d="M 3513 3500 
L 2247 1797 
L 3578 0 
L 2900 0 
L 1881 1375 
L 863 0 
L 184 0 
L 1544 1831 
L 300 3500 
L 978 3500 
L 1906 2253 
L 2834 3500 
L 3513 3500 
z
" transform="scale(0.015625)"/>
     </defs>
     <use xlink:href="#DejaVuSans-41"/>
     <use xlink:href="#DejaVuSans-70" transform="translate(68.408203 0)"/>
     <use xlink:href="#DejaVuSans-70" transform="translate(131.884766 0)"/>
     <use xlink:href="#DejaVuSans-6c" transform="translate(195.361328 0)"/>
     <use xlink:href="#DejaVuSans-79" transform="translate(223.144531 0)"/>
     <use xlink:href="#DejaVuSans-20" transform="translate(282.324219 0)"/>
     <use xlink:href="#DejaVuSans-64" transform="translate(314.111328 0)"/>
     <use xlink:href="#DejaVuSans-65" transform="translate(377.587891 0)"/>
     <use xlink:href="#DejaVuSans-63" transform="translate(439.111328 0)"/>
     <use xlink:href="#DejaVuSans-61" transform="translate(494.091797 0)"/>
     <use xlink:href="#DejaVuSans-79" transform="translate(555.371094 0)"/>
     <use xlink:href="#DejaVuSans-20" transform="translate(614.550781 0)"/>
     <use xlink:href="#DejaVuSans-74" transform="translate(646.337891 0)"/>
     <use xlink:href="#DejaVuSans-6f" transform="translate(685.546875 0)"/>
     <use xlink:href="#DejaVuSans-20" transform="translate(746.728516 0)"/>
     <use xlink:href="#DejaVuSans-75" transform="translate(778.515625 0)"/>
     <use xlink:href="#DejaVuSans-6e" transform="translate(841.894531 0)"/>
     <use xlink:href="#DejaVuSans-6c" transform="translate(905.273438 0)"/>
     <use xlink:href="#DejaVuSans-6f" transform="translate(933.056641 0)"/>
     <use xlink:href="#DejaVuSans-63" transform="translate(994.238281 0)"/>
     <use xlink:href="#DejaVuSans-6b" transform="translate(1049.21875 0)"/>
     <use xlink:href="#DejaVuSans-65" transform="translate(1103.503906 0)"/>
     <use xlink:href="#DejaVuSans-64" transform="translate(1165.027344 0)"/>
     <use xlink:href="#DejaVuSans-20" transform="translate(1228.503906 0)"/>
     <use xlink:href="#DejaVuSans-76" transform="translate(1260.291016 0)"/>
     <use xlink:href="#DejaVuSans-6f" transform="translate(1319.470703 0)"/>
     <use xlink:href="#DejaVuSans-78" transform="translate(1377.527344 0)"/>
     <use xlink:href="#DejaVuSans-65" transform="translate(1433.582031 0)"/>
     <use xlink:href="#DejaVuSans-6c" transform="translate(1495.105469 0)"/>
     <use xlink:href="#DejaVuSans-73" transform="translate(1522.888672 0)"/>
    </g>
   </g>
   <g id="text_7">
    <!-- 3 -->
    <g style="fill: #ffffff" transform="translate(120.816875 144.813312) scale(0.08 -0.08)">
     <defs>
      <path id="DejaVuSans-Bold-33" d="M 2981 2516 
Q 3453 2394 3698 2092 
Q 3944 1791 3944 1325 
Q 3944 631 3412 270 
Q 2881 -91 1863 -91 
Q 1503 -91 1142 -33 
Q 781 25 428 141 
L 428 1069 
Q 766 900 1098 814 
Q 1431 728 1753 728 
Q 2231 728 2486 893 
Q 2741 1059 2741 1369 
Q 2741 1688 2480 1852 
Q 2219 2016 1709 2016 
L 1228 2016 
L 1228 2791 
L 1734 2791 
Q 2188 2791 2409 2933 
Q 2631 3075 2631 3366 
Q 2631 3634 2415 3781 
Q 2200 3928 1806 3928 
Q 1516 3928 1219 3862 
Q 922 3797 628 3669 
L 628 4550 
Q 984 4650 1334 4700 
Q 1684 4750 2022 4750 
Q 2931 4750 3382 4451 
Q 3834 4153 3834 3553 
Q 3834 3144 3618 2883 
Q 3403 2622 2981 2516 
z
" transform="scale(0.015625)"/>
     </defs>
     <use xlink:href="#DejaVuSans-Bold-33"/>
    </g>
   </g>
   <g id="text_8">
    <!-- Existence -->
    <g style="fill: #2c3e50" transform="translate(216.72 139.113546) scale(0.12 -0.12)">
     <defs>
      <path id="DejaVuSans-Bold-78" d="M 1422 1791 
L 159 3500 
L 1344 3500 
L 2059 2463 
L 2784 3500 
L 3969 3500 
L 2706 1797 
L 4031 0 
L 2847 0 
L 2059 1106 
L 1281 0 
L 97 0 
L 1422 1791 
z
" transform="scale(0.015625)"/>
      <path id="DejaVuSans-Bold-73" d="M 3272 3391 
L 3272 2541 
Q 2913 2691 2578 2766 
Q 2244 2841 1947 2841 
Q 1628 2841 1473 2761 
Q 1319 2681 1319 2516 
Q 1319 2381 1436 2309 
Q 1553 2238 1856 2203 
L 2053 2175 
Q 2913 2066 3209 1816 
Q 3506 1566 3506 1031 
Q 3506 472 3093 190 
Q 2681 -91 1863 -91 
Q 1516 -91 1145 -36 
Q 775 19 384 128 
L 384 978 
Q 719 816 1070 734 
Q 1422 653 1784 653 
Q 2113 653 2278 743 
Q 2444 834 2444 1013 
Q 2444 1163 2330 1236 
Q 2216 1309 1875 1350 
L 1678 1375 
Q 931 1469 631 1722 
Q 331 1975 331 2491 
Q 331 3047 712 3315 
Q 1094 3584 1881 3584 
Q 2191 3584 2531 3537 
Q 2872 3491 3272 3391 
z
" transform="scale(0.015625)"/>
      <path id="DejaVuSans-Bold-63" d="M 3366 3391 
L 3366 2478 
Q 3138 2634 2908 2709 
Q 2678 2784 2431 2784 
Q 1963 2784 1702 2511 
Q 1441 2238 1441 1747 
Q 1441 1256 1702 982 
Q 1963 709 2431 709 
Q 2694 709 2930 787 
Q 3166 866 3366 1019 
L 3366 103 
Q 3103 6 2833 -42 
Q 2563 -91 2291 -91 
Q 1344 -91 809 395 
Q 275 881 275 1747 
Q 275 2613 809 3098 
Q 1344 3584 2291 3584 
Q 2566 3584 2833 3536 
Q 3100 3488 3366 3391 
z
" transform="scale(0.015625)"/>
     </defs>
     <use xlink:href="#DejaVuSans-Bold-45"/>
     <use xlink:href="#DejaVuSans-Bold-78" transform="translate(68.310547 0)"/>
     <use xlink:href="#DejaVuSans-Bold-69" transform="translate(132.8125 0)"/>
     <use xlink:href="#DejaVuSans-Bold-73" transform="translate(167.089844 0)"/>
     <use xlink:href="#DejaVuSans-Bold-74" transform="translate(226.611328 0)"/>
     <use xlink:href="#DejaVuSans-Bold-65" transform="translate(274.414062 0)"/>
     <use xlink:href="#DejaVuSans-Bold-6e" transform="translate(342.236328 0)"/>
     <use xlink:href="#DejaVuSans-Bold-63" transform="translate(413.427734 0)"/>
     <use xlink:href="#DejaVuSans-Bold-65" transform="translate(472.705078 0)"/>
    </g>
   </g>
   <g id="text_9">
    <!-- Genesis &amp; evaporation checks -->
    <g style="fill: #95a5a6" transform="translate(216.72 151.336479) scale(0.08 -0.08)">
     <defs>
      <path id="DejaVuSans-47" d="M 3809 666 
L 3809 1919 
L 2778 1919 
L 2778 2438 
L 4434 2438 
L 4434 434 
Q 4069 175 3628 42 
Q 3188 -91 2688 -91 
Q 1594 -91 976 548 
Q 359 1188 359 2328 
Q 359 3472 976 4111 
Q 1594 4750 2688 4750 
Q 3144 4750 3555 4637 
Q 3966 4525 4313 4306 
L 4313 3634 
Q 3963 3931 3569 4081 
Q 3175 4231 2741 4231 
Q 1884 4231 1454 3753 
Q 1025 3275 1025 2328 
Q 1025 1384 1454 906 
Q 1884 428 2741 428 
Q 3075 428 3337 486 
Q 3600 544 3809 666 
z
" transform="scale(0.015625)"/>
      <path id="DejaVuSans-69" d="M 603 3500 
L 1178 3500 
L 1178 0 
L 603 0 
L 603 3500 
z
M 603 4863 
L 1178 4863 
L 1178 4134 
L 603 4134 
L 603 4863 
z
" transform="scale(0.015625)"/>
      <path id="DejaVuSans-26" d="M 1556 2509 
Q 1272 2256 1139 2004 
Q 1006 1753 1006 1478 
Q 1006 1022 1337 719 
Q 1669 416 2169 416 
Q 2466 416 2725 514 
Q 2984 613 3213 813 
L 1556 2509 
z
M 1997 2859 
L 3584 1234 
Q 3769 1513 3872 1830 
Q 3975 2147 3994 2503 
L 4575 2503 
Q 4538 2091 4375 1687 
Q 4213 1284 3922 891 
L 4794 0 
L 4006 0 
L 3559 459 
Q 3234 181 2878 45 
Q 2522 -91 2113 -91 
Q 1359 -91 881 339 
Q 403 769 403 1441 
Q 403 1841 612 2192 
Q 822 2544 1241 2853 
Q 1091 3050 1012 3245 
Q 934 3441 934 3628 
Q 934 4134 1281 4442 
Q 1628 4750 2203 4750 
Q 2463 4750 2720 4694 
Q 2978 4638 3244 4525 
L 3244 3956 
Q 2972 4103 2725 4179 
Q 2478 4256 2266 4256 
Q 1938 4256 1733 4082 
Q 1528 3909 1528 3634 
Q 1528 3475 1620 3314 
Q 1713 3153 1997 2859 
z
" transform="scale(0.015625)"/>
     </defs>
     <use xlink:href="#DejaVuSans-47"/>
     <use xlink:href="#DejaVuSans-65" transform="translate(77.490234 0)"/>
     <use xlink:href="#DejaVuSans-6e" transform="translate(139.013672 0)"/>
     <use xlink:href="#DejaVuSans-65" transform="translate(202.392578 0)"/>
     <use xlink:href="#DejaVuSans-73" transform="translate(263.916016 0)"/>
     <use xlink:href="#DejaVuSans-69" transform="translate(316.015625 0)"/>
     <use xlink:href="#DejaVuSans-73" transform="translate(343.798828 0)"/>
     <use xlink:href="#DejaVuSans-20" transform="translate(395.898438 0)"/>
     <use xlink:href="#DejaVuSans-26" transform="translate(427.685547 0)"/>
     <use xlink:href="#DejaVuSans-20" transform="translate(505.664062 0)"/>
     <use xlink:href="#DejaVuSans-65" transform="translate(537.451172 0)"/>
     <use xlink:href="#DejaVuSans-76" transform="translate(598.974609 0)"/>
     <use xlink:href="#DejaVuSans-61" transform="translate(658.154297 0)"/>
     <use xlink:href="#DejaVuSans-70" transform="translate(719.433594 0)"/>
     <use xlink:href="#DejaVuSans-6f" transform="translate(782.910156 0)"/>
     <use xlink:href="#DejaVuSans-72" transform="translate(844.091797 0)"/>
     <use xlink:href="#DejaVuSans-61" transform="translate(885.205078 0)"/>
     <use xlink:href="#DejaVuSans-74" transform="translate(946.484375 0)"/>
     <use xlink:href="#DejaVuSans-69" transform="translate(985.693359 0)"/>
     <use xlink:href="#DejaVuSans-6f" transform="translate(1013.476562 0)"/>
     <use xlink:href="#DejaVuSans-6e" transform="translate(1074.658203 0)"/>
     <use xlink:href="#DejaVuSans-20" transform="translate(1138.037109 0)"/>
     <use xlink:href="#DejaVuSans-63" transform="translate(1169.824219 0)"/>
     <use xlink:href="#DejaVuSans-68" transform="translate(1224.804688 0)"/>
     <use xlink:href="#DejaVuSans-65" transform="translate(1288.183594 0)"/>
     <use xlink:href="#DejaVuSans-63" transform="translate(1349.707031 0)"/>
     <use xlink:href="#DejaVuSans-6b" transform="translate(1404.6875 0)"/>
     <use xlink:href="#DejaVuSans-73" transform="translate(1462.597656 0)"/>
    </g>
   </g>
   <g id="text_10">
    <!-- 4 -->
    <g style="fill: #ffffff" transform="translate(120.816875 179.735979) scale(0.08 -0.08)">
     <defs>
      <path id="DejaVuSans-Bold-34" d="M 2356 3675 
L 1038 1722 
L 2356 1722 
L 2356 3675 
z
M 2156 4666 
L 3494 4666 
L 3494 1722 
L 4159 1722 
L 4159 850 
L 3494 850 
L 3494 0 
L 2356 0 
L 2356 850 
L 288 850 
L 288 1881 
L 2156 4666 
z
" transform="scale(0.015625)"/>
     </defs>
     <use xlink:href="#DejaVuSans-Bold-34"/>
    </g>
   </g>
   <g id="text_11">
    <!-- Wave Propagation -->
    <g style="fill: #2c3e50" transform="translate(216.72 174.036212) scale(0.12 -0.12)">
     <defs>
      <path id="DejaVuSans-Bold-57" d="M 191 4666 
L 1344 4666 
L 2150 1275 
L 2950 4666 
L 4109 4666 
L 4909 1275 
L 5716 4666 
L 6859 4666 
L 5759 0 
L 4372 0 
L 3525 3547 
L 2688 0 
L 1300 0 
L 191 4666 
z
" transform="scale(0.015625)"/>
      <path id="DejaVuSans-Bold-76" d="M 97 3500 
L 1216 3500 
L 2088 1081 
L 2956 3500 
L 4078 3500 
L 2700 0 
L 1472 0 
L 97 3500 
z
" transform="scale(0.015625)"/>
      <path id="DejaVuSans-Bold-50" d="M 588 4666 
L 2584 4666 
Q 3475 4666 3951 4270 
Q 4428 3875 4428 3144 
Q 4428 2409 3951 2014 
Q 3475 1619 2584 1619 
L 1791 1619 
L 1791 0 
L 588 0 
L 588 4666 
z
M 1791 3794 
L 1791 2491 
L 2456 2491 
Q 2806 2491 2997 2661 
Q 3188 2831 3188 3144 
Q 3188 3456 2997 3625 
Q 2806 3794 2456 3794 
L 1791 3794 
z
" transform="scale(0.015625)"/>
     </defs>
     <use xlink:href="#DejaVuSans-Bold-57"/>
     <use xlink:href="#DejaVuSans-Bold-61" transform="translate(106.677734 0)"/>
     <use xlink:href="#DejaVuSans-Bold-76" transform="translate(174.158203 0)"/>
     <use xlink:href="#DejaVuSans-Bold-65" transform="translate(239.34375 0)"/>
     <use xlink:href="#DejaVuSans-Bold-20" transform="translate(307.166016 0)"/>
     <use xlink:href="#DejaVuSans-Bold-50" transform="translate(341.980469 0)"/>
     <use xlink:href="#DejaVuSans-Bold-72" transform="translate(415.271484 0)"/>
     <use xlink:href="#DejaVuSans-Bold-6f" transform="translate(464.587891 0)"/>
     <use xlink:href="#DejaVuSans-Bold-70" transform="translate(533.289062 0)"/>
     <use xlink:href="#DejaVuSans-Bold-61" transform="translate(604.871094 0)"/>
     <use xlink:href="#DejaVuSans-Bold-67" transform="translate(672.351562 0)"/>
     <use xlink:href="#DejaVuSans-Bold-61" transform="translate(743.933594 0)"/>
     <use xlink:href="#DejaVuSans-Bold-74" transform="translate(811.414062 0)"/>
     <use xlink:href="#DejaVuSans-Bold-69" transform="translate(859.216797 0)"/>
     <use xlink:href="#DejaVuSans-Bold-6f" transform="translate(893.494141 0)"/>
     <use xlink:href="#DejaVuSans-Bold-6e" transform="translate(962.195312 0)"/>
    </g>
   </g>
   <g id="text_12">
    <!-- Update flux vectors -->
    <g style="fill: #95a5a6" transform="translate(216.72 186.259146) scale(0.08 -0.08)">
     <defs>
      <path id="DejaVuSans-55" d="M 556 4666 
L 1191 4666 
L 1191 1831 
Q 1191 1081 1462 751 
Q 1734 422 2344 422 
Q 2950 422 3222 751 
Q 3494 1081 3494 1831 
L 3494 4666 
L 4128 4666 
L 4128 1753 
Q 4128 841 3676 375 
Q 3225 -91 2344 -91 
Q 1459 -91 1007 375 
Q 556 841 556 1753 
L 556 4666 
z
" transform="scale(0.015625)"/>
      <path id="DejaVuSans-66" d="M 2375 4863 
L 2375 4384 
L 1825 4384 
Q 1516 4384 1395 4259 
Q 1275 4134 1275 3809 
L 1275 3500 
L 2222 3500 
L 2222 3053 
L 1275 3053 
L 1275 0 
L 697 0 
L 697 3053 
L 147 3053 
L 147 3500 
L 697 3500 
L 697 3744 
Q 697 4328 969 4595 
Q 1241 4863 1831 4863 
L 2375 4863 
z
" transform="scale(0.015625)"/>
     </defs>
     <use xlink:href="#DejaVuSans-55"/>
     <use xlink:href="#DejaVuSans-70" transform="translate(73.193359 0)"/>
     <use xlink:href="#DejaVuSans-64" transform="translate(136.669922 0)"/>
     <use xlink:href="#DejaVuSans-61" transform="translate(200.146484 0)"/>
     <use xlink:href="#DejaVuSans-74" transform="translate(261.425781 0)"/>
     <use xlink:href="#DejaVuSans-65" transform="translate(300.634766 0)"/>
     <use xlink:href="#DejaVuSans-20" transform="translate(362.158203 0)"/>
     <use xlink:href="#DejaVuSans-66" transform="translate(393.945312 0)"/>
     <use xlink:href="#DejaVuSans-6c" transform="translate(429.150391 0)"/>
     <use xlink:href="#DejaVuSans-75" transform="translate(456.933594 0)"/>
     <use xlink:href="#DejaVuSans-78" transform="translate(520.3125 0)"/>
     <use xlink:href="#DejaVuSans-20" transform="translate(579.492188 0)"/>
     <use xlink:href="#DejaVuSans-76" transform="translate(611.279297 0)"/>
     <use xlink:href="#DejaVuSans-65" transform="translate(670.458984 0)"/>
     <use xlink:href="#DejaVuSans-63" transform="translate(731.982422 0)"/>
     <use xlink:href="#DejaVuSans-74" transform="translate(786.962891 0)"/>
     <use xlink:href="#DejaVuSans-6f" transform="translate(826.171875 0)"/>
     <use xlink:href="#DejaVuSans-72" transform="translate(887.353516 0)"/>
     <use xlink:href="#DejaVuSans-73" transform="translate(928.466797 0)"/>
    </g>
   </g>
   <g id="text_13">
    <!-- 5 -->
    <g style="fill: #ffffff" transform="translate(120.816875 214.658646) scale(0.08 -0.08)">
     <defs>
      <path id="DejaVuSans-Bold-35" d="M 678 4666 
L 3669 4666 
L 3669 3781 
L 1638 3781 
L 1638 3059 
Q 1775 3097 1914 3117 
Q 2053 3138 2203 3138 
Q 3056 3138 3531 2711 
Q 4006 2284 4006 1522 
Q 4006 766 3489 337 
Q 2972 -91 2053 -91 
Q 1656 -91 1267 -14 
Q 878 63 494 219 
L 494 1166 
Q 875 947 1217 837 
Q 1559 728 1863 728 
Q 2300 728 2551 942 
Q 2803 1156 2803 1522 
Q 2803 1891 2551 2103 
Q 2300 2316 1863 2316 
Q 1603 2316 1309 2248 
Q 1016 2181 678 2041 
L 678 4666 
z
" transform="scale(0.015625)"/>
     </defs>
     <use xlink:href="#DejaVuSans-Bold-35"/>
    </g>
   </g>
   <g id="text_14">
    <!-- Field Computation -->
    <g style="fill: #2c3e50" transform="translate(216.72 208.958879) scale(0.12 -0.12)">
     <defs>
      <path id="DejaVuSans-Bold-46" d="M 588 4666 
L 3834 4666 
L 3834 3756 
L 1791 3756 
L 1791 2888 
L 3713 2888 
L 3713 1978 
L 1791 1978 
L 1791 0 
L 588 0 
L 588 4666 
z
" transform="scale(0.015625)"/>
      <path id="DejaVuSans-Bold-6c" d="M 538 4863 
L 1656 4863 
L 1656 0 
L 538 0 
L 538 4863 
z
" transform="scale(0.015625)"/>
      <path id="DejaVuSans-Bold-64" d="M 2919 2988 
L 2919 4863 
L 4044 4863 
L 4044 0 
L 2919 0 
L 2919 506 
Q 2688 197 2409 53 
Q 2131 -91 1766 -91 
Q 1119 -91 703 423 
Q 288 938 288 1747 
Q 288 2556 703 3070 
Q 1119 3584 1766 3584 
Q 2128 3584 2408 3439 
Q 2688 3294 2919 2988 
z
M 2181 722 
Q 2541 722 2730 984 
Q 2919 1247 2919 1747 
Q 2919 2247 2730 2509 
Q 2541 2772 2181 2772 
Q 1825 2772 1636 2509 
Q 1447 2247 1447 1747 
Q 1447 1247 1636 984 
Q 1825 722 2181 722 
z
" transform="scale(0.015625)"/>
      <path id="DejaVuSans-Bold-43" d="M 4288 256 
Q 3956 84 3597 -3 
Q 3238 -91 2847 -91 
Q 1681 -91 1000 561 
Q 319 1213 319 2328 
Q 319 3447 1000 4098 
Q 1681 4750 2847 4750 
Q 3238 4750 3597 4662 
Q 3956 4575 4288 4403 
L 4288 3438 
Q 3953 3666 3628 3772 
Q 3303 3878 2944 3878 
Q 2300 3878 1931 3465 
Q 1563 3053 1563 2328 
Q 1563 1606 1931 1193 
Q 2300 781 2944 781 
Q 3303 781 3628 887 
Q 3953 994 4288 1222 
L 4288 256 
z
" transform="scale(0.015625)"/>
      <path id="DejaVuSans-Bold-75" d="M 500 1363 
L 500 3500 
L 1625 3500 
L 1625 3150 
Q 1625 2866 1622 2436 
Q 1619 2006 1619 1863 
Q 1619 1441 1641 1255 
Q 1663 1069 1716 984 
Q 1784 875 1895 815 
Q 2006 756 2150 756 
Q 2500 756 2700 1025 
Q 2900 1294 2900 1772 
L 2900 3500 
L 4019 3500 
L 4019 0 
L 2900 0 
L 2900 506 
Q 2647 200 2364 54 
Q 2081 -91 1741 -91 
Q 1134 -91 817 281 
Q 500 653 500 1363 
z
" transform="scale(0.015625)"/>
     </defs>
     <use xlink:href="#DejaVuSans-Bold-46"/>
     <use xlink:href="#DejaVuSans-Bold-69" transform="translate(68.310547 0)"/>
     <use xlink:href="#DejaVuSans-Bold-65" transform="translate(102.587891 0)"/>
     <use xlink:href="#DejaVuSans-Bold-6c" transform="translate(170.410156 0)"/>
     <use xlink:href="#DejaVuSans-Bold-64" transform="translate(204.6875 0)"/>
     <use xlink:href="#DejaVuSans-Bold-20" transform="translate(276.269531 0)"/>
     <use xlink:href="#DejaVuSans-Bold-43" transform="translate(311.083984 0)"/>
     <use xlink:href="#DejaVuSans-Bold-6f" transform="translate(384.472656 0)"/>
     <use xlink:href="#DejaVuSans-Bold-6d" transform="translate(453.173828 0)"/>
     <use xlink:href="#DejaVuSans-Bold-70" transform="translate(557.373047 0)"/>
     <use xlink:href="#DejaVuSans-Bold-75" transform="translate(628.955078 0)"/>
     <use xlink:href="#DejaVuSans-Bold-74" transform="translate(700.146484 0)"/>
     <use xlink:href="#DejaVuSans-Bold-61" transform="translate(747.949219 0)"/>
     <use xlink:href="#DejaVuSans-Bold-74" transform="translate(815.429688 0)"/>
     <use xlink:href="#DejaVuSans-Bold-69" transform="translate(863.232422 0)"/>
     <use xlink:href="#DejaVuSans-Bold-6f" transform="translate(897.509766 0)"/>
     <use xlink:href="#DejaVuSans-Bold-6e" transform="translate(966.210938 0)"/>
    </g>
   </g>
   <g id="text_15">
    <!-- Compute density, ∇, ∇× -->
    <g style="fill: #95a5a6" transform="translate(216.72 221.181812) scale(0.08 -0.08)">
     <defs>
      <path id="DejaVuSans-2c" d="M 750 794 
L 1409 794 
L 1409 256 
L 897 -744 
L 494 -744 
L 750 256 
L 750 794 
z
" transform="scale(0.015625)"/>
      <path id="DejaVuSans-2207" d="M 2138 659 
L 3444 4047 
L 831 4047 
L 2138 659 
z
M 1791 0 
L -19 4603 
L 4300 4603 
L 2491 0 
L 1791 0 
z
" transform="scale(0.015625)"/>
      <path id="DejaVuSans-d7" d="M 4488 3438 
L 3059 2003 
L 4488 575 
L 4116 197 
L 2681 1631 
L 1247 197 
L 878 575 
L 2303 2003 
L 878 3438 
L 1247 3816 
L 2681 2381 
L 4116 3816 
L 4488 3438 
z
" transform="scale(0.015625)"/>
     </defs>
     <use xlink:href="#DejaVuSans-43"/>
     <use xlink:href="#DejaVuSans-6f" transform="translate(69.824219 0)"/>
     <use xlink:href="#DejaVuSans-6d" transform="translate(131.005859 0)"/>
     <use xlink:href="#DejaVuSans-70" transform="translate(228.417969 0)"/>
     <use xlink:href="#DejaVuSans-75" transform="translate(291.894531 0)"/>
     <use xlink:href="#DejaVuSans-74" transform="translate(355.273438 0)"/>
     <use xlink:href="#DejaVuSans-65" transform="translate(394.482422 0)"/>
     <use xlink:href="#DejaVuSans-20" transform="translate(456.005859 0)"/>
     <use xlink:href="#DejaVuSans-64" transform="translate(487.792969 0)"/>
     <use xlink:href="#DejaVuSans-65" transform="translate(551.269531 0)"/>
     <use xlink:href="#DejaVuSans-6e" transform="translate(612.792969 0)"/>
     <use xlink:href="#DejaVuSans-73" transform="translate(676.171875 0)"/>
     <use xlink:href="#DejaVuSans-69" transform="translate(728.271484 0)"/>
     <use xlink:href="#DejaVuSans-74" transform="translate(756.054688 0)"/>
     <use xlink:href="#DejaVuSans-79" transform="translate(795.263672 0)"/>
     <use xlink:href="#DejaVuSans-2c" transform="translate(854.443359 0)"/>
     <use xlink:href="#DejaVuSans-20" transform="translate(886.230469 0)"/>
     <use xlink:href="#DejaVuSans-2207" transform="translate(918.017578 0)"/>
     <use xlink:href="#DejaVuSans-2c" transform="translate(984.912109 0)"/>
     <use xlink:href="#DejaVuSans-20" transform="translate(1016.699219 0)"/>
     <use xlink:href="#DejaVuSans-2207" transform="translate(1048.486328 0)"/>
     <use xlink:href="#DejaVuSans-d7" transform="translate(1115.380859 0)"/>
    </g>
   </g>
   <g id="text_16">
    <!-- 6 -->
    <g style="fill: #ffffff" transform="translate(120.816875 249.581312) scale(0.08 -0.08)">
     <defs>
      <path id="DejaVuSans-Bold-36" d="M 2316 2303 
Q 2000 2303 1842 2098 
Q 1684 1894 1684 1484 
Q 1684 1075 1842 870 
Q 2000 666 2316 666 
Q 2634 666 2792 870 
Q 2950 1075 2950 1484 
Q 2950 1894 2792 2098 
Q 2634 2303 2316 2303 
z
M 3803 4544 
L 3803 3681 
Q 3506 3822 3243 3889 
Q 2981 3956 2731 3956 
Q 2194 3956 1894 3657 
Q 1594 3359 1544 2772 
Q 1750 2925 1990 3001 
Q 2231 3078 2516 3078 
Q 3231 3078 3670 2659 
Q 4109 2241 4109 1563 
Q 4109 813 3618 361 
Q 3128 -91 2303 -91 
Q 1394 -91 895 523 
Q 397 1138 397 2266 
Q 397 3422 980 4083 
Q 1563 4744 2578 4744 
Q 2900 4744 3203 4694 
Q 3506 4644 3803 4544 
z
" transform="scale(0.015625)"/>
     </defs>
     <use xlink:href="#DejaVuSans-Bold-36"/>
    </g>
   </g>
   <g id="text_17">
    <!-- Force Accumulation -->
    <g style="fill: #2c3e50" transform="translate(216.72 243.881546) scale(0.12 -0.12)">
     <defs>
      <path id="DejaVuSans-Bold-41" d="M 3419 850 
L 1538 850 
L 1241 0 
L 31 0 
L 1759 4666 
L 3194 4666 
L 4922 0 
L 3713 0 
L 3419 850 
z
M 1838 1716 
L 3116 1716 
L 2478 3572 
L 1838 1716 
z
" transform="scale(0.015625)"/>
     </defs>
     <use xlink:href="#DejaVuSans-Bold-46"/>
     <use xlink:href="#DejaVuSans-Bold-6f" transform="translate(64.310547 0)"/>
     <use xlink:href="#DejaVuSans-Bold-72" transform="translate(133.011719 0)"/>
     <use xlink:href="#DejaVuSans-Bold-63" transform="translate(182.328125 0)"/>
     <use xlink:href="#DejaVuSans-Bold-65" transform="translate(241.605469 0)"/>
     <use xlink:href="#DejaVuSans-Bold-20" transform="translate(309.427734 0)"/>
     <use xlink:href="#DejaVuSans-Bold-41" transform="translate(344.242188 0)"/>
     <use xlink:href="#DejaVuSans-Bold-63" transform="translate(421.634766 0)"/>
     <use xlink:href="#DejaVuSans-Bold-63" transform="translate(480.912109 0)"/>
     <use xlink:href="#DejaVuSans-Bold-75" transform="translate(540.189453 0)"/>
     <use xlink:href="#DejaVuSans-Bold-6d" transform="translate(611.380859 0)"/>
     <use xlink:href="#DejaVuSans-Bold-75" transform="translate(715.580078 0)"/>
     <use xlink:href="#DejaVuSans-Bold-6c" transform="translate(786.771484 0)"/>
     <use xlink:href="#DejaVuSans-Bold-61" transform="translate(821.048828 0)"/>
     <use xlink:href="#DejaVuSans-Bold-74" transform="translate(888.529297 0)"/>
     <use xlink:href="#DejaVuSans-Bold-69" transform="translate(936.332031 0)"/>
     <use xlink:href="#DejaVuSans-Bold-6f" transform="translate(970.609375 0)"/>
     <use xlink:href="#DejaVuSans-Bold-6e" transform="translate(1039.310547 0)"/>
    </g>
   </g>
   <g id="text_18">
    <!-- Sum all force contributions -->
    <g style="fill: #95a5a6" transform="translate(216.72 256.104479) scale(0.08 -0.08)">
     <defs>
      <path id="DejaVuSans-53" d="M 3425 4513 
L 3425 3897 
Q 3066 4069 2747 4153 
Q 2428 4238 2131 4238 
Q 1616 4238 1336 4038 
Q 1056 3838 1056 3469 
Q 1056 3159 1242 3001 
Q 1428 2844 1947 2747 
L 2328 2669 
Q 3034 2534 3370 2195 
Q 3706 1856 3706 1288 
Q 3706 609 3251 259 
Q 2797 -91 1919 -91 
Q 1588 -91 1214 -16 
Q 841 59 441 206 
L 441 856 
Q 825 641 1194 531 
Q 1563 422 1919 422 
Q 2459 422 2753 634 
Q 3047 847 3047 1241 
Q 3047 1584 2836 1778 
Q 2625 1972 2144 2069 
L 1759 2144 
Q 1053 2284 737 2584 
Q 422 2884 422 3419 
Q 422 4038 858 4394 
Q 1294 4750 2059 4750 
Q 2388 4750 2728 4690 
Q 3069 4631 3425 4513 
z
" transform="scale(0.015625)"/>
      <path id="DejaVuSans-62" d="M 3116 1747 
Q 3116 2381 2855 2742 
Q 2594 3103 2138 3103 
Q 1681 3103 1420 2742 
Q 1159 2381 1159 1747 
Q 1159 1113 1420 752 
Q 1681 391 2138 391 
Q 2594 391 2855 752 
Q 3116 1113 3116 1747 
z
M 1159 2969 
Q 1341 3281 1617 3432 
Q 1894 3584 2278 3584 
Q 2916 3584 3314 3078 
Q 3713 2572 3713 1747 
Q 3713 922 3314 415 
Q 2916 -91 2278 -91 
Q 1894 -91 1617 61 
Q 1341 213 1159 525 
L 1159 0 
L 581 0 
L 581 4863 
L 1159 4863 
L 1159 2969 
z
" transform="scale(0.015625)"/>
     </defs>
     <use xlink:href="#DejaVuSans-53"/>
     <use xlink:href="#DejaVuSans-75" transform="translate(63.476562 0)"/>
     <use xlink:href="#DejaVuSans-6d" transform="translate(126.855469 0)"/>
     <use xlink:href="#DejaVuSans-20" transform="translate(224.267578 0)"/>
     <use xlink:href="#DejaVuSans-61" transform="translate(256.054688 0)"/>
     <use xlink:href="#DejaVuSans-6c" transform="translate(317.333984 0)"/>
     <use xlink:href="#DejaVuSans-6c" transform="translate(345.117188 0)"/>
     <use xlink:href="#DejaVuSans-20" transform="translate(372.900391 0)"/>
     <use xlink:href="#DejaVuSans-66" transform="translate(404.6875 0)"/>
     <use xlink:href="#DejaVuSans-6f" transform="translate(439.892578 0)"/>
     <use xlink:href="#DejaVuSans-72" transform="translate(501.074219 0)"/>
     <use xlink:href="#DejaVuSans-63" transform="translate(539.9375 0)"/>
     <use xlink:href="#DejaVuSans-65" transform="translate(594.917969 0)"/>
     <use xlink:href="#DejaVuSans-20" transform="translate(656.441406 0)"/>
     <use xlink:href="#DejaVuSans-63" transform="translate(688.228516 0)"/>
     <use xlink:href="#DejaVuSans-6f" transform="translate(743.208984 0)"/>
     <use xlink:href="#DejaVuSans-6e" transform="translate(804.390625 0)"/>
     <use xlink:href="#DejaVuSans-74" transform="translate(867.769531 0)"/>
     <use xlink:href="#DejaVuSans-72" transform="translate(906.978516 0)"/>
     <use xlink:href="#DejaVuSans-69" transform="translate(948.091797 0)"/>
     <use xlink:href="#DejaVuSans-62" transform="translate(975.875 0)"/>
     <use xlink:href="#DejaVuSans-75" transform="translate(1039.351562 0)"/>
     <use xlink:href="#DejaVuSans-74" transform="translate(1102.730469 0)"/>
     <use xlink:href="#DejaVuSans-69" transform="translate(1141.939453 0)"/>
     <use xlink:href="#DejaVuSans-6f" transform="translate(1169.722656 0)"/>
     <use xlink:href="#DejaVuSans-6e" transform="translate(1230.904297 0)"/>
     <use xlink:href="#DejaVuSans-73" transform="translate(1294.283203 0)"/>
    </g>
   </g>
   <g id="text_19">
    <!-- 7 -->
    <g style="fill: #ffffff" transform="translate(120.816875 284.503979) scale(0.08 -0.08)">
     <defs>
      <path id="DejaVuSans-Bold-37" d="M 428 4666 
L 3944 4666 
L 3944 3988 
L 2125 0 
L 953 0 
L 2675 3781 
L 428 3781 
L 428 4666 
z
" transform="scale(0.015625)"/>
     </defs>
     <use xlink:href="#DejaVuSans-Bold-37"/>
    </g>
   </g>
   <g id="text_20">
    <!-- Integration -->
    <g style="fill: #2c3e50" transform="translate(216.72 278.804212) scale(0.12 -0.12)">
     <defs>
      <path id="DejaVuSans-Bold-49" d="M 588 4666 
L 1791 4666 
L 1791 0 
L 588 0 
L 588 4666 
z
" transform="scale(0.015625)"/>
     </defs>
     <use xlink:href="#DejaVuSans-Bold-49"/>
     <use xlink:href="#DejaVuSans-Bold-6e" transform="translate(37.207031 0)"/>
     <use xlink:href="#DejaVuSans-Bold-74" transform="translate(108.398438 0)"/>
     <use xlink:href="#DejaVuSans-Bold-65" transform="translate(156.201172 0)"/>
     <use xlink:href="#DejaVuSans-Bold-67" transform="translate(224.023438 0)"/>
     <use xlink:href="#DejaVuSans-Bold-72" transform="translate(295.605469 0)"/>
     <use xlink:href="#DejaVuSans-Bold-61" transform="translate(344.921875 0)"/>
     <use xlink:href="#DejaVuSans-Bold-74" transform="translate(412.402344 0)"/>
     <use xlink:href="#DejaVuSans-Bold-69" transform="translate(460.205078 0)"/>
     <use xlink:href="#DejaVuSans-Bold-6f" transform="translate(494.482422 0)"/>
     <use xlink:href="#DejaVuSans-Bold-6e" transform="translate(563.183594 0)"/>
    </g>
   </g>
   <g id="text_21">
    <!-- Update velocities -->
    <g style="fill: #95a5a6" transform="translate(216.72 291.027146) scale(0.08 -0.08)">
     <use xlink:href="#DejaVuSans-55"/>
     <use xlink:href="#DejaVuSans-70" transform="translate(73.193359 0)"/>
     <use xlink:href="#DejaVuSans-64" transform="translate(136.669922 0)"/>
     <use xlink:href="#DejaVuSans-61" transform="translate(200.146484 0)"/>
     <use xlink:href="#DejaVuSans-74" transform="translate(261.425781 0)"/>
     <use xlink:href="#DejaVuSans-65" transform="translate(300.634766 0)"/>
     <use xlink:href="#DejaVuSans-20" transform="translate(362.158203 0)"/>
     <use xlink:href="#DejaVuSans-76" transform="translate(393.945312 0)"/>
     <use xlink:href="#DejaVuSans-65" transform="translate(453.125 0)"/>
     <use xlink:href="#DejaVuSans-6c" transform="translate(514.648438 0)"/>
     <use xlink:href="#DejaVuSans-6f" transform="translate(542.431641 0)"/>
     <use xlink:href="#DejaVuSans-63" transform="translate(603.613281 0)"/>
     <use xlink:href="#DejaVuSans-69" transform="translate(658.59375 0)"/>
     <use xlink:href="#DejaVuSans-74" transform="translate(686.376953 0)"/>
     <use xlink:href="#DejaVuSans-69" transform="translate(725.585938 0)"/>
     <use xlink:href="#DejaVuSans-65" transform="translate(753.369141 0)"/>
     <use xlink:href="#DejaVuSans-73" transform="translate(814.892578 0)"/>
    </g>
   </g>
   <g id="text_22">
    <!-- 8 -->
    <g style="fill: #ffffff" transform="translate(120.816875 319.426646) scale(0.08 -0.08)">
     <defs>
      <path id="DejaVuSans-Bold-38" d="M 2228 2088 
Q 1891 2088 1709 1903 
Q 1528 1719 1528 1375 
Q 1528 1031 1709 848 
Q 1891 666 2228 666 
Q 2563 666 2741 848 
Q 2919 1031 2919 1375 
Q 2919 1722 2741 1905 
Q 2563 2088 2228 2088 
z
M 1350 2484 
Q 925 2613 709 2878 
Q 494 3144 494 3541 
Q 494 4131 934 4440 
Q 1375 4750 2228 4750 
Q 3075 4750 3515 4442 
Q 3956 4134 3956 3541 
Q 3956 3144 3739 2878 
Q 3522 2613 3097 2484 
Q 3572 2353 3814 2058 
Q 4056 1763 4056 1313 
Q 4056 619 3595 264 
Q 3134 -91 2228 -91 
Q 1319 -91 855 264 
Q 391 619 391 1313 
Q 391 1763 633 2058 
Q 875 2353 1350 2484 
z
M 1631 3419 
Q 1631 3141 1786 2991 
Q 1941 2841 2228 2841 
Q 2509 2841 2662 2991 
Q 2816 3141 2816 3419 
Q 2816 3697 2662 3845 
Q 2509 3994 2228 3994 
Q 1941 3994 1786 3844 
Q 1631 3694 1631 3419 
z
" transform="scale(0.015625)"/>
     </defs>
     <use xlink:href="#DejaVuSans-Bold-38"/>
    </g>
   </g>
   <g id="text_23">
    <!-- Movement -->
    <g style="fill: #2c3e50" transform="translate(216.72 313.726879) scale(0.12 -0.12)">
     <defs>
      <path id="DejaVuSans-Bold-4d" d="M 588 4666 
L 2119 4666 
L 3181 2169 
L 4250 4666 
L 5778 4666 
L 5778 0 
L 4641 0 
L 4641 3413 
L 3566 897 
L 2803 897 
L 1728 3413 
L 1728 0 
L 588 0 
L 588 4666 
z
" transform="scale(0.015625)"/>
     </defs>
     <use xlink:href="#DejaVuSans-Bold-4d"/>
     <use xlink:href="#DejaVuSans-Bold-6f" transform="translate(99.511719 0)"/>
     <use xlink:href="#DejaVuSans-Bold-76" transform="translate(168.212891 0)"/>
     <use xlink:href="#DejaVuSans-Bold-65" transform="translate(233.398438 0)"/>
     <use xlink:href="#DejaVuSans-Bold-6d" transform="translate(301.220703 0)"/>
     <use xlink:href="#DejaVuSans-Bold-65" transform="translate(405.419922 0)"/>
     <use xlink:href="#DejaVuSans-Bold-6e" transform="translate(473.242188 0)"/>
     <use xlink:href="#DejaVuSans-Bold-74" transform="translate(544.433594 0)"/>
    </g>
   </g>
   <g id="text_24">
    <!-- Position updates (|v| ≤ C) -->
    <g style="fill: #95a5a6" transform="translate(216.72 325.949812) scale(0.08 -0.08)">
     <defs>
      <path id="DejaVuSans-50" d="M 1259 4147 
L 1259 2394 
L 2053 2394 
Q 2494 2394 2734 2622 
Q 2975 2850 2975 3272 
Q 2975 3691 2734 3919 
Q 2494 4147 2053 4147 
L 1259 4147 
z
M 628 4666 
L 2053 4666 
Q 2838 4666 3239 4311 
Q 3641 3956 3641 3272 
Q 3641 2581 3239 2228 
Q 2838 1875 2053 1875 
L 1259 1875 
L 1259 0 
L 628 0 
L 628 4666 
z
" transform="scale(0.015625)"/>
      <path id="DejaVuSans-28" d="M 1984 4856 
Q 1566 4138 1362 3434 
Q 1159 2731 1159 2009 
Q 1159 1288 1364 580 
Q 1569 -128 1984 -844 
L 1484 -844 
Q 1016 -109 783 600 
Q 550 1309 550 2009 
Q 550 2706 781 3412 
Q 1013 4119 1484 4856 
L 1984 4856 
z
" transform="scale(0.015625)"/>
      <path id="DejaVuSans-7c" d="M 1344 4891 
L 1344 -1509 
L 813 -1509 
L 813 4891 
L 1344 4891 
z
" transform="scale(0.015625)"/>
      <path id="DejaVuSans-2264" d="M 4684 3175 
L 1684 2309 
L 4684 1453 
L 4684 897 
L 678 2047 
L 678 2578 
L 4684 3725 
L 4684 3175 
z
M 678 531 
L 4684 531 
L 4684 0 
L 678 0 
L 678 531 
z
" transform="scale(0.015625)"/>
      <path id="DejaVuSans-29" d="M 513 4856 
L 1013 4856 
Q 1481 4119 1714 3412 
Q 1947 2706 1947 2009 
Q 1947 1309 1714 600 
Q 1481 -109 1013 -844 
L 513 -844 
Q 928 -128 1133 580 
Q 1338 1288 1338 2009 
Q 1338 2731 1133 3434 
Q 928 4138 513 4856 
z
" transform="scale(0.015625)"/>
     </defs>
     <use xlink:href="#DejaVuSans-50"/>
     <use xlink:href="#DejaVuSans-6f" transform="translate(56.677734 0)"/>
     <use xlink:href="#DejaVuSans-73" transform="translate(117.859375 0)"/>
     <use xlink:href="#DejaVuSans-69" transform="translate(169.958984 0)"/>
     <use xlink:href="#DejaVuSans-74" transform="translate(197.742188 0)"/>
     <use xlink:href="#DejaVuSans-69" transform="translate(236.951172 0)"/>
     <use xlink:href="#DejaVuSans-6f" transform="translate(264.734375 0)"/>
     <use xlink:href="#DejaVuSans-6e" transform="translate(325.916016 0)"/>
     <use xlink:href="#DejaVuSans-20" transform="translate(389.294922 0)"/>
     <use xlink:href="#DejaVuSans-75" transform="translate(421.082031 0)"/>
     <use xlink:href="#DejaVuSans-70" transform="translate(484.460938 0)"/>
     <use xlink:href="#DejaVuSans-64" transform="translate(547.9375 0)"/>
     <use xlink:href="#DejaVuSans-61" transform="translate(611.414062 0)"/>
     <use xlink:href="#DejaVuSans-74" transform="translate(672.693359 0)"/>
     <use xlink:href="#DejaVuSans-65" transform="translate(711.902344 0)"/>
     <use xlink:href="#DejaVuSans-73" transform="translate(773.425781 0)"/>
     <use xlink:href="#DejaVuSans-20" transform="translate(825.525391 0)"/>
     <use xlink:href="#DejaVuSans-28" transform="translate(857.3125 0)"/>
     <use xlink:href="#DejaVuSans-7c" transform="translate(896.326172 0)"/>
     <use xlink:href="#DejaVuSans-76" transform="translate(930.017578 0)"/>
     <use xlink:href="#DejaVuSans-7c" transform="translate(989.197266 0)"/>
     <use xlink:href="#DejaVuSans-20" transform="translate(1022.888672 0)"/>
     <use xlink:href="#DejaVuSans-2264" transform="translate(1054.675781 0)"/>
     <use xlink:href="#DejaVuSans-20" transform="translate(1138.464844 0)"/>
     <use xlink:href="#DejaVuSans-43" transform="translate(1170.251953 0)"/>
     <use xlink:href="#DejaVuSans-29" transform="translate(1240.076172 0)"/>
    </g>
   </g>
   <g id="text_25">
    <!-- 9 -->
    <g style="fill: #ffffff" transform="translate(120.816875 354.349312) scale(0.08 -0.08)">
     <defs>
      <path id="DejaVuSans-Bold-39" d="M 641 103 
L 641 966 
Q 928 831 1190 764 
Q 1453 697 1709 697 
Q 2247 697 2547 995 
Q 2847 1294 2900 1881 
Q 2688 1725 2447 1647 
Q 2206 1569 1925 1569 
Q 1209 1569 770 1986 
Q 331 2403 331 3084 
Q 331 3838 820 4291 
Q 1309 4744 2131 4744 
Q 3044 4744 3544 4128 
Q 4044 3513 4044 2388 
Q 4044 1231 3459 570 
Q 2875 -91 1856 -91 
Q 1528 -91 1228 -42 
Q 928 6 641 103 
z
M 2125 2350 
Q 2441 2350 2600 2554 
Q 2759 2759 2759 3169 
Q 2759 3575 2600 3781 
Q 2441 3988 2125 3988 
Q 1809 3988 1650 3781 
Q 1491 3575 1491 3169 
Q 1491 2759 1650 2554 
Q 1809 2350 2125 2350 
z
" transform="scale(0.015625)"/>
     </defs>
     <use xlink:href="#DejaVuSans-Bold-39"/>
    </g>
   </g>
   <g id="text_26">
    <!-- Collisions -->
    <g style="fill: #2c3e50" transform="translate(216.72 348.649546) scale(0.12 -0.12)">
     <use xlink:href="#DejaVuSans-Bold-43"/>
     <use xlink:href="#DejaVuSans-Bold-6f" transform="translate(73.388672 0)"/>
     <use xlink:href="#DejaVuSans-Bold-6c" transform="translate(142.089844 0)"/>
     <use xlink:href="#DejaVuSans-Bold-6c" transform="translate(176.367188 0)"/>
     <use xlink:href="#DejaVuSans-Bold-69" transform="translate(210.644531 0)"/>
     <use xlink:href="#DejaVuSans-Bold-73" transform="translate(244.921875 0)"/>
     <use xlink:href="#DejaVuSans-Bold-69" transform="translate(304.443359 0)"/>
     <use xlink:href="#DejaVuSans-Bold-6f" transform="translate(338.720703 0)"/>
     <use xlink:href="#DejaVuSans-Bold-6e" transform="translate(407.421875 0)"/>
     <use xlink:href="#DejaVuSans-Bold-73" transform="translate(478.613281 0)"/>
    </g>
   </g>
   <g id="text_27">
    <!-- Handle interactions -->
    <g style="fill: #95a5a6" transform="translate(216.72 360.872479) scale(0.08 -0.08)">
     <defs>
      <path id="DejaVuSans-48" d="M 628 4666 
L 1259 4666 
L 1259 2753 
L 3553 2753 
L 3553 4666 
L 4184 4666 
L 4184 0 
L 3553 0 
L 3553 2222 
L 1259 2222 
L 1259 0 
L 628 0 
L 628 4666 
z
" transform="scale(0.015625)"/>
     </defs>
     <use xlink:href="#DejaVuSans-48"/>
     <use xlink:href="#DejaVuSans-61" transform="translate(75.195312 0)"/>
     <use xlink:href="#DejaVuSans-6e" transform="translate(136.474609 0)"/>
     <use xlink:href="#DejaVuSans-64" transform="translate(199.853516 0)"/>
     <use xlink:href="#DejaVuSans-6c" transform="translate(263.330078 0)"/>
     <use xlink:href="#DejaVuSans-65" transform="translate(291.113281 0)"/>
     <use xlink:href="#DejaVuSans-20" transform="translate(352.636719 0)"/>
     <use xlink:href="#DejaVuSans-69" transform="translate(384.423828 0)"/>
     <use xlink:href="#DejaVuSans-6e" transform="translate(412.207031 0)"/>
     <use xlink:href="#DejaVuSans-74" transform="translate(475.585938 0)"/>
     <use xlink:href="#DejaVuSans-65" transform="translate(514.794922 0)"/>
     <use xlink:href="#DejaVuSans-72" transform="translate(576.318359 0)"/>
     <use xlink:href="#DejaVuSans-61" transform="translate(617.431641 0)"/>
     <use xlink:href="#DejaVuSans-63" transform="translate(678.710938 0)"/>
     <use xlink:href="#DejaVuSans-74" transform="translate(733.691406 0)"/>
     <use xlink:href="#DejaVuSans-69" transform="translate(772.900391 0)"/>
     <use xlink:href="#DejaVuSans-6f" transform="translate(800.683594 0)"/>
     <use xlink:href="#DejaVuSans-6e" transform="translate(861.865234 0)"/>
     <use xlink:href="#DejaVuSans-73" transform="translate(925.244141 0)"/>
    </g>
   </g>
   <g id="text_28">
    <!-- 10 -->
    <g style="fill: #ffffff" transform="translate(118.03375 389.271979) scale(0.08 -0.08)">
     <defs>
      <path id="DejaVuSans-Bold-30" d="M 2944 2338 
Q 2944 3213 2780 3570 
Q 2616 3928 2228 3928 
Q 1841 3928 1675 3570 
Q 1509 3213 1509 2338 
Q 1509 1453 1675 1090 
Q 1841 728 2228 728 
Q 2613 728 2778 1090 
Q 2944 1453 2944 2338 
z
M 4147 2328 
Q 4147 1169 3647 539 
Q 3147 -91 2228 -91 
Q 1306 -91 806 539 
Q 306 1169 306 2328 
Q 306 3491 806 4120 
Q 1306 4750 2228 4750 
Q 3147 4750 3647 4120 
Q 4147 3491 4147 2328 
z
" transform="scale(0.015625)"/>
     </defs>
     <use xlink:href="#DejaVuSans-Bold-31"/>
     <use xlink:href="#DejaVuSans-Bold-30" transform="translate(69.580078 0)"/>
    </g>
   </g>
   <g id="text_29">
    <!-- Transmutation -->
    <g style="fill: #2c3e50" transform="translate(216.72 383.572212) scale(0.12 -0.12)">
     <use xlink:href="#DejaVuSans-Bold-54"/>
     <use xlink:href="#DejaVuSans-Bold-72" transform="translate(57.212891 0)"/>
     <use xlink:href="#DejaVuSans-Bold-61" transform="translate(106.529297 0)"/>
     <use xlink:href="#DejaVuSans-Bold-6e" transform="translate(174.009766 0)"/>
     <use xlink:href="#DejaVuSans-Bold-73" transform="translate(245.201172 0)"/>
     <use xlink:href="#DejaVuSans-Bold-6d" transform="translate(304.722656 0)"/>
     <use xlink:href="#DejaVuSans-Bold-75" transform="translate(408.921875 0)"/>
     <use xlink:href="#DejaVuSans-Bold-74" transform="translate(480.113281 0)"/>
     <use xlink:href="#DejaVuSans-Bold-61" transform="translate(527.916016 0)"/>
     <use xlink:href="#DejaVuSans-Bold-74" transform="translate(595.396484 0)"/>
     <use xlink:href="#DejaVuSans-Bold-69" transform="translate(643.199219 0)"/>
     <use xlink:href="#DejaVuSans-Bold-6f" transform="translate(677.476562 0)"/>
     <use xlink:href="#DejaVuSans-Bold-6e" transform="translate(746.177734 0)"/>
    </g>
   </g>
   <g id="text_30">
    <!-- Weak-force flips -->
    <g style="fill: #95a5a6" transform="translate(216.72 395.795146) scale(0.08 -0.08)">
     <defs>
      <path id="DejaVuSans-57" d="M 213 4666 
L 850 4666 
L 1831 722 
L 2809 4666 
L 3519 4666 
L 4500 722 
L 5478 4666 
L 6119 4666 
L 4947 0 
L 4153 0 
L 3169 4050 
L 2175 0 
L 1381 0 
L 213 4666 
z
" transform="scale(0.015625)"/>
      <path id="DejaVuSans-2d" d="M 313 2009 
L 1997 2009 
L 1997 1497 
L 313 1497 
L 313 2009 
z
" transform="scale(0.015625)"/>
     </defs>
     <use xlink:href="#DejaVuSans-57"/>
     <use xlink:href="#DejaVuSans-65" transform="translate(93.001953 0)"/>
     <use xlink:href="#DejaVuSans-61" transform="translate(154.525391 0)"/>
     <use xlink:href="#DejaVuSans-6b" transform="translate(215.804688 0)"/>
     <use xlink:href="#DejaVuSans-2d" transform="translate(273.714844 0)"/>
     <use xlink:href="#DejaVuSans-66" transform="translate(309.798828 0)"/>
     <use xlink:href="#DejaVuSans-6f" transform="translate(345.003906 0)"/>
     <use xlink:href="#DejaVuSans-72" transform="translate(406.185547 0)"/>
     <use xlink:href="#DejaVuSans-63" transform="translate(445.048828 0)"/>
     <use xlink:href="#DejaVuSans-65" transform="translate(500.029297 0)"/>
     <use xlink:href="#DejaVuSans-20" transform="translate(561.552734 0)"/>
     <use xlink:href="#DejaVuSans-66" transform="translate(593.339844 0)"/>
     <use xlink:href="#DejaVuSans-6c" transform="translate(628.544922 0)"/>
     <use xlink:href="#DejaVuSans-69" transform="translate(656.328125 0)"/>
     <use xlink:href="#DejaVuSans-70" transform="translate(684.111328 0)"/>
     <use xlink:href="#DejaVuSans-73" transform="translate(747.587891 0)"/>
    </g>
   </g>
   <g id="text_31">
    <!-- 11 -->
    <g style="fill: #ffffff" transform="translate(118.03375 424.194646) scale(0.08 -0.08)">
     <use xlink:href="#DejaVuSans-Bold-31"/>
     <use xlink:href="#DejaVuSans-Bold-31" transform="translate(69.580078 0)"/>
    </g>
   </g>
   <g id="text_32">
    <!-- Binding -->
    <g style="fill: #2c3e50" transform="translate(216.72 418.494879) scale(0.12 -0.12)">
     <defs>
      <path id="DejaVuSans-Bold-42" d="M 2456 2859 
Q 2741 2859 2887 2984 
Q 3034 3109 3034 3353 
Q 3034 3594 2887 3720 
Q 2741 3847 2456 3847 
L 1791 3847 
L 1791 2859 
L 2456 2859 
z
M 2497 819 
Q 2859 819 3042 972 
Q 3225 1125 3225 1434 
Q 3225 1738 3044 1889 
Q 2863 2041 2497 2041 
L 1791 2041 
L 1791 819 
L 2497 819 
z
M 3616 2497 
Q 4003 2384 4215 2081 
Q 4428 1778 4428 1338 
Q 4428 663 3972 331 
Q 3516 0 2584 0 
L 588 0 
L 588 4666 
L 2394 4666 
Q 3366 4666 3802 4372 
Q 4238 4078 4238 3431 
Q 4238 3091 4078 2852 
Q 3919 2613 3616 2497 
z
" transform="scale(0.015625)"/>
     </defs>
     <use xlink:href="#DejaVuSans-Bold-42"/>
     <use xlink:href="#DejaVuSans-Bold-69" transform="translate(76.220703 0)"/>
     <use xlink:href="#DejaVuSans-Bold-6e" transform="translate(110.498047 0)"/>
     <use xlink:href="#DejaVuSans-Bold-64" transform="translate(181.689453 0)"/>
     <use xlink:href="#DejaVuSans-Bold-69" transform="translate(253.271484 0)"/>
     <use xlink:href="#DejaVuSans-Bold-6e" transform="translate(287.548828 0)"/>
     <use xlink:href="#DejaVuSans-Bold-67" transform="translate(358.740234 0)"/>
    </g>
   </g>
   <g id="text_33">
    <!-- Detect stable configs -->
    <g style="fill: #95a5a6" transform="translate(216.72 430.717812) scale(0.08 -0.08)">
     <defs>
      <path id="DejaVuSans-44" d="M 1259 4147 
L 1259 519 
L 2022 519 
Q 2988 519 3436 956 
Q 3884 1394 3884 2338 
Q 3884 3275 3436 3711 
Q 2988 4147 2022 4147 
L 1259 4147 
z
M 628 4666 
L 1925 4666 
Q 3281 4666 3915 4102 
Q 4550 3538 4550 2338 
Q 4550 1131 3912 565 
Q 3275 0 1925 0 
L 628 0 
L 628 4666 
z
" transform="scale(0.015625)"/>
      <path id="DejaVuSans-67" d="M 2906 1791 
Q 2906 2416 2648 2759 
Q 2391 3103 1925 3103 
Q 1463 3103 1205 2759 
Q 947 2416 947 1791 
Q 947 1169 1205 825 
Q 1463 481 1925 481 
Q 2391 481 2648 825 
Q 2906 1169 2906 1791 
z
M 3481 434 
Q 3481 -459 3084 -895 
Q 2688 -1331 1869 -1331 
Q 1566 -1331 1297 -1286 
Q 1028 -1241 775 -1147 
L 775 -588 
Q 1028 -725 1275 -790 
Q 1522 -856 1778 -856 
Q 2344 -856 2625 -561 
Q 2906 -266 2906 331 
L 2906 616 
Q 2728 306 2450 153 
Q 2172 0 1784 0 
Q 1141 0 747 490 
Q 353 981 353 1791 
Q 353 2603 747 3093 
Q 1141 3584 1784 3584 
Q 2172 3584 2450 3431 
Q 2728 3278 2906 2969 
L 2906 3500 
L 3481 3500 
L 3481 434 
z
" transform="scale(0.015625)"/>
     </defs>
     <use xlink:href="#DejaVuSans-44"/>
     <use xlink:href="#DejaVuSans-65" transform="translate(77.001953 0)"/>
     <use xlink:href="#DejaVuSans-74" transform="translate(138.525391 0)"/>
     <use xlink:href="#DejaVuSans-65" transform="translate(177.734375 0)"/>
     <use xlink:href="#DejaVuSans-63" transform="translate(239.257812 0)"/>
     <use xlink:href="#DejaVuSans-74" transform="translate(294.238281 0)"/>
     <use xlink:href="#DejaVuSans-20" transform="translate(333.447266 0)"/>
     <use xlink:href="#DejaVuSans-73" transform="translate(365.234375 0)"/>
     <use xlink:href="#DejaVuSans-74" transform="translate(417.333984 0)"/>
     <use xlink:href="#DejaVuSans-61" transform="translate(456.542969 0)"/>
     <use xlink:href="#DejaVuSans-62" transform="translate(517.822266 0)"/>
     <use xlink:href="#DejaVuSans-6c" transform="translate(581.298828 0)"/>
     <use xlink:href="#DejaVuSans-65" transform="translate(609.082031 0)"/>
     <use xlink:href="#DejaVuSans-20" transform="translate(670.605469 0)"/>
     <use xlink:href="#DejaVuSans-63" transform="translate(702.392578 0)"/>
     <use xlink:href="#DejaVuSans-6f" transform="translate(757.373047 0)"/>
     <use xlink:href="#DejaVuSans-6e" transform="translate(818.554688 0)"/>
     <use xlink:href="#DejaVuSans-66" transform="translate(881.933594 0)"/>
     <use xlink:href="#DejaVuSans-69" transform="translate(917.138672 0)"/>
     <use xlink:href="#DejaVuSans-67" transform="translate(944.921875 0)"/>
     <use xlink:href="#DejaVuSans-73" transform="translate(1008.398438 0)"/>
    </g>
   </g>
   <g id="text_34">
    <!-- 12 -->
    <g style="fill: #ffffff" transform="translate(118.03375 459.117312) scale(0.08 -0.08)">
     <use xlink:href="#DejaVuSans-Bold-31"/>
     <use xlink:href="#DejaVuSans-Bold-32" transform="translate(69.580078 0)"/>
    </g>
   </g>
   <g id="text_35">
    <!-- Increment -->
    <g style="fill: #2c3e50" transform="translate(216.72 453.417546) scale(0.12 -0.12)">
     <use xlink:href="#DejaVuSans-Bold-49"/>
     <use xlink:href="#DejaVuSans-Bold-6e" transform="translate(37.207031 0)"/>
     <use xlink:href="#DejaVuSans-Bold-63" transform="translate(108.398438 0)"/>
     <use xlink:href="#DejaVuSans-Bold-72" transform="translate(167.675781 0)"/>
     <use xlink:href="#DejaVuSans-Bold-65" transform="translate(216.992188 0)"/>
     <use xlink:href="#DejaVuSans-Bold-6d" transform="translate(284.814453 0)"/>
     <use xlink:href="#DejaVuSans-Bold-65" transform="translate(389.013672 0)"/>
     <use xlink:href="#DejaVuSans-Bold-6e" transform="translate(456.835938 0)"/>
     <use xlink:href="#DejaVuSans-Bold-74" transform="translate(528.027344 0)"/>
    </g>
   </g>
   <g id="text_36">
    <!-- t ← t + 1 -->
    <g style="fill: #95a5a6" transform="translate(216.72 465.640479) scale(0.08 -0.08)">
     <defs>
      <path id="DejaVuSans-2190" d="M 313 1866 
L 313 2147 
L 1541 3375 
L 1916 3000 
L 1188 2272 
L 4997 2272 
L 4997 1741 
L 1188 1741 
L 1916 1013 
L 1541 638 
L 313 1866 
z
" transform="scale(0.015625)"/>
      <path id="DejaVuSans-2b" d="M 2944 4013 
L 2944 2272 
L 4684 2272 
L 4684 1741 
L 2944 1741 
L 2944 0 
L 2419 0 
L 2419 1741 
L 678 1741 
L 678 2272 
L 2419 2272 
L 2419 4013 
L 2944 4013 
z
" transform="scale(0.015625)"/>
      <path id="DejaVuSans-31" d="M 794 531 
L 1825 531 
L 1825 4091 
L 703 3866 
L 703 4441 
L 1819 4666 
L 2450 4666 
L 2450 531 
L 3481 531 
L 3481 0 
L 794 0 
L 794 531 
z
" transform="scale(0.015625)"/>
     </defs>
     <use xlink:href="#DejaVuSans-74"/>
     <use xlink:href="#DejaVuSans-20" transform="translate(39.208984 0)"/>
     <use xlink:href="#DejaVuSans-2190" transform="translate(70.996094 0)"/>
     <use xlink:href="#DejaVuSans-20" transform="translate(154.785156 0)"/>
     <use xlink:href="#DejaVuSans-74" transform="translate(186.572266 0)"/>
     <use xlink:href="#DejaVuSans-20" transform="translate(225.78125 0)"/>
     <use xlink:href="#DejaVuSans-2b" transform="translate(257.568359 0)"/>
     <use xlink:href="#DejaVuSans-20" transform="translate(341.357422 0)"/>
     <use xlink:href="#DejaVuSans-31" transform="translate(373.144531 0)"/>
    </g>
   </g>
   <g id="text_37">
    <!-- → -->
    <g style="fill: #ffffff" transform="translate(120.248125 494.039979) scale(0.08 -0.08)">
     <defs>
      <path id="DejaVuSans-Bold-2192" d="M 5050 2225 
L 5050 1788 
L 3822 559 
L 3369 1013 
L 3988 1631 
L 366 1631 
L 366 2381 
L 3988 2381 
L 3369 3000 
L 3822 3453 
L 5050 2225 
z
" transform="scale(0.015625)"/>
     </defs>
     <use xlink:href="#DejaVuSans-Bold-2192"/>
    </g>
   </g>
   <g id="text_38">
    <!-- NEXT TICK -->
    <g style="fill: #2c3e50" transform="translate(216.72 488.340212) scale(0.12 -0.12)">
     <defs>
      <path id="DejaVuSans-Bold-4e" d="M 588 4666 
L 1931 4666 
L 3628 1466 
L 3628 4666 
L 4769 4666 
L 4769 0 
L 3425 0 
L 1728 3200 
L 1728 0 
L 588 0 
L 588 4666 
z
" transform="scale(0.015625)"/>
      <path id="DejaVuSans-Bold-58" d="M 3188 2381 
L 4806 0 
L 3553 0 
L 2463 1594 
L 1381 0 
L 122 0 
L 1741 2381 
L 184 4666 
L 1441 4666 
L 2463 3163 
L 3481 4666 
L 4744 4666 
L 3188 2381 
z
" transform="scale(0.015625)"/>
      <path id="DejaVuSans-Bold-4b" d="M 588 4666 
L 1791 4666 
L 1791 2963 
L 3525 4666 
L 4922 4666 
L 2675 2456 
L 5153 0 
L 3647 0 
L 1791 1838 
L 1791 0 
L 588 0 
L 588 4666 
z
" transform="scale(0.015625)"/>
     </defs>
     <use xlink:href="#DejaVuSans-Bold-4e"/>
     <use xlink:href="#DejaVuSans-Bold-45" transform="translate(83.691406 0)"/>
     <use xlink:href="#DejaVuSans-Bold-58" transform="translate(152.001953 0)"/>
     <use xlink:href="#DejaVuSans-Bold-54" transform="translate(229.101562 0)"/>
     <use xlink:href="#DejaVuSans-Bold-20" transform="translate(297.314453 0)"/>
     <use xlink:href="#DejaVuSans-Bold-54" transform="translate(332.128906 0)"/>
     <use xlink:href="#DejaVuSans-Bold-49" transform="translate(400.341797 0)"/>
     <use xlink:href="#DejaVuSans-Bold-43" transform="translate(437.548828 0)"/>
     <use xlink:href="#DejaVuSans-Bold-4b" transform="translate(510.9375 0)"/>
    </g>
   </g>
   <g id="text_39">
    <!-- Repeat from step 1 -->
    <g style="fill: #95a5a6" transform="translate(216.72 500.563146) scale(0.08 -0.08)">
     <defs>
      <path id="DejaVuSans-52" d="M 2841 2188 
Q 3044 2119 3236 1894 
Q 3428 1669 3622 1275 
L 4263 0 
L 3584 0 
L 2988 1197 
Q 2756 1666 2539 1819 
Q 2322 1972 1947 1972 
L 1259 1972 
L 1259 0 
L 628 0 
L 628 4666 
L 2053 4666 
Q 2853 4666 3247 4331 
Q 3641 3997 3641 3322 
Q 3641 2881 3436 2590 
Q 3231 2300 2841 2188 
z
M 1259 4147 
L 1259 2491 
L 2053 2491 
Q 2509 2491 2742 2702 
Q 2975 2913 2975 3322 
Q 2975 3731 2742 3939 
Q 2509 4147 2053 4147 
L 1259 4147 
z
" transform="scale(0.015625)"/>
     </defs>
     <use xlink:href="#DejaVuSans-52"/>
     <use xlink:href="#DejaVuSans-65" transform="translate(64.982422 0)"/>
     <use xlink:href="#DejaVuSans-70" transform="translate(126.505859 0)"/>
     <use xlink:href="#DejaVuSans-65" transform="translate(189.982422 0)"/>
     <use xlink:href="#DejaVuSans-61" transform="translate(251.505859 0)"/>
     <use xlink:href="#DejaVuSans-74" transform="translate(312.785156 0)"/>
     <use xlink:href="#DejaVuSans-20" transform="translate(351.994141 0)"/>
     <use xlink:href="#DejaVuSans-66" transform="translate(383.78125 0)"/>
     <use xlink:href="#DejaVuSans-72" transform="translate(418.986328 0)"/>
     <use xlink:href="#DejaVuSans-6f" transform="translate(457.849609 0)"/>
     <use xlink:href="#DejaVuSans-6d" transform="translate(519.03125 0)"/>
     <use xlink:href="#DejaVuSans-20" transform="translate(616.443359 0)"/>
     <use xlink:href="#DejaVuSans-73" transform="translate(648.230469 0)"/>
     <use xlink:href="#DejaVuSans-74" transform="translate(700.330078 0)"/>
     <use xlink:href="#DejaVuSans-65" transform="translate(739.539062 0)"/>
     <use xlink:href="#DejaVuSans-70" transform="translate(801.0625 0)"/>
     <use xlink:href="#DejaVuSans-20" transform="translate(864.539062 0)"/>
     <use xlink:href="#DejaVuSans-31" transform="translate(896.326172 0)"/>
    </g>
   </g>
   <g id="text_40">
    <!-- The Universal Tick Sequence -->
    <g transform="translate(255.559531 17.837812) scale(0.14 -0.14)">
     <defs>
      <path id="DejaVuSans-54" d="M -19 4666 
L 3928 4666 
L 3928 4134 
L 2272 4134 
L 2272 0 
L 1638 0 
L 1638 4134 
L -19 4134 
L -19 4666 
z
" transform="scale(0.015625)"/>
      <path id="DejaVuSans-71" d="M 947 1747 
Q 947 1113 1208 752 
Q 1469 391 1925 391 
Q 2381 391 2643 752 
Q 2906 1113 2906 1747 
Q 2906 2381 2643 2742 
Q 2381 3103 1925 3103 
Q 1469 3103 1208 2742 
Q 947 2381 947 1747 
z
M 2906 525 
Q 2725 213 2448 61 
Q 2172 -91 1784 -91 
Q 1150 -91 751 415 
Q 353 922 353 1747 
Q 353 2572 751 3078 
Q 1150 3584 1784 3584 
Q 2172 3584 2448 3432 
Q 2725 3281 2906 2969 
L 2906 3500 
L 3481 3500 
L 3481 -1331 
L 2906 -1331 
L 2906 525 
z
" transform="scale(0.015625)"/>
     </defs>
     <use xlink:href="#DejaVuSans-54"/>
     <use xlink:href="#DejaVuSans-68" transform="translate(61.083984 0)"/>
     <use xlink:href="#DejaVuSans-65" transform="translate(124.462891 0)"/>
     <use xlink:href="#DejaVuSans-20" transform="translate(185.986328 0)"/>
     <use xlink:href="#DejaVuSans-55" transform="translate(217.773438 0)"/>
     <use xlink:href="#DejaVuSans-6e" transform="translate(290.966797 0)"/>
     <use xlink:href="#DejaVuSans-69" transform="translate(354.345703 0)"/>
     <use xlink:href="#DejaVuSans-76" transform="translate(382.128906 0)"/>
     <use xlink:href="#DejaVuSans-65" transform="translate(441.308594 0)"/>
     <use xlink:href="#DejaVuSans-72" transform="translate(502.832031 0)"/>
     <use xlink:href="#DejaVuSans-73" transform="translate(543.945312 0)"/>
     <use xlink:href="#DejaVuSans-61" transform="translate(596.044922 0)"/>
     <use xlink:href="#DejaVuSans-6c" transform="translate(657.324219 0)"/>
     <use xlink:href="#DejaVuSans-20" transform="translate(685.107422 0)"/>
     <use xlink:href="#DejaVuSans-54" transform="translate(716.894531 0)"/>
     <use xlink:href="#DejaVuSans-69" transform="translate(774.853516 0)"/>
     <use xlink:href="#DejaVuSans-63" transform="translate(802.636719 0)"/>
     <use xlink:href="#DejaVuSans-6b" transform="translate(857.617188 0)"/>
     <use xlink:href="#DejaVuSans-20" transform="translate(915.527344 0)"/>
     <use xlink:href="#DejaVuSans-53" transform="translate(947.314453 0)"/>
     <use xlink:href="#DejaVuSans-65" transform="translate(1010.791016 0)"/>
     <use xlink:href="#DejaVuSans-71" transform="translate(1072.314453 0)"/>
     <use xlink:href="#DejaVuSans-75" transform="translate(1135.791016 0)"/>
     <use xlink:href="#DejaVuSans-65" transform="translate(1199.169922 0)"/>
     <use xlink:href="#DejaVuSans-6e" transform="translate(1260.693359 0)"/>
     <use xlink:href="#DejaVuSans-63" transform="translate(1324.072266 0)"/>
     <use xlink:href="#DejaVuSans-65" transform="translate(1379.052734 0)"/>
    </g>
   </g>
  </g>
 </g>
 <defs>
  <clipPath id="pac54b2e27a">
   <rect x="7.2" y="37.837812" width="698.4" height="523.84"/>
  </clipPath>
 </defs>
</svg>
