<?xml version="1.0" encoding="utf-8" standalone="no"?>
<!DOCTYPE svg PUBLIC "-//W3C//DTD SVG 1.1//EN"
  "http://www.w3.org/Graphics/SVG/1.1/DTD/svg11.dtd">
<svg xmlns:xlink="http://www.w3.org/1999/xlink" width="784.8pt" height="460.877812pt" viewBox="0 0 784.8 460.877812" xmlns="http://www.w3.org/2000/svg" version="1.1">
 <metadata>
  <rdf:RDF xmlns:dc="http://purl.org/dc/elements/1.1/" xmlns:cc="http://creativecommons.org/ns#" xmlns:rdf="http://www.w3.org/1999/02/22-rdf-syntax-ns#">
   <cc:Work>
    <dc:type rdf:resource="http://purl.org/dc/dcmitype/StillImage"/>
    <dc:date>2026-01-02T18:44:32.449044</dc:date>
    <dc:format>image/svg+xml</dc:format>
    <dc:creator>
     <cc:Agent>
      <dc:title>Matplotlib v3.10.8, https://matplotlib.org/</dc:title>
     </cc:Agent>
    </dc:creator>
   </cc:Work>
  </rdf:RDF>
 </metadata>
 <defs>
  <style type="text/css">*{stroke-linejoin: round; stroke-linecap: butt}</style>
 </defs>
 <g id="figure_1">
  <g id="patch_1">
   <path d="M 0 460.877812 
L 784.8 460.877812 
L 784.8 0 
L 0 0 
z
" style="fill: #ffffff"/>
  </g>
  <g id="axes_1">
   <g id="patch_2">
    <path d="M 14.203636 116.682089 
L 168.283636 116.682089 
Q 169.684364 116.682089 169.684364 115.387197 
L 169.684364 79.777659 
Q 169.684364 78.482766 168.283636 78.482766 
L 14.203636 78.482766 
Q 12.802909 78.482766 12.802909 79.777659 
L 12.802909 115.387197 
Q 12.802909 116.682089 14.203636 116.682089 
z
" clip-path="url(#pb7b15d317c)" style="fill: #9b59b6; opacity: 0.12; stroke: #9b59b6; stroke-width: 2.5; stroke-linejoin: miter"/>
   </g>
   <g id="patch_3">
    <path d="M 14.203636 174.952243 
L 168.283636 174.952243 
Q 169.684364 174.952243 169.684364 173.657351 
L 169.684364 138.047812 
Q 169.684364 136.75292 168.283636 136.75292 
L 14.203636 136.75292 
Q 12.802909 136.75292 12.802909 138.047812 
L 12.802909 173.657351 
Q 12.802909 174.952243 14.203636 174.952243 
z
" clip-path="url(#pb7b15d317c)" style="fill: #9b59b6; opacity: 0.12; stroke: #9b59b6; stroke-width: 2.5; stroke-linejoin: miter"/>
   </g>
   <g id="patch_4">
    <path d="M 14.203636 233.222397 
L 168.283636 233.222397 
Q 169.684364 233.222397 169.684364 231.927505 
L 169.684364 196.317966 
Q 169.684364 195.023074 168.283636 195.023074 
L 14.203636 195.023074 
Q 12.802909 195.023074 12.802909 196.317966 
L 12.802909 231.927505 
Q 12.802909 233.222397 14.203636 233.222397 
z
" clip-path="url(#pb7b15d317c)" style="fill: #9b59b6; opacity: 0.12; stroke: #9b59b6; stroke-width: 2.5; stroke-linejoin: miter"/>
   </g>
   <g id="patch_5">
    <path d="M 14.203636 291.492551 
L 168.283636 291.492551 
Q 169.684364 291.492551 169.684364 290.197659 
L 169.684364 254.58812 
Q 169.684364 253.293228 168.283636 253.293228 
L 14.203636 253.293228 
Q 12.802909 253.293228 12.802909 254.58812 
L 12.802909 290.197659 
Q 12.802909 291.492551 14.203636 291.492551 
z
" clip-path="url(#pb7b15d317c)" style="fill: #9b59b6; opacity: 0.12; stroke: #9b59b6; stroke-width: 2.5; stroke-linejoin: miter"/>
   </g>
   <g id="patch_6">
    <path d="M 301.352727 136.105474 
L 441.425455 136.105474 
Q 442.826182 136.105474 442.826182 134.810582 
L 442.826182 99.201043 
Q 442.826182 97.906151 441.425455 97.906151 
L 301.352727 97.906151 
Q 299.952 97.906151 299.952 99.201043 
L 299.952 134.810582 
Q 299.952 136.105474 301.352727 136.105474 
z
" clip-path="url(#pb7b15d317c)" style="fill: #f39c12; opacity: 0.12; stroke: #f39c12; stroke-width: 2.5; stroke-linejoin: miter"/>
   </g>
   <g id="patch_7">
    <path d="M 301.352727 200.850089 
L 441.425455 200.850089 
Q 442.826182 200.850089 442.826182 199.555197 
L 442.826182 163.945659 
Q 442.826182 162.650766 441.425455 162.650766 
L 301.352727 162.650766 
Q 299.952 162.650766 299.952 163.945659 
L 299.952 199.555197 
Q 299.952 200.850089 301.352727 200.850089 
z
" clip-path="url(#pb7b15d317c)" style="fill: #f39c12; opacity: 0.12; stroke: #f39c12; stroke-width: 2.5; stroke-linejoin: miter"/>
   </g>
   <g id="patch_8">
    <path d="M 301.352727 265.594705 
L 441.425455 265.594705 
Q 442.826182 265.594705 442.826182 264.299812 
L 442.826182 228.690274 
Q 442.826182 227.395382 441.425455 227.395382 
L 301.352727 227.395382 
Q 299.952 227.395382 299.952 228.690274 
L 299.952 264.299812 
Q 299.952 265.594705 301.352727 265.594705 
z
" clip-path="url(#pb7b15d317c)" style="fill: #f39c12; opacity: 0.12; stroke: #f39c12; stroke-width: 2.5; stroke-linejoin: miter"/>
   </g>
   <g id="patch_9">
    <path d="M 301.352727 330.33932 
L 441.425455 330.33932 
Q 442.826182 330.33932 442.826182 329.044428 
L 442.826182 293.434889 
Q 442.826182 292.139997 441.425455 292.139997 
L 301.352727 292.139997 
Q 299.952 292.139997 299.952 293.434889 
L 299.952 329.044428 
Q 299.952 330.33932 301.352727 330.33932 
z
" clip-path="url(#pb7b15d317c)" style="fill: #f39c12; opacity: 0.12; stroke: #f39c12; stroke-width: 2.5; stroke-linejoin: miter"/>
   </g>
   <g id="patch_10">
    <path d="M 553.483636 155.528859 
L 707.563636 155.528859 
Q 708.964364 155.528859 708.964364 154.233966 
L 708.964364 118.624428 
Q 708.964364 117.329536 707.563636 117.329536 
L 553.483636 117.329536 
Q 552.082909 117.329536 552.082909 118.624428 
L 552.082909 154.233966 
Q 552.082909 155.528859 553.483636 155.528859 
z
" clip-path="url(#pb7b15d317c)" style="fill: #95a5a6; opacity: 0.12; stroke: #95a5a6; stroke-width: 2.5; stroke-linejoin: miter"/>
   </g>
   <g id="patch_11">
    <path d="M 553.483636 246.17132 
L 707.563636 246.17132 
Q 708.964364 246.17132 708.964364 244.876428 
L 708.964364 209.266889 
Q 708.964364 207.971997 707.563636 207.971997 
L 553.483636 207.971997 
Q 552.082909 207.971997 552.082909 209.266889 
L 552.082909 244.876428 
Q 552.082909 246.17132 553.483636 246.17132 
z
" clip-path="url(#pb7b15d317c)" style="fill: #95a5a6; opacity: 0.12; stroke: #95a5a6; stroke-width: 2.5; stroke-linejoin: miter"/>
   </g>
   <g id="patch_12">
    <path d="M 553.483636 336.813782 
L 707.563636 336.813782 
Q 708.964364 336.813782 708.964364 335.518889 
L 708.964364 299.909351 
Q 708.964364 298.614459 707.563636 298.614459 
L 553.483636 298.614459 
Q 552.082909 298.614459 552.082909 299.909351 
L 552.082909 335.518889 
Q 552.082909 336.813782 553.483636 336.813782 
z
" clip-path="url(#pb7b15d317c)" style="fill: #95a5a6; opacity: 0.12; stroke: #95a5a6; stroke-width: 2.5; stroke-linejoin: miter"/>
   </g>
   <g id="text_1">
    <!-- B3 -->
    <g style="fill: #2c3e50" transform="translate(85.411761 99.789928) scale(0.08 -0.08)">
     <defs>
      <path id="DejaVuSans-Bold-42" d="M 2456 2859 
Q 2741 2859 2887 2984 
Q 3034 3109 3034 3353 
Q 3034 3594 2887 3720 
Q 2741 3847 2456 3847 
L 1791 3847 
L 1791 2859 
L 2456 2859 
z
M 2497 819 
Q 2859 819 3042 972 
Q 3225 1125 3225 1434 
Q 3225 1738 3044 1889 
Q 2863 2041 2497 2041 
L 1791 2041 
L 1791 819 
L 2497 819 
z
M 3616 2497 
Q 4003 2384 4215 2081 
Q 4428 1778 4428 1338 
Q 4428 663 3972 331 
Q 3516 0 2584 0 
L 588 0 
L 588 4666 
L 2394 4666 
Q 3366 4666 3802 4372 
Q 4238 4078 4238 3431 
Q 4238 3091 4078 2852 
Q 3919 2613 3616 2497 
z
" transform="scale(0.015625)"/>
      <path id="DejaVuSans-Bold-33" d="M 2981 2516 
Q 3453 2394 3698 2092 
Q 3944 1791 3944 1325 
Q 3944 631 3412 270 
Q 2881 -91 1863 -91 
Q 1503 -91 1142 -33 
Q 781 25 428 141 
L 428 1069 
Q 766 900 1098 814 
Q 1431 728 1753 728 
Q 2231 728 2486 893 
Q 2741 1059 2741 1369 
Q 2741 1688 2480 1852 
Q 2219 2016 1709 2016 
L 1228 2016 
L 1228 2791 
L 1734 2791 
Q 2188 2791 2409 2933 
Q 2631 3075 2631 3366 
Q 2631 3634 2415 3781 
Q 2200 3928 1806 3928 
Q 1516 3928 1219 3862 
Q 922 3797 628 3669 
L 628 4550 
Q 984 4650 1334 4700 
Q 1684 4750 2022 4750 
Q 2931 4750 3382 4451 
Q 3834 4153 3834 3553 
Q 3834 3144 3618 2883 
Q 3403 2622 2981 2516 
z
" transform="scale(0.015625)"/>
     </defs>
     <use xlink:href="#DejaVuSans-Bold-42"/>
     <use xlink:href="#DejaVuSans-Bold-33" transform="translate(76.220703 0)"/>
    </g>
   </g>
   <g id="text_2">
    <!-- N_c -->
    <g style="fill: #2c3e50" transform="translate(83.524886 157.837582) scale(0.08 -0.08)">
     <defs>
      <path id="DejaVuSans-Bold-4e" d="M 588 4666 
L 1931 4666 
L 3628 1466 
L 3628 4666 
L 4769 4666 
L 4769 0 
L 3425 0 
L 1728 3200 
L 1728 0 
L 588 0 
L 588 4666 
z
" transform="scale(0.015625)"/>
      <path id="DejaVuSans-Bold-5f" d="M 3200 -916 
L 3200 -1509 
L 0 -1509 
L 0 -916 
L 3200 -916 
z
" transform="scale(0.015625)"/>
      <path id="DejaVuSans-Bold-63" d="M 3366 3391 
L 3366 2478 
Q 3138 2634 2908 2709 
Q 2678 2784 2431 2784 
Q 1963 2784 1702 2511 
Q 1441 2238 1441 1747 
Q 1441 1256 1702 982 
Q 1963 709 2431 709 
Q 2694 709 2930 787 
Q 3166 866 3366 1019 
L 3366 103 
Q 3103 6 2833 -42 
Q 2563 -91 2291 -91 
Q 1344 -91 809 395 
Q 275 881 275 1747 
Q 275 2613 809 3098 
Q 1344 3584 2291 3584 
Q 2566 3584 2833 3536 
Q 3100 3488 3366 3391 
z
" transform="scale(0.015625)"/>
     </defs>
     <use xlink:href="#DejaVuSans-Bold-4e"/>
     <use xlink:href="#DejaVuSans-Bold-5f" transform="translate(83.691406 0)"/>
     <use xlink:href="#DejaVuSans-Bold-63" transform="translate(133.691406 0)"/>
    </g>
   </g>
   <g id="text_3">
    <!-- N_eff -->
    <g style="fill: #2c3e50" transform="translate(79.703011 216.218986) scale(0.08 -0.08)">
     <defs>
      <path id="DejaVuSans-Bold-65" d="M 4031 1759 
L 4031 1441 
L 1416 1441 
Q 1456 1047 1700 850 
Q 1944 653 2381 653 
Q 2734 653 3104 758 
Q 3475 863 3866 1075 
L 3866 213 
Q 3469 63 3072 -14 
Q 2675 -91 2278 -91 
Q 1328 -91 801 392 
Q 275 875 275 1747 
Q 275 2603 792 3093 
Q 1309 3584 2216 3584 
Q 3041 3584 3536 3087 
Q 4031 2591 4031 1759 
z
M 2881 2131 
Q 2881 2450 2695 2645 
Q 2509 2841 2209 2841 
Q 1884 2841 1681 2658 
Q 1478 2475 1428 2131 
L 2881 2131 
z
" transform="scale(0.015625)"/>
      <path id="DejaVuSans-Bold-66" d="M 2841 4863 
L 2841 4128 
L 2222 4128 
Q 1984 4128 1890 4042 
Q 1797 3956 1797 3744 
L 1797 3500 
L 2753 3500 
L 2753 2700 
L 1797 2700 
L 1797 0 
L 678 0 
L 678 2700 
L 122 2700 
L 122 3500 
L 678 3500 
L 678 3744 
Q 678 4316 997 4589 
Q 1316 4863 1984 4863 
L 2841 4863 
z
" transform="scale(0.015625)"/>
     </defs>
     <use xlink:href="#DejaVuSans-Bold-4e"/>
     <use xlink:href="#DejaVuSans-Bold-5f" transform="translate(83.691406 0)"/>
     <use xlink:href="#DejaVuSans-Bold-65" transform="translate(133.691406 0)"/>
     <use xlink:href="#DejaVuSans-Bold-66" transform="translate(201.513672 0)"/>
     <use xlink:href="#DejaVuSans-Bold-66" transform="translate(245.019531 0)"/>
    </g>
   </g>
   <g id="text_4">
    <!-- N_base -->
    <g style="fill: #2c3e50" transform="translate(75.239886 274.489139) scale(0.08 -0.08)">
     <defs>
      <path id="DejaVuSans-Bold-62" d="M 2400 722 
Q 2759 722 2948 984 
Q 3138 1247 3138 1747 
Q 3138 2247 2948 2509 
Q 2759 2772 2400 2772 
Q 2041 2772 1848 2508 
Q 1656 2244 1656 1747 
Q 1656 1250 1848 986 
Q 2041 722 2400 722 
z
M 1656 2988 
Q 1888 3294 2169 3439 
Q 2450 3584 2816 3584 
Q 3463 3584 3878 3070 
Q 4294 2556 4294 1747 
Q 4294 938 3878 423 
Q 3463 -91 2816 -91 
Q 2450 -91 2169 54 
Q 1888 200 1656 506 
L 1656 0 
L 538 0 
L 538 4863 
L 1656 4863 
L 1656 2988 
z
" transform="scale(0.015625)"/>
      <path id="DejaVuSans-Bold-61" d="M 2106 1575 
Q 1756 1575 1579 1456 
Q 1403 1338 1403 1106 
Q 1403 894 1545 773 
Q 1688 653 1941 653 
Q 2256 653 2472 879 
Q 2688 1106 2688 1447 
L 2688 1575 
L 2106 1575 
z
M 3816 1997 
L 3816 0 
L 2688 0 
L 2688 519 
Q 2463 200 2181 54 
Q 1900 -91 1497 -91 
Q 953 -91 614 226 
Q 275 544 275 1050 
Q 275 1666 698 1953 
Q 1122 2241 2028 2241 
L 2688 2241 
L 2688 2328 
Q 2688 2594 2478 2717 
Q 2269 2841 1825 2841 
Q 1466 2841 1156 2769 
Q 847 2697 581 2553 
L 581 3406 
Q 941 3494 1303 3539 
Q 1666 3584 2028 3584 
Q 2975 3584 3395 3211 
Q 3816 2838 3816 1997 
z
" transform="scale(0.015625)"/>
      <path id="DejaVuSans-Bold-73" d="M 3272 3391 
L 3272 2541 
Q 2913 2691 2578 2766 
Q 2244 2841 1947 2841 
Q 1628 2841 1473 2761 
Q 1319 2681 1319 2516 
Q 1319 2381 1436 2309 
Q 1553 2238 1856 2203 
L 2053 2175 
Q 2913 2066 3209 1816 
Q 3506 1566 3506 1031 
Q 3506 472 3093 190 
Q 2681 -91 1863 -91 
Q 1516 -91 1145 -36 
Q 775 19 384 128 
L 384 978 
Q 719 816 1070 734 
Q 1422 653 1784 653 
Q 2113 653 2278 743 
Q 2444 834 2444 1013 
Q 2444 1163 2330 1236 
Q 2216 1309 1875 1350 
L 1678 1375 
Q 931 1469 631 1722 
Q 331 1975 331 2491 
Q 331 3047 712 3315 
Q 1094 3584 1881 3584 
Q 2191 3584 2531 3537 
Q 2872 3491 3272 3391 
z
" transform="scale(0.015625)"/>
     </defs>
     <use xlink:href="#DejaVuSans-Bold-4e"/>
     <use xlink:href="#DejaVuSans-Bold-5f" transform="translate(83.691406 0)"/>
     <use xlink:href="#DejaVuSans-Bold-62" transform="translate(133.691406 0)"/>
     <use xlink:href="#DejaVuSans-Bold-61" transform="translate(205.273438 0)"/>
     <use xlink:href="#DejaVuSans-Bold-73" transform="translate(272.753906 0)"/>
     <use xlink:href="#DejaVuSans-Bold-65" transform="translate(332.275391 0)"/>
    </g>
   </g>
   <g id="text_5">
    <!-- α -->
    <g style="fill: #2c3e50" transform="translate(368.640966 119.213312) scale(0.08 -0.08)">
     <defs>
      <path id="DejaVuSans-Bold-3b1" d="M 3006 3163 
L 3119 3500 
L 4088 3500 
L 3484 1697 
L 3569 1219 
Q 3659 703 3872 703 
L 4128 703 
L 4128 0 
L 3809 0 
Q 3313 0 3059 263 
Q 3003 322 2988 353 
Q 2838 163 2689 39 
Q 2541 -84 1763 -78 
Q 988 -72 648 400 
Q 309 872 309 1794 
Q 309 2713 663 3088 
Q 1109 3569 1966 3578 
Q 2688 3588 3006 3163 
z
M 2575 1841 
L 2481 2350 
Q 2394 2825 1981 2828 
Q 1772 2828 1598 2558 
Q 1425 2288 1425 1741 
Q 1425 1191 1581 944 
Q 1738 697 1969 691 
Q 2213 684 2363 1163 
L 2575 1841 
z
" transform="scale(0.015625)"/>
     </defs>
     <use xlink:href="#DejaVuSans-Bold-3b1"/>
    </g>
   </g>
   <g id="text_6">
    <!-- K_B -->
    <g style="fill: #2c3e50" transform="translate(363.240966 183.735428) scale(0.08 -0.08)">
     <defs>
      <path id="DejaVuSans-Bold-4b" d="M 588 4666 
L 1791 4666 
L 1791 2963 
L 3525 4666 
L 4922 4666 
L 2675 2456 
L 5153 0 
L 3647 0 
L 1791 1838 
L 1791 0 
L 588 0 
L 588 4666 
z
" transform="scale(0.015625)"/>
     </defs>
     <use xlink:href="#DejaVuSans-Bold-4b"/>
     <use xlink:href="#DejaVuSans-Bold-5f" transform="translate(77.490234 0)"/>
     <use xlink:href="#DejaVuSans-Bold-42" transform="translate(127.490234 0)"/>
    </g>
   </g>
   <g id="text_7">
    <!-- sin²θ_W -->
    <g style="fill: #2c3e50" transform="translate(353.877841 248.622543) scale(0.08 -0.08)">
     <defs>
      <path id="DejaVuSans-Bold-69" d="M 538 3500 
L 1656 3500 
L 1656 0 
L 538 0 
L 538 3500 
z
M 538 4863 
L 1656 4863 
L 1656 3950 
L 538 3950 
L 538 4863 
z
" transform="scale(0.015625)"/>
      <path id="DejaVuSans-Bold-6e" d="M 4056 2131 
L 4056 0 
L 2931 0 
L 2931 347 
L 2931 1631 
Q 2931 2084 2911 2256 
Q 2891 2428 2841 2509 
Q 2775 2619 2662 2680 
Q 2550 2741 2406 2741 
Q 2056 2741 1856 2470 
Q 1656 2200 1656 1722 
L 1656 0 
L 538 0 
L 538 3500 
L 1656 3500 
L 1656 2988 
Q 1909 3294 2193 3439 
Q 2478 3584 2822 3584 
Q 3428 3584 3742 3212 
Q 4056 2841 4056 2131 
z
" transform="scale(0.015625)"/>
      <path id="DejaVuSans-Bold-b2" d="M 1288 2613 
L 2444 2613 
L 2444 2088 
L 341 2088 
L 341 2566 
L 1319 3397 
Q 1509 3563 1590 3688 
Q 1672 3813 1672 3938 
Q 1672 4094 1558 4191 
Q 1444 4288 1259 4288 
Q 1066 4288 844 4217 
Q 622 4147 359 4000 
L 359 4581 
Q 631 4666 886 4708 
Q 1141 4750 1375 4750 
Q 1869 4750 2150 4548 
Q 2431 4347 2431 4000 
Q 2431 3775 2320 3586 
Q 2209 3397 1894 3128 
L 1288 2613 
z
" transform="scale(0.015625)"/>
      <path id="DejaVuSans-Bold-3b8" d="M 1447 2081 
Q 1469 1444 1638 1181 
Q 1922 728 2197 725 
Q 2475 722 2763 1181 
Q 2931 1453 2953 2081 
L 1447 2081 
z
M 2950 2881 
Q 2913 3394 2759 3688 
Q 2522 4144 2200 4144 
Q 1875 4144 1641 3688 
Q 1484 3384 1450 2881 
L 2950 2881 
z
M 2200 4913 
Q 3247 4913 3686 4231 
Q 4125 3550 4125 2403 
Q 4125 1256 3673 592 
Q 3222 -72 2200 -72 
Q 1178 -72 726 592 
Q 275 1256 275 2403 
Q 275 3550 714 4231 
Q 1153 4913 2200 4913 
z
" transform="scale(0.015625)"/>
      <path id="DejaVuSans-Bold-57" d="M 191 4666 
L 1344 4666 
L 2150 1275 
L 2950 4666 
L 4109 4666 
L 4909 1275 
L 5716 4666 
L 6859 4666 
L 5759 0 
L 4372 0 
L 3525 3547 
L 2688 0 
L 1300 0 
L 191 4666 
z
" transform="scale(0.015625)"/>
     </defs>
     <use xlink:href="#DejaVuSans-Bold-73"/>
     <use xlink:href="#DejaVuSans-Bold-69" transform="translate(59.521484 0)"/>
     <use xlink:href="#DejaVuSans-Bold-6e" transform="translate(93.798828 0)"/>
     <use xlink:href="#DejaVuSans-Bold-b2" transform="translate(164.990234 0)"/>
     <use xlink:href="#DejaVuSans-Bold-3b8" transform="translate(208.789062 0)"/>
     <use xlink:href="#DejaVuSans-Bold-5f" transform="translate(277.490234 0)"/>
     <use xlink:href="#DejaVuSans-Bold-57" transform="translate(327.490234 0)"/>
    </g>
   </g>
   <g id="text_8">
    <!-- α_s -->
    <g style="fill: #2c3e50" transform="translate(364.260341 313.224659) scale(0.08 -0.08)">
     <use xlink:href="#DejaVuSans-Bold-3b1"/>
     <use xlink:href="#DejaVuSans-Bold-5f" transform="translate(68.701172 0)"/>
     <use xlink:href="#DejaVuSans-Bold-73" transform="translate(118.701172 0)"/>
    </g>
   </g>
   <g id="text_9">
    <!-- φ -->
    <g style="fill: #2c3e50" transform="translate(627.394886 138.636697) scale(0.08 -0.08)">
     <defs>
      <path id="DejaVuSans-Bold-3c6" d="M 3216 3531 
Q 3688 3531 4125 3131 
Q 4638 2666 4638 1747 
Q 4638 200 3081 0 
L 3081 -1331 
L 1969 -1331 
L 1969 0 
Q 413 200 413 1747 
Q 413 2609 925 3097 
Q 1347 3500 1872 3500 
L 1872 2784 
Q 1800 2778 1667 2514 
Q 1534 2250 1534 1859 
Q 1534 1113 1969 800 
L 1969 2025 
Q 1969 3531 3216 3531 
z
M 3250 2700 
Q 3081 2681 3081 2025 
L 3081 800 
Q 3500 1103 3516 1859 
Q 3525 2278 3447 2495 
Q 3369 2713 3250 2700 
z
" transform="scale(0.015625)"/>
     </defs>
     <use xlink:href="#DejaVuSans-Bold-3c6"/>
    </g>
   </g>
   <g id="text_10">
    <!-- gravity_bias -->
    <g style="fill: #2c3e50" transform="translate(603.176136 229.167909) scale(0.08 -0.08)">
     <defs>
      <path id="DejaVuSans-Bold-67" d="M 2919 594 
Q 2688 288 2409 144 
Q 2131 0 1766 0 
Q 1125 0 706 504 
Q 288 1009 288 1791 
Q 288 2575 706 3076 
Q 1125 3578 1766 3578 
Q 2131 3578 2409 3434 
Q 2688 3291 2919 2981 
L 2919 3500 
L 4044 3500 
L 4044 353 
Q 4044 -491 3511 -936 
Q 2978 -1381 1966 -1381 
Q 1638 -1381 1331 -1331 
Q 1025 -1281 716 -1178 
L 716 -306 
Q 1009 -475 1290 -558 
Q 1572 -641 1856 -641 
Q 2406 -641 2662 -400 
Q 2919 -159 2919 353 
L 2919 594 
z
M 2181 2772 
Q 1834 2772 1640 2515 
Q 1447 2259 1447 1791 
Q 1447 1309 1634 1061 
Q 1822 813 2181 813 
Q 2531 813 2725 1069 
Q 2919 1325 2919 1791 
Q 2919 2259 2725 2515 
Q 2531 2772 2181 2772 
z
" transform="scale(0.015625)"/>
      <path id="DejaVuSans-Bold-72" d="M 3138 2547 
Q 2991 2616 2845 2648 
Q 2700 2681 2553 2681 
Q 2122 2681 1889 2404 
Q 1656 2128 1656 1613 
L 1656 0 
L 538 0 
L 538 3500 
L 1656 3500 
L 1656 2925 
Q 1872 3269 2151 3426 
Q 2431 3584 2822 3584 
Q 2878 3584 2943 3579 
Q 3009 3575 3134 3559 
L 3138 2547 
z
" transform="scale(0.015625)"/>
      <path id="DejaVuSans-Bold-76" d="M 97 3500 
L 1216 3500 
L 2088 1081 
L 2956 3500 
L 4078 3500 
L 2700 0 
L 1472 0 
L 97 3500 
z
" transform="scale(0.015625)"/>
      <path id="DejaVuSans-Bold-74" d="M 1759 4494 
L 1759 3500 
L 2913 3500 
L 2913 2700 
L 1759 2700 
L 1759 1216 
Q 1759 972 1856 886 
Q 1953 800 2241 800 
L 2816 800 
L 2816 0 
L 1856 0 
Q 1194 0 917 276 
Q 641 553 641 1216 
L 641 2700 
L 84 2700 
L 84 3500 
L 641 3500 
L 641 4494 
L 1759 4494 
z
" transform="scale(0.015625)"/>
      <path id="DejaVuSans-Bold-79" d="M 78 3500 
L 1197 3500 
L 2138 1125 
L 2938 3500 
L 4056 3500 
L 2584 -331 
Q 2363 -916 2067 -1148 
Q 1772 -1381 1288 -1381 
L 641 -1381 
L 641 -647 
L 991 -647 
Q 1275 -647 1404 -556 
Q 1534 -466 1606 -231 
L 1638 -134 
L 78 3500 
z
" transform="scale(0.015625)"/>
     </defs>
     <use xlink:href="#DejaVuSans-Bold-67"/>
     <use xlink:href="#DejaVuSans-Bold-72" transform="translate(71.582031 0)"/>
     <use xlink:href="#DejaVuSans-Bold-61" transform="translate(120.898438 0)"/>
     <use xlink:href="#DejaVuSans-Bold-76" transform="translate(188.378906 0)"/>
     <use xlink:href="#DejaVuSans-Bold-69" transform="translate(253.564453 0)"/>
     <use xlink:href="#DejaVuSans-Bold-74" transform="translate(287.841797 0)"/>
     <use xlink:href="#DejaVuSans-Bold-79" transform="translate(335.644531 0)"/>
     <use xlink:href="#DejaVuSans-Bold-5f" transform="translate(400.830078 0)"/>
     <use xlink:href="#DejaVuSans-Bold-62" transform="translate(450.830078 0)"/>
     <use xlink:href="#DejaVuSans-Bold-69" transform="translate(522.412109 0)"/>
     <use xlink:href="#DejaVuSans-Bold-61" transform="translate(556.689453 0)"/>
     <use xlink:href="#DejaVuSans-Bold-73" transform="translate(624.169922 0)"/>
    </g>
   </g>
   <g id="text_11">
    <!-- decay_rate -->
    <g style="fill: #2c3e50" transform="translate(606.097386 319.81037) scale(0.08 -0.08)">
     <defs>
      <path id="DejaVuSans-Bold-64" d="M 2919 2988 
L 2919 4863 
L 4044 4863 
L 4044 0 
L 2919 0 
L 2919 506 
Q 2688 197 2409 53 
Q 2131 -91 1766 -91 
Q 1119 -91 703 423 
Q 288 938 288 1747 
Q 288 2556 703 3070 
Q 1119 3584 1766 3584 
Q 2128 3584 2408 3439 
Q 2688 3294 2919 2988 
z
M 2181 722 
Q 2541 722 2730 984 
Q 2919 1247 2919 1747 
Q 2919 2247 2730 2509 
Q 2541 2772 2181 2772 
Q 1825 2772 1636 2509 
Q 1447 2247 1447 1747 
Q 1447 1247 1636 984 
Q 1825 722 2181 722 
z
" transform="scale(0.015625)"/>
     </defs>
     <use xlink:href="#DejaVuSans-Bold-64"/>
     <use xlink:href="#DejaVuSans-Bold-65" transform="translate(71.582031 0)"/>
     <use xlink:href="#DejaVuSans-Bold-63" transform="translate(139.404297 0)"/>
     <use xlink:href="#DejaVuSans-Bold-61" transform="translate(198.681641 0)"/>
     <use xlink:href="#DejaVuSans-Bold-79" transform="translate(263.037109 0)"/>
     <use xlink:href="#DejaVuSans-Bold-5f" transform="translate(328.222656 0)"/>
     <use xlink:href="#DejaVuSans-Bold-72" transform="translate(378.222656 0)"/>
     <use xlink:href="#DejaVuSans-Bold-61" transform="translate(427.539062 0)"/>
     <use xlink:href="#DejaVuSans-Bold-74" transform="translate(495.019531 0)"/>
     <use xlink:href="#DejaVuSans-Bold-65" transform="translate(542.822266 0)"/>
    </g>
   </g>
   <g id="patch_13">
    <path d="M 162.620112 270.906261 
Q 231.316424 194.699284 299.264147 119.32274 
" style="fill: none; stroke: #ecf0f1; stroke-linecap: round"/>
    <path d="M 295.100398 120.954668 
L 299.264147 119.32274 
L 298.07144 123.632897 
" style="fill: none; stroke: #ecf0f1; stroke-linecap: round"/>
   </g>
   <g id="patch_14">
    <path d="M 162.923615 212.983165 
Q 231.315445 165.564911 298.788478 118.783689 
" style="fill: none; stroke: #ecf0f1; stroke-linecap: round"/>
    <path d="M 294.361728 119.419209 
L 298.788478 118.783689 
L 296.640844 122.706401 
" style="fill: none; stroke: #ecf0f1; stroke-linecap: round"/>
   </g>
   <g id="patch_15">
    <path d="M 163.207881 155.317917 
Q 231.316983 136.429025 298.348716 117.838923 
" style="fill: none; stroke: #ecf0f1; stroke-linecap: round"/>
    <path d="M 293.959711 116.98065 
L 298.348716 117.838923 
L 295.028694 120.835163 
" style="fill: none; stroke: #ecf0f1; stroke-linecap: round"/>
   </g>
   <g id="patch_16">
    <path d="M 439.608715 117.845548 
Q 371.389967 149.377715 304.186084 180.44079 
" style="fill: none; stroke: #ecf0f1; stroke-linecap: round"/>
    <path d="M 308.656116 180.57796 
L 304.186084 180.44079 
L 306.977839 176.947066 
" style="fill: none; stroke: #ecf0f1; stroke-linecap: round"/>
   </g>
   <g id="patch_17">
    <path d="M 442.444645 118.723912 
Q 500.955322 217.358211 558.895585 315.030935 
" style="fill: none; stroke: #ecf0f1; stroke-linecap: round"/>
    <path d="M 558.574927 310.570309 
L 558.895585 315.030935 
L 555.13469 312.611086 
" style="fill: none; stroke: #ecf0f1; stroke-linecap: round"/>
   </g>
   <g id="patch_18">
    <path d="M 162.376456 99.254885 
Q 231.316414 204.41112 299.643383 308.632344 
" style="fill: none; stroke: #ecf0f1; stroke-linecap: round"/>
    <path d="M 299.122886 304.190601 
L 299.643383 308.632344 
L 295.77769 306.383696 
" style="fill: none; stroke: #ecf0f1; stroke-linecap: round"/>
   </g>
   <g id="patch_19">
    <path d="M 162.620112 157.33921 
Q 231.316424 233.546187 299.264147 308.922731 
" style="fill: none; stroke: #ecf0f1; stroke-linecap: round"/>
    <path d="M 298.07144 304.612575 
L 299.264147 308.922731 
L 295.100398 307.290803 
" style="fill: none; stroke: #ecf0f1; stroke-linecap: round"/>
   </g>
   <g id="patch_20">
    <path d="M 162.957812 156.938311 
Q 231.315853 201.173482 298.735249 244.801247 
" style="fill: none; stroke: #ecf0f1; stroke-linecap: round"/>
    <path d="M 296.46361 240.949019 
L 298.735249 244.801247 
L 294.290483 244.307222 
" style="fill: none; stroke: #ecf0f1; stroke-linecap: round"/>
   </g>
   <g id="patch_21">
    <path d="M 163.22498 214.572241 
Q 231.313006 230.308113 298.311711 245.792232 
" style="fill: none; stroke: #ecf0f1; stroke-linecap: round"/>
    <path d="M 294.864789 242.942894 
L 298.311711 245.792232 
L 293.964087 246.840167 
" style="fill: none; stroke: #ecf0f1; stroke-linecap: round"/>
   </g>
   <g id="patch_22">
    <path d="M 442.897013 118.366184 
Q 500.95828 172.040508 558.198572 224.955885 
" style="fill: none; stroke: #ecf0f1; stroke-linecap: round"/>
    <path d="M 556.619001 220.771993 
L 558.198572 224.955885 
L 553.903715 223.709206 
" style="fill: none; stroke: #ecf0f1; stroke-linecap: round"/>
   </g>
   <g id="patch_23">
    <path d="M 163.183569 98.199881 
Q 360.885144 162.327532 557.523232 226.110225 
" style="fill: none; stroke: #ecf0f1; stroke-linecap: round"/>
    <path d="M 554.335468 222.973641 
L 557.523232 226.110225 
L 553.101306 226.778485 
" style="fill: none; stroke: #ecf0f1; stroke-linecap: round"/>
   </g>
   <g id="patch_24">
    <path d="M 163.250574 156.204135 
Q 360.885469 191.462447 557.419708 226.524401 
" style="fill: none; stroke: #ecf0f1; stroke-linecap: round"/>
    <path d="M 553.833139 223.852975 
L 557.419708 226.524401 
L 553.130626 227.790801 
" style="fill: none; stroke: #ecf0f1; stroke-linecap: round"/>
   </g>
   <g id="patch_25">
    <path d="M 163.171386 271.748713 
Q 360.882054 204.411582 557.534387 137.434903 
" style="fill: none; stroke: #ecf0f1; stroke-linecap: round"/>
    <path d="M 553.103174 136.831289 
L 557.534387 137.434903 
L 554.392768 140.617705 
" style="fill: none; stroke: #ecf0f1; stroke-linecap: round"/>
   </g>
   <g id="text_12">
    <!-- Framework integers -->
    <g style="fill: #2c3e50" transform="translate(91.243636 52.261197) scale(0.12 -0.12)">
     <defs>
      <path id="DejaVuSans-Bold-46" d="M 588 4666 
L 3834 4666 
L 3834 3756 
L 1791 3756 
L 1791 2888 
L 3713 2888 
L 3713 1978 
L 1791 1978 
L 1791 0 
L 588 0 
L 588 4666 
z
" transform="scale(0.015625)"/>
      <path id="DejaVuSans-Bold-6d" d="M 3781 2919 
Q 3994 3244 4286 3414 
Q 4578 3584 4928 3584 
Q 5531 3584 5847 3212 
Q 6163 2841 6163 2131 
L 6163 0 
L 5038 0 
L 5038 1825 
Q 5041 1866 5042 1909 
Q 5044 1953 5044 2034 
Q 5044 2406 4934 2573 
Q 4825 2741 4581 2741 
Q 4263 2741 4089 2478 
Q 3916 2216 3909 1719 
L 3909 0 
L 2784 0 
L 2784 1825 
Q 2784 2406 2684 2573 
Q 2584 2741 2328 2741 
Q 2006 2741 1831 2477 
Q 1656 2213 1656 1722 
L 1656 0 
L 531 0 
L 531 3500 
L 1656 3500 
L 1656 2988 
Q 1863 3284 2130 3434 
Q 2397 3584 2719 3584 
Q 3081 3584 3359 3409 
Q 3638 3234 3781 2919 
z
" transform="scale(0.015625)"/>
      <path id="DejaVuSans-Bold-77" d="M 225 3500 
L 1313 3500 
L 1900 1088 
L 2491 3500 
L 3425 3500 
L 4013 1113 
L 4603 3500 
L 5691 3500 
L 4769 0 
L 3547 0 
L 2956 2406 
L 2369 0 
L 1147 0 
L 225 3500 
z
" transform="scale(0.015625)"/>
      <path id="DejaVuSans-Bold-6f" d="M 2203 2784 
Q 1831 2784 1636 2517 
Q 1441 2250 1441 1747 
Q 1441 1244 1636 976 
Q 1831 709 2203 709 
Q 2569 709 2762 976 
Q 2956 1244 2956 1747 
Q 2956 2250 2762 2517 
Q 2569 2784 2203 2784 
z
M 2203 3584 
Q 3106 3584 3614 3096 
Q 4122 2609 4122 1747 
Q 4122 884 3614 396 
Q 3106 -91 2203 -91 
Q 1297 -91 786 396 
Q 275 884 275 1747 
Q 275 2609 786 3096 
Q 1297 3584 2203 3584 
z
" transform="scale(0.015625)"/>
      <path id="DejaVuSans-Bold-6b" d="M 538 4863 
L 1656 4863 
L 1656 2216 
L 2944 3500 
L 4244 3500 
L 2534 1894 
L 4378 0 
L 3022 0 
L 1656 1459 
L 1656 0 
L 538 0 
L 538 4863 
z
" transform="scale(0.015625)"/>
      <path id="DejaVuSans-Bold-20" transform="scale(0.015625)"/>
     </defs>
     <use xlink:href="#DejaVuSans-Bold-46"/>
     <use xlink:href="#DejaVuSans-Bold-72" transform="translate(61.935547 0)"/>
     <use xlink:href="#DejaVuSans-Bold-61" transform="translate(111.251953 0)"/>
     <use xlink:href="#DejaVuSans-Bold-6d" transform="translate(178.732422 0)"/>
     <use xlink:href="#DejaVuSans-Bold-65" transform="translate(282.931641 0)"/>
     <use xlink:href="#DejaVuSans-Bold-77" transform="translate(350.753906 0)"/>
     <use xlink:href="#DejaVuSans-Bold-6f" transform="translate(443.136719 0)"/>
     <use xlink:href="#DejaVuSans-Bold-72" transform="translate(511.837891 0)"/>
     <use xlink:href="#DejaVuSans-Bold-6b" transform="translate(561.154297 0)"/>
     <use xlink:href="#DejaVuSans-Bold-20" transform="translate(627.658203 0)"/>
     <use xlink:href="#DejaVuSans-Bold-69" transform="translate(662.472656 0)"/>
     <use xlink:href="#DejaVuSans-Bold-6e" transform="translate(696.75 0)"/>
     <use xlink:href="#DejaVuSans-Bold-74" transform="translate(767.941406 0)"/>
     <use xlink:href="#DejaVuSans-Bold-65" transform="translate(815.744141 0)"/>
     <use xlink:href="#DejaVuSans-Bold-67" transform="translate(883.566406 0)"/>
     <use xlink:href="#DejaVuSans-Bold-65" transform="translate(955.148438 0)"/>
     <use xlink:href="#DejaVuSans-Bold-72" transform="translate(1022.970703 0)"/>
     <use xlink:href="#DejaVuSans-Bold-73" transform="translate(1072.287109 0)"/>
    </g>
   </g>
   <g id="text_13">
    <!-- Derived (core + companion) -->
    <g style="fill: #2c3e50" transform="translate(276.564716 52.261197) scale(0.12 -0.12)">
     <defs>
      <path id="DejaVuSans-Bold-44" d="M 1791 3756 
L 1791 909 
L 2222 909 
Q 2959 909 3348 1275 
Q 3738 1641 3738 2338 
Q 3738 3031 3350 3393 
Q 2963 3756 2222 3756 
L 1791 3756 
z
M 588 4666 
L 1856 4666 
Q 2919 4666 3439 4514 
Q 3959 4363 4331 4000 
Q 4659 3684 4818 3271 
Q 4978 2859 4978 2338 
Q 4978 1809 4818 1395 
Q 4659 981 4331 666 
Q 3956 303 3431 151 
Q 2906 0 1856 0 
L 588 0 
L 588 4666 
z
" transform="scale(0.015625)"/>
      <path id="DejaVuSans-Bold-28" d="M 2413 -844 
L 1484 -844 
Q 1006 -72 778 623 
Q 550 1319 550 2003 
Q 550 2688 779 3389 
Q 1009 4091 1484 4856 
L 2413 4856 
Q 2013 4116 1813 3408 
Q 1613 2700 1613 2009 
Q 1613 1319 1811 609 
Q 2009 -100 2413 -844 
z
" transform="scale(0.015625)"/>
      <path id="DejaVuSans-Bold-2b" d="M 3053 4013 
L 3053 2375 
L 4684 2375 
L 4684 1638 
L 3053 1638 
L 3053 0 
L 2309 0 
L 2309 1638 
L 678 1638 
L 678 2375 
L 2309 2375 
L 2309 4013 
L 3053 4013 
z
" transform="scale(0.015625)"/>
      <path id="DejaVuSans-Bold-70" d="M 1656 506 
L 1656 -1331 
L 538 -1331 
L 538 3500 
L 1656 3500 
L 1656 2988 
Q 1888 3294 2169 3439 
Q 2450 3584 2816 3584 
Q 3463 3584 3878 3070 
Q 4294 2556 4294 1747 
Q 4294 938 3878 423 
Q 3463 -91 2816 -91 
Q 2450 -91 2169 54 
Q 1888 200 1656 506 
z
M 2400 2772 
Q 2041 2772 1848 2508 
Q 1656 2244 1656 1747 
Q 1656 1250 1848 986 
Q 2041 722 2400 722 
Q 2759 722 2948 984 
Q 3138 1247 3138 1747 
Q 3138 2247 2948 2509 
Q 2759 2772 2400 2772 
z
" transform="scale(0.015625)"/>
      <path id="DejaVuSans-Bold-29" d="M 513 -844 
Q 913 -100 1113 609 
Q 1313 1319 1313 2009 
Q 1313 2700 1113 3408 
Q 913 4116 513 4856 
L 1441 4856 
Q 1916 4091 2145 3389 
Q 2375 2688 2375 2003 
Q 2375 1319 2147 623 
Q 1919 -72 1441 -844 
L 513 -844 
z
" transform="scale(0.015625)"/>
     </defs>
     <use xlink:href="#DejaVuSans-Bold-44"/>
     <use xlink:href="#DejaVuSans-Bold-65" transform="translate(83.007812 0)"/>
     <use xlink:href="#DejaVuSans-Bold-72" transform="translate(150.830078 0)"/>
     <use xlink:href="#DejaVuSans-Bold-69" transform="translate(200.146484 0)"/>
     <use xlink:href="#DejaVuSans-Bold-76" transform="translate(234.423828 0)"/>
     <use xlink:href="#DejaVuSans-Bold-65" transform="translate(299.609375 0)"/>
     <use xlink:href="#DejaVuSans-Bold-64" transform="translate(367.431641 0)"/>
     <use xlink:href="#DejaVuSans-Bold-20" transform="translate(439.013672 0)"/>
     <use xlink:href="#DejaVuSans-Bold-28" transform="translate(473.828125 0)"/>
     <use xlink:href="#DejaVuSans-Bold-63" transform="translate(519.53125 0)"/>
     <use xlink:href="#DejaVuSans-Bold-6f" transform="translate(578.808594 0)"/>
     <use xlink:href="#DejaVuSans-Bold-72" transform="translate(647.509766 0)"/>
     <use xlink:href="#DejaVuSans-Bold-65" transform="translate(696.826172 0)"/>
     <use xlink:href="#DejaVuSans-Bold-20" transform="translate(764.648438 0)"/>
     <use xlink:href="#DejaVuSans-Bold-2b" transform="translate(799.462891 0)"/>
     <use xlink:href="#DejaVuSans-Bold-20" transform="translate(883.251953 0)"/>
     <use xlink:href="#DejaVuSans-Bold-63" transform="translate(918.066406 0)"/>
     <use xlink:href="#DejaVuSans-Bold-6f" transform="translate(977.34375 0)"/>
     <use xlink:href="#DejaVuSans-Bold-6d" transform="translate(1046.044922 0)"/>
     <use xlink:href="#DejaVuSans-Bold-70" transform="translate(1150.244141 0)"/>
     <use xlink:href="#DejaVuSans-Bold-61" transform="translate(1221.826172 0)"/>
     <use xlink:href="#DejaVuSans-Bold-6e" transform="translate(1289.306641 0)"/>
     <use xlink:href="#DejaVuSans-Bold-69" transform="translate(1360.498047 0)"/>
     <use xlink:href="#DejaVuSans-Bold-6f" transform="translate(1394.775391 0)"/>
     <use xlink:href="#DejaVuSans-Bold-6e" transform="translate(1463.476562 0)"/>
     <use xlink:href="#DejaVuSans-Bold-29" transform="translate(1534.667969 0)"/>
    </g>
   </g>
   <g id="text_14">
    <!-- Model parameters -->
    <g style="fill: #2c3e50" transform="translate(568.779886 52.261197) scale(0.12 -0.12)">
     <defs>
      <path id="DejaVuSans-Bold-4d" d="M 588 4666 
L 2119 4666 
L 3181 2169 
L 4250 4666 
L 5778 4666 
L 5778 0 
L 4641 0 
L 4641 3413 
L 3566 897 
L 2803 897 
L 1728 3413 
L 1728 0 
L 588 0 
L 588 4666 
z
" transform="scale(0.015625)"/>
      <path id="DejaVuSans-Bold-6c" d="M 538 4863 
L 1656 4863 
L 1656 0 
L 538 0 
L 538 4863 
z
" transform="scale(0.015625)"/>
     </defs>
     <use xlink:href="#DejaVuSans-Bold-4d"/>
     <use xlink:href="#DejaVuSans-Bold-6f" transform="translate(99.511719 0)"/>
     <use xlink:href="#DejaVuSans-Bold-64" transform="translate(168.212891 0)"/>
     <use xlink:href="#DejaVuSans-Bold-65" transform="translate(239.794922 0)"/>
     <use xlink:href="#DejaVuSans-Bold-6c" transform="translate(307.617188 0)"/>
     <use xlink:href="#DejaVuSans-Bold-20" transform="translate(341.894531 0)"/>
     <use xlink:href="#DejaVuSans-Bold-70" transform="translate(376.708984 0)"/>
     <use xlink:href="#DejaVuSans-Bold-61" transform="translate(448.291016 0)"/>
     <use xlink:href="#DejaVuSans-Bold-72" transform="translate(515.771484 0)"/>
     <use xlink:href="#DejaVuSans-Bold-61" transform="translate(565.087891 0)"/>
     <use xlink:href="#DejaVuSans-Bold-6d" transform="translate(632.568359 0)"/>
     <use xlink:href="#DejaVuSans-Bold-65" transform="translate(736.767578 0)"/>
     <use xlink:href="#DejaVuSans-Bold-74" transform="translate(804.589844 0)"/>
     <use xlink:href="#DejaVuSans-Bold-65" transform="translate(852.392578 0)"/>
     <use xlink:href="#DejaVuSans-Bold-72" transform="translate(920.214844 0)"/>
     <use xlink:href="#DejaVuSans-Bold-73" transform="translate(969.53125 0)"/>
    </g>
   </g>
   <g id="text_15">
    <!-- Constants: Dependency Overview (schematic) -->
    <g transform="translate(229.884062 17.837812) scale(0.14 -0.14)">
     <defs>
      <path id="DejaVuSans-43" d="M 4122 4306 
L 4122 3641 
Q 3803 3938 3442 4084 
Q 3081 4231 2675 4231 
Q 1875 4231 1450 3742 
Q 1025 3253 1025 2328 
Q 1025 1406 1450 917 
Q 1875 428 2675 428 
Q 3081 428 3442 575 
Q 3803 722 4122 1019 
L 4122 359 
Q 3791 134 3420 21 
Q 3050 -91 2638 -91 
Q 1578 -91 968 557 
Q 359 1206 359 2328 
Q 359 3453 968 4101 
Q 1578 4750 2638 4750 
Q 3056 4750 3426 4639 
Q 3797 4528 4122 4306 
z
" transform="scale(0.015625)"/>
      <path id="DejaVuSans-6f" d="M 1959 3097 
Q 1497 3097 1228 2736 
Q 959 2375 959 1747 
Q 959 1119 1226 758 
Q 1494 397 1959 397 
Q 2419 397 2687 759 
Q 2956 1122 2956 1747 
Q 2956 2369 2687 2733 
Q 2419 3097 1959 3097 
z
M 1959 3584 
Q 2709 3584 3137 3096 
Q 3566 2609 3566 1747 
Q 3566 888 3137 398 
Q 2709 -91 1959 -91 
Q 1206 -91 779 398 
Q 353 888 353 1747 
Q 353 2609 779 3096 
Q 1206 3584 1959 3584 
z
" transform="scale(0.015625)"/>
      <path id="DejaVuSans-6e" d="M 3513 2113 
L 3513 0 
L 2938 0 
L 2938 2094 
Q 2938 2591 2744 2837 
Q 2550 3084 2163 3084 
Q 1697 3084 1428 2787 
Q 1159 2491 1159 1978 
L 1159 0 
L 581 0 
L 581 3500 
L 1159 3500 
L 1159 2956 
Q 1366 3272 1645 3428 
Q 1925 3584 2291 3584 
Q 2894 3584 3203 3211 
Q 3513 2838 3513 2113 
z
" transform="scale(0.015625)"/>
      <path id="DejaVuSans-73" d="M 2834 3397 
L 2834 2853 
Q 2591 2978 2328 3040 
Q 2066 3103 1784 3103 
Q 1356 3103 1142 2972 
Q 928 2841 928 2578 
Q 928 2378 1081 2264 
Q 1234 2150 1697 2047 
L 1894 2003 
Q 2506 1872 2764 1633 
Q 3022 1394 3022 966 
Q 3022 478 2636 193 
Q 2250 -91 1575 -91 
Q 1294 -91 989 -36 
Q 684 19 347 128 
L 347 722 
Q 666 556 975 473 
Q 1284 391 1588 391 
Q 1994 391 2212 530 
Q 2431 669 2431 922 
Q 2431 1156 2273 1281 
Q 2116 1406 1581 1522 
L 1381 1569 
Q 847 1681 609 1914 
Q 372 2147 372 2553 
Q 372 3047 722 3315 
Q 1072 3584 1716 3584 
Q 2034 3584 2315 3537 
Q 2597 3491 2834 3397 
z
" transform="scale(0.015625)"/>
      <path id="DejaVuSans-74" d="M 1172 4494 
L 1172 3500 
L 2356 3500 
L 2356 3053 
L 1172 3053 
L 1172 1153 
Q 1172 725 1289 603 
Q 1406 481 1766 481 
L 2356 481 
L 2356 0 
L 1766 0 
Q 1100 0 847 248 
Q 594 497 594 1153 
L 594 3053 
L 172 3053 
L 172 3500 
L 594 3500 
L 594 4494 
L 1172 4494 
z
" transform="scale(0.015625)"/>
      <path id="DejaVuSans-61" d="M 2194 1759 
Q 1497 1759 1228 1600 
Q 959 1441 959 1056 
Q 959 750 1161 570 
Q 1363 391 1709 391 
Q 2188 391 2477 730 
Q 2766 1069 2766 1631 
L 2766 1759 
L 2194 1759 
z
M 3341 1997 
L 3341 0 
L 2766 0 
L 2766 531 
Q 2569 213 2275 61 
Q 1981 -91 1556 -91 
Q 1019 -91 701 211 
Q 384 513 384 1019 
Q 384 1609 779 1909 
Q 1175 2209 1959 2209 
L 2766 2209 
L 2766 2266 
Q 2766 2663 2505 2880 
Q 2244 3097 1772 3097 
Q 1472 3097 1187 3025 
Q 903 2953 641 2809 
L 641 3341 
Q 956 3463 1253 3523 
Q 1550 3584 1831 3584 
Q 2591 3584 2966 3190 
Q 3341 2797 3341 1997 
z
" transform="scale(0.015625)"/>
      <path id="DejaVuSans-3a" d="M 750 794 
L 1409 794 
L 1409 0 
L 750 0 
L 750 794 
z
M 750 3309 
L 1409 3309 
L 1409 2516 
L 750 2516 
L 750 3309 
z
" transform="scale(0.015625)"/>
      <path id="DejaVuSans-20" transform="scale(0.015625)"/>
      <path id="DejaVuSans-44" d="M 1259 4147 
L 1259 519 
L 2022 519 
Q 2988 519 3436 956 
Q 3884 1394 3884 2338 
Q 3884 3275 3436 3711 
Q 2988 4147 2022 4147 
L 1259 4147 
z
M 628 4666 
L 1925 4666 
Q 3281 4666 3915 4102 
Q 4550 3538 4550 2338 
Q 4550 1131 3912 565 
Q 3275 0 1925 0 
L 628 0 
L 628 4666 
z
" transform="scale(0.015625)"/>
      <path id="DejaVuSans-65" d="M 3597 1894 
L 3597 1613 
L 953 1613 
Q 991 1019 1311 708 
Q 1631 397 2203 397 
Q 2534 397 2845 478 
Q 3156 559 3463 722 
L 3463 178 
Q 3153 47 2828 -22 
Q 2503 -91 2169 -91 
Q 1331 -91 842 396 
Q 353 884 353 1716 
Q 353 2575 817 3079 
Q 1281 3584 2069 3584 
Q 2775 3584 3186 3129 
Q 3597 2675 3597 1894 
z
M 3022 2063 
Q 3016 2534 2758 2815 
Q 2500 3097 2075 3097 
Q 1594 3097 1305 2825 
Q 1016 2553 972 2059 
L 3022 2063 
z
" transform="scale(0.015625)"/>
      <path id="DejaVuSans-70" d="M 1159 525 
L 1159 -1331 
L 581 -1331 
L 581 3500 
L 1159 3500 
L 1159 2969 
Q 1341 3281 1617 3432 
Q 1894 3584 2278 3584 
Q 2916 3584 3314 3078 
Q 3713 2572 3713 1747 
Q 3713 922 3314 415 
Q 2916 -91 2278 -91 
Q 1894 -91 1617 61 
Q 1341 213 1159 525 
z
M 3116 1747 
Q 3116 2381 2855 2742 
Q 2594 3103 2138 3103 
Q 1681 3103 1420 2742 
Q 1159 2381 1159 1747 
Q 1159 1113 1420 752 
Q 1681 391 2138 391 
Q 2594 391 2855 752 
Q 3116 1113 3116 1747 
z
" transform="scale(0.015625)"/>
      <path id="DejaVuSans-64" d="M 2906 2969 
L 2906 4863 
L 3481 4863 
L 3481 0 
L 2906 0 
L 2906 525 
Q 2725 213 2448 61 
Q 2172 -91 1784 -91 
Q 1150 -91 751 415 
Q 353 922 353 1747 
Q 353 2572 751 3078 
Q 1150 3584 1784 3584 
Q 2172 3584 2448 3432 
Q 2725 3281 2906 2969 
z
M 947 1747 
Q 947 1113 1208 752 
Q 1469 391 1925 391 
Q 2381 391 2643 752 
Q 2906 1113 2906 1747 
Q 2906 2381 2643 2742 
Q 2381 3103 1925 3103 
Q 1469 3103 1208 2742 
Q 947 2381 947 1747 
z
" transform="scale(0.015625)"/>
      <path id="DejaVuSans-63" d="M 3122 3366 
L 3122 2828 
Q 2878 2963 2633 3030 
Q 2388 3097 2138 3097 
Q 1578 3097 1268 2742 
Q 959 2388 959 1747 
Q 959 1106 1268 751 
Q 1578 397 2138 397 
Q 2388 397 2633 464 
Q 2878 531 3122 666 
L 3122 134 
Q 2881 22 2623 -34 
Q 2366 -91 2075 -91 
Q 1284 -91 818 406 
Q 353 903 353 1747 
Q 353 2603 823 3093 
Q 1294 3584 2113 3584 
Q 2378 3584 2631 3529 
Q 2884 3475 3122 3366 
z
" transform="scale(0.015625)"/>
      <path id="DejaVuSans-79" d="M 2059 -325 
Q 1816 -950 1584 -1140 
Q 1353 -1331 966 -1331 
L 506 -1331 
L 506 -850 
L 844 -850 
Q 1081 -850 1212 -737 
Q 1344 -625 1503 -206 
L 1606 56 
L 191 3500 
L 800 3500 
L 1894 763 
L 2988 3500 
L 3597 3500 
L 2059 -325 
z
" transform="scale(0.015625)"/>
      <path id="DejaVuSans-4f" d="M 2522 4238 
Q 1834 4238 1429 3725 
Q 1025 3213 1025 2328 
Q 1025 1447 1429 934 
Q 1834 422 2522 422 
Q 3209 422 3611 934 
Q 4013 1447 4013 2328 
Q 4013 3213 3611 3725 
Q 3209 4238 2522 4238 
z
M 2522 4750 
Q 3503 4750 4090 4092 
Q 4678 3434 4678 2328 
Q 4678 1225 4090 567 
Q 3503 -91 2522 -91 
Q 1538 -91 948 565 
Q 359 1222 359 2328 
Q 359 3434 948 4092 
Q 1538 4750 2522 4750 
z
" transform="scale(0.015625)"/>
      <path id="DejaVuSans-76" d="M 191 3500 
L 800 3500 
L 1894 563 
L 2988 3500 
L 3597 3500 
L 2284 0 
L 1503 0 
L 191 3500 
z
" transform="scale(0.015625)"/>
      <path id="DejaVuSans-72" d="M 2631 2963 
Q 2534 3019 2420 3045 
Q 2306 3072 2169 3072 
Q 1681 3072 1420 2755 
Q 1159 2438 1159 1844 
L 1159 0 
L 581 0 
L 581 3500 
L 1159 3500 
L 1159 2956 
Q 1341 3275 1631 3429 
Q 1922 3584 2338 3584 
Q 2397 3584 2469 3576 
Q 2541 3569 2628 3553 
L 2631 2963 
z
" transform="scale(0.015625)"/>
      <path id="DejaVuSans-69" d="M 603 3500 
L 1178 3500 
L 1178 0 
L 603 0 
L 603 3500 
z
M 603 4863 
L 1178 4863 
L 1178 4134 
L 603 4134 
L 603 4863 
z
" transform="scale(0.015625)"/>
      <path id="DejaVuSans-77" d="M 269 3500 
L 844 3500 
L 1563 769 
L 2278 3500 
L 2956 3500 
L 3675 769 
L 4391 3500 
L 4966 3500 
L 4050 0 
L 3372 0 
L 2619 2869 
L 1863 0 
L 1184 0 
L 269 3500 
z
" transform="scale(0.015625)"/>
      <path id="DejaVuSans-28" d="M 1984 4856 
Q 1566 4138 1362 3434 
Q 1159 2731 1159 2009 
Q 1159 1288 1364 580 
Q 1569 -128 1984 -844 
L 1484 -844 
Q 1016 -109 783 600 
Q 550 1309 550 2009 
Q 550 2706 781 3412 
Q 1013 4119 1484 4856 
L 1984 4856 
z
" transform="scale(0.015625)"/>
      <path id="DejaVuSans-68" d="M 3513 2113 
L 3513 0 
L 2938 0 
L 2938 2094 
Q 2938 2591 2744 2837 
Q 2550 3084 2163 3084 
Q 1697 3084 1428 2787 
Q 1159 2491 1159 1978 
L 1159 0 
L 581 0 
L 581 4863 
L 1159 4863 
L 1159 2956 
Q 1366 3272 1645 3428 
Q 1925 3584 2291 3584 
Q 2894 3584 3203 3211 
Q 3513 2838 3513 2113 
z
" transform="scale(0.015625)"/>
      <path id="DejaVuSans-6d" d="M 3328 2828 
Q 3544 3216 3844 3400 
Q 4144 3584 4550 3584 
Q 5097 3584 5394 3201 
Q 5691 2819 5691 2113 
L 5691 0 
L 5113 0 
L 5113 2094 
Q 5113 2597 4934 2840 
Q 4756 3084 4391 3084 
Q 3944 3084 3684 2787 
Q 3425 2491 3425 1978 
L 3425 0 
L 2847 0 
L 2847 2094 
Q 2847 2600 2669 2842 
Q 2491 3084 2119 3084 
Q 1678 3084 1418 2786 
Q 1159 2488 1159 1978 
L 1159 0 
L 581 0 
L 581 3500 
L 1159 3500 
L 1159 2956 
Q 1356 3278 1631 3431 
Q 1906 3584 2284 3584 
Q 2666 3584 2933 3390 
Q 3200 3197 3328 2828 
z
" transform="scale(0.015625)"/>
      <path id="DejaVuSans-29" d="M 513 4856 
L 1013 4856 
Q 1481 4119 1714 3412 
Q 1947 2706 1947 2009 
Q 1947 1309 1714 600 
Q 1481 -109 1013 -844 
L 513 -844 
Q 928 -128 1133 580 
Q 1338 1288 1338 2009 
Q 1338 2731 1133 3434 
Q 928 4138 513 4856 
z
" transform="scale(0.015625)"/>
     </defs>
     <use xlink:href="#DejaVuSans-43"/>
     <use xlink:href="#DejaVuSans-6f" transform="translate(69.824219 0)"/>
     <use xlink:href="#DejaVuSans-6e" transform="translate(131.005859 0)"/>
     <use xlink:href="#DejaVuSans-73" transform="translate(194.384766 0)"/>
     <use xlink:href="#DejaVuSans-74" transform="translate(246.484375 0)"/>
     <use xlink:href="#DejaVuSans-61" transform="translate(285.693359 0)"/>
     <use xlink:href="#DejaVuSans-6e" transform="translate(346.972656 0)"/>
     <use xlink:href="#DejaVuSans-74" transform="translate(410.351562 0)"/>
     <use xlink:href="#DejaVuSans-73" transform="translate(449.560547 0)"/>
     <use xlink:href="#DejaVuSans-3a" transform="translate(501.660156 0)"/>
     <use xlink:href="#DejaVuSans-20" transform="translate(535.351562 0)"/>
     <use xlink:href="#DejaVuSans-44" transform="translate(567.138672 0)"/>
     <use xlink:href="#DejaVuSans-65" transform="translate(644.140625 0)"/>
     <use xlink:href="#DejaVuSans-70" transform="translate(705.664062 0)"/>
     <use xlink:href="#DejaVuSans-65" transform="translate(769.140625 0)"/>
     <use xlink:href="#DejaVuSans-6e" transform="translate(830.664062 0)"/>
     <use xlink:href="#DejaVuSans-64" transform="translate(894.042969 0)"/>
     <use xlink:href="#DejaVuSans-65" transform="translate(957.519531 0)"/>
     <use xlink:href="#DejaVuSans-6e" transform="translate(1019.042969 0)"/>
     <use xlink:href="#DejaVuSans-63" transform="translate(1082.421875 0)"/>
     <use xlink:href="#DejaVuSans-79" transform="translate(1137.402344 0)"/>
     <use xlink:href="#DejaVuSans-20" transform="translate(1196.582031 0)"/>
     <use xlink:href="#DejaVuSans-4f" transform="translate(1228.369141 0)"/>
     <use xlink:href="#DejaVuSans-76" transform="translate(1307.080078 0)"/>
     <use xlink:href="#DejaVuSans-65" transform="translate(1366.259766 0)"/>
     <use xlink:href="#DejaVuSans-72" transform="translate(1427.783203 0)"/>
     <use xlink:href="#DejaVuSans-76" transform="translate(1468.896484 0)"/>
     <use xlink:href="#DejaVuSans-69" transform="translate(1528.076172 0)"/>
     <use xlink:href="#DejaVuSans-65" transform="translate(1555.859375 0)"/>
     <use xlink:href="#DejaVuSans-77" transform="translate(1617.382812 0)"/>
     <use xlink:href="#DejaVuSans-20" transform="translate(1699.169922 0)"/>
     <use xlink:href="#DejaVuSans-28" transform="translate(1730.957031 0)"/>
     <use xlink:href="#DejaVuSans-73" transform="translate(1769.970703 0)"/>
     <use xlink:href="#DejaVuSans-63" transform="translate(1822.070312 0)"/>
     <use xlink:href="#DejaVuSans-68" transform="translate(1877.050781 0)"/>
     <use xlink:href="#DejaVuSans-65" transform="translate(1940.429688 0)"/>
     <use xlink:href="#DejaVuSans-6d" transform="translate(2001.953125 0)"/>
     <use xlink:href="#DejaVuSans-61" transform="translate(2099.365234 0)"/>
     <use xlink:href="#DejaVuSans-74" transform="translate(2160.644531 0)"/>
     <use xlink:href="#DejaVuSans-69" transform="translate(2199.853516 0)"/>
     <use xlink:href="#DejaVuSans-63" transform="translate(2227.636719 0)"/>
     <use xlink:href="#DejaVuSans-29" transform="translate(2282.617188 0)"/>
    </g>
   </g>
  </g>
 </g>
 <defs>
  <clipPath id="pb7b15d317c">
   <rect x="7.2" y="32.837812" width="770.4" height="420.84"/>
  </clipPath>
 </defs>
</svg>
