<?xml version="1.0" encoding="utf-8" standalone="no"?>
<!DOCTYPE svg PUBLIC "-//W3C//DTD SVG 1.1//EN"
  "http://www.w3.org/Graphics/SVG/1.1/DTD/svg11.dtd">
<svg xmlns:xlink="http://www.w3.org/1999/xlink" width="640.8pt" height="352.877812pt" viewBox="0 0 640.8 352.877812" xmlns="http://www.w3.org/2000/svg" version="1.1">
 <metadata>
  <rdf:RDF xmlns:dc="http://purl.org/dc/elements/1.1/" xmlns:cc="http://creativecommons.org/ns#" xmlns:rdf="http://www.w3.org/1999/02/22-rdf-syntax-ns#">
   <cc:Work>
    <dc:type rdf:resource="http://purl.org/dc/dcmitype/StillImage"/>
    <dc:date>2026-01-02T18:44:32.038454</dc:date>
    <dc:format>image/svg+xml</dc:format>
    <dc:creator>
     <cc:Agent>
      <dc:title>Matplotlib v3.10.8, https://matplotlib.org/</dc:title>
     </cc:Agent>
    </dc:creator>
   </cc:Work>
  </rdf:RDF>
 </metadata>
 <defs>
  <style type="text/css">*{stroke-linejoin: round; stroke-linecap: butt}</style>
 </defs>
 <g id="figure_1">
  <g id="patch_1">
   <path d="M 0 352.877812 
L 640.8 352.877812 
L 640.8 0 
L 0 0 
z
" style="fill: #ffffff"/>
  </g>
  <g id="axes_1">
   <g id="patch_2">
    <path d="M 145.008 221.973812 
C 155.806009 221.973812 166.163214 218.368599 173.79856 211.952178 
C 181.433905 205.535757 185.724 196.832002 185.724 187.757812 
C 185.724 178.683623 181.433905 169.979868 173.79856 163.563447 
C 166.163214 157.147026 155.806009 153.541812 145.008 153.541812 
C 134.209991 153.541812 123.852786 157.147026 116.21744 163.563447 
C 108.582095 169.979868 104.292 178.683623 104.292 187.757812 
C 104.292 196.832002 108.582095 205.535757 116.21744 211.952178 
C 123.852786 218.368599 134.209991 221.973812 145.008 221.973812 
z
" clip-path="url(#pffc77c0dc4)" style="fill: #e74c3c; opacity: 0.85; stroke: #e74c3c; stroke-width: 1.5; stroke-linejoin: miter"/>
   </g>
   <g id="patch_3">
    <path d="M 495.792 221.973812 
C 506.590009 221.973812 516.947214 218.368599 524.58256 211.952178 
C 532.217905 205.535757 536.508 196.832002 536.508 187.757812 
C 536.508 178.683623 532.217905 169.979868 524.58256 163.563447 
C 516.947214 157.147026 506.590009 153.541812 495.792 153.541812 
C 484.993991 153.541812 474.636786 157.147026 467.00144 163.563447 
C 459.366095 169.979868 455.076 178.683623 455.076 187.757812 
C 455.076 196.832002 459.366095 205.535757 467.00144 211.952178 
C 474.636786 218.368599 484.993991 221.973812 495.792 221.973812 
z
" clip-path="url(#pffc77c0dc4)" style="fill: #3498db; opacity: 0.85; stroke: #3498db; stroke-width: 1.5; stroke-linejoin: miter"/>
   </g>
   <g id="patch_4">
    <path d="M 320.4 211.445812 
C 327.875545 211.445812 335.045917 208.949895 340.331926 204.507758 
C 345.617934 200.06562 348.588 194.039944 348.588 187.757812 
C 348.588 181.475681 345.617934 175.450005 340.331926 171.007867 
C 335.045917 166.56573 327.875545 164.069812 320.4 164.069812 
C 312.924455 164.069812 305.754083 166.56573 300.468074 171.007867 
C 295.182066 175.450005 292.212 181.475681 292.212 187.757812 
C 292.212 194.039944 295.182066 200.06562 300.468074 204.507758 
C 305.754083 208.949895 312.924455 211.445812 320.4 211.445812 
z
" clip-path="url(#pffc77c0dc4)" style="fill: #95a5a6; opacity: 0.12; stroke: #f39c12; stroke-width: 2.5; stroke-linejoin: miter"/>
   </g>
   <g id="line2d_1">
    <path d="M 320.4 187.757812 
L 404.964 187.757812 
" clip-path="url(#pffc77c0dc4)" style="fill: none; stroke: #f39c12; stroke-opacity: 0.9; stroke-width: 1.5; stroke-linecap: square"/>
   </g>
   <g id="line2d_2">
    <path d="M 320.4 187.757812 
L 393.634572 152.225812 
" clip-path="url(#pffc77c0dc4)" style="fill: none; stroke: #f39c12; stroke-opacity: 0.9; stroke-width: 1.5; stroke-linecap: square"/>
   </g>
   <g id="line2d_3">
    <path d="M 320.4 187.757812 
L 362.682 126.214583 
" clip-path="url(#pffc77c0dc4)" style="fill: none; stroke: #f39c12; stroke-opacity: 0.9; stroke-width: 1.5; stroke-linecap: square"/>
   </g>
   <g id="line2d_4">
    <path d="M 320.4 187.757812 
L 320.4 116.693813 
" clip-path="url(#pffc77c0dc4)" style="fill: none; stroke: #f39c12; stroke-opacity: 0.9; stroke-width: 1.5; stroke-linecap: square"/>
   </g>
   <g id="line2d_5">
    <path d="M 320.4 187.757812 
L 278.118 126.214583 
" clip-path="url(#pffc77c0dc4)" style="fill: none; stroke: #f39c12; stroke-opacity: 0.9; stroke-width: 1.5; stroke-linecap: square"/>
   </g>
   <g id="line2d_6">
    <path d="M 320.4 187.757812 
L 247.165428 152.225812 
" clip-path="url(#pffc77c0dc4)" style="fill: none; stroke: #f39c12; stroke-opacity: 0.9; stroke-width: 1.5; stroke-linecap: square"/>
   </g>
   <g id="line2d_7">
    <path d="M 320.4 187.757812 
L 235.836 187.757812 
" clip-path="url(#pffc77c0dc4)" style="fill: none; stroke: #f39c12; stroke-opacity: 0.9; stroke-width: 1.5; stroke-linecap: square"/>
   </g>
   <g id="line2d_8">
    <path d="M 320.4 187.757812 
L 247.165428 223.289812 
" clip-path="url(#pffc77c0dc4)" style="fill: none; stroke: #f39c12; stroke-opacity: 0.9; stroke-width: 1.5; stroke-linecap: square"/>
   </g>
   <g id="line2d_9">
    <path d="M 320.4 187.757812 
L 278.118 249.301042 
" clip-path="url(#pffc77c0dc4)" style="fill: none; stroke: #f39c12; stroke-opacity: 0.9; stroke-width: 1.5; stroke-linecap: square"/>
   </g>
   <g id="line2d_10">
    <path d="M 320.4 187.757812 
L 320.4 258.821812 
" clip-path="url(#pffc77c0dc4)" style="fill: none; stroke: #f39c12; stroke-opacity: 0.9; stroke-width: 1.5; stroke-linecap: square"/>
   </g>
   <g id="line2d_11">
    <path d="M 320.4 187.757812 
L 362.682 249.301042 
" clip-path="url(#pffc77c0dc4)" style="fill: none; stroke: #f39c12; stroke-opacity: 0.9; stroke-width: 1.5; stroke-linecap: square"/>
   </g>
   <g id="line2d_12">
    <path d="M 320.4 187.757812 
L 393.634572 223.289813 
" clip-path="url(#pffc77c0dc4)" style="fill: none; stroke: #f39c12; stroke-opacity: 0.9; stroke-width: 1.5; stroke-linecap: square"/>
   </g>
   <g id="text_1">
    <!-- +1 -->
    <g style="fill: #ffffff" transform="translate(135.8055 191.069062) scale(0.12 -0.12)">
     <defs>
      <path id="DejaVuSans-Bold-2b" d="M 3053 4013 
L 3053 2375 
L 4684 2375 
L 4684 1638 
L 3053 1638 
L 3053 0 
L 2309 0 
L 2309 1638 
L 678 1638 
L 678 2375 
L 2309 2375 
L 2309 4013 
L 3053 4013 
z
" transform="scale(0.015625)"/>
      <path id="DejaVuSans-Bold-31" d="M 750 831 
L 1813 831 
L 1813 3847 
L 722 3622 
L 722 4441 
L 1806 4666 
L 2950 4666 
L 2950 831 
L 4013 831 
L 4013 0 
L 750 0 
L 750 831 
z
" transform="scale(0.015625)"/>
     </defs>
     <use xlink:href="#DejaVuSans-Bold-2b"/>
     <use xlink:href="#DejaVuSans-Bold-31" transform="translate(83.789062 0)"/>
    </g>
   </g>
   <g id="text_2">
    <!-- matter -->
    <g style="fill: #e74c3c" transform="translate(131.418625 232.501812) scale(0.08 -0.08)">
     <defs>
      <path id="DejaVuSans-6d" d="M 3328 2828 
Q 3544 3216 3844 3400 
Q 4144 3584 4550 3584 
Q 5097 3584 5394 3201 
Q 5691 2819 5691 2113 
L 5691 0 
L 5113 0 
L 5113 2094 
Q 5113 2597 4934 2840 
Q 4756 3084 4391 3084 
Q 3944 3084 3684 2787 
Q 3425 2491 3425 1978 
L 3425 0 
L 2847 0 
L 2847 2094 
Q 2847 2600 2669 2842 
Q 2491 3084 2119 3084 
Q 1678 3084 1418 2786 
Q 1159 2488 1159 1978 
L 1159 0 
L 581 0 
L 581 3500 
L 1159 3500 
L 1159 2956 
Q 1356 3278 1631 3431 
Q 1906 3584 2284 3584 
Q 2666 3584 2933 3390 
Q 3200 3197 3328 2828 
z
" transform="scale(0.015625)"/>
      <path id="DejaVuSans-61" d="M 2194 1759 
Q 1497 1759 1228 1600 
Q 959 1441 959 1056 
Q 959 750 1161 570 
Q 1363 391 1709 391 
Q 2188 391 2477 730 
Q 2766 1069 2766 1631 
L 2766 1759 
L 2194 1759 
z
M 3341 1997 
L 3341 0 
L 2766 0 
L 2766 531 
Q 2569 213 2275 61 
Q 1981 -91 1556 -91 
Q 1019 -91 701 211 
Q 384 513 384 1019 
Q 384 1609 779 1909 
Q 1175 2209 1959 2209 
L 2766 2209 
L 2766 2266 
Q 2766 2663 2505 2880 
Q 2244 3097 1772 3097 
Q 1472 3097 1187 3025 
Q 903 2953 641 2809 
L 641 3341 
Q 956 3463 1253 3523 
Q 1550 3584 1831 3584 
Q 2591 3584 2966 3190 
Q 3341 2797 3341 1997 
z
" transform="scale(0.015625)"/>
      <path id="DejaVuSans-74" d="M 1172 4494 
L 1172 3500 
L 2356 3500 
L 2356 3053 
L 1172 3053 
L 1172 1153 
Q 1172 725 1289 603 
Q 1406 481 1766 481 
L 2356 481 
L 2356 0 
L 1766 0 
Q 1100 0 847 248 
Q 594 497 594 1153 
L 594 3053 
L 172 3053 
L 172 3500 
L 594 3500 
L 594 4494 
L 1172 4494 
z
" transform="scale(0.015625)"/>
      <path id="DejaVuSans-65" d="M 3597 1894 
L 3597 1613 
L 953 1613 
Q 991 1019 1311 708 
Q 1631 397 2203 397 
Q 2534 397 2845 478 
Q 3156 559 3463 722 
L 3463 178 
Q 3153 47 2828 -22 
Q 2503 -91 2169 -91 
Q 1331 -91 842 396 
Q 353 884 353 1716 
Q 353 2575 817 3079 
Q 1281 3584 2069 3584 
Q 2775 3584 3186 3129 
Q 3597 2675 3597 1894 
z
M 3022 2063 
Q 3016 2534 2758 2815 
Q 2500 3097 2075 3097 
Q 1594 3097 1305 2825 
Q 1016 2553 972 2059 
L 3022 2063 
z
" transform="scale(0.015625)"/>
      <path id="DejaVuSans-72" d="M 2631 2963 
Q 2534 3019 2420 3045 
Q 2306 3072 2169 3072 
Q 1681 3072 1420 2755 
Q 1159 2438 1159 1844 
L 1159 0 
L 581 0 
L 581 3500 
L 1159 3500 
L 1159 2956 
Q 1341 3275 1631 3429 
Q 1922 3584 2338 3584 
Q 2397 3584 2469 3576 
Q 2541 3569 2628 3553 
L 2631 2963 
z
" transform="scale(0.015625)"/>
     </defs>
     <use xlink:href="#DejaVuSans-6d"/>
     <use xlink:href="#DejaVuSans-61" transform="translate(97.412109 0)"/>
     <use xlink:href="#DejaVuSans-74" transform="translate(158.691406 0)"/>
     <use xlink:href="#DejaVuSans-74" transform="translate(197.900391 0)"/>
     <use xlink:href="#DejaVuSans-65" transform="translate(237.109375 0)"/>
     <use xlink:href="#DejaVuSans-72" transform="translate(298.632812 0)"/>
    </g>
   </g>
   <g id="text_3">
    <!-- -1 -->
    <g style="fill: #ffffff" transform="translate(489.127312 191.069062) scale(0.12 -0.12)">
     <defs>
      <path id="DejaVuSans-Bold-2d" d="M 347 2297 
L 2309 2297 
L 2309 1388 
L 347 1388 
L 347 2297 
z
" transform="scale(0.015625)"/>
     </defs>
     <use xlink:href="#DejaVuSans-Bold-2d"/>
     <use xlink:href="#DejaVuSans-Bold-31" transform="translate(41.503906 0)"/>
    </g>
   </g>
   <g id="text_4">
    <!-- antimatter -->
    <g style="fill: #3498db" transform="translate(474.537 232.501812) scale(0.08 -0.08)">
     <defs>
      <path id="DejaVuSans-6e" d="M 3513 2113 
L 3513 0 
L 2938 0 
L 2938 2094 
Q 2938 2591 2744 2837 
Q 2550 3084 2163 3084 
Q 1697 3084 1428 2787 
Q 1159 2491 1159 1978 
L 1159 0 
L 581 0 
L 581 3500 
L 1159 3500 
L 1159 2956 
Q 1366 3272 1645 3428 
Q 1925 3584 2291 3584 
Q 2894 3584 3203 3211 
Q 3513 2838 3513 2113 
z
" transform="scale(0.015625)"/>
      <path id="DejaVuSans-69" d="M 603 3500 
L 1178 3500 
L 1178 0 
L 603 0 
L 603 3500 
z
M 603 4863 
L 1178 4863 
L 1178 4134 
L 603 4134 
L 603 4863 
z
" transform="scale(0.015625)"/>
     </defs>
     <use xlink:href="#DejaVuSans-61"/>
     <use xlink:href="#DejaVuSans-6e" transform="translate(61.279297 0)"/>
     <use xlink:href="#DejaVuSans-74" transform="translate(124.658203 0)"/>
     <use xlink:href="#DejaVuSans-69" transform="translate(163.867188 0)"/>
     <use xlink:href="#DejaVuSans-6d" transform="translate(191.650391 0)"/>
     <use xlink:href="#DejaVuSans-61" transform="translate(289.0625 0)"/>
     <use xlink:href="#DejaVuSans-74" transform="translate(350.341797 0)"/>
     <use xlink:href="#DejaVuSans-74" transform="translate(389.550781 0)"/>
     <use xlink:href="#DejaVuSans-65" transform="translate(428.759766 0)"/>
     <use xlink:href="#DejaVuSans-72" transform="translate(490.283203 0)"/>
    </g>
   </g>
   <g id="patch_5">
    <path d="M 197.117262 187.757812 
Q 245.230917 187.757812 290.549488 187.757812 
" style="fill: none; stroke: #2c3e50; stroke-width: 2.5; stroke-linecap: round"/>
    <path d="M 286.549488 185.757812 
L 290.549488 187.757812 
L 286.549488 189.757812 
" style="fill: none; stroke: #2c3e50; stroke-width: 2.5; stroke-linecap: round"/>
   </g>
   <g id="patch_6">
    <path d="M 443.682738 187.757812 
Q 395.569083 187.757812 350.250512 187.757812 
" style="fill: none; stroke: #2c3e50; stroke-width: 2.5; stroke-linecap: round"/>
    <path d="M 354.250512 189.757812 
L 350.250512 187.757812 
L 354.250512 185.757812 
" style="fill: none; stroke: #2c3e50; stroke-width: 2.5; stroke-linecap: round"/>
   </g>
   <g id="text_5">
    <!-- 0 -->
    <g style="fill: #2c3e50" transform="translate(316.225312 191.069062) scale(0.12 -0.12)">
     <defs>
      <path id="DejaVuSans-Bold-30" d="M 2944 2338 
Q 2944 3213 2780 3570 
Q 2616 3928 2228 3928 
Q 1841 3928 1675 3570 
Q 1509 3213 1509 2338 
Q 1509 1453 1675 1090 
Q 1841 728 2228 728 
Q 2613 728 2778 1090 
Q 2944 1453 2944 2338 
z
M 4147 2328 
Q 4147 1169 3647 539 
Q 3147 -91 2228 -91 
Q 1306 -91 806 539 
Q 306 1169 306 2328 
Q 306 3491 806 4120 
Q 1306 4750 2228 4750 
Q 3147 4750 3647 4120 
Q 4147 3491 4147 2328 
z
" transform="scale(0.015625)"/>
     </defs>
     <use xlink:href="#DejaVuSans-Bold-30"/>
    </g>
   </g>
   <g id="text_6">
    <!-- flux burst -->
    <g style="fill: #f39c12" transform="translate(301.33625 95.637812) scale(0.08 -0.08)">
     <defs>
      <path id="DejaVuSans-66" d="M 2375 4863 
L 2375 4384 
L 1825 4384 
Q 1516 4384 1395 4259 
Q 1275 4134 1275 3809 
L 1275 3500 
L 2222 3500 
L 2222 3053 
L 1275 3053 
L 1275 0 
L 697 0 
L 697 3053 
L 147 3053 
L 147 3500 
L 697 3500 
L 697 3744 
Q 697 4328 969 4595 
Q 1241 4863 1831 4863 
L 2375 4863 
z
" transform="scale(0.015625)"/>
      <path id="DejaVuSans-6c" d="M 603 4863 
L 1178 4863 
L 1178 0 
L 603 0 
L 603 4863 
z
" transform="scale(0.015625)"/>
      <path id="DejaVuSans-75" d="M 544 1381 
L 544 3500 
L 1119 3500 
L 1119 1403 
Q 1119 906 1312 657 
Q 1506 409 1894 409 
Q 2359 409 2629 706 
Q 2900 1003 2900 1516 
L 2900 3500 
L 3475 3500 
L 3475 0 
L 2900 0 
L 2900 538 
Q 2691 219 2414 64 
Q 2138 -91 1772 -91 
Q 1169 -91 856 284 
Q 544 659 544 1381 
z
M 1991 3584 
L 1991 3584 
z
" transform="scale(0.015625)"/>
      <path id="DejaVuSans-78" d="M 3513 3500 
L 2247 1797 
L 3578 0 
L 2900 0 
L 1881 1375 
L 863 0 
L 184 0 
L 1544 1831 
L 300 3500 
L 978 3500 
L 1906 2253 
L 2834 3500 
L 3513 3500 
z
" transform="scale(0.015625)"/>
      <path id="DejaVuSans-20" transform="scale(0.015625)"/>
      <path id="DejaVuSans-62" d="M 3116 1747 
Q 3116 2381 2855 2742 
Q 2594 3103 2138 3103 
Q 1681 3103 1420 2742 
Q 1159 2381 1159 1747 
Q 1159 1113 1420 752 
Q 1681 391 2138 391 
Q 2594 391 2855 752 
Q 3116 1113 3116 1747 
z
M 1159 2969 
Q 1341 3281 1617 3432 
Q 1894 3584 2278 3584 
Q 2916 3584 3314 3078 
Q 3713 2572 3713 1747 
Q 3713 922 3314 415 
Q 2916 -91 2278 -91 
Q 1894 -91 1617 61 
Q 1341 213 1159 525 
L 1159 0 
L 581 0 
L 581 4863 
L 1159 4863 
L 1159 2969 
z
" transform="scale(0.015625)"/>
      <path id="DejaVuSans-73" d="M 2834 3397 
L 2834 2853 
Q 2591 2978 2328 3040 
Q 2066 3103 1784 3103 
Q 1356 3103 1142 2972 
Q 928 2841 928 2578 
Q 928 2378 1081 2264 
Q 1234 2150 1697 2047 
L 1894 2003 
Q 2506 1872 2764 1633 
Q 3022 1394 3022 966 
Q 3022 478 2636 193 
Q 2250 -91 1575 -91 
Q 1294 -91 989 -36 
Q 684 19 347 128 
L 347 722 
Q 666 556 975 473 
Q 1284 391 1588 391 
Q 1994 391 2212 530 
Q 2431 669 2431 922 
Q 2431 1156 2273 1281 
Q 2116 1406 1581 1522 
L 1381 1569 
Q 847 1681 609 1914 
Q 372 2147 372 2553 
Q 372 3047 722 3315 
Q 1072 3584 1716 3584 
Q 2034 3584 2315 3537 
Q 2597 3491 2834 3397 
z
" transform="scale(0.015625)"/>
     </defs>
     <use xlink:href="#DejaVuSans-66"/>
     <use xlink:href="#DejaVuSans-6c" transform="translate(35.205078 0)"/>
     <use xlink:href="#DejaVuSans-75" transform="translate(62.988281 0)"/>
     <use xlink:href="#DejaVuSans-78" transform="translate(126.367188 0)"/>
     <use xlink:href="#DejaVuSans-20" transform="translate(185.546875 0)"/>
     <use xlink:href="#DejaVuSans-62" transform="translate(217.333984 0)"/>
     <use xlink:href="#DejaVuSans-75" transform="translate(280.810547 0)"/>
     <use xlink:href="#DejaVuSans-72" transform="translate(344.189453 0)"/>
     <use xlink:href="#DejaVuSans-73" transform="translate(385.302734 0)"/>
     <use xlink:href="#DejaVuSans-74" transform="translate(437.402344 0)"/>
    </g>
   </g>
   <g id="text_7">
    <!-- (+1) + (-1) → 0  with energy in flux -->
    <g style="fill: #95a5a6" transform="translate(232.5125 293.037812) scale(0.1 -0.1)">
     <defs>
      <path id="DejaVuSans-28" d="M 1984 4856 
Q 1566 4138 1362 3434 
Q 1159 2731 1159 2009 
Q 1159 1288 1364 580 
Q 1569 -128 1984 -844 
L 1484 -844 
Q 1016 -109 783 600 
Q 550 1309 550 2009 
Q 550 2706 781 3412 
Q 1013 4119 1484 4856 
L 1984 4856 
z
" transform="scale(0.015625)"/>
      <path id="DejaVuSans-2b" d="M 2944 4013 
L 2944 2272 
L 4684 2272 
L 4684 1741 
L 2944 1741 
L 2944 0 
L 2419 0 
L 2419 1741 
L 678 1741 
L 678 2272 
L 2419 2272 
L 2419 4013 
L 2944 4013 
z
" transform="scale(0.015625)"/>
      <path id="DejaVuSans-31" d="M 794 531 
L 1825 531 
L 1825 4091 
L 703 3866 
L 703 4441 
L 1819 4666 
L 2450 4666 
L 2450 531 
L 3481 531 
L 3481 0 
L 794 0 
L 794 531 
z
" transform="scale(0.015625)"/>
      <path id="DejaVuSans-29" d="M 513 4856 
L 1013 4856 
Q 1481 4119 1714 3412 
Q 1947 2706 1947 2009 
Q 1947 1309 1714 600 
Q 1481 -109 1013 -844 
L 513 -844 
Q 928 -128 1133 580 
Q 1338 1288 1338 2009 
Q 1338 2731 1133 3434 
Q 928 4138 513 4856 
z
" transform="scale(0.015625)"/>
      <path id="DejaVuSans-2d" d="M 313 2009 
L 1997 2009 
L 1997 1497 
L 313 1497 
L 313 2009 
z
" transform="scale(0.015625)"/>
      <path id="DejaVuSans-2192" d="M 5050 2147 
L 5050 1866 
L 3822 638 
L 3447 1013 
L 4175 1741 
L 366 1741 
L 366 2272 
L 4175 2272 
L 3447 3000 
L 3822 3375 
L 5050 2147 
z
" transform="scale(0.015625)"/>
      <path id="DejaVuSans-30" d="M 2034 4250 
Q 1547 4250 1301 3770 
Q 1056 3291 1056 2328 
Q 1056 1369 1301 889 
Q 1547 409 2034 409 
Q 2525 409 2770 889 
Q 3016 1369 3016 2328 
Q 3016 3291 2770 3770 
Q 2525 4250 2034 4250 
z
M 2034 4750 
Q 2819 4750 3233 4129 
Q 3647 3509 3647 2328 
Q 3647 1150 3233 529 
Q 2819 -91 2034 -91 
Q 1250 -91 836 529 
Q 422 1150 422 2328 
Q 422 3509 836 4129 
Q 1250 4750 2034 4750 
z
" transform="scale(0.015625)"/>
      <path id="DejaVuSans-77" d="M 269 3500 
L 844 3500 
L 1563 769 
L 2278 3500 
L 2956 3500 
L 3675 769 
L 4391 3500 
L 4966 3500 
L 4050 0 
L 3372 0 
L 2619 2869 
L 1863 0 
L 1184 0 
L 269 3500 
z
" transform="scale(0.015625)"/>
      <path id="DejaVuSans-68" d="M 3513 2113 
L 3513 0 
L 2938 0 
L 2938 2094 
Q 2938 2591 2744 2837 
Q 2550 3084 2163 3084 
Q 1697 3084 1428 2787 
Q 1159 2491 1159 1978 
L 1159 0 
L 581 0 
L 581 4863 
L 1159 4863 
L 1159 2956 
Q 1366 3272 1645 3428 
Q 1925 3584 2291 3584 
Q 2894 3584 3203 3211 
Q 3513 2838 3513 2113 
z
" transform="scale(0.015625)"/>
      <path id="DejaVuSans-67" d="M 2906 1791 
Q 2906 2416 2648 2759 
Q 2391 3103 1925 3103 
Q 1463 3103 1205 2759 
Q 947 2416 947 1791 
Q 947 1169 1205 825 
Q 1463 481 1925 481 
Q 2391 481 2648 825 
Q 2906 1169 2906 1791 
z
M 3481 434 
Q 3481 -459 3084 -895 
Q 2688 -1331 1869 -1331 
Q 1566 -1331 1297 -1286 
Q 1028 -1241 775 -1147 
L 775 -588 
Q 1028 -725 1275 -790 
Q 1522 -856 1778 -856 
Q 2344 -856 2625 -561 
Q 2906 -266 2906 331 
L 2906 616 
Q 2728 306 2450 153 
Q 2172 0 1784 0 
Q 1141 0 747 490 
Q 353 981 353 1791 
Q 353 2603 747 3093 
Q 1141 3584 1784 3584 
Q 2172 3584 2450 3431 
Q 2728 3278 2906 2969 
L 2906 3500 
L 3481 3500 
L 3481 434 
z
" transform="scale(0.015625)"/>
      <path id="DejaVuSans-79" d="M 2059 -325 
Q 1816 -950 1584 -1140 
Q 1353 -1331 966 -1331 
L 506 -1331 
L 506 -850 
L 844 -850 
Q 1081 -850 1212 -737 
Q 1344 -625 1503 -206 
L 1606 56 
L 191 3500 
L 800 3500 
L 1894 763 
L 2988 3500 
L 3597 3500 
L 2059 -325 
z
" transform="scale(0.015625)"/>
     </defs>
     <use xlink:href="#DejaVuSans-28"/>
     <use xlink:href="#DejaVuSans-2b" transform="translate(39.013672 0)"/>
     <use xlink:href="#DejaVuSans-31" transform="translate(122.802734 0)"/>
     <use xlink:href="#DejaVuSans-29" transform="translate(186.425781 0)"/>
     <use xlink:href="#DejaVuSans-20" transform="translate(225.439453 0)"/>
     <use xlink:href="#DejaVuSans-2b" transform="translate(257.226562 0)"/>
     <use xlink:href="#DejaVuSans-20" transform="translate(341.015625 0)"/>
     <use xlink:href="#DejaVuSans-28" transform="translate(372.802734 0)"/>
     <use xlink:href="#DejaVuSans-2d" transform="translate(411.816406 0)"/>
     <use xlink:href="#DejaVuSans-31" transform="translate(447.900391 0)"/>
     <use xlink:href="#DejaVuSans-29" transform="translate(511.523438 0)"/>
     <use xlink:href="#DejaVuSans-20" transform="translate(550.537109 0)"/>
     <use xlink:href="#DejaVuSans-2192" transform="translate(582.324219 0)"/>
     <use xlink:href="#DejaVuSans-20" transform="translate(666.113281 0)"/>
     <use xlink:href="#DejaVuSans-30" transform="translate(697.900391 0)"/>
     <use xlink:href="#DejaVuSans-20" transform="translate(761.523438 0)"/>
     <use xlink:href="#DejaVuSans-20" transform="translate(793.310547 0)"/>
     <use xlink:href="#DejaVuSans-77" transform="translate(825.097656 0)"/>
     <use xlink:href="#DejaVuSans-69" transform="translate(906.884766 0)"/>
     <use xlink:href="#DejaVuSans-74" transform="translate(934.667969 0)"/>
     <use xlink:href="#DejaVuSans-68" transform="translate(973.876953 0)"/>
     <use xlink:href="#DejaVuSans-20" transform="translate(1037.255859 0)"/>
     <use xlink:href="#DejaVuSans-65" transform="translate(1069.042969 0)"/>
     <use xlink:href="#DejaVuSans-6e" transform="translate(1130.566406 0)"/>
     <use xlink:href="#DejaVuSans-65" transform="translate(1193.945312 0)"/>
     <use xlink:href="#DejaVuSans-72" transform="translate(1255.46875 0)"/>
     <use xlink:href="#DejaVuSans-67" transform="translate(1294.832031 0)"/>
     <use xlink:href="#DejaVuSans-79" transform="translate(1358.308594 0)"/>
     <use xlink:href="#DejaVuSans-20" transform="translate(1417.488281 0)"/>
     <use xlink:href="#DejaVuSans-69" transform="translate(1449.275391 0)"/>
     <use xlink:href="#DejaVuSans-6e" transform="translate(1477.058594 0)"/>
     <use xlink:href="#DejaVuSans-20" transform="translate(1540.4375 0)"/>
     <use xlink:href="#DejaVuSans-66" transform="translate(1572.224609 0)"/>
     <use xlink:href="#DejaVuSans-6c" transform="translate(1607.429688 0)"/>
     <use xlink:href="#DejaVuSans-75" transform="translate(1635.212891 0)"/>
     <use xlink:href="#DejaVuSans-78" transform="translate(1698.591797 0)"/>
    </g>
   </g>
   <g id="text_8">
    <!-- Matter–Antimatter Annihilation (schematic) -->
    <g transform="translate(168.776719 17.837812) scale(0.14 -0.14)">
     <defs>
      <path id="DejaVuSans-4d" d="M 628 4666 
L 1569 4666 
L 2759 1491 
L 3956 4666 
L 4897 4666 
L 4897 0 
L 4281 0 
L 4281 4097 
L 3078 897 
L 2444 897 
L 1241 4097 
L 1241 0 
L 628 0 
L 628 4666 
z
" transform="scale(0.015625)"/>
      <path id="DejaVuSans-2013" d="M 313 1978 
L 2888 1978 
L 2888 1528 
L 313 1528 
L 313 1978 
z
" transform="scale(0.015625)"/>
      <path id="DejaVuSans-41" d="M 2188 4044 
L 1331 1722 
L 3047 1722 
L 2188 4044 
z
M 1831 4666 
L 2547 4666 
L 4325 0 
L 3669 0 
L 3244 1197 
L 1141 1197 
L 716 0 
L 50 0 
L 1831 4666 
z
" transform="scale(0.015625)"/>
      <path id="DejaVuSans-6f" d="M 1959 3097 
Q 1497 3097 1228 2736 
Q 959 2375 959 1747 
Q 959 1119 1226 758 
Q 1494 397 1959 397 
Q 2419 397 2687 759 
Q 2956 1122 2956 1747 
Q 2956 2369 2687 2733 
Q 2419 3097 1959 3097 
z
M 1959 3584 
Q 2709 3584 3137 3096 
Q 3566 2609 3566 1747 
Q 3566 888 3137 398 
Q 2709 -91 1959 -91 
Q 1206 -91 779 398 
Q 353 888 353 1747 
Q 353 2609 779 3096 
Q 1206 3584 1959 3584 
z
" transform="scale(0.015625)"/>
      <path id="DejaVuSans-63" d="M 3122 3366 
L 3122 2828 
Q 2878 2963 2633 3030 
Q 2388 3097 2138 3097 
Q 1578 3097 1268 2742 
Q 959 2388 959 1747 
Q 959 1106 1268 751 
Q 1578 397 2138 397 
Q 2388 397 2633 464 
Q 2878 531 3122 666 
L 3122 134 
Q 2881 22 2623 -34 
Q 2366 -91 2075 -91 
Q 1284 -91 818 406 
Q 353 903 353 1747 
Q 353 2603 823 3093 
Q 1294 3584 2113 3584 
Q 2378 3584 2631 3529 
Q 2884 3475 3122 3366 
z
" transform="scale(0.015625)"/>
     </defs>
     <use xlink:href="#DejaVuSans-4d"/>
     <use xlink:href="#DejaVuSans-61" transform="translate(86.279297 0)"/>
     <use xlink:href="#DejaVuSans-74" transform="translate(147.558594 0)"/>
     <use xlink:href="#DejaVuSans-74" transform="translate(186.767578 0)"/>
     <use xlink:href="#DejaVuSans-65" transform="translate(225.976562 0)"/>
     <use xlink:href="#DejaVuSans-72" transform="translate(287.5 0)"/>
     <use xlink:href="#DejaVuSans-2013" transform="translate(328.613281 0)"/>
     <use xlink:href="#DejaVuSans-41" transform="translate(378.613281 0)"/>
     <use xlink:href="#DejaVuSans-6e" transform="translate(447.021484 0)"/>
     <use xlink:href="#DejaVuSans-74" transform="translate(510.400391 0)"/>
     <use xlink:href="#DejaVuSans-69" transform="translate(549.609375 0)"/>
     <use xlink:href="#DejaVuSans-6d" transform="translate(577.392578 0)"/>
     <use xlink:href="#DejaVuSans-61" transform="translate(674.804688 0)"/>
     <use xlink:href="#DejaVuSans-74" transform="translate(736.083984 0)"/>
     <use xlink:href="#DejaVuSans-74" transform="translate(775.292969 0)"/>
     <use xlink:href="#DejaVuSans-65" transform="translate(814.501953 0)"/>
     <use xlink:href="#DejaVuSans-72" transform="translate(876.025391 0)"/>
     <use xlink:href="#DejaVuSans-20" transform="translate(917.138672 0)"/>
     <use xlink:href="#DejaVuSans-41" transform="translate(948.925781 0)"/>
     <use xlink:href="#DejaVuSans-6e" transform="translate(1017.333984 0)"/>
     <use xlink:href="#DejaVuSans-6e" transform="translate(1080.712891 0)"/>
     <use xlink:href="#DejaVuSans-69" transform="translate(1144.091797 0)"/>
     <use xlink:href="#DejaVuSans-68" transform="translate(1171.875 0)"/>
     <use xlink:href="#DejaVuSans-69" transform="translate(1235.253906 0)"/>
     <use xlink:href="#DejaVuSans-6c" transform="translate(1263.037109 0)"/>
     <use xlink:href="#DejaVuSans-61" transform="translate(1290.820312 0)"/>
     <use xlink:href="#DejaVuSans-74" transform="translate(1352.099609 0)"/>
     <use xlink:href="#DejaVuSans-69" transform="translate(1391.308594 0)"/>
     <use xlink:href="#DejaVuSans-6f" transform="translate(1419.091797 0)"/>
     <use xlink:href="#DejaVuSans-6e" transform="translate(1480.273438 0)"/>
     <use xlink:href="#DejaVuSans-20" transform="translate(1543.652344 0)"/>
     <use xlink:href="#DejaVuSans-28" transform="translate(1575.439453 0)"/>
     <use xlink:href="#DejaVuSans-73" transform="translate(1614.453125 0)"/>
     <use xlink:href="#DejaVuSans-63" transform="translate(1666.552734 0)"/>
     <use xlink:href="#DejaVuSans-68" transform="translate(1721.533203 0)"/>
     <use xlink:href="#DejaVuSans-65" transform="translate(1784.912109 0)"/>
     <use xlink:href="#DejaVuSans-6d" transform="translate(1846.435547 0)"/>
     <use xlink:href="#DejaVuSans-61" transform="translate(1943.847656 0)"/>
     <use xlink:href="#DejaVuSans-74" transform="translate(2005.126953 0)"/>
     <use xlink:href="#DejaVuSans-69" transform="translate(2044.335938 0)"/>
     <use xlink:href="#DejaVuSans-63" transform="translate(2072.119141 0)"/>
     <use xlink:href="#DejaVuSans-29" transform="translate(2127.099609 0)"/>
    </g>
   </g>
  </g>
 </g>
 <defs>
  <clipPath id="pffc77c0dc4">
   <rect x="7.2" y="29.837812" width="626.4" height="315.84"/>
  </clipPath>
 </defs>
</svg>
