<?xml version="1.0" encoding="utf-8" standalone="no"?>
<!DOCTYPE svg PUBLIC "-//W3C//DTD SVG 1.1//EN"
  "http://www.w3.org/Graphics/SVG/1.1/DTD/svg11.dtd">
<svg xmlns:xlink="http://www.w3.org/1999/xlink" width="782.923125pt" height="359.72425pt" viewBox="0 0 782.923125 359.72425" xmlns="http://www.w3.org/2000/svg" version="1.1">
 <metadata>
  <rdf:RDF xmlns:dc="http://purl.org/dc/elements/1.1/" xmlns:cc="http://creativecommons.org/ns#" xmlns:rdf="http://www.w3.org/1999/02/22-rdf-syntax-ns#">
   <cc:Work>
    <dc:type rdf:resource="http://purl.org/dc/dcmitype/StillImage"/>
    <dc:date>2026-01-02T18:44:32.241874</dc:date>
    <dc:format>image/svg+xml</dc:format>
    <dc:creator>
     <cc:Agent>
      <dc:title>Matplotlib v3.10.8, https://matplotlib.org/</dc:title>
     </cc:Agent>
    </dc:creator>
   </cc:Work>
  </rdf:RDF>
 </metadata>
 <defs>
  <style type="text/css">*{stroke-linejoin: round; stroke-linecap: butt}</style>
 </defs>
 <g id="figure_1">
  <g id="patch_1">
   <path d="M 0 359.72425 
L 782.923125 359.72425 
L 782.923125 0 
L 0 0 
z
" style="fill: #ffffff"/>
  </g>
  <g id="axes_1">
   <g id="patch_2">
    <path d="M 43.803125 322.168 
L 404.363125 322.168 
L 404.363125 71.728 
L 43.803125 71.728 
z
" style="fill: #ffffff"/>
   </g>
   <g id="matplotlib.axis_1">
    <g id="xtick_1">
     <g id="line2d_1">
      <path d="M 43.803125 322.168 
L 43.803125 71.728 
" clip-path="url(#p6af592f1b6)" style="fill: none; stroke: #ecf0f1; stroke-opacity: 0.8; stroke-width: 0.8; stroke-linecap: square"/>
     </g>
     <g id="line2d_2">
      <defs>
       <path id="mb25875f394" d="M 0 0 
L 0 3.5 
" style="stroke: #000000; stroke-width: 0.8"/>
      </defs>
      <g>
       <use xlink:href="#mb25875f394" x="43.803125" y="322.168" style="stroke: #000000; stroke-width: 0.8"/>
      </g>
     </g>
     <g id="text_1">
      <!-- 0 -->
      <g transform="translate(40.621875 336.766437) scale(0.1 -0.1)">
       <defs>
        <path id="DejaVuSans-30" d="M 2034 4250 
Q 1547 4250 1301 3770 
Q 1056 3291 1056 2328 
Q 1056 1369 1301 889 
Q 1547 409 2034 409 
Q 2525 409 2770 889 
Q 3016 1369 3016 2328 
Q 3016 3291 2770 3770 
Q 2525 4250 2034 4250 
z
M 2034 4750 
Q 2819 4750 3233 4129 
Q 3647 3509 3647 2328 
Q 3647 1150 3233 529 
Q 2819 -91 2034 -91 
Q 1250 -91 836 529 
Q 422 1150 422 2328 
Q 422 3509 836 4129 
Q 1250 4750 2034 4750 
z
" transform="scale(0.015625)"/>
       </defs>
       <use xlink:href="#DejaVuSans-30"/>
      </g>
     </g>
    </g>
    <g id="xtick_2">
     <g id="line2d_3">
      <path d="M 109.359489 322.168 
L 109.359489 71.728 
" clip-path="url(#p6af592f1b6)" style="fill: none; stroke: #ecf0f1; stroke-opacity: 0.8; stroke-width: 0.8; stroke-linecap: square"/>
     </g>
     <g id="line2d_4">
      <g>
       <use xlink:href="#mb25875f394" x="109.359489" y="322.168" style="stroke: #000000; stroke-width: 0.8"/>
      </g>
     </g>
     <g id="text_2">
      <!-- 2 -->
      <g transform="translate(106.178239 336.766437) scale(0.1 -0.1)">
       <defs>
        <path id="DejaVuSans-32" d="M 1228 531 
L 3431 531 
L 3431 0 
L 469 0 
L 469 531 
Q 828 903 1448 1529 
Q 2069 2156 2228 2338 
Q 2531 2678 2651 2914 
Q 2772 3150 2772 3378 
Q 2772 3750 2511 3984 
Q 2250 4219 1831 4219 
Q 1534 4219 1204 4116 
Q 875 4013 500 3803 
L 500 4441 
Q 881 4594 1212 4672 
Q 1544 4750 1819 4750 
Q 2544 4750 2975 4387 
Q 3406 4025 3406 3419 
Q 3406 3131 3298 2873 
Q 3191 2616 2906 2266 
Q 2828 2175 2409 1742 
Q 1991 1309 1228 531 
z
" transform="scale(0.015625)"/>
       </defs>
       <use xlink:href="#DejaVuSans-32"/>
      </g>
     </g>
    </g>
    <g id="xtick_3">
     <g id="line2d_5">
      <path d="M 174.915852 322.168 
L 174.915852 71.728 
" clip-path="url(#p6af592f1b6)" style="fill: none; stroke: #ecf0f1; stroke-opacity: 0.8; stroke-width: 0.8; stroke-linecap: square"/>
     </g>
     <g id="line2d_6">
      <g>
       <use xlink:href="#mb25875f394" x="174.915852" y="322.168" style="stroke: #000000; stroke-width: 0.8"/>
      </g>
     </g>
     <g id="text_3">
      <!-- 4 -->
      <g transform="translate(171.734602 336.766437) scale(0.1 -0.1)">
       <defs>
        <path id="DejaVuSans-34" d="M 2419 4116 
L 825 1625 
L 2419 1625 
L 2419 4116 
z
M 2253 4666 
L 3047 4666 
L 3047 1625 
L 3713 1625 
L 3713 1100 
L 3047 1100 
L 3047 0 
L 2419 0 
L 2419 1100 
L 313 1100 
L 313 1709 
L 2253 4666 
z
" transform="scale(0.015625)"/>
       </defs>
       <use xlink:href="#DejaVuSans-34"/>
      </g>
     </g>
    </g>
    <g id="xtick_4">
     <g id="line2d_7">
      <path d="M 240.472216 322.168 
L 240.472216 71.728 
" clip-path="url(#p6af592f1b6)" style="fill: none; stroke: #ecf0f1; stroke-opacity: 0.8; stroke-width: 0.8; stroke-linecap: square"/>
     </g>
     <g id="line2d_8">
      <g>
       <use xlink:href="#mb25875f394" x="240.472216" y="322.168" style="stroke: #000000; stroke-width: 0.8"/>
      </g>
     </g>
     <g id="text_4">
      <!-- 6 -->
      <g transform="translate(237.290966 336.766437) scale(0.1 -0.1)">
       <defs>
        <path id="DejaVuSans-36" d="M 2113 2584 
Q 1688 2584 1439 2293 
Q 1191 2003 1191 1497 
Q 1191 994 1439 701 
Q 1688 409 2113 409 
Q 2538 409 2786 701 
Q 3034 994 3034 1497 
Q 3034 2003 2786 2293 
Q 2538 2584 2113 2584 
z
M 3366 4563 
L 3366 3988 
Q 3128 4100 2886 4159 
Q 2644 4219 2406 4219 
Q 1781 4219 1451 3797 
Q 1122 3375 1075 2522 
Q 1259 2794 1537 2939 
Q 1816 3084 2150 3084 
Q 2853 3084 3261 2657 
Q 3669 2231 3669 1497 
Q 3669 778 3244 343 
Q 2819 -91 2113 -91 
Q 1303 -91 875 529 
Q 447 1150 447 2328 
Q 447 3434 972 4092 
Q 1497 4750 2381 4750 
Q 2619 4750 2861 4703 
Q 3103 4656 3366 4563 
z
" transform="scale(0.015625)"/>
       </defs>
       <use xlink:href="#DejaVuSans-36"/>
      </g>
     </g>
    </g>
    <g id="xtick_5">
     <g id="line2d_9">
      <path d="M 306.02858 322.168 
L 306.02858 71.728 
" clip-path="url(#p6af592f1b6)" style="fill: none; stroke: #ecf0f1; stroke-opacity: 0.8; stroke-width: 0.8; stroke-linecap: square"/>
     </g>
     <g id="line2d_10">
      <g>
       <use xlink:href="#mb25875f394" x="306.02858" y="322.168" style="stroke: #000000; stroke-width: 0.8"/>
      </g>
     </g>
     <g id="text_5">
      <!-- 8 -->
      <g transform="translate(302.84733 336.766437) scale(0.1 -0.1)">
       <defs>
        <path id="DejaVuSans-38" d="M 2034 2216 
Q 1584 2216 1326 1975 
Q 1069 1734 1069 1313 
Q 1069 891 1326 650 
Q 1584 409 2034 409 
Q 2484 409 2743 651 
Q 3003 894 3003 1313 
Q 3003 1734 2745 1975 
Q 2488 2216 2034 2216 
z
M 1403 2484 
Q 997 2584 770 2862 
Q 544 3141 544 3541 
Q 544 4100 942 4425 
Q 1341 4750 2034 4750 
Q 2731 4750 3128 4425 
Q 3525 4100 3525 3541 
Q 3525 3141 3298 2862 
Q 3072 2584 2669 2484 
Q 3125 2378 3379 2068 
Q 3634 1759 3634 1313 
Q 3634 634 3220 271 
Q 2806 -91 2034 -91 
Q 1263 -91 848 271 
Q 434 634 434 1313 
Q 434 1759 690 2068 
Q 947 2378 1403 2484 
z
M 1172 3481 
Q 1172 3119 1398 2916 
Q 1625 2713 2034 2713 
Q 2441 2713 2670 2916 
Q 2900 3119 2900 3481 
Q 2900 3844 2670 4047 
Q 2441 4250 2034 4250 
Q 1625 4250 1398 4047 
Q 1172 3844 1172 3481 
z
" transform="scale(0.015625)"/>
       </defs>
       <use xlink:href="#DejaVuSans-38"/>
      </g>
     </g>
    </g>
    <g id="xtick_6">
     <g id="line2d_11">
      <path d="M 371.584943 322.168 
L 371.584943 71.728 
" clip-path="url(#p6af592f1b6)" style="fill: none; stroke: #ecf0f1; stroke-opacity: 0.8; stroke-width: 0.8; stroke-linecap: square"/>
     </g>
     <g id="line2d_12">
      <g>
       <use xlink:href="#mb25875f394" x="371.584943" y="322.168" style="stroke: #000000; stroke-width: 0.8"/>
      </g>
     </g>
     <g id="text_6">
      <!-- 10 -->
      <g transform="translate(365.222443 336.766437) scale(0.1 -0.1)">
       <defs>
        <path id="DejaVuSans-31" d="M 794 531 
L 1825 531 
L 1825 4091 
L 703 3866 
L 703 4441 
L 1819 4666 
L 2450 4666 
L 2450 531 
L 3481 531 
L 3481 0 
L 794 0 
L 794 531 
z
" transform="scale(0.015625)"/>
       </defs>
       <use xlink:href="#DejaVuSans-31"/>
       <use xlink:href="#DejaVuSans-30" transform="translate(63.623047 0)"/>
      </g>
     </g>
    </g>
    <g id="text_7">
     <!-- tick -->
     <g transform="translate(215.089375 350.444562) scale(0.1 -0.1)">
      <defs>
       <path id="DejaVuSans-74" d="M 1172 4494 
L 1172 3500 
L 2356 3500 
L 2356 3053 
L 1172 3053 
L 1172 1153 
Q 1172 725 1289 603 
Q 1406 481 1766 481 
L 2356 481 
L 2356 0 
L 1766 0 
Q 1100 0 847 248 
Q 594 497 594 1153 
L 594 3053 
L 172 3053 
L 172 3500 
L 594 3500 
L 594 4494 
L 1172 4494 
z
" transform="scale(0.015625)"/>
       <path id="DejaVuSans-69" d="M 603 3500 
L 1178 3500 
L 1178 0 
L 603 0 
L 603 3500 
z
M 603 4863 
L 1178 4863 
L 1178 4134 
L 603 4134 
L 603 4863 
z
" transform="scale(0.015625)"/>
       <path id="DejaVuSans-63" d="M 3122 3366 
L 3122 2828 
Q 2878 2963 2633 3030 
Q 2388 3097 2138 3097 
Q 1578 3097 1268 2742 
Q 959 2388 959 1747 
Q 959 1106 1268 751 
Q 1578 397 2138 397 
Q 2388 397 2633 464 
Q 2878 531 3122 666 
L 3122 134 
Q 2881 22 2623 -34 
Q 2366 -91 2075 -91 
Q 1284 -91 818 406 
Q 353 903 353 1747 
Q 353 2603 823 3093 
Q 1294 3584 2113 3584 
Q 2378 3584 2631 3529 
Q 2884 3475 3122 3366 
z
" transform="scale(0.015625)"/>
       <path id="DejaVuSans-6b" d="M 581 4863 
L 1159 4863 
L 1159 1991 
L 2875 3500 
L 3609 3500 
L 1753 1863 
L 3688 0 
L 2938 0 
L 1159 1709 
L 1159 0 
L 581 0 
L 581 4863 
z
" transform="scale(0.015625)"/>
      </defs>
      <use xlink:href="#DejaVuSans-74"/>
      <use xlink:href="#DejaVuSans-69" transform="translate(39.208984 0)"/>
      <use xlink:href="#DejaVuSans-63" transform="translate(66.992188 0)"/>
      <use xlink:href="#DejaVuSans-6b" transform="translate(121.972656 0)"/>
     </g>
    </g>
   </g>
   <g id="matplotlib.axis_2">
    <g id="ytick_1">
     <g id="line2d_13">
      <path d="M 43.803125 310.784364 
L 404.363125 310.784364 
" clip-path="url(#p6af592f1b6)" style="fill: none; stroke: #ecf0f1; stroke-opacity: 0.8; stroke-width: 0.8; stroke-linecap: square"/>
     </g>
     <g id="line2d_14">
      <defs>
       <path id="m94c3c3e479" d="M 0 0 
L -3.5 0 
" style="stroke: #000000; stroke-width: 0.8"/>
      </defs>
      <g>
       <use xlink:href="#m94c3c3e479" x="43.803125" y="310.784364" style="stroke: #000000; stroke-width: 0.8"/>
      </g>
     </g>
     <g id="text_8">
      <!-- 0.0 -->
      <g transform="translate(20.9 314.583582) scale(0.1 -0.1)">
       <defs>
        <path id="DejaVuSans-2e" d="M 684 794 
L 1344 794 
L 1344 0 
L 684 0 
L 684 794 
z
" transform="scale(0.015625)"/>
       </defs>
       <use xlink:href="#DejaVuSans-30"/>
       <use xlink:href="#DejaVuSans-2e" transform="translate(63.623047 0)"/>
       <use xlink:href="#DejaVuSans-30" transform="translate(95.410156 0)"/>
      </g>
     </g>
    </g>
    <g id="ytick_2">
     <g id="line2d_15">
      <path d="M 43.803125 265.249818 
L 404.363125 265.249818 
" clip-path="url(#p6af592f1b6)" style="fill: none; stroke: #ecf0f1; stroke-opacity: 0.8; stroke-width: 0.8; stroke-linecap: square"/>
     </g>
     <g id="line2d_16">
      <g>
       <use xlink:href="#m94c3c3e479" x="43.803125" y="265.249818" style="stroke: #000000; stroke-width: 0.8"/>
      </g>
     </g>
     <g id="text_9">
      <!-- 0.2 -->
      <g transform="translate(20.9 269.049037) scale(0.1 -0.1)">
       <use xlink:href="#DejaVuSans-30"/>
       <use xlink:href="#DejaVuSans-2e" transform="translate(63.623047 0)"/>
       <use xlink:href="#DejaVuSans-32" transform="translate(95.410156 0)"/>
      </g>
     </g>
    </g>
    <g id="ytick_3">
     <g id="line2d_17">
      <path d="M 43.803125 219.715273 
L 404.363125 219.715273 
" clip-path="url(#p6af592f1b6)" style="fill: none; stroke: #ecf0f1; stroke-opacity: 0.8; stroke-width: 0.8; stroke-linecap: square"/>
     </g>
     <g id="line2d_18">
      <g>
       <use xlink:href="#m94c3c3e479" x="43.803125" y="219.715273" style="stroke: #000000; stroke-width: 0.8"/>
      </g>
     </g>
     <g id="text_10">
      <!-- 0.4 -->
      <g transform="translate(20.9 223.514491) scale(0.1 -0.1)">
       <use xlink:href="#DejaVuSans-30"/>
       <use xlink:href="#DejaVuSans-2e" transform="translate(63.623047 0)"/>
       <use xlink:href="#DejaVuSans-34" transform="translate(95.410156 0)"/>
      </g>
     </g>
    </g>
    <g id="ytick_4">
     <g id="line2d_19">
      <path d="M 43.803125 174.180727 
L 404.363125 174.180727 
" clip-path="url(#p6af592f1b6)" style="fill: none; stroke: #ecf0f1; stroke-opacity: 0.8; stroke-width: 0.8; stroke-linecap: square"/>
     </g>
     <g id="line2d_20">
      <g>
       <use xlink:href="#m94c3c3e479" x="43.803125" y="174.180727" style="stroke: #000000; stroke-width: 0.8"/>
      </g>
     </g>
     <g id="text_11">
      <!-- 0.6 -->
      <g transform="translate(20.9 177.979946) scale(0.1 -0.1)">
       <use xlink:href="#DejaVuSans-30"/>
       <use xlink:href="#DejaVuSans-2e" transform="translate(63.623047 0)"/>
       <use xlink:href="#DejaVuSans-36" transform="translate(95.410156 0)"/>
      </g>
     </g>
    </g>
    <g id="ytick_5">
     <g id="line2d_21">
      <path d="M 43.803125 128.646182 
L 404.363125 128.646182 
" clip-path="url(#p6af592f1b6)" style="fill: none; stroke: #ecf0f1; stroke-opacity: 0.8; stroke-width: 0.8; stroke-linecap: square"/>
     </g>
     <g id="line2d_22">
      <g>
       <use xlink:href="#m94c3c3e479" x="43.803125" y="128.646182" style="stroke: #000000; stroke-width: 0.8"/>
      </g>
     </g>
     <g id="text_12">
      <!-- 0.8 -->
      <g transform="translate(20.9 132.445401) scale(0.1 -0.1)">
       <use xlink:href="#DejaVuSans-30"/>
       <use xlink:href="#DejaVuSans-2e" transform="translate(63.623047 0)"/>
       <use xlink:href="#DejaVuSans-38" transform="translate(95.410156 0)"/>
      </g>
     </g>
    </g>
    <g id="ytick_6">
     <g id="line2d_23">
      <path d="M 43.803125 83.111636 
L 404.363125 83.111636 
" clip-path="url(#p6af592f1b6)" style="fill: none; stroke: #ecf0f1; stroke-opacity: 0.8; stroke-width: 0.8; stroke-linecap: square"/>
     </g>
     <g id="line2d_24">
      <g>
       <use xlink:href="#m94c3c3e479" x="43.803125" y="83.111636" style="stroke: #000000; stroke-width: 0.8"/>
      </g>
     </g>
     <g id="text_13">
      <!-- 1.0 -->
      <g transform="translate(20.9 86.910855) scale(0.1 -0.1)">
       <use xlink:href="#DejaVuSans-31"/>
       <use xlink:href="#DejaVuSans-2e" transform="translate(63.623047 0)"/>
       <use xlink:href="#DejaVuSans-30" transform="translate(95.410156 0)"/>
      </g>
     </g>
    </g>
    <g id="text_14">
     <!-- phase $\tau \in [0,1)$ -->
     <g transform="translate(14.8 235.798) rotate(-90) scale(0.1 -0.1)">
      <defs>
       <path id="DejaVuSans-70" d="M 1159 525 
L 1159 -1331 
L 581 -1331 
L 581 3500 
L 1159 3500 
L 1159 2969 
Q 1341 3281 1617 3432 
Q 1894 3584 2278 3584 
Q 2916 3584 3314 3078 
Q 3713 2572 3713 1747 
Q 3713 922 3314 415 
Q 2916 -91 2278 -91 
Q 1894 -91 1617 61 
Q 1341 213 1159 525 
z
M 3116 1747 
Q 3116 2381 2855 2742 
Q 2594 3103 2138 3103 
Q 1681 3103 1420 2742 
Q 1159 2381 1159 1747 
Q 1159 1113 1420 752 
Q 1681 391 2138 391 
Q 2594 391 2855 752 
Q 3116 1113 3116 1747 
z
" transform="scale(0.015625)"/>
       <path id="DejaVuSans-68" d="M 3513 2113 
L 3513 0 
L 2938 0 
L 2938 2094 
Q 2938 2591 2744 2837 
Q 2550 3084 2163 3084 
Q 1697 3084 1428 2787 
Q 1159 2491 1159 1978 
L 1159 0 
L 581 0 
L 581 4863 
L 1159 4863 
L 1159 2956 
Q 1366 3272 1645 3428 
Q 1925 3584 2291 3584 
Q 2894 3584 3203 3211 
Q 3513 2838 3513 2113 
z
" transform="scale(0.015625)"/>
       <path id="DejaVuSans-61" d="M 2194 1759 
Q 1497 1759 1228 1600 
Q 959 1441 959 1056 
Q 959 750 1161 570 
Q 1363 391 1709 391 
Q 2188 391 2477 730 
Q 2766 1069 2766 1631 
L 2766 1759 
L 2194 1759 
z
M 3341 1997 
L 3341 0 
L 2766 0 
L 2766 531 
Q 2569 213 2275 61 
Q 1981 -91 1556 -91 
Q 1019 -91 701 211 
Q 384 513 384 1019 
Q 384 1609 779 1909 
Q 1175 2209 1959 2209 
L 2766 2209 
L 2766 2266 
Q 2766 2663 2505 2880 
Q 2244 3097 1772 3097 
Q 1472 3097 1187 3025 
Q 903 2953 641 2809 
L 641 3341 
Q 956 3463 1253 3523 
Q 1550 3584 1831 3584 
Q 2591 3584 2966 3190 
Q 3341 2797 3341 1997 
z
" transform="scale(0.015625)"/>
       <path id="DejaVuSans-73" d="M 2834 3397 
L 2834 2853 
Q 2591 2978 2328 3040 
Q 2066 3103 1784 3103 
Q 1356 3103 1142 2972 
Q 928 2841 928 2578 
Q 928 2378 1081 2264 
Q 1234 2150 1697 2047 
L 1894 2003 
Q 2506 1872 2764 1633 
Q 3022 1394 3022 966 
Q 3022 478 2636 193 
Q 2250 -91 1575 -91 
Q 1294 -91 989 -36 
Q 684 19 347 128 
L 347 722 
Q 666 556 975 473 
Q 1284 391 1588 391 
Q 1994 391 2212 530 
Q 2431 669 2431 922 
Q 2431 1156 2273 1281 
Q 2116 1406 1581 1522 
L 1381 1569 
Q 847 1681 609 1914 
Q 372 2147 372 2553 
Q 372 3047 722 3315 
Q 1072 3584 1716 3584 
Q 2034 3584 2315 3537 
Q 2597 3491 2834 3397 
z
" transform="scale(0.015625)"/>
       <path id="DejaVuSans-65" d="M 3597 1894 
L 3597 1613 
L 953 1613 
Q 991 1019 1311 708 
Q 1631 397 2203 397 
Q 2534 397 2845 478 
Q 3156 559 3463 722 
L 3463 178 
Q 3153 47 2828 -22 
Q 2503 -91 2169 -91 
Q 1331 -91 842 396 
Q 353 884 353 1716 
Q 353 2575 817 3079 
Q 1281 3584 2069 3584 
Q 2775 3584 3186 3129 
Q 3597 2675 3597 1894 
z
M 3022 2063 
Q 3016 2534 2758 2815 
Q 2500 3097 2075 3097 
Q 1594 3097 1305 2825 
Q 1016 2553 972 2059 
L 3022 2063 
z
" transform="scale(0.015625)"/>
       <path id="DejaVuSans-20" transform="scale(0.015625)"/>
       <path id="DejaVuSans-Oblique-3c4" d="M 2103 638 
Q 2188 488 2525 488 
L 2800 488 
L 2706 0 
L 2363 0 
Q 1800 0 1600 300 
Q 1403 606 1534 1269 
L 1856 2925 
L 541 2925 
L 653 3500 
L 3881 3500 
L 3769 2925 
L 2444 2925 
L 2113 1234 
Q 2025 781 2103 638 
z
" transform="scale(0.015625)"/>
       <path id="DejaVuSans-2208" d="M 1072 1959 
Q 1094 1728 1291 1353 
Q 1522 919 1959 675 
Q 2388 438 2850 434 
L 5028 434 
L 5028 -63 
L 2850 -63 
Q 2250 -63 1695 246 
Q 1141 556 844 1106 
Q 547 1656 547 2241 
Q 547 2819 844 3369 
Q 1141 3919 1695 4231 
Q 2250 4544 2850 4544 
L 5028 4544 
L 5028 4047 
L 2850 4047 
Q 2388 4044 1959 3803 
Q 1525 3556 1291 3125 
Q 1091 2750 1063 2459 
L 5028 2459 
L 5028 1959 
L 1072 1959 
z
" transform="scale(0.015625)"/>
       <path id="DejaVuSans-5b" d="M 550 4863 
L 1875 4863 
L 1875 4416 
L 1125 4416 
L 1125 -397 
L 1875 -397 
L 1875 -844 
L 550 -844 
L 550 4863 
z
" transform="scale(0.015625)"/>
       <path id="DejaVuSans-2c" d="M 750 794 
L 1409 794 
L 1409 256 
L 897 -744 
L 494 -744 
L 750 256 
L 750 794 
z
" transform="scale(0.015625)"/>
       <path id="DejaVuSans-29" d="M 513 4856 
L 1013 4856 
Q 1481 4119 1714 3412 
Q 1947 2706 1947 2009 
Q 1947 1309 1714 600 
Q 1481 -109 1013 -844 
L 513 -844 
Q 928 -128 1133 580 
Q 1338 1288 1338 2009 
Q 1338 2731 1133 3434 
Q 928 4138 513 4856 
z
" transform="scale(0.015625)"/>
      </defs>
      <use xlink:href="#DejaVuSans-70" transform="translate(0 0.015625)"/>
      <use xlink:href="#DejaVuSans-68" transform="translate(63.476562 0.015625)"/>
      <use xlink:href="#DejaVuSans-61" transform="translate(126.855469 0.015625)"/>
      <use xlink:href="#DejaVuSans-73" transform="translate(188.134766 0.015625)"/>
      <use xlink:href="#DejaVuSans-65" transform="translate(240.234375 0.015625)"/>
      <use xlink:href="#DejaVuSans-20" transform="translate(301.757812 0.015625)"/>
      <use xlink:href="#DejaVuSans-Oblique-3c4" transform="translate(333.544922 0.015625)"/>
      <use xlink:href="#DejaVuSans-2208" transform="translate(413.232422 0.015625)"/>
      <use xlink:href="#DejaVuSans-5b" transform="translate(519.824219 0.015625)"/>
      <use xlink:href="#DejaVuSans-30" transform="translate(558.837891 0.015625)"/>
      <use xlink:href="#DejaVuSans-2c" transform="translate(622.460938 0.015625)"/>
      <use xlink:href="#DejaVuSans-31" transform="translate(673.730469 0.015625)"/>
      <use xlink:href="#DejaVuSans-29" transform="translate(737.353516 0.015625)"/>
     </g>
    </g>
   </g>
   <g id="line2d_25">
    <path d="M 43.803125 93.953195 
L 76.581307 104.794753 
L 109.359489 115.636312 
L 142.13767 126.47787 
L 174.915852 137.319429 
L 207.694034 148.160987 
L 240.472216 159.002545 
L 273.250398 169.844104 
L 306.02858 180.685662 
L 338.806761 191.527221 
L 371.584943 202.368779 
L 404.363125 213.210338 
" clip-path="url(#p6af592f1b6)" style="fill: none; stroke: #e74c3c; stroke-width: 2.5; stroke-linecap: square"/>
   </g>
   <g id="line2d_26">
    <path d="M 43.803125 180.685662 
L 76.581307 278.259688 
L 109.359489 148.160987 
L 142.13767 245.735013 
L 174.915852 115.636312 
L 207.694034 213.210338 
L 240.472216 83.111636 
L 273.250398 180.685662 
L 306.02858 278.259688 
L 338.806761 148.160987 
L 371.584943 245.735013 
L 404.363125 115.636312 
" clip-path="url(#p6af592f1b6)" style="fill: none; stroke: #3498db; stroke-width: 2.5; stroke-linecap: square"/>
   </g>
   <g id="patch_3">
    <path d="M 43.803125 322.168 
L 43.803125 71.728 
" style="fill: none; stroke: #000000; stroke-width: 0.8; stroke-linejoin: miter; stroke-linecap: square"/>
   </g>
   <g id="patch_4">
    <path d="M 404.363125 322.168 
L 404.363125 71.728 
" style="fill: none; stroke: #000000; stroke-width: 0.8; stroke-linejoin: miter; stroke-linecap: square"/>
   </g>
   <g id="patch_5">
    <path d="M 43.803125 322.168 
L 404.363125 322.168 
" style="fill: none; stroke: #000000; stroke-width: 0.8; stroke-linejoin: miter; stroke-linecap: square"/>
   </g>
   <g id="patch_6">
    <path d="M 43.803125 71.728 
L 404.363125 71.728 
" style="fill: none; stroke: #000000; stroke-width: 0.8; stroke-linejoin: miter; stroke-linecap: square"/>
   </g>
   <g id="text_15">
    <!-- Phase Accumulator (time gating) -->
    <g transform="translate(125.213437 61.728) scale(0.12 -0.12)">
     <defs>
      <path id="DejaVuSans-50" d="M 1259 4147 
L 1259 2394 
L 2053 2394 
Q 2494 2394 2734 2622 
Q 2975 2850 2975 3272 
Q 2975 3691 2734 3919 
Q 2494 4147 2053 4147 
L 1259 4147 
z
M 628 4666 
L 2053 4666 
Q 2838 4666 3239 4311 
Q 3641 3956 3641 3272 
Q 3641 2581 3239 2228 
Q 2838 1875 2053 1875 
L 1259 1875 
L 1259 0 
L 628 0 
L 628 4666 
z
" transform="scale(0.015625)"/>
      <path id="DejaVuSans-41" d="M 2188 4044 
L 1331 1722 
L 3047 1722 
L 2188 4044 
z
M 1831 4666 
L 2547 4666 
L 4325 0 
L 3669 0 
L 3244 1197 
L 1141 1197 
L 716 0 
L 50 0 
L 1831 4666 
z
" transform="scale(0.015625)"/>
      <path id="DejaVuSans-75" d="M 544 1381 
L 544 3500 
L 1119 3500 
L 1119 1403 
Q 1119 906 1312 657 
Q 1506 409 1894 409 
Q 2359 409 2629 706 
Q 2900 1003 2900 1516 
L 2900 3500 
L 3475 3500 
L 3475 0 
L 2900 0 
L 2900 538 
Q 2691 219 2414 64 
Q 2138 -91 1772 -91 
Q 1169 -91 856 284 
Q 544 659 544 1381 
z
M 1991 3584 
L 1991 3584 
z
" transform="scale(0.015625)"/>
      <path id="DejaVuSans-6d" d="M 3328 2828 
Q 3544 3216 3844 3400 
Q 4144 3584 4550 3584 
Q 5097 3584 5394 3201 
Q 5691 2819 5691 2113 
L 5691 0 
L 5113 0 
L 5113 2094 
Q 5113 2597 4934 2840 
Q 4756 3084 4391 3084 
Q 3944 3084 3684 2787 
Q 3425 2491 3425 1978 
L 3425 0 
L 2847 0 
L 2847 2094 
Q 2847 2600 2669 2842 
Q 2491 3084 2119 3084 
Q 1678 3084 1418 2786 
Q 1159 2488 1159 1978 
L 1159 0 
L 581 0 
L 581 3500 
L 1159 3500 
L 1159 2956 
Q 1356 3278 1631 3431 
Q 1906 3584 2284 3584 
Q 2666 3584 2933 3390 
Q 3200 3197 3328 2828 
z
" transform="scale(0.015625)"/>
      <path id="DejaVuSans-6c" d="M 603 4863 
L 1178 4863 
L 1178 0 
L 603 0 
L 603 4863 
z
" transform="scale(0.015625)"/>
      <path id="DejaVuSans-6f" d="M 1959 3097 
Q 1497 3097 1228 2736 
Q 959 2375 959 1747 
Q 959 1119 1226 758 
Q 1494 397 1959 397 
Q 2419 397 2687 759 
Q 2956 1122 2956 1747 
Q 2956 2369 2687 2733 
Q 2419 3097 1959 3097 
z
M 1959 3584 
Q 2709 3584 3137 3096 
Q 3566 2609 3566 1747 
Q 3566 888 3137 398 
Q 2709 -91 1959 -91 
Q 1206 -91 779 398 
Q 353 888 353 1747 
Q 353 2609 779 3096 
Q 1206 3584 1959 3584 
z
" transform="scale(0.015625)"/>
      <path id="DejaVuSans-72" d="M 2631 2963 
Q 2534 3019 2420 3045 
Q 2306 3072 2169 3072 
Q 1681 3072 1420 2755 
Q 1159 2438 1159 1844 
L 1159 0 
L 581 0 
L 581 3500 
L 1159 3500 
L 1159 2956 
Q 1341 3275 1631 3429 
Q 1922 3584 2338 3584 
Q 2397 3584 2469 3576 
Q 2541 3569 2628 3553 
L 2631 2963 
z
" transform="scale(0.015625)"/>
      <path id="DejaVuSans-28" d="M 1984 4856 
Q 1566 4138 1362 3434 
Q 1159 2731 1159 2009 
Q 1159 1288 1364 580 
Q 1569 -128 1984 -844 
L 1484 -844 
Q 1016 -109 783 600 
Q 550 1309 550 2009 
Q 550 2706 781 3412 
Q 1013 4119 1484 4856 
L 1984 4856 
z
" transform="scale(0.015625)"/>
      <path id="DejaVuSans-67" d="M 2906 1791 
Q 2906 2416 2648 2759 
Q 2391 3103 1925 3103 
Q 1463 3103 1205 2759 
Q 947 2416 947 1791 
Q 947 1169 1205 825 
Q 1463 481 1925 481 
Q 2391 481 2648 825 
Q 2906 1169 2906 1791 
z
M 3481 434 
Q 3481 -459 3084 -895 
Q 2688 -1331 1869 -1331 
Q 1566 -1331 1297 -1286 
Q 1028 -1241 775 -1147 
L 775 -588 
Q 1028 -725 1275 -790 
Q 1522 -856 1778 -856 
Q 2344 -856 2625 -561 
Q 2906 -266 2906 331 
L 2906 616 
Q 2728 306 2450 153 
Q 2172 0 1784 0 
Q 1141 0 747 490 
Q 353 981 353 1791 
Q 353 2603 747 3093 
Q 1141 3584 1784 3584 
Q 2172 3584 2450 3431 
Q 2728 3278 2906 2969 
L 2906 3500 
L 3481 3500 
L 3481 434 
z
" transform="scale(0.015625)"/>
      <path id="DejaVuSans-6e" d="M 3513 2113 
L 3513 0 
L 2938 0 
L 2938 2094 
Q 2938 2591 2744 2837 
Q 2550 3084 2163 3084 
Q 1697 3084 1428 2787 
Q 1159 2491 1159 1978 
L 1159 0 
L 581 0 
L 581 3500 
L 1159 3500 
L 1159 2956 
Q 1366 3272 1645 3428 
Q 1925 3584 2291 3584 
Q 2894 3584 3203 3211 
Q 3513 2838 3513 2113 
z
" transform="scale(0.015625)"/>
     </defs>
     <use xlink:href="#DejaVuSans-50"/>
     <use xlink:href="#DejaVuSans-68" transform="translate(60.302734 0)"/>
     <use xlink:href="#DejaVuSans-61" transform="translate(123.681641 0)"/>
     <use xlink:href="#DejaVuSans-73" transform="translate(184.960938 0)"/>
     <use xlink:href="#DejaVuSans-65" transform="translate(237.060547 0)"/>
     <use xlink:href="#DejaVuSans-20" transform="translate(298.583984 0)"/>
     <use xlink:href="#DejaVuSans-41" transform="translate(330.371094 0)"/>
     <use xlink:href="#DejaVuSans-63" transform="translate(397.029297 0)"/>
     <use xlink:href="#DejaVuSans-63" transform="translate(452.009766 0)"/>
     <use xlink:href="#DejaVuSans-75" transform="translate(506.990234 0)"/>
     <use xlink:href="#DejaVuSans-6d" transform="translate(570.369141 0)"/>
     <use xlink:href="#DejaVuSans-75" transform="translate(667.78125 0)"/>
     <use xlink:href="#DejaVuSans-6c" transform="translate(731.160156 0)"/>
     <use xlink:href="#DejaVuSans-61" transform="translate(758.943359 0)"/>
     <use xlink:href="#DejaVuSans-74" transform="translate(820.222656 0)"/>
     <use xlink:href="#DejaVuSans-6f" transform="translate(859.431641 0)"/>
     <use xlink:href="#DejaVuSans-72" transform="translate(920.613281 0)"/>
     <use xlink:href="#DejaVuSans-20" transform="translate(961.726562 0)"/>
     <use xlink:href="#DejaVuSans-28" transform="translate(993.513672 0)"/>
     <use xlink:href="#DejaVuSans-74" transform="translate(1032.527344 0)"/>
     <use xlink:href="#DejaVuSans-69" transform="translate(1071.736328 0)"/>
     <use xlink:href="#DejaVuSans-6d" transform="translate(1099.519531 0)"/>
     <use xlink:href="#DejaVuSans-65" transform="translate(1196.931641 0)"/>
     <use xlink:href="#DejaVuSans-20" transform="translate(1258.455078 0)"/>
     <use xlink:href="#DejaVuSans-67" transform="translate(1290.242188 0)"/>
     <use xlink:href="#DejaVuSans-61" transform="translate(1353.71875 0)"/>
     <use xlink:href="#DejaVuSans-74" transform="translate(1414.998047 0)"/>
     <use xlink:href="#DejaVuSans-69" transform="translate(1454.207031 0)"/>
     <use xlink:href="#DejaVuSans-6e" transform="translate(1481.990234 0)"/>
     <use xlink:href="#DejaVuSans-67" transform="translate(1545.369141 0)"/>
     <use xlink:href="#DejaVuSans-29" transform="translate(1608.845703 0)"/>
    </g>
   </g>
   <g id="legend_1">
    <g id="patch_7">
     <path d="M 325.301875 318.168 
L 398.763125 318.168 
Q 400.363125 318.168 400.363125 316.568 
L 400.363125 293.883 
Q 400.363125 292.283 398.763125 292.283 
L 325.301875 292.283 
Q 323.701875 292.283 323.701875 293.883 
L 323.701875 316.568 
Q 323.701875 318.168 325.301875 318.168 
z
" style="fill: #ffffff; opacity: 0.8; stroke: #cccccc; stroke-linejoin: miter"/>
    </g>
    <g id="line2d_27">
     <path d="M 326.901875 298.76175 
L 334.901875 298.76175 
L 342.901875 298.76175 
" style="fill: none; stroke: #e74c3c; stroke-width: 2.5; stroke-linecap: square"/>
    </g>
    <g id="text_16">
     <!-- low energy -->
     <g transform="translate(349.301875 301.56175) scale(0.08 -0.08)">
      <defs>
       <path id="DejaVuSans-77" d="M 269 3500 
L 844 3500 
L 1563 769 
L 2278 3500 
L 2956 3500 
L 3675 769 
L 4391 3500 
L 4966 3500 
L 4050 0 
L 3372 0 
L 2619 2869 
L 1863 0 
L 1184 0 
L 269 3500 
z
" transform="scale(0.015625)"/>
       <path id="DejaVuSans-79" d="M 2059 -325 
Q 1816 -950 1584 -1140 
Q 1353 -1331 966 -1331 
L 506 -1331 
L 506 -850 
L 844 -850 
Q 1081 -850 1212 -737 
Q 1344 -625 1503 -206 
L 1606 56 
L 191 3500 
L 800 3500 
L 1894 763 
L 2988 3500 
L 3597 3500 
L 2059 -325 
z
" transform="scale(0.015625)"/>
      </defs>
      <use xlink:href="#DejaVuSans-6c"/>
      <use xlink:href="#DejaVuSans-6f" transform="translate(27.783203 0)"/>
      <use xlink:href="#DejaVuSans-77" transform="translate(88.964844 0)"/>
      <use xlink:href="#DejaVuSans-20" transform="translate(170.751953 0)"/>
      <use xlink:href="#DejaVuSans-65" transform="translate(202.539062 0)"/>
      <use xlink:href="#DejaVuSans-6e" transform="translate(264.0625 0)"/>
      <use xlink:href="#DejaVuSans-65" transform="translate(327.441406 0)"/>
      <use xlink:href="#DejaVuSans-72" transform="translate(388.964844 0)"/>
      <use xlink:href="#DejaVuSans-67" transform="translate(428.328125 0)"/>
      <use xlink:href="#DejaVuSans-79" transform="translate(491.804688 0)"/>
     </g>
    </g>
    <g id="line2d_28">
     <path d="M 326.901875 310.50425 
L 334.901875 310.50425 
L 342.901875 310.50425 
" style="fill: none; stroke: #3498db; stroke-width: 2.5; stroke-linecap: square"/>
    </g>
    <g id="text_17">
     <!-- high energy -->
     <g transform="translate(349.301875 313.30425) scale(0.08 -0.08)">
      <use xlink:href="#DejaVuSans-68"/>
      <use xlink:href="#DejaVuSans-69" transform="translate(63.378906 0)"/>
      <use xlink:href="#DejaVuSans-67" transform="translate(91.162109 0)"/>
      <use xlink:href="#DejaVuSans-68" transform="translate(154.638672 0)"/>
      <use xlink:href="#DejaVuSans-20" transform="translate(218.017578 0)"/>
      <use xlink:href="#DejaVuSans-65" transform="translate(249.804688 0)"/>
      <use xlink:href="#DejaVuSans-6e" transform="translate(311.328125 0)"/>
      <use xlink:href="#DejaVuSans-65" transform="translate(374.707031 0)"/>
      <use xlink:href="#DejaVuSans-72" transform="translate(436.230469 0)"/>
      <use xlink:href="#DejaVuSans-67" transform="translate(475.59375 0)"/>
      <use xlink:href="#DejaVuSans-79" transform="translate(539.070312 0)"/>
     </g>
    </g>
   </g>
  </g>
  <g id="axes_2">
   <g id="PathCollection_1">
    <defs>
     <path id="mb9f495c78d" d="M 0 2.738613 
C 0.726289 2.738613 1.422928 2.450055 1.936492 1.936492 
C 2.450055 1.422928 2.738613 0.726289 2.738613 0 
C 2.738613 -0.726289 2.450055 -1.422928 1.936492 -1.936492 
C 1.422928 -2.450055 0.726289 -2.738613 0 -2.738613 
C -0.726289 -2.738613 -1.422928 -2.450055 -1.936492 -1.936492 
C -2.450055 -1.422928 -2.738613 -0.726289 -2.738613 0 
C -2.738613 0.726289 -2.450055 1.422928 -1.936492 1.936492 
C -1.422928 2.450055 -0.726289 2.738613 0 2.738613 
z
" style="stroke: #ecf0f1"/>
    </defs>
    <g clip-path="url(#p32197af3ad)">
     <use xlink:href="#mb9f495c78d" x="555.380903" y="277.072444" style="fill: #ecf0f1; stroke: #ecf0f1"/>
     <use xlink:href="#mb9f495c78d" x="595.443125" y="237.010222" style="fill: #ecf0f1; stroke: #ecf0f1"/>
     <use xlink:href="#mb9f495c78d" x="635.505347" y="277.072444" style="fill: #ecf0f1; stroke: #ecf0f1"/>
    </g>
   </g>
   <g id="PathCollection_2">
    <g clip-path="url(#p32197af3ad)">
     <use xlink:href="#mb9f495c78d" x="515.318681" y="277.072444" style="fill: #ecf0f1; stroke: #ecf0f1"/>
     <use xlink:href="#mb9f495c78d" x="555.380903" y="237.010222" style="fill: #ecf0f1; stroke: #ecf0f1"/>
     <use xlink:href="#mb9f495c78d" x="595.443125" y="196.948" style="fill: #ecf0f1; stroke: #ecf0f1"/>
     <use xlink:href="#mb9f495c78d" x="635.505347" y="237.010222" style="fill: #ecf0f1; stroke: #ecf0f1"/>
     <use xlink:href="#mb9f495c78d" x="675.567569" y="277.072444" style="fill: #ecf0f1; stroke: #ecf0f1"/>
    </g>
   </g>
   <g id="PathCollection_3">
    <g clip-path="url(#p32197af3ad)">
     <use xlink:href="#mb9f495c78d" x="475.256458" y="277.072444" style="fill: #ecf0f1; stroke: #ecf0f1"/>
     <use xlink:href="#mb9f495c78d" x="515.318681" y="237.010222" style="fill: #ecf0f1; stroke: #ecf0f1"/>
     <use xlink:href="#mb9f495c78d" x="555.380903" y="196.948" style="fill: #ecf0f1; stroke: #ecf0f1"/>
     <use xlink:href="#mb9f495c78d" x="595.443125" y="156.885778" style="fill: #ecf0f1; stroke: #ecf0f1"/>
     <use xlink:href="#mb9f495c78d" x="635.505347" y="196.948" style="fill: #ecf0f1; stroke: #ecf0f1"/>
     <use xlink:href="#mb9f495c78d" x="675.567569" y="237.010222" style="fill: #ecf0f1; stroke: #ecf0f1"/>
     <use xlink:href="#mb9f495c78d" x="715.629792" y="277.072444" style="fill: #ecf0f1; stroke: #ecf0f1"/>
    </g>
   </g>
   <g id="PathCollection_4">
    <g clip-path="url(#p32197af3ad)">
     <use xlink:href="#mb9f495c78d" x="435.194236" y="277.072444" style="fill: #ecf0f1; stroke: #ecf0f1"/>
     <use xlink:href="#mb9f495c78d" x="475.256458" y="237.010222" style="fill: #ecf0f1; stroke: #ecf0f1"/>
     <use xlink:href="#mb9f495c78d" x="515.318681" y="196.948" style="fill: #ecf0f1; stroke: #ecf0f1"/>
     <use xlink:href="#mb9f495c78d" x="555.380903" y="156.885778" style="fill: #ecf0f1; stroke: #ecf0f1"/>
     <use xlink:href="#mb9f495c78d" x="595.443125" y="116.823556" style="fill: #ecf0f1; stroke: #ecf0f1"/>
     <use xlink:href="#mb9f495c78d" x="635.505347" y="156.885778" style="fill: #ecf0f1; stroke: #ecf0f1"/>
     <use xlink:href="#mb9f495c78d" x="675.567569" y="196.948" style="fill: #ecf0f1; stroke: #ecf0f1"/>
     <use xlink:href="#mb9f495c78d" x="715.629792" y="237.010222" style="fill: #ecf0f1; stroke: #ecf0f1"/>
     <use xlink:href="#mb9f495c78d" x="755.692014" y="277.072444" style="fill: #ecf0f1; stroke: #ecf0f1"/>
    </g>
   </g>
   <g id="line2d_29">
    <path d="M 435.194236 277.072444 
L 595.443125 116.823556 
L 755.692014 277.072444 
" clip-path="url(#p32197af3ad)" style="fill: none; stroke: #f39c12; stroke-width: 2.5; stroke-linecap: square"/>
   </g>
   <g id="PathCollection_5">
    <defs>
     <path id="m774a57c9e5" d="M 0 4.472136 
C 1.186024 4.472136 2.323632 4.000923 3.162278 3.162278 
C 4.000923 2.323632 4.472136 1.186024 4.472136 0 
C 4.472136 -1.186024 4.000923 -2.323632 3.162278 -3.162278 
C 2.323632 -4.000923 1.186024 -4.472136 0 -4.472136 
C -1.186024 -4.472136 -2.323632 -4.000923 -3.162278 -3.162278 
C -4.000923 -2.323632 -4.472136 -1.186024 -4.472136 0 
C -4.472136 1.186024 -4.000923 2.323632 -3.162278 3.162278 
C -2.323632 4.000923 -1.186024 4.472136 0 4.472136 
z
" style="stroke: #9b59b6"/>
    </defs>
    <g clip-path="url(#p32197af3ad)">
     <use xlink:href="#m774a57c9e5" x="595.443125" y="277.072444" style="fill: #9b59b6; stroke: #9b59b6"/>
    </g>
   </g>
   <g id="text_18">
    <!-- source -->
    <g style="fill: #9b59b6" transform="translate(582.161875 287.088) scale(0.08 -0.08)">
     <use xlink:href="#DejaVuSans-73"/>
     <use xlink:href="#DejaVuSans-6f" transform="translate(52.099609 0)"/>
     <use xlink:href="#DejaVuSans-75" transform="translate(113.28125 0)"/>
     <use xlink:href="#DejaVuSans-72" transform="translate(176.660156 0)"/>
     <use xlink:href="#DejaVuSans-63" transform="translate(215.523438 0)"/>
     <use xlink:href="#DejaVuSans-65" transform="translate(270.503906 0)"/>
    </g>
   </g>
   <g id="text_19">
    <!-- t = 4 -->
    <g style="fill: #f39c12" transform="translate(585.435625 108.811111) scale(0.08 -0.08)">
     <defs>
      <path id="DejaVuSans-3d" d="M 678 2906 
L 4684 2906 
L 4684 2381 
L 678 2381 
L 678 2906 
z
M 678 1631 
L 4684 1631 
L 4684 1100 
L 678 1100 
L 678 1631 
z
" transform="scale(0.015625)"/>
     </defs>
     <use xlink:href="#DejaVuSans-74"/>
     <use xlink:href="#DejaVuSans-20" transform="translate(39.208984 0)"/>
     <use xlink:href="#DejaVuSans-3d" transform="translate(70.996094 0)"/>
     <use xlink:href="#DejaVuSans-20" transform="translate(154.785156 0)"/>
     <use xlink:href="#DejaVuSans-34" transform="translate(186.572266 0)"/>
    </g>
   </g>
   <g id="text_20">
    <!-- reachable region -->
    <g style="fill: #95a5a6" transform="translate(561.75875 187.94775) scale(0.08 -0.08)">
     <defs>
      <path id="DejaVuSans-62" d="M 3116 1747 
Q 3116 2381 2855 2742 
Q 2594 3103 2138 3103 
Q 1681 3103 1420 2742 
Q 1159 2381 1159 1747 
Q 1159 1113 1420 752 
Q 1681 391 2138 391 
Q 2594 391 2855 752 
Q 3116 1113 3116 1747 
z
M 1159 2969 
Q 1341 3281 1617 3432 
Q 1894 3584 2278 3584 
Q 2916 3584 3314 3078 
Q 3713 2572 3713 1747 
Q 3713 922 3314 415 
Q 2916 -91 2278 -91 
Q 1894 -91 1617 61 
Q 1341 213 1159 525 
L 1159 0 
L 581 0 
L 581 4863 
L 1159 4863 
L 1159 2969 
z
" transform="scale(0.015625)"/>
     </defs>
     <use xlink:href="#DejaVuSans-72"/>
     <use xlink:href="#DejaVuSans-65" transform="translate(38.863281 0)"/>
     <use xlink:href="#DejaVuSans-61" transform="translate(100.386719 0)"/>
     <use xlink:href="#DejaVuSans-63" transform="translate(161.666016 0)"/>
     <use xlink:href="#DejaVuSans-68" transform="translate(216.646484 0)"/>
     <use xlink:href="#DejaVuSans-61" transform="translate(280.025391 0)"/>
     <use xlink:href="#DejaVuSans-62" transform="translate(341.304688 0)"/>
     <use xlink:href="#DejaVuSans-6c" transform="translate(404.78125 0)"/>
     <use xlink:href="#DejaVuSans-65" transform="translate(432.564453 0)"/>
     <use xlink:href="#DejaVuSans-20" transform="translate(494.087891 0)"/>
     <use xlink:href="#DejaVuSans-72" transform="translate(525.875 0)"/>
     <use xlink:href="#DejaVuSans-65" transform="translate(564.738281 0)"/>
     <use xlink:href="#DejaVuSans-67" transform="translate(626.261719 0)"/>
     <use xlink:href="#DejaVuSans-69" transform="translate(689.738281 0)"/>
     <use xlink:href="#DejaVuSans-6f" transform="translate(717.521484 0)"/>
     <use xlink:href="#DejaVuSans-6e" transform="translate(778.703125 0)"/>
    </g>
    <!-- (|Δx|+Δt ≤ C·t) -->
    <g style="fill: #95a5a6" transform="translate(565.34 196.948) scale(0.08 -0.08)">
     <defs>
      <path id="DejaVuSans-7c" d="M 1344 4891 
L 1344 -1509 
L 813 -1509 
L 813 4891 
L 1344 4891 
z
" transform="scale(0.015625)"/>
      <path id="DejaVuSans-394" d="M 2188 4044 
L 906 525 
L 3472 525 
L 2188 4044 
z
M 50 0 
L 1831 4666 
L 2547 4666 
L 4325 0 
L 50 0 
z
" transform="scale(0.015625)"/>
      <path id="DejaVuSans-78" d="M 3513 3500 
L 2247 1797 
L 3578 0 
L 2900 0 
L 1881 1375 
L 863 0 
L 184 0 
L 1544 1831 
L 300 3500 
L 978 3500 
L 1906 2253 
L 2834 3500 
L 3513 3500 
z
" transform="scale(0.015625)"/>
      <path id="DejaVuSans-2b" d="M 2944 4013 
L 2944 2272 
L 4684 2272 
L 4684 1741 
L 2944 1741 
L 2944 0 
L 2419 0 
L 2419 1741 
L 678 1741 
L 678 2272 
L 2419 2272 
L 2419 4013 
L 2944 4013 
z
" transform="scale(0.015625)"/>
      <path id="DejaVuSans-2264" d="M 4684 3175 
L 1684 2309 
L 4684 1453 
L 4684 897 
L 678 2047 
L 678 2578 
L 4684 3725 
L 4684 3175 
z
M 678 531 
L 4684 531 
L 4684 0 
L 678 0 
L 678 531 
z
" transform="scale(0.015625)"/>
      <path id="DejaVuSans-43" d="M 4122 4306 
L 4122 3641 
Q 3803 3938 3442 4084 
Q 3081 4231 2675 4231 
Q 1875 4231 1450 3742 
Q 1025 3253 1025 2328 
Q 1025 1406 1450 917 
Q 1875 428 2675 428 
Q 3081 428 3442 575 
Q 3803 722 4122 1019 
L 4122 359 
Q 3791 134 3420 21 
Q 3050 -91 2638 -91 
Q 1578 -91 968 557 
Q 359 1206 359 2328 
Q 359 3453 968 4101 
Q 1578 4750 2638 4750 
Q 3056 4750 3426 4639 
Q 3797 4528 4122 4306 
z
" transform="scale(0.015625)"/>
      <path id="DejaVuSans-b7" d="M 684 2619 
L 1344 2619 
L 1344 1825 
L 684 1825 
L 684 2619 
z
" transform="scale(0.015625)"/>
     </defs>
     <use xlink:href="#DejaVuSans-28"/>
     <use xlink:href="#DejaVuSans-7c" transform="translate(39.013672 0)"/>
     <use xlink:href="#DejaVuSans-394" transform="translate(72.705078 0)"/>
     <use xlink:href="#DejaVuSans-78" transform="translate(141.113281 0)"/>
     <use xlink:href="#DejaVuSans-7c" transform="translate(200.292969 0)"/>
     <use xlink:href="#DejaVuSans-2b" transform="translate(233.984375 0)"/>
     <use xlink:href="#DejaVuSans-394" transform="translate(317.773438 0)"/>
     <use xlink:href="#DejaVuSans-74" transform="translate(386.181641 0)"/>
     <use xlink:href="#DejaVuSans-20" transform="translate(425.390625 0)"/>
     <use xlink:href="#DejaVuSans-2264" transform="translate(457.177734 0)"/>
     <use xlink:href="#DejaVuSans-20" transform="translate(540.966797 0)"/>
     <use xlink:href="#DejaVuSans-43" transform="translate(572.753906 0)"/>
     <use xlink:href="#DejaVuSans-b7" transform="translate(642.578125 0)"/>
     <use xlink:href="#DejaVuSans-74" transform="translate(674.365234 0)"/>
     <use xlink:href="#DejaVuSans-29" transform="translate(713.574219 0)"/>
    </g>
   </g>
   <g id="text_21">
    <!-- Discrete Lightcone (C = 1 cell/tick) -->
    <g transform="translate(490.835938 86.792444) scale(0.12 -0.12)">
     <defs>
      <path id="DejaVuSans-44" d="M 1259 4147 
L 1259 519 
L 2022 519 
Q 2988 519 3436 956 
Q 3884 1394 3884 2338 
Q 3884 3275 3436 3711 
Q 2988 4147 2022 4147 
L 1259 4147 
z
M 628 4666 
L 1925 4666 
Q 3281 4666 3915 4102 
Q 4550 3538 4550 2338 
Q 4550 1131 3912 565 
Q 3275 0 1925 0 
L 628 0 
L 628 4666 
z
" transform="scale(0.015625)"/>
      <path id="DejaVuSans-4c" d="M 628 4666 
L 1259 4666 
L 1259 531 
L 3531 531 
L 3531 0 
L 628 0 
L 628 4666 
z
" transform="scale(0.015625)"/>
      <path id="DejaVuSans-2f" d="M 1625 4666 
L 2156 4666 
L 531 -594 
L 0 -594 
L 1625 4666 
z
" transform="scale(0.015625)"/>
     </defs>
     <use xlink:href="#DejaVuSans-44"/>
     <use xlink:href="#DejaVuSans-69" transform="translate(77.001953 0)"/>
     <use xlink:href="#DejaVuSans-73" transform="translate(104.785156 0)"/>
     <use xlink:href="#DejaVuSans-63" transform="translate(156.884766 0)"/>
     <use xlink:href="#DejaVuSans-72" transform="translate(211.865234 0)"/>
     <use xlink:href="#DejaVuSans-65" transform="translate(250.728516 0)"/>
     <use xlink:href="#DejaVuSans-74" transform="translate(312.251953 0)"/>
     <use xlink:href="#DejaVuSans-65" transform="translate(351.460938 0)"/>
     <use xlink:href="#DejaVuSans-20" transform="translate(412.984375 0)"/>
     <use xlink:href="#DejaVuSans-4c" transform="translate(444.771484 0)"/>
     <use xlink:href="#DejaVuSans-69" transform="translate(500.484375 0)"/>
     <use xlink:href="#DejaVuSans-67" transform="translate(528.267578 0)"/>
     <use xlink:href="#DejaVuSans-68" transform="translate(591.744141 0)"/>
     <use xlink:href="#DejaVuSans-74" transform="translate(655.123047 0)"/>
     <use xlink:href="#DejaVuSans-63" transform="translate(694.332031 0)"/>
     <use xlink:href="#DejaVuSans-6f" transform="translate(749.3125 0)"/>
     <use xlink:href="#DejaVuSans-6e" transform="translate(810.494141 0)"/>
     <use xlink:href="#DejaVuSans-65" transform="translate(873.873047 0)"/>
     <use xlink:href="#DejaVuSans-20" transform="translate(935.396484 0)"/>
     <use xlink:href="#DejaVuSans-28" transform="translate(967.183594 0)"/>
     <use xlink:href="#DejaVuSans-43" transform="translate(1006.197266 0)"/>
     <use xlink:href="#DejaVuSans-20" transform="translate(1076.021484 0)"/>
     <use xlink:href="#DejaVuSans-3d" transform="translate(1107.808594 0)"/>
     <use xlink:href="#DejaVuSans-20" transform="translate(1191.597656 0)"/>
     <use xlink:href="#DejaVuSans-31" transform="translate(1223.384766 0)"/>
     <use xlink:href="#DejaVuSans-20" transform="translate(1287.007812 0)"/>
     <use xlink:href="#DejaVuSans-63" transform="translate(1318.794922 0)"/>
     <use xlink:href="#DejaVuSans-65" transform="translate(1373.775391 0)"/>
     <use xlink:href="#DejaVuSans-6c" transform="translate(1435.298828 0)"/>
     <use xlink:href="#DejaVuSans-6c" transform="translate(1463.082031 0)"/>
     <use xlink:href="#DejaVuSans-2f" transform="translate(1490.865234 0)"/>
     <use xlink:href="#DejaVuSans-74" transform="translate(1524.556641 0)"/>
     <use xlink:href="#DejaVuSans-69" transform="translate(1563.765625 0)"/>
     <use xlink:href="#DejaVuSans-63" transform="translate(1591.548828 0)"/>
     <use xlink:href="#DejaVuSans-6b" transform="translate(1646.529297 0)"/>
     <use xlink:href="#DejaVuSans-29" transform="translate(1704.439453 0)"/>
    </g>
   </g>
  </g>
  <g id="text_22">
   <!-- Time Dilation and Causality in TRD -->
   <g transform="translate(268.888281 17.837812) scale(0.14 -0.14)">
    <defs>
     <path id="DejaVuSans-54" d="M -19 4666 
L 3928 4666 
L 3928 4134 
L 2272 4134 
L 2272 0 
L 1638 0 
L 1638 4134 
L -19 4134 
L -19 4666 
z
" transform="scale(0.015625)"/>
     <path id="DejaVuSans-64" d="M 2906 2969 
L 2906 4863 
L 3481 4863 
L 3481 0 
L 2906 0 
L 2906 525 
Q 2725 213 2448 61 
Q 2172 -91 1784 -91 
Q 1150 -91 751 415 
Q 353 922 353 1747 
Q 353 2572 751 3078 
Q 1150 3584 1784 3584 
Q 2172 3584 2448 3432 
Q 2725 3281 2906 2969 
z
M 947 1747 
Q 947 1113 1208 752 
Q 1469 391 1925 391 
Q 2381 391 2643 752 
Q 2906 1113 2906 1747 
Q 2906 2381 2643 2742 
Q 2381 3103 1925 3103 
Q 1469 3103 1208 2742 
Q 947 2381 947 1747 
z
" transform="scale(0.015625)"/>
     <path id="DejaVuSans-52" d="M 2841 2188 
Q 3044 2119 3236 1894 
Q 3428 1669 3622 1275 
L 4263 0 
L 3584 0 
L 2988 1197 
Q 2756 1666 2539 1819 
Q 2322 1972 1947 1972 
L 1259 1972 
L 1259 0 
L 628 0 
L 628 4666 
L 2053 4666 
Q 2853 4666 3247 4331 
Q 3641 3997 3641 3322 
Q 3641 2881 3436 2590 
Q 3231 2300 2841 2188 
z
M 1259 4147 
L 1259 2491 
L 2053 2491 
Q 2509 2491 2742 2702 
Q 2975 2913 2975 3322 
Q 2975 3731 2742 3939 
Q 2509 4147 2053 4147 
L 1259 4147 
z
" transform="scale(0.015625)"/>
    </defs>
    <use xlink:href="#DejaVuSans-54"/>
    <use xlink:href="#DejaVuSans-69" transform="translate(57.958984 0)"/>
    <use xlink:href="#DejaVuSans-6d" transform="translate(85.742188 0)"/>
    <use xlink:href="#DejaVuSans-65" transform="translate(183.154297 0)"/>
    <use xlink:href="#DejaVuSans-20" transform="translate(244.677734 0)"/>
    <use xlink:href="#DejaVuSans-44" transform="translate(276.464844 0)"/>
    <use xlink:href="#DejaVuSans-69" transform="translate(353.466797 0)"/>
    <use xlink:href="#DejaVuSans-6c" transform="translate(381.25 0)"/>
    <use xlink:href="#DejaVuSans-61" transform="translate(409.033203 0)"/>
    <use xlink:href="#DejaVuSans-74" transform="translate(470.3125 0)"/>
    <use xlink:href="#DejaVuSans-69" transform="translate(509.521484 0)"/>
    <use xlink:href="#DejaVuSans-6f" transform="translate(537.304688 0)"/>
    <use xlink:href="#DejaVuSans-6e" transform="translate(598.486328 0)"/>
    <use xlink:href="#DejaVuSans-20" transform="translate(661.865234 0)"/>
    <use xlink:href="#DejaVuSans-61" transform="translate(693.652344 0)"/>
    <use xlink:href="#DejaVuSans-6e" transform="translate(754.931641 0)"/>
    <use xlink:href="#DejaVuSans-64" transform="translate(818.310547 0)"/>
    <use xlink:href="#DejaVuSans-20" transform="translate(881.787109 0)"/>
    <use xlink:href="#DejaVuSans-43" transform="translate(913.574219 0)"/>
    <use xlink:href="#DejaVuSans-61" transform="translate(983.398438 0)"/>
    <use xlink:href="#DejaVuSans-75" transform="translate(1044.677734 0)"/>
    <use xlink:href="#DejaVuSans-73" transform="translate(1108.056641 0)"/>
    <use xlink:href="#DejaVuSans-61" transform="translate(1160.15625 0)"/>
    <use xlink:href="#DejaVuSans-6c" transform="translate(1221.435547 0)"/>
    <use xlink:href="#DejaVuSans-69" transform="translate(1249.21875 0)"/>
    <use xlink:href="#DejaVuSans-74" transform="translate(1277.001953 0)"/>
    <use xlink:href="#DejaVuSans-79" transform="translate(1316.210938 0)"/>
    <use xlink:href="#DejaVuSans-20" transform="translate(1375.390625 0)"/>
    <use xlink:href="#DejaVuSans-69" transform="translate(1407.177734 0)"/>
    <use xlink:href="#DejaVuSans-6e" transform="translate(1434.960938 0)"/>
    <use xlink:href="#DejaVuSans-20" transform="translate(1498.339844 0)"/>
    <use xlink:href="#DejaVuSans-54" transform="translate(1530.126953 0)"/>
    <use xlink:href="#DejaVuSans-52" transform="translate(1591.210938 0)"/>
    <use xlink:href="#DejaVuSans-44" transform="translate(1660.693359 0)"/>
   </g>
  </g>
 </g>
 <defs>
  <clipPath id="p6af592f1b6">
   <rect x="43.803125" y="71.728" width="360.56" height="250.44"/>
  </clipPath>
  <clipPath id="p32197af3ad">
   <rect x="415.163125" y="96.792444" width="360.56" height="200.311111"/>
  </clipPath>
 </defs>
</svg>
