<?xml version="1.0" encoding="utf-8" standalone="no"?>
<!DOCTYPE svg PUBLIC "-//W3C//DTD SVG 1.1//EN"
  "http://www.w3.org/Graphics/SVG/1.1/DTD/svg11.dtd">
<svg xmlns:xlink="http://www.w3.org/1999/xlink" width="712.8pt" height="410.477812pt" viewBox="0 0 712.8 410.477812" xmlns="http://www.w3.org/2000/svg" version="1.1">
 <metadata>
  <rdf:RDF xmlns:dc="http://purl.org/dc/elements/1.1/" xmlns:cc="http://creativecommons.org/ns#" xmlns:rdf="http://www.w3.org/1999/02/22-rdf-syntax-ns#">
   <cc:Work>
    <dc:type rdf:resource="http://purl.org/dc/dcmitype/StillImage"/>
    <dc:date>2026-01-02T18:44:31.825376</dc:date>
    <dc:format>image/svg+xml</dc:format>
    <dc:creator>
     <cc:Agent>
      <dc:title>Matplotlib v3.10.8, https://matplotlib.org/</dc:title>
     </cc:Agent>
    </dc:creator>
   </cc:Work>
  </rdf:RDF>
 </metadata>
 <defs>
  <style type="text/css">*{stroke-linejoin: round; stroke-linecap: butt}</style>
 </defs>
 <g id="figure_1">
  <g id="patch_1">
   <path d="M 0 410.477812 
L 712.8 410.477812 
L 712.8 0 
L 0 0 
z
" style="fill: #ffffff"/>
  </g>
  <g id="axes_1">
   <g id="patch_2">
    <path d="M 49.104 200.770612 
L 663.696 200.770612 
Q 665.0928 200.770612 665.0928 199.535812 
L 665.0928 69.881812 
Q 665.0928 68.647012 663.696 68.647012 
L 49.104 68.647012 
Q 47.7072 68.647012 47.7072 69.881812 
L 47.7072 199.535812 
Q 47.7072 200.770612 49.104 200.770612 
z
" clip-path="url(#p326a4bbfb7)" style="fill: #f39c12; opacity: 0.08; stroke: #f39c12; stroke-width: 2.5; stroke-linejoin: miter"/>
   </g>
   <g id="patch_3">
    <path d="M 49.104 367.468612 
L 663.696 367.468612 
Q 665.0928 367.468612 665.0928 366.233812 
L 665.0928 236.579812 
Q 665.0928 235.345012 663.696 235.345012 
L 49.104 235.345012 
Q 47.7072 235.345012 47.7072 236.579812 
L 47.7072 366.233812 
Q 47.7072 367.468612 49.104 367.468612 
z
" clip-path="url(#p326a4bbfb7)" style="fill: #95a5a6; opacity: 0.1; stroke: #95a5a6; stroke-width: 2.5; stroke-linejoin: miter"/>
   </g>
   <g id="patch_4">
    <path d="M 235.677552 161.562365 
L 227.797658 157.575525 
L 230.536801 155.710996 
L 222.855867 146.892708 
L 222.911203 146.855041 
L 230.592137 155.673329 
L 233.33128 153.8088 
z
" clip-path="url(#p326a4bbfb7)" style="fill: #f39c12; opacity: 0.75; stroke: #f39c12; stroke-linejoin: miter"/>
   </g>
   <g id="patch_5">
    <path d="M 390.105479 126.705886 
L 392.060173 118.867906 
L 394.890225 120.623128 
L 402.519171 111.010292 
L 402.576344 111.045751 
L 394.947398 120.658587 
L 397.77745 122.41381 
z
" clip-path="url(#p326a4bbfb7)" style="fill: #f39c12; opacity: 0.75; stroke: #f39c12; stroke-linejoin: miter"/>
   </g>
   <g id="patch_6">
    <path d="M 232.963528 131.812464 
L 228.057363 125.05902 
L 231.460983 124.523641 
L 229.938961 116.961836 
L 230.007721 116.95102 
L 231.529743 124.512825 
L 234.933363 123.977446 
z
" clip-path="url(#p326a4bbfb7)" style="fill: #f39c12; opacity: 0.75; stroke: #f39c12; stroke-linejoin: miter"/>
   </g>
   <g id="patch_7">
    <path d="M 307.56654 106.680067 
L 314.79105 111.541241 
L 311.80026 113.074087 
L 313.687712 115.952069 
L 313.627292 115.983035 
L 311.73984 113.105054 
L 308.74905 114.637899 
z
" clip-path="url(#p326a4bbfb7)" style="fill: #f39c12; opacity: 0.75; stroke: #f39c12; stroke-linejoin: miter"/>
   </g>
   <g id="patch_8">
    <path d="M 592.130321 128.578609 
L 591.574891 120.567442 
L 594.841407 121.568094 
L 597.490529 114.809935 
L 597.55652 114.83015 
L 594.907397 121.588309 
L 598.173913 122.588962 
z
" clip-path="url(#p326a4bbfb7)" style="fill: #f39c12; opacity: 0.75; stroke: #f39c12; stroke-linejoin: miter"/>
   </g>
   <g id="patch_9">
    <path d="M 284.068767 118.934819 
L 279.228042 125.725067 
L 277.237218 123.226551 
L 267.674495 129.181212 
L 267.634277 129.130737 
L 277.196999 123.176076 
L 275.206176 120.67756 
z
" clip-path="url(#p326a4bbfb7)" style="fill: #f39c12; opacity: 0.75; stroke: #f39c12; stroke-linejoin: miter"/>
   </g>
   <g id="patch_10">
    <path d="M 250.935735 83.206638 
L 255.633343 90.074992 
L 252.214579 90.52874 
L 252.925658 94.715675 
L 252.856592 94.724842 
L 252.145514 90.537907 
L 248.72675 90.991656 
z
" clip-path="url(#p326a4bbfb7)" style="fill: #f39c12; opacity: 0.75; stroke: #f39c12; stroke-linejoin: miter"/>
   </g>
   <g id="patch_11">
    <path d="M 128.505959 148.876674 
L 136.400978 152.840059 
L 133.668946 154.712723 
L 140.95552 163.020296 
L 140.900328 163.058127 
L 133.613753 154.750554 
L 130.881721 156.623218 
z
" clip-path="url(#p326a4bbfb7)" style="fill: #f39c12; opacity: 0.75; stroke: #f39c12; stroke-linejoin: miter"/>
   </g>
   <g id="patch_12">
    <path d="M 455.423942 107.014144 
L 446.49063 105.581102 
L 448.368677 103.015257 
L 444.838077 100.995732 
L 444.876017 100.943897 
L 448.406617 102.963422 
L 450.284664 100.397577 
z
" clip-path="url(#p326a4bbfb7)" style="fill: #f39c12; opacity: 0.75; stroke: #f39c12; stroke-linejoin: miter"/>
   </g>
   <g id="patch_13">
    <path d="M 375.328354 124.872279 
L 366.479464 126.668608 
L 367.061176 123.656054 
L 358.209564 122.320319 
L 358.221316 122.259459 
L 367.072928 123.595194 
L 367.65464 120.58264 
z
" clip-path="url(#p326a4bbfb7)" style="fill: #f39c12; opacity: 0.75; stroke: #f39c12; stroke-linejoin: miter"/>
   </g>
   <g id="patch_14">
    <path d="M 574.04221 120.685854 
L 565.640945 123.729072 
L 565.66135 120.672996 
L 557.610568 120.630989 
L 557.610981 120.56925 
L 565.661762 120.611257 
L 565.682166 117.55518 
z
" clip-path="url(#p326a4bbfb7)" style="fill: #f39c12; opacity: 0.75; stroke: #f39c12; stroke-linejoin: miter"/>
   </g>
   <g id="patch_15">
    <path d="M 452.831589 157.012458 
L 448.678809 149.87505 
L 452.124756 149.629991 
L 451.566737 143.497862 
L 451.636352 143.492911 
L 452.194372 149.62504 
L 455.640319 149.37998 
z
" clip-path="url(#p326a4bbfb7)" style="fill: #f39c12; opacity: 0.75; stroke: #f39c12; stroke-linejoin: miter"/>
   </g>
   <g id="patch_16">
    <path d="M 150.604625 171.039142 
L 141.67588 172.494259 
L 142.404949 169.506863 
L 137.468496 168.565373 
L 137.483225 168.505021 
L 142.419678 169.446512 
L 143.148748 166.459116 
z
" clip-path="url(#p326a4bbfb7)" style="fill: #f39c12; opacity: 0.75; stroke: #f39c12; stroke-linejoin: miter"/>
   </g>
   <g id="patch_17">
    <path d="M 555.742474 84.705416 
L 561.111767 91.177665 
L 557.752123 91.898126 
L 560.560857 102.13385 
L 560.492986 102.148405 
L 557.684251 91.91268 
L 554.324607 92.633141 
z
" clip-path="url(#p326a4bbfb7)" style="fill: #f39c12; opacity: 0.75; stroke: #f39c12; stroke-linejoin: miter"/>
   </g>
   <g id="patch_18">
    <path d="M 393.564232 121.56829 
L 392.672825 113.580868 
L 395.979105 114.473651 
L 398.247646 107.908186 
L 398.314439 107.926222 
L 396.045898 114.491687 
L 399.352177 115.384469 
z
" clip-path="url(#p326a4bbfb7)" style="fill: #f39c12; opacity: 0.75; stroke: #f39c12; stroke-linejoin: miter"/>
   </g>
   <g id="patch_19">
    <path d="M 179.907235 172.176373 
L 174.364924 165.819123 
L 177.704183 165.028062 
L 175.166761 156.657445 
L 175.234221 156.641464 
L 177.771643 165.012081 
L 181.110903 164.221019 
z
" clip-path="url(#p326a4bbfb7)" style="fill: #f39c12; opacity: 0.75; stroke: #f39c12; stroke-linejoin: miter"/>
   </g>
   <g id="patch_20">
    <path d="M 76.482559 104.29822 
L 84.37279 100.32739 
L 84.796037 103.36053 
L 94.588032 102.292711 
L 94.596582 102.353986 
L 84.804588 103.421805 
L 85.227835 106.454945 
z
" clip-path="url(#p326a4bbfb7)" style="fill: #f39c12; opacity: 0.75; stroke: #f39c12; stroke-linejoin: miter"/>
   </g>
   <g id="patch_21">
    <path d="M 343.486283 103.194692 
L 346.90121 110.631515 
L 343.444275 110.603463 
L 343.346145 120.054011 
L 343.276308 120.053444 
L 343.374438 110.602896 
L 339.917504 110.574844 
z
" clip-path="url(#p326a4bbfb7)" style="fill: #f39c12; opacity: 0.75; stroke: #f39c12; stroke-linejoin: miter"/>
   </g>
   <g id="patch_22">
    <path d="M 230.688 321.163612 
C 234.762793 321.163612 238.671241 319.732443 241.552554 317.185302 
C 244.433868 314.638162 246.0528 311.183013 246.0528 307.580812 
C 246.0528 303.978612 244.433868 300.523463 241.552554 297.976323 
C 238.671241 295.429182 234.762793 293.998012 230.688 293.998012 
C 226.613207 293.998012 222.704759 295.429182 219.823446 297.976323 
C 216.942132 300.523463 215.3232 303.978612 215.3232 307.580812 
C 215.3232 311.183013 216.942132 314.638162 219.823446 317.185302 
C 222.704759 319.732443 226.613207 321.163612 230.688 321.163612 
z
" clip-path="url(#p326a4bbfb7)" style="fill: #e74c3c; opacity: 0.85; stroke: #e74c3c; stroke-width: 1.5; stroke-linejoin: miter"/>
   </g>
   <g id="patch_23">
    <path d="M 293.544 336.598612 
C 297.618793 336.598612 301.527241 335.167443 304.408554 332.620302 
C 307.289868 330.073162 308.9088 326.618013 308.9088 323.015812 
C 308.9088 319.413612 307.289868 315.958463 304.408554 313.411323 
C 301.527241 310.864182 297.618793 309.433012 293.544 309.433012 
C 289.469207 309.433012 285.560759 310.864182 282.679446 313.411323 
C 279.798132 315.958463 278.1792 319.413612 278.1792 323.015812 
C 278.1792 326.618013 279.798132 330.073162 282.679446 332.620302 
C 285.560759 335.167443 289.469207 336.598612 293.544 336.598612 
z
" clip-path="url(#p326a4bbfb7)" style="fill: #3498db; opacity: 0.85; stroke: #3498db; stroke-width: 1.5; stroke-linejoin: miter"/>
   </g>
   <g id="patch_24">
    <path d="M 363.384 321.163612 
C 367.458793 321.163612 371.367241 319.732443 374.248554 317.185302 
C 377.129868 314.638162 378.7488 311.183013 378.7488 307.580812 
C 378.7488 303.978612 377.129868 300.523463 374.248554 297.976323 
C 371.367241 295.429182 367.458793 293.998012 363.384 293.998012 
C 359.309207 293.998012 355.400759 295.429182 352.519446 297.976323 
C 349.638132 300.523463 348.0192 303.978612 348.0192 307.580812 
C 348.0192 311.183013 349.638132 314.638162 352.519446 317.185302 
C 355.400759 319.732443 359.309207 321.163612 363.384 321.163612 
z
" clip-path="url(#p326a4bbfb7)" style="fill: #e74c3c; opacity: 0.85; stroke: #e74c3c; stroke-width: 1.5; stroke-linejoin: miter"/>
   </g>
   <g id="line2d_1">
    <path d="M 230.688 307.580812 
L 293.544 323.015812 
" clip-path="url(#p326a4bbfb7)" style="fill: none; stroke: #2ecc71; stroke-opacity: 0.6; stroke-width: 2.5; stroke-linecap: square"/>
   </g>
   <g id="line2d_2">
    <path d="M 293.544 323.015812 
L 363.384 307.580812 
" clip-path="url(#p326a4bbfb7)" style="fill: none; stroke: #2ecc71; stroke-opacity: 0.6; stroke-width: 2.5; stroke-linecap: square"/>
   </g>
   <g id="text_1">
    <!-- Layer 1: Potential (pre-ontic) -->
    <g style="fill: #2c3e50" transform="translate(77.04 88.403813) scale(0.12 -0.12)">
     <defs>
      <path id="DejaVuSans-Bold-4c" d="M 588 4666 
L 1791 4666 
L 1791 909 
L 3903 909 
L 3903 0 
L 588 0 
L 588 4666 
z
" transform="scale(0.015625)"/>
      <path id="DejaVuSans-Bold-61" d="M 2106 1575 
Q 1756 1575 1579 1456 
Q 1403 1338 1403 1106 
Q 1403 894 1545 773 
Q 1688 653 1941 653 
Q 2256 653 2472 879 
Q 2688 1106 2688 1447 
L 2688 1575 
L 2106 1575 
z
M 3816 1997 
L 3816 0 
L 2688 0 
L 2688 519 
Q 2463 200 2181 54 
Q 1900 -91 1497 -91 
Q 953 -91 614 226 
Q 275 544 275 1050 
Q 275 1666 698 1953 
Q 1122 2241 2028 2241 
L 2688 2241 
L 2688 2328 
Q 2688 2594 2478 2717 
Q 2269 2841 1825 2841 
Q 1466 2841 1156 2769 
Q 847 2697 581 2553 
L 581 3406 
Q 941 3494 1303 3539 
Q 1666 3584 2028 3584 
Q 2975 3584 3395 3211 
Q 3816 2838 3816 1997 
z
" transform="scale(0.015625)"/>
      <path id="DejaVuSans-Bold-79" d="M 78 3500 
L 1197 3500 
L 2138 1125 
L 2938 3500 
L 4056 3500 
L 2584 -331 
Q 2363 -916 2067 -1148 
Q 1772 -1381 1288 -1381 
L 641 -1381 
L 641 -647 
L 991 -647 
Q 1275 -647 1404 -556 
Q 1534 -466 1606 -231 
L 1638 -134 
L 78 3500 
z
" transform="scale(0.015625)"/>
      <path id="DejaVuSans-Bold-65" d="M 4031 1759 
L 4031 1441 
L 1416 1441 
Q 1456 1047 1700 850 
Q 1944 653 2381 653 
Q 2734 653 3104 758 
Q 3475 863 3866 1075 
L 3866 213 
Q 3469 63 3072 -14 
Q 2675 -91 2278 -91 
Q 1328 -91 801 392 
Q 275 875 275 1747 
Q 275 2603 792 3093 
Q 1309 3584 2216 3584 
Q 3041 3584 3536 3087 
Q 4031 2591 4031 1759 
z
M 2881 2131 
Q 2881 2450 2695 2645 
Q 2509 2841 2209 2841 
Q 1884 2841 1681 2658 
Q 1478 2475 1428 2131 
L 2881 2131 
z
" transform="scale(0.015625)"/>
      <path id="DejaVuSans-Bold-72" d="M 3138 2547 
Q 2991 2616 2845 2648 
Q 2700 2681 2553 2681 
Q 2122 2681 1889 2404 
Q 1656 2128 1656 1613 
L 1656 0 
L 538 0 
L 538 3500 
L 1656 3500 
L 1656 2925 
Q 1872 3269 2151 3426 
Q 2431 3584 2822 3584 
Q 2878 3584 2943 3579 
Q 3009 3575 3134 3559 
L 3138 2547 
z
" transform="scale(0.015625)"/>
      <path id="DejaVuSans-Bold-20" transform="scale(0.015625)"/>
      <path id="DejaVuSans-Bold-31" d="M 750 831 
L 1813 831 
L 1813 3847 
L 722 3622 
L 722 4441 
L 1806 4666 
L 2950 4666 
L 2950 831 
L 4013 831 
L 4013 0 
L 750 0 
L 750 831 
z
" transform="scale(0.015625)"/>
      <path id="DejaVuSans-Bold-3a" d="M 716 3500 
L 1844 3500 
L 1844 2291 
L 716 2291 
L 716 3500 
z
M 716 1209 
L 1844 1209 
L 1844 0 
L 716 0 
L 716 1209 
z
" transform="scale(0.015625)"/>
      <path id="DejaVuSans-Bold-50" d="M 588 4666 
L 2584 4666 
Q 3475 4666 3951 4270 
Q 4428 3875 4428 3144 
Q 4428 2409 3951 2014 
Q 3475 1619 2584 1619 
L 1791 1619 
L 1791 0 
L 588 0 
L 588 4666 
z
M 1791 3794 
L 1791 2491 
L 2456 2491 
Q 2806 2491 2997 2661 
Q 3188 2831 3188 3144 
Q 3188 3456 2997 3625 
Q 2806 3794 2456 3794 
L 1791 3794 
z
" transform="scale(0.015625)"/>
      <path id="DejaVuSans-Bold-6f" d="M 2203 2784 
Q 1831 2784 1636 2517 
Q 1441 2250 1441 1747 
Q 1441 1244 1636 976 
Q 1831 709 2203 709 
Q 2569 709 2762 976 
Q 2956 1244 2956 1747 
Q 2956 2250 2762 2517 
Q 2569 2784 2203 2784 
z
M 2203 3584 
Q 3106 3584 3614 3096 
Q 4122 2609 4122 1747 
Q 4122 884 3614 396 
Q 3106 -91 2203 -91 
Q 1297 -91 786 396 
Q 275 884 275 1747 
Q 275 2609 786 3096 
Q 1297 3584 2203 3584 
z
" transform="scale(0.015625)"/>
      <path id="DejaVuSans-Bold-74" d="M 1759 4494 
L 1759 3500 
L 2913 3500 
L 2913 2700 
L 1759 2700 
L 1759 1216 
Q 1759 972 1856 886 
Q 1953 800 2241 800 
L 2816 800 
L 2816 0 
L 1856 0 
Q 1194 0 917 276 
Q 641 553 641 1216 
L 641 2700 
L 84 2700 
L 84 3500 
L 641 3500 
L 641 4494 
L 1759 4494 
z
" transform="scale(0.015625)"/>
      <path id="DejaVuSans-Bold-6e" d="M 4056 2131 
L 4056 0 
L 2931 0 
L 2931 347 
L 2931 1631 
Q 2931 2084 2911 2256 
Q 2891 2428 2841 2509 
Q 2775 2619 2662 2680 
Q 2550 2741 2406 2741 
Q 2056 2741 1856 2470 
Q 1656 2200 1656 1722 
L 1656 0 
L 538 0 
L 538 3500 
L 1656 3500 
L 1656 2988 
Q 1909 3294 2193 3439 
Q 2478 3584 2822 3584 
Q 3428 3584 3742 3212 
Q 4056 2841 4056 2131 
z
" transform="scale(0.015625)"/>
      <path id="DejaVuSans-Bold-69" d="M 538 3500 
L 1656 3500 
L 1656 0 
L 538 0 
L 538 3500 
z
M 538 4863 
L 1656 4863 
L 1656 3950 
L 538 3950 
L 538 4863 
z
" transform="scale(0.015625)"/>
      <path id="DejaVuSans-Bold-6c" d="M 538 4863 
L 1656 4863 
L 1656 0 
L 538 0 
L 538 4863 
z
" transform="scale(0.015625)"/>
      <path id="DejaVuSans-Bold-28" d="M 2413 -844 
L 1484 -844 
Q 1006 -72 778 623 
Q 550 1319 550 2003 
Q 550 2688 779 3389 
Q 1009 4091 1484 4856 
L 2413 4856 
Q 2013 4116 1813 3408 
Q 1613 2700 1613 2009 
Q 1613 1319 1811 609 
Q 2009 -100 2413 -844 
z
" transform="scale(0.015625)"/>
      <path id="DejaVuSans-Bold-70" d="M 1656 506 
L 1656 -1331 
L 538 -1331 
L 538 3500 
L 1656 3500 
L 1656 2988 
Q 1888 3294 2169 3439 
Q 2450 3584 2816 3584 
Q 3463 3584 3878 3070 
Q 4294 2556 4294 1747 
Q 4294 938 3878 423 
Q 3463 -91 2816 -91 
Q 2450 -91 2169 54 
Q 1888 200 1656 506 
z
M 2400 2772 
Q 2041 2772 1848 2508 
Q 1656 2244 1656 1747 
Q 1656 1250 1848 986 
Q 2041 722 2400 722 
Q 2759 722 2948 984 
Q 3138 1247 3138 1747 
Q 3138 2247 2948 2509 
Q 2759 2772 2400 2772 
z
" transform="scale(0.015625)"/>
      <path id="DejaVuSans-Bold-2d" d="M 347 2297 
L 2309 2297 
L 2309 1388 
L 347 1388 
L 347 2297 
z
" transform="scale(0.015625)"/>
      <path id="DejaVuSans-Bold-63" d="M 3366 3391 
L 3366 2478 
Q 3138 2634 2908 2709 
Q 2678 2784 2431 2784 
Q 1963 2784 1702 2511 
Q 1441 2238 1441 1747 
Q 1441 1256 1702 982 
Q 1963 709 2431 709 
Q 2694 709 2930 787 
Q 3166 866 3366 1019 
L 3366 103 
Q 3103 6 2833 -42 
Q 2563 -91 2291 -91 
Q 1344 -91 809 395 
Q 275 881 275 1747 
Q 275 2613 809 3098 
Q 1344 3584 2291 3584 
Q 2566 3584 2833 3536 
Q 3100 3488 3366 3391 
z
" transform="scale(0.015625)"/>
      <path id="DejaVuSans-Bold-29" d="M 513 -844 
Q 913 -100 1113 609 
Q 1313 1319 1313 2009 
Q 1313 2700 1113 3408 
Q 913 4116 513 4856 
L 1441 4856 
Q 1916 4091 2145 3389 
Q 2375 2688 2375 2003 
Q 2375 1319 2147 623 
Q 1919 -72 1441 -844 
L 513 -844 
z
" transform="scale(0.015625)"/>
     </defs>
     <use xlink:href="#DejaVuSans-Bold-4c"/>
     <use xlink:href="#DejaVuSans-Bold-61" transform="translate(63.720703 0)"/>
     <use xlink:href="#DejaVuSans-Bold-79" transform="translate(128.076172 0)"/>
     <use xlink:href="#DejaVuSans-Bold-65" transform="translate(193.261719 0)"/>
     <use xlink:href="#DejaVuSans-Bold-72" transform="translate(261.083984 0)"/>
     <use xlink:href="#DejaVuSans-Bold-20" transform="translate(310.400391 0)"/>
     <use xlink:href="#DejaVuSans-Bold-31" transform="translate(345.214844 0)"/>
     <use xlink:href="#DejaVuSans-Bold-3a" transform="translate(414.794922 0)"/>
     <use xlink:href="#DejaVuSans-Bold-20" transform="translate(454.785156 0)"/>
     <use xlink:href="#DejaVuSans-Bold-50" transform="translate(489.599609 0)"/>
     <use xlink:href="#DejaVuSans-Bold-6f" transform="translate(562.890625 0)"/>
     <use xlink:href="#DejaVuSans-Bold-74" transform="translate(631.591797 0)"/>
     <use xlink:href="#DejaVuSans-Bold-65" transform="translate(679.394531 0)"/>
     <use xlink:href="#DejaVuSans-Bold-6e" transform="translate(747.216797 0)"/>
     <use xlink:href="#DejaVuSans-Bold-74" transform="translate(818.408203 0)"/>
     <use xlink:href="#DejaVuSans-Bold-69" transform="translate(866.210938 0)"/>
     <use xlink:href="#DejaVuSans-Bold-61" transform="translate(900.488281 0)"/>
     <use xlink:href="#DejaVuSans-Bold-6c" transform="translate(967.96875 0)"/>
     <use xlink:href="#DejaVuSans-Bold-20" transform="translate(1002.246094 0)"/>
     <use xlink:href="#DejaVuSans-Bold-28" transform="translate(1037.060547 0)"/>
     <use xlink:href="#DejaVuSans-Bold-70" transform="translate(1082.763672 0)"/>
     <use xlink:href="#DejaVuSans-Bold-72" transform="translate(1154.345703 0)"/>
     <use xlink:href="#DejaVuSans-Bold-65" transform="translate(1203.662109 0)"/>
     <use xlink:href="#DejaVuSans-Bold-2d" transform="translate(1271.484375 0)"/>
     <use xlink:href="#DejaVuSans-Bold-6f" transform="translate(1312.988281 0)"/>
     <use xlink:href="#DejaVuSans-Bold-6e" transform="translate(1381.689453 0)"/>
     <use xlink:href="#DejaVuSans-Bold-74" transform="translate(1452.880859 0)"/>
     <use xlink:href="#DejaVuSans-Bold-69" transform="translate(1500.683594 0)"/>
     <use xlink:href="#DejaVuSans-Bold-63" transform="translate(1534.960938 0)"/>
     <use xlink:href="#DejaVuSans-Bold-29" transform="translate(1594.238281 0)"/>
    </g>
   </g>
   <g id="text_2">
    <!-- Layer 2: Manifestation (ontic) -->
    <g style="fill: #2c3e50" transform="translate(77.04 255.101812) scale(0.12 -0.12)">
     <defs>
      <path id="DejaVuSans-Bold-32" d="M 1844 884 
L 3897 884 
L 3897 0 
L 506 0 
L 506 884 
L 2209 2388 
Q 2438 2594 2547 2791 
Q 2656 2988 2656 3200 
Q 2656 3528 2436 3728 
Q 2216 3928 1850 3928 
Q 1569 3928 1234 3808 
Q 900 3688 519 3450 
L 519 4475 
Q 925 4609 1322 4679 
Q 1719 4750 2100 4750 
Q 2938 4750 3402 4381 
Q 3866 4013 3866 3353 
Q 3866 2972 3669 2642 
Q 3472 2313 2841 1759 
L 1844 884 
z
" transform="scale(0.015625)"/>
      <path id="DejaVuSans-Bold-4d" d="M 588 4666 
L 2119 4666 
L 3181 2169 
L 4250 4666 
L 5778 4666 
L 5778 0 
L 4641 0 
L 4641 3413 
L 3566 897 
L 2803 897 
L 1728 3413 
L 1728 0 
L 588 0 
L 588 4666 
z
" transform="scale(0.015625)"/>
      <path id="DejaVuSans-Bold-66" d="M 2841 4863 
L 2841 4128 
L 2222 4128 
Q 1984 4128 1890 4042 
Q 1797 3956 1797 3744 
L 1797 3500 
L 2753 3500 
L 2753 2700 
L 1797 2700 
L 1797 0 
L 678 0 
L 678 2700 
L 122 2700 
L 122 3500 
L 678 3500 
L 678 3744 
Q 678 4316 997 4589 
Q 1316 4863 1984 4863 
L 2841 4863 
z
" transform="scale(0.015625)"/>
      <path id="DejaVuSans-Bold-73" d="M 3272 3391 
L 3272 2541 
Q 2913 2691 2578 2766 
Q 2244 2841 1947 2841 
Q 1628 2841 1473 2761 
Q 1319 2681 1319 2516 
Q 1319 2381 1436 2309 
Q 1553 2238 1856 2203 
L 2053 2175 
Q 2913 2066 3209 1816 
Q 3506 1566 3506 1031 
Q 3506 472 3093 190 
Q 2681 -91 1863 -91 
Q 1516 -91 1145 -36 
Q 775 19 384 128 
L 384 978 
Q 719 816 1070 734 
Q 1422 653 1784 653 
Q 2113 653 2278 743 
Q 2444 834 2444 1013 
Q 2444 1163 2330 1236 
Q 2216 1309 1875 1350 
L 1678 1375 
Q 931 1469 631 1722 
Q 331 1975 331 2491 
Q 331 3047 712 3315 
Q 1094 3584 1881 3584 
Q 2191 3584 2531 3537 
Q 2872 3491 3272 3391 
z
" transform="scale(0.015625)"/>
     </defs>
     <use xlink:href="#DejaVuSans-Bold-4c"/>
     <use xlink:href="#DejaVuSans-Bold-61" transform="translate(63.720703 0)"/>
     <use xlink:href="#DejaVuSans-Bold-79" transform="translate(128.076172 0)"/>
     <use xlink:href="#DejaVuSans-Bold-65" transform="translate(193.261719 0)"/>
     <use xlink:href="#DejaVuSans-Bold-72" transform="translate(261.083984 0)"/>
     <use xlink:href="#DejaVuSans-Bold-20" transform="translate(310.400391 0)"/>
     <use xlink:href="#DejaVuSans-Bold-32" transform="translate(345.214844 0)"/>
     <use xlink:href="#DejaVuSans-Bold-3a" transform="translate(414.794922 0)"/>
     <use xlink:href="#DejaVuSans-Bold-20" transform="translate(454.785156 0)"/>
     <use xlink:href="#DejaVuSans-Bold-4d" transform="translate(489.599609 0)"/>
     <use xlink:href="#DejaVuSans-Bold-61" transform="translate(589.111328 0)"/>
     <use xlink:href="#DejaVuSans-Bold-6e" transform="translate(656.591797 0)"/>
     <use xlink:href="#DejaVuSans-Bold-69" transform="translate(727.783203 0)"/>
     <use xlink:href="#DejaVuSans-Bold-66" transform="translate(762.060547 0)"/>
     <use xlink:href="#DejaVuSans-Bold-65" transform="translate(805.566406 0)"/>
     <use xlink:href="#DejaVuSans-Bold-73" transform="translate(873.388672 0)"/>
     <use xlink:href="#DejaVuSans-Bold-74" transform="translate(932.910156 0)"/>
     <use xlink:href="#DejaVuSans-Bold-61" transform="translate(980.712891 0)"/>
     <use xlink:href="#DejaVuSans-Bold-74" transform="translate(1048.193359 0)"/>
     <use xlink:href="#DejaVuSans-Bold-69" transform="translate(1095.996094 0)"/>
     <use xlink:href="#DejaVuSans-Bold-6f" transform="translate(1130.273438 0)"/>
     <use xlink:href="#DejaVuSans-Bold-6e" transform="translate(1198.974609 0)"/>
     <use xlink:href="#DejaVuSans-Bold-20" transform="translate(1270.166016 0)"/>
     <use xlink:href="#DejaVuSans-Bold-28" transform="translate(1304.980469 0)"/>
     <use xlink:href="#DejaVuSans-Bold-6f" transform="translate(1350.683594 0)"/>
     <use xlink:href="#DejaVuSans-Bold-6e" transform="translate(1419.384766 0)"/>
     <use xlink:href="#DejaVuSans-Bold-74" transform="translate(1490.576172 0)"/>
     <use xlink:href="#DejaVuSans-Bold-69" transform="translate(1538.378906 0)"/>
     <use xlink:href="#DejaVuSans-Bold-63" transform="translate(1572.65625 0)"/>
     <use xlink:href="#DejaVuSans-Bold-29" transform="translate(1631.933594 0)"/>
    </g>
   </g>
   <g id="text_3">
    <!-- flux field $\mathbf{J}$ -->
    <g style="fill: #f39c12" transform="translate(497.744 91.490813) scale(0.08 -0.08)">
     <defs>
      <path id="DejaVuSans-66" d="M 2375 4863 
L 2375 4384 
L 1825 4384 
Q 1516 4384 1395 4259 
Q 1275 4134 1275 3809 
L 1275 3500 
L 2222 3500 
L 2222 3053 
L 1275 3053 
L 1275 0 
L 697 0 
L 697 3053 
L 147 3053 
L 147 3500 
L 697 3500 
L 697 3744 
Q 697 4328 969 4595 
Q 1241 4863 1831 4863 
L 2375 4863 
z
" transform="scale(0.015625)"/>
      <path id="DejaVuSans-6c" d="M 603 4863 
L 1178 4863 
L 1178 0 
L 603 0 
L 603 4863 
z
" transform="scale(0.015625)"/>
      <path id="DejaVuSans-75" d="M 544 1381 
L 544 3500 
L 1119 3500 
L 1119 1403 
Q 1119 906 1312 657 
Q 1506 409 1894 409 
Q 2359 409 2629 706 
Q 2900 1003 2900 1516 
L 2900 3500 
L 3475 3500 
L 3475 0 
L 2900 0 
L 2900 538 
Q 2691 219 2414 64 
Q 2138 -91 1772 -91 
Q 1169 -91 856 284 
Q 544 659 544 1381 
z
M 1991 3584 
L 1991 3584 
z
" transform="scale(0.015625)"/>
      <path id="DejaVuSans-78" d="M 3513 3500 
L 2247 1797 
L 3578 0 
L 2900 0 
L 1881 1375 
L 863 0 
L 184 0 
L 1544 1831 
L 300 3500 
L 978 3500 
L 1906 2253 
L 2834 3500 
L 3513 3500 
z
" transform="scale(0.015625)"/>
      <path id="DejaVuSans-20" transform="scale(0.015625)"/>
      <path id="DejaVuSans-69" d="M 603 3500 
L 1178 3500 
L 1178 0 
L 603 0 
L 603 3500 
z
M 603 4863 
L 1178 4863 
L 1178 4134 
L 603 4134 
L 603 4863 
z
" transform="scale(0.015625)"/>
      <path id="DejaVuSans-65" d="M 3597 1894 
L 3597 1613 
L 953 1613 
Q 991 1019 1311 708 
Q 1631 397 2203 397 
Q 2534 397 2845 478 
Q 3156 559 3463 722 
L 3463 178 
Q 3153 47 2828 -22 
Q 2503 -91 2169 -91 
Q 1331 -91 842 396 
Q 353 884 353 1716 
Q 353 2575 817 3079 
Q 1281 3584 2069 3584 
Q 2775 3584 3186 3129 
Q 3597 2675 3597 1894 
z
M 3022 2063 
Q 3016 2534 2758 2815 
Q 2500 3097 2075 3097 
Q 1594 3097 1305 2825 
Q 1016 2553 972 2059 
L 3022 2063 
z
" transform="scale(0.015625)"/>
      <path id="DejaVuSans-64" d="M 2906 2969 
L 2906 4863 
L 3481 4863 
L 3481 0 
L 2906 0 
L 2906 525 
Q 2725 213 2448 61 
Q 2172 -91 1784 -91 
Q 1150 -91 751 415 
Q 353 922 353 1747 
Q 353 2572 751 3078 
Q 1150 3584 1784 3584 
Q 2172 3584 2448 3432 
Q 2725 3281 2906 2969 
z
M 947 1747 
Q 947 1113 1208 752 
Q 1469 391 1925 391 
Q 2381 391 2643 752 
Q 2906 1113 2906 1747 
Q 2906 2381 2643 2742 
Q 2381 3103 1925 3103 
Q 1469 3103 1208 2742 
Q 947 2381 947 1747 
z
" transform="scale(0.015625)"/>
      <path id="DejaVuSans-Bold-4a" d="M 588 4666 
L 1791 4666 
L 1791 453 
Q 1791 -419 1317 -850 
Q 844 -1281 -116 -1281 
L -359 -1281 
L -359 -372 
L -172 -372 
Q 203 -372 395 -162 
Q 588 47 588 453 
L 588 4666 
z
" transform="scale(0.015625)"/>
     </defs>
     <use xlink:href="#DejaVuSans-66" transform="translate(0 0.015625)"/>
     <use xlink:href="#DejaVuSans-6c" transform="translate(35.205078 0.015625)"/>
     <use xlink:href="#DejaVuSans-75" transform="translate(62.988281 0.015625)"/>
     <use xlink:href="#DejaVuSans-78" transform="translate(126.367188 0.015625)"/>
     <use xlink:href="#DejaVuSans-20" transform="translate(185.546875 0.015625)"/>
     <use xlink:href="#DejaVuSans-66" transform="translate(217.333984 0.015625)"/>
     <use xlink:href="#DejaVuSans-69" transform="translate(252.539062 0.015625)"/>
     <use xlink:href="#DejaVuSans-65" transform="translate(280.322266 0.015625)"/>
     <use xlink:href="#DejaVuSans-6c" transform="translate(341.845703 0.015625)"/>
     <use xlink:href="#DejaVuSans-64" transform="translate(369.628906 0.015625)"/>
     <use xlink:href="#DejaVuSans-20" transform="translate(433.105469 0.015625)"/>
     <use xlink:href="#DejaVuSans-Bold-4a" transform="translate(464.892578 0.015625)"/>
    </g>
   </g>
   <g id="patch_25">
    <path d="M 356.4 204.623785 
Q 356.4 218.05923 356.4 228.699591 
" style="fill: none; stroke: #9b59b6; stroke-width: 2.5; stroke-linecap: round"/>
    <path d="M 358.4 224.699591 
L 356.4 228.699591 
L 354.4 224.699591 
" style="fill: none; stroke: #9b59b6; stroke-width: 2.5; stroke-linecap: round"/>
   </g>
   <g id="text_4">
    <!-- $\rho \geq K_B$ -->
    <g style="fill: #9b59b6" transform="translate(363.384 219.014262) scale(0.08 -0.08)">
     <defs>
      <path id="DejaVuSans-Oblique-3c1" d="M 1203 2875 
Q 1453 3194 1981 3475 
Q 2188 3584 2756 3584 
Q 3394 3584 3694 3078 
Q 3994 2572 3834 1747 
Q 3672 922 3175 415 
Q 2678 -91 2041 -91 
Q 1656 -91 1409 63 
Q 1163 213 1044 525 
L 681 -1331 
L 103 -1331 
L 697 1716 
Q 838 2438 1203 2875 
z
M 3238 1747 
Q 3359 2381 3169 2744 
Q 2978 3103 2522 3103 
Q 2066 3103 1734 2744 
Q 1403 2381 1281 1747 
Q 1156 1113 1347 750 
Q 1538 391 1994 391 
Q 2450 391 2781 750 
Q 3113 1113 3238 1747 
z
" transform="scale(0.015625)"/>
      <path id="DejaVuSans-2265" d="M 678 3175 
L 678 3725 
L 4684 2578 
L 4684 2047 
L 678 897 
L 678 1453 
L 3681 2309 
L 678 3175 
z
M 4684 531 
L 4684 0 
L 678 0 
L 678 531 
L 4684 531 
z
" transform="scale(0.015625)"/>
      <path id="DejaVuSans-Oblique-4b" d="M 1081 4666 
L 1716 4666 
L 1331 2700 
L 3781 4666 
L 4622 4666 
L 1850 2438 
L 3878 0 
L 3109 0 
L 1247 2272 
L 806 0 
L 172 0 
L 1081 4666 
z
" transform="scale(0.015625)"/>
      <path id="DejaVuSans-Oblique-42" d="M 1081 4666 
L 2694 4666 
Q 3350 4666 3675 4422 
Q 4000 4178 4000 3688 
Q 4000 3238 3720 2911 
Q 3441 2584 2988 2516 
Q 3375 2428 3569 2181 
Q 3763 1934 3763 1522 
Q 3763 819 3242 409 
Q 2722 0 1819 0 
L 172 0 
L 1081 4666 
z
M 1234 2228 
L 903 519 
L 1919 519 
Q 2491 519 2800 781 
Q 3109 1044 3109 1522 
Q 3109 1891 2904 2059 
Q 2700 2228 2247 2228 
L 1234 2228 
z
M 1606 4147 
L 1331 2741 
L 2272 2741 
Q 2775 2741 3058 2959 
Q 3341 3178 3341 3566 
Q 3341 3869 3150 4008 
Q 2959 4147 2541 4147 
L 1606 4147 
z
" transform="scale(0.015625)"/>
     </defs>
     <use xlink:href="#DejaVuSans-Oblique-3c1" transform="translate(0 0.09375)"/>
     <use xlink:href="#DejaVuSans-2265" transform="translate(82.958984 0.09375)"/>
     <use xlink:href="#DejaVuSans-Oblique-4b" transform="translate(186.230469 0.09375)"/>
     <use xlink:href="#DejaVuSans-Oblique-42" transform="translate(251.806641 -16.3125) scale(0.7)"/>
    </g>
   </g>
   <g id="text_5">
    <!-- +1 -->
    <g style="fill: #ffffff" transform="translate(224.553 309.788312) scale(0.08 -0.08)">
     <defs>
      <path id="DejaVuSans-Bold-2b" d="M 3053 4013 
L 3053 2375 
L 4684 2375 
L 4684 1638 
L 3053 1638 
L 3053 0 
L 2309 0 
L 2309 1638 
L 678 1638 
L 678 2375 
L 2309 2375 
L 2309 4013 
L 3053 4013 
z
" transform="scale(0.015625)"/>
     </defs>
     <use xlink:href="#DejaVuSans-Bold-2b"/>
     <use xlink:href="#DejaVuSans-Bold-31" transform="translate(83.789062 0)"/>
    </g>
   </g>
   <g id="text_6">
    <!-- −1 -->
    <g style="fill: #ffffff" transform="translate(287.409 325.223312) scale(0.08 -0.08)">
     <defs>
      <path id="DejaVuSans-Bold-2212" d="M 678 2375 
L 4684 2375 
L 4684 1638 
L 678 1638 
L 678 2375 
z
" transform="scale(0.015625)"/>
     </defs>
     <use xlink:href="#DejaVuSans-Bold-2212"/>
     <use xlink:href="#DejaVuSans-Bold-31" transform="translate(83.789062 0)"/>
    </g>
   </g>
   <g id="text_7">
    <!-- +1 -->
    <g style="fill: #ffffff" transform="translate(357.249 309.788312) scale(0.08 -0.08)">
     <use xlink:href="#DejaVuSans-Bold-2b"/>
     <use xlink:href="#DejaVuSans-Bold-31" transform="translate(83.789062 0)"/>
    </g>
   </g>
   <g id="text_8">
    <!-- particles &amp; structures -->
    <g style="fill: #95a5a6" transform="translate(451.854 261.275812) scale(0.08 -0.08)">
     <defs>
      <path id="DejaVuSans-70" d="M 1159 525 
L 1159 -1331 
L 581 -1331 
L 581 3500 
L 1159 3500 
L 1159 2969 
Q 1341 3281 1617 3432 
Q 1894 3584 2278 3584 
Q 2916 3584 3314 3078 
Q 3713 2572 3713 1747 
Q 3713 922 3314 415 
Q 2916 -91 2278 -91 
Q 1894 -91 1617 61 
Q 1341 213 1159 525 
z
M 3116 1747 
Q 3116 2381 2855 2742 
Q 2594 3103 2138 3103 
Q 1681 3103 1420 2742 
Q 1159 2381 1159 1747 
Q 1159 1113 1420 752 
Q 1681 391 2138 391 
Q 2594 391 2855 752 
Q 3116 1113 3116 1747 
z
" transform="scale(0.015625)"/>
      <path id="DejaVuSans-61" d="M 2194 1759 
Q 1497 1759 1228 1600 
Q 959 1441 959 1056 
Q 959 750 1161 570 
Q 1363 391 1709 391 
Q 2188 391 2477 730 
Q 2766 1069 2766 1631 
L 2766 1759 
L 2194 1759 
z
M 3341 1997 
L 3341 0 
L 2766 0 
L 2766 531 
Q 2569 213 2275 61 
Q 1981 -91 1556 -91 
Q 1019 -91 701 211 
Q 384 513 384 1019 
Q 384 1609 779 1909 
Q 1175 2209 1959 2209 
L 2766 2209 
L 2766 2266 
Q 2766 2663 2505 2880 
Q 2244 3097 1772 3097 
Q 1472 3097 1187 3025 
Q 903 2953 641 2809 
L 641 3341 
Q 956 3463 1253 3523 
Q 1550 3584 1831 3584 
Q 2591 3584 2966 3190 
Q 3341 2797 3341 1997 
z
" transform="scale(0.015625)"/>
      <path id="DejaVuSans-72" d="M 2631 2963 
Q 2534 3019 2420 3045 
Q 2306 3072 2169 3072 
Q 1681 3072 1420 2755 
Q 1159 2438 1159 1844 
L 1159 0 
L 581 0 
L 581 3500 
L 1159 3500 
L 1159 2956 
Q 1341 3275 1631 3429 
Q 1922 3584 2338 3584 
Q 2397 3584 2469 3576 
Q 2541 3569 2628 3553 
L 2631 2963 
z
" transform="scale(0.015625)"/>
      <path id="DejaVuSans-74" d="M 1172 4494 
L 1172 3500 
L 2356 3500 
L 2356 3053 
L 1172 3053 
L 1172 1153 
Q 1172 725 1289 603 
Q 1406 481 1766 481 
L 2356 481 
L 2356 0 
L 1766 0 
Q 1100 0 847 248 
Q 594 497 594 1153 
L 594 3053 
L 172 3053 
L 172 3500 
L 594 3500 
L 594 4494 
L 1172 4494 
z
" transform="scale(0.015625)"/>
      <path id="DejaVuSans-63" d="M 3122 3366 
L 3122 2828 
Q 2878 2963 2633 3030 
Q 2388 3097 2138 3097 
Q 1578 3097 1268 2742 
Q 959 2388 959 1747 
Q 959 1106 1268 751 
Q 1578 397 2138 397 
Q 2388 397 2633 464 
Q 2878 531 3122 666 
L 3122 134 
Q 2881 22 2623 -34 
Q 2366 -91 2075 -91 
Q 1284 -91 818 406 
Q 353 903 353 1747 
Q 353 2603 823 3093 
Q 1294 3584 2113 3584 
Q 2378 3584 2631 3529 
Q 2884 3475 3122 3366 
z
" transform="scale(0.015625)"/>
      <path id="DejaVuSans-73" d="M 2834 3397 
L 2834 2853 
Q 2591 2978 2328 3040 
Q 2066 3103 1784 3103 
Q 1356 3103 1142 2972 
Q 928 2841 928 2578 
Q 928 2378 1081 2264 
Q 1234 2150 1697 2047 
L 1894 2003 
Q 2506 1872 2764 1633 
Q 3022 1394 3022 966 
Q 3022 478 2636 193 
Q 2250 -91 1575 -91 
Q 1294 -91 989 -36 
Q 684 19 347 128 
L 347 722 
Q 666 556 975 473 
Q 1284 391 1588 391 
Q 1994 391 2212 530 
Q 2431 669 2431 922 
Q 2431 1156 2273 1281 
Q 2116 1406 1581 1522 
L 1381 1569 
Q 847 1681 609 1914 
Q 372 2147 372 2553 
Q 372 3047 722 3315 
Q 1072 3584 1716 3584 
Q 2034 3584 2315 3537 
Q 2597 3491 2834 3397 
z
" transform="scale(0.015625)"/>
      <path id="DejaVuSans-26" d="M 1556 2509 
Q 1272 2256 1139 2004 
Q 1006 1753 1006 1478 
Q 1006 1022 1337 719 
Q 1669 416 2169 416 
Q 2466 416 2725 514 
Q 2984 613 3213 813 
L 1556 2509 
z
M 1997 2859 
L 3584 1234 
Q 3769 1513 3872 1830 
Q 3975 2147 3994 2503 
L 4575 2503 
Q 4538 2091 4375 1687 
Q 4213 1284 3922 891 
L 4794 0 
L 4006 0 
L 3559 459 
Q 3234 181 2878 45 
Q 2522 -91 2113 -91 
Q 1359 -91 881 339 
Q 403 769 403 1441 
Q 403 1841 612 2192 
Q 822 2544 1241 2853 
Q 1091 3050 1012 3245 
Q 934 3441 934 3628 
Q 934 4134 1281 4442 
Q 1628 4750 2203 4750 
Q 2463 4750 2720 4694 
Q 2978 4638 3244 4525 
L 3244 3956 
Q 2972 4103 2725 4179 
Q 2478 4256 2266 4256 
Q 1938 4256 1733 4082 
Q 1528 3909 1528 3634 
Q 1528 3475 1620 3314 
Q 1713 3153 1997 2859 
z
" transform="scale(0.015625)"/>
     </defs>
     <use xlink:href="#DejaVuSans-70"/>
     <use xlink:href="#DejaVuSans-61" transform="translate(63.476562 0)"/>
     <use xlink:href="#DejaVuSans-72" transform="translate(124.755859 0)"/>
     <use xlink:href="#DejaVuSans-74" transform="translate(165.869141 0)"/>
     <use xlink:href="#DejaVuSans-69" transform="translate(205.078125 0)"/>
     <use xlink:href="#DejaVuSans-63" transform="translate(232.861328 0)"/>
     <use xlink:href="#DejaVuSans-6c" transform="translate(287.841797 0)"/>
     <use xlink:href="#DejaVuSans-65" transform="translate(315.625 0)"/>
     <use xlink:href="#DejaVuSans-73" transform="translate(377.148438 0)"/>
     <use xlink:href="#DejaVuSans-20" transform="translate(429.248047 0)"/>
     <use xlink:href="#DejaVuSans-26" transform="translate(461.035156 0)"/>
     <use xlink:href="#DejaVuSans-20" transform="translate(539.013672 0)"/>
     <use xlink:href="#DejaVuSans-73" transform="translate(570.800781 0)"/>
     <use xlink:href="#DejaVuSans-74" transform="translate(622.900391 0)"/>
     <use xlink:href="#DejaVuSans-72" transform="translate(662.109375 0)"/>
     <use xlink:href="#DejaVuSans-75" transform="translate(703.222656 0)"/>
     <use xlink:href="#DejaVuSans-63" transform="translate(766.601562 0)"/>
     <use xlink:href="#DejaVuSans-74" transform="translate(821.582031 0)"/>
     <use xlink:href="#DejaVuSans-75" transform="translate(860.791016 0)"/>
     <use xlink:href="#DejaVuSans-72" transform="translate(924.169922 0)"/>
     <use xlink:href="#DejaVuSans-65" transform="translate(963.033203 0)"/>
     <use xlink:href="#DejaVuSans-73" transform="translate(1024.556641 0)"/>
    </g>
   </g>
   <g id="text_9">
    <!-- The Two Layers: Potential → Manifestation -->
    <g transform="translate(209.509375 17.837812) scale(0.14 -0.14)">
     <defs>
      <path id="DejaVuSans-54" d="M -19 4666 
L 3928 4666 
L 3928 4134 
L 2272 4134 
L 2272 0 
L 1638 0 
L 1638 4134 
L -19 4134 
L -19 4666 
z
" transform="scale(0.015625)"/>
      <path id="DejaVuSans-68" d="M 3513 2113 
L 3513 0 
L 2938 0 
L 2938 2094 
Q 2938 2591 2744 2837 
Q 2550 3084 2163 3084 
Q 1697 3084 1428 2787 
Q 1159 2491 1159 1978 
L 1159 0 
L 581 0 
L 581 4863 
L 1159 4863 
L 1159 2956 
Q 1366 3272 1645 3428 
Q 1925 3584 2291 3584 
Q 2894 3584 3203 3211 
Q 3513 2838 3513 2113 
z
" transform="scale(0.015625)"/>
      <path id="DejaVuSans-77" d="M 269 3500 
L 844 3500 
L 1563 769 
L 2278 3500 
L 2956 3500 
L 3675 769 
L 4391 3500 
L 4966 3500 
L 4050 0 
L 3372 0 
L 2619 2869 
L 1863 0 
L 1184 0 
L 269 3500 
z
" transform="scale(0.015625)"/>
      <path id="DejaVuSans-6f" d="M 1959 3097 
Q 1497 3097 1228 2736 
Q 959 2375 959 1747 
Q 959 1119 1226 758 
Q 1494 397 1959 397 
Q 2419 397 2687 759 
Q 2956 1122 2956 1747 
Q 2956 2369 2687 2733 
Q 2419 3097 1959 3097 
z
M 1959 3584 
Q 2709 3584 3137 3096 
Q 3566 2609 3566 1747 
Q 3566 888 3137 398 
Q 2709 -91 1959 -91 
Q 1206 -91 779 398 
Q 353 888 353 1747 
Q 353 2609 779 3096 
Q 1206 3584 1959 3584 
z
" transform="scale(0.015625)"/>
      <path id="DejaVuSans-4c" d="M 628 4666 
L 1259 4666 
L 1259 531 
L 3531 531 
L 3531 0 
L 628 0 
L 628 4666 
z
" transform="scale(0.015625)"/>
      <path id="DejaVuSans-79" d="M 2059 -325 
Q 1816 -950 1584 -1140 
Q 1353 -1331 966 -1331 
L 506 -1331 
L 506 -850 
L 844 -850 
Q 1081 -850 1212 -737 
Q 1344 -625 1503 -206 
L 1606 56 
L 191 3500 
L 800 3500 
L 1894 763 
L 2988 3500 
L 3597 3500 
L 2059 -325 
z
" transform="scale(0.015625)"/>
      <path id="DejaVuSans-3a" d="M 750 794 
L 1409 794 
L 1409 0 
L 750 0 
L 750 794 
z
M 750 3309 
L 1409 3309 
L 1409 2516 
L 750 2516 
L 750 3309 
z
" transform="scale(0.015625)"/>
      <path id="DejaVuSans-50" d="M 1259 4147 
L 1259 2394 
L 2053 2394 
Q 2494 2394 2734 2622 
Q 2975 2850 2975 3272 
Q 2975 3691 2734 3919 
Q 2494 4147 2053 4147 
L 1259 4147 
z
M 628 4666 
L 2053 4666 
Q 2838 4666 3239 4311 
Q 3641 3956 3641 3272 
Q 3641 2581 3239 2228 
Q 2838 1875 2053 1875 
L 1259 1875 
L 1259 0 
L 628 0 
L 628 4666 
z
" transform="scale(0.015625)"/>
      <path id="DejaVuSans-6e" d="M 3513 2113 
L 3513 0 
L 2938 0 
L 2938 2094 
Q 2938 2591 2744 2837 
Q 2550 3084 2163 3084 
Q 1697 3084 1428 2787 
Q 1159 2491 1159 1978 
L 1159 0 
L 581 0 
L 581 3500 
L 1159 3500 
L 1159 2956 
Q 1366 3272 1645 3428 
Q 1925 3584 2291 3584 
Q 2894 3584 3203 3211 
Q 3513 2838 3513 2113 
z
" transform="scale(0.015625)"/>
      <path id="DejaVuSans-2192" d="M 5050 2147 
L 5050 1866 
L 3822 638 
L 3447 1013 
L 4175 1741 
L 366 1741 
L 366 2272 
L 4175 2272 
L 3447 3000 
L 3822 3375 
L 5050 2147 
z
" transform="scale(0.015625)"/>
      <path id="DejaVuSans-4d" d="M 628 4666 
L 1569 4666 
L 2759 1491 
L 3956 4666 
L 4897 4666 
L 4897 0 
L 4281 0 
L 4281 4097 
L 3078 897 
L 2444 897 
L 1241 4097 
L 1241 0 
L 628 0 
L 628 4666 
z
" transform="scale(0.015625)"/>
     </defs>
     <use xlink:href="#DejaVuSans-54"/>
     <use xlink:href="#DejaVuSans-68" transform="translate(61.083984 0)"/>
     <use xlink:href="#DejaVuSans-65" transform="translate(124.462891 0)"/>
     <use xlink:href="#DejaVuSans-20" transform="translate(185.986328 0)"/>
     <use xlink:href="#DejaVuSans-54" transform="translate(217.773438 0)"/>
     <use xlink:href="#DejaVuSans-77" transform="translate(262.357422 0)"/>
     <use xlink:href="#DejaVuSans-6f" transform="translate(344.144531 0)"/>
     <use xlink:href="#DejaVuSans-20" transform="translate(405.326172 0)"/>
     <use xlink:href="#DejaVuSans-4c" transform="translate(437.113281 0)"/>
     <use xlink:href="#DejaVuSans-61" transform="translate(492.826172 0)"/>
     <use xlink:href="#DejaVuSans-79" transform="translate(554.105469 0)"/>
     <use xlink:href="#DejaVuSans-65" transform="translate(613.285156 0)"/>
     <use xlink:href="#DejaVuSans-72" transform="translate(674.808594 0)"/>
     <use xlink:href="#DejaVuSans-73" transform="translate(715.921875 0)"/>
     <use xlink:href="#DejaVuSans-3a" transform="translate(768.021484 0)"/>
     <use xlink:href="#DejaVuSans-20" transform="translate(801.712891 0)"/>
     <use xlink:href="#DejaVuSans-50" transform="translate(833.5 0)"/>
     <use xlink:href="#DejaVuSans-6f" transform="translate(890.177734 0)"/>
     <use xlink:href="#DejaVuSans-74" transform="translate(951.359375 0)"/>
     <use xlink:href="#DejaVuSans-65" transform="translate(990.568359 0)"/>
     <use xlink:href="#DejaVuSans-6e" transform="translate(1052.091797 0)"/>
     <use xlink:href="#DejaVuSans-74" transform="translate(1115.470703 0)"/>
     <use xlink:href="#DejaVuSans-69" transform="translate(1154.679688 0)"/>
     <use xlink:href="#DejaVuSans-61" transform="translate(1182.462891 0)"/>
     <use xlink:href="#DejaVuSans-6c" transform="translate(1243.742188 0)"/>
     <use xlink:href="#DejaVuSans-20" transform="translate(1271.525391 0)"/>
     <use xlink:href="#DejaVuSans-2192" transform="translate(1303.3125 0)"/>
     <use xlink:href="#DejaVuSans-20" transform="translate(1387.101562 0)"/>
     <use xlink:href="#DejaVuSans-4d" transform="translate(1418.888672 0)"/>
     <use xlink:href="#DejaVuSans-61" transform="translate(1505.167969 0)"/>
     <use xlink:href="#DejaVuSans-6e" transform="translate(1566.447266 0)"/>
     <use xlink:href="#DejaVuSans-69" transform="translate(1629.826172 0)"/>
     <use xlink:href="#DejaVuSans-66" transform="translate(1657.609375 0)"/>
     <use xlink:href="#DejaVuSans-65" transform="translate(1692.814453 0)"/>
     <use xlink:href="#DejaVuSans-73" transform="translate(1754.337891 0)"/>
     <use xlink:href="#DejaVuSans-74" transform="translate(1806.4375 0)"/>
     <use xlink:href="#DejaVuSans-61" transform="translate(1845.646484 0)"/>
     <use xlink:href="#DejaVuSans-74" transform="translate(1906.925781 0)"/>
     <use xlink:href="#DejaVuSans-69" transform="translate(1946.134766 0)"/>
     <use xlink:href="#DejaVuSans-6f" transform="translate(1973.917969 0)"/>
     <use xlink:href="#DejaVuSans-6e" transform="translate(2035.099609 0)"/>
    </g>
   </g>
  </g>
 </g>
 <defs>
  <clipPath id="p326a4bbfb7">
   <rect x="7.2" y="32.837812" width="698.4" height="370.44"/>
  </clipPath>
 </defs>
</svg>
