<?xml version="1.0" encoding="utf-8" standalone="no"?>
<!DOCTYPE svg PUBLIC "-//W3C//DTD SVG 1.1//EN"
  "http://www.w3.org/Graphics/SVG/1.1/DTD/svg11.dtd">
<svg xmlns:xlink="http://www.w3.org/1999/xlink" width="429.236757pt" height="388.877812pt" viewBox="0 0 429.236757 388.877812" xmlns="http://www.w3.org/2000/svg" version="1.1">
 <metadata>
  <rdf:RDF xmlns:dc="http://purl.org/dc/elements/1.1/" xmlns:cc="http://creativecommons.org/ns#" xmlns:rdf="http://www.w3.org/1999/02/22-rdf-syntax-ns#">
   <cc:Work>
    <dc:type rdf:resource="http://purl.org/dc/dcmitype/StillImage"/>
    <dc:date>2026-01-02T18:44:31.535997</dc:date>
    <dc:format>image/svg+xml</dc:format>
    <dc:creator>
     <cc:Agent>
      <dc:title>Matplotlib v3.10.8, https://matplotlib.org/</dc:title>
     </cc:Agent>
    </dc:creator>
   </cc:Work>
  </rdf:RDF>
 </metadata>
 <defs>
  <style type="text/css">*{stroke-linejoin: round; stroke-linecap: butt}</style>
 </defs>
 <g id="figure_1">
  <g id="patch_1">
   <path d="M 0 388.877812 
L 429.236757 388.877812 
L 429.236757 0 
L 0 0 
z
" style="fill: #ffffff"/>
  </g>
  <g id="axes_1">
   <g id="patch_2">
    <path d="M 214.618378 298.710461 
C 225.119905 298.710461 235.19273 294.53816 242.618431 287.11246 
C 250.044132 279.686759 254.216432 269.613934 254.216432 259.112407 
C 254.216432 248.61088 250.044132 238.538055 242.618431 231.112355 
C 235.19273 223.686654 225.119905 219.514353 214.618378 219.514353 
C 204.116852 219.514353 194.044027 223.686654 186.618326 231.112355 
C 179.192625 238.538055 175.020324 248.61088 175.020324 259.112407 
C 175.020324 269.613934 179.192625 279.686759 186.618326 287.11246 
C 194.044027 294.53816 204.116852 298.710461 214.618378 298.710461 
z
" clip-path="url(#pd29c1d5385)" style="fill: #2c3e50; opacity: 0.85; stroke: #2c3e50; stroke-width: 1.5; stroke-linejoin: miter"/>
   </g>
   <g id="patch_3">
    <path d="M 337.183784 162.945704 
C 346.685165 162.945704 355.798674 159.170766 362.517165 152.452274 
C 369.235656 145.733783 373.010595 136.620275 373.010595 127.118894 
C 373.010595 117.617512 369.235656 108.504004 362.517165 101.785513 
C 355.798674 95.067022 346.685165 91.292083 337.183784 91.292083 
C 327.682402 91.292083 318.568894 95.067022 311.850403 101.785513 
C 305.131912 108.504004 301.356973 117.617512 301.356973 127.118894 
C 301.356973 136.620275 305.131912 145.733783 311.850403 152.452274 
C 318.568894 159.170766 327.682402 162.945704 337.183784 162.945704 
z
" clip-path="url(#pd29c1d5385)" style="fill: #e74c3c; opacity: 0.85; stroke: #e74c3c; stroke-width: 1.5; stroke-linejoin: miter"/>
   </g>
   <g id="patch_4">
    <path d="M 92.052973 162.945704 
C 101.554354 162.945704 110.667863 159.170766 117.386354 152.452274 
C 124.104845 145.733783 127.879784 136.620275 127.879784 127.118894 
C 127.879784 117.617512 124.104845 108.504004 117.386354 101.785513 
C 110.667863 95.067022 101.554354 91.292083 92.052973 91.292083 
C 82.551592 91.292083 73.438083 95.067022 66.719592 101.785513 
C 60.001101 108.504004 56.226162 117.617512 56.226162 127.118894 
C 56.226162 136.620275 60.001101 145.733783 66.719592 152.452274 
C 73.438083 159.170766 82.551592 162.945704 92.052973 162.945704 
z
" clip-path="url(#pd29c1d5385)" style="fill: #3498db; opacity: 0.85; stroke: #3498db; stroke-width: 1.5; stroke-linejoin: miter"/>
   </g>
   <g id="text_1">
    <!-- 0 -->
    <g style="fill: #ffffff" transform="translate(208.356347 262.19366) scale(0.18 -0.18)">
     <defs>
      <path id="DejaVuSans-Bold-30" d="M 2944 2338 
Q 2944 3213 2780 3570 
Q 2616 3928 2228 3928 
Q 1841 3928 1675 3570 
Q 1509 3213 1509 2338 
Q 1509 1453 1675 1090 
Q 1841 728 2228 728 
Q 2613 728 2778 1090 
Q 2944 1453 2944 2338 
z
M 4147 2328 
Q 4147 1169 3647 539 
Q 3147 -91 2228 -91 
Q 1306 -91 806 539 
Q 306 1169 306 2328 
Q 306 3491 806 4120 
Q 1306 4750 2228 4750 
Q 3147 4750 3647 4120 
Q 4147 3491 4147 2328 
z
" transform="scale(0.015625)"/>
     </defs>
     <use xlink:href="#DejaVuSans-Bold-30"/>
    </g>
   </g>
   <g id="text_2">
    <!-- VOID -->
    <g style="fill: #2c3e50" transform="translate(199.505878 320.39511) scale(0.12 -0.12)">
     <defs>
      <path id="DejaVuSans-56" d="M 1831 0 
L 50 4666 
L 709 4666 
L 2188 738 
L 3669 4666 
L 4325 4666 
L 2547 0 
L 1831 0 
z
" transform="scale(0.015625)"/>
      <path id="DejaVuSans-4f" d="M 2522 4238 
Q 1834 4238 1429 3725 
Q 1025 3213 1025 2328 
Q 1025 1447 1429 934 
Q 1834 422 2522 422 
Q 3209 422 3611 934 
Q 4013 1447 4013 2328 
Q 4013 3213 3611 3725 
Q 3209 4238 2522 4238 
z
M 2522 4750 
Q 3503 4750 4090 4092 
Q 4678 3434 4678 2328 
Q 4678 1225 4090 567 
Q 3503 -91 2522 -91 
Q 1538 -91 948 565 
Q 359 1222 359 2328 
Q 359 3434 948 4092 
Q 1538 4750 2522 4750 
z
" transform="scale(0.015625)"/>
      <path id="DejaVuSans-49" d="M 628 4666 
L 1259 4666 
L 1259 0 
L 628 0 
L 628 4666 
z
" transform="scale(0.015625)"/>
      <path id="DejaVuSans-44" d="M 1259 4147 
L 1259 519 
L 2022 519 
Q 2988 519 3436 956 
Q 3884 1394 3884 2338 
Q 3884 3275 3436 3711 
Q 2988 4147 2022 4147 
L 1259 4147 
z
M 628 4666 
L 1925 4666 
Q 3281 4666 3915 4102 
Q 4550 3538 4550 2338 
Q 4550 1131 3912 565 
Q 3275 0 1925 0 
L 628 0 
L 628 4666 
z
" transform="scale(0.015625)"/>
     </defs>
     <use xlink:href="#DejaVuSans-56"/>
     <use xlink:href="#DejaVuSans-4f" transform="translate(66.658203 0)"/>
     <use xlink:href="#DejaVuSans-49" transform="translate(145.369141 0)"/>
     <use xlink:href="#DejaVuSans-44" transform="translate(174.861328 0)"/>
    </g>
   </g>
   <g id="text_3">
    <!-- +1 -->
    <g style="fill: #ffffff" transform="translate(326.447534 130.982019) scale(0.14 -0.14)">
     <defs>
      <path id="DejaVuSans-Bold-2b" d="M 3053 4013 
L 3053 2375 
L 4684 2375 
L 4684 1638 
L 3053 1638 
L 3053 0 
L 2309 0 
L 2309 1638 
L 678 1638 
L 678 2375 
L 2309 2375 
L 2309 4013 
L 3053 4013 
z
" transform="scale(0.015625)"/>
      <path id="DejaVuSans-Bold-31" d="M 750 831 
L 1813 831 
L 1813 3847 
L 722 3622 
L 722 4441 
L 1806 4666 
L 2950 4666 
L 2950 831 
L 4013 831 
L 4013 0 
L 750 0 
L 750 831 
z
" transform="scale(0.015625)"/>
     </defs>
     <use xlink:href="#DejaVuSans-Bold-2b"/>
     <use xlink:href="#DejaVuSans-Bold-31" transform="translate(83.789062 0)"/>
    </g>
   </g>
   <g id="text_4">
    <!-- MATTER -->
    <g style="fill: #e74c3c" transform="translate(321.183159 185.573164) scale(0.08 -0.08)">
     <defs>
      <path id="DejaVuSans-4d" d="M 628 4666 
L 1569 4666 
L 2759 1491 
L 3956 4666 
L 4897 4666 
L 4897 0 
L 4281 0 
L 4281 4097 
L 3078 897 
L 2444 897 
L 1241 4097 
L 1241 0 
L 628 0 
L 628 4666 
z
" transform="scale(0.015625)"/>
      <path id="DejaVuSans-41" d="M 2188 4044 
L 1331 1722 
L 3047 1722 
L 2188 4044 
z
M 1831 4666 
L 2547 4666 
L 4325 0 
L 3669 0 
L 3244 1197 
L 1141 1197 
L 716 0 
L 50 0 
L 1831 4666 
z
" transform="scale(0.015625)"/>
      <path id="DejaVuSans-54" d="M -19 4666 
L 3928 4666 
L 3928 4134 
L 2272 4134 
L 2272 0 
L 1638 0 
L 1638 4134 
L -19 4134 
L -19 4666 
z
" transform="scale(0.015625)"/>
      <path id="DejaVuSans-45" d="M 628 4666 
L 3578 4666 
L 3578 4134 
L 1259 4134 
L 1259 2753 
L 3481 2753 
L 3481 2222 
L 1259 2222 
L 1259 531 
L 3634 531 
L 3634 0 
L 628 0 
L 628 4666 
z
" transform="scale(0.015625)"/>
      <path id="DejaVuSans-52" d="M 2841 2188 
Q 3044 2119 3236 1894 
Q 3428 1669 3622 1275 
L 4263 0 
L 3584 0 
L 2988 1197 
Q 2756 1666 2539 1819 
Q 2322 1972 1947 1972 
L 1259 1972 
L 1259 0 
L 628 0 
L 628 4666 
L 2053 4666 
Q 2853 4666 3247 4331 
Q 3641 3997 3641 3322 
Q 3641 2881 3436 2590 
Q 3231 2300 2841 2188 
z
M 1259 4147 
L 1259 2491 
L 2053 2491 
Q 2509 2491 2742 2702 
Q 2975 2913 2975 3322 
Q 2975 3731 2742 3939 
Q 2509 4147 2053 4147 
L 1259 4147 
z
" transform="scale(0.015625)"/>
     </defs>
     <use xlink:href="#DejaVuSans-4d"/>
     <use xlink:href="#DejaVuSans-41" transform="translate(86.279297 0)"/>
     <use xlink:href="#DejaVuSans-54" transform="translate(146.9375 0)"/>
     <use xlink:href="#DejaVuSans-54" transform="translate(206.271484 0)"/>
     <use xlink:href="#DejaVuSans-45" transform="translate(267.355469 0)"/>
     <use xlink:href="#DejaVuSans-52" transform="translate(330.539062 0)"/>
    </g>
   </g>
   <g id="text_5">
    <!-- −1 -->
    <g style="fill: #ffffff" transform="translate(81.316723 130.982019) scale(0.14 -0.14)">
     <defs>
      <path id="DejaVuSans-Bold-2212" d="M 678 2375 
L 4684 2375 
L 4684 1638 
L 678 1638 
L 678 2375 
z
" transform="scale(0.015625)"/>
     </defs>
     <use xlink:href="#DejaVuSans-Bold-2212"/>
     <use xlink:href="#DejaVuSans-Bold-31" transform="translate(83.789062 0)"/>
    </g>
   </g>
   <g id="text_6">
    <!-- ANTIMATTER -->
    <g style="fill: #3498db" transform="translate(66.700473 185.573164) scale(0.08 -0.08)">
     <defs>
      <path id="DejaVuSans-4e" d="M 628 4666 
L 1478 4666 
L 3547 763 
L 3547 4666 
L 4159 4666 
L 4159 0 
L 3309 0 
L 1241 3903 
L 1241 0 
L 628 0 
L 628 4666 
z
" transform="scale(0.015625)"/>
     </defs>
     <use xlink:href="#DejaVuSans-41"/>
     <use xlink:href="#DejaVuSans-4e" transform="translate(68.408203 0)"/>
     <use xlink:href="#DejaVuSans-54" transform="translate(143.212891 0)"/>
     <use xlink:href="#DejaVuSans-49" transform="translate(204.296875 0)"/>
     <use xlink:href="#DejaVuSans-4d" transform="translate(233.789062 0)"/>
     <use xlink:href="#DejaVuSans-41" transform="translate(320.068359 0)"/>
     <use xlink:href="#DejaVuSans-54" transform="translate(380.726562 0)"/>
     <use xlink:href="#DejaVuSans-54" transform="translate(440.060547 0)"/>
     <use xlink:href="#DejaVuSans-45" transform="translate(501.144531 0)"/>
     <use xlink:href="#DejaVuSans-52" transform="translate(564.328125 0)"/>
    </g>
   </g>
   <g id="patch_5">
    <path d="M 234.935508 224.750509 
Q 268.830298 193.115372 300.681726 163.387372 
" style="fill: none; stroke: #f39c12; stroke-width: 2.5; stroke-linecap: round"/>
    <path d="M 296.392869 164.654535 
L 300.681726 163.387372 
L 299.122142 167.578756 
" style="fill: none; stroke: #f39c12; stroke-width: 2.5; stroke-linecap: round"/>
   </g>
   <g id="patch_6">
    <path d="M 194.301248 224.750509 
Q 160.406459 193.115372 128.55503 163.387372 
" style="fill: none; stroke: #f39c12; stroke-width: 2.5; stroke-linecap: round"/>
    <path d="M 130.114615 167.578756 
L 128.55503 163.387372 
L 132.843888 164.654535 
" style="fill: none; stroke: #f39c12; stroke-width: 2.5; stroke-linecap: round"/>
   </g>
   <g id="text_7">
    <!-- Genesis -->
    <g style="fill: #f39c12" transform="translate(198.782753 188.871454) scale(0.08 -0.08)">
     <defs>
      <path id="DejaVuSans-47" d="M 3809 666 
L 3809 1919 
L 2778 1919 
L 2778 2438 
L 4434 2438 
L 4434 434 
Q 4069 175 3628 42 
Q 3188 -91 2688 -91 
Q 1594 -91 976 548 
Q 359 1188 359 2328 
Q 359 3472 976 4111 
Q 1594 4750 2688 4750 
Q 3144 4750 3555 4637 
Q 3966 4525 4313 4306 
L 4313 3634 
Q 3963 3931 3569 4081 
Q 3175 4231 2741 4231 
Q 1884 4231 1454 3753 
Q 1025 3275 1025 2328 
Q 1025 1384 1454 906 
Q 1884 428 2741 428 
Q 3075 428 3337 486 
Q 3600 544 3809 666 
z
" transform="scale(0.015625)"/>
      <path id="DejaVuSans-65" d="M 3597 1894 
L 3597 1613 
L 953 1613 
Q 991 1019 1311 708 
Q 1631 397 2203 397 
Q 2534 397 2845 478 
Q 3156 559 3463 722 
L 3463 178 
Q 3153 47 2828 -22 
Q 2503 -91 2169 -91 
Q 1331 -91 842 396 
Q 353 884 353 1716 
Q 353 2575 817 3079 
Q 1281 3584 2069 3584 
Q 2775 3584 3186 3129 
Q 3597 2675 3597 1894 
z
M 3022 2063 
Q 3016 2534 2758 2815 
Q 2500 3097 2075 3097 
Q 1594 3097 1305 2825 
Q 1016 2553 972 2059 
L 3022 2063 
z
" transform="scale(0.015625)"/>
      <path id="DejaVuSans-6e" d="M 3513 2113 
L 3513 0 
L 2938 0 
L 2938 2094 
Q 2938 2591 2744 2837 
Q 2550 3084 2163 3084 
Q 1697 3084 1428 2787 
Q 1159 2491 1159 1978 
L 1159 0 
L 581 0 
L 581 3500 
L 1159 3500 
L 1159 2956 
Q 1366 3272 1645 3428 
Q 1925 3584 2291 3584 
Q 2894 3584 3203 3211 
Q 3513 2838 3513 2113 
z
" transform="scale(0.015625)"/>
      <path id="DejaVuSans-73" d="M 2834 3397 
L 2834 2853 
Q 2591 2978 2328 3040 
Q 2066 3103 1784 3103 
Q 1356 3103 1142 2972 
Q 928 2841 928 2578 
Q 928 2378 1081 2264 
Q 1234 2150 1697 2047 
L 1894 2003 
Q 2506 1872 2764 1633 
Q 3022 1394 3022 966 
Q 3022 478 2636 193 
Q 2250 -91 1575 -91 
Q 1294 -91 989 -36 
Q 684 19 347 128 
L 347 722 
Q 666 556 975 473 
Q 1284 391 1588 391 
Q 1994 391 2212 530 
Q 2431 669 2431 922 
Q 2431 1156 2273 1281 
Q 2116 1406 1581 1522 
L 1381 1569 
Q 847 1681 609 1914 
Q 372 2147 372 2553 
Q 372 3047 722 3315 
Q 1072 3584 1716 3584 
Q 2034 3584 2315 3537 
Q 2597 3491 2834 3397 
z
" transform="scale(0.015625)"/>
      <path id="DejaVuSans-69" d="M 603 3500 
L 1178 3500 
L 1178 0 
L 603 0 
L 603 3500 
z
M 603 4863 
L 1178 4863 
L 1178 4134 
L 603 4134 
L 603 4863 
z
" transform="scale(0.015625)"/>
     </defs>
     <use xlink:href="#DejaVuSans-47"/>
     <use xlink:href="#DejaVuSans-65" transform="translate(77.490234 0)"/>
     <use xlink:href="#DejaVuSans-6e" transform="translate(139.013672 0)"/>
     <use xlink:href="#DejaVuSans-65" transform="translate(202.392578 0)"/>
     <use xlink:href="#DejaVuSans-73" transform="translate(263.916016 0)"/>
     <use xlink:href="#DejaVuSans-69" transform="translate(316.015625 0)"/>
     <use xlink:href="#DejaVuSans-73" transform="translate(343.798828 0)"/>
    </g>
    <!-- (pair creation) -->
    <g style="fill: #f39c12" transform="translate(186.151503 197.829704) scale(0.08 -0.08)">
     <defs>
      <path id="DejaVuSans-28" d="M 1984 4856 
Q 1566 4138 1362 3434 
Q 1159 2731 1159 2009 
Q 1159 1288 1364 580 
Q 1569 -128 1984 -844 
L 1484 -844 
Q 1016 -109 783 600 
Q 550 1309 550 2009 
Q 550 2706 781 3412 
Q 1013 4119 1484 4856 
L 1984 4856 
z
" transform="scale(0.015625)"/>
      <path id="DejaVuSans-70" d="M 1159 525 
L 1159 -1331 
L 581 -1331 
L 581 3500 
L 1159 3500 
L 1159 2969 
Q 1341 3281 1617 3432 
Q 1894 3584 2278 3584 
Q 2916 3584 3314 3078 
Q 3713 2572 3713 1747 
Q 3713 922 3314 415 
Q 2916 -91 2278 -91 
Q 1894 -91 1617 61 
Q 1341 213 1159 525 
z
M 3116 1747 
Q 3116 2381 2855 2742 
Q 2594 3103 2138 3103 
Q 1681 3103 1420 2742 
Q 1159 2381 1159 1747 
Q 1159 1113 1420 752 
Q 1681 391 2138 391 
Q 2594 391 2855 752 
Q 3116 1113 3116 1747 
z
" transform="scale(0.015625)"/>
      <path id="DejaVuSans-61" d="M 2194 1759 
Q 1497 1759 1228 1600 
Q 959 1441 959 1056 
Q 959 750 1161 570 
Q 1363 391 1709 391 
Q 2188 391 2477 730 
Q 2766 1069 2766 1631 
L 2766 1759 
L 2194 1759 
z
M 3341 1997 
L 3341 0 
L 2766 0 
L 2766 531 
Q 2569 213 2275 61 
Q 1981 -91 1556 -91 
Q 1019 -91 701 211 
Q 384 513 384 1019 
Q 384 1609 779 1909 
Q 1175 2209 1959 2209 
L 2766 2209 
L 2766 2266 
Q 2766 2663 2505 2880 
Q 2244 3097 1772 3097 
Q 1472 3097 1187 3025 
Q 903 2953 641 2809 
L 641 3341 
Q 956 3463 1253 3523 
Q 1550 3584 1831 3584 
Q 2591 3584 2966 3190 
Q 3341 2797 3341 1997 
z
" transform="scale(0.015625)"/>
      <path id="DejaVuSans-72" d="M 2631 2963 
Q 2534 3019 2420 3045 
Q 2306 3072 2169 3072 
Q 1681 3072 1420 2755 
Q 1159 2438 1159 1844 
L 1159 0 
L 581 0 
L 581 3500 
L 1159 3500 
L 1159 2956 
Q 1341 3275 1631 3429 
Q 1922 3584 2338 3584 
Q 2397 3584 2469 3576 
Q 2541 3569 2628 3553 
L 2631 2963 
z
" transform="scale(0.015625)"/>
      <path id="DejaVuSans-20" transform="scale(0.015625)"/>
      <path id="DejaVuSans-63" d="M 3122 3366 
L 3122 2828 
Q 2878 2963 2633 3030 
Q 2388 3097 2138 3097 
Q 1578 3097 1268 2742 
Q 959 2388 959 1747 
Q 959 1106 1268 751 
Q 1578 397 2138 397 
Q 2388 397 2633 464 
Q 2878 531 3122 666 
L 3122 134 
Q 2881 22 2623 -34 
Q 2366 -91 2075 -91 
Q 1284 -91 818 406 
Q 353 903 353 1747 
Q 353 2603 823 3093 
Q 1294 3584 2113 3584 
Q 2378 3584 2631 3529 
Q 2884 3475 3122 3366 
z
" transform="scale(0.015625)"/>
      <path id="DejaVuSans-74" d="M 1172 4494 
L 1172 3500 
L 2356 3500 
L 2356 3053 
L 1172 3053 
L 1172 1153 
Q 1172 725 1289 603 
Q 1406 481 1766 481 
L 2356 481 
L 2356 0 
L 1766 0 
Q 1100 0 847 248 
Q 594 497 594 1153 
L 594 3053 
L 172 3053 
L 172 3500 
L 594 3500 
L 594 4494 
L 1172 4494 
z
" transform="scale(0.015625)"/>
      <path id="DejaVuSans-6f" d="M 1959 3097 
Q 1497 3097 1228 2736 
Q 959 2375 959 1747 
Q 959 1119 1226 758 
Q 1494 397 1959 397 
Q 2419 397 2687 759 
Q 2956 1122 2956 1747 
Q 2956 2369 2687 2733 
Q 2419 3097 1959 3097 
z
M 1959 3584 
Q 2709 3584 3137 3096 
Q 3566 2609 3566 1747 
Q 3566 888 3137 398 
Q 2709 -91 1959 -91 
Q 1206 -91 779 398 
Q 353 888 353 1747 
Q 353 2609 779 3096 
Q 1206 3584 1959 3584 
z
" transform="scale(0.015625)"/>
      <path id="DejaVuSans-29" d="M 513 4856 
L 1013 4856 
Q 1481 4119 1714 3412 
Q 1947 2706 1947 2009 
Q 1947 1309 1714 600 
Q 1481 -109 1013 -844 
L 513 -844 
Q 928 -128 1133 580 
Q 1338 1288 1338 2009 
Q 1338 2731 1133 3434 
Q 928 4138 513 4856 
z
" transform="scale(0.015625)"/>
     </defs>
     <use xlink:href="#DejaVuSans-28"/>
     <use xlink:href="#DejaVuSans-70" transform="translate(39.013672 0)"/>
     <use xlink:href="#DejaVuSans-61" transform="translate(102.490234 0)"/>
     <use xlink:href="#DejaVuSans-69" transform="translate(163.769531 0)"/>
     <use xlink:href="#DejaVuSans-72" transform="translate(191.552734 0)"/>
     <use xlink:href="#DejaVuSans-20" transform="translate(232.666016 0)"/>
     <use xlink:href="#DejaVuSans-63" transform="translate(264.453125 0)"/>
     <use xlink:href="#DejaVuSans-72" transform="translate(319.433594 0)"/>
     <use xlink:href="#DejaVuSans-65" transform="translate(358.296875 0)"/>
     <use xlink:href="#DejaVuSans-61" transform="translate(419.820312 0)"/>
     <use xlink:href="#DejaVuSans-74" transform="translate(481.099609 0)"/>
     <use xlink:href="#DejaVuSans-69" transform="translate(520.308594 0)"/>
     <use xlink:href="#DejaVuSans-6f" transform="translate(548.091797 0)"/>
     <use xlink:href="#DejaVuSans-6e" transform="translate(609.273438 0)"/>
     <use xlink:href="#DejaVuSans-29" transform="translate(672.652344 0)"/>
    </g>
   </g>
   <g id="patch_7">
    <path d="M 321.361895 198.909529 
Q 257.046107 240.255392 194.14102 280.694377 
" style="fill: none; stroke-dasharray: 5.55,2.4; stroke-dashoffset: 0; stroke: #95a5a6; stroke-width: 1.5; stroke-linecap: round"/>
    <path d="M 198.587249 280.213704 
L 194.14102 280.694377 
L 196.424218 276.84899 
" style="fill: none; stroke-dasharray: 5.55,2.4; stroke-dashoffset: 0; stroke: #95a5a6; stroke-width: 1.5; stroke-linecap: round"/>
   </g>
   <g id="patch_8">
    <path d="M 107.874862 198.909529 
Q 172.190649 240.255392 235.095737 280.694377 
" style="fill: none; stroke-dasharray: 5.55,2.4; stroke-dashoffset: 0; stroke: #95a5a6; stroke-width: 1.5; stroke-linecap: round"/>
    <path d="M 232.812538 276.84899 
L 235.095737 280.694377 
L 230.649508 280.213704 
" style="fill: none; stroke-dasharray: 5.55,2.4; stroke-dashoffset: 0; stroke: #95a5a6; stroke-width: 1.5; stroke-linecap: round"/>
   </g>
   <g id="text_8">
    <!-- Decay / Evaporation → Return to void -->
    <g style="fill: #95a5a6" transform="translate(139.887128 339.251326) scale(0.08 -0.08)">
     <defs>
      <path id="DejaVuSans-79" d="M 2059 -325 
Q 1816 -950 1584 -1140 
Q 1353 -1331 966 -1331 
L 506 -1331 
L 506 -850 
L 844 -850 
Q 1081 -850 1212 -737 
Q 1344 -625 1503 -206 
L 1606 56 
L 191 3500 
L 800 3500 
L 1894 763 
L 2988 3500 
L 3597 3500 
L 2059 -325 
z
" transform="scale(0.015625)"/>
      <path id="DejaVuSans-2f" d="M 1625 4666 
L 2156 4666 
L 531 -594 
L 0 -594 
L 1625 4666 
z
" transform="scale(0.015625)"/>
      <path id="DejaVuSans-76" d="M 191 3500 
L 800 3500 
L 1894 563 
L 2988 3500 
L 3597 3500 
L 2284 0 
L 1503 0 
L 191 3500 
z
" transform="scale(0.015625)"/>
      <path id="DejaVuSans-2192" d="M 5050 2147 
L 5050 1866 
L 3822 638 
L 3447 1013 
L 4175 1741 
L 366 1741 
L 366 2272 
L 4175 2272 
L 3447 3000 
L 3822 3375 
L 5050 2147 
z
" transform="scale(0.015625)"/>
      <path id="DejaVuSans-75" d="M 544 1381 
L 544 3500 
L 1119 3500 
L 1119 1403 
Q 1119 906 1312 657 
Q 1506 409 1894 409 
Q 2359 409 2629 706 
Q 2900 1003 2900 1516 
L 2900 3500 
L 3475 3500 
L 3475 0 
L 2900 0 
L 2900 538 
Q 2691 219 2414 64 
Q 2138 -91 1772 -91 
Q 1169 -91 856 284 
Q 544 659 544 1381 
z
M 1991 3584 
L 1991 3584 
z
" transform="scale(0.015625)"/>
      <path id="DejaVuSans-64" d="M 2906 2969 
L 2906 4863 
L 3481 4863 
L 3481 0 
L 2906 0 
L 2906 525 
Q 2725 213 2448 61 
Q 2172 -91 1784 -91 
Q 1150 -91 751 415 
Q 353 922 353 1747 
Q 353 2572 751 3078 
Q 1150 3584 1784 3584 
Q 2172 3584 2448 3432 
Q 2725 3281 2906 2969 
z
M 947 1747 
Q 947 1113 1208 752 
Q 1469 391 1925 391 
Q 2381 391 2643 752 
Q 2906 1113 2906 1747 
Q 2906 2381 2643 2742 
Q 2381 3103 1925 3103 
Q 1469 3103 1208 2742 
Q 947 2381 947 1747 
z
" transform="scale(0.015625)"/>
     </defs>
     <use xlink:href="#DejaVuSans-44"/>
     <use xlink:href="#DejaVuSans-65" transform="translate(77.001953 0)"/>
     <use xlink:href="#DejaVuSans-63" transform="translate(138.525391 0)"/>
     <use xlink:href="#DejaVuSans-61" transform="translate(193.505859 0)"/>
     <use xlink:href="#DejaVuSans-79" transform="translate(254.785156 0)"/>
     <use xlink:href="#DejaVuSans-20" transform="translate(313.964844 0)"/>
     <use xlink:href="#DejaVuSans-2f" transform="translate(345.751953 0)"/>
     <use xlink:href="#DejaVuSans-20" transform="translate(379.443359 0)"/>
     <use xlink:href="#DejaVuSans-45" transform="translate(411.230469 0)"/>
     <use xlink:href="#DejaVuSans-76" transform="translate(474.414062 0)"/>
     <use xlink:href="#DejaVuSans-61" transform="translate(533.59375 0)"/>
     <use xlink:href="#DejaVuSans-70" transform="translate(594.873047 0)"/>
     <use xlink:href="#DejaVuSans-6f" transform="translate(658.349609 0)"/>
     <use xlink:href="#DejaVuSans-72" transform="translate(719.53125 0)"/>
     <use xlink:href="#DejaVuSans-61" transform="translate(760.644531 0)"/>
     <use xlink:href="#DejaVuSans-74" transform="translate(821.923828 0)"/>
     <use xlink:href="#DejaVuSans-69" transform="translate(861.132812 0)"/>
     <use xlink:href="#DejaVuSans-6f" transform="translate(888.916016 0)"/>
     <use xlink:href="#DejaVuSans-6e" transform="translate(950.097656 0)"/>
     <use xlink:href="#DejaVuSans-20" transform="translate(1013.476562 0)"/>
     <use xlink:href="#DejaVuSans-2192" transform="translate(1045.263672 0)"/>
     <use xlink:href="#DejaVuSans-20" transform="translate(1129.052734 0)"/>
     <use xlink:href="#DejaVuSans-52" transform="translate(1160.839844 0)"/>
     <use xlink:href="#DejaVuSans-65" transform="translate(1225.822266 0)"/>
     <use xlink:href="#DejaVuSans-74" transform="translate(1287.345703 0)"/>
     <use xlink:href="#DejaVuSans-75" transform="translate(1326.554688 0)"/>
     <use xlink:href="#DejaVuSans-72" transform="translate(1389.933594 0)"/>
     <use xlink:href="#DejaVuSans-6e" transform="translate(1429.296875 0)"/>
     <use xlink:href="#DejaVuSans-20" transform="translate(1492.675781 0)"/>
     <use xlink:href="#DejaVuSans-74" transform="translate(1524.462891 0)"/>
     <use xlink:href="#DejaVuSans-6f" transform="translate(1563.671875 0)"/>
     <use xlink:href="#DejaVuSans-20" transform="translate(1624.853516 0)"/>
     <use xlink:href="#DejaVuSans-76" transform="translate(1656.640625 0)"/>
     <use xlink:href="#DejaVuSans-6f" transform="translate(1715.820312 0)"/>
     <use xlink:href="#DejaVuSans-69" transform="translate(1777.001953 0)"/>
     <use xlink:href="#DejaVuSans-64" transform="translate(1804.785156 0)"/>
    </g>
   </g>
   <g id="patch_9">
    <path d="M 302.340382 112.199879 
Q 259.401628 94.120404 218.008504 76.69172 
" style="fill: none; stroke: #9b59b6; stroke-width: 1.5; stroke-linecap: round"/>
    <path d="M 220.918932 80.087219 
L 218.008504 76.69172 
L 222.47116 76.400678 
" style="fill: none; stroke: #9b59b6; stroke-width: 1.5; stroke-linecap: round"/>
   </g>
   <g id="patch_10">
    <path d="M 126.896375 112.199879 
Q 169.835129 94.120404 211.228252 76.69172 
" style="fill: none; stroke: #9b59b6; stroke-width: 1.5; stroke-linecap: round"/>
    <path d="M 206.765597 76.400678 
L 211.228252 76.69172 
L 208.317825 80.087219 
" style="fill: none; stroke: #9b59b6; stroke-width: 1.5; stroke-linecap: round"/>
   </g>
   <g id="text_9">
    <!-- Annihilation -->
    <g style="fill: #9b59b6" transform="translate(190.830253 59.236515) scale(0.08 -0.08)">
     <defs>
      <path id="DejaVuSans-68" d="M 3513 2113 
L 3513 0 
L 2938 0 
L 2938 2094 
Q 2938 2591 2744 2837 
Q 2550 3084 2163 3084 
Q 1697 3084 1428 2787 
Q 1159 2491 1159 1978 
L 1159 0 
L 581 0 
L 581 4863 
L 1159 4863 
L 1159 2956 
Q 1366 3272 1645 3428 
Q 1925 3584 2291 3584 
Q 2894 3584 3203 3211 
Q 3513 2838 3513 2113 
z
" transform="scale(0.015625)"/>
      <path id="DejaVuSans-6c" d="M 603 4863 
L 1178 4863 
L 1178 0 
L 603 0 
L 603 4863 
z
" transform="scale(0.015625)"/>
     </defs>
     <use xlink:href="#DejaVuSans-41"/>
     <use xlink:href="#DejaVuSans-6e" transform="translate(68.408203 0)"/>
     <use xlink:href="#DejaVuSans-6e" transform="translate(131.787109 0)"/>
     <use xlink:href="#DejaVuSans-69" transform="translate(195.166016 0)"/>
     <use xlink:href="#DejaVuSans-68" transform="translate(222.949219 0)"/>
     <use xlink:href="#DejaVuSans-69" transform="translate(286.328125 0)"/>
     <use xlink:href="#DejaVuSans-6c" transform="translate(314.111328 0)"/>
     <use xlink:href="#DejaVuSans-61" transform="translate(341.894531 0)"/>
     <use xlink:href="#DejaVuSans-74" transform="translate(403.173828 0)"/>
     <use xlink:href="#DejaVuSans-69" transform="translate(442.382812 0)"/>
     <use xlink:href="#DejaVuSans-6f" transform="translate(470.166016 0)"/>
     <use xlink:href="#DejaVuSans-6e" transform="translate(531.347656 0)"/>
    </g>
   </g>
   <g id="text_10">
    <!-- The Three States and Their Transitions -->
    <g transform="translate(79.750253 17.837812) scale(0.14 -0.14)">
     <defs>
      <path id="DejaVuSans-53" d="M 3425 4513 
L 3425 3897 
Q 3066 4069 2747 4153 
Q 2428 4238 2131 4238 
Q 1616 4238 1336 4038 
Q 1056 3838 1056 3469 
Q 1056 3159 1242 3001 
Q 1428 2844 1947 2747 
L 2328 2669 
Q 3034 2534 3370 2195 
Q 3706 1856 3706 1288 
Q 3706 609 3251 259 
Q 2797 -91 1919 -91 
Q 1588 -91 1214 -16 
Q 841 59 441 206 
L 441 856 
Q 825 641 1194 531 
Q 1563 422 1919 422 
Q 2459 422 2753 634 
Q 3047 847 3047 1241 
Q 3047 1584 2836 1778 
Q 2625 1972 2144 2069 
L 1759 2144 
Q 1053 2284 737 2584 
Q 422 2884 422 3419 
Q 422 4038 858 4394 
Q 1294 4750 2059 4750 
Q 2388 4750 2728 4690 
Q 3069 4631 3425 4513 
z
" transform="scale(0.015625)"/>
     </defs>
     <use xlink:href="#DejaVuSans-54"/>
     <use xlink:href="#DejaVuSans-68" transform="translate(61.083984 0)"/>
     <use xlink:href="#DejaVuSans-65" transform="translate(124.462891 0)"/>
     <use xlink:href="#DejaVuSans-20" transform="translate(185.986328 0)"/>
     <use xlink:href="#DejaVuSans-54" transform="translate(217.773438 0)"/>
     <use xlink:href="#DejaVuSans-68" transform="translate(278.857422 0)"/>
     <use xlink:href="#DejaVuSans-72" transform="translate(342.236328 0)"/>
     <use xlink:href="#DejaVuSans-65" transform="translate(381.099609 0)"/>
     <use xlink:href="#DejaVuSans-65" transform="translate(442.623047 0)"/>
     <use xlink:href="#DejaVuSans-20" transform="translate(504.146484 0)"/>
     <use xlink:href="#DejaVuSans-53" transform="translate(535.933594 0)"/>
     <use xlink:href="#DejaVuSans-74" transform="translate(599.410156 0)"/>
     <use xlink:href="#DejaVuSans-61" transform="translate(638.619141 0)"/>
     <use xlink:href="#DejaVuSans-74" transform="translate(699.898438 0)"/>
     <use xlink:href="#DejaVuSans-65" transform="translate(739.107422 0)"/>
     <use xlink:href="#DejaVuSans-73" transform="translate(800.630859 0)"/>
     <use xlink:href="#DejaVuSans-20" transform="translate(852.730469 0)"/>
     <use xlink:href="#DejaVuSans-61" transform="translate(884.517578 0)"/>
     <use xlink:href="#DejaVuSans-6e" transform="translate(945.796875 0)"/>
     <use xlink:href="#DejaVuSans-64" transform="translate(1009.175781 0)"/>
     <use xlink:href="#DejaVuSans-20" transform="translate(1072.652344 0)"/>
     <use xlink:href="#DejaVuSans-54" transform="translate(1104.439453 0)"/>
     <use xlink:href="#DejaVuSans-68" transform="translate(1165.523438 0)"/>
     <use xlink:href="#DejaVuSans-65" transform="translate(1228.902344 0)"/>
     <use xlink:href="#DejaVuSans-69" transform="translate(1290.425781 0)"/>
     <use xlink:href="#DejaVuSans-72" transform="translate(1318.208984 0)"/>
     <use xlink:href="#DejaVuSans-20" transform="translate(1359.322266 0)"/>
     <use xlink:href="#DejaVuSans-54" transform="translate(1391.109375 0)"/>
     <use xlink:href="#DejaVuSans-72" transform="translate(1437.443359 0)"/>
     <use xlink:href="#DejaVuSans-61" transform="translate(1478.556641 0)"/>
     <use xlink:href="#DejaVuSans-6e" transform="translate(1539.835938 0)"/>
     <use xlink:href="#DejaVuSans-73" transform="translate(1603.214844 0)"/>
     <use xlink:href="#DejaVuSans-69" transform="translate(1655.314453 0)"/>
     <use xlink:href="#DejaVuSans-74" transform="translate(1683.097656 0)"/>
     <use xlink:href="#DejaVuSans-69" transform="translate(1722.306641 0)"/>
     <use xlink:href="#DejaVuSans-6f" transform="translate(1750.089844 0)"/>
     <use xlink:href="#DejaVuSans-6e" transform="translate(1811.271484 0)"/>
     <use xlink:href="#DejaVuSans-73" transform="translate(1874.650391 0)"/>
    </g>
   </g>
  </g>
 </g>
 <defs>
  <clipPath id="pd29c1d5385">
   <rect x="7.2" y="32.837812" width="414.836757" height="348.84"/>
  </clipPath>
 </defs>
</svg>
