<?xml version="1.0" encoding="utf-8" standalone="no"?>
<!DOCTYPE svg PUBLIC "-//W3C//DTD SVG 1.1//EN"
  "http://www.w3.org/Graphics/SVG/1.1/DTD/svg11.dtd">
<svg xmlns:xlink="http://www.w3.org/1999/xlink" width="712.8pt" height="424.877813pt" viewBox="0 0 712.8 424.877813" xmlns="http://www.w3.org/2000/svg" version="1.1">
 <metadata>
  <rdf:RDF xmlns:dc="http://purl.org/dc/elements/1.1/" xmlns:cc="http://creativecommons.org/ns#" xmlns:rdf="http://www.w3.org/1999/02/22-rdf-syntax-ns#">
   <cc:Work>
    <dc:type rdf:resource="http://purl.org/dc/dcmitype/StillImage"/>
    <dc:date>2026-01-02T18:44:32.357838</dc:date>
    <dc:format>image/svg+xml</dc:format>
    <dc:creator>
     <cc:Agent>
      <dc:title>Matplotlib v3.10.8, https://matplotlib.org/</dc:title>
     </cc:Agent>
    </dc:creator>
   </cc:Work>
  </rdf:RDF>
 </metadata>
 <defs>
  <style type="text/css">*{stroke-linejoin: round; stroke-linecap: butt}</style>
 </defs>
 <g id="figure_1">
  <g id="patch_1">
   <path d="M 0 424.877813 
L 712.8 424.877813 
L 712.8 0 
L 0 0 
z
" style="fill: #ffffff"/>
  </g>
  <g id="axes_1">
   <g id="patch_2">
    <path d="M 146.88 111.906612 
L 237.672 111.906612 
Q 239.0688 111.906612 239.0688 110.640479 
L 239.0688 91.648479 
Q 239.0688 90.382346 237.672 90.382346 
L 146.88 90.382346 
Q 145.4832 90.382346 145.4832 91.648479 
L 145.4832 110.640479 
Q 145.4832 111.906612 146.88 111.906612 
z
" clip-path="url(#p0388b36bdb)" style="fill: #2c3e50; opacity: 0.7; stroke: #2c3e50; stroke-width: 1.5; stroke-linejoin: miter"/>
   </g>
   <g id="patch_3">
    <path d="M 251.64 111.906612 
L 342.432 111.906612 
Q 343.8288 111.906612 343.8288 110.640479 
L 343.8288 91.648479 
Q 343.8288 90.382346 342.432 90.382346 
L 251.64 90.382346 
Q 250.2432 90.382346 250.2432 91.648479 
L 250.2432 110.640479 
Q 250.2432 111.906612 251.64 111.906612 
z
" clip-path="url(#p0388b36bdb)" style="fill: #e74c3c; opacity: 0.7; stroke: #e74c3c; stroke-width: 1.5; stroke-linejoin: miter"/>
   </g>
   <g id="patch_4">
    <path d="M 356.4 111.906612 
L 447.192 111.906612 
Q 448.5888 111.906612 448.5888 110.640479 
L 448.5888 91.648479 
Q 448.5888 90.382346 447.192 90.382346 
L 356.4 90.382346 
Q 355.0032 90.382346 355.0032 91.648479 
L 355.0032 110.640479 
Q 355.0032 111.906612 356.4 111.906612 
z
" clip-path="url(#p0388b36bdb)" style="fill: #f39c12; opacity: 0.7; stroke: #f39c12; stroke-width: 1.5; stroke-linejoin: miter"/>
   </g>
   <g id="patch_5">
    <path d="M 461.16 111.906612 
L 551.952 111.906612 
Q 553.3488 111.906612 553.3488 110.640479 
L 553.3488 91.648479 
Q 553.3488 90.382346 551.952 90.382346 
L 461.16 90.382346 
Q 459.7632 90.382346 459.7632 91.648479 
L 459.7632 110.640479 
Q 459.7632 111.906612 461.16 111.906612 
z
" clip-path="url(#p0388b36bdb)" style="fill: #3498db; opacity: 0.7; stroke: #3498db; stroke-width: 1.5; stroke-linejoin: miter"/>
   </g>
   <g id="patch_6">
    <path d="M 146.88 206.866613 
L 237.672 206.866613 
Q 239.0688 206.866613 239.0688 205.600479 
L 239.0688 186.608479 
Q 239.0688 185.342346 237.672 185.342346 
L 146.88 185.342346 
Q 145.4832 185.342346 145.4832 186.608479 
L 145.4832 205.600479 
Q 145.4832 206.866613 146.88 206.866613 
z
" clip-path="url(#p0388b36bdb)" style="fill: #2c3e50; opacity: 0.7; stroke: #2c3e50; stroke-width: 1.5; stroke-linejoin: miter"/>
   </g>
   <g id="patch_7">
    <path d="M 251.64 206.866613 
L 342.432 206.866613 
Q 343.8288 206.866613 343.8288 205.600479 
L 343.8288 186.608479 
Q 343.8288 185.342346 342.432 185.342346 
L 251.64 185.342346 
Q 250.2432 185.342346 250.2432 186.608479 
L 250.2432 205.600479 
Q 250.2432 206.866613 251.64 206.866613 
z
" clip-path="url(#p0388b36bdb)" style="fill: #9b59b6; opacity: 0.7; stroke: #9b59b6; stroke-width: 1.5; stroke-linejoin: miter"/>
   </g>
   <g id="patch_8">
    <path d="M 146.88 301.826613 
L 237.672 301.826613 
Q 239.0688 301.826613 239.0688 300.560479 
L 239.0688 281.568479 
Q 239.0688 280.302346 237.672 280.302346 
L 146.88 280.302346 
Q 145.4832 280.302346 145.4832 281.568479 
L 145.4832 300.560479 
Q 145.4832 301.826613 146.88 301.826613 
z
" clip-path="url(#p0388b36bdb)" style="fill: #2c3e50; opacity: 0.7; stroke: #2c3e50; stroke-width: 1.5; stroke-linejoin: miter"/>
   </g>
   <g id="patch_9">
    <path d="M 251.64 301.826613 
L 342.432 301.826613 
Q 343.8288 301.826613 343.8288 300.560479 
L 343.8288 281.568479 
Q 343.8288 280.302346 342.432 280.302346 
L 251.64 280.302346 
Q 250.2432 280.302346 250.2432 281.568479 
L 250.2432 300.560479 
Q 250.2432 301.826613 251.64 301.826613 
z
" clip-path="url(#p0388b36bdb)" style="fill: #e74c3c; opacity: 0.7; stroke: #e74c3c; stroke-width: 1.5; stroke-linejoin: miter"/>
   </g>
   <g id="patch_10">
    <path d="M 356.4 301.826613 
L 447.192 301.826613 
Q 448.5888 301.826613 448.5888 300.560479 
L 448.5888 281.568479 
Q 448.5888 280.302346 447.192 280.302346 
L 356.4 280.302346 
Q 355.0032 280.302346 355.0032 281.568479 
L 355.0032 300.560479 
Q 355.0032 301.826613 356.4 301.826613 
z
" clip-path="url(#p0388b36bdb)" style="fill: #2ecc71; opacity: 0.7; stroke: #2ecc71; stroke-width: 1.5; stroke-linejoin: miter"/>
   </g>
   <g id="patch_11">
    <path d="M 146.88 396.786613 
L 237.672 396.786613 
Q 239.0688 396.786613 239.0688 395.520479 
L 239.0688 376.528479 
Q 239.0688 375.262346 237.672 375.262346 
L 146.88 375.262346 
Q 145.4832 375.262346 145.4832 376.528479 
L 145.4832 395.520479 
Q 145.4832 396.786613 146.88 396.786613 
z
" clip-path="url(#p0388b36bdb)" style="fill: #2c3e50; opacity: 0.7; stroke: #2c3e50; stroke-width: 1.5; stroke-linejoin: miter"/>
   </g>
   <g id="patch_12">
    <path d="M 251.64 396.786613 
L 342.432 396.786613 
Q 343.8288 396.786613 343.8288 395.520479 
L 343.8288 376.528479 
Q 343.8288 375.262346 342.432 375.262346 
L 251.64 375.262346 
Q 250.2432 375.262346 250.2432 376.528479 
L 250.2432 395.520479 
Q 250.2432 396.786613 251.64 396.786613 
z
" clip-path="url(#p0388b36bdb)" style="fill: #e74c3c; opacity: 0.7; stroke: #e74c3c; stroke-width: 1.5; stroke-linejoin: miter"/>
   </g>
   <g id="patch_13">
    <path d="M 356.4 396.786613 
L 447.192 396.786613 
Q 448.5888 396.786613 448.5888 395.520479 
L 448.5888 376.528479 
Q 448.5888 375.262346 447.192 375.262346 
L 356.4 375.262346 
Q 355.0032 375.262346 355.0032 376.528479 
L 355.0032 395.520479 
Q 355.0032 396.786613 356.4 396.786613 
z
" clip-path="url(#p0388b36bdb)" style="fill: #f39c12; opacity: 0.7; stroke: #f39c12; stroke-width: 1.5; stroke-linejoin: miter"/>
   </g>
   <g id="patch_14">
    <path d="M 461.16 396.786613 
L 551.952 396.786613 
Q 553.3488 396.786613 553.3488 395.520479 
L 553.3488 376.528479 
Q 553.3488 375.262346 551.952 375.262346 
L 461.16 375.262346 
Q 459.7632 375.262346 459.7632 376.528479 
L 459.7632 395.520479 
Q 459.7632 396.786613 461.16 396.786613 
z
" clip-path="url(#p0388b36bdb)" style="fill: #3498db; opacity: 0.7; stroke: #3498db; stroke-width: 1.5; stroke-linejoin: miter"/>
   </g>
   <g id="line2d_1">
    <path d="M 77.04 386.024479 
L 635.76 386.024479 
" clip-path="url(#p0388b36bdb)" style="fill: none; stroke: #3498db; stroke-width: 2.5; stroke-linecap: square"/>
   </g>
   <g id="line2d_2">
    <path d="M 77.04 291.064479 
L 635.76 291.064479 
" clip-path="url(#p0388b36bdb)" style="fill: none; stroke: #2ecc71; stroke-width: 2.5; stroke-linecap: square"/>
   </g>
   <g id="line2d_3">
    <path d="M 77.04 196.104479 
L 635.76 196.104479 
" clip-path="url(#p0388b36bdb)" style="fill: none; stroke: #f39c12; stroke-width: 2.5; stroke-linecap: square"/>
   </g>
   <g id="line2d_4">
    <path d="M 77.04 101.144479 
L 635.76 101.144479 
" clip-path="url(#p0388b36bdb)" style="fill: none; stroke: #e74c3c; stroke-width: 2.5; stroke-linecap: square"/>
   </g>
   <g id="text_1">
    <!-- Present -->
    <g style="fill: #3498db" transform="translate(28.152 373.363146) scale(0.12 -0.12)">
     <defs>
      <path id="DejaVuSans-Bold-50" d="M 588 4666 
L 2584 4666 
Q 3475 4666 3951 4270 
Q 4428 3875 4428 3144 
Q 4428 2409 3951 2014 
Q 3475 1619 2584 1619 
L 1791 1619 
L 1791 0 
L 588 0 
L 588 4666 
z
M 1791 3794 
L 1791 2491 
L 2456 2491 
Q 2806 2491 2997 2661 
Q 3188 2831 3188 3144 
Q 3188 3456 2997 3625 
Q 2806 3794 2456 3794 
L 1791 3794 
z
" transform="scale(0.015625)"/>
      <path id="DejaVuSans-Bold-72" d="M 3138 2547 
Q 2991 2616 2845 2648 
Q 2700 2681 2553 2681 
Q 2122 2681 1889 2404 
Q 1656 2128 1656 1613 
L 1656 0 
L 538 0 
L 538 3500 
L 1656 3500 
L 1656 2925 
Q 1872 3269 2151 3426 
Q 2431 3584 2822 3584 
Q 2878 3584 2943 3579 
Q 3009 3575 3134 3559 
L 3138 2547 
z
" transform="scale(0.015625)"/>
      <path id="DejaVuSans-Bold-65" d="M 4031 1759 
L 4031 1441 
L 1416 1441 
Q 1456 1047 1700 850 
Q 1944 653 2381 653 
Q 2734 653 3104 758 
Q 3475 863 3866 1075 
L 3866 213 
Q 3469 63 3072 -14 
Q 2675 -91 2278 -91 
Q 1328 -91 801 392 
Q 275 875 275 1747 
Q 275 2603 792 3093 
Q 1309 3584 2216 3584 
Q 3041 3584 3536 3087 
Q 4031 2591 4031 1759 
z
M 2881 2131 
Q 2881 2450 2695 2645 
Q 2509 2841 2209 2841 
Q 1884 2841 1681 2658 
Q 1478 2475 1428 2131 
L 2881 2131 
z
" transform="scale(0.015625)"/>
      <path id="DejaVuSans-Bold-73" d="M 3272 3391 
L 3272 2541 
Q 2913 2691 2578 2766 
Q 2244 2841 1947 2841 
Q 1628 2841 1473 2761 
Q 1319 2681 1319 2516 
Q 1319 2381 1436 2309 
Q 1553 2238 1856 2203 
L 2053 2175 
Q 2913 2066 3209 1816 
Q 3506 1566 3506 1031 
Q 3506 472 3093 190 
Q 2681 -91 1863 -91 
Q 1516 -91 1145 -36 
Q 775 19 384 128 
L 384 978 
Q 719 816 1070 734 
Q 1422 653 1784 653 
Q 2113 653 2278 743 
Q 2444 834 2444 1013 
Q 2444 1163 2330 1236 
Q 2216 1309 1875 1350 
L 1678 1375 
Q 931 1469 631 1722 
Q 331 1975 331 2491 
Q 331 3047 712 3315 
Q 1094 3584 1881 3584 
Q 2191 3584 2531 3537 
Q 2872 3491 3272 3391 
z
" transform="scale(0.015625)"/>
      <path id="DejaVuSans-Bold-6e" d="M 4056 2131 
L 4056 0 
L 2931 0 
L 2931 347 
L 2931 1631 
Q 2931 2084 2911 2256 
Q 2891 2428 2841 2509 
Q 2775 2619 2662 2680 
Q 2550 2741 2406 2741 
Q 2056 2741 1856 2470 
Q 1656 2200 1656 1722 
L 1656 0 
L 538 0 
L 538 3500 
L 1656 3500 
L 1656 2988 
Q 1909 3294 2193 3439 
Q 2478 3584 2822 3584 
Q 3428 3584 3742 3212 
Q 4056 2841 4056 2131 
z
" transform="scale(0.015625)"/>
      <path id="DejaVuSans-Bold-74" d="M 1759 4494 
L 1759 3500 
L 2913 3500 
L 2913 2700 
L 1759 2700 
L 1759 1216 
Q 1759 972 1856 886 
Q 1953 800 2241 800 
L 2816 800 
L 2816 0 
L 1856 0 
Q 1194 0 917 276 
Q 641 553 641 1216 
L 641 2700 
L 84 2700 
L 84 3500 
L 641 3500 
L 641 4494 
L 1759 4494 
z
" transform="scale(0.015625)"/>
     </defs>
     <use xlink:href="#DejaVuSans-Bold-50"/>
     <use xlink:href="#DejaVuSans-Bold-72" transform="translate(73.291016 0)"/>
     <use xlink:href="#DejaVuSans-Bold-65" transform="translate(122.607422 0)"/>
     <use xlink:href="#DejaVuSans-Bold-73" transform="translate(190.429688 0)"/>
     <use xlink:href="#DejaVuSans-Bold-65" transform="translate(249.951172 0)"/>
     <use xlink:href="#DejaVuSans-Bold-6e" transform="translate(317.773438 0)"/>
     <use xlink:href="#DejaVuSans-Bold-74" transform="translate(388.964844 0)"/>
    </g>
   </g>
   <g id="text_2">
    <!-- ~eV -->
    <g style="fill: #3498db" transform="translate(649.306563 388.783854) scale(0.1 -0.1)">
     <defs>
      <path id="DejaVuSans-7e" d="M 4684 2553 
L 4684 1997 
Q 4356 1750 4076 1644 
Q 3797 1538 3494 1538 
Q 3150 1538 2694 1722 
Q 2659 1734 2644 1741 
Q 2622 1750 2575 1766 
Q 2091 1959 1797 1959 
Q 1522 1959 1253 1839 
Q 984 1719 678 1459 
L 678 2016 
Q 1006 2263 1286 2370 
Q 1566 2478 1869 2478 
Q 2213 2478 2672 2291 
Q 2703 2278 2719 2272 
Q 2744 2263 2788 2247 
Q 3272 2053 3566 2053 
Q 3834 2053 4098 2172 
Q 4363 2291 4684 2553 
z
" transform="scale(0.015625)"/>
      <path id="DejaVuSans-65" d="M 3597 1894 
L 3597 1613 
L 953 1613 
Q 991 1019 1311 708 
Q 1631 397 2203 397 
Q 2534 397 2845 478 
Q 3156 559 3463 722 
L 3463 178 
Q 3153 47 2828 -22 
Q 2503 -91 2169 -91 
Q 1331 -91 842 396 
Q 353 884 353 1716 
Q 353 2575 817 3079 
Q 1281 3584 2069 3584 
Q 2775 3584 3186 3129 
Q 3597 2675 3597 1894 
z
M 3022 2063 
Q 3016 2534 2758 2815 
Q 2500 3097 2075 3097 
Q 1594 3097 1305 2825 
Q 1016 2553 972 2059 
L 3022 2063 
z
" transform="scale(0.015625)"/>
      <path id="DejaVuSans-56" d="M 1831 0 
L 50 4666 
L 709 4666 
L 2188 738 
L 3669 4666 
L 4325 4666 
L 2547 0 
L 1831 0 
z
" transform="scale(0.015625)"/>
     </defs>
     <use xlink:href="#DejaVuSans-7e"/>
     <use xlink:href="#DejaVuSans-65" transform="translate(83.789062 0)"/>
     <use xlink:href="#DejaVuSans-56" transform="translate(145.3125 0)"/>
    </g>
   </g>
   <g id="text_3">
    <!-- Electroweak -->
    <g style="fill: #2ecc71" transform="translate(28.152 278.403146) scale(0.12 -0.12)">
     <defs>
      <path id="DejaVuSans-Bold-45" d="M 588 4666 
L 3834 4666 
L 3834 3756 
L 1791 3756 
L 1791 2888 
L 3713 2888 
L 3713 1978 
L 1791 1978 
L 1791 909 
L 3903 909 
L 3903 0 
L 588 0 
L 588 4666 
z
" transform="scale(0.015625)"/>
      <path id="DejaVuSans-Bold-6c" d="M 538 4863 
L 1656 4863 
L 1656 0 
L 538 0 
L 538 4863 
z
" transform="scale(0.015625)"/>
      <path id="DejaVuSans-Bold-63" d="M 3366 3391 
L 3366 2478 
Q 3138 2634 2908 2709 
Q 2678 2784 2431 2784 
Q 1963 2784 1702 2511 
Q 1441 2238 1441 1747 
Q 1441 1256 1702 982 
Q 1963 709 2431 709 
Q 2694 709 2930 787 
Q 3166 866 3366 1019 
L 3366 103 
Q 3103 6 2833 -42 
Q 2563 -91 2291 -91 
Q 1344 -91 809 395 
Q 275 881 275 1747 
Q 275 2613 809 3098 
Q 1344 3584 2291 3584 
Q 2566 3584 2833 3536 
Q 3100 3488 3366 3391 
z
" transform="scale(0.015625)"/>
      <path id="DejaVuSans-Bold-6f" d="M 2203 2784 
Q 1831 2784 1636 2517 
Q 1441 2250 1441 1747 
Q 1441 1244 1636 976 
Q 1831 709 2203 709 
Q 2569 709 2762 976 
Q 2956 1244 2956 1747 
Q 2956 2250 2762 2517 
Q 2569 2784 2203 2784 
z
M 2203 3584 
Q 3106 3584 3614 3096 
Q 4122 2609 4122 1747 
Q 4122 884 3614 396 
Q 3106 -91 2203 -91 
Q 1297 -91 786 396 
Q 275 884 275 1747 
Q 275 2609 786 3096 
Q 1297 3584 2203 3584 
z
" transform="scale(0.015625)"/>
      <path id="DejaVuSans-Bold-77" d="M 225 3500 
L 1313 3500 
L 1900 1088 
L 2491 3500 
L 3425 3500 
L 4013 1113 
L 4603 3500 
L 5691 3500 
L 4769 0 
L 3547 0 
L 2956 2406 
L 2369 0 
L 1147 0 
L 225 3500 
z
" transform="scale(0.015625)"/>
      <path id="DejaVuSans-Bold-61" d="M 2106 1575 
Q 1756 1575 1579 1456 
Q 1403 1338 1403 1106 
Q 1403 894 1545 773 
Q 1688 653 1941 653 
Q 2256 653 2472 879 
Q 2688 1106 2688 1447 
L 2688 1575 
L 2106 1575 
z
M 3816 1997 
L 3816 0 
L 2688 0 
L 2688 519 
Q 2463 200 2181 54 
Q 1900 -91 1497 -91 
Q 953 -91 614 226 
Q 275 544 275 1050 
Q 275 1666 698 1953 
Q 1122 2241 2028 2241 
L 2688 2241 
L 2688 2328 
Q 2688 2594 2478 2717 
Q 2269 2841 1825 2841 
Q 1466 2841 1156 2769 
Q 847 2697 581 2553 
L 581 3406 
Q 941 3494 1303 3539 
Q 1666 3584 2028 3584 
Q 2975 3584 3395 3211 
Q 3816 2838 3816 1997 
z
" transform="scale(0.015625)"/>
      <path id="DejaVuSans-Bold-6b" d="M 538 4863 
L 1656 4863 
L 1656 2216 
L 2944 3500 
L 4244 3500 
L 2534 1894 
L 4378 0 
L 3022 0 
L 1656 1459 
L 1656 0 
L 538 0 
L 538 4863 
z
" transform="scale(0.015625)"/>
     </defs>
     <use xlink:href="#DejaVuSans-Bold-45"/>
     <use xlink:href="#DejaVuSans-Bold-6c" transform="translate(68.310547 0)"/>
     <use xlink:href="#DejaVuSans-Bold-65" transform="translate(102.587891 0)"/>
     <use xlink:href="#DejaVuSans-Bold-63" transform="translate(170.410156 0)"/>
     <use xlink:href="#DejaVuSans-Bold-74" transform="translate(229.6875 0)"/>
     <use xlink:href="#DejaVuSans-Bold-72" transform="translate(277.490234 0)"/>
     <use xlink:href="#DejaVuSans-Bold-6f" transform="translate(326.806641 0)"/>
     <use xlink:href="#DejaVuSans-Bold-77" transform="translate(395.507812 0)"/>
     <use xlink:href="#DejaVuSans-Bold-65" transform="translate(487.890625 0)"/>
     <use xlink:href="#DejaVuSans-Bold-61" transform="translate(555.712891 0)"/>
     <use xlink:href="#DejaVuSans-Bold-6b" transform="translate(623.193359 0)"/>
    </g>
   </g>
   <g id="text_4">
    <!-- ~100 GeV -->
    <g style="fill: #2ecc71" transform="translate(619.2925 293.823854) scale(0.1 -0.1)">
     <defs>
      <path id="DejaVuSans-31" d="M 794 531 
L 1825 531 
L 1825 4091 
L 703 3866 
L 703 4441 
L 1819 4666 
L 2450 4666 
L 2450 531 
L 3481 531 
L 3481 0 
L 794 0 
L 794 531 
z
" transform="scale(0.015625)"/>
      <path id="DejaVuSans-30" d="M 2034 4250 
Q 1547 4250 1301 3770 
Q 1056 3291 1056 2328 
Q 1056 1369 1301 889 
Q 1547 409 2034 409 
Q 2525 409 2770 889 
Q 3016 1369 3016 2328 
Q 3016 3291 2770 3770 
Q 2525 4250 2034 4250 
z
M 2034 4750 
Q 2819 4750 3233 4129 
Q 3647 3509 3647 2328 
Q 3647 1150 3233 529 
Q 2819 -91 2034 -91 
Q 1250 -91 836 529 
Q 422 1150 422 2328 
Q 422 3509 836 4129 
Q 1250 4750 2034 4750 
z
" transform="scale(0.015625)"/>
      <path id="DejaVuSans-20" transform="scale(0.015625)"/>
      <path id="DejaVuSans-47" d="M 3809 666 
L 3809 1919 
L 2778 1919 
L 2778 2438 
L 4434 2438 
L 4434 434 
Q 4069 175 3628 42 
Q 3188 -91 2688 -91 
Q 1594 -91 976 548 
Q 359 1188 359 2328 
Q 359 3472 976 4111 
Q 1594 4750 2688 4750 
Q 3144 4750 3555 4637 
Q 3966 4525 4313 4306 
L 4313 3634 
Q 3963 3931 3569 4081 
Q 3175 4231 2741 4231 
Q 1884 4231 1454 3753 
Q 1025 3275 1025 2328 
Q 1025 1384 1454 906 
Q 1884 428 2741 428 
Q 3075 428 3337 486 
Q 3600 544 3809 666 
z
" transform="scale(0.015625)"/>
     </defs>
     <use xlink:href="#DejaVuSans-7e"/>
     <use xlink:href="#DejaVuSans-31" transform="translate(83.789062 0)"/>
     <use xlink:href="#DejaVuSans-30" transform="translate(147.412109 0)"/>
     <use xlink:href="#DejaVuSans-30" transform="translate(211.035156 0)"/>
     <use xlink:href="#DejaVuSans-20" transform="translate(274.658203 0)"/>
     <use xlink:href="#DejaVuSans-47" transform="translate(306.445312 0)"/>
     <use xlink:href="#DejaVuSans-65" transform="translate(383.935547 0)"/>
     <use xlink:href="#DejaVuSans-56" transform="translate(445.458984 0)"/>
    </g>
   </g>
   <g id="text_5">
    <!-- GUT Scale -->
    <g style="fill: #f39c12" transform="translate(28.152 183.443146) scale(0.12 -0.12)">
     <defs>
      <path id="DejaVuSans-Bold-47" d="M 4781 347 
Q 4331 128 3847 18 
Q 3363 -91 2847 -91 
Q 1681 -91 1000 561 
Q 319 1213 319 2328 
Q 319 3456 1012 4103 
Q 1706 4750 2913 4750 
Q 3378 4750 3804 4662 
Q 4231 4575 4609 4403 
L 4609 3438 
Q 4219 3659 3833 3768 
Q 3447 3878 3059 3878 
Q 2341 3878 1952 3476 
Q 1563 3075 1563 2328 
Q 1563 1588 1938 1184 
Q 2313 781 3003 781 
Q 3191 781 3352 804 
Q 3513 828 3641 878 
L 3641 1784 
L 2906 1784 
L 2906 2591 
L 4781 2591 
L 4781 347 
z
" transform="scale(0.015625)"/>
      <path id="DejaVuSans-Bold-55" d="M 588 4666 
L 1791 4666 
L 1791 1869 
Q 1791 1291 1980 1042 
Q 2169 794 2597 794 
Q 3028 794 3217 1042 
Q 3406 1291 3406 1869 
L 3406 4666 
L 4609 4666 
L 4609 1869 
Q 4609 878 4112 393 
Q 3616 -91 2597 -91 
Q 1581 -91 1084 393 
Q 588 878 588 1869 
L 588 4666 
z
" transform="scale(0.015625)"/>
      <path id="DejaVuSans-Bold-54" d="M 31 4666 
L 4331 4666 
L 4331 3756 
L 2784 3756 
L 2784 0 
L 1581 0 
L 1581 3756 
L 31 3756 
L 31 4666 
z
" transform="scale(0.015625)"/>
      <path id="DejaVuSans-Bold-20" transform="scale(0.015625)"/>
      <path id="DejaVuSans-Bold-53" d="M 3834 4519 
L 3834 3531 
Q 3450 3703 3084 3790 
Q 2719 3878 2394 3878 
Q 1963 3878 1756 3759 
Q 1550 3641 1550 3391 
Q 1550 3203 1689 3098 
Q 1828 2994 2194 2919 
L 2706 2816 
Q 3484 2659 3812 2340 
Q 4141 2022 4141 1434 
Q 4141 663 3683 286 
Q 3225 -91 2284 -91 
Q 1841 -91 1394 -6 
Q 947 78 500 244 
L 500 1259 
Q 947 1022 1364 901 
Q 1781 781 2169 781 
Q 2563 781 2772 912 
Q 2981 1044 2981 1288 
Q 2981 1506 2839 1625 
Q 2697 1744 2272 1838 
L 1806 1941 
Q 1106 2091 782 2419 
Q 459 2747 459 3303 
Q 459 4000 909 4375 
Q 1359 4750 2203 4750 
Q 2588 4750 2994 4692 
Q 3400 4634 3834 4519 
z
" transform="scale(0.015625)"/>
     </defs>
     <use xlink:href="#DejaVuSans-Bold-47"/>
     <use xlink:href="#DejaVuSans-Bold-55" transform="translate(82.080078 0)"/>
     <use xlink:href="#DejaVuSans-Bold-54" transform="translate(163.28125 0)"/>
     <use xlink:href="#DejaVuSans-Bold-20" transform="translate(231.494141 0)"/>
     <use xlink:href="#DejaVuSans-Bold-53" transform="translate(266.308594 0)"/>
     <use xlink:href="#DejaVuSans-Bold-63" transform="translate(338.330078 0)"/>
     <use xlink:href="#DejaVuSans-Bold-61" transform="translate(397.607422 0)"/>
     <use xlink:href="#DejaVuSans-Bold-6c" transform="translate(465.087891 0)"/>
     <use xlink:href="#DejaVuSans-Bold-65" transform="translate(499.365234 0)"/>
    </g>
   </g>
   <g id="text_6">
    <!-- ~10¹⁶ GeV -->
    <g style="fill: #f39c12" transform="translate(617.63625 198.863854) scale(0.1 -0.1)">
     <defs>
      <path id="DejaVuSans-b9" d="M 488 2431 
L 1125 2431 
L 1125 4341 
L 428 4213 
L 428 4575 
L 1147 4697 
L 1575 4697 
L 1575 2431 
L 2216 2431 
L 2216 2088 
L 488 2088 
L 488 2431 
z
" transform="scale(0.015625)"/>
      <path id="DejaVuSans-2076" d="M 1359 3541 
Q 1084 3541 925 3378 
Q 766 3213 766 2928 
Q 766 2647 925 2484 
Q 1084 2319 1359 2319 
Q 1631 2319 1791 2484 
Q 1950 2647 1950 2928 
Q 1950 3213 1791 3378 
Q 1631 3541 1359 3541 
z
M 2166 4647 
L 2166 4325 
Q 2013 4388 1856 4419 
Q 1700 4453 1547 4453 
Q 1147 4453 934 4219 
Q 722 3981 691 3503 
Q 809 3656 988 3738 
Q 1169 3819 1381 3819 
Q 1834 3819 2097 3581 
Q 2359 3341 2359 2928 
Q 2359 2531 2084 2284 
Q 1813 2041 1359 2041 
Q 838 2041 563 2387 
Q 288 2734 288 3397 
Q 288 4016 625 4381 
Q 963 4750 1531 4750 
Q 1684 4750 1841 4725 
Q 1997 4697 2166 4647 
z
" transform="scale(0.015625)"/>
     </defs>
     <use xlink:href="#DejaVuSans-7e"/>
     <use xlink:href="#DejaVuSans-31" transform="translate(83.789062 0)"/>
     <use xlink:href="#DejaVuSans-30" transform="translate(147.412109 0)"/>
     <use xlink:href="#DejaVuSans-b9" transform="translate(211.035156 0)"/>
     <use xlink:href="#DejaVuSans-2076" transform="translate(251.123047 0)"/>
     <use xlink:href="#DejaVuSans-20" transform="translate(291.210938 0)"/>
     <use xlink:href="#DejaVuSans-47" transform="translate(322.998047 0)"/>
     <use xlink:href="#DejaVuSans-65" transform="translate(400.488281 0)"/>
     <use xlink:href="#DejaVuSans-56" transform="translate(462.011719 0)"/>
    </g>
   </g>
   <g id="text_7">
    <!-- Planck Scale -->
    <g style="fill: #e74c3c" transform="translate(28.152 88.483146) scale(0.12 -0.12)">
     <use xlink:href="#DejaVuSans-Bold-50"/>
     <use xlink:href="#DejaVuSans-Bold-6c" transform="translate(73.291016 0)"/>
     <use xlink:href="#DejaVuSans-Bold-61" transform="translate(107.568359 0)"/>
     <use xlink:href="#DejaVuSans-Bold-6e" transform="translate(175.048828 0)"/>
     <use xlink:href="#DejaVuSans-Bold-63" transform="translate(246.240234 0)"/>
     <use xlink:href="#DejaVuSans-Bold-6b" transform="translate(305.517578 0)"/>
     <use xlink:href="#DejaVuSans-Bold-20" transform="translate(372.021484 0)"/>
     <use xlink:href="#DejaVuSans-Bold-53" transform="translate(406.835938 0)"/>
     <use xlink:href="#DejaVuSans-Bold-63" transform="translate(478.857422 0)"/>
     <use xlink:href="#DejaVuSans-Bold-61" transform="translate(538.134766 0)"/>
     <use xlink:href="#DejaVuSans-Bold-6c" transform="translate(605.615234 0)"/>
     <use xlink:href="#DejaVuSans-Bold-65" transform="translate(639.892578 0)"/>
    </g>
   </g>
   <g id="text_8">
    <!-- ~10¹⁹ GeV -->
    <g style="fill: #e74c3c" transform="translate(617.63625 103.903854) scale(0.1 -0.1)">
     <defs>
      <path id="DejaVuSans-2079" d="M 453 2144 
L 453 2466 
Q 606 2403 763 2369 
Q 919 2338 1069 2338 
Q 1472 2338 1684 2572 
Q 1894 2806 1925 3288 
Q 1816 3141 1628 3056 
Q 1450 2975 1234 2975 
Q 784 2975 521 3212 
Q 259 3450 259 3863 
Q 259 4266 531 4506 
Q 806 4750 1259 4750 
Q 1781 4750 2053 4403 
Q 2328 4056 2328 3394 
Q 2328 2775 1994 2409 
Q 1656 2041 1088 2041 
Q 934 2041 778 2066 
Q 622 2094 453 2144 
z
M 1259 3250 
Q 1534 3250 1693 3412 
Q 1853 3575 1853 3863 
Q 1853 4144 1694 4306 
Q 1534 4472 1259 4472 
Q 994 4472 828 4306 
Q 666 4144 666 3863 
Q 666 3575 828 3413 
Q 988 3250 1259 3250 
z
" transform="scale(0.015625)"/>
     </defs>
     <use xlink:href="#DejaVuSans-7e"/>
     <use xlink:href="#DejaVuSans-31" transform="translate(83.789062 0)"/>
     <use xlink:href="#DejaVuSans-30" transform="translate(147.412109 0)"/>
     <use xlink:href="#DejaVuSans-b9" transform="translate(211.035156 0)"/>
     <use xlink:href="#DejaVuSans-2079" transform="translate(251.123047 0)"/>
     <use xlink:href="#DejaVuSans-20" transform="translate(291.210938 0)"/>
     <use xlink:href="#DejaVuSans-47" transform="translate(322.998047 0)"/>
     <use xlink:href="#DejaVuSans-65" transform="translate(400.488281 0)"/>
     <use xlink:href="#DejaVuSans-56" transform="translate(462.011719 0)"/>
    </g>
   </g>
   <g id="text_9">
    <!-- Gravity -->
    <g style="fill: #ffffff" transform="translate(177.666625 103.351979) scale(0.08 -0.08)">
     <defs>
      <path id="DejaVuSans-72" d="M 2631 2963 
Q 2534 3019 2420 3045 
Q 2306 3072 2169 3072 
Q 1681 3072 1420 2755 
Q 1159 2438 1159 1844 
L 1159 0 
L 581 0 
L 581 3500 
L 1159 3500 
L 1159 2956 
Q 1341 3275 1631 3429 
Q 1922 3584 2338 3584 
Q 2397 3584 2469 3576 
Q 2541 3569 2628 3553 
L 2631 2963 
z
" transform="scale(0.015625)"/>
      <path id="DejaVuSans-61" d="M 2194 1759 
Q 1497 1759 1228 1600 
Q 959 1441 959 1056 
Q 959 750 1161 570 
Q 1363 391 1709 391 
Q 2188 391 2477 730 
Q 2766 1069 2766 1631 
L 2766 1759 
L 2194 1759 
z
M 3341 1997 
L 3341 0 
L 2766 0 
L 2766 531 
Q 2569 213 2275 61 
Q 1981 -91 1556 -91 
Q 1019 -91 701 211 
Q 384 513 384 1019 
Q 384 1609 779 1909 
Q 1175 2209 1959 2209 
L 2766 2209 
L 2766 2266 
Q 2766 2663 2505 2880 
Q 2244 3097 1772 3097 
Q 1472 3097 1187 3025 
Q 903 2953 641 2809 
L 641 3341 
Q 956 3463 1253 3523 
Q 1550 3584 1831 3584 
Q 2591 3584 2966 3190 
Q 3341 2797 3341 1997 
z
" transform="scale(0.015625)"/>
      <path id="DejaVuSans-76" d="M 191 3500 
L 800 3500 
L 1894 563 
L 2988 3500 
L 3597 3500 
L 2284 0 
L 1503 0 
L 191 3500 
z
" transform="scale(0.015625)"/>
      <path id="DejaVuSans-69" d="M 603 3500 
L 1178 3500 
L 1178 0 
L 603 0 
L 603 3500 
z
M 603 4863 
L 1178 4863 
L 1178 4134 
L 603 4134 
L 603 4863 
z
" transform="scale(0.015625)"/>
      <path id="DejaVuSans-74" d="M 1172 4494 
L 1172 3500 
L 2356 3500 
L 2356 3053 
L 1172 3053 
L 1172 1153 
Q 1172 725 1289 603 
Q 1406 481 1766 481 
L 2356 481 
L 2356 0 
L 1766 0 
Q 1100 0 847 248 
Q 594 497 594 1153 
L 594 3053 
L 172 3053 
L 172 3500 
L 594 3500 
L 594 4494 
L 1172 4494 
z
" transform="scale(0.015625)"/>
      <path id="DejaVuSans-79" d="M 2059 -325 
Q 1816 -950 1584 -1140 
Q 1353 -1331 966 -1331 
L 506 -1331 
L 506 -850 
L 844 -850 
Q 1081 -850 1212 -737 
Q 1344 -625 1503 -206 
L 1606 56 
L 191 3500 
L 800 3500 
L 1894 763 
L 2988 3500 
L 3597 3500 
L 2059 -325 
z
" transform="scale(0.015625)"/>
     </defs>
     <use xlink:href="#DejaVuSans-47"/>
     <use xlink:href="#DejaVuSans-72" transform="translate(77.490234 0)"/>
     <use xlink:href="#DejaVuSans-61" transform="translate(118.603516 0)"/>
     <use xlink:href="#DejaVuSans-76" transform="translate(179.882812 0)"/>
     <use xlink:href="#DejaVuSans-69" transform="translate(239.0625 0)"/>
     <use xlink:href="#DejaVuSans-74" transform="translate(266.845703 0)"/>
     <use xlink:href="#DejaVuSans-79" transform="translate(306.054688 0)"/>
    </g>
   </g>
   <g id="text_10">
    <!-- Strong -->
    <g style="fill: #ffffff" transform="translate(283.85225 103.351979) scale(0.08 -0.08)">
     <defs>
      <path id="DejaVuSans-53" d="M 3425 4513 
L 3425 3897 
Q 3066 4069 2747 4153 
Q 2428 4238 2131 4238 
Q 1616 4238 1336 4038 
Q 1056 3838 1056 3469 
Q 1056 3159 1242 3001 
Q 1428 2844 1947 2747 
L 2328 2669 
Q 3034 2534 3370 2195 
Q 3706 1856 3706 1288 
Q 3706 609 3251 259 
Q 2797 -91 1919 -91 
Q 1588 -91 1214 -16 
Q 841 59 441 206 
L 441 856 
Q 825 641 1194 531 
Q 1563 422 1919 422 
Q 2459 422 2753 634 
Q 3047 847 3047 1241 
Q 3047 1584 2836 1778 
Q 2625 1972 2144 2069 
L 1759 2144 
Q 1053 2284 737 2584 
Q 422 2884 422 3419 
Q 422 4038 858 4394 
Q 1294 4750 2059 4750 
Q 2388 4750 2728 4690 
Q 3069 4631 3425 4513 
z
" transform="scale(0.015625)"/>
      <path id="DejaVuSans-6f" d="M 1959 3097 
Q 1497 3097 1228 2736 
Q 959 2375 959 1747 
Q 959 1119 1226 758 
Q 1494 397 1959 397 
Q 2419 397 2687 759 
Q 2956 1122 2956 1747 
Q 2956 2369 2687 2733 
Q 2419 3097 1959 3097 
z
M 1959 3584 
Q 2709 3584 3137 3096 
Q 3566 2609 3566 1747 
Q 3566 888 3137 398 
Q 2709 -91 1959 -91 
Q 1206 -91 779 398 
Q 353 888 353 1747 
Q 353 2609 779 3096 
Q 1206 3584 1959 3584 
z
" transform="scale(0.015625)"/>
      <path id="DejaVuSans-6e" d="M 3513 2113 
L 3513 0 
L 2938 0 
L 2938 2094 
Q 2938 2591 2744 2837 
Q 2550 3084 2163 3084 
Q 1697 3084 1428 2787 
Q 1159 2491 1159 1978 
L 1159 0 
L 581 0 
L 581 3500 
L 1159 3500 
L 1159 2956 
Q 1366 3272 1645 3428 
Q 1925 3584 2291 3584 
Q 2894 3584 3203 3211 
Q 3513 2838 3513 2113 
z
" transform="scale(0.015625)"/>
      <path id="DejaVuSans-67" d="M 2906 1791 
Q 2906 2416 2648 2759 
Q 2391 3103 1925 3103 
Q 1463 3103 1205 2759 
Q 947 2416 947 1791 
Q 947 1169 1205 825 
Q 1463 481 1925 481 
Q 2391 481 2648 825 
Q 2906 1169 2906 1791 
z
M 3481 434 
Q 3481 -459 3084 -895 
Q 2688 -1331 1869 -1331 
Q 1566 -1331 1297 -1286 
Q 1028 -1241 775 -1147 
L 775 -588 
Q 1028 -725 1275 -790 
Q 1522 -856 1778 -856 
Q 2344 -856 2625 -561 
Q 2906 -266 2906 331 
L 2906 616 
Q 2728 306 2450 153 
Q 2172 0 1784 0 
Q 1141 0 747 490 
Q 353 981 353 1791 
Q 353 2603 747 3093 
Q 1141 3584 1784 3584 
Q 2172 3584 2450 3431 
Q 2728 3278 2906 2969 
L 2906 3500 
L 3481 3500 
L 3481 434 
z
" transform="scale(0.015625)"/>
     </defs>
     <use xlink:href="#DejaVuSans-53"/>
     <use xlink:href="#DejaVuSans-74" transform="translate(63.476562 0)"/>
     <use xlink:href="#DejaVuSans-72" transform="translate(102.685547 0)"/>
     <use xlink:href="#DejaVuSans-6f" transform="translate(141.548828 0)"/>
     <use xlink:href="#DejaVuSans-6e" transform="translate(202.730469 0)"/>
     <use xlink:href="#DejaVuSans-67" transform="translate(266.109375 0)"/>
    </g>
   </g>
   <g id="text_11">
    <!-- EM -->
    <g style="fill: #ffffff" transform="translate(395.81725 103.351979) scale(0.08 -0.08)">
     <defs>
      <path id="DejaVuSans-45" d="M 628 4666 
L 3578 4666 
L 3578 4134 
L 1259 4134 
L 1259 2753 
L 3481 2753 
L 3481 2222 
L 1259 2222 
L 1259 531 
L 3634 531 
L 3634 0 
L 628 0 
L 628 4666 
z
" transform="scale(0.015625)"/>
      <path id="DejaVuSans-4d" d="M 628 4666 
L 1569 4666 
L 2759 1491 
L 3956 4666 
L 4897 4666 
L 4897 0 
L 4281 0 
L 4281 4097 
L 3078 897 
L 2444 897 
L 1241 4097 
L 1241 0 
L 628 0 
L 628 4666 
z
" transform="scale(0.015625)"/>
     </defs>
     <use xlink:href="#DejaVuSans-45"/>
     <use xlink:href="#DejaVuSans-4d" transform="translate(63.183594 0)"/>
    </g>
   </g>
   <g id="text_12">
    <!-- Weak -->
    <g style="fill: #ffffff" transform="translate(495.60725 103.351979) scale(0.08 -0.08)">
     <defs>
      <path id="DejaVuSans-57" d="M 213 4666 
L 850 4666 
L 1831 722 
L 2809 4666 
L 3519 4666 
L 4500 722 
L 5478 4666 
L 6119 4666 
L 4947 0 
L 4153 0 
L 3169 4050 
L 2175 0 
L 1381 0 
L 213 4666 
z
" transform="scale(0.015625)"/>
      <path id="DejaVuSans-6b" d="M 581 4863 
L 1159 4863 
L 1159 1991 
L 2875 3500 
L 3609 3500 
L 1753 1863 
L 3688 0 
L 2938 0 
L 1159 1709 
L 1159 0 
L 581 0 
L 581 4863 
z
" transform="scale(0.015625)"/>
     </defs>
     <use xlink:href="#DejaVuSans-57"/>
     <use xlink:href="#DejaVuSans-65" transform="translate(93.001953 0)"/>
     <use xlink:href="#DejaVuSans-61" transform="translate(154.525391 0)"/>
     <use xlink:href="#DejaVuSans-6b" transform="translate(215.804688 0)"/>
    </g>
   </g>
   <g id="text_13">
    <!-- Gravity -->
    <g style="fill: #ffffff" transform="translate(177.666625 198.311979) scale(0.08 -0.08)">
     <use xlink:href="#DejaVuSans-47"/>
     <use xlink:href="#DejaVuSans-72" transform="translate(77.490234 0)"/>
     <use xlink:href="#DejaVuSans-61" transform="translate(118.603516 0)"/>
     <use xlink:href="#DejaVuSans-76" transform="translate(179.882812 0)"/>
     <use xlink:href="#DejaVuSans-69" transform="translate(239.0625 0)"/>
     <use xlink:href="#DejaVuSans-74" transform="translate(266.845703 0)"/>
     <use xlink:href="#DejaVuSans-79" transform="translate(306.054688 0)"/>
    </g>
   </g>
   <g id="text_14">
    <!-- GUT Force -->
    <g style="fill: #ffffff" transform="translate(276.476625 198.311979) scale(0.08 -0.08)">
     <defs>
      <path id="DejaVuSans-55" d="M 556 4666 
L 1191 4666 
L 1191 1831 
Q 1191 1081 1462 751 
Q 1734 422 2344 422 
Q 2950 422 3222 751 
Q 3494 1081 3494 1831 
L 3494 4666 
L 4128 4666 
L 4128 1753 
Q 4128 841 3676 375 
Q 3225 -91 2344 -91 
Q 1459 -91 1007 375 
Q 556 841 556 1753 
L 556 4666 
z
" transform="scale(0.015625)"/>
      <path id="DejaVuSans-54" d="M -19 4666 
L 3928 4666 
L 3928 4134 
L 2272 4134 
L 2272 0 
L 1638 0 
L 1638 4134 
L -19 4134 
L -19 4666 
z
" transform="scale(0.015625)"/>
      <path id="DejaVuSans-46" d="M 628 4666 
L 3309 4666 
L 3309 4134 
L 1259 4134 
L 1259 2759 
L 3109 2759 
L 3109 2228 
L 1259 2228 
L 1259 0 
L 628 0 
L 628 4666 
z
" transform="scale(0.015625)"/>
      <path id="DejaVuSans-63" d="M 3122 3366 
L 3122 2828 
Q 2878 2963 2633 3030 
Q 2388 3097 2138 3097 
Q 1578 3097 1268 2742 
Q 959 2388 959 1747 
Q 959 1106 1268 751 
Q 1578 397 2138 397 
Q 2388 397 2633 464 
Q 2878 531 3122 666 
L 3122 134 
Q 2881 22 2623 -34 
Q 2366 -91 2075 -91 
Q 1284 -91 818 406 
Q 353 903 353 1747 
Q 353 2603 823 3093 
Q 1294 3584 2113 3584 
Q 2378 3584 2631 3529 
Q 2884 3475 3122 3366 
z
" transform="scale(0.015625)"/>
     </defs>
     <use xlink:href="#DejaVuSans-47"/>
     <use xlink:href="#DejaVuSans-55" transform="translate(77.490234 0)"/>
     <use xlink:href="#DejaVuSans-54" transform="translate(150.683594 0)"/>
     <use xlink:href="#DejaVuSans-20" transform="translate(211.767578 0)"/>
     <use xlink:href="#DejaVuSans-46" transform="translate(243.554688 0)"/>
     <use xlink:href="#DejaVuSans-6f" transform="translate(297.449219 0)"/>
     <use xlink:href="#DejaVuSans-72" transform="translate(358.630859 0)"/>
     <use xlink:href="#DejaVuSans-63" transform="translate(397.494141 0)"/>
     <use xlink:href="#DejaVuSans-65" transform="translate(452.474609 0)"/>
    </g>
   </g>
   <g id="text_15">
    <!-- Gravity -->
    <g style="fill: #ffffff" transform="translate(177.666625 293.271979) scale(0.08 -0.08)">
     <use xlink:href="#DejaVuSans-47"/>
     <use xlink:href="#DejaVuSans-72" transform="translate(77.490234 0)"/>
     <use xlink:href="#DejaVuSans-61" transform="translate(118.603516 0)"/>
     <use xlink:href="#DejaVuSans-76" transform="translate(179.882812 0)"/>
     <use xlink:href="#DejaVuSans-69" transform="translate(239.0625 0)"/>
     <use xlink:href="#DejaVuSans-74" transform="translate(266.845703 0)"/>
     <use xlink:href="#DejaVuSans-79" transform="translate(306.054688 0)"/>
    </g>
   </g>
   <g id="text_16">
    <!-- Strong -->
    <g style="fill: #ffffff" transform="translate(283.85225 293.271979) scale(0.08 -0.08)">
     <use xlink:href="#DejaVuSans-53"/>
     <use xlink:href="#DejaVuSans-74" transform="translate(63.476562 0)"/>
     <use xlink:href="#DejaVuSans-72" transform="translate(102.685547 0)"/>
     <use xlink:href="#DejaVuSans-6f" transform="translate(141.548828 0)"/>
     <use xlink:href="#DejaVuSans-6e" transform="translate(202.730469 0)"/>
     <use xlink:href="#DejaVuSans-67" transform="translate(266.109375 0)"/>
    </g>
   </g>
   <g id="text_17">
    <!-- Electroweak -->
    <g style="fill: #ffffff" transform="translate(377.426625 293.271979) scale(0.08 -0.08)">
     <defs>
      <path id="DejaVuSans-6c" d="M 603 4863 
L 1178 4863 
L 1178 0 
L 603 0 
L 603 4863 
z
" transform="scale(0.015625)"/>
      <path id="DejaVuSans-77" d="M 269 3500 
L 844 3500 
L 1563 769 
L 2278 3500 
L 2956 3500 
L 3675 769 
L 4391 3500 
L 4966 3500 
L 4050 0 
L 3372 0 
L 2619 2869 
L 1863 0 
L 1184 0 
L 269 3500 
z
" transform="scale(0.015625)"/>
     </defs>
     <use xlink:href="#DejaVuSans-45"/>
     <use xlink:href="#DejaVuSans-6c" transform="translate(63.183594 0)"/>
     <use xlink:href="#DejaVuSans-65" transform="translate(90.966797 0)"/>
     <use xlink:href="#DejaVuSans-63" transform="translate(152.490234 0)"/>
     <use xlink:href="#DejaVuSans-74" transform="translate(207.470703 0)"/>
     <use xlink:href="#DejaVuSans-72" transform="translate(246.679688 0)"/>
     <use xlink:href="#DejaVuSans-6f" transform="translate(285.542969 0)"/>
     <use xlink:href="#DejaVuSans-77" transform="translate(346.724609 0)"/>
     <use xlink:href="#DejaVuSans-65" transform="translate(428.511719 0)"/>
     <use xlink:href="#DejaVuSans-61" transform="translate(490.035156 0)"/>
     <use xlink:href="#DejaVuSans-6b" transform="translate(551.314453 0)"/>
    </g>
   </g>
   <g id="text_18">
    <!-- Gravity -->
    <g style="fill: #ffffff" transform="translate(177.666625 388.231979) scale(0.08 -0.08)">
     <use xlink:href="#DejaVuSans-47"/>
     <use xlink:href="#DejaVuSans-72" transform="translate(77.490234 0)"/>
     <use xlink:href="#DejaVuSans-61" transform="translate(118.603516 0)"/>
     <use xlink:href="#DejaVuSans-76" transform="translate(179.882812 0)"/>
     <use xlink:href="#DejaVuSans-69" transform="translate(239.0625 0)"/>
     <use xlink:href="#DejaVuSans-74" transform="translate(266.845703 0)"/>
     <use xlink:href="#DejaVuSans-79" transform="translate(306.054688 0)"/>
    </g>
   </g>
   <g id="text_19">
    <!-- Strong -->
    <g style="fill: #ffffff" transform="translate(283.85225 388.231979) scale(0.08 -0.08)">
     <use xlink:href="#DejaVuSans-53"/>
     <use xlink:href="#DejaVuSans-74" transform="translate(63.476562 0)"/>
     <use xlink:href="#DejaVuSans-72" transform="translate(102.685547 0)"/>
     <use xlink:href="#DejaVuSans-6f" transform="translate(141.548828 0)"/>
     <use xlink:href="#DejaVuSans-6e" transform="translate(202.730469 0)"/>
     <use xlink:href="#DejaVuSans-67" transform="translate(266.109375 0)"/>
    </g>
   </g>
   <g id="text_20">
    <!-- EM -->
    <g style="fill: #ffffff" transform="translate(395.81725 388.231979) scale(0.08 -0.08)">
     <use xlink:href="#DejaVuSans-45"/>
     <use xlink:href="#DejaVuSans-4d" transform="translate(63.183594 0)"/>
    </g>
   </g>
   <g id="text_21">
    <!-- Weak -->
    <g style="fill: #ffffff" transform="translate(495.60725 388.231979) scale(0.08 -0.08)">
     <use xlink:href="#DejaVuSans-57"/>
     <use xlink:href="#DejaVuSans-65" transform="translate(93.001953 0)"/>
     <use xlink:href="#DejaVuSans-61" transform="translate(154.525391 0)"/>
     <use xlink:href="#DejaVuSans-6b" transform="translate(215.804688 0)"/>
    </g>
   </g>
   <g id="patch_15">
    <path d="M 286.56 117.484767 
Q 286.56 148.624357 286.56 179.763947 
" style="fill: none; stroke: #2c3e50; stroke-width: 1.5; stroke-linecap: round"/>
    <path d="M 284.56 121.484767 
L 286.56 117.484767 
L 288.56 121.484767 
" style="fill: none; stroke: #2c3e50; stroke-width: 1.5; stroke-linecap: round"/>
    <path d="M 288.56 175.763947 
L 286.56 179.763947 
L 284.56 175.763947 
" style="fill: none; stroke: #2c3e50; stroke-width: 1.5; stroke-linecap: round"/>
   </g>
   <g id="patch_16">
    <path d="M 286.56 212.444767 
Q 286.56 243.584357 286.56 274.723947 
" style="fill: none; stroke: #2c3e50; stroke-width: 1.5; stroke-linecap: round"/>
    <path d="M 284.56 216.444767 
L 286.56 212.444767 
L 288.56 216.444767 
" style="fill: none; stroke: #2c3e50; stroke-width: 1.5; stroke-linecap: round"/>
    <path d="M 288.56 270.723947 
L 286.56 274.723947 
L 284.56 270.723947 
" style="fill: none; stroke: #2c3e50; stroke-width: 1.5; stroke-linecap: round"/>
   </g>
   <g id="text_22">
    <!-- Force Unification Across Energy Scales -->
    <g transform="translate(221.30875 17.837812) scale(0.14 -0.14)">
     <defs>
      <path id="DejaVuSans-66" d="M 2375 4863 
L 2375 4384 
L 1825 4384 
Q 1516 4384 1395 4259 
Q 1275 4134 1275 3809 
L 1275 3500 
L 2222 3500 
L 2222 3053 
L 1275 3053 
L 1275 0 
L 697 0 
L 697 3053 
L 147 3053 
L 147 3500 
L 697 3500 
L 697 3744 
Q 697 4328 969 4595 
Q 1241 4863 1831 4863 
L 2375 4863 
z
" transform="scale(0.015625)"/>
      <path id="DejaVuSans-41" d="M 2188 4044 
L 1331 1722 
L 3047 1722 
L 2188 4044 
z
M 1831 4666 
L 2547 4666 
L 4325 0 
L 3669 0 
L 3244 1197 
L 1141 1197 
L 716 0 
L 50 0 
L 1831 4666 
z
" transform="scale(0.015625)"/>
      <path id="DejaVuSans-73" d="M 2834 3397 
L 2834 2853 
Q 2591 2978 2328 3040 
Q 2066 3103 1784 3103 
Q 1356 3103 1142 2972 
Q 928 2841 928 2578 
Q 928 2378 1081 2264 
Q 1234 2150 1697 2047 
L 1894 2003 
Q 2506 1872 2764 1633 
Q 3022 1394 3022 966 
Q 3022 478 2636 193 
Q 2250 -91 1575 -91 
Q 1294 -91 989 -36 
Q 684 19 347 128 
L 347 722 
Q 666 556 975 473 
Q 1284 391 1588 391 
Q 1994 391 2212 530 
Q 2431 669 2431 922 
Q 2431 1156 2273 1281 
Q 2116 1406 1581 1522 
L 1381 1569 
Q 847 1681 609 1914 
Q 372 2147 372 2553 
Q 372 3047 722 3315 
Q 1072 3584 1716 3584 
Q 2034 3584 2315 3537 
Q 2597 3491 2834 3397 
z
" transform="scale(0.015625)"/>
     </defs>
     <use xlink:href="#DejaVuSans-46"/>
     <use xlink:href="#DejaVuSans-6f" transform="translate(53.894531 0)"/>
     <use xlink:href="#DejaVuSans-72" transform="translate(115.076172 0)"/>
     <use xlink:href="#DejaVuSans-63" transform="translate(153.939453 0)"/>
     <use xlink:href="#DejaVuSans-65" transform="translate(208.919922 0)"/>
     <use xlink:href="#DejaVuSans-20" transform="translate(270.443359 0)"/>
     <use xlink:href="#DejaVuSans-55" transform="translate(302.230469 0)"/>
     <use xlink:href="#DejaVuSans-6e" transform="translate(375.423828 0)"/>
     <use xlink:href="#DejaVuSans-69" transform="translate(438.802734 0)"/>
     <use xlink:href="#DejaVuSans-66" transform="translate(466.585938 0)"/>
     <use xlink:href="#DejaVuSans-69" transform="translate(501.791016 0)"/>
     <use xlink:href="#DejaVuSans-63" transform="translate(529.574219 0)"/>
     <use xlink:href="#DejaVuSans-61" transform="translate(584.554688 0)"/>
     <use xlink:href="#DejaVuSans-74" transform="translate(645.833984 0)"/>
     <use xlink:href="#DejaVuSans-69" transform="translate(685.042969 0)"/>
     <use xlink:href="#DejaVuSans-6f" transform="translate(712.826172 0)"/>
     <use xlink:href="#DejaVuSans-6e" transform="translate(774.007812 0)"/>
     <use xlink:href="#DejaVuSans-20" transform="translate(837.386719 0)"/>
     <use xlink:href="#DejaVuSans-41" transform="translate(869.173828 0)"/>
     <use xlink:href="#DejaVuSans-63" transform="translate(935.832031 0)"/>
     <use xlink:href="#DejaVuSans-72" transform="translate(990.8125 0)"/>
     <use xlink:href="#DejaVuSans-6f" transform="translate(1029.675781 0)"/>
     <use xlink:href="#DejaVuSans-73" transform="translate(1090.857422 0)"/>
     <use xlink:href="#DejaVuSans-73" transform="translate(1142.957031 0)"/>
     <use xlink:href="#DejaVuSans-20" transform="translate(1195.056641 0)"/>
     <use xlink:href="#DejaVuSans-45" transform="translate(1226.84375 0)"/>
     <use xlink:href="#DejaVuSans-6e" transform="translate(1290.027344 0)"/>
     <use xlink:href="#DejaVuSans-65" transform="translate(1353.40625 0)"/>
     <use xlink:href="#DejaVuSans-72" transform="translate(1414.929688 0)"/>
     <use xlink:href="#DejaVuSans-67" transform="translate(1454.292969 0)"/>
     <use xlink:href="#DejaVuSans-79" transform="translate(1517.769531 0)"/>
     <use xlink:href="#DejaVuSans-20" transform="translate(1576.949219 0)"/>
     <use xlink:href="#DejaVuSans-53" transform="translate(1608.736328 0)"/>
     <use xlink:href="#DejaVuSans-63" transform="translate(1672.212891 0)"/>
     <use xlink:href="#DejaVuSans-61" transform="translate(1727.193359 0)"/>
     <use xlink:href="#DejaVuSans-6c" transform="translate(1788.472656 0)"/>
     <use xlink:href="#DejaVuSans-65" transform="translate(1816.255859 0)"/>
     <use xlink:href="#DejaVuSans-73" transform="translate(1877.779297 0)"/>
    </g>
   </g>
  </g>
 </g>
 <defs>
  <clipPath id="p0388b36bdb">
   <rect x="7.2" y="37.837812" width="698.4" height="379.84"/>
  </clipPath>
 </defs>
</svg>
