<?xml version="1.0" encoding="utf-8" standalone="no"?>
<!DOCTYPE svg PUBLIC "-//W3C//DTD SVG 1.1//EN"
  "http://www.w3.org/Graphics/SVG/1.1/DTD/svg11.dtd">
<svg xmlns:xlink="http://www.w3.org/1999/xlink" width="853.789001pt" height="359.568pt" viewBox="0 0 853.789001 359.568" xmlns="http://www.w3.org/2000/svg" version="1.1">
 <metadata>
  <rdf:RDF xmlns:dc="http://purl.org/dc/elements/1.1/" xmlns:cc="http://creativecommons.org/ns#" xmlns:rdf="http://www.w3.org/1999/02/22-rdf-syntax-ns#">
   <cc:Work>
    <dc:type rdf:resource="http://purl.org/dc/dcmitype/StillImage"/>
    <dc:date>2026-01-02T19:17:51.713821</dc:date>
    <dc:format>image/svg+xml</dc:format>
    <dc:creator>
     <cc:Agent>
      <dc:title>Matplotlib v3.10.8, https://matplotlib.org/</dc:title>
     </cc:Agent>
    </dc:creator>
   </cc:Work>
  </rdf:RDF>
 </metadata>
 <defs>
  <style type="text/css">*{stroke-linejoin: round; stroke-linecap: butt}</style>
 </defs>
 <g id="figure_1">
  <g id="patch_1">
   <path d="M 0 359.568 
L 853.789001 359.568 
L 853.789001 0 
L 0 0 
z
" style="fill: #ffffff"/>
  </g>
  <g id="axes_1">
   <g id="patch_2">
    <path d="M 22.265255 195.2096 
L 22.813082 195.2096 
L 22.813082 139.0816 
L 22.265255 139.0816 
z
" clip-path="url(#pc66a6b4b4a)" style="fill: #95a5a6; opacity: 0.16; stroke: #95a5a6; stroke-linejoin: miter"/>
   </g>
   <g id="patch_3">
    <path d="M 22.813082 195.2096 
L 77.047998 195.2096 
L 77.047998 139.0816 
L 22.813082 139.0816 
z
" clip-path="url(#pc66a6b4b4a)" style="fill: #2ecc71; opacity: 0.16; stroke: #2ecc71; stroke-linejoin: miter"/>
   </g>
   <g id="patch_4">
    <path d="M 77.047998 195.2096 
L 193.461329 195.2096 
L 193.461329 139.0816 
L 77.047998 139.0816 
z
" clip-path="url(#pc66a6b4b4a)" style="fill: #f39c12; opacity: 0.16; stroke: #f39c12; stroke-linejoin: miter"/>
   </g>
   <g id="patch_5">
    <path d="M 193.461329 195.2096 
L 398.896619 195.2096 
L 398.896619 139.0816 
L 193.461329 139.0816 
z
" clip-path="url(#pc66a6b4b4a)" style="fill: #2c3e50; opacity: 0.16; stroke: #2c3e50; stroke-linejoin: miter"/>
   </g>
   <g id="line2d_1">
    <path d="M 22.265255 116.6304 
L 398.896619 116.6304 
" clip-path="url(#pc66a6b4b4a)" style="fill: none; stroke: #2c3e50; stroke-linecap: square"/>
   </g>
   <g id="line2d_2">
    <path d="M 22.813082 122.2432 
L 22.813082 111.0176 
" clip-path="url(#pc66a6b4b4a)" style="fill: none; stroke: #95a5a6; stroke-linecap: square"/>
   </g>
   <g id="line2d_3">
    <path d="M 77.047998 122.2432 
L 77.047998 111.0176 
" clip-path="url(#pc66a6b4b4a)" style="fill: none; stroke: #95a5a6; stroke-linecap: square"/>
   </g>
   <g id="line2d_4">
    <path d="M 193.461329 122.2432 
L 193.461329 111.0176 
" clip-path="url(#pc66a6b4b4a)" style="fill: none; stroke: #95a5a6; stroke-linecap: square"/>
   </g>
   <g id="text_1">
    <!-- Initial mass (M☉) -->
    <g style="fill: #2c3e50" transform="translate(14.732627 94.1792) scale(0.12 -0.12)">
     <defs>
      <path id="DejaVuSans-Bold-49" d="M 588 4666 
L 1791 4666 
L 1791 0 
L 588 0 
L 588 4666 
z
" transform="scale(0.015625)"/>
      <path id="DejaVuSans-Bold-6e" d="M 4056 2131 
L 4056 0 
L 2931 0 
L 2931 347 
L 2931 1631 
Q 2931 2084 2911 2256 
Q 2891 2428 2841 2509 
Q 2775 2619 2662 2680 
Q 2550 2741 2406 2741 
Q 2056 2741 1856 2470 
Q 1656 2200 1656 1722 
L 1656 0 
L 538 0 
L 538 3500 
L 1656 3500 
L 1656 2988 
Q 1909 3294 2193 3439 
Q 2478 3584 2822 3584 
Q 3428 3584 3742 3212 
Q 4056 2841 4056 2131 
z
" transform="scale(0.015625)"/>
      <path id="DejaVuSans-Bold-69" d="M 538 3500 
L 1656 3500 
L 1656 0 
L 538 0 
L 538 3500 
z
M 538 4863 
L 1656 4863 
L 1656 3950 
L 538 3950 
L 538 4863 
z
" transform="scale(0.015625)"/>
      <path id="DejaVuSans-Bold-74" d="M 1759 4494 
L 1759 3500 
L 2913 3500 
L 2913 2700 
L 1759 2700 
L 1759 1216 
Q 1759 972 1856 886 
Q 1953 800 2241 800 
L 2816 800 
L 2816 0 
L 1856 0 
Q 1194 0 917 276 
Q 641 553 641 1216 
L 641 2700 
L 84 2700 
L 84 3500 
L 641 3500 
L 641 4494 
L 1759 4494 
z
" transform="scale(0.015625)"/>
      <path id="DejaVuSans-Bold-61" d="M 2106 1575 
Q 1756 1575 1579 1456 
Q 1403 1338 1403 1106 
Q 1403 894 1545 773 
Q 1688 653 1941 653 
Q 2256 653 2472 879 
Q 2688 1106 2688 1447 
L 2688 1575 
L 2106 1575 
z
M 3816 1997 
L 3816 0 
L 2688 0 
L 2688 519 
Q 2463 200 2181 54 
Q 1900 -91 1497 -91 
Q 953 -91 614 226 
Q 275 544 275 1050 
Q 275 1666 698 1953 
Q 1122 2241 2028 2241 
L 2688 2241 
L 2688 2328 
Q 2688 2594 2478 2717 
Q 2269 2841 1825 2841 
Q 1466 2841 1156 2769 
Q 847 2697 581 2553 
L 581 3406 
Q 941 3494 1303 3539 
Q 1666 3584 2028 3584 
Q 2975 3584 3395 3211 
Q 3816 2838 3816 1997 
z
" transform="scale(0.015625)"/>
      <path id="DejaVuSans-Bold-6c" d="M 538 4863 
L 1656 4863 
L 1656 0 
L 538 0 
L 538 4863 
z
" transform="scale(0.015625)"/>
      <path id="DejaVuSans-Bold-20" transform="scale(0.015625)"/>
      <path id="DejaVuSans-Bold-6d" d="M 3781 2919 
Q 3994 3244 4286 3414 
Q 4578 3584 4928 3584 
Q 5531 3584 5847 3212 
Q 6163 2841 6163 2131 
L 6163 0 
L 5038 0 
L 5038 1825 
Q 5041 1866 5042 1909 
Q 5044 1953 5044 2034 
Q 5044 2406 4934 2573 
Q 4825 2741 4581 2741 
Q 4263 2741 4089 2478 
Q 3916 2216 3909 1719 
L 3909 0 
L 2784 0 
L 2784 1825 
Q 2784 2406 2684 2573 
Q 2584 2741 2328 2741 
Q 2006 2741 1831 2477 
Q 1656 2213 1656 1722 
L 1656 0 
L 531 0 
L 531 3500 
L 1656 3500 
L 1656 2988 
Q 1863 3284 2130 3434 
Q 2397 3584 2719 3584 
Q 3081 3584 3359 3409 
Q 3638 3234 3781 2919 
z
" transform="scale(0.015625)"/>
      <path id="DejaVuSans-Bold-73" d="M 3272 3391 
L 3272 2541 
Q 2913 2691 2578 2766 
Q 2244 2841 1947 2841 
Q 1628 2841 1473 2761 
Q 1319 2681 1319 2516 
Q 1319 2381 1436 2309 
Q 1553 2238 1856 2203 
L 2053 2175 
Q 2913 2066 3209 1816 
Q 3506 1566 3506 1031 
Q 3506 472 3093 190 
Q 2681 -91 1863 -91 
Q 1516 -91 1145 -36 
Q 775 19 384 128 
L 384 978 
Q 719 816 1070 734 
Q 1422 653 1784 653 
Q 2113 653 2278 743 
Q 2444 834 2444 1013 
Q 2444 1163 2330 1236 
Q 2216 1309 1875 1350 
L 1678 1375 
Q 931 1469 631 1722 
Q 331 1975 331 2491 
Q 331 3047 712 3315 
Q 1094 3584 1881 3584 
Q 2191 3584 2531 3537 
Q 2872 3491 3272 3391 
z
" transform="scale(0.015625)"/>
      <path id="DejaVuSans-Bold-28" d="M 2413 -844 
L 1484 -844 
Q 1006 -72 778 623 
Q 550 1319 550 2003 
Q 550 2688 779 3389 
Q 1009 4091 1484 4856 
L 2413 4856 
Q 2013 4116 1813 3408 
Q 1613 2700 1613 2009 
Q 1613 1319 1811 609 
Q 2009 -100 2413 -844 
z
" transform="scale(0.015625)"/>
      <path id="DejaVuSans-Bold-4d" d="M 588 4666 
L 2119 4666 
L 3181 2169 
L 4250 4666 
L 5778 4666 
L 5778 0 
L 4641 0 
L 4641 3413 
L 3566 897 
L 2803 897 
L 1728 3413 
L 1728 0 
L 588 0 
L 588 4666 
z
" transform="scale(0.015625)"/>
      <path id="DejaVuSans-Bold-2609" d="M 5206 2338 
Q 5206 1366 4522 683 
Q 3838 0 2866 0 
Q 1900 0 1215 683 
Q 531 1366 531 2338 
Q 531 2944 845 3508 
Q 1159 4072 1721 4373 
Q 2284 4675 2866 4675 
Q 3456 4675 4018 4373 
Q 4581 4072 4893 3511 
Q 5206 2950 5206 2338 
z
M 759 2338 
Q 759 1463 1375 848 
Q 1991 234 2866 234 
Q 3741 234 4356 848 
Q 4972 1463 4972 2338 
Q 4972 2891 4690 3394 
Q 4409 3897 3903 4169 
Q 3397 4441 2865 4441 
Q 2334 4441 1828 4169 
Q 1322 3897 1040 3394 
Q 759 2891 759 2338 
z
M 3453 2338 
Q 3453 2094 3283 1923 
Q 3113 1753 2869 1753 
Q 2628 1753 2456 1923 
Q 2284 2094 2284 2338 
Q 2284 2491 2362 2631 
Q 2441 2772 2581 2847 
Q 2722 2922 2869 2922 
Q 3016 2922 3156 2847 
Q 3297 2772 3375 2631 
Q 3453 2491 3453 2338 
z
" transform="scale(0.015625)"/>
      <path id="DejaVuSans-Bold-29" d="M 513 -844 
Q 913 -100 1113 609 
Q 1313 1319 1313 2009 
Q 1313 2700 1113 3408 
Q 913 4116 513 4856 
L 1441 4856 
Q 1916 4091 2145 3389 
Q 2375 2688 2375 2003 
Q 2375 1319 2147 623 
Q 1919 -72 1441 -844 
L 513 -844 
z
" transform="scale(0.015625)"/>
     </defs>
     <use xlink:href="#DejaVuSans-Bold-49"/>
     <use xlink:href="#DejaVuSans-Bold-6e" transform="translate(37.207031 0)"/>
     <use xlink:href="#DejaVuSans-Bold-69" transform="translate(108.398438 0)"/>
     <use xlink:href="#DejaVuSans-Bold-74" transform="translate(142.675781 0)"/>
     <use xlink:href="#DejaVuSans-Bold-69" transform="translate(190.478516 0)"/>
     <use xlink:href="#DejaVuSans-Bold-61" transform="translate(224.755859 0)"/>
     <use xlink:href="#DejaVuSans-Bold-6c" transform="translate(292.236328 0)"/>
     <use xlink:href="#DejaVuSans-Bold-20" transform="translate(326.513672 0)"/>
     <use xlink:href="#DejaVuSans-Bold-6d" transform="translate(361.328125 0)"/>
     <use xlink:href="#DejaVuSans-Bold-61" transform="translate(465.527344 0)"/>
     <use xlink:href="#DejaVuSans-Bold-73" transform="translate(533.007812 0)"/>
     <use xlink:href="#DejaVuSans-Bold-73" transform="translate(592.529297 0)"/>
     <use xlink:href="#DejaVuSans-Bold-20" transform="translate(652.050781 0)"/>
     <use xlink:href="#DejaVuSans-Bold-28" transform="translate(686.865234 0)"/>
     <use xlink:href="#DejaVuSans-Bold-4d" transform="translate(732.568359 0)"/>
     <use xlink:href="#DejaVuSans-Bold-2609" transform="translate(832.080078 0)"/>
     <use xlink:href="#DejaVuSans-Bold-29" transform="translate(921.728516 0)"/>
    </g>
   </g>
   <g id="text_2">
    <!-- Brown -->
    <g style="fill: #2c3e50" transform="translate(8.226668 158.18735) scale(0.08 -0.08)">
     <defs>
      <path id="DejaVuSans-Bold-42" d="M 2456 2859 
Q 2741 2859 2887 2984 
Q 3034 3109 3034 3353 
Q 3034 3594 2887 3720 
Q 2741 3847 2456 3847 
L 1791 3847 
L 1791 2859 
L 2456 2859 
z
M 2497 819 
Q 2859 819 3042 972 
Q 3225 1125 3225 1434 
Q 3225 1738 3044 1889 
Q 2863 2041 2497 2041 
L 1791 2041 
L 1791 819 
L 2497 819 
z
M 3616 2497 
Q 4003 2384 4215 2081 
Q 4428 1778 4428 1338 
Q 4428 663 3972 331 
Q 3516 0 2584 0 
L 588 0 
L 588 4666 
L 2394 4666 
Q 3366 4666 3802 4372 
Q 4238 4078 4238 3431 
Q 4238 3091 4078 2852 
Q 3919 2613 3616 2497 
z
" transform="scale(0.015625)"/>
      <path id="DejaVuSans-Bold-72" d="M 3138 2547 
Q 2991 2616 2845 2648 
Q 2700 2681 2553 2681 
Q 2122 2681 1889 2404 
Q 1656 2128 1656 1613 
L 1656 0 
L 538 0 
L 538 3500 
L 1656 3500 
L 1656 2925 
Q 1872 3269 2151 3426 
Q 2431 3584 2822 3584 
Q 2878 3584 2943 3579 
Q 3009 3575 3134 3559 
L 3138 2547 
z
" transform="scale(0.015625)"/>
      <path id="DejaVuSans-Bold-6f" d="M 2203 2784 
Q 1831 2784 1636 2517 
Q 1441 2250 1441 1747 
Q 1441 1244 1636 976 
Q 1831 709 2203 709 
Q 2569 709 2762 976 
Q 2956 1244 2956 1747 
Q 2956 2250 2762 2517 
Q 2569 2784 2203 2784 
z
M 2203 3584 
Q 3106 3584 3614 3096 
Q 4122 2609 4122 1747 
Q 4122 884 3614 396 
Q 3106 -91 2203 -91 
Q 1297 -91 786 396 
Q 275 884 275 1747 
Q 275 2609 786 3096 
Q 1297 3584 2203 3584 
z
" transform="scale(0.015625)"/>
      <path id="DejaVuSans-Bold-77" d="M 225 3500 
L 1313 3500 
L 1900 1088 
L 2491 3500 
L 3425 3500 
L 4013 1113 
L 4603 3500 
L 5691 3500 
L 4769 0 
L 3547 0 
L 2956 2406 
L 2369 0 
L 1147 0 
L 225 3500 
z
" transform="scale(0.015625)"/>
     </defs>
     <use xlink:href="#DejaVuSans-Bold-42"/>
     <use xlink:href="#DejaVuSans-Bold-72" transform="translate(76.220703 0)"/>
     <use xlink:href="#DejaVuSans-Bold-6f" transform="translate(125.537109 0)"/>
     <use xlink:href="#DejaVuSans-Bold-77" transform="translate(194.238281 0)"/>
     <use xlink:href="#DejaVuSans-Bold-6e" transform="translate(286.621094 0)"/>
    </g>
    <!-- dwarf -->
    <g style="fill: #2c3e50" transform="translate(9.568543 167.1456) scale(0.08 -0.08)">
     <defs>
      <path id="DejaVuSans-Bold-64" d="M 2919 2988 
L 2919 4863 
L 4044 4863 
L 4044 0 
L 2919 0 
L 2919 506 
Q 2688 197 2409 53 
Q 2131 -91 1766 -91 
Q 1119 -91 703 423 
Q 288 938 288 1747 
Q 288 2556 703 3070 
Q 1119 3584 1766 3584 
Q 2128 3584 2408 3439 
Q 2688 3294 2919 2988 
z
M 2181 722 
Q 2541 722 2730 984 
Q 2919 1247 2919 1747 
Q 2919 2247 2730 2509 
Q 2541 2772 2181 2772 
Q 1825 2772 1636 2509 
Q 1447 2247 1447 1747 
Q 1447 1247 1636 984 
Q 1825 722 2181 722 
z
" transform="scale(0.015625)"/>
      <path id="DejaVuSans-Bold-66" d="M 2841 4863 
L 2841 4128 
L 2222 4128 
Q 1984 4128 1890 4042 
Q 1797 3956 1797 3744 
L 1797 3500 
L 2753 3500 
L 2753 2700 
L 1797 2700 
L 1797 0 
L 678 0 
L 678 2700 
L 122 2700 
L 122 3500 
L 678 3500 
L 678 3744 
Q 678 4316 997 4589 
Q 1316 4863 1984 4863 
L 2841 4863 
z
" transform="scale(0.015625)"/>
     </defs>
     <use xlink:href="#DejaVuSans-Bold-64"/>
     <use xlink:href="#DejaVuSans-Bold-77" transform="translate(71.582031 0)"/>
     <use xlink:href="#DejaVuSans-Bold-61" transform="translate(163.964844 0)"/>
     <use xlink:href="#DejaVuSans-Bold-72" transform="translate(231.445312 0)"/>
     <use xlink:href="#DejaVuSans-Bold-66" transform="translate(280.761719 0)"/>
    </g>
   </g>
   <g id="text_3">
    <!-- White -->
    <g style="fill: #2c3e50" transform="translate(36.674915 158.18735) scale(0.08 -0.08)">
     <defs>
      <path id="DejaVuSans-Bold-57" d="M 191 4666 
L 1344 4666 
L 2150 1275 
L 2950 4666 
L 4109 4666 
L 4909 1275 
L 5716 4666 
L 6859 4666 
L 5759 0 
L 4372 0 
L 3525 3547 
L 2688 0 
L 1300 0 
L 191 4666 
z
" transform="scale(0.015625)"/>
      <path id="DejaVuSans-Bold-68" d="M 4056 2131 
L 4056 0 
L 2931 0 
L 2931 347 
L 2931 1625 
Q 2931 2084 2911 2256 
Q 2891 2428 2841 2509 
Q 2775 2619 2662 2680 
Q 2550 2741 2406 2741 
Q 2056 2741 1856 2470 
Q 1656 2200 1656 1722 
L 1656 0 
L 538 0 
L 538 4863 
L 1656 4863 
L 1656 2988 
Q 1909 3294 2193 3439 
Q 2478 3584 2822 3584 
Q 3428 3584 3742 3212 
Q 4056 2841 4056 2131 
z
" transform="scale(0.015625)"/>
      <path id="DejaVuSans-Bold-65" d="M 4031 1759 
L 4031 1441 
L 1416 1441 
Q 1456 1047 1700 850 
Q 1944 653 2381 653 
Q 2734 653 3104 758 
Q 3475 863 3866 1075 
L 3866 213 
Q 3469 63 3072 -14 
Q 2675 -91 2278 -91 
Q 1328 -91 801 392 
Q 275 875 275 1747 
Q 275 2603 792 3093 
Q 1309 3584 2216 3584 
Q 3041 3584 3536 3087 
Q 4031 2591 4031 1759 
z
M 2881 2131 
Q 2881 2450 2695 2645 
Q 2509 2841 2209 2841 
Q 1884 2841 1681 2658 
Q 1478 2475 1428 2131 
L 2881 2131 
z
" transform="scale(0.015625)"/>
     </defs>
     <use xlink:href="#DejaVuSans-Bold-57"/>
     <use xlink:href="#DejaVuSans-Bold-68" transform="translate(110.302734 0)"/>
     <use xlink:href="#DejaVuSans-Bold-69" transform="translate(181.494141 0)"/>
     <use xlink:href="#DejaVuSans-Bold-74" transform="translate(215.771484 0)"/>
     <use xlink:href="#DejaVuSans-Bold-65" transform="translate(263.574219 0)"/>
    </g>
    <!-- dwarf -->
    <g style="fill: #2c3e50" transform="translate(36.959915 167.1456) scale(0.08 -0.08)">
     <use xlink:href="#DejaVuSans-Bold-64"/>
     <use xlink:href="#DejaVuSans-Bold-77" transform="translate(71.582031 0)"/>
     <use xlink:href="#DejaVuSans-Bold-61" transform="translate(163.964844 0)"/>
     <use xlink:href="#DejaVuSans-Bold-72" transform="translate(231.445312 0)"/>
     <use xlink:href="#DejaVuSans-Bold-66" transform="translate(280.761719 0)"/>
    </g>
   </g>
   <g id="text_4">
    <!-- Neutron -->
    <g style="fill: #2c3e50" transform="translate(116.866539 158.18735) scale(0.08 -0.08)">
     <defs>
      <path id="DejaVuSans-Bold-4e" d="M 588 4666 
L 1931 4666 
L 3628 1466 
L 3628 4666 
L 4769 4666 
L 4769 0 
L 3425 0 
L 1728 3200 
L 1728 0 
L 588 0 
L 588 4666 
z
" transform="scale(0.015625)"/>
      <path id="DejaVuSans-Bold-75" d="M 500 1363 
L 500 3500 
L 1625 3500 
L 1625 3150 
Q 1625 2866 1622 2436 
Q 1619 2006 1619 1863 
Q 1619 1441 1641 1255 
Q 1663 1069 1716 984 
Q 1784 875 1895 815 
Q 2006 756 2150 756 
Q 2500 756 2700 1025 
Q 2900 1294 2900 1772 
L 2900 3500 
L 4019 3500 
L 4019 0 
L 2900 0 
L 2900 506 
Q 2647 200 2364 54 
Q 2081 -91 1741 -91 
Q 1134 -91 817 281 
Q 500 653 500 1363 
z
" transform="scale(0.015625)"/>
     </defs>
     <use xlink:href="#DejaVuSans-Bold-4e"/>
     <use xlink:href="#DejaVuSans-Bold-65" transform="translate(83.691406 0)"/>
     <use xlink:href="#DejaVuSans-Bold-75" transform="translate(151.513672 0)"/>
     <use xlink:href="#DejaVuSans-Bold-74" transform="translate(222.705078 0)"/>
     <use xlink:href="#DejaVuSans-Bold-72" transform="translate(270.507812 0)"/>
     <use xlink:href="#DejaVuSans-Bold-6f" transform="translate(319.824219 0)"/>
     <use xlink:href="#DejaVuSans-Bold-6e" transform="translate(388.525391 0)"/>
    </g>
    <!-- star -->
    <g style="fill: #2c3e50" transform="translate(126.290289 167.1456) scale(0.08 -0.08)">
     <use xlink:href="#DejaVuSans-Bold-73"/>
     <use xlink:href="#DejaVuSans-Bold-74" transform="translate(59.521484 0)"/>
     <use xlink:href="#DejaVuSans-Bold-61" transform="translate(107.324219 0)"/>
     <use xlink:href="#DejaVuSans-Bold-72" transform="translate(174.804688 0)"/>
    </g>
   </g>
   <g id="text_5">
    <!-- Black -->
    <g style="fill: #2c3e50" transform="translate(284.028349 158.18735) scale(0.08 -0.08)">
     <defs>
      <path id="DejaVuSans-Bold-63" d="M 3366 3391 
L 3366 2478 
Q 3138 2634 2908 2709 
Q 2678 2784 2431 2784 
Q 1963 2784 1702 2511 
Q 1441 2238 1441 1747 
Q 1441 1256 1702 982 
Q 1963 709 2431 709 
Q 2694 709 2930 787 
Q 3166 866 3366 1019 
L 3366 103 
Q 3103 6 2833 -42 
Q 2563 -91 2291 -91 
Q 1344 -91 809 395 
Q 275 881 275 1747 
Q 275 2613 809 3098 
Q 1344 3584 2291 3584 
Q 2566 3584 2833 3536 
Q 3100 3488 3366 3391 
z
" transform="scale(0.015625)"/>
      <path id="DejaVuSans-Bold-6b" d="M 538 4863 
L 1656 4863 
L 1656 2216 
L 2944 3500 
L 4244 3500 
L 2534 1894 
L 4378 0 
L 3022 0 
L 1656 1459 
L 1656 0 
L 538 0 
L 538 4863 
z
" transform="scale(0.015625)"/>
     </defs>
     <use xlink:href="#DejaVuSans-Bold-42"/>
     <use xlink:href="#DejaVuSans-Bold-6c" transform="translate(76.220703 0)"/>
     <use xlink:href="#DejaVuSans-Bold-61" transform="translate(110.498047 0)"/>
     <use xlink:href="#DejaVuSans-Bold-63" transform="translate(177.978516 0)"/>
     <use xlink:href="#DejaVuSans-Bold-6b" transform="translate(237.255859 0)"/>
    </g>
    <!-- hole -->
    <g style="fill: #2c3e50" transform="translate(286.498974 167.1456) scale(0.08 -0.08)">
     <use xlink:href="#DejaVuSans-Bold-68"/>
     <use xlink:href="#DejaVuSans-Bold-6f" transform="translate(71.191406 0)"/>
     <use xlink:href="#DejaVuSans-Bold-6c" transform="translate(139.892578 0)"/>
     <use xlink:href="#DejaVuSans-Bold-65" transform="translate(174.169922 0)"/>
    </g>
   </g>
   <g id="text_6">
    <!-- Key thresholds: 0.08 (fusion), 8 (core collapse), 25 (BH) -->
    <g style="fill: #95a5a6" transform="translate(22.265255 223.2736) scale(0.08 -0.08)">
     <defs>
      <path id="DejaVuSans-4b" d="M 628 4666 
L 1259 4666 
L 1259 2694 
L 3353 4666 
L 4166 4666 
L 1850 2491 
L 4331 0 
L 3500 0 
L 1259 2247 
L 1259 0 
L 628 0 
L 628 4666 
z
" transform="scale(0.015625)"/>
      <path id="DejaVuSans-65" d="M 3597 1894 
L 3597 1613 
L 953 1613 
Q 991 1019 1311 708 
Q 1631 397 2203 397 
Q 2534 397 2845 478 
Q 3156 559 3463 722 
L 3463 178 
Q 3153 47 2828 -22 
Q 2503 -91 2169 -91 
Q 1331 -91 842 396 
Q 353 884 353 1716 
Q 353 2575 817 3079 
Q 1281 3584 2069 3584 
Q 2775 3584 3186 3129 
Q 3597 2675 3597 1894 
z
M 3022 2063 
Q 3016 2534 2758 2815 
Q 2500 3097 2075 3097 
Q 1594 3097 1305 2825 
Q 1016 2553 972 2059 
L 3022 2063 
z
" transform="scale(0.015625)"/>
      <path id="DejaVuSans-79" d="M 2059 -325 
Q 1816 -950 1584 -1140 
Q 1353 -1331 966 -1331 
L 506 -1331 
L 506 -850 
L 844 -850 
Q 1081 -850 1212 -737 
Q 1344 -625 1503 -206 
L 1606 56 
L 191 3500 
L 800 3500 
L 1894 763 
L 2988 3500 
L 3597 3500 
L 2059 -325 
z
" transform="scale(0.015625)"/>
      <path id="DejaVuSans-20" transform="scale(0.015625)"/>
      <path id="DejaVuSans-74" d="M 1172 4494 
L 1172 3500 
L 2356 3500 
L 2356 3053 
L 1172 3053 
L 1172 1153 
Q 1172 725 1289 603 
Q 1406 481 1766 481 
L 2356 481 
L 2356 0 
L 1766 0 
Q 1100 0 847 248 
Q 594 497 594 1153 
L 594 3053 
L 172 3053 
L 172 3500 
L 594 3500 
L 594 4494 
L 1172 4494 
z
" transform="scale(0.015625)"/>
      <path id="DejaVuSans-68" d="M 3513 2113 
L 3513 0 
L 2938 0 
L 2938 2094 
Q 2938 2591 2744 2837 
Q 2550 3084 2163 3084 
Q 1697 3084 1428 2787 
Q 1159 2491 1159 1978 
L 1159 0 
L 581 0 
L 581 4863 
L 1159 4863 
L 1159 2956 
Q 1366 3272 1645 3428 
Q 1925 3584 2291 3584 
Q 2894 3584 3203 3211 
Q 3513 2838 3513 2113 
z
" transform="scale(0.015625)"/>
      <path id="DejaVuSans-72" d="M 2631 2963 
Q 2534 3019 2420 3045 
Q 2306 3072 2169 3072 
Q 1681 3072 1420 2755 
Q 1159 2438 1159 1844 
L 1159 0 
L 581 0 
L 581 3500 
L 1159 3500 
L 1159 2956 
Q 1341 3275 1631 3429 
Q 1922 3584 2338 3584 
Q 2397 3584 2469 3576 
Q 2541 3569 2628 3553 
L 2631 2963 
z
" transform="scale(0.015625)"/>
      <path id="DejaVuSans-73" d="M 2834 3397 
L 2834 2853 
Q 2591 2978 2328 3040 
Q 2066 3103 1784 3103 
Q 1356 3103 1142 2972 
Q 928 2841 928 2578 
Q 928 2378 1081 2264 
Q 1234 2150 1697 2047 
L 1894 2003 
Q 2506 1872 2764 1633 
Q 3022 1394 3022 966 
Q 3022 478 2636 193 
Q 2250 -91 1575 -91 
Q 1294 -91 989 -36 
Q 684 19 347 128 
L 347 722 
Q 666 556 975 473 
Q 1284 391 1588 391 
Q 1994 391 2212 530 
Q 2431 669 2431 922 
Q 2431 1156 2273 1281 
Q 2116 1406 1581 1522 
L 1381 1569 
Q 847 1681 609 1914 
Q 372 2147 372 2553 
Q 372 3047 722 3315 
Q 1072 3584 1716 3584 
Q 2034 3584 2315 3537 
Q 2597 3491 2834 3397 
z
" transform="scale(0.015625)"/>
      <path id="DejaVuSans-6f" d="M 1959 3097 
Q 1497 3097 1228 2736 
Q 959 2375 959 1747 
Q 959 1119 1226 758 
Q 1494 397 1959 397 
Q 2419 397 2687 759 
Q 2956 1122 2956 1747 
Q 2956 2369 2687 2733 
Q 2419 3097 1959 3097 
z
M 1959 3584 
Q 2709 3584 3137 3096 
Q 3566 2609 3566 1747 
Q 3566 888 3137 398 
Q 2709 -91 1959 -91 
Q 1206 -91 779 398 
Q 353 888 353 1747 
Q 353 2609 779 3096 
Q 1206 3584 1959 3584 
z
" transform="scale(0.015625)"/>
      <path id="DejaVuSans-6c" d="M 603 4863 
L 1178 4863 
L 1178 0 
L 603 0 
L 603 4863 
z
" transform="scale(0.015625)"/>
      <path id="DejaVuSans-64" d="M 2906 2969 
L 2906 4863 
L 3481 4863 
L 3481 0 
L 2906 0 
L 2906 525 
Q 2725 213 2448 61 
Q 2172 -91 1784 -91 
Q 1150 -91 751 415 
Q 353 922 353 1747 
Q 353 2572 751 3078 
Q 1150 3584 1784 3584 
Q 2172 3584 2448 3432 
Q 2725 3281 2906 2969 
z
M 947 1747 
Q 947 1113 1208 752 
Q 1469 391 1925 391 
Q 2381 391 2643 752 
Q 2906 1113 2906 1747 
Q 2906 2381 2643 2742 
Q 2381 3103 1925 3103 
Q 1469 3103 1208 2742 
Q 947 2381 947 1747 
z
" transform="scale(0.015625)"/>
      <path id="DejaVuSans-3a" d="M 750 794 
L 1409 794 
L 1409 0 
L 750 0 
L 750 794 
z
M 750 3309 
L 1409 3309 
L 1409 2516 
L 750 2516 
L 750 3309 
z
" transform="scale(0.015625)"/>
      <path id="DejaVuSans-30" d="M 2034 4250 
Q 1547 4250 1301 3770 
Q 1056 3291 1056 2328 
Q 1056 1369 1301 889 
Q 1547 409 2034 409 
Q 2525 409 2770 889 
Q 3016 1369 3016 2328 
Q 3016 3291 2770 3770 
Q 2525 4250 2034 4250 
z
M 2034 4750 
Q 2819 4750 3233 4129 
Q 3647 3509 3647 2328 
Q 3647 1150 3233 529 
Q 2819 -91 2034 -91 
Q 1250 -91 836 529 
Q 422 1150 422 2328 
Q 422 3509 836 4129 
Q 1250 4750 2034 4750 
z
" transform="scale(0.015625)"/>
      <path id="DejaVuSans-2e" d="M 684 794 
L 1344 794 
L 1344 0 
L 684 0 
L 684 794 
z
" transform="scale(0.015625)"/>
      <path id="DejaVuSans-38" d="M 2034 2216 
Q 1584 2216 1326 1975 
Q 1069 1734 1069 1313 
Q 1069 891 1326 650 
Q 1584 409 2034 409 
Q 2484 409 2743 651 
Q 3003 894 3003 1313 
Q 3003 1734 2745 1975 
Q 2488 2216 2034 2216 
z
M 1403 2484 
Q 997 2584 770 2862 
Q 544 3141 544 3541 
Q 544 4100 942 4425 
Q 1341 4750 2034 4750 
Q 2731 4750 3128 4425 
Q 3525 4100 3525 3541 
Q 3525 3141 3298 2862 
Q 3072 2584 2669 2484 
Q 3125 2378 3379 2068 
Q 3634 1759 3634 1313 
Q 3634 634 3220 271 
Q 2806 -91 2034 -91 
Q 1263 -91 848 271 
Q 434 634 434 1313 
Q 434 1759 690 2068 
Q 947 2378 1403 2484 
z
M 1172 3481 
Q 1172 3119 1398 2916 
Q 1625 2713 2034 2713 
Q 2441 2713 2670 2916 
Q 2900 3119 2900 3481 
Q 2900 3844 2670 4047 
Q 2441 4250 2034 4250 
Q 1625 4250 1398 4047 
Q 1172 3844 1172 3481 
z
" transform="scale(0.015625)"/>
      <path id="DejaVuSans-28" d="M 1984 4856 
Q 1566 4138 1362 3434 
Q 1159 2731 1159 2009 
Q 1159 1288 1364 580 
Q 1569 -128 1984 -844 
L 1484 -844 
Q 1016 -109 783 600 
Q 550 1309 550 2009 
Q 550 2706 781 3412 
Q 1013 4119 1484 4856 
L 1984 4856 
z
" transform="scale(0.015625)"/>
      <path id="DejaVuSans-66" d="M 2375 4863 
L 2375 4384 
L 1825 4384 
Q 1516 4384 1395 4259 
Q 1275 4134 1275 3809 
L 1275 3500 
L 2222 3500 
L 2222 3053 
L 1275 3053 
L 1275 0 
L 697 0 
L 697 3053 
L 147 3053 
L 147 3500 
L 697 3500 
L 697 3744 
Q 697 4328 969 4595 
Q 1241 4863 1831 4863 
L 2375 4863 
z
" transform="scale(0.015625)"/>
      <path id="DejaVuSans-75" d="M 544 1381 
L 544 3500 
L 1119 3500 
L 1119 1403 
Q 1119 906 1312 657 
Q 1506 409 1894 409 
Q 2359 409 2629 706 
Q 2900 1003 2900 1516 
L 2900 3500 
L 3475 3500 
L 3475 0 
L 2900 0 
L 2900 538 
Q 2691 219 2414 64 
Q 2138 -91 1772 -91 
Q 1169 -91 856 284 
Q 544 659 544 1381 
z
M 1991 3584 
L 1991 3584 
z
" transform="scale(0.015625)"/>
      <path id="DejaVuSans-69" d="M 603 3500 
L 1178 3500 
L 1178 0 
L 603 0 
L 603 3500 
z
M 603 4863 
L 1178 4863 
L 1178 4134 
L 603 4134 
L 603 4863 
z
" transform="scale(0.015625)"/>
      <path id="DejaVuSans-6e" d="M 3513 2113 
L 3513 0 
L 2938 0 
L 2938 2094 
Q 2938 2591 2744 2837 
Q 2550 3084 2163 3084 
Q 1697 3084 1428 2787 
Q 1159 2491 1159 1978 
L 1159 0 
L 581 0 
L 581 3500 
L 1159 3500 
L 1159 2956 
Q 1366 3272 1645 3428 
Q 1925 3584 2291 3584 
Q 2894 3584 3203 3211 
Q 3513 2838 3513 2113 
z
" transform="scale(0.015625)"/>
      <path id="DejaVuSans-29" d="M 513 4856 
L 1013 4856 
Q 1481 4119 1714 3412 
Q 1947 2706 1947 2009 
Q 1947 1309 1714 600 
Q 1481 -109 1013 -844 
L 513 -844 
Q 928 -128 1133 580 
Q 1338 1288 1338 2009 
Q 1338 2731 1133 3434 
Q 928 4138 513 4856 
z
" transform="scale(0.015625)"/>
      <path id="DejaVuSans-2c" d="M 750 794 
L 1409 794 
L 1409 256 
L 897 -744 
L 494 -744 
L 750 256 
L 750 794 
z
" transform="scale(0.015625)"/>
      <path id="DejaVuSans-63" d="M 3122 3366 
L 3122 2828 
Q 2878 2963 2633 3030 
Q 2388 3097 2138 3097 
Q 1578 3097 1268 2742 
Q 959 2388 959 1747 
Q 959 1106 1268 751 
Q 1578 397 2138 397 
Q 2388 397 2633 464 
Q 2878 531 3122 666 
L 3122 134 
Q 2881 22 2623 -34 
Q 2366 -91 2075 -91 
Q 1284 -91 818 406 
Q 353 903 353 1747 
Q 353 2603 823 3093 
Q 1294 3584 2113 3584 
Q 2378 3584 2631 3529 
Q 2884 3475 3122 3366 
z
" transform="scale(0.015625)"/>
      <path id="DejaVuSans-61" d="M 2194 1759 
Q 1497 1759 1228 1600 
Q 959 1441 959 1056 
Q 959 750 1161 570 
Q 1363 391 1709 391 
Q 2188 391 2477 730 
Q 2766 1069 2766 1631 
L 2766 1759 
L 2194 1759 
z
M 3341 1997 
L 3341 0 
L 2766 0 
L 2766 531 
Q 2569 213 2275 61 
Q 1981 -91 1556 -91 
Q 1019 -91 701 211 
Q 384 513 384 1019 
Q 384 1609 779 1909 
Q 1175 2209 1959 2209 
L 2766 2209 
L 2766 2266 
Q 2766 2663 2505 2880 
Q 2244 3097 1772 3097 
Q 1472 3097 1187 3025 
Q 903 2953 641 2809 
L 641 3341 
Q 956 3463 1253 3523 
Q 1550 3584 1831 3584 
Q 2591 3584 2966 3190 
Q 3341 2797 3341 1997 
z
" transform="scale(0.015625)"/>
      <path id="DejaVuSans-70" d="M 1159 525 
L 1159 -1331 
L 581 -1331 
L 581 3500 
L 1159 3500 
L 1159 2969 
Q 1341 3281 1617 3432 
Q 1894 3584 2278 3584 
Q 2916 3584 3314 3078 
Q 3713 2572 3713 1747 
Q 3713 922 3314 415 
Q 2916 -91 2278 -91 
Q 1894 -91 1617 61 
Q 1341 213 1159 525 
z
M 3116 1747 
Q 3116 2381 2855 2742 
Q 2594 3103 2138 3103 
Q 1681 3103 1420 2742 
Q 1159 2381 1159 1747 
Q 1159 1113 1420 752 
Q 1681 391 2138 391 
Q 2594 391 2855 752 
Q 3116 1113 3116 1747 
z
" transform="scale(0.015625)"/>
      <path id="DejaVuSans-32" d="M 1228 531 
L 3431 531 
L 3431 0 
L 469 0 
L 469 531 
Q 828 903 1448 1529 
Q 2069 2156 2228 2338 
Q 2531 2678 2651 2914 
Q 2772 3150 2772 3378 
Q 2772 3750 2511 3984 
Q 2250 4219 1831 4219 
Q 1534 4219 1204 4116 
Q 875 4013 500 3803 
L 500 4441 
Q 881 4594 1212 4672 
Q 1544 4750 1819 4750 
Q 2544 4750 2975 4387 
Q 3406 4025 3406 3419 
Q 3406 3131 3298 2873 
Q 3191 2616 2906 2266 
Q 2828 2175 2409 1742 
Q 1991 1309 1228 531 
z
" transform="scale(0.015625)"/>
      <path id="DejaVuSans-35" d="M 691 4666 
L 3169 4666 
L 3169 4134 
L 1269 4134 
L 1269 2991 
Q 1406 3038 1543 3061 
Q 1681 3084 1819 3084 
Q 2600 3084 3056 2656 
Q 3513 2228 3513 1497 
Q 3513 744 3044 326 
Q 2575 -91 1722 -91 
Q 1428 -91 1123 -41 
Q 819 9 494 109 
L 494 744 
Q 775 591 1075 516 
Q 1375 441 1709 441 
Q 2250 441 2565 725 
Q 2881 1009 2881 1497 
Q 2881 1984 2565 2268 
Q 2250 2553 1709 2553 
Q 1456 2553 1204 2497 
Q 953 2441 691 2322 
L 691 4666 
z
" transform="scale(0.015625)"/>
      <path id="DejaVuSans-42" d="M 1259 2228 
L 1259 519 
L 2272 519 
Q 2781 519 3026 730 
Q 3272 941 3272 1375 
Q 3272 1813 3026 2020 
Q 2781 2228 2272 2228 
L 1259 2228 
z
M 1259 4147 
L 1259 2741 
L 2194 2741 
Q 2656 2741 2882 2914 
Q 3109 3088 3109 3444 
Q 3109 3797 2882 3972 
Q 2656 4147 2194 4147 
L 1259 4147 
z
M 628 4666 
L 2241 4666 
Q 2963 4666 3353 4366 
Q 3744 4066 3744 3513 
Q 3744 3084 3544 2831 
Q 3344 2578 2956 2516 
Q 3422 2416 3680 2098 
Q 3938 1781 3938 1306 
Q 3938 681 3513 340 
Q 3088 0 2303 0 
L 628 0 
L 628 4666 
z
" transform="scale(0.015625)"/>
      <path id="DejaVuSans-48" d="M 628 4666 
L 1259 4666 
L 1259 2753 
L 3553 2753 
L 3553 4666 
L 4184 4666 
L 4184 0 
L 3553 0 
L 3553 2222 
L 1259 2222 
L 1259 0 
L 628 0 
L 628 4666 
z
" transform="scale(0.015625)"/>
     </defs>
     <use xlink:href="#DejaVuSans-4b"/>
     <use xlink:href="#DejaVuSans-65" transform="translate(60.576172 0)"/>
     <use xlink:href="#DejaVuSans-79" transform="translate(122.099609 0)"/>
     <use xlink:href="#DejaVuSans-20" transform="translate(181.279297 0)"/>
     <use xlink:href="#DejaVuSans-74" transform="translate(213.066406 0)"/>
     <use xlink:href="#DejaVuSans-68" transform="translate(252.275391 0)"/>
     <use xlink:href="#DejaVuSans-72" transform="translate(315.654297 0)"/>
     <use xlink:href="#DejaVuSans-65" transform="translate(354.517578 0)"/>
     <use xlink:href="#DejaVuSans-73" transform="translate(416.041016 0)"/>
     <use xlink:href="#DejaVuSans-68" transform="translate(468.140625 0)"/>
     <use xlink:href="#DejaVuSans-6f" transform="translate(531.519531 0)"/>
     <use xlink:href="#DejaVuSans-6c" transform="translate(592.701172 0)"/>
     <use xlink:href="#DejaVuSans-64" transform="translate(620.484375 0)"/>
     <use xlink:href="#DejaVuSans-73" transform="translate(683.960938 0)"/>
     <use xlink:href="#DejaVuSans-3a" transform="translate(736.060547 0)"/>
     <use xlink:href="#DejaVuSans-20" transform="translate(769.751953 0)"/>
     <use xlink:href="#DejaVuSans-30" transform="translate(801.539062 0)"/>
     <use xlink:href="#DejaVuSans-2e" transform="translate(865.162109 0)"/>
     <use xlink:href="#DejaVuSans-30" transform="translate(896.949219 0)"/>
     <use xlink:href="#DejaVuSans-38" transform="translate(960.572266 0)"/>
     <use xlink:href="#DejaVuSans-20" transform="translate(1024.195312 0)"/>
     <use xlink:href="#DejaVuSans-28" transform="translate(1055.982422 0)"/>
     <use xlink:href="#DejaVuSans-66" transform="translate(1094.996094 0)"/>
     <use xlink:href="#DejaVuSans-75" transform="translate(1130.201172 0)"/>
     <use xlink:href="#DejaVuSans-73" transform="translate(1193.580078 0)"/>
     <use xlink:href="#DejaVuSans-69" transform="translate(1245.679688 0)"/>
     <use xlink:href="#DejaVuSans-6f" transform="translate(1273.462891 0)"/>
     <use xlink:href="#DejaVuSans-6e" transform="translate(1334.644531 0)"/>
     <use xlink:href="#DejaVuSans-29" transform="translate(1398.023438 0)"/>
     <use xlink:href="#DejaVuSans-2c" transform="translate(1437.037109 0)"/>
     <use xlink:href="#DejaVuSans-20" transform="translate(1468.824219 0)"/>
     <use xlink:href="#DejaVuSans-38" transform="translate(1500.611328 0)"/>
     <use xlink:href="#DejaVuSans-20" transform="translate(1564.234375 0)"/>
     <use xlink:href="#DejaVuSans-28" transform="translate(1596.021484 0)"/>
     <use xlink:href="#DejaVuSans-63" transform="translate(1635.035156 0)"/>
     <use xlink:href="#DejaVuSans-6f" transform="translate(1690.015625 0)"/>
     <use xlink:href="#DejaVuSans-72" transform="translate(1751.197266 0)"/>
     <use xlink:href="#DejaVuSans-65" transform="translate(1790.060547 0)"/>
     <use xlink:href="#DejaVuSans-20" transform="translate(1851.583984 0)"/>
     <use xlink:href="#DejaVuSans-63" transform="translate(1883.371094 0)"/>
     <use xlink:href="#DejaVuSans-6f" transform="translate(1938.351562 0)"/>
     <use xlink:href="#DejaVuSans-6c" transform="translate(1999.533203 0)"/>
     <use xlink:href="#DejaVuSans-6c" transform="translate(2027.316406 0)"/>
     <use xlink:href="#DejaVuSans-61" transform="translate(2055.099609 0)"/>
     <use xlink:href="#DejaVuSans-70" transform="translate(2116.378906 0)"/>
     <use xlink:href="#DejaVuSans-73" transform="translate(2179.855469 0)"/>
     <use xlink:href="#DejaVuSans-65" transform="translate(2231.955078 0)"/>
     <use xlink:href="#DejaVuSans-29" transform="translate(2293.478516 0)"/>
     <use xlink:href="#DejaVuSans-2c" transform="translate(2332.492188 0)"/>
     <use xlink:href="#DejaVuSans-20" transform="translate(2364.279297 0)"/>
     <use xlink:href="#DejaVuSans-32" transform="translate(2396.066406 0)"/>
     <use xlink:href="#DejaVuSans-35" transform="translate(2459.689453 0)"/>
     <use xlink:href="#DejaVuSans-20" transform="translate(2523.3125 0)"/>
     <use xlink:href="#DejaVuSans-28" transform="translate(2555.099609 0)"/>
     <use xlink:href="#DejaVuSans-42" transform="translate(2594.113281 0)"/>
     <use xlink:href="#DejaVuSans-48" transform="translate(2662.716797 0)"/>
     <use xlink:href="#DejaVuSans-29" transform="translate(2737.912109 0)"/>
    </g>
   </g>
   <g id="text_7">
    <!-- Stellar Fates by Mass (schematic) -->
    <g transform="translate(113.733813 61.728) scale(0.12 -0.12)">
     <defs>
      <path id="DejaVuSans-53" d="M 3425 4513 
L 3425 3897 
Q 3066 4069 2747 4153 
Q 2428 4238 2131 4238 
Q 1616 4238 1336 4038 
Q 1056 3838 1056 3469 
Q 1056 3159 1242 3001 
Q 1428 2844 1947 2747 
L 2328 2669 
Q 3034 2534 3370 2195 
Q 3706 1856 3706 1288 
Q 3706 609 3251 259 
Q 2797 -91 1919 -91 
Q 1588 -91 1214 -16 
Q 841 59 441 206 
L 441 856 
Q 825 641 1194 531 
Q 1563 422 1919 422 
Q 2459 422 2753 634 
Q 3047 847 3047 1241 
Q 3047 1584 2836 1778 
Q 2625 1972 2144 2069 
L 1759 2144 
Q 1053 2284 737 2584 
Q 422 2884 422 3419 
Q 422 4038 858 4394 
Q 1294 4750 2059 4750 
Q 2388 4750 2728 4690 
Q 3069 4631 3425 4513 
z
" transform="scale(0.015625)"/>
      <path id="DejaVuSans-46" d="M 628 4666 
L 3309 4666 
L 3309 4134 
L 1259 4134 
L 1259 2759 
L 3109 2759 
L 3109 2228 
L 1259 2228 
L 1259 0 
L 628 0 
L 628 4666 
z
" transform="scale(0.015625)"/>
      <path id="DejaVuSans-62" d="M 3116 1747 
Q 3116 2381 2855 2742 
Q 2594 3103 2138 3103 
Q 1681 3103 1420 2742 
Q 1159 2381 1159 1747 
Q 1159 1113 1420 752 
Q 1681 391 2138 391 
Q 2594 391 2855 752 
Q 3116 1113 3116 1747 
z
M 1159 2969 
Q 1341 3281 1617 3432 
Q 1894 3584 2278 3584 
Q 2916 3584 3314 3078 
Q 3713 2572 3713 1747 
Q 3713 922 3314 415 
Q 2916 -91 2278 -91 
Q 1894 -91 1617 61 
Q 1341 213 1159 525 
L 1159 0 
L 581 0 
L 581 4863 
L 1159 4863 
L 1159 2969 
z
" transform="scale(0.015625)"/>
      <path id="DejaVuSans-4d" d="M 628 4666 
L 1569 4666 
L 2759 1491 
L 3956 4666 
L 4897 4666 
L 4897 0 
L 4281 0 
L 4281 4097 
L 3078 897 
L 2444 897 
L 1241 4097 
L 1241 0 
L 628 0 
L 628 4666 
z
" transform="scale(0.015625)"/>
      <path id="DejaVuSans-6d" d="M 3328 2828 
Q 3544 3216 3844 3400 
Q 4144 3584 4550 3584 
Q 5097 3584 5394 3201 
Q 5691 2819 5691 2113 
L 5691 0 
L 5113 0 
L 5113 2094 
Q 5113 2597 4934 2840 
Q 4756 3084 4391 3084 
Q 3944 3084 3684 2787 
Q 3425 2491 3425 1978 
L 3425 0 
L 2847 0 
L 2847 2094 
Q 2847 2600 2669 2842 
Q 2491 3084 2119 3084 
Q 1678 3084 1418 2786 
Q 1159 2488 1159 1978 
L 1159 0 
L 581 0 
L 581 3500 
L 1159 3500 
L 1159 2956 
Q 1356 3278 1631 3431 
Q 1906 3584 2284 3584 
Q 2666 3584 2933 3390 
Q 3200 3197 3328 2828 
z
" transform="scale(0.015625)"/>
     </defs>
     <use xlink:href="#DejaVuSans-53"/>
     <use xlink:href="#DejaVuSans-74" transform="translate(63.476562 0)"/>
     <use xlink:href="#DejaVuSans-65" transform="translate(102.685547 0)"/>
     <use xlink:href="#DejaVuSans-6c" transform="translate(164.208984 0)"/>
     <use xlink:href="#DejaVuSans-6c" transform="translate(191.992188 0)"/>
     <use xlink:href="#DejaVuSans-61" transform="translate(219.775391 0)"/>
     <use xlink:href="#DejaVuSans-72" transform="translate(281.054688 0)"/>
     <use xlink:href="#DejaVuSans-20" transform="translate(322.167969 0)"/>
     <use xlink:href="#DejaVuSans-46" transform="translate(353.955078 0)"/>
     <use xlink:href="#DejaVuSans-61" transform="translate(402.349609 0)"/>
     <use xlink:href="#DejaVuSans-74" transform="translate(463.628906 0)"/>
     <use xlink:href="#DejaVuSans-65" transform="translate(502.837891 0)"/>
     <use xlink:href="#DejaVuSans-73" transform="translate(564.361328 0)"/>
     <use xlink:href="#DejaVuSans-20" transform="translate(616.460938 0)"/>
     <use xlink:href="#DejaVuSans-62" transform="translate(648.248047 0)"/>
     <use xlink:href="#DejaVuSans-79" transform="translate(711.724609 0)"/>
     <use xlink:href="#DejaVuSans-20" transform="translate(770.904297 0)"/>
     <use xlink:href="#DejaVuSans-4d" transform="translate(802.691406 0)"/>
     <use xlink:href="#DejaVuSans-61" transform="translate(888.970703 0)"/>
     <use xlink:href="#DejaVuSans-73" transform="translate(950.25 0)"/>
     <use xlink:href="#DejaVuSans-73" transform="translate(1002.349609 0)"/>
     <use xlink:href="#DejaVuSans-20" transform="translate(1054.449219 0)"/>
     <use xlink:href="#DejaVuSans-28" transform="translate(1086.236328 0)"/>
     <use xlink:href="#DejaVuSans-73" transform="translate(1125.25 0)"/>
     <use xlink:href="#DejaVuSans-63" transform="translate(1177.349609 0)"/>
     <use xlink:href="#DejaVuSans-68" transform="translate(1232.330078 0)"/>
     <use xlink:href="#DejaVuSans-65" transform="translate(1295.708984 0)"/>
     <use xlink:href="#DejaVuSans-6d" transform="translate(1357.232422 0)"/>
     <use xlink:href="#DejaVuSans-61" transform="translate(1454.644531 0)"/>
     <use xlink:href="#DejaVuSans-74" transform="translate(1515.923828 0)"/>
     <use xlink:href="#DejaVuSans-69" transform="translate(1555.132812 0)"/>
     <use xlink:href="#DejaVuSans-63" transform="translate(1582.916016 0)"/>
     <use xlink:href="#DejaVuSans-29" transform="translate(1637.896484 0)"/>
    </g>
   </g>
  </g>
  <g id="axes_2">
   <g id="patch_6">
    <path d="M 479.938368 149.46528 
L 591.797883 149.46528 
Q 592.626472 149.46528 592.626472 148.904 
L 592.626472 118.0336 
Q 592.626472 117.47232 591.797883 117.47232 
L 479.938368 117.47232 
Q 479.109779 117.47232 479.109779 118.0336 
L 479.109779 148.904 
Q 479.109779 149.46528 479.938368 149.46528 
z
" clip-path="url(#pbaef108b06)" style="fill: #2ecc71; opacity: 0.14; stroke: #2ecc71; stroke-width: 2.5; stroke-linejoin: miter"/>
   </g>
   <g id="patch_7">
    <path d="M 479.938368 199.98048 
L 591.797883 199.98048 
Q 592.626472 199.98048 592.626472 199.4192 
L 592.626472 168.5488 
Q 592.626472 167.98752 591.797883 167.98752 
L 479.938368 167.98752 
Q 479.109779 167.98752 479.109779 168.5488 
L 479.109779 199.4192 
Q 479.109779 199.98048 479.938368 199.98048 
z
" clip-path="url(#pbaef108b06)" style="fill: #e74c3c; opacity: 0.14; stroke: #e74c3c; stroke-width: 2.5; stroke-linejoin: miter"/>
   </g>
   <g id="patch_8">
    <path d="M 479.938368 250.49568 
L 591.797883 250.49568 
Q 592.626472 250.49568 592.626472 249.9344 
L 592.626472 219.064 
Q 592.626472 218.50272 591.797883 218.50272 
L 479.938368 218.50272 
Q 479.109779 218.50272 479.109779 219.064 
L 479.109779 249.9344 
Q 479.109779 250.49568 479.938368 250.49568 
z
" clip-path="url(#pbaef108b06)" style="fill: #f39c12; opacity: 0.14; stroke: #f39c12; stroke-width: 2.5; stroke-linejoin: miter"/>
   </g>
   <g id="patch_9">
    <path d="M 479.938368 301.01088 
L 591.797883 301.01088 
Q 592.626472 301.01088 592.626472 300.4496 
L 592.626472 269.5792 
Q 592.626472 269.01792 591.797883 269.01792 
L 479.938368 269.01792 
Q 479.109779 269.01792 479.109779 269.5792 
L 479.109779 300.4496 
Q 479.109779 301.01088 479.938368 301.01088 
z
" clip-path="url(#pbaef108b06)" style="fill: #95a5a6; opacity: 0.14; stroke: #95a5a6; stroke-width: 2.5; stroke-linejoin: miter"/>
   </g>
   <g id="patch_10">
    <path d="M 687.085618 149.46528 
L 798.945133 149.46528 
Q 799.773722 149.46528 799.773722 148.904 
L 799.773722 118.0336 
Q 799.773722 117.47232 798.945133 117.47232 
L 687.085618 117.47232 
Q 686.257029 117.47232 686.257029 118.0336 
L 686.257029 148.904 
Q 686.257029 149.46528 687.085618 149.46528 
z
" clip-path="url(#pbaef108b06)" style="fill: #9b59b6; opacity: 0.14; stroke: #9b59b6; stroke-width: 2.5; stroke-linejoin: miter"/>
   </g>
   <g id="patch_11">
    <path d="M 687.085618 199.98048 
L 798.945133 199.98048 
Q 799.773722 199.98048 799.773722 199.4192 
L 799.773722 168.5488 
Q 799.773722 167.98752 798.945133 167.98752 
L 687.085618 167.98752 
Q 686.257029 167.98752 686.257029 168.5488 
L 686.257029 199.4192 
Q 686.257029 199.98048 687.085618 199.98048 
z
" clip-path="url(#pbaef108b06)" style="fill: #e74c3c; opacity: 0.14; stroke: #e74c3c; stroke-width: 2.5; stroke-linejoin: miter"/>
   </g>
   <g id="patch_12">
    <path d="M 687.085618 250.49568 
L 798.945133 250.49568 
Q 799.773722 250.49568 799.773722 249.9344 
L 799.773722 219.064 
Q 799.773722 218.50272 798.945133 218.50272 
L 687.085618 218.50272 
Q 686.257029 218.50272 686.257029 219.064 
L 686.257029 249.9344 
Q 686.257029 250.49568 687.085618 250.49568 
z
" clip-path="url(#pbaef108b06)" style="fill: #f39c12; opacity: 0.14; stroke: #f39c12; stroke-width: 2.5; stroke-linejoin: miter"/>
   </g>
   <g id="patch_13">
    <path d="M 687.085618 301.01088 
L 798.945133 301.01088 
Q 799.773722 301.01088 799.773722 300.4496 
L 799.773722 269.5792 
Q 799.773722 269.01792 798.945133 269.01792 
L 687.085618 269.01792 
Q 686.257029 269.01792 686.257029 269.5792 
L 686.257029 300.4496 
Q 686.257029 301.01088 687.085618 301.01088 
z
" clip-path="url(#pbaef108b06)" style="fill: #2c3e50; opacity: 0.14; stroke: #2c3e50; stroke-width: 2.5; stroke-linejoin: miter"/>
   </g>
   <g id="text_8">
    <!-- Low mass -->
    <g style="fill: #2ecc71" transform="translate(516.204375 94.1792) scale(0.08 -0.08)">
     <defs>
      <path id="DejaVuSans-4c" d="M 628 4666 
L 1259 4666 
L 1259 531 
L 3531 531 
L 3531 0 
L 628 0 
L 628 4666 
z
" transform="scale(0.015625)"/>
      <path id="DejaVuSans-77" d="M 269 3500 
L 844 3500 
L 1563 769 
L 2278 3500 
L 2956 3500 
L 3675 769 
L 4391 3500 
L 4966 3500 
L 4050 0 
L 3372 0 
L 2619 2869 
L 1863 0 
L 1184 0 
L 269 3500 
z
" transform="scale(0.015625)"/>
     </defs>
     <use xlink:href="#DejaVuSans-4c"/>
     <use xlink:href="#DejaVuSans-6f" transform="translate(53.962891 0)"/>
     <use xlink:href="#DejaVuSans-77" transform="translate(115.144531 0)"/>
     <use xlink:href="#DejaVuSans-20" transform="translate(196.931641 0)"/>
     <use xlink:href="#DejaVuSans-6d" transform="translate(228.71875 0)"/>
     <use xlink:href="#DejaVuSans-61" transform="translate(326.130859 0)"/>
     <use xlink:href="#DejaVuSans-73" transform="translate(387.410156 0)"/>
     <use xlink:href="#DejaVuSans-73" transform="translate(439.509766 0)"/>
    </g>
   </g>
   <g id="text_9">
    <!-- Main -->
    <g style="fill: #2c3e50" transform="translate(524.969375 131.197175) scale(0.08 -0.08)">
     <use xlink:href="#DejaVuSans-Bold-4d"/>
     <use xlink:href="#DejaVuSans-Bold-61" transform="translate(99.511719 0)"/>
     <use xlink:href="#DejaVuSans-Bold-69" transform="translate(166.992188 0)"/>
     <use xlink:href="#DejaVuSans-Bold-6e" transform="translate(201.269531 0)"/>
    </g>
    <!-- sequence -->
    <g style="fill: #2c3e50" transform="translate(514.41875 140.155425) scale(0.08 -0.08)">
     <defs>
      <path id="DejaVuSans-Bold-71" d="M 2181 2772 
Q 1825 2772 1636 2509 
Q 1447 2247 1447 1747 
Q 1447 1247 1636 984 
Q 1825 722 2181 722 
Q 2541 722 2730 984 
Q 2919 1247 2919 1747 
Q 2919 2247 2730 2509 
Q 2541 2772 2181 2772 
z
M 2919 506 
Q 2688 197 2409 53 
Q 2131 -91 1766 -91 
Q 1119 -91 703 423 
Q 288 938 288 1747 
Q 288 2556 703 3067 
Q 1119 3578 1766 3578 
Q 2131 3578 2409 3434 
Q 2688 3291 2919 2981 
L 2919 3500 
L 4044 3500 
L 4044 -1331 
L 2919 -1331 
L 2919 506 
z
" transform="scale(0.015625)"/>
     </defs>
     <use xlink:href="#DejaVuSans-Bold-73"/>
     <use xlink:href="#DejaVuSans-Bold-65" transform="translate(59.521484 0)"/>
     <use xlink:href="#DejaVuSans-Bold-71" transform="translate(127.34375 0)"/>
     <use xlink:href="#DejaVuSans-Bold-75" transform="translate(198.925781 0)"/>
     <use xlink:href="#DejaVuSans-Bold-65" transform="translate(270.117188 0)"/>
     <use xlink:href="#DejaVuSans-Bold-6e" transform="translate(337.939453 0)"/>
     <use xlink:href="#DejaVuSans-Bold-63" transform="translate(409.130859 0)"/>
     <use xlink:href="#DejaVuSans-Bold-65" transform="translate(468.408203 0)"/>
    </g>
   </g>
   <g id="text_10">
    <!-- Red -->
    <g style="fill: #2c3e50" transform="translate(527.211875 181.681125) scale(0.08 -0.08)">
     <defs>
      <path id="DejaVuSans-Bold-52" d="M 2297 2597 
Q 2675 2597 2839 2737 
Q 3003 2878 3003 3200 
Q 3003 3519 2839 3656 
Q 2675 3794 2297 3794 
L 1791 3794 
L 1791 2597 
L 2297 2597 
z
M 1791 1766 
L 1791 0 
L 588 0 
L 588 4666 
L 2425 4666 
Q 3347 4666 3776 4356 
Q 4206 4047 4206 3378 
Q 4206 2916 3982 2619 
Q 3759 2322 3309 2181 
Q 3556 2125 3751 1926 
Q 3947 1728 4147 1325 
L 4800 0 
L 3519 0 
L 2950 1159 
Q 2778 1509 2601 1637 
Q 2425 1766 2131 1766 
L 1791 1766 
z
" transform="scale(0.015625)"/>
     </defs>
     <use xlink:href="#DejaVuSans-Bold-52"/>
     <use xlink:href="#DejaVuSans-Bold-65" transform="translate(77.001953 0)"/>
     <use xlink:href="#DejaVuSans-Bold-64" transform="translate(144.824219 0)"/>
    </g>
    <!-- giant -->
    <g style="fill: #2c3e50" transform="translate(524.175 190.639375) scale(0.08 -0.08)">
     <defs>
      <path id="DejaVuSans-Bold-67" d="M 2919 594 
Q 2688 288 2409 144 
Q 2131 0 1766 0 
Q 1125 0 706 504 
Q 288 1009 288 1791 
Q 288 2575 706 3076 
Q 1125 3578 1766 3578 
Q 2131 3578 2409 3434 
Q 2688 3291 2919 2981 
L 2919 3500 
L 4044 3500 
L 4044 353 
Q 4044 -491 3511 -936 
Q 2978 -1381 1966 -1381 
Q 1638 -1381 1331 -1331 
Q 1025 -1281 716 -1178 
L 716 -306 
Q 1009 -475 1290 -558 
Q 1572 -641 1856 -641 
Q 2406 -641 2662 -400 
Q 2919 -159 2919 353 
L 2919 594 
z
M 2181 2772 
Q 1834 2772 1640 2515 
Q 1447 2259 1447 1791 
Q 1447 1309 1634 1061 
Q 1822 813 2181 813 
Q 2531 813 2725 1069 
Q 2919 1325 2919 1791 
Q 2919 2259 2725 2515 
Q 2531 2772 2181 2772 
z
" transform="scale(0.015625)"/>
     </defs>
     <use xlink:href="#DejaVuSans-Bold-67"/>
     <use xlink:href="#DejaVuSans-Bold-69" transform="translate(71.582031 0)"/>
     <use xlink:href="#DejaVuSans-Bold-61" transform="translate(105.859375 0)"/>
     <use xlink:href="#DejaVuSans-Bold-6e" transform="translate(173.339844 0)"/>
     <use xlink:href="#DejaVuSans-Bold-74" transform="translate(244.53125 0)"/>
    </g>
   </g>
   <g id="text_11">
    <!-- Planetary -->
    <g style="fill: #2c3e50" transform="translate(514.11375 232.196325) scale(0.08 -0.08)">
     <defs>
      <path id="DejaVuSans-Bold-50" d="M 588 4666 
L 2584 4666 
Q 3475 4666 3951 4270 
Q 4428 3875 4428 3144 
Q 4428 2409 3951 2014 
Q 3475 1619 2584 1619 
L 1791 1619 
L 1791 0 
L 588 0 
L 588 4666 
z
M 1791 3794 
L 1791 2491 
L 2456 2491 
Q 2806 2491 2997 2661 
Q 3188 2831 3188 3144 
Q 3188 3456 2997 3625 
Q 2806 3794 2456 3794 
L 1791 3794 
z
" transform="scale(0.015625)"/>
      <path id="DejaVuSans-Bold-79" d="M 78 3500 
L 1197 3500 
L 2138 1125 
L 2938 3500 
L 4056 3500 
L 2584 -331 
Q 2363 -916 2067 -1148 
Q 1772 -1381 1288 -1381 
L 641 -1381 
L 641 -647 
L 991 -647 
Q 1275 -647 1404 -556 
Q 1534 -466 1606 -231 
L 1638 -134 
L 78 3500 
z
" transform="scale(0.015625)"/>
     </defs>
     <use xlink:href="#DejaVuSans-Bold-50"/>
     <use xlink:href="#DejaVuSans-Bold-6c" transform="translate(73.291016 0)"/>
     <use xlink:href="#DejaVuSans-Bold-61" transform="translate(107.568359 0)"/>
     <use xlink:href="#DejaVuSans-Bold-6e" transform="translate(175.048828 0)"/>
     <use xlink:href="#DejaVuSans-Bold-65" transform="translate(246.240234 0)"/>
     <use xlink:href="#DejaVuSans-Bold-74" transform="translate(314.0625 0)"/>
     <use xlink:href="#DejaVuSans-Bold-61" transform="translate(361.865234 0)"/>
     <use xlink:href="#DejaVuSans-Bold-72" transform="translate(429.345703 0)"/>
     <use xlink:href="#DejaVuSans-Bold-79" transform="translate(478.662109 0)"/>
    </g>
    <!-- nebula -->
    <g style="fill: #2c3e50" transform="translate(520.52625 241.217075) scale(0.08 -0.08)">
     <defs>
      <path id="DejaVuSans-Bold-62" d="M 2400 722 
Q 2759 722 2948 984 
Q 3138 1247 3138 1747 
Q 3138 2247 2948 2509 
Q 2759 2772 2400 2772 
Q 2041 2772 1848 2508 
Q 1656 2244 1656 1747 
Q 1656 1250 1848 986 
Q 2041 722 2400 722 
z
M 1656 2988 
Q 1888 3294 2169 3439 
Q 2450 3584 2816 3584 
Q 3463 3584 3878 3070 
Q 4294 2556 4294 1747 
Q 4294 938 3878 423 
Q 3463 -91 2816 -91 
Q 2450 -91 2169 54 
Q 1888 200 1656 506 
L 1656 0 
L 538 0 
L 538 4863 
L 1656 4863 
L 1656 2988 
z
" transform="scale(0.015625)"/>
     </defs>
     <use xlink:href="#DejaVuSans-Bold-6e"/>
     <use xlink:href="#DejaVuSans-Bold-65" transform="translate(71.191406 0)"/>
     <use xlink:href="#DejaVuSans-Bold-62" transform="translate(139.013672 0)"/>
     <use xlink:href="#DejaVuSans-Bold-75" transform="translate(210.595703 0)"/>
     <use xlink:href="#DejaVuSans-Bold-6c" transform="translate(281.787109 0)"/>
     <use xlink:href="#DejaVuSans-Bold-61" transform="translate(316.064453 0)"/>
    </g>
   </g>
   <g id="text_12">
    <!-- White -->
    <g style="fill: #2c3e50" transform="translate(522.6125 282.742775) scale(0.08 -0.08)">
     <use xlink:href="#DejaVuSans-Bold-57"/>
     <use xlink:href="#DejaVuSans-Bold-68" transform="translate(110.302734 0)"/>
     <use xlink:href="#DejaVuSans-Bold-69" transform="translate(181.494141 0)"/>
     <use xlink:href="#DejaVuSans-Bold-74" transform="translate(215.771484 0)"/>
     <use xlink:href="#DejaVuSans-Bold-65" transform="translate(263.574219 0)"/>
    </g>
    <!-- dwarf -->
    <g style="fill: #2c3e50" transform="translate(522.8975 291.701025) scale(0.08 -0.08)">
     <use xlink:href="#DejaVuSans-Bold-64"/>
     <use xlink:href="#DejaVuSans-Bold-77" transform="translate(71.582031 0)"/>
     <use xlink:href="#DejaVuSans-Bold-61" transform="translate(163.964844 0)"/>
     <use xlink:href="#DejaVuSans-Bold-72" transform="translate(231.445312 0)"/>
     <use xlink:href="#DejaVuSans-Bold-66" transform="translate(280.761719 0)"/>
    </g>
   </g>
   <g id="patch_14">
    <path d="M 535.868125 149.498716 
Q 535.868125 158.724166 535.868125 165.15453 
" style="fill: none; stroke: #2c3e50; stroke-width: 2.5; stroke-linecap: round"/>
    <path d="M 537.868125 161.15453 
L 535.868125 165.15453 
L 533.868125 161.15453 
" style="fill: none; stroke: #2c3e50; stroke-width: 2.5; stroke-linecap: round"/>
   </g>
   <g id="patch_15">
    <path d="M 535.868125 200.013916 
Q 535.868125 209.239366 535.868125 215.66973 
" style="fill: none; stroke: #2c3e50; stroke-width: 2.5; stroke-linecap: round"/>
    <path d="M 537.868125 211.66973 
L 535.868125 215.66973 
L 533.868125 211.66973 
" style="fill: none; stroke: #2c3e50; stroke-width: 2.5; stroke-linecap: round"/>
   </g>
   <g id="patch_16">
    <path d="M 535.868125 250.529116 
Q 535.868125 259.754566 535.868125 266.18493 
" style="fill: none; stroke: #2c3e50; stroke-width: 2.5; stroke-linecap: round"/>
    <path d="M 537.868125 262.18493 
L 535.868125 266.18493 
L 533.868125 262.18493 
" style="fill: none; stroke: #2c3e50; stroke-width: 2.5; stroke-linecap: round"/>
   </g>
   <g id="text_13">
    <!-- High mass -->
    <g style="fill: #9b59b6" transform="translate(722.035376 94.1792) scale(0.08 -0.08)">
     <defs>
      <path id="DejaVuSans-67" d="M 2906 1791 
Q 2906 2416 2648 2759 
Q 2391 3103 1925 3103 
Q 1463 3103 1205 2759 
Q 947 2416 947 1791 
Q 947 1169 1205 825 
Q 1463 481 1925 481 
Q 2391 481 2648 825 
Q 2906 1169 2906 1791 
z
M 3481 434 
Q 3481 -459 3084 -895 
Q 2688 -1331 1869 -1331 
Q 1566 -1331 1297 -1286 
Q 1028 -1241 775 -1147 
L 775 -588 
Q 1028 -725 1275 -790 
Q 1522 -856 1778 -856 
Q 2344 -856 2625 -561 
Q 2906 -266 2906 331 
L 2906 616 
Q 2728 306 2450 153 
Q 2172 0 1784 0 
Q 1141 0 747 490 
Q 353 981 353 1791 
Q 353 2603 747 3093 
Q 1141 3584 1784 3584 
Q 2172 3584 2450 3431 
Q 2728 3278 2906 2969 
L 2906 3500 
L 3481 3500 
L 3481 434 
z
" transform="scale(0.015625)"/>
     </defs>
     <use xlink:href="#DejaVuSans-48"/>
     <use xlink:href="#DejaVuSans-69" transform="translate(75.195312 0)"/>
     <use xlink:href="#DejaVuSans-67" transform="translate(102.978516 0)"/>
     <use xlink:href="#DejaVuSans-68" transform="translate(166.455078 0)"/>
     <use xlink:href="#DejaVuSans-20" transform="translate(229.833984 0)"/>
     <use xlink:href="#DejaVuSans-6d" transform="translate(261.621094 0)"/>
     <use xlink:href="#DejaVuSans-61" transform="translate(359.033203 0)"/>
     <use xlink:href="#DejaVuSans-73" transform="translate(420.3125 0)"/>
     <use xlink:href="#DejaVuSans-73" transform="translate(472.412109 0)"/>
    </g>
   </g>
   <g id="text_14">
    <!-- Massive -->
    <g style="fill: #2c3e50" transform="translate(724.882251 131.197175) scale(0.08 -0.08)">
     <defs>
      <path id="DejaVuSans-Bold-76" d="M 97 3500 
L 1216 3500 
L 2088 1081 
L 2956 3500 
L 4078 3500 
L 2700 0 
L 1472 0 
L 97 3500 
z
" transform="scale(0.015625)"/>
     </defs>
     <use xlink:href="#DejaVuSans-Bold-4d"/>
     <use xlink:href="#DejaVuSans-Bold-61" transform="translate(99.511719 0)"/>
     <use xlink:href="#DejaVuSans-Bold-73" transform="translate(166.992188 0)"/>
     <use xlink:href="#DejaVuSans-Bold-73" transform="translate(226.513672 0)"/>
     <use xlink:href="#DejaVuSans-Bold-69" transform="translate(286.035156 0)"/>
     <use xlink:href="#DejaVuSans-Bold-76" transform="translate(320.3125 0)"/>
     <use xlink:href="#DejaVuSans-Bold-65" transform="translate(385.498047 0)"/>
    </g>
    <!-- star -->
    <g style="fill: #2c3e50" transform="translate(734.051001 140.155425) scale(0.08 -0.08)">
     <use xlink:href="#DejaVuSans-Bold-73"/>
     <use xlink:href="#DejaVuSans-Bold-74" transform="translate(59.521484 0)"/>
     <use xlink:href="#DejaVuSans-Bold-61" transform="translate(107.324219 0)"/>
     <use xlink:href="#DejaVuSans-Bold-72" transform="translate(174.804688 0)"/>
    </g>
   </g>
   <g id="text_15">
    <!-- Supergiant -->
    <g style="fill: #2c3e50" transform="translate(718.045376 186.16025) scale(0.08 -0.08)">
     <defs>
      <path id="DejaVuSans-Bold-53" d="M 3834 4519 
L 3834 3531 
Q 3450 3703 3084 3790 
Q 2719 3878 2394 3878 
Q 1963 3878 1756 3759 
Q 1550 3641 1550 3391 
Q 1550 3203 1689 3098 
Q 1828 2994 2194 2919 
L 2706 2816 
Q 3484 2659 3812 2340 
Q 4141 2022 4141 1434 
Q 4141 663 3683 286 
Q 3225 -91 2284 -91 
Q 1841 -91 1394 -6 
Q 947 78 500 244 
L 500 1259 
Q 947 1022 1364 901 
Q 1781 781 2169 781 
Q 2563 781 2772 912 
Q 2981 1044 2981 1288 
Q 2981 1506 2839 1625 
Q 2697 1744 2272 1838 
L 1806 1941 
Q 1106 2091 782 2419 
Q 459 2747 459 3303 
Q 459 4000 909 4375 
Q 1359 4750 2203 4750 
Q 2588 4750 2994 4692 
Q 3400 4634 3834 4519 
z
" transform="scale(0.015625)"/>
      <path id="DejaVuSans-Bold-70" d="M 1656 506 
L 1656 -1331 
L 538 -1331 
L 538 3500 
L 1656 3500 
L 1656 2988 
Q 1888 3294 2169 3439 
Q 2450 3584 2816 3584 
Q 3463 3584 3878 3070 
Q 4294 2556 4294 1747 
Q 4294 938 3878 423 
Q 3463 -91 2816 -91 
Q 2450 -91 2169 54 
Q 1888 200 1656 506 
z
M 2400 2772 
Q 2041 2772 1848 2508 
Q 1656 2244 1656 1747 
Q 1656 1250 1848 986 
Q 2041 722 2400 722 
Q 2759 722 2948 984 
Q 3138 1247 3138 1747 
Q 3138 2247 2948 2509 
Q 2759 2772 2400 2772 
z
" transform="scale(0.015625)"/>
     </defs>
     <use xlink:href="#DejaVuSans-Bold-53"/>
     <use xlink:href="#DejaVuSans-Bold-75" transform="translate(72.021484 0)"/>
     <use xlink:href="#DejaVuSans-Bold-70" transform="translate(143.212891 0)"/>
     <use xlink:href="#DejaVuSans-Bold-65" transform="translate(214.794922 0)"/>
     <use xlink:href="#DejaVuSans-Bold-72" transform="translate(282.617188 0)"/>
     <use xlink:href="#DejaVuSans-Bold-67" transform="translate(331.933594 0)"/>
     <use xlink:href="#DejaVuSans-Bold-69" transform="translate(403.515625 0)"/>
     <use xlink:href="#DejaVuSans-Bold-61" transform="translate(437.792969 0)"/>
     <use xlink:href="#DejaVuSans-Bold-6e" transform="translate(505.273438 0)"/>
     <use xlink:href="#DejaVuSans-Bold-74" transform="translate(576.464844 0)"/>
    </g>
   </g>
   <g id="text_16">
    <!-- Core -->
    <g style="fill: #2c3e50" transform="translate(732.646001 232.227575) scale(0.08 -0.08)">
     <defs>
      <path id="DejaVuSans-Bold-43" d="M 4288 256 
Q 3956 84 3597 -3 
Q 3238 -91 2847 -91 
Q 1681 -91 1000 561 
Q 319 1213 319 2328 
Q 319 3447 1000 4098 
Q 1681 4750 2847 4750 
Q 3238 4750 3597 4662 
Q 3956 4575 4288 4403 
L 4288 3438 
Q 3953 3666 3628 3772 
Q 3303 3878 2944 3878 
Q 2300 3878 1931 3465 
Q 1563 3053 1563 2328 
Q 1563 1606 1931 1193 
Q 2300 781 2944 781 
Q 3303 781 3628 887 
Q 3953 994 4288 1222 
L 4288 256 
z
" transform="scale(0.015625)"/>
     </defs>
     <use xlink:href="#DejaVuSans-Bold-43"/>
     <use xlink:href="#DejaVuSans-Bold-6f" transform="translate(73.388672 0)"/>
     <use xlink:href="#DejaVuSans-Bold-72" transform="translate(142.089844 0)"/>
     <use xlink:href="#DejaVuSans-Bold-65" transform="translate(191.40625 0)"/>
    </g>
    <!-- collapse SN -->
    <g style="fill: #2c3e50" transform="translate(716.876626 241.185825) scale(0.08 -0.08)">
     <use xlink:href="#DejaVuSans-Bold-63"/>
     <use xlink:href="#DejaVuSans-Bold-6f" transform="translate(59.277344 0)"/>
     <use xlink:href="#DejaVuSans-Bold-6c" transform="translate(127.978516 0)"/>
     <use xlink:href="#DejaVuSans-Bold-6c" transform="translate(162.255859 0)"/>
     <use xlink:href="#DejaVuSans-Bold-61" transform="translate(196.533203 0)"/>
     <use xlink:href="#DejaVuSans-Bold-70" transform="translate(264.013672 0)"/>
     <use xlink:href="#DejaVuSans-Bold-73" transform="translate(335.595703 0)"/>
     <use xlink:href="#DejaVuSans-Bold-65" transform="translate(395.117188 0)"/>
     <use xlink:href="#DejaVuSans-Bold-20" transform="translate(462.939453 0)"/>
     <use xlink:href="#DejaVuSans-Bold-53" transform="translate(497.753906 0)"/>
     <use xlink:href="#DejaVuSans-Bold-4e" transform="translate(569.775391 0)"/>
    </g>
   </g>
   <g id="text_17">
    <!-- Neutron star -->
    <g style="fill: #2c3e50" transform="translate(714.270376 282.742775) scale(0.08 -0.08)">
     <use xlink:href="#DejaVuSans-Bold-4e"/>
     <use xlink:href="#DejaVuSans-Bold-65" transform="translate(83.691406 0)"/>
     <use xlink:href="#DejaVuSans-Bold-75" transform="translate(151.513672 0)"/>
     <use xlink:href="#DejaVuSans-Bold-74" transform="translate(222.705078 0)"/>
     <use xlink:href="#DejaVuSans-Bold-72" transform="translate(270.507812 0)"/>
     <use xlink:href="#DejaVuSans-Bold-6f" transform="translate(319.824219 0)"/>
     <use xlink:href="#DejaVuSans-Bold-6e" transform="translate(388.525391 0)"/>
     <use xlink:href="#DejaVuSans-Bold-20" transform="translate(459.716797 0)"/>
     <use xlink:href="#DejaVuSans-Bold-73" transform="translate(494.53125 0)"/>
     <use xlink:href="#DejaVuSans-Bold-74" transform="translate(554.052734 0)"/>
     <use xlink:href="#DejaVuSans-Bold-61" transform="translate(601.855469 0)"/>
     <use xlink:href="#DejaVuSans-Bold-72" transform="translate(669.335938 0)"/>
    </g>
    <!-- or BH -->
    <g style="fill: #2c3e50" transform="translate(730.506001 291.701025) scale(0.08 -0.08)">
     <defs>
      <path id="DejaVuSans-Bold-48" d="M 588 4666 
L 1791 4666 
L 1791 2888 
L 3566 2888 
L 3566 4666 
L 4769 4666 
L 4769 0 
L 3566 0 
L 3566 1978 
L 1791 1978 
L 1791 0 
L 588 0 
L 588 4666 
z
" transform="scale(0.015625)"/>
     </defs>
     <use xlink:href="#DejaVuSans-Bold-6f"/>
     <use xlink:href="#DejaVuSans-Bold-72" transform="translate(68.701172 0)"/>
     <use xlink:href="#DejaVuSans-Bold-20" transform="translate(118.017578 0)"/>
     <use xlink:href="#DejaVuSans-Bold-42" transform="translate(152.832031 0)"/>
     <use xlink:href="#DejaVuSans-Bold-48" transform="translate(229.052734 0)"/>
    </g>
   </g>
   <g id="patch_17">
    <path d="M 743.015376 149.498716 
Q 743.015376 158.724166 743.015376 165.15453 
" style="fill: none; stroke: #2c3e50; stroke-width: 2.5; stroke-linecap: round"/>
    <path d="M 745.015376 161.15453 
L 743.015376 165.15453 
L 741.015376 161.15453 
" style="fill: none; stroke: #2c3e50; stroke-width: 2.5; stroke-linecap: round"/>
   </g>
   <g id="patch_18">
    <path d="M 743.015376 200.013916 
Q 743.015376 209.239366 743.015376 215.66973 
" style="fill: none; stroke: #2c3e50; stroke-width: 2.5; stroke-linecap: round"/>
    <path d="M 745.015376 211.66973 
L 743.015376 215.66973 
L 741.015376 211.66973 
" style="fill: none; stroke: #2c3e50; stroke-width: 2.5; stroke-linecap: round"/>
   </g>
   <g id="patch_19">
    <path d="M 743.015376 250.529116 
Q 743.015376 259.754566 743.015376 266.18493 
" style="fill: none; stroke: #2c3e50; stroke-width: 2.5; stroke-linecap: round"/>
    <path d="M 745.015376 262.18493 
L 743.015376 266.18493 
L 741.015376 262.18493 
" style="fill: none; stroke: #2c3e50; stroke-width: 2.5; stroke-linecap: round"/>
   </g>
   <g id="text_18">
    <!-- Lifecycle Paths (schematic) -->
    <g transform="translate(557.560501 61.728) scale(0.12 -0.12)">
     <defs>
      <path id="DejaVuSans-50" d="M 1259 4147 
L 1259 2394 
L 2053 2394 
Q 2494 2394 2734 2622 
Q 2975 2850 2975 3272 
Q 2975 3691 2734 3919 
Q 2494 4147 2053 4147 
L 1259 4147 
z
M 628 4666 
L 2053 4666 
Q 2838 4666 3239 4311 
Q 3641 3956 3641 3272 
Q 3641 2581 3239 2228 
Q 2838 1875 2053 1875 
L 1259 1875 
L 1259 0 
L 628 0 
L 628 4666 
z
" transform="scale(0.015625)"/>
     </defs>
     <use xlink:href="#DejaVuSans-4c"/>
     <use xlink:href="#DejaVuSans-69" transform="translate(55.712891 0)"/>
     <use xlink:href="#DejaVuSans-66" transform="translate(83.496094 0)"/>
     <use xlink:href="#DejaVuSans-65" transform="translate(118.701172 0)"/>
     <use xlink:href="#DejaVuSans-63" transform="translate(180.224609 0)"/>
     <use xlink:href="#DejaVuSans-79" transform="translate(235.205078 0)"/>
     <use xlink:href="#DejaVuSans-63" transform="translate(294.384766 0)"/>
     <use xlink:href="#DejaVuSans-6c" transform="translate(349.365234 0)"/>
     <use xlink:href="#DejaVuSans-65" transform="translate(377.148438 0)"/>
     <use xlink:href="#DejaVuSans-20" transform="translate(438.671875 0)"/>
     <use xlink:href="#DejaVuSans-50" transform="translate(470.458984 0)"/>
     <use xlink:href="#DejaVuSans-61" transform="translate(526.261719 0)"/>
     <use xlink:href="#DejaVuSans-74" transform="translate(587.541016 0)"/>
     <use xlink:href="#DejaVuSans-68" transform="translate(626.75 0)"/>
     <use xlink:href="#DejaVuSans-73" transform="translate(690.128906 0)"/>
     <use xlink:href="#DejaVuSans-20" transform="translate(742.228516 0)"/>
     <use xlink:href="#DejaVuSans-28" transform="translate(774.015625 0)"/>
     <use xlink:href="#DejaVuSans-73" transform="translate(813.029297 0)"/>
     <use xlink:href="#DejaVuSans-63" transform="translate(865.128906 0)"/>
     <use xlink:href="#DejaVuSans-68" transform="translate(920.109375 0)"/>
     <use xlink:href="#DejaVuSans-65" transform="translate(983.488281 0)"/>
     <use xlink:href="#DejaVuSans-6d" transform="translate(1045.011719 0)"/>
     <use xlink:href="#DejaVuSans-61" transform="translate(1142.423828 0)"/>
     <use xlink:href="#DejaVuSans-74" transform="translate(1203.703125 0)"/>
     <use xlink:href="#DejaVuSans-69" transform="translate(1242.912109 0)"/>
     <use xlink:href="#DejaVuSans-63" transform="translate(1270.695312 0)"/>
     <use xlink:href="#DejaVuSans-29" transform="translate(1325.675781 0)"/>
    </g>
   </g>
  </g>
  <g id="text_19">
   <!-- Stellar Death: Mass Determines Fate -->
   <g transform="translate(297.404938 17.837812) scale(0.14 -0.14)">
    <defs>
     <path id="DejaVuSans-44" d="M 1259 4147 
L 1259 519 
L 2022 519 
Q 2988 519 3436 956 
Q 3884 1394 3884 2338 
Q 3884 3275 3436 3711 
Q 2988 4147 2022 4147 
L 1259 4147 
z
M 628 4666 
L 1925 4666 
Q 3281 4666 3915 4102 
Q 4550 3538 4550 2338 
Q 4550 1131 3912 565 
Q 3275 0 1925 0 
L 628 0 
L 628 4666 
z
" transform="scale(0.015625)"/>
    </defs>
    <use xlink:href="#DejaVuSans-53"/>
    <use xlink:href="#DejaVuSans-74" transform="translate(63.476562 0)"/>
    <use xlink:href="#DejaVuSans-65" transform="translate(102.685547 0)"/>
    <use xlink:href="#DejaVuSans-6c" transform="translate(164.208984 0)"/>
    <use xlink:href="#DejaVuSans-6c" transform="translate(191.992188 0)"/>
    <use xlink:href="#DejaVuSans-61" transform="translate(219.775391 0)"/>
    <use xlink:href="#DejaVuSans-72" transform="translate(281.054688 0)"/>
    <use xlink:href="#DejaVuSans-20" transform="translate(322.167969 0)"/>
    <use xlink:href="#DejaVuSans-44" transform="translate(353.955078 0)"/>
    <use xlink:href="#DejaVuSans-65" transform="translate(430.957031 0)"/>
    <use xlink:href="#DejaVuSans-61" transform="translate(492.480469 0)"/>
    <use xlink:href="#DejaVuSans-74" transform="translate(553.759766 0)"/>
    <use xlink:href="#DejaVuSans-68" transform="translate(592.96875 0)"/>
    <use xlink:href="#DejaVuSans-3a" transform="translate(656.347656 0)"/>
    <use xlink:href="#DejaVuSans-20" transform="translate(690.039062 0)"/>
    <use xlink:href="#DejaVuSans-4d" transform="translate(721.826172 0)"/>
    <use xlink:href="#DejaVuSans-61" transform="translate(808.105469 0)"/>
    <use xlink:href="#DejaVuSans-73" transform="translate(869.384766 0)"/>
    <use xlink:href="#DejaVuSans-73" transform="translate(921.484375 0)"/>
    <use xlink:href="#DejaVuSans-20" transform="translate(973.583984 0)"/>
    <use xlink:href="#DejaVuSans-44" transform="translate(1005.371094 0)"/>
    <use xlink:href="#DejaVuSans-65" transform="translate(1082.373047 0)"/>
    <use xlink:href="#DejaVuSans-74" transform="translate(1143.896484 0)"/>
    <use xlink:href="#DejaVuSans-65" transform="translate(1183.105469 0)"/>
    <use xlink:href="#DejaVuSans-72" transform="translate(1244.628906 0)"/>
    <use xlink:href="#DejaVuSans-6d" transform="translate(1283.992188 0)"/>
    <use xlink:href="#DejaVuSans-69" transform="translate(1381.404297 0)"/>
    <use xlink:href="#DejaVuSans-6e" transform="translate(1409.1875 0)"/>
    <use xlink:href="#DejaVuSans-65" transform="translate(1472.566406 0)"/>
    <use xlink:href="#DejaVuSans-73" transform="translate(1534.089844 0)"/>
    <use xlink:href="#DejaVuSans-20" transform="translate(1586.189453 0)"/>
    <use xlink:href="#DejaVuSans-46" transform="translate(1617.976562 0)"/>
    <use xlink:href="#DejaVuSans-61" transform="translate(1666.371094 0)"/>
    <use xlink:href="#DejaVuSans-74" transform="translate(1727.650391 0)"/>
    <use xlink:href="#DejaVuSans-65" transform="translate(1766.859375 0)"/>
   </g>
  </g>
 </g>
 <defs>
  <clipPath id="pc66a6b4b4a">
   <rect x="7.2" y="71.728" width="414.2945" height="280.64"/>
  </clipPath>
  <clipPath id="pbaef108b06">
   <rect x="432.2945" y="71.728" width="414.2945" height="280.64"/>
  </clipPath>
 </defs>
</svg>
