<?xml version="1.0" encoding="utf-8" standalone="no"?>
<!DOCTYPE svg PUBLIC "-//W3C//DTD SVG 1.1//EN"
  "http://www.w3.org/Graphics/SVG/1.1/DTD/svg11.dtd">
<svg xmlns:xlink="http://www.w3.org/1999/xlink" width="772.300545pt" height="357.243875pt" viewBox="0 0 772.300545 357.243875" xmlns="http://www.w3.org/2000/svg" version="1.1">
 <metadata>
  <rdf:RDF xmlns:dc="http://purl.org/dc/elements/1.1/" xmlns:cc="http://creativecommons.org/ns#" xmlns:rdf="http://www.w3.org/1999/02/22-rdf-syntax-ns#">
   <cc:Work>
    <dc:type rdf:resource="http://purl.org/dc/dcmitype/StillImage"/>
    <dc:date>2026-01-02T19:17:51.584121</dc:date>
    <dc:format>image/svg+xml</dc:format>
    <dc:creator>
     <cc:Agent>
      <dc:title>Matplotlib v3.10.8, https://matplotlib.org/</dc:title>
     </cc:Agent>
    </dc:creator>
   </cc:Work>
  </rdf:RDF>
 </metadata>
 <defs>
  <style type="text/css">*{stroke-linejoin: round; stroke-linecap: butt}</style>
 </defs>
 <g id="figure_1">
  <g id="patch_1">
   <path d="M 0 357.243875 
L 772.300545 357.243875 
L 772.300545 0 
L 0 0 
z
" style="fill: #ffffff"/>
  </g>
  <g id="axes_1">
   <g id="patch_2">
    <path d="M 130.212 302.3755 
C 158.757268 302.3755 186.137239 291.034345 206.321792 270.849792 
C 226.506345 250.665239 237.8475 223.285268 237.8475 194.74 
C 237.8475 166.194732 226.506345 138.814761 206.321792 118.630208 
C 186.137239 98.445655 158.757268 87.1045 130.212 87.1045 
C 101.666732 87.1045 74.286761 98.445655 54.102208 118.630208 
C 33.917655 138.814761 22.5765 166.194732 22.5765 194.74 
C 22.5765 223.285268 33.917655 250.665239 54.102208 270.849792 
C 74.286761 291.034345 101.666732 302.3755 130.212 302.3755 
z
" clip-path="url(#p4a51d6e231)" style="fill: #ecf0f1; opacity: 0.16; stroke: #ecf0f1; stroke-width: 2.5; stroke-linejoin: miter"/>
   </g>
   <g id="patch_3">
    <path d="M 130.212 281.8735 
C 153.320074 281.8735 175.484813 272.692565 191.824689 256.352689 
C 208.164565 240.012813 217.3455 217.848074 217.3455 194.74 
C 217.3455 171.631926 208.164565 149.467187 191.824689 133.127311 
C 175.484813 116.787435 153.320074 107.6065 130.212 107.6065 
C 107.103926 107.6065 84.939187 116.787435 68.599311 133.127311 
C 52.259435 149.467187 43.0785 171.631926 43.0785 194.74 
C 43.0785 217.848074 52.259435 240.012813 68.599311 256.352689 
C 84.939187 272.692565 107.103926 281.8735 130.212 281.8735 
z
" clip-path="url(#p4a51d6e231)" style="fill: #95a5a6; opacity: 0.16; stroke: #95a5a6; stroke-width: 2.5; stroke-linejoin: miter"/>
   </g>
   <g id="patch_4">
    <path d="M 130.212 263.93425 
C 148.56253 263.93425 166.163939 256.643507 179.139723 243.667723 
C 192.115507 230.691939 199.40625 213.09053 199.40625 194.74 
C 199.40625 176.38947 192.115507 158.788061 179.139723 145.812277 
C 166.163939 132.836493 148.56253 125.54575 130.212 125.54575 
C 111.86147 125.54575 94.260061 132.836493 81.284277 145.812277 
C 68.308493 158.788061 61.01775 176.38947 61.01775 194.74 
C 61.01775 213.09053 68.308493 230.691939 81.284277 243.667723 
C 94.260061 256.643507 111.86147 263.93425 130.212 263.93425 
z
" clip-path="url(#p4a51d6e231)" style="fill: #2ecc71; opacity: 0.16; stroke: #2ecc71; stroke-width: 2.5; stroke-linejoin: miter"/>
   </g>
   <g id="patch_5">
    <path d="M 130.212 248.55775 
C 144.484634 248.55775 158.17462 242.887172 168.266896 232.794896 
C 178.359172 222.70262 184.02975 209.012634 184.02975 194.74 
C 184.02975 180.467366 178.359172 166.77738 168.266896 156.685104 
C 158.17462 146.592828 144.484634 140.92225 130.212 140.92225 
C 115.939366 140.92225 102.24938 146.592828 92.157104 156.685104 
C 82.064828 166.77738 76.39425 180.467366 76.39425 194.74 
C 76.39425 209.012634 82.064828 222.70262 92.157104 232.794896 
C 102.24938 242.887172 115.939366 248.55775 130.212 248.55775 
z
" clip-path="url(#p4a51d6e231)" style="fill: #f39c12; opacity: 0.16; stroke: #f39c12; stroke-width: 2.5; stroke-linejoin: miter"/>
   </g>
   <g id="patch_6">
    <path d="M 130.212 233.18125 
C 140.406739 233.18125 150.1853 229.130837 157.394069 221.922069 
C 164.602837 214.7133 168.65325 204.934739 168.65325 194.74 
C 168.65325 184.545261 164.602837 174.7667 157.394069 167.557931 
C 150.1853 160.349163 140.406739 156.29875 130.212 156.29875 
C 120.017261 156.29875 110.2387 160.349163 103.029931 167.557931 
C 95.821163 174.7667 91.77075 184.545261 91.77075 194.74 
C 91.77075 204.934739 95.821163 214.7133 103.029931 221.922069 
C 110.2387 229.130837 120.017261 233.18125 130.212 233.18125 
z
" clip-path="url(#p4a51d6e231)" style="fill: #9b59b6; opacity: 0.16; stroke: #9b59b6; stroke-width: 2.5; stroke-linejoin: miter"/>
   </g>
   <g id="patch_7">
    <path d="M 130.212 217.80475 
C 136.328843 217.80475 142.19598 215.374502 146.521241 211.049241 
C 150.846502 206.72398 153.27675 200.856843 153.27675 194.74 
C 153.27675 188.623157 150.846502 182.75602 146.521241 178.430759 
C 142.19598 174.105498 136.328843 171.67525 130.212 171.67525 
C 124.095157 171.67525 118.22802 174.105498 113.902759 178.430759 
C 109.577498 182.75602 107.14725 188.623157 107.14725 194.74 
C 107.14725 200.856843 109.577498 206.72398 113.902759 211.049241 
C 118.22802 215.374502 124.095157 217.80475 130.212 217.80475 
z
" clip-path="url(#p4a51d6e231)" style="fill: #2c3e50; opacity: 0.16; stroke: #2c3e50; stroke-width: 2.5; stroke-linejoin: miter"/>
   </g>
   <g id="text_1">
    <!-- H -->
    <g style="fill: #2c3e50" transform="translate(127.203875 101.4559) scale(0.08 -0.08)">
     <defs>
      <path id="DejaVuSans-48" d="M 628 4666 
L 1259 4666 
L 1259 2753 
L 3553 2753 
L 3553 4666 
L 4184 4666 
L 4184 0 
L 3553 0 
L 3553 2222 
L 1259 2222 
L 1259 0 
L 628 0 
L 628 4666 
z
" transform="scale(0.015625)"/>
     </defs>
     <use xlink:href="#DejaVuSans-48"/>
    </g>
   </g>
   <g id="text_2">
    <!-- He -->
    <g style="fill: #2c3e50" transform="translate(124.742625 121.9579) scale(0.08 -0.08)">
     <defs>
      <path id="DejaVuSans-65" d="M 3597 1894 
L 3597 1613 
L 953 1613 
Q 991 1019 1311 708 
Q 1631 397 2203 397 
Q 2534 397 2845 478 
Q 3156 559 3463 722 
L 3463 178 
Q 3153 47 2828 -22 
Q 2503 -91 2169 -91 
Q 1331 -91 842 396 
Q 353 884 353 1716 
Q 353 2575 817 3079 
Q 1281 3584 2069 3584 
Q 2775 3584 3186 3129 
Q 3597 2675 3597 1894 
z
M 3022 2063 
Q 3016 2534 2758 2815 
Q 2500 3097 2075 3097 
Q 1594 3097 1305 2825 
Q 1016 2553 972 2059 
L 3022 2063 
z
" transform="scale(0.015625)"/>
     </defs>
     <use xlink:href="#DejaVuSans-48"/>
     <use xlink:href="#DejaVuSans-65" transform="translate(75.195312 0)"/>
    </g>
   </g>
   <g id="text_3">
    <!-- C -->
    <g style="fill: #2c3e50" transform="translate(127.418875 139.89715) scale(0.08 -0.08)">
     <defs>
      <path id="DejaVuSans-43" d="M 4122 4306 
L 4122 3641 
Q 3803 3938 3442 4084 
Q 3081 4231 2675 4231 
Q 1875 4231 1450 3742 
Q 1025 3253 1025 2328 
Q 1025 1406 1450 917 
Q 1875 428 2675 428 
Q 3081 428 3442 575 
Q 3803 722 4122 1019 
L 4122 359 
Q 3791 134 3420 21 
Q 3050 -91 2638 -91 
Q 1578 -91 968 557 
Q 359 1206 359 2328 
Q 359 3453 968 4101 
Q 1578 4750 2638 4750 
Q 3056 4750 3426 4639 
Q 3797 4528 4122 4306 
z
" transform="scale(0.015625)"/>
     </defs>
     <use xlink:href="#DejaVuSans-43"/>
    </g>
   </g>
   <g id="text_4">
    <!-- Ne/O -->
    <g style="fill: #2c3e50" transform="translate(120.262 155.27365) scale(0.08 -0.08)">
     <defs>
      <path id="DejaVuSans-4e" d="M 628 4666 
L 1478 4666 
L 3547 763 
L 3547 4666 
L 4159 4666 
L 4159 0 
L 3309 0 
L 1241 3903 
L 1241 0 
L 628 0 
L 628 4666 
z
" transform="scale(0.015625)"/>
      <path id="DejaVuSans-2f" d="M 1625 4666 
L 2156 4666 
L 531 -594 
L 0 -594 
L 1625 4666 
z
" transform="scale(0.015625)"/>
      <path id="DejaVuSans-4f" d="M 2522 4238 
Q 1834 4238 1429 3725 
Q 1025 3213 1025 2328 
Q 1025 1447 1429 934 
Q 1834 422 2522 422 
Q 3209 422 3611 934 
Q 4013 1447 4013 2328 
Q 4013 3213 3611 3725 
Q 3209 4238 2522 4238 
z
M 2522 4750 
Q 3503 4750 4090 4092 
Q 4678 3434 4678 2328 
Q 4678 1225 4090 567 
Q 3503 -91 2522 -91 
Q 1538 -91 948 565 
Q 359 1222 359 2328 
Q 359 3434 948 4092 
Q 1538 4750 2522 4750 
z
" transform="scale(0.015625)"/>
     </defs>
     <use xlink:href="#DejaVuSans-4e"/>
     <use xlink:href="#DejaVuSans-65" transform="translate(74.804688 0)"/>
     <use xlink:href="#DejaVuSans-2f" transform="translate(136.328125 0)"/>
     <use xlink:href="#DejaVuSans-4f" transform="translate(170.019531 0)"/>
    </g>
   </g>
   <g id="text_5">
    <!-- Si -->
    <g style="fill: #2c3e50" transform="translate(126.561375 170.65015) scale(0.08 -0.08)">
     <defs>
      <path id="DejaVuSans-53" d="M 3425 4513 
L 3425 3897 
Q 3066 4069 2747 4153 
Q 2428 4238 2131 4238 
Q 1616 4238 1336 4038 
Q 1056 3838 1056 3469 
Q 1056 3159 1242 3001 
Q 1428 2844 1947 2747 
L 2328 2669 
Q 3034 2534 3370 2195 
Q 3706 1856 3706 1288 
Q 3706 609 3251 259 
Q 2797 -91 1919 -91 
Q 1588 -91 1214 -16 
Q 841 59 441 206 
L 441 856 
Q 825 641 1194 531 
Q 1563 422 1919 422 
Q 2459 422 2753 634 
Q 3047 847 3047 1241 
Q 3047 1584 2836 1778 
Q 2625 1972 2144 2069 
L 1759 2144 
Q 1053 2284 737 2584 
Q 422 2884 422 3419 
Q 422 4038 858 4394 
Q 1294 4750 2059 4750 
Q 2388 4750 2728 4690 
Q 3069 4631 3425 4513 
z
" transform="scale(0.015625)"/>
      <path id="DejaVuSans-69" d="M 603 3500 
L 1178 3500 
L 1178 0 
L 603 0 
L 603 3500 
z
M 603 4863 
L 1178 4863 
L 1178 4134 
L 603 4134 
L 603 4863 
z
" transform="scale(0.015625)"/>
     </defs>
     <use xlink:href="#DejaVuSans-53"/>
     <use xlink:href="#DejaVuSans-69" transform="translate(63.476562 0)"/>
    </g>
   </g>
   <g id="text_6">
    <!-- Fe core -->
    <g style="fill: #2c3e50" transform="translate(115.736375 186.02665) scale(0.08 -0.08)">
     <defs>
      <path id="DejaVuSans-46" d="M 628 4666 
L 3309 4666 
L 3309 4134 
L 1259 4134 
L 1259 2759 
L 3109 2759 
L 3109 2228 
L 1259 2228 
L 1259 0 
L 628 0 
L 628 4666 
z
" transform="scale(0.015625)"/>
      <path id="DejaVuSans-20" transform="scale(0.015625)"/>
      <path id="DejaVuSans-63" d="M 3122 3366 
L 3122 2828 
Q 2878 2963 2633 3030 
Q 2388 3097 2138 3097 
Q 1578 3097 1268 2742 
Q 959 2388 959 1747 
Q 959 1106 1268 751 
Q 1578 397 2138 397 
Q 2388 397 2633 464 
Q 2878 531 3122 666 
L 3122 134 
Q 2881 22 2623 -34 
Q 2366 -91 2075 -91 
Q 1284 -91 818 406 
Q 353 903 353 1747 
Q 353 2603 823 3093 
Q 1294 3584 2113 3584 
Q 2378 3584 2631 3529 
Q 2884 3475 3122 3366 
z
" transform="scale(0.015625)"/>
      <path id="DejaVuSans-6f" d="M 1959 3097 
Q 1497 3097 1228 2736 
Q 959 2375 959 1747 
Q 959 1119 1226 758 
Q 1494 397 1959 397 
Q 2419 397 2687 759 
Q 2956 1122 2956 1747 
Q 2956 2369 2687 2733 
Q 2419 3097 1959 3097 
z
M 1959 3584 
Q 2709 3584 3137 3096 
Q 3566 2609 3566 1747 
Q 3566 888 3137 398 
Q 2709 -91 1959 -91 
Q 1206 -91 779 398 
Q 353 888 353 1747 
Q 353 2609 779 3096 
Q 1206 3584 1959 3584 
z
" transform="scale(0.015625)"/>
      <path id="DejaVuSans-72" d="M 2631 2963 
Q 2534 3019 2420 3045 
Q 2306 3072 2169 3072 
Q 1681 3072 1420 2755 
Q 1159 2438 1159 1844 
L 1159 0 
L 581 0 
L 581 3500 
L 1159 3500 
L 1159 2956 
Q 1341 3275 1631 3429 
Q 1922 3584 2338 3584 
Q 2397 3584 2469 3576 
Q 2541 3569 2628 3553 
L 2631 2963 
z
" transform="scale(0.015625)"/>
     </defs>
     <use xlink:href="#DejaVuSans-46"/>
     <use xlink:href="#DejaVuSans-65" transform="translate(52.019531 0)"/>
     <use xlink:href="#DejaVuSans-20" transform="translate(113.542969 0)"/>
     <use xlink:href="#DejaVuSans-63" transform="translate(145.330078 0)"/>
     <use xlink:href="#DejaVuSans-6f" transform="translate(200.310547 0)"/>
     <use xlink:href="#DejaVuSans-72" transform="translate(261.492188 0)"/>
     <use xlink:href="#DejaVuSans-65" transform="translate(300.355469 0)"/>
    </g>
   </g>
   <g id="text_7">
    <!-- Onion-Shell Burning (schematic) -->
    <g transform="translate(33.12825 61.728) scale(0.12 -0.12)">
     <defs>
      <path id="DejaVuSans-6e" d="M 3513 2113 
L 3513 0 
L 2938 0 
L 2938 2094 
Q 2938 2591 2744 2837 
Q 2550 3084 2163 3084 
Q 1697 3084 1428 2787 
Q 1159 2491 1159 1978 
L 1159 0 
L 581 0 
L 581 3500 
L 1159 3500 
L 1159 2956 
Q 1366 3272 1645 3428 
Q 1925 3584 2291 3584 
Q 2894 3584 3203 3211 
Q 3513 2838 3513 2113 
z
" transform="scale(0.015625)"/>
      <path id="DejaVuSans-2d" d="M 313 2009 
L 1997 2009 
L 1997 1497 
L 313 1497 
L 313 2009 
z
" transform="scale(0.015625)"/>
      <path id="DejaVuSans-68" d="M 3513 2113 
L 3513 0 
L 2938 0 
L 2938 2094 
Q 2938 2591 2744 2837 
Q 2550 3084 2163 3084 
Q 1697 3084 1428 2787 
Q 1159 2491 1159 1978 
L 1159 0 
L 581 0 
L 581 4863 
L 1159 4863 
L 1159 2956 
Q 1366 3272 1645 3428 
Q 1925 3584 2291 3584 
Q 2894 3584 3203 3211 
Q 3513 2838 3513 2113 
z
" transform="scale(0.015625)"/>
      <path id="DejaVuSans-6c" d="M 603 4863 
L 1178 4863 
L 1178 0 
L 603 0 
L 603 4863 
z
" transform="scale(0.015625)"/>
      <path id="DejaVuSans-42" d="M 1259 2228 
L 1259 519 
L 2272 519 
Q 2781 519 3026 730 
Q 3272 941 3272 1375 
Q 3272 1813 3026 2020 
Q 2781 2228 2272 2228 
L 1259 2228 
z
M 1259 4147 
L 1259 2741 
L 2194 2741 
Q 2656 2741 2882 2914 
Q 3109 3088 3109 3444 
Q 3109 3797 2882 3972 
Q 2656 4147 2194 4147 
L 1259 4147 
z
M 628 4666 
L 2241 4666 
Q 2963 4666 3353 4366 
Q 3744 4066 3744 3513 
Q 3744 3084 3544 2831 
Q 3344 2578 2956 2516 
Q 3422 2416 3680 2098 
Q 3938 1781 3938 1306 
Q 3938 681 3513 340 
Q 3088 0 2303 0 
L 628 0 
L 628 4666 
z
" transform="scale(0.015625)"/>
      <path id="DejaVuSans-75" d="M 544 1381 
L 544 3500 
L 1119 3500 
L 1119 1403 
Q 1119 906 1312 657 
Q 1506 409 1894 409 
Q 2359 409 2629 706 
Q 2900 1003 2900 1516 
L 2900 3500 
L 3475 3500 
L 3475 0 
L 2900 0 
L 2900 538 
Q 2691 219 2414 64 
Q 2138 -91 1772 -91 
Q 1169 -91 856 284 
Q 544 659 544 1381 
z
M 1991 3584 
L 1991 3584 
z
" transform="scale(0.015625)"/>
      <path id="DejaVuSans-67" d="M 2906 1791 
Q 2906 2416 2648 2759 
Q 2391 3103 1925 3103 
Q 1463 3103 1205 2759 
Q 947 2416 947 1791 
Q 947 1169 1205 825 
Q 1463 481 1925 481 
Q 2391 481 2648 825 
Q 2906 1169 2906 1791 
z
M 3481 434 
Q 3481 -459 3084 -895 
Q 2688 -1331 1869 -1331 
Q 1566 -1331 1297 -1286 
Q 1028 -1241 775 -1147 
L 775 -588 
Q 1028 -725 1275 -790 
Q 1522 -856 1778 -856 
Q 2344 -856 2625 -561 
Q 2906 -266 2906 331 
L 2906 616 
Q 2728 306 2450 153 
Q 2172 0 1784 0 
Q 1141 0 747 490 
Q 353 981 353 1791 
Q 353 2603 747 3093 
Q 1141 3584 1784 3584 
Q 2172 3584 2450 3431 
Q 2728 3278 2906 2969 
L 2906 3500 
L 3481 3500 
L 3481 434 
z
" transform="scale(0.015625)"/>
      <path id="DejaVuSans-28" d="M 1984 4856 
Q 1566 4138 1362 3434 
Q 1159 2731 1159 2009 
Q 1159 1288 1364 580 
Q 1569 -128 1984 -844 
L 1484 -844 
Q 1016 -109 783 600 
Q 550 1309 550 2009 
Q 550 2706 781 3412 
Q 1013 4119 1484 4856 
L 1984 4856 
z
" transform="scale(0.015625)"/>
      <path id="DejaVuSans-73" d="M 2834 3397 
L 2834 2853 
Q 2591 2978 2328 3040 
Q 2066 3103 1784 3103 
Q 1356 3103 1142 2972 
Q 928 2841 928 2578 
Q 928 2378 1081 2264 
Q 1234 2150 1697 2047 
L 1894 2003 
Q 2506 1872 2764 1633 
Q 3022 1394 3022 966 
Q 3022 478 2636 193 
Q 2250 -91 1575 -91 
Q 1294 -91 989 -36 
Q 684 19 347 128 
L 347 722 
Q 666 556 975 473 
Q 1284 391 1588 391 
Q 1994 391 2212 530 
Q 2431 669 2431 922 
Q 2431 1156 2273 1281 
Q 2116 1406 1581 1522 
L 1381 1569 
Q 847 1681 609 1914 
Q 372 2147 372 2553 
Q 372 3047 722 3315 
Q 1072 3584 1716 3584 
Q 2034 3584 2315 3537 
Q 2597 3491 2834 3397 
z
" transform="scale(0.015625)"/>
      <path id="DejaVuSans-6d" d="M 3328 2828 
Q 3544 3216 3844 3400 
Q 4144 3584 4550 3584 
Q 5097 3584 5394 3201 
Q 5691 2819 5691 2113 
L 5691 0 
L 5113 0 
L 5113 2094 
Q 5113 2597 4934 2840 
Q 4756 3084 4391 3084 
Q 3944 3084 3684 2787 
Q 3425 2491 3425 1978 
L 3425 0 
L 2847 0 
L 2847 2094 
Q 2847 2600 2669 2842 
Q 2491 3084 2119 3084 
Q 1678 3084 1418 2786 
Q 1159 2488 1159 1978 
L 1159 0 
L 581 0 
L 581 3500 
L 1159 3500 
L 1159 2956 
Q 1356 3278 1631 3431 
Q 1906 3584 2284 3584 
Q 2666 3584 2933 3390 
Q 3200 3197 3328 2828 
z
" transform="scale(0.015625)"/>
      <path id="DejaVuSans-61" d="M 2194 1759 
Q 1497 1759 1228 1600 
Q 959 1441 959 1056 
Q 959 750 1161 570 
Q 1363 391 1709 391 
Q 2188 391 2477 730 
Q 2766 1069 2766 1631 
L 2766 1759 
L 2194 1759 
z
M 3341 1997 
L 3341 0 
L 2766 0 
L 2766 531 
Q 2569 213 2275 61 
Q 1981 -91 1556 -91 
Q 1019 -91 701 211 
Q 384 513 384 1019 
Q 384 1609 779 1909 
Q 1175 2209 1959 2209 
L 2766 2209 
L 2766 2266 
Q 2766 2663 2505 2880 
Q 2244 3097 1772 3097 
Q 1472 3097 1187 3025 
Q 903 2953 641 2809 
L 641 3341 
Q 956 3463 1253 3523 
Q 1550 3584 1831 3584 
Q 2591 3584 2966 3190 
Q 3341 2797 3341 1997 
z
" transform="scale(0.015625)"/>
      <path id="DejaVuSans-74" d="M 1172 4494 
L 1172 3500 
L 2356 3500 
L 2356 3053 
L 1172 3053 
L 1172 1153 
Q 1172 725 1289 603 
Q 1406 481 1766 481 
L 2356 481 
L 2356 0 
L 1766 0 
Q 1100 0 847 248 
Q 594 497 594 1153 
L 594 3053 
L 172 3053 
L 172 3500 
L 594 3500 
L 594 4494 
L 1172 4494 
z
" transform="scale(0.015625)"/>
      <path id="DejaVuSans-29" d="M 513 4856 
L 1013 4856 
Q 1481 4119 1714 3412 
Q 1947 2706 1947 2009 
Q 1947 1309 1714 600 
Q 1481 -109 1013 -844 
L 513 -844 
Q 928 -128 1133 580 
Q 1338 1288 1338 2009 
Q 1338 2731 1133 3434 
Q 928 4138 513 4856 
z
" transform="scale(0.015625)"/>
     </defs>
     <use xlink:href="#DejaVuSans-4f"/>
     <use xlink:href="#DejaVuSans-6e" transform="translate(78.710938 0)"/>
     <use xlink:href="#DejaVuSans-69" transform="translate(142.089844 0)"/>
     <use xlink:href="#DejaVuSans-6f" transform="translate(169.873047 0)"/>
     <use xlink:href="#DejaVuSans-6e" transform="translate(231.054688 0)"/>
     <use xlink:href="#DejaVuSans-2d" transform="translate(294.433594 0)"/>
     <use xlink:href="#DejaVuSans-53" transform="translate(330.517578 0)"/>
     <use xlink:href="#DejaVuSans-68" transform="translate(393.994141 0)"/>
     <use xlink:href="#DejaVuSans-65" transform="translate(457.373047 0)"/>
     <use xlink:href="#DejaVuSans-6c" transform="translate(518.896484 0)"/>
     <use xlink:href="#DejaVuSans-6c" transform="translate(546.679688 0)"/>
     <use xlink:href="#DejaVuSans-20" transform="translate(574.462891 0)"/>
     <use xlink:href="#DejaVuSans-42" transform="translate(606.25 0)"/>
     <use xlink:href="#DejaVuSans-75" transform="translate(674.853516 0)"/>
     <use xlink:href="#DejaVuSans-72" transform="translate(738.232422 0)"/>
     <use xlink:href="#DejaVuSans-6e" transform="translate(777.595703 0)"/>
     <use xlink:href="#DejaVuSans-69" transform="translate(840.974609 0)"/>
     <use xlink:href="#DejaVuSans-6e" transform="translate(868.757812 0)"/>
     <use xlink:href="#DejaVuSans-67" transform="translate(932.136719 0)"/>
     <use xlink:href="#DejaVuSans-20" transform="translate(995.613281 0)"/>
     <use xlink:href="#DejaVuSans-28" transform="translate(1027.400391 0)"/>
     <use xlink:href="#DejaVuSans-73" transform="translate(1066.414062 0)"/>
     <use xlink:href="#DejaVuSans-63" transform="translate(1118.513672 0)"/>
     <use xlink:href="#DejaVuSans-68" transform="translate(1173.494141 0)"/>
     <use xlink:href="#DejaVuSans-65" transform="translate(1236.873047 0)"/>
     <use xlink:href="#DejaVuSans-6d" transform="translate(1298.396484 0)"/>
     <use xlink:href="#DejaVuSans-61" transform="translate(1395.808594 0)"/>
     <use xlink:href="#DejaVuSans-74" transform="translate(1457.087891 0)"/>
     <use xlink:href="#DejaVuSans-69" transform="translate(1496.296875 0)"/>
     <use xlink:href="#DejaVuSans-63" transform="translate(1524.080078 0)"/>
     <use xlink:href="#DejaVuSans-29" transform="translate(1579.060547 0)"/>
    </g>
   </g>
  </g>
  <g id="axes_2">
   <g id="patch_8">
    <path d="M 350.077636 317.752 
L 765.100545 317.752 
L 765.100545 71.728 
L 350.077636 71.728 
z
" style="fill: #ffffff"/>
   </g>
   <g id="patch_9">
    <path d="M -41468.720643 82.910909 
L 746.235868 82.910909 
L 746.235868 113.760313 
L -41468.720643 113.760313 
z
" clip-path="url(#p343589f23c)" style="fill: #ecf0f1; opacity: 0.45; stroke: #2c3e50; stroke-linejoin: miter"/>
   </g>
   <g id="patch_10">
    <path d="M -41468.720643 121.472665 
L 704.314362 121.472665 
L 704.314362 152.322069 
L -41468.720643 152.322069 
z
" clip-path="url(#p343589f23c)" style="fill: #95a5a6; opacity: 0.45; stroke: #2c3e50; stroke-linejoin: miter"/>
   </g>
   <g id="patch_11">
    <path d="M -41468.720643 160.03442 
L 578.549844 160.03442 
L 578.549844 190.883824 
L -41468.720643 190.883824 
z
" clip-path="url(#p343589f23c)" style="fill: #2ecc71; opacity: 0.45; stroke: #2c3e50; stroke-linejoin: miter"/>
   </g>
   <g id="patch_12">
    <path d="M -41468.720643 198.596176 
L 452.785326 198.596176 
L 452.785326 229.44558 
L -41468.720643 229.44558 
z
" clip-path="url(#p343589f23c)" style="fill: #f39c12; opacity: 0.45; stroke: #2c3e50; stroke-linejoin: miter"/>
   </g>
   <g id="patch_13">
    <path d="M -41468.720643 237.157931 
L 440.165695 237.157931 
L 440.165695 268.007335 
L -41468.720643 268.007335 
z
" clip-path="url(#p343589f23c)" style="fill: #e74c3c; opacity: 0.45; stroke: #2c3e50; stroke-linejoin: miter"/>
   </g>
   <g id="patch_14">
    <path d="M -41468.720643 275.719687 
L 368.942314 275.719687 
L 368.942314 306.569091 
L -41468.720643 306.569091 
z
" clip-path="url(#p343589f23c)" style="fill: #9b59b6; opacity: 0.45; stroke: #2c3e50; stroke-linejoin: miter"/>
   </g>
   <g id="matplotlib.axis_1">
    <g id="xtick_1">
     <g id="line2d_1">
      <path d="M 410.86382 317.752 
L 410.86382 71.728 
" clip-path="url(#p343589f23c)" style="fill: none; stroke: #ecf0f1; stroke-opacity: 0.9; stroke-width: 0.8; stroke-linecap: square"/>
     </g>
     <g id="line2d_2">
      <defs>
       <path id="m37deca3acf" d="M 0 0 
L 0 3.5 
" style="stroke: #000000; stroke-width: 0.8"/>
      </defs>
      <g>
       <use xlink:href="#m37deca3acf" x="410.86382" y="317.752" style="stroke: #000000; stroke-width: 0.8"/>
      </g>
     </g>
     <g id="text_8">
      <!-- $\mathdefault{10^{-1}}$ -->
      <g transform="translate(399.11382 332.350437) scale(0.1 -0.1)">
       <defs>
        <path id="DejaVuSans-31" d="M 794 531 
L 1825 531 
L 1825 4091 
L 703 3866 
L 703 4441 
L 1819 4666 
L 2450 4666 
L 2450 531 
L 3481 531 
L 3481 0 
L 794 0 
L 794 531 
z
" transform="scale(0.015625)"/>
        <path id="DejaVuSans-30" d="M 2034 4250 
Q 1547 4250 1301 3770 
Q 1056 3291 1056 2328 
Q 1056 1369 1301 889 
Q 1547 409 2034 409 
Q 2525 409 2770 889 
Q 3016 1369 3016 2328 
Q 3016 3291 2770 3770 
Q 2525 4250 2034 4250 
z
M 2034 4750 
Q 2819 4750 3233 4129 
Q 3647 3509 3647 2328 
Q 3647 1150 3233 529 
Q 2819 -91 2034 -91 
Q 1250 -91 836 529 
Q 422 1150 422 2328 
Q 422 3509 836 4129 
Q 1250 4750 2034 4750 
z
" transform="scale(0.015625)"/>
        <path id="DejaVuSans-2212" d="M 678 2272 
L 4684 2272 
L 4684 1741 
L 678 1741 
L 678 2272 
z
" transform="scale(0.015625)"/>
       </defs>
       <use xlink:href="#DejaVuSans-31" transform="translate(0 0.684375)"/>
       <use xlink:href="#DejaVuSans-30" transform="translate(63.623047 0.684375)"/>
       <use xlink:href="#DejaVuSans-2212" transform="translate(128.203125 38.965625) scale(0.7)"/>
       <use xlink:href="#DejaVuSans-31" transform="translate(186.855469 38.965625) scale(0.7)"/>
      </g>
     </g>
    </g>
    <g id="xtick_2">
     <g id="line2d_3">
      <path d="M 494.706832 317.752 
L 494.706832 71.728 
" clip-path="url(#p343589f23c)" style="fill: none; stroke: #ecf0f1; stroke-opacity: 0.9; stroke-width: 0.8; stroke-linecap: square"/>
     </g>
     <g id="line2d_4">
      <g>
       <use xlink:href="#m37deca3acf" x="494.706832" y="317.752" style="stroke: #000000; stroke-width: 0.8"/>
      </g>
     </g>
     <g id="text_9">
      <!-- $\mathdefault{10^{1}}$ -->
      <g transform="translate(485.906832 332.350437) scale(0.1 -0.1)">
       <use xlink:href="#DejaVuSans-31" transform="translate(0 0.684375)"/>
       <use xlink:href="#DejaVuSans-30" transform="translate(63.623047 0.684375)"/>
       <use xlink:href="#DejaVuSans-31" transform="translate(128.203125 38.965625) scale(0.7)"/>
      </g>
     </g>
    </g>
    <g id="xtick_3">
     <g id="line2d_5">
      <path d="M 578.549844 317.752 
L 578.549844 71.728 
" clip-path="url(#p343589f23c)" style="fill: none; stroke: #ecf0f1; stroke-opacity: 0.9; stroke-width: 0.8; stroke-linecap: square"/>
     </g>
     <g id="line2d_6">
      <g>
       <use xlink:href="#m37deca3acf" x="578.549844" y="317.752" style="stroke: #000000; stroke-width: 0.8"/>
      </g>
     </g>
     <g id="text_10">
      <!-- $\mathdefault{10^{3}}$ -->
      <g transform="translate(569.749844 332.350437) scale(0.1 -0.1)">
       <defs>
        <path id="DejaVuSans-33" d="M 2597 2516 
Q 3050 2419 3304 2112 
Q 3559 1806 3559 1356 
Q 3559 666 3084 287 
Q 2609 -91 1734 -91 
Q 1441 -91 1130 -33 
Q 819 25 488 141 
L 488 750 
Q 750 597 1062 519 
Q 1375 441 1716 441 
Q 2309 441 2620 675 
Q 2931 909 2931 1356 
Q 2931 1769 2642 2001 
Q 2353 2234 1838 2234 
L 1294 2234 
L 1294 2753 
L 1863 2753 
Q 2328 2753 2575 2939 
Q 2822 3125 2822 3475 
Q 2822 3834 2567 4026 
Q 2313 4219 1838 4219 
Q 1578 4219 1281 4162 
Q 984 4106 628 3988 
L 628 4550 
Q 988 4650 1302 4700 
Q 1616 4750 1894 4750 
Q 2613 4750 3031 4423 
Q 3450 4097 3450 3541 
Q 3450 3153 3228 2886 
Q 3006 2619 2597 2516 
z
" transform="scale(0.015625)"/>
       </defs>
       <use xlink:href="#DejaVuSans-31" transform="translate(0 0.765625)"/>
       <use xlink:href="#DejaVuSans-30" transform="translate(63.623047 0.765625)"/>
       <use xlink:href="#DejaVuSans-33" transform="translate(128.203125 39.046875) scale(0.7)"/>
      </g>
     </g>
    </g>
    <g id="xtick_4">
     <g id="line2d_7">
      <path d="M 662.392856 317.752 
L 662.392856 71.728 
" clip-path="url(#p343589f23c)" style="fill: none; stroke: #ecf0f1; stroke-opacity: 0.9; stroke-width: 0.8; stroke-linecap: square"/>
     </g>
     <g id="line2d_8">
      <g>
       <use xlink:href="#m37deca3acf" x="662.392856" y="317.752" style="stroke: #000000; stroke-width: 0.8"/>
      </g>
     </g>
     <g id="text_11">
      <!-- $\mathdefault{10^{5}}$ -->
      <g transform="translate(653.592856 332.350437) scale(0.1 -0.1)">
       <defs>
        <path id="DejaVuSans-35" d="M 691 4666 
L 3169 4666 
L 3169 4134 
L 1269 4134 
L 1269 2991 
Q 1406 3038 1543 3061 
Q 1681 3084 1819 3084 
Q 2600 3084 3056 2656 
Q 3513 2228 3513 1497 
Q 3513 744 3044 326 
Q 2575 -91 1722 -91 
Q 1428 -91 1123 -41 
Q 819 9 494 109 
L 494 744 
Q 775 591 1075 516 
Q 1375 441 1709 441 
Q 2250 441 2565 725 
Q 2881 1009 2881 1497 
Q 2881 1984 2565 2268 
Q 2250 2553 1709 2553 
Q 1456 2553 1204 2497 
Q 953 2441 691 2322 
L 691 4666 
z
" transform="scale(0.015625)"/>
       </defs>
       <use xlink:href="#DejaVuSans-31" transform="translate(0 0.684375)"/>
       <use xlink:href="#DejaVuSans-30" transform="translate(63.623047 0.684375)"/>
       <use xlink:href="#DejaVuSans-35" transform="translate(128.203125 38.965625) scale(0.7)"/>
      </g>
     </g>
    </g>
    <g id="xtick_5">
     <g id="line2d_9">
      <path d="M 746.235868 317.752 
L 746.235868 71.728 
" clip-path="url(#p343589f23c)" style="fill: none; stroke: #ecf0f1; stroke-opacity: 0.9; stroke-width: 0.8; stroke-linecap: square"/>
     </g>
     <g id="line2d_10">
      <g>
       <use xlink:href="#m37deca3acf" x="746.235868" y="317.752" style="stroke: #000000; stroke-width: 0.8"/>
      </g>
     </g>
     <g id="text_12">
      <!-- $\mathdefault{10^{7}}$ -->
      <g transform="translate(737.435868 332.350437) scale(0.1 -0.1)">
       <defs>
        <path id="DejaVuSans-37" d="M 525 4666 
L 3525 4666 
L 3525 4397 
L 1831 0 
L 1172 0 
L 2766 4134 
L 525 4134 
L 525 4666 
z
" transform="scale(0.015625)"/>
       </defs>
       <use xlink:href="#DejaVuSans-31" transform="translate(0 0.684375)"/>
       <use xlink:href="#DejaVuSans-30" transform="translate(63.623047 0.684375)"/>
       <use xlink:href="#DejaVuSans-37" transform="translate(128.203125 38.965625) scale(0.7)"/>
      </g>
     </g>
    </g>
    <g id="text_13">
     <!-- Typical duration (years, log) -->
     <g transform="translate(473.975341 347.54825) scale(0.12 -0.12)">
      <defs>
       <path id="DejaVuSans-54" d="M -19 4666 
L 3928 4666 
L 3928 4134 
L 2272 4134 
L 2272 0 
L 1638 0 
L 1638 4134 
L -19 4134 
L -19 4666 
z
" transform="scale(0.015625)"/>
       <path id="DejaVuSans-79" d="M 2059 -325 
Q 1816 -950 1584 -1140 
Q 1353 -1331 966 -1331 
L 506 -1331 
L 506 -850 
L 844 -850 
Q 1081 -850 1212 -737 
Q 1344 -625 1503 -206 
L 1606 56 
L 191 3500 
L 800 3500 
L 1894 763 
L 2988 3500 
L 3597 3500 
L 2059 -325 
z
" transform="scale(0.015625)"/>
       <path id="DejaVuSans-70" d="M 1159 525 
L 1159 -1331 
L 581 -1331 
L 581 3500 
L 1159 3500 
L 1159 2969 
Q 1341 3281 1617 3432 
Q 1894 3584 2278 3584 
Q 2916 3584 3314 3078 
Q 3713 2572 3713 1747 
Q 3713 922 3314 415 
Q 2916 -91 2278 -91 
Q 1894 -91 1617 61 
Q 1341 213 1159 525 
z
M 3116 1747 
Q 3116 2381 2855 2742 
Q 2594 3103 2138 3103 
Q 1681 3103 1420 2742 
Q 1159 2381 1159 1747 
Q 1159 1113 1420 752 
Q 1681 391 2138 391 
Q 2594 391 2855 752 
Q 3116 1113 3116 1747 
z
" transform="scale(0.015625)"/>
       <path id="DejaVuSans-64" d="M 2906 2969 
L 2906 4863 
L 3481 4863 
L 3481 0 
L 2906 0 
L 2906 525 
Q 2725 213 2448 61 
Q 2172 -91 1784 -91 
Q 1150 -91 751 415 
Q 353 922 353 1747 
Q 353 2572 751 3078 
Q 1150 3584 1784 3584 
Q 2172 3584 2448 3432 
Q 2725 3281 2906 2969 
z
M 947 1747 
Q 947 1113 1208 752 
Q 1469 391 1925 391 
Q 2381 391 2643 752 
Q 2906 1113 2906 1747 
Q 2906 2381 2643 2742 
Q 2381 3103 1925 3103 
Q 1469 3103 1208 2742 
Q 947 2381 947 1747 
z
" transform="scale(0.015625)"/>
       <path id="DejaVuSans-2c" d="M 750 794 
L 1409 794 
L 1409 256 
L 897 -744 
L 494 -744 
L 750 256 
L 750 794 
z
" transform="scale(0.015625)"/>
      </defs>
      <use xlink:href="#DejaVuSans-54"/>
      <use xlink:href="#DejaVuSans-79" transform="translate(45.458984 0)"/>
      <use xlink:href="#DejaVuSans-70" transform="translate(104.638672 0)"/>
      <use xlink:href="#DejaVuSans-69" transform="translate(168.115234 0)"/>
      <use xlink:href="#DejaVuSans-63" transform="translate(195.898438 0)"/>
      <use xlink:href="#DejaVuSans-61" transform="translate(250.878906 0)"/>
      <use xlink:href="#DejaVuSans-6c" transform="translate(312.158203 0)"/>
      <use xlink:href="#DejaVuSans-20" transform="translate(339.941406 0)"/>
      <use xlink:href="#DejaVuSans-64" transform="translate(371.728516 0)"/>
      <use xlink:href="#DejaVuSans-75" transform="translate(435.205078 0)"/>
      <use xlink:href="#DejaVuSans-72" transform="translate(498.583984 0)"/>
      <use xlink:href="#DejaVuSans-61" transform="translate(539.697266 0)"/>
      <use xlink:href="#DejaVuSans-74" transform="translate(600.976562 0)"/>
      <use xlink:href="#DejaVuSans-69" transform="translate(640.185547 0)"/>
      <use xlink:href="#DejaVuSans-6f" transform="translate(667.96875 0)"/>
      <use xlink:href="#DejaVuSans-6e" transform="translate(729.150391 0)"/>
      <use xlink:href="#DejaVuSans-20" transform="translate(792.529297 0)"/>
      <use xlink:href="#DejaVuSans-28" transform="translate(824.316406 0)"/>
      <use xlink:href="#DejaVuSans-79" transform="translate(863.330078 0)"/>
      <use xlink:href="#DejaVuSans-65" transform="translate(922.509766 0)"/>
      <use xlink:href="#DejaVuSans-61" transform="translate(984.033203 0)"/>
      <use xlink:href="#DejaVuSans-72" transform="translate(1045.3125 0)"/>
      <use xlink:href="#DejaVuSans-73" transform="translate(1086.425781 0)"/>
      <use xlink:href="#DejaVuSans-2c" transform="translate(1138.525391 0)"/>
      <use xlink:href="#DejaVuSans-20" transform="translate(1170.3125 0)"/>
      <use xlink:href="#DejaVuSans-6c" transform="translate(1202.099609 0)"/>
      <use xlink:href="#DejaVuSans-6f" transform="translate(1229.882812 0)"/>
      <use xlink:href="#DejaVuSans-67" transform="translate(1291.064453 0)"/>
      <use xlink:href="#DejaVuSans-29" transform="translate(1354.541016 0)"/>
     </g>
    </g>
   </g>
   <g id="matplotlib.axis_2">
    <g id="ytick_1">
     <g id="line2d_11">
      <defs>
       <path id="m377470d2ee" d="M 0 0 
L -3.5 0 
" style="stroke: #000000; stroke-width: 0.8"/>
      </defs>
      <g>
       <use xlink:href="#m377470d2ee" x="350.077636" y="98.335611" style="stroke: #000000; stroke-width: 0.8"/>
      </g>
     </g>
     <g id="text_14">
      <!-- H -->
      <g transform="translate(335.557324 102.13483) scale(0.1 -0.1)">
       <use xlink:href="#DejaVuSans-48"/>
      </g>
     </g>
    </g>
    <g id="ytick_2">
     <g id="line2d_12">
      <g>
       <use xlink:href="#m377470d2ee" x="350.077636" y="136.897367" style="stroke: #000000; stroke-width: 0.8"/>
      </g>
     </g>
     <g id="text_15">
      <!-- He -->
      <g transform="translate(329.404199 140.696586) scale(0.1 -0.1)">
       <use xlink:href="#DejaVuSans-48"/>
       <use xlink:href="#DejaVuSans-65" transform="translate(75.195312 0)"/>
      </g>
     </g>
    </g>
    <g id="ytick_3">
     <g id="line2d_13">
      <g>
       <use xlink:href="#m377470d2ee" x="350.077636" y="175.459122" style="stroke: #000000; stroke-width: 0.8"/>
      </g>
     </g>
     <g id="text_16">
      <!-- C -->
      <g transform="translate(336.094824 179.258341) scale(0.1 -0.1)">
       <use xlink:href="#DejaVuSans-43"/>
      </g>
     </g>
    </g>
    <g id="ytick_4">
     <g id="line2d_14">
      <g>
       <use xlink:href="#m377470d2ee" x="350.077636" y="214.020878" style="stroke: #000000; stroke-width: 0.8"/>
      </g>
     </g>
     <g id="text_17">
      <!-- Ne -->
      <g transform="translate(329.443261 217.820096) scale(0.1 -0.1)">
       <use xlink:href="#DejaVuSans-4e"/>
       <use xlink:href="#DejaVuSans-65" transform="translate(74.804688 0)"/>
      </g>
     </g>
    </g>
    <g id="ytick_5">
     <g id="line2d_15">
      <g>
       <use xlink:href="#m377470d2ee" x="350.077636" y="252.582633" style="stroke: #000000; stroke-width: 0.8"/>
      </g>
     </g>
     <g id="text_18">
      <!-- O -->
      <g transform="translate(335.205761 256.381852) scale(0.1 -0.1)">
       <use xlink:href="#DejaVuSans-4f"/>
      </g>
     </g>
    </g>
    <g id="ytick_6">
     <g id="line2d_16">
      <g>
       <use xlink:href="#m377470d2ee" x="350.077636" y="291.144389" style="stroke: #000000; stroke-width: 0.8"/>
      </g>
     </g>
     <g id="text_19">
      <!-- Si -->
      <g transform="translate(333.951074 294.943607) scale(0.1 -0.1)">
       <use xlink:href="#DejaVuSans-53"/>
       <use xlink:href="#DejaVuSans-69" transform="translate(63.476562 0)"/>
      </g>
     </g>
    </g>
   </g>
   <g id="patch_15">
    <path d="M 350.077636 317.752 
L 350.077636 71.728 
" style="fill: none; stroke: #000000; stroke-width: 0.8; stroke-linejoin: miter; stroke-linecap: square"/>
   </g>
   <g id="patch_16">
    <path d="M 765.100545 317.752 
L 765.100545 71.728 
" style="fill: none; stroke: #000000; stroke-width: 0.8; stroke-linejoin: miter; stroke-linecap: square"/>
   </g>
   <g id="patch_17">
    <path d="M 350.077636 317.752 
L 765.100545 317.752 
" style="fill: none; stroke: #000000; stroke-width: 0.8; stroke-linejoin: miter; stroke-linecap: square"/>
   </g>
   <g id="patch_18">
    <path d="M 350.077636 71.728 
L 765.100545 71.728 
" style="fill: none; stroke: #000000; stroke-width: 0.8; stroke-linejoin: miter; stroke-linecap: square"/>
   </g>
   <g id="text_20">
    <!-- Burning Stage Timescales -->
    <g transform="translate(479.808466 61.728) scale(0.12 -0.12)">
     <use xlink:href="#DejaVuSans-42"/>
     <use xlink:href="#DejaVuSans-75" transform="translate(68.603516 0)"/>
     <use xlink:href="#DejaVuSans-72" transform="translate(131.982422 0)"/>
     <use xlink:href="#DejaVuSans-6e" transform="translate(171.345703 0)"/>
     <use xlink:href="#DejaVuSans-69" transform="translate(234.724609 0)"/>
     <use xlink:href="#DejaVuSans-6e" transform="translate(262.507812 0)"/>
     <use xlink:href="#DejaVuSans-67" transform="translate(325.886719 0)"/>
     <use xlink:href="#DejaVuSans-20" transform="translate(389.363281 0)"/>
     <use xlink:href="#DejaVuSans-53" transform="translate(421.150391 0)"/>
     <use xlink:href="#DejaVuSans-74" transform="translate(484.626953 0)"/>
     <use xlink:href="#DejaVuSans-61" transform="translate(523.835938 0)"/>
     <use xlink:href="#DejaVuSans-67" transform="translate(585.115234 0)"/>
     <use xlink:href="#DejaVuSans-65" transform="translate(648.591797 0)"/>
     <use xlink:href="#DejaVuSans-20" transform="translate(710.115234 0)"/>
     <use xlink:href="#DejaVuSans-54" transform="translate(741.902344 0)"/>
     <use xlink:href="#DejaVuSans-69" transform="translate(799.861328 0)"/>
     <use xlink:href="#DejaVuSans-6d" transform="translate(827.644531 0)"/>
     <use xlink:href="#DejaVuSans-65" transform="translate(925.056641 0)"/>
     <use xlink:href="#DejaVuSans-73" transform="translate(986.580078 0)"/>
     <use xlink:href="#DejaVuSans-63" transform="translate(1038.679688 0)"/>
     <use xlink:href="#DejaVuSans-61" transform="translate(1093.660156 0)"/>
     <use xlink:href="#DejaVuSans-6c" transform="translate(1154.939453 0)"/>
     <use xlink:href="#DejaVuSans-65" transform="translate(1182.722656 0)"/>
     <use xlink:href="#DejaVuSans-73" transform="translate(1244.246094 0)"/>
    </g>
   </g>
  </g>
  <g id="text_21">
   <!-- Stellar Nucleosynthesis in Massive Stars -->
   <g transform="translate(203.040858 17.837812) scale(0.14 -0.14)">
    <defs>
     <path id="DejaVuSans-4d" d="M 628 4666 
L 1569 4666 
L 2759 1491 
L 3956 4666 
L 4897 4666 
L 4897 0 
L 4281 0 
L 4281 4097 
L 3078 897 
L 2444 897 
L 1241 4097 
L 1241 0 
L 628 0 
L 628 4666 
z
" transform="scale(0.015625)"/>
     <path id="DejaVuSans-76" d="M 191 3500 
L 800 3500 
L 1894 563 
L 2988 3500 
L 3597 3500 
L 2284 0 
L 1503 0 
L 191 3500 
z
" transform="scale(0.015625)"/>
    </defs>
    <use xlink:href="#DejaVuSans-53"/>
    <use xlink:href="#DejaVuSans-74" transform="translate(63.476562 0)"/>
    <use xlink:href="#DejaVuSans-65" transform="translate(102.685547 0)"/>
    <use xlink:href="#DejaVuSans-6c" transform="translate(164.208984 0)"/>
    <use xlink:href="#DejaVuSans-6c" transform="translate(191.992188 0)"/>
    <use xlink:href="#DejaVuSans-61" transform="translate(219.775391 0)"/>
    <use xlink:href="#DejaVuSans-72" transform="translate(281.054688 0)"/>
    <use xlink:href="#DejaVuSans-20" transform="translate(322.167969 0)"/>
    <use xlink:href="#DejaVuSans-4e" transform="translate(353.955078 0)"/>
    <use xlink:href="#DejaVuSans-75" transform="translate(428.759766 0)"/>
    <use xlink:href="#DejaVuSans-63" transform="translate(492.138672 0)"/>
    <use xlink:href="#DejaVuSans-6c" transform="translate(547.119141 0)"/>
    <use xlink:href="#DejaVuSans-65" transform="translate(574.902344 0)"/>
    <use xlink:href="#DejaVuSans-6f" transform="translate(636.425781 0)"/>
    <use xlink:href="#DejaVuSans-73" transform="translate(697.607422 0)"/>
    <use xlink:href="#DejaVuSans-79" transform="translate(749.707031 0)"/>
    <use xlink:href="#DejaVuSans-6e" transform="translate(808.886719 0)"/>
    <use xlink:href="#DejaVuSans-74" transform="translate(872.265625 0)"/>
    <use xlink:href="#DejaVuSans-68" transform="translate(911.474609 0)"/>
    <use xlink:href="#DejaVuSans-65" transform="translate(974.853516 0)"/>
    <use xlink:href="#DejaVuSans-73" transform="translate(1036.376953 0)"/>
    <use xlink:href="#DejaVuSans-69" transform="translate(1088.476562 0)"/>
    <use xlink:href="#DejaVuSans-73" transform="translate(1116.259766 0)"/>
    <use xlink:href="#DejaVuSans-20" transform="translate(1168.359375 0)"/>
    <use xlink:href="#DejaVuSans-69" transform="translate(1200.146484 0)"/>
    <use xlink:href="#DejaVuSans-6e" transform="translate(1227.929688 0)"/>
    <use xlink:href="#DejaVuSans-20" transform="translate(1291.308594 0)"/>
    <use xlink:href="#DejaVuSans-4d" transform="translate(1323.095703 0)"/>
    <use xlink:href="#DejaVuSans-61" transform="translate(1409.375 0)"/>
    <use xlink:href="#DejaVuSans-73" transform="translate(1470.654297 0)"/>
    <use xlink:href="#DejaVuSans-73" transform="translate(1522.753906 0)"/>
    <use xlink:href="#DejaVuSans-69" transform="translate(1574.853516 0)"/>
    <use xlink:href="#DejaVuSans-76" transform="translate(1602.636719 0)"/>
    <use xlink:href="#DejaVuSans-65" transform="translate(1661.816406 0)"/>
    <use xlink:href="#DejaVuSans-20" transform="translate(1723.339844 0)"/>
    <use xlink:href="#DejaVuSans-53" transform="translate(1755.126953 0)"/>
    <use xlink:href="#DejaVuSans-74" transform="translate(1818.603516 0)"/>
    <use xlink:href="#DejaVuSans-61" transform="translate(1857.8125 0)"/>
    <use xlink:href="#DejaVuSans-72" transform="translate(1919.091797 0)"/>
    <use xlink:href="#DejaVuSans-73" transform="translate(1960.205078 0)"/>
   </g>
  </g>
 </g>
 <defs>
  <clipPath id="p4a51d6e231">
   <rect x="7.2" y="71.728" width="246.024" height="246.024"/>
  </clipPath>
  <clipPath id="p343589f23c">
   <rect x="350.077636" y="71.728" width="415.022909" height="246.024"/>
  </clipPath>
 </defs>
</svg>
