<?xml version="1.0" encoding="utf-8" standalone="no"?>
<!DOCTYPE svg PUBLIC "-//W3C//DTD SVG 1.1//EN"
  "http://www.w3.org/Graphics/SVG/1.1/DTD/svg11.dtd">
<svg xmlns:xlink="http://www.w3.org/1999/xlink" width="461.907692pt" height="424.877812pt" viewBox="0 0 461.907692 424.877812" xmlns="http://www.w3.org/2000/svg" version="1.1">
 <metadata>
  <rdf:RDF xmlns:dc="http://purl.org/dc/elements/1.1/" xmlns:cc="http://creativecommons.org/ns#" xmlns:rdf="http://www.w3.org/1999/02/22-rdf-syntax-ns#">
   <cc:Work>
    <dc:type rdf:resource="http://purl.org/dc/dcmitype/StillImage"/>
    <dc:date>2026-01-02T19:17:51.102769</dc:date>
    <dc:format>image/svg+xml</dc:format>
    <dc:creator>
     <cc:Agent>
      <dc:title>Matplotlib v3.10.8, https://matplotlib.org/</dc:title>
     </cc:Agent>
    </dc:creator>
   </cc:Work>
  </rdf:RDF>
 </metadata>
 <defs>
  <style type="text/css">*{stroke-linejoin: round; stroke-linecap: butt}</style>
 </defs>
 <g id="figure_1">
  <g id="patch_1">
   <path d="M 0 424.877812 
L 461.907692 424.877812 
L 461.907692 0 
L 0 0 
z
" style="fill: #ffffff"/>
  </g>
  <g id="axes_1">
   <g id="patch_2">
    <path d="M 230.953846 116.853197 
C 238.206539 116.853197 245.163157 113.971672 250.291585 108.843243 
C 255.420013 103.714815 258.301538 96.758198 258.301538 89.505505 
C 258.301538 82.252812 255.420013 75.296194 250.291585 70.167766 
C 245.163157 65.039338 238.206539 62.157813 230.953846 62.157813 
C 223.701153 62.157813 216.744536 65.039338 211.616107 70.167766 
C 206.487679 75.296194 203.606154 82.252812 203.606154 89.505505 
C 203.606154 96.758198 206.487679 103.714815 211.616107 108.843243 
C 216.744536 113.971672 223.701153 116.853197 230.953846 116.853197 
z
" clip-path="url(#p8e1e4e7377)" style="fill: #2ecc71; opacity: 0.25; stroke: #2ecc71; stroke-width: 2.5; stroke-linejoin: miter"/>
   </g>
   <g id="patch_3">
    <path d="M 360.233846 186.465505 
C 367.486539 186.465505 374.443157 183.583979 379.571585 178.455551 
C 384.700013 173.327123 387.581538 166.370505 387.581538 159.117813 
C 387.581538 151.86512 384.700013 144.908502 379.571585 139.780074 
C 374.443157 134.651646 367.486539 131.77012 360.233846 131.77012 
C 352.981153 131.77012 346.024536 134.651646 340.896107 139.780074 
C 335.767679 144.908502 332.886154 151.86512 332.886154 159.117813 
C 332.886154 166.370505 335.767679 173.327123 340.896107 178.455551 
C 346.024536 183.583979 352.981153 186.465505 360.233846 186.465505 
z
" clip-path="url(#p8e1e4e7377)" style="fill: #e74c3c; opacity: 0.25; stroke: #e74c3c; stroke-width: 2.5; stroke-linejoin: miter"/>
   </g>
   <g id="patch_4">
    <path d="M 360.233846 315.745505 
C 367.486539 315.745505 374.443157 312.863979 379.571585 307.735551 
C 384.700013 302.607123 387.581538 295.650505 387.581538 288.397812 
C 387.581538 281.14512 384.700013 274.188502 379.571585 269.060074 
C 374.443157 263.931646 367.486539 261.05012 360.233846 261.05012 
C 352.981153 261.05012 346.024536 263.931646 340.896107 269.060074 
C 335.767679 274.188502 332.886154 281.14512 332.886154 288.397812 
C 332.886154 295.650505 335.767679 302.607123 340.896107 307.735551 
C 346.024536 312.863979 352.981153 315.745505 360.233846 315.745505 
z
" clip-path="url(#p8e1e4e7377)" style="fill: #2ecc71; opacity: 0.25; stroke: #2ecc71; stroke-width: 2.5; stroke-linejoin: miter"/>
   </g>
   <g id="patch_5">
    <path d="M 230.953846 385.357812 
C 238.206539 385.357812 245.163157 382.476287 250.291585 377.347859 
C 255.420013 372.219431 258.301538 365.262813 258.301538 358.01012 
C 258.301538 350.757427 255.420013 343.80081 250.291585 338.672382 
C 245.163157 333.543953 238.206539 330.662428 230.953846 330.662428 
C 223.701153 330.662428 216.744536 333.543953 211.616107 338.672382 
C 206.487679 343.80081 203.606154 350.757427 203.606154 358.01012 
C 203.606154 365.262813 206.487679 372.219431 211.616107 377.347859 
C 216.744536 382.476287 223.701153 385.357812 230.953846 385.357812 
z
" clip-path="url(#p8e1e4e7377)" style="fill: #2ecc71; opacity: 0.25; stroke: #2ecc71; stroke-width: 2.5; stroke-linejoin: miter"/>
   </g>
   <g id="patch_6">
    <path d="M 101.673846 315.745505 
C 108.926539 315.745505 115.883157 312.863979 121.011585 307.735551 
C 126.140013 302.607123 129.021538 295.650505 129.021538 288.397812 
C 129.021538 281.14512 126.140013 274.188502 121.011585 269.060074 
C 115.883157 263.931646 108.926539 261.05012 101.673846 261.05012 
C 94.421153 261.05012 87.464536 263.931646 82.336107 269.060074 
C 77.207679 274.188502 74.326154 281.14512 74.326154 288.397812 
C 74.326154 295.650505 77.207679 302.607123 82.336107 307.735551 
C 87.464536 312.863979 94.421153 315.745505 101.673846 315.745505 
z
" clip-path="url(#p8e1e4e7377)" style="fill: #e74c3c; opacity: 0.25; stroke: #e74c3c; stroke-width: 2.5; stroke-linejoin: miter"/>
   </g>
   <g id="patch_7">
    <path d="M 101.673846 186.465505 
C 108.926539 186.465505 115.883157 183.583979 121.011585 178.455551 
C 126.140013 173.327123 129.021538 166.370505 129.021538 159.117813 
C 129.021538 151.86512 126.140013 144.908502 121.011585 139.780074 
C 115.883157 134.651646 108.926539 131.77012 101.673846 131.77012 
C 94.421153 131.77012 87.464536 134.651646 82.336107 139.780074 
C 77.207679 144.908502 74.326154 151.86512 74.326154 159.117813 
C 74.326154 166.370505 77.207679 173.327123 82.336107 178.455551 
C 87.464536 183.583979 94.421153 186.465505 101.673846 186.465505 
z
" clip-path="url(#p8e1e4e7377)" style="fill: #2ecc71; opacity: 0.25; stroke: #2ecc71; stroke-width: 2.5; stroke-linejoin: miter"/>
   </g>
   <g id="text_1">
    <!-- ¹²C -->
    <g style="fill: #2c3e50" transform="translate(221.294784 92.816755) scale(0.12 -0.12)">
     <defs>
      <path id="DejaVuSans-Bold-b9" d="M 441 2578 
L 1088 2578 
L 1088 4206 
L 384 4044 
L 384 4544 
L 1100 4697 
L 1806 4697 
L 1806 2578 
L 2444 2578 
L 2444 2088 
L 441 2088 
L 441 2578 
z
" transform="scale(0.015625)"/>
      <path id="DejaVuSans-Bold-b2" d="M 1288 2613 
L 2444 2613 
L 2444 2088 
L 341 2088 
L 341 2566 
L 1319 3397 
Q 1509 3563 1590 3688 
Q 1672 3813 1672 3938 
Q 1672 4094 1558 4191 
Q 1444 4288 1259 4288 
Q 1066 4288 844 4217 
Q 622 4147 359 4000 
L 359 4581 
Q 631 4666 886 4708 
Q 1141 4750 1375 4750 
Q 1869 4750 2150 4548 
Q 2431 4347 2431 4000 
Q 2431 3775 2320 3586 
Q 2209 3397 1894 3128 
L 1288 2613 
z
" transform="scale(0.015625)"/>
      <path id="DejaVuSans-Bold-43" d="M 4288 256 
Q 3956 84 3597 -3 
Q 3238 -91 2847 -91 
Q 1681 -91 1000 561 
Q 319 1213 319 2328 
Q 319 3447 1000 4098 
Q 1681 4750 2847 4750 
Q 3238 4750 3597 4662 
Q 3956 4575 4288 4403 
L 4288 3438 
Q 3953 3666 3628 3772 
Q 3303 3878 2944 3878 
Q 2300 3878 1931 3465 
Q 1563 3053 1563 2328 
Q 1563 1606 1931 1193 
Q 2300 781 2944 781 
Q 3303 781 3628 887 
Q 3953 994 4288 1222 
L 4288 256 
z
" transform="scale(0.015625)"/>
     </defs>
     <use xlink:href="#DejaVuSans-Bold-b9"/>
     <use xlink:href="#DejaVuSans-Bold-b2" transform="translate(43.798828 0)"/>
     <use xlink:href="#DejaVuSans-Bold-43" transform="translate(87.597656 0)"/>
    </g>
   </g>
   <g id="text_2">
    <!-- ¹³N -->
    <g style="fill: #2c3e50" transform="translate(349.956971 162.429062) scale(0.12 -0.12)">
     <defs>
      <path id="DejaVuSans-Bold-b3" d="M 1850 3500 
Q 2138 3444 2297 3272 
Q 2456 3100 2456 2847 
Q 2456 2444 2147 2242 
Q 1838 2041 1209 2041 
Q 956 2041 725 2077 
Q 494 2113 281 2181 
L 281 2725 
Q 488 2613 688 2555 
Q 888 2497 1075 2497 
Q 1372 2497 1534 2597 
Q 1697 2697 1697 2881 
Q 1697 3081 1530 3176 
Q 1363 3272 1006 3272 
L 775 3272 
L 775 3700 
L 1038 3700 
Q 1344 3700 1484 3773 
Q 1625 3847 1625 4006 
Q 1625 4147 1503 4217 
Q 1381 4288 1131 4288 
Q 969 4288 776 4247 
Q 584 4206 366 4122 
L 366 4641 
Q 569 4694 805 4722 
Q 1041 4750 1313 4750 
Q 1834 4750 2111 4575 
Q 2388 4400 2388 4072 
Q 2388 3856 2247 3706 
Q 2106 3556 1850 3500 
z
" transform="scale(0.015625)"/>
      <path id="DejaVuSans-Bold-4e" d="M 588 4666 
L 1931 4666 
L 3628 1466 
L 3628 4666 
L 4769 4666 
L 4769 0 
L 3425 0 
L 1728 3200 
L 1728 0 
L 588 0 
L 588 4666 
z
" transform="scale(0.015625)"/>
     </defs>
     <use xlink:href="#DejaVuSans-Bold-b9"/>
     <use xlink:href="#DejaVuSans-Bold-b3" transform="translate(43.798828 0)"/>
     <use xlink:href="#DejaVuSans-Bold-4e" transform="translate(87.597656 0)"/>
    </g>
   </g>
   <g id="text_3">
    <!-- ¹³C -->
    <g style="fill: #2c3e50" transform="translate(350.574784 291.709062) scale(0.12 -0.12)">
     <use xlink:href="#DejaVuSans-Bold-b9"/>
     <use xlink:href="#DejaVuSans-Bold-b3" transform="translate(43.798828 0)"/>
     <use xlink:href="#DejaVuSans-Bold-43" transform="translate(87.597656 0)"/>
    </g>
   </g>
   <g id="text_4">
    <!-- ¹⁴N -->
    <g style="fill: #2c3e50" transform="translate(220.676971 361.32137) scale(0.12 -0.12)">
     <defs>
      <path id="DejaVuSans-Bold-2074" d="M 1397 4088 
L 650 3078 
L 1397 3078 
L 1397 4088 
z
M 1341 4697 
L 2116 4697 
L 2116 3078 
L 2544 3078 
L 2544 2594 
L 2116 2594 
L 2116 2088 
L 1397 2088 
L 1397 2594 
L 175 2594 
L 175 3119 
L 1341 4697 
z
" transform="scale(0.015625)"/>
     </defs>
     <use xlink:href="#DejaVuSans-Bold-b9"/>
     <use xlink:href="#DejaVuSans-Bold-2074" transform="translate(43.798828 0)"/>
     <use xlink:href="#DejaVuSans-Bold-4e" transform="translate(87.597656 0)"/>
    </g>
   </g>
   <g id="text_5">
    <!-- ¹⁵O -->
    <g style="fill: #2c3e50" transform="translate(91.317284 291.709062) scale(0.12 -0.12)">
     <defs>
      <path id="DejaVuSans-Bold-2075" d="M 416 4697 
L 2253 4697 
L 2253 4203 
L 1006 4203 
L 1006 3803 
Q 1091 3822 1175 3834 
Q 1259 3847 1353 3847 
Q 1875 3847 2169 3606 
Q 2459 3369 2459 2941 
Q 2459 2513 2144 2278 
Q 1825 2041 1259 2041 
Q 1016 2041 778 2081 
Q 541 2125 303 2213 
L 303 2744 
Q 538 2619 747 2559 
Q 956 2497 1144 2497 
Q 1406 2497 1566 2619 
Q 1722 2738 1722 2941 
Q 1722 3147 1566 3266 
Q 1413 3384 1144 3384 
Q 984 3384 803 3347 
Q 625 3309 416 3231 
L 416 4697 
z
" transform="scale(0.015625)"/>
      <path id="DejaVuSans-Bold-4f" d="M 2719 3878 
Q 2169 3878 1866 3472 
Q 1563 3066 1563 2328 
Q 1563 1594 1866 1187 
Q 2169 781 2719 781 
Q 3272 781 3575 1187 
Q 3878 1594 3878 2328 
Q 3878 3066 3575 3472 
Q 3272 3878 2719 3878 
z
M 2719 4750 
Q 3844 4750 4481 4106 
Q 5119 3463 5119 2328 
Q 5119 1197 4481 553 
Q 3844 -91 2719 -91 
Q 1597 -91 958 553 
Q 319 1197 319 2328 
Q 319 3463 958 4106 
Q 1597 4750 2719 4750 
z
" transform="scale(0.015625)"/>
     </defs>
     <use xlink:href="#DejaVuSans-Bold-b9"/>
     <use xlink:href="#DejaVuSans-Bold-2075" transform="translate(43.798828 0)"/>
     <use xlink:href="#DejaVuSans-Bold-4f" transform="translate(87.597656 0)"/>
    </g>
   </g>
   <g id="text_6">
    <!-- ¹⁵N -->
    <g style="fill: #2c3e50" transform="translate(91.396971 162.429062) scale(0.12 -0.12)">
     <use xlink:href="#DejaVuSans-Bold-b9"/>
     <use xlink:href="#DejaVuSans-Bold-2075" transform="translate(43.798828 0)"/>
     <use xlink:href="#DejaVuSans-Bold-4e" transform="translate(87.597656 0)"/>
    </g>
   </g>
   <g id="patch_8">
    <path d="M 246.802166 98.039216 
Q 295.592535 124.310953 341.921913 149.257541 
" style="fill: none; stroke: #f39c12; stroke-width: 2.5; stroke-linecap: round"/>
    <path d="M 339.348228 145.600199 
L 341.921913 149.257541 
L 337.451829 149.122084 
" style="fill: none; stroke: #f39c12; stroke-width: 2.5; stroke-linecap: round"/>
   </g>
   <g id="text_7">
    <!-- +p, γ -->
    <g style="fill: #95a5a6" transform="translate(284.792596 106.908582) scale(0.08 -0.08)">
     <defs>
      <path id="DejaVuSans-2b" d="M 2944 4013 
L 2944 2272 
L 4684 2272 
L 4684 1741 
L 2944 1741 
L 2944 0 
L 2419 0 
L 2419 1741 
L 678 1741 
L 678 2272 
L 2419 2272 
L 2419 4013 
L 2944 4013 
z
" transform="scale(0.015625)"/>
      <path id="DejaVuSans-70" d="M 1159 525 
L 1159 -1331 
L 581 -1331 
L 581 3500 
L 1159 3500 
L 1159 2969 
Q 1341 3281 1617 3432 
Q 1894 3584 2278 3584 
Q 2916 3584 3314 3078 
Q 3713 2572 3713 1747 
Q 3713 922 3314 415 
Q 2916 -91 2278 -91 
Q 1894 -91 1617 61 
Q 1341 213 1159 525 
z
M 3116 1747 
Q 3116 2381 2855 2742 
Q 2594 3103 2138 3103 
Q 1681 3103 1420 2742 
Q 1159 2381 1159 1747 
Q 1159 1113 1420 752 
Q 1681 391 2138 391 
Q 2594 391 2855 752 
Q 3116 1113 3116 1747 
z
" transform="scale(0.015625)"/>
      <path id="DejaVuSans-2c" d="M 750 794 
L 1409 794 
L 1409 256 
L 897 -744 
L 494 -744 
L 750 256 
L 750 794 
z
" transform="scale(0.015625)"/>
      <path id="DejaVuSans-20" transform="scale(0.015625)"/>
      <path id="DejaVuSans-3b3" d="M 1128 2950 
L 1894 788 
L 2988 3500 
L 3597 3500 
L 2181 0 
L 2181 -1331 
L 1606 -1331 
L 1606 0 
L 688 2613 
Q 550 3006 253 3006 
L 100 3006 
L 100 3500 
L 319 3500 
Q 934 3500 1128 2950 
z
" transform="scale(0.015625)"/>
     </defs>
     <use xlink:href="#DejaVuSans-2b"/>
     <use xlink:href="#DejaVuSans-70" transform="translate(83.789062 0)"/>
     <use xlink:href="#DejaVuSans-2c" transform="translate(147.265625 0)"/>
     <use xlink:href="#DejaVuSans-20" transform="translate(179.052734 0)"/>
     <use xlink:href="#DejaVuSans-3b3" transform="translate(210.839844 0)"/>
    </g>
   </g>
   <g id="patch_9">
    <path d="M 360.233846 177.120273 
Q 360.233846 223.758154 360.233846 267.60095 
" style="fill: none; stroke: #f39c12; stroke-width: 2.5; stroke-linecap: round"/>
    <path d="M 362.233846 263.60095 
L 360.233846 267.60095 
L 358.233846 263.60095 
" style="fill: none; stroke: #f39c12; stroke-width: 2.5; stroke-linecap: round"/>
   </g>
   <g id="text_8">
    <!-- β⁺, ν -->
    <g style="fill: #95a5a6" transform="translate(350.793221 206.354736) scale(0.08 -0.08)">
     <defs>
      <path id="DejaVuSans-3b2" d="M 1178 216 
L 1178 -1331 
L 600 -1331 
L 600 3478 
Q 600 4903 1931 4903 
Q 3288 4903 3288 3700 
Q 3288 2844 2750 2531 
Q 3625 2250 3625 1416 
Q 3625 -66 2119 -66 
Q 1456 -66 1178 216 
z
M 1178 966 
Q 1525 425 2141 425 
Q 3041 425 3041 1406 
Q 3041 2288 1591 2219 
L 1591 2750 
Q 2725 2750 2725 3750 
Q 2725 4434 1994 4434 
Q 1178 4434 1178 3459 
L 1178 966 
z
" transform="scale(0.015625)"/>
      <path id="DejaVuSans-207a" d="M 1853 4334 
L 1853 3359 
L 2950 3359 
L 2950 3063 
L 1853 3063 
L 1853 2088 
L 1525 2088 
L 1525 3063 
L 428 3063 
L 428 3359 
L 1525 3359 
L 1525 4334 
L 1853 4334 
z
" transform="scale(0.015625)"/>
      <path id="DejaVuSans-3bd" d="M 1300 0 
L 231 3500 
L 850 3500 
L 1753 563 
Q 2128 950 2441 1488 
Q 2678 1891 2691 2241 
Q 2697 2406 2622 2719 
Q 2534 3091 2203 3500 
L 2784 3500 
L 2784 3500 
Q 3000 3222 3144 2834 
Q 3275 2478 3275 2234 
Q 3275 1622 2850 1075 
Q 2297 363 1913 0 
L 1300 0 
z
" transform="scale(0.015625)"/>
     </defs>
     <use xlink:href="#DejaVuSans-3b2"/>
     <use xlink:href="#DejaVuSans-207a" transform="translate(63.818359 0)"/>
     <use xlink:href="#DejaVuSans-2c" transform="translate(116.601562 0)"/>
     <use xlink:href="#DejaVuSans-20" transform="translate(148.388672 0)"/>
     <use xlink:href="#DejaVuSans-3bd" transform="translate(180.175781 0)"/>
    </g>
   </g>
   <g id="patch_10">
    <path d="M 344.385526 296.931523 
Q 295.595157 323.203261 249.26578 348.149848 
" style="fill: none; stroke: #f39c12; stroke-width: 2.5; stroke-linecap: round"/>
    <path d="M 253.735864 348.014391 
L 249.26578 348.149848 
L 251.839464 344.492507 
" style="fill: none; stroke: #f39c12; stroke-width: 2.5; stroke-linecap: round"/>
   </g>
   <g id="text_9">
    <!-- +p, γ -->
    <g style="fill: #95a5a6" transform="translate(284.792596 305.800889) scale(0.08 -0.08)">
     <use xlink:href="#DejaVuSans-2b"/>
     <use xlink:href="#DejaVuSans-70" transform="translate(83.789062 0)"/>
     <use xlink:href="#DejaVuSans-2c" transform="translate(147.265625 0)"/>
     <use xlink:href="#DejaVuSans-20" transform="translate(179.052734 0)"/>
     <use xlink:href="#DejaVuSans-3b3" transform="translate(210.839844 0)"/>
    </g>
   </g>
   <g id="patch_11">
    <path d="M 215.105526 349.476409 
Q 166.315157 323.204672 119.98578 298.258084 
" style="fill: none; stroke: #f39c12; stroke-width: 2.5; stroke-linecap: round"/>
    <path d="M 122.559464 301.915426 
L 119.98578 298.258084 
L 124.455864 298.393541 
" style="fill: none; stroke: #f39c12; stroke-width: 2.5; stroke-linecap: round"/>
   </g>
   <g id="text_10">
    <!-- +p, γ -->
    <g style="fill: #95a5a6" transform="translate(155.512596 305.800889) scale(0.08 -0.08)">
     <use xlink:href="#DejaVuSans-2b"/>
     <use xlink:href="#DejaVuSans-70" transform="translate(83.789062 0)"/>
     <use xlink:href="#DejaVuSans-2c" transform="translate(147.265625 0)"/>
     <use xlink:href="#DejaVuSans-20" transform="translate(179.052734 0)"/>
     <use xlink:href="#DejaVuSans-3b3" transform="translate(210.839844 0)"/>
    </g>
   </g>
   <g id="patch_12">
    <path d="M 101.673846 270.395352 
Q 101.673846 223.757471 101.673846 179.914675 
" style="fill: none; stroke: #f39c12; stroke-width: 2.5; stroke-linecap: round"/>
    <path d="M 99.673846 183.914675 
L 101.673846 179.914675 
L 103.673846 183.914675 
" style="fill: none; stroke: #f39c12; stroke-width: 2.5; stroke-linecap: round"/>
   </g>
   <g id="text_11">
    <!-- β⁺, ν -->
    <g style="fill: #95a5a6" transform="translate(92.233221 206.354736) scale(0.08 -0.08)">
     <use xlink:href="#DejaVuSans-3b2"/>
     <use xlink:href="#DejaVuSans-207a" transform="translate(63.818359 0)"/>
     <use xlink:href="#DejaVuSans-2c" transform="translate(116.601562 0)"/>
     <use xlink:href="#DejaVuSans-20" transform="translate(148.388672 0)"/>
     <use xlink:href="#DejaVuSans-3bd" transform="translate(180.175781 0)"/>
    </g>
   </g>
   <g id="patch_13">
    <path d="M 117.522166 150.584102 
Q 166.312535 124.312364 212.641913 99.365777 
" style="fill: none; stroke: #f39c12; stroke-width: 2.5; stroke-linecap: round"/>
    <path d="M 208.171829 99.501234 
L 212.641913 99.365777 
L 210.068228 103.023118 
" style="fill: none; stroke: #f39c12; stroke-width: 2.5; stroke-linecap: round"/>
   </g>
   <g id="text_12">
    <!-- +p, α -->
    <g style="fill: #95a5a6" transform="translate(155.243221 106.908582) scale(0.08 -0.08)">
     <defs>
      <path id="DejaVuSans-3b1" d="M 2644 1628 
L 2506 2350 
Q 2366 3091 1809 3091 
Q 1391 3091 1200 2747 
Q 959 2316 959 1747 
Q 959 1059 1194 731 
Q 1431 397 1809 397 
Q 2228 397 2453 1063 
L 2644 1628 
z
M 2966 2584 
L 3275 3500 
L 3788 3500 
L 3147 1603 
L 3272 919 
Q 3300 766 3409 638 
Q 3538 488 3638 488 
L 3913 488 
L 3913 0 
L 3569 0 
Q 3275 0 3013 263 
Q 2884 394 2831 669 
Q 2688 322 2394 50 
Q 2256 -78 1809 -78 
Q 1075 -78 719 397 
Q 353 888 353 1747 
Q 353 2666 750 3097 
Q 1191 3578 1809 3578 
Q 2781 3578 2966 2584 
z
" transform="scale(0.015625)"/>
     </defs>
     <use xlink:href="#DejaVuSans-2b"/>
     <use xlink:href="#DejaVuSans-70" transform="translate(83.789062 0)"/>
     <use xlink:href="#DejaVuSans-2c" transform="translate(147.265625 0)"/>
     <use xlink:href="#DejaVuSans-20" transform="translate(179.052734 0)"/>
     <use xlink:href="#DejaVuSans-3b1" transform="translate(210.839844 0)"/>
    </g>
   </g>
   <g id="text_13">
    <!-- Net: 4p → ⁴He + 2e⁺ + 2νₑ  (carbon recycled) -->
    <g style="fill: #95a5a6" transform="translate(117.589002 405.247043) scale(0.1 -0.1)">
     <defs>
      <path id="DejaVuSans-4e" d="M 628 4666 
L 1478 4666 
L 3547 763 
L 3547 4666 
L 4159 4666 
L 4159 0 
L 3309 0 
L 1241 3903 
L 1241 0 
L 628 0 
L 628 4666 
z
" transform="scale(0.015625)"/>
      <path id="DejaVuSans-65" d="M 3597 1894 
L 3597 1613 
L 953 1613 
Q 991 1019 1311 708 
Q 1631 397 2203 397 
Q 2534 397 2845 478 
Q 3156 559 3463 722 
L 3463 178 
Q 3153 47 2828 -22 
Q 2503 -91 2169 -91 
Q 1331 -91 842 396 
Q 353 884 353 1716 
Q 353 2575 817 3079 
Q 1281 3584 2069 3584 
Q 2775 3584 3186 3129 
Q 3597 2675 3597 1894 
z
M 3022 2063 
Q 3016 2534 2758 2815 
Q 2500 3097 2075 3097 
Q 1594 3097 1305 2825 
Q 1016 2553 972 2059 
L 3022 2063 
z
" transform="scale(0.015625)"/>
      <path id="DejaVuSans-74" d="M 1172 4494 
L 1172 3500 
L 2356 3500 
L 2356 3053 
L 1172 3053 
L 1172 1153 
Q 1172 725 1289 603 
Q 1406 481 1766 481 
L 2356 481 
L 2356 0 
L 1766 0 
Q 1100 0 847 248 
Q 594 497 594 1153 
L 594 3053 
L 172 3053 
L 172 3500 
L 594 3500 
L 594 4494 
L 1172 4494 
z
" transform="scale(0.015625)"/>
      <path id="DejaVuSans-3a" d="M 750 794 
L 1409 794 
L 1409 0 
L 750 0 
L 750 794 
z
M 750 3309 
L 1409 3309 
L 1409 2516 
L 750 2516 
L 750 3309 
z
" transform="scale(0.015625)"/>
      <path id="DejaVuSans-34" d="M 2419 4116 
L 825 1625 
L 2419 1625 
L 2419 4116 
z
M 2253 4666 
L 3047 4666 
L 3047 1625 
L 3713 1625 
L 3713 1100 
L 3047 1100 
L 3047 0 
L 2419 0 
L 2419 1100 
L 313 1100 
L 313 1709 
L 2253 4666 
z
" transform="scale(0.015625)"/>
      <path id="DejaVuSans-2192" d="M 5050 2147 
L 5050 1866 
L 3822 638 
L 3447 1013 
L 4175 1741 
L 366 1741 
L 366 2272 
L 4175 2272 
L 3447 3000 
L 3822 3375 
L 5050 2147 
z
" transform="scale(0.015625)"/>
      <path id="DejaVuSans-2074" d="M 1491 4319 
L 525 3009 
L 1491 3009 
L 1491 4319 
z
M 1422 4697 
L 1941 4697 
L 1941 3009 
L 2363 3009 
L 2363 2669 
L 1941 2669 
L 1941 2088 
L 1491 2088 
L 1491 2669 
L 197 2669 
L 197 3047 
L 1422 4697 
z
" transform="scale(0.015625)"/>
      <path id="DejaVuSans-48" d="M 628 4666 
L 1259 4666 
L 1259 2753 
L 3553 2753 
L 3553 4666 
L 4184 4666 
L 4184 0 
L 3553 0 
L 3553 2222 
L 1259 2222 
L 1259 0 
L 628 0 
L 628 4666 
z
" transform="scale(0.015625)"/>
      <path id="DejaVuSans-32" d="M 1228 531 
L 3431 531 
L 3431 0 
L 469 0 
L 469 531 
Q 828 903 1448 1529 
Q 2069 2156 2228 2338 
Q 2531 2678 2651 2914 
Q 2772 3150 2772 3378 
Q 2772 3750 2511 3984 
Q 2250 4219 1831 4219 
Q 1534 4219 1204 4116 
Q 875 4013 500 3803 
L 500 4441 
Q 881 4594 1212 4672 
Q 1544 4750 1819 4750 
Q 2544 4750 2975 4387 
Q 3406 4025 3406 3419 
Q 3406 3131 3298 2873 
Q 3191 2616 2906 2266 
Q 2828 2175 2409 1742 
Q 1991 1309 1228 531 
z
" transform="scale(0.015625)"/>
      <path id="DejaVuSans-2091" d="M 2266 1035 
L 2266 879 
L 600 879 
Q 625 547 825 372 
Q 1028 197 1388 197 
Q 1597 197 1794 244 
Q 1988 288 2181 379 
L 2181 76 
Q 1988 1 1781 -37 
Q 1578 -74 1366 -74 
Q 838 -74 531 197 
Q 222 469 222 935 
Q 222 1416 516 1701 
Q 806 1982 1303 1982 
Q 1747 1982 2006 1729 
Q 2266 1472 2266 1035 
z
M 1903 1132 
Q 1900 1394 1738 1554 
Q 1575 1710 1306 1710 
Q 1003 1710 822 1557 
Q 641 1407 613 1132 
L 1903 1132 
z
" transform="scale(0.015625)"/>
      <path id="DejaVuSans-28" d="M 1984 4856 
Q 1566 4138 1362 3434 
Q 1159 2731 1159 2009 
Q 1159 1288 1364 580 
Q 1569 -128 1984 -844 
L 1484 -844 
Q 1016 -109 783 600 
Q 550 1309 550 2009 
Q 550 2706 781 3412 
Q 1013 4119 1484 4856 
L 1984 4856 
z
" transform="scale(0.015625)"/>
      <path id="DejaVuSans-63" d="M 3122 3366 
L 3122 2828 
Q 2878 2963 2633 3030 
Q 2388 3097 2138 3097 
Q 1578 3097 1268 2742 
Q 959 2388 959 1747 
Q 959 1106 1268 751 
Q 1578 397 2138 397 
Q 2388 397 2633 464 
Q 2878 531 3122 666 
L 3122 134 
Q 2881 22 2623 -34 
Q 2366 -91 2075 -91 
Q 1284 -91 818 406 
Q 353 903 353 1747 
Q 353 2603 823 3093 
Q 1294 3584 2113 3584 
Q 2378 3584 2631 3529 
Q 2884 3475 3122 3366 
z
" transform="scale(0.015625)"/>
      <path id="DejaVuSans-61" d="M 2194 1759 
Q 1497 1759 1228 1600 
Q 959 1441 959 1056 
Q 959 750 1161 570 
Q 1363 391 1709 391 
Q 2188 391 2477 730 
Q 2766 1069 2766 1631 
L 2766 1759 
L 2194 1759 
z
M 3341 1997 
L 3341 0 
L 2766 0 
L 2766 531 
Q 2569 213 2275 61 
Q 1981 -91 1556 -91 
Q 1019 -91 701 211 
Q 384 513 384 1019 
Q 384 1609 779 1909 
Q 1175 2209 1959 2209 
L 2766 2209 
L 2766 2266 
Q 2766 2663 2505 2880 
Q 2244 3097 1772 3097 
Q 1472 3097 1187 3025 
Q 903 2953 641 2809 
L 641 3341 
Q 956 3463 1253 3523 
Q 1550 3584 1831 3584 
Q 2591 3584 2966 3190 
Q 3341 2797 3341 1997 
z
" transform="scale(0.015625)"/>
      <path id="DejaVuSans-72" d="M 2631 2963 
Q 2534 3019 2420 3045 
Q 2306 3072 2169 3072 
Q 1681 3072 1420 2755 
Q 1159 2438 1159 1844 
L 1159 0 
L 581 0 
L 581 3500 
L 1159 3500 
L 1159 2956 
Q 1341 3275 1631 3429 
Q 1922 3584 2338 3584 
Q 2397 3584 2469 3576 
Q 2541 3569 2628 3553 
L 2631 2963 
z
" transform="scale(0.015625)"/>
      <path id="DejaVuSans-62" d="M 3116 1747 
Q 3116 2381 2855 2742 
Q 2594 3103 2138 3103 
Q 1681 3103 1420 2742 
Q 1159 2381 1159 1747 
Q 1159 1113 1420 752 
Q 1681 391 2138 391 
Q 2594 391 2855 752 
Q 3116 1113 3116 1747 
z
M 1159 2969 
Q 1341 3281 1617 3432 
Q 1894 3584 2278 3584 
Q 2916 3584 3314 3078 
Q 3713 2572 3713 1747 
Q 3713 922 3314 415 
Q 2916 -91 2278 -91 
Q 1894 -91 1617 61 
Q 1341 213 1159 525 
L 1159 0 
L 581 0 
L 581 4863 
L 1159 4863 
L 1159 2969 
z
" transform="scale(0.015625)"/>
      <path id="DejaVuSans-6f" d="M 1959 3097 
Q 1497 3097 1228 2736 
Q 959 2375 959 1747 
Q 959 1119 1226 758 
Q 1494 397 1959 397 
Q 2419 397 2687 759 
Q 2956 1122 2956 1747 
Q 2956 2369 2687 2733 
Q 2419 3097 1959 3097 
z
M 1959 3584 
Q 2709 3584 3137 3096 
Q 3566 2609 3566 1747 
Q 3566 888 3137 398 
Q 2709 -91 1959 -91 
Q 1206 -91 779 398 
Q 353 888 353 1747 
Q 353 2609 779 3096 
Q 1206 3584 1959 3584 
z
" transform="scale(0.015625)"/>
      <path id="DejaVuSans-6e" d="M 3513 2113 
L 3513 0 
L 2938 0 
L 2938 2094 
Q 2938 2591 2744 2837 
Q 2550 3084 2163 3084 
Q 1697 3084 1428 2787 
Q 1159 2491 1159 1978 
L 1159 0 
L 581 0 
L 581 3500 
L 1159 3500 
L 1159 2956 
Q 1366 3272 1645 3428 
Q 1925 3584 2291 3584 
Q 2894 3584 3203 3211 
Q 3513 2838 3513 2113 
z
" transform="scale(0.015625)"/>
      <path id="DejaVuSans-79" d="M 2059 -325 
Q 1816 -950 1584 -1140 
Q 1353 -1331 966 -1331 
L 506 -1331 
L 506 -850 
L 844 -850 
Q 1081 -850 1212 -737 
Q 1344 -625 1503 -206 
L 1606 56 
L 191 3500 
L 800 3500 
L 1894 763 
L 2988 3500 
L 3597 3500 
L 2059 -325 
z
" transform="scale(0.015625)"/>
      <path id="DejaVuSans-6c" d="M 603 4863 
L 1178 4863 
L 1178 0 
L 603 0 
L 603 4863 
z
" transform="scale(0.015625)"/>
      <path id="DejaVuSans-64" d="M 2906 2969 
L 2906 4863 
L 3481 4863 
L 3481 0 
L 2906 0 
L 2906 525 
Q 2725 213 2448 61 
Q 2172 -91 1784 -91 
Q 1150 -91 751 415 
Q 353 922 353 1747 
Q 353 2572 751 3078 
Q 1150 3584 1784 3584 
Q 2172 3584 2448 3432 
Q 2725 3281 2906 2969 
z
M 947 1747 
Q 947 1113 1208 752 
Q 1469 391 1925 391 
Q 2381 391 2643 752 
Q 2906 1113 2906 1747 
Q 2906 2381 2643 2742 
Q 2381 3103 1925 3103 
Q 1469 3103 1208 2742 
Q 947 2381 947 1747 
z
" transform="scale(0.015625)"/>
      <path id="DejaVuSans-29" d="M 513 4856 
L 1013 4856 
Q 1481 4119 1714 3412 
Q 1947 2706 1947 2009 
Q 1947 1309 1714 600 
Q 1481 -109 1013 -844 
L 513 -844 
Q 928 -128 1133 580 
Q 1338 1288 1338 2009 
Q 1338 2731 1133 3434 
Q 928 4138 513 4856 
z
" transform="scale(0.015625)"/>
     </defs>
     <use xlink:href="#DejaVuSans-4e"/>
     <use xlink:href="#DejaVuSans-65" transform="translate(74.804688 0)"/>
     <use xlink:href="#DejaVuSans-74" transform="translate(136.328125 0)"/>
     <use xlink:href="#DejaVuSans-3a" transform="translate(175.537109 0)"/>
     <use xlink:href="#DejaVuSans-20" transform="translate(209.228516 0)"/>
     <use xlink:href="#DejaVuSans-34" transform="translate(241.015625 0)"/>
     <use xlink:href="#DejaVuSans-70" transform="translate(304.638672 0)"/>
     <use xlink:href="#DejaVuSans-20" transform="translate(368.115234 0)"/>
     <use xlink:href="#DejaVuSans-2192" transform="translate(399.902344 0)"/>
     <use xlink:href="#DejaVuSans-20" transform="translate(483.691406 0)"/>
     <use xlink:href="#DejaVuSans-2074" transform="translate(515.478516 0)"/>
     <use xlink:href="#DejaVuSans-48" transform="translate(555.566406 0)"/>
     <use xlink:href="#DejaVuSans-65" transform="translate(630.761719 0)"/>
     <use xlink:href="#DejaVuSans-20" transform="translate(692.285156 0)"/>
     <use xlink:href="#DejaVuSans-2b" transform="translate(724.072266 0)"/>
     <use xlink:href="#DejaVuSans-20" transform="translate(807.861328 0)"/>
     <use xlink:href="#DejaVuSans-32" transform="translate(839.648438 0)"/>
     <use xlink:href="#DejaVuSans-65" transform="translate(903.271484 0)"/>
     <use xlink:href="#DejaVuSans-207a" transform="translate(964.794922 0)"/>
     <use xlink:href="#DejaVuSans-20" transform="translate(1017.578125 0)"/>
     <use xlink:href="#DejaVuSans-2b" transform="translate(1049.365234 0)"/>
     <use xlink:href="#DejaVuSans-20" transform="translate(1133.154297 0)"/>
     <use xlink:href="#DejaVuSans-32" transform="translate(1164.941406 0)"/>
     <use xlink:href="#DejaVuSans-3bd" transform="translate(1228.564453 0)"/>
     <use xlink:href="#DejaVuSans-2091" transform="translate(1284.423828 0)"/>
     <use xlink:href="#DejaVuSans-20" transform="translate(1326.123047 0)"/>
     <use xlink:href="#DejaVuSans-20" transform="translate(1357.910156 0)"/>
     <use xlink:href="#DejaVuSans-28" transform="translate(1389.697266 0)"/>
     <use xlink:href="#DejaVuSans-63" transform="translate(1428.710938 0)"/>
     <use xlink:href="#DejaVuSans-61" transform="translate(1483.691406 0)"/>
     <use xlink:href="#DejaVuSans-72" transform="translate(1544.970703 0)"/>
     <use xlink:href="#DejaVuSans-62" transform="translate(1586.083984 0)"/>
     <use xlink:href="#DejaVuSans-6f" transform="translate(1649.560547 0)"/>
     <use xlink:href="#DejaVuSans-6e" transform="translate(1710.742188 0)"/>
     <use xlink:href="#DejaVuSans-20" transform="translate(1774.121094 0)"/>
     <use xlink:href="#DejaVuSans-72" transform="translate(1805.908203 0)"/>
     <use xlink:href="#DejaVuSans-65" transform="translate(1844.771484 0)"/>
     <use xlink:href="#DejaVuSans-63" transform="translate(1906.294922 0)"/>
     <use xlink:href="#DejaVuSans-79" transform="translate(1961.275391 0)"/>
     <use xlink:href="#DejaVuSans-63" transform="translate(2020.455078 0)"/>
     <use xlink:href="#DejaVuSans-6c" transform="translate(2075.435547 0)"/>
     <use xlink:href="#DejaVuSans-65" transform="translate(2103.21875 0)"/>
     <use xlink:href="#DejaVuSans-64" transform="translate(2164.742188 0)"/>
     <use xlink:href="#DejaVuSans-29" transform="translate(2228.21875 0)"/>
    </g>
   </g>
   <g id="text_14">
    <!-- CNO Cycle (schematic) -->
    <g transform="translate(150.390409 17.837812) scale(0.14 -0.14)">
     <defs>
      <path id="DejaVuSans-43" d="M 4122 4306 
L 4122 3641 
Q 3803 3938 3442 4084 
Q 3081 4231 2675 4231 
Q 1875 4231 1450 3742 
Q 1025 3253 1025 2328 
Q 1025 1406 1450 917 
Q 1875 428 2675 428 
Q 3081 428 3442 575 
Q 3803 722 4122 1019 
L 4122 359 
Q 3791 134 3420 21 
Q 3050 -91 2638 -91 
Q 1578 -91 968 557 
Q 359 1206 359 2328 
Q 359 3453 968 4101 
Q 1578 4750 2638 4750 
Q 3056 4750 3426 4639 
Q 3797 4528 4122 4306 
z
" transform="scale(0.015625)"/>
      <path id="DejaVuSans-4f" d="M 2522 4238 
Q 1834 4238 1429 3725 
Q 1025 3213 1025 2328 
Q 1025 1447 1429 934 
Q 1834 422 2522 422 
Q 3209 422 3611 934 
Q 4013 1447 4013 2328 
Q 4013 3213 3611 3725 
Q 3209 4238 2522 4238 
z
M 2522 4750 
Q 3503 4750 4090 4092 
Q 4678 3434 4678 2328 
Q 4678 1225 4090 567 
Q 3503 -91 2522 -91 
Q 1538 -91 948 565 
Q 359 1222 359 2328 
Q 359 3434 948 4092 
Q 1538 4750 2522 4750 
z
" transform="scale(0.015625)"/>
      <path id="DejaVuSans-73" d="M 2834 3397 
L 2834 2853 
Q 2591 2978 2328 3040 
Q 2066 3103 1784 3103 
Q 1356 3103 1142 2972 
Q 928 2841 928 2578 
Q 928 2378 1081 2264 
Q 1234 2150 1697 2047 
L 1894 2003 
Q 2506 1872 2764 1633 
Q 3022 1394 3022 966 
Q 3022 478 2636 193 
Q 2250 -91 1575 -91 
Q 1294 -91 989 -36 
Q 684 19 347 128 
L 347 722 
Q 666 556 975 473 
Q 1284 391 1588 391 
Q 1994 391 2212 530 
Q 2431 669 2431 922 
Q 2431 1156 2273 1281 
Q 2116 1406 1581 1522 
L 1381 1569 
Q 847 1681 609 1914 
Q 372 2147 372 2553 
Q 372 3047 722 3315 
Q 1072 3584 1716 3584 
Q 2034 3584 2315 3537 
Q 2597 3491 2834 3397 
z
" transform="scale(0.015625)"/>
      <path id="DejaVuSans-68" d="M 3513 2113 
L 3513 0 
L 2938 0 
L 2938 2094 
Q 2938 2591 2744 2837 
Q 2550 3084 2163 3084 
Q 1697 3084 1428 2787 
Q 1159 2491 1159 1978 
L 1159 0 
L 581 0 
L 581 4863 
L 1159 4863 
L 1159 2956 
Q 1366 3272 1645 3428 
Q 1925 3584 2291 3584 
Q 2894 3584 3203 3211 
Q 3513 2838 3513 2113 
z
" transform="scale(0.015625)"/>
      <path id="DejaVuSans-6d" d="M 3328 2828 
Q 3544 3216 3844 3400 
Q 4144 3584 4550 3584 
Q 5097 3584 5394 3201 
Q 5691 2819 5691 2113 
L 5691 0 
L 5113 0 
L 5113 2094 
Q 5113 2597 4934 2840 
Q 4756 3084 4391 3084 
Q 3944 3084 3684 2787 
Q 3425 2491 3425 1978 
L 3425 0 
L 2847 0 
L 2847 2094 
Q 2847 2600 2669 2842 
Q 2491 3084 2119 3084 
Q 1678 3084 1418 2786 
Q 1159 2488 1159 1978 
L 1159 0 
L 581 0 
L 581 3500 
L 1159 3500 
L 1159 2956 
Q 1356 3278 1631 3431 
Q 1906 3584 2284 3584 
Q 2666 3584 2933 3390 
Q 3200 3197 3328 2828 
z
" transform="scale(0.015625)"/>
      <path id="DejaVuSans-69" d="M 603 3500 
L 1178 3500 
L 1178 0 
L 603 0 
L 603 3500 
z
M 603 4863 
L 1178 4863 
L 1178 4134 
L 603 4134 
L 603 4863 
z
" transform="scale(0.015625)"/>
     </defs>
     <use xlink:href="#DejaVuSans-43"/>
     <use xlink:href="#DejaVuSans-4e" transform="translate(69.824219 0)"/>
     <use xlink:href="#DejaVuSans-4f" transform="translate(144.628906 0)"/>
     <use xlink:href="#DejaVuSans-20" transform="translate(223.339844 0)"/>
     <use xlink:href="#DejaVuSans-43" transform="translate(255.126953 0)"/>
     <use xlink:href="#DejaVuSans-79" transform="translate(324.951172 0)"/>
     <use xlink:href="#DejaVuSans-63" transform="translate(384.130859 0)"/>
     <use xlink:href="#DejaVuSans-6c" transform="translate(439.111328 0)"/>
     <use xlink:href="#DejaVuSans-65" transform="translate(466.894531 0)"/>
     <use xlink:href="#DejaVuSans-20" transform="translate(528.417969 0)"/>
     <use xlink:href="#DejaVuSans-28" transform="translate(560.205078 0)"/>
     <use xlink:href="#DejaVuSans-73" transform="translate(599.21875 0)"/>
     <use xlink:href="#DejaVuSans-63" transform="translate(651.318359 0)"/>
     <use xlink:href="#DejaVuSans-68" transform="translate(706.298828 0)"/>
     <use xlink:href="#DejaVuSans-65" transform="translate(769.677734 0)"/>
     <use xlink:href="#DejaVuSans-6d" transform="translate(831.201172 0)"/>
     <use xlink:href="#DejaVuSans-61" transform="translate(928.613281 0)"/>
     <use xlink:href="#DejaVuSans-74" transform="translate(989.892578 0)"/>
     <use xlink:href="#DejaVuSans-69" transform="translate(1029.101562 0)"/>
     <use xlink:href="#DejaVuSans-63" transform="translate(1056.884766 0)"/>
     <use xlink:href="#DejaVuSans-29" transform="translate(1111.865234 0)"/>
    </g>
   </g>
  </g>
 </g>
 <defs>
  <clipPath id="p8e1e4e7377">
   <rect x="7.2" y="29.837812" width="447.507692" height="387.84"/>
  </clipPath>
 </defs>
</svg>
