<?xml version="1.0" encoding="utf-8" standalone="no"?>
<!DOCTYPE svg PUBLIC "-//W3C//DTD SVG 1.1//EN"
  "http://www.w3.org/Graphics/SVG/1.1/DTD/svg11.dtd">
<svg xmlns:xlink="http://www.w3.org/1999/xlink" width="856.647891pt" height="359.739875pt" viewBox="0 0 856.647891 359.739875" xmlns="http://www.w3.org/2000/svg" version="1.1">
 <metadata>
  <rdf:RDF xmlns:dc="http://purl.org/dc/elements/1.1/" xmlns:cc="http://creativecommons.org/ns#" xmlns:rdf="http://www.w3.org/1999/02/22-rdf-syntax-ns#">
   <cc:Work>
    <dc:type rdf:resource="http://purl.org/dc/dcmitype/StillImage"/>
    <dc:date>2026-01-02T19:17:51.885360</dc:date>
    <dc:format>image/svg+xml</dc:format>
    <dc:creator>
     <cc:Agent>
      <dc:title>Matplotlib v3.10.8, https://matplotlib.org/</dc:title>
     </cc:Agent>
    </dc:creator>
   </cc:Work>
  </rdf:RDF>
 </metadata>
 <defs>
  <style type="text/css">*{stroke-linejoin: round; stroke-linecap: butt}</style>
 </defs>
 <g id="figure_1">
  <g id="patch_1">
   <path d="M 0 359.739875 
L 856.647891 359.739875 
L 856.647891 0 
L 0 0 
z
" style="fill: #ffffff"/>
  </g>
  <g id="axes_1">
   <g id="patch_2">
    <path d="M 47.41375 320.248 
L 443.030821 320.248 
L 443.030821 71.728 
L 47.41375 71.728 
z
" style="fill: #ffffff"/>
   </g>
   <g id="matplotlib.axis_1">
    <g id="xtick_1">
     <g id="line2d_1">
      <path d="M 59.30055 320.248 
L 59.30055 71.728 
" clip-path="url(#pa0b656cf97)" style="fill: none; stroke: #ecf0f1; stroke-opacity: 0.9; stroke-width: 0.8; stroke-linecap: square"/>
     </g>
     <g id="line2d_2">
      <defs>
       <path id="mef9ab21dd9" d="M 0 0 
L 0 3.5 
" style="stroke: #000000; stroke-width: 0.8"/>
      </defs>
      <g>
       <use xlink:href="#mef9ab21dd9" x="59.30055" y="320.248" style="stroke: #000000; stroke-width: 0.8"/>
      </g>
     </g>
     <g id="text_1">
      <!-- 0 -->
      <g transform="translate(56.1193 334.846437) scale(0.1 -0.1)">
       <defs>
        <path id="DejaVuSans-30" d="M 2034 4250 
Q 1547 4250 1301 3770 
Q 1056 3291 1056 2328 
Q 1056 1369 1301 889 
Q 1547 409 2034 409 
Q 2525 409 2770 889 
Q 3016 1369 3016 2328 
Q 3016 3291 2770 3770 
Q 2525 4250 2034 4250 
z
M 2034 4750 
Q 2819 4750 3233 4129 
Q 3647 3509 3647 2328 
Q 3647 1150 3233 529 
Q 2819 -91 2034 -91 
Q 1250 -91 836 529 
Q 422 1150 422 2328 
Q 422 3509 836 4129 
Q 1250 4750 2034 4750 
z
" transform="scale(0.015625)"/>
       </defs>
       <use xlink:href="#DejaVuSans-30"/>
      </g>
     </g>
    </g>
    <g id="xtick_2">
     <g id="line2d_3">
      <path d="M 120.258496 320.248 
L 120.258496 71.728 
" clip-path="url(#pa0b656cf97)" style="fill: none; stroke: #ecf0f1; stroke-opacity: 0.9; stroke-width: 0.8; stroke-linecap: square"/>
     </g>
     <g id="line2d_4">
      <g>
       <use xlink:href="#mef9ab21dd9" x="120.258496" y="320.248" style="stroke: #000000; stroke-width: 0.8"/>
      </g>
     </g>
     <g id="text_2">
      <!-- 5 -->
      <g transform="translate(117.077246 334.846437) scale(0.1 -0.1)">
       <defs>
        <path id="DejaVuSans-35" d="M 691 4666 
L 3169 4666 
L 3169 4134 
L 1269 4134 
L 1269 2991 
Q 1406 3038 1543 3061 
Q 1681 3084 1819 3084 
Q 2600 3084 3056 2656 
Q 3513 2228 3513 1497 
Q 3513 744 3044 326 
Q 2575 -91 1722 -91 
Q 1428 -91 1123 -41 
Q 819 9 494 109 
L 494 744 
Q 775 591 1075 516 
Q 1375 441 1709 441 
Q 2250 441 2565 725 
Q 2881 1009 2881 1497 
Q 2881 1984 2565 2268 
Q 2250 2553 1709 2553 
Q 1456 2553 1204 2497 
Q 953 2441 691 2322 
L 691 4666 
z
" transform="scale(0.015625)"/>
       </defs>
       <use xlink:href="#DejaVuSans-35"/>
      </g>
     </g>
    </g>
    <g id="xtick_3">
     <g id="line2d_5">
      <path d="M 181.216442 320.248 
L 181.216442 71.728 
" clip-path="url(#pa0b656cf97)" style="fill: none; stroke: #ecf0f1; stroke-opacity: 0.9; stroke-width: 0.8; stroke-linecap: square"/>
     </g>
     <g id="line2d_6">
      <g>
       <use xlink:href="#mef9ab21dd9" x="181.216442" y="320.248" style="stroke: #000000; stroke-width: 0.8"/>
      </g>
     </g>
     <g id="text_3">
      <!-- 10 -->
      <g transform="translate(174.853942 334.846437) scale(0.1 -0.1)">
       <defs>
        <path id="DejaVuSans-31" d="M 794 531 
L 1825 531 
L 1825 4091 
L 703 3866 
L 703 4441 
L 1819 4666 
L 2450 4666 
L 2450 531 
L 3481 531 
L 3481 0 
L 794 0 
L 794 531 
z
" transform="scale(0.015625)"/>
       </defs>
       <use xlink:href="#DejaVuSans-31"/>
       <use xlink:href="#DejaVuSans-30" transform="translate(63.623047 0)"/>
      </g>
     </g>
    </g>
    <g id="xtick_4">
     <g id="line2d_7">
      <path d="M 242.174388 320.248 
L 242.174388 71.728 
" clip-path="url(#pa0b656cf97)" style="fill: none; stroke: #ecf0f1; stroke-opacity: 0.9; stroke-width: 0.8; stroke-linecap: square"/>
     </g>
     <g id="line2d_8">
      <g>
       <use xlink:href="#mef9ab21dd9" x="242.174388" y="320.248" style="stroke: #000000; stroke-width: 0.8"/>
      </g>
     </g>
     <g id="text_4">
      <!-- 15 -->
      <g transform="translate(235.811888 334.846437) scale(0.1 -0.1)">
       <use xlink:href="#DejaVuSans-31"/>
       <use xlink:href="#DejaVuSans-35" transform="translate(63.623047 0)"/>
      </g>
     </g>
    </g>
    <g id="xtick_5">
     <g id="line2d_9">
      <path d="M 303.132334 320.248 
L 303.132334 71.728 
" clip-path="url(#pa0b656cf97)" style="fill: none; stroke: #ecf0f1; stroke-opacity: 0.9; stroke-width: 0.8; stroke-linecap: square"/>
     </g>
     <g id="line2d_10">
      <g>
       <use xlink:href="#mef9ab21dd9" x="303.132334" y="320.248" style="stroke: #000000; stroke-width: 0.8"/>
      </g>
     </g>
     <g id="text_5">
      <!-- 20 -->
      <g transform="translate(296.769834 334.846437) scale(0.1 -0.1)">
       <defs>
        <path id="DejaVuSans-32" d="M 1228 531 
L 3431 531 
L 3431 0 
L 469 0 
L 469 531 
Q 828 903 1448 1529 
Q 2069 2156 2228 2338 
Q 2531 2678 2651 2914 
Q 2772 3150 2772 3378 
Q 2772 3750 2511 3984 
Q 2250 4219 1831 4219 
Q 1534 4219 1204 4116 
Q 875 4013 500 3803 
L 500 4441 
Q 881 4594 1212 4672 
Q 1544 4750 1819 4750 
Q 2544 4750 2975 4387 
Q 3406 4025 3406 3419 
Q 3406 3131 3298 2873 
Q 3191 2616 2906 2266 
Q 2828 2175 2409 1742 
Q 1991 1309 1228 531 
z
" transform="scale(0.015625)"/>
       </defs>
       <use xlink:href="#DejaVuSans-32"/>
       <use xlink:href="#DejaVuSans-30" transform="translate(63.623047 0)"/>
      </g>
     </g>
    </g>
    <g id="xtick_6">
     <g id="line2d_11">
      <path d="M 364.09028 320.248 
L 364.09028 71.728 
" clip-path="url(#pa0b656cf97)" style="fill: none; stroke: #ecf0f1; stroke-opacity: 0.9; stroke-width: 0.8; stroke-linecap: square"/>
     </g>
     <g id="line2d_12">
      <g>
       <use xlink:href="#mef9ab21dd9" x="364.09028" y="320.248" style="stroke: #000000; stroke-width: 0.8"/>
      </g>
     </g>
     <g id="text_6">
      <!-- 25 -->
      <g transform="translate(357.72778 334.846437) scale(0.1 -0.1)">
       <use xlink:href="#DejaVuSans-32"/>
       <use xlink:href="#DejaVuSans-35" transform="translate(63.623047 0)"/>
      </g>
     </g>
    </g>
    <g id="xtick_7">
     <g id="line2d_13">
      <path d="M 425.048227 320.248 
L 425.048227 71.728 
" clip-path="url(#pa0b656cf97)" style="fill: none; stroke: #ecf0f1; stroke-opacity: 0.9; stroke-width: 0.8; stroke-linecap: square"/>
     </g>
     <g id="line2d_14">
      <g>
       <use xlink:href="#mef9ab21dd9" x="425.048227" y="320.248" style="stroke: #000000; stroke-width: 0.8"/>
      </g>
     </g>
     <g id="text_7">
      <!-- 30 -->
      <g transform="translate(418.685727 334.846437) scale(0.1 -0.1)">
       <defs>
        <path id="DejaVuSans-33" d="M 2597 2516 
Q 3050 2419 3304 2112 
Q 3559 1806 3559 1356 
Q 3559 666 3084 287 
Q 2609 -91 1734 -91 
Q 1441 -91 1130 -33 
Q 819 25 488 141 
L 488 750 
Q 750 597 1062 519 
Q 1375 441 1716 441 
Q 2309 441 2620 675 
Q 2931 909 2931 1356 
Q 2931 1769 2642 2001 
Q 2353 2234 1838 2234 
L 1294 2234 
L 1294 2753 
L 1863 2753 
Q 2328 2753 2575 2939 
Q 2822 3125 2822 3475 
Q 2822 3834 2567 4026 
Q 2313 4219 1838 4219 
Q 1578 4219 1281 4162 
Q 984 4106 628 3988 
L 628 4550 
Q 988 4650 1302 4700 
Q 1616 4750 1894 4750 
Q 2613 4750 3031 4423 
Q 3450 4097 3450 3541 
Q 3450 3153 3228 2886 
Q 3006 2619 2597 2516 
z
" transform="scale(0.015625)"/>
       </defs>
       <use xlink:href="#DejaVuSans-33"/>
       <use xlink:href="#DejaVuSans-30" transform="translate(63.623047 0)"/>
      </g>
     </g>
    </g>
    <g id="text_8">
     <!-- Mass (M☉) -->
     <g transform="translate(212.972285 350.04425) scale(0.12 -0.12)">
      <defs>
       <path id="DejaVuSans-4d" d="M 628 4666 
L 1569 4666 
L 2759 1491 
L 3956 4666 
L 4897 4666 
L 4897 0 
L 4281 0 
L 4281 4097 
L 3078 897 
L 2444 897 
L 1241 4097 
L 1241 0 
L 628 0 
L 628 4666 
z
" transform="scale(0.015625)"/>
       <path id="DejaVuSans-61" d="M 2194 1759 
Q 1497 1759 1228 1600 
Q 959 1441 959 1056 
Q 959 750 1161 570 
Q 1363 391 1709 391 
Q 2188 391 2477 730 
Q 2766 1069 2766 1631 
L 2766 1759 
L 2194 1759 
z
M 3341 1997 
L 3341 0 
L 2766 0 
L 2766 531 
Q 2569 213 2275 61 
Q 1981 -91 1556 -91 
Q 1019 -91 701 211 
Q 384 513 384 1019 
Q 384 1609 779 1909 
Q 1175 2209 1959 2209 
L 2766 2209 
L 2766 2266 
Q 2766 2663 2505 2880 
Q 2244 3097 1772 3097 
Q 1472 3097 1187 3025 
Q 903 2953 641 2809 
L 641 3341 
Q 956 3463 1253 3523 
Q 1550 3584 1831 3584 
Q 2591 3584 2966 3190 
Q 3341 2797 3341 1997 
z
" transform="scale(0.015625)"/>
       <path id="DejaVuSans-73" d="M 2834 3397 
L 2834 2853 
Q 2591 2978 2328 3040 
Q 2066 3103 1784 3103 
Q 1356 3103 1142 2972 
Q 928 2841 928 2578 
Q 928 2378 1081 2264 
Q 1234 2150 1697 2047 
L 1894 2003 
Q 2506 1872 2764 1633 
Q 3022 1394 3022 966 
Q 3022 478 2636 193 
Q 2250 -91 1575 -91 
Q 1294 -91 989 -36 
Q 684 19 347 128 
L 347 722 
Q 666 556 975 473 
Q 1284 391 1588 391 
Q 1994 391 2212 530 
Q 2431 669 2431 922 
Q 2431 1156 2273 1281 
Q 2116 1406 1581 1522 
L 1381 1569 
Q 847 1681 609 1914 
Q 372 2147 372 2553 
Q 372 3047 722 3315 
Q 1072 3584 1716 3584 
Q 2034 3584 2315 3537 
Q 2597 3491 2834 3397 
z
" transform="scale(0.015625)"/>
       <path id="DejaVuSans-20" transform="scale(0.015625)"/>
       <path id="DejaVuSans-28" d="M 1984 4856 
Q 1566 4138 1362 3434 
Q 1159 2731 1159 2009 
Q 1159 1288 1364 580 
Q 1569 -128 1984 -844 
L 1484 -844 
Q 1016 -109 783 600 
Q 550 1309 550 2009 
Q 550 2706 781 3412 
Q 1013 4119 1484 4856 
L 1984 4856 
z
" transform="scale(0.015625)"/>
       <path id="DejaVuSans-2609" d="M 5206 2338 
Q 5206 1366 4522 683 
Q 3838 0 2866 0 
Q 1900 0 1215 683 
Q 531 1366 531 2338 
Q 531 2944 845 3508 
Q 1159 4072 1721 4373 
Q 2284 4675 2866 4675 
Q 3456 4675 4018 4373 
Q 4581 4072 4893 3511 
Q 5206 2950 5206 2338 
z
M 759 2338 
Q 759 1463 1375 848 
Q 1991 234 2866 234 
Q 3741 234 4356 848 
Q 4972 1463 4972 2338 
Q 4972 2891 4690 3394 
Q 4409 3897 3903 4169 
Q 3397 4441 2865 4441 
Q 2334 4441 1828 4169 
Q 1322 3897 1040 3394 
Q 759 2891 759 2338 
z
M 3453 2338 
Q 3453 2094 3283 1923 
Q 3113 1753 2869 1753 
Q 2628 1753 2456 1923 
Q 2284 2094 2284 2338 
Q 2284 2491 2362 2631 
Q 2441 2772 2581 2847 
Q 2722 2922 2869 2922 
Q 3016 2922 3156 2847 
Q 3297 2772 3375 2631 
Q 3453 2491 3453 2338 
z
" transform="scale(0.015625)"/>
       <path id="DejaVuSans-29" d="M 513 4856 
L 1013 4856 
Q 1481 4119 1714 3412 
Q 1947 2706 1947 2009 
Q 1947 1309 1714 600 
Q 1481 -109 1013 -844 
L 513 -844 
Q 928 -128 1133 580 
Q 1338 1288 1338 2009 
Q 1338 2731 1133 3434 
Q 928 4138 513 4856 
z
" transform="scale(0.015625)"/>
      </defs>
      <use xlink:href="#DejaVuSans-4d"/>
      <use xlink:href="#DejaVuSans-61" transform="translate(86.279297 0)"/>
      <use xlink:href="#DejaVuSans-73" transform="translate(147.558594 0)"/>
      <use xlink:href="#DejaVuSans-73" transform="translate(199.658203 0)"/>
      <use xlink:href="#DejaVuSans-20" transform="translate(251.757812 0)"/>
      <use xlink:href="#DejaVuSans-28" transform="translate(283.544922 0)"/>
      <use xlink:href="#DejaVuSans-4d" transform="translate(322.558594 0)"/>
      <use xlink:href="#DejaVuSans-2609" transform="translate(408.837891 0)"/>
      <use xlink:href="#DejaVuSans-29" transform="translate(498.486328 0)"/>
     </g>
    </g>
   </g>
   <g id="matplotlib.axis_2">
    <g id="ytick_1">
     <g id="line2d_15">
      <path d="M 47.41375 304.852897 
L 443.030821 304.852897 
" clip-path="url(#pa0b656cf97)" style="fill: none; stroke: #ecf0f1; stroke-opacity: 0.9; stroke-width: 0.8; stroke-linecap: square"/>
     </g>
     <g id="line2d_16">
      <defs>
       <path id="m05ce79c546" d="M 0 0 
L -3.5 0 
" style="stroke: #000000; stroke-width: 0.8"/>
      </defs>
      <g>
       <use xlink:href="#m05ce79c546" x="47.41375" y="304.852897" style="stroke: #000000; stroke-width: 0.8"/>
      </g>
     </g>
     <g id="text_9">
      <!-- $\mathdefault{10^{1}}$ -->
      <g transform="translate(22.81375 308.652116) scale(0.1 -0.1)">
       <use xlink:href="#DejaVuSans-31" transform="translate(0 0.684375)"/>
       <use xlink:href="#DejaVuSans-30" transform="translate(63.623047 0.684375)"/>
       <use xlink:href="#DejaVuSans-31" transform="translate(128.203125 38.965625) scale(0.7)"/>
      </g>
     </g>
    </g>
    <g id="ytick_2">
     <g id="line2d_17">
      <path d="M 47.41375 227.60088 
L 443.030821 227.60088 
" clip-path="url(#pa0b656cf97)" style="fill: none; stroke: #ecf0f1; stroke-opacity: 0.9; stroke-width: 0.8; stroke-linecap: square"/>
     </g>
     <g id="line2d_18">
      <g>
       <use xlink:href="#m05ce79c546" x="47.41375" y="227.60088" style="stroke: #000000; stroke-width: 0.8"/>
      </g>
     </g>
     <g id="text_10">
      <!-- $\mathdefault{10^{2}}$ -->
      <g transform="translate(22.81375 231.400098) scale(0.1 -0.1)">
       <use xlink:href="#DejaVuSans-31" transform="translate(0 0.765625)"/>
       <use xlink:href="#DejaVuSans-30" transform="translate(63.623047 0.765625)"/>
       <use xlink:href="#DejaVuSans-32" transform="translate(128.203125 39.046875) scale(0.7)"/>
      </g>
     </g>
    </g>
    <g id="ytick_3">
     <g id="line2d_19">
      <path d="M 47.41375 150.348862 
L 443.030821 150.348862 
" clip-path="url(#pa0b656cf97)" style="fill: none; stroke: #ecf0f1; stroke-opacity: 0.9; stroke-width: 0.8; stroke-linecap: square"/>
     </g>
     <g id="line2d_20">
      <g>
       <use xlink:href="#m05ce79c546" x="47.41375" y="150.348862" style="stroke: #000000; stroke-width: 0.8"/>
      </g>
     </g>
     <g id="text_11">
      <!-- $\mathdefault{10^{3}}$ -->
      <g transform="translate(22.81375 154.148081) scale(0.1 -0.1)">
       <use xlink:href="#DejaVuSans-31" transform="translate(0 0.765625)"/>
       <use xlink:href="#DejaVuSans-30" transform="translate(63.623047 0.765625)"/>
       <use xlink:href="#DejaVuSans-33" transform="translate(128.203125 39.046875) scale(0.7)"/>
      </g>
     </g>
    </g>
    <g id="ytick_4">
     <g id="line2d_21">
      <path d="M 47.41375 73.096845 
L 443.030821 73.096845 
" clip-path="url(#pa0b656cf97)" style="fill: none; stroke: #ecf0f1; stroke-opacity: 0.9; stroke-width: 0.8; stroke-linecap: square"/>
     </g>
     <g id="line2d_22">
      <g>
       <use xlink:href="#m05ce79c546" x="47.41375" y="73.096845" style="stroke: #000000; stroke-width: 0.8"/>
      </g>
     </g>
     <g id="text_12">
      <!-- $\mathdefault{10^{4}}$ -->
      <g transform="translate(22.81375 76.896064) scale(0.1 -0.1)">
       <defs>
        <path id="DejaVuSans-34" d="M 2419 4116 
L 825 1625 
L 2419 1625 
L 2419 4116 
z
M 2253 4666 
L 3047 4666 
L 3047 1625 
L 3713 1625 
L 3713 1100 
L 3047 1100 
L 3047 0 
L 2419 0 
L 2419 1100 
L 313 1100 
L 313 1709 
L 2253 4666 
z
" transform="scale(0.015625)"/>
       </defs>
       <use xlink:href="#DejaVuSans-31" transform="translate(0 0.684375)"/>
       <use xlink:href="#DejaVuSans-30" transform="translate(63.623047 0.684375)"/>
       <use xlink:href="#DejaVuSans-34" transform="translate(128.203125 38.965625) scale(0.7)"/>
      </g>
     </g>
    </g>
    <g id="ytick_5">
     <g id="line2d_23">
      <defs>
       <path id="m1e6c21ee82" d="M 0 0 
L -2 0 
" style="stroke: #000000; stroke-width: 0.6"/>
      </defs>
      <g>
       <use xlink:href="#m1e6c21ee82" x="47.41375" y="316.819386" style="stroke: #000000; stroke-width: 0.6"/>
      </g>
     </g>
    </g>
    <g id="ytick_6">
     <g id="line2d_24">
      <g>
       <use xlink:href="#m1e6c21ee82" x="47.41375" y="312.339391" style="stroke: #000000; stroke-width: 0.6"/>
      </g>
     </g>
    </g>
    <g id="ytick_7">
     <g id="line2d_25">
      <g>
       <use xlink:href="#m1e6c21ee82" x="47.41375" y="308.387755" style="stroke: #000000; stroke-width: 0.6"/>
      </g>
     </g>
    </g>
    <g id="ytick_8">
     <g id="line2d_26">
      <g>
       <use xlink:href="#m1e6c21ee82" x="47.41375" y="281.597723" style="stroke: #000000; stroke-width: 0.6"/>
      </g>
     </g>
    </g>
    <g id="ytick_9">
     <g id="line2d_27">
      <g>
       <use xlink:href="#m1e6c21ee82" x="47.41375" y="267.994318" style="stroke: #000000; stroke-width: 0.6"/>
      </g>
     </g>
    </g>
    <g id="ytick_10">
     <g id="line2d_28">
      <g>
       <use xlink:href="#m1e6c21ee82" x="47.41375" y="258.342548" style="stroke: #000000; stroke-width: 0.6"/>
      </g>
     </g>
    </g>
    <g id="ytick_11">
     <g id="line2d_29">
      <g>
       <use xlink:href="#m1e6c21ee82" x="47.41375" y="250.856054" style="stroke: #000000; stroke-width: 0.6"/>
      </g>
     </g>
    </g>
    <g id="ytick_12">
     <g id="line2d_30">
      <g>
       <use xlink:href="#m1e6c21ee82" x="47.41375" y="244.739143" style="stroke: #000000; stroke-width: 0.6"/>
      </g>
     </g>
    </g>
    <g id="ytick_13">
     <g id="line2d_31">
      <g>
       <use xlink:href="#m1e6c21ee82" x="47.41375" y="239.567369" style="stroke: #000000; stroke-width: 0.6"/>
      </g>
     </g>
    </g>
    <g id="ytick_14">
     <g id="line2d_32">
      <g>
       <use xlink:href="#m1e6c21ee82" x="47.41375" y="235.087374" style="stroke: #000000; stroke-width: 0.6"/>
      </g>
     </g>
    </g>
    <g id="ytick_15">
     <g id="line2d_33">
      <g>
       <use xlink:href="#m1e6c21ee82" x="47.41375" y="231.135738" style="stroke: #000000; stroke-width: 0.6"/>
      </g>
     </g>
    </g>
    <g id="ytick_16">
     <g id="line2d_34">
      <g>
       <use xlink:href="#m1e6c21ee82" x="47.41375" y="204.345705" style="stroke: #000000; stroke-width: 0.6"/>
      </g>
     </g>
    </g>
    <g id="ytick_17">
     <g id="line2d_35">
      <g>
       <use xlink:href="#m1e6c21ee82" x="47.41375" y="190.7423" style="stroke: #000000; stroke-width: 0.6"/>
      </g>
     </g>
    </g>
    <g id="ytick_18">
     <g id="line2d_36">
      <g>
       <use xlink:href="#m1e6c21ee82" x="47.41375" y="181.090531" style="stroke: #000000; stroke-width: 0.6"/>
      </g>
     </g>
    </g>
    <g id="ytick_19">
     <g id="line2d_37">
      <g>
       <use xlink:href="#m1e6c21ee82" x="47.41375" y="173.604037" style="stroke: #000000; stroke-width: 0.6"/>
      </g>
     </g>
    </g>
    <g id="ytick_20">
     <g id="line2d_38">
      <g>
       <use xlink:href="#m1e6c21ee82" x="47.41375" y="167.487126" style="stroke: #000000; stroke-width: 0.6"/>
      </g>
     </g>
    </g>
    <g id="ytick_21">
     <g id="line2d_39">
      <g>
       <use xlink:href="#m1e6c21ee82" x="47.41375" y="162.315351" style="stroke: #000000; stroke-width: 0.6"/>
      </g>
     </g>
    </g>
    <g id="ytick_22">
     <g id="line2d_40">
      <g>
       <use xlink:href="#m1e6c21ee82" x="47.41375" y="157.835356" style="stroke: #000000; stroke-width: 0.6"/>
      </g>
     </g>
    </g>
    <g id="ytick_23">
     <g id="line2d_41">
      <g>
       <use xlink:href="#m1e6c21ee82" x="47.41375" y="153.883721" style="stroke: #000000; stroke-width: 0.6"/>
      </g>
     </g>
    </g>
    <g id="ytick_24">
     <g id="line2d_42">
      <g>
       <use xlink:href="#m1e6c21ee82" x="47.41375" y="127.093688" style="stroke: #000000; stroke-width: 0.6"/>
      </g>
     </g>
    </g>
    <g id="ytick_25">
     <g id="line2d_43">
      <g>
       <use xlink:href="#m1e6c21ee82" x="47.41375" y="113.490283" style="stroke: #000000; stroke-width: 0.6"/>
      </g>
     </g>
    </g>
    <g id="ytick_26">
     <g id="line2d_44">
      <g>
       <use xlink:href="#m1e6c21ee82" x="47.41375" y="103.838514" style="stroke: #000000; stroke-width: 0.6"/>
      </g>
     </g>
    </g>
    <g id="ytick_27">
     <g id="line2d_45">
      <g>
       <use xlink:href="#m1e6c21ee82" x="47.41375" y="96.35202" style="stroke: #000000; stroke-width: 0.6"/>
      </g>
     </g>
    </g>
    <g id="ytick_28">
     <g id="line2d_46">
      <g>
       <use xlink:href="#m1e6c21ee82" x="47.41375" y="90.235109" style="stroke: #000000; stroke-width: 0.6"/>
      </g>
     </g>
    </g>
    <g id="ytick_29">
     <g id="line2d_47">
      <g>
       <use xlink:href="#m1e6c21ee82" x="47.41375" y="85.063334" style="stroke: #000000; stroke-width: 0.6"/>
      </g>
     </g>
    </g>
    <g id="ytick_30">
     <g id="line2d_48">
      <g>
       <use xlink:href="#m1e6c21ee82" x="47.41375" y="80.583339" style="stroke: #000000; stroke-width: 0.6"/>
      </g>
     </g>
    </g>
    <g id="ytick_31">
     <g id="line2d_49">
      <g>
       <use xlink:href="#m1e6c21ee82" x="47.41375" y="76.631704" style="stroke: #000000; stroke-width: 0.6"/>
      </g>
     </g>
    </g>
    <g id="text_13">
     <!-- Radius (km, log) -->
     <g transform="translate(16.318125 244.971437) rotate(-90) scale(0.12 -0.12)">
      <defs>
       <path id="DejaVuSans-52" d="M 2841 2188 
Q 3044 2119 3236 1894 
Q 3428 1669 3622 1275 
L 4263 0 
L 3584 0 
L 2988 1197 
Q 2756 1666 2539 1819 
Q 2322 1972 1947 1972 
L 1259 1972 
L 1259 0 
L 628 0 
L 628 4666 
L 2053 4666 
Q 2853 4666 3247 4331 
Q 3641 3997 3641 3322 
Q 3641 2881 3436 2590 
Q 3231 2300 2841 2188 
z
M 1259 4147 
L 1259 2491 
L 2053 2491 
Q 2509 2491 2742 2702 
Q 2975 2913 2975 3322 
Q 2975 3731 2742 3939 
Q 2509 4147 2053 4147 
L 1259 4147 
z
" transform="scale(0.015625)"/>
       <path id="DejaVuSans-64" d="M 2906 2969 
L 2906 4863 
L 3481 4863 
L 3481 0 
L 2906 0 
L 2906 525 
Q 2725 213 2448 61 
Q 2172 -91 1784 -91 
Q 1150 -91 751 415 
Q 353 922 353 1747 
Q 353 2572 751 3078 
Q 1150 3584 1784 3584 
Q 2172 3584 2448 3432 
Q 2725 3281 2906 2969 
z
M 947 1747 
Q 947 1113 1208 752 
Q 1469 391 1925 391 
Q 2381 391 2643 752 
Q 2906 1113 2906 1747 
Q 2906 2381 2643 2742 
Q 2381 3103 1925 3103 
Q 1469 3103 1208 2742 
Q 947 2381 947 1747 
z
" transform="scale(0.015625)"/>
       <path id="DejaVuSans-69" d="M 603 3500 
L 1178 3500 
L 1178 0 
L 603 0 
L 603 3500 
z
M 603 4863 
L 1178 4863 
L 1178 4134 
L 603 4134 
L 603 4863 
z
" transform="scale(0.015625)"/>
       <path id="DejaVuSans-75" d="M 544 1381 
L 544 3500 
L 1119 3500 
L 1119 1403 
Q 1119 906 1312 657 
Q 1506 409 1894 409 
Q 2359 409 2629 706 
Q 2900 1003 2900 1516 
L 2900 3500 
L 3475 3500 
L 3475 0 
L 2900 0 
L 2900 538 
Q 2691 219 2414 64 
Q 2138 -91 1772 -91 
Q 1169 -91 856 284 
Q 544 659 544 1381 
z
M 1991 3584 
L 1991 3584 
z
" transform="scale(0.015625)"/>
       <path id="DejaVuSans-6b" d="M 581 4863 
L 1159 4863 
L 1159 1991 
L 2875 3500 
L 3609 3500 
L 1753 1863 
L 3688 0 
L 2938 0 
L 1159 1709 
L 1159 0 
L 581 0 
L 581 4863 
z
" transform="scale(0.015625)"/>
       <path id="DejaVuSans-6d" d="M 3328 2828 
Q 3544 3216 3844 3400 
Q 4144 3584 4550 3584 
Q 5097 3584 5394 3201 
Q 5691 2819 5691 2113 
L 5691 0 
L 5113 0 
L 5113 2094 
Q 5113 2597 4934 2840 
Q 4756 3084 4391 3084 
Q 3944 3084 3684 2787 
Q 3425 2491 3425 1978 
L 3425 0 
L 2847 0 
L 2847 2094 
Q 2847 2600 2669 2842 
Q 2491 3084 2119 3084 
Q 1678 3084 1418 2786 
Q 1159 2488 1159 1978 
L 1159 0 
L 581 0 
L 581 3500 
L 1159 3500 
L 1159 2956 
Q 1356 3278 1631 3431 
Q 1906 3584 2284 3584 
Q 2666 3584 2933 3390 
Q 3200 3197 3328 2828 
z
" transform="scale(0.015625)"/>
       <path id="DejaVuSans-2c" d="M 750 794 
L 1409 794 
L 1409 256 
L 897 -744 
L 494 -744 
L 750 256 
L 750 794 
z
" transform="scale(0.015625)"/>
       <path id="DejaVuSans-6c" d="M 603 4863 
L 1178 4863 
L 1178 0 
L 603 0 
L 603 4863 
z
" transform="scale(0.015625)"/>
       <path id="DejaVuSans-6f" d="M 1959 3097 
Q 1497 3097 1228 2736 
Q 959 2375 959 1747 
Q 959 1119 1226 758 
Q 1494 397 1959 397 
Q 2419 397 2687 759 
Q 2956 1122 2956 1747 
Q 2956 2369 2687 2733 
Q 2419 3097 1959 3097 
z
M 1959 3584 
Q 2709 3584 3137 3096 
Q 3566 2609 3566 1747 
Q 3566 888 3137 398 
Q 2709 -91 1959 -91 
Q 1206 -91 779 398 
Q 353 888 353 1747 
Q 353 2609 779 3096 
Q 1206 3584 1959 3584 
z
" transform="scale(0.015625)"/>
       <path id="DejaVuSans-67" d="M 2906 1791 
Q 2906 2416 2648 2759 
Q 2391 3103 1925 3103 
Q 1463 3103 1205 2759 
Q 947 2416 947 1791 
Q 947 1169 1205 825 
Q 1463 481 1925 481 
Q 2391 481 2648 825 
Q 2906 1169 2906 1791 
z
M 3481 434 
Q 3481 -459 3084 -895 
Q 2688 -1331 1869 -1331 
Q 1566 -1331 1297 -1286 
Q 1028 -1241 775 -1147 
L 775 -588 
Q 1028 -725 1275 -790 
Q 1522 -856 1778 -856 
Q 2344 -856 2625 -561 
Q 2906 -266 2906 331 
L 2906 616 
Q 2728 306 2450 153 
Q 2172 0 1784 0 
Q 1141 0 747 490 
Q 353 981 353 1791 
Q 353 2603 747 3093 
Q 1141 3584 1784 3584 
Q 2172 3584 2450 3431 
Q 2728 3278 2906 2969 
L 2906 3500 
L 3481 3500 
L 3481 434 
z
" transform="scale(0.015625)"/>
      </defs>
      <use xlink:href="#DejaVuSans-52"/>
      <use xlink:href="#DejaVuSans-61" transform="translate(67.232422 0)"/>
      <use xlink:href="#DejaVuSans-64" transform="translate(128.511719 0)"/>
      <use xlink:href="#DejaVuSans-69" transform="translate(191.988281 0)"/>
      <use xlink:href="#DejaVuSans-75" transform="translate(219.771484 0)"/>
      <use xlink:href="#DejaVuSans-73" transform="translate(283.150391 0)"/>
      <use xlink:href="#DejaVuSans-20" transform="translate(335.25 0)"/>
      <use xlink:href="#DejaVuSans-28" transform="translate(367.037109 0)"/>
      <use xlink:href="#DejaVuSans-6b" transform="translate(406.050781 0)"/>
      <use xlink:href="#DejaVuSans-6d" transform="translate(463.960938 0)"/>
      <use xlink:href="#DejaVuSans-2c" transform="translate(561.373047 0)"/>
      <use xlink:href="#DejaVuSans-20" transform="translate(593.160156 0)"/>
      <use xlink:href="#DejaVuSans-6c" transform="translate(624.947266 0)"/>
      <use xlink:href="#DejaVuSans-6f" transform="translate(652.730469 0)"/>
      <use xlink:href="#DejaVuSans-67" transform="translate(713.912109 0)"/>
      <use xlink:href="#DejaVuSans-29" transform="translate(777.388672 0)"/>
     </g>
    </g>
   </g>
   <g id="line2d_50">
    <path d="M 65.396344 83.024364 
L 65.501019 83.214771 
L 65.605695 83.401991 
L 65.71037 83.586128 
L 65.815045 83.767283 
L 65.91972 83.945549 
L 66.024396 84.121019 
L 66.129071 84.293778 
L 66.233746 84.463909 
L 66.338421 84.63149 
L 66.443097 84.796597 
L 66.547772 84.959302 
L 66.652447 85.119674 
L 66.757123 85.277778 
L 66.861798 85.433678 
L 66.966473 85.587435 
L 67.071148 85.739107 
L 67.175824 85.888749 
L 67.280499 86.036415 
L 67.385174 86.182157 
L 67.489849 86.326023 
L 67.594525 86.468063 
L 67.6992 86.608321 
L 67.803875 86.746842 
L 67.90855 86.883668 
L 68.013226 87.01884 
L 68.117901 87.152398 
L 68.222576 87.28438 
L 68.327251 87.414822 
L 68.431927 87.54376 
L 68.536602 87.671229 
L 68.641277 87.797261 
L 68.745952 87.921888 
L 68.850628 88.045142 
L 68.955303 88.167053 
L 69.059978 88.287648 
L 69.164654 88.406958 
L 69.269329 88.525007 
L 69.374004 88.641824 
L 69.478679 88.757433 
L 69.583355 88.871859 
L 69.68803 88.985126 
L 69.792705 89.097258 
L 69.89738 89.208276 
L 70.002056 89.318203 
L 70.106731 89.42706 
L 70.211406 89.534868 
L 70.316081 89.641646 
L 70.420757 89.747415 
L 70.525432 89.852192 
L 70.630107 89.955997 
L 70.734782 90.058848 
L 70.839458 90.160761 
L 70.944133 90.261753 
L 71.048808 90.361842 
L 71.153483 90.461043 
L 71.258159 90.559372 
L 71.362834 90.656843 
L 71.467509 90.753473 
L 71.572185 90.849275 
L 71.67686 90.944263 
L 71.781535 91.038451 
L 71.88621 91.131852 
L 71.990886 91.22448 
L 72.095561 91.316347 
L 72.200236 91.407465 
L 72.304911 91.497847 
L 72.409587 91.587504 
L 72.514262 91.676449 
L 72.618937 91.764691 
L 72.723612 91.852243 
L 72.828288 91.939114 
L 72.932963 92.025316 
L 73.037638 92.110859 
L 73.142313 92.195752 
L 73.246989 92.280005 
L 73.351664 92.363629 
L 73.456339 92.446632 
L 73.561014 92.529023 
L 73.66569 92.610812 
L 73.770365 92.692007 
L 73.87504 92.772617 
L 73.979716 92.85265 
L 74.084391 92.932114 
L 74.189066 93.011018 
L 74.293741 93.089369 
L 74.398417 93.167174 
L 74.503092 93.244442 
L 74.607767 93.32118 
L 74.712442 93.397395 
L 74.817118 93.473094 
L 74.921793 93.548284 
L 75.026468 93.622972 
L 75.131143 93.697165 
L 75.235819 93.770868 
L 75.340494 93.844089 
L 75.445169 93.916834 
L 75.549844 93.989108 
L 75.65452 94.060918 
L 75.759195 94.132271 
" clip-path="url(#pa0b656cf97)" style="fill: none; stroke: #95a5a6; stroke-width: 2.5; stroke-linecap: square"/>
   </g>
   <g id="line2d_51">
    <path d="M 71.492139 299.050591 
L 71.865351 299.004094 
L 72.238563 298.961354 
L 72.611774 298.922357 
L 72.984986 298.887089 
L 73.358198 298.85554 
L 73.73141 298.827698 
L 74.104622 298.803554 
L 74.477834 298.7831 
L 74.851046 298.76633 
L 75.224258 298.753238 
L 75.59747 298.74382 
L 75.970682 298.738073 
L 76.343894 298.735994 
L 76.717106 298.737584 
L 77.090317 298.742842 
L 77.463529 298.75177 
L 77.836741 298.764372 
L 78.209953 298.780651 
L 78.583165 298.800613 
L 78.956377 298.824265 
L 79.329589 298.851613 
L 79.702801 298.882668 
L 80.076013 298.917439 
L 80.449225 298.955939 
L 80.822437 298.998179 
L 81.195649 299.044174 
L 81.56886 299.093939 
L 81.942072 299.147491 
L 82.315284 299.204849 
L 82.688496 299.26603 
L 83.061708 299.331057 
L 83.43492 299.399952 
L 83.808132 299.472737 
L 84.181344 299.549439 
L 84.554556 299.630083 
L 84.927768 299.714698 
L 85.30098 299.803313 
L 85.674192 299.89596 
L 86.047403 299.99267 
L 86.420615 300.09348 
L 86.793827 300.198425 
L 87.167039 300.307543 
L 87.540251 300.420874 
L 87.913463 300.538459 
L 88.286675 300.660342 
L 88.659887 300.786568 
L 89.033099 300.917185 
L 89.406311 301.052243 
L 89.779523 301.191792 
" clip-path="url(#pa0b656cf97)" style="fill: none; stroke: #f39c12; stroke-width: 2.5; stroke-linecap: square"/>
   </g>
   <g id="line2d_52">
    <path d="M 95.875317 308.951636 
L 99.200296 306.032394 
L 102.525275 303.346951 
L 105.850254 300.860619 
L 109.175233 298.5459 
L 112.500212 296.380624 
L 115.825191 294.346661 
L 119.150169 292.428989 
L 122.475148 290.615027 
L 125.800127 288.89413 
L 129.125106 287.257214 
L 132.450085 285.696462 
L 135.775064 284.2051 
L 139.100043 282.777219 
L 142.425022 281.407636 
L 145.75 280.091777 
L 149.074979 278.825584 
L 152.399958 277.605445 
L 155.724937 276.428127 
L 159.049916 275.290725 
L 162.374895 274.190623 
L 165.699874 273.12545 
L 169.024853 272.093057 
L 172.349832 271.091486 
L 175.67481 270.118951 
L 178.999789 269.173814 
L 182.324768 268.254575 
L 185.649747 267.359852 
L 188.974726 266.488372 
L 192.299705 265.638956 
L 195.624684 264.810516 
L 198.949663 264.00204 
L 202.274641 263.212589 
L 205.59962 262.441287 
L 208.924599 261.68732 
L 212.249578 260.949925 
L 215.574557 260.228389 
L 218.899536 259.522045 
L 222.224515 258.830265 
L 225.549494 258.152462 
L 228.874473 257.488081 
L 232.199451 256.836602 
L 235.52443 256.197533 
L 238.849409 255.570409 
L 242.174388 254.954793 
L 245.499367 254.35027 
L 248.824346 253.756447 
L 252.149325 253.172952 
L 255.474304 252.599432 
L 258.799282 252.035551 
L 262.124261 251.480991 
L 265.44924 250.935448 
L 268.774219 250.398635 
L 272.099198 249.870275 
L 275.424177 249.350108 
L 278.749156 248.837883 
L 282.074135 248.33336 
L 285.399114 247.836312 
L 288.724092 247.34652 
L 292.049071 246.863776 
L 295.37405 246.38788 
L 298.699029 245.91864 
L 302.024008 245.455872 
L 305.348987 244.999401 
L 308.673966 244.549057 
L 311.998945 244.104678 
L 315.323923 243.666108 
L 318.648902 243.233197 
L 321.973881 242.805801 
L 325.29886 242.383781 
L 328.623839 241.967004 
L 331.948818 241.555341 
L 335.273797 241.148668 
L 338.598776 240.746865 
L 341.923755 240.349818 
L 345.248733 239.957414 
L 348.573712 239.569547 
L 351.898691 239.186113 
L 355.22367 238.807012 
L 358.548649 238.432146 
L 361.873628 238.061423 
L 365.198607 237.694751 
L 368.523586 237.332043 
L 371.848564 236.973215 
L 375.173543 236.618184 
L 378.498522 236.26687 
L 381.823501 235.919198 
L 385.14848 235.575091 
L 388.473459 235.234478 
L 391.798438 234.897287 
L 395.123417 234.563453 
L 398.448396 234.232907 
L 401.773374 233.905586 
L 405.098353 233.581428 
L 408.423332 233.260371 
L 411.748311 232.942358 
L 415.07329 232.627331 
L 418.398269 232.315235 
L 421.723248 232.006015 
L 425.048227 231.699619 
" clip-path="url(#pa0b656cf97)" style="fill: none; stroke: #2c3e50; stroke-width: 2.5; stroke-linecap: square"/>
   </g>
   <g id="patch_3">
    <path d="M 47.41375 320.248 
L 47.41375 71.728 
" style="fill: none; stroke: #000000; stroke-width: 0.8; stroke-linejoin: miter; stroke-linecap: square"/>
   </g>
   <g id="patch_4">
    <path d="M 443.030821 320.248 
L 443.030821 71.728 
" style="fill: none; stroke: #000000; stroke-width: 0.8; stroke-linejoin: miter; stroke-linecap: square"/>
   </g>
   <g id="patch_5">
    <path d="M 47.41375 320.248 
L 443.030821 320.248 
" style="fill: none; stroke: #000000; stroke-width: 0.8; stroke-linejoin: miter; stroke-linecap: square"/>
   </g>
   <g id="patch_6">
    <path d="M 47.41375 71.728 
L 443.030821 71.728 
" style="fill: none; stroke: #000000; stroke-width: 0.8; stroke-linejoin: miter; stroke-linecap: square"/>
   </g>
   <g id="text_14">
    <!-- Mass–Radius (schematic) -->
    <g transform="translate(169.655098 61.728) scale(0.12 -0.12)">
     <defs>
      <path id="DejaVuSans-2013" d="M 313 1978 
L 2888 1978 
L 2888 1528 
L 313 1528 
L 313 1978 
z
" transform="scale(0.015625)"/>
      <path id="DejaVuSans-63" d="M 3122 3366 
L 3122 2828 
Q 2878 2963 2633 3030 
Q 2388 3097 2138 3097 
Q 1578 3097 1268 2742 
Q 959 2388 959 1747 
Q 959 1106 1268 751 
Q 1578 397 2138 397 
Q 2388 397 2633 464 
Q 2878 531 3122 666 
L 3122 134 
Q 2881 22 2623 -34 
Q 2366 -91 2075 -91 
Q 1284 -91 818 406 
Q 353 903 353 1747 
Q 353 2603 823 3093 
Q 1294 3584 2113 3584 
Q 2378 3584 2631 3529 
Q 2884 3475 3122 3366 
z
" transform="scale(0.015625)"/>
      <path id="DejaVuSans-68" d="M 3513 2113 
L 3513 0 
L 2938 0 
L 2938 2094 
Q 2938 2591 2744 2837 
Q 2550 3084 2163 3084 
Q 1697 3084 1428 2787 
Q 1159 2491 1159 1978 
L 1159 0 
L 581 0 
L 581 4863 
L 1159 4863 
L 1159 2956 
Q 1366 3272 1645 3428 
Q 1925 3584 2291 3584 
Q 2894 3584 3203 3211 
Q 3513 2838 3513 2113 
z
" transform="scale(0.015625)"/>
      <path id="DejaVuSans-65" d="M 3597 1894 
L 3597 1613 
L 953 1613 
Q 991 1019 1311 708 
Q 1631 397 2203 397 
Q 2534 397 2845 478 
Q 3156 559 3463 722 
L 3463 178 
Q 3153 47 2828 -22 
Q 2503 -91 2169 -91 
Q 1331 -91 842 396 
Q 353 884 353 1716 
Q 353 2575 817 3079 
Q 1281 3584 2069 3584 
Q 2775 3584 3186 3129 
Q 3597 2675 3597 1894 
z
M 3022 2063 
Q 3016 2534 2758 2815 
Q 2500 3097 2075 3097 
Q 1594 3097 1305 2825 
Q 1016 2553 972 2059 
L 3022 2063 
z
" transform="scale(0.015625)"/>
      <path id="DejaVuSans-74" d="M 1172 4494 
L 1172 3500 
L 2356 3500 
L 2356 3053 
L 1172 3053 
L 1172 1153 
Q 1172 725 1289 603 
Q 1406 481 1766 481 
L 2356 481 
L 2356 0 
L 1766 0 
Q 1100 0 847 248 
Q 594 497 594 1153 
L 594 3053 
L 172 3053 
L 172 3500 
L 594 3500 
L 594 4494 
L 1172 4494 
z
" transform="scale(0.015625)"/>
     </defs>
     <use xlink:href="#DejaVuSans-4d"/>
     <use xlink:href="#DejaVuSans-61" transform="translate(86.279297 0)"/>
     <use xlink:href="#DejaVuSans-73" transform="translate(147.558594 0)"/>
     <use xlink:href="#DejaVuSans-73" transform="translate(199.658203 0)"/>
     <use xlink:href="#DejaVuSans-2013" transform="translate(251.757812 0)"/>
     <use xlink:href="#DejaVuSans-52" transform="translate(301.757812 0)"/>
     <use xlink:href="#DejaVuSans-61" transform="translate(368.990234 0)"/>
     <use xlink:href="#DejaVuSans-64" transform="translate(430.269531 0)"/>
     <use xlink:href="#DejaVuSans-69" transform="translate(493.746094 0)"/>
     <use xlink:href="#DejaVuSans-75" transform="translate(521.529297 0)"/>
     <use xlink:href="#DejaVuSans-73" transform="translate(584.908203 0)"/>
     <use xlink:href="#DejaVuSans-20" transform="translate(637.007812 0)"/>
     <use xlink:href="#DejaVuSans-28" transform="translate(668.794922 0)"/>
     <use xlink:href="#DejaVuSans-73" transform="translate(707.808594 0)"/>
     <use xlink:href="#DejaVuSans-63" transform="translate(759.908203 0)"/>
     <use xlink:href="#DejaVuSans-68" transform="translate(814.888672 0)"/>
     <use xlink:href="#DejaVuSans-65" transform="translate(878.267578 0)"/>
     <use xlink:href="#DejaVuSans-6d" transform="translate(939.791016 0)"/>
     <use xlink:href="#DejaVuSans-61" transform="translate(1037.203125 0)"/>
     <use xlink:href="#DejaVuSans-74" transform="translate(1098.482422 0)"/>
     <use xlink:href="#DejaVuSans-69" transform="translate(1137.691406 0)"/>
     <use xlink:href="#DejaVuSans-63" transform="translate(1165.474609 0)"/>
     <use xlink:href="#DejaVuSans-29" transform="translate(1220.455078 0)"/>
    </g>
   </g>
   <g id="legend_1">
    <g id="patch_7">
     <path d="M 351.307071 113.3555 
L 437.430821 113.3555 
Q 439.030821 113.3555 439.030821 111.7555 
L 439.030821 77.328 
Q 439.030821 75.728 437.430821 75.728 
L 351.307071 75.728 
Q 349.707071 75.728 349.707071 77.328 
L 349.707071 111.7555 
Q 349.707071 113.3555 351.307071 113.3555 
z
" style="fill: #ffffff; opacity: 0.8; stroke: #cccccc; stroke-linejoin: miter"/>
    </g>
    <g id="line2d_53">
     <path d="M 352.907071 82.20675 
L 360.907071 82.20675 
L 368.907071 82.20675 
" style="fill: none; stroke: #95a5a6; stroke-width: 2.5; stroke-linecap: square"/>
    </g>
    <g id="text_15">
     <!-- White dwarfs -->
     <g transform="translate(375.307071 85.00675) scale(0.08 -0.08)">
      <defs>
       <path id="DejaVuSans-57" d="M 213 4666 
L 850 4666 
L 1831 722 
L 2809 4666 
L 3519 4666 
L 4500 722 
L 5478 4666 
L 6119 4666 
L 4947 0 
L 4153 0 
L 3169 4050 
L 2175 0 
L 1381 0 
L 213 4666 
z
" transform="scale(0.015625)"/>
       <path id="DejaVuSans-77" d="M 269 3500 
L 844 3500 
L 1563 769 
L 2278 3500 
L 2956 3500 
L 3675 769 
L 4391 3500 
L 4966 3500 
L 4050 0 
L 3372 0 
L 2619 2869 
L 1863 0 
L 1184 0 
L 269 3500 
z
" transform="scale(0.015625)"/>
       <path id="DejaVuSans-72" d="M 2631 2963 
Q 2534 3019 2420 3045 
Q 2306 3072 2169 3072 
Q 1681 3072 1420 2755 
Q 1159 2438 1159 1844 
L 1159 0 
L 581 0 
L 581 3500 
L 1159 3500 
L 1159 2956 
Q 1341 3275 1631 3429 
Q 1922 3584 2338 3584 
Q 2397 3584 2469 3576 
Q 2541 3569 2628 3553 
L 2631 2963 
z
" transform="scale(0.015625)"/>
       <path id="DejaVuSans-66" d="M 2375 4863 
L 2375 4384 
L 1825 4384 
Q 1516 4384 1395 4259 
Q 1275 4134 1275 3809 
L 1275 3500 
L 2222 3500 
L 2222 3053 
L 1275 3053 
L 1275 0 
L 697 0 
L 697 3053 
L 147 3053 
L 147 3500 
L 697 3500 
L 697 3744 
Q 697 4328 969 4595 
Q 1241 4863 1831 4863 
L 2375 4863 
z
" transform="scale(0.015625)"/>
      </defs>
      <use xlink:href="#DejaVuSans-57"/>
      <use xlink:href="#DejaVuSans-68" transform="translate(98.876953 0)"/>
      <use xlink:href="#DejaVuSans-69" transform="translate(162.255859 0)"/>
      <use xlink:href="#DejaVuSans-74" transform="translate(190.039062 0)"/>
      <use xlink:href="#DejaVuSans-65" transform="translate(229.248047 0)"/>
      <use xlink:href="#DejaVuSans-20" transform="translate(290.771484 0)"/>
      <use xlink:href="#DejaVuSans-64" transform="translate(322.558594 0)"/>
      <use xlink:href="#DejaVuSans-77" transform="translate(386.035156 0)"/>
      <use xlink:href="#DejaVuSans-61" transform="translate(467.822266 0)"/>
      <use xlink:href="#DejaVuSans-72" transform="translate(529.101562 0)"/>
      <use xlink:href="#DejaVuSans-66" transform="translate(570.214844 0)"/>
      <use xlink:href="#DejaVuSans-73" transform="translate(605.419922 0)"/>
     </g>
    </g>
    <g id="line2d_54">
     <path d="M 352.907071 93.94925 
L 360.907071 93.94925 
L 368.907071 93.94925 
" style="fill: none; stroke: #f39c12; stroke-width: 2.5; stroke-linecap: square"/>
    </g>
    <g id="text_16">
     <!-- Neutron stars -->
     <g transform="translate(375.307071 96.74925) scale(0.08 -0.08)">
      <defs>
       <path id="DejaVuSans-4e" d="M 628 4666 
L 1478 4666 
L 3547 763 
L 3547 4666 
L 4159 4666 
L 4159 0 
L 3309 0 
L 1241 3903 
L 1241 0 
L 628 0 
L 628 4666 
z
" transform="scale(0.015625)"/>
       <path id="DejaVuSans-6e" d="M 3513 2113 
L 3513 0 
L 2938 0 
L 2938 2094 
Q 2938 2591 2744 2837 
Q 2550 3084 2163 3084 
Q 1697 3084 1428 2787 
Q 1159 2491 1159 1978 
L 1159 0 
L 581 0 
L 581 3500 
L 1159 3500 
L 1159 2956 
Q 1366 3272 1645 3428 
Q 1925 3584 2291 3584 
Q 2894 3584 3203 3211 
Q 3513 2838 3513 2113 
z
" transform="scale(0.015625)"/>
      </defs>
      <use xlink:href="#DejaVuSans-4e"/>
      <use xlink:href="#DejaVuSans-65" transform="translate(74.804688 0)"/>
      <use xlink:href="#DejaVuSans-75" transform="translate(136.328125 0)"/>
      <use xlink:href="#DejaVuSans-74" transform="translate(199.707031 0)"/>
      <use xlink:href="#DejaVuSans-72" transform="translate(238.916016 0)"/>
      <use xlink:href="#DejaVuSans-6f" transform="translate(277.779297 0)"/>
      <use xlink:href="#DejaVuSans-6e" transform="translate(338.960938 0)"/>
      <use xlink:href="#DejaVuSans-20" transform="translate(402.339844 0)"/>
      <use xlink:href="#DejaVuSans-73" transform="translate(434.126953 0)"/>
      <use xlink:href="#DejaVuSans-74" transform="translate(486.226562 0)"/>
      <use xlink:href="#DejaVuSans-61" transform="translate(525.435547 0)"/>
      <use xlink:href="#DejaVuSans-72" transform="translate(586.714844 0)"/>
      <use xlink:href="#DejaVuSans-73" transform="translate(627.828125 0)"/>
     </g>
    </g>
    <g id="line2d_55">
     <path d="M 352.907071 105.69175 
L 360.907071 105.69175 
L 368.907071 105.69175 
" style="fill: none; stroke: #2c3e50; stroke-width: 2.5; stroke-linecap: square"/>
    </g>
    <g id="text_17">
     <!-- Black holes (rₛ) -->
     <g transform="translate(375.307071 108.49175) scale(0.08 -0.08)">
      <defs>
       <path id="DejaVuSans-42" d="M 1259 2228 
L 1259 519 
L 2272 519 
Q 2781 519 3026 730 
Q 3272 941 3272 1375 
Q 3272 1813 3026 2020 
Q 2781 2228 2272 2228 
L 1259 2228 
z
M 1259 4147 
L 1259 2741 
L 2194 2741 
Q 2656 2741 2882 2914 
Q 3109 3088 3109 3444 
Q 3109 3797 2882 3972 
Q 2656 4147 2194 4147 
L 1259 4147 
z
M 628 4666 
L 2241 4666 
Q 2963 4666 3353 4366 
Q 3744 4066 3744 3513 
Q 3744 3084 3544 2831 
Q 3344 2578 2956 2516 
Q 3422 2416 3680 2098 
Q 3938 1781 3938 1306 
Q 3938 681 3513 340 
Q 3088 0 2303 0 
L 628 0 
L 628 4666 
z
" transform="scale(0.015625)"/>
       <path id="DejaVuSans-209b" d="M 1931 1929 
L 1931 1626 
Q 1778 1694 1613 1729 
Q 1450 1763 1272 1763 
Q 1000 1763 866 1691 
Q 731 1616 731 1469 
Q 731 1357 828 1294 
Q 925 1229 1216 1172 
L 1341 1147 
Q 1731 1072 1888 941 
Q 2050 807 2050 566 
Q 2050 294 1806 135 
Q 1566 -24 1141 -24 
Q 963 -24 769 7 
Q 578 38 366 97 
L 366 432 
Q 566 338 763 291 
Q 956 244 1147 244 
Q 1403 244 1540 322 
Q 1678 401 1678 541 
Q 1678 672 1578 744 
Q 1491 807 1144 879 
L 1019 904 
Q 681 969 531 1097 
Q 381 1229 381 1457 
Q 381 1732 603 1882 
Q 822 2035 1228 2035 
Q 1428 2035 1606 2007 
Q 1784 1982 1931 1929 
z
" transform="scale(0.015625)"/>
      </defs>
      <use xlink:href="#DejaVuSans-42"/>
      <use xlink:href="#DejaVuSans-6c" transform="translate(68.603516 0)"/>
      <use xlink:href="#DejaVuSans-61" transform="translate(96.386719 0)"/>
      <use xlink:href="#DejaVuSans-63" transform="translate(157.666016 0)"/>
      <use xlink:href="#DejaVuSans-6b" transform="translate(212.646484 0)"/>
      <use xlink:href="#DejaVuSans-20" transform="translate(270.556641 0)"/>
      <use xlink:href="#DejaVuSans-68" transform="translate(302.34375 0)"/>
      <use xlink:href="#DejaVuSans-6f" transform="translate(365.722656 0)"/>
      <use xlink:href="#DejaVuSans-6c" transform="translate(426.904297 0)"/>
      <use xlink:href="#DejaVuSans-65" transform="translate(454.6875 0)"/>
      <use xlink:href="#DejaVuSans-73" transform="translate(516.210938 0)"/>
      <use xlink:href="#DejaVuSans-20" transform="translate(568.310547 0)"/>
      <use xlink:href="#DejaVuSans-28" transform="translate(600.097656 0)"/>
      <use xlink:href="#DejaVuSans-72" transform="translate(639.111328 0)"/>
      <use xlink:href="#DejaVuSans-209b" transform="translate(680.224609 0)"/>
      <use xlink:href="#DejaVuSans-29" transform="translate(717.529297 0)"/>
     </g>
    </g>
   </g>
  </g>
  <g id="axes_2">
   <g id="patch_8">
    <path d="M 651.639356 242.5855 
C 667.377187 242.5855 682.472556 237.675693 693.600883 228.937408 
C 704.72921 220.199123 710.981917 208.345801 710.981917 195.988 
C 710.981917 183.630199 704.72921 171.776877 693.600883 163.038592 
C 682.472556 154.300307 667.377187 149.3905 651.639356 149.3905 
C 635.901525 149.3905 620.806156 154.300307 609.677829 163.038592 
C 598.549502 171.776877 592.296795 183.630199 592.296795 195.988 
C 592.296795 208.345801 598.549502 220.199123 609.677829 228.937408 
C 620.806156 237.675693 635.901525 242.5855 651.639356 242.5855 
z
" clip-path="url(#p19147862d6)" style="fill: #f39c12; opacity: 0.18; stroke: #f39c12; stroke-width: 2.5; stroke-linejoin: miter"/>
   </g>
   <g id="patch_9">
    <path d="M 651.639356 225.111437 
C 661.4755 225.111437 670.910106 222.042808 677.86531 216.58138 
C 684.820515 211.119952 688.728456 203.711626 688.728456 195.988 
C 688.728456 188.264374 684.820515 180.856048 677.86531 175.39462 
C 670.910106 169.933192 661.4755 166.864562 651.639356 166.864562 
C 641.803212 166.864562 632.368606 169.933192 625.413402 175.39462 
C 618.458197 180.856048 614.550256 188.264374 614.550256 195.988 
C 614.550256 203.711626 618.458197 211.119952 625.413402 216.58138 
C 632.368606 222.042808 641.803212 225.111437 651.639356 225.111437 
z
" clip-path="url(#p19147862d6)" style="fill: #9b59b6; opacity: 0.12; stroke: #9b59b6; stroke-width: 2.5; stroke-linejoin: miter"/>
   </g>
   <g id="patch_10">
    <path d="M 651.639356 209.578937 
C 656.229557 209.578937 660.632373 208.146911 663.878135 205.598244 
C 667.123897 203.049578 668.947603 199.592359 668.947603 195.988 
C 668.947603 192.383641 667.123897 188.926422 663.878135 186.377756 
C 660.632373 183.829089 656.229557 182.397062 651.639356 182.397062 
C 647.049155 182.397062 642.646339 183.829089 639.400577 186.377756 
C 636.154815 188.926422 634.331109 192.383641 634.331109 195.988 
C 634.331109 199.592359 636.154815 203.049578 639.400577 205.598244 
C 642.646339 208.146911 647.049155 209.578937 651.639356 209.578937 
z
" clip-path="url(#p19147862d6)" style="fill: #2c3e50; opacity: 0.12; stroke: #2c3e50; stroke-width: 2.5; stroke-linejoin: miter"/>
   </g>
   <g id="line2d_56">
    <path d="M 572.515942 230.936125 
L 730.76277 161.039875 
" clip-path="url(#p19147862d6)" style="fill: none; stroke: #9b59b6; stroke-width: 2.5; stroke-linecap: square"/>
   </g>
   <g id="text_18">
    <!-- crust -->
    <g style="fill: #95a5a6" transform="translate(641.608731 161.039875) scale(0.08 -0.08)">
     <use xlink:href="#DejaVuSans-63"/>
     <use xlink:href="#DejaVuSans-72" transform="translate(54.980469 0)"/>
     <use xlink:href="#DejaVuSans-75" transform="translate(96.09375 0)"/>
     <use xlink:href="#DejaVuSans-73" transform="translate(159.472656 0)"/>
     <use xlink:href="#DejaVuSans-74" transform="translate(211.572266 0)"/>
    </g>
   </g>
   <g id="text_19">
    <!-- core -->
    <g style="fill: #2c3e50" transform="translate(642.976856 192.104875) scale(0.08 -0.08)">
     <use xlink:href="#DejaVuSans-63"/>
     <use xlink:href="#DejaVuSans-6f" transform="translate(54.980469 0)"/>
     <use xlink:href="#DejaVuSans-72" transform="translate(116.162109 0)"/>
     <use xlink:href="#DejaVuSans-65" transform="translate(155.025391 0)"/>
    </g>
   </g>
   <g id="patch_11">
    <path d="M 722.705972 164.123101 
Q 743.127111 155.214617 760.986327 147.423742 
" style="fill: none; stroke: #e74c3c; stroke-width: 2.5; stroke-linecap: round"/>
    <path d="M 756.520306 147.189971 
L 760.986327 147.423742 
L 758.119697 150.856297 
" style="fill: none; stroke: #e74c3c; stroke-width: 2.5; stroke-linecap: round"/>
   </g>
   <g id="patch_12">
    <path d="M 580.57274 227.852899 
Q 560.151601 236.761383 542.292385 244.552258 
" style="fill: none; stroke: #e74c3c; stroke-width: 2.5; stroke-linecap: round"/>
    <path d="M 546.758407 244.786029 
L 542.292385 244.552258 
L 545.159015 241.119703 
" style="fill: none; stroke: #e74c3c; stroke-width: 2.5; stroke-linecap: round"/>
   </g>
   <g id="text_20">
    <!-- beam -->
    <g style="fill: #e74c3c" transform="translate(770.324477 137.741125) scale(0.08 -0.08)">
     <defs>
      <path id="DejaVuSans-62" d="M 3116 1747 
Q 3116 2381 2855 2742 
Q 2594 3103 2138 3103 
Q 1681 3103 1420 2742 
Q 1159 2381 1159 1747 
Q 1159 1113 1420 752 
Q 1681 391 2138 391 
Q 2594 391 2855 752 
Q 3116 1113 3116 1747 
z
M 1159 2969 
Q 1341 3281 1617 3432 
Q 1894 3584 2278 3584 
Q 2916 3584 3314 3078 
Q 3713 2572 3713 1747 
Q 3713 922 3314 415 
Q 2916 -91 2278 -91 
Q 1894 -91 1617 61 
Q 1341 213 1159 525 
L 1159 0 
L 581 0 
L 581 4863 
L 1159 4863 
L 1159 2969 
z
" transform="scale(0.015625)"/>
     </defs>
     <use xlink:href="#DejaVuSans-62"/>
     <use xlink:href="#DejaVuSans-65" transform="translate(63.476562 0)"/>
     <use xlink:href="#DejaVuSans-61" transform="translate(125 0)"/>
     <use xlink:href="#DejaVuSans-6d" transform="translate(186.279297 0)"/>
    </g>
   </g>
   <g id="text_21">
    <!-- beam -->
    <g style="fill: #e74c3c" transform="translate(510.257985 262.001125) scale(0.08 -0.08)">
     <use xlink:href="#DejaVuSans-62"/>
     <use xlink:href="#DejaVuSans-65" transform="translate(63.476562 0)"/>
     <use xlink:href="#DejaVuSans-61" transform="translate(125 0)"/>
     <use xlink:href="#DejaVuSans-6d" transform="translate(186.279297 0)"/>
    </g>
   </g>
   <g id="patch_13">
    <path d="M 651.639356 135.741733 
Q 651.639356 114.443033 651.639356 95.939419 
" style="fill: none; stroke: #2c3e50; stroke-width: 2.5; stroke-linecap: round"/>
    <path d="M 649.639356 99.939419 
L 651.639356 95.939419 
L 653.639356 99.939419 
" style="fill: none; stroke: #2c3e50; stroke-width: 2.5; stroke-linecap: round"/>
   </g>
   <g id="text_22">
    <!-- spin -->
    <g style="fill: #2c3e50" transform="translate(661.529783 96.968313) scale(0.08 -0.08)">
     <defs>
      <path id="DejaVuSans-70" d="M 1159 525 
L 1159 -1331 
L 581 -1331 
L 581 3500 
L 1159 3500 
L 1159 2969 
Q 1341 3281 1617 3432 
Q 1894 3584 2278 3584 
Q 2916 3584 3314 3078 
Q 3713 2572 3713 1747 
Q 3713 922 3314 415 
Q 2916 -91 2278 -91 
Q 1894 -91 1617 61 
Q 1341 213 1159 525 
z
M 3116 1747 
Q 3116 2381 2855 2742 
Q 2594 3103 2138 3103 
Q 1681 3103 1420 2742 
Q 1159 2381 1159 1747 
Q 1159 1113 1420 752 
Q 1681 391 2138 391 
Q 2594 391 2855 752 
Q 3116 1113 3116 1747 
z
" transform="scale(0.015625)"/>
     </defs>
     <use xlink:href="#DejaVuSans-73"/>
     <use xlink:href="#DejaVuSans-70" transform="translate(52.099609 0)"/>
     <use xlink:href="#DejaVuSans-69" transform="translate(115.576172 0)"/>
     <use xlink:href="#DejaVuSans-6e" transform="translate(143.359375 0)"/>
    </g>
   </g>
   <g id="text_23">
    <!-- Neutron Star + Pulsar Geometry (schematic) -->
    <g transform="translate(517.021856 61.728) scale(0.12 -0.12)">
     <defs>
      <path id="DejaVuSans-53" d="M 3425 4513 
L 3425 3897 
Q 3066 4069 2747 4153 
Q 2428 4238 2131 4238 
Q 1616 4238 1336 4038 
Q 1056 3838 1056 3469 
Q 1056 3159 1242 3001 
Q 1428 2844 1947 2747 
L 2328 2669 
Q 3034 2534 3370 2195 
Q 3706 1856 3706 1288 
Q 3706 609 3251 259 
Q 2797 -91 1919 -91 
Q 1588 -91 1214 -16 
Q 841 59 441 206 
L 441 856 
Q 825 641 1194 531 
Q 1563 422 1919 422 
Q 2459 422 2753 634 
Q 3047 847 3047 1241 
Q 3047 1584 2836 1778 
Q 2625 1972 2144 2069 
L 1759 2144 
Q 1053 2284 737 2584 
Q 422 2884 422 3419 
Q 422 4038 858 4394 
Q 1294 4750 2059 4750 
Q 2388 4750 2728 4690 
Q 3069 4631 3425 4513 
z
" transform="scale(0.015625)"/>
      <path id="DejaVuSans-2b" d="M 2944 4013 
L 2944 2272 
L 4684 2272 
L 4684 1741 
L 2944 1741 
L 2944 0 
L 2419 0 
L 2419 1741 
L 678 1741 
L 678 2272 
L 2419 2272 
L 2419 4013 
L 2944 4013 
z
" transform="scale(0.015625)"/>
      <path id="DejaVuSans-50" d="M 1259 4147 
L 1259 2394 
L 2053 2394 
Q 2494 2394 2734 2622 
Q 2975 2850 2975 3272 
Q 2975 3691 2734 3919 
Q 2494 4147 2053 4147 
L 1259 4147 
z
M 628 4666 
L 2053 4666 
Q 2838 4666 3239 4311 
Q 3641 3956 3641 3272 
Q 3641 2581 3239 2228 
Q 2838 1875 2053 1875 
L 1259 1875 
L 1259 0 
L 628 0 
L 628 4666 
z
" transform="scale(0.015625)"/>
      <path id="DejaVuSans-47" d="M 3809 666 
L 3809 1919 
L 2778 1919 
L 2778 2438 
L 4434 2438 
L 4434 434 
Q 4069 175 3628 42 
Q 3188 -91 2688 -91 
Q 1594 -91 976 548 
Q 359 1188 359 2328 
Q 359 3472 976 4111 
Q 1594 4750 2688 4750 
Q 3144 4750 3555 4637 
Q 3966 4525 4313 4306 
L 4313 3634 
Q 3963 3931 3569 4081 
Q 3175 4231 2741 4231 
Q 1884 4231 1454 3753 
Q 1025 3275 1025 2328 
Q 1025 1384 1454 906 
Q 1884 428 2741 428 
Q 3075 428 3337 486 
Q 3600 544 3809 666 
z
" transform="scale(0.015625)"/>
      <path id="DejaVuSans-79" d="M 2059 -325 
Q 1816 -950 1584 -1140 
Q 1353 -1331 966 -1331 
L 506 -1331 
L 506 -850 
L 844 -850 
Q 1081 -850 1212 -737 
Q 1344 -625 1503 -206 
L 1606 56 
L 191 3500 
L 800 3500 
L 1894 763 
L 2988 3500 
L 3597 3500 
L 2059 -325 
z
" transform="scale(0.015625)"/>
     </defs>
     <use xlink:href="#DejaVuSans-4e"/>
     <use xlink:href="#DejaVuSans-65" transform="translate(74.804688 0)"/>
     <use xlink:href="#DejaVuSans-75" transform="translate(136.328125 0)"/>
     <use xlink:href="#DejaVuSans-74" transform="translate(199.707031 0)"/>
     <use xlink:href="#DejaVuSans-72" transform="translate(238.916016 0)"/>
     <use xlink:href="#DejaVuSans-6f" transform="translate(277.779297 0)"/>
     <use xlink:href="#DejaVuSans-6e" transform="translate(338.960938 0)"/>
     <use xlink:href="#DejaVuSans-20" transform="translate(402.339844 0)"/>
     <use xlink:href="#DejaVuSans-53" transform="translate(434.126953 0)"/>
     <use xlink:href="#DejaVuSans-74" transform="translate(497.603516 0)"/>
     <use xlink:href="#DejaVuSans-61" transform="translate(536.8125 0)"/>
     <use xlink:href="#DejaVuSans-72" transform="translate(598.091797 0)"/>
     <use xlink:href="#DejaVuSans-20" transform="translate(639.205078 0)"/>
     <use xlink:href="#DejaVuSans-2b" transform="translate(670.992188 0)"/>
     <use xlink:href="#DejaVuSans-20" transform="translate(754.78125 0)"/>
     <use xlink:href="#DejaVuSans-50" transform="translate(786.568359 0)"/>
     <use xlink:href="#DejaVuSans-75" transform="translate(845.121094 0)"/>
     <use xlink:href="#DejaVuSans-6c" transform="translate(908.5 0)"/>
     <use xlink:href="#DejaVuSans-73" transform="translate(936.283203 0)"/>
     <use xlink:href="#DejaVuSans-61" transform="translate(988.382812 0)"/>
     <use xlink:href="#DejaVuSans-72" transform="translate(1049.662109 0)"/>
     <use xlink:href="#DejaVuSans-20" transform="translate(1090.775391 0)"/>
     <use xlink:href="#DejaVuSans-47" transform="translate(1122.5625 0)"/>
     <use xlink:href="#DejaVuSans-65" transform="translate(1200.052734 0)"/>
     <use xlink:href="#DejaVuSans-6f" transform="translate(1261.576172 0)"/>
     <use xlink:href="#DejaVuSans-6d" transform="translate(1322.757812 0)"/>
     <use xlink:href="#DejaVuSans-65" transform="translate(1420.169922 0)"/>
     <use xlink:href="#DejaVuSans-74" transform="translate(1481.693359 0)"/>
     <use xlink:href="#DejaVuSans-72" transform="translate(1520.902344 0)"/>
     <use xlink:href="#DejaVuSans-79" transform="translate(1562.015625 0)"/>
     <use xlink:href="#DejaVuSans-20" transform="translate(1621.195312 0)"/>
     <use xlink:href="#DejaVuSans-28" transform="translate(1652.982422 0)"/>
     <use xlink:href="#DejaVuSans-73" transform="translate(1691.996094 0)"/>
     <use xlink:href="#DejaVuSans-63" transform="translate(1744.095703 0)"/>
     <use xlink:href="#DejaVuSans-68" transform="translate(1799.076172 0)"/>
     <use xlink:href="#DejaVuSans-65" transform="translate(1862.455078 0)"/>
     <use xlink:href="#DejaVuSans-6d" transform="translate(1923.978516 0)"/>
     <use xlink:href="#DejaVuSans-61" transform="translate(2021.390625 0)"/>
     <use xlink:href="#DejaVuSans-74" transform="translate(2082.669922 0)"/>
     <use xlink:href="#DejaVuSans-69" transform="translate(2121.878906 0)"/>
     <use xlink:href="#DejaVuSans-63" transform="translate(2149.662109 0)"/>
     <use xlink:href="#DejaVuSans-29" transform="translate(2204.642578 0)"/>
    </g>
   </g>
  </g>
  <g id="text_24">
   <!-- Compact Objects: White Dwarfs, Neutron Stars, Black Holes -->
   <g transform="translate(218.807891 17.837812) scale(0.14 -0.14)">
    <defs>
     <path id="DejaVuSans-43" d="M 4122 4306 
L 4122 3641 
Q 3803 3938 3442 4084 
Q 3081 4231 2675 4231 
Q 1875 4231 1450 3742 
Q 1025 3253 1025 2328 
Q 1025 1406 1450 917 
Q 1875 428 2675 428 
Q 3081 428 3442 575 
Q 3803 722 4122 1019 
L 4122 359 
Q 3791 134 3420 21 
Q 3050 -91 2638 -91 
Q 1578 -91 968 557 
Q 359 1206 359 2328 
Q 359 3453 968 4101 
Q 1578 4750 2638 4750 
Q 3056 4750 3426 4639 
Q 3797 4528 4122 4306 
z
" transform="scale(0.015625)"/>
     <path id="DejaVuSans-4f" d="M 2522 4238 
Q 1834 4238 1429 3725 
Q 1025 3213 1025 2328 
Q 1025 1447 1429 934 
Q 1834 422 2522 422 
Q 3209 422 3611 934 
Q 4013 1447 4013 2328 
Q 4013 3213 3611 3725 
Q 3209 4238 2522 4238 
z
M 2522 4750 
Q 3503 4750 4090 4092 
Q 4678 3434 4678 2328 
Q 4678 1225 4090 567 
Q 3503 -91 2522 -91 
Q 1538 -91 948 565 
Q 359 1222 359 2328 
Q 359 3434 948 4092 
Q 1538 4750 2522 4750 
z
" transform="scale(0.015625)"/>
     <path id="DejaVuSans-6a" d="M 603 3500 
L 1178 3500 
L 1178 -63 
Q 1178 -731 923 -1031 
Q 669 -1331 103 -1331 
L -116 -1331 
L -116 -844 
L 38 -844 
Q 366 -844 484 -692 
Q 603 -541 603 -63 
L 603 3500 
z
M 603 4863 
L 1178 4863 
L 1178 4134 
L 603 4134 
L 603 4863 
z
" transform="scale(0.015625)"/>
     <path id="DejaVuSans-3a" d="M 750 794 
L 1409 794 
L 1409 0 
L 750 0 
L 750 794 
z
M 750 3309 
L 1409 3309 
L 1409 2516 
L 750 2516 
L 750 3309 
z
" transform="scale(0.015625)"/>
     <path id="DejaVuSans-44" d="M 1259 4147 
L 1259 519 
L 2022 519 
Q 2988 519 3436 956 
Q 3884 1394 3884 2338 
Q 3884 3275 3436 3711 
Q 2988 4147 2022 4147 
L 1259 4147 
z
M 628 4666 
L 1925 4666 
Q 3281 4666 3915 4102 
Q 4550 3538 4550 2338 
Q 4550 1131 3912 565 
Q 3275 0 1925 0 
L 628 0 
L 628 4666 
z
" transform="scale(0.015625)"/>
     <path id="DejaVuSans-48" d="M 628 4666 
L 1259 4666 
L 1259 2753 
L 3553 2753 
L 3553 4666 
L 4184 4666 
L 4184 0 
L 3553 0 
L 3553 2222 
L 1259 2222 
L 1259 0 
L 628 0 
L 628 4666 
z
" transform="scale(0.015625)"/>
    </defs>
    <use xlink:href="#DejaVuSans-43"/>
    <use xlink:href="#DejaVuSans-6f" transform="translate(69.824219 0)"/>
    <use xlink:href="#DejaVuSans-6d" transform="translate(131.005859 0)"/>
    <use xlink:href="#DejaVuSans-70" transform="translate(228.417969 0)"/>
    <use xlink:href="#DejaVuSans-61" transform="translate(291.894531 0)"/>
    <use xlink:href="#DejaVuSans-63" transform="translate(353.173828 0)"/>
    <use xlink:href="#DejaVuSans-74" transform="translate(408.154297 0)"/>
    <use xlink:href="#DejaVuSans-20" transform="translate(447.363281 0)"/>
    <use xlink:href="#DejaVuSans-4f" transform="translate(479.150391 0)"/>
    <use xlink:href="#DejaVuSans-62" transform="translate(557.861328 0)"/>
    <use xlink:href="#DejaVuSans-6a" transform="translate(621.337891 0)"/>
    <use xlink:href="#DejaVuSans-65" transform="translate(649.121094 0)"/>
    <use xlink:href="#DejaVuSans-63" transform="translate(710.644531 0)"/>
    <use xlink:href="#DejaVuSans-74" transform="translate(765.625 0)"/>
    <use xlink:href="#DejaVuSans-73" transform="translate(804.833984 0)"/>
    <use xlink:href="#DejaVuSans-3a" transform="translate(856.933594 0)"/>
    <use xlink:href="#DejaVuSans-20" transform="translate(890.625 0)"/>
    <use xlink:href="#DejaVuSans-57" transform="translate(922.412109 0)"/>
    <use xlink:href="#DejaVuSans-68" transform="translate(1021.289062 0)"/>
    <use xlink:href="#DejaVuSans-69" transform="translate(1084.667969 0)"/>
    <use xlink:href="#DejaVuSans-74" transform="translate(1112.451172 0)"/>
    <use xlink:href="#DejaVuSans-65" transform="translate(1151.660156 0)"/>
    <use xlink:href="#DejaVuSans-20" transform="translate(1213.183594 0)"/>
    <use xlink:href="#DejaVuSans-44" transform="translate(1244.970703 0)"/>
    <use xlink:href="#DejaVuSans-77" transform="translate(1321.972656 0)"/>
    <use xlink:href="#DejaVuSans-61" transform="translate(1403.759766 0)"/>
    <use xlink:href="#DejaVuSans-72" transform="translate(1465.039062 0)"/>
    <use xlink:href="#DejaVuSans-66" transform="translate(1506.152344 0)"/>
    <use xlink:href="#DejaVuSans-73" transform="translate(1541.357422 0)"/>
    <use xlink:href="#DejaVuSans-2c" transform="translate(1593.457031 0)"/>
    <use xlink:href="#DejaVuSans-20" transform="translate(1625.244141 0)"/>
    <use xlink:href="#DejaVuSans-4e" transform="translate(1657.03125 0)"/>
    <use xlink:href="#DejaVuSans-65" transform="translate(1731.835938 0)"/>
    <use xlink:href="#DejaVuSans-75" transform="translate(1793.359375 0)"/>
    <use xlink:href="#DejaVuSans-74" transform="translate(1856.738281 0)"/>
    <use xlink:href="#DejaVuSans-72" transform="translate(1895.947266 0)"/>
    <use xlink:href="#DejaVuSans-6f" transform="translate(1934.810547 0)"/>
    <use xlink:href="#DejaVuSans-6e" transform="translate(1995.992188 0)"/>
    <use xlink:href="#DejaVuSans-20" transform="translate(2059.371094 0)"/>
    <use xlink:href="#DejaVuSans-53" transform="translate(2091.158203 0)"/>
    <use xlink:href="#DejaVuSans-74" transform="translate(2154.634766 0)"/>
    <use xlink:href="#DejaVuSans-61" transform="translate(2193.84375 0)"/>
    <use xlink:href="#DejaVuSans-72" transform="translate(2255.123047 0)"/>
    <use xlink:href="#DejaVuSans-73" transform="translate(2296.236328 0)"/>
    <use xlink:href="#DejaVuSans-2c" transform="translate(2348.335938 0)"/>
    <use xlink:href="#DejaVuSans-20" transform="translate(2380.123047 0)"/>
    <use xlink:href="#DejaVuSans-42" transform="translate(2411.910156 0)"/>
    <use xlink:href="#DejaVuSans-6c" transform="translate(2480.513672 0)"/>
    <use xlink:href="#DejaVuSans-61" transform="translate(2508.296875 0)"/>
    <use xlink:href="#DejaVuSans-63" transform="translate(2569.576172 0)"/>
    <use xlink:href="#DejaVuSans-6b" transform="translate(2624.556641 0)"/>
    <use xlink:href="#DejaVuSans-20" transform="translate(2682.466797 0)"/>
    <use xlink:href="#DejaVuSans-48" transform="translate(2714.253906 0)"/>
    <use xlink:href="#DejaVuSans-6f" transform="translate(2789.449219 0)"/>
    <use xlink:href="#DejaVuSans-6c" transform="translate(2850.630859 0)"/>
    <use xlink:href="#DejaVuSans-65" transform="translate(2878.414062 0)"/>
    <use xlink:href="#DejaVuSans-73" transform="translate(2939.9375 0)"/>
   </g>
  </g>
 </g>
 <defs>
  <clipPath id="pa0b656cf97">
   <rect x="47.41375" y="71.728" width="395.617071" height="248.52"/>
  </clipPath>
  <clipPath id="p19147862d6">
   <rect x="453.830821" y="71.728" width="395.617071" height="248.52"/>
  </clipPath>
 </defs>
</svg>
