<?xml version="1.0" encoding="utf-8" standalone="no"?>
<!DOCTYPE svg PUBLIC "-//W3C//DTD SVG 1.1//EN"
  "http://www.w3.org/Graphics/SVG/1.1/DTD/svg11.dtd">
<svg xmlns:xlink="http://www.w3.org/1999/xlink" width="626.525927pt" height="451.353687pt" viewBox="0 0 626.525927 451.353687" xmlns="http://www.w3.org/2000/svg" version="1.1">
 <metadata>
  <rdf:RDF xmlns:dc="http://purl.org/dc/elements/1.1/" xmlns:cc="http://creativecommons.org/ns#" xmlns:rdf="http://www.w3.org/1999/02/22-rdf-syntax-ns#">
   <cc:Work>
    <dc:type rdf:resource="http://purl.org/dc/dcmitype/StillImage"/>
    <dc:date>2026-01-02T19:17:50.572451</dc:date>
    <dc:format>image/svg+xml</dc:format>
    <dc:creator>
     <cc:Agent>
      <dc:title>Matplotlib v3.10.8, https://matplotlib.org/</dc:title>
     </cc:Agent>
    </dc:creator>
   </cc:Work>
  </rdf:RDF>
 </metadata>
 <defs>
  <style type="text/css">*{stroke-linejoin: round; stroke-linecap: butt}</style>
 </defs>
 <g id="figure_1">
  <g id="patch_1">
   <path d="M 0 451.353687 
L 626.525927 451.353687 
L 626.525927 0 
L 0 0 
z
" style="fill: #ffffff"/>
  </g>
  <g id="axes_1">
   <g id="patch_2">
    <path d="M 53.31375 411.861812 
L 619.325927 411.861812 
L 619.325927 29.837812 
L 53.31375 29.837812 
z
" style="fill: #ffffff"/>
   </g>
   <g id="matplotlib.axis_1">
    <g id="xtick_1">
     <g id="line2d_1">
      <path d="M 79.041576 411.861812 
L 79.041576 29.837812 
" clip-path="url(#p99bd70838e)" style="fill: none; stroke: #ecf0f1; stroke-linecap: square"/>
     </g>
     <g id="line2d_2">
      <defs>
       <path id="m50f61299b6" d="M 0 0 
L 0 3.5 
" style="stroke: #000000; stroke-width: 0.8"/>
      </defs>
      <g>
       <use xlink:href="#m50f61299b6" x="79.041576" y="411.861812" style="stroke: #000000; stroke-width: 0.8"/>
      </g>
     </g>
     <g id="text_1">
      <!-- $\mathdefault{10^{-1}}$ -->
      <g transform="translate(67.291576 426.46025) scale(0.1 -0.1)">
       <defs>
        <path id="DejaVuSans-31" d="M 794 531 
L 1825 531 
L 1825 4091 
L 703 3866 
L 703 4441 
L 1819 4666 
L 2450 4666 
L 2450 531 
L 3481 531 
L 3481 0 
L 794 0 
L 794 531 
z
" transform="scale(0.015625)"/>
        <path id="DejaVuSans-30" d="M 2034 4250 
Q 1547 4250 1301 3770 
Q 1056 3291 1056 2328 
Q 1056 1369 1301 889 
Q 1547 409 2034 409 
Q 2525 409 2770 889 
Q 3016 1369 3016 2328 
Q 3016 3291 2770 3770 
Q 2525 4250 2034 4250 
z
M 2034 4750 
Q 2819 4750 3233 4129 
Q 3647 3509 3647 2328 
Q 3647 1150 3233 529 
Q 2819 -91 2034 -91 
Q 1250 -91 836 529 
Q 422 1150 422 2328 
Q 422 3509 836 4129 
Q 1250 4750 2034 4750 
z
" transform="scale(0.015625)"/>
        <path id="DejaVuSans-2212" d="M 678 2272 
L 4684 2272 
L 4684 1741 
L 678 1741 
L 678 2272 
z
" transform="scale(0.015625)"/>
       </defs>
       <use xlink:href="#DejaVuSans-31" transform="translate(0 0.684375)"/>
       <use xlink:href="#DejaVuSans-30" transform="translate(63.623047 0.684375)"/>
       <use xlink:href="#DejaVuSans-2212" transform="translate(128.203125 38.965625) scale(0.7)"/>
       <use xlink:href="#DejaVuSans-31" transform="translate(186.855469 38.965625) scale(0.7)"/>
      </g>
     </g>
    </g>
    <g id="xtick_2">
     <g id="line2d_3">
      <path d="M 264.257023 411.861812 
L 264.257023 29.837812 
" clip-path="url(#p99bd70838e)" style="fill: none; stroke: #ecf0f1; stroke-linecap: square"/>
     </g>
     <g id="line2d_4">
      <g>
       <use xlink:href="#m50f61299b6" x="264.257023" y="411.861812" style="stroke: #000000; stroke-width: 0.8"/>
      </g>
     </g>
     <g id="text_2">
      <!-- $\mathdefault{10^{0}}$ -->
      <g transform="translate(255.457023 426.46025) scale(0.1 -0.1)">
       <use xlink:href="#DejaVuSans-31" transform="translate(0 0.765625)"/>
       <use xlink:href="#DejaVuSans-30" transform="translate(63.623047 0.765625)"/>
       <use xlink:href="#DejaVuSans-30" transform="translate(128.203125 39.046875) scale(0.7)"/>
      </g>
     </g>
    </g>
    <g id="xtick_3">
     <g id="line2d_5">
      <path d="M 449.472469 411.861812 
L 449.472469 29.837812 
" clip-path="url(#p99bd70838e)" style="fill: none; stroke: #ecf0f1; stroke-linecap: square"/>
     </g>
     <g id="line2d_6">
      <g>
       <use xlink:href="#m50f61299b6" x="449.472469" y="411.861812" style="stroke: #000000; stroke-width: 0.8"/>
      </g>
     </g>
     <g id="text_3">
      <!-- $\mathdefault{10^{1}}$ -->
      <g transform="translate(440.672469 426.46025) scale(0.1 -0.1)">
       <use xlink:href="#DejaVuSans-31" transform="translate(0 0.684375)"/>
       <use xlink:href="#DejaVuSans-30" transform="translate(63.623047 0.684375)"/>
       <use xlink:href="#DejaVuSans-31" transform="translate(128.203125 38.965625) scale(0.7)"/>
      </g>
     </g>
    </g>
    <g id="xtick_4">
     <g id="line2d_7">
      <path d="M 61.092345 411.861812 
L 61.092345 29.837812 
" clip-path="url(#p99bd70838e)" style="fill: none; stroke: #ecf0f1; stroke-linecap: square"/>
     </g>
     <g id="line2d_8">
      <defs>
       <path id="m9f08176921" d="M 0 0 
L 0 2 
" style="stroke: #000000; stroke-width: 0.6"/>
      </defs>
      <g>
       <use xlink:href="#m9f08176921" x="61.092345" y="411.861812" style="stroke: #000000; stroke-width: 0.6"/>
      </g>
     </g>
    </g>
    <g id="xtick_5">
     <g id="line2d_9">
      <path d="M 70.566582 411.861812 
L 70.566582 29.837812 
" clip-path="url(#p99bd70838e)" style="fill: none; stroke: #ecf0f1; stroke-linecap: square"/>
     </g>
     <g id="line2d_10">
      <g>
       <use xlink:href="#m9f08176921" x="70.566582" y="411.861812" style="stroke: #000000; stroke-width: 0.6"/>
      </g>
     </g>
    </g>
    <g id="xtick_6">
     <g id="line2d_11">
      <path d="M 134.796981 411.861812 
L 134.796981 29.837812 
" clip-path="url(#p99bd70838e)" style="fill: none; stroke: #ecf0f1; stroke-linecap: square"/>
     </g>
     <g id="line2d_12">
      <g>
       <use xlink:href="#m9f08176921" x="134.796981" y="411.861812" style="stroke: #000000; stroke-width: 0.6"/>
      </g>
     </g>
    </g>
    <g id="xtick_7">
     <g id="line2d_13">
      <path d="M 167.411802 411.861812 
L 167.411802 29.837812 
" clip-path="url(#p99bd70838e)" style="fill: none; stroke: #ecf0f1; stroke-linecap: square"/>
     </g>
     <g id="line2d_14">
      <g>
       <use xlink:href="#m9f08176921" x="167.411802" y="411.861812" style="stroke: #000000; stroke-width: 0.6"/>
      </g>
     </g>
    </g>
    <g id="xtick_8">
     <g id="line2d_15">
      <path d="M 190.552386 411.861812 
L 190.552386 29.837812 
" clip-path="url(#p99bd70838e)" style="fill: none; stroke: #ecf0f1; stroke-linecap: square"/>
     </g>
     <g id="line2d_16">
      <g>
       <use xlink:href="#m9f08176921" x="190.552386" y="411.861812" style="stroke: #000000; stroke-width: 0.6"/>
      </g>
     </g>
    </g>
    <g id="xtick_9">
     <g id="line2d_17">
      <path d="M 208.501618 411.861812 
L 208.501618 29.837812 
" clip-path="url(#p99bd70838e)" style="fill: none; stroke: #ecf0f1; stroke-linecap: square"/>
     </g>
     <g id="line2d_18">
      <g>
       <use xlink:href="#m9f08176921" x="208.501618" y="411.861812" style="stroke: #000000; stroke-width: 0.6"/>
      </g>
     </g>
    </g>
    <g id="xtick_10">
     <g id="line2d_19">
      <path d="M 223.167207 411.861812 
L 223.167207 29.837812 
" clip-path="url(#p99bd70838e)" style="fill: none; stroke: #ecf0f1; stroke-linecap: square"/>
     </g>
     <g id="line2d_20">
      <g>
       <use xlink:href="#m9f08176921" x="223.167207" y="411.861812" style="stroke: #000000; stroke-width: 0.6"/>
      </g>
     </g>
    </g>
    <g id="xtick_11">
     <g id="line2d_21">
      <path d="M 235.566787 411.861812 
L 235.566787 29.837812 
" clip-path="url(#p99bd70838e)" style="fill: none; stroke: #ecf0f1; stroke-linecap: square"/>
     </g>
     <g id="line2d_22">
      <g>
       <use xlink:href="#m9f08176921" x="235.566787" y="411.861812" style="stroke: #000000; stroke-width: 0.6"/>
      </g>
     </g>
    </g>
    <g id="xtick_12">
     <g id="line2d_23">
      <path d="M 246.307791 411.861812 
L 246.307791 29.837812 
" clip-path="url(#p99bd70838e)" style="fill: none; stroke: #ecf0f1; stroke-linecap: square"/>
     </g>
     <g id="line2d_24">
      <g>
       <use xlink:href="#m9f08176921" x="246.307791" y="411.861812" style="stroke: #000000; stroke-width: 0.6"/>
      </g>
     </g>
    </g>
    <g id="xtick_13">
     <g id="line2d_25">
      <path d="M 255.782029 411.861812 
L 255.782029 29.837812 
" clip-path="url(#p99bd70838e)" style="fill: none; stroke: #ecf0f1; stroke-linecap: square"/>
     </g>
     <g id="line2d_26">
      <g>
       <use xlink:href="#m9f08176921" x="255.782029" y="411.861812" style="stroke: #000000; stroke-width: 0.6"/>
      </g>
     </g>
    </g>
    <g id="xtick_14">
     <g id="line2d_27">
      <path d="M 320.012428 411.861812 
L 320.012428 29.837812 
" clip-path="url(#p99bd70838e)" style="fill: none; stroke: #ecf0f1; stroke-linecap: square"/>
     </g>
     <g id="line2d_28">
      <g>
       <use xlink:href="#m9f08176921" x="320.012428" y="411.861812" style="stroke: #000000; stroke-width: 0.6"/>
      </g>
     </g>
    </g>
    <g id="xtick_15">
     <g id="line2d_29">
      <path d="M 352.627249 411.861812 
L 352.627249 29.837812 
" clip-path="url(#p99bd70838e)" style="fill: none; stroke: #ecf0f1; stroke-linecap: square"/>
     </g>
     <g id="line2d_30">
      <g>
       <use xlink:href="#m9f08176921" x="352.627249" y="411.861812" style="stroke: #000000; stroke-width: 0.6"/>
      </g>
     </g>
    </g>
    <g id="xtick_16">
     <g id="line2d_31">
      <path d="M 375.767833 411.861812 
L 375.767833 29.837812 
" clip-path="url(#p99bd70838e)" style="fill: none; stroke: #ecf0f1; stroke-linecap: square"/>
     </g>
     <g id="line2d_32">
      <g>
       <use xlink:href="#m9f08176921" x="375.767833" y="411.861812" style="stroke: #000000; stroke-width: 0.6"/>
      </g>
     </g>
    </g>
    <g id="xtick_17">
     <g id="line2d_33">
      <path d="M 393.717064 411.861812 
L 393.717064 29.837812 
" clip-path="url(#p99bd70838e)" style="fill: none; stroke: #ecf0f1; stroke-linecap: square"/>
     </g>
     <g id="line2d_34">
      <g>
       <use xlink:href="#m9f08176921" x="393.717064" y="411.861812" style="stroke: #000000; stroke-width: 0.6"/>
      </g>
     </g>
    </g>
    <g id="xtick_18">
     <g id="line2d_35">
      <path d="M 408.382654 411.861812 
L 408.382654 29.837812 
" clip-path="url(#p99bd70838e)" style="fill: none; stroke: #ecf0f1; stroke-linecap: square"/>
     </g>
     <g id="line2d_36">
      <g>
       <use xlink:href="#m9f08176921" x="408.382654" y="411.861812" style="stroke: #000000; stroke-width: 0.6"/>
      </g>
     </g>
    </g>
    <g id="xtick_19">
     <g id="line2d_37">
      <path d="M 420.782233 411.861812 
L 420.782233 29.837812 
" clip-path="url(#p99bd70838e)" style="fill: none; stroke: #ecf0f1; stroke-linecap: square"/>
     </g>
     <g id="line2d_38">
      <g>
       <use xlink:href="#m9f08176921" x="420.782233" y="411.861812" style="stroke: #000000; stroke-width: 0.6"/>
      </g>
     </g>
    </g>
    <g id="xtick_20">
     <g id="line2d_39">
      <path d="M 431.523238 411.861812 
L 431.523238 29.837812 
" clip-path="url(#p99bd70838e)" style="fill: none; stroke: #ecf0f1; stroke-linecap: square"/>
     </g>
     <g id="line2d_40">
      <g>
       <use xlink:href="#m9f08176921" x="431.523238" y="411.861812" style="stroke: #000000; stroke-width: 0.6"/>
      </g>
     </g>
    </g>
    <g id="xtick_21">
     <g id="line2d_41">
      <path d="M 440.997475 411.861812 
L 440.997475 29.837812 
" clip-path="url(#p99bd70838e)" style="fill: none; stroke: #ecf0f1; stroke-linecap: square"/>
     </g>
     <g id="line2d_42">
      <g>
       <use xlink:href="#m9f08176921" x="440.997475" y="411.861812" style="stroke: #000000; stroke-width: 0.6"/>
      </g>
     </g>
    </g>
    <g id="xtick_22">
     <g id="line2d_43">
      <path d="M 505.227874 411.861812 
L 505.227874 29.837812 
" clip-path="url(#p99bd70838e)" style="fill: none; stroke: #ecf0f1; stroke-linecap: square"/>
     </g>
     <g id="line2d_44">
      <g>
       <use xlink:href="#m9f08176921" x="505.227874" y="411.861812" style="stroke: #000000; stroke-width: 0.6"/>
      </g>
     </g>
    </g>
    <g id="xtick_23">
     <g id="line2d_45">
      <path d="M 537.842695 411.861812 
L 537.842695 29.837812 
" clip-path="url(#p99bd70838e)" style="fill: none; stroke: #ecf0f1; stroke-linecap: square"/>
     </g>
     <g id="line2d_46">
      <g>
       <use xlink:href="#m9f08176921" x="537.842695" y="411.861812" style="stroke: #000000; stroke-width: 0.6"/>
      </g>
     </g>
    </g>
    <g id="xtick_24">
     <g id="line2d_47">
      <path d="M 560.983279 411.861812 
L 560.983279 29.837812 
" clip-path="url(#p99bd70838e)" style="fill: none; stroke: #ecf0f1; stroke-linecap: square"/>
     </g>
     <g id="line2d_48">
      <g>
       <use xlink:href="#m9f08176921" x="560.983279" y="411.861812" style="stroke: #000000; stroke-width: 0.6"/>
      </g>
     </g>
    </g>
    <g id="xtick_25">
     <g id="line2d_49">
      <path d="M 578.932511 411.861812 
L 578.932511 29.837812 
" clip-path="url(#p99bd70838e)" style="fill: none; stroke: #ecf0f1; stroke-linecap: square"/>
     </g>
     <g id="line2d_50">
      <g>
       <use xlink:href="#m9f08176921" x="578.932511" y="411.861812" style="stroke: #000000; stroke-width: 0.6"/>
      </g>
     </g>
    </g>
    <g id="xtick_26">
     <g id="line2d_51">
      <path d="M 593.5981 411.861812 
L 593.5981 29.837812 
" clip-path="url(#p99bd70838e)" style="fill: none; stroke: #ecf0f1; stroke-linecap: square"/>
     </g>
     <g id="line2d_52">
      <g>
       <use xlink:href="#m9f08176921" x="593.5981" y="411.861812" style="stroke: #000000; stroke-width: 0.6"/>
      </g>
     </g>
    </g>
    <g id="xtick_27">
     <g id="line2d_53">
      <path d="M 605.99768 411.861812 
L 605.99768 29.837812 
" clip-path="url(#p99bd70838e)" style="fill: none; stroke: #ecf0f1; stroke-linecap: square"/>
     </g>
     <g id="line2d_54">
      <g>
       <use xlink:href="#m9f08176921" x="605.99768" y="411.861812" style="stroke: #000000; stroke-width: 0.6"/>
      </g>
     </g>
    </g>
    <g id="xtick_28">
     <g id="line2d_55">
      <path d="M 616.738684 411.861812 
L 616.738684 29.837812 
" clip-path="url(#p99bd70838e)" style="fill: none; stroke: #ecf0f1; stroke-linecap: square"/>
     </g>
     <g id="line2d_56">
      <g>
       <use xlink:href="#m9f08176921" x="616.738684" y="411.861812" style="stroke: #000000; stroke-width: 0.6"/>
      </g>
     </g>
    </g>
    <g id="text_4">
     <!-- Mass (M☉) -->
     <g transform="translate(304.069838 441.658062) scale(0.12 -0.12)">
      <defs>
       <path id="DejaVuSans-4d" d="M 628 4666 
L 1569 4666 
L 2759 1491 
L 3956 4666 
L 4897 4666 
L 4897 0 
L 4281 0 
L 4281 4097 
L 3078 897 
L 2444 897 
L 1241 4097 
L 1241 0 
L 628 0 
L 628 4666 
z
" transform="scale(0.015625)"/>
       <path id="DejaVuSans-61" d="M 2194 1759 
Q 1497 1759 1228 1600 
Q 959 1441 959 1056 
Q 959 750 1161 570 
Q 1363 391 1709 391 
Q 2188 391 2477 730 
Q 2766 1069 2766 1631 
L 2766 1759 
L 2194 1759 
z
M 3341 1997 
L 3341 0 
L 2766 0 
L 2766 531 
Q 2569 213 2275 61 
Q 1981 -91 1556 -91 
Q 1019 -91 701 211 
Q 384 513 384 1019 
Q 384 1609 779 1909 
Q 1175 2209 1959 2209 
L 2766 2209 
L 2766 2266 
Q 2766 2663 2505 2880 
Q 2244 3097 1772 3097 
Q 1472 3097 1187 3025 
Q 903 2953 641 2809 
L 641 3341 
Q 956 3463 1253 3523 
Q 1550 3584 1831 3584 
Q 2591 3584 2966 3190 
Q 3341 2797 3341 1997 
z
" transform="scale(0.015625)"/>
       <path id="DejaVuSans-73" d="M 2834 3397 
L 2834 2853 
Q 2591 2978 2328 3040 
Q 2066 3103 1784 3103 
Q 1356 3103 1142 2972 
Q 928 2841 928 2578 
Q 928 2378 1081 2264 
Q 1234 2150 1697 2047 
L 1894 2003 
Q 2506 1872 2764 1633 
Q 3022 1394 3022 966 
Q 3022 478 2636 193 
Q 2250 -91 1575 -91 
Q 1294 -91 989 -36 
Q 684 19 347 128 
L 347 722 
Q 666 556 975 473 
Q 1284 391 1588 391 
Q 1994 391 2212 530 
Q 2431 669 2431 922 
Q 2431 1156 2273 1281 
Q 2116 1406 1581 1522 
L 1381 1569 
Q 847 1681 609 1914 
Q 372 2147 372 2553 
Q 372 3047 722 3315 
Q 1072 3584 1716 3584 
Q 2034 3584 2315 3537 
Q 2597 3491 2834 3397 
z
" transform="scale(0.015625)"/>
       <path id="DejaVuSans-20" transform="scale(0.015625)"/>
       <path id="DejaVuSans-28" d="M 1984 4856 
Q 1566 4138 1362 3434 
Q 1159 2731 1159 2009 
Q 1159 1288 1364 580 
Q 1569 -128 1984 -844 
L 1484 -844 
Q 1016 -109 783 600 
Q 550 1309 550 2009 
Q 550 2706 781 3412 
Q 1013 4119 1484 4856 
L 1984 4856 
z
" transform="scale(0.015625)"/>
       <path id="DejaVuSans-2609" d="M 5206 2338 
Q 5206 1366 4522 683 
Q 3838 0 2866 0 
Q 1900 0 1215 683 
Q 531 1366 531 2338 
Q 531 2944 845 3508 
Q 1159 4072 1721 4373 
Q 2284 4675 2866 4675 
Q 3456 4675 4018 4373 
Q 4581 4072 4893 3511 
Q 5206 2950 5206 2338 
z
M 759 2338 
Q 759 1463 1375 848 
Q 1991 234 2866 234 
Q 3741 234 4356 848 
Q 4972 1463 4972 2338 
Q 4972 2891 4690 3394 
Q 4409 3897 3903 4169 
Q 3397 4441 2865 4441 
Q 2334 4441 1828 4169 
Q 1322 3897 1040 3394 
Q 759 2891 759 2338 
z
M 3453 2338 
Q 3453 2094 3283 1923 
Q 3113 1753 2869 1753 
Q 2628 1753 2456 1923 
Q 2284 2094 2284 2338 
Q 2284 2491 2362 2631 
Q 2441 2772 2581 2847 
Q 2722 2922 2869 2922 
Q 3016 2922 3156 2847 
Q 3297 2772 3375 2631 
Q 3453 2491 3453 2338 
z
" transform="scale(0.015625)"/>
       <path id="DejaVuSans-29" d="M 513 4856 
L 1013 4856 
Q 1481 4119 1714 3412 
Q 1947 2706 1947 2009 
Q 1947 1309 1714 600 
Q 1481 -109 1013 -844 
L 513 -844 
Q 928 -128 1133 580 
Q 1338 1288 1338 2009 
Q 1338 2731 1133 3434 
Q 928 4138 513 4856 
z
" transform="scale(0.015625)"/>
      </defs>
      <use xlink:href="#DejaVuSans-4d"/>
      <use xlink:href="#DejaVuSans-61" transform="translate(86.279297 0)"/>
      <use xlink:href="#DejaVuSans-73" transform="translate(147.558594 0)"/>
      <use xlink:href="#DejaVuSans-73" transform="translate(199.658203 0)"/>
      <use xlink:href="#DejaVuSans-20" transform="translate(251.757812 0)"/>
      <use xlink:href="#DejaVuSans-28" transform="translate(283.544922 0)"/>
      <use xlink:href="#DejaVuSans-4d" transform="translate(322.558594 0)"/>
      <use xlink:href="#DejaVuSans-2609" transform="translate(408.837891 0)"/>
      <use xlink:href="#DejaVuSans-29" transform="translate(498.486328 0)"/>
     </g>
    </g>
   </g>
   <g id="matplotlib.axis_2">
    <g id="ytick_1">
     <g id="line2d_57">
      <path d="M 53.31375 340.921701 
L 619.325927 340.921701 
" clip-path="url(#p99bd70838e)" style="fill: none; stroke: #ecf0f1; stroke-linecap: square"/>
     </g>
     <g id="line2d_58">
      <defs>
       <path id="mc99b29abaf" d="M 0 0 
L -3.5 0 
" style="stroke: #000000; stroke-width: 0.8"/>
      </defs>
      <g>
       <use xlink:href="#mc99b29abaf" x="53.31375" y="340.921701" style="stroke: #000000; stroke-width: 0.8"/>
      </g>
     </g>
     <g id="text_5">
      <!-- $\mathdefault{10^{-2}}$ -->
      <g transform="translate(22.81375 344.72092) scale(0.1 -0.1)">
       <defs>
        <path id="DejaVuSans-32" d="M 1228 531 
L 3431 531 
L 3431 0 
L 469 0 
L 469 531 
Q 828 903 1448 1529 
Q 2069 2156 2228 2338 
Q 2531 2678 2651 2914 
Q 2772 3150 2772 3378 
Q 2772 3750 2511 3984 
Q 2250 4219 1831 4219 
Q 1534 4219 1204 4116 
Q 875 4013 500 3803 
L 500 4441 
Q 881 4594 1212 4672 
Q 1544 4750 1819 4750 
Q 2544 4750 2975 4387 
Q 3406 4025 3406 3419 
Q 3406 3131 3298 2873 
Q 3191 2616 2906 2266 
Q 2828 2175 2409 1742 
Q 1991 1309 1228 531 
z
" transform="scale(0.015625)"/>
       </defs>
       <use xlink:href="#DejaVuSans-31" transform="translate(0 0.765625)"/>
       <use xlink:href="#DejaVuSans-30" transform="translate(63.623047 0.765625)"/>
       <use xlink:href="#DejaVuSans-2212" transform="translate(128.203125 39.046875) scale(0.7)"/>
       <use xlink:href="#DejaVuSans-32" transform="translate(186.855469 39.046875) scale(0.7)"/>
      </g>
     </g>
    </g>
    <g id="ytick_2">
     <g id="line2d_59">
      <path d="M 53.31375 269.487856 
L 619.325927 269.487856 
" clip-path="url(#p99bd70838e)" style="fill: none; stroke: #ecf0f1; stroke-linecap: square"/>
     </g>
     <g id="line2d_60">
      <g>
       <use xlink:href="#mc99b29abaf" x="53.31375" y="269.487856" style="stroke: #000000; stroke-width: 0.8"/>
      </g>
     </g>
     <g id="text_6">
      <!-- $\mathdefault{10^{0}}$ -->
      <g transform="translate(28.71375 273.287075) scale(0.1 -0.1)">
       <use xlink:href="#DejaVuSans-31" transform="translate(0 0.765625)"/>
       <use xlink:href="#DejaVuSans-30" transform="translate(63.623047 0.765625)"/>
       <use xlink:href="#DejaVuSans-30" transform="translate(128.203125 39.046875) scale(0.7)"/>
      </g>
     </g>
    </g>
    <g id="ytick_3">
     <g id="line2d_61">
      <path d="M 53.31375 198.054011 
L 619.325927 198.054011 
" clip-path="url(#p99bd70838e)" style="fill: none; stroke: #ecf0f1; stroke-linecap: square"/>
     </g>
     <g id="line2d_62">
      <g>
       <use xlink:href="#mc99b29abaf" x="53.31375" y="198.054011" style="stroke: #000000; stroke-width: 0.8"/>
      </g>
     </g>
     <g id="text_7">
      <!-- $\mathdefault{10^{2}}$ -->
      <g transform="translate(28.71375 201.85323) scale(0.1 -0.1)">
       <use xlink:href="#DejaVuSans-31" transform="translate(0 0.765625)"/>
       <use xlink:href="#DejaVuSans-30" transform="translate(63.623047 0.765625)"/>
       <use xlink:href="#DejaVuSans-32" transform="translate(128.203125 39.046875) scale(0.7)"/>
      </g>
     </g>
    </g>
    <g id="ytick_4">
     <g id="line2d_63">
      <path d="M 53.31375 126.620166 
L 619.325927 126.620166 
" clip-path="url(#p99bd70838e)" style="fill: none; stroke: #ecf0f1; stroke-linecap: square"/>
     </g>
     <g id="line2d_64">
      <g>
       <use xlink:href="#mc99b29abaf" x="53.31375" y="126.620166" style="stroke: #000000; stroke-width: 0.8"/>
      </g>
     </g>
     <g id="text_8">
      <!-- $\mathdefault{10^{4}}$ -->
      <g transform="translate(28.71375 130.419385) scale(0.1 -0.1)">
       <defs>
        <path id="DejaVuSans-34" d="M 2419 4116 
L 825 1625 
L 2419 1625 
L 2419 4116 
z
M 2253 4666 
L 3047 4666 
L 3047 1625 
L 3713 1625 
L 3713 1100 
L 3047 1100 
L 3047 0 
L 2419 0 
L 2419 1100 
L 313 1100 
L 313 1709 
L 2253 4666 
z
" transform="scale(0.015625)"/>
       </defs>
       <use xlink:href="#DejaVuSans-31" transform="translate(0 0.684375)"/>
       <use xlink:href="#DejaVuSans-30" transform="translate(63.623047 0.684375)"/>
       <use xlink:href="#DejaVuSans-34" transform="translate(128.203125 38.965625) scale(0.7)"/>
      </g>
     </g>
    </g>
    <g id="ytick_5">
     <g id="line2d_65">
      <path d="M 53.31375 55.186321 
L 619.325927 55.186321 
" clip-path="url(#p99bd70838e)" style="fill: none; stroke: #ecf0f1; stroke-linecap: square"/>
     </g>
     <g id="line2d_66">
      <g>
       <use xlink:href="#mc99b29abaf" x="53.31375" y="55.186321" style="stroke: #000000; stroke-width: 0.8"/>
      </g>
     </g>
     <g id="text_9">
      <!-- $\mathdefault{10^{6}}$ -->
      <g transform="translate(28.71375 58.98554) scale(0.1 -0.1)">
       <defs>
        <path id="DejaVuSans-36" d="M 2113 2584 
Q 1688 2584 1439 2293 
Q 1191 2003 1191 1497 
Q 1191 994 1439 701 
Q 1688 409 2113 409 
Q 2538 409 2786 701 
Q 3034 994 3034 1497 
Q 3034 2003 2786 2293 
Q 2538 2584 2113 2584 
z
M 3366 4563 
L 3366 3988 
Q 3128 4100 2886 4159 
Q 2644 4219 2406 4219 
Q 1781 4219 1451 3797 
Q 1122 3375 1075 2522 
Q 1259 2794 1537 2939 
Q 1816 3084 2150 3084 
Q 2853 3084 3261 2657 
Q 3669 2231 3669 1497 
Q 3669 778 3244 343 
Q 2819 -91 2113 -91 
Q 1303 -91 875 529 
Q 447 1150 447 2328 
Q 447 3434 972 4092 
Q 1497 4750 2381 4750 
Q 2619 4750 2861 4703 
Q 3103 4656 3366 4563 
z
" transform="scale(0.015625)"/>
       </defs>
       <use xlink:href="#DejaVuSans-31" transform="translate(0 0.765625)"/>
       <use xlink:href="#DejaVuSans-30" transform="translate(63.623047 0.765625)"/>
       <use xlink:href="#DejaVuSans-36" transform="translate(128.203125 39.046875) scale(0.7)"/>
      </g>
     </g>
    </g>
    <g id="text_10">
     <!-- Luminosity (L☉) -->
     <g transform="translate(16.318125 268.882625) rotate(-90) scale(0.12 -0.12)">
      <defs>
       <path id="DejaVuSans-4c" d="M 628 4666 
L 1259 4666 
L 1259 531 
L 3531 531 
L 3531 0 
L 628 0 
L 628 4666 
z
" transform="scale(0.015625)"/>
       <path id="DejaVuSans-75" d="M 544 1381 
L 544 3500 
L 1119 3500 
L 1119 1403 
Q 1119 906 1312 657 
Q 1506 409 1894 409 
Q 2359 409 2629 706 
Q 2900 1003 2900 1516 
L 2900 3500 
L 3475 3500 
L 3475 0 
L 2900 0 
L 2900 538 
Q 2691 219 2414 64 
Q 2138 -91 1772 -91 
Q 1169 -91 856 284 
Q 544 659 544 1381 
z
M 1991 3584 
L 1991 3584 
z
" transform="scale(0.015625)"/>
       <path id="DejaVuSans-6d" d="M 3328 2828 
Q 3544 3216 3844 3400 
Q 4144 3584 4550 3584 
Q 5097 3584 5394 3201 
Q 5691 2819 5691 2113 
L 5691 0 
L 5113 0 
L 5113 2094 
Q 5113 2597 4934 2840 
Q 4756 3084 4391 3084 
Q 3944 3084 3684 2787 
Q 3425 2491 3425 1978 
L 3425 0 
L 2847 0 
L 2847 2094 
Q 2847 2600 2669 2842 
Q 2491 3084 2119 3084 
Q 1678 3084 1418 2786 
Q 1159 2488 1159 1978 
L 1159 0 
L 581 0 
L 581 3500 
L 1159 3500 
L 1159 2956 
Q 1356 3278 1631 3431 
Q 1906 3584 2284 3584 
Q 2666 3584 2933 3390 
Q 3200 3197 3328 2828 
z
" transform="scale(0.015625)"/>
       <path id="DejaVuSans-69" d="M 603 3500 
L 1178 3500 
L 1178 0 
L 603 0 
L 603 3500 
z
M 603 4863 
L 1178 4863 
L 1178 4134 
L 603 4134 
L 603 4863 
z
" transform="scale(0.015625)"/>
       <path id="DejaVuSans-6e" d="M 3513 2113 
L 3513 0 
L 2938 0 
L 2938 2094 
Q 2938 2591 2744 2837 
Q 2550 3084 2163 3084 
Q 1697 3084 1428 2787 
Q 1159 2491 1159 1978 
L 1159 0 
L 581 0 
L 581 3500 
L 1159 3500 
L 1159 2956 
Q 1366 3272 1645 3428 
Q 1925 3584 2291 3584 
Q 2894 3584 3203 3211 
Q 3513 2838 3513 2113 
z
" transform="scale(0.015625)"/>
       <path id="DejaVuSans-6f" d="M 1959 3097 
Q 1497 3097 1228 2736 
Q 959 2375 959 1747 
Q 959 1119 1226 758 
Q 1494 397 1959 397 
Q 2419 397 2687 759 
Q 2956 1122 2956 1747 
Q 2956 2369 2687 2733 
Q 2419 3097 1959 3097 
z
M 1959 3584 
Q 2709 3584 3137 3096 
Q 3566 2609 3566 1747 
Q 3566 888 3137 398 
Q 2709 -91 1959 -91 
Q 1206 -91 779 398 
Q 353 888 353 1747 
Q 353 2609 779 3096 
Q 1206 3584 1959 3584 
z
" transform="scale(0.015625)"/>
       <path id="DejaVuSans-74" d="M 1172 4494 
L 1172 3500 
L 2356 3500 
L 2356 3053 
L 1172 3053 
L 1172 1153 
Q 1172 725 1289 603 
Q 1406 481 1766 481 
L 2356 481 
L 2356 0 
L 1766 0 
Q 1100 0 847 248 
Q 594 497 594 1153 
L 594 3053 
L 172 3053 
L 172 3500 
L 594 3500 
L 594 4494 
L 1172 4494 
z
" transform="scale(0.015625)"/>
       <path id="DejaVuSans-79" d="M 2059 -325 
Q 1816 -950 1584 -1140 
Q 1353 -1331 966 -1331 
L 506 -1331 
L 506 -850 
L 844 -850 
Q 1081 -850 1212 -737 
Q 1344 -625 1503 -206 
L 1606 56 
L 191 3500 
L 800 3500 
L 1894 763 
L 2988 3500 
L 3597 3500 
L 2059 -325 
z
" transform="scale(0.015625)"/>
      </defs>
      <use xlink:href="#DejaVuSans-4c"/>
      <use xlink:href="#DejaVuSans-75" transform="translate(53.962891 0)"/>
      <use xlink:href="#DejaVuSans-6d" transform="translate(117.341797 0)"/>
      <use xlink:href="#DejaVuSans-69" transform="translate(214.753906 0)"/>
      <use xlink:href="#DejaVuSans-6e" transform="translate(242.537109 0)"/>
      <use xlink:href="#DejaVuSans-6f" transform="translate(305.916016 0)"/>
      <use xlink:href="#DejaVuSans-73" transform="translate(367.097656 0)"/>
      <use xlink:href="#DejaVuSans-69" transform="translate(419.197266 0)"/>
      <use xlink:href="#DejaVuSans-74" transform="translate(446.980469 0)"/>
      <use xlink:href="#DejaVuSans-79" transform="translate(486.189453 0)"/>
      <use xlink:href="#DejaVuSans-20" transform="translate(545.369141 0)"/>
      <use xlink:href="#DejaVuSans-28" transform="translate(577.15625 0)"/>
      <use xlink:href="#DejaVuSans-4c" transform="translate(616.169922 0)"/>
      <use xlink:href="#DejaVuSans-2609" transform="translate(671.882812 0)"/>
      <use xlink:href="#DejaVuSans-29" transform="translate(761.53125 0)"/>
     </g>
    </g>
   </g>
   <g id="line2d_67">
    <path d="M 79.041576 394.497085 
L 593.5981 47.20254 
L 593.5981 47.20254 
" clip-path="url(#p99bd70838e)" style="fill: none; stroke: #ecf0f1; stroke-width: 2.5; stroke-linecap: square"/>
   </g>
   <g id="patch_3">
    <path d="M 53.31375 411.861812 
L 53.31375 29.837812 
" style="fill: none; stroke: #000000; stroke-width: 0.8; stroke-linejoin: miter; stroke-linecap: square"/>
   </g>
   <g id="patch_4">
    <path d="M 619.325927 411.861812 
L 619.325927 29.837812 
" style="fill: none; stroke: #000000; stroke-width: 0.8; stroke-linejoin: miter; stroke-linecap: square"/>
   </g>
   <g id="patch_5">
    <path d="M 53.31375 411.861812 
L 619.325927 411.861812 
" style="fill: none; stroke: #000000; stroke-width: 0.8; stroke-linejoin: miter; stroke-linecap: square"/>
   </g>
   <g id="patch_6">
    <path d="M 53.31375 29.837812 
L 619.325927 29.837812 
" style="fill: none; stroke: #000000; stroke-width: 0.8; stroke-linejoin: miter; stroke-linecap: square"/>
   </g>
   <g id="PathCollection_1">
    <defs>
     <path id="m0a404f8a77" d="M 0 4.1833 
C 1.109424 4.1833 2.173559 3.742521 2.95804 2.95804 
C 3.742521 2.173559 4.1833 1.109424 4.1833 0 
C 4.1833 -1.109424 3.742521 -2.173559 2.95804 -2.95804 
C 2.173559 -3.742521 1.109424 -4.1833 0 -4.1833 
C -1.109424 -4.1833 -2.173559 -3.742521 -2.95804 -2.95804 
C -3.742521 -2.173559 -4.1833 -1.109424 -4.1833 0 
C -4.1833 1.109424 -3.742521 2.173559 -2.95804 2.95804 
C -2.173559 3.742521 -1.109424 4.1833 0 4.1833 
z
" style="stroke: #2c3e50"/>
    </defs>
    <g clip-path="url(#p99bd70838e)">
     <use xlink:href="#m0a404f8a77" x="79.041576" y="376.638624" style="fill: #9b59b6; stroke: #2c3e50"/>
     <use xlink:href="#m0a404f8a77" x="208.501618" y="323.880399" style="fill: #9b59b6; stroke: #2c3e50"/>
     <use xlink:href="#m0a404f8a77" x="264.257023" y="269.487856" style="fill: #9b59b6; stroke: #2c3e50"/>
     <use xlink:href="#m0a404f8a77" x="320.012428" y="226.480396" style="fill: #9b59b6; stroke: #2c3e50"/>
     <use xlink:href="#m0a404f8a77" x="449.472469" y="145.295786" style="fill: #9b59b6; stroke: #2c3e50"/>
     <use xlink:href="#m0a404f8a77" x="578.932511" y="65.938186" style="fill: #9b59b6; stroke: #2c3e50"/>
    </g>
   </g>
   <g id="text_11">
    <!-- 0.1 M☉ -->
    <g style="fill: #2c3e50" transform="translate(85.041576 370.638624) scale(0.08 -0.08)">
     <defs>
      <path id="DejaVuSans-2e" d="M 684 794 
L 1344 794 
L 1344 0 
L 684 0 
L 684 794 
z
" transform="scale(0.015625)"/>
     </defs>
     <use xlink:href="#DejaVuSans-30"/>
     <use xlink:href="#DejaVuSans-2e" transform="translate(63.623047 0)"/>
     <use xlink:href="#DejaVuSans-31" transform="translate(95.410156 0)"/>
     <use xlink:href="#DejaVuSans-20" transform="translate(159.033203 0)"/>
     <use xlink:href="#DejaVuSans-4d" transform="translate(190.820312 0)"/>
     <use xlink:href="#DejaVuSans-2609" transform="translate(277.099609 0)"/>
    </g>
   </g>
   <g id="text_12">
    <!-- 0.5 M☉ -->
    <g style="fill: #2c3e50" transform="translate(214.501618 317.880399) scale(0.08 -0.08)">
     <defs>
      <path id="DejaVuSans-35" d="M 691 4666 
L 3169 4666 
L 3169 4134 
L 1269 4134 
L 1269 2991 
Q 1406 3038 1543 3061 
Q 1681 3084 1819 3084 
Q 2600 3084 3056 2656 
Q 3513 2228 3513 1497 
Q 3513 744 3044 326 
Q 2575 -91 1722 -91 
Q 1428 -91 1123 -41 
Q 819 9 494 109 
L 494 744 
Q 775 591 1075 516 
Q 1375 441 1709 441 
Q 2250 441 2565 725 
Q 2881 1009 2881 1497 
Q 2881 1984 2565 2268 
Q 2250 2553 1709 2553 
Q 1456 2553 1204 2497 
Q 953 2441 691 2322 
L 691 4666 
z
" transform="scale(0.015625)"/>
     </defs>
     <use xlink:href="#DejaVuSans-30"/>
     <use xlink:href="#DejaVuSans-2e" transform="translate(63.623047 0)"/>
     <use xlink:href="#DejaVuSans-35" transform="translate(95.410156 0)"/>
     <use xlink:href="#DejaVuSans-20" transform="translate(159.033203 0)"/>
     <use xlink:href="#DejaVuSans-4d" transform="translate(190.820312 0)"/>
     <use xlink:href="#DejaVuSans-2609" transform="translate(277.099609 0)"/>
    </g>
   </g>
   <g id="text_13">
    <!-- 1 M☉ -->
    <g style="fill: #2c3e50" transform="translate(270.257023 263.487856) scale(0.08 -0.08)">
     <use xlink:href="#DejaVuSans-31"/>
     <use xlink:href="#DejaVuSans-20" transform="translate(63.623047 0)"/>
     <use xlink:href="#DejaVuSans-4d" transform="translate(95.410156 0)"/>
     <use xlink:href="#DejaVuSans-2609" transform="translate(181.689453 0)"/>
    </g>
   </g>
   <g id="text_14">
    <!-- 2 M☉ -->
    <g style="fill: #2c3e50" transform="translate(326.012428 220.480396) scale(0.08 -0.08)">
     <use xlink:href="#DejaVuSans-32"/>
     <use xlink:href="#DejaVuSans-20" transform="translate(63.623047 0)"/>
     <use xlink:href="#DejaVuSans-4d" transform="translate(95.410156 0)"/>
     <use xlink:href="#DejaVuSans-2609" transform="translate(181.689453 0)"/>
    </g>
   </g>
   <g id="text_15">
    <!-- 10 M☉ -->
    <g style="fill: #2c3e50" transform="translate(455.472469 139.295786) scale(0.08 -0.08)">
     <use xlink:href="#DejaVuSans-31"/>
     <use xlink:href="#DejaVuSans-30" transform="translate(63.623047 0)"/>
     <use xlink:href="#DejaVuSans-20" transform="translate(127.246094 0)"/>
     <use xlink:href="#DejaVuSans-4d" transform="translate(159.033203 0)"/>
     <use xlink:href="#DejaVuSans-2609" transform="translate(245.3125 0)"/>
    </g>
   </g>
   <g id="text_16">
    <!-- 50 M☉ -->
    <g style="fill: #2c3e50" transform="translate(584.932511 59.938186) scale(0.08 -0.08)">
     <use xlink:href="#DejaVuSans-35"/>
     <use xlink:href="#DejaVuSans-30" transform="translate(63.623047 0)"/>
     <use xlink:href="#DejaVuSans-20" transform="translate(127.246094 0)"/>
     <use xlink:href="#DejaVuSans-4d" transform="translate(159.033203 0)"/>
     <use xlink:href="#DejaVuSans-2609" transform="translate(245.3125 0)"/>
    </g>
   </g>
   <g id="text_17">
    <!-- Mass–Luminosity Relation (schematic) -->
    <g transform="translate(202.727026 17.837812) scale(0.14 -0.14)">
     <defs>
      <path id="DejaVuSans-2013" d="M 313 1978 
L 2888 1978 
L 2888 1528 
L 313 1528 
L 313 1978 
z
" transform="scale(0.015625)"/>
      <path id="DejaVuSans-52" d="M 2841 2188 
Q 3044 2119 3236 1894 
Q 3428 1669 3622 1275 
L 4263 0 
L 3584 0 
L 2988 1197 
Q 2756 1666 2539 1819 
Q 2322 1972 1947 1972 
L 1259 1972 
L 1259 0 
L 628 0 
L 628 4666 
L 2053 4666 
Q 2853 4666 3247 4331 
Q 3641 3997 3641 3322 
Q 3641 2881 3436 2590 
Q 3231 2300 2841 2188 
z
M 1259 4147 
L 1259 2491 
L 2053 2491 
Q 2509 2491 2742 2702 
Q 2975 2913 2975 3322 
Q 2975 3731 2742 3939 
Q 2509 4147 2053 4147 
L 1259 4147 
z
" transform="scale(0.015625)"/>
      <path id="DejaVuSans-65" d="M 3597 1894 
L 3597 1613 
L 953 1613 
Q 991 1019 1311 708 
Q 1631 397 2203 397 
Q 2534 397 2845 478 
Q 3156 559 3463 722 
L 3463 178 
Q 3153 47 2828 -22 
Q 2503 -91 2169 -91 
Q 1331 -91 842 396 
Q 353 884 353 1716 
Q 353 2575 817 3079 
Q 1281 3584 2069 3584 
Q 2775 3584 3186 3129 
Q 3597 2675 3597 1894 
z
M 3022 2063 
Q 3016 2534 2758 2815 
Q 2500 3097 2075 3097 
Q 1594 3097 1305 2825 
Q 1016 2553 972 2059 
L 3022 2063 
z
" transform="scale(0.015625)"/>
      <path id="DejaVuSans-6c" d="M 603 4863 
L 1178 4863 
L 1178 0 
L 603 0 
L 603 4863 
z
" transform="scale(0.015625)"/>
      <path id="DejaVuSans-63" d="M 3122 3366 
L 3122 2828 
Q 2878 2963 2633 3030 
Q 2388 3097 2138 3097 
Q 1578 3097 1268 2742 
Q 959 2388 959 1747 
Q 959 1106 1268 751 
Q 1578 397 2138 397 
Q 2388 397 2633 464 
Q 2878 531 3122 666 
L 3122 134 
Q 2881 22 2623 -34 
Q 2366 -91 2075 -91 
Q 1284 -91 818 406 
Q 353 903 353 1747 
Q 353 2603 823 3093 
Q 1294 3584 2113 3584 
Q 2378 3584 2631 3529 
Q 2884 3475 3122 3366 
z
" transform="scale(0.015625)"/>
      <path id="DejaVuSans-68" d="M 3513 2113 
L 3513 0 
L 2938 0 
L 2938 2094 
Q 2938 2591 2744 2837 
Q 2550 3084 2163 3084 
Q 1697 3084 1428 2787 
Q 1159 2491 1159 1978 
L 1159 0 
L 581 0 
L 581 4863 
L 1159 4863 
L 1159 2956 
Q 1366 3272 1645 3428 
Q 1925 3584 2291 3584 
Q 2894 3584 3203 3211 
Q 3513 2838 3513 2113 
z
" transform="scale(0.015625)"/>
     </defs>
     <use xlink:href="#DejaVuSans-4d"/>
     <use xlink:href="#DejaVuSans-61" transform="translate(86.279297 0)"/>
     <use xlink:href="#DejaVuSans-73" transform="translate(147.558594 0)"/>
     <use xlink:href="#DejaVuSans-73" transform="translate(199.658203 0)"/>
     <use xlink:href="#DejaVuSans-2013" transform="translate(251.757812 0)"/>
     <use xlink:href="#DejaVuSans-4c" transform="translate(301.757812 0)"/>
     <use xlink:href="#DejaVuSans-75" transform="translate(355.720703 0)"/>
     <use xlink:href="#DejaVuSans-6d" transform="translate(419.099609 0)"/>
     <use xlink:href="#DejaVuSans-69" transform="translate(516.511719 0)"/>
     <use xlink:href="#DejaVuSans-6e" transform="translate(544.294922 0)"/>
     <use xlink:href="#DejaVuSans-6f" transform="translate(607.673828 0)"/>
     <use xlink:href="#DejaVuSans-73" transform="translate(668.855469 0)"/>
     <use xlink:href="#DejaVuSans-69" transform="translate(720.955078 0)"/>
     <use xlink:href="#DejaVuSans-74" transform="translate(748.738281 0)"/>
     <use xlink:href="#DejaVuSans-79" transform="translate(787.947266 0)"/>
     <use xlink:href="#DejaVuSans-20" transform="translate(847.126953 0)"/>
     <use xlink:href="#DejaVuSans-52" transform="translate(878.914062 0)"/>
     <use xlink:href="#DejaVuSans-65" transform="translate(943.896484 0)"/>
     <use xlink:href="#DejaVuSans-6c" transform="translate(1005.419922 0)"/>
     <use xlink:href="#DejaVuSans-61" transform="translate(1033.203125 0)"/>
     <use xlink:href="#DejaVuSans-74" transform="translate(1094.482422 0)"/>
     <use xlink:href="#DejaVuSans-69" transform="translate(1133.691406 0)"/>
     <use xlink:href="#DejaVuSans-6f" transform="translate(1161.474609 0)"/>
     <use xlink:href="#DejaVuSans-6e" transform="translate(1222.65625 0)"/>
     <use xlink:href="#DejaVuSans-20" transform="translate(1286.035156 0)"/>
     <use xlink:href="#DejaVuSans-28" transform="translate(1317.822266 0)"/>
     <use xlink:href="#DejaVuSans-73" transform="translate(1356.835938 0)"/>
     <use xlink:href="#DejaVuSans-63" transform="translate(1408.935547 0)"/>
     <use xlink:href="#DejaVuSans-68" transform="translate(1463.916016 0)"/>
     <use xlink:href="#DejaVuSans-65" transform="translate(1527.294922 0)"/>
     <use xlink:href="#DejaVuSans-6d" transform="translate(1588.818359 0)"/>
     <use xlink:href="#DejaVuSans-61" transform="translate(1686.230469 0)"/>
     <use xlink:href="#DejaVuSans-74" transform="translate(1747.509766 0)"/>
     <use xlink:href="#DejaVuSans-69" transform="translate(1786.71875 0)"/>
     <use xlink:href="#DejaVuSans-63" transform="translate(1814.501953 0)"/>
     <use xlink:href="#DejaVuSans-29" transform="translate(1869.482422 0)"/>
    </g>
   </g>
   <g id="legend_1">
    <g id="line2d_68">
     <path d="M 62.31375 42.93625 
L 72.31375 42.93625 
L 82.31375 42.93625 
" style="fill: none; stroke: #ecf0f1; stroke-width: 2.5; stroke-linecap: square"/>
    </g>
    <g id="text_18">
     <!-- $L \propto M^{3.5}$ -->
     <g transform="translate(90.31375 46.43625) scale(0.1 -0.1)">
      <defs>
       <path id="DejaVuSans-Oblique-4c" d="M 1075 4666 
L 1709 4666 
L 909 525 
L 3181 525 
L 3078 0 
L 172 0 
L 1075 4666 
z
" transform="scale(0.015625)"/>
       <path id="DejaVuSans-221d" d="M 1647 1134 
Q 2163 1134 2472 1884 
Q 2075 2703 1647 2703 
Q 1334 2703 1175 2478 
Q 1006 2238 1006 1919 
Q 1006 1569 1175 1353 
Q 1350 1134 1647 1134 
z
M 3884 1128 
L 3884 716 
L 3644 716 
Q 3416 716 3247 809 
Q 3078 894 2916 1091 
Q 2819 1203 2666 1466 
Q 2456 1091 2272 925 
Q 2044 725 1681 725 
Q 1259 725 981 1041 
Q 688 1372 688 1919 
Q 688 2444 981 2800 
Q 1241 3116 1688 3116 
Q 1916 3116 2084 3022 
Q 2281 2919 2416 2741 
Q 2541 2581 2666 2366 
Q 2875 2741 3059 2906 
Q 3288 3106 3650 3106 
L 3884 3106 
L 3884 2697 
L 3684 2697 
Q 3222 2697 2859 1947 
Q 3256 1128 3684 1128 
L 3884 1128 
z
" transform="scale(0.015625)"/>
       <path id="DejaVuSans-Oblique-4d" d="M 1081 4666 
L 2028 4666 
L 2572 1522 
L 4378 4666 
L 5350 4666 
L 4441 0 
L 3828 0 
L 4622 4091 
L 2791 897 
L 2175 897 
L 1581 4103 
L 788 0 
L 172 0 
L 1081 4666 
z
" transform="scale(0.015625)"/>
       <path id="DejaVuSans-33" d="M 2597 2516 
Q 3050 2419 3304 2112 
Q 3559 1806 3559 1356 
Q 3559 666 3084 287 
Q 2609 -91 1734 -91 
Q 1441 -91 1130 -33 
Q 819 25 488 141 
L 488 750 
Q 750 597 1062 519 
Q 1375 441 1716 441 
Q 2309 441 2620 675 
Q 2931 909 2931 1356 
Q 2931 1769 2642 2001 
Q 2353 2234 1838 2234 
L 1294 2234 
L 1294 2753 
L 1863 2753 
Q 2328 2753 2575 2939 
Q 2822 3125 2822 3475 
Q 2822 3834 2567 4026 
Q 2313 4219 1838 4219 
Q 1578 4219 1281 4162 
Q 984 4106 628 3988 
L 628 4550 
Q 988 4650 1302 4700 
Q 1616 4750 1894 4750 
Q 2613 4750 3031 4423 
Q 3450 4097 3450 3541 
Q 3450 3153 3228 2886 
Q 3006 2619 2597 2516 
z
" transform="scale(0.015625)"/>
      </defs>
      <use xlink:href="#DejaVuSans-Oblique-4c" transform="translate(0 0.765625)"/>
      <use xlink:href="#DejaVuSans-221d" transform="translate(75.195312 0.765625)"/>
      <use xlink:href="#DejaVuSans-Oblique-4d" transform="translate(166.113281 0.765625)"/>
      <use xlink:href="#DejaVuSans-33" transform="translate(259.409349 39.046875) scale(0.7)"/>
      <use xlink:href="#DejaVuSans-2e" transform="translate(303.945482 39.046875) scale(0.7)"/>
      <use xlink:href="#DejaVuSans-35" transform="translate(326.196458 39.046875) scale(0.7)"/>
     </g>
    </g>
   </g>
  </g>
 </g>
 <defs>
  <clipPath id="p99bd70838e">
   <rect x="53.31375" y="29.837812" width="566.012177" height="382.024"/>
  </clipPath>
 </defs>
</svg>
