<?xml version="1.0" encoding="utf-8" standalone="no"?>
<!DOCTYPE svg PUBLIC "-//W3C//DTD SVG 1.1//EN"
  "http://www.w3.org/Graphics/SVG/1.1/DTD/svg11.dtd">
<svg xmlns:xlink="http://www.w3.org/1999/xlink" width="856.90125pt" height="359.739875pt" viewBox="0 0 856.90125 359.739875" xmlns="http://www.w3.org/2000/svg" version="1.1">
 <metadata>
  <rdf:RDF xmlns:dc="http://purl.org/dc/elements/1.1/" xmlns:cc="http://creativecommons.org/ns#" xmlns:rdf="http://www.w3.org/1999/02/22-rdf-syntax-ns#">
   <cc:Work>
    <dc:type rdf:resource="http://purl.org/dc/dcmitype/StillImage"/>
    <dc:date>2026-01-02T18:44:37.795096</dc:date>
    <dc:format>image/svg+xml</dc:format>
    <dc:creator>
     <cc:Agent>
      <dc:title>Matplotlib v3.10.8, https://matplotlib.org/</dc:title>
     </cc:Agent>
    </dc:creator>
   </cc:Work>
  </rdf:RDF>
 </metadata>
 <defs>
  <style type="text/css">*{stroke-linejoin: round; stroke-linecap: butt}</style>
 </defs>
 <g id="figure_1">
  <g id="patch_1">
   <path d="M 0 359.739875 
L 856.90125 359.739875 
L 856.90125 0 
L 0 0 
z
" style="fill: #ffffff"/>
  </g>
  <g id="axes_1">
   <g id="patch_2">
    <path d="M 48.90125 320.248 
L 443.90125 320.248 
L 443.90125 71.728 
L 48.90125 71.728 
z
" style="fill: #ffffff"/>
   </g>
   <g id="matplotlib.axis_1">
    <g id="xtick_1">
     <g id="line2d_1">
      <path d="M 60.769509 320.248 
L 60.769509 71.728 
" clip-path="url(#pdc5b596a84)" style="fill: none; stroke: #ecf0f1; stroke-opacity: 0.9; stroke-width: 0.8; stroke-linecap: square"/>
     </g>
     <g id="line2d_2">
      <defs>
       <path id="ma0f36b2163" d="M 0 0 
L 0 3.5 
" style="stroke: #000000; stroke-width: 0.8"/>
      </defs>
      <g>
       <use xlink:href="#ma0f36b2163" x="60.769509" y="320.248" style="stroke: #000000; stroke-width: 0.8"/>
      </g>
     </g>
     <g id="text_1">
      <!-- 0 -->
      <g transform="translate(57.588259 334.846437) scale(0.1 -0.1)">
       <defs>
        <path id="DejaVuSans-30" d="M 2034 4250 
Q 1547 4250 1301 3770 
Q 1056 3291 1056 2328 
Q 1056 1369 1301 889 
Q 1547 409 2034 409 
Q 2525 409 2770 889 
Q 3016 1369 3016 2328 
Q 3016 3291 2770 3770 
Q 2525 4250 2034 4250 
z
M 2034 4750 
Q 2819 4750 3233 4129 
Q 3647 3509 3647 2328 
Q 3647 1150 3233 529 
Q 2819 -91 2034 -91 
Q 1250 -91 836 529 
Q 422 1150 422 2328 
Q 422 3509 836 4129 
Q 1250 4750 2034 4750 
z
" transform="scale(0.015625)"/>
       </defs>
       <use xlink:href="#DejaVuSans-30"/>
      </g>
     </g>
    </g>
    <g id="xtick_2">
     <g id="line2d_3">
      <path d="M 121.632375 320.248 
L 121.632375 71.728 
" clip-path="url(#pdc5b596a84)" style="fill: none; stroke: #ecf0f1; stroke-opacity: 0.9; stroke-width: 0.8; stroke-linecap: square"/>
     </g>
     <g id="line2d_4">
      <g>
       <use xlink:href="#ma0f36b2163" x="121.632375" y="320.248" style="stroke: #000000; stroke-width: 0.8"/>
      </g>
     </g>
     <g id="text_2">
      <!-- 5 -->
      <g transform="translate(118.451125 334.846437) scale(0.1 -0.1)">
       <defs>
        <path id="DejaVuSans-35" d="M 691 4666 
L 3169 4666 
L 3169 4134 
L 1269 4134 
L 1269 2991 
Q 1406 3038 1543 3061 
Q 1681 3084 1819 3084 
Q 2600 3084 3056 2656 
Q 3513 2228 3513 1497 
Q 3513 744 3044 326 
Q 2575 -91 1722 -91 
Q 1428 -91 1123 -41 
Q 819 9 494 109 
L 494 744 
Q 775 591 1075 516 
Q 1375 441 1709 441 
Q 2250 441 2565 725 
Q 2881 1009 2881 1497 
Q 2881 1984 2565 2268 
Q 2250 2553 1709 2553 
Q 1456 2553 1204 2497 
Q 953 2441 691 2322 
L 691 4666 
z
" transform="scale(0.015625)"/>
       </defs>
       <use xlink:href="#DejaVuSans-35"/>
      </g>
     </g>
    </g>
    <g id="xtick_3">
     <g id="line2d_5">
      <path d="M 182.495241 320.248 
L 182.495241 71.728 
" clip-path="url(#pdc5b596a84)" style="fill: none; stroke: #ecf0f1; stroke-opacity: 0.9; stroke-width: 0.8; stroke-linecap: square"/>
     </g>
     <g id="line2d_6">
      <g>
       <use xlink:href="#ma0f36b2163" x="182.495241" y="320.248" style="stroke: #000000; stroke-width: 0.8"/>
      </g>
     </g>
     <g id="text_3">
      <!-- 10 -->
      <g transform="translate(176.132741 334.846437) scale(0.1 -0.1)">
       <defs>
        <path id="DejaVuSans-31" d="M 794 531 
L 1825 531 
L 1825 4091 
L 703 3866 
L 703 4441 
L 1819 4666 
L 2450 4666 
L 2450 531 
L 3481 531 
L 3481 0 
L 794 0 
L 794 531 
z
" transform="scale(0.015625)"/>
       </defs>
       <use xlink:href="#DejaVuSans-31"/>
       <use xlink:href="#DejaVuSans-30" transform="translate(63.623047 0)"/>
      </g>
     </g>
    </g>
    <g id="xtick_4">
     <g id="line2d_7">
      <path d="M 243.358107 320.248 
L 243.358107 71.728 
" clip-path="url(#pdc5b596a84)" style="fill: none; stroke: #ecf0f1; stroke-opacity: 0.9; stroke-width: 0.8; stroke-linecap: square"/>
     </g>
     <g id="line2d_8">
      <g>
       <use xlink:href="#ma0f36b2163" x="243.358107" y="320.248" style="stroke: #000000; stroke-width: 0.8"/>
      </g>
     </g>
     <g id="text_4">
      <!-- 15 -->
      <g transform="translate(236.995607 334.846437) scale(0.1 -0.1)">
       <use xlink:href="#DejaVuSans-31"/>
       <use xlink:href="#DejaVuSans-35" transform="translate(63.623047 0)"/>
      </g>
     </g>
    </g>
    <g id="xtick_5">
     <g id="line2d_9">
      <path d="M 304.220973 320.248 
L 304.220973 71.728 
" clip-path="url(#pdc5b596a84)" style="fill: none; stroke: #ecf0f1; stroke-opacity: 0.9; stroke-width: 0.8; stroke-linecap: square"/>
     </g>
     <g id="line2d_10">
      <g>
       <use xlink:href="#ma0f36b2163" x="304.220973" y="320.248" style="stroke: #000000; stroke-width: 0.8"/>
      </g>
     </g>
     <g id="text_5">
      <!-- 20 -->
      <g transform="translate(297.858473 334.846437) scale(0.1 -0.1)">
       <defs>
        <path id="DejaVuSans-32" d="M 1228 531 
L 3431 531 
L 3431 0 
L 469 0 
L 469 531 
Q 828 903 1448 1529 
Q 2069 2156 2228 2338 
Q 2531 2678 2651 2914 
Q 2772 3150 2772 3378 
Q 2772 3750 2511 3984 
Q 2250 4219 1831 4219 
Q 1534 4219 1204 4116 
Q 875 4013 500 3803 
L 500 4441 
Q 881 4594 1212 4672 
Q 1544 4750 1819 4750 
Q 2544 4750 2975 4387 
Q 3406 4025 3406 3419 
Q 3406 3131 3298 2873 
Q 3191 2616 2906 2266 
Q 2828 2175 2409 1742 
Q 1991 1309 1228 531 
z
" transform="scale(0.015625)"/>
       </defs>
       <use xlink:href="#DejaVuSans-32"/>
       <use xlink:href="#DejaVuSans-30" transform="translate(63.623047 0)"/>
      </g>
     </g>
    </g>
    <g id="xtick_6">
     <g id="line2d_11">
      <path d="M 365.083839 320.248 
L 365.083839 71.728 
" clip-path="url(#pdc5b596a84)" style="fill: none; stroke: #ecf0f1; stroke-opacity: 0.9; stroke-width: 0.8; stroke-linecap: square"/>
     </g>
     <g id="line2d_12">
      <g>
       <use xlink:href="#ma0f36b2163" x="365.083839" y="320.248" style="stroke: #000000; stroke-width: 0.8"/>
      </g>
     </g>
     <g id="text_6">
      <!-- 25 -->
      <g transform="translate(358.721339 334.846437) scale(0.1 -0.1)">
       <use xlink:href="#DejaVuSans-32"/>
       <use xlink:href="#DejaVuSans-35" transform="translate(63.623047 0)"/>
      </g>
     </g>
    </g>
    <g id="xtick_7">
     <g id="line2d_13">
      <path d="M 425.946705 320.248 
L 425.946705 71.728 
" clip-path="url(#pdc5b596a84)" style="fill: none; stroke: #ecf0f1; stroke-opacity: 0.9; stroke-width: 0.8; stroke-linecap: square"/>
     </g>
     <g id="line2d_14">
      <g>
       <use xlink:href="#ma0f36b2163" x="425.946705" y="320.248" style="stroke: #000000; stroke-width: 0.8"/>
      </g>
     </g>
     <g id="text_7">
      <!-- 30 -->
      <g transform="translate(419.584205 334.846437) scale(0.1 -0.1)">
       <defs>
        <path id="DejaVuSans-33" d="M 2597 2516 
Q 3050 2419 3304 2112 
Q 3559 1806 3559 1356 
Q 3559 666 3084 287 
Q 2609 -91 1734 -91 
Q 1441 -91 1130 -33 
Q 819 25 488 141 
L 488 750 
Q 750 597 1062 519 
Q 1375 441 1716 441 
Q 2309 441 2620 675 
Q 2931 909 2931 1356 
Q 2931 1769 2642 2001 
Q 2353 2234 1838 2234 
L 1294 2234 
L 1294 2753 
L 1863 2753 
Q 2328 2753 2575 2939 
Q 2822 3125 2822 3475 
Q 2822 3834 2567 4026 
Q 2313 4219 1838 4219 
Q 1578 4219 1281 4162 
Q 984 4106 628 3988 
L 628 4550 
Q 988 4650 1302 4700 
Q 1616 4750 1894 4750 
Q 2613 4750 3031 4423 
Q 3450 4097 3450 3541 
Q 3450 3153 3228 2886 
Q 3006 2619 2597 2516 
z
" transform="scale(0.015625)"/>
       </defs>
       <use xlink:href="#DejaVuSans-33"/>
       <use xlink:href="#DejaVuSans-30" transform="translate(63.623047 0)"/>
      </g>
     </g>
    </g>
    <g id="text_8">
     <!-- Radius (kpc, schematic) -->
     <g transform="translate(174.542813 350.04425) scale(0.12 -0.12)">
      <defs>
       <path id="DejaVuSans-52" d="M 2841 2188 
Q 3044 2119 3236 1894 
Q 3428 1669 3622 1275 
L 4263 0 
L 3584 0 
L 2988 1197 
Q 2756 1666 2539 1819 
Q 2322 1972 1947 1972 
L 1259 1972 
L 1259 0 
L 628 0 
L 628 4666 
L 2053 4666 
Q 2853 4666 3247 4331 
Q 3641 3997 3641 3322 
Q 3641 2881 3436 2590 
Q 3231 2300 2841 2188 
z
M 1259 4147 
L 1259 2491 
L 2053 2491 
Q 2509 2491 2742 2702 
Q 2975 2913 2975 3322 
Q 2975 3731 2742 3939 
Q 2509 4147 2053 4147 
L 1259 4147 
z
" transform="scale(0.015625)"/>
       <path id="DejaVuSans-61" d="M 2194 1759 
Q 1497 1759 1228 1600 
Q 959 1441 959 1056 
Q 959 750 1161 570 
Q 1363 391 1709 391 
Q 2188 391 2477 730 
Q 2766 1069 2766 1631 
L 2766 1759 
L 2194 1759 
z
M 3341 1997 
L 3341 0 
L 2766 0 
L 2766 531 
Q 2569 213 2275 61 
Q 1981 -91 1556 -91 
Q 1019 -91 701 211 
Q 384 513 384 1019 
Q 384 1609 779 1909 
Q 1175 2209 1959 2209 
L 2766 2209 
L 2766 2266 
Q 2766 2663 2505 2880 
Q 2244 3097 1772 3097 
Q 1472 3097 1187 3025 
Q 903 2953 641 2809 
L 641 3341 
Q 956 3463 1253 3523 
Q 1550 3584 1831 3584 
Q 2591 3584 2966 3190 
Q 3341 2797 3341 1997 
z
" transform="scale(0.015625)"/>
       <path id="DejaVuSans-64" d="M 2906 2969 
L 2906 4863 
L 3481 4863 
L 3481 0 
L 2906 0 
L 2906 525 
Q 2725 213 2448 61 
Q 2172 -91 1784 -91 
Q 1150 -91 751 415 
Q 353 922 353 1747 
Q 353 2572 751 3078 
Q 1150 3584 1784 3584 
Q 2172 3584 2448 3432 
Q 2725 3281 2906 2969 
z
M 947 1747 
Q 947 1113 1208 752 
Q 1469 391 1925 391 
Q 2381 391 2643 752 
Q 2906 1113 2906 1747 
Q 2906 2381 2643 2742 
Q 2381 3103 1925 3103 
Q 1469 3103 1208 2742 
Q 947 2381 947 1747 
z
" transform="scale(0.015625)"/>
       <path id="DejaVuSans-69" d="M 603 3500 
L 1178 3500 
L 1178 0 
L 603 0 
L 603 3500 
z
M 603 4863 
L 1178 4863 
L 1178 4134 
L 603 4134 
L 603 4863 
z
" transform="scale(0.015625)"/>
       <path id="DejaVuSans-75" d="M 544 1381 
L 544 3500 
L 1119 3500 
L 1119 1403 
Q 1119 906 1312 657 
Q 1506 409 1894 409 
Q 2359 409 2629 706 
Q 2900 1003 2900 1516 
L 2900 3500 
L 3475 3500 
L 3475 0 
L 2900 0 
L 2900 538 
Q 2691 219 2414 64 
Q 2138 -91 1772 -91 
Q 1169 -91 856 284 
Q 544 659 544 1381 
z
M 1991 3584 
L 1991 3584 
z
" transform="scale(0.015625)"/>
       <path id="DejaVuSans-73" d="M 2834 3397 
L 2834 2853 
Q 2591 2978 2328 3040 
Q 2066 3103 1784 3103 
Q 1356 3103 1142 2972 
Q 928 2841 928 2578 
Q 928 2378 1081 2264 
Q 1234 2150 1697 2047 
L 1894 2003 
Q 2506 1872 2764 1633 
Q 3022 1394 3022 966 
Q 3022 478 2636 193 
Q 2250 -91 1575 -91 
Q 1294 -91 989 -36 
Q 684 19 347 128 
L 347 722 
Q 666 556 975 473 
Q 1284 391 1588 391 
Q 1994 391 2212 530 
Q 2431 669 2431 922 
Q 2431 1156 2273 1281 
Q 2116 1406 1581 1522 
L 1381 1569 
Q 847 1681 609 1914 
Q 372 2147 372 2553 
Q 372 3047 722 3315 
Q 1072 3584 1716 3584 
Q 2034 3584 2315 3537 
Q 2597 3491 2834 3397 
z
" transform="scale(0.015625)"/>
       <path id="DejaVuSans-20" transform="scale(0.015625)"/>
       <path id="DejaVuSans-28" d="M 1984 4856 
Q 1566 4138 1362 3434 
Q 1159 2731 1159 2009 
Q 1159 1288 1364 580 
Q 1569 -128 1984 -844 
L 1484 -844 
Q 1016 -109 783 600 
Q 550 1309 550 2009 
Q 550 2706 781 3412 
Q 1013 4119 1484 4856 
L 1984 4856 
z
" transform="scale(0.015625)"/>
       <path id="DejaVuSans-6b" d="M 581 4863 
L 1159 4863 
L 1159 1991 
L 2875 3500 
L 3609 3500 
L 1753 1863 
L 3688 0 
L 2938 0 
L 1159 1709 
L 1159 0 
L 581 0 
L 581 4863 
z
" transform="scale(0.015625)"/>
       <path id="DejaVuSans-70" d="M 1159 525 
L 1159 -1331 
L 581 -1331 
L 581 3500 
L 1159 3500 
L 1159 2969 
Q 1341 3281 1617 3432 
Q 1894 3584 2278 3584 
Q 2916 3584 3314 3078 
Q 3713 2572 3713 1747 
Q 3713 922 3314 415 
Q 2916 -91 2278 -91 
Q 1894 -91 1617 61 
Q 1341 213 1159 525 
z
M 3116 1747 
Q 3116 2381 2855 2742 
Q 2594 3103 2138 3103 
Q 1681 3103 1420 2742 
Q 1159 2381 1159 1747 
Q 1159 1113 1420 752 
Q 1681 391 2138 391 
Q 2594 391 2855 752 
Q 3116 1113 3116 1747 
z
" transform="scale(0.015625)"/>
       <path id="DejaVuSans-63" d="M 3122 3366 
L 3122 2828 
Q 2878 2963 2633 3030 
Q 2388 3097 2138 3097 
Q 1578 3097 1268 2742 
Q 959 2388 959 1747 
Q 959 1106 1268 751 
Q 1578 397 2138 397 
Q 2388 397 2633 464 
Q 2878 531 3122 666 
L 3122 134 
Q 2881 22 2623 -34 
Q 2366 -91 2075 -91 
Q 1284 -91 818 406 
Q 353 903 353 1747 
Q 353 2603 823 3093 
Q 1294 3584 2113 3584 
Q 2378 3584 2631 3529 
Q 2884 3475 3122 3366 
z
" transform="scale(0.015625)"/>
       <path id="DejaVuSans-2c" d="M 750 794 
L 1409 794 
L 1409 256 
L 897 -744 
L 494 -744 
L 750 256 
L 750 794 
z
" transform="scale(0.015625)"/>
       <path id="DejaVuSans-68" d="M 3513 2113 
L 3513 0 
L 2938 0 
L 2938 2094 
Q 2938 2591 2744 2837 
Q 2550 3084 2163 3084 
Q 1697 3084 1428 2787 
Q 1159 2491 1159 1978 
L 1159 0 
L 581 0 
L 581 4863 
L 1159 4863 
L 1159 2956 
Q 1366 3272 1645 3428 
Q 1925 3584 2291 3584 
Q 2894 3584 3203 3211 
Q 3513 2838 3513 2113 
z
" transform="scale(0.015625)"/>
       <path id="DejaVuSans-65" d="M 3597 1894 
L 3597 1613 
L 953 1613 
Q 991 1019 1311 708 
Q 1631 397 2203 397 
Q 2534 397 2845 478 
Q 3156 559 3463 722 
L 3463 178 
Q 3153 47 2828 -22 
Q 2503 -91 2169 -91 
Q 1331 -91 842 396 
Q 353 884 353 1716 
Q 353 2575 817 3079 
Q 1281 3584 2069 3584 
Q 2775 3584 3186 3129 
Q 3597 2675 3597 1894 
z
M 3022 2063 
Q 3016 2534 2758 2815 
Q 2500 3097 2075 3097 
Q 1594 3097 1305 2825 
Q 1016 2553 972 2059 
L 3022 2063 
z
" transform="scale(0.015625)"/>
       <path id="DejaVuSans-6d" d="M 3328 2828 
Q 3544 3216 3844 3400 
Q 4144 3584 4550 3584 
Q 5097 3584 5394 3201 
Q 5691 2819 5691 2113 
L 5691 0 
L 5113 0 
L 5113 2094 
Q 5113 2597 4934 2840 
Q 4756 3084 4391 3084 
Q 3944 3084 3684 2787 
Q 3425 2491 3425 1978 
L 3425 0 
L 2847 0 
L 2847 2094 
Q 2847 2600 2669 2842 
Q 2491 3084 2119 3084 
Q 1678 3084 1418 2786 
Q 1159 2488 1159 1978 
L 1159 0 
L 581 0 
L 581 3500 
L 1159 3500 
L 1159 2956 
Q 1356 3278 1631 3431 
Q 1906 3584 2284 3584 
Q 2666 3584 2933 3390 
Q 3200 3197 3328 2828 
z
" transform="scale(0.015625)"/>
       <path id="DejaVuSans-74" d="M 1172 4494 
L 1172 3500 
L 2356 3500 
L 2356 3053 
L 1172 3053 
L 1172 1153 
Q 1172 725 1289 603 
Q 1406 481 1766 481 
L 2356 481 
L 2356 0 
L 1766 0 
Q 1100 0 847 248 
Q 594 497 594 1153 
L 594 3053 
L 172 3053 
L 172 3500 
L 594 3500 
L 594 4494 
L 1172 4494 
z
" transform="scale(0.015625)"/>
       <path id="DejaVuSans-29" d="M 513 4856 
L 1013 4856 
Q 1481 4119 1714 3412 
Q 1947 2706 1947 2009 
Q 1947 1309 1714 600 
Q 1481 -109 1013 -844 
L 513 -844 
Q 928 -128 1133 580 
Q 1338 1288 1338 2009 
Q 1338 2731 1133 3434 
Q 928 4138 513 4856 
z
" transform="scale(0.015625)"/>
      </defs>
      <use xlink:href="#DejaVuSans-52"/>
      <use xlink:href="#DejaVuSans-61" transform="translate(67.232422 0)"/>
      <use xlink:href="#DejaVuSans-64" transform="translate(128.511719 0)"/>
      <use xlink:href="#DejaVuSans-69" transform="translate(191.988281 0)"/>
      <use xlink:href="#DejaVuSans-75" transform="translate(219.771484 0)"/>
      <use xlink:href="#DejaVuSans-73" transform="translate(283.150391 0)"/>
      <use xlink:href="#DejaVuSans-20" transform="translate(335.25 0)"/>
      <use xlink:href="#DejaVuSans-28" transform="translate(367.037109 0)"/>
      <use xlink:href="#DejaVuSans-6b" transform="translate(406.050781 0)"/>
      <use xlink:href="#DejaVuSans-70" transform="translate(463.960938 0)"/>
      <use xlink:href="#DejaVuSans-63" transform="translate(527.4375 0)"/>
      <use xlink:href="#DejaVuSans-2c" transform="translate(582.417969 0)"/>
      <use xlink:href="#DejaVuSans-20" transform="translate(614.205078 0)"/>
      <use xlink:href="#DejaVuSans-73" transform="translate(645.992188 0)"/>
      <use xlink:href="#DejaVuSans-63" transform="translate(698.091797 0)"/>
      <use xlink:href="#DejaVuSans-68" transform="translate(753.072266 0)"/>
      <use xlink:href="#DejaVuSans-65" transform="translate(816.451172 0)"/>
      <use xlink:href="#DejaVuSans-6d" transform="translate(877.974609 0)"/>
      <use xlink:href="#DejaVuSans-61" transform="translate(975.386719 0)"/>
      <use xlink:href="#DejaVuSans-74" transform="translate(1036.666016 0)"/>
      <use xlink:href="#DejaVuSans-69" transform="translate(1075.875 0)"/>
      <use xlink:href="#DejaVuSans-63" transform="translate(1103.658203 0)"/>
      <use xlink:href="#DejaVuSans-29" transform="translate(1158.638672 0)"/>
     </g>
    </g>
   </g>
   <g id="matplotlib.axis_2">
    <g id="ytick_1">
     <g id="line2d_15">
      <path d="M 48.90125 309.942176 
L 443.90125 309.942176 
" clip-path="url(#pdc5b596a84)" style="fill: none; stroke: #ecf0f1; stroke-opacity: 0.9; stroke-width: 0.8; stroke-linecap: square"/>
     </g>
     <g id="line2d_16">
      <defs>
       <path id="mcd6de59665" d="M 0 0 
L -3.5 0 
" style="stroke: #000000; stroke-width: 0.8"/>
      </defs>
      <g>
       <use xlink:href="#mcd6de59665" x="48.90125" y="309.942176" style="stroke: #000000; stroke-width: 0.8"/>
      </g>
     </g>
     <g id="text_9">
      <!-- 25 -->
      <g transform="translate(29.17625 313.741395) scale(0.1 -0.1)">
       <use xlink:href="#DejaVuSans-32"/>
       <use xlink:href="#DejaVuSans-35" transform="translate(63.623047 0)"/>
      </g>
     </g>
    </g>
    <g id="ytick_2">
     <g id="line2d_17">
      <path d="M 48.90125 280.831985 
L 443.90125 280.831985 
" clip-path="url(#pdc5b596a84)" style="fill: none; stroke: #ecf0f1; stroke-opacity: 0.9; stroke-width: 0.8; stroke-linecap: square"/>
     </g>
     <g id="line2d_18">
      <g>
       <use xlink:href="#mcd6de59665" x="48.90125" y="280.831985" style="stroke: #000000; stroke-width: 0.8"/>
      </g>
     </g>
     <g id="text_10">
      <!-- 50 -->
      <g transform="translate(29.17625 284.631203) scale(0.1 -0.1)">
       <use xlink:href="#DejaVuSans-35"/>
       <use xlink:href="#DejaVuSans-30" transform="translate(63.623047 0)"/>
      </g>
     </g>
    </g>
    <g id="ytick_3">
     <g id="line2d_19">
      <path d="M 48.90125 251.721793 
L 443.90125 251.721793 
" clip-path="url(#pdc5b596a84)" style="fill: none; stroke: #ecf0f1; stroke-opacity: 0.9; stroke-width: 0.8; stroke-linecap: square"/>
     </g>
     <g id="line2d_20">
      <g>
       <use xlink:href="#mcd6de59665" x="48.90125" y="251.721793" style="stroke: #000000; stroke-width: 0.8"/>
      </g>
     </g>
     <g id="text_11">
      <!-- 75 -->
      <g transform="translate(29.17625 255.521011) scale(0.1 -0.1)">
       <defs>
        <path id="DejaVuSans-37" d="M 525 4666 
L 3525 4666 
L 3525 4397 
L 1831 0 
L 1172 0 
L 2766 4134 
L 525 4134 
L 525 4666 
z
" transform="scale(0.015625)"/>
       </defs>
       <use xlink:href="#DejaVuSans-37"/>
       <use xlink:href="#DejaVuSans-35" transform="translate(63.623047 0)"/>
      </g>
     </g>
    </g>
    <g id="ytick_4">
     <g id="line2d_21">
      <path d="M 48.90125 222.611601 
L 443.90125 222.611601 
" clip-path="url(#pdc5b596a84)" style="fill: none; stroke: #ecf0f1; stroke-opacity: 0.9; stroke-width: 0.8; stroke-linecap: square"/>
     </g>
     <g id="line2d_22">
      <g>
       <use xlink:href="#mcd6de59665" x="48.90125" y="222.611601" style="stroke: #000000; stroke-width: 0.8"/>
      </g>
     </g>
     <g id="text_12">
      <!-- 100 -->
      <g transform="translate(22.81375 226.41082) scale(0.1 -0.1)">
       <use xlink:href="#DejaVuSans-31"/>
       <use xlink:href="#DejaVuSans-30" transform="translate(63.623047 0)"/>
       <use xlink:href="#DejaVuSans-30" transform="translate(127.246094 0)"/>
      </g>
     </g>
    </g>
    <g id="ytick_5">
     <g id="line2d_23">
      <path d="M 48.90125 193.501409 
L 443.90125 193.501409 
" clip-path="url(#pdc5b596a84)" style="fill: none; stroke: #ecf0f1; stroke-opacity: 0.9; stroke-width: 0.8; stroke-linecap: square"/>
     </g>
     <g id="line2d_24">
      <g>
       <use xlink:href="#mcd6de59665" x="48.90125" y="193.501409" style="stroke: #000000; stroke-width: 0.8"/>
      </g>
     </g>
     <g id="text_13">
      <!-- 125 -->
      <g transform="translate(22.81375 197.300628) scale(0.1 -0.1)">
       <use xlink:href="#DejaVuSans-31"/>
       <use xlink:href="#DejaVuSans-32" transform="translate(63.623047 0)"/>
       <use xlink:href="#DejaVuSans-35" transform="translate(127.246094 0)"/>
      </g>
     </g>
    </g>
    <g id="ytick_6">
     <g id="line2d_25">
      <path d="M 48.90125 164.391217 
L 443.90125 164.391217 
" clip-path="url(#pdc5b596a84)" style="fill: none; stroke: #ecf0f1; stroke-opacity: 0.9; stroke-width: 0.8; stroke-linecap: square"/>
     </g>
     <g id="line2d_26">
      <g>
       <use xlink:href="#mcd6de59665" x="48.90125" y="164.391217" style="stroke: #000000; stroke-width: 0.8"/>
      </g>
     </g>
     <g id="text_14">
      <!-- 150 -->
      <g transform="translate(22.81375 168.190436) scale(0.1 -0.1)">
       <use xlink:href="#DejaVuSans-31"/>
       <use xlink:href="#DejaVuSans-35" transform="translate(63.623047 0)"/>
       <use xlink:href="#DejaVuSans-30" transform="translate(127.246094 0)"/>
      </g>
     </g>
    </g>
    <g id="ytick_7">
     <g id="line2d_27">
      <path d="M 48.90125 135.281025 
L 443.90125 135.281025 
" clip-path="url(#pdc5b596a84)" style="fill: none; stroke: #ecf0f1; stroke-opacity: 0.9; stroke-width: 0.8; stroke-linecap: square"/>
     </g>
     <g id="line2d_28">
      <g>
       <use xlink:href="#mcd6de59665" x="48.90125" y="135.281025" style="stroke: #000000; stroke-width: 0.8"/>
      </g>
     </g>
     <g id="text_15">
      <!-- 175 -->
      <g transform="translate(22.81375 139.080244) scale(0.1 -0.1)">
       <use xlink:href="#DejaVuSans-31"/>
       <use xlink:href="#DejaVuSans-37" transform="translate(63.623047 0)"/>
       <use xlink:href="#DejaVuSans-35" transform="translate(127.246094 0)"/>
      </g>
     </g>
    </g>
    <g id="ytick_8">
     <g id="line2d_29">
      <path d="M 48.90125 106.170834 
L 443.90125 106.170834 
" clip-path="url(#pdc5b596a84)" style="fill: none; stroke: #ecf0f1; stroke-opacity: 0.9; stroke-width: 0.8; stroke-linecap: square"/>
     </g>
     <g id="line2d_30">
      <g>
       <use xlink:href="#mcd6de59665" x="48.90125" y="106.170834" style="stroke: #000000; stroke-width: 0.8"/>
      </g>
     </g>
     <g id="text_16">
      <!-- 200 -->
      <g transform="translate(22.81375 109.970052) scale(0.1 -0.1)">
       <use xlink:href="#DejaVuSans-32"/>
       <use xlink:href="#DejaVuSans-30" transform="translate(63.623047 0)"/>
       <use xlink:href="#DejaVuSans-30" transform="translate(127.246094 0)"/>
      </g>
     </g>
    </g>
    <g id="ytick_9">
     <g id="line2d_31">
      <path d="M 48.90125 77.060642 
L 443.90125 77.060642 
" clip-path="url(#pdc5b596a84)" style="fill: none; stroke: #ecf0f1; stroke-opacity: 0.9; stroke-width: 0.8; stroke-linecap: square"/>
     </g>
     <g id="line2d_32">
      <g>
       <use xlink:href="#mcd6de59665" x="48.90125" y="77.060642" style="stroke: #000000; stroke-width: 0.8"/>
      </g>
     </g>
     <g id="text_17">
      <!-- 225 -->
      <g transform="translate(22.81375 80.859861) scale(0.1 -0.1)">
       <use xlink:href="#DejaVuSans-32"/>
       <use xlink:href="#DejaVuSans-32" transform="translate(63.623047 0)"/>
       <use xlink:href="#DejaVuSans-35" transform="translate(127.246094 0)"/>
      </g>
     </g>
    </g>
    <g id="text_18">
     <!-- Orbital speed (arb) -->
     <g transform="translate(16.318125 252.925187) rotate(-90) scale(0.12 -0.12)">
      <defs>
       <path id="DejaVuSans-4f" d="M 2522 4238 
Q 1834 4238 1429 3725 
Q 1025 3213 1025 2328 
Q 1025 1447 1429 934 
Q 1834 422 2522 422 
Q 3209 422 3611 934 
Q 4013 1447 4013 2328 
Q 4013 3213 3611 3725 
Q 3209 4238 2522 4238 
z
M 2522 4750 
Q 3503 4750 4090 4092 
Q 4678 3434 4678 2328 
Q 4678 1225 4090 567 
Q 3503 -91 2522 -91 
Q 1538 -91 948 565 
Q 359 1222 359 2328 
Q 359 3434 948 4092 
Q 1538 4750 2522 4750 
z
" transform="scale(0.015625)"/>
       <path id="DejaVuSans-72" d="M 2631 2963 
Q 2534 3019 2420 3045 
Q 2306 3072 2169 3072 
Q 1681 3072 1420 2755 
Q 1159 2438 1159 1844 
L 1159 0 
L 581 0 
L 581 3500 
L 1159 3500 
L 1159 2956 
Q 1341 3275 1631 3429 
Q 1922 3584 2338 3584 
Q 2397 3584 2469 3576 
Q 2541 3569 2628 3553 
L 2631 2963 
z
" transform="scale(0.015625)"/>
       <path id="DejaVuSans-62" d="M 3116 1747 
Q 3116 2381 2855 2742 
Q 2594 3103 2138 3103 
Q 1681 3103 1420 2742 
Q 1159 2381 1159 1747 
Q 1159 1113 1420 752 
Q 1681 391 2138 391 
Q 2594 391 2855 752 
Q 3116 1113 3116 1747 
z
M 1159 2969 
Q 1341 3281 1617 3432 
Q 1894 3584 2278 3584 
Q 2916 3584 3314 3078 
Q 3713 2572 3713 1747 
Q 3713 922 3314 415 
Q 2916 -91 2278 -91 
Q 1894 -91 1617 61 
Q 1341 213 1159 525 
L 1159 0 
L 581 0 
L 581 4863 
L 1159 4863 
L 1159 2969 
z
" transform="scale(0.015625)"/>
       <path id="DejaVuSans-6c" d="M 603 4863 
L 1178 4863 
L 1178 0 
L 603 0 
L 603 4863 
z
" transform="scale(0.015625)"/>
      </defs>
      <use xlink:href="#DejaVuSans-4f"/>
      <use xlink:href="#DejaVuSans-72" transform="translate(78.710938 0)"/>
      <use xlink:href="#DejaVuSans-62" transform="translate(119.824219 0)"/>
      <use xlink:href="#DejaVuSans-69" transform="translate(183.300781 0)"/>
      <use xlink:href="#DejaVuSans-74" transform="translate(211.083984 0)"/>
      <use xlink:href="#DejaVuSans-61" transform="translate(250.292969 0)"/>
      <use xlink:href="#DejaVuSans-6c" transform="translate(311.572266 0)"/>
      <use xlink:href="#DejaVuSans-20" transform="translate(339.355469 0)"/>
      <use xlink:href="#DejaVuSans-73" transform="translate(371.142578 0)"/>
      <use xlink:href="#DejaVuSans-70" transform="translate(423.242188 0)"/>
      <use xlink:href="#DejaVuSans-65" transform="translate(486.71875 0)"/>
      <use xlink:href="#DejaVuSans-65" transform="translate(548.242188 0)"/>
      <use xlink:href="#DejaVuSans-64" transform="translate(609.765625 0)"/>
      <use xlink:href="#DejaVuSans-20" transform="translate(673.242188 0)"/>
      <use xlink:href="#DejaVuSans-28" transform="translate(705.029297 0)"/>
      <use xlink:href="#DejaVuSans-61" transform="translate(744.042969 0)"/>
      <use xlink:href="#DejaVuSans-72" transform="translate(805.322266 0)"/>
      <use xlink:href="#DejaVuSans-62" transform="translate(846.435547 0)"/>
      <use xlink:href="#DejaVuSans-29" transform="translate(909.912109 0)"/>
     </g>
    </g>
   </g>
   <g id="line2d_33">
    <path d="M 66.855795 249.607781 
L 68.660272 239.41417 
L 70.464749 230.930979 
L 72.269226 223.706899 
L 74.073703 217.456853 
L 75.87818 211.986461 
L 77.682657 207.155903 
L 79.487134 202.860549 
L 81.291611 199.019687 
L 83.096088 195.569544 
L 84.900565 192.458737 
L 86.705042 189.64519 
L 88.509519 187.093979 
L 90.313996 184.775775 
L 92.118472 182.665701 
L 93.922949 180.74247 
L 97.531903 177.385521 
L 101.140857 174.584726 
L 104.749811 172.247435 
L 108.358765 170.300817 
L 111.967719 168.686659 
L 115.576673 167.357777 
L 119.185626 166.275455 
L 122.79458 165.407587 
L 126.403534 164.727295 
L 130.012488 164.211887 
L 135.425919 163.706485 
L 140.83935 163.475337 
L 146.25278 163.475113 
L 151.666211 163.670602 
L 158.884119 164.186443 
L 166.102027 164.944009 
L 173.319934 165.89956 
L 182.342319 167.319734 
L 193.169181 169.285345 
L 205.800519 171.85078 
L 220.236335 175.040906 
L 238.281104 179.286609 
L 261.739304 185.051824 
L 355.572104 208.355082 
L 384.443735 215.180104 
L 411.510889 221.348857 
L 425.946705 224.541923 
L 425.946705 224.541923 
" clip-path="url(#pdc5b596a84)" style="fill: none; stroke-dasharray: 9.25,4; stroke-dashoffset: 0; stroke: #95a5a6; stroke-width: 2.5"/>
   </g>
   <g id="line2d_34">
    <path d="M 66.855795 308.951636 
L 70.464749 292.801202 
L 74.073703 277.80456 
L 77.682657 263.879283 
L 81.291611 250.948831 
L 84.900565 238.942135 
L 88.509519 227.7932 
L 92.118472 217.440749 
L 95.727426 207.827881 
L 99.33638 198.901758 
L 102.945334 190.61332 
L 106.554288 182.917011 
L 110.163242 175.770528 
L 113.772196 169.134593 
L 117.381149 162.97273 
L 120.990103 157.251073 
L 124.599057 151.938173 
L 128.208011 147.004828 
L 131.816965 142.423922 
L 135.425919 138.170278 
L 139.034873 134.220515 
L 142.643827 130.552925 
L 146.25278 127.147348 
L 149.861734 123.985067 
L 153.470688 121.0487 
L 157.079642 118.322108 
L 160.688596 115.790305 
L 166.102027 112.327662 
L 171.515457 109.229368 
L 176.928888 106.457087 
L 182.342319 103.976514 
L 187.75575 101.756955 
L 193.169181 99.770945 
L 198.582611 97.993908 
L 203.996042 96.403858 
L 211.21395 94.540952 
L 218.431858 92.934712 
L 225.649765 91.549774 
L 234.67215 90.083767 
L 243.694535 88.86573 
L 252.716919 87.85372 
L 263.543781 86.862622 
L 276.175119 85.953195 
L 290.610935 85.165389 
L 306.851227 84.51797 
L 326.700473 83.970479 
L 350.158673 83.554593 
L 380.834781 83.240526 
L 425.946705 83.024364 
L 425.946705 83.024364 
" clip-path="url(#pdc5b596a84)" style="fill: none; stroke: #9b59b6; stroke-width: 2.5; stroke-linecap: square"/>
   </g>
   <g id="patch_3">
    <path d="M 48.90125 320.248 
L 48.90125 71.728 
" style="fill: none; stroke: #000000; stroke-width: 0.8; stroke-linejoin: miter; stroke-linecap: square"/>
   </g>
   <g id="patch_4">
    <path d="M 443.90125 320.248 
L 443.90125 71.728 
" style="fill: none; stroke: #000000; stroke-width: 0.8; stroke-linejoin: miter; stroke-linecap: square"/>
   </g>
   <g id="patch_5">
    <path d="M 48.90125 320.248 
L 443.90125 320.248 
" style="fill: none; stroke: #000000; stroke-width: 0.8; stroke-linejoin: miter; stroke-linecap: square"/>
   </g>
   <g id="patch_6">
    <path d="M 48.90125 71.728 
L 443.90125 71.728 
" style="fill: none; stroke: #000000; stroke-width: 0.8; stroke-linejoin: miter; stroke-linecap: square"/>
   </g>
   <g id="text_19">
    <!-- Galaxy Rotation Curve -->
    <g transform="translate(179.02125 61.728) scale(0.12 -0.12)">
     <defs>
      <path id="DejaVuSans-47" d="M 3809 666 
L 3809 1919 
L 2778 1919 
L 2778 2438 
L 4434 2438 
L 4434 434 
Q 4069 175 3628 42 
Q 3188 -91 2688 -91 
Q 1594 -91 976 548 
Q 359 1188 359 2328 
Q 359 3472 976 4111 
Q 1594 4750 2688 4750 
Q 3144 4750 3555 4637 
Q 3966 4525 4313 4306 
L 4313 3634 
Q 3963 3931 3569 4081 
Q 3175 4231 2741 4231 
Q 1884 4231 1454 3753 
Q 1025 3275 1025 2328 
Q 1025 1384 1454 906 
Q 1884 428 2741 428 
Q 3075 428 3337 486 
Q 3600 544 3809 666 
z
" transform="scale(0.015625)"/>
      <path id="DejaVuSans-78" d="M 3513 3500 
L 2247 1797 
L 3578 0 
L 2900 0 
L 1881 1375 
L 863 0 
L 184 0 
L 1544 1831 
L 300 3500 
L 978 3500 
L 1906 2253 
L 2834 3500 
L 3513 3500 
z
" transform="scale(0.015625)"/>
      <path id="DejaVuSans-79" d="M 2059 -325 
Q 1816 -950 1584 -1140 
Q 1353 -1331 966 -1331 
L 506 -1331 
L 506 -850 
L 844 -850 
Q 1081 -850 1212 -737 
Q 1344 -625 1503 -206 
L 1606 56 
L 191 3500 
L 800 3500 
L 1894 763 
L 2988 3500 
L 3597 3500 
L 2059 -325 
z
" transform="scale(0.015625)"/>
      <path id="DejaVuSans-6f" d="M 1959 3097 
Q 1497 3097 1228 2736 
Q 959 2375 959 1747 
Q 959 1119 1226 758 
Q 1494 397 1959 397 
Q 2419 397 2687 759 
Q 2956 1122 2956 1747 
Q 2956 2369 2687 2733 
Q 2419 3097 1959 3097 
z
M 1959 3584 
Q 2709 3584 3137 3096 
Q 3566 2609 3566 1747 
Q 3566 888 3137 398 
Q 2709 -91 1959 -91 
Q 1206 -91 779 398 
Q 353 888 353 1747 
Q 353 2609 779 3096 
Q 1206 3584 1959 3584 
z
" transform="scale(0.015625)"/>
      <path id="DejaVuSans-6e" d="M 3513 2113 
L 3513 0 
L 2938 0 
L 2938 2094 
Q 2938 2591 2744 2837 
Q 2550 3084 2163 3084 
Q 1697 3084 1428 2787 
Q 1159 2491 1159 1978 
L 1159 0 
L 581 0 
L 581 3500 
L 1159 3500 
L 1159 2956 
Q 1366 3272 1645 3428 
Q 1925 3584 2291 3584 
Q 2894 3584 3203 3211 
Q 3513 2838 3513 2113 
z
" transform="scale(0.015625)"/>
      <path id="DejaVuSans-43" d="M 4122 4306 
L 4122 3641 
Q 3803 3938 3442 4084 
Q 3081 4231 2675 4231 
Q 1875 4231 1450 3742 
Q 1025 3253 1025 2328 
Q 1025 1406 1450 917 
Q 1875 428 2675 428 
Q 3081 428 3442 575 
Q 3803 722 4122 1019 
L 4122 359 
Q 3791 134 3420 21 
Q 3050 -91 2638 -91 
Q 1578 -91 968 557 
Q 359 1206 359 2328 
Q 359 3453 968 4101 
Q 1578 4750 2638 4750 
Q 3056 4750 3426 4639 
Q 3797 4528 4122 4306 
z
" transform="scale(0.015625)"/>
      <path id="DejaVuSans-76" d="M 191 3500 
L 800 3500 
L 1894 563 
L 2988 3500 
L 3597 3500 
L 2284 0 
L 1503 0 
L 191 3500 
z
" transform="scale(0.015625)"/>
     </defs>
     <use xlink:href="#DejaVuSans-47"/>
     <use xlink:href="#DejaVuSans-61" transform="translate(77.490234 0)"/>
     <use xlink:href="#DejaVuSans-6c" transform="translate(138.769531 0)"/>
     <use xlink:href="#DejaVuSans-61" transform="translate(166.552734 0)"/>
     <use xlink:href="#DejaVuSans-78" transform="translate(227.832031 0)"/>
     <use xlink:href="#DejaVuSans-79" transform="translate(287.011719 0)"/>
     <use xlink:href="#DejaVuSans-20" transform="translate(346.191406 0)"/>
     <use xlink:href="#DejaVuSans-52" transform="translate(377.978516 0)"/>
     <use xlink:href="#DejaVuSans-6f" transform="translate(442.960938 0)"/>
     <use xlink:href="#DejaVuSans-74" transform="translate(504.142578 0)"/>
     <use xlink:href="#DejaVuSans-61" transform="translate(543.351562 0)"/>
     <use xlink:href="#DejaVuSans-74" transform="translate(604.630859 0)"/>
     <use xlink:href="#DejaVuSans-69" transform="translate(643.839844 0)"/>
     <use xlink:href="#DejaVuSans-6f" transform="translate(671.623047 0)"/>
     <use xlink:href="#DejaVuSans-6e" transform="translate(732.804688 0)"/>
     <use xlink:href="#DejaVuSans-20" transform="translate(796.183594 0)"/>
     <use xlink:href="#DejaVuSans-43" transform="translate(827.970703 0)"/>
     <use xlink:href="#DejaVuSans-75" transform="translate(897.794922 0)"/>
     <use xlink:href="#DejaVuSans-72" transform="translate(961.173828 0)"/>
     <use xlink:href="#DejaVuSans-76" transform="translate(1002.287109 0)"/>
     <use xlink:href="#DejaVuSans-65" transform="translate(1061.466797 0)"/>
    </g>
   </g>
   <g id="legend_1">
    <g id="patch_7">
     <path d="M 356.85125 316.248 
L 438.30125 316.248 
Q 439.90125 316.248 439.90125 314.648 
L 439.90125 291.963 
Q 439.90125 290.363 438.30125 290.363 
L 356.85125 290.363 
Q 355.25125 290.363 355.25125 291.963 
L 355.25125 314.648 
Q 355.25125 316.248 356.85125 316.248 
z
" style="fill: #ffffff; opacity: 0.8; stroke: #cccccc; stroke-linejoin: miter"/>
    </g>
    <g id="line2d_35">
     <path d="M 358.45125 296.84175 
L 366.45125 296.84175 
L 374.45125 296.84175 
" style="fill: none; stroke-dasharray: 9.25,4; stroke-dashoffset: 0; stroke: #95a5a6; stroke-width: 2.5"/>
    </g>
    <g id="text_20">
     <!-- Visible matter -->
     <g transform="translate(380.85125 299.64175) scale(0.08 -0.08)">
      <defs>
       <path id="DejaVuSans-56" d="M 1831 0 
L 50 4666 
L 709 4666 
L 2188 738 
L 3669 4666 
L 4325 4666 
L 2547 0 
L 1831 0 
z
" transform="scale(0.015625)"/>
      </defs>
      <use xlink:href="#DejaVuSans-56"/>
      <use xlink:href="#DejaVuSans-69" transform="translate(66.158203 0)"/>
      <use xlink:href="#DejaVuSans-73" transform="translate(93.941406 0)"/>
      <use xlink:href="#DejaVuSans-69" transform="translate(146.041016 0)"/>
      <use xlink:href="#DejaVuSans-62" transform="translate(173.824219 0)"/>
      <use xlink:href="#DejaVuSans-6c" transform="translate(237.300781 0)"/>
      <use xlink:href="#DejaVuSans-65" transform="translate(265.083984 0)"/>
      <use xlink:href="#DejaVuSans-20" transform="translate(326.607422 0)"/>
      <use xlink:href="#DejaVuSans-6d" transform="translate(358.394531 0)"/>
      <use xlink:href="#DejaVuSans-61" transform="translate(455.806641 0)"/>
      <use xlink:href="#DejaVuSans-74" transform="translate(517.085938 0)"/>
      <use xlink:href="#DejaVuSans-74" transform="translate(556.294922 0)"/>
      <use xlink:href="#DejaVuSans-65" transform="translate(595.503906 0)"/>
      <use xlink:href="#DejaVuSans-72" transform="translate(657.027344 0)"/>
     </g>
    </g>
    <g id="line2d_36">
     <path d="M 358.45125 308.58425 
L 366.45125 308.58425 
L 374.45125 308.58425 
" style="fill: none; stroke: #9b59b6; stroke-width: 2.5; stroke-linecap: square"/>
    </g>
    <g id="text_21">
     <!-- Observed -->
     <g transform="translate(380.85125 311.38425) scale(0.08 -0.08)">
      <use xlink:href="#DejaVuSans-4f"/>
      <use xlink:href="#DejaVuSans-62" transform="translate(78.710938 0)"/>
      <use xlink:href="#DejaVuSans-73" transform="translate(142.1875 0)"/>
      <use xlink:href="#DejaVuSans-65" transform="translate(194.287109 0)"/>
      <use xlink:href="#DejaVuSans-72" transform="translate(255.810547 0)"/>
      <use xlink:href="#DejaVuSans-76" transform="translate(296.923828 0)"/>
      <use xlink:href="#DejaVuSans-65" transform="translate(356.103516 0)"/>
      <use xlink:href="#DejaVuSans-64" transform="translate(417.626953 0)"/>
     </g>
    </g>
   </g>
  </g>
  <g id="axes_2">
   <g id="patch_8">
    <path d="M 563.32625 253.976 
C 581.658414 253.976 599.242209 247.866019 612.205006 236.991708 
C 625.167804 226.117398 632.45125 211.366597 632.45125 195.988 
C 632.45125 180.609403 625.167804 165.858602 612.205006 154.984292 
C 599.242209 144.109981 581.658414 138 563.32625 138 
C 544.994086 138 527.410291 144.109981 514.447494 154.984292 
C 501.484696 165.858602 494.20125 180.609403 494.20125 195.988 
C 494.20125 211.366597 501.484696 226.117398 514.447494 236.991708 
C 527.410291 247.866019 544.994086 253.976 563.32625 253.976 
z
" clip-path="url(#p2d2bdc952b)" style="fill: #9b59b6; opacity: 0.1; stroke: #9b59b6; stroke-width: 2.5; stroke-linejoin: miter"/>
   </g>
   <g id="patch_9">
    <path d="M 741.07625 253.976 
C 759.408414 253.976 776.992209 247.866019 789.955006 236.991708 
C 802.917804 226.117398 810.20125 211.366597 810.20125 195.988 
C 810.20125 180.609403 802.917804 165.858602 789.955006 154.984292 
C 776.992209 144.109981 759.408414 138 741.07625 138 
C 722.744086 138 705.160291 144.109981 692.197494 154.984292 
C 679.234696 165.858602 671.95125 180.609403 671.95125 195.988 
C 671.95125 211.366597 679.234696 226.117398 692.197494 236.991708 
C 705.160291 247.866019 722.744086 253.976 741.07625 253.976 
z
" clip-path="url(#p2d2bdc952b)" style="fill: #9b59b6; opacity: 0.1; stroke: #9b59b6; stroke-width: 2.5; stroke-linejoin: miter"/>
   </g>
   <g id="patch_10">
    <path d="M 652.20125 220.84 
C 671.842855 220.84 690.682634 218.221437 704.571346 213.561018 
C 718.460058 208.900599 726.26375 202.578827 726.26375 195.988 
C 726.26375 189.397173 718.460058 183.075401 704.571346 178.414982 
C 690.682634 173.754563 671.842855 171.136 652.20125 171.136 
C 632.559645 171.136 613.719866 173.754563 599.831154 178.414982 
C 585.942442 183.075401 578.13875 189.397173 578.13875 195.988 
C 578.13875 202.578827 585.942442 208.900599 599.831154 213.561018 
C 613.719866 218.221437 632.559645 220.84 652.20125 220.84 
z
" clip-path="url(#p2d2bdc952b)" style="fill: #f39c12; opacity: 0.18; stroke: #f39c12; stroke-width: 2.5; stroke-linejoin: miter"/>
   </g>
   <g id="patch_11">
    <path d="M 496.202288 88.296 
Q 652.202794 88.296 805.408216 88.296 
" style="fill: none; stroke: #95a5a6; stroke-width: 2.5; stroke-linecap: round"/>
    <path d="M 801.408216 86.296 
L 805.408216 88.296 
L 801.408216 90.296 
" style="fill: none; stroke: #95a5a6; stroke-width: 2.5; stroke-linecap: round"/>
   </g>
   <g id="text_22">
    <!-- collision direction -->
    <g style="fill: #95a5a6" transform="translate(617.244375 82.083) scale(0.08 -0.08)">
     <use xlink:href="#DejaVuSans-63"/>
     <use xlink:href="#DejaVuSans-6f" transform="translate(54.980469 0)"/>
     <use xlink:href="#DejaVuSans-6c" transform="translate(116.162109 0)"/>
     <use xlink:href="#DejaVuSans-6c" transform="translate(143.945312 0)"/>
     <use xlink:href="#DejaVuSans-69" transform="translate(171.728516 0)"/>
     <use xlink:href="#DejaVuSans-73" transform="translate(199.511719 0)"/>
     <use xlink:href="#DejaVuSans-69" transform="translate(251.611328 0)"/>
     <use xlink:href="#DejaVuSans-6f" transform="translate(279.394531 0)"/>
     <use xlink:href="#DejaVuSans-6e" transform="translate(340.576172 0)"/>
     <use xlink:href="#DejaVuSans-20" transform="translate(403.955078 0)"/>
     <use xlink:href="#DejaVuSans-64" transform="translate(435.742188 0)"/>
     <use xlink:href="#DejaVuSans-69" transform="translate(499.21875 0)"/>
     <use xlink:href="#DejaVuSans-72" transform="translate(527.001953 0)"/>
     <use xlink:href="#DejaVuSans-65" transform="translate(565.865234 0)"/>
     <use xlink:href="#DejaVuSans-63" transform="translate(627.388672 0)"/>
     <use xlink:href="#DejaVuSans-74" transform="translate(682.369141 0)"/>
     <use xlink:href="#DejaVuSans-69" transform="translate(721.578125 0)"/>
     <use xlink:href="#DejaVuSans-6f" transform="translate(749.361328 0)"/>
     <use xlink:href="#DejaVuSans-6e" transform="translate(810.542969 0)"/>
    </g>
   </g>
   <g id="text_23">
    <!-- lensing mass -->
    <g style="fill: #9b59b6" transform="translate(537.163125 272.615) scale(0.08 -0.08)">
     <defs>
      <path id="DejaVuSans-67" d="M 2906 1791 
Q 2906 2416 2648 2759 
Q 2391 3103 1925 3103 
Q 1463 3103 1205 2759 
Q 947 2416 947 1791 
Q 947 1169 1205 825 
Q 1463 481 1925 481 
Q 2391 481 2648 825 
Q 2906 1169 2906 1791 
z
M 3481 434 
Q 3481 -459 3084 -895 
Q 2688 -1331 1869 -1331 
Q 1566 -1331 1297 -1286 
Q 1028 -1241 775 -1147 
L 775 -588 
Q 1028 -725 1275 -790 
Q 1522 -856 1778 -856 
Q 2344 -856 2625 -561 
Q 2906 -266 2906 331 
L 2906 616 
Q 2728 306 2450 153 
Q 2172 0 1784 0 
Q 1141 0 747 490 
Q 353 981 353 1791 
Q 353 2603 747 3093 
Q 1141 3584 1784 3584 
Q 2172 3584 2450 3431 
Q 2728 3278 2906 2969 
L 2906 3500 
L 3481 3500 
L 3481 434 
z
" transform="scale(0.015625)"/>
     </defs>
     <use xlink:href="#DejaVuSans-6c"/>
     <use xlink:href="#DejaVuSans-65" transform="translate(27.783203 0)"/>
     <use xlink:href="#DejaVuSans-6e" transform="translate(89.306641 0)"/>
     <use xlink:href="#DejaVuSans-73" transform="translate(152.685547 0)"/>
     <use xlink:href="#DejaVuSans-69" transform="translate(204.785156 0)"/>
     <use xlink:href="#DejaVuSans-6e" transform="translate(232.568359 0)"/>
     <use xlink:href="#DejaVuSans-67" transform="translate(295.947266 0)"/>
     <use xlink:href="#DejaVuSans-20" transform="translate(359.423828 0)"/>
     <use xlink:href="#DejaVuSans-6d" transform="translate(391.210938 0)"/>
     <use xlink:href="#DejaVuSans-61" transform="translate(488.623047 0)"/>
     <use xlink:href="#DejaVuSans-73" transform="translate(549.902344 0)"/>
     <use xlink:href="#DejaVuSans-73" transform="translate(602.001953 0)"/>
    </g>
   </g>
   <g id="text_24">
    <!-- lensing mass -->
    <g style="fill: #9b59b6" transform="translate(714.913125 272.615) scale(0.08 -0.08)">
     <use xlink:href="#DejaVuSans-6c"/>
     <use xlink:href="#DejaVuSans-65" transform="translate(27.783203 0)"/>
     <use xlink:href="#DejaVuSans-6e" transform="translate(89.306641 0)"/>
     <use xlink:href="#DejaVuSans-73" transform="translate(152.685547 0)"/>
     <use xlink:href="#DejaVuSans-69" transform="translate(204.785156 0)"/>
     <use xlink:href="#DejaVuSans-6e" transform="translate(232.568359 0)"/>
     <use xlink:href="#DejaVuSans-67" transform="translate(295.947266 0)"/>
     <use xlink:href="#DejaVuSans-20" transform="translate(359.423828 0)"/>
     <use xlink:href="#DejaVuSans-6d" transform="translate(391.210938 0)"/>
     <use xlink:href="#DejaVuSans-61" transform="translate(488.623047 0)"/>
     <use xlink:href="#DejaVuSans-73" transform="translate(549.902344 0)"/>
     <use xlink:href="#DejaVuSans-73" transform="translate(602.001953 0)"/>
    </g>
   </g>
   <g id="text_25">
    <!-- hot gas -->
    <g style="fill: #f39c12" transform="translate(637.305 158.71) scale(0.08 -0.08)">
     <use xlink:href="#DejaVuSans-68"/>
     <use xlink:href="#DejaVuSans-6f" transform="translate(63.378906 0)"/>
     <use xlink:href="#DejaVuSans-74" transform="translate(124.560547 0)"/>
     <use xlink:href="#DejaVuSans-20" transform="translate(163.769531 0)"/>
     <use xlink:href="#DejaVuSans-67" transform="translate(195.556641 0)"/>
     <use xlink:href="#DejaVuSans-61" transform="translate(259.033203 0)"/>
     <use xlink:href="#DejaVuSans-73" transform="translate(320.3125 0)"/>
    </g>
   </g>
   <g id="text_26">
    <!-- Bullet Cluster (schematic) -->
    <g transform="translate(574.355 61.728) scale(0.12 -0.12)">
     <defs>
      <path id="DejaVuSans-42" d="M 1259 2228 
L 1259 519 
L 2272 519 
Q 2781 519 3026 730 
Q 3272 941 3272 1375 
Q 3272 1813 3026 2020 
Q 2781 2228 2272 2228 
L 1259 2228 
z
M 1259 4147 
L 1259 2741 
L 2194 2741 
Q 2656 2741 2882 2914 
Q 3109 3088 3109 3444 
Q 3109 3797 2882 3972 
Q 2656 4147 2194 4147 
L 1259 4147 
z
M 628 4666 
L 2241 4666 
Q 2963 4666 3353 4366 
Q 3744 4066 3744 3513 
Q 3744 3084 3544 2831 
Q 3344 2578 2956 2516 
Q 3422 2416 3680 2098 
Q 3938 1781 3938 1306 
Q 3938 681 3513 340 
Q 3088 0 2303 0 
L 628 0 
L 628 4666 
z
" transform="scale(0.015625)"/>
     </defs>
     <use xlink:href="#DejaVuSans-42"/>
     <use xlink:href="#DejaVuSans-75" transform="translate(68.603516 0)"/>
     <use xlink:href="#DejaVuSans-6c" transform="translate(131.982422 0)"/>
     <use xlink:href="#DejaVuSans-6c" transform="translate(159.765625 0)"/>
     <use xlink:href="#DejaVuSans-65" transform="translate(187.548828 0)"/>
     <use xlink:href="#DejaVuSans-74" transform="translate(249.072266 0)"/>
     <use xlink:href="#DejaVuSans-20" transform="translate(288.28125 0)"/>
     <use xlink:href="#DejaVuSans-43" transform="translate(320.068359 0)"/>
     <use xlink:href="#DejaVuSans-6c" transform="translate(389.892578 0)"/>
     <use xlink:href="#DejaVuSans-75" transform="translate(417.675781 0)"/>
     <use xlink:href="#DejaVuSans-73" transform="translate(481.054688 0)"/>
     <use xlink:href="#DejaVuSans-74" transform="translate(533.154297 0)"/>
     <use xlink:href="#DejaVuSans-65" transform="translate(572.363281 0)"/>
     <use xlink:href="#DejaVuSans-72" transform="translate(633.886719 0)"/>
     <use xlink:href="#DejaVuSans-20" transform="translate(675 0)"/>
     <use xlink:href="#DejaVuSans-28" transform="translate(706.787109 0)"/>
     <use xlink:href="#DejaVuSans-73" transform="translate(745.800781 0)"/>
     <use xlink:href="#DejaVuSans-63" transform="translate(797.900391 0)"/>
     <use xlink:href="#DejaVuSans-68" transform="translate(852.880859 0)"/>
     <use xlink:href="#DejaVuSans-65" transform="translate(916.259766 0)"/>
     <use xlink:href="#DejaVuSans-6d" transform="translate(977.783203 0)"/>
     <use xlink:href="#DejaVuSans-61" transform="translate(1075.195312 0)"/>
     <use xlink:href="#DejaVuSans-74" transform="translate(1136.474609 0)"/>
     <use xlink:href="#DejaVuSans-69" transform="translate(1175.683594 0)"/>
     <use xlink:href="#DejaVuSans-63" transform="translate(1203.466797 0)"/>
     <use xlink:href="#DejaVuSans-29" transform="translate(1258.447266 0)"/>
    </g>
   </g>
  </g>
  <g id="text_27">
   <!-- Evidence for Dark Matter -->
   <g transform="translate(340.734375 17.837812) scale(0.14 -0.14)">
    <defs>
     <path id="DejaVuSans-45" d="M 628 4666 
L 3578 4666 
L 3578 4134 
L 1259 4134 
L 1259 2753 
L 3481 2753 
L 3481 2222 
L 1259 2222 
L 1259 531 
L 3634 531 
L 3634 0 
L 628 0 
L 628 4666 
z
" transform="scale(0.015625)"/>
     <path id="DejaVuSans-66" d="M 2375 4863 
L 2375 4384 
L 1825 4384 
Q 1516 4384 1395 4259 
Q 1275 4134 1275 3809 
L 1275 3500 
L 2222 3500 
L 2222 3053 
L 1275 3053 
L 1275 0 
L 697 0 
L 697 3053 
L 147 3053 
L 147 3500 
L 697 3500 
L 697 3744 
Q 697 4328 969 4595 
Q 1241 4863 1831 4863 
L 2375 4863 
z
" transform="scale(0.015625)"/>
     <path id="DejaVuSans-44" d="M 1259 4147 
L 1259 519 
L 2022 519 
Q 2988 519 3436 956 
Q 3884 1394 3884 2338 
Q 3884 3275 3436 3711 
Q 2988 4147 2022 4147 
L 1259 4147 
z
M 628 4666 
L 1925 4666 
Q 3281 4666 3915 4102 
Q 4550 3538 4550 2338 
Q 4550 1131 3912 565 
Q 3275 0 1925 0 
L 628 0 
L 628 4666 
z
" transform="scale(0.015625)"/>
     <path id="DejaVuSans-4d" d="M 628 4666 
L 1569 4666 
L 2759 1491 
L 3956 4666 
L 4897 4666 
L 4897 0 
L 4281 0 
L 4281 4097 
L 3078 897 
L 2444 897 
L 1241 4097 
L 1241 0 
L 628 0 
L 628 4666 
z
" transform="scale(0.015625)"/>
    </defs>
    <use xlink:href="#DejaVuSans-45"/>
    <use xlink:href="#DejaVuSans-76" transform="translate(63.183594 0)"/>
    <use xlink:href="#DejaVuSans-69" transform="translate(122.363281 0)"/>
    <use xlink:href="#DejaVuSans-64" transform="translate(150.146484 0)"/>
    <use xlink:href="#DejaVuSans-65" transform="translate(213.623047 0)"/>
    <use xlink:href="#DejaVuSans-6e" transform="translate(275.146484 0)"/>
    <use xlink:href="#DejaVuSans-63" transform="translate(338.525391 0)"/>
    <use xlink:href="#DejaVuSans-65" transform="translate(393.505859 0)"/>
    <use xlink:href="#DejaVuSans-20" transform="translate(455.029297 0)"/>
    <use xlink:href="#DejaVuSans-66" transform="translate(486.816406 0)"/>
    <use xlink:href="#DejaVuSans-6f" transform="translate(522.021484 0)"/>
    <use xlink:href="#DejaVuSans-72" transform="translate(583.203125 0)"/>
    <use xlink:href="#DejaVuSans-20" transform="translate(624.316406 0)"/>
    <use xlink:href="#DejaVuSans-44" transform="translate(656.103516 0)"/>
    <use xlink:href="#DejaVuSans-61" transform="translate(733.105469 0)"/>
    <use xlink:href="#DejaVuSans-72" transform="translate(794.384766 0)"/>
    <use xlink:href="#DejaVuSans-6b" transform="translate(835.498047 0)"/>
    <use xlink:href="#DejaVuSans-20" transform="translate(893.408203 0)"/>
    <use xlink:href="#DejaVuSans-4d" transform="translate(925.195312 0)"/>
    <use xlink:href="#DejaVuSans-61" transform="translate(1011.474609 0)"/>
    <use xlink:href="#DejaVuSans-74" transform="translate(1072.753906 0)"/>
    <use xlink:href="#DejaVuSans-74" transform="translate(1111.962891 0)"/>
    <use xlink:href="#DejaVuSans-65" transform="translate(1151.171875 0)"/>
    <use xlink:href="#DejaVuSans-72" transform="translate(1212.695312 0)"/>
   </g>
  </g>
 </g>
 <defs>
  <clipPath id="pdc5b596a84">
   <rect x="48.90125" y="71.728" width="395" height="248.52"/>
  </clipPath>
  <clipPath id="p2d2bdc952b">
   <rect x="454.70125" y="71.728" width="395" height="248.52"/>
  </clipPath>
 </defs>
</svg>
