<?xml version="1.0" encoding="utf-8" standalone="no"?>
<!DOCTYPE svg PUBLIC "-//W3C//DTD SVG 1.1//EN"
  "http://www.w3.org/Graphics/SVG/1.1/DTD/svg11.dtd">
<svg xmlns:xlink="http://www.w3.org/1999/xlink" width="276pt" height="184.5pt" viewBox="0 0 276 184.5" xmlns="http://www.w3.org/2000/svg" version="1.1">
 <metadata>
  <rdf:RDF xmlns:dc="http://purl.org/dc/elements/1.1/" xmlns:cc="http://creativecommons.org/ns#" xmlns:rdf="http://www.w3.org/1999/02/22-rdf-syntax-ns#">
   <cc:Work>
    <dc:type rdf:resource="http://purl.org/dc/dcmitype/StillImage"/>
    <dc:date>2026-01-02T17:09:00.992495</dc:date>
    <dc:format>image/svg+xml</dc:format>
    <dc:creator>
     <cc:Agent>
      <dc:title>Matplotlib v3.10.8, https://matplotlib.org/</dc:title>
     </cc:Agent>
    </dc:creator>
   </cc:Work>
  </rdf:RDF>
 </metadata>
 <defs>
  <style type="text/css">*{stroke-linejoin: round; stroke-linecap: butt}</style>
 </defs>
 <g id="figure_1">
  <g id="patch_1">
   <path d="M 0 184.5 
L 276 184.5 
L 276 0 
L 0 0 
z
" style="fill: #ffffff"/>
  </g>
  <g id="axes_1">
   <g id="text_1">
    <!-- Velocity -->
    <g style="fill: #2c3e50" transform="translate(12.432 18.253563) scale(0.1 -0.1)">
     <defs>
      <path id="DejaVuSansMono-56" d="M 1925 531 
L 3022 4666 
L 3675 4666 
L 2309 0 
L 1544 0 
L 178 4666 
L 831 4666 
L 1925 531 
z
" transform="scale(0.015625)"/>
      <path id="DejaVuSansMono-65" d="M 3475 1894 
L 3475 1613 
L 984 1613 
L 984 1594 
Q 984 1022 1282 709 
Q 1581 397 2125 397 
Q 2400 397 2700 484 
Q 3000 572 3341 750 
L 3341 178 
Q 3013 44 2708 -23 
Q 2403 -91 2119 -91 
Q 1303 -91 843 398 
Q 384 888 384 1747 
Q 384 2584 834 3084 
Q 1284 3584 2034 3584 
Q 2703 3584 3089 3131 
Q 3475 2678 3475 1894 
z
M 2900 2063 
Q 2888 2569 2661 2833 
Q 2434 3097 2009 3097 
Q 1594 3097 1325 2822 
Q 1056 2547 1006 2059 
L 2900 2063 
z
" transform="scale(0.015625)"/>
      <path id="DejaVuSansMono-6c" d="M 1997 1269 
Q 1997 881 2139 684 
Q 2281 488 2559 488 
L 3231 488 
L 3231 0 
L 2503 0 
Q 1988 0 1705 331 
Q 1422 663 1422 1269 
L 1422 4447 
L 500 4447 
L 500 4897 
L 1997 4897 
L 1997 1269 
z
" transform="scale(0.015625)"/>
      <path id="DejaVuSansMono-6f" d="M 1925 3097 
Q 1488 3097 1263 2756 
Q 1038 2416 1038 1747 
Q 1038 1081 1263 739 
Q 1488 397 1925 397 
Q 2366 397 2591 739 
Q 2816 1081 2816 1747 
Q 2816 2416 2591 2756 
Q 2366 3097 1925 3097 
z
M 1925 3584 
Q 2653 3584 3039 3112 
Q 3425 2641 3425 1747 
Q 3425 850 3040 379 
Q 2656 -91 1925 -91 
Q 1197 -91 812 379 
Q 428 850 428 1747 
Q 428 2641 812 3112 
Q 1197 3584 1925 3584 
z
" transform="scale(0.015625)"/>
      <path id="DejaVuSansMono-63" d="M 3316 178 
Q 3084 44 2839 -23 
Q 2594 -91 2338 -91 
Q 1525 -91 1067 396 
Q 609 884 609 1747 
Q 609 2609 1067 3096 
Q 1525 3584 2338 3584 
Q 2591 3584 2831 3518 
Q 3072 3453 3316 3316 
L 3316 2713 
Q 3088 2916 2858 3006 
Q 2628 3097 2338 3097 
Q 1797 3097 1506 2747 
Q 1216 2397 1216 1747 
Q 1216 1100 1508 748 
Q 1800 397 2338 397 
Q 2638 397 2875 489 
Q 3113 581 3316 775 
L 3316 178 
z
" transform="scale(0.015625)"/>
      <path id="DejaVuSansMono-69" d="M 800 3500 
L 2272 3500 
L 2272 447 
L 3413 447 
L 3413 0 
L 556 0 
L 556 447 
L 1697 447 
L 1697 3053 
L 800 3053 
L 800 3500 
z
M 1697 4863 
L 2272 4863 
L 2272 4134 
L 1697 4134 
L 1697 4863 
z
" transform="scale(0.015625)"/>
      <path id="DejaVuSansMono-74" d="M 1919 4494 
L 1919 3500 
L 3225 3500 
L 3225 3053 
L 1919 3053 
L 1919 1153 
Q 1919 766 2066 612 
Q 2213 459 2578 459 
L 3225 459 
L 3225 0 
L 2522 0 
Q 1875 0 1609 259 
Q 1344 519 1344 1153 
L 1344 3053 
L 409 3053 
L 409 3500 
L 1344 3500 
L 1344 4494 
L 1919 4494 
z
" transform="scale(0.015625)"/>
      <path id="DejaVuSansMono-79" d="M 2681 1125 
Q 2538 759 2316 163 
Q 2006 -663 1900 -844 
Q 1756 -1088 1540 -1209 
Q 1325 -1331 1038 -1331 
L 575 -1331 
L 575 -850 
L 916 -850 
Q 1169 -850 1312 -703 
Q 1456 -556 1678 56 
L 325 3500 
L 934 3500 
L 1972 763 
L 2994 3500 
L 3603 3500 
L 2681 1125 
z
" transform="scale(0.015625)"/>
     </defs>
     <use xlink:href="#DejaVuSansMono-56"/>
     <use xlink:href="#DejaVuSansMono-65" transform="translate(60.205078 0)"/>
     <use xlink:href="#DejaVuSansMono-6c" transform="translate(120.410156 0)"/>
     <use xlink:href="#DejaVuSansMono-6f" transform="translate(180.615234 0)"/>
     <use xlink:href="#DejaVuSansMono-63" transform="translate(240.820312 0)"/>
     <use xlink:href="#DejaVuSansMono-69" transform="translate(301.025391 0)"/>
     <use xlink:href="#DejaVuSansMono-74" transform="translate(361.230469 0)"/>
     <use xlink:href="#DejaVuSansMono-79" transform="translate(421.435547 0)"/>
    </g>
    <!--     │ -->
    <g style="fill: #2c3e50" transform="translate(12.432 31.588875) scale(0.1 -0.1)">
     <defs>
      <path id="DejaVuSansMono-20" transform="scale(0.015625)"/>
      <path id="DejaVuSansMono-2502" d="M 1675 -1600 
L 1675 6003 
L 2175 6003 
L 2175 -1600 
L 1675 -1600 
z
" transform="scale(0.015625)"/>
     </defs>
     <use xlink:href="#DejaVuSansMono-20"/>
     <use xlink:href="#DejaVuSansMono-20" transform="translate(60.205078 0)"/>
     <use xlink:href="#DejaVuSansMono-20" transform="translate(120.410156 0)"/>
     <use xlink:href="#DejaVuSansMono-20" transform="translate(180.615234 0)"/>
     <use xlink:href="#DejaVuSansMono-2502" transform="translate(240.820312 0)"/>
    </g>
    <!--     │     ─────────────── Observed -->
    <g style="fill: #2c3e50" transform="translate(12.432 45.3445) scale(0.1 -0.1)">
     <defs>
      <path id="DejaVuSansMono-2500" d="M -63 1931 
L -63 2469 
L 3916 2469 
L 3916 1931 
L -63 1931 
z
" transform="scale(0.015625)"/>
      <path id="DejaVuSansMono-4f" d="M 2828 2328 
Q 2828 3356 2617 3797 
Q 2406 4238 1925 4238 
Q 1447 4238 1236 3797 
Q 1025 3356 1025 2328 
Q 1025 1303 1236 862 
Q 1447 422 1925 422 
Q 2406 422 2617 861 
Q 2828 1300 2828 2328 
z
M 3488 2328 
Q 3488 1109 3102 509 
Q 2716 -91 1925 -91 
Q 1134 -91 750 506 
Q 366 1103 366 2328 
Q 366 3550 752 4150 
Q 1138 4750 1925 4750 
Q 2716 4750 3102 4150 
Q 3488 3550 3488 2328 
z
" transform="scale(0.015625)"/>
      <path id="DejaVuSansMono-62" d="M 2869 1747 
Q 2869 2416 2656 2756 
Q 2444 3097 2028 3097 
Q 1609 3097 1393 2755 
Q 1178 2413 1178 1747 
Q 1178 1084 1393 740 
Q 1609 397 2028 397 
Q 2444 397 2656 737 
Q 2869 1078 2869 1747 
z
M 1178 3053 
Q 1316 3309 1558 3446 
Q 1800 3584 2119 3584 
Q 2750 3584 3112 3098 
Q 3475 2613 3475 1759 
Q 3475 894 3111 401 
Q 2747 -91 2113 -91 
Q 1800 -91 1561 45 
Q 1322 181 1178 441 
L 1178 0 
L 603 0 
L 603 4863 
L 1178 4863 
L 1178 3053 
z
" transform="scale(0.015625)"/>
      <path id="DejaVuSansMono-73" d="M 3041 3378 
L 3041 2816 
Q 2794 2959 2544 3031 
Q 2294 3103 2034 3103 
Q 1644 3103 1451 2976 
Q 1259 2850 1259 2591 
Q 1259 2356 1403 2240 
Q 1547 2125 2119 2016 
L 2350 1972 
Q 2778 1891 2998 1647 
Q 3219 1403 3219 1013 
Q 3219 494 2850 201 
Q 2481 -91 1825 -91 
Q 1566 -91 1281 -36 
Q 997 19 666 128 
L 666 722 
Q 988 556 1281 473 
Q 1575 391 1838 391 
Q 2219 391 2428 545 
Q 2638 700 2638 978 
Q 2638 1378 1872 1531 
L 1847 1538 
L 1631 1581 
Q 1134 1678 906 1908 
Q 678 2138 678 2534 
Q 678 3038 1018 3311 
Q 1359 3584 1991 3584 
Q 2272 3584 2531 3532 
Q 2791 3481 3041 3378 
z
" transform="scale(0.015625)"/>
      <path id="DejaVuSansMono-72" d="M 3609 2778 
Q 3425 2922 3234 2987 
Q 3044 3053 2816 3053 
Q 2278 3053 1993 2715 
Q 1709 2378 1709 1741 
L 1709 0 
L 1131 0 
L 1131 3500 
L 1709 3500 
L 1709 2816 
Q 1853 3188 2151 3386 
Q 2450 3584 2859 3584 
Q 3072 3584 3256 3531 
Q 3441 3478 3609 3366 
L 3609 2778 
z
" transform="scale(0.015625)"/>
      <path id="DejaVuSansMono-76" d="M 313 3500 
L 909 3500 
L 1925 563 
L 2944 3500 
L 3541 3500 
L 2297 0 
L 1556 0 
L 313 3500 
z
" transform="scale(0.015625)"/>
      <path id="DejaVuSansMono-64" d="M 2681 3053 
L 2681 4863 
L 3256 4863 
L 3256 0 
L 2681 0 
L 2681 441 
Q 2538 181 2298 45 
Q 2059 -91 1747 -91 
Q 1113 -91 748 401 
Q 384 894 384 1759 
Q 384 2613 750 3098 
Q 1116 3584 1747 3584 
Q 2063 3584 2303 3448 
Q 2544 3313 2681 3053 
z
M 991 1747 
Q 991 1078 1203 737 
Q 1416 397 1831 397 
Q 2247 397 2464 740 
Q 2681 1084 2681 1747 
Q 2681 2413 2464 2755 
Q 2247 3097 1831 3097 
Q 1416 3097 1203 2756 
Q 991 2416 991 1747 
z
" transform="scale(0.015625)"/>
     </defs>
     <use xlink:href="#DejaVuSansMono-20"/>
     <use xlink:href="#DejaVuSansMono-20" transform="translate(60.205078 0)"/>
     <use xlink:href="#DejaVuSansMono-20" transform="translate(120.410156 0)"/>
     <use xlink:href="#DejaVuSansMono-20" transform="translate(180.615234 0)"/>
     <use xlink:href="#DejaVuSansMono-2502" transform="translate(240.820312 0)"/>
     <use xlink:href="#DejaVuSansMono-20" transform="translate(301.025391 0)"/>
     <use xlink:href="#DejaVuSansMono-20" transform="translate(361.230469 0)"/>
     <use xlink:href="#DejaVuSansMono-20" transform="translate(421.435547 0)"/>
     <use xlink:href="#DejaVuSansMono-20" transform="translate(481.640625 0)"/>
     <use xlink:href="#DejaVuSansMono-20" transform="translate(541.845703 0)"/>
     <use xlink:href="#DejaVuSansMono-2500" transform="translate(602.050781 0)"/>
     <use xlink:href="#DejaVuSansMono-2500" transform="translate(662.255859 0)"/>
     <use xlink:href="#DejaVuSansMono-2500" transform="translate(722.460938 0)"/>
     <use xlink:href="#DejaVuSansMono-2500" transform="translate(782.666016 0)"/>
     <use xlink:href="#DejaVuSansMono-2500" transform="translate(842.871094 0)"/>
     <use xlink:href="#DejaVuSansMono-2500" transform="translate(903.076172 0)"/>
     <use xlink:href="#DejaVuSansMono-2500" transform="translate(963.28125 0)"/>
     <use xlink:href="#DejaVuSansMono-2500" transform="translate(1023.486328 0)"/>
     <use xlink:href="#DejaVuSansMono-2500" transform="translate(1083.691406 0)"/>
     <use xlink:href="#DejaVuSansMono-2500" transform="translate(1143.896484 0)"/>
     <use xlink:href="#DejaVuSansMono-2500" transform="translate(1204.101562 0)"/>
     <use xlink:href="#DejaVuSansMono-2500" transform="translate(1264.306641 0)"/>
     <use xlink:href="#DejaVuSansMono-2500" transform="translate(1324.511719 0)"/>
     <use xlink:href="#DejaVuSansMono-2500" transform="translate(1384.716797 0)"/>
     <use xlink:href="#DejaVuSansMono-2500" transform="translate(1444.921875 0)"/>
     <use xlink:href="#DejaVuSansMono-20" transform="translate(1505.126953 0)"/>
     <use xlink:href="#DejaVuSansMono-4f" transform="translate(1565.332031 0)"/>
     <use xlink:href="#DejaVuSansMono-62" transform="translate(1625.537109 0)"/>
     <use xlink:href="#DejaVuSansMono-73" transform="translate(1685.742188 0)"/>
     <use xlink:href="#DejaVuSansMono-65" transform="translate(1745.947266 0)"/>
     <use xlink:href="#DejaVuSansMono-72" transform="translate(1806.152344 0)"/>
     <use xlink:href="#DejaVuSansMono-76" transform="translate(1866.357422 0)"/>
     <use xlink:href="#DejaVuSansMono-65" transform="translate(1926.5625 0)"/>
     <use xlink:href="#DejaVuSansMono-64" transform="translate(1986.767578 0)"/>
    </g>
    <!--     │    ╱ -->
    <g style="fill: #2c3e50" transform="translate(12.432 59.100125) scale(0.1 -0.1)">
     <defs>
      <path id="DejaVuSansMono-2571" d="M -278 -1538 
L 3575 5941 
L 4131 5941 
L 278 -1538 
L -278 -1538 
z
" transform="scale(0.015625)"/>
     </defs>
     <use xlink:href="#DejaVuSansMono-20"/>
     <use xlink:href="#DejaVuSansMono-20" transform="translate(60.205078 0)"/>
     <use xlink:href="#DejaVuSansMono-20" transform="translate(120.410156 0)"/>
     <use xlink:href="#DejaVuSansMono-20" transform="translate(180.615234 0)"/>
     <use xlink:href="#DejaVuSansMono-2502" transform="translate(240.820312 0)"/>
     <use xlink:href="#DejaVuSansMono-20" transform="translate(301.025391 0)"/>
     <use xlink:href="#DejaVuSansMono-20" transform="translate(361.230469 0)"/>
     <use xlink:href="#DejaVuSansMono-20" transform="translate(421.435547 0)"/>
     <use xlink:href="#DejaVuSansMono-20" transform="translate(481.640625 0)"/>
     <use xlink:href="#DejaVuSansMono-2571" transform="translate(541.845703 0)"/>
    </g>
    <!--     │   ╱ -->
    <g style="fill: #2c3e50" transform="translate(12.432 72.85575) scale(0.1 -0.1)">
     <use xlink:href="#DejaVuSansMono-20"/>
     <use xlink:href="#DejaVuSansMono-20" transform="translate(60.205078 0)"/>
     <use xlink:href="#DejaVuSansMono-20" transform="translate(120.410156 0)"/>
     <use xlink:href="#DejaVuSansMono-20" transform="translate(180.615234 0)"/>
     <use xlink:href="#DejaVuSansMono-2502" transform="translate(240.820312 0)"/>
     <use xlink:href="#DejaVuSansMono-20" transform="translate(301.025391 0)"/>
     <use xlink:href="#DejaVuSansMono-20" transform="translate(361.230469 0)"/>
     <use xlink:href="#DejaVuSansMono-20" transform="translate(421.435547 0)"/>
     <use xlink:href="#DejaVuSansMono-2571" transform="translate(481.640625 0)"/>
    </g>
    <!--     │  ╱──────── Expected -->
    <g style="fill: #2c3e50" transform="translate(12.432 86.611375) scale(0.1 -0.1)">
     <defs>
      <path id="DejaVuSansMono-45" d="M 616 4666 
L 3384 4666 
L 3384 4134 
L 1247 4134 
L 1247 2753 
L 3291 2753 
L 3291 2222 
L 1247 2222 
L 1247 531 
L 3444 531 
L 3444 0 
L 616 0 
L 616 4666 
z
" transform="scale(0.015625)"/>
      <path id="DejaVuSansMono-78" d="M 3494 3500 
L 2241 1825 
L 3616 0 
L 2950 0 
L 1925 1403 
L 903 0 
L 238 0 
L 1613 1825 
L 359 3500 
L 997 3500 
L 1925 2234 
L 2847 3500 
L 3494 3500 
z
" transform="scale(0.015625)"/>
      <path id="DejaVuSansMono-70" d="M 1172 441 
L 1172 -1331 
L 594 -1331 
L 594 3500 
L 1172 3500 
L 1172 3053 
Q 1316 3313 1555 3448 
Q 1794 3584 2106 3584 
Q 2741 3584 3102 3093 
Q 3463 2603 3463 1734 
Q 3463 881 3100 395 
Q 2738 -91 2106 -91 
Q 1788 -91 1548 45 
Q 1309 181 1172 441 
z
M 2859 1747 
Q 2859 2416 2648 2756 
Q 2438 3097 2022 3097 
Q 1603 3097 1387 2755 
Q 1172 2413 1172 1747 
Q 1172 1084 1387 740 
Q 1603 397 2022 397 
Q 2438 397 2648 737 
Q 2859 1078 2859 1747 
z
" transform="scale(0.015625)"/>
     </defs>
     <use xlink:href="#DejaVuSansMono-20"/>
     <use xlink:href="#DejaVuSansMono-20" transform="translate(60.205078 0)"/>
     <use xlink:href="#DejaVuSansMono-20" transform="translate(120.410156 0)"/>
     <use xlink:href="#DejaVuSansMono-20" transform="translate(180.615234 0)"/>
     <use xlink:href="#DejaVuSansMono-2502" transform="translate(240.820312 0)"/>
     <use xlink:href="#DejaVuSansMono-20" transform="translate(301.025391 0)"/>
     <use xlink:href="#DejaVuSansMono-20" transform="translate(361.230469 0)"/>
     <use xlink:href="#DejaVuSansMono-2571" transform="translate(421.435547 0)"/>
     <use xlink:href="#DejaVuSansMono-2500" transform="translate(481.640625 0)"/>
     <use xlink:href="#DejaVuSansMono-2500" transform="translate(541.845703 0)"/>
     <use xlink:href="#DejaVuSansMono-2500" transform="translate(602.050781 0)"/>
     <use xlink:href="#DejaVuSansMono-2500" transform="translate(662.255859 0)"/>
     <use xlink:href="#DejaVuSansMono-2500" transform="translate(722.460938 0)"/>
     <use xlink:href="#DejaVuSansMono-2500" transform="translate(782.666016 0)"/>
     <use xlink:href="#DejaVuSansMono-2500" transform="translate(842.871094 0)"/>
     <use xlink:href="#DejaVuSansMono-2500" transform="translate(903.076172 0)"/>
     <use xlink:href="#DejaVuSansMono-20" transform="translate(963.28125 0)"/>
     <use xlink:href="#DejaVuSansMono-45" transform="translate(1023.486328 0)"/>
     <use xlink:href="#DejaVuSansMono-78" transform="translate(1083.691406 0)"/>
     <use xlink:href="#DejaVuSansMono-70" transform="translate(1143.896484 0)"/>
     <use xlink:href="#DejaVuSansMono-65" transform="translate(1204.101562 0)"/>
     <use xlink:href="#DejaVuSansMono-63" transform="translate(1264.306641 0)"/>
     <use xlink:href="#DejaVuSansMono-74" transform="translate(1324.511719 0)"/>
     <use xlink:href="#DejaVuSansMono-65" transform="translate(1384.716797 0)"/>
     <use xlink:href="#DejaVuSansMono-64" transform="translate(1444.921875 0)"/>
    </g>
    <!--     │ ╱      ╲ -->
    <g style="fill: #2c3e50" transform="translate(12.432 100.367) scale(0.1 -0.1)">
     <defs>
      <path id="DejaVuSansMono-2572" d="M 4131 -1538 
L 3575 -1538 
L -278 5941 
L 278 5941 
L 4131 -1538 
z
" transform="scale(0.015625)"/>
     </defs>
     <use xlink:href="#DejaVuSansMono-20"/>
     <use xlink:href="#DejaVuSansMono-20" transform="translate(60.205078 0)"/>
     <use xlink:href="#DejaVuSansMono-20" transform="translate(120.410156 0)"/>
     <use xlink:href="#DejaVuSansMono-20" transform="translate(180.615234 0)"/>
     <use xlink:href="#DejaVuSansMono-2502" transform="translate(240.820312 0)"/>
     <use xlink:href="#DejaVuSansMono-20" transform="translate(301.025391 0)"/>
     <use xlink:href="#DejaVuSansMono-2571" transform="translate(361.230469 0)"/>
     <use xlink:href="#DejaVuSansMono-20" transform="translate(421.435547 0)"/>
     <use xlink:href="#DejaVuSansMono-20" transform="translate(481.640625 0)"/>
     <use xlink:href="#DejaVuSansMono-20" transform="translate(541.845703 0)"/>
     <use xlink:href="#DejaVuSansMono-20" transform="translate(602.050781 0)"/>
     <use xlink:href="#DejaVuSansMono-20" transform="translate(662.255859 0)"/>
     <use xlink:href="#DejaVuSansMono-20" transform="translate(722.460938 0)"/>
     <use xlink:href="#DejaVuSansMono-2572" transform="translate(782.666016 0)"/>
    </g>
    <!--     │╱        ╲ -->
    <g style="fill: #2c3e50" transform="translate(12.432 114.122625) scale(0.1 -0.1)">
     <use xlink:href="#DejaVuSansMono-20"/>
     <use xlink:href="#DejaVuSansMono-20" transform="translate(60.205078 0)"/>
     <use xlink:href="#DejaVuSansMono-20" transform="translate(120.410156 0)"/>
     <use xlink:href="#DejaVuSansMono-20" transform="translate(180.615234 0)"/>
     <use xlink:href="#DejaVuSansMono-2502" transform="translate(240.820312 0)"/>
     <use xlink:href="#DejaVuSansMono-2571" transform="translate(301.025391 0)"/>
     <use xlink:href="#DejaVuSansMono-20" transform="translate(361.230469 0)"/>
     <use xlink:href="#DejaVuSansMono-20" transform="translate(421.435547 0)"/>
     <use xlink:href="#DejaVuSansMono-20" transform="translate(481.640625 0)"/>
     <use xlink:href="#DejaVuSansMono-20" transform="translate(541.845703 0)"/>
     <use xlink:href="#DejaVuSansMono-20" transform="translate(602.050781 0)"/>
     <use xlink:href="#DejaVuSansMono-20" transform="translate(662.255859 0)"/>
     <use xlink:href="#DejaVuSansMono-20" transform="translate(722.460938 0)"/>
     <use xlink:href="#DejaVuSansMono-20" transform="translate(782.666016 0)"/>
     <use xlink:href="#DejaVuSansMono-2572" transform="translate(842.871094 0)"/>
    </g>
    <!--     └─────────────────── Radius -->
    <g style="fill: #2c3e50" transform="translate(12.432 125.8045) scale(0.1 -0.1)">
     <defs>
      <path id="DejaVuSansMono-2514" d="M 1675 1931 
L 1675 6003 
L 2175 6003 
L 2175 2469 
L 3916 2469 
L 3916 1931 
L 1675 1931 
z
" transform="scale(0.015625)"/>
      <path id="DejaVuSansMono-52" d="M 2375 2203 
Q 2619 2141 2791 1967 
Q 2963 1794 3219 1275 
L 3853 0 
L 3175 0 
L 2619 1178 
Q 2378 1681 2186 1826 
Q 1994 1972 1684 1972 
L 1081 1972 
L 1081 0 
L 447 0 
L 447 4666 
L 1747 4666 
Q 2516 4666 2925 4319 
Q 3334 3972 3334 3316 
Q 3334 2853 3082 2561 
Q 2831 2269 2375 2203 
z
M 1081 4147 
L 1081 2491 
L 1772 2491 
Q 2225 2491 2447 2694 
Q 2669 2897 2669 3316 
Q 2669 3719 2433 3933 
Q 2197 4147 1747 4147 
L 1081 4147 
z
" transform="scale(0.015625)"/>
      <path id="DejaVuSansMono-61" d="M 2194 1759 
L 2003 1759 
Q 1500 1759 1245 1582 
Q 991 1406 991 1056 
Q 991 741 1181 566 
Q 1372 391 1709 391 
Q 2184 391 2456 720 
Q 2728 1050 2731 1631 
L 2731 1759 
L 2194 1759 
z
M 3309 1997 
L 3309 0 
L 2731 0 
L 2731 519 
Q 2547 206 2267 57 
Q 1988 -91 1588 -91 
Q 1053 -91 734 211 
Q 416 513 416 1019 
Q 416 1603 808 1906 
Q 1200 2209 1959 2209 
L 2731 2209 
L 2731 2300 
Q 2728 2719 2518 2908 
Q 2309 3097 1850 3097 
Q 1556 3097 1256 3012 
Q 956 2928 672 2766 
L 672 3341 
Q 991 3463 1283 3523 
Q 1575 3584 1850 3584 
Q 2284 3584 2592 3456 
Q 2900 3328 3091 3072 
Q 3209 2916 3259 2686 
Q 3309 2456 3309 1997 
z
" transform="scale(0.015625)"/>
      <path id="DejaVuSansMono-75" d="M 609 1325 
L 609 3494 
L 1184 3494 
L 1184 1325 
Q 1184 853 1351 631 
Q 1519 409 1869 409 
Q 2275 409 2490 695 
Q 2706 981 2706 1516 
L 2706 3494 
L 3284 3494 
L 3284 0 
L 2706 0 
L 2706 525 
Q 2553 222 2289 65 
Q 2025 -91 1672 -91 
Q 1134 -91 871 261 
Q 609 613 609 1325 
z
" transform="scale(0.015625)"/>
     </defs>
     <use xlink:href="#DejaVuSansMono-20"/>
     <use xlink:href="#DejaVuSansMono-20" transform="translate(60.205078 0)"/>
     <use xlink:href="#DejaVuSansMono-20" transform="translate(120.410156 0)"/>
     <use xlink:href="#DejaVuSansMono-20" transform="translate(180.615234 0)"/>
     <use xlink:href="#DejaVuSansMono-2514" transform="translate(240.820312 0)"/>
     <use xlink:href="#DejaVuSansMono-2500" transform="translate(301.025391 0)"/>
     <use xlink:href="#DejaVuSansMono-2500" transform="translate(361.230469 0)"/>
     <use xlink:href="#DejaVuSansMono-2500" transform="translate(421.435547 0)"/>
     <use xlink:href="#DejaVuSansMono-2500" transform="translate(481.640625 0)"/>
     <use xlink:href="#DejaVuSansMono-2500" transform="translate(541.845703 0)"/>
     <use xlink:href="#DejaVuSansMono-2500" transform="translate(602.050781 0)"/>
     <use xlink:href="#DejaVuSansMono-2500" transform="translate(662.255859 0)"/>
     <use xlink:href="#DejaVuSansMono-2500" transform="translate(722.460938 0)"/>
     <use xlink:href="#DejaVuSansMono-2500" transform="translate(782.666016 0)"/>
     <use xlink:href="#DejaVuSansMono-2500" transform="translate(842.871094 0)"/>
     <use xlink:href="#DejaVuSansMono-2500" transform="translate(903.076172 0)"/>
     <use xlink:href="#DejaVuSansMono-2500" transform="translate(963.28125 0)"/>
     <use xlink:href="#DejaVuSansMono-2500" transform="translate(1023.486328 0)"/>
     <use xlink:href="#DejaVuSansMono-2500" transform="translate(1083.691406 0)"/>
     <use xlink:href="#DejaVuSansMono-2500" transform="translate(1143.896484 0)"/>
     <use xlink:href="#DejaVuSansMono-2500" transform="translate(1204.101562 0)"/>
     <use xlink:href="#DejaVuSansMono-2500" transform="translate(1264.306641 0)"/>
     <use xlink:href="#DejaVuSansMono-2500" transform="translate(1324.511719 0)"/>
     <use xlink:href="#DejaVuSansMono-2500" transform="translate(1384.716797 0)"/>
     <use xlink:href="#DejaVuSansMono-20" transform="translate(1444.921875 0)"/>
     <use xlink:href="#DejaVuSansMono-52" transform="translate(1505.126953 0)"/>
     <use xlink:href="#DejaVuSansMono-61" transform="translate(1565.332031 0)"/>
     <use xlink:href="#DejaVuSansMono-64" transform="translate(1625.537109 0)"/>
     <use xlink:href="#DejaVuSansMono-69" transform="translate(1685.742188 0)"/>
     <use xlink:href="#DejaVuSansMono-75" transform="translate(1745.947266 0)"/>
     <use xlink:href="#DejaVuSansMono-73" transform="translate(1806.152344 0)"/>
    </g>
    <!--  -->
    <g style="fill: #2c3e50" transform="translate(12.432 137.066063) scale(0.1 -0.1)"/>
   </g>
  </g>
 </g>
</svg>
