<?xml version="1.0" encoding="utf-8" standalone="no"?>
<!DOCTYPE svg PUBLIC "-//W3C//DTD SVG 1.1//EN"
  "http://www.w3.org/Graphics/SVG/1.1/DTD/svg11.dtd">
<svg xmlns:xlink="http://www.w3.org/1999/xlink" width="856.751078pt" height="357.243875pt" viewBox="0 0 856.751078 357.243875" xmlns="http://www.w3.org/2000/svg" version="1.1">
 <metadata>
  <rdf:RDF xmlns:dc="http://purl.org/dc/elements/1.1/" xmlns:cc="http://creativecommons.org/ns#" xmlns:rdf="http://www.w3.org/1999/02/22-rdf-syntax-ns#">
   <cc:Work>
    <dc:type rdf:resource="http://purl.org/dc/dcmitype/StillImage"/>
    <dc:date>2026-01-02T18:44:38.164409</dc:date>
    <dc:format>image/svg+xml</dc:format>
    <dc:creator>
     <cc:Agent>
      <dc:title>Matplotlib v3.10.8, https://matplotlib.org/</dc:title>
     </cc:Agent>
    </dc:creator>
   </cc:Work>
  </rdf:RDF>
 </metadata>
 <defs>
  <style type="text/css">*{stroke-linejoin: round; stroke-linecap: butt}</style>
 </defs>
 <g id="figure_1">
  <g id="patch_1">
   <path d="M 0 357.243875 
L 856.751078 357.243875 
L 856.751078 0 
L 0 0 
z
" style="fill: #ffffff"/>
  </g>
  <g id="axes_1">
   <g id="patch_2">
    <path d="M 21.15 317.752 
L 424.230107 317.752 
L 424.230107 71.728 
L 21.15 71.728 
z
" style="fill: #ffffff"/>
   </g>
   <g id="patch_3">
    <path d="M 21.15 231.6436 
L 67.405094 231.6436 
L 67.405094 157.8364 
L 21.15 157.8364 
z
" clip-path="url(#pfce945283c)" style="fill: #2c3e50; opacity: 0.22; stroke: #2c3e50; stroke-linejoin: miter"/>
   </g>
   <g id="patch_4">
    <path d="M 67.405094 231.6436 
L 93.836577 231.6436 
L 93.836577 157.8364 
L 67.405094 157.8364 
z
" clip-path="url(#pfce945283c)" style="fill: #9b59b6; opacity: 0.22; stroke: #9b59b6; stroke-linejoin: miter"/>
   </g>
   <g id="patch_5">
    <path d="M 225.993989 231.6436 
L 285.464824 231.6436 
L 285.464824 157.8364 
L 225.993989 157.8364 
z
" clip-path="url(#pfce945283c)" style="fill: #f39c12; opacity: 0.22; stroke: #f39c12; stroke-linejoin: miter"/>
   </g>
   <g id="patch_6">
    <path d="M 305.288436 231.6436 
L 325.112048 231.6436 
L 325.112048 157.8364 
L 305.288436 157.8364 
z
" clip-path="url(#pfce945283c)" style="fill: #2ecc71; opacity: 0.22; stroke: #2ecc71; stroke-linejoin: miter"/>
   </g>
   <g id="patch_7">
    <path d="M 391.190754 231.6436 
L 393.179921 231.6436 
L 393.179921 157.8364 
L 391.190754 157.8364 
z
" clip-path="url(#pfce945283c)" style="fill: #95a5a6; opacity: 0.22; stroke: #95a5a6; stroke-linejoin: miter"/>
   </g>
   <g id="patch_8">
    <path d="M 404.406495 231.6436 
L 417.622236 231.6436 
L 417.622236 157.8364 
L 404.406495 157.8364 
z
" clip-path="url(#pfce945283c)" style="fill: #e74c3c; opacity: 0.22; stroke: #e74c3c; stroke-linejoin: miter"/>
   </g>
   <g id="patch_9">
    <path d="M 421.600571 231.6436 
L 421.740587 231.6436 
L 421.740587 157.8364 
L 421.600571 157.8364 
z
" clip-path="url(#pfce945283c)" style="fill: #2c3e50; opacity: 0.22; stroke: #2c3e50; stroke-linejoin: miter"/>
   </g>
   <g id="matplotlib.axis_1">
    <g id="xtick_1">
     <g id="line2d_1">
      <defs>
       <path id="m2ea3fbf3ca" d="M 0 0 
L 0 3.5 
" style="stroke: #000000; stroke-width: 0.8"/>
      </defs>
      <g>
       <use xlink:href="#m2ea3fbf3ca" x="21.15" y="317.752" style="stroke: #000000; stroke-width: 0.8"/>
      </g>
     </g>
     <g id="text_1">
      <!-- $\mathdefault{10^{-43}}$ -->
      <g transform="translate(7.2 332.350437) scale(0.1 -0.1)">
       <defs>
        <path id="DejaVuSans-31" d="M 794 531 
L 1825 531 
L 1825 4091 
L 703 3866 
L 703 4441 
L 1819 4666 
L 2450 4666 
L 2450 531 
L 3481 531 
L 3481 0 
L 794 0 
L 794 531 
z
" transform="scale(0.015625)"/>
        <path id="DejaVuSans-30" d="M 2034 4250 
Q 1547 4250 1301 3770 
Q 1056 3291 1056 2328 
Q 1056 1369 1301 889 
Q 1547 409 2034 409 
Q 2525 409 2770 889 
Q 3016 1369 3016 2328 
Q 3016 3291 2770 3770 
Q 2525 4250 2034 4250 
z
M 2034 4750 
Q 2819 4750 3233 4129 
Q 3647 3509 3647 2328 
Q 3647 1150 3233 529 
Q 2819 -91 2034 -91 
Q 1250 -91 836 529 
Q 422 1150 422 2328 
Q 422 3509 836 4129 
Q 1250 4750 2034 4750 
z
" transform="scale(0.015625)"/>
        <path id="DejaVuSans-2212" d="M 678 2272 
L 4684 2272 
L 4684 1741 
L 678 1741 
L 678 2272 
z
" transform="scale(0.015625)"/>
        <path id="DejaVuSans-34" d="M 2419 4116 
L 825 1625 
L 2419 1625 
L 2419 4116 
z
M 2253 4666 
L 3047 4666 
L 3047 1625 
L 3713 1625 
L 3713 1100 
L 3047 1100 
L 3047 0 
L 2419 0 
L 2419 1100 
L 313 1100 
L 313 1709 
L 2253 4666 
z
" transform="scale(0.015625)"/>
        <path id="DejaVuSans-33" d="M 2597 2516 
Q 3050 2419 3304 2112 
Q 3559 1806 3559 1356 
Q 3559 666 3084 287 
Q 2609 -91 1734 -91 
Q 1441 -91 1130 -33 
Q 819 25 488 141 
L 488 750 
Q 750 597 1062 519 
Q 1375 441 1716 441 
Q 2309 441 2620 675 
Q 2931 909 2931 1356 
Q 2931 1769 2642 2001 
Q 2353 2234 1838 2234 
L 1294 2234 
L 1294 2753 
L 1863 2753 
Q 2328 2753 2575 2939 
Q 2822 3125 2822 3475 
Q 2822 3834 2567 4026 
Q 2313 4219 1838 4219 
Q 1578 4219 1281 4162 
Q 984 4106 628 3988 
L 628 4550 
Q 988 4650 1302 4700 
Q 1616 4750 1894 4750 
Q 2613 4750 3031 4423 
Q 3450 4097 3450 3541 
Q 3450 3153 3228 2886 
Q 3006 2619 2597 2516 
z
" transform="scale(0.015625)"/>
       </defs>
       <use xlink:href="#DejaVuSans-31" transform="translate(0 0.765625)"/>
       <use xlink:href="#DejaVuSans-30" transform="translate(63.623047 0.765625)"/>
       <use xlink:href="#DejaVuSans-2212" transform="translate(128.203125 39.046875) scale(0.7)"/>
       <use xlink:href="#DejaVuSans-34" transform="translate(186.855469 39.046875) scale(0.7)"/>
       <use xlink:href="#DejaVuSans-33" transform="translate(231.391602 39.046875) scale(0.7)"/>
      </g>
     </g>
    </g>
    <g id="xtick_2">
     <g id="line2d_2">
      <g>
       <use xlink:href="#m2ea3fbf3ca" x="67.405094" y="317.752" style="stroke: #000000; stroke-width: 0.8"/>
      </g>
     </g>
     <g id="text_2">
      <!-- $\mathdefault{10^{-36}}$ -->
      <g transform="translate(53.455094 332.350437) scale(0.1 -0.1)">
       <defs>
        <path id="DejaVuSans-36" d="M 2113 2584 
Q 1688 2584 1439 2293 
Q 1191 2003 1191 1497 
Q 1191 994 1439 701 
Q 1688 409 2113 409 
Q 2538 409 2786 701 
Q 3034 994 3034 1497 
Q 3034 2003 2786 2293 
Q 2538 2584 2113 2584 
z
M 3366 4563 
L 3366 3988 
Q 3128 4100 2886 4159 
Q 2644 4219 2406 4219 
Q 1781 4219 1451 3797 
Q 1122 3375 1075 2522 
Q 1259 2794 1537 2939 
Q 1816 3084 2150 3084 
Q 2853 3084 3261 2657 
Q 3669 2231 3669 1497 
Q 3669 778 3244 343 
Q 2819 -91 2113 -91 
Q 1303 -91 875 529 
Q 447 1150 447 2328 
Q 447 3434 972 4092 
Q 1497 4750 2381 4750 
Q 2619 4750 2861 4703 
Q 3103 4656 3366 4563 
z
" transform="scale(0.015625)"/>
       </defs>
       <use xlink:href="#DejaVuSans-31" transform="translate(0 0.765625)"/>
       <use xlink:href="#DejaVuSans-30" transform="translate(63.623047 0.765625)"/>
       <use xlink:href="#DejaVuSans-2212" transform="translate(128.203125 39.046875) scale(0.7)"/>
       <use xlink:href="#DejaVuSans-33" transform="translate(186.855469 39.046875) scale(0.7)"/>
       <use xlink:href="#DejaVuSans-36" transform="translate(231.391602 39.046875) scale(0.7)"/>
      </g>
     </g>
    </g>
    <g id="xtick_3">
     <g id="line2d_3">
      <g>
       <use xlink:href="#m2ea3fbf3ca" x="113.660188" y="317.752" style="stroke: #000000; stroke-width: 0.8"/>
      </g>
     </g>
     <g id="text_3">
      <!-- $\mathdefault{10^{-29}}$ -->
      <g transform="translate(99.760188 332.350437) scale(0.1 -0.1)">
       <defs>
        <path id="DejaVuSans-32" d="M 1228 531 
L 3431 531 
L 3431 0 
L 469 0 
L 469 531 
Q 828 903 1448 1529 
Q 2069 2156 2228 2338 
Q 2531 2678 2651 2914 
Q 2772 3150 2772 3378 
Q 2772 3750 2511 3984 
Q 2250 4219 1831 4219 
Q 1534 4219 1204 4116 
Q 875 4013 500 3803 
L 500 4441 
Q 881 4594 1212 4672 
Q 1544 4750 1819 4750 
Q 2544 4750 2975 4387 
Q 3406 4025 3406 3419 
Q 3406 3131 3298 2873 
Q 3191 2616 2906 2266 
Q 2828 2175 2409 1742 
Q 1991 1309 1228 531 
z
" transform="scale(0.015625)"/>
        <path id="DejaVuSans-39" d="M 703 97 
L 703 672 
Q 941 559 1184 500 
Q 1428 441 1663 441 
Q 2288 441 2617 861 
Q 2947 1281 2994 2138 
Q 2813 1869 2534 1725 
Q 2256 1581 1919 1581 
Q 1219 1581 811 2004 
Q 403 2428 403 3163 
Q 403 3881 828 4315 
Q 1253 4750 1959 4750 
Q 2769 4750 3195 4129 
Q 3622 3509 3622 2328 
Q 3622 1225 3098 567 
Q 2575 -91 1691 -91 
Q 1453 -91 1209 -44 
Q 966 3 703 97 
z
M 1959 2075 
Q 2384 2075 2632 2365 
Q 2881 2656 2881 3163 
Q 2881 3666 2632 3958 
Q 2384 4250 1959 4250 
Q 1534 4250 1286 3958 
Q 1038 3666 1038 3163 
Q 1038 2656 1286 2365 
Q 1534 2075 1959 2075 
z
" transform="scale(0.015625)"/>
       </defs>
       <use xlink:href="#DejaVuSans-31" transform="translate(0 0.765625)"/>
       <use xlink:href="#DejaVuSans-30" transform="translate(63.623047 0.765625)"/>
       <use xlink:href="#DejaVuSans-2212" transform="translate(128.203125 39.046875) scale(0.7)"/>
       <use xlink:href="#DejaVuSans-32" transform="translate(186.855469 39.046875) scale(0.7)"/>
       <use xlink:href="#DejaVuSans-39" transform="translate(230.166602 39.046875) scale(0.7)"/>
      </g>
     </g>
    </g>
    <g id="xtick_4">
     <g id="line2d_4">
      <g>
       <use xlink:href="#m2ea3fbf3ca" x="159.915283" y="317.752" style="stroke: #000000; stroke-width: 0.8"/>
      </g>
     </g>
     <g id="text_4">
      <!-- $\mathdefault{10^{-22}}$ -->
      <g transform="translate(145.965283 332.350437) scale(0.1 -0.1)">
       <use xlink:href="#DejaVuSans-31" transform="translate(0 0.765625)"/>
       <use xlink:href="#DejaVuSans-30" transform="translate(63.623047 0.765625)"/>
       <use xlink:href="#DejaVuSans-2212" transform="translate(128.203125 39.046875) scale(0.7)"/>
       <use xlink:href="#DejaVuSans-32" transform="translate(186.855469 39.046875) scale(0.7)"/>
       <use xlink:href="#DejaVuSans-32" transform="translate(231.391602 39.046875) scale(0.7)"/>
      </g>
     </g>
    </g>
    <g id="xtick_5">
     <g id="line2d_5">
      <g>
       <use xlink:href="#m2ea3fbf3ca" x="206.170377" y="317.752" style="stroke: #000000; stroke-width: 0.8"/>
      </g>
     </g>
     <g id="text_5">
      <!-- $\mathdefault{10^{-15}}$ -->
      <g transform="translate(192.220377 332.350437) scale(0.1 -0.1)">
       <defs>
        <path id="DejaVuSans-35" d="M 691 4666 
L 3169 4666 
L 3169 4134 
L 1269 4134 
L 1269 2991 
Q 1406 3038 1543 3061 
Q 1681 3084 1819 3084 
Q 2600 3084 3056 2656 
Q 3513 2228 3513 1497 
Q 3513 744 3044 326 
Q 2575 -91 1722 -91 
Q 1428 -91 1123 -41 
Q 819 9 494 109 
L 494 744 
Q 775 591 1075 516 
Q 1375 441 1709 441 
Q 2250 441 2565 725 
Q 2881 1009 2881 1497 
Q 2881 1984 2565 2268 
Q 2250 2553 1709 2553 
Q 1456 2553 1204 2497 
Q 953 2441 691 2322 
L 691 4666 
z
" transform="scale(0.015625)"/>
       </defs>
       <use xlink:href="#DejaVuSans-31" transform="translate(0 0.684375)"/>
       <use xlink:href="#DejaVuSans-30" transform="translate(63.623047 0.684375)"/>
       <use xlink:href="#DejaVuSans-2212" transform="translate(128.203125 38.965625) scale(0.7)"/>
       <use xlink:href="#DejaVuSans-31" transform="translate(186.855469 38.965625) scale(0.7)"/>
       <use xlink:href="#DejaVuSans-35" transform="translate(231.391602 38.965625) scale(0.7)"/>
      </g>
     </g>
    </g>
    <g id="xtick_6">
     <g id="line2d_6">
      <g>
       <use xlink:href="#m2ea3fbf3ca" x="252.425471" y="317.752" style="stroke: #000000; stroke-width: 0.8"/>
      </g>
     </g>
     <g id="text_6">
      <!-- $\mathdefault{10^{-8}}$ -->
      <g transform="translate(240.675471 332.350437) scale(0.1 -0.1)">
       <defs>
        <path id="DejaVuSans-38" d="M 2034 2216 
Q 1584 2216 1326 1975 
Q 1069 1734 1069 1313 
Q 1069 891 1326 650 
Q 1584 409 2034 409 
Q 2484 409 2743 651 
Q 3003 894 3003 1313 
Q 3003 1734 2745 1975 
Q 2488 2216 2034 2216 
z
M 1403 2484 
Q 997 2584 770 2862 
Q 544 3141 544 3541 
Q 544 4100 942 4425 
Q 1341 4750 2034 4750 
Q 2731 4750 3128 4425 
Q 3525 4100 3525 3541 
Q 3525 3141 3298 2862 
Q 3072 2584 2669 2484 
Q 3125 2378 3379 2068 
Q 3634 1759 3634 1313 
Q 3634 634 3220 271 
Q 2806 -91 2034 -91 
Q 1263 -91 848 271 
Q 434 634 434 1313 
Q 434 1759 690 2068 
Q 947 2378 1403 2484 
z
M 1172 3481 
Q 1172 3119 1398 2916 
Q 1625 2713 2034 2713 
Q 2441 2713 2670 2916 
Q 2900 3119 2900 3481 
Q 2900 3844 2670 4047 
Q 2441 4250 2034 4250 
Q 1625 4250 1398 4047 
Q 1172 3844 1172 3481 
z
" transform="scale(0.015625)"/>
       </defs>
       <use xlink:href="#DejaVuSans-31" transform="translate(0 0.765625)"/>
       <use xlink:href="#DejaVuSans-30" transform="translate(63.623047 0.765625)"/>
       <use xlink:href="#DejaVuSans-2212" transform="translate(128.203125 39.046875) scale(0.7)"/>
       <use xlink:href="#DejaVuSans-38" transform="translate(186.855469 39.046875) scale(0.7)"/>
      </g>
     </g>
    </g>
    <g id="xtick_7">
     <g id="line2d_7">
      <g>
       <use xlink:href="#m2ea3fbf3ca" x="298.680565" y="317.752" style="stroke: #000000; stroke-width: 0.8"/>
      </g>
     </g>
     <g id="text_7">
      <!-- $\mathdefault{10^{-1}}$ -->
      <g transform="translate(286.930565 332.350437) scale(0.1 -0.1)">
       <use xlink:href="#DejaVuSans-31" transform="translate(0 0.684375)"/>
       <use xlink:href="#DejaVuSans-30" transform="translate(63.623047 0.684375)"/>
       <use xlink:href="#DejaVuSans-2212" transform="translate(128.203125 38.965625) scale(0.7)"/>
       <use xlink:href="#DejaVuSans-31" transform="translate(186.855469 38.965625) scale(0.7)"/>
      </g>
     </g>
    </g>
    <g id="xtick_8">
     <g id="line2d_8">
      <g>
       <use xlink:href="#m2ea3fbf3ca" x="344.93566" y="317.752" style="stroke: #000000; stroke-width: 0.8"/>
      </g>
     </g>
     <g id="text_8">
      <!-- $\mathdefault{10^{6}}$ -->
      <g transform="translate(336.13566 332.350437) scale(0.1 -0.1)">
       <use xlink:href="#DejaVuSans-31" transform="translate(0 0.765625)"/>
       <use xlink:href="#DejaVuSans-30" transform="translate(63.623047 0.765625)"/>
       <use xlink:href="#DejaVuSans-36" transform="translate(128.203125 39.046875) scale(0.7)"/>
      </g>
     </g>
    </g>
    <g id="xtick_9">
     <g id="line2d_9">
      <g>
       <use xlink:href="#m2ea3fbf3ca" x="391.190754" y="317.752" style="stroke: #000000; stroke-width: 0.8"/>
      </g>
     </g>
     <g id="text_9">
      <!-- $\mathdefault{10^{13}}$ -->
      <g transform="translate(380.140754 332.350437) scale(0.1 -0.1)">
       <use xlink:href="#DejaVuSans-31" transform="translate(0 0.765625)"/>
       <use xlink:href="#DejaVuSans-30" transform="translate(63.623047 0.765625)"/>
       <use xlink:href="#DejaVuSans-31" transform="translate(128.203125 39.046875) scale(0.7)"/>
       <use xlink:href="#DejaVuSans-33" transform="translate(172.739258 39.046875) scale(0.7)"/>
      </g>
     </g>
    </g>
    <g id="text_10">
     <!-- Time since Big Bang (s, log) -->
     <g transform="translate(139.030366 347.54825) scale(0.12 -0.12)">
      <defs>
       <path id="DejaVuSans-54" d="M -19 4666 
L 3928 4666 
L 3928 4134 
L 2272 4134 
L 2272 0 
L 1638 0 
L 1638 4134 
L -19 4134 
L -19 4666 
z
" transform="scale(0.015625)"/>
       <path id="DejaVuSans-69" d="M 603 3500 
L 1178 3500 
L 1178 0 
L 603 0 
L 603 3500 
z
M 603 4863 
L 1178 4863 
L 1178 4134 
L 603 4134 
L 603 4863 
z
" transform="scale(0.015625)"/>
       <path id="DejaVuSans-6d" d="M 3328 2828 
Q 3544 3216 3844 3400 
Q 4144 3584 4550 3584 
Q 5097 3584 5394 3201 
Q 5691 2819 5691 2113 
L 5691 0 
L 5113 0 
L 5113 2094 
Q 5113 2597 4934 2840 
Q 4756 3084 4391 3084 
Q 3944 3084 3684 2787 
Q 3425 2491 3425 1978 
L 3425 0 
L 2847 0 
L 2847 2094 
Q 2847 2600 2669 2842 
Q 2491 3084 2119 3084 
Q 1678 3084 1418 2786 
Q 1159 2488 1159 1978 
L 1159 0 
L 581 0 
L 581 3500 
L 1159 3500 
L 1159 2956 
Q 1356 3278 1631 3431 
Q 1906 3584 2284 3584 
Q 2666 3584 2933 3390 
Q 3200 3197 3328 2828 
z
" transform="scale(0.015625)"/>
       <path id="DejaVuSans-65" d="M 3597 1894 
L 3597 1613 
L 953 1613 
Q 991 1019 1311 708 
Q 1631 397 2203 397 
Q 2534 397 2845 478 
Q 3156 559 3463 722 
L 3463 178 
Q 3153 47 2828 -22 
Q 2503 -91 2169 -91 
Q 1331 -91 842 396 
Q 353 884 353 1716 
Q 353 2575 817 3079 
Q 1281 3584 2069 3584 
Q 2775 3584 3186 3129 
Q 3597 2675 3597 1894 
z
M 3022 2063 
Q 3016 2534 2758 2815 
Q 2500 3097 2075 3097 
Q 1594 3097 1305 2825 
Q 1016 2553 972 2059 
L 3022 2063 
z
" transform="scale(0.015625)"/>
       <path id="DejaVuSans-20" transform="scale(0.015625)"/>
       <path id="DejaVuSans-73" d="M 2834 3397 
L 2834 2853 
Q 2591 2978 2328 3040 
Q 2066 3103 1784 3103 
Q 1356 3103 1142 2972 
Q 928 2841 928 2578 
Q 928 2378 1081 2264 
Q 1234 2150 1697 2047 
L 1894 2003 
Q 2506 1872 2764 1633 
Q 3022 1394 3022 966 
Q 3022 478 2636 193 
Q 2250 -91 1575 -91 
Q 1294 -91 989 -36 
Q 684 19 347 128 
L 347 722 
Q 666 556 975 473 
Q 1284 391 1588 391 
Q 1994 391 2212 530 
Q 2431 669 2431 922 
Q 2431 1156 2273 1281 
Q 2116 1406 1581 1522 
L 1381 1569 
Q 847 1681 609 1914 
Q 372 2147 372 2553 
Q 372 3047 722 3315 
Q 1072 3584 1716 3584 
Q 2034 3584 2315 3537 
Q 2597 3491 2834 3397 
z
" transform="scale(0.015625)"/>
       <path id="DejaVuSans-6e" d="M 3513 2113 
L 3513 0 
L 2938 0 
L 2938 2094 
Q 2938 2591 2744 2837 
Q 2550 3084 2163 3084 
Q 1697 3084 1428 2787 
Q 1159 2491 1159 1978 
L 1159 0 
L 581 0 
L 581 3500 
L 1159 3500 
L 1159 2956 
Q 1366 3272 1645 3428 
Q 1925 3584 2291 3584 
Q 2894 3584 3203 3211 
Q 3513 2838 3513 2113 
z
" transform="scale(0.015625)"/>
       <path id="DejaVuSans-63" d="M 3122 3366 
L 3122 2828 
Q 2878 2963 2633 3030 
Q 2388 3097 2138 3097 
Q 1578 3097 1268 2742 
Q 959 2388 959 1747 
Q 959 1106 1268 751 
Q 1578 397 2138 397 
Q 2388 397 2633 464 
Q 2878 531 3122 666 
L 3122 134 
Q 2881 22 2623 -34 
Q 2366 -91 2075 -91 
Q 1284 -91 818 406 
Q 353 903 353 1747 
Q 353 2603 823 3093 
Q 1294 3584 2113 3584 
Q 2378 3584 2631 3529 
Q 2884 3475 3122 3366 
z
" transform="scale(0.015625)"/>
       <path id="DejaVuSans-42" d="M 1259 2228 
L 1259 519 
L 2272 519 
Q 2781 519 3026 730 
Q 3272 941 3272 1375 
Q 3272 1813 3026 2020 
Q 2781 2228 2272 2228 
L 1259 2228 
z
M 1259 4147 
L 1259 2741 
L 2194 2741 
Q 2656 2741 2882 2914 
Q 3109 3088 3109 3444 
Q 3109 3797 2882 3972 
Q 2656 4147 2194 4147 
L 1259 4147 
z
M 628 4666 
L 2241 4666 
Q 2963 4666 3353 4366 
Q 3744 4066 3744 3513 
Q 3744 3084 3544 2831 
Q 3344 2578 2956 2516 
Q 3422 2416 3680 2098 
Q 3938 1781 3938 1306 
Q 3938 681 3513 340 
Q 3088 0 2303 0 
L 628 0 
L 628 4666 
z
" transform="scale(0.015625)"/>
       <path id="DejaVuSans-67" d="M 2906 1791 
Q 2906 2416 2648 2759 
Q 2391 3103 1925 3103 
Q 1463 3103 1205 2759 
Q 947 2416 947 1791 
Q 947 1169 1205 825 
Q 1463 481 1925 481 
Q 2391 481 2648 825 
Q 2906 1169 2906 1791 
z
M 3481 434 
Q 3481 -459 3084 -895 
Q 2688 -1331 1869 -1331 
Q 1566 -1331 1297 -1286 
Q 1028 -1241 775 -1147 
L 775 -588 
Q 1028 -725 1275 -790 
Q 1522 -856 1778 -856 
Q 2344 -856 2625 -561 
Q 2906 -266 2906 331 
L 2906 616 
Q 2728 306 2450 153 
Q 2172 0 1784 0 
Q 1141 0 747 490 
Q 353 981 353 1791 
Q 353 2603 747 3093 
Q 1141 3584 1784 3584 
Q 2172 3584 2450 3431 
Q 2728 3278 2906 2969 
L 2906 3500 
L 3481 3500 
L 3481 434 
z
" transform="scale(0.015625)"/>
       <path id="DejaVuSans-61" d="M 2194 1759 
Q 1497 1759 1228 1600 
Q 959 1441 959 1056 
Q 959 750 1161 570 
Q 1363 391 1709 391 
Q 2188 391 2477 730 
Q 2766 1069 2766 1631 
L 2766 1759 
L 2194 1759 
z
M 3341 1997 
L 3341 0 
L 2766 0 
L 2766 531 
Q 2569 213 2275 61 
Q 1981 -91 1556 -91 
Q 1019 -91 701 211 
Q 384 513 384 1019 
Q 384 1609 779 1909 
Q 1175 2209 1959 2209 
L 2766 2209 
L 2766 2266 
Q 2766 2663 2505 2880 
Q 2244 3097 1772 3097 
Q 1472 3097 1187 3025 
Q 903 2953 641 2809 
L 641 3341 
Q 956 3463 1253 3523 
Q 1550 3584 1831 3584 
Q 2591 3584 2966 3190 
Q 3341 2797 3341 1997 
z
" transform="scale(0.015625)"/>
       <path id="DejaVuSans-28" d="M 1984 4856 
Q 1566 4138 1362 3434 
Q 1159 2731 1159 2009 
Q 1159 1288 1364 580 
Q 1569 -128 1984 -844 
L 1484 -844 
Q 1016 -109 783 600 
Q 550 1309 550 2009 
Q 550 2706 781 3412 
Q 1013 4119 1484 4856 
L 1984 4856 
z
" transform="scale(0.015625)"/>
       <path id="DejaVuSans-2c" d="M 750 794 
L 1409 794 
L 1409 256 
L 897 -744 
L 494 -744 
L 750 256 
L 750 794 
z
" transform="scale(0.015625)"/>
       <path id="DejaVuSans-6c" d="M 603 4863 
L 1178 4863 
L 1178 0 
L 603 0 
L 603 4863 
z
" transform="scale(0.015625)"/>
       <path id="DejaVuSans-6f" d="M 1959 3097 
Q 1497 3097 1228 2736 
Q 959 2375 959 1747 
Q 959 1119 1226 758 
Q 1494 397 1959 397 
Q 2419 397 2687 759 
Q 2956 1122 2956 1747 
Q 2956 2369 2687 2733 
Q 2419 3097 1959 3097 
z
M 1959 3584 
Q 2709 3584 3137 3096 
Q 3566 2609 3566 1747 
Q 3566 888 3137 398 
Q 2709 -91 1959 -91 
Q 1206 -91 779 398 
Q 353 888 353 1747 
Q 353 2609 779 3096 
Q 1206 3584 1959 3584 
z
" transform="scale(0.015625)"/>
       <path id="DejaVuSans-29" d="M 513 4856 
L 1013 4856 
Q 1481 4119 1714 3412 
Q 1947 2706 1947 2009 
Q 1947 1309 1714 600 
Q 1481 -109 1013 -844 
L 513 -844 
Q 928 -128 1133 580 
Q 1338 1288 1338 2009 
Q 1338 2731 1133 3434 
Q 928 4138 513 4856 
z
" transform="scale(0.015625)"/>
      </defs>
      <use xlink:href="#DejaVuSans-54"/>
      <use xlink:href="#DejaVuSans-69" transform="translate(57.958984 0)"/>
      <use xlink:href="#DejaVuSans-6d" transform="translate(85.742188 0)"/>
      <use xlink:href="#DejaVuSans-65" transform="translate(183.154297 0)"/>
      <use xlink:href="#DejaVuSans-20" transform="translate(244.677734 0)"/>
      <use xlink:href="#DejaVuSans-73" transform="translate(276.464844 0)"/>
      <use xlink:href="#DejaVuSans-69" transform="translate(328.564453 0)"/>
      <use xlink:href="#DejaVuSans-6e" transform="translate(356.347656 0)"/>
      <use xlink:href="#DejaVuSans-63" transform="translate(419.726562 0)"/>
      <use xlink:href="#DejaVuSans-65" transform="translate(474.707031 0)"/>
      <use xlink:href="#DejaVuSans-20" transform="translate(536.230469 0)"/>
      <use xlink:href="#DejaVuSans-42" transform="translate(568.017578 0)"/>
      <use xlink:href="#DejaVuSans-69" transform="translate(636.621094 0)"/>
      <use xlink:href="#DejaVuSans-67" transform="translate(664.404297 0)"/>
      <use xlink:href="#DejaVuSans-20" transform="translate(727.880859 0)"/>
      <use xlink:href="#DejaVuSans-42" transform="translate(759.667969 0)"/>
      <use xlink:href="#DejaVuSans-61" transform="translate(828.271484 0)"/>
      <use xlink:href="#DejaVuSans-6e" transform="translate(889.550781 0)"/>
      <use xlink:href="#DejaVuSans-67" transform="translate(952.929688 0)"/>
      <use xlink:href="#DejaVuSans-20" transform="translate(1016.40625 0)"/>
      <use xlink:href="#DejaVuSans-28" transform="translate(1048.193359 0)"/>
      <use xlink:href="#DejaVuSans-73" transform="translate(1087.207031 0)"/>
      <use xlink:href="#DejaVuSans-2c" transform="translate(1139.306641 0)"/>
      <use xlink:href="#DejaVuSans-20" transform="translate(1171.09375 0)"/>
      <use xlink:href="#DejaVuSans-6c" transform="translate(1202.880859 0)"/>
      <use xlink:href="#DejaVuSans-6f" transform="translate(1230.664062 0)"/>
      <use xlink:href="#DejaVuSans-67" transform="translate(1291.845703 0)"/>
      <use xlink:href="#DejaVuSans-29" transform="translate(1355.322266 0)"/>
     </g>
    </g>
   </g>
   <g id="matplotlib.axis_2"/>
   <g id="patch_10">
    <path d="M 21.15 317.752 
L 21.15 71.728 
" style="fill: none; stroke: #000000; stroke-width: 0.8; stroke-linejoin: miter; stroke-linecap: square"/>
   </g>
   <g id="patch_11">
    <path d="M 424.230107 317.752 
L 424.230107 71.728 
" style="fill: none; stroke: #000000; stroke-width: 0.8; stroke-linejoin: miter; stroke-linecap: square"/>
   </g>
   <g id="patch_12">
    <path d="M 21.15 317.752 
L 424.230107 317.752 
" style="fill: none; stroke: #000000; stroke-width: 0.8; stroke-linejoin: miter; stroke-linecap: square"/>
   </g>
   <g id="patch_13">
    <path d="M 21.15 71.728 
L 424.230107 71.728 
" style="fill: none; stroke: #000000; stroke-width: 0.8; stroke-linejoin: miter; stroke-linecap: square"/>
   </g>
   <g id="text_11">
    <!-- Planck -->
    <g style="fill: #ffffff" transform="translate(29.396297 196.9475) scale(0.08 -0.08)">
     <defs>
      <path id="DejaVuSans-Bold-50" d="M 588 4666 
L 2584 4666 
Q 3475 4666 3951 4270 
Q 4428 3875 4428 3144 
Q 4428 2409 3951 2014 
Q 3475 1619 2584 1619 
L 1791 1619 
L 1791 0 
L 588 0 
L 588 4666 
z
M 1791 3794 
L 1791 2491 
L 2456 2491 
Q 2806 2491 2997 2661 
Q 3188 2831 3188 3144 
Q 3188 3456 2997 3625 
Q 2806 3794 2456 3794 
L 1791 3794 
z
" transform="scale(0.015625)"/>
      <path id="DejaVuSans-Bold-6c" d="M 538 4863 
L 1656 4863 
L 1656 0 
L 538 0 
L 538 4863 
z
" transform="scale(0.015625)"/>
      <path id="DejaVuSans-Bold-61" d="M 2106 1575 
Q 1756 1575 1579 1456 
Q 1403 1338 1403 1106 
Q 1403 894 1545 773 
Q 1688 653 1941 653 
Q 2256 653 2472 879 
Q 2688 1106 2688 1447 
L 2688 1575 
L 2106 1575 
z
M 3816 1997 
L 3816 0 
L 2688 0 
L 2688 519 
Q 2463 200 2181 54 
Q 1900 -91 1497 -91 
Q 953 -91 614 226 
Q 275 544 275 1050 
Q 275 1666 698 1953 
Q 1122 2241 2028 2241 
L 2688 2241 
L 2688 2328 
Q 2688 2594 2478 2717 
Q 2269 2841 1825 2841 
Q 1466 2841 1156 2769 
Q 847 2697 581 2553 
L 581 3406 
Q 941 3494 1303 3539 
Q 1666 3584 2028 3584 
Q 2975 3584 3395 3211 
Q 3816 2838 3816 1997 
z
" transform="scale(0.015625)"/>
      <path id="DejaVuSans-Bold-6e" d="M 4056 2131 
L 4056 0 
L 2931 0 
L 2931 347 
L 2931 1631 
Q 2931 2084 2911 2256 
Q 2891 2428 2841 2509 
Q 2775 2619 2662 2680 
Q 2550 2741 2406 2741 
Q 2056 2741 1856 2470 
Q 1656 2200 1656 1722 
L 1656 0 
L 538 0 
L 538 3500 
L 1656 3500 
L 1656 2988 
Q 1909 3294 2193 3439 
Q 2478 3584 2822 3584 
Q 3428 3584 3742 3212 
Q 4056 2841 4056 2131 
z
" transform="scale(0.015625)"/>
      <path id="DejaVuSans-Bold-63" d="M 3366 3391 
L 3366 2478 
Q 3138 2634 2908 2709 
Q 2678 2784 2431 2784 
Q 1963 2784 1702 2511 
Q 1441 2238 1441 1747 
Q 1441 1256 1702 982 
Q 1963 709 2431 709 
Q 2694 709 2930 787 
Q 3166 866 3366 1019 
L 3366 103 
Q 3103 6 2833 -42 
Q 2563 -91 2291 -91 
Q 1344 -91 809 395 
Q 275 881 275 1747 
Q 275 2613 809 3098 
Q 1344 3584 2291 3584 
Q 2566 3584 2833 3536 
Q 3100 3488 3366 3391 
z
" transform="scale(0.015625)"/>
      <path id="DejaVuSans-Bold-6b" d="M 538 4863 
L 1656 4863 
L 1656 2216 
L 2944 3500 
L 4244 3500 
L 2534 1894 
L 4378 0 
L 3022 0 
L 1656 1459 
L 1656 0 
L 538 0 
L 538 4863 
z
" transform="scale(0.015625)"/>
     </defs>
     <use xlink:href="#DejaVuSans-Bold-50"/>
     <use xlink:href="#DejaVuSans-Bold-6c" transform="translate(73.291016 0)"/>
     <use xlink:href="#DejaVuSans-Bold-61" transform="translate(107.568359 0)"/>
     <use xlink:href="#DejaVuSans-Bold-6e" transform="translate(175.048828 0)"/>
     <use xlink:href="#DejaVuSans-Bold-63" transform="translate(246.240234 0)"/>
     <use xlink:href="#DejaVuSans-Bold-6b" transform="translate(305.517578 0)"/>
    </g>
   </g>
   <g id="text_12">
    <!-- Inflation -->
    <g style="fill: #2c3e50" transform="translate(61.595835 196.9475) scale(0.08 -0.08)">
     <defs>
      <path id="DejaVuSans-Bold-49" d="M 588 4666 
L 1791 4666 
L 1791 0 
L 588 0 
L 588 4666 
z
" transform="scale(0.015625)"/>
      <path id="DejaVuSans-Bold-66" d="M 2841 4863 
L 2841 4128 
L 2222 4128 
Q 1984 4128 1890 4042 
Q 1797 3956 1797 3744 
L 1797 3500 
L 2753 3500 
L 2753 2700 
L 1797 2700 
L 1797 0 
L 678 0 
L 678 2700 
L 122 2700 
L 122 3500 
L 678 3500 
L 678 3744 
Q 678 4316 997 4589 
Q 1316 4863 1984 4863 
L 2841 4863 
z
" transform="scale(0.015625)"/>
      <path id="DejaVuSans-Bold-74" d="M 1759 4494 
L 1759 3500 
L 2913 3500 
L 2913 2700 
L 1759 2700 
L 1759 1216 
Q 1759 972 1856 886 
Q 1953 800 2241 800 
L 2816 800 
L 2816 0 
L 1856 0 
Q 1194 0 917 276 
Q 641 553 641 1216 
L 641 2700 
L 84 2700 
L 84 3500 
L 641 3500 
L 641 4494 
L 1759 4494 
z
" transform="scale(0.015625)"/>
      <path id="DejaVuSans-Bold-69" d="M 538 3500 
L 1656 3500 
L 1656 0 
L 538 0 
L 538 3500 
z
M 538 4863 
L 1656 4863 
L 1656 3950 
L 538 3950 
L 538 4863 
z
" transform="scale(0.015625)"/>
      <path id="DejaVuSans-Bold-6f" d="M 2203 2784 
Q 1831 2784 1636 2517 
Q 1441 2250 1441 1747 
Q 1441 1244 1636 976 
Q 1831 709 2203 709 
Q 2569 709 2762 976 
Q 2956 1244 2956 1747 
Q 2956 2250 2762 2517 
Q 2569 2784 2203 2784 
z
M 2203 3584 
Q 3106 3584 3614 3096 
Q 4122 2609 4122 1747 
Q 4122 884 3614 396 
Q 3106 -91 2203 -91 
Q 1297 -91 786 396 
Q 275 884 275 1747 
Q 275 2609 786 3096 
Q 1297 3584 2203 3584 
z
" transform="scale(0.015625)"/>
     </defs>
     <use xlink:href="#DejaVuSans-Bold-49"/>
     <use xlink:href="#DejaVuSans-Bold-6e" transform="translate(37.207031 0)"/>
     <use xlink:href="#DejaVuSans-Bold-66" transform="translate(108.398438 0)"/>
     <use xlink:href="#DejaVuSans-Bold-6c" transform="translate(151.904297 0)"/>
     <use xlink:href="#DejaVuSans-Bold-61" transform="translate(186.181641 0)"/>
     <use xlink:href="#DejaVuSans-Bold-74" transform="translate(253.662109 0)"/>
     <use xlink:href="#DejaVuSans-Bold-69" transform="translate(301.464844 0)"/>
     <use xlink:href="#DejaVuSans-Bold-6f" transform="translate(335.742188 0)"/>
     <use xlink:href="#DejaVuSans-Bold-6e" transform="translate(404.443359 0)"/>
    </g>
   </g>
   <g id="text_13">
    <!-- EW/QCD -->
    <g style="fill: #2c3e50" transform="translate(237.466906 196.9475) scale(0.08 -0.08)">
     <defs>
      <path id="DejaVuSans-Bold-45" d="M 588 4666 
L 3834 4666 
L 3834 3756 
L 1791 3756 
L 1791 2888 
L 3713 2888 
L 3713 1978 
L 1791 1978 
L 1791 909 
L 3903 909 
L 3903 0 
L 588 0 
L 588 4666 
z
" transform="scale(0.015625)"/>
      <path id="DejaVuSans-Bold-57" d="M 191 4666 
L 1344 4666 
L 2150 1275 
L 2950 4666 
L 4109 4666 
L 4909 1275 
L 5716 4666 
L 6859 4666 
L 5759 0 
L 4372 0 
L 3525 3547 
L 2688 0 
L 1300 0 
L 191 4666 
z
" transform="scale(0.015625)"/>
      <path id="DejaVuSans-Bold-2f" d="M 1644 4666 
L 2338 4666 
L 691 -594 
L 0 -594 
L 1644 4666 
z
" transform="scale(0.015625)"/>
      <path id="DejaVuSans-Bold-51" d="M 2847 -84 
L 2753 -84 
Q 1600 -84 959 553 
Q 319 1191 319 2328 
Q 319 3463 958 4106 
Q 1597 4750 2719 4750 
Q 3853 4750 4486 4112 
Q 5119 3475 5119 2328 
Q 5119 1541 4783 972 
Q 4447 403 3816 116 
L 4756 -934 
L 3609 -934 
L 2847 -84 
z
M 2719 3878 
Q 2169 3878 1866 3472 
Q 1563 3066 1563 2328 
Q 1563 1578 1859 1179 
Q 2156 781 2719 781 
Q 3272 781 3575 1187 
Q 3878 1594 3878 2328 
Q 3878 3066 3575 3472 
Q 3272 3878 2719 3878 
z
" transform="scale(0.015625)"/>
      <path id="DejaVuSans-Bold-43" d="M 4288 256 
Q 3956 84 3597 -3 
Q 3238 -91 2847 -91 
Q 1681 -91 1000 561 
Q 319 1213 319 2328 
Q 319 3447 1000 4098 
Q 1681 4750 2847 4750 
Q 3238 4750 3597 4662 
Q 3956 4575 4288 4403 
L 4288 3438 
Q 3953 3666 3628 3772 
Q 3303 3878 2944 3878 
Q 2300 3878 1931 3465 
Q 1563 3053 1563 2328 
Q 1563 1606 1931 1193 
Q 2300 781 2944 781 
Q 3303 781 3628 887 
Q 3953 994 4288 1222 
L 4288 256 
z
" transform="scale(0.015625)"/>
      <path id="DejaVuSans-Bold-44" d="M 1791 3756 
L 1791 909 
L 2222 909 
Q 2959 909 3348 1275 
Q 3738 1641 3738 2338 
Q 3738 3031 3350 3393 
Q 2963 3756 2222 3756 
L 1791 3756 
z
M 588 4666 
L 1856 4666 
Q 2919 4666 3439 4514 
Q 3959 4363 4331 4000 
Q 4659 3684 4818 3271 
Q 4978 2859 4978 2338 
Q 4978 1809 4818 1395 
Q 4659 981 4331 666 
Q 3956 303 3431 151 
Q 2906 0 1856 0 
L 588 0 
L 588 4666 
z
" transform="scale(0.015625)"/>
     </defs>
     <use xlink:href="#DejaVuSans-Bold-45"/>
     <use xlink:href="#DejaVuSans-Bold-57" transform="translate(68.310547 0)"/>
     <use xlink:href="#DejaVuSans-Bold-2f" transform="translate(178.613281 0)"/>
     <use xlink:href="#DejaVuSans-Bold-51" transform="translate(215.136719 0)"/>
     <use xlink:href="#DejaVuSans-Bold-43" transform="translate(300.146484 0)"/>
     <use xlink:href="#DejaVuSans-Bold-44" transform="translate(373.535156 0)"/>
    </g>
   </g>
   <g id="text_14">
    <!-- BBN -->
    <g style="fill: #2c3e50" transform="translate(305.755242 196.9475) scale(0.08 -0.08)">
     <defs>
      <path id="DejaVuSans-Bold-42" d="M 2456 2859 
Q 2741 2859 2887 2984 
Q 3034 3109 3034 3353 
Q 3034 3594 2887 3720 
Q 2741 3847 2456 3847 
L 1791 3847 
L 1791 2859 
L 2456 2859 
z
M 2497 819 
Q 2859 819 3042 972 
Q 3225 1125 3225 1434 
Q 3225 1738 3044 1889 
Q 2863 2041 2497 2041 
L 1791 2041 
L 1791 819 
L 2497 819 
z
M 3616 2497 
Q 4003 2384 4215 2081 
Q 4428 1778 4428 1338 
Q 4428 663 3972 331 
Q 3516 0 2584 0 
L 588 0 
L 588 4666 
L 2394 4666 
Q 3366 4666 3802 4372 
Q 4238 4078 4238 3431 
Q 4238 3091 4078 2852 
Q 3919 2613 3616 2497 
z
" transform="scale(0.015625)"/>
      <path id="DejaVuSans-Bold-4e" d="M 588 4666 
L 1931 4666 
L 3628 1466 
L 3628 4666 
L 4769 4666 
L 4769 0 
L 3425 0 
L 1728 3200 
L 1728 0 
L 588 0 
L 588 4666 
z
" transform="scale(0.015625)"/>
     </defs>
     <use xlink:href="#DejaVuSans-Bold-42"/>
     <use xlink:href="#DejaVuSans-Bold-42" transform="translate(76.220703 0)"/>
     <use xlink:href="#DejaVuSans-Bold-4e" transform="translate(152.441406 0)"/>
    </g>
   </g>
   <g id="text_15">
    <!-- Recomb. -->
    <g style="fill: #2c3e50" transform="translate(372.722212 196.9475) scale(0.08 -0.08)">
     <defs>
      <path id="DejaVuSans-Bold-52" d="M 2297 2597 
Q 2675 2597 2839 2737 
Q 3003 2878 3003 3200 
Q 3003 3519 2839 3656 
Q 2675 3794 2297 3794 
L 1791 3794 
L 1791 2597 
L 2297 2597 
z
M 1791 1766 
L 1791 0 
L 588 0 
L 588 4666 
L 2425 4666 
Q 3347 4666 3776 4356 
Q 4206 4047 4206 3378 
Q 4206 2916 3982 2619 
Q 3759 2322 3309 2181 
Q 3556 2125 3751 1926 
Q 3947 1728 4147 1325 
L 4800 0 
L 3519 0 
L 2950 1159 
Q 2778 1509 2601 1637 
Q 2425 1766 2131 1766 
L 1791 1766 
z
" transform="scale(0.015625)"/>
      <path id="DejaVuSans-Bold-65" d="M 4031 1759 
L 4031 1441 
L 1416 1441 
Q 1456 1047 1700 850 
Q 1944 653 2381 653 
Q 2734 653 3104 758 
Q 3475 863 3866 1075 
L 3866 213 
Q 3469 63 3072 -14 
Q 2675 -91 2278 -91 
Q 1328 -91 801 392 
Q 275 875 275 1747 
Q 275 2603 792 3093 
Q 1309 3584 2216 3584 
Q 3041 3584 3536 3087 
Q 4031 2591 4031 1759 
z
M 2881 2131 
Q 2881 2450 2695 2645 
Q 2509 2841 2209 2841 
Q 1884 2841 1681 2658 
Q 1478 2475 1428 2131 
L 2881 2131 
z
" transform="scale(0.015625)"/>
      <path id="DejaVuSans-Bold-6d" d="M 3781 2919 
Q 3994 3244 4286 3414 
Q 4578 3584 4928 3584 
Q 5531 3584 5847 3212 
Q 6163 2841 6163 2131 
L 6163 0 
L 5038 0 
L 5038 1825 
Q 5041 1866 5042 1909 
Q 5044 1953 5044 2034 
Q 5044 2406 4934 2573 
Q 4825 2741 4581 2741 
Q 4263 2741 4089 2478 
Q 3916 2216 3909 1719 
L 3909 0 
L 2784 0 
L 2784 1825 
Q 2784 2406 2684 2573 
Q 2584 2741 2328 2741 
Q 2006 2741 1831 2477 
Q 1656 2213 1656 1722 
L 1656 0 
L 531 0 
L 531 3500 
L 1656 3500 
L 1656 2988 
Q 1863 3284 2130 3434 
Q 2397 3584 2719 3584 
Q 3081 3584 3359 3409 
Q 3638 3234 3781 2919 
z
" transform="scale(0.015625)"/>
      <path id="DejaVuSans-Bold-62" d="M 2400 722 
Q 2759 722 2948 984 
Q 3138 1247 3138 1747 
Q 3138 2247 2948 2509 
Q 2759 2772 2400 2772 
Q 2041 2772 1848 2508 
Q 1656 2244 1656 1747 
Q 1656 1250 1848 986 
Q 2041 722 2400 722 
z
M 1656 2988 
Q 1888 3294 2169 3439 
Q 2450 3584 2816 3584 
Q 3463 3584 3878 3070 
Q 4294 2556 4294 1747 
Q 4294 938 3878 423 
Q 3463 -91 2816 -91 
Q 2450 -91 2169 54 
Q 1888 200 1656 506 
L 1656 0 
L 538 0 
L 538 4863 
L 1656 4863 
L 1656 2988 
z
" transform="scale(0.015625)"/>
      <path id="DejaVuSans-Bold-2e" d="M 653 1209 
L 1778 1209 
L 1778 0 
L 653 0 
L 653 1209 
z
" transform="scale(0.015625)"/>
     </defs>
     <use xlink:href="#DejaVuSans-Bold-52"/>
     <use xlink:href="#DejaVuSans-Bold-65" transform="translate(77.001953 0)"/>
     <use xlink:href="#DejaVuSans-Bold-63" transform="translate(144.824219 0)"/>
     <use xlink:href="#DejaVuSans-Bold-6f" transform="translate(204.101562 0)"/>
     <use xlink:href="#DejaVuSans-Bold-6d" transform="translate(272.802734 0)"/>
     <use xlink:href="#DejaVuSans-Bold-62" transform="translate(377.001953 0)"/>
     <use xlink:href="#DejaVuSans-Bold-2e" transform="translate(448.583984 0)"/>
    </g>
   </g>
   <g id="text_16">
    <!-- Structure -->
    <g style="fill: #2c3e50" transform="translate(389.585616 196.9475) scale(0.08 -0.08)">
     <defs>
      <path id="DejaVuSans-Bold-53" d="M 3834 4519 
L 3834 3531 
Q 3450 3703 3084 3790 
Q 2719 3878 2394 3878 
Q 1963 3878 1756 3759 
Q 1550 3641 1550 3391 
Q 1550 3203 1689 3098 
Q 1828 2994 2194 2919 
L 2706 2816 
Q 3484 2659 3812 2340 
Q 4141 2022 4141 1434 
Q 4141 663 3683 286 
Q 3225 -91 2284 -91 
Q 1841 -91 1394 -6 
Q 947 78 500 244 
L 500 1259 
Q 947 1022 1364 901 
Q 1781 781 2169 781 
Q 2563 781 2772 912 
Q 2981 1044 2981 1288 
Q 2981 1506 2839 1625 
Q 2697 1744 2272 1838 
L 1806 1941 
Q 1106 2091 782 2419 
Q 459 2747 459 3303 
Q 459 4000 909 4375 
Q 1359 4750 2203 4750 
Q 2588 4750 2994 4692 
Q 3400 4634 3834 4519 
z
" transform="scale(0.015625)"/>
      <path id="DejaVuSans-Bold-72" d="M 3138 2547 
Q 2991 2616 2845 2648 
Q 2700 2681 2553 2681 
Q 2122 2681 1889 2404 
Q 1656 2128 1656 1613 
L 1656 0 
L 538 0 
L 538 3500 
L 1656 3500 
L 1656 2925 
Q 1872 3269 2151 3426 
Q 2431 3584 2822 3584 
Q 2878 3584 2943 3579 
Q 3009 3575 3134 3559 
L 3138 2547 
z
" transform="scale(0.015625)"/>
      <path id="DejaVuSans-Bold-75" d="M 500 1363 
L 500 3500 
L 1625 3500 
L 1625 3150 
Q 1625 2866 1622 2436 
Q 1619 2006 1619 1863 
Q 1619 1441 1641 1255 
Q 1663 1069 1716 984 
Q 1784 875 1895 815 
Q 2006 756 2150 756 
Q 2500 756 2700 1025 
Q 2900 1294 2900 1772 
L 2900 3500 
L 4019 3500 
L 4019 0 
L 2900 0 
L 2900 506 
Q 2647 200 2364 54 
Q 2081 -91 1741 -91 
Q 1134 -91 817 281 
Q 500 653 500 1363 
z
" transform="scale(0.015625)"/>
     </defs>
     <use xlink:href="#DejaVuSans-Bold-53"/>
     <use xlink:href="#DejaVuSans-Bold-74" transform="translate(72.021484 0)"/>
     <use xlink:href="#DejaVuSans-Bold-72" transform="translate(119.824219 0)"/>
     <use xlink:href="#DejaVuSans-Bold-75" transform="translate(169.140625 0)"/>
     <use xlink:href="#DejaVuSans-Bold-63" transform="translate(240.332031 0)"/>
     <use xlink:href="#DejaVuSans-Bold-74" transform="translate(299.609375 0)"/>
     <use xlink:href="#DejaVuSans-Bold-75" transform="translate(347.412109 0)"/>
     <use xlink:href="#DejaVuSans-Bold-72" transform="translate(418.603516 0)"/>
     <use xlink:href="#DejaVuSans-Bold-65" transform="translate(467.919922 0)"/>
    </g>
   </g>
   <g id="text_17">
    <!-- Today -->
    <g style="fill: #ffffff" transform="translate(408.678704 196.91625) scale(0.08 -0.08)">
     <defs>
      <path id="DejaVuSans-Bold-54" d="M 31 4666 
L 4331 4666 
L 4331 3756 
L 2784 3756 
L 2784 0 
L 1581 0 
L 1581 3756 
L 31 3756 
L 31 4666 
z
" transform="scale(0.015625)"/>
      <path id="DejaVuSans-Bold-64" d="M 2919 2988 
L 2919 4863 
L 4044 4863 
L 4044 0 
L 2919 0 
L 2919 506 
Q 2688 197 2409 53 
Q 2131 -91 1766 -91 
Q 1119 -91 703 423 
Q 288 938 288 1747 
Q 288 2556 703 3070 
Q 1119 3584 1766 3584 
Q 2128 3584 2408 3439 
Q 2688 3294 2919 2988 
z
M 2181 722 
Q 2541 722 2730 984 
Q 2919 1247 2919 1747 
Q 2919 2247 2730 2509 
Q 2541 2772 2181 2772 
Q 1825 2772 1636 2509 
Q 1447 2247 1447 1747 
Q 1447 1247 1636 984 
Q 1825 722 2181 722 
z
" transform="scale(0.015625)"/>
      <path id="DejaVuSans-Bold-79" d="M 78 3500 
L 1197 3500 
L 2138 1125 
L 2938 3500 
L 4056 3500 
L 2584 -331 
Q 2363 -916 2067 -1148 
Q 1772 -1381 1288 -1381 
L 641 -1381 
L 641 -647 
L 991 -647 
Q 1275 -647 1404 -556 
Q 1534 -466 1606 -231 
L 1638 -134 
L 78 3500 
z
" transform="scale(0.015625)"/>
     </defs>
     <use xlink:href="#DejaVuSans-Bold-54"/>
     <use xlink:href="#DejaVuSans-Bold-6f" transform="translate(54.962891 0)"/>
     <use xlink:href="#DejaVuSans-Bold-64" transform="translate(123.664062 0)"/>
     <use xlink:href="#DejaVuSans-Bold-61" transform="translate(195.246094 0)"/>
     <use xlink:href="#DejaVuSans-Bold-79" transform="translate(259.601562 0)"/>
    </g>
   </g>
   <g id="text_18">
    <!-- Cosmological Epochs (schematic) -->
    <g transform="translate(121.978178 61.728) scale(0.12 -0.12)">
     <defs>
      <path id="DejaVuSans-43" d="M 4122 4306 
L 4122 3641 
Q 3803 3938 3442 4084 
Q 3081 4231 2675 4231 
Q 1875 4231 1450 3742 
Q 1025 3253 1025 2328 
Q 1025 1406 1450 917 
Q 1875 428 2675 428 
Q 3081 428 3442 575 
Q 3803 722 4122 1019 
L 4122 359 
Q 3791 134 3420 21 
Q 3050 -91 2638 -91 
Q 1578 -91 968 557 
Q 359 1206 359 2328 
Q 359 3453 968 4101 
Q 1578 4750 2638 4750 
Q 3056 4750 3426 4639 
Q 3797 4528 4122 4306 
z
" transform="scale(0.015625)"/>
      <path id="DejaVuSans-45" d="M 628 4666 
L 3578 4666 
L 3578 4134 
L 1259 4134 
L 1259 2753 
L 3481 2753 
L 3481 2222 
L 1259 2222 
L 1259 531 
L 3634 531 
L 3634 0 
L 628 0 
L 628 4666 
z
" transform="scale(0.015625)"/>
      <path id="DejaVuSans-70" d="M 1159 525 
L 1159 -1331 
L 581 -1331 
L 581 3500 
L 1159 3500 
L 1159 2969 
Q 1341 3281 1617 3432 
Q 1894 3584 2278 3584 
Q 2916 3584 3314 3078 
Q 3713 2572 3713 1747 
Q 3713 922 3314 415 
Q 2916 -91 2278 -91 
Q 1894 -91 1617 61 
Q 1341 213 1159 525 
z
M 3116 1747 
Q 3116 2381 2855 2742 
Q 2594 3103 2138 3103 
Q 1681 3103 1420 2742 
Q 1159 2381 1159 1747 
Q 1159 1113 1420 752 
Q 1681 391 2138 391 
Q 2594 391 2855 752 
Q 3116 1113 3116 1747 
z
" transform="scale(0.015625)"/>
      <path id="DejaVuSans-68" d="M 3513 2113 
L 3513 0 
L 2938 0 
L 2938 2094 
Q 2938 2591 2744 2837 
Q 2550 3084 2163 3084 
Q 1697 3084 1428 2787 
Q 1159 2491 1159 1978 
L 1159 0 
L 581 0 
L 581 4863 
L 1159 4863 
L 1159 2956 
Q 1366 3272 1645 3428 
Q 1925 3584 2291 3584 
Q 2894 3584 3203 3211 
Q 3513 2838 3513 2113 
z
" transform="scale(0.015625)"/>
      <path id="DejaVuSans-74" d="M 1172 4494 
L 1172 3500 
L 2356 3500 
L 2356 3053 
L 1172 3053 
L 1172 1153 
Q 1172 725 1289 603 
Q 1406 481 1766 481 
L 2356 481 
L 2356 0 
L 1766 0 
Q 1100 0 847 248 
Q 594 497 594 1153 
L 594 3053 
L 172 3053 
L 172 3500 
L 594 3500 
L 594 4494 
L 1172 4494 
z
" transform="scale(0.015625)"/>
     </defs>
     <use xlink:href="#DejaVuSans-43"/>
     <use xlink:href="#DejaVuSans-6f" transform="translate(69.824219 0)"/>
     <use xlink:href="#DejaVuSans-73" transform="translate(131.005859 0)"/>
     <use xlink:href="#DejaVuSans-6d" transform="translate(183.105469 0)"/>
     <use xlink:href="#DejaVuSans-6f" transform="translate(280.517578 0)"/>
     <use xlink:href="#DejaVuSans-6c" transform="translate(341.699219 0)"/>
     <use xlink:href="#DejaVuSans-6f" transform="translate(369.482422 0)"/>
     <use xlink:href="#DejaVuSans-67" transform="translate(430.664062 0)"/>
     <use xlink:href="#DejaVuSans-69" transform="translate(494.140625 0)"/>
     <use xlink:href="#DejaVuSans-63" transform="translate(521.923828 0)"/>
     <use xlink:href="#DejaVuSans-61" transform="translate(576.904297 0)"/>
     <use xlink:href="#DejaVuSans-6c" transform="translate(638.183594 0)"/>
     <use xlink:href="#DejaVuSans-20" transform="translate(665.966797 0)"/>
     <use xlink:href="#DejaVuSans-45" transform="translate(697.753906 0)"/>
     <use xlink:href="#DejaVuSans-70" transform="translate(760.9375 0)"/>
     <use xlink:href="#DejaVuSans-6f" transform="translate(824.414062 0)"/>
     <use xlink:href="#DejaVuSans-63" transform="translate(885.595703 0)"/>
     <use xlink:href="#DejaVuSans-68" transform="translate(940.576172 0)"/>
     <use xlink:href="#DejaVuSans-73" transform="translate(1003.955078 0)"/>
     <use xlink:href="#DejaVuSans-20" transform="translate(1056.054688 0)"/>
     <use xlink:href="#DejaVuSans-28" transform="translate(1087.841797 0)"/>
     <use xlink:href="#DejaVuSans-73" transform="translate(1126.855469 0)"/>
     <use xlink:href="#DejaVuSans-63" transform="translate(1178.955078 0)"/>
     <use xlink:href="#DejaVuSans-68" transform="translate(1233.935547 0)"/>
     <use xlink:href="#DejaVuSans-65" transform="translate(1297.314453 0)"/>
     <use xlink:href="#DejaVuSans-6d" transform="translate(1358.837891 0)"/>
     <use xlink:href="#DejaVuSans-61" transform="translate(1456.25 0)"/>
     <use xlink:href="#DejaVuSans-74" transform="translate(1517.529297 0)"/>
     <use xlink:href="#DejaVuSans-69" transform="translate(1556.738281 0)"/>
     <use xlink:href="#DejaVuSans-63" transform="translate(1584.521484 0)"/>
     <use xlink:href="#DejaVuSans-29" transform="translate(1639.501953 0)"/>
    </g>
   </g>
  </g>
  <g id="axes_2">
   <g id="patch_14">
    <path d="M 466.624977 289.0492 
L 829.397073 289.0492 
L 829.397073 100.4308 
L 466.624977 100.4308 
z
" clip-path="url(#pfe51620828)" style="fill: #95a5a6; opacity: 0.08; stroke: #ecf0f1; stroke-linejoin: miter"/>
   </g>
   <g id="patch_15">
    <path d="M 567.395003 252.1456 
C 580.222775 252.1456 592.52688 246.961072 601.597484 237.733848 
C 610.668089 228.506624 615.764616 215.990065 615.764616 202.9408 
C 615.764616 189.891535 610.668089 177.374976 601.597484 168.147752 
C 592.52688 158.920528 580.222775 153.736 567.395003 153.736 
C 554.567232 153.736 542.263126 158.920528 533.192522 168.147752 
C 524.121918 177.374976 519.02539 189.891535 519.02539 202.9408 
C 519.02539 215.990065 524.121918 228.506624 533.192522 237.733848 
C 542.263126 246.961072 554.567232 252.1456 567.395003 252.1456 
z
" clip-path="url(#pfe51620828)" style="fill: #9b59b6; opacity: 0.12; stroke: #9b59b6; stroke-width: 2.5; stroke-linejoin: miter"/>
   </g>
   <g id="patch_16">
    <path d="M 567.395003 251.161504 
C 579.966219 251.161504 592.024243 246.080666 600.913435 237.037987 
C 609.802627 227.995307 614.797224 215.72908 614.797224 202.9408 
C 614.797224 190.15252 609.802627 177.886293 600.913435 168.843613 
C 592.024243 159.800934 579.966219 154.720096 567.395003 154.720096 
C 554.823787 154.720096 542.765764 159.800934 533.876572 168.843613 
C 524.98738 177.886293 519.992783 190.15252 519.992783 202.9408 
C 519.992783 215.72908 524.98738 227.995307 533.876572 237.037987 
C 542.765764 246.080666 554.823787 251.161504 567.395003 251.161504 
L 567.395003 251.161504 
z
" clip-path="url(#pfe51620828)" style="fill: none; opacity: 0.35; stroke: #9b59b6; stroke-linejoin: miter"/>
   </g>
   <g id="patch_17">
    <path d="M 696.380637 227.5432 
C 706.001466 227.5432 715.229545 223.654804 722.032498 216.734386 
C 728.835451 209.813968 732.657847 200.426549 732.657847 190.6396 
C 732.657847 180.852651 728.835451 171.465232 722.032498 164.544814 
C 715.229545 157.624396 706.001466 153.736 696.380637 153.736 
C 686.759809 153.736 677.53173 157.624396 670.728777 164.544814 
C 663.925823 171.465232 660.103428 180.852651 660.103428 190.6396 
C 660.103428 200.426549 663.925823 209.813968 670.728777 216.734386 
C 677.53173 223.654804 686.759809 227.5432 696.380637 227.5432 
z
" clip-path="url(#pfe51620828)" style="fill: #9b59b6; opacity: 0.12; stroke: #9b59b6; stroke-width: 2.5; stroke-linejoin: miter"/>
   </g>
   <g id="patch_18">
    <path d="M 696.380637 226.805128 
C 705.809049 226.805128 714.852567 222.9945 721.519461 216.21249 
C 728.186355 209.43048 731.932303 200.23081 731.932303 190.6396 
C 731.932303 181.04839 728.186355 171.84872 721.519461 165.06671 
C 714.852567 158.2847 705.809049 154.474072 696.380637 154.474072 
C 686.952226 154.474072 677.908708 158.2847 671.241814 165.06671 
C 664.57492 171.84872 660.828972 181.04839 660.828972 190.6396 
C 660.828972 200.23081 664.57492 209.43048 671.241814 216.21249 
C 677.908708 222.9945 686.952226 226.805128 696.380637 226.805128 
L 696.380637 226.805128 
z
" clip-path="url(#pfe51620828)" style="fill: none; opacity: 0.35; stroke: #9b59b6; stroke-linejoin: miter"/>
   </g>
   <g id="patch_19">
    <path d="M 756.842653 276.748 
C 767.532463 276.748 777.785884 272.42756 785.344721 264.738206 
C 792.903558 257.048853 797.150664 246.618388 797.150664 235.744 
C 797.150664 224.869612 792.903558 214.439147 785.344721 206.749794 
C 777.785884 199.06044 767.532463 194.74 756.842653 194.74 
C 746.152844 194.74 735.899422 199.06044 728.340586 206.749794 
C 720.781749 214.439147 716.534643 224.869612 716.534643 235.744 
C 716.534643 246.618388 720.781749 257.048853 728.340586 264.738206 
C 735.899422 272.42756 746.152844 276.748 756.842653 276.748 
z
" clip-path="url(#pfe51620828)" style="fill: #9b59b6; opacity: 0.12; stroke: #9b59b6; stroke-width: 2.5; stroke-linejoin: miter"/>
   </g>
   <g id="patch_20">
    <path d="M 756.842653 275.92792 
C 767.318667 275.92792 777.36702 271.693889 784.77468 264.158322 
C 792.18234 256.622756 796.344504 246.4009 796.344504 235.744 
C 796.344504 225.0871 792.18234 214.865244 784.77468 207.329678 
C 777.36702 199.794111 767.318667 195.56008 756.842653 195.56008 
C 746.36664 195.56008 736.318287 199.794111 728.910627 207.329678 
C 721.502967 214.865244 717.340803 225.0871 717.340803 235.744 
C 717.340803 246.4009 721.502967 256.622756 728.910627 264.158322 
C 736.318287 271.693889 746.36664 275.92792 756.842653 275.92792 
L 756.842653 275.92792 
z
" clip-path="url(#pfe51620828)" style="fill: none; opacity: 0.35; stroke: #9b59b6; stroke-linejoin: miter"/>
   </g>
   <g id="text_19">
    <!-- false vacuum -->
    <g style="fill: #95a5a6" transform="translate(621.239775 98.3806) scale(0.08 -0.08)">
     <defs>
      <path id="DejaVuSans-66" d="M 2375 4863 
L 2375 4384 
L 1825 4384 
Q 1516 4384 1395 4259 
Q 1275 4134 1275 3809 
L 1275 3500 
L 2222 3500 
L 2222 3053 
L 1275 3053 
L 1275 0 
L 697 0 
L 697 3053 
L 147 3053 
L 147 3500 
L 697 3500 
L 697 3744 
Q 697 4328 969 4595 
Q 1241 4863 1831 4863 
L 2375 4863 
z
" transform="scale(0.015625)"/>
      <path id="DejaVuSans-76" d="M 191 3500 
L 800 3500 
L 1894 563 
L 2988 3500 
L 3597 3500 
L 2284 0 
L 1503 0 
L 191 3500 
z
" transform="scale(0.015625)"/>
      <path id="DejaVuSans-75" d="M 544 1381 
L 544 3500 
L 1119 3500 
L 1119 1403 
Q 1119 906 1312 657 
Q 1506 409 1894 409 
Q 2359 409 2629 706 
Q 2900 1003 2900 1516 
L 2900 3500 
L 3475 3500 
L 3475 0 
L 2900 0 
L 2900 538 
Q 2691 219 2414 64 
Q 2138 -91 1772 -91 
Q 1169 -91 856 284 
Q 544 659 544 1381 
z
M 1991 3584 
L 1991 3584 
z
" transform="scale(0.015625)"/>
     </defs>
     <use xlink:href="#DejaVuSans-66"/>
     <use xlink:href="#DejaVuSans-61" transform="translate(35.205078 0)"/>
     <use xlink:href="#DejaVuSans-6c" transform="translate(96.484375 0)"/>
     <use xlink:href="#DejaVuSans-73" transform="translate(124.267578 0)"/>
     <use xlink:href="#DejaVuSans-65" transform="translate(176.367188 0)"/>
     <use xlink:href="#DejaVuSans-20" transform="translate(237.890625 0)"/>
     <use xlink:href="#DejaVuSans-76" transform="translate(269.677734 0)"/>
     <use xlink:href="#DejaVuSans-61" transform="translate(328.857422 0)"/>
     <use xlink:href="#DejaVuSans-63" transform="translate(390.136719 0)"/>
     <use xlink:href="#DejaVuSans-75" transform="translate(445.117188 0)"/>
     <use xlink:href="#DejaVuSans-75" transform="translate(508.496094 0)"/>
     <use xlink:href="#DejaVuSans-6d" transform="translate(571.875 0)"/>
    </g>
   </g>
   <g id="patch_21">
    <path d="M 598.414852 202.9408 
Q 606.087971 202.9408 612.643057 202.9408 
" style="fill: none; stroke: #9b59b6; stroke-linecap: round"/>
    <path d="M 608.643057 200.9408 
L 612.643057 202.9408 
L 608.643057 204.9408 
" style="fill: none; stroke: #9b59b6; stroke-linecap: round"/>
   </g>
   <g id="patch_22">
    <path d="M 720.148587 190.6396 
Q 725.403026 190.6396 729.539431 190.6396 
" style="fill: none; stroke: #9b59b6; stroke-linecap: round"/>
    <path d="M 725.539431 188.6396 
L 729.539431 190.6396 
L 725.539431 192.6396 
" style="fill: none; stroke: #9b59b6; stroke-linecap: round"/>
   </g>
   <g id="patch_23">
    <path d="M 783.031051 235.744 
Q 789.089455 235.744 794.029824 235.744 
" style="fill: none; stroke: #9b59b6; stroke-linecap: round"/>
    <path d="M 790.029824 233.744 
L 794.029824 235.744 
L 790.029824 237.744 
" style="fill: none; stroke: #9b59b6; stroke-linecap: round"/>
   </g>
   <g id="text_20">
    <!-- bubble nucleation (first-order transition) -->
    <g style="fill: #95a5a6" transform="translate(567.33915 295.1998) scale(0.08 -0.08)">
     <defs>
      <path id="DejaVuSans-62" d="M 3116 1747 
Q 3116 2381 2855 2742 
Q 2594 3103 2138 3103 
Q 1681 3103 1420 2742 
Q 1159 2381 1159 1747 
Q 1159 1113 1420 752 
Q 1681 391 2138 391 
Q 2594 391 2855 752 
Q 3116 1113 3116 1747 
z
M 1159 2969 
Q 1341 3281 1617 3432 
Q 1894 3584 2278 3584 
Q 2916 3584 3314 3078 
Q 3713 2572 3713 1747 
Q 3713 922 3314 415 
Q 2916 -91 2278 -91 
Q 1894 -91 1617 61 
Q 1341 213 1159 525 
L 1159 0 
L 581 0 
L 581 4863 
L 1159 4863 
L 1159 2969 
z
" transform="scale(0.015625)"/>
      <path id="DejaVuSans-72" d="M 2631 2963 
Q 2534 3019 2420 3045 
Q 2306 3072 2169 3072 
Q 1681 3072 1420 2755 
Q 1159 2438 1159 1844 
L 1159 0 
L 581 0 
L 581 3500 
L 1159 3500 
L 1159 2956 
Q 1341 3275 1631 3429 
Q 1922 3584 2338 3584 
Q 2397 3584 2469 3576 
Q 2541 3569 2628 3553 
L 2631 2963 
z
" transform="scale(0.015625)"/>
      <path id="DejaVuSans-2d" d="M 313 2009 
L 1997 2009 
L 1997 1497 
L 313 1497 
L 313 2009 
z
" transform="scale(0.015625)"/>
      <path id="DejaVuSans-64" d="M 2906 2969 
L 2906 4863 
L 3481 4863 
L 3481 0 
L 2906 0 
L 2906 525 
Q 2725 213 2448 61 
Q 2172 -91 1784 -91 
Q 1150 -91 751 415 
Q 353 922 353 1747 
Q 353 2572 751 3078 
Q 1150 3584 1784 3584 
Q 2172 3584 2448 3432 
Q 2725 3281 2906 2969 
z
M 947 1747 
Q 947 1113 1208 752 
Q 1469 391 1925 391 
Q 2381 391 2643 752 
Q 2906 1113 2906 1747 
Q 2906 2381 2643 2742 
Q 2381 3103 1925 3103 
Q 1469 3103 1208 2742 
Q 947 2381 947 1747 
z
" transform="scale(0.015625)"/>
     </defs>
     <use xlink:href="#DejaVuSans-62"/>
     <use xlink:href="#DejaVuSans-75" transform="translate(63.476562 0)"/>
     <use xlink:href="#DejaVuSans-62" transform="translate(126.855469 0)"/>
     <use xlink:href="#DejaVuSans-62" transform="translate(190.332031 0)"/>
     <use xlink:href="#DejaVuSans-6c" transform="translate(253.808594 0)"/>
     <use xlink:href="#DejaVuSans-65" transform="translate(281.591797 0)"/>
     <use xlink:href="#DejaVuSans-20" transform="translate(343.115234 0)"/>
     <use xlink:href="#DejaVuSans-6e" transform="translate(374.902344 0)"/>
     <use xlink:href="#DejaVuSans-75" transform="translate(438.28125 0)"/>
     <use xlink:href="#DejaVuSans-63" transform="translate(501.660156 0)"/>
     <use xlink:href="#DejaVuSans-6c" transform="translate(556.640625 0)"/>
     <use xlink:href="#DejaVuSans-65" transform="translate(584.423828 0)"/>
     <use xlink:href="#DejaVuSans-61" transform="translate(645.947266 0)"/>
     <use xlink:href="#DejaVuSans-74" transform="translate(707.226562 0)"/>
     <use xlink:href="#DejaVuSans-69" transform="translate(746.435547 0)"/>
     <use xlink:href="#DejaVuSans-6f" transform="translate(774.21875 0)"/>
     <use xlink:href="#DejaVuSans-6e" transform="translate(835.400391 0)"/>
     <use xlink:href="#DejaVuSans-20" transform="translate(898.779297 0)"/>
     <use xlink:href="#DejaVuSans-28" transform="translate(930.566406 0)"/>
     <use xlink:href="#DejaVuSans-66" transform="translate(969.580078 0)"/>
     <use xlink:href="#DejaVuSans-69" transform="translate(1004.785156 0)"/>
     <use xlink:href="#DejaVuSans-72" transform="translate(1032.568359 0)"/>
     <use xlink:href="#DejaVuSans-73" transform="translate(1073.681641 0)"/>
     <use xlink:href="#DejaVuSans-74" transform="translate(1125.78125 0)"/>
     <use xlink:href="#DejaVuSans-2d" transform="translate(1164.990234 0)"/>
     <use xlink:href="#DejaVuSans-6f" transform="translate(1202.949219 0)"/>
     <use xlink:href="#DejaVuSans-72" transform="translate(1264.130859 0)"/>
     <use xlink:href="#DejaVuSans-64" transform="translate(1303.494141 0)"/>
     <use xlink:href="#DejaVuSans-65" transform="translate(1366.970703 0)"/>
     <use xlink:href="#DejaVuSans-72" transform="translate(1428.494141 0)"/>
     <use xlink:href="#DejaVuSans-20" transform="translate(1469.607422 0)"/>
     <use xlink:href="#DejaVuSans-74" transform="translate(1501.394531 0)"/>
     <use xlink:href="#DejaVuSans-72" transform="translate(1540.603516 0)"/>
     <use xlink:href="#DejaVuSans-61" transform="translate(1581.716797 0)"/>
     <use xlink:href="#DejaVuSans-6e" transform="translate(1642.996094 0)"/>
     <use xlink:href="#DejaVuSans-73" transform="translate(1706.375 0)"/>
     <use xlink:href="#DejaVuSans-69" transform="translate(1758.474609 0)"/>
     <use xlink:href="#DejaVuSans-74" transform="translate(1786.257812 0)"/>
     <use xlink:href="#DejaVuSans-69" transform="translate(1825.466797 0)"/>
     <use xlink:href="#DejaVuSans-6f" transform="translate(1853.25 0)"/>
     <use xlink:href="#DejaVuSans-6e" transform="translate(1914.431641 0)"/>
     <use xlink:href="#DejaVuSans-29" transform="translate(1977.810547 0)"/>
    </g>
   </g>
   <g id="text_21">
    <!-- Phase Transition (schematic) -->
    <g transform="translate(561.831337 61.728) scale(0.12 -0.12)">
     <defs>
      <path id="DejaVuSans-50" d="M 1259 4147 
L 1259 2394 
L 2053 2394 
Q 2494 2394 2734 2622 
Q 2975 2850 2975 3272 
Q 2975 3691 2734 3919 
Q 2494 4147 2053 4147 
L 1259 4147 
z
M 628 4666 
L 2053 4666 
Q 2838 4666 3239 4311 
Q 3641 3956 3641 3272 
Q 3641 2581 3239 2228 
Q 2838 1875 2053 1875 
L 1259 1875 
L 1259 0 
L 628 0 
L 628 4666 
z
" transform="scale(0.015625)"/>
     </defs>
     <use xlink:href="#DejaVuSans-50"/>
     <use xlink:href="#DejaVuSans-68" transform="translate(60.302734 0)"/>
     <use xlink:href="#DejaVuSans-61" transform="translate(123.681641 0)"/>
     <use xlink:href="#DejaVuSans-73" transform="translate(184.960938 0)"/>
     <use xlink:href="#DejaVuSans-65" transform="translate(237.060547 0)"/>
     <use xlink:href="#DejaVuSans-20" transform="translate(298.583984 0)"/>
     <use xlink:href="#DejaVuSans-54" transform="translate(330.371094 0)"/>
     <use xlink:href="#DejaVuSans-72" transform="translate(376.705078 0)"/>
     <use xlink:href="#DejaVuSans-61" transform="translate(417.818359 0)"/>
     <use xlink:href="#DejaVuSans-6e" transform="translate(479.097656 0)"/>
     <use xlink:href="#DejaVuSans-73" transform="translate(542.476562 0)"/>
     <use xlink:href="#DejaVuSans-69" transform="translate(594.576172 0)"/>
     <use xlink:href="#DejaVuSans-74" transform="translate(622.359375 0)"/>
     <use xlink:href="#DejaVuSans-69" transform="translate(661.568359 0)"/>
     <use xlink:href="#DejaVuSans-6f" transform="translate(689.351562 0)"/>
     <use xlink:href="#DejaVuSans-6e" transform="translate(750.533203 0)"/>
     <use xlink:href="#DejaVuSans-20" transform="translate(813.912109 0)"/>
     <use xlink:href="#DejaVuSans-28" transform="translate(845.699219 0)"/>
     <use xlink:href="#DejaVuSans-73" transform="translate(884.712891 0)"/>
     <use xlink:href="#DejaVuSans-63" transform="translate(936.8125 0)"/>
     <use xlink:href="#DejaVuSans-68" transform="translate(991.792969 0)"/>
     <use xlink:href="#DejaVuSans-65" transform="translate(1055.171875 0)"/>
     <use xlink:href="#DejaVuSans-6d" transform="translate(1116.695312 0)"/>
     <use xlink:href="#DejaVuSans-61" transform="translate(1214.107422 0)"/>
     <use xlink:href="#DejaVuSans-74" transform="translate(1275.386719 0)"/>
     <use xlink:href="#DejaVuSans-69" transform="translate(1314.595703 0)"/>
     <use xlink:href="#DejaVuSans-63" transform="translate(1342.378906 0)"/>
     <use xlink:href="#DejaVuSans-29" transform="translate(1397.359375 0)"/>
    </g>
   </g>
  </g>
  <g id="text_22">
   <!-- Cosmic History: Timeline and Transitions -->
   <g transform="translate(286.846078 17.837812) scale(0.14 -0.14)">
    <defs>
     <path id="DejaVuSans-48" d="M 628 4666 
L 1259 4666 
L 1259 2753 
L 3553 2753 
L 3553 4666 
L 4184 4666 
L 4184 0 
L 3553 0 
L 3553 2222 
L 1259 2222 
L 1259 0 
L 628 0 
L 628 4666 
z
" transform="scale(0.015625)"/>
     <path id="DejaVuSans-79" d="M 2059 -325 
Q 1816 -950 1584 -1140 
Q 1353 -1331 966 -1331 
L 506 -1331 
L 506 -850 
L 844 -850 
Q 1081 -850 1212 -737 
Q 1344 -625 1503 -206 
L 1606 56 
L 191 3500 
L 800 3500 
L 1894 763 
L 2988 3500 
L 3597 3500 
L 2059 -325 
z
" transform="scale(0.015625)"/>
     <path id="DejaVuSans-3a" d="M 750 794 
L 1409 794 
L 1409 0 
L 750 0 
L 750 794 
z
M 750 3309 
L 1409 3309 
L 1409 2516 
L 750 2516 
L 750 3309 
z
" transform="scale(0.015625)"/>
    </defs>
    <use xlink:href="#DejaVuSans-43"/>
    <use xlink:href="#DejaVuSans-6f" transform="translate(69.824219 0)"/>
    <use xlink:href="#DejaVuSans-73" transform="translate(131.005859 0)"/>
    <use xlink:href="#DejaVuSans-6d" transform="translate(183.105469 0)"/>
    <use xlink:href="#DejaVuSans-69" transform="translate(280.517578 0)"/>
    <use xlink:href="#DejaVuSans-63" transform="translate(308.300781 0)"/>
    <use xlink:href="#DejaVuSans-20" transform="translate(363.28125 0)"/>
    <use xlink:href="#DejaVuSans-48" transform="translate(395.068359 0)"/>
    <use xlink:href="#DejaVuSans-69" transform="translate(470.263672 0)"/>
    <use xlink:href="#DejaVuSans-73" transform="translate(498.046875 0)"/>
    <use xlink:href="#DejaVuSans-74" transform="translate(550.146484 0)"/>
    <use xlink:href="#DejaVuSans-6f" transform="translate(589.355469 0)"/>
    <use xlink:href="#DejaVuSans-72" transform="translate(650.537109 0)"/>
    <use xlink:href="#DejaVuSans-79" transform="translate(691.650391 0)"/>
    <use xlink:href="#DejaVuSans-3a" transform="translate(743.580078 0)"/>
    <use xlink:href="#DejaVuSans-20" transform="translate(777.271484 0)"/>
    <use xlink:href="#DejaVuSans-54" transform="translate(809.058594 0)"/>
    <use xlink:href="#DejaVuSans-69" transform="translate(867.017578 0)"/>
    <use xlink:href="#DejaVuSans-6d" transform="translate(894.800781 0)"/>
    <use xlink:href="#DejaVuSans-65" transform="translate(992.212891 0)"/>
    <use xlink:href="#DejaVuSans-6c" transform="translate(1053.736328 0)"/>
    <use xlink:href="#DejaVuSans-69" transform="translate(1081.519531 0)"/>
    <use xlink:href="#DejaVuSans-6e" transform="translate(1109.302734 0)"/>
    <use xlink:href="#DejaVuSans-65" transform="translate(1172.681641 0)"/>
    <use xlink:href="#DejaVuSans-20" transform="translate(1234.205078 0)"/>
    <use xlink:href="#DejaVuSans-61" transform="translate(1265.992188 0)"/>
    <use xlink:href="#DejaVuSans-6e" transform="translate(1327.271484 0)"/>
    <use xlink:href="#DejaVuSans-64" transform="translate(1390.650391 0)"/>
    <use xlink:href="#DejaVuSans-20" transform="translate(1454.126953 0)"/>
    <use xlink:href="#DejaVuSans-54" transform="translate(1485.914062 0)"/>
    <use xlink:href="#DejaVuSans-72" transform="translate(1532.248047 0)"/>
    <use xlink:href="#DejaVuSans-61" transform="translate(1573.361328 0)"/>
    <use xlink:href="#DejaVuSans-6e" transform="translate(1634.640625 0)"/>
    <use xlink:href="#DejaVuSans-73" transform="translate(1698.019531 0)"/>
    <use xlink:href="#DejaVuSans-69" transform="translate(1750.119141 0)"/>
    <use xlink:href="#DejaVuSans-74" transform="translate(1777.902344 0)"/>
    <use xlink:href="#DejaVuSans-69" transform="translate(1817.111328 0)"/>
    <use xlink:href="#DejaVuSans-6f" transform="translate(1844.894531 0)"/>
    <use xlink:href="#DejaVuSans-6e" transform="translate(1906.076172 0)"/>
    <use xlink:href="#DejaVuSans-73" transform="translate(1969.455078 0)"/>
   </g>
  </g>
 </g>
 <defs>
  <clipPath id="pfce945283c">
   <rect x="21.15" y="71.728" width="403.080107" height="246.024"/>
  </clipPath>
  <clipPath id="pfe51620828">
   <rect x="446.470971" y="71.728" width="403.080107" height="246.024"/>
  </clipPath>
 </defs>
</svg>
