<?xml version="1.0" encoding="utf-8" standalone="no"?>
<!DOCTYPE svg PUBLIC "-//W3C//DTD SVG 1.1//EN"
  "http://www.w3.org/Graphics/SVG/1.1/DTD/svg11.dtd">
<svg xmlns:xlink="http://www.w3.org/1999/xlink" width="360pt" height="147pt" viewBox="0 0 360 147" xmlns="http://www.w3.org/2000/svg" version="1.1">
 <metadata>
  <rdf:RDF xmlns:dc="http://purl.org/dc/elements/1.1/" xmlns:cc="http://creativecommons.org/ns#" xmlns:rdf="http://www.w3.org/1999/02/22-rdf-syntax-ns#">
   <cc:Work>
    <dc:type rdf:resource="http://purl.org/dc/dcmitype/StillImage"/>
    <dc:date>2026-01-02T17:09:01.035249</dc:date>
    <dc:format>image/svg+xml</dc:format>
    <dc:creator>
     <cc:Agent>
      <dc:title>Matplotlib v3.10.8, https://matplotlib.org/</dc:title>
     </cc:Agent>
    </dc:creator>
   </cc:Work>
  </rdf:RDF>
 </metadata>
 <defs>
  <style type="text/css">*{stroke-linejoin: round; stroke-linecap: butt}</style>
 </defs>
 <g id="figure_1">
  <g id="patch_1">
   <path d="M 0 147 
L 360 147 
L 360 0 
L 0 0 
z
" style="fill: #ffffff"/>
  </g>
  <g id="axes_1">
   <g id="text_1">
    <!-- Expected (decelerating):    ★ (bright) -->
    <g style="fill: #2c3e50" transform="translate(14.112 17.503563) scale(0.1 -0.1)">
     <defs>
      <path id="DejaVuSansMono-45" d="M 616 4666 
L 3384 4666 
L 3384 4134 
L 1247 4134 
L 1247 2753 
L 3291 2753 
L 3291 2222 
L 1247 2222 
L 1247 531 
L 3444 531 
L 3444 0 
L 616 0 
L 616 4666 
z
" transform="scale(0.015625)"/>
      <path id="DejaVuSansMono-78" d="M 3494 3500 
L 2241 1825 
L 3616 0 
L 2950 0 
L 1925 1403 
L 903 0 
L 238 0 
L 1613 1825 
L 359 3500 
L 997 3500 
L 1925 2234 
L 2847 3500 
L 3494 3500 
z
" transform="scale(0.015625)"/>
      <path id="DejaVuSansMono-70" d="M 1172 441 
L 1172 -1331 
L 594 -1331 
L 594 3500 
L 1172 3500 
L 1172 3053 
Q 1316 3313 1555 3448 
Q 1794 3584 2106 3584 
Q 2741 3584 3102 3093 
Q 3463 2603 3463 1734 
Q 3463 881 3100 395 
Q 2738 -91 2106 -91 
Q 1788 -91 1548 45 
Q 1309 181 1172 441 
z
M 2859 1747 
Q 2859 2416 2648 2756 
Q 2438 3097 2022 3097 
Q 1603 3097 1387 2755 
Q 1172 2413 1172 1747 
Q 1172 1084 1387 740 
Q 1603 397 2022 397 
Q 2438 397 2648 737 
Q 2859 1078 2859 1747 
z
" transform="scale(0.015625)"/>
      <path id="DejaVuSansMono-65" d="M 3475 1894 
L 3475 1613 
L 984 1613 
L 984 1594 
Q 984 1022 1282 709 
Q 1581 397 2125 397 
Q 2400 397 2700 484 
Q 3000 572 3341 750 
L 3341 178 
Q 3013 44 2708 -23 
Q 2403 -91 2119 -91 
Q 1303 -91 843 398 
Q 384 888 384 1747 
Q 384 2584 834 3084 
Q 1284 3584 2034 3584 
Q 2703 3584 3089 3131 
Q 3475 2678 3475 1894 
z
M 2900 2063 
Q 2888 2569 2661 2833 
Q 2434 3097 2009 3097 
Q 1594 3097 1325 2822 
Q 1056 2547 1006 2059 
L 2900 2063 
z
" transform="scale(0.015625)"/>
      <path id="DejaVuSansMono-63" d="M 3316 178 
Q 3084 44 2839 -23 
Q 2594 -91 2338 -91 
Q 1525 -91 1067 396 
Q 609 884 609 1747 
Q 609 2609 1067 3096 
Q 1525 3584 2338 3584 
Q 2591 3584 2831 3518 
Q 3072 3453 3316 3316 
L 3316 2713 
Q 3088 2916 2858 3006 
Q 2628 3097 2338 3097 
Q 1797 3097 1506 2747 
Q 1216 2397 1216 1747 
Q 1216 1100 1508 748 
Q 1800 397 2338 397 
Q 2638 397 2875 489 
Q 3113 581 3316 775 
L 3316 178 
z
" transform="scale(0.015625)"/>
      <path id="DejaVuSansMono-74" d="M 1919 4494 
L 1919 3500 
L 3225 3500 
L 3225 3053 
L 1919 3053 
L 1919 1153 
Q 1919 766 2066 612 
Q 2213 459 2578 459 
L 3225 459 
L 3225 0 
L 2522 0 
Q 1875 0 1609 259 
Q 1344 519 1344 1153 
L 1344 3053 
L 409 3053 
L 409 3500 
L 1344 3500 
L 1344 4494 
L 1919 4494 
z
" transform="scale(0.015625)"/>
      <path id="DejaVuSansMono-64" d="M 2681 3053 
L 2681 4863 
L 3256 4863 
L 3256 0 
L 2681 0 
L 2681 441 
Q 2538 181 2298 45 
Q 2059 -91 1747 -91 
Q 1113 -91 748 401 
Q 384 894 384 1759 
Q 384 2613 750 3098 
Q 1116 3584 1747 3584 
Q 2063 3584 2303 3448 
Q 2544 3313 2681 3053 
z
M 991 1747 
Q 991 1078 1203 737 
Q 1416 397 1831 397 
Q 2247 397 2464 740 
Q 2681 1084 2681 1747 
Q 2681 2413 2464 2755 
Q 2247 3097 1831 3097 
Q 1416 3097 1203 2756 
Q 991 2416 991 1747 
z
" transform="scale(0.015625)"/>
      <path id="DejaVuSansMono-20" transform="scale(0.015625)"/>
      <path id="DejaVuSansMono-28" d="M 2766 4856 
Q 2350 4144 2145 3436 
Q 1941 2728 1941 2009 
Q 1941 1294 2145 584 
Q 2350 -125 2766 -844 
L 2266 -844 
Q 1794 -100 1562 604 
Q 1331 1309 1331 2009 
Q 1331 2706 1562 3412 
Q 1794 4119 2266 4856 
L 2766 4856 
z
" transform="scale(0.015625)"/>
      <path id="DejaVuSansMono-6c" d="M 1997 1269 
Q 1997 881 2139 684 
Q 2281 488 2559 488 
L 3231 488 
L 3231 0 
L 2503 0 
Q 1988 0 1705 331 
Q 1422 663 1422 1269 
L 1422 4447 
L 500 4447 
L 500 4897 
L 1997 4897 
L 1997 1269 
z
" transform="scale(0.015625)"/>
      <path id="DejaVuSansMono-72" d="M 3609 2778 
Q 3425 2922 3234 2987 
Q 3044 3053 2816 3053 
Q 2278 3053 1993 2715 
Q 1709 2378 1709 1741 
L 1709 0 
L 1131 0 
L 1131 3500 
L 1709 3500 
L 1709 2816 
Q 1853 3188 2151 3386 
Q 2450 3584 2859 3584 
Q 3072 3584 3256 3531 
Q 3441 3478 3609 3366 
L 3609 2778 
z
" transform="scale(0.015625)"/>
      <path id="DejaVuSansMono-61" d="M 2194 1759 
L 2003 1759 
Q 1500 1759 1245 1582 
Q 991 1406 991 1056 
Q 991 741 1181 566 
Q 1372 391 1709 391 
Q 2184 391 2456 720 
Q 2728 1050 2731 1631 
L 2731 1759 
L 2194 1759 
z
M 3309 1997 
L 3309 0 
L 2731 0 
L 2731 519 
Q 2547 206 2267 57 
Q 1988 -91 1588 -91 
Q 1053 -91 734 211 
Q 416 513 416 1019 
Q 416 1603 808 1906 
Q 1200 2209 1959 2209 
L 2731 2209 
L 2731 2300 
Q 2728 2719 2518 2908 
Q 2309 3097 1850 3097 
Q 1556 3097 1256 3012 
Q 956 2928 672 2766 
L 672 3341 
Q 991 3463 1283 3523 
Q 1575 3584 1850 3584 
Q 2284 3584 2592 3456 
Q 2900 3328 3091 3072 
Q 3209 2916 3259 2686 
Q 3309 2456 3309 1997 
z
" transform="scale(0.015625)"/>
      <path id="DejaVuSansMono-69" d="M 800 3500 
L 2272 3500 
L 2272 447 
L 3413 447 
L 3413 0 
L 556 0 
L 556 447 
L 1697 447 
L 1697 3053 
L 800 3053 
L 800 3500 
z
M 1697 4863 
L 2272 4863 
L 2272 4134 
L 1697 4134 
L 1697 4863 
z
" transform="scale(0.015625)"/>
      <path id="DejaVuSansMono-6e" d="M 3284 2169 
L 3284 0 
L 2706 0 
L 2706 2169 
Q 2706 2641 2540 2862 
Q 2375 3084 2022 3084 
Q 1619 3084 1401 2798 
Q 1184 2513 1184 1978 
L 1184 0 
L 609 0 
L 609 3500 
L 1184 3500 
L 1184 2975 
Q 1338 3275 1600 3429 
Q 1863 3584 2222 3584 
Q 2756 3584 3020 3232 
Q 3284 2881 3284 2169 
z
" transform="scale(0.015625)"/>
      <path id="DejaVuSansMono-67" d="M 2681 1778 
Q 2681 2425 2470 2761 
Q 2259 3097 1856 3097 
Q 1434 3097 1212 2761 
Q 991 2425 991 1778 
Q 991 1131 1214 792 
Q 1438 453 1863 453 
Q 2259 453 2470 793 
Q 2681 1134 2681 1778 
z
M 3256 225 
Q 3256 -563 2884 -969 
Q 2513 -1375 1791 -1375 
Q 1553 -1375 1293 -1331 
Q 1034 -1288 775 -1203 
L 775 -634 
Q 1081 -778 1331 -847 
Q 1581 -916 1791 -916 
Q 2256 -916 2468 -662 
Q 2681 -409 2681 141 
L 2681 166 
L 2681 556 
Q 2544 263 2306 119 
Q 2069 -25 1728 -25 
Q 1116 -25 750 465 
Q 384 956 384 1778 
Q 384 2603 750 3093 
Q 1116 3584 1728 3584 
Q 2066 3584 2300 3450 
Q 2534 3316 2681 3034 
L 2681 3488 
L 3256 3488 
L 3256 225 
z
" transform="scale(0.015625)"/>
      <path id="DejaVuSansMono-29" d="M 1088 4856 
L 1588 4856 
Q 2059 4119 2290 3412 
Q 2522 2706 2522 2009 
Q 2522 1306 2290 600 
Q 2059 -106 1588 -844 
L 1088 -844 
Q 1503 -119 1708 590 
Q 1913 1300 1913 2009 
Q 1913 2722 1708 3431 
Q 1503 4141 1088 4856 
z
" transform="scale(0.015625)"/>
      <path id="DejaVuSansMono-3a" d="M 1528 3322 
L 2316 3322 
L 2316 2375 
L 1528 2375 
L 1528 3322 
z
M 1528 953 
L 2316 953 
L 2316 0 
L 1528 0 
L 1528 953 
z
" transform="scale(0.015625)"/>
      <path id="DejaVuSansMono-2605" d="M 181 2094 
L 1513 2094 
L 1925 3359 
L 2341 2094 
L 3672 2094 
L 2594 1309 
L 3009 47 
L 1925 828 
L 847 47 
L 1259 1309 
L 181 2094 
z
" transform="scale(0.015625)"/>
      <path id="DejaVuSansMono-62" d="M 2869 1747 
Q 2869 2416 2656 2756 
Q 2444 3097 2028 3097 
Q 1609 3097 1393 2755 
Q 1178 2413 1178 1747 
Q 1178 1084 1393 740 
Q 1609 397 2028 397 
Q 2444 397 2656 737 
Q 2869 1078 2869 1747 
z
M 1178 3053 
Q 1316 3309 1558 3446 
Q 1800 3584 2119 3584 
Q 2750 3584 3112 3098 
Q 3475 2613 3475 1759 
Q 3475 894 3111 401 
Q 2747 -91 2113 -91 
Q 1800 -91 1561 45 
Q 1322 181 1178 441 
L 1178 0 
L 603 0 
L 603 4863 
L 1178 4863 
L 1178 3053 
z
" transform="scale(0.015625)"/>
      <path id="DejaVuSansMono-68" d="M 3284 2169 
L 3284 0 
L 2706 0 
L 2706 2169 
Q 2706 2641 2540 2862 
Q 2375 3084 2022 3084 
Q 1619 3084 1401 2798 
Q 1184 2513 1184 1978 
L 1184 0 
L 609 0 
L 609 4863 
L 1184 4863 
L 1184 2975 
Q 1338 3275 1600 3429 
Q 1863 3584 2222 3584 
Q 2756 3584 3020 3232 
Q 3284 2881 3284 2169 
z
" transform="scale(0.015625)"/>
     </defs>
     <use xlink:href="#DejaVuSansMono-45"/>
     <use xlink:href="#DejaVuSansMono-78" transform="translate(60.205078 0)"/>
     <use xlink:href="#DejaVuSansMono-70" transform="translate(120.410156 0)"/>
     <use xlink:href="#DejaVuSansMono-65" transform="translate(180.615234 0)"/>
     <use xlink:href="#DejaVuSansMono-63" transform="translate(240.820312 0)"/>
     <use xlink:href="#DejaVuSansMono-74" transform="translate(301.025391 0)"/>
     <use xlink:href="#DejaVuSansMono-65" transform="translate(361.230469 0)"/>
     <use xlink:href="#DejaVuSansMono-64" transform="translate(421.435547 0)"/>
     <use xlink:href="#DejaVuSansMono-20" transform="translate(481.640625 0)"/>
     <use xlink:href="#DejaVuSansMono-28" transform="translate(541.845703 0)"/>
     <use xlink:href="#DejaVuSansMono-64" transform="translate(602.050781 0)"/>
     <use xlink:href="#DejaVuSansMono-65" transform="translate(662.255859 0)"/>
     <use xlink:href="#DejaVuSansMono-63" transform="translate(722.460938 0)"/>
     <use xlink:href="#DejaVuSansMono-65" transform="translate(782.666016 0)"/>
     <use xlink:href="#DejaVuSansMono-6c" transform="translate(842.871094 0)"/>
     <use xlink:href="#DejaVuSansMono-65" transform="translate(903.076172 0)"/>
     <use xlink:href="#DejaVuSansMono-72" transform="translate(963.28125 0)"/>
     <use xlink:href="#DejaVuSansMono-61" transform="translate(1023.486328 0)"/>
     <use xlink:href="#DejaVuSansMono-74" transform="translate(1083.691406 0)"/>
     <use xlink:href="#DejaVuSansMono-69" transform="translate(1143.896484 0)"/>
     <use xlink:href="#DejaVuSansMono-6e" transform="translate(1204.101562 0)"/>
     <use xlink:href="#DejaVuSansMono-67" transform="translate(1264.306641 0)"/>
     <use xlink:href="#DejaVuSansMono-29" transform="translate(1324.511719 0)"/>
     <use xlink:href="#DejaVuSansMono-3a" transform="translate(1384.716797 0)"/>
     <use xlink:href="#DejaVuSansMono-20" transform="translate(1444.921875 0)"/>
     <use xlink:href="#DejaVuSansMono-20" transform="translate(1505.126953 0)"/>
     <use xlink:href="#DejaVuSansMono-20" transform="translate(1565.332031 0)"/>
     <use xlink:href="#DejaVuSansMono-20" transform="translate(1625.537109 0)"/>
     <use xlink:href="#DejaVuSansMono-2605" transform="translate(1685.742188 0)"/>
     <use xlink:href="#DejaVuSansMono-20" transform="translate(1745.947266 0)"/>
     <use xlink:href="#DejaVuSansMono-28" transform="translate(1806.152344 0)"/>
     <use xlink:href="#DejaVuSansMono-62" transform="translate(1866.357422 0)"/>
     <use xlink:href="#DejaVuSansMono-72" transform="translate(1926.5625 0)"/>
     <use xlink:href="#DejaVuSansMono-69" transform="translate(1986.767578 0)"/>
     <use xlink:href="#DejaVuSansMono-67" transform="translate(2046.972656 0)"/>
     <use xlink:href="#DejaVuSansMono-68" transform="translate(2107.177734 0)"/>
     <use xlink:href="#DejaVuSansMono-74" transform="translate(2167.382812 0)"/>
     <use xlink:href="#DejaVuSansMono-29" transform="translate(2227.587891 0)"/>
    </g>
    <!-- Observed:                   ★ (fainter) -->
    <g style="fill: #2c3e50" transform="translate(14.112 28.833875) scale(0.1 -0.1)">
     <defs>
      <path id="DejaVuSansMono-4f" d="M 2828 2328 
Q 2828 3356 2617 3797 
Q 2406 4238 1925 4238 
Q 1447 4238 1236 3797 
Q 1025 3356 1025 2328 
Q 1025 1303 1236 862 
Q 1447 422 1925 422 
Q 2406 422 2617 861 
Q 2828 1300 2828 2328 
z
M 3488 2328 
Q 3488 1109 3102 509 
Q 2716 -91 1925 -91 
Q 1134 -91 750 506 
Q 366 1103 366 2328 
Q 366 3550 752 4150 
Q 1138 4750 1925 4750 
Q 2716 4750 3102 4150 
Q 3488 3550 3488 2328 
z
" transform="scale(0.015625)"/>
      <path id="DejaVuSansMono-73" d="M 3041 3378 
L 3041 2816 
Q 2794 2959 2544 3031 
Q 2294 3103 2034 3103 
Q 1644 3103 1451 2976 
Q 1259 2850 1259 2591 
Q 1259 2356 1403 2240 
Q 1547 2125 2119 2016 
L 2350 1972 
Q 2778 1891 2998 1647 
Q 3219 1403 3219 1013 
Q 3219 494 2850 201 
Q 2481 -91 1825 -91 
Q 1566 -91 1281 -36 
Q 997 19 666 128 
L 666 722 
Q 988 556 1281 473 
Q 1575 391 1838 391 
Q 2219 391 2428 545 
Q 2638 700 2638 978 
Q 2638 1378 1872 1531 
L 1847 1538 
L 1631 1581 
Q 1134 1678 906 1908 
Q 678 2138 678 2534 
Q 678 3038 1018 3311 
Q 1359 3584 1991 3584 
Q 2272 3584 2531 3532 
Q 2791 3481 3041 3378 
z
" transform="scale(0.015625)"/>
      <path id="DejaVuSansMono-76" d="M 313 3500 
L 909 3500 
L 1925 563 
L 2944 3500 
L 3541 3500 
L 2297 0 
L 1556 0 
L 313 3500 
z
" transform="scale(0.015625)"/>
      <path id="DejaVuSansMono-66" d="M 3322 4863 
L 3322 4384 
L 2669 4384 
Q 2359 4384 2239 4257 
Q 2119 4131 2119 3809 
L 2119 3500 
L 3322 3500 
L 3322 3053 
L 2119 3053 
L 2119 0 
L 1544 0 
L 1544 3053 
L 609 3053 
L 609 3500 
L 1544 3500 
L 1544 3744 
Q 1544 4319 1808 4591 
Q 2072 4863 2631 4863 
L 3322 4863 
z
" transform="scale(0.015625)"/>
     </defs>
     <use xlink:href="#DejaVuSansMono-4f"/>
     <use xlink:href="#DejaVuSansMono-62" transform="translate(60.205078 0)"/>
     <use xlink:href="#DejaVuSansMono-73" transform="translate(120.410156 0)"/>
     <use xlink:href="#DejaVuSansMono-65" transform="translate(180.615234 0)"/>
     <use xlink:href="#DejaVuSansMono-72" transform="translate(240.820312 0)"/>
     <use xlink:href="#DejaVuSansMono-76" transform="translate(301.025391 0)"/>
     <use xlink:href="#DejaVuSansMono-65" transform="translate(361.230469 0)"/>
     <use xlink:href="#DejaVuSansMono-64" transform="translate(421.435547 0)"/>
     <use xlink:href="#DejaVuSansMono-3a" transform="translate(481.640625 0)"/>
     <use xlink:href="#DejaVuSansMono-20" transform="translate(541.845703 0)"/>
     <use xlink:href="#DejaVuSansMono-20" transform="translate(602.050781 0)"/>
     <use xlink:href="#DejaVuSansMono-20" transform="translate(662.255859 0)"/>
     <use xlink:href="#DejaVuSansMono-20" transform="translate(722.460938 0)"/>
     <use xlink:href="#DejaVuSansMono-20" transform="translate(782.666016 0)"/>
     <use xlink:href="#DejaVuSansMono-20" transform="translate(842.871094 0)"/>
     <use xlink:href="#DejaVuSansMono-20" transform="translate(903.076172 0)"/>
     <use xlink:href="#DejaVuSansMono-20" transform="translate(963.28125 0)"/>
     <use xlink:href="#DejaVuSansMono-20" transform="translate(1023.486328 0)"/>
     <use xlink:href="#DejaVuSansMono-20" transform="translate(1083.691406 0)"/>
     <use xlink:href="#DejaVuSansMono-20" transform="translate(1143.896484 0)"/>
     <use xlink:href="#DejaVuSansMono-20" transform="translate(1204.101562 0)"/>
     <use xlink:href="#DejaVuSansMono-20" transform="translate(1264.306641 0)"/>
     <use xlink:href="#DejaVuSansMono-20" transform="translate(1324.511719 0)"/>
     <use xlink:href="#DejaVuSansMono-20" transform="translate(1384.716797 0)"/>
     <use xlink:href="#DejaVuSansMono-20" transform="translate(1444.921875 0)"/>
     <use xlink:href="#DejaVuSansMono-20" transform="translate(1505.126953 0)"/>
     <use xlink:href="#DejaVuSansMono-20" transform="translate(1565.332031 0)"/>
     <use xlink:href="#DejaVuSansMono-20" transform="translate(1625.537109 0)"/>
     <use xlink:href="#DejaVuSansMono-2605" transform="translate(1685.742188 0)"/>
     <use xlink:href="#DejaVuSansMono-20" transform="translate(1745.947266 0)"/>
     <use xlink:href="#DejaVuSansMono-28" transform="translate(1806.152344 0)"/>
     <use xlink:href="#DejaVuSansMono-66" transform="translate(1866.357422 0)"/>
     <use xlink:href="#DejaVuSansMono-61" transform="translate(1926.5625 0)"/>
     <use xlink:href="#DejaVuSansMono-69" transform="translate(1986.767578 0)"/>
     <use xlink:href="#DejaVuSansMono-6e" transform="translate(2046.972656 0)"/>
     <use xlink:href="#DejaVuSansMono-74" transform="translate(2107.177734 0)"/>
     <use xlink:href="#DejaVuSansMono-65" transform="translate(2167.382812 0)"/>
     <use xlink:href="#DejaVuSansMono-72" transform="translate(2227.587891 0)"/>
     <use xlink:href="#DejaVuSansMono-29" transform="translate(2287.792969 0)"/>
    </g>
    <!--                               ↓ -->
    <g style="fill: #2c3e50" transform="translate(14.112 40.095438) scale(0.1 -0.1)">
     <defs>
      <path id="DejaVuSansMono-2193" d="M 1800 0 
L 888 909 
L 1169 1191 
L 1669 691 
L 1669 3441 
L 2181 3441 
L 2181 691 
L 2681 1191 
L 2963 909 
L 2056 0 
L 1800 0 
z
" transform="scale(0.015625)"/>
     </defs>
     <use xlink:href="#DejaVuSansMono-20"/>
     <use xlink:href="#DejaVuSansMono-20" transform="translate(60.205078 0)"/>
     <use xlink:href="#DejaVuSansMono-20" transform="translate(120.410156 0)"/>
     <use xlink:href="#DejaVuSansMono-20" transform="translate(180.615234 0)"/>
     <use xlink:href="#DejaVuSansMono-20" transform="translate(240.820312 0)"/>
     <use xlink:href="#DejaVuSansMono-20" transform="translate(301.025391 0)"/>
     <use xlink:href="#DejaVuSansMono-20" transform="translate(361.230469 0)"/>
     <use xlink:href="#DejaVuSansMono-20" transform="translate(421.435547 0)"/>
     <use xlink:href="#DejaVuSansMono-20" transform="translate(481.640625 0)"/>
     <use xlink:href="#DejaVuSansMono-20" transform="translate(541.845703 0)"/>
     <use xlink:href="#DejaVuSansMono-20" transform="translate(602.050781 0)"/>
     <use xlink:href="#DejaVuSansMono-20" transform="translate(662.255859 0)"/>
     <use xlink:href="#DejaVuSansMono-20" transform="translate(722.460938 0)"/>
     <use xlink:href="#DejaVuSansMono-20" transform="translate(782.666016 0)"/>
     <use xlink:href="#DejaVuSansMono-20" transform="translate(842.871094 0)"/>
     <use xlink:href="#DejaVuSansMono-20" transform="translate(903.076172 0)"/>
     <use xlink:href="#DejaVuSansMono-20" transform="translate(963.28125 0)"/>
     <use xlink:href="#DejaVuSansMono-20" transform="translate(1023.486328 0)"/>
     <use xlink:href="#DejaVuSansMono-20" transform="translate(1083.691406 0)"/>
     <use xlink:href="#DejaVuSansMono-20" transform="translate(1143.896484 0)"/>
     <use xlink:href="#DejaVuSansMono-20" transform="translate(1204.101562 0)"/>
     <use xlink:href="#DejaVuSansMono-20" transform="translate(1264.306641 0)"/>
     <use xlink:href="#DejaVuSansMono-20" transform="translate(1324.511719 0)"/>
     <use xlink:href="#DejaVuSansMono-20" transform="translate(1384.716797 0)"/>
     <use xlink:href="#DejaVuSansMono-20" transform="translate(1444.921875 0)"/>
     <use xlink:href="#DejaVuSansMono-20" transform="translate(1505.126953 0)"/>
     <use xlink:href="#DejaVuSansMono-20" transform="translate(1565.332031 0)"/>
     <use xlink:href="#DejaVuSansMono-20" transform="translate(1625.537109 0)"/>
     <use xlink:href="#DejaVuSansMono-20" transform="translate(1685.742188 0)"/>
     <use xlink:href="#DejaVuSansMono-20" transform="translate(1745.947266 0)"/>
     <use xlink:href="#DejaVuSansMono-2193" transform="translate(1806.152344 0)"/>
    </g>
    <!--                            Farther than expected -->
    <g style="fill: #2c3e50" transform="translate(14.112 51.357) scale(0.1 -0.1)">
     <defs>
      <path id="DejaVuSansMono-46" d="M 728 4666 
L 3475 4666 
L 3475 4134 
L 1363 4134 
L 1363 2759 
L 3278 2759 
L 3278 2228 
L 1363 2228 
L 1363 0 
L 728 0 
L 728 4666 
z
" transform="scale(0.015625)"/>
     </defs>
     <use xlink:href="#DejaVuSansMono-20"/>
     <use xlink:href="#DejaVuSansMono-20" transform="translate(60.205078 0)"/>
     <use xlink:href="#DejaVuSansMono-20" transform="translate(120.410156 0)"/>
     <use xlink:href="#DejaVuSansMono-20" transform="translate(180.615234 0)"/>
     <use xlink:href="#DejaVuSansMono-20" transform="translate(240.820312 0)"/>
     <use xlink:href="#DejaVuSansMono-20" transform="translate(301.025391 0)"/>
     <use xlink:href="#DejaVuSansMono-20" transform="translate(361.230469 0)"/>
     <use xlink:href="#DejaVuSansMono-20" transform="translate(421.435547 0)"/>
     <use xlink:href="#DejaVuSansMono-20" transform="translate(481.640625 0)"/>
     <use xlink:href="#DejaVuSansMono-20" transform="translate(541.845703 0)"/>
     <use xlink:href="#DejaVuSansMono-20" transform="translate(602.050781 0)"/>
     <use xlink:href="#DejaVuSansMono-20" transform="translate(662.255859 0)"/>
     <use xlink:href="#DejaVuSansMono-20" transform="translate(722.460938 0)"/>
     <use xlink:href="#DejaVuSansMono-20" transform="translate(782.666016 0)"/>
     <use xlink:href="#DejaVuSansMono-20" transform="translate(842.871094 0)"/>
     <use xlink:href="#DejaVuSansMono-20" transform="translate(903.076172 0)"/>
     <use xlink:href="#DejaVuSansMono-20" transform="translate(963.28125 0)"/>
     <use xlink:href="#DejaVuSansMono-20" transform="translate(1023.486328 0)"/>
     <use xlink:href="#DejaVuSansMono-20" transform="translate(1083.691406 0)"/>
     <use xlink:href="#DejaVuSansMono-20" transform="translate(1143.896484 0)"/>
     <use xlink:href="#DejaVuSansMono-20" transform="translate(1204.101562 0)"/>
     <use xlink:href="#DejaVuSansMono-20" transform="translate(1264.306641 0)"/>
     <use xlink:href="#DejaVuSansMono-20" transform="translate(1324.511719 0)"/>
     <use xlink:href="#DejaVuSansMono-20" transform="translate(1384.716797 0)"/>
     <use xlink:href="#DejaVuSansMono-20" transform="translate(1444.921875 0)"/>
     <use xlink:href="#DejaVuSansMono-20" transform="translate(1505.126953 0)"/>
     <use xlink:href="#DejaVuSansMono-20" transform="translate(1565.332031 0)"/>
     <use xlink:href="#DejaVuSansMono-46" transform="translate(1625.537109 0)"/>
     <use xlink:href="#DejaVuSansMono-61" transform="translate(1685.742188 0)"/>
     <use xlink:href="#DejaVuSansMono-72" transform="translate(1745.947266 0)"/>
     <use xlink:href="#DejaVuSansMono-74" transform="translate(1806.152344 0)"/>
     <use xlink:href="#DejaVuSansMono-68" transform="translate(1866.357422 0)"/>
     <use xlink:href="#DejaVuSansMono-65" transform="translate(1926.5625 0)"/>
     <use xlink:href="#DejaVuSansMono-72" transform="translate(1986.767578 0)"/>
     <use xlink:href="#DejaVuSansMono-20" transform="translate(2046.972656 0)"/>
     <use xlink:href="#DejaVuSansMono-74" transform="translate(2107.177734 0)"/>
     <use xlink:href="#DejaVuSansMono-68" transform="translate(2167.382812 0)"/>
     <use xlink:href="#DejaVuSansMono-61" transform="translate(2227.587891 0)"/>
     <use xlink:href="#DejaVuSansMono-6e" transform="translate(2287.792969 0)"/>
     <use xlink:href="#DejaVuSansMono-20" transform="translate(2347.998047 0)"/>
     <use xlink:href="#DejaVuSansMono-65" transform="translate(2408.203125 0)"/>
     <use xlink:href="#DejaVuSansMono-78" transform="translate(2468.408203 0)"/>
     <use xlink:href="#DejaVuSansMono-70" transform="translate(2528.613281 0)"/>
     <use xlink:href="#DejaVuSansMono-65" transform="translate(2588.818359 0)"/>
     <use xlink:href="#DejaVuSansMono-63" transform="translate(2649.023438 0)"/>
     <use xlink:href="#DejaVuSansMono-74" transform="translate(2709.228516 0)"/>
     <use xlink:href="#DejaVuSansMono-65" transform="translate(2769.433594 0)"/>
     <use xlink:href="#DejaVuSansMono-64" transform="translate(2829.638672 0)"/>
    </g>
    <!--                               ↓ -->
    <g style="fill: #2c3e50" transform="translate(14.112 62.618563) scale(0.1 -0.1)">
     <use xlink:href="#DejaVuSansMono-20"/>
     <use xlink:href="#DejaVuSansMono-20" transform="translate(60.205078 0)"/>
     <use xlink:href="#DejaVuSansMono-20" transform="translate(120.410156 0)"/>
     <use xlink:href="#DejaVuSansMono-20" transform="translate(180.615234 0)"/>
     <use xlink:href="#DejaVuSansMono-20" transform="translate(240.820312 0)"/>
     <use xlink:href="#DejaVuSansMono-20" transform="translate(301.025391 0)"/>
     <use xlink:href="#DejaVuSansMono-20" transform="translate(361.230469 0)"/>
     <use xlink:href="#DejaVuSansMono-20" transform="translate(421.435547 0)"/>
     <use xlink:href="#DejaVuSansMono-20" transform="translate(481.640625 0)"/>
     <use xlink:href="#DejaVuSansMono-20" transform="translate(541.845703 0)"/>
     <use xlink:href="#DejaVuSansMono-20" transform="translate(602.050781 0)"/>
     <use xlink:href="#DejaVuSansMono-20" transform="translate(662.255859 0)"/>
     <use xlink:href="#DejaVuSansMono-20" transform="translate(722.460938 0)"/>
     <use xlink:href="#DejaVuSansMono-20" transform="translate(782.666016 0)"/>
     <use xlink:href="#DejaVuSansMono-20" transform="translate(842.871094 0)"/>
     <use xlink:href="#DejaVuSansMono-20" transform="translate(903.076172 0)"/>
     <use xlink:href="#DejaVuSansMono-20" transform="translate(963.28125 0)"/>
     <use xlink:href="#DejaVuSansMono-20" transform="translate(1023.486328 0)"/>
     <use xlink:href="#DejaVuSansMono-20" transform="translate(1083.691406 0)"/>
     <use xlink:href="#DejaVuSansMono-20" transform="translate(1143.896484 0)"/>
     <use xlink:href="#DejaVuSansMono-20" transform="translate(1204.101562 0)"/>
     <use xlink:href="#DejaVuSansMono-20" transform="translate(1264.306641 0)"/>
     <use xlink:href="#DejaVuSansMono-20" transform="translate(1324.511719 0)"/>
     <use xlink:href="#DejaVuSansMono-20" transform="translate(1384.716797 0)"/>
     <use xlink:href="#DejaVuSansMono-20" transform="translate(1444.921875 0)"/>
     <use xlink:href="#DejaVuSansMono-20" transform="translate(1505.126953 0)"/>
     <use xlink:href="#DejaVuSansMono-20" transform="translate(1565.332031 0)"/>
     <use xlink:href="#DejaVuSansMono-20" transform="translate(1625.537109 0)"/>
     <use xlink:href="#DejaVuSansMono-20" transform="translate(1685.742188 0)"/>
     <use xlink:href="#DejaVuSansMono-20" transform="translate(1745.947266 0)"/>
     <use xlink:href="#DejaVuSansMono-2193" transform="translate(1806.152344 0)"/>
    </g>
    <!--                            Universe accelerating -->
    <g style="fill: #2c3e50" transform="translate(14.112 73.880125) scale(0.1 -0.1)">
     <defs>
      <path id="DejaVuSansMono-55" d="M 459 1791 
L 459 4666 
L 1094 4666 
L 1094 1503 
Q 1094 1163 1112 1017 
Q 1131 872 1178 794 
Q 1278 609 1467 515 
Q 1656 422 1925 422 
Q 2197 422 2384 515 
Q 2572 609 2675 794 
Q 2722 872 2740 1015 
Q 2759 1159 2759 1497 
L 2759 4666 
L 3391 4666 
L 3391 1791 
Q 3391 1075 3302 773 
Q 3213 472 2994 275 
Q 2788 91 2522 0 
Q 2256 -91 1925 -91 
Q 1597 -91 1331 0 
Q 1066 91 856 275 
Q 641 469 550 776 
Q 459 1084 459 1791 
z
" transform="scale(0.015625)"/>
     </defs>
     <use xlink:href="#DejaVuSansMono-20"/>
     <use xlink:href="#DejaVuSansMono-20" transform="translate(60.205078 0)"/>
     <use xlink:href="#DejaVuSansMono-20" transform="translate(120.410156 0)"/>
     <use xlink:href="#DejaVuSansMono-20" transform="translate(180.615234 0)"/>
     <use xlink:href="#DejaVuSansMono-20" transform="translate(240.820312 0)"/>
     <use xlink:href="#DejaVuSansMono-20" transform="translate(301.025391 0)"/>
     <use xlink:href="#DejaVuSansMono-20" transform="translate(361.230469 0)"/>
     <use xlink:href="#DejaVuSansMono-20" transform="translate(421.435547 0)"/>
     <use xlink:href="#DejaVuSansMono-20" transform="translate(481.640625 0)"/>
     <use xlink:href="#DejaVuSansMono-20" transform="translate(541.845703 0)"/>
     <use xlink:href="#DejaVuSansMono-20" transform="translate(602.050781 0)"/>
     <use xlink:href="#DejaVuSansMono-20" transform="translate(662.255859 0)"/>
     <use xlink:href="#DejaVuSansMono-20" transform="translate(722.460938 0)"/>
     <use xlink:href="#DejaVuSansMono-20" transform="translate(782.666016 0)"/>
     <use xlink:href="#DejaVuSansMono-20" transform="translate(842.871094 0)"/>
     <use xlink:href="#DejaVuSansMono-20" transform="translate(903.076172 0)"/>
     <use xlink:href="#DejaVuSansMono-20" transform="translate(963.28125 0)"/>
     <use xlink:href="#DejaVuSansMono-20" transform="translate(1023.486328 0)"/>
     <use xlink:href="#DejaVuSansMono-20" transform="translate(1083.691406 0)"/>
     <use xlink:href="#DejaVuSansMono-20" transform="translate(1143.896484 0)"/>
     <use xlink:href="#DejaVuSansMono-20" transform="translate(1204.101562 0)"/>
     <use xlink:href="#DejaVuSansMono-20" transform="translate(1264.306641 0)"/>
     <use xlink:href="#DejaVuSansMono-20" transform="translate(1324.511719 0)"/>
     <use xlink:href="#DejaVuSansMono-20" transform="translate(1384.716797 0)"/>
     <use xlink:href="#DejaVuSansMono-20" transform="translate(1444.921875 0)"/>
     <use xlink:href="#DejaVuSansMono-20" transform="translate(1505.126953 0)"/>
     <use xlink:href="#DejaVuSansMono-20" transform="translate(1565.332031 0)"/>
     <use xlink:href="#DejaVuSansMono-55" transform="translate(1625.537109 0)"/>
     <use xlink:href="#DejaVuSansMono-6e" transform="translate(1685.742188 0)"/>
     <use xlink:href="#DejaVuSansMono-69" transform="translate(1745.947266 0)"/>
     <use xlink:href="#DejaVuSansMono-76" transform="translate(1806.152344 0)"/>
     <use xlink:href="#DejaVuSansMono-65" transform="translate(1866.357422 0)"/>
     <use xlink:href="#DejaVuSansMono-72" transform="translate(1926.5625 0)"/>
     <use xlink:href="#DejaVuSansMono-73" transform="translate(1986.767578 0)"/>
     <use xlink:href="#DejaVuSansMono-65" transform="translate(2046.972656 0)"/>
     <use xlink:href="#DejaVuSansMono-20" transform="translate(2107.177734 0)"/>
     <use xlink:href="#DejaVuSansMono-61" transform="translate(2167.382812 0)"/>
     <use xlink:href="#DejaVuSansMono-63" transform="translate(2227.587891 0)"/>
     <use xlink:href="#DejaVuSansMono-63" transform="translate(2287.792969 0)"/>
     <use xlink:href="#DejaVuSansMono-65" transform="translate(2347.998047 0)"/>
     <use xlink:href="#DejaVuSansMono-6c" transform="translate(2408.203125 0)"/>
     <use xlink:href="#DejaVuSansMono-65" transform="translate(2468.408203 0)"/>
     <use xlink:href="#DejaVuSansMono-72" transform="translate(2528.613281 0)"/>
     <use xlink:href="#DejaVuSansMono-61" transform="translate(2588.818359 0)"/>
     <use xlink:href="#DejaVuSansMono-74" transform="translate(2649.023438 0)"/>
     <use xlink:href="#DejaVuSansMono-69" transform="translate(2709.228516 0)"/>
     <use xlink:href="#DejaVuSansMono-6e" transform="translate(2769.433594 0)"/>
     <use xlink:href="#DejaVuSansMono-67" transform="translate(2829.638672 0)"/>
    </g>
    <!--  -->
    <g style="fill: #2c3e50" transform="translate(14.112 85.210438) scale(0.1 -0.1)"/>
   </g>
  </g>
 </g>
</svg>
